<?xml version="1.0" encoding="UTF-8" standalone="no"?>
<!-- Created with Inkscape (http://www.inkscape.org/) -->

<svg
   xmlns:dc="http://purl.org/dc/elements/1.1/"
   xmlns:cc="http://creativecommons.org/ns#"
   xmlns:rdf="http://www.w3.org/1999/02/22-rdf-syntax-ns#"
   xmlns:svg="http://www.w3.org/2000/svg"
   xmlns="http://www.w3.org/2000/svg"
   xmlns:xlink="http://www.w3.org/1999/xlink"
   xmlns:sodipodi="http://sodipodi.sourceforge.net/DTD/sodipodi-0.dtd"
   xmlns:inkscape="http://www.inkscape.org/namespaces/inkscape"
   version="1.0"
   width="24"
   height="24"
   id="svg4431"
   inkscape:version="0.91 r"
   sodipodi:docname="diodon-panel.svg">
  <sodipodi:namedview
     pagecolor="#353535"
     bordercolor="#666666"
     borderopacity="1"
     objecttolerance="10"
     gridtolerance="10"
     guidetolerance="10"
     inkscape:pageopacity="0.63529412"
     inkscape:pageshadow="2"
     inkscape:window-width="1010"
     inkscape:window-height="524"
     id="namedview16"
     showgrid="false"
     inkscape:zoom="9.95"
     inkscape:cx="7.4170915"
     inkscape:cy="10.409162"
     inkscape:window-x="218"
     inkscape:window-y="125"
     inkscape:window-maximized="0"
     inkscape:current-layer="svg4431" />
  <metadata
     id="metadata16">
    <rdf:RDF>
      <cc:Work
         rdf:about="">
        <dc:format>image/svg+xml</dc:format>
        <dc:type
           rdf:resource="http://purl.org/dc/dcmitype/StillImage" />
        <dc:title />
      </cc:Work>
    </rdf:RDF>
  </metadata>
  <defs
     id="defs4433">
    <linearGradient
       x1="50.925655"
       y1="11.648451"
       x2="73.986542"
       y2="11.648451"
       id="linearGradient2390"
       xlink:href="#linearGradient3678"
       gradientUnits="userSpaceOnUse"
       gradientTransform="matrix(0,0.7805424,-0.7617909,0,28.873684,-37.749634)" />
    <linearGradient
       x1="9"
       y1="3"
       x2="9"
       y2="21"
       id="linearGradient2393"
       xlink:href="#linearGradient3678"
       gradientUnits="userSpaceOnUse"
       gradientTransform="translate(-2,-1)" />
    <linearGradient
       x1="15"
       y1="8"
       x2="15"
       y2="20"
       id="linearGradient3692"
       xlink:href="#linearGradient3678"
       gradientUnits="userSpaceOnUse" />
    <linearGradient
       x1="9.1701241"
       y1="3"
       x2="9.311203"
       y2="15"
       id="linearGradient3684"
       xlink:href="#linearGradient3678"
       gradientUnits="userSpaceOnUse" />
    <linearGradient
       id="linearGradient3678">
      <stop
         id="stop3680"
         style="stop-color:#ffffff;stop-opacity:1"
         offset="0" />
      <stop
         id="stop3682"
         style="stop-color:#e6e6e6;stop-opacity:1"
         offset="1" />
    </linearGradient>
    <linearGradient
       x1="9.1701241"
       y1="3"
       x2="9.311203"
       y2="15"
       id="linearGradient3640"
       xlink:href="#linearGradient3678"
       gradientUnits="userSpaceOnUse"
       gradientTransform="translate(-22.566265,-7.7349402)" />
    <linearGradient
       x1="15"
       y1="8"
       x2="15"
       y2="20"
       id="linearGradient3643"
       xlink:href="#linearGradient3678"
       gradientUnits="userSpaceOnUse"
       gradientTransform="translate(-22.566265,-7.7349402)" />
  </defs>
  <path
     inkscape:connector-curvature="0"
     d="m 19.141181,15.253392 c 1.182405,1.097609 1.121525,2.827542 -0.0448,3.910642 -1.169045,1.078834 -3.038734,1.135582 -4.224579,0.04117 L 5.1166385,10.174531 C 3.5795116,8.7471071 3.657112,6.5009061 5.1782385,5.0894821 6.7037653,3.6827511 9.1303363,3.6110701 10.672184,5.0333821 L 18.8019,12.558984 c 0.17992,0.166186 0.17992,0.435626 0,0.601175 -0.179681,0.166401 -0.470243,0.167041 -0.650003,6.49e-4 L 10.021461,5.6358451 c -1.1722457,-1.083741 -3.0000943,-1.040008 -4.1932196,0.055682 -1.1831253,1.103154 -1.2298455,2.795541 -0.0584,3.881201 l 9.7547636,9.0306749 c 0.817604,0.753713 2.087609,0.725553 2.924173,-0.04117 0.829844,-0.775686 0.858804,-1.950094 0.0456,-2.707646 L 10.365223,8.3296211 c -0.4222427,-0.391256 -1.1043257,-0.376963 -1.5872077,0.06122 -0.4723225,0.446296 -0.4880026,1.077554 -0.064,1.468809 l 7.3159527,6.7725269 c 0.180561,0.166188 0.179921,0.435629 0,0.601817 -0.179521,0.166189 -0.470882,0.166829 -0.650563,6.47e-4 L 8.0636927,10.460837 C 7.2569691,9.7120321 7.3354494,8.5258891 8.1284927,7.7890301 8.9257763,7.0532391 10.207623,6.9815581 11.016346,7.7271701 l 8.128436,7.5262409 z"
     style="fill:#ffffff;fill-opacity:1;fill-rule:nonzero;stroke:none"
     id="path108" />
</svg>
