<?xml version="1.0" encoding="UTF-8" standalone="no"?>
<!-- Created with Inkscape (http://www.inkscape.org/) -->

<svg
   xmlns:dc="http://purl.org/dc/elements/1.1/"
   xmlns:cc="http://creativecommons.org/ns#"
   xmlns:rdf="http://www.w3.org/1999/02/22-rdf-syntax-ns#"
   xmlns:svg="http://www.w3.org/2000/svg"
   xmlns="http://www.w3.org/2000/svg"
   xmlns:xlink="http://www.w3.org/1999/xlink"
   xmlns:sodipodi="http://sodipodi.sourceforge.net/DTD/sodipodi-0.dtd"
   xmlns:inkscape="http://www.inkscape.org/namespaces/inkscape"
   version="1.0"
   width="24"
   height="24"
   id="svg4431"
   inkscape:version="0.91 r"
   sodipodi:docname="diodon-panel.svg">
  <sodipodi:namedview
     pagecolor="#353535"
     bordercolor="#666666"
     borderopacity="1"
     objecttolerance="10"
     gridtolerance="10"
     guidetolerance="10"
     inkscape:pageopacity="0.63529412"
     inkscape:pageshadow="2"
     inkscape:window-width="1010"
     inkscape:window-height="524"
     id="namedview16"
     showgrid="false"
     inkscape:zoom="9.8333333"
     inkscape:cx="-18.762712"
     inkscape:cy="11.59322"
     inkscape:window-x="490"
     inkscape:window-y="225"
     inkscape:window-maximized="0"
     inkscape:current-layer="svg4431" />
  <metadata
     id="metadata16">
    <rdf:RDF>
      <cc:Work
         rdf:about="">
        <dc:format>image/svg+xml</dc:format>
        <dc:type
           rdf:resource="http://purl.org/dc/dcmitype/StillImage" />
        <dc:title />
      </cc:Work>
    </rdf:RDF>
  </metadata>
  <defs
     id="defs4433">
    <linearGradient
       x1="50.925655"
       y1="11.648451"
       x2="73.986542"
       y2="11.648451"
       id="linearGradient2390"
       xlink:href="#linearGradient3678"
       gradientUnits="userSpaceOnUse"
       gradientTransform="matrix(0,0.7805424,-0.7617909,0,28.873684,-37.749634)" />
    <linearGradient
       x1="9"
       y1="3"
       x2="9"
       y2="21"
       id="linearGradient2393"
       xlink:href="#linearGradient3678"
       gradientUnits="userSpaceOnUse"
       gradientTransform="translate(-2,-1)" />
    <linearGradient
       x1="15"
       y1="8"
       x2="15"
       y2="20"
       id="linearGradient3692"
       xlink:href="#linearGradient3678"
       gradientUnits="userSpaceOnUse" />
    <linearGradient
       x1="9.1701241"
       y1="3"
       x2="9.311203"
       y2="15"
       id="linearGradient3684"
       xlink:href="#linearGradient3678"
       gradientUnits="userSpaceOnUse" />
    <linearGradient
       id="linearGradient3678">
      <stop
         id="stop3680"
         style="stop-color:#ffffff;stop-opacity:1"
         offset="0" />
      <stop
         id="stop3682"
         style="stop-color:#e6e6e6;stop-opacity:1"
         offset="1" />
    </linearGradient>
    <linearGradient
       x1="9.1701241"
       y1="3"
       x2="9.311203"
       y2="15"
       id="linearGradient3640"
       xlink:href="#linearGradient3678"
       gradientUnits="userSpaceOnUse"
       gradientTransform="translate(-22.566265,-7.7349402)" />
    <linearGradient
       x1="15"
       y1="8"
       x2="15"
       y2="20"
       id="linearGradient3643"
       xlink:href="#linearGradient3678"
       gradientUnits="userSpaceOnUse"
       gradientTransform="translate(-22.566265,-7.7349402)" />
  </defs>
  <path
     style="fill:#ffffff;fill-opacity:1"
     inkscape:connector-curvature="0"
     id="path8"
     d="M 20,17.120215 C 20,17.93687 19.699127,18.62458 19.09738,19.1726 18.495635,19.725992 17.748825,20 16.856951,20 15.83076,20 14.933513,19.650773 14.170585,18.95769 L 5.2894565,10.828745 c -0.859637,-0.805911 -1.289456,-1.751512 -1.289456,-2.8421772 0,-1.1067825 0.419073,-2.0523836 1.257219,-2.8260572 C 6.0953655,4.386837 7.1161855,4 8.3304235,4 9.5339155,4 10.576227,4.3922093 11.451981,5.1820015 L 18.36669,11.5272 c 0.07522,0.06984 0.112825,0.150436 0.112825,0.231027 0,0.112826 -0.112825,0.27401 -0.343854,0.48892 -0.236399,0.209535 -0.413699,0.31699 -0.531899,0.31699 -0.102083,0 -0.188046,-0.03224 -0.263265,-0.102084 L 10.409672,6.1007366 C 9.8079255,5.5634618 9.1202155,5.2948258 8.3411695,5.2948258 c -0.805911,0 -1.488249,0.2632636 -2.047013,0.7897922 -0.55339,0.5211548 -0.832772,1.1551367 -0.832772,1.8912022 0,0.7360638 0.290126,1.3646738 0.870382,1.8965748 l 8.8703835,8.139692 c 0.478173,0.440563 1.031565,0.660845 1.654801,0.660845 0.488919,0 0.891875,-0.145063 1.214238,-0.440564 0.316991,-0.2955 0.478173,-0.660846 0.478173,-1.112156 0,-0.569509 -0.2364,-1.074547 -0.719947,-1.51511 L 11.188717,9.517794 C 10.989926,9.35124 10.758898,9.265276 10.501008,9.265276 c -0.220282,0 -0.402954,0.06984 -0.5480185,0.198791 -0.145064,0.134324 -0.21491,0.300873 -0.21491,0.505038 0,0.220281 0.09134,0.429818 0.2847555,0.617863 l 4.685024,4.292815 c 0.07522,0.06984 0.118203,0.145064 0.118203,0.231027 0,0.112826 -0.118203,0.27401 -0.354602,0.494292 -0.2364,0.214909 -0.419072,0.322364 -0.537273,0.322364 -0.09134,0 -0.1773,-0.03224 -0.252519,-0.102084 L 8.9912695,11.527197 c -0.478173,-0.424447 -0.719947,-0.945601 -0.719947,-1.558092 0,-0.574883 0.220283,-1.05843 0.655474,-1.4560114 0.429819,-0.397583 0.96172,-0.5963738 1.5849565,-0.5963738 0.671591,0 1.2411,0.2202817 1.703156,0.6608462 l 6.646071,6.081935 C 19.623909,15.347211 20,16.163866 20,17.120212 z" />
</svg>
