<?xml version="1.0" encoding="UTF-8" standalone="no"?>
<!-- Created with Inkscape (http://www.inkscape.org/) -->

<svg
   xmlns:dc="http://purl.org/dc/elements/1.1/"
   xmlns:cc="http://creativecommons.org/ns#"
   xmlns:rdf="http://www.w3.org/1999/02/22-rdf-syntax-ns#"
   xmlns:svg="http://www.w3.org/2000/svg"
   xmlns="http://www.w3.org/2000/svg"
   xmlns:xlink="http://www.w3.org/1999/xlink"
   xmlns:sodipodi="http://sodipodi.sourceforge.net/DTD/sodipodi-0.dtd"
   xmlns:inkscape="http://www.inkscape.org/namespaces/inkscape"
   version="1.0"
   width="24"
   height="24"
   id="svg4431"
   inkscape:version="0.91 r"
   sodipodi:docname="keepassx.svg">
  <sodipodi:namedview
     pagecolor="#353535"
     bordercolor="#666666"
     borderopacity="1"
     objecttolerance="10"
     gridtolerance="10"
     guidetolerance="10"
     inkscape:pageopacity="0.63529412"
     inkscape:pageshadow="2"
     inkscape:window-width="1600"
     inkscape:window-height="845"
     id="namedview16"
     showgrid="false"
     inkscape:zoom="4.04"
     inkscape:cx="-20.435345"
     inkscape:cy="11.540832"
     inkscape:window-x="0"
     inkscape:window-y="30"
     inkscape:window-maximized="1"
     inkscape:current-layer="svg4431" />
  <metadata
     id="metadata16">
    <rdf:RDF>
      <cc:Work
         rdf:about="">
        <dc:format>image/svg+xml</dc:format>
        <dc:type
           rdf:resource="http://purl.org/dc/dcmitype/StillImage" />
        <dc:title></dc:title>
      </cc:Work>
    </rdf:RDF>
  </metadata>
  <defs
     id="defs4433">
    <linearGradient
       x1="50.925655"
       y1="11.648451"
       x2="73.986542"
       y2="11.648451"
       id="linearGradient2390"
       xlink:href="#linearGradient3678"
       gradientUnits="userSpaceOnUse"
       gradientTransform="matrix(0,0.7805424,-0.7617909,0,28.873684,-37.749634)" />
    <linearGradient
       x1="9"
       y1="3"
       x2="9"
       y2="21"
       id="linearGradient2393"
       xlink:href="#linearGradient3678"
       gradientUnits="userSpaceOnUse"
       gradientTransform="translate(-2,-1)" />
    <linearGradient
       x1="15"
       y1="8"
       x2="15"
       y2="20"
       id="linearGradient3692"
       xlink:href="#linearGradient3678"
       gradientUnits="userSpaceOnUse" />
    <linearGradient
       x1="9.1701241"
       y1="3"
       x2="9.311203"
       y2="15"
       id="linearGradient3684"
       xlink:href="#linearGradient3678"
       gradientUnits="userSpaceOnUse" />
    <linearGradient
       id="linearGradient3678">
      <stop
         id="stop3680"
         style="stop-color:#ffffff;stop-opacity:1"
         offset="0" />
      <stop
         id="stop3682"
         style="stop-color:#e6e6e6;stop-opacity:1"
         offset="1" />
    </linearGradient>
    <linearGradient
       x1="9.1701241"
       y1="3"
       x2="9.311203"
       y2="15"
       id="linearGradient3640"
       xlink:href="#linearGradient3678"
       gradientUnits="userSpaceOnUse"
       gradientTransform="translate(-22.566265,-7.7349402)" />
    <linearGradient
       x1="15"
       y1="8"
       x2="15"
       y2="20"
       id="linearGradient3643"
       xlink:href="#linearGradient3678"
       gradientUnits="userSpaceOnUse"
       gradientTransform="translate(-22.566265,-7.7349402)" />
  </defs>
  <path
     style="fill:#ffffff;fill-opacity:1;fill-rule:nonzero;stroke:none"
     d="m 16.236949,4.0092613 c -0.408679,-0.029853 -0.822162,0.01146 -1.221356,0.1367189 -1.552373,0.3815474 -2.73042,1.7939169 -2.98959,3.3502667 -0.257868,0.801228 0.01137,1.607847 0.148439,2.398441 C 11.724702,10.59765 11.096053,11.172473 10.581991,11.829587 10.394545,11.70652 10.229584,11.55502 10.080688,11.38818 8.5848375,9.7796239 7.0306495,8.2274529 5.4986485,6.653797 c -0.492706,-8.666e-4 -0.985211,6.667e-4 -1.477867,0 0.04711,0.5130539 -0.133776,1.0951419 0.110678,1.5625029 1.622138,1.728763 3.364713,3.3487661 4.933602,5.1250091 -1.633432,1.557916 -3.11546,3.26735 -4.726571,4.848966 -0.536819,0.400021 -0.259647,1.13042 -0.316407,1.694014 0.571695,0.01187 1.144501,0.01296 1.716149,-0.0039 0.586909,-0.620701 1.168816,-1.247135 1.765628,-1.858076 0.587254,-0.193694 1.220947,-0.192982 1.832035,-0.259115 0.01531,-0.716862 2.9e-5,-1.434398 0.01823,-2.151046 0.622856,-0.05724 1.2466485,-0.09947 1.8723995,-0.105468 1.059809,1.159702 2.191116,2.253242 3.230474,3.432297 0.3478,0.349074 0.635734,0.775284 1.058596,1.039065 0.491462,0.02813 0.987873,0.0366 1.477867,-0.01953 0.168004,-0.400201 0.03614,-0.872996 0.07292,-1.300783 -1.575143,-1.558657 -3.14762,-3.120035 -4.72006,-4.680998 l -0.04297,-0.121094 c 0.4247,-0.691842 1.082533,-1.214742 1.574222,-1.861983 1.214966,0.779055 2.866314,0.889798 4.095059,0.08073 C 20.045728,10.86368 20.606322,7.8392149 19.29425,5.879065 18.648035,4.8321287 17.462988,4.0988248 16.236953,4.0092706 Z m 0.763022,1.3242207 a 1.6666696,1.6666696 0 0 1 1.66667,1.6666699 1.6666696,1.6666696 0 0 1 -1.66667,1.666669 1.6666696,1.6666696 0 0 1 -1.66667,-1.666669 1.6666696,1.6666696 0 0 1 1.66667,-1.6666699 z"
     id="path28"
     inkscape:connector-curvature="0" />
</svg>
