<?xml version="1.0" encoding="UTF-8" standalone="no"?>
<!-- Created with Inkscape (http://www.inkscape.org/) -->

<svg
   xmlns:dc="http://purl.org/dc/elements/1.1/"
   xmlns:cc="http://creativecommons.org/ns#"
   xmlns:rdf="http://www.w3.org/1999/02/22-rdf-syntax-ns#"
   xmlns:svg="http://www.w3.org/2000/svg"
   xmlns="http://www.w3.org/2000/svg"
   xmlns:xlink="http://www.w3.org/1999/xlink"
   xmlns:sodipodi="http://sodipodi.sourceforge.net/DTD/sodipodi-0.dtd"
   xmlns:inkscape="http://www.inkscape.org/namespaces/inkscape"
   version="1.0"
   width="24"
   height="24"
   id="svg2403"
   inkscape:version="0.48.4 r9939"
   sodipodi:docname="system-devices-panel.svg">
  <sodipodi:namedview
     pagecolor="#3e3e3e"
     bordercolor="#666666"
     borderopacity="1"
     objecttolerance="10"
     gridtolerance="10"
     guidetolerance="10"
     inkscape:pageopacity="0.80784314"
     inkscape:pageshadow="2"
     inkscape:window-width="1600"
     inkscape:window-height="845"
     id="namedview12"
     showgrid="false"
     inkscape:zoom="9.8333333"
     inkscape:cx="-1.1694915"
     inkscape:cy="12"
     inkscape:window-x="0"
     inkscape:window-y="30"
     inkscape:window-maximized="1"
     inkscape:current-layer="svg2403" />
  <metadata
     id="metadata15">
    <rdf:RDF>
      <cc:Work
         rdf:about="">
        <dc:format>image/svg+xml</dc:format>
        <dc:type
           rdf:resource="http://purl.org/dc/dcmitype/StillImage" />
        <dc:title></dc:title>
      </cc:Work>
    </rdf:RDF>
  </metadata>
  <defs
     id="defs2405">
    <linearGradient
       x1="11.644068"
       y1="2.4988678"
       x2="11.644068"
       y2="15.00281"
       id="linearGradient2392"
       xlink:href="#linearGradient3678"
       gradientUnits="userSpaceOnUse"
       gradientTransform="translate(-17.090416,3)" />
    <linearGradient
       x1="8.4964771"
       y1="-0.061573759"
       x2="8.4964771"
       y2="8.083209"
       id="linearGradient2395"
       xlink:href="#linearGradient3678"
       gradientUnits="userSpaceOnUse"
       gradientTransform="matrix(1.0526316,0,0,0.9843625,2.5789474,3.0602428)" />
    <linearGradient
       id="linearGradient3678">
      <stop
         id="stop3680"
         style="stop-color:#ffffff;stop-opacity:1"
         offset="0" />
      <stop
         id="stop3682"
         style="stop-color:#e6e6e6;stop-opacity:1"
         offset="1" />
    </linearGradient>
    <linearGradient
       x1="159.68553"
       y1="14.403693"
       x2="159.68553"
       y2="38.279892"
       id="linearGradient2388"
       xlink:href="#linearGradient3678"
       gradientUnits="userSpaceOnUse"
       gradientTransform="matrix(-0.4100229,0,0,0.5447147,78.029995,-3.8459034)" />
  </defs>
  <g
     id="g3153"
     style="fill:#f9f9f9"
     transform="matrix(0.88811931,0,0,0.88888889,1.3425683,1.3333333)">
    <path
       sodipodi:nodetypes="ssssssssccssssssssccs"
       inkscape:connector-curvature="0"
       id="rect5505-21-1"
       d="M 5.7063368,8 C 4.7732884,8 4.098526,8.9669077 4.000037,9.8947434 L 3,19.315797 C 2.9015109,20.243633 3.7511543,21 4.6842027,21 L 19.315796,21 C 20.248844,21 21.098489,20.243633 21,19.315797 L 19.999964,9.8947434 C 19.901475,8.9669077 19.248808,8 18.31576,8 L 13,8 l 0,2 4.473659,0 C 17.940183,10 17.931498,10.275378 18,10.736845 l 1.000036,6.736811 C 19.068538,17.935123 18.940216,18 18.473695,18 L 5.5263041,18 C 5.0597799,18 4.9314611,17.935123 4.999963,17.473656 L 6,10.736845 C 6.0685019,10.275378 6.081914,10 6.5484382,10 L 11,10 11,8 z"
       style="color:#000000;fill:#f9f9f9;fill-opacity:1;fill-rule:nonzero;stroke:none;stroke-width:0.99992222;marker:none;visibility:visible;display:inline;overflow:visible;enable-background:accumulate" />
    <path
       sodipodi:nodetypes="cccccccc"
       inkscape:connector-curvature="0"
       id="path3846"
       d="M 11.0067,10 11,13 9,13 12.000029,17 15,13 l -2,0 0.0067,-3 z"
       style="fill:#f9f9f9;fill-opacity:1;stroke:none" />
    <path
       sodipodi:nodetypes="ccccccccccccc"
       inkscape:connector-curvature="0"
       id="rect3908"
       d="M 5,3 5,5 6.59375,5 11,5 11,8 13,8 13,5 17.46875,5 19,5 19,3 17.8125,3 6.53125,3 z"
       style="fill:#f9f9f9;fill-opacity:1;stroke:none" />
  </g>
</svg>
