<?xml version="1.0" encoding="UTF-8" standalone="no"?>
<!-- Created with Inkscape (http://www.inkscape.org/) -->
<svg id="svg4951" xmlns:rdf="http://www.w3.org/1999/02/22-rdf-syntax-ns#" xmlns="http://www.w3.org/2000/svg" height="48px" width="48px" version="1.1" xmlns:cc="http://creativecommons.org/ns#" xmlns:xlink="http://www.w3.org/1999/xlink" xmlns:dc="http://purl.org/dc/elements/1.1/">
 <defs id="defs4953">
  <linearGradient id="linearGradient3189" y2="40.496" gradientUnits="userSpaceOnUse" x2="71.204" gradientTransform="matrix(1.617 0 0 1.617 -92.707 -21.06)" y1="15.369" x1="71.204">
   <stop id="stop4808-4" stop-color="#fff" offset="0"/>
   <stop id="stop4810-0" stop-color="#fff" stop-opacity=".23529" offset=".42448"/>
   <stop id="stop4812-8" stop-color="#fff" stop-opacity=".15686" offset=".82090"/>
   <stop id="stop4814-0" stop-color="#fff" stop-opacity=".39216" offset="1"/>
  </linearGradient>
  <radialGradient id="radialGradient3195" gradientUnits="userSpaceOnUse" cy="186.17" cx="99.157" gradientTransform="matrix(.27083 0 0 .087623 -2.8551 25.187)" r="62.769">
   <stop id="stop3822-2-6-3" stop-color="#3d3d3d" offset="0"/>
   <stop id="stop3864-8-7-7" stop-color="#686868" stop-opacity=".49804" offset=".5"/>
   <stop id="stop3824-1-2-5" stop-color="#686868" stop-opacity="0" offset="1"/>
  </radialGradient>
 </defs>
 <metadata id="metadata4956">
  <rdf:RDF>
   <cc:Work rdf:about="">
    <dc:format>image/svg+xml</dc:format>
    <dc:type rdf:resource="http://purl.org/dc/dcmitype/StillImage"/>
    <dc:title/>
   </cc:Work>
  </rdf:RDF>
 </metadata>
 <g id="layer1">
  <g id="g4379">
   <path id="path3818-0-5" fill="url(#radialGradient3195)" d="m41 41.5a17 5.5 0 0 1 -34 0 17 5.5 0 1 1 34 0z"/>
   <path id="path4401" style="color:#000000" d="m24 3.5c-11.311 0-20.5 9.1888-20.5 20.5s9.1888 20.5 20.5 20.5 20.5-9.1888 20.5-20.5-9.189-20.5-20.5-20.5z" fill="#e8df44"/>
   <path id="path4409" style="color:#000000" d="m29 5c-10.484 0-19 8.516-19 19s8.516 19 19 19c1.166 0 2.302-0.121 3.41-0.322 7.12-3.216 12.09-10.366 12.09-18.678s-4.97-15.462-12.09-18.678c-1.108-0.2014-2.244-0.322-3.41-0.322z" fill="#79b31c"/>
   <path id="path2555-7-2" style="color:#000000" d="m34 7a17 17 0 0 0 -17 17 17 17 0 0 0 17 17 17 17 0 0 0 1.568 -0.088c5.389-3.696 8.932-9.893 8.932-16.912 0-7.026-3.548-13.229-8.945-16.924a17 17 0 0 0 -1.555 -0.076z" fill="#429acb"/>
   <path id="path4176" opacity=".3" stroke-linejoin="round" style="color:#000000" d="m43.5 24c0 10.77-8.73 19.5-19.5 19.5s-19.5-8.73-19.5-19.5 8.73-19.5 19.5-19.5 19.5 8.73 19.5 19.5z" stroke="url(#linearGradient3189)" stroke-linecap="round" fill="none"/>
   <path id="path3871" opacity=".7" style="color:#000000" d="m24 3.5c-11.311 0-20.5 9.189-20.5 20.5s9.189 20.5 20.5 20.5 20.5-9.189 20.5-20.5-9.189-20.5-20.5-20.5z" stroke="#5c3f24" fill="none"/>
   <path id="path4460" opacity=".15" style="color-rendering:auto;text-decoration-color:#000000;color:#000000;isolation:auto;mix-blend-mode:normal;shape-rendering:auto;solid-color:#000000;block-progression:tb;text-decoration-line:none;text-decoration-style:solid;image-rendering:auto;white-space:normal;text-indent:0;text-transform:none" d="m11.447 15c-0.63461 0-1.2442 0.07894-1.8184 0.24219-0.52997 0.15071-1.0209 0.33735-1.4707 0.56641-0.43477 0.22144-0.82228 0.46758-1.1641 0.74609-0.00107 0.000874-0.00283 0.0011-0.00391 0.002-0.28994 0.22216-0.52769 0.42419-0.72656 0.64062a1.0001 1.0001 0 0 0 -0.078125 1.2559l1.0586 1.4883a1.0001 1.0001 0 0 0 1.459 0.1875c0.10452-0.08775 0.25628-0.21611 0.45508-0.38086a1.0001 1.0001 0 0 0 0.033203 -0.02734c0.1227-0.11 0.2961-0.231 0.5257-0.349a1.0001 1.0001 0 0 0 0.035156 -0.01953c0.22519-0.12769 0.49252-0.24511 0.80664-0.34766 0.25571-0.08348 0.55671-0.13086 0.91211-0.13086 0.27344 0 0.51083 0.03895 0.72656 0.10938a1.0001 1.0001 0 0 0 0.05078 0.01563c0.20899 0.05582 0.35697 0.13495 0.48438 0.24414 0.12851 0.11013 0.22683 0.24032 0.31055 0.43164a1.0001 1.0001 0 0 0 0.01563 0.03516c0.07173 0.14753 0.13086 0.37694 0.13086 0.71484 0 0.28755-0.05424 0.53634-0.16602 0.78516a1.0001 1.0001 0 0 0 -0.01367 0.03125c-0.11657 0.2854-0.28473 0.57798-0.51367 0.87695a1.0001 1.0001 0 0 0 -0.0039 0.0059c-0.23126 0.30644-0.51014 0.62793-0.83789 0.96289a1.0001 1.0001 0 0 0 -0.002 0c-0.32714 0.33496-0.67625 0.6791-1.0508 1.0312a1.0001 1.0001 0 0 0 -0.01562 0.01562c-0.46479 0.45522-0.93628 0.92513-1.416 1.4102-0.51353 0.51917-0.98052 1.0715-1.3965 1.6582-0.4294 0.6056-0.78183 1.2576-1.0566 1.9473a1.0001 1.0001 0 0 0 -0.00586 0.01172c-0.27719 0.72394-0.41211 1.5046-0.41211 2.3203v0.24805c0 0.14719 0.012395 0.29469 0.037109 0.43945a1.0001 1.0001 0 0 0 0.9873 0.832h9.6777a1.0001 1.0001 0 0 0 1 -1v-1.7832a1.0001 1.0001 0 0 0 -1 -1h-5.748c0.09011-0.12017 0.15312-0.22773 0.25586-0.35352 0.28395-0.34762 0.58093-0.67999 0.89258-1l0.01367-0.01367c0.000643-0.000657 0.0013-0.0013 0.002-0.002l0.90625-0.88867c0.46478-0.45522 0.92992-0.9165 1.3945-1.3867a1.0001 1.0001 0 0 0 0.0098 -0.01172c0.48386-0.50548 0.92328-1.014 1.3164-1.5273a1.0001 1.0001 0 0 0 0.0078 -0.01172c0.40648-0.54739 0.73908-1.1082 0.98828-1.6816 0.28301-0.63038 0.43164-1.303 0.43164-1.9844a1.0001 1.0001 0 0 0 -0.06055 -0.33789c-0.073-1.437-0.551-2.725-1.538-3.607-1.075-0.989-2.601-1.41-4.424-1.41zm1.3184 2.0645 0.05078 0.01563c-0.0093-0.003-0.01995-0.000932-0.0293-0.0039-0.008-0.0022-0.01348-0.0096-0.02148-0.01172zm0.26367 0.13672c0.63383 0.15272 1.1549 0.3698 1.4941 0.68359a1.0001 1.0001 0 0 0 0.01367 0.01367c0.61734 0.54967 0.93359 1.2764 0.93359 2.457 0 0.39981-0.08168 0.77889-0.25781 1.1699a1.0001 1.0001 0 0 0 -0.0059 0.01172c-0.18034 0.41632-0.43323 0.84649-0.76172 1.2891-0.000369 0.000497 0.00037 0.0015 0 0.002-0.06111 0.07964-0.14495 0.16033-0.20898 0.24023 0.23584-0.3404 0.46137-0.68341 0.61328-1.0508 0.22293-0.5004 0.33984-1.0428 0.33984-1.5938 0-0.55919-0.09772-1.0916-0.32812-1.5723-0.1926-0.43173-0.47117-0.82302-0.82812-1.1289-0.28842-0.24718-0.64535-0.39107-1.0039-0.52148zm-3.5915 11.119c-0.014232 0.02027-0.030923 0.04031-0.044922 0.06055 0.00524-0.0074 0.0084-0.016 0.013672-0.02344 0.00928-0.01309 0.021912-0.02406 0.03125-0.03711zm-0.4512 0.811c-0.1663 0.345-0.3359 0.686-0.3359 1.086a1.0001 1.0001 0 0 0 0.3769 0.783h-0.64453c0.039356-0.38766 0.066543-0.78167 0.19336-1.1152 0.10689-0.2678 0.27409-0.50292 0.41016-0.75391z"/>
   <path id="path4462" opacity=".15" style="color-rendering:auto;text-decoration-color:#000000;color:#000000;isolation:auto;mix-blend-mode:normal;shape-rendering:auto;solid-color:#000000;block-progression:tb;text-decoration-line:none;text-decoration-style:solid;image-rendering:auto;white-space:normal;text-indent:0;text-transform:none" d="m11.447 15.5c-0.5938 0-1.1565 0.07334-1.6816 0.22266-0.50308 0.14306-0.96199 0.31894-1.3789 0.53125-0.40922 0.20842-0.76904 0.4355-1.0781 0.6875-0.000652 0.000532-0.0013 0.0014-0.00195 0.002-0.28323 0.21644-0.50668 0.40776-0.67578 0.5918a0.50005 0.50005 0 0 0 -0.039063 0.62695l1.0605 1.4902a0.50005 0.50005 0 0 0 0.72852 0.09375c0.10603-0.08902 0.25974-0.2177 0.45898-0.38281a0.50005 0.50005 0 0 0 0.015625 -0.01367c0.1614-0.145 0.3705-0.287 0.6312-0.421a0.50005 0.50005 0 0 0 0.017578 -0.0098c0.25853-0.1466 0.559-0.27722 0.90039-0.38867 0.31218-0.10192 0.66598-0.15625 1.0664-0.15625 0.32105 0 0.61171 0.04494 0.88086 0.13281a0.50005 0.50005 0 0 0 0.02539 0.0078c0.27347 0.07304 0.4931 0.18774 0.67969 0.34766 0.18714 0.16037 0.33238 0.3577 0.44336 0.61133a0.50005 0.50005 0 0 0 0.0078 0.01758c0.11267 0.23174 0.18164 0.53897 0.18164 0.93359 0 0.3544-0.07056 0.67777-0.21094 0.99023a0.50005 0.50005 0 0 0 -0.0059 0.01563c-0.13509 0.33076-0.32737 0.66216-0.58008 0.99219a0.50005 0.50005 0 0 0 -0.002 0.002c-0.2462 0.32623-0.53838 0.6637-0.87891 1.0117-0.33255 0.34049-0.68908 0.69027-1.0684 1.0469a0.50005 0.50005 0 0 0 -0.0078 0.0059c-0.4628 0.45328-0.93219 0.92302-1.4102 1.4062-0.49486 0.5003-0.94376 1.0316-1.3438 1.5957-0.40671 0.5736-0.74166 1.1885-1.002 1.8418a0.50005 0.50005 0 0 0 -0.00195 0.0059c-0.2538 0.66286-0.37891 1.3812-0.37891 2.1426v0.24805c0 0.11871 0.011183 0.23792 0.03125 0.35547a0.50005 0.50005 0 0 0 0.4919 0.414h9.6777a0.50005 0.50005 0 0 0 0.5 -0.5v-1.7832a0.50005 0.50005 0 0 0 -0.5 -0.5h-6.6719c0.02873-0.06178 0.01424-0.08226 0.05469-0.15234 0.20014-0.32059 0.44438-0.66015 0.73633-1.0176 0.29558-0.36187 0.60684-0.70799 0.93164-1.041l0.0059-0.0059c0.000641-0.000657 0.0013-0.0013 0.002-0.002l0.91406-0.89453c0.4628-0.45328 0.924-0.91451 1.3867-1.3828a0.50005 0.50005 0 0 0 0.0059 -0.0059c0.47234-0.49345 0.90036-0.98892 1.2812-1.4863a0.50005 0.50005 0 0 0 0.0039 -0.0059c0.387-0.52115 0.69765-1.0478 0.92969-1.582 0.25754-0.57178 0.39062-1.1726 0.39062-1.7852a0.50005 0.50005 0 0 0 -0.0293 -0.16406c-0.038-1.405-0.486-2.593-1.405-3.412-0.952-0.878-2.342-1.279-4.09-1.279zm0 1c1.598 0 2.7096 0.36418 3.416 1.0176a0.50005 0.50005 0 0 0 0.0078 0.0059c0.73109 0.65095 1.0996 1.5497 1.0996 2.832 0 0.47071-0.09947 0.92372-0.30273 1.375a0.50005 0.50005 0 0 0 -0.002 0.0059c-0.1978 0.45663-0.46951 0.92084-0.81836 1.3906-0.35544 0.46373-0.75747 0.92887-1.2051 1.3965-0.45699 0.46244-0.91422 0.91776-1.3711 1.3652l-0.91992 0.90234a0.50005 0.50005 0 0 0 -0.0098 0.0078c-0.34831 0.35663-0.67958 0.72774-0.99609 1.1152-0.31858 0.39003-0.59179 0.76902-0.82031 1.1367a0.50005 0.50005 0 0 0 -0.00977 0.01367c-0.22635 0.39222-0.36523 0.76645-0.36523 1.1523a0.50005 0.50005 0 0 0 0.5 0.5h6.8496v0.7832h-8.7012v-0.01953c0-0.65058 0.10489-1.2381 0.31055-1.7773l0.00195-0.002c0.0004391-0.0011-0.00044-0.0028 0-0.0039 0.23092-0.57825 0.52657-1.121 0.88672-1.6289 0.36804-0.51909 0.78076-1.0082 1.2383-1.4707 0.47442-0.47965 0.9396-0.94514 1.3984-1.3945l-0.0059 0.0078c0.38876-0.36553 0.7543-0.72461 1.0977-1.0762 0.36502-0.37304 0.6854-0.74068 0.96094-1.1055l0.002-0.0039c0.29525-0.38616 0.53007-0.78655 0.70117-1.2012 0.000527-0.0012-0.000526-0.0027 0-0.0039 0.19652-0.43877 0.29883-0.90968 0.29883-1.3965 0-0.50376-0.08822-0.9616-0.2793-1.3594-0.16535-0.37439-0.4012-0.7022-0.70312-0.96094-0.30208-0.25889-0.66261-0.44089-1.0605-0.54883-0.3717-0.11953-0.76494-0.18164-1.1758-0.18164-0.49049 0-0.95181 0.06629-1.377 0.20508-0.393 0.1283-0.75089 0.28223-1.0742 0.46484-0.31847 0.1651-0.59831 0.35139-0.83398 0.56445-0.013147 0.0109-0.018513 0.01483-0.03125 0.02539l-0.48633-0.68164c0.088936-0.07656 0.13652-0.13027 0.25781-0.22266a0.50005 0.50005 0 0 0 0.0122 -0.009c0.2435-0.199 0.5444-0.392 0.9023-0.574 0.3512-0.179 0.75-0.334 1.1992-0.461 0.427-0.122 0.896-0.184 1.408-0.184z"/>
   <path id="path4439" fill="#fff" d="m16.47 20.355q0 0.81242-0.34561 1.5797-0.32259 0.7447-0.87559 1.4894-0.55299 0.72216-1.2442 1.4443-0.69125 0.69959-1.3825 1.3766-0.39172 0.38364-0.92166 0.90268-0.50693 0.51904-0.96776 1.0832-0.46082 0.56418-0.7834 1.0832-0.29954 0.51904-0.29954 0.90268h7.3502v1.7828h-9.6774q-0.02313-0.13549-0.02313-0.27082 0-0.13547 0-0.24822 0-1.0606 0.34563-1.9633 0.36866-0.92524 0.94469-1.7376 0.57602-0.81242 1.2903-1.5346 0.71429-0.72216 1.4055-1.3992 0.57603-0.5416 1.083-1.0606 0.52995-0.5416 0.92165-1.0606 0.41473-0.5416 0.64516-1.1058 0.25345-0.56417 0.25345-1.196 0-0.67702-0.23041-1.1509-0.20737-0.47391-0.57603-0.78983-0.36866-0.31595-0.87559-0.45135-0.48386-0.15797-1.0369-0.15797-0.66819 0-1.2212 0.18053-0.55299 0.18053-0.99079 0.42878-0.43778 0.22565-0.73732 0.49647-0.29953 0.24822-0.46083 0.38365l-1.0597-1.49q0.2074-0.226 0.6221-0.542 0.4148-0.338 0.9908-0.631 0.576-0.294 1.2903-0.497 0.7138-0.203 1.5438-0.203 2.5115 0 3.7558 1.1509 1.2673 1.1283 1.2673 3.2045z"/>
   <path id="path4454" opacity=".3" style="color-rendering:auto;text-decoration-color:#000000;color:#000000;isolation:auto;mix-blend-mode:normal;shape-rendering:auto;solid-color:#000000;block-progression:tb;text-decoration-line:none;text-decoration-style:solid;image-rendering:auto;white-space:normal;text-indent:0;text-transform:none" d="m24.811 18.5c-0.72026 0-1.4091 0.12044-2.0547 0.36328a0.50005 0.50005 0 0 0 -0.0039 0.002c-0.63868 0.24424-1.2041 0.60566-1.6855 1.0762-0.48553 0.47451-0.86978 1.0599-1.1523 1.7402a0.50005 0.50005 0 0 0 -0.002 0.0039c-0.279 0.688-0.412 1.462-0.412 2.315 0 0.84659 0.11436 1.6145 0.35938 2.2969a0.50005 0.50005 0 0 0 0.0039 0.0059c0.25264 0.6743 0.61408 1.2578 1.0801 1.7344 0.4647 0.47528 1.0256 0.83908 1.666 1.084 0.64083 0.24507 1.3439 0.36523 2.0996 0.36523 0.36389 0 0.72388-0.01967 1.0801-0.05859 0.34367-0.02848 0.65918-0.06553 0.94922-0.11328 0.29623-0.0472 0.55566-0.09594 0.7793-0.14453 0.22626-0.04708 0.40234-0.08745 0.55078-0.13477a0.50005 0.50005 0 0 0 0.34766 -0.47656v-4.4766a0.50005 0.50005 0 0 0 -0.5 -0.5h-1.4004a0.50005 0.50005 0 0 0 -0.5 0.5v3.1543c-0.07274 0.01376-0.09506 0.02416-0.1875 0.03906-0.0015 0.000199-0.0043-0.000198-0.0059 0-0.24712 0.03229-0.5657 0.05078-0.95312 0.05078-0.51284 0-0.94001-0.08493-1.2891-0.23633h-0.002c-0.347-0.154-0.629-0.364-0.869-0.638-0.231-0.283-0.413-0.622-0.539-1.029-0.12-0.418-0.184-0.89-0.184-1.422 0-0.54267 0.07626-1.0151 0.21875-1.4238a0.50005 0.50005 0 0 0 0.002 -0.002c0.1458-0.42639 0.33993-0.77278 0.58008-1.0488 0.24934-0.27568 0.54003-0.48008 0.88672-0.62695 0.35773-0.14741 0.75394-0.22461 1.207-0.22461 0.44005 0 0.87166 0.05497 1.293 0.16406a0.50005 0.50005 0 0 0 0.0098 0.002c0.4266 0.10196 0.74864 0.23103 0.96289 0.36523a0.50005 0.50005 0 0 0 0.728 -0.238l0.44922-1.1191a0.50005 0.50005 0 0 0 -0.19727 -0.60742c-0.1149-0.07323-0.22234-0.12036-0.38476-0.19336l-0.0078-0.002c-0.18751-0.08907-0.40812-0.17184-0.67383-0.25-0.27889-0.08204-0.60143-0.14941-0.97266-0.20703h-0.002c-0.38-0.062-0.804-0.089-1.275-0.089zm12.025 0c-1.1246 0-2.0706 0.25514-2.7793 0.8125-0.7105 0.55876-1.0859 1.3966-1.0859 2.3535 0 0.46038 0.07616 0.88004 0.25 1.248a0.50005 0.50005 0 0 0 0.0059 0.01367c0.17291 0.34165 0.40658 0.64229 0.69336 0.89453a0.50005 0.50005 0 0 0 0.0098 0.0078c0.27729 0.23329 0.59647 0.43507 0.95703 0.60742a0.50005 0.50005 0 0 0 0.01172 0.0039c0.34508 0.15526 0.70835 0.29515 1.0898 0.41992l-0.0098-0.002c0.31104 0.10813 0.60199 0.21621 0.875 0.32422a0.50005 0.50005 0 0 0 0.0059 0.002c0.25528 0.09762 0.47316 0.21242 0.65625 0.3418a0.50005 0.50005 0 0 0 0.01172 0.0078c0.16604 0.11043 0.28242 0.23358 0.36719 0.37695a0.50005 0.50005 0 0 0 0.01367 0.02344c0.07341 0.1103 0.11914 0.24807 0.11914 0.4668 0 0.35132-0.08577 0.50408-0.32422 0.66016-0.23844 0.15608-0.69569 0.27734-1.373 0.27734-0.61759 0-1.1229-0.07003-1.5078-0.19531-0.4374-0.14236-0.75345-0.27211-0.92578-0.36523a0.50005 0.50005 0 0 0 -0.70508 0.26172l-0.41992 1.1035a0.50005 0.50005 0 0 0 0.23633 0.62109c0.11504 0.06 0.26616 0.13426 0.45703 0.2207a0.50005 0.50005 0 0 0 0.0293 0.01172c0.21118 0.08076 0.45007 0.15771 0.7207 0.23438a0.50005 0.50005 0 0 0 0.01563 0.0039c0.27672 0.06859 0.58342 0.12811 0.91992 0.17578 0.000607 0.0001 0.0013-0.000099 0.002 0 0.36817 0.06022 0.76093 0.08789 1.1777 0.08789 1.2285 0 2.2354-0.23454 2.9883-0.76758l0.002-0.002c0.762-0.536 1.179-1.378 1.179-2.343 0-0.50434-0.08167-0.95834-0.26367-1.3535-0.17274-0.38436-0.42441-0.72159-0.74414-0.99609l-0.002-0.002c-0.30106-0.26611-0.65453-0.48739-1.0566-0.66992l-0.0039-0.002c-0.367-0.171-0.771-0.341-1.212-0.51a0.50005 0.50005 0 0 0 -0.0098 -0.0039c-0.3016-0.10813-0.57764-0.21471-0.82617-0.32031-0.22071-0.09781-0.40855-0.20302-0.57031-0.31055-0.14219-0.10308-0.24277-0.20966-0.30859-0.31836-0.05042-0.08326-0.08789-0.20027-0.08789-0.38867 0-0.15796 0.02983-0.25782 0.07422-0.33594 0.06678-0.10952 0.14645-0.19269 0.25781-0.26367 0.12112-0.07719 0.27124-0.14161 0.45508-0.18555 0.18762-0.04485 0.39819-0.06836 0.63477-0.06836 0.49198 0 0.90658 0.05647 1.2422 0.1582a0.50005 0.50005 0 0 0 0.01367 0.0039c0.38031 0.10388 0.64995 0.21295 0.78516 0.29297a0.50005 0.50005 0 0 0 0.719 -0.24l0.44727-1.0918a0.50005 0.50005 0 0 0 -0.19336 -0.61133c-0.317-0.202-0.72-0.337-1.246-0.463-0.539-0.141-1.128-0.209-1.768-0.209zm-6.7266 0.2207a0.50005 0.50005 0 0 0 -0.5 0.5v9.5723a0.50005 0.50005 0 0 0 0.5 0.5h1.4023a0.50005 0.50005 0 0 0 0.5 -0.5v-9.5723a0.50005 0.50005 0 0 0 -0.5 -0.5h-1.4023zm-5.298 0.779c0.43295 0 0.80647 0.02635 1.1191 0.07617a0.50005 0.50005 0 0 0 0.002 0c0.34059 0.0528 0.6243 0.11456 0.8457 0.17969 0.19221 0.05654 0.32509 0.10988 0.44141 0.16016l-0.0918 0.22852c-0.22902-0.09374-0.42546-0.20866-0.70312-0.27539-0.50331-0.13032-1.0199-0.19531-1.543-0.19531-0.56712 0-1.1004 0.09679-1.5898 0.29883a0.50005 0.50005 0 0 0 -0.0039 0.002c-0.47872 0.20223-0.89976 0.5022-1.2461 0.88672a0.50005 0.50005 0 0 0 -0.0059 0.0059c-0.33644 0.38598-0.59215 0.85165-0.77344 1.3809-0.18497 0.53054-0.27539 1.116-0.27539 1.752 0 0.61009 0.07294 1.1778 0.22266 1.6992a0.50005 0.50005 0 0 0 0.002 0.0078c0.16133 0.52442 0.40515 0.99033 0.72852 1.3848a0.50005 0.50005 0 0 0 0.0098 0.01172c0.33635 0.38588 0.74996 0.69041 1.2266 0.90234a0.50005 0.50005 0 0 0 0.0039 0.002c0.49822 0.21652 1.0665 0.31836 1.6895 0.31836 0.41923 0 0.77896-0.0176 1.0898-0.05859a0.50005 0.50005 0 0 0 0.01367 -0.002c0.29908-0.04766 0.5142-0.08885 0.68359-0.13867a0.50005 0.50005 0 0 0 0.35938 -0.48047v-3.0645h0.40039v3.584c-0.04402 0.0098-0.05708 0.01493-0.10742 0.02539a0.50005 0.50005 0 0 0 -0.0039 0.002c-0.20015 0.04349-0.44296 0.08793-0.72461 0.13281a0.50005 0.50005 0 0 0 -0.002 0c-0.2645 0.0436-0.55796 0.0808-0.88281 0.10742a0.50005 0.50005 0 0 0 -0.01367 0.002c-0.31799 0.03475-0.64309 0.05078-0.97266 0.05078-0.65045 0-1.2292-0.10191-1.7441-0.29883-0.51536-0.19709-0.94305-0.47774-1.3066-0.84961-0.3617-0.36993-0.64785-0.82644-0.85742-1.3848-0.000346-0.000922-0.0016-0.001-0.002-0.002-0.197-0.551-0.299-1.199-0.299-1.952 0-0.7485 0.11635-1.391 0.33789-1.9375 0.000216-0.000535-0.000217-0.0014 0-0.002 0.23729-0.56991 0.54742-1.0326 0.92773-1.4043 0.38473-0.376 0.82584-0.65777 1.3418-0.85547 0.53-0.199 1.095-0.301 1.704-0.301zm12.025 0c0.57137 0 1.0772 0.06163 1.5195 0.17773a0.50005 0.50005 0 0 0 0.0098 0.002c0.27866 0.0666 0.38832 0.12992 0.55859 0.19726l-0.07031 0.17383c-0.16401-0.06148-0.28871-0.13365-0.49219-0.18945-0.45288-0.13661-0.96006-0.20117-1.5254-0.20117-0.30278 0-0.5925 0.03005-0.86719 0.0957-0.27847 0.06656-0.53415 0.17066-0.75977 0.31445-0.23453 0.14948-0.4333 0.35069-0.57812 0.58984a0.50005 0.50005 0 0 0 -0.0039 0.0078c-0.14693 0.25284-0.21289 0.54608-0.21289 0.8457 0 0.32726 0.07095 0.64156 0.23242 0.9082 0.14504 0.23951 0.34458 0.44552 0.58398 0.61719a0.50005 0.50005 0 0 0 0.01367 0.0098c0.22008 0.14728 0.46674 0.27971 0.74023 0.40039a0.50005 0.50005 0 0 0 0.0059 0.0039c0.27156 0.11539 0.5641 0.22698 0.87891 0.33984 0.4195 0.16068 0.80111 0.32165 1.1426 0.48047a0.50005 0.50005 0 0 0 0.0039 0.002c0.32728 0.14821 0.59688 0.32106 0.81445 0.51367a0.50005 0.50005 0 0 0 0.0059 0.0059c0.21593 0.18432 0.3752 0.39573 0.49023 0.65234a0.50005 0.50005 0 0 0 0.002 0.0039c0.10641 0.23059 0.17188 0.54014 0.17188 0.9375 0 0.70977-0.22779 1.1556-0.75391 1.5234a0.50005 0.50005 0 0 0 -0.0039 0.002c-0.52 0.368-1.313 0.586-2.414 0.586-0.37228 0-0.71208-0.0261-1.0176-0.07617a0.50005 0.50005 0 0 0 -0.01172 -0.002c-0.3074-0.04322-0.57777-0.09232-0.81445-0.15039l-0.0078-0.002c-0.0023-0.000565-0.0055-0.0014-0.0078-0.002-0.23423-0.06676-0.43472-0.13416-0.60156-0.19727l0.07813-0.20312c0.18558 0.07422 0.32393 0.14764 0.56641 0.22656 0.52043 0.16939 1.1241 0.24609 1.8164 0.24609 0.78661 0 1.428-0.11815 1.9219-0.44141 0.49385-0.32326 0.77539-0.88977 0.77539-1.4961 0-0.36712-0.09271-0.71849-0.28516-1.0117-0.164-0.272-0.389-0.504-0.658-0.684-0.257-0.18-0.544-0.331-0.861-0.453l-0.0059-0.002c-0.28403-0.11228-0.58562-0.22574-0.9082-0.33789a0.50005 0.50005 0 0 0 -0.0098 -0.002c-0.34702-0.1135-0.67328-0.23917-0.98047-0.37695-0.29293-0.14003-0.53849-0.29787-0.74219-0.46875-0.19039-0.1686-0.34055-0.36155-0.45508-0.58594-0.0942-0.2022-0.15039-0.46788-0.15039-0.81445 0-0.71892 0.22128-1.1879 0.70508-1.5684 0.485-0.382 1.185-0.598 2.16-0.598zm-6.2266 0.2207h0.40234v8.5723h-0.40234v-8.5723z" fill="#fff"/>
   <path id="path4441" fill="#282828" d="m24.811 19c-0.66456 0-1.2917 0.11104-1.8792 0.33203-0.57788 0.22099-1.0823 0.54322-1.5157 0.9668-0.43341 0.42357-0.78054 0.94807-1.0406 1.5742-0.251 0.617-0.376 1.326-0.376 2.127 0 0.8011 0.10931 1.51 0.33083 2.127 0.23115 0.61694 0.55527 1.137 0.96942 1.5605 0.41415 0.42357 0.90894 0.7458 1.4868 0.9668 0.57788 0.22099 1.2184 0.33203 1.9215 0.33203 0.34673 0 0.69002-0.01785 1.0271-0.05469 0.3371-0.02763 0.64394-0.06529 0.92325-0.11133 0.28894-0.04604 0.54018-0.09263 0.75207-0.13867 0.22152-0.04604 0.39029-0.08621 0.50587-0.12305v-4.4766h-1.4022v3.5645c-0.12521 0.03683-0.33233 0.07896-0.62127 0.125-0.27931 0.03683-0.62068 0.05469-1.0252 0.05469-0.56825 0-1.065-0.09318-1.4887-0.27734-0.41415-0.18416-0.76511-0.44194-1.054-0.77344-0.27931-0.3407-0.49219-0.74523-0.63666-1.2148-0.135-0.47-0.202-0.99-0.202-1.561 0-0.58932 0.08247-1.1183 0.2462-1.5879 0.16373-0.47882 0.39004-0.8853 0.67898-1.2168 0.29857-0.33149 0.65529-0.58481 1.0694-0.75976 0.42378-0.17495 0.88981-0.26172 1.4003-0.26172 0.48157 0 0.95527 0.05998 1.4176 0.17969 0.4623 0.1105 0.83244 0.25278 1.1118 0.42773l0.44816-1.1191c-0.05779-0.03683-0.16902-0.0904-0.33276-0.16406-0.1541-0.07366-0.35739-0.14899-0.60781-0.22266-0.25042-0.07366-0.55343-0.13811-0.90979-0.19336-0.347-0.055-0.746-0.082-1.198-0.082zm12.025 0c-1.0498 0-1.8726 0.23546-2.4697 0.70508-0.59714 0.46961-0.89632 1.123-0.89632 1.9609 0 0.40516 0.06712 0.7497 0.20196 1.0352 0.14447 0.28545 0.33817 0.53431 0.57896 0.74609 0.24078 0.20258 0.52462 0.38252 0.85209 0.53906 0.32747 0.14733 0.67459 0.28069 1.0406 0.40039 0.31784 0.1105 0.61509 0.22153 0.8944 0.33203 0.28894 0.1105 0.54401 0.24385 0.76553 0.40039 0.22152 0.14733 0.39605 0.32728 0.52125 0.53906 0.13484 0.20258 0.20196 0.44948 0.20196 0.74414 0 0.95764-0.73261 1.4375-2.1966 1.4375-0.65493 0-1.2092-0.07337-1.6619-0.2207-0.45267-0.14733-0.78829-0.28069-1.0098-0.40039l-0.41931 1.1035c0.10594 0.05525 0.24978 0.12611 0.43278 0.20898 0.19263 0.07366 0.41893 0.14704 0.67898 0.2207 0.26005 0.06446 0.55347 0.11998 0.88094 0.16602 0.336 0.055 0.702 0.082 1.097 0.082 1.165 0 2.067-0.227 2.703-0.678 0.645-0.451 0.967-1.095 0.967-1.933 0-0.452-0.073-0.834-0.217-1.147-0.145-0.322-0.352-0.598-0.622-0.828-0.26-0.23-0.572-0.428-0.938-0.594-0.35636-0.16575-0.75143-0.3323-1.1848-0.49805-0.3082-0.1105-0.59204-0.21958-0.85209-0.33008-0.25042-0.1105-0.47096-0.23046-0.66359-0.35938-0.19263-0.13812-0.34222-0.29575-0.44816-0.4707s-0.15965-0.39061-0.15965-0.64844c-0.000001-0.2302 0.04794-0.428 0.14426-0.59375 0.10594-0.17495 0.24595-0.31724 0.41931-0.42773 0.17336-0.1105 0.37666-0.19475 0.60781-0.25s0.48047-0.08203 0.75014-0.08203c0.52972 0 0.99192 0.05998 1.3868 0.17969 0.40452 0.1105 0.70753 0.226 0.90979 0.3457l0.448-1.091c-0.231-0.148-0.598-0.281-1.099-0.401-0.491-0.129-1.039-0.193-1.646-0.193zm-6.7263 0.2207v9.5723h1.4022v-9.5723h-1.4022z"/>
  </g>
 </g>
</svg>
