<?xml version="1.0" encoding="UTF-8" standalone="no"?>
<!-- Created with Inkscape (http://www.inkscape.org/) -->

<svg
   xmlns:dc="http://purl.org/dc/elements/1.1/"
   xmlns:cc="http://creativecommons.org/ns#"
   xmlns:rdf="http://www.w3.org/1999/02/22-rdf-syntax-ns#"
   xmlns:svg="http://www.w3.org/2000/svg"
   xmlns="http://www.w3.org/2000/svg"
   xmlns:xlink="http://www.w3.org/1999/xlink"
   xmlns:sodipodi="http://sodipodi.sourceforge.net/DTD/sodipodi-0.dtd"
   xmlns:inkscape="http://www.inkscape.org/namespaces/inkscape"
   version="1.0"
   width="48"
   height="48"
   id="svg5555"
   inkscape:version="0.91 r"
   sodipodi:docname="alarm-clock.svg">
  <sodipodi:namedview
     pagecolor="#ffffff"
     bordercolor="#666666"
     borderopacity="1"
     objecttolerance="10"
     gridtolerance="10"
     guidetolerance="10"
     inkscape:pageopacity="0"
     inkscape:pageshadow="2"
     inkscape:window-width="1600"
     inkscape:window-height="845"
     id="namedview152"
     showgrid="false"
     inkscape:zoom="1"
     inkscape:cx="19.622055"
     inkscape:cy="20.554181"
     inkscape:window-x="0"
     inkscape:window-y="30"
     inkscape:window-maximized="1"
     inkscape:current-layer="svg5555" />
  <metadata
     id="metadata52">
    <rdf:RDF>
      <cc:Work
         rdf:about="">
        <dc:format>image/svg+xml</dc:format>
        <dc:type
           rdf:resource="http://purl.org/dc/dcmitype/StillImage" />
        <dc:title />
      </cc:Work>
    </rdf:RDF>
  </metadata>
  <defs
     id="defs5557">
    <linearGradient
       id="linearGradient4309">
      <stop
         id="stop4311"
         style="stop-color:#0e283b;stop-opacity:1"
         offset="0" />
      <stop
         id="stop4313"
         style="stop-color:#194c70;stop-opacity:1"
         offset="1" />
    </linearGradient>
    <linearGradient
       id="linearGradient2480">
      <stop
         id="stop2482"
         style="stop-color:#3d3e40;stop-opacity:1"
         offset="0" />
      <stop
         id="stop2484"
         style="stop-color:#4e4e4e;stop-opacity:1"
         offset="1" />
    </linearGradient>
    <linearGradient
       id="linearGradient3996">
      <stop
         id="stop3998"
         style="stop-color:#ffffff;stop-opacity:1"
         offset="0" />
      <stop
         id="stop4000"
         style="stop-color:#ffffff;stop-opacity:0"
         offset="1" />
    </linearGradient>
    <radialGradient
       cx="24"
       cy="24"
       r="17"
       id="radialGradient3199"
       gradientUnits="userSpaceOnUse">
      <stop
         id="stop3303"
         style="stop-color:#ffffff;stop-opacity:0"
         offset="0" />
      <stop
         id="stop3309"
         style="stop-color:#ffffff;stop-opacity:0"
         offset="0.69999999" />
      <stop
         id="stop3305"
         style="stop-color:#000000;stop-opacity:1"
         offset="1" />
    </radialGradient>
    <linearGradient
       x1="29.049999"
       y1="7.0279999"
       x2="29.049999"
       y2="26.493999"
       id="linearGradient3201"
       gradientUnits="userSpaceOnUse"
       gradientTransform="matrix(1,0,0,-1,1e-6,48)">
      <stop
         id="stop3710"
         style="stop-color:#000000;stop-opacity:1"
         offset="0" />
      <stop
         id="stop3712"
         style="stop-color:#000000;stop-opacity:1"
         offset="1" />
    </linearGradient>
    <linearGradient
       x1="24.398001"
       y1="16.601999"
       x2="24.398001"
       y2="34.602001"
       id="linearGradient3212"
       xlink:href="#linearGradient3996"
       gradientUnits="userSpaceOnUse"
       gradientTransform="translate(-0.39768,0.39813)" />
    <radialGradient
       cx="30.455"
       cy="12.215"
       r="18"
       id="radialGradient3215"
       gradientUnits="userSpaceOnUse"
       gradientTransform="matrix(0,-1.5556,2.6591,1.0821e-8,-5.4804,83.374)">
      <stop
         id="stop3270"
         style="stop-color:#701919;stop-opacity:1"
         offset="0" />
      <stop
         id="stop4305"
         style="stop-color:#af3b3b;stop-opacity:1"
         offset="0.62664998" />
      <stop
         id="stop4307"
         style="stop-color:#cd6363;stop-opacity:1"
         offset="0.87730002" />
      <stop
         id="stop3272"
         style="stop-color:#ea8b8b;stop-opacity:1"
         offset="1" />
    </radialGradient>
    <linearGradient
       x1="29.049999"
       y1="7.0279999"
       x2="29.049999"
       y2="40.32"
       id="linearGradient3217"
       xlink:href="#linearGradient2480"
       gradientUnits="userSpaceOnUse"
       gradientTransform="matrix(1.0606,0,0,1.0606,-1.4545,-1.4545)" />
    <radialGradient
       cx="24"
       cy="25.049999"
       r="21"
       id="radialGradient3220"
       gradientUnits="userSpaceOnUse"
       gradientTransform="matrix(0.99943,-1.0912e-8,1.0916e-8,1,0.013862,-0.049659)">
      <stop
         id="stop4299"
         style="stop-color:#ffffff;stop-opacity:1"
         offset="0" />
      <stop
         id="stop4301"
         style="stop-color:#f0f0f0;stop-opacity:1"
         offset="0.85714" />
      <stop
         id="stop4303"
         style="stop-color:#999999;stop-opacity:1"
         offset="1" />
    </radialGradient>
    <linearGradient
       x1="16"
       y1="45"
       x2="16"
       id="linearGradient3222"
       gradientUnits="userSpaceOnUse">
      <stop
         id="stop4108"
         style="stop-color:#787878;stop-opacity:1"
         offset="0" />
      <stop
         id="stop4110"
         style="stop-color:#b4b4b4;stop-opacity:1"
         offset="1" />
    </linearGradient>
    <radialGradient
       cx="62.625"
       cy="4.625"
       r="10.625"
       id="radialGradient3225"
       gradientUnits="userSpaceOnUse"
       gradientTransform="matrix(2.1647,0,0,0.75294,-111.56,36.518)">
      <stop
         id="stop8840"
         style="stop-color:#000000;stop-opacity:1"
         offset="0" />
      <stop
         id="stop8842"
         style="stop-color:#000000;stop-opacity:0"
         offset="1" />
    </radialGradient>
    <radialGradient
       cx="13.5"
       cy="25.700001"
       r="3"
       id="radialGradient4256"
       xlink:href="#linearGradient4309"
       gradientUnits="userSpaceOnUse"
       gradientTransform="matrix(2.3333,-1.0557e-6,1.9607e-6,4.3333,4.5,-84.367)" />
    <radialGradient
       cx="13.5"
       cy="25.700001"
       r="3"
       id="radialGradient4258"
       xlink:href="#linearGradient4309"
       gradientUnits="userSpaceOnUse"
       gradientTransform="matrix(2.3333,1.2434e-6,-2.3092e-6,4.3333,-2.5,-84.367)" />
    <radialGradient
       cx="13.5"
       cy="25.700001"
       r="3"
       id="radialGradient4260"
       xlink:href="#linearGradient4309"
       gradientUnits="userSpaceOnUse"
       gradientTransform="matrix(2.6667,1.1938e-7,-1.9399e-7,4.3333,-15,-84.367)" />
    <radialGradient
       cx="14"
       cy="25.700001"
       r="3"
       id="radialGradient4262"
       xlink:href="#linearGradient4309"
       gradientUnits="userSpaceOnUse"
       gradientTransform="matrix(2.3333,-1.0331e-6,1.9186e-6,4.3333,-18.667,-84.367)" />
    <radialGradient
       cx="24"
       cy="20"
       r="17"
       id="radialGradient4266"
       xlink:href="#linearGradient3996"
       gradientUnits="userSpaceOnUse"
       gradientTransform="matrix(1.2353,0,0,1,-5.6471,0)" />
    <linearGradient
       x1="17.681"
       y1="2.75"
       x2="17.681"
       y2="-2.25"
       id="linearGradient4538"
       xlink:href="#linearGradient2480"
       gradientUnits="userSpaceOnUse"
       gradientTransform="matrix(2,0,0,-2,4.6379,43.5)" />
    <linearGradient
       x1="23.576"
       y1="25.357"
       x2="23.576"
       y2="31.211"
       id="linearGradient3077"
       gradientUnits="userSpaceOnUse"
       gradientTransform="matrix(-0.011455,-0.90585,1.1745,0.0059683,-8.866,33.546)">
      <stop
         id="stop2646-2"
         style="stop-color:#181818;stop-opacity:1"
         offset="0" />
      <stop
         id="stop2543-3"
         style="stop-color:#dbdbdb;stop-opacity:1"
         offset="0.13483" />
      <stop
         id="stop2545-2"
         style="stop-color:#a4a4a4;stop-opacity:1"
         offset="0.20224001" />
      <stop
         id="stop2650-7"
         style="stop-color:#ffffff;stop-opacity:1"
         offset="0.26966" />
      <stop
         id="stop2652-3"
         style="stop-color:#8d8d8d;stop-opacity:1"
         offset="0.4465" />
      <stop
         id="stop2551-9"
         style="stop-color:#959595;stop-opacity:1"
         offset="0.57113999" />
      <stop
         id="stop2553-0"
         style="stop-color:#cecece;stop-opacity:1"
         offset="0.72038001" />
      <stop
         id="stop2555-15"
         style="stop-color:#181818;stop-opacity:1"
         offset="1" />
    </linearGradient>
    <linearGradient
       id="linearGradient3155-40-6-6">
      <stop
         id="stop2646-8-8"
         style="stop-color:#181818;stop-opacity:1"
         offset="0" />
      <stop
         id="stop2543-8-7"
         style="stop-color:#dbdbdb;stop-opacity:1"
         offset="0.13483" />
      <stop
         id="stop2545-6-4"
         style="stop-color:#a4a4a4;stop-opacity:1"
         offset="0.20224001" />
      <stop
         id="stop2650-2-9"
         style="stop-color:#ffffff;stop-opacity:1"
         offset="0.26966" />
      <stop
         id="stop2652-1-2"
         style="stop-color:#8d8d8d;stop-opacity:1"
         offset="0.4465" />
      <stop
         id="stop2551-3-4"
         style="stop-color:#959595;stop-opacity:1"
         offset="0.57113999" />
      <stop
         id="stop2553-1-4"
         style="stop-color:#cecece;stop-opacity:1"
         offset="0.72038001" />
      <stop
         id="stop2555-1-5"
         style="stop-color:#181818;stop-opacity:1"
         offset="1" />
    </linearGradient>
    <linearGradient
       x1="23.576"
       y1="25.357"
       x2="23.576"
       y2="31.211"
       id="linearGradient3126"
       xlink:href="#linearGradient3155-40-6-6"
       gradientUnits="userSpaceOnUse"
       gradientTransform="matrix(-0.64003,-0.64293,-0.66266,0.68319,49.400014,10.256)" />
    <linearGradient
       inkscape:collect="always"
       xlink:href="#linearGradient3155-40-6-6"
       id="linearGradient4418"
       gradientUnits="userSpaceOnUse"
       gradientTransform="matrix(0.64003,-0.64293,0.66266,0.68319,-1.2052,10.256)"
       x1="23.576"
       y1="25.357"
       x2="23.576"
       y2="31.211" />
  </defs>
  <path
     d="m 20.627,8.0857 c 0.08395,-0.53647 1.5856,-0.95464 3.4241,-0.9453 1.8341,0.0093 3.3015,0.44439 3.4055,0.98001 4.13e-4,0.0021 0.0426,-0.0018 0.04296,2.12e-4 l -0.127,-6.5848 c -0.01086,-0.56082 -1.5523,-1.0256 -3.4491,-1.0352 -1.8968,-0.00964 -3.4342,0.43949 -3.4234,1.0003 z"
     inkscape:connector-curvature="0"
     id="rect2383-0"
     style="fill:url(#linearGradient3077);stroke:#666666;stroke-linejoin:round" />
  <path
     d="m 33.715,9.4226 c 0.43057,-0.3283 1.5818,0.24611 2.619,1.3155 1.0348,1.0669 1.5575,2.2208 1.2343,2.6572 -0.0012,0.0017 0.0255,0.02335 0.02424,0.02498 l 4.628,-4.6988 c 0.394,-0.4002 -0.15,-1.6178 -1.22,-2.7212 -1.07,-1.1034 -2.264,-1.6767 -2.658,-1.2765 z"
     inkscape:connector-curvature="0"
     id="rect2383-5"
     style="fill:url(#linearGradient4418);stroke:#0c0c0c;stroke-linejoin:round" />
  <path
     d="m 36.652907,6.2501 c 0.4303,-0.32838 1.6377,0.2876 2.7472,1.4103 1.1069,1.12 1.6901,2.3185 1.3745,2.7604 -0.0012,0.0017 0.02715,0.02457 0.02592,0.02623 l 1.8855,-1.9269 0.03848,-0.03932 c 0.0012,-0.0017 -0.02713,-0.02455 -0.02592,-0.02623 0.31558,-0.44189 -0.26764,-1.6404 -1.3745,-2.7604 -1.1095,-1.1227 -2.3169,-1.7387 -2.7472,-1.4103 l -0.03848,0.039324 z"
     inkscape:connector-curvature="0"
     id="rect3175"
     style="opacity:0.8;fill:#ffb6b6;stroke:#e28ccd;stroke-width:0.39151999;stroke-linejoin:round;fill-opacity:1" />
  <path
     d="m 14.479814,9.4226 c -0.43057,-0.3283 -1.5818,0.24611 -2.619,1.3155 -1.0348,1.0669 -1.5575,2.2208 -1.2343,2.6572 0.0012,0.0017 -0.0255,0.02335 -0.02424,0.02498 l -4.628,-4.6988 c -0.394,-0.4002 0.15,-1.6178 1.22,-2.7212 1.07,-1.1034 2.264,-1.6767 2.658,-1.2765 z"
     inkscape:connector-curvature="0"
     id="path4013"
     style="fill:url(#linearGradient3126);stroke:#0c0c0c;stroke-linejoin:round" />
  <path
     d="m 11.541907,6.2501 c -0.4303,-0.32838 -1.6377,0.2876 -2.7472,1.4103 -1.1069,1.12 -1.6901,2.3185 -1.3745,2.7604 0.0012,0.0017 -0.02715,0.02457 -0.02592,0.02623 l -1.8855,-1.9269 -0.03848,-0.03932 c -0.0012,-0.0017 0.02713,-0.02455 0.02592,-0.02623 -0.31558,-0.44189 0.26764,-1.6404 1.3745,-2.7604 1.1095,-1.1227 2.3169,-1.7387 2.7472,-1.4103 l 0.03848,0.039324 z"
     inkscape:connector-curvature="0"
     id="path4015"
     style="opacity:0.8;fill:#ffb6b6;stroke:#e28ccd;stroke-width:0.39151999;stroke-linejoin:round;fill-opacity:1" />
  <path
     d="m 47,40 c 0,4.4183 -10.297,8 -23,8 -12.703,0 -23,-3.5817 -23,-8 0,-4.4183 10.297,-8 23,-8 12.703,0 23,3.5817 23,8 z"
     inkscape:connector-curvature="0"
     id="path8836"
     style="opacity:0.4;fill:url(#radialGradient3225);fill-rule:evenodd" />
  <path
     d="M 44.5,23.999 C 44.5,35.321 35.321,44.5 24,44.5 12.678,44.5 3.5,35.321 3.5,23.999 3.5,12.678 12.678,3.5 24,3.5 c 11.321,0 20.5,9.178 20.5,20.499 z"
     inkscape:connector-curvature="0"
     id="path6495"
     style="fill:url(#radialGradient3220);stroke:url(#linearGradient3222)" />
  <path
     d="M 41.5,23.999 C 41.5,33.6643 33.6644,41.5 24,41.5 14.3349,41.5 6.5,33.6646 6.5,23.999 6.5,14.3341 14.3352,6.5 24,6.5 c 9.6642,0 17.5,7.8345 17.5,17.499 z"
     inkscape:connector-curvature="0"
     id="path3215"
     style="fill:url(#radialGradient3215);stroke:url(#linearGradient3217)" />
  <g
     id="g4266"
     transform="translate(0,2)">
    <rect
       style="fill:#343434;fill-opacity:1"
       id="rect3031"
       y="14"
       x="10"
       ry="2"
       rx="2.7300999"
       height="15"
       width="6" />
    <path
       style="fill:none;stroke:#ffffff;stroke-linecap:round"
       id="path2308"
       inkscape:connector-curvature="0"
       d="m 14.5,20.616 0,-3.116" />
    <path
       style="opacity:0.2;fill:none;stroke:#ffffff;stroke-linecap:round"
       id="path3825"
       inkscape:connector-curvature="0"
       d="m 14.5,25.616 0,-3.116" />
    <path
       style="opacity:0.2;fill:none;stroke:#ffffff;stroke-linecap:round"
       id="path3827"
       inkscape:connector-curvature="0"
       d="m 11.5,20.616 0,-3.116" />
    <path
       style="fill:none;stroke:#ffffff;stroke-linecap:round"
       id="path3829"
       inkscape:connector-curvature="0"
       d="m 11.5,25.616 0,-3.116" />
    <path
       style="fill:none;stroke:#ffffff;stroke-linecap:round"
       id="path3861"
       inkscape:connector-curvature="0"
       d="m 13.5,16.5 -1.1166,0" />
    <path
       style="fill:none;stroke:#ffffff;stroke-linecap:round"
       id="path3863"
       inkscape:connector-curvature="0"
       d="m 13.5,21.5 -1.1166,0" />
    <path
       style="fill:none;stroke:#ffffff;stroke-linecap:round"
       id="path3865"
       inkscape:connector-curvature="0"
       d="m 13.5,26.5 -1.1166,0" />
    <rect
       style="fill:#343434;fill-opacity:1"
       id="rect4086"
       y="14"
       x="17"
       ry="2"
       rx="2.7300999"
       height="15"
       width="6" />
    <path
       style="fill:none;stroke:#ffffff;stroke-linecap:round"
       id="path4088"
       inkscape:connector-curvature="0"
       d="m 21.5,20.616 0,-3.116" />
    <path
       style="fill:none;stroke:#ffffff;stroke-linecap:round"
       id="path4090"
       inkscape:connector-curvature="0"
       d="m 21.5,25.616 0,-3.116" />
    <path
       style="fill:none;stroke:#ffffff;stroke-linecap:round"
       id="path4092"
       inkscape:connector-curvature="0"
       d="m 18.5,20.616 0,-3.116" />
    <path
       style="fill:none;stroke:#ffffff;stroke-linecap:round"
       id="path4094"
       inkscape:connector-curvature="0"
       d="m 18.5,25.616 0,-3.116" />
    <path
       style="fill:none;stroke:#ffffff;stroke-linecap:round"
       id="path4096"
       inkscape:connector-curvature="0"
       d="m 20.5,16.5 -1.1166,0" />
    <path
       style="opacity:0.3;fill:none;stroke:#ffffff;stroke-linecap:round"
       id="path4098"
       inkscape:connector-curvature="0"
       d="m 20.5,21.5 -1.1166,0" />
    <path
       style="fill:none;stroke:#ffffff;stroke-linecap:round"
       id="path4100"
       inkscape:connector-curvature="0"
       d="m 20.5,26.5 -1.1166,0" />
    <rect
       style="fill:#343434;fill-opacity:1"
       id="rect4104"
       y="14"
       x="25"
       ry="2"
       rx="2.7300999"
       height="15"
       width="6" />
    <path
       style="fill:none;stroke:#ffffff;stroke-linecap:round"
       id="path4106"
       inkscape:connector-curvature="0"
       d="m 29.5,20.616 0,-3.116" />
    <path
       style="fill:none;stroke:#ffffff;stroke-linecap:round"
       id="path4108"
       inkscape:connector-curvature="0"
       d="m 29.5,25.616 0,-3.116" />
    <path
       style="fill:none;stroke:#ffffff;stroke-linecap:round"
       id="path4110"
       inkscape:connector-curvature="0"
       d="m 26.5,20.616 0,-3.116" />
    <path
       style="opacity:0.2;fill:none;stroke:#ffffff;stroke-linecap:round"
       id="path4112"
       inkscape:connector-curvature="0"
       d="m 26.5,25.616 0,-3.116" />
    <path
       style="opacity:0.2;fill:none;stroke:#ffffff;stroke-linecap:round"
       id="path4114"
       inkscape:connector-curvature="0"
       d="m 28.5,16.5 -1.1166,0" />
    <path
       style="fill:none;stroke:#ffffff;stroke-linecap:round"
       id="path4116"
       inkscape:connector-curvature="0"
       d="m 28.5,21.5 -1.1166,0" />
    <path
       style="opacity:0.2;fill:none;stroke:#ffffff;stroke-linecap:round"
       id="path4118"
       inkscape:connector-curvature="0"
       d="m 28.5,26.5 -1.1166,0" />
    <rect
       style="fill:#343434;fill-opacity:1"
       id="rect4122"
       y="14"
       x="32"
       ry="2"
       rx="2.7300999"
       height="15"
       width="6" />
    <path
       style="fill:none;stroke:#ffffff;stroke-linecap:round"
       id="path4124"
       inkscape:connector-curvature="0"
       d="m 36.5,20.616 0,-3.116" />
    <path
       style="fill:none;stroke:#ffffff;stroke-linecap:round"
       id="path4126"
       inkscape:connector-curvature="0"
       d="m 36.5,25.616 0,-3.116" />
    <path
       style="fill:none;stroke:#ffffff;stroke-linecap:round"
       id="path4128"
       inkscape:connector-curvature="0"
       d="m 33.5,20.616 0,-3.116" />
    <path
       style="fill:none;stroke:#ffffff;stroke-linecap:round"
       id="path4130"
       inkscape:connector-curvature="0"
       d="m 33.5,25.616 0,-3.116" />
    <path
       style="fill:none;stroke:#ffffff;stroke-linecap:round"
       id="path4132"
       inkscape:connector-curvature="0"
       d="m 35.5,16.5 -1.1166,0" />
    <path
       style="opacity:0.3;fill:none;stroke:#ffffff;stroke-linecap:round"
       id="path4134"
       inkscape:connector-curvature="0"
       d="m 35.5,21.5 -1.1166,0" />
    <path
       style="fill:none;stroke:#ffffff;stroke-linecap:round"
       id="path4136"
       inkscape:connector-curvature="0"
       d="m 35.5,26.5 -1.1166,0" />
  </g>
  <path
     d="M 43.5,23.999 C 43.5,34.769 34.7689,43.5 24,43.5 13.23,43.5 4.5,34.7691 4.5,23.999 4.5,13.23 13.2306,4.5 24,4.5 c 10.7694,0 19.5,8.73 19.5,19.499 z"
     inkscape:connector-curvature="0"
     id="path3222"
     style="fill:none;stroke:url(#linearGradient3212)" />
  <path
     d="M 40.5,24.001 C 40.5,14.888 33.112,7.5 24,7.5 14.887,7.5 7.5,14.888 7.5,24.001 7.5,33.113 14.887,40.5 24,40.5 c 9.112,0 16.5,-7.387 16.5,-16.499 z"
     inkscape:connector-curvature="0"
     id="path3215-4"
     style="opacity:0.4;fill:url(#radialGradient3199);stroke:url(#linearGradient3201)" />
</svg>
