<?xml version="1.0" encoding="UTF-8" standalone="no"?>
<!-- Created with Inkscape (http://www.inkscape.org/) -->

<svg
   xmlns:dc="http://purl.org/dc/elements/1.1/"
   xmlns:cc="http://creativecommons.org/ns#"
   xmlns:rdf="http://www.w3.org/1999/02/22-rdf-syntax-ns#"
   xmlns:svg="http://www.w3.org/2000/svg"
   xmlns="http://www.w3.org/2000/svg"
   xmlns:xlink="http://www.w3.org/1999/xlink"
   xmlns:sodipodi="http://sodipodi.sourceforge.net/DTD/sodipodi-0.dtd"
   xmlns:inkscape="http://www.inkscape.org/namespaces/inkscape"
   version="1.1"
   width="48"
   height="48"
   id="svg4117"
   inkscape:version="0.91 r13725"
   sodipodi:docname="amazon-store.svg">
  <sodipodi:namedview
     pagecolor="#ffffff"
     bordercolor="#666666"
     borderopacity="1"
     objecttolerance="10"
     gridtolerance="10"
     guidetolerance="10"
     inkscape:pageopacity="0"
     inkscape:pageshadow="2"
     inkscape:window-width="1533"
     inkscape:window-height="847"
     id="namedview85"
     showgrid="true"
     inkscape:zoom="7.64"
     inkscape:cx="13.144414"
     inkscape:cy="13.536785"
     inkscape:window-x="65"
     inkscape:window-y="24"
     inkscape:window-maximized="0"
     inkscape:current-layer="svg4117">
    <inkscape:grid
       type="xygrid"
       id="grid3871" />
  </sodipodi:namedview>
  <defs
     id="defs4119">
    <linearGradient
       id="linearGradient3924">
      <stop
         id="stop3926"
         style="stop-color:#ffffff;stop-opacity:1"
         offset="0" />
      <stop
         id="stop3928"
         style="stop-color:#ffffff;stop-opacity:0.23529412"
         offset="0.06316455" />
      <stop
         id="stop3930"
         style="stop-color:#ffffff;stop-opacity:0.15686275"
         offset="0.95056331" />
      <stop
         id="stop3932"
         style="stop-color:#ffffff;stop-opacity:0.39215687"
         offset="1" />
    </linearGradient>
    <radialGradient
       cx="4.9929786"
       cy="43.5"
       r="2.5"
       fx="4.9929786"
       fy="43.5"
       id="radialGradient2873-966-168"
       xlink:href="#linearGradient3688-166-749"
       gradientUnits="userSpaceOnUse"
       gradientTransform="matrix(2.003784,0,0,1.4,27.98813,-17.4)" />
    <linearGradient
       id="linearGradient3688-166-749">
      <stop
         id="stop2883"
         style="stop-color:#181818;stop-opacity:1"
         offset="0" />
      <stop
         id="stop2885"
         style="stop-color:#181818;stop-opacity:0"
         offset="1" />
    </linearGradient>
    <radialGradient
       cx="4.9929786"
       cy="43.5"
       r="2.5"
       fx="4.9929786"
       fy="43.5"
       id="radialGradient2875-742-326"
       xlink:href="#linearGradient3688-464-309"
       gradientUnits="userSpaceOnUse"
       gradientTransform="matrix(2.003784,0,0,1.4,-20.01187,-104.4)" />
    <linearGradient
       id="linearGradient3688-464-309">
      <stop
         id="stop2889"
         style="stop-color:#181818;stop-opacity:1"
         offset="0" />
      <stop
         id="stop2891"
         style="stop-color:#181818;stop-opacity:0"
         offset="1" />
    </linearGradient>
    <linearGradient
       x1="25.058096"
       y1="47.027729"
       x2="25.058096"
       y2="39.999443"
       id="linearGradient2877-634-617"
       xlink:href="#linearGradient3702-501-757"
       gradientUnits="userSpaceOnUse" />
    <linearGradient
       id="linearGradient3702-501-757">
      <stop
         id="stop2895"
         style="stop-color:#181818;stop-opacity:0"
         offset="0" />
      <stop
         id="stop2897"
         style="stop-color:#181818;stop-opacity:1"
         offset="0.5" />
      <stop
         id="stop2899"
         style="stop-color:#181818;stop-opacity:0"
         offset="1" />
    </linearGradient>
    <filter
       color-interpolation-filters="sRGB"
       id="filter3831">
      <feGaussianBlur
         stdDeviation="0.6375"
         id="feGaussianBlur3833" />
    </filter>
    <clipPath
       id="clipPath3823">
      <path
         d="M 108.8125,58 C 107.25437,58 106,59.254375 106,60.8125 l 0,24.375 C 106,86.745625 107.25437,88 108.8125,88 l 24.375,0 C 134.74562,88 136,86.745625 136,85.1875 l 0,-24.375 C 136,59.254375 134.74562,58 133.1875,58 l -24.375,0 z m 7.1875,4.5 10,0 0,8.75 5,0 -10,13.75 -10,-13.75 5,0 0,-8.75 z"
         inkscape:connector-curvature="0"
         id="path3825"
         style="fill:#ffffff;fill-opacity:1;stroke:none" />
    </clipPath>
    <linearGradient
       x1="65.262688"
       y1="64.205269"
       x2="65.262688"
       y2="50.068527"
       id="linearGradient3812"
       xlink:href="#linearGradient5010"
       gradientUnits="userSpaceOnUse"
       gradientTransform="matrix(0.625,0,0,0.625,78.5,32.25)" />
    <filter
       color-interpolation-filters="sRGB"
       id="filter3806">
      <feGaussianBlur
         stdDeviation="1.2"
         id="feGaussianBlur3808" />
    </filter>
    <linearGradient
       x1="70"
       y1="54"
       x2="70"
       y2="75.095024"
       id="linearGradient3788"
       xlink:href="#linearGradient3737"
       gradientUnits="userSpaceOnUse"
       gradientTransform="translate(0,4)" />
    <linearGradient
       x1="56"
       y1="72"
       x2="88"
       y2="72"
       id="linearGradient3773"
       xlink:href="#linearGradient3778"
       gradientUnits="userSpaceOnUse"
       gradientTransform="matrix(0.9375,0,0,0.9375,-140.5,3.5)" />
    <linearGradient
       x1="65.262688"
       y1="64.205269"
       x2="65.262688"
       y2="50.068527"
       id="linearGradient3832"
       xlink:href="#linearGradient3737"
       gradientUnits="userSpaceOnUse"
       gradientTransform="matrix(0.625,0,0,0.625,28.5,31.25)" />
    <filter
       color-interpolation-filters="sRGB"
       id="filter3174">
      <feGaussianBlur
         stdDeviation="1.71"
         id="feGaussianBlur3176" />
    </filter>
    <linearGradient
       id="linearGradient3737">
      <stop
         id="stop3739"
         style="stop-color:#ffffff;stop-opacity:1"
         offset="0" />
      <stop
         id="stop3741"
         style="stop-color:#ffffff;stop-opacity:0"
         offset="1" />
    </linearGradient>
    <linearGradient
       x1="45.447727"
       y1="92.539597"
       x2="45.447727"
       y2="7.0165396"
       id="ButtonShadow"
       gradientUnits="userSpaceOnUse"
       gradientTransform="scale(1.0058652,0.994169)">
      <stop
         id="stop3750"
         style="stop-color:#000000;stop-opacity:1"
         offset="0" />
      <stop
         id="stop3752"
         style="stop-color:#000000;stop-opacity:0.58823532"
         offset="1" />
    </linearGradient>
    <linearGradient
       id="linearGradient5010">
      <stop
         id="stop5012"
         style="stop-color:#000000;stop-opacity:1"
         offset="0" />
      <stop
         id="stop5014"
         style="stop-color:#000000;stop-opacity:0"
         offset="1" />
    </linearGradient>
    <linearGradient
       id="linearGradient3778">
      <stop
         id="stop3780"
         style="stop-color:#499119;stop-opacity:1"
         offset="0" />
      <stop
         id="stop3782"
         style="stop-color:#8fd625;stop-opacity:1"
         offset="1" />
    </linearGradient>
    <linearGradient
       id="linearGradient3104">
      <stop
         id="stop3106"
         style="stop-color:#aaaaaa;stop-opacity:1"
         offset="0" />
      <stop
         id="stop3108"
         style="stop-color:#c8c8c8;stop-opacity:1"
         offset="1" />
    </linearGradient>
    <linearGradient
       id="linearGradient3600">
      <stop
         id="stop3602"
         style="stop-color:#f4f4f4;stop-opacity:1"
         offset="0" />
      <stop
         id="stop3604"
         style="stop-color:#dbdbdb;stop-opacity:1"
         offset="1" />
    </linearGradient>
    <linearGradient
       id="linearGradient3104-5">
      <stop
         id="stop3106-9"
         style="stop-color:#aaaaaa;stop-opacity:1"
         offset="0" />
      <stop
         id="stop3108-8"
         style="stop-color:#c8c8c8;stop-opacity:1"
         offset="1" />
    </linearGradient>
    <linearGradient
       x1="23.99999"
       y1="4.999989"
       x2="23.99999"
       y2="43"
       id="linearGradient3084"
       xlink:href="#linearGradient3924"
       gradientUnits="userSpaceOnUse"
       gradientTransform="translate(2.4e-6,0.9674489)" />
    <radialGradient
       cx="7.4956832"
       cy="8.4497671"
       r="19.99999"
       fx="7.4956832"
       fy="8.4497671"
       id="radialGradient3093"
       xlink:href="#linearGradient3600"
       gradientUnits="userSpaceOnUse"
       gradientTransform="matrix(0,1.9392804,-2.0515274,-5.2784231e-8,41.335037,-8.4862548)" />
    <linearGradient
       x1="24"
       y1="44"
       x2="24"
       y2="3.8990016"
       id="linearGradient3095"
       xlink:href="#linearGradient3104"
       gradientUnits="userSpaceOnUse"
       gradientTransform="translate(-6e-7,0.9674389)" />
    <linearGradient
       x1="20"
       y1="43"
       x2="20"
       y2="3"
       id="linearGradient3098"
       xlink:href="#linearGradient3104-5"
       gradientUnits="userSpaceOnUse" />
    <linearGradient
       x1="23.06352"
       y1="12.978221"
       x2="23.06352"
       y2="36.949589"
       id="linearGradient3036"
       xlink:href="#linearGradient4311"
       gradientUnits="userSpaceOnUse"
       gradientTransform="matrix(1,0,0,-1,0,50.012147)" />
    <linearGradient
       id="linearGradient4311">
      <stop
         id="stop4313"
         style="stop-color:#000000;stop-opacity:1"
         offset="0" />
      <stop
         id="stop4315"
         style="stop-color:#000000;stop-opacity:0"
         offset="1" />
    </linearGradient>
    <linearGradient
       x1="23.06352"
       y1="12.978221"
       x2="23.06352"
       y2="36.949589"
       id="linearGradient3039"
       xlink:href="#linearGradient4311"
       gradientUnits="userSpaceOnUse" />
    <linearGradient
       gradientTransform="translate(-287.99999,-219.5)"
       inkscape:collect="always"
       xlink:href="#linearGradient3994"
       id="linearGradient4014"
       x1="304"
       y1="256"
       x2="304"
       y2="232"
       gradientUnits="userSpaceOnUse" />
    <linearGradient
       inkscape:collect="always"
       id="linearGradient3994">
      <stop
         style="stop-color:#199cd4;stop-opacity:1;"
         offset="0"
         id="stop3996" />
      <stop
         style="stop-color:#43b0df;stop-opacity:1"
         offset="1"
         id="stop3998" />
    </linearGradient>
    <linearGradient
       gradientTransform="translate(-287.99999,-219.5)"
       inkscape:collect="always"
       xlink:href="#linearGradient3968"
       id="linearGradient3988"
       x1="312"
       y1="256"
       x2="312"
       y2="232"
       gradientUnits="userSpaceOnUse" />
    <linearGradient
       inkscape:collect="always"
       id="linearGradient3968">
      <stop
         style="stop-color:#ed6308;stop-opacity:1;"
         offset="0"
         id="stop3970" />
      <stop
         style="stop-color:#f09e17;stop-opacity:1"
         offset="1"
         id="stop3972" />
    </linearGradient>
    <linearGradient
       inkscape:collect="always"
       xlink:href="#outerBackgroundGradient-4"
       id="linearGradient4262"
       x1="292"
       y1="244"
       x2="332"
       y2="244"
       gradientUnits="userSpaceOnUse"
       gradientTransform="matrix(0,-1,1,0,68,556)" />
    <linearGradient
       id="outerBackgroundGradient-4">
      <stop
         style="stop-color:#e7e7e7;stop-opacity:1;"
         offset="0"
         id="stop3864-8-6-4" />
      <stop
         style="stop-color:#ffffff;stop-opacity:1;"
         offset="1"
         id="stop3866-9-1-6" />
    </linearGradient>
    <linearGradient
       y2="244"
       x2="332"
       y1="244"
       x1="292"
       gradientTransform="matrix(0,-1,1,0,-295.05085,332.33898)"
       gradientUnits="userSpaceOnUse"
       id="linearGradient3152"
       xlink:href="#outerBackgroundGradient-4"
       inkscape:collect="always" />
  </defs>
  <metadata
     id="metadata4122">
    <rdf:RDF>
      <cc:Work
         rdf:about="">
        <dc:format>image/svg+xml</dc:format>
        <dc:type
           rdf:resource="http://purl.org/dc/dcmitype/StillImage" />
        <dc:title />
      </cc:Work>
    </rdf:RDF>
  </metadata>
  <g
     transform="translate(-135.85714,-31.05041)"
     id="layer2"
     style="display:none">
    <path
       d="M 11,7 48,5 85,7 c 3.324,0 6,2.676 6,6 l 0,73 c 0,3.324 -2.676,6 -6,6 L 11,92 C 7.676,92 5,89.324 5,86 L 5,13 C 5,9.676 7.676,7 11,7 z"
       inkscape:connector-curvature="0"
       id="rect3745"
       style="opacity:0.9;fill:url(#ButtonShadow);fill-opacity:1;fill-rule:nonzero;stroke:none;filter:url(#filter3174)" />
  </g>
  <g
     transform="translate(-135.85714,-31.05041)"
     id="layer4"
     style="display:none">
    <rect
       width="30"
       height="30"
       rx="2.8125"
       ry="2.8125"
       x="-86"
       y="56"
       transform="matrix(0,-1,1,0,0,4)"
       id="rect3790"
       style="opacity:0.6;fill:#000000;fill-opacity:1;stroke:none;filter:url(#filter3806)" />
    <rect
       width="30"
       height="30"
       rx="2.8125"
       ry="2.8125"
       x="-88"
       y="56"
       transform="matrix(0,-1,1,0,0,0)"
       id="rect2993"
       style="fill:url(#linearGradient3773);fill-opacity:1;stroke:none" />
    <path
       d="M 58.8125,58 C 57.254375,58 56,59.254375 56,60.8125 l 0,24.375 c 0,0.873066 0.410816,1.641163 1.03125,2.15625 C 57.02841,87.289908 57,87.242129 57,87.1875 l 0,-24.375 C 57,61.254375 58.17075,60 59.625,60 l 22.75,0 C 83.82925,60 85,61.254375 85,62.8125 l 0,24.375 c 0,0.05463 -0.02841,0.102408 -0.03125,0.15625 C 85.589184,86.828663 86,86.060566 86,85.1875 l 0,-24.375 C 86,59.254375 84.745625,58 83.1875,58 l -24.375,0 z"
       inkscape:connector-curvature="0"
       id="rect3775"
       style="opacity:0.5;fill:url(#linearGradient3788);fill-opacity:1;stroke:none" />
    <path
       d="m 116,63.5 0,8.75 -5,0 10,13.75 10,-13.75 -5,0 0,-8.75 -10,0 z"
       inkscape:connector-curvature="0"
       transform="translate(-50,0)"
       clip-path="url(#clipPath3823)"
       id="path3810"
       style="opacity:0.6;fill:url(#linearGradient3812);fill-opacity:1;fill-rule:nonzero;stroke:none;display:inline;filter:url(#filter3831)" />
    <path
       d="m 66,62.5 0,8.75 -5,0 10,13.75 10,-13.75 -5,0 0,-8.75 -10,0 z"
       inkscape:connector-curvature="0"
       id="path4278"
       style="fill:url(#linearGradient3832);fill-opacity:1;fill-rule:nonzero;stroke:none;display:inline" />
  </g>
  <g
     id="g4228"
     transform="translate(0,-0.96743917)">
    <path
       style="color:#000000;display:inline;overflow:visible;visibility:visible;opacity:0.05;fill:url(#linearGradient3098);fill-opacity:1;fill-rule:nonzero;stroke:none;stroke-width:1;marker:none;enable-background:accumulate"
       id="path4564-0"
       inkscape:connector-curvature="0"
       d="M 22.96875,8.1875 A 2.9359229,2.9359229 0 0 0 21.5625,8.59375 l -11.03125,6.375 A 2.9359229,2.9359229 0 0 0 9.125,17 2.9359229,2.9359229 0 0 0 9.09375,17 2.9359229,2.9359229 0 0 0 8.125,19.1875 L 8.0625,31.90625 a 2.9359229,2.9359229 0 0 0 1,2.1875 2.9359229,2.9359229 0 0 0 0,0.03125 2.9359229,2.9359229 0 0 0 1.4375,2.09375 l 11,6.3125 a 2.9359229,2.9359229 0 0 0 2.40625,0.21875 2.9359229,2.9359229 0 0 0 0.03125,0 2.9359229,2.9359229 0 0 0 2.5,-0.1875 l 11,-6.34375 a 2.9359229,2.9359229 0 0 0 1.40625,-2 2.9359229,2.9359229 0 0 0 1.09375,-2.25 l 0,-12.71875 a 2.9359229,2.9359229 0 0 0 -1,-2.1875 A 2.9359229,2.9359229 0 0 0 37.5,14.96875 L 26.46875,8.625 A 2.9359229,2.9359229 0 0 0 24.0625,8.375 2.9359229,2.9359229 0 0 0 22.96875,8.1875 Z" />
    <rect
       style="color:#000000;display:inline;overflow:visible;visibility:visible;fill:url(#radialGradient3093);fill-opacity:1;fill-rule:nonzero;stroke:url(#linearGradient3095);stroke-width:1;stroke-linecap:round;stroke-linejoin:round;stroke-miterlimit:4;stroke-dasharray:none;stroke-dashoffset:0;stroke-opacity:1;marker:none;enable-background:accumulate"
       id="rect5505-21"
       y="5.4674392"
       x="4.5"
       ry="2"
       rx="2"
       height="39"
       width="39" />
    <rect
       style="fill:none;stroke:url(#linearGradient3084);stroke-width:1;stroke-linecap:round;stroke-linejoin:round;stroke-miterlimit:4;stroke-dasharray:none;stroke-dashoffset:0;stroke-opacity:1"
       id="rect6741-2"
       y="6.4674392"
       x="5.5"
       ry="1"
       rx="1"
       height="37"
       width="37" />
    <path
       style="display:inline;opacity:0.2;fill:#000000;fill-opacity:1;fill-rule:evenodd"
       d="m 25.906976,26.095292 c 0,1.256848 0.02997,2.304552 -0.604686,3.421205 -0.51258,0.908281 -1.328341,1.465795 -2.234485,1.465795 -1.238194,0 -1.962995,-0.942082 -1.962995,-2.338688 0,-2.746754 2.466685,-3.246113 4.802166,-3.246113 z m 3.255248,7.863521 c -0.214133,0.191234 -0.522618,0.204512 -0.763373,0.07482 -1.072863,-0.890036 -1.264817,-1.301778 -1.850624,-2.149127 -1.771853,1.803332 -3.027253,2.344183 -5.322537,2.344183 -2.718291,0 -4.831849,-1.67527 -4.831849,-5.026477 0,-2.618209 1.419013,-4.398244 3.442519,-5.271186 1.751635,-0.768091 4.198341,-0.907423 6.070569,-1.117179 l 0,-0.41895 c 0,-0.767516 0.0599,-1.675554 -0.392801,-2.338694 C 25.121376,19.46269 24.366367,19.2186 23.702365,19.2186 c -1.231264,0 -2.326304,0.630092 -2.59483,1.936311 -0.0563,0.290983 -0.26824,0.578239 -0.561382,0.593276 l -3.128776,-0.338631 c -0.264034,-0.05926 -0.558084,-0.271312 -0.481512,-0.67417 0.718683,-3.792261 4.147006,-4.938088 7.21919,-4.938088 1.570482,0 3.624149,0.418944 4.862391,1.605794 1.570481,1.466366 1.419584,3.421204 1.419584,5.550707 l 0,5.02428 c 0,1.511249 0.627964,2.174625 1.218216,2.989795 0.206341,0.292602 0.252944,0.641744 -0.01,0.85566 -0.659605,0.552502 -1.831791,1.569455 -2.476435,2.142491 z"
       id="path3104"
       inkscape:connector-curvature="0"
       sodipodi:nodetypes="scsscscccssccscsccccscsscccc" />
    <path
       inkscape:connector-curvature="0"
       style="opacity:0.2;fill:#000000;fill-opacity:1;fill-rule:evenodd;stroke:none"
       id="path3106"
       d="M 33.693878,35.532383 C 31.065782,37.46753 27.256517,38.5 23.976809,38.5 c -4.598677,0 -8.738668,-1.699149 -11.87073,-4.525167 -0.246076,-0.222229 -0.02559,-0.525089 0.2697,-0.352023 3.380106,1.964641 7.559471,3.146575 11.876638,3.146575 2.911575,0 6.114507,-0.601782 9.059551,-1.850579 0.444906,-0.188799 0.816974,0.291058 0.38191,0.613577" />
    <path
       inkscape:connector-curvature="0"
       style="opacity:0.2;fill:#000000;fill-opacity:1;fill-rule:evenodd;stroke:none"
       id="path3108"
       d="m 34.786459,34.283591 c -0.334666,-0.428721 -2.220594,-0.202564 -3.067098,-0.102266 -0.257889,0.03145 -0.29726,-0.192724 -0.06497,-0.35399 1.502052,-1.056071 3.966755,-0.751245 4.254172,-0.397256 0.287417,0.355957 -0.07481,2.824052 -1.486303,4.002053 -0.216547,0.180925 -0.423251,0.08456 -0.326788,-0.155361 0.316945,-0.790581 1.027615,-2.562492 0.690983,-2.99318" />
    <path
       sodipodi:nodetypes="scsscscccssccscsccccscsscccc"
       inkscape:connector-curvature="0"
       id="path7-5"
       d="m 25.906976,25.446643 c 0,1.256848 0.02997,2.304553 -0.604686,3.421205 -0.51258,0.908281 -1.328341,1.465795 -2.234485,1.465795 -1.238194,0 -1.962995,-0.942082 -1.962995,-2.338688 0,-2.746754 2.466685,-3.246113 4.802166,-3.246113 z m 3.255248,7.863521 c -0.214133,0.191235 -0.522618,0.204512 -0.763373,0.07482 -1.072863,-0.890035 -1.264817,-1.301778 -1.850624,-2.149127 -1.771853,1.803333 -3.027253,2.344184 -5.322537,2.344184 -2.718291,0 -4.831849,-1.675271 -4.831849,-5.026477 0,-2.61821 1.419013,-4.398245 3.442519,-5.271186 1.751635,-0.768092 4.198341,-0.907423 6.070569,-1.11718 l 0,-0.41895 c 0,-0.767516 0.0599,-1.675553 -0.392801,-2.338694 -0.392752,-0.593516 -1.147761,-0.837606 -1.811763,-0.837606 -1.231264,0 -2.326304,0.630093 -2.59483,1.936311 -0.0563,0.290983 -0.26824,0.578239 -0.561382,0.593276 l -3.128776,-0.338631 c -0.264034,-0.05926 -0.558084,-0.271311 -0.481512,-0.67417 0.718683,-3.792261 4.147006,-4.938088 7.21919,-4.938088 1.570482,0 3.624149,0.418944 4.862391,1.605794 1.570481,1.466366 1.419584,3.421205 1.419584,5.550707 l 0,5.024281 c 0,1.511248 0.627964,2.174624 1.218216,2.989794 0.206341,0.292602 0.252944,0.641744 -0.01,0.85566 -0.659605,0.552503 -1.831791,1.569455 -2.476435,2.142491 z"
       style="display:inline;fill:#010101;fill-rule:evenodd" />
    <path
       d="m 33.693878,34.883735 c -2.628096,1.935146 -6.437361,2.967616 -9.717069,2.967616 -4.598677,0 -8.738668,-1.699149 -11.87073,-4.525166 -0.246076,-0.22223 -0.02559,-0.52509 0.2697,-0.352024 3.380106,1.964641 7.559471,3.146576 11.876638,3.146576 2.911575,0 6.114507,-0.601783 9.059551,-1.85058 0.444906,-0.188799 0.816974,0.291058 0.38191,0.613578"
       id="path8-9"
       style="fill:#ff9900;fill-opacity:1;fill-rule:evenodd;stroke:none"
       inkscape:connector-curvature="0" />
    <path
       d="m 34.786459,33.634942 c -0.334666,-0.428721 -2.220594,-0.202564 -3.067098,-0.102265 -0.257889,0.03145 -0.29726,-0.192725 -0.06497,-0.353991 1.502052,-1.05607 3.966755,-0.751245 4.254172,-0.397255 0.287417,0.355956 -0.07481,2.824051 -1.486303,4.002053 -0.216547,0.180924 -0.423251,0.08456 -0.326788,-0.155362 0.316945,-0.790581 1.027615,-2.562492 0.690983,-2.99318"
       id="path10-3"
       style="fill:#ff9900;fill-opacity:1;fill-rule:evenodd;stroke:none"
       inkscape:connector-curvature="0" />
  </g>
</svg>
