<?xml version="1.0" encoding="UTF-8" standalone="no"?>
<!-- Created with Inkscape (http://www.inkscape.org/) -->
<svg id="svg4951" xmlns:rdf="http://www.w3.org/1999/02/22-rdf-syntax-ns#" xmlns="http://www.w3.org/2000/svg" height="48" width="48" version="1.1" xmlns:cc="http://creativecommons.org/ns#" xmlns:xlink="http://www.w3.org/1999/xlink" xmlns:dc="http://purl.org/dc/elements/1.1/">
 <defs id="defs4953">
  <radialGradient id="radialGradient3302" gradientUnits="userSpaceOnUse" cy="186.17" cx="99.157" gradientTransform="matrix(.27083 0 0 .087623 -2.8551 25.187)" r="62.769">
   <stop id="stop3822-2-6-3" stop-color="#3d3d3d" offset="0"/>
   <stop id="stop3864-8-7-7" stop-color="#686868" stop-opacity=".49804" offset=".5"/>
   <stop id="stop3824-1-2-5" stop-color="#686868" stop-opacity="0" offset="1"/>
  </radialGradient>
  <radialGradient id="radialGradient4448" gradientUnits="userSpaceOnUse" cy="-17.681" cx="14.892" gradientTransform="matrix(-1.4387 3.8089e-8 -2.8328e-8 -1.07 45.169 -14.596)" r="25.571">
   <stop id="stop3750-1-0-7-6-6-1-3-9-3" stop-color="#5f5f5f" offset="0"/>
   <stop id="stop3752-3-7-4-0-32-8-923-0-7" stop-color="#515151" offset=".26238"/>
   <stop id="stop3754-1-8-5-2-7-6-7-1-9" stop-color="#404040" offset=".70495"/>
   <stop id="stop3756-1-6-2-6-6-1-96-6-0" stop-color="#343434" offset="1"/>
  </radialGradient>
  <linearGradient id="linearGradient4450" y2="32.568" gradientUnits="userSpaceOnUse" x2="15.124" gradientTransform="matrix(.76418 0 0 .76418 12.377 18.778)" y1="-18.801" x1="15.124">
   <stop id="stop4413" stop-color="#fff" offset="0"/>
   <stop id="stop4415" stop-color="#fff" stop-opacity="0" offset="1"/>
  </linearGradient>
  <radialGradient id="radialGradient4455" gradientUnits="userSpaceOnUse" cy="-17.681" cx="14.892" gradientTransform="matrix(-1.0514 2.7835e-8 -2.0702e-8 -.78192 39.47 -4.2053)" r="25.571">
   <stop id="stop3767" stop-color="#fff" offset="0"/>
   <stop id="stop3769" stop-color="#e4e4e4" offset="1"/>
  </radialGradient>
 </defs>
 <metadata id="metadata4956">
  <rdf:RDF>
   <cc:Work rdf:about="">
    <dc:format>image/svg+xml</dc:format>
    <dc:type rdf:resource="http://purl.org/dc/dcmitype/StillImage"/>
    <dc:title/>
   </cc:Work>
  </rdf:RDF>
 </metadata>
 <path id="path3818-0-5" d="m41 41.5a17 5.5 0 0 1 -34 0 17 5.5 0 1 1 34 0z" fill="url(#radialGradient3302)"/>
 <circle id="path2985-6" cy="24" cx="24" r="20.526" fill="url(#radialGradient4448)"/>
 <circle id="path3755-9" opacity=".6" stroke-width=".94845" stroke="#242424" cy="24" cx="24" r="20.526" fill="none"/>
 <circle id="path3773-9" opacity=".6" stroke-width=".93261" stroke-opacity=".58824" stroke="url(#linearGradient4450)" cy="24" cx="24" r="19.54" fill="none"/>
 <path id="path4453" fill="url(#radialGradient4455)" d="m24 9a15 15 0 0 0 -15 15 15 15 0 0 0 15 15 15 15 0 0 0 15 -15 15 15 0 0 0 -15 -15zm0.76562 8.0605c3.7039 0.12264 5.8951 2.3141 6.1367 5.5098 0.27235 3.6023-0.93909 4.5398-0.41992 5.2637 1.0841 1.5116-0.45158 1.9079-1.4707 2.6465-0.63389 0.4594-1.8579 0.24951-2.4648-0.4043-1.8444-0.93339-1.1342 0.85949-4.9434 0.86719-1.9802-0.07093-3.7958-1.3218-4.3086-3.0078-0.78645-2.5857 0.36816-4.4939 3.5801-5.3945 0.929-0.2605 2.7695-0.10441 3.5801-0.62305 0.76551-0.48985 0.49079-1.1934-0.44922-1.2852-1.3482-0.13163-3.4513 0.40353-4.6953 0.1875-0.99856-0.17336-1.304-1.8429-0.65234-2.5605 1.0664-1.1745 3.8024-1.1229 5.3477-1.1855 0.26023-0.01058 0.51286-0.02167 0.75977-0.01367zm-0.49609 7.7207c-0.8579 0-1.5645 0.5622-1.5645 1.2598 0 0.69757 0.70655 1.2734 1.5645 1.2734 0.85789 0 1.5332-0.57587 1.5332-1.2734 0-0.69756-0.67531-1.2598-1.5332-1.2598z"/>
 <path id="path4451" opacity=".15" d="m24.766 17.06c-0.2469-0.008-0.49953 0.0031-0.75976 0.01367-1.5453 0.06261-4.2813 0.01106-5.3477 1.1855-0.65162 0.71769-0.34622 2.3872 0.65234 2.5605 1.244 0.21603 3.3471-0.31913 4.6953-0.1875 0.94001 0.09177 1.2147 0.79531 0.44922 1.2852-0.81054 0.51864-2.6511 0.36255-3.5801 0.62305-3.2119 0.90059-4.3665 2.8089-3.5801 5.3945 0.51281 1.686 2.3284 2.9369 4.3086 3.0078 3.8091-0.0077 3.099-1.8006 4.9434-0.86719 0.60699 0.65381 1.831 0.8637 2.4648 0.4043 1.0191-0.73859 2.5548-1.1349 1.4707-2.6465-0.51916-0.72389 0.69228-1.6614 0.41992-5.2637-0.24161-3.1956-2.4328-5.3871-6.1367-5.5098zm-0.0332 1c1.6616 0.05501 2.8785 0.55712 3.7207 1.3359 0.8422 0.77882 1.3462 1.8617 1.4512 3.25 0.12728 1.6835-0.08062 2.6553-0.27148 3.3809-0.09543 0.36276-0.20006 0.66106-0.25586 1.0391-0.0558 0.378-0.0037 0.9359 0.29297 1.3496 0.14535 0.20267 0.16748 0.28371 0.17383 0.31055-0.0066 0.0058-0.0019-0.000257-0.01953 0.01758-0.15239 0.15424-0.7664 0.46631-1.4004 0.92578-0.01072 0.0078-0.22301 0.08356-0.49024 0.03906-0.26722-0.04449-0.54253-0.19211-0.6543-0.3125a1.0001 1.0001 0 0 0 -0.28125 -0.21289c-0.55311-0.27991-1.0849-0.43255-1.6113-0.35547-0.52642 0.07708-0.85688 0.32498-1.1074 0.48242-0.49728 0.31248-0.93589 0.62073-2.6504 0.62891-1.5774-0.06112-3.0161-1.1086-3.377-2.2949-0.33365-1.097-0.24196-1.8558 0.17188-2.4941 0.41383-0.6383 1.2615-1.2374 2.7207-1.6465 0.2492-0.06988 0.94017-0.12046 1.6504-0.18164 0.71022-0.06118 1.4661-0.09342 2.1992-0.5625 0.30579-0.19567 0.57163-0.44908 0.74219-0.79492s0.21119-0.8 0.07227-1.1816c-0.27786-0.76328-1.0004-1.0775-1.707-1.1465-0.85458-0.08344-1.7452 0.03737-2.5879 0.12695-0.84274 0.08958-1.642 0.1402-2.0332 0.07227 0.01681 0.0029-0.07962-0.04305-0.14062-0.3125-0.06101-0.26945 0.04446-0.57623 0.05859-0.5918 0.24216-0.26672 0.97655-0.5629 1.8926-0.69141 0.91602-0.1285 1.9463-0.13329 2.7539-0.16602 0.26238-0.01066 0.49259-0.01999 0.6875-0.01367zm-0.46289 5.7207c-1.2948 0-2.5645 0.88695-2.5645 2.2598s1.259 2.2734 2.5645 2.2734c1.3054 0 2.5332-0.93048 2.5332-2.2734 0-1.343-1.2384-2.2598-2.5332-2.2598zm0 1c0.85789 0 1.5332 0.5622 1.5332 1.2598 0 0.69757-0.67531 1.2734-1.5332 1.2734-0.8579 0-1.5645-0.57587-1.5645-1.2734 0-0.69756 0.70655-1.2598 1.5645-1.2598z"/>
</svg>
