<?xml version="1.0" encoding="UTF-8" standalone="no"?>
<!-- Created with Inkscape (http://www.inkscape.org/) -->
<svg id="svg4951" xmlns:rdf="http://www.w3.org/1999/02/22-rdf-syntax-ns#" xmlns="http://www.w3.org/2000/svg" height="48" width="48" version="1.1" xmlns:cc="http://creativecommons.org/ns#" xmlns:xlink="http://www.w3.org/1999/xlink" xmlns:dc="http://purl.org/dc/elements/1.1/">
 <defs id="defs4953">
  <radialGradient id="radialGradient3302" gradientUnits="userSpaceOnUse" cy="186.17" cx="99.157" gradientTransform="matrix(.27083 0 0 .087623 -2.8551 25.187)" r="62.769">
   <stop id="stop3822-2-6-3" stop-color="#3d3d3d" offset="0"/>
   <stop id="stop3864-8-7-7" stop-color="#686868" stop-opacity=".49804" offset=".5"/>
   <stop id="stop3824-1-2-5" stop-color="#686868" stop-opacity="0" offset="1"/>
  </radialGradient>
  <radialGradient id="radialGradient4448" gradientUnits="userSpaceOnUse" cy="-17.681" cx="14.892" gradientTransform="matrix(-1.4387 3.8089e-8 -2.8328e-8 -1.07 45.169 -14.596)" r="25.571">
   <stop id="stop3750-1-0-7-6-6-1-3-9-3" stop-color="#5f5f5f" offset="0"/>
   <stop id="stop3752-3-7-4-0-32-8-923-0-7" stop-color="#515151" offset=".26238"/>
   <stop id="stop3754-1-8-5-2-7-6-7-1-9" stop-color="#404040" offset=".70495"/>
   <stop id="stop3756-1-6-2-6-6-1-96-6-0" stop-color="#343434" offset="1"/>
  </radialGradient>
  <linearGradient id="linearGradient4450" y2="32.568" gradientUnits="userSpaceOnUse" x2="15.124" gradientTransform="matrix(.76418 0 0 .76418 12.377 18.778)" y1="-18.801" x1="15.124">
   <stop id="stop4413" stop-color="#fff" offset="0"/>
   <stop id="stop4415" stop-color="#fff" stop-opacity="0" offset="1"/>
  </linearGradient>
 </defs>
 <metadata id="metadata4956">
  <rdf:RDF>
   <cc:Work rdf:about="">
    <dc:format>image/svg+xml</dc:format>
    <dc:type rdf:resource="http://purl.org/dc/dcmitype/StillImage"/>
    <dc:title/>
   </cc:Work>
  </rdf:RDF>
 </metadata>
 <path id="path3818-0-5" d="m41 41.5a17 5.5 0 0 1 -34 0 17 5.5 0 1 1 34 0z" fill="url(#radialGradient3302)"/>
 <circle id="path2985-6" cy="24" cx="24" r="20.526" fill="url(#radialGradient4448)"/>
 <circle id="path3755-9" opacity=".6" stroke-width=".94845" stroke="#242424" cy="24" cx="24" r="20.526" fill="none"/>
 <circle id="path3773-9" opacity=".6" stroke-width=".93261" stroke-opacity=".58824" stroke="url(#linearGradient4450)" cy="24" cx="24" r="19.54" fill="none"/>
 <path id="path4415" opacity=".3" d="m13 14v22h22v-22h-1v1h-2v-1h-16v1h-2v-1h-1zm5 3h12v7h-12v-7zm-4 1h2v2h-2v-2zm18 0h2v2h-2v-2zm-18 5h2v2h-2v-2zm18 0h2v2h-2v-2zm-14 4h12v7h-12v-7zm-4 1h2v2h-2v-2zm18 0h2v2h-2v-2zm-18 5h2v2h-2v-2zm18 0h2v2h-2v-2z"/>
 <path id="path4417" stroke-linejoin="round" opacity=".15" d="m13 13v22h22v-22h-1v1h-2v-1h-16v1h-2v-1h-1zm5 3h12v7h-12v-7zm-4 1h2v2h-2v-2zm18 0h2v2h-2v-2zm-18 5h2v2h-2v-2zm18 0h2v2h-2v-2zm-14 4h12v7h-12v-7zm-4 1h2v2h-2v-2zm18 0h2v2h-2v-2zm-18 5h2v2h-2v-2zm18 0h2v2h-2v-2z" stroke="#000" stroke-linecap="round" stroke-width="2" fill="none"/>
 <path id="path3" fill="#d1d1d1" d="m13 13v22h22v-22h-1v1h-2v-1h-16v1h-2v-1h-1zm5 3h12v7h-12v-7zm-4 1h2v2h-2v-2zm18 0h2v2h-2v-2zm-18 5h2v2h-2v-2zm18 0h2v2h-2v-2zm-14 4h12v7h-12v-7zm-4 1h2v2h-2v-2zm18 0h2v2h-2v-2zm-18 5h2v2h-2v-2zm18 0h2v2h-2v-2z"/>
</svg>
