<?xml version="1.0" encoding="UTF-8" standalone="no"?>
<!-- Created with Inkscape (http://www.inkscape.org/) -->
<svg id="svg4951" xmlns:rdf="http://www.w3.org/1999/02/22-rdf-syntax-ns#" xmlns="http://www.w3.org/2000/svg" height="48" width="48" version="1.1" xmlns:cc="http://creativecommons.org/ns#" xmlns:xlink="http://www.w3.org/1999/xlink" xmlns:dc="http://purl.org/dc/elements/1.1/">
 <defs id="defs4953">
  <radialGradient id="radialGradient3302" gradientUnits="userSpaceOnUse" cx="99.157" cy="186.17" r="62.769" gradientTransform="matrix(.27083 0 0 .087623 -2.8551 25.187)">
   <stop id="stop3822-2-6-3" stop-color="#3d3d3d" offset="0"/>
   <stop id="stop3864-8-7-7" stop-color="#686868" stop-opacity=".49804" offset=".5"/>
   <stop id="stop3824-1-2-5" stop-color="#686868" stop-opacity="0" offset="1"/>
  </radialGradient>
  <radialGradient id="radialGradient4569" gradientUnits="userSpaceOnUse" cy="-17.681" cx="14.892" gradientTransform="matrix(-1.4387 3.8089e-8 -2.8328e-8 -1.07 45.169 -14.596)" r="25.571">
   <stop id="stop3750-1-0-7-6-6-1-3-9-3" stop-color="#5f5f5f" offset="0"/>
   <stop id="stop3752-3-7-4-0-32-8-923-0-7" stop-color="#515151" offset=".26238"/>
   <stop id="stop3754-1-8-5-2-7-6-7-1-9" stop-color="#404040" offset=".70495"/>
   <stop id="stop3756-1-6-2-6-6-1-96-6-0" stop-color="#343434" offset="1"/>
  </radialGradient>
  <linearGradient id="linearGradient4578" y2="-.20567" gradientUnits="userSpaceOnUse" x2="2.5518" y1="22.777" x1="24.34">
   <stop id="stop4574" stop-color="#fff" offset="0"/>
   <stop id="stop4576" stop-color="#fff" stop-opacity="0" offset="1"/>
  </linearGradient>
 </defs>
 <metadata id="metadata4956">
  <rdf:RDF>
   <cc:Work rdf:about="">
    <dc:format>image/svg+xml</dc:format>
    <dc:type rdf:resource="http://purl.org/dc/dcmitype/StillImage"/>
    <dc:title/>
   </cc:Work>
  </rdf:RDF>
 </metadata>
 <g id="g4580">
  <path id="path3818-0-5" d="m41 41.5a17 5.5 0 0 1 -34 0 17 5.5 0 1 1 34 0z" fill="url(#radialGradient3302)"/>
  <circle id="circle4567" cy="24" cx="24" r="20.526" fill="url(#radialGradient4569)"/>
  <path id="circle7056" fill="url(#linearGradient4578)" d="m19.18 4.0723a20.526 20.526 0 0 0 -14.25 12.385c-0.0234 0.656 0 1.319 0.0895 1.986 0.9949 7.422 8.5935 13.192 17.162 10.248 9.205-3.161 11.319-13.261 6.066-19.851-2.313-2.9028-5.659-4.4697-9.068-4.7677zm0.765 3.1347c0.6-0.0391 1.194 0.0377 1.787 0.2305 1.247 0.4097 2.354 1.2958 3.332 2.7205 1.062 1.547 1.508 3.03 1.262 4.397-0.256 1.424-1.2 2.473-2.806 3.093-1.137 0.439-2.252 0.479-3.323 0.137-1.032-0.322-1.9-0.959-2.601-1.887 0.223 1.281 0.072 2.452-0.471 3.483-0.553 1.065-1.439 1.838-2.641 2.299-1.801 0.691-3.317 0.591-4.5192-0.262-1.1358-0.799-1.8793-2.192-2.2519-4.088-0.344-1.75-0.2147-3.169 0.3535-4.324 0.551-1.112 1.5001-1.95 2.8766-2.551 0.917-0.4 1.784-0.5102 2.612-0.324 0.853 0.192 1.589 0.679 2.213 1.486-0.124-0.905 0.026-1.6937 0.441-2.3807 0.411-0.6695 1.048-1.1894 1.918-1.5683 0.614-0.2673 1.218-0.4218 1.818-0.461zm0.121 1.9571c-0.391 0.0313-0.797 0.1364-1.214 0.3144-0.829 0.3536-1.365 0.8495-1.616 1.4945-0.252 0.664-0.185 1.433 0.219 2.33 0.419 0.93 1.018 1.582 1.795 1.931 0.805 0.369 1.696 0.366 2.662-0.019 0.974-0.388 1.573-0.984 1.781-1.77 0.209-0.761 0.021-1.6-0.539-2.498-0.539-0.865-1.188-1.4079-1.949-1.654-0.368-0.1167-0.747-0.1603-1.139-0.1289zm-7.265 2.7659c-0.406 0.026-0.834 0.136-1.287 0.33-0.901 0.385-1.5317 0.944-1.9066 1.691-0.3812 0.77-0.4586 1.656-0.2148 2.684 0.2555 1.077 0.7514 1.85 1.4944 2.287 0.775 0.449 1.693 0.473 2.744 0.057 1.068-0.424 1.793-1.104 2.152-2.02 0.354-0.887 0.308-1.868-0.113-2.918-0.398-0.994-0.972-1.631-1.719-1.936-0.361-0.144-0.744-0.201-1.15-0.175z"/>
  <circle id="path3755-9" opacity=".6" stroke-width=".94845" stroke="#242424" cy="24" cx="24" r="20.526" fill="none"/>
 </g>
</svg>
