<?xml version="1.0" encoding="UTF-8" standalone="no"?>
<!-- Created with Inkscape (http://www.inkscape.org/) -->
<svg id="svg4951" xmlns:rdf="http://www.w3.org/1999/02/22-rdf-syntax-ns#" xmlns="http://www.w3.org/2000/svg" height="48px" width="48px" version="1.1" xmlns:cc="http://creativecommons.org/ns#" xmlns:xlink="http://www.w3.org/1999/xlink" xmlns:dc="http://purl.org/dc/elements/1.1/">
 <defs id="defs4953">
  <linearGradient id="linearGradient3189" y2="40.496" gradientUnits="userSpaceOnUse" x2="71.204" gradientTransform="matrix(1.617 0 0 1.617 -92.707 -21.06)" y1="15.369" x1="71.204">
   <stop id="stop4808-4" stop-color="#fff" offset="0"/>
   <stop id="stop4810-0" stop-color="#fff" stop-opacity=".23529" offset=".42448"/>
   <stop id="stop4812-8" stop-color="#fff" stop-opacity=".15686" offset=".82090"/>
   <stop id="stop4814-0" stop-color="#fff" stop-opacity=".39216" offset="1"/>
  </linearGradient>
  <radialGradient id="radialGradient3192" gradientUnits="userSpaceOnUse" cy="3.99" cx="23.896" gradientTransform="matrix(0 2.8885 -3.8128 0 39.213 -65.95)" r="20.397">
   <stop id="stop4369" stop-color="#ffbe44" offset="0"/>
   <stop id="stop4371" stop-color="#c67a00" offset=".66094"/>
   <stop id="stop4373" stop-color="#cb7d00" offset="1"/>
  </radialGradient>
  <radialGradient id="radialGradient3195" gradientUnits="userSpaceOnUse" cy="186.17" cx="99.157" gradientTransform="matrix(.27083 0 0 .087623 -2.8551 25.187)" r="62.769">
   <stop id="stop3822-2-6-3" stop-color="#3d3d3d" offset="0"/>
   <stop id="stop3864-8-7-7" stop-color="#686868" stop-opacity=".49804" offset=".5"/>
   <stop id="stop3824-1-2-5" stop-color="#686868" stop-opacity="0" offset="1"/>
  </radialGradient>
  <clipPath id="clipPath-775271860">
   <g id="g17" transform="translate(0 -1004.4)">
    <path id="path19" d="m-24 13c0 1.105-0.672 2-1.5 2s-1.5-0.895-1.5-2 0.672-2 1.5-2 1.5 0.895 1.5 2z" transform="matrix(15.333 0 0 11.5 415 878.86)" fill="#1890d0"/>
   </g>
  </clipPath>
 </defs>
 <metadata id="metadata4956">
  <rdf:RDF>
   <cc:Work rdf:about="">
    <dc:format>image/svg+xml</dc:format>
    <dc:type rdf:resource="http://purl.org/dc/dcmitype/StillImage"/>
    <dc:title/>
   </cc:Work>
  </rdf:RDF>
 </metadata>
 <g id="layer1">
  <g id="g4476" transform="matrix(1.9617 0 0 1.9617 -37.823 294.46)"></g>
  <g id="g4431">
   <path id="path3818-0-5" fill="url(#radialGradient3195)" d="m41 41.5a17 5.5 0 0 1 -34 0 17 5.5 0 1 1 34 0z"/>
   <path id="path2555-7-2" style="color:#000000" d="m24 3.5c-11.311 0-20.5 9.1888-20.5 20.5s9.1888 20.5 20.5 20.5 20.5-9.1888 20.5-20.5-9.189-20.5-20.5-20.5z" fill="url(#radialGradient3192)"/>
   <path id="path4176" opacity=".3" stroke-linejoin="round" style="color:#000000" d="m43.5 24c0 10.77-8.73 19.5-19.5 19.5s-19.5-8.73-19.5-19.5 8.73-19.5 19.5-19.5 19.5 8.73 19.5 19.5z" stroke="url(#linearGradient3189)" stroke-linecap="round" fill="none"/>
   <path id="path3871" opacity=".7" style="color:#000000" d="m24 3.5c-11.311 0-20.5 9.189-20.5 20.5s9.189 20.5 20.5 20.5 20.5-9.189 20.5-20.5-9.189-20.5-20.5-20.5z" stroke="#5c3f24" fill="none"/>
   <g id="g47" fill="#2a2a2a" transform="matrix(.99974 0 0 .99988 .0015696 .0029998)">
    <g id="g49" fill="#2a2a2a" clip-path="url(#clipPath-775271860)"><!-- color: #eea53a -->
     <g id="g51" fill="#2a2a2a">
      <path id="path53" d="m29.67 23.108c1.332-0.656 2.5315-1.6911 2.3365-3.6091-0.262-2.621-3.0395-3.2509-6.0045-3.5009v-4h-2v4c-0.605 0-1.387 0.012-2 0.023v-4.02h-2v4c-1.676 0-3.504-0.016-5-0.016v2.02s1.695-0.031 1.668 0c0.93 0 1.246 0.52 1.332 0.969v9.961c-0.039 0.281-0.348 1.066-1 1.066 0.031 0.023-1 0-1 0l-1 2 2.988-0.012c0.559 0 1.473 0.008 2.01 0.012v4h2v-4.02c0.641 0.012 1.406 0.016 2 0.016v4h2v-4c3.863-0.215 7.069-0.80197 7.0067-4.4971-0.062-2.879-1.139-3.888-3.327-4.392m-7.68-4.945c1.305 0 5.355-0.398 5.355 2.211 0 2.5-4.059 2.207-5.355 2.207m0 7.102v-4.871c1.566 0 6.434-0.43 6.434 2.438 0 2.746-4.867 2.434-6.434 2.434" fill="#2a2a2a"/>
     </g>
    </g>
   </g>
  </g>
 </g>
</svg>
