<?xml version="1.0" encoding="UTF-8" standalone="no"?>
<!-- Created with Inkscape (http://www.inkscape.org/) -->
<svg id="svg4951" xmlns:rdf="http://www.w3.org/1999/02/22-rdf-syntax-ns#" xmlns="http://www.w3.org/2000/svg" height="48px" width="48px" version="1.1" xmlns:cc="http://creativecommons.org/ns#" xmlns:xlink="http://www.w3.org/1999/xlink" xmlns:dc="http://purl.org/dc/elements/1.1/">
 <defs id="defs4953">
  <linearGradient id="linearGradient3214" y2="40.496" gradientUnits="userSpaceOnUse" x2="71.204" gradientTransform="matrix(1.617 0 0 1.617 -92.707 -21.06)" y1="15.369" x1="71.204">
   <stop id="stop4808-4" stop-color="#fff" offset="0"/>
   <stop id="stop4810-0" stop-color="#fff" stop-opacity=".23529" offset=".42448"/>
   <stop id="stop4812-8" stop-color="#fff" stop-opacity=".15686" offset=".82090"/>
   <stop id="stop4814-0" stop-color="#fff" stop-opacity=".39216" offset="1"/>
  </linearGradient>
  <radialGradient id="radialGradient3217" gradientUnits="userSpaceOnUse" cy="3.99" cx="23.896" gradientTransform="matrix(0 2.8885 -3.8128 0 39.213 -65.95)" r="20.397">
   <stop id="stop4366" stop-color="#ff6182" offset="0"/>
   <stop id="stop4368" stop-color="#ff557a" offset=".66094"/>
   <stop id="stop4370" stop-color="#c4454e" offset="1"/>
  </radialGradient>
  <radialGradient id="radialGradient3220" gradientUnits="userSpaceOnUse" cy="186.17" cx="99.157" gradientTransform="matrix(.27083 0 0 .087623 -2.8551 25.187)" r="62.769">
   <stop id="stop3822-2-6-3" stop-color="#3d3d3d" offset="0"/>
   <stop id="stop3864-8-7-7" stop-color="#686868" stop-opacity=".49804" offset=".5"/>
   <stop id="stop3824-1-2-5" stop-color="#686868" stop-opacity="0" offset="1"/>
  </radialGradient>
 </defs>
 <metadata id="metadata4956">
  <rdf:RDF>
   <cc:Work rdf:about="">
    <dc:format>image/svg+xml</dc:format>
    <dc:type rdf:resource="http://purl.org/dc/dcmitype/StillImage"/>
    <dc:title/>
   </cc:Work>
  </rdf:RDF>
 </metadata>
 <g id="layer1">
  <path id="path3818-0-5" d="m41 41.5a17 5.5 0 0 1 -34 0 17 5.5 0 1 1 34 0z" fill="url(#radialGradient3220)"/>
  <path id="path2555-7-2" style="color:#000000" d="m24 3.5c-11.311 0-20.5 9.1888-20.5 20.5s9.1888 20.5 20.5 20.5 20.5-9.1888 20.5-20.5-9.189-20.5-20.5-20.5z" fill="url(#radialGradient3217)"/>
  <path id="path4176" opacity=".3" stroke-linejoin="round" style="color:#000000" d="m43.5 24c0 10.77-8.73 19.5-19.5 19.5s-19.5-8.73-19.5-19.5 8.73-19.5 19.5-19.5 19.5 8.73 19.5 19.5z" stroke="url(#linearGradient3214)" stroke-linecap="round" fill="none"/>
  <path id="path3871" opacity=".7" style="color:#000000" d="m24 3.5c-11.311 0-20.5 9.189-20.5 20.5s9.189 20.5 20.5 20.5 20.5-9.189 20.5-20.5-9.189-20.5-20.5-20.5z" stroke="#ff4452" fill="none"/>
  <g id="g4382" opacity=".15" transform="translate(5,1)" stroke="#000" stroke-width="2" fill="none">
   <g id="g4384" stroke-linejoin="round" stroke-linecap="round">
    <circle id="circle4387" opacity="1" cy="18" cx="12" r="2"/>
    <circle id="circle4389" opacity="1" cx="17" cy="18" r="2"/>
    <circle id="circle4391" opacity="1" cy="18" cx="22" r="2"/>
    <circle id="circle4393" opacity="1" cx="27" cy="18" r="2"/>
   </g>
   <g id="g4395" stroke-linejoin="round" transform="translate(0,5)" stroke-linecap="round">
    <circle id="circle4397" opacity="1" cx="12" cy="18" r="2"/>
    <circle id="circle4399" opacity="1" cy="18" cx="17" r="2"/>
    <circle id="circle4401" opacity="1" cx="22" cy="18" r="2"/>
    <circle id="circle4403" opacity="1" cy="18" cx="27" r="2"/>
   </g>
   <g id="g4405" transform="translate(5,5)">
    <circle id="circle4407" opacity="1" stroke-linejoin="round" cx="27" stroke-linecap="round" stroke="#000" cy="18" r="2" stroke-width="2" fill="none"/>
   </g>
   <g id="g4409" transform="translate(-20,5)">
    <circle id="circle4411" opacity="1" stroke-linejoin="round" stroke-width="2" stroke-linecap="round" stroke="#000" cy="18" cx="27" r="2" fill="none"/>
   </g>
   <g id="g4413" transform="translate(-20,10)">
    <circle id="circle4415" opacity="1" stroke-linejoin="round" cx="27" stroke-linecap="round" stroke="#000" cy="18" r="2" stroke-width="2" fill="none"/>
   </g>
   <g id="g4417" transform="translate(-15,10)">
    <circle id="circle4419" opacity="1" stroke-linejoin="round" stroke-width="2" stroke-linecap="round" stroke="#000" cy="18" cx="27" r="2" fill="none"/>
   </g>
   <g id="g4421" transform="translate(5,10)">
    <circle id="circle4423" opacity="1" stroke-linejoin="round" cx="27" stroke-linecap="round" stroke="#000" cy="18" r="2" stroke-width="2" fill="none"/>
   </g>
   <g id="g4425" transform="translate(0,10)">
    <circle id="circle4427" opacity="1" stroke-linejoin="round" stroke-width="2" stroke-linecap="round" stroke="#000" cy="18" cx="27" r="2" fill="none"/>
   </g>
  </g>
  <g id="g4429" opacity=".15" transform="translate(5,1)" stroke="#000" fill="none">
   <g id="g4431" stroke-linejoin="round" stroke-linecap="round">
    <circle id="circle4433" opacity="1" cx="12" cy="18" r="2"/>
    <circle id="circle4435" opacity="1" cy="18" cx="17" r="2"/>
    <circle id="circle4437" opacity="1" cx="22" cy="18" r="2"/>
    <circle id="circle4439" opacity="1" cy="18" cx="27" r="2"/>
   </g>
   <g id="g4441" stroke-linejoin="round" transform="translate(0,5)" stroke-linecap="round">
    <circle id="circle4443" opacity="1" cy="18" cx="12" r="2"/>
    <circle id="circle4445" opacity="1" cx="17" cy="18" r="2"/>
    <circle id="circle4447" opacity="1" cy="18" cx="22" r="2"/>
    <circle id="circle4449" opacity="1" cx="27" cy="18" r="2"/>
   </g>
   <g id="g4451" transform="translate(5,5)">
    <circle id="circle4453" opacity="1" stroke-linejoin="round" stroke-linecap="round" stroke="#000" cy="18" cx="27" r="2" fill="none"/>
   </g>
   <g id="g4455" transform="translate(-20,5)">
    <circle id="circle4457" opacity="1" stroke-linejoin="round" cx="27" stroke-linecap="round" stroke="#000" cy="18" r="2" fill="none"/>
   </g>
   <g id="g4459" transform="translate(-20,10)">
    <circle id="circle4461" opacity="1" stroke-linejoin="round" stroke-linecap="round" stroke="#000" cy="18" cx="27" r="2" fill="none"/>
   </g>
   <g id="g4463" transform="translate(-15,10)">
    <circle id="circle4465" opacity="1" stroke-linejoin="round" cx="27" stroke-linecap="round" stroke="#000" cy="18" r="2" fill="none"/>
   </g>
   <g id="g4467" transform="translate(5,10)">
    <circle id="circle4469" opacity="1" stroke-linejoin="round" stroke-linecap="round" stroke="#000" cy="18" cx="27" r="2" fill="none"/>
   </g>
   <g id="g4471" transform="translate(0,10)">
    <circle id="circle4473" opacity="1" stroke-linejoin="round" cx="27" stroke-linecap="round" stroke="#000" cy="18" r="2" fill="none"/>
   </g>
  </g>
  <g id="g4420" transform="translate(5,1)">
   <g id="g4372" fill="#fff">
    <circle id="path4364" cx="12" cy="18" r="2"/>
    <circle id="circle4366" cy="18" cx="17" r="2"/>
    <circle id="circle4368" cx="22" cy="18" r="2"/>
    <circle id="circle4370" cy="18" cx="27" r="2"/>
   </g>
   <g id="g4378" fill="#fff" transform="translate(0,5)">
    <circle id="circle4380" cy="18" cx="12" r="2"/>
    <circle id="circle4382" cx="17" cy="18" r="2"/>
    <circle id="circle4384" cy="18" cx="22" r="2"/>
    <circle id="circle4386" cx="27" cy="18" r="2"/>
   </g>
   <g id="g4388" transform="translate(5,5)">
    <circle id="circle4396" cy="18" cx="27" r="2" fill="#fff"/>
   </g>
   <g id="g4400" transform="translate(-20,5)">
    <circle id="circle4402" cx="27" cy="18" r="2" fill="#fff"/>
   </g>
   <g id="g4404" transform="translate(-20,10)">
    <circle id="circle4406" cy="18" cx="27" r="2" fill="#fff"/>
   </g>
   <g id="g4408" transform="translate(-15,10)">
    <circle id="circle4410" cx="27" cy="18" r="2" fill="#fff"/>
   </g>
   <g id="g4412" transform="translate(5,10)">
    <circle id="circle4414" cy="18" cx="27" r="2" fill="#fff"/>
   </g>
   <g id="g4416" transform="translate(0,10)">
    <circle id="circle4418" cx="27" cy="18" r="2" fill="#fff"/>
   </g>
  </g>
 </g>
</svg>
