<?xml version="1.0" encoding="UTF-8" standalone="no"?>
<!-- Created with Inkscape (http://www.inkscape.org/) -->
<svg id="svg4951" xmlns:rdf="http://www.w3.org/1999/02/22-rdf-syntax-ns#" xmlns="http://www.w3.org/2000/svg" height="48" width="48" version="1.1" xmlns:cc="http://creativecommons.org/ns#" xmlns:xlink="http://www.w3.org/1999/xlink" xmlns:dc="http://purl.org/dc/elements/1.1/">
 <defs id="defs4953">
  <radialGradient id="radialGradient3302" gradientUnits="userSpaceOnUse" cy="186.17" cx="99.157" gradientTransform="matrix(.27083 0 0 .087623 -2.8551 25.187)" r="62.769">
   <stop id="stop3822-2-6-3" stop-color="#3d3d3d" offset="0"/>
   <stop id="stop3864-8-7-7" stop-color="#686868" stop-opacity=".49804" offset=".5"/>
   <stop id="stop3824-1-2-5" stop-color="#686868" stop-opacity="0" offset="1"/>
  </radialGradient>
  <radialGradient id="radialGradient4448" gradientUnits="userSpaceOnUse" cy="-17.681" cx="14.892" gradientTransform="matrix(-1.4387 3.8089e-8 -2.8328e-8 -1.07 45.428 -14.509)" r="25.571">
   <stop id="stop3750-1-0-7-6-6-1-3-9-3" stop-color="#5f5f5f" offset="0"/>
   <stop id="stop3752-3-7-4-0-32-8-923-0-7" stop-color="#515151" offset=".26238"/>
   <stop id="stop3754-1-8-5-2-7-6-7-1-9" stop-color="#404040" offset=".70495"/>
   <stop id="stop3756-1-6-2-6-6-1-96-6-0" stop-color="#343434" offset="1"/>
  </radialGradient>
  <linearGradient id="linearGradient4450" y2="32.568" gradientUnits="userSpaceOnUse" x2="15.124" gradientTransform="matrix(.76418 0 0 .76418 12.377 18.778)" y1="-18.801" x1="15.124">
   <stop id="stop4413" stop-color="#fff" offset="0"/>
   <stop id="stop4415" stop-color="#fff" stop-opacity="0" offset="1"/>
  </linearGradient>
  <radialGradient id="radialGradient4452" gradientUnits="userSpaceOnUse" cy="20.007" cx="31.841" gradientTransform="matrix(-7.534e-8 1.1087 -1.6023 -1.0889e-7 57.172 -13.809)" r="5.9927">
   <stop id="stop4236" stop-color="#8badea" offset="0"/>
   <stop id="stop4238" stop-color="#6396cd" offset=".26238"/>
   <stop id="stop4240" stop-color="#3b7caf" offset=".66094"/>
   <stop id="stop4242" stop-color="#194c70" offset="1"/>
  </radialGradient>
  <linearGradient id="linearGradient4454" y2="20.042" gradientUnits="userSpaceOnUse" x2="29.329" gradientTransform="matrix(.57826 0 0 .56936 6.7027 9.8717)" y1="29.778" x1="29.329">
   <stop id="stop4254" stop-color="#1f4b6a" offset="0"/>
   <stop id="stop4256" stop-color="#4083c2" offset="1"/>
  </linearGradient>
  <linearGradient id="linearGradient4456" y2="37.642" gradientUnits="userSpaceOnUse" x2="166.49" gradientTransform="matrix(.45116 0 0 .45005 -49.516 9.4127)" y1="28.058" x1="166.49">
   <stop id="stop4370" stop-color="#fff" offset="0"/>
   <stop id="stop4372" stop-color="#fff" stop-opacity="0" offset="1"/>
  </linearGradient>
 </defs>
 <metadata id="metadata4956">
  <rdf:RDF>
   <cc:Work rdf:about="">
    <dc:format>image/svg+xml</dc:format>
    <dc:type rdf:resource="http://purl.org/dc/dcmitype/StillImage"/>
    <dc:title/>
   </cc:Work>
  </rdf:RDF>
 </metadata>
 <g id="g4420">
  <path id="path3818-0-5" fill="url(#radialGradient3302)" d="m41 41.5a17 5.5 0 0 1 -34 0 17 5.5 0 1 1 34 0z"/>
  <circle id="path3755-9" opacity=".6" cx="24" stroke="#242424" cy="24" r="20.526" stroke-width=".94845" fill="none"/>
  <circle id="path2985-6" cx="24" cy="24" r="20.5" fill="url(#radialGradient4448)"/>
  <circle id="path3773-9" opacity=".6" stroke-width=".99996" stroke-opacity=".58824" stroke="url(#linearGradient4450)" cy="24" cx="24" r="19.5" fill="none"/>
  <path id="path4428" opacity=".15" style="color-rendering:auto;text-decoration-color:#000000;color:#000000;isolation:auto;mix-blend-mode:normal;shape-rendering:auto;solid-color:#000000;block-progression:tb;text-decoration-line:none;text-decoration-style:solid;image-rendering:auto;white-space:normal;text-indent:0;text-transform:none" d="m24.691 12.5c-0.4637 0.000714-0.93172 0.14896-1.322 0.4333-0.39182 0.28484-0.64913 0.69294-0.68151 1.1379-0.03238 0.44495 0.17294 0.89148 0.53505 1.2023a0.49995 0.49971 0 0 0 0.0078 0.0059c0.7611 0.62555 1.5586 1.3775 2.3531 2.0982l-8.9924-0.0059c-0.6681 0-1.2475 0.16648-1.6872 0.4938-0.43965 0.32732-0.72077 0.81217-0.81234 1.3467-0.18108 1.0571 0.6281 2.2582 1.9488 2.2582 1.2385 0.0017 2.4853-0.0028 3.7297-0.0059l-8.1351 6.0993a0.49995 0.49971 0 0 0 -0.01172 0.0098c0.0045-0.0036-0.0067 0.0048-0.03515 0.02732a0.49995 0.49971 0 0 0 -0.002 0c-1.0493 0.83785-1.4518 2.2913-0.69713 3.2985 0.38358 0.51159 0.99026 0.76442 1.6012 0.7651 0.61099 0.000684 1.2413-0.232 1.7711-0.67727a0.49995 0.49971 0 0 0 0.002 -0.002l4.2316-3.6069c0.02516 0.43952 0.11009 1.0105 0.26948 1.5419 0.36184 1.201 0.97679 2.3173 1.8278 3.2946 0.87247 1.0023 1.9474 1.8103 3.1849 2.3812 1.302 0.5998 2.7138 0.90608 4.173 0.90368 1.4591-0.0033 2.8718-0.31524 4.173-0.91929 1.2362-0.57611 2.3111-1.386 3.183-2.3909a0.49995 0.49971 0 0 0 0.002 0c0.84865-0.98076 1.4602-2.0973 1.8219-3.2985 0.1832-0.60822 0.29811-1.2247 0.34564-1.8444a0.49995 0.49971 0 0 0 0 -0.002c0.0457-0.60965 0.02665-1.2218-0.05663-1.8308-0.16171-1.1887-0.55912-2.3078-1.1658-3.3239-0.52423-0.87865-1.2154-1.6318-1.9996-2.2914-0.000379-0.00032 0.00038-0.0016 0-0.002a0.49995 0.49971 0 0 0 -0.12302 -0.14443l-8.1078-6.4819-0.01172-0.0098c-0.0015-0.0016-0.01188-0.0097-0.02148-0.01757-0.000503-0.000401-0.0014 0.000401-0.002 0-0.37338-0.29701-0.83293-0.44377-1.2966-0.44306zm0.67565 1.2238a0.49995 0.49971 0 0 0 0.0078 0.0078 0.49995 0.49971 0 0 0 0.01172 0.0098l8.0883 6.4663 0.0039 0.002a0.49995 0.49971 0 0 0 0.02344 0.02342c0.76011 0.61395 1.3972 1.3407 1.8922 2.1704 0.53992 0.90432 0.8894 1.8896 1.033 2.9452 0.07395 0.54068 0.09115 1.0832 0.05077 1.6219-0.04218 0.54834-0.14245 1.0933-0.30463 1.6317-0.32122 1.0669-0.86346 2.0561-1.6227 2.9335-0.77964 0.89829-1.737 1.6209-2.8491 2.1392-1.1701 0.54319-2.4346 0.82266-3.7532 0.82561-1.3185 0.0022-2.5828-0.27276-3.7532-0.81194-1.1121-0.51301-2.0686-1.2328-2.8491-2.1294-0.76057-0.87352-1.3036-1.8598-1.6247-2.9257-0.1454-0.48478-0.25128-1.1779-0.25581-1.4385-0.000009-0.000611 0.000008-0.0013 0-0.002-0.0037-0.27516 0.06444-0.86855 0.06444-0.86855a0.49995 0.49971 0 0 0 -0.819 -0.441l-5.0947 4.3408c-0.36038 0.302-0.77266 0.4415-1.1228 0.4411-0.3509-0.000393-0.62452-0.1249-0.80453-0.36498-0.35296-0.47106-0.18581-1.3524 0.52334-1.9186-0.002 0.0016 0.01214-0.0089 0.02344-0.01757l0.01172-0.0098 9.3263-6.9913a0.49995 0.49971 0 0 0 -0.3 -0.901c-1.7428 0.0035-3.4952 0.0102-5.2294 0.0078a0.49995 0.49971 0 0 0 -0.002 0c-0.71335 0-1.0377-0.65114-0.9627-1.0891 0.05354-0.31258 0.18976-0.54015 0.42374-0.71435 0.2336-0.17392 0.58589-0.29626 1.0877-0.29667l10.307 0.0059a0.49995 0.49971 0 0 0 0.31634 -0.88611c-1.0856-0.88732-2.1941-2.0323-3.3391-2.9745v-0.002c-0.16241-0.14013-0.19762-0.25816-0.18942-0.37084 0.0082-0.11315 0.07176-0.2555 0.27338-0.40207a0.49995 0.49971 0 0 0 0 -0.002c0.38956-0.28432 1.0897-0.27083 1.4099-0.01562z" fill-rule="evenodd"/>
  <path id="path4426" opacity=".15" style="color-rendering:auto;text-decoration-color:#000000;color:#000000;isolation:auto;mix-blend-mode:normal;shape-rendering:auto;solid-color:#000000;block-progression:tb;text-decoration-line:none;text-decoration-style:solid;image-rendering:auto;white-space:normal;text-indent:0;text-transform:none" d="m24.696 12c-0.56407 0.000907-1.1305 0.18671-1.6186 0.54231-0.48684 0.35378-0.84198 0.89545-0.88642 1.506-0.04444 0.61052 0.24774 1.2197 0.70875 1.6152a0.99977 0.99888 0 0 0 0.01563 0.01365c0.42578 0.34981 0.91194 0.79633 1.3589 1.2095l-7.6791-0.0039c-0.75048 0-1.4433 0.18936-1.9857 0.59303-0.5424 0.40366-0.89496 1.0168-1.0055 1.662-0.23408 1.366 0.81639 2.8403 2.4406 2.8403 0.74049 0.000999 1.4841-0.0026 2.2278-0.0039l-6.9332 5.1948a0.99977 0.99888 0 0 0 -0.02147 0.01756c0.02108-0.01677 0.0096-0.0082-0.03515 0.02731a0.99977 0.99888 0 0 0 -0.002 0.002c-1.2193 0.97314-1.7423 2.7127-0.78685 3.9873 0.48529 0.64699 1.2604 0.96284 2.0013 0.96366 0.74093 0.00083 1.4789-0.27799 2.0931-0.79395a0.99977 0.99888 0 0 0 0.0039 -0.0059l3.5691-3.0393c0.05088 0.25566 0.0515 0.48345 0.12886 0.74128 0.38214 1.2679 1.033 2.4475 1.929 3.4762 0.91838 1.0547 2.0523 1.9052 3.3524 2.5048 1.3676 0.62977 2.8539 0.95253 4.3833 0.95001 1.5292-0.0034 3.0148-0.33147 4.3814-0.96562a0.99977 0.99888 0 0 0 0.002 0c1.2978-0.60458 2.4307-1.457 3.3485-2.5145a0.99977 0.99888 0 0 0 0 -0.002c0.89322-1.0319 1.5433-2.2104 1.9251-3.4782 0.19359-0.64246 0.31293-1.2959 0.36316-1.9507a0.99977 0.99888 0 0 0 0 -0.002c0.04829-0.64408 0.02719-1.2911-0.06053-1.9332v-0.002c-0.172-1.256-0.591-2.441-1.231-3.511-0.525-0.881-1.229-1.624-2.001-2.295a0.99977 0.99888 0 0 0 -0.238 -0.277l-8.093-6.4667-0.02538-0.02145c-0.0021-0.0022-0.01469-0.01019-0.02343-0.01756-0.000519-0.000414-0.0014 0.000413-0.002 0-0.48001-0.38188-1.0409-0.56662-1.6049-0.56572zm0.35926 2.1263c-0.000674-0.000557 0.0026 0.000492 0.002 0a0.99977 0.99888 0 0 0 0.01952 0.01756l8.0969 6.4706a0.99977 0.99888 0 0 0 0.01757 0.01561c0.71601 0.5781 1.3107 1.259 1.7748 2.0366 0.50647 0.84796 0.83389 1.7679 0.96843 2.7564 0.06927 0.50628 0.08458 1.0126 0.04685 1.5157-0.03947 0.51266-0.13332 1.0219-0.28506 1.5255-0.30079 0.99865-0.80711 1.9216-1.521 2.7466-0.73368 0.84532-1.6321 1.5237-2.6827 2.0132-1.1039 0.51194-2.2943 0.77556-3.5418 0.77834-1.2473 0.0021-2.4378-0.25857-3.5418-0.76664h-0.002c-1.05-0.484-1.948-1.159-2.682-2.002-0.715-0.821-1.222-1.743-1.523-2.74-0.129-0.433-0.231-1.133-0.234-1.302-0.000007-0.000477 0.000006-0.0015 0-0.002-0.0026-0.19815 0.06053-0.79785 0.06053-0.79785a0.99977 0.99888 0 0 0 -1.6401 -0.88368l-5.0901 4.3365c-0.27578 0.23073-0.58229 0.32407-0.80247 0.32382-0.22082-0.000246-0.32594-0.05958-0.40416-0.16386-0.15183-0.20255-0.10309-0.79701 0.43345-1.227l0.002-0.002c-0.0054 0.0044 0.01028-0.0088 0.01172-0.0098l0.02343-0.01756 9.3113-6.9778a0.99977 0.99888 0 0 0 -0.60136 -1.7986c-1.7432 0.0035-3.4945 0.0102-5.2268 0.0078a0.99977 0.99888 0 0 0 -0.002 0c-0.40961 0-0.49253-0.37694-0.47055-0.50524 0.03453-0.20148 0.09926-0.30036 0.23039-0.39795 0.13083-0.09737 0.37003-0.19656 0.7888-0.19703l10.305 0.0059a0.99977 0.99888 0 0 0 0.6326 -1.7713c-1.0419-0.85115-2.1394-1.9815-3.3036-2.9437 0.0086-0.0099-0.01503 0.01713 0.02733-0.01365a0.99977 0.99888 0 0 0 0 -0.002c0.19324-0.14098 0.69224-0.11373 0.80051-0.02926z" fill-rule="evenodd"/>
  <path id="path2482" d="m18.963 27.196c0.0058 0.35278 0.11539 1.0387 0.27668 1.5767 0.34155 1.1342 0.92019 2.1855 1.7261 3.1116 0.8266 0.9501 1.8432 1.7148 3.0183 2.2572 1.2365 0.56988 2.5751 0.86101 3.9643 0.85872 1.3891-0.0031 2.7277-0.29895 3.9636-0.87296 1.1746-0.54768 2.1912-1.3143 3.0172-2.2668 0.80412-0.92975 1.3816-1.9827 1.7232-3.1176 0.17282-0.57403 0.28009-1.1558 0.32491-1.7406 0.04305-0.57461 0.02469-1.1522-0.05394-1.7274-0.15268-1.1229-0.52638-2.1759-1.0998-3.1367-0.52594-0.88194-1.2027-1.6545-2.0069-2.3044l0.0012-0.0012-8.1213-6.4965c-0.0069-0.0059-0.01322-0.01196-0.02073-0.01734-0.53385-0.42572-1.4299-0.42453-2.0154 0.003-0.59356 0.4317-0.64121 1.1068-0.11483 1.5588 1.1157 0.91746 2.227 2.068 3.3489 2.9854l-10.308-0.0071c-1.1715 0-1.8607 0.57988-2.0058 1.4276-0.12808 0.74806 0.43924 1.675 1.4565 1.675 1.7364 0.0024 3.4897-0.0043 5.2323-0.0078l-9.3389 7.0054c-0.01206 0.0096-0.02411 0.01794-0.03617 0.02752-0.87942 0.70251-1.1647 1.8715-0.61077 2.6111 0.5637 0.75219 1.7606 0.7528 2.6514 0.0037l5.0963-4.3446s-0.07347 0.58716-0.06832 0.93934z" fill-rule="evenodd" fill="#dda222"/>
  <g id="g4411" transform="matrix(1.078 0 0 1.1987 1.1384 -2.2369)">
   <ellipse id="path4033" opacity=".15" stroke="#fff957" style="color:#000000" rx="5.4934" ry="4.8396" cy="24.39" cx="24.918" stroke-width="2" fill="none"/>
   <path id="path4035" opacity=".15" d="m21.741 23.966c0.04306-0.77499 0.4275-1.4591 1.0054-1.9434 0.56873-0.47609 1.3324-0.76679 2.1667-0.76679 0.8337 0 1.5974 0.2907 2.166 0.76679 0.57855 0.48431 0.96253 1.1679 1.0061 1.9429 0.04463 0.79759-0.27918 1.5382-0.84671 2.0867-0.57856 0.55878-1.4035 0.90956-2.3254 0.90956-0.92242 0-1.7474-0.35078-2.3259-0.90956-0.56812-0.54851-0.89081-1.2891-0.8462-2.0862z" stroke="#fff957" stroke-width="2" fill="none"/>
   <path id="path4037" opacity="0.06" style="enable-background:new" d="m22.4 23.996c0.0341-0.61258 0.33875-1.1533 0.79668-1.5361 0.45066-0.37632 1.0558-0.6061 1.7168-0.6061 0.66061 0 1.2658 0.22978 1.7163 0.6061 0.45845 0.38282 0.7627 0.92315 0.79722 1.5357 0.03536 0.63045-0.22122 1.2158-0.67093 1.6494-0.45844 0.44168-1.1121 0.71896-1.8426 0.71896-0.73091 0-1.3846-0.27727-1.843-0.71896-0.45017-0.43356-0.70587-1.019-0.67052-1.649z" stroke="#fff957" stroke-width="2" fill="none"/>
   <ellipse id="path39153" style="color:#000000" rx="5.4934" ry="4.8396" cy="24.39" cx="24.918" fill="#fff"/>
   <path id="path2478" d="m21.741 23.966c0.04306-0.77499 0.4275-1.4591 1.0054-1.9434 0.56873-0.47609 1.3324-0.76679 2.1667-0.76679 0.8337 0 1.5974 0.2907 2.166 0.76679 0.57855 0.48431 0.96253 1.1679 1.0061 1.9429 0.04463 0.79759-0.27918 1.5382-0.84671 2.0867-0.57856 0.55878-1.4035 0.90956-2.3254 0.90956-0.92242 0-1.7474-0.35078-2.3259-0.90956-0.56812-0.54851-0.89081-1.2891-0.8462-2.0862z" fill-rule="evenodd" stroke="url(#linearGradient4454)" stroke-width=".57379" fill="url(#radialGradient4452)"/>
   <path id="path2478-3" opacity=".4" style="enable-background:new" d="m22.4 23.996c0.0341-0.61258 0.33875-1.1533 0.79668-1.5361 0.45066-0.37632 1.0558-0.6061 1.7168-0.6061 0.66061 0 1.2658 0.22978 1.7163 0.6061 0.45845 0.38282 0.7627 0.92315 0.79722 1.5357 0.03536 0.63045-0.22122 1.2158-0.67093 1.6494-0.45844 0.44168-1.1121 0.71896-1.8426 0.71896-0.73091 0-1.3846-0.27727-1.843-0.71896-0.45017-0.43356-0.70587-1.019-0.67052-1.649z" stroke="url(#linearGradient4456)" stroke-width=".57379" fill="none"/>
  </g>
  <path id="path4419" opacity=".15" d="m24.688 13c-0.36394 0.000524-0.73459 0.10655-1.0273 0.32031-0.59356 0.4317-0.64162 1.1065-0.11524 1.5586 1.1157 0.91746 2.2277 2.069 3.3496 2.9863l-10.309-0.0078c-1.1715 0-1.8607 0.58001-2.0059 1.4277-0.12808 0.74806 0.43979 1.6758 1.457 1.6758 1.7364 0.0024 3.4899-0.0043 5.2324-0.0078l-9.3398 7.0059c-0.01206 0.0096-0.0231 0.01776-0.03516 0.02734-0.87942 0.70251-1.1653 1.8717-0.61133 2.6113 0.5637 0.75219 1.7595 0.75105 2.6504 0.002l5.0977-4.3438s-0.07351 0.58727-0.06836 0.93945c0.0058 0.35278 0.1141 1.0381 0.27539 1.5762 0.34155 1.1342 0.92063 2.1853 1.7266 3.1113 0.8266 0.9501 1.8425 1.7155 3.0176 2.2578 1.2365 0.56988 2.5757 0.86167 3.9648 0.85938 1.3891-0.0031 2.727-0.29903 3.9629-0.87305 1.1746-0.54768 2.1916-1.315 3.0176-2.2676 0.80412-0.92975 1.3831-1.9823 1.7246-3.1172 0.17282-0.57403 0.2794-1.1555 0.32422-1.7402 0.04305-0.57461 0.02394-1.1533-0.05469-1.7285-0.15268-1.1229-0.5262-2.1758-1.0996-3.1367-0.52594-0.88194-1.2016-1.6548-2.0059-2.3047l-8.1211-6.4961c-0.0069-0.0059-0.01202-0.0122-0.01953-0.01758-0.26692-0.21286-0.62435-0.31888-0.98828-0.31836zm-0.0039 1.0293c0.16264-0.000271 0.31386 0.02778 0.36719 0.07031l0.0078 0.0059c-0.0012-0.000804 0.0064 0.0049 0.0098 0.0078l0.0039 0.002 0.01953 0.01563 7.9473 6.3613 0.14844 0.11914c0.71625 0.57881 1.3111 1.2586 1.7754 2.0371l0.002 0.002c0.50664 0.849 0.83222 1.7681 0.9668 2.7578v0.002c0.06929 0.5069 0.08461 1.0119 0.04687 1.5156-0.03939 0.51394-0.13318 1.0225-0.28516 1.5273-0.30106 1.0004-0.80677 1.9256-1.5215 2.752-0.73333 0.84567-1.6318 1.5237-2.6816 2.0137-1.1047 0.5131-2.2963 0.77846-3.5449 0.78125-1.2484 0.0021-2.4381-0.25836-3.543-0.76758-1.0495-0.4844-1.9491-1.1616-2.6836-2.0059-0.71556-0.82234-1.2207-1.7432-1.5215-2.7422-0.12976-0.43283-0.23134-1.1363-0.23438-1.3047v-0.002c-0.0026-0.19839 0.06055-0.79688 0.06055-0.79688l0.31836-2.5586-7.0527 6.0156c-0.27594 0.23089-0.58255 0.32434-0.8028 0.32409-0.2209-0.000247-0.3241-0.06161-0.40234-0.16602-0.15088-0.20386-0.10409-0.79682 0.43164-1.2266l0.002-0.002c-0.0054 0.0044 0.01028-0.0088 0.01172-0.0098l0.02344-0.01758 11.723-8.793-3.0078 0.0059c-1.7438 0.0035-3.4976 0.01022-5.2305 0.0078-0.40974 0-0.4927-0.3774-0.4707-0.50586 0.03454-0.20173 0.09733-0.30072 0.22852-0.39844 0.13118-0.09771 0.37029-0.19922 0.79102-0.19922l13.113 0.0098-2.1719-1.7773c-1.0422-0.85219-2.142-1.982-3.3066-2.9453 0.0083-0.0097-0.01579 0.01574 0.02734-0.01563h0.002c0.09689-0.07075 0.27095-0.09934 0.43359-0.09961z" fill-rule="evenodd" fill="#fff"/>
 </g>
</svg>
