<?xml version="1.0" encoding="UTF-8" standalone="no"?>
<!-- Created with Inkscape (http://www.inkscape.org/) -->

<svg
   xmlns:dc="http://purl.org/dc/elements/1.1/"
   xmlns:cc="http://creativecommons.org/ns#"
   xmlns:rdf="http://www.w3.org/1999/02/22-rdf-syntax-ns#"
   xmlns:svg="http://www.w3.org/2000/svg"
   xmlns="http://www.w3.org/2000/svg"
   xmlns:xlink="http://www.w3.org/1999/xlink"
   xmlns:sodipodi="http://sodipodi.sourceforge.net/DTD/sodipodi-0.dtd"
   xmlns:inkscape="http://www.inkscape.org/namespaces/inkscape"
   version="1.1"
   width="48"
   height="48"
   id="svg4061"
   inkscape:version="0.91 r"
   sodipodi:docname="borderlands.svg">
  <sodipodi:namedview
     pagecolor="#ffffff"
     bordercolor="#666666"
     borderopacity="1"
     objecttolerance="10"
     gridtolerance="10"
     guidetolerance="10"
     inkscape:pageopacity="0"
     inkscape:pageshadow="2"
     inkscape:window-width="1600"
     inkscape:window-height="845"
     id="namedview35"
     showgrid="false"
     inkscape:zoom="9.28"
     inkscape:cx="28.228117"
     inkscape:cy="30.298667"
     inkscape:window-x="0"
     inkscape:window-y="30"
     inkscape:window-maximized="1"
     inkscape:current-layer="svg4061" />
  <defs
     id="defs4063">
    <linearGradient
       id="linearGradient4168">
      <stop
         offset="0"
         style="stop-color:#ffcbcb;stop-opacity:1"
         id="stop4170" />
      <stop
         offset="0.26238"
         style="stop-color:#fd7676;stop-opacity:1"
         id="stop4172" />
      <stop
         offset="0.66093999"
         style="stop-color:#f94040;stop-opacity:1"
         id="stop4174" />
      <stop
         offset="1"
         style="stop-color:#e42020;stop-opacity:1"
         id="stop4176" />
    </linearGradient>
    <linearGradient
       x1="71.204407"
       y1="15.369057"
       x2="71.204407"
       y2="40.495617"
       id="linearGradient3177"
       xlink:href="#linearGradient4806-2"
       gradientUnits="userSpaceOnUse"
       gradientTransform="matrix(1.6169806,0,0,1.6169806,-92.707374,-21.060237)" />
    <linearGradient
       id="linearGradient4806-2">
      <stop
         id="stop4808-4"
         style="stop-color:#ffffff;stop-opacity:1"
         offset="0" />
      <stop
         id="stop4810-0"
         style="stop-color:#ffffff;stop-opacity:0.23529412"
         offset="0.42447853" />
      <stop
         id="stop4812-8"
         style="stop-color:#ffffff;stop-opacity:0.15686275"
         offset="0.82089913" />
      <stop
         id="stop4814-0"
         style="stop-color:#ffffff;stop-opacity:0.39215687"
         offset="1" />
    </linearGradient>
    <radialGradient
       cx="15.026252"
       cy="8.6257601"
       r="19.99999"
       fx="4.4589653"
       fy="8.5088921"
       id="radialGradient4013"
       xlink:href="#linearGradient3846"
       gradientUnits="userSpaceOnUse"
       gradientTransform="matrix(-3.4973212e-8,1.8854921,-1.7764068,-5.4722636e-8,39.140041,-7.993163)" />
    <linearGradient
       id="linearGradient3846">
      <stop
         id="stop3848"
         style="stop-color:#d1ffcb;stop-opacity:1;"
         offset="0" />
      <stop
         id="stop3850"
         style="stop-color:#ccfd76;stop-opacity:1;"
         offset="0.26238" />
      <stop
         id="stop3852"
         style="stop-color:#a5f940;stop-opacity:1;"
         offset="0.66093999" />
      <stop
         id="stop3854"
         style="stop-color:#6de420;stop-opacity:1;"
         offset="1" />
    </linearGradient>
    <radialGradient
       cx="23.896"
       cy="3.99"
       r="20.396999"
       fx="23.896"
       fy="3.99"
       id="radialGradient4201"
       xlink:href="#radialGradient3093-0-3-6-6"
       gradientUnits="userSpaceOnUse"
       gradientTransform="matrix(0,2.8885219,-3.8127977,0,39.21344,-65.949504)" />
    <radialGradient
       cx="23.896"
       cy="3.99"
       r="20.396999"
       id="radialGradient3093-0-3-6-6"
       gradientUnits="userSpaceOnUse"
       gradientTransform="matrix(0,1.2316483,-1.625754,0,18.486966,-28.721977)">
      <stop
         id="stop3244-9-33-7-0-9"
         style="stop-color:#ffffff;stop-opacity:1"
         offset="0" />
      <stop
         id="stop3246-3-5-0-8-5"
         style="stop-color:#dddddd;stop-opacity:1"
         offset="0.26238" />
      <stop
         id="stop3248-1-7-8-8-1"
         style="stop-color:#abacae;stop-opacity:1"
         offset="0.66093999" />
      <stop
         id="stop3250-9-3-0-5-1"
         style="stop-color:#89898b;stop-opacity:1"
         offset="1" />
    </radialGradient>
    <linearGradient
       id="linearGradient3820-7-2-1">
      <stop
         id="stop3822-2-6-3"
         style="stop-color:#3d3d3d;stop-opacity:1"
         offset="0" />
      <stop
         id="stop3864-8-7-7"
         style="stop-color:#686868;stop-opacity:0.49803922"
         offset="0.5" />
      <stop
         id="stop3824-1-2-5"
         style="stop-color:#686868;stop-opacity:0"
         offset="1" />
    </linearGradient>
    <radialGradient
       cx="99.157013"
       cy="186.17059"
       r="62.769119"
       fx="99.157013"
       fy="186.17059"
       id="radialGradient4059"
       xlink:href="#linearGradient3820-7-2-1"
       gradientUnits="userSpaceOnUse"
       gradientTransform="matrix(0.27083381,0,0,0.08762273,-2.85507,25.187228)" />
    <linearGradient
       inkscape:collect="always"
       xlink:href="#linearGradient4806-2"
       id="linearGradient3026"
       gradientUnits="userSpaceOnUse"
       gradientTransform="matrix(1.6169806,0,0,1.6169806,-92.707374,-21.060237)"
       x1="71.204407"
       y1="15.369057"
       x2="71.204407"
       y2="40.495617" />
    <radialGradient
       inkscape:collect="always"
       xlink:href="#linearGradient4168"
       id="radialGradient3029"
       gradientUnits="userSpaceOnUse"
       gradientTransform="matrix(-3.4973212e-8,1.8854921,-1.7764068,-5.4722636e-8,39.140041,-7.993163)"
       cx="15.026252"
       cy="8.6257601"
       fx="4.4589653"
       fy="8.5088921"
       r="19.99999" />
    <radialGradient
       inkscape:collect="always"
       xlink:href="#radialGradient3093-0-3-6-6"
       id="radialGradient3032"
       gradientUnits="userSpaceOnUse"
       gradientTransform="matrix(0,2.8885219,-3.8127977,0,39.21344,-65.949504)"
       cx="23.896"
       cy="3.99"
       fx="23.896"
       fy="3.99"
       r="20.396999" />
    <radialGradient
       inkscape:collect="always"
       xlink:href="#linearGradient3820-7-2-1"
       id="radialGradient3035"
       gradientUnits="userSpaceOnUse"
       gradientTransform="matrix(0.27083381,0,0,0.08762273,-2.85507,25.187228)"
       cx="99.157013"
       cy="186.17059"
       fx="99.157013"
       fy="186.17059"
       r="62.769119" />
  </defs>
  <metadata
     id="metadata4066">
    <rdf:RDF>
      <cc:Work
         rdf:about="">
        <dc:format>image/svg+xml</dc:format>
        <dc:type
           rdf:resource="http://purl.org/dc/dcmitype/StillImage" />
        <dc:title></dc:title>
      </cc:Work>
    </rdf:RDF>
  </metadata>
  <path
     style="fill:url(#radialGradient3035);fill-opacity:1;stroke:none"
     id="path3818-0-5"
     inkscape:connector-curvature="0"
     d="m 41,41.5 a 17,5.4999999 0 0 1 -34,0 17,5.4999999 0 1 1 34,0 z" />
  <path
     style="color:#000000;display:inline;overflow:visible;visibility:visible;fill:url(#radialGradient3032);fill-opacity:1;fill-rule:nonzero;stroke:none;stroke-width:0.99999994;marker:none;enable-background:accumulate"
     id="path2555-7-2"
     inkscape:connector-curvature="0"
     d="M 24,3.5000009 C 12.68881,3.5000009 3.5,12.688807 3.5,24 3.5,35.311193 12.68881,44.500003 24,44.5 35.31119,44.5 44.50001,35.311193 44.5,24 44.5,12.688807 35.31119,3.5000009 24,3.5000009 Z" />
  <path
     style="color:#000000;display:inline;overflow:visible;visibility:visible;fill:url(#radialGradient3029);fill-opacity:1;fill-rule:nonzero;stroke:none;stroke-width:1;marker:none;enable-background:accumulate"
     id="path2555-7-65"
     inkscape:connector-curvature="0"
     d="M 24,3.5000003 C 12.688809,3.5000003 3.5000005,12.688809 3.5000005,24 3.5000005,35.311193 12.688809,44.500004 24,44.500001 35.311191,44.500001 44.500008,35.311193 44.500001,24 44.500001,12.688809 35.311191,3.5000004 24,3.5000004 Z" />
  <path
     style="color:#000000;display:inline;overflow:visible;visibility:visible;opacity:0.8;fill:none;stroke:url(#linearGradient3026);stroke-width:1;stroke-linecap:round;stroke-linejoin:round;stroke-miterlimit:4;stroke-dasharray:none;stroke-dashoffset:0;stroke-opacity:1;marker:none;enable-background:accumulate"
     id="path4176"
     inkscape:connector-curvature="0"
     d="M 43.5,24.000001 C 43.5,34.76955 34.76954,43.5 23.99999,43.5 13.23045,43.5 4.5,34.76955 4.5,24.000001 4.5,13.23045 13.23045,4.5000019 23.99999,4.5000019 34.76954,4.5000019 43.5,13.23045 43.5,24.000001 Z" />
  <path
     style="color:#000000;display:inline;overflow:visible;visibility:visible;opacity:0.5;fill:none;stroke:#980000;stroke-width:0.99999988;stroke-linecap:round;stroke-linejoin:round;stroke-miterlimit:4;stroke-dasharray:none;stroke-dashoffset:0;stroke-opacity:1;marker:none;enable-background:accumulate"
     id="path2555-7-1-7"
     inkscape:connector-curvature="0"
     d="m 24,3.500115 c -11.31113,0 -20.499885,9.188754 -20.499885,20.499884 0,11.311131 9.188755,20.499891 20.499885,20.499887 11.31113,0 20.4999,-9.188756 20.499886,-20.499887 C 44.499886,12.688869 35.31113,3.5001149 24,3.5001149 Z" />
  <g
     id="g4782"
     style="opacity:0.15;fill:#000000;fill-opacity:1"
     transform="translate(0,0.99999948)">
    <path
       style="fill:#000000;fill-opacity:1"
       d="m 23.131559,37.973271 c -2.850244,-0.175846 -5.575792,-1.217779 -7.804517,-2.983545 -0.84373,-0.668469 -1.623284,-1.446385 -2.298085,-2.293257 -1.290477,-1.619542 -2.203199,-3.510463 -2.670392,-5.532334 -0.687979,-2.977369 -0.3791638,-6.146339 0.868041,-8.907751 0.923678,-2.045086 2.305894,-3.818292 4.07498,-5.227686 1.61968,-1.290367 3.510762,-2.203014 5.532807,-2.670164 2.977628,-0.687918 6.146867,-0.379134 8.908518,0.86797 2.053092,0.927135 3.841882,2.324402 5.248956,4.100083 1.279306,1.614441 2.185214,3.497297 2.649569,5.506879 0.687975,2.977369 0.379166,6.146339 -0.868045,8.90775 -0.923679,2.045087 -2.305889,3.818292 -4.074975,5.227687 -2.694203,2.146412 -6.106087,3.21788 -9.566857,3.004368 z m 2.297167,-2.250324 c 1.387885,-0.172027 2.766595,-0.584025 3.92199,-1.171997 0.509352,-0.259207 0.839198,-0.450963 0.839835,-0.488244 3.17e-4,-0.0189 -1.059208,-4.045274 -2.354518,-8.947507 -2.072221,-7.842554 -2.365552,-8.928567 -2.442077,-9.041475 -0.362129,-0.534314 -0.842044,-0.81461 -1.394759,-0.81461 -0.387779,0 -0.735807,0.150269 -1.038019,0.448189 -0.371045,0.365778 -0.109438,-0.54174 -2.700991,9.369951 -1.276954,4.883862 -2.326439,8.911261 -2.332191,8.949777 -0.0094,0.06326 0.02147,0.0882 0.3204,0.258225 1.453595,0.826827 3.117409,1.328385 4.939193,1.488922 0.328309,0.02893 1.880707,-0.0066 2.241137,-0.05123 z M 15.323011,31.89113 c 0.0074,-0.01927 1.414932,-3.885939 3.127902,-8.592624 1.712968,-4.706687 3.163487,-8.658692 3.223376,-8.782235 0.290411,-0.599098 0.893573,-1.010136 1.709397,-1.164912 0.232249,-0.04407 0.883545,-0.04364 1.120571,7.14e-4 0.77541,0.145149 1.395029,0.529938 1.704038,1.058227 0.07335,0.125407 1.22864,3.134282 3.380448,8.80415 1.797956,4.737498 3.275303,8.619936 3.282993,8.627639 0.02752,0.02751 0.524596,-0.583801 0.870068,-1.069934 2.477764,-3.486637 2.856673,-8.087392 0.986368,-11.976611 -1.36441,-2.837238 -3.828967,-5.026402 -6.820185,-6.058094 -2.155524,-0.743452 -4.487715,-0.845511 -6.722428,-0.294178 -2.291093,0.565245 -4.38686,1.832395 -5.975206,3.61276 -1.63771,1.835693 -2.628722,4.041485 -2.939245,6.542157 -0.07212,0.58079 -0.07227,2.142216 -3.17e-4,2.703142 0.281261,2.190922 1.029506,4.06314 2.301463,5.758595 0.256041,0.341291 0.689403,0.86228 0.719284,0.864725 0.0099,8.17e-4 0.02404,-0.01429 0.03144,-0.03354 z"
       id="path4784"
       inkscape:connector-curvature="0" />
    <g
       transform="scale(1.0053867,0.99464215)"
       style="font-style:normal;font-variant:normal;font-weight:bold;font-stretch:normal;font-size:14.14602184px;line-height:125%;font-family:Padauk;-inkscape-font-specification:'Padauk Bold';letter-spacing:0px;word-spacing:0px;fill:#000000;fill-opacity:1;stroke:none;stroke-width:1px;stroke-linecap:butt;stroke-linejoin:miter;stroke-opacity:1"
       id="g4786" />
  </g>
  <g
     id="g4777"
     style="fill:#f6cf36;fill-opacity:1">
    <path
       inkscape:connector-curvature="0"
       id="path4184"
       d="m 23.131559,37.973271 c -2.850244,-0.175846 -5.575792,-1.217779 -7.804517,-2.983545 -0.84373,-0.668469 -1.623284,-1.446385 -2.298085,-2.293257 -1.290477,-1.619542 -2.203199,-3.510463 -2.670392,-5.532334 -0.687979,-2.977369 -0.3791638,-6.146339 0.868041,-8.907751 0.923678,-2.045086 2.305894,-3.818292 4.07498,-5.227686 1.61968,-1.290367 3.510762,-2.203014 5.532807,-2.670164 2.977628,-0.687918 6.146867,-0.379134 8.908518,0.86797 2.053092,0.927135 3.841882,2.324402 5.248956,4.100083 1.279306,1.614441 2.185214,3.497297 2.649569,5.506879 0.687975,2.977369 0.379166,6.146339 -0.868045,8.90775 -0.923679,2.045087 -2.305889,3.818292 -4.074975,5.227687 -2.694203,2.146412 -6.106087,3.21788 -9.566857,3.004368 z m 2.297167,-2.250324 c 1.387885,-0.172027 2.766595,-0.584025 3.92199,-1.171997 0.509352,-0.259207 0.839198,-0.450963 0.839835,-0.488244 3.17e-4,-0.0189 -1.059208,-4.045274 -2.354518,-8.947507 -2.072221,-7.842554 -2.365552,-8.928567 -2.442077,-9.041475 -0.362129,-0.534314 -0.842044,-0.81461 -1.394759,-0.81461 -0.387779,0 -0.735807,0.150269 -1.038019,0.448189 -0.371045,0.365778 -0.109438,-0.54174 -2.700991,9.369951 -1.276954,4.883862 -2.326439,8.911261 -2.332191,8.949777 -0.0094,0.06326 0.02147,0.0882 0.3204,0.258225 1.453595,0.826827 3.117409,1.328385 4.939193,1.488922 0.328309,0.02893 1.880707,-0.0066 2.241137,-0.05123 z M 15.323011,31.89113 c 0.0074,-0.01927 1.414932,-3.885939 3.127902,-8.592624 1.712968,-4.706687 3.163487,-8.658692 3.223376,-8.782235 0.290411,-0.599098 0.893573,-1.010136 1.709397,-1.164912 0.232249,-0.04407 0.883545,-0.04364 1.120571,7.14e-4 0.77541,0.145149 1.395029,0.529938 1.704038,1.058227 0.07335,0.125407 1.22864,3.134282 3.380448,8.80415 1.797956,4.737498 3.275303,8.619936 3.282993,8.627639 0.02752,0.02751 0.524596,-0.583801 0.870068,-1.069934 2.477764,-3.486637 2.856673,-8.087392 0.986368,-11.976611 -1.36441,-2.837238 -3.828967,-5.026402 -6.820185,-6.058094 -2.155524,-0.743452 -4.487715,-0.845511 -6.722428,-0.294178 -2.291093,0.565245 -4.38686,1.832395 -5.975206,3.61276 -1.63771,1.835693 -2.628722,4.041485 -2.939245,6.542157 -0.07212,0.58079 -0.07227,2.142216 -3.17e-4,2.703142 0.281261,2.190922 1.029506,4.06314 2.301463,5.758595 0.256041,0.341291 0.689403,0.86228 0.719284,0.864725 0.0099,8.17e-4 0.02404,-0.01429 0.03144,-0.03354 z"
       style="fill:#f6cf36;fill-opacity:1" />
    <g
       id="text4744"
       style="font-style:normal;font-variant:normal;font-weight:bold;font-stretch:normal;font-size:14.14602184px;line-height:125%;font-family:Padauk;-inkscape-font-specification:'Padauk Bold';letter-spacing:0px;word-spacing:0px;fill:#f6cf36;fill-opacity:1;stroke:none;stroke-width:1px;stroke-linecap:butt;stroke-linejoin:miter;stroke-opacity:1"
       transform="scale(1.0053867,0.99464215)" />
  </g>
</svg>
