<?xml version="1.0" encoding="UTF-8" standalone="no"?>
<!-- Created with Inkscape (http://www.inkscape.org/) -->

<svg
   xmlns:dc="http://purl.org/dc/elements/1.1/"
   xmlns:cc="http://creativecommons.org/ns#"
   xmlns:rdf="http://www.w3.org/1999/02/22-rdf-syntax-ns#"
   xmlns:svg="http://www.w3.org/2000/svg"
   xmlns="http://www.w3.org/2000/svg"
   xmlns:sodipodi="http://sodipodi.sourceforge.net/DTD/sodipodi-0.dtd"
   xmlns:inkscape="http://www.inkscape.org/namespaces/inkscape"
   id="svg6649"
   height="48"
   width="48"
   version="1.1"
   inkscape:version="0.91 r13725"
   sodipodi:docname="brackets.svg">
  <sodipodi:namedview
     pagecolor="#ffffff"
     bordercolor="#666666"
     borderopacity="1"
     objecttolerance="10"
     gridtolerance="10"
     guidetolerance="10"
     inkscape:pageopacity="0"
     inkscape:pageshadow="2"
     inkscape:window-width="1535"
     inkscape:window-height="876"
     id="namedview36"
     showgrid="false"
     inkscape:zoom="4.9166667"
     inkscape:cx="-10.779661"
     inkscape:cy="24"
     inkscape:window-x="65"
     inkscape:window-y="24"
     inkscape:window-maximized="1"
     inkscape:current-layer="svg6649" />
  <defs
     id="defs6651">
    <linearGradient
       id="linearGradient3058"
       y2="43"
       gradientUnits="userSpaceOnUse"
       x2="24"
       gradientTransform="translate(4e-6,0)"
       y1="5"
       x1="24">
      <stop
         id="stop3926-3"
         stop-color="#fff"
         offset="0" />
      <stop
         id="stop3928-91"
         stop-color="#fff"
         stop-opacity=".23529"
         offset=".063165" />
      <stop
         id="stop3930-6"
         stop-color="#fff"
         stop-opacity=".15686"
         offset=".95056" />
      <stop
         id="stop3932-6"
         stop-color="#fff"
         stop-opacity=".39216"
         offset="1" />
    </linearGradient>
    <radialGradient
       id="radialGradient5521-1"
       fx="6.2002"
       gradientUnits="userSpaceOnUse"
       cy="9.9571"
       cx="6.7304"
       gradientTransform="matrix(0,9.4976,-11.66,0,140.93,-80.161)"
       r="12.672">
      <stop
         id="stop3750-1-0-7-6-6-1-3-9-2"
         stop-color="#00cdff"
         offset="0" />
      <stop
         id="stop3752-3-7-4-0-32-8-923-0-2"
         stop-color="#008fff"
         offset=".26238" />
      <stop
         id="stop3754-1-8-5-2-7-6-7-1-9"
         stop-color="#007cff"
         offset=".70495" />
      <stop
         id="stop3756-1-6-2-6-6-1-96-6-9"
         stop-color="#04f"
         offset="1" />
    </radialGradient>
  </defs>
  <metadata
     id="metadata6654">
    <rdf:RDF>
      <cc:Work
         rdf:about="">
        <dc:format>image/svg+xml</dc:format>
        <dc:type
           rdf:resource="http://purl.org/dc/dcmitype/StillImage" />
        <dc:title />
      </cc:Work>
    </rdf:RDF>
  </metadata>
  <rect
     id="rect5505-21"
     style="color:#000000;fill:url(#radialGradient5521-1)"
     rx="2"
     ry="2"
     height="39"
     width="39"
     y="4.5"
     x="4.5" />
  <rect
     style="opacity:0.5;fill:none;stroke:url(#linearGradient3058);stroke-linecap:round;stroke-linejoin:round"
     id="rect6741"
     rx="1"
     ry="1"
     height="37"
     width="37"
     y="5.5"
     x="5.5" />
  <rect
     id="rect5505-21-3-2"
     style="color:#000000;opacity:0.4;fill:none;stroke:#204bff;stroke-linecap:round;stroke-linejoin:round"
     rx="2"
     ry="2"
     height="39"
     width="39"
     y="4.5"
     x="4.5" />
  <rect
     id="rect4335"
     style="color:#000000;fill:#ffffff"
     rx="0.49406999"
     ry="0.49406999"
     height="32"
     width="32"
     y="8"
     x="8" />
  <path
     d="m 13.511,12.512 c -0.58631,0.11656 -1.0108,0.63382 -1.0108,1.2417 l 0,20.473 c 0,0.69475 0.56018,1.2736 1.2717,1.2736 l 7.7281,0 0,-4.2346 -3.8804,0 c -0.45045,0 -0.8152,-0.35615 -0.8152,-0.79598 l 0,-12.958 c 0,-0.43983 0.36475,-0.79598 0.8152,-0.79598 l 3.8804,0 0,-4.2028 -7.7281,0 c -0.08893,0 -0.17711,-0.01666 -0.26086,0 z"
     style="color:#000000;fill:#333333;stroke:#1a1a1a;stroke-width:1.00020003;stroke-linecap:round;stroke-linejoin:round"
     id="path4399"
     inkscape:connector-curvature="0" />
  <path
     d="m 34.489,12.512 c 0.58631,0.11656 1.0108,0.63382 1.0108,1.2417 l 0,20.473 c 0,0.69475 -0.56018,1.2736 -1.2717,1.2736 l -7.7281,0 0,-4.2346 3.8804,0 c 0.45045,0 0.8152,-0.35615 0.8152,-0.79598 l 0,-12.958 c 0,-0.43983 -0.36475,-0.79598 -0.8152,-0.79598 l -3.8804,0 0,-4.2028 7.7281,0 c 0.08893,0 0.17711,-0.01666 0.26086,0 z"
     style="color:#000000;fill:#333333;stroke:#1a1a1a;stroke-width:1.00020003;stroke-linecap:round;stroke-linejoin:round"
     id="path4401"
     inkscape:connector-curvature="0" />
</svg>
