<?xml version="1.0" encoding="UTF-8" standalone="no"?>
<!-- Created with Inkscape (http://www.inkscape.org/) -->
<svg id="svg4033" xmlns:rdf="http://www.w3.org/1999/02/22-rdf-syntax-ns#" xmlns="http://www.w3.org/2000/svg" height="48" width="48" version="1.1" xmlns:cc="http://creativecommons.org/ns#" xmlns:xlink="http://www.w3.org/1999/xlink" xmlns:dc="http://purl.org/dc/elements/1.1/">
 <defs id="defs4035">
  <linearGradient id="linearGradient3487">
   <stop id="stop3489" stop-color="#e6cde2" offset="0"/>
   <stop id="stop3491" stop-color="#e6cde2" stop-opacity="0" offset="1"/>
  </linearGradient>
  <linearGradient id="linearGradient3495">
   <stop id="stop3497" stop-color="#c1cbe4" offset="0"/>
   <stop id="stop3499" stop-color="#c1cbe4" stop-opacity="0" offset="1"/>
  </linearGradient>
  <linearGradient id="linearGradient3503">
   <stop id="stop3505" stop-color="#c4ebdd" offset="0"/>
   <stop id="stop3507" stop-color="#c4ebdd" stop-opacity="0" offset="1"/>
  </linearGradient>
  <linearGradient id="linearGradient3511">
   <stop id="stop3513" stop-color="#ebeec7" offset="0"/>
   <stop id="stop3515" stop-color="#ebeec7" stop-opacity="0" offset="1"/>
  </linearGradient>
  <linearGradient id="linearGradient3519">
   <stop id="stop3521" stop-color="#fcd9cd" offset="0"/>
   <stop id="stop3523" stop-color="#fcd9cd" stop-opacity="0" offset="1"/>
  </linearGradient>
  <linearGradient id="linearGradient3054" y2="45.962" gradientUnits="userSpaceOnUse" x2="18.203" gradientTransform="matrix(.42934 0 0 -.42934 13.547 34.734)" y1="4.0378" x1="18.776">
   <stop id="stop6038" stop-color="#fff" offset="0"/>
   <stop id="stop6040" stop-color="#fff" stop-opacity="0" offset="1"/>
  </linearGradient>
  <linearGradient id="linearGradient3057" y2="44.341" gradientUnits="userSpaceOnUse" x2="71.204" gradientTransform="matrix(1.0541 0 0 1.0541 -51.611 -2.7279)" y1="6.2376" x1="71.204">
   <stop id="stop4013" stop-color="#fff" offset="0"/>
   <stop id="stop4015" stop-color="#fff" stop-opacity=".23529" offset=".50776"/>
   <stop id="stop4017" stop-color="#fff" stop-opacity=".15686" offset=".83457"/>
   <stop id="stop4019" stop-color="#fff" stop-opacity=".39216" offset="1"/>
  </linearGradient>
  <linearGradient id="linearGradient3076" y2="14.203" gradientUnits="userSpaceOnUse" x2="35.391" gradientTransform="matrix(0 1.1714 -1.1714 0 51.06 -4.1145)" y1="32.416" x1="12.274">
   <stop id="stop3265" stop-color="#dedcde" offset="0"/>
   <stop id="stop3267" stop-color="#f0f0f0" offset=".5"/>
   <stop id="stop3269" stop-color="#d2d2d2" offset="1"/>
  </linearGradient>
  <radialGradient id="radialGradient3081" gradientUnits="userSpaceOnUse" cy="41.636" cx="23.335" gradientTransform="matrix(.97227 0 0 .28724 1.3125 27.541)" r="22.627">
   <stop id="stop23421" offset="0"/>
   <stop id="stop23423" stop-opacity="0" offset="1"/>
  </radialGradient>
  <linearGradient id="linearGradient3936" y2="151.42" gradientUnits="userSpaceOnUse" x2="-122.62" gradientTransform="matrix(.41905 0 0 .32355 76.888 -5.8972)" y1="63.535" x1="-122.62">
   <stop id="stop4683-5-6" stop-color="#f36169" offset="0"/>
   <stop id="stop4685-5-4" stop-color="#f6e86b" offset="1"/>
  </linearGradient>
  <linearGradient id="linearGradient3939" y2="20.613" xlink:href="#linearGradient3519" spreadMethod="reflect" gradientUnits="userSpaceOnUse" x2="9.7298" gradientTransform="matrix(-1 0 0 -1 48 47.991)" y1="17.886" x1="10.609"/>
  <linearGradient id="linearGradient3942" y2="13.462" xlink:href="#linearGradient3511" spreadMethod="reflect" gradientUnits="userSpaceOnUse" x2="14.609" gradientTransform="matrix(-1 0 0 -1 48 47.991)" y1="16.188" x1="12.372"/>
  <linearGradient id="linearGradient3945" y2="10.732" xlink:href="#linearGradient3503" spreadMethod="reflect" gradientUnits="userSpaceOnUse" x2="16.994" gradientTransform="matrix(-1 0 0 -1 48 47.991)" y1="13.046" x1="14.085"/>
  <linearGradient id="linearGradient3948" y2="9.7956" xlink:href="#linearGradient3495" spreadMethod="reflect" gradientUnits="userSpaceOnUse" x2="21.047" gradientTransform="matrix(-1 0 0 -1 48 47.991)" y1="11.2" x1="17.495"/>
  <linearGradient id="linearGradient3951" y2="9.8622" xlink:href="#linearGradient3487" spreadMethod="reflect" gradientUnits="userSpaceOnUse" x2="24.274" gradientTransform="matrix(-.99960 -.028243 .028243 -.99960 47.308 48.662)" y1="10.775" x1="20.58"/>
  <linearGradient id="linearGradient3954" y2="20.613" xlink:href="#linearGradient3519" spreadMethod="reflect" gradientUnits="userSpaceOnUse" x2="9.7298" y1="17.886" x1="10.609"/>
  <linearGradient id="linearGradient3957" y2="13.462" xlink:href="#linearGradient3511" spreadMethod="reflect" gradientUnits="userSpaceOnUse" x2="14.609" y1="16.188" x1="12.372"/>
  <linearGradient id="linearGradient3960" y2="10.732" xlink:href="#linearGradient3503" spreadMethod="reflect" gradientUnits="userSpaceOnUse" x2="16.994" y1="13.046" x1="14.085"/>
  <linearGradient id="linearGradient3963" y2="9.7956" xlink:href="#linearGradient3495" spreadMethod="reflect" gradientUnits="userSpaceOnUse" x2="21.047" y1="11.2" x1="17.495"/>
  <linearGradient id="linearGradient3966" y2="9.8622" xlink:href="#linearGradient3487" spreadMethod="reflect" gradientUnits="userSpaceOnUse" x2="24.274" gradientTransform="matrix(.99960 .028243 -.028243 .99960 .69241 -.67083)" y1="10.775" x1="20.58"/>
 </defs>
 <metadata id="metadata4038">
  <rdf:RDF>
   <cc:Work rdf:about="">
    <dc:format>image/svg+xml</dc:format>
    <dc:type rdf:resource="http://purl.org/dc/dcmitype/StillImage"/>
    <dc:title/>
   </cc:Work>
  </rdf:RDF>
 </metadata>
 <path id="path23417" opacity=".3" d="m46 39.5c0.0011 3.5898-9.8489 6.5-22 6.5s-22.001-2.9102-22-6.5c-0.0011-3.59 9.849-6.5 22-6.5s22.001 2.9102 22 6.5z" fill-rule="evenodd" fill="url(#radialGradient3081)"/>
 <path id="path2781" fill="url(#linearGradient3076)" d="m44.5 24c0-11.363-9.137-20.5-20.5-20.5s-20.5 9.137-20.5 20.5 9.137 20.5 20.5 20.5 20.5-9.137 20.5-20.5zm-13 0c0 4.1281-3.2893 7.5-7.5 7.5-4.2933 0-7.5-3.4553-7.5-7.5 0-4.1273 3.0415-7.5 7.5-7.5s7.5 3.4545 7.5 7.5z"/>
 <path id="path2474" opacity=".5" d="m24 16c-4.416 0-8 3.584-8 8s3.584 8 8 8 8-3.584 8-8-3.584-8-8-8zm0 4c2.208 0 4 1.792 4 4s-1.792 4-4 4-4-1.792-4-4 1.792-4 4-4z" fill="#fff"/>
 <path id="path3418" opacity=".3" stroke-linejoin="round" d="m24 20.25c2.07 0 3.75 1.68 3.75 3.75s-1.68 3.75-3.75 3.75-3.75-1.68-3.75-3.75 1.68-3.75 3.75-3.75z" stroke="#000" fill="none"/>
 <path id="path3296" opacity=".8" d="m16.381 5.5055 4.4664 10.743c1.0479-0.42914 2.1898-0.65717 3.394-0.62314 0.03205 0.000906 0.06177 0.0014 0.09371 0.0026l0.343-11.614c-2.939-0.15375-5.5594 0.50047-8.2965 1.4923h0.000001z" fill="url(#linearGradient3966)"/>
 <path id="path3308" opacity=".8" d="m12.121 7.906 6.931 9.3601c0.91311-0.66976 1.9659-1.1671 3.1426-1.4252 0.03132-0.0069 0.06026-0.01359 0.09157-0.02009l-2.429-11.395c-2.889 0.56132-5.3195 1.8556-7.7357 3.4797z" fill="url(#linearGradient3963)"/>
 <path id="path3310" opacity=".8" d="m8.2524 11.647 9.2137 7.1558c0.70865-0.88326 1.5969-1.6361 2.6667-2.19 0.02847-0.01474 0.05469-0.02872 0.08325-0.0431l-5.35-10.319c-2.645 1.2895-4.7 3.2014-6.6136 5.396z" fill="url(#linearGradient3960)"/>
 <path id="path3312" opacity=".8" d="m5.6329 16.074c7.1748 2.2422 7.8503 7.0315 12.777 1.7541l-7.91-8.6959c-2.2213 1.9309-3.5867 4.3269-4.8671 6.9419z" fill="url(#linearGradient3957)"/>
 <path id="path3314" opacity=".8" d="m7.1553 13.193c-1.1831 1.752-1.9077 3.637-2.5251 5.644l11.339 2.975c0.215-0.763 0.518-1.514 0.969-2.218 0.017-0.027 0.044-0.067 0.062-0.094l-9.8447-6.307z" fill="url(#linearGradient3954)"/>
 <path id="path3299" opacity=".8" d="m31.619 42.485-4.467-10.743c-1.0479 0.42914-2.1898 0.65717-3.394 0.62314-0.03205-0.000905-0.06177-0.0014-0.09371-0.0026l-0.34244 11.615c2.939 0.15375 5.5594-0.50047 8.2965-1.4923h-0.000001z" fill="url(#linearGradient3951)"/>
 <path id="path3301" opacity=".8" d="m35.879 40.085-6.931-9.3601c-0.91311 0.66976-1.9659 1.1671-3.1426 1.4252-0.03132 0.0069-0.06026 0.01359-0.09157 0.02009l2.4295 11.395c2.889-0.56132 5.3195-1.8556 7.7357-3.4797z" fill="url(#linearGradient3948)"/>
 <path id="path3303" opacity=".8" d="m39.748 36.344-9.214-7.156c-0.70865 0.88326-1.5969 1.6361-2.6667 2.19-0.02847 0.01474-0.05469 0.02872-0.08325 0.0431l5.3502 10.319c2.6453-1.2899 4.7-3.2018 6.6135-5.3959z" fill="url(#linearGradient3945)"/>
 <path id="path3305" opacity=".8" d="m42.367 31.917c-7.175-2.242-7.85-7.032-12.777-1.754l7.9097 8.696c2.2213-1.9306 3.5867-4.3272 4.8671-6.9418z" fill="url(#linearGradient3942)"/>
 <path id="path3307" opacity=".8" d="m40.845 34.798c1.1831-1.752 1.9077-3.6364 2.5251-5.6439l-11.339-2.976c-0.21551 0.763-0.51805 1.5148-0.96875 2.2188-0.01729 0.027-0.04496 0.06702-0.0625 0.09375l9.8447 6.3068z" fill="url(#linearGradient3939)"/>
 <path id="path8655" opacity=".55" stroke-linejoin="round" style="color:#000000" d="m43.5 23.999c0 10.77-8.731 19.501-19.5 19.501s-19.5-8.731-19.5-19.501c0-10.769 8.731-19.499 19.5-19.499s19.5 8.73 19.5 19.499v0z" stroke="url(#linearGradient3057)" stroke-linecap="round" fill="none"/>
 <path id="path3281" opacity=".4" d="m24 32.5c-4.7114 0-8.5-3.7886-8.5-8.5s3.7886-8.5 8.5-8.5 8.5 3.7886 8.5 8.5-3.7886 8.5-8.5 8.5z" stroke="url(#linearGradient3054)" fill="none"/>
 <path id="path2781-3" opacity=".3" d="m44.5 24c0-11.363-9.137-20.5-20.5-20.5s-20.5 9.137-20.5 20.5 9.137 20.5 20.5 20.5 20.5-9.137 20.5-20.5zm-13 0c0 4.1281-3.2893 7.5-7.5 7.5-4.2933 0-7.5-3.4553-7.5-7.5 0-4.1273 3.0415-7.5 7.5-7.5s7.5 3.4545 7.5 7.5z" stroke="#000" fill="none"/>
 <path id="path3970" stroke-linejoin="round" style="enable-background:new" d="m26.293 9.5644c-2.4391 1.5859-3.1601 3.4172-3.3469 5.414-0.19497 2.084 1.8462 4.118 2.4098 5.9905 0.27328 0.75961-0.33118 1.3777-1.0487 1.4788-1.2225 0.17234-1.9062-1.2475-2.8114-1.9049-0.70891-0.51488-2.0528-1.6041-2.0528-1.6041 0.38016 1.0629 1.4691 4.3051 0.8702 6.3915-0.74906 2.6094-4.0577 4.383-5.3328 6.8678-0.60553 1.18-1.0487 3.7347-1.0487 3.7347s-0.27711-2.7477 0.0446-4.0856c0.4254-1.7691 2.4544-5.0631 2.4544-5.0631-2.2331 2.2973-4.0376 3.9524-4.8865 6.3163-0.68843 1.917-0.34662 4.1235 0.65338 5.7876 1.1882 1.9773 3.4944 3.2638 5.7079 3.9135 3.7082 1.0885 7.5784 0.61028 11.589-0.34748 2.6295-0.628 5.2022-1.7748 6.378-3.9898 0.71344-1.3439 0.44098-3.1107-0.16315-4.5618-0.43877-1.0539-1.8896-1.7709-2.1643-2.8574-0.3694-1.4609 0.80327-4.4365 0.80327-4.4365-1.7463 1.269-3.362 2.5983-4.5964 4.2109-0.78001 0.97444-1.9859 3.083-1.9859 3.083 1.945-4.5052 3.7708-8.5422 2.7222-12.783-0.68738-2.7797-5.1521-4.467-5.6675-7.2688-0.26918-1.4634 0.25977-2.8366 1.4726-4.2861z" stroke-opacity=".39756" stroke="#fff" stroke-linecap="round" stroke-width="2" fill="none"/>
 <path id="path3909-7-8" stroke-linejoin="round" style="enable-background:new" d="m26.293 9.5644c-2.4391 1.5859-3.1601 3.4172-3.3469 5.414-0.19497 2.084 1.8462 4.118 2.4098 5.9905 0.27328 0.75961-0.33118 1.3777-1.0487 1.4788-1.2225 0.17234-1.9062-1.2475-2.8114-1.9049-0.70891-0.51488-2.0528-1.6041-2.0528-1.6041 0.38016 1.0629 1.4691 4.3051 0.8702 6.3915-0.74906 2.6094-4.0577 4.383-5.3328 6.8678-0.60553 1.18-1.0487 3.7347-1.0487 3.7347s-0.27711-2.7477 0.0446-4.0856c0.4254-1.7691 2.4544-5.0631 2.4544-5.0631-2.2331 2.2973-4.0376 3.9524-4.8865 6.3163-0.68843 1.917-0.84734 4.2061-0.0223 5.9654 1.0855 2.3147 3.5566 3.6289 5.779 4.4114 4.003 1.4095 8.5741 1.1082 12.584 0.15039 2.6295-0.628 5.6184-2.364 6.6269-5.1633 0.51764-1.4369-0.19913-3.1107-0.80326-4.5618-0.43877-1.0539-1.8896-1.7709-2.1643-2.8574-0.3694-1.4609 0.80327-4.4365 0.80327-4.4365-1.7463 1.269-3.362 2.5983-4.5964 4.2109-0.78001 0.97444-1.9859 3.083-1.9859 3.083 1.945-4.5052 3.7708-8.5422 2.7222-12.783-0.68738-2.7797-5.1521-4.467-5.6675-7.2688-0.26918-1.4634 0.25977-2.8366 1.4726-4.2861z" stroke="#e36060" stroke-linecap="round" stroke-width=".80207px" fill="url(#linearGradient3936)"/>
 <path id="path3909-7-8-6" opacity="0" style="enable-background:new" d="m26.293 9.5644c-2.4391 1.5859-3.1601 3.4172-3.3469 5.414-0.19497 2.084 1.8462 4.118 2.4098 5.9905 0.27328 0.75961-0.33118 1.3777-1.0487 1.4788-1.2225 0.17234-1.9062-1.2475-2.8114-1.9049-0.70891-0.51488-2.0528-1.6041-2.0528-1.6041 0.38016 1.0629 1.4691 4.3051 0.8702 6.3915-0.74906 2.6094-4.0577 4.383-5.3328 6.8678-0.60553 1.18-1.0487 3.7347-1.0487 3.7347s-0.27711-2.7477 0.0446-4.0856c0.4254-1.7691 2.4544-5.0631 2.4544-5.0631-2.2331 2.2973-4.0376 3.9524-4.8865 6.3163-0.68844 1.917-0.84734 4.2061-0.0223 5.9654 1.0855 2.3147 3.5566 3.6289 5.779 4.4114 4.003 1.4095 8.5741 1.1082 12.584 0.15039 2.6295-0.628 5.6184-2.364 6.6269-5.1633 0.51764-1.4369-0.19913-3.1107-0.80326-4.5618-0.43877-1.0539-1.8896-1.7709-2.1643-2.8574-0.36941-1.4609 0.80326-4.4365 0.80326-4.4365-1.7463 1.269-3.362 2.5983-4.5964 4.2109-0.78 0.97444-1.9859 3.083-1.9859 3.083 1.945-4.5052 3.7708-8.5422 2.7222-12.783-0.68738-2.7797-5.1521-4.467-5.6675-7.2688-0.26918-1.4634 0.25977-2.8366 1.4726-4.2861z" stroke-width=".80207px"/>
</svg>
