<?xml version="1.0" encoding="UTF-8" standalone="no"?>
<!-- Created with Inkscape (http://www.inkscape.org/) -->

<svg
   xmlns:dc="http://purl.org/dc/elements/1.1/"
   xmlns:cc="http://creativecommons.org/ns#"
   xmlns:rdf="http://www.w3.org/1999/02/22-rdf-syntax-ns#"
   xmlns:svg="http://www.w3.org/2000/svg"
   xmlns="http://www.w3.org/2000/svg"
   xmlns:xlink="http://www.w3.org/1999/xlink"
   xmlns:sodipodi="http://sodipodi.sourceforge.net/DTD/sodipodi-0.dtd"
   xmlns:inkscape="http://www.inkscape.org/namespaces/inkscape"
   version="1.1"
   width="48"
   height="48"
   id="svg4031"
   inkscape:version="0.91 r"
   sodipodi:docname="browser-tor.svg">
  <sodipodi:namedview
     pagecolor="#ffffff"
     bordercolor="#666666"
     borderopacity="1"
     objecttolerance="10"
     gridtolerance="10"
     guidetolerance="10"
     inkscape:pageopacity="0"
     inkscape:pageshadow="2"
     inkscape:window-width="1600"
     inkscape:window-height="842"
     id="namedview48"
     showgrid="false"
     showguides="true"
     inkscape:zoom="17.31"
     inkscape:cx="21.864378"
     inkscape:cy="23.54253"
     inkscape:window-x="-4"
     inkscape:window-y="32"
     inkscape:window-maximized="1"
     inkscape:current-layer="svg4031" />
  <defs
     id="defs4033">
    <linearGradient
       id="linearGradient4168">
      <stop
         id="stop4170"
         style="stop-color:#f8b17e;stop-opacity:1"
         offset="0" />
      <stop
         id="stop4172"
         style="stop-color:#e35d4f;stop-opacity:1"
         offset="0.23208089" />
      <stop
         id="stop4174"
         style="stop-color:#c6262e;stop-opacity:1"
         offset="0.5908742" />
      <stop
         id="stop4176"
         style="stop-color:#690b54;stop-opacity:1"
         offset="1" />
    </linearGradient>
    <linearGradient
       id="linearGradient3957">
      <stop
         id="stop3959"
         style="stop-color:#ffffff;stop-opacity:1"
         offset="0" />
      <stop
         id="stop3961"
         style="stop-color:#c1c1c1;stop-opacity:1"
         offset="1" />
    </linearGradient>
    <linearGradient
       id="linearGradient4011">
      <stop
         id="stop4013"
         style="stop-color:#ffffff;stop-opacity:1"
         offset="0" />
      <stop
         id="stop4015"
         style="stop-color:#ffffff;stop-opacity:0.23529412"
         offset="0.507761" />
      <stop
         id="stop4017"
         style="stop-color:#ffffff;stop-opacity:0.15686275"
         offset="0.83456558" />
      <stop
         id="stop4019"
         style="stop-color:#ffffff;stop-opacity:0.39215687"
         offset="1" />
    </linearGradient>
    <linearGradient
       id="linearGradient2867-449-88-871-390-598-476-591-434-148-57-177-3-8">
      <stop
         id="stop3750-8-9"
         style="stop-color:#ad90ec;stop-opacity:1"
         offset="0" />
      <stop
         id="stop3752-3-2"
         style="stop-color:#9b42ea;stop-opacity:1"
         offset="0.26238" />
      <stop
         id="stop3754-7-2"
         style="stop-color:#9c36e6;stop-opacity:1"
         offset="0.704952" />
      <stop
         id="stop3756-9-3"
         style="stop-color:#6c2ba0;stop-opacity:1"
         offset="1" />
    </linearGradient>
    <linearGradient
       id="linearGradient3820-7-2-1">
      <stop
         id="stop3822-2-6-3"
         style="stop-color:#3d3d3d;stop-opacity:1"
         offset="0" />
      <stop
         id="stop3864-8-7-7"
         style="stop-color:#686868;stop-opacity:0.49803922"
         offset="0.5" />
      <stop
         id="stop3824-1-2-5"
         style="stop-color:#686868;stop-opacity:0"
         offset="1" />
    </linearGradient>
    <linearGradient
       x1="71.204407"
       y1="6.2375584"
       x2="71.204407"
       y2="44.340794"
       id="linearGradient3012"
       xlink:href="#linearGradient4011"
       gradientUnits="userSpaceOnUse"
       gradientTransform="matrix(1.054054,0,0,1.054054,-51.611001,-2.7279009)" />
    <radialGradient
       cx="3.9722471"
       cy="8.4497671"
       r="19.99999"
       fx="3.9722471"
       fy="8.4497671"
       id="radialGradient3015"
       xlink:href="#linearGradient2867-449-88-871-390-598-476-591-434-148-57-177-3-8"
       gradientUnits="userSpaceOnUse"
       gradientTransform="matrix(0,2.4988347,-2.6434689,-6.8014435e-8,46.336814,-12.180468)" />
    <radialGradient
       cx="99.157013"
       cy="186.17059"
       r="62.769119"
       fx="99.157013"
       fy="186.17059"
       id="radialGradient3018"
       xlink:href="#linearGradient3820-7-2-1"
       gradientUnits="userSpaceOnUse"
       gradientTransform="matrix(0.27083381,0,0,0.08762273,-2.855072,25.187228)" />
    <linearGradient
       x1="27.92535"
       y1="15.149301"
       x2="33.447899"
       y2="22.986004"
       id="linearGradient3951"
       xlink:href="#linearGradient4168"
       gradientUnits="userSpaceOnUse"
       gradientTransform="translate(-37.016949,19.932203)" />
    <linearGradient
       x1="24"
       y1="22"
       x2="24"
       y2="26"
       id="linearGradient3963"
       xlink:href="#linearGradient3957"
       gradientUnits="userSpaceOnUse" />
    <linearGradient
       x1="21.013996"
       y1="25.433903"
       x2="22.805599"
       y2="27.343702"
       id="linearGradient3963-7"
       xlink:href="#linearGradient3957-2"
       gradientUnits="userSpaceOnUse"
       gradientTransform="translate(-19.118644,3.6610169)" />
    <linearGradient
       id="linearGradient3957-2">
      <stop
         id="stop3959-62"
         style="stop-color:#ffffff;stop-opacity:1"
         offset="0" />
      <stop
         id="stop3961-5"
         style="stop-color:#c1c1c1;stop-opacity:1"
         offset="1" />
    </linearGradient>
    <linearGradient
       id="linearGradient3851">
      <stop
         offset="0"
         style="stop-color:#000000;stop-opacity:0.43200001"
         id="stop3853" />
      <stop
         offset="1"
         style="stop-color:#000000;stop-opacity:0.627451"
         id="stop3855" />
    </linearGradient>
    <linearGradient
       gradientTransform="matrix(1,0,0,-1,0,48.519105)"
       gradientUnits="userSpaceOnUse"
       xlink:href="#linearGradient3851"
       id="linearGradient4326"
       y2="36.949589"
       x2="23.06352"
       y1="12.978221"
       x1="23.06352" />
    <linearGradient
       gradientUnits="userSpaceOnUse"
       xlink:href="#linearGradient3851"
       id="linearGradient4320"
       y2="36.949589"
       x2="23.06352"
       y1="12.978221"
       x1="23.06352"
       gradientTransform="translate(0,-1.4930417)" />
    <linearGradient
       gradientUnits="userSpaceOnUse"
       xlink:href="#linearGradient3707-319-631-407-324-616"
       id="linearGradient4273"
       y2="4.9969058"
       x2="19.927404"
       y1="44.949184"
       x1="19.927404"
       gradientTransform="matrix(0.83333322,0,0,0.83333322,3.9999996,3.1666681)" />
    <linearGradient
       id="linearGradient3707-319-631-407-324-616">
      <stop
         offset="0"
         style="stop-color:#505050;stop-opacity:1"
         id="stop3246" />
      <stop
         offset="1"
         style="stop-color:#8e8e8e;stop-opacity:1"
         id="stop3248" />
    </linearGradient>
    <linearGradient
       gradientTransform="translate(-57.362519,-8.0236327)"
       gradientUnits="userSpaceOnUse"
       xlink:href="#linearGradient3924-803"
       id="linearGradient3473"
       y2="43"
       x2="23.99999"
       y1="4.999989"
       x1="23.99999" />
    <linearGradient
       id="linearGradient3924-803">
      <stop
         offset="0"
         style="stop-color:#ffffff;stop-opacity:1"
         id="stop3252" />
      <stop
         offset="0.06316455"
         style="stop-color:#ffffff;stop-opacity:0.23529412"
         id="stop3254" />
      <stop
         offset="0.95056331"
         style="stop-color:#ffffff;stop-opacity:0.15686275"
         id="stop3256" />
      <stop
         offset="1"
         style="stop-color:#ffffff;stop-opacity:0.39215687"
         id="stop3258" />
    </linearGradient>
    <radialGradient
       gradientTransform="matrix(1.8930301e-8,2.2770672,-2.4088655,-4.1952268e-8,-13.008071,-19.524216)"
       gradientUnits="userSpaceOnUse"
       xlink:href="#linearGradient2867-449-88-871-390-598-476-591-434-148-57-177-641"
       id="radialGradient3476"
       fy="8.4497671"
       fx="7.4956832"
       r="19.99999"
       cy="8.4497671"
       cx="7.4956832" />
    <linearGradient
       id="linearGradient2867-449-88-871-390-598-476-591-434-148-57-177-641">
      <stop
         offset="0"
         style="stop-color:#c7c7c7;stop-opacity:1"
         id="stop3236" />
      <stop
         offset="0.26238"
         style="stop-color:#a6a6a6;stop-opacity:1"
         id="stop3238" />
      <stop
         offset="0.704952"
         style="stop-color:#7b7b7b;stop-opacity:1"
         id="stop3240" />
      <stop
         offset="1"
         style="stop-color:#595959;stop-opacity:1"
         id="stop3242" />
    </linearGradient>
    <radialGradient
       gradientTransform="matrix(2.003784,0,0,1.4,27.98813,-17.4)"
       gradientUnits="userSpaceOnUse"
       xlink:href="#linearGradient3688-166-749-2-324"
       id="radialGradient3013-896"
       fy="43.5"
       fx="4.9929786"
       r="2.5"
       cy="43.5"
       cx="4.9929786" />
    <linearGradient
       id="linearGradient3688-166-749-2-324">
      <stop
         offset="0"
         style="stop-color:#181818;stop-opacity:1"
         id="stop3216" />
      <stop
         offset="1"
         style="stop-color:#181818;stop-opacity:0"
         id="stop3218" />
    </linearGradient>
    <radialGradient
       gradientTransform="matrix(2.003784,0,0,1.4,-20.01187,-104.4)"
       gradientUnits="userSpaceOnUse"
       xlink:href="#linearGradient3688-166-749-2-324"
       id="radialGradient3015-826"
       fy="43.5"
       fx="4.9929786"
       r="2.5"
       cy="43.5"
       cx="4.9929786" />
    <linearGradient
       id="linearGradient3702-501-757-6-946">
      <stop
         offset="0"
         style="stop-color:#181818;stop-opacity:0"
         id="stop3228" />
      <stop
         offset="0.5"
         style="stop-color:#181818;stop-opacity:1"
         id="stop3230" />
      <stop
         offset="1"
         style="stop-color:#181818;stop-opacity:0"
         id="stop3232" />
    </linearGradient>
    <linearGradient
       gradientUnits="userSpaceOnUse"
       xlink:href="#linearGradient3702-501-757-6-946"
       id="linearGradient4395"
       y2="39.999443"
       x2="25.058096"
       y1="47.027729"
       x1="25.058096" />
    <linearGradient
       gradientTransform="translate(-16.076816,-9.0236427)"
       gradientUnits="userSpaceOnUse"
       xlink:href="#linearGradient3851"
       id="linearGradient3857"
       y2="44.858185"
       x2="0.85715157"
       y1="5.7142859"
       x1="0.85715157" />
    <linearGradient
       id="linearGradient665">
      <stop
         id="stop666"
         offset="0.00000000"
         style="stop-color:#ffffff;stop-opacity:0.285714;" />
      <stop
         id="stop667"
         offset="1.00000000"
         style="stop-color:#daecf8;stop-opacity:1;" />
    </linearGradient>
    <linearGradient
       id="linearGradient624">
      <stop
         id="stop625"
         offset="0.00000000"
         style="stop-color:#b9e5ff;stop-opacity:0.419643;" />
      <stop
         id="stop626"
         offset="1.00000000"
         style="stop-color:#ffffff;stop-opacity:1;" />
    </linearGradient>
    <linearGradient
       id="linearGradient619">
      <stop
         id="stop620"
         offset="0.00000000"
         style="stop-color:#66b8ff;stop-opacity:1;" />
      <stop
         id="stop621"
         offset="1.00000000"
         style="stop-color:#00507a;stop-opacity:1;" />
    </linearGradient>
    <linearGradient
       id="linearGradient604">
      <stop
         id="stop605"
         offset="0.00000000"
         style="stop-color:#838383;stop-opacity:1;" />
      <stop
         id="stop606"
         offset="1.00000000"
         style="stop-color:#2c2c2c;stop-opacity:1;" />
    </linearGradient>
    <linearGradient
       id="linearGradient598">
      <stop
         id="stop599"
         offset="0.00000000"
         style="stop-color:#e1dedd;stop-opacity:0.866071;" />
      <stop
         id="stop600"
         offset="1.00000000"
         style="stop-color:#2c2c2c;stop-opacity:1;" />
    </linearGradient>
    <linearGradient
       id="linearGradient593">
      <stop
         id="stop594"
         offset="0.00000000"
         style="stop-color:#fff9db;stop-opacity:0.732143;" />
      <stop
         id="stop595"
         offset="1.00000000"
         style="stop-color:#2c2c2c;stop-opacity:1;" />
    </linearGradient>
    <linearGradient
       id="linearGradient586">
      <stop
         id="stop587"
         offset="0.00000000"
         style="stop-color:#6e6969;stop-opacity:1;" />
      <stop
         id="stop588"
         offset="1.00000000"
         style="stop-color:#2c2c2c;stop-opacity:1;" />
    </linearGradient>
    <linearGradient
       id="linearGradient578">
      <stop
         id="stop579"
         offset="0.00000000"
         style="stop-color:#fff2bc;stop-opacity:1;" />
      <stop
         id="stop580"
         offset="1.00000000"
         style="stop-color:#83560b;stop-opacity:1;" />
    </linearGradient>
    <linearGradient
       y2="279.76099"
       x2="656.45555"
       y1="231.00583"
       x1="596.05675"
       id="linearGradient581"
       xlink:href="#linearGradient578"
       gradientTransform="matrix(0.04557033,0,0,0.07062133,3.1833797,1.0604886)"
       gradientUnits="userSpaceOnUse" />
    <radialGradient
       fy="0.50000000"
       fx="0.50000000"
       r="0.50000000"
       cy="0.50000000"
       cx="0.50000000"
       id="radialGradient582"
       xlink:href="#linearGradient578" />
    <linearGradient
       y2="264.66051"
       x2="908.4478"
       y1="160.6253"
       x1="779.71681"
       id="linearGradient590"
       xlink:href="#linearGradient593"
       gradientTransform="matrix(0.74212107,0,0,1.347489,-928.13501,-522.70223)"
       gradientUnits="userSpaceOnUse" />
    <linearGradient
       y2="0.53906250"
       x2="0.31958762"
       y1="0.49218750"
       x1="0.19587629"
       id="linearGradient592"
       xlink:href="#linearGradient586" />
    <linearGradient
       y2="0.38281250"
       x2="0.66666669"
       y1="0.25781250"
       x1="0.49333334"
       id="linearGradient597"
       xlink:href="#linearGradient598" />
    <linearGradient
       y2="0.10937500"
       x2="0.43835616"
       y1="0.37500000"
       x1="0.83076924"
       id="linearGradient603"
       xlink:href="#linearGradient604" />
    <linearGradient
       y2="0.92968750"
       x2="0.97674412"
       y1="0.37500000"
       x1="0.41085270"
       id="linearGradient618"
       xlink:href="#linearGradient665" />
    <linearGradient
       y2="425.86215"
       x2="411.61445"
       y1="74.221018"
       x1="273.65717"
       id="linearGradient623"
       xlink:href="#linearGradient624"
       gradientTransform="matrix(0.04064714,0,0,0.07917501,2.833117,1.2356199)"
       gradientUnits="userSpaceOnUse" />
    <linearGradient
       y2="598.45589"
       x2="332.64537"
       y1="-72.169076"
       x1="34.350778"
       id="linearGradient664"
       xlink:href="#linearGradient619"
       gradientUnits="userSpaceOnUse"
       gradientTransform="matrix(0.832278,0,0,0.846654,-1182.4079,-22.878397)" />
  </defs>
  <metadata
     id="metadata4036">
    <rdf:RDF>
      <cc:Work
         rdf:about="">
        <dc:format>image/svg+xml</dc:format>
        <dc:type
           rdf:resource="http://purl.org/dc/dcmitype/StillImage" />
        <dc:title />
      </cc:Work>
    </rdf:RDF>
  </metadata>
  <path
     d="m 40.999999,41.499999 a 17,5.4999999 0 1 1 -33.999999,0 17,5.4999999 0 1 1 33.999999,0 z"
     id="path3818-0-5"
     style="fill:url(#radialGradient3018);fill-opacity:1;stroke:none" />
  <path
     d="M 24.000003,3.4999982 C 12.68881,3.4999982 3.4999996,12.688804 3.4999996,23.999998 3.4999996,35.311192 12.68881,44.500003 24.000003,44.5 35.311191,44.5 44.500011,35.311192 44.5,23.999998 44.5,12.688804 35.311191,3.4999982 24.000003,3.4999982 z"
     id="path2555"
     style="color:#000000;fill:url(#radialGradient3015);fill-opacity:1;fill-rule:nonzero;stroke:none;stroke-width:1;marker:none;visibility:visible;display:inline;overflow:visible;enable-background:accumulate" />
  <g
     style="fill:none;fill-opacity:1;stroke:#000000;stroke-opacity:1;stroke-width:11.21847526;stroke-miterlimit:4;stroke-dasharray:none;stroke-linejoin:round;stroke-linecap:round"
     id="g4283"
     transform="matrix(0.09176443,0,0,0.08658805,9.9737525,15.984183)">
    <g
       style="display:inline;fill:none;fill-opacity:1;stroke:#000000;stroke-opacity:1;stroke-width:11.21847526;stroke-miterlimit:4;stroke-dasharray:none;stroke-linejoin:round;stroke-linecap:round"
       id="g4285"
       transform="translate(-92,-63.999774)">
      <g
         style="fill:none;fill-opacity:1;stroke:#000000;stroke-opacity:1;stroke-width:11.21847526;stroke-miterlimit:4;stroke-dasharray:none;stroke-linejoin:round;stroke-linecap:round"
         id="g4287">
        <path
           style="color:#000000;font-style:normal;font-variant:normal;font-weight:normal;font-stretch:normal;font-size:medium;line-height:normal;font-family:sans-serif;text-indent:0;text-align:start;text-decoration:none;text-decoration-line:none;text-decoration-style:solid;text-decoration-color:#000000;letter-spacing:normal;word-spacing:normal;text-transform:none;direction:ltr;block-progression:tb;writing-mode:lr-tb;baseline-shift:baseline;text-anchor:start;white-space:normal;clip-rule:nonzero;display:inline;overflow:visible;visibility:visible;opacity:0.15;isolation:auto;mix-blend-mode:normal;color-interpolation:sRGB;color-interpolation-filters:linearRGB;solid-color:#000000;solid-opacity:1;fill:#000000;fill-opacity:1;fill-rule:nonzero;stroke:none;stroke-width:0.99999994;stroke-linecap:round;stroke-linejoin:round;stroke-miterlimit:4;stroke-dasharray:none;stroke-dashoffset:0;stroke-opacity:1;color-rendering:auto;image-rendering:auto;shape-rendering:auto;text-rendering:auto;enable-background:accumulate"
           d="m 290.37597,58.407969 a 5.449279,5.7750461 0 0 0 -3.10748,0.992481 c -6.48322,4.67076 -12.64782,9.759106 -18.15536,15.49633 a 5.449279,5.7750461 0 0 0 -9.27987,0.135342 c -0.26963,0.480424 -0.24699,1.006825 -0.51082,1.488727 l -0.0639,-0.02255 -0.17027,0.631589 c -5.66351,10.454145 -8.92125,21.308194 -11.23801,32.188147 l -4.32068,-2.88723 a 5.449279,5.7750461 0 0 0 -6.10854,0.203 l -1.76658,1.35339 a 5.449279,5.7750461 0 0 0 -1.51118,7.60156 c 4.01411,7.2243 4.57262,12.00414 4.19297,14.84218 -0.37964,2.83805 -1.6306,4.16295 -2.59666,4.8271 a 5.449279,5.7750461 0 0 0 -0.0213,0.0226 c -8.56629,5.93022 -21.51764,13.32194 -29.07411,21.18056 -0.008,0.008 -0.0132,0.0143 -0.0213,0.0226 -0.006,0.007 -0.015,0.016 -0.0213,0.0225 -13.25017,13.56489 -17.62424,28.25782 -16.4739,45.2935 4.5e-4,0.008 -4.6e-4,0.015 0,0.0225 1.40306,23.22069 18.1126,42.08269 39.84387,49.37623 a 5.449279,5.7750461 0 0 0 0.0213,0.0225 c 9.50509,3.12016 18.2472,3.51882 27.41395,3.51882 15.38159,0 31.40987,-3.95246 43.52602,-14.07526 12.72848,-10.60707 20.39019,-26.57256 20.39019,-43.33108 0,-16.72943 -7.04054,-32.54705 -19.24084,-43.69197 a 5.449279,5.7750461 0 0 0 -0.0213,-0.0226 c -6.4532,-5.85216 -14.13318,-10.36129 -21.85878,-14.63918 0.79904,0.46304 0.63672,0.52237 0.36182,0.13534 -0.28936,-0.40739 -0.76425,-1.17056 -1.25575,-2.09776 -0.98302,-1.85438 -2.12709,-4.38771 -3.17134,-6.90229 -2.0885,-5.02916 -3.78857,-9.90231 -3.78857,-9.90231 a 5.449279,5.7750461 0 0 0 -2.10713,-2.79701 c 9.52089,-13.64144 20.09373,-27.311029 34.39514,-40.060375 a 5.449279,5.7750461 0 0 0 -5.17205,-9.924869 c -2.47255,0.841225 -4.66527,2.372487 -7.06632,3.406036 0.7952,-0.941631 1.14542,-1.807743 1.95813,-2.751904 a 5.449279,5.7750461 0 0 0 -3.98012,-9.676739 z M 99.946953,81.505845 c -2.740886,0 -5.585283,0.374358 -8.300806,2.165425 -2.715524,1.791056 -4.811102,5.614632 -4.810212,9.383513 l 0,29.030237 c 0,7.53741 6.114337,13.42113 13.111018,13.42113 l 24.732147,0 0,106.35398 c 0,6.69455 5.43248,12.06774 11.59984,12.06774 l 37.2685,0 c 6.16717,0 11.74883,-5.20085 11.74883,-12.06774 l 0,-105.97052 c 0,-0.28078 -0.0365,-0.0489 -0.0639,-0.0226 -0.0274,0.0263 0.30129,-0.3609 1.85172,-0.3609 l 22.51859,0 c 6.95176,0 13.45157,-5.4226 13.45157,-13.42113 l 0,-29.030237 c 0,-3.999271 -2.42521,-7.786629 -5.17204,-9.473744 -2.74684,-1.687104 -5.58698,-2.075194 -8.27953,-2.075194 l -109.655777,0 z m 0,11.548938 109.655777,0 c 1.27604,0 2.19447,0.310285 2.5541,0.473679 l 0,28.556558 c 0,0.46946 -1.31385,1.87219 -2.5541,1.87219 l -22.51859,0 c -3.50357,0 -6.79126,1.05261 -9.17346,3.33837 -2.3822,2.28576 -3.51188,5.5968 -3.51188,8.59403 l 0,105.97052 c 0,0.23515 -0.19053,0.51881 -0.85136,0.51881 l -37.2685,0 c -0.66263,0 -0.70237,-0.11132 -0.70237,-0.51881 l 0,-106.94045 c 0,-3.50591 -1.76716,-6.56274 -3.83114,-8.32335 -2.06399,-1.76061 -4.36781,-2.63912 -6.93863,-2.63912 l -24.859847,0 c -1.47132,0 -2.213549,-0.94162 -2.213549,-1.87219 l 0,-28.646778 c 0.248734,-0.100049 0.906995,-0.383459 2.213549,-0.383459 z M 263.9198,100.99468 a 5.449279,5.7750461 0 0 0 4.8315,1.15038 c -3.61117,4.69093 -8.77326,9.08491 -11.87654,13.82715 0.67305,-4.26993 3.20101,-8.69534 4.59737,-13.06024 a 5.449279,5.7750461 0 0 0 2.44767,-1.91729 z m 117.38192,18.18054 c -1.86222,3e-5 -4.38984,0.19821 -5.55515,0.3158 -26.96683,2.72421 -48.54014,24.51137 -50.76263,52.06045 -0.26244,1.80912 -0.2576,3.30151 -0.21284,4.69176 l 0,66.58684 c 0,6.6232 5.52205,10.82713 11.19545,10.82713 l 34.82082,0 c 5.6734,0 11.19545,-4.20393 11.19545,-10.82713 l 0,-58.60184 c 0,-1.5438 0.4192,-2.70104 1.78786,-3.87971 1.36866,-1.17869 3.98846,-2.36845 8.47108,-2.36845 1.6424,0 3.08843,-0.0792 4.68251,-0.58647 1.59407,-0.50722 3.47653,-1.75643 4.53351,-3.49625 2.11397,-3.47966 1.40475,-5.84065 1.40475,-7.96245 l 0,-34.69194 c 0,-6.82638 -5.52504,-12.06774 -11.85525,-12.06774 l -9.70556,0 z m -126.89592,2.79702 a 5.449279,5.7750461 0 0 0 4.55481,4.80454 c 1.71025,0.27724 3.01623,0.46239 4.40581,0.67669 0.67221,1.85867 1.24726,3.54639 2.80951,7.30832 1.12565,2.71061 2.35503,5.49414 3.63958,7.91734 0.64227,1.21159 1.27657,2.334 2.02199,3.38348 0.74542,1.04946 1.41791,2.09451 3.23518,3.11279 a 5.449279,5.7750461 0 0 0 0.0213,0.0226 c 7.55616,4.18315 14.61966,8.429 19.90065,13.21812 9.9109,9.06542 15.43099,21.61143 15.43099,34.91749 0,13.01346 -6.00298,25.75042 -16.21851,34.26336 -9.46183,7.90518 -23.22781,11.59405 -36.80023,11.59405 -8.86126,0 -16.20385,-0.40474 -24.17876,-3.02258 -18.12414,-6.09489 -31.18164,-21.35721 -32.24544,-39.09045 a 5.449279,5.7750461 0 0 0 0,-0.0677 c -1.01724,-14.87135 1.68703,-24.44383 13.23872,-36.24833 a 5.449279,5.7750461 0 0 0 0.0426,-0.0451 c 5.28028,-5.50571 18.21876,-13.41052 27.39266,-19.75951 l 0.0213,-0.0226 c 3.39731,-2.34451 6.62953,-6.75051 7.44944,-12.87977 0.36352,-2.71743 -1.82207,-6.6537 -2.46895,-9.87976 l 0.9365,0.63159 a 5.449279,5.7750461 0 0 0 6.81091,-0.83459 z m 126.89592,8.75192 9.70556,0 c 0.77178,0 0.95778,0.51721 0.95778,0.5188 l 0,34.69194 c 0,0.76247 0.15561,0.12729 0.10643,0.54136 -6.21438,0.0364 -11.42905,1.66827 -15.17558,4.89476 -3.78793,3.26213 -5.81056,8.11902 -5.81056,12.85721 l 0,58.60184 c 0,-1.15921 0.31062,-0.72181 -0.29798,-0.72181 l -34.82082,0 c -0.6086,0 -0.29798,-0.4374 -0.29798,0.72181 l 0,-66.78985 a 5.449279,5.7750461 0 0 0 0,-0.20302 c -0.0276,-0.85822 0.092,-2.80883 0.0639,-2.63911 a 5.449279,5.7750461 0 0 0 0.0639,-0.5188 c 1.68619,-21.80057 18.84011,-39.44867 40.97192,-41.68444 0.48269,-0.0487 3.76659,-0.27068 4.53352,-0.27069 z"
           id="path4289"
           inkscape:connector-curvature="0" />
      </g>
      <g
         style="display:inline;fill:none;fill-opacity:1;stroke:#000000;stroke-opacity:1;stroke-width:11.21847526;stroke-miterlimit:4;stroke-dasharray:none;stroke-linejoin:round;stroke-linecap:round"
         id="g4296" />
    </g>
  </g>
  <g
     transform="matrix(0.09176443,0,0,0.08658805,9.9737525,15.984183)"
     id="g4317"
     style="fill:none;fill-opacity:1;stroke:#000000;stroke-opacity:1;stroke-width:22.43695053;stroke-miterlimit:4;stroke-dasharray:none;stroke-linejoin:round;stroke-linecap:round">
    <g
       transform="translate(-92,-63.999774)"
       id="g4319"
       style="display:inline;fill:none;fill-opacity:1;stroke:#000000;stroke-opacity:1;stroke-width:22.43695053;stroke-miterlimit:4;stroke-dasharray:none;stroke-linejoin:round;stroke-linecap:round">
      <g
         id="g4321"
         style="fill:none;fill-opacity:1;stroke:#000000;stroke-opacity:1;stroke-width:22.43695053;stroke-miterlimit:4;stroke-dasharray:none;stroke-linejoin:round;stroke-linecap:round">
        <path
           style="color:#000000;font-style:normal;font-variant:normal;font-weight:normal;font-stretch:normal;font-size:medium;line-height:normal;font-family:sans-serif;text-indent:0;text-align:start;text-decoration:none;text-decoration-line:none;text-decoration-style:solid;text-decoration-color:#000000;letter-spacing:normal;word-spacing:normal;text-transform:none;direction:ltr;block-progression:tb;writing-mode:lr-tb;baseline-shift:baseline;text-anchor:start;white-space:normal;clip-rule:nonzero;display:inline;overflow:visible;visibility:visible;opacity:0.15;isolation:auto;mix-blend-mode:normal;color-interpolation:sRGB;color-interpolation-filters:linearRGB;solid-color:#000000;solid-opacity:1;fill:#000000;fill-opacity:1;fill-rule:nonzero;stroke:none;stroke-width:2;stroke-linecap:round;stroke-linejoin:round;stroke-miterlimit:4;stroke-dasharray:none;stroke-dashoffset:0;stroke-opacity:1;color-rendering:auto;image-rendering:auto;shape-rendering:auto;text-rendering:auto;enable-background:accumulate"
           d="m 290.43982,52.6335 a 10.898559,11.550093 0 0 0 -6.23624,2.007528 c -5.31791,3.831222 -10.27464,8.286236 -15.11173,12.879769 a 10.898559,11.550093 0 0 0 -13.9411,4.556425 c -0.53631,0.955594 -0.52792,2.037314 -1.04292,3.00001 l -0.12771,-0.06766 -0.38311,1.556393 c -4.07571,7.811101 -6.0752,16.058763 -8.4498,24.24827 a 10.898559,11.550093 0 0 0 -10.91875,1.12782 l -1.76658,1.35338 a 10.898559,11.550093 0 0 0 -3.95885,5.75192 l 0,-15.992567 c 0,-5.881528 -3.89144,-11.998874 -7.89641,-14.458728 -4.00496,-2.459855 -7.6668,-2.864679 -11.00389,-2.864679 l -109.655777,0 c -3.364272,0 -7.129436,0.377373 -11.174163,3.045131 -4.044726,2.667747 -7.38687,8.857504 -7.385589,14.278276 l 0,29.030237 c 0,10.84083 8.800389,19.1956 18.559752,19.1956 l 19.283417,0 0,100.57951 c 0,9.83809 8.12884,17.84221 17.04857,17.84221 l 37.2685,0 c 8.92034,0 17.19757,-7.65946 17.19757,-17.84221 l 0,-18.15799 c 7.47239,15.46911 21.09849,27.47314 37.56647,33.00019 a 10.898559,11.550093 0 0 0 0.0851,0.0226 c 10.27018,3.37129 19.69077,3.78949 29.01026,3.78949 16.27997,0 33.44788,-4.09397 46.88891,-15.31587 6.37052,-5.30877 11.22167,-12.11153 15.02659,-19.42117 l 0,17.05273 c 0,10.51441 8.43838,16.6016 16.64418,16.6016 l 34.82082,0 c 8.2058,0 16.64418,-6.08719 16.64418,-16.6016 l 0,-58.06048 c 0.24664,-0.19275 1.39079,-1.01505 4.81021,-1.01505 1.91904,0 3.78906,-0.0559 6.23625,-0.83458 2.44719,-0.77869 5.74697,-2.93231 7.55586,-5.90981 3.61779,-5.95501 2.2774,-9.08514 2.2774,-11.07525 l 0,-34.69194 c 0,-10.23878 -8.19457,-17.84219 -17.30399,-17.84221 l -9.70556,0 c -2.40986,3e-5 -4.58064,0.18632 -6.08726,0.33835 -28.80337,2.90975 -51.92657,25.99859 -55.18972,55.55671 -3.57235,-7.44616 -8.23121,-14.40593 -14.38805,-20.03019 a 10.898559,11.550093 0 0 0 -0.0213,-0.0226 c -6.4603,-5.85859 -13.81185,-10.06842 -21.00742,-14.09782 -0.15773,-0.25532 -0.28103,-0.43361 -0.55338,-0.94738 -0.83225,-1.56997 -1.93367,-4.01205 -2.93721,-6.42861 -2.0071,-4.83311 -3.66087,-9.56396 -3.66087,-9.56396 a 10.898559,11.550093 0 0 0 -0.19156,-0.49625 c 8.85529,-12.20049 18.01429,-24.460164 30.88325,-35.932533 A 10.898559,11.550093 0 0 0 300.89033,61.407978 10.898559,11.550093 0 0 0 290.43982,52.6335 Z m -187.25768,46.195752 103.52595,0 0,19.353488 -19.62395,0 c -4.48015,0 -9.24733,1.38532 -12.83433,4.8271 -3.587,3.44178 -5.29974,8.52432 -5.29974,12.87977 l 0,100.71486 -27.92477,0 0,-101.68479 c 0,-5.37282 -2.76529,-10.17813 -5.85313,-12.8121 -3.08784,-2.63398 -6.38424,-3.92484 -10.36537,-3.92484 l -21.62466,0 0,-19.353488 z m 125.32089,17.391068 a 10.898559,11.550093 0 0 0 0.95779,2.30077 c 3.58921,6.45961 3.64927,9.91166 3.49059,11.0978 -0.15867,1.18616 -0.44494,0.96369 -0.19155,0.78949 a 10.898559,11.550093 0 0 0 -0.0213,0.0225 c -8.26984,5.725 -21.22037,12.86855 -29.90418,21.90238 -5.76044,5.89719 -9.12059,12.52445 -12.08938,19.21816 l 0,-30.27085 18.85772,0 c 9.80752,0 18.9003,-7.43253 18.9003,-19.1956 l 0,-5.8647 z m 25.54095,14.66174 a 10.898559,11.550093 0 0 0 4.10783,1.60151 c 0.51038,0.0827 0.87245,0.12705 1.3409,0.20301 0.69095,1.82793 0.73583,2.12147 1.68145,4.39853 1.16636,2.80863 2.45968,5.72853 3.89499,8.43613 0.71766,1.35381 1.45294,2.64455 2.42639,4.01507 0.97344,1.3705 1.83655,2.96198 5.04433,4.75942 a 10.898559,11.550093 0 0 0 0.0426,0.0225 c 7.46432,4.13232 14.16877,8.22152 18.85773,12.47376 8.77326,8.02615 13.53671,18.94182 13.53671,30.54153 0,11.14093 -5.17361,22.26362 -14.13266,29.72949 a 10.898559,11.550093 0 0 0 -0.0213,0 c -8.13468,6.79637 -20.74823,10.35345 -33.41606,10.35345 -8.67518,0 -15.3193,-0.38678 -22.49732,-2.72934 -0.0101,-0.003 -0.0112,-0.0192 -0.0213,-0.0226 -16.32397,-5.49075 -27.55765,-18.95783 -28.45687,-33.94756 a 10.898559,11.550093 0 0 0 0,-0.11277 c -0.94147,-13.76369 0.8829,-20.76138 11.55728,-31.66936 a 10.898559,11.550093 0 0 0 0.0851,-0.0902 c 4.14817,-4.32526 17.09222,-12.48308 26.56258,-19.03771 l 0.0213,-0.0226 c 4.61596,-3.18288 8.83488,-9.13579 9.87583,-16.91739 0.0795,-0.59404 -0.53304,-1.37978 -0.48953,-1.98497 z m 127.25774,5.61657 5.21461,0 0,26.05279 c -4.67943,0.84895 -9.57303,1.3615 -13.04716,4.3534 -4.99756,4.30387 -7.83256,10.98802 -7.83256,17.32341 l 0,52.10556 -24.5193,0 0,-60.29357 a 10.898559,11.550093 0 0 0 0,-0.38346 c -0.0175,-0.54205 0.18684,-2.69797 -0.0213,-1.44362 a 10.898559,11.550093 0 0 0 0.12769,-1.06016 c 1.46039,-18.88115 16.39343,-34.41782 36.07659,-36.40622 0.14136,-0.0143 3.78214,-0.24812 4.00141,-0.24813 z m -61.66009,33.69944 c -0.0575,0.34661 -6.2e-4,0.39363 -0.0426,0.69926 -0.0106,0.1275 -0.0753,0.23317 -0.0851,0.3609 l 0.1277,-1.06016 z"
           id="path4323"
           inkscape:connector-curvature="0" />
      </g>
      <g
         id="g4325"
         style="display:inline;fill:none;fill-opacity:1;stroke:#000000;stroke-opacity:1;stroke-width:22.43695053;stroke-miterlimit:4;stroke-dasharray:none;stroke-linejoin:round;stroke-linecap:round" />
    </g>
  </g>
  <path
     d="m 43.5,23.999308 c 0,10.7699 -8.73109,19.50069 -19.499753,19.50069 -10.769649,0 -19.5002474,-8.730889 -19.5002474,-19.50069 0,-10.769402 8.7305984,-19.4993078 19.5002474,-19.4993078 C 34.76891,4.5000002 43.5,13.229906 43.5,23.999308 l 0,0 z"
     id="path8655"
     style="opacity:0.5;color:#000000;fill:none;stroke:url(#linearGradient3012);stroke-width:1;stroke-linecap:round;stroke-linejoin:round;stroke-miterlimit:4;stroke-opacity:1;stroke-dasharray:none;stroke-dashoffset:0;marker:none;visibility:visible;display:inline;overflow:visible;enable-background:accumulate" />
  <g
     transform="matrix(0.09176443,0,0,0.08658805,9.9729294,15.984068)"
     id="g4277"
     style="fill:#ffffff;fill-opacity:1">
    <g
       transform="translate(-92,-63.999774)"
       id="g4279"
       style="display:inline;fill:#ffffff;fill-opacity:1">
      <g
         id="g4281"
         style="fill:#ffffff;fill-opacity:1">
        <path
           inkscape:connector-curvature="0"
           d="m 264.513,77.977773 -4.917,19.529001 c 6.965,-13.793001 18.027,-24.172001 30.729,-33.323001 -9.287,10.789 -17.754,21.579001 -22.944,32.368001 8.741,-12.292001 20.486,-19.120001 33.733,-23.627001 -17.618,15.706001 -31.60228,32.559277 -42.25528,49.494277 l -8.467,-3.687 c 1.501,-13.521 6.60928,-27.369276 14.12128,-40.754277 z"
           id="path4283"
           style="fill:#abcd03;fill-opacity:1" />
        <path
           inkscape:connector-curvature="0"
           d="m 241.90113,115.14152 16.116,6.68594 c 0,4.098 -0.33313,16.59703 2.22938,20.28403 26.80289,34.5191 22.29349,103.71329 -5.42951,105.48829 -42.21656,0 -58.317,-28.679 -58.317,-55.03801 0,-24.037 28.816,-40.016 46.025,-54.219 4.37,-3.824 3.61113,-12.27525 -0.62387,-23.20125 z"
           id="path4285"
           style="fill:#ff8f00;fill-opacity:1" />
        <path
           inkscape:connector-curvature="0"
           d="m 258.02197,121.58695 5.80803,2.96282 c -0.546,3.823 0.273,12.292 4.096,14.476 16.936,10.516 32.914,21.988 39.197,33.46 22.398,40.42601 -15.706,77.84601 -48.62,74.29501 17.891,-13.248 23.081,-40.42501 16.389,-70.06201 -2.731,-11.609 -6.966,-22.125 -14.478,-34.007 -3.25421,-5.83246 -2.11803,-13.06582 -2.39203,-21.12482 z"
           id="path4287"
           style="fill:#ff8f00;fill-opacity:1" />
      </g>
      <g
         id="g4289"
         style="display:inline;fill:#ffffff;fill-opacity:1">
        <path
           inkscape:connector-curvature="0"
           d="m 255.226,120.58877 12.018,1.639 c -3.551,11.745 6.966,19.939 10.38,21.852 7.64801,4.234 15.02301,8.604 20.89601,13.93 11.063,10.106 17.345,24.31 17.345,39.333 0,14.886 -6.829,29.226 -18.301,38.786 -10.789,9.014 -25.67501,12.838 -40.15201,12.838 -9.014,0 -17.072,-0.409 -25.812,-3.278 -19.939,-6.692 -34.826,-23.763 -36.055,-44.25 -1.093,-15.979 2.458,-28.134 14.887,-40.835 6.418,-6.692 19.393,-14.34 28.271,-20.486 4.371,-3.005 9.014,-11.473 0.136,-27.451 l 1.776,-1.366 13.15659,8.81203 -11.10759,-4.57803 c 0.956,1.366 3.551,7.512 4.098,9.287 1.229,5.053 0.683,9.971 -0.41,12.155 -5.599,10.107 -15.159,12.838 -22.124,18.574 -12.292,10.106 -25.676,18.164 -24.174,45.888 0.683,13.657 11.336,30.319 27.314,38.104 9.014,4.371 19.394,6.146 29.91,6.692 9.423,0.41 27.45101,-5.19 37.28401,-13.384 10.516,-8.74 16.389,-21.988 16.389,-35.508 0,-13.658 -5.463,-26.632 -15.706,-35.783 -5.873,-5.326 -15.56901,-11.745 -21.57801,-15.16 -6.009,-3.414 -13.521,-12.974 -11.063,-22.124 z"
           id="path4291"
           style="fill:#ffffff;fill-opacity:1" />
        <path
           inkscape:connector-curvature="0"
           d="m 251.539,140.80177 c -1.229,6.283 -2.595,17.618 -8.058,21.852 -2.322,1.638 -4.644,3.278 -7.102,4.916 -9.833,6.693 -19.667,12.974 -24.173,29.09 -0.956,3.415 -0.136,7.102 0.684,10.516 2.458,9.833 9.423,20.486 14.886,26.769 0,0.273 1.093,0.956 1.093,1.229 4.507,5.327 5.873,6.829 22.944,10.652 l -0.41,1.913 c -10.243,-2.731 -18.71,-5.189 -24.037,-11.336 0,-0.136 -0.956,-1.093 -0.956,-1.093 -5.736,-6.556 -12.702,-17.481 -15.296,-27.724 -0.956,-4.098 -1.775,-7.238 -0.683,-11.473 4.643,-16.661 14.75,-23.217 24.993,-30.182 2.322,-1.502 5.053,-2.869 7.238,-4.644 4.233,-3.14 6.554,-12.701 8.877,-20.485 z"
           id="path4293"
           style="fill:#ffffff;fill-opacity:1" />
        <path
           inkscape:connector-curvature="0"
           d="m 255.90625,166.74951 c 0.137,7.102 -0.55625,10.66475 1.21875,15.71875 1.092,3.004 4.782,7.1015 5.875,11.0625 1.502,5.327 3.138,11.19901 3,14.75001 0,4.09799 -0.25625,11.74249 -2.03125,19.93749 -1.35362,6.77108 -4.47323,12.58153 -9.71875,15.875 -5.37327,-1.10644 -11.68224,-2.99521 -15.40625,-6.1875 -7.238,-6.282 -13.64875,-16.7865 -14.46875,-25.9375 -0.682,-7.51099 6.27275,-18.5885 15.96875,-24.1875 8.194,-4.78 10.1,-10.22775 11.875,-18.96875 -2.458,7.648 -4.7665,14.05925 -12.6875,18.15625 -11.472,6.009 -17.3585,16.09626 -16.8125,25.65625 0.819,12.291 5.7415,20.6195 15.4375,27.3125 4.097,2.868 11.75125,5.89875 16.53125,6.71875 l 0,-0.625 c 3.62493,-0.67888 8.31818,-6.63267 10.65625,-14.6875 2.049,-7.238 2.85675,-16.502 2.71875,-22.37499 -0.137,-3.414 -1.643,-10.80801 -4.375,-17.50001 -1.502,-3.687 -3.8095,-7.37375 -5.3125,-9.96875 -1.637,-2.597 -1.64875,-8.195 -2.46875,-14.75 z"
           id="path4295"
           style="fill:#ffffff;fill-opacity:1" />
        <path
           inkscape:connector-curvature="0"
           d="m 255.09375,193.53076 c 0.136,4.78 2.056,10.90451 2.875,17.18751 0.684,4.64399 0.387,9.30824 0.25,13.40624 -0.13495,4.74323 -1.7152,13.24218 -3.875,17.375 -2.03673,-0.93403 -2.83294,-1.99922 -4.15625,-3.71875 -1.638,-2.322 -2.75075,-4.644 -3.84375,-7.375 -0.819,-2.049 -1.7765,-4.394 -2.1875,-7.125 -0.546,-4.097 -0.393,-10.5065 4.25,-17.06249 3.551,-5.19001 4.36475,-5.58476 5.59375,-11.59376 -1.64,5.326 -2.8625,5.869 -6.6875,10.37501 -4.233,4.917 -4.9375,12.15924 -4.9375,18.03124 0,2.459 0.9805,5.18725 1.9375,7.78125 1.092,2.732 2.02925,5.452 3.53125,7.5 2.25796,3.32082 5.14798,5.20922 6.5625,5.5625 0.009,0.002 0.022,-0.002 0.0312,0 0.0303,0.007 0.0649,0.0255 0.0937,0.0312 l 0,-0.15625 c 2.64982,-2.95437 4.24444,-5.88934 4.78125,-8.84375 0.683,-3.551 0.84,-7.10975 1.25,-11.34375 0.409,-3.551 0.11225,-8.334 -0.84375,-13.24999 -1.365,-6.146 -3.669,-12.41226 -4.625,-16.78126 z"
           id="path4297"
           style="fill:#ffffff;fill-opacity:1" />
        <path
           inkscape:connector-curvature="0"
           d="m 255.499,135.06577 c 0.137,7.101 0.683,20.35 2.595,25.539 0.546,1.775 5.599,9.56 9.149,18.983 2.459,6.556 3.005,12.565 3.415,14.34 1.639,7.785 -0.41,20.896 -3.142,33.324 -1.365,6.692 -6.009,15.023 -11.335,18.301 l -1.092,1.912 c 3.005,-0.137 10.379,-7.375 12.974,-16.389 4.371,-15.296 6.146,-22.398 4.098,-39.333 -0.273,-1.64 -0.956,-7.238 -3.551,-13.248 -3.824,-9.151 -9.287,-17.891 -9.969,-19.667 -1.23,-2.867 -2.869,-15.295 -3.142,-23.762 z"
           id="path4299"
           style="fill:#ffffff;fill-opacity:1" />
        <path
           inkscape:connector-curvature="0"
           d="m 258.06151,125.35303 c -0.40515,7.29812 -0.51351,9.98574 0.85149,15.31174 1.502,5.873 9.151,14.34 12.292,24.037 6.009,18.574 4.507,42.884 0.136,61.867 -1.638,6.691 -9.424,16.389 -17.208,19.529 l 5.736,1.366 c 3.141,-0.137 11.198,-7.648 14.34,-16.252 5.052,-13.521 6.009,-29.636 3.96,-46.571 -0.137,-1.639 -2.869,-16.252 -5.463,-22.398 -3.688,-9.15 -10.244,-17.345 -10.926,-19.119 -1.228,-3.005 -3.92651,-9.24362 -3.71849,-17.77074 z"
           id="path4301"
           style="fill:#ffffff;fill-opacity:1" />
        <rect
           width="0.550412"
           height="126.01891"
           x="253.71959"
           y="120.21686"
           id="rect4303"
           style="fill:#ffffff;fill-opacity:1" />
      </g>
    </g>
    <path
       inkscape:connector-curvature="0"
       d="m 7.9430002,23.281873 109.6679998,0 c 4.096,0 8.00489,1.540469 8.00489,5.774469 l 0,29.033655 c 0,4.234 -3.90889,7.649 -8.00489,7.649 l -22.534,0 c -5.054,0 -7.239,2.867 -7.239,6.145 l 0,105.980013 c 0,3.551 -2.868,6.282 -6.282,6.282 l -37.284,0 c -3.415,0 -6.146,-2.731 -6.146,-6.282 l 0,-106.935013 c 0,-3.278 -3.005,-5.189 -5.326,-5.189 l -24.8569998,0 c -4.234,0 -7.64799997,-3.415 -7.64799997,-7.649 l 0,-29.034655 c -0.001,-4.234 3.41299997,-5.774469 7.64799997,-5.774469 z"
       id="path4305"
       style="fill:#ffffff;fill-opacity:1"
       sodipodi:nodetypes="ssssssssssssssscs" />
    <path
       inkscape:connector-curvature="0"
       d="m 289.30687,60.958997 9.696,0 c 3.551,0 6.419,2.868 6.419,6.282 l 0,34.690003 c 0,4.507 0.273,6.282 -5.19,6.282 -10.789,0 -15.705,5.736 -15.705,12.018 l 0,58.58901 c 0,2.732 -2.595,5.053 -5.736,5.053 l -34.827,0 c -3.141,0 -5.736,-2.321 -5.736,-5.053 l 0,-66.78401 c -0.0378,-1.17441 -0.0148,-2.9081 0.137,-3.823 1.912,-24.720003 21.30753,-44.497863 45.888,-46.981003 0.82399,-0.0832 3.73943,-0.273 5.054,-0.273 z"
       id="path4307"
       style="fill:#ffffff;fill-opacity:1" />
  </g>
  <path
     d="m 24.000003,3.499998 c -11.311193,0 -20.5000034,9.188806 -20.5000034,20.5 0,11.311194 9.1888104,20.500005 20.5000034,20.500002 11.311188,0 20.500008,-9.188808 20.499997,-20.500002 0,-11.311194 -9.188809,-20.5 -20.499997,-20.5 z"
     id="path2555-6"
     style="opacity:0.5;color:#000000;fill:#000000;fill-opacity:0;fill-rule:nonzero;stroke:#42007d;stroke-width:1;stroke-linecap:round;stroke-linejoin:round;stroke-miterlimit:4;stroke-opacity:1;stroke-dasharray:none;stroke-dashoffset:0;marker:none;visibility:visible;display:inline;overflow:visible;enable-background:accumulate" />
</svg>
