<?xml version="1.0" encoding="UTF-8" standalone="no"?>
<!-- Created with Inkscape (http://www.inkscape.org/) -->
<svg id="svg4031" xmlns:rdf="http://www.w3.org/1999/02/22-rdf-syntax-ns#" xmlns="http://www.w3.org/2000/svg" height="48" width="48" version="1.1" xmlns:cc="http://creativecommons.org/ns#" xmlns:xlink="http://www.w3.org/1999/xlink" xmlns:dc="http://purl.org/dc/elements/1.1/">
 <defs id="defs4033">
  <linearGradient id="linearGradient3012" y2="44.341" gradientUnits="userSpaceOnUse" x2="71.204" gradientTransform="matrix(1.0541 0 0 1.0541 -51.611 -2.7279)" y1="6.2376" x1="71.204">
   <stop id="stop4013" stop-color="#fff" offset="0"/>
   <stop id="stop4015" stop-color="#fff" stop-opacity=".23529" offset=".50776"/>
   <stop id="stop4017" stop-color="#fff" stop-opacity=".15686" offset=".83457"/>
   <stop id="stop4019" stop-color="#fff" stop-opacity=".39216" offset="1"/>
  </linearGradient>
  <radialGradient id="radialGradient3015" gradientUnits="userSpaceOnUse" cy="8.4498" cx="3.9722" gradientTransform="matrix(0 2.4988 -2.6435 -6.8014e-8 46.337 -12.18)" r="20">
   <stop id="stop3750-8-9" stop-color="#ad90ec" offset="0"/>
   <stop id="stop3752-3-2" stop-color="#9b42ea" offset=".26238"/>
   <stop id="stop3754-7-2" stop-color="#9c36e6" offset=".70495"/>
   <stop id="stop3756-9-3" stop-color="#6c2ba0" offset="1"/>
  </radialGradient>
  <radialGradient id="radialGradient3018" gradientUnits="userSpaceOnUse" cy="186.17" cx="99.157" gradientTransform="matrix(.27083 0 0 .087623 -2.8551 25.187)" r="62.769">
   <stop id="stop3822-2-6-3" stop-color="#3d3d3d" offset="0"/>
   <stop id="stop3864-8-7-7" stop-color="#686868" stop-opacity=".49804" offset=".5"/>
   <stop id="stop3824-1-2-5" stop-color="#686868" stop-opacity="0" offset="1"/>
  </radialGradient>
 </defs>
 <metadata id="metadata4036">
  <rdf:RDF>
   <cc:Work rdf:about="">
    <dc:format>image/svg+xml</dc:format>
    <dc:type rdf:resource="http://purl.org/dc/dcmitype/StillImage"/>
    <dc:title/>
   </cc:Work>
  </rdf:RDF>
 </metadata>
 <path id="path3818-0-5" fill="url(#radialGradient3018)" d="m41 41.5a17 5.5 0 1 1 -34 0 17 5.5 0 1 1 34 0z"/>
 <path id="path2555" style="color:#000000" d="m24 3.5c-11.311 0-20.5 9.189-20.5 20.5s9.189 20.5 20.5 20.5 20.5-9.189 20.5-20.5-9.189-20.5-20.5-20.5z" fill="url(#radialGradient3015)"/>
 <g id="g4283" stroke-linejoin="round" transform="matrix(.091764 0 0 .086588 9.9738 15.984)" stroke="#000" stroke-linecap="round" stroke-width="11.218" fill="none">
  <g id="g4285" stroke-linejoin="round" transform="translate(-92 -64)" stroke="#000" stroke-linecap="round" stroke-width="11.218" fill="none">
   <g id="g4287" stroke-linejoin="round" stroke="#000" stroke-linecap="round" stroke-width="11.218" fill="none">
    <path id="path4289" opacity=".15" style="color-rendering:auto;text-decoration-color:#000000;color:#000000;isolation:auto;mix-blend-mode:normal;shape-rendering:auto;solid-color:#000000;block-progression:tb;text-decoration-line:none;text-decoration-style:solid;image-rendering:auto;white-space:normal;text-indent:0;text-transform:none" d="m290.38 58.408a5.4493 5.775 0 0 0 -3.1075 0.99248c-6.4832 4.6708-12.648 9.7591-18.155 15.496a5.4493 5.775 0 0 0 -9.2799 0.13534c-0.26963 0.48042-0.24699 1.0068-0.51082 1.4887l-0.0639-0.02255-0.17027 0.63159c-5.6635 10.454-8.9212 21.308-11.238 32.188l-4.3207-2.8872a5.4493 5.775 0 0 0 -6.1085 0.203l-1.7666 1.3534a5.4493 5.775 0 0 0 -1.5112 7.6016c4.0141 7.2243 4.5726 12.004 4.193 14.842-0.37964 2.838-1.6306 4.163-2.5967 4.8271a5.4493 5.775 0 0 0 -0.0213 0.0226c-8.5663 5.9302-21.518 13.322-29.074 21.181-0.008 0.008-0.0132 0.0143-0.0213 0.0226-0.006 0.007-0.015 0.016-0.0213 0.0225-13.25 13.565-17.624 28.258-16.474 45.294 0.00045 0.008-0.00046 0.015 0 0.0225 1.4031 23.221 18.113 42.083 39.844 49.376a5.4493 5.775 0 0 0 0.0213 0.0225c9.5051 3.1202 18.247 3.5188 27.414 3.5188 15.382 0 31.41-3.9525 43.526-14.075 12.728-10.607 20.39-26.573 20.39-43.331 0-16.729-7.0405-32.547-19.241-43.692a5.4493 5.775 0 0 0 -0.0213 -0.0226c-6.4532-5.8522-14.133-10.361-21.859-14.639 0.79904 0.46304 0.63672 0.52237 0.36182 0.13534-0.28936-0.40739-0.76425-1.1706-1.2558-2.0978-0.98302-1.8544-2.1271-4.3877-3.1713-6.9023-2.0885-5.0292-3.7886-9.9023-3.7886-9.9023a5.4493 5.775 0 0 0 -2.1071 -2.797c9.5209-13.641 20.094-27.311 34.395-40.06a5.4493 5.775 0 0 0 -5.172 -9.9249c-2.4726 0.84122-4.6653 2.3725-7.0663 3.406 0.7952-0.94163 1.1454-1.8077 1.9581-2.7519a5.4493 5.775 0 0 0 -3.9801 -9.6767zm-190.43 23.098c-2.7409 0-5.5853 0.37436-8.3008 2.1654-2.7155 1.7911-4.8111 5.6146-4.8102 9.3835v29.03c0 7.5374 6.1143 13.421 13.111 13.421h24.732v106.35c0 6.6946 5.4325 12.068 11.6 12.068h37.268c6.1672 0 11.749-5.2008 11.749-12.068v-105.97c0-0.28078-0.0365-0.0489-0.0639-0.0226s0.30129-0.3609 1.8517-0.3609h22.519c6.9518 0 13.452-5.4226 13.452-13.421v-29.03c0-3.9993-2.4252-7.7866-5.172-9.4737s-5.587-2.0752-8.2795-2.0752h-109.66zm0 11.549h109.66c1.276 0 2.1945 0.31028 2.5541 0.47368v28.557c0 0.46946-1.3138 1.8722-2.5541 1.8722h-22.519c-3.5036 0-6.7913 1.0526-9.1735 3.3384s-3.5119 5.5968-3.5119 8.594v105.97c0 0.23515-0.19053 0.51881-0.85136 0.51881h-37.268c-0.66263 0-0.70237-0.11132-0.70237-0.51881v-106.94c0-3.5059-1.7672-6.5627-3.8311-8.3234-2.064-1.7606-4.3678-2.6391-6.9386-2.6391h-24.86c-1.4713 0-2.2135-0.94162-2.2135-1.8722v-28.647c0.24873-0.10005 0.907-0.38346 2.2135-0.38346zm163.97 7.935a5.4493 5.775 0 0 0 4.8315 1.1504c-3.6112 4.6909-8.7733 9.0849-11.877 13.827 0.67305-4.2699 3.201-8.6953 4.5974-13.06a5.4493 5.775 0 0 0 2.4477 -1.9173zm117.38 18.181c-1.8622 0.00003-4.3898 0.19821-5.5552 0.3158-26.967 2.7242-48.54 24.511-50.763 52.06-0.26244 1.8091-0.2576 3.3015-0.21284 4.6918v66.587c0 6.6232 5.522 10.827 11.195 10.827h34.821c5.6734 0 11.195-4.2039 11.195-10.827v-58.602c0-1.5438 0.4192-2.701 1.7879-3.8797s3.9885-2.3684 8.4711-2.3684c1.6424 0 3.0884-0.0792 4.6825-0.58647 1.5941-0.50722 3.4765-1.7564 4.5335-3.4962 2.114-3.4797 1.4048-5.8406 1.4048-7.9624v-34.692c0-6.8264-5.525-12.068-11.855-12.068h-9.7056zm-126.9 2.797a5.4493 5.775 0 0 0 4.5548 4.8045c1.7102 0.27724 3.0162 0.46239 4.4058 0.67669 0.67221 1.8587 1.2473 3.5464 2.8095 7.3083 1.1256 2.7106 2.355 5.4941 3.6396 7.9173 0.64227 1.2116 1.2766 2.334 2.022 3.3835 0.74542 1.0495 1.4179 2.0945 3.2352 3.1128a5.4493 5.775 0 0 0 0.0213 0.0226c7.5562 4.1832 14.62 8.429 19.901 13.218 9.9109 9.0654 15.431 21.611 15.431 34.917 0 13.013-6.003 25.75-16.219 34.263-9.4618 7.9052-23.228 11.594-36.8 11.594-8.8613 0-16.204-0.40474-24.179-3.0226-18.124-6.0949-31.182-21.357-32.245-39.09a5.4493 5.775 0 0 0 0 -0.0677c-1.0172-14.871 1.687-24.444 13.239-36.248a5.4493 5.775 0 0 0 0.0426 -0.0451c5.2803-5.5057 18.219-13.411 27.393-19.76l0.0213-0.0226c3.3973-2.3445 6.6295-6.7505 7.4494-12.88 0.36352-2.7174-1.8221-6.6537-2.469-9.8798l0.9365 0.63159a5.4493 5.775 0 0 0 6.8109 -0.83459zm126.9 8.7519h9.7056c0.77178 0 0.95778 0.51721 0.95778 0.5188v34.692c0 0.76247 0.15561 0.12729 0.10643 0.54136-6.2144 0.0364-11.429 1.6683-15.176 4.8948-3.7879 3.2621-5.8106 8.119-5.8106 12.857v58.602c0-1.1592 0.31062-0.72181-0.29798-0.72181h-34.821c-0.6086 0-0.29798-0.4374-0.29798 0.72181v-66.79a5.4493 5.775 0 0 0 0 -0.20302c-0.0276-0.85822 0.092-2.8088 0.0639-2.6391a5.4493 5.775 0 0 0 0.0639 -0.5188c1.6862-21.801 18.84-39.449 40.972-41.684 0.48269-0.0487 3.7666-0.27068 4.5335-0.27069z" fill="#000"/>
   </g>
  </g>
 </g>
 <g id="g4317" stroke-linejoin="round" transform="matrix(.091764 0 0 .086588 9.9738 15.984)" stroke="#000" stroke-linecap="round" stroke-width="22.437" fill="none">
  <g id="g4319" stroke-linejoin="round" transform="translate(-92 -64)" stroke="#000" stroke-linecap="round" stroke-width="22.437" fill="none">
   <g id="g4321" stroke-linejoin="round" stroke="#000" stroke-linecap="round" stroke-width="22.437" fill="none">
    <path id="path4323" opacity=".15" style="color-rendering:auto;text-decoration-color:#000000;color:#000000;isolation:auto;mix-blend-mode:normal;shape-rendering:auto;solid-color:#000000;block-progression:tb;text-decoration-line:none;text-decoration-style:solid;image-rendering:auto;white-space:normal;text-indent:0;text-transform:none" d="m290.44 52.634a10.899 11.55 0 0 0 -6.2362 2.0075c-5.3179 3.8312-10.275 8.2862-15.112 12.88a10.899 11.55 0 0 0 -13.941 4.5564c-0.53631 0.95559-0.52792 2.0373-1.0429 3l-0.12771-0.06766-0.38311 1.5564c-4.0757 7.8111-6.0752 16.059-8.4498 24.248a10.899 11.55 0 0 0 -10.919 1.1278l-1.7666 1.3534a10.899 11.55 0 0 0 -3.9588 5.7519v-15.993c0-5.8815-3.8914-11.999-7.8964-14.459-4.005-2.4599-7.6668-2.8647-11.004-2.8647h-109.66c-3.3643 0-7.1294 0.37737-11.174 3.0451-4.0447 2.6677-7.3869 8.8575-7.3856 14.278v29.03c0 10.841 8.8004 19.196 18.56 19.196h19.283v100.58c0 9.8381 8.1288 17.842 17.049 17.842h37.268c8.9203 0 17.198-7.6595 17.198-17.842v-18.158c7.4724 15.469 21.098 27.473 37.566 33a10.899 11.55 0 0 0 0.0851 0.0226c10.27 3.3713 19.691 3.7895 29.01 3.7895 16.28 0 33.448-4.094 46.889-15.316 6.3705-5.3088 11.222-12.112 15.027-19.421v17.053c0 10.514 8.4384 16.602 16.644 16.602h34.821c8.2058 0 16.644-6.0872 16.644-16.602v-58.06c0.24664-0.19275 1.3908-1.015 4.8102-1.015 1.919 0 3.7891-0.0559 6.2362-0.83458 2.4472-0.77869 5.747-2.9323 7.5559-5.9098 3.6178-5.955 2.2774-9.0851 2.2774-11.075v-34.692c0-10.239-8.1946-17.842-17.304-17.842h-9.7056c-2.4099 0.00003-4.5806 0.18632-6.0873 0.33835-28.803 2.9098-51.927 25.999-55.19 55.557-3.5724-7.4462-8.2312-14.406-14.388-20.03a10.899 11.55 0 0 0 -0.0213 -0.0226c-6.4603-5.8586-13.812-10.068-21.007-14.098-0.15773-0.25532-0.28103-0.43361-0.55338-0.94738-0.83225-1.57-1.9337-4.012-2.9372-6.4286-2.0071-4.8331-3.6609-9.564-3.6609-9.564a10.899 11.55 0 0 0 -0.19156 -0.49625c8.8553-12.2 18.014-24.46 30.883-35.933a10.899 11.55 0 0 0 -7.26 -20.379 10.899 11.55 0 0 0 -10.45 -8.774zm-187.26 46.196h103.53v19.353h-19.624c-4.4802 0-9.2473 1.3853-12.834 4.8271-3.587 3.4418-5.2997 8.5243-5.2997 12.88v100.71h-27.925v-101.68c0-5.3728-2.7653-10.178-5.8531-12.812s-6.3842-3.9248-10.365-3.9248h-21.625v-19.353zm125.32 17.391a10.899 11.55 0 0 0 0.95779 2.3008c3.5892 6.4596 3.6493 9.9117 3.4906 11.098-0.15867 1.1862-0.44494 0.96369-0.19155 0.78949a10.899 11.55 0 0 0 -0.0213 0.0225c-8.2698 5.725-21.22 12.869-29.904 21.902-5.7604 5.8972-9.1206 12.524-12.089 19.218v-30.271h18.858c9.8075 0 18.9-7.4325 18.9-19.196v-5.8647zm25.541 14.662a10.899 11.55 0 0 0 4.1078 1.6015c0.51038 0.0827 0.87245 0.12705 1.3409 0.20301 0.69095 1.8279 0.73583 2.1215 1.6814 4.3985 1.1664 2.8086 2.4597 5.7285 3.895 8.4361 0.71766 1.3538 1.4529 2.6446 2.4264 4.0151 0.97344 1.3705 1.8366 2.962 5.0443 4.7594a10.899 11.55 0 0 0 0.0426 0.0225c7.4643 4.1323 14.169 8.2215 18.858 12.474 8.7733 8.0262 13.537 18.942 13.537 30.542 0 11.141-5.1736 22.264-14.133 29.729a10.899 11.55 0 0 0 -0.0213 0c-8.1347 6.7964-20.748 10.353-33.416 10.353-8.6752 0-15.319-0.38678-22.497-2.7293-0.0101-0.003-0.0112-0.0192-0.0213-0.0226-16.324-5.4908-27.558-18.958-28.457-33.948a10.899 11.55 0 0 0 0 -0.11277c-0.94147-13.764 0.8829-20.761 11.557-31.669a10.899 11.55 0 0 0 0.0851 -0.0902c4.1482-4.3253 17.092-12.483 26.563-19.038l0.0213-0.0226c4.616-3.1829 8.8349-9.1358 9.8758-16.917 0.0795-0.59404-0.53304-1.3798-0.48953-1.985zm127.26 5.6166h5.2146v26.053c-4.6794 0.84895-9.573 1.3615-13.047 4.3534-4.9976 4.3039-7.8326 10.988-7.8326 17.323v52.106h-24.519v-60.294a10.899 11.55 0 0 0 0 -0.38346c-0.0175-0.54205 0.18684-2.698-0.0213-1.4436a10.899 11.55 0 0 0 0.12769 -1.0602c1.4604-18.881 16.393-34.418 36.077-36.406 0.14136-0.0143 3.7821-0.24812 4.0014-0.24813zm-61.66 33.699c-0.0575 0.34661-0.00062 0.39363-0.0426 0.69926-0.0106 0.1275-0.0753 0.23317-0.0851 0.3609l0.1277-1.0602z" fill="#000"/>
   </g>
  </g>
 </g>
 <path id="path8655" opacity=".5" stroke-linejoin="round" style="color:#000000" d="m43.5 23.999c0 10.77-8.7311 19.501-19.5 19.501-10.77 0-19.5-8.7309-19.5-19.501 0-10.769 8.7306-19.499 19.5-19.499s19.5 8.73 19.5 19.499v0z" stroke="url(#linearGradient3012)" stroke-linecap="round" fill="none"/>
 <g id="g4277" fill="#fff" transform="matrix(.091764 0 0 .086588 9.9729 15.984)">
  <g id="g4279" transform="translate(-92 -64)">
   <g id="g4281">
    <path id="path4283" d="m264.51 77.978-4.917 19.529c6.965-13.793 18.027-24.172 30.729-33.323-9.287 10.789-17.754 21.579-22.944 32.368 8.741-12.292 20.486-19.12 33.733-23.627-17.618 15.706-31.602 32.559-42.255 49.494l-8.467-3.687c1.501-13.521 6.6093-27.369 14.121-40.754z" fill="#abcd03"/>
    <path id="path4285" d="m241.9 115.14 16.116 6.6859c0 4.098-0.33313 16.597 2.2294 20.284 26.803 34.519 22.293 103.71-5.4295 105.49-42.217 0-58.317-28.679-58.317-55.038 0-24.037 28.816-40.016 46.025-54.219 4.37-3.824 3.6111-12.275-0.62387-23.201z" fill="#ff8f00"/>
    <path id="path4287" d="m258.02 121.59 5.808 2.9628c-0.546 3.823 0.273 12.292 4.096 14.476 16.936 10.516 32.914 21.988 39.197 33.46 22.398 40.426-15.706 77.846-48.62 74.295 17.891-13.248 23.081-40.425 16.389-70.062-2.731-11.609-6.966-22.125-14.478-34.007-3.2542-5.8325-2.118-13.066-2.392-21.125z" fill="#ff8f00"/>
   </g>
   <g id="g4289">
    <path id="path4291" d="m255.23 120.59 12.018 1.639c-3.551 11.745 6.966 19.939 10.38 21.852 7.648 4.234 15.023 8.604 20.896 13.93 11.063 10.106 17.345 24.31 17.345 39.333 0 14.886-6.829 29.226-18.301 38.786-10.789 9.014-25.675 12.838-40.152 12.838-9.014 0-17.072-0.409-25.812-3.278-19.939-6.692-34.826-23.763-36.055-44.25-1.093-15.979 2.458-28.134 14.887-40.835 6.418-6.692 19.393-14.34 28.271-20.486 4.371-3.005 9.014-11.473 0.136-27.451l1.776-1.366 13.157 8.812-11.108-4.578c0.956 1.366 3.551 7.512 4.098 9.287 1.229 5.053 0.683 9.971-0.41 12.155-5.599 10.107-15.159 12.838-22.124 18.574-12.292 10.106-25.676 18.164-24.174 45.888 0.683 13.657 11.336 30.319 27.314 38.104 9.014 4.371 19.394 6.146 29.91 6.692 9.423 0.41 27.451-5.19 37.284-13.384 10.516-8.74 16.389-21.988 16.389-35.508 0-13.658-5.463-26.632-15.706-35.783-5.873-5.326-15.569-11.745-21.578-15.16-6.009-3.414-13.521-12.974-11.063-22.124z"/>
    <path id="path4293" d="m251.54 140.8c-1.229 6.283-2.595 17.618-8.058 21.852-2.322 1.638-4.644 3.278-7.102 4.916-9.833 6.693-19.667 12.974-24.173 29.09-0.956 3.415-0.136 7.102 0.684 10.516 2.458 9.833 9.423 20.486 14.886 26.769 0 0.273 1.093 0.956 1.093 1.229 4.507 5.327 5.873 6.829 22.944 10.652l-0.41 1.913c-10.243-2.731-18.71-5.189-24.037-11.336 0-0.136-0.956-1.093-0.956-1.093-5.736-6.556-12.702-17.481-15.296-27.724-0.956-4.098-1.775-7.238-0.683-11.473 4.643-16.661 14.75-23.217 24.993-30.182 2.322-1.502 5.053-2.869 7.238-4.644 4.233-3.14 6.554-12.701 8.877-20.485z"/>
    <path id="path4295" d="m255.91 166.75c0.137 7.102-0.55625 10.665 1.2188 15.719 1.092 3.004 4.782 7.1015 5.875 11.062 1.502 5.327 3.138 11.199 3 14.75 0 4.098-0.25625 11.742-2.0312 19.937-1.3536 6.7711-4.4732 12.582-9.7188 15.875-5.3733-1.1064-11.682-2.9952-15.406-6.1875-7.238-6.282-13.649-16.786-14.469-25.938-0.682-7.511 6.2728-18.588 15.969-24.188 8.194-4.78 10.1-10.228 11.875-18.969-2.458 7.648-4.7665 14.059-12.688 18.156-11.472 6.009-17.358 16.096-16.812 25.656 0.819 12.291 5.7415 20.62 15.438 27.312 4.097 2.868 11.751 5.8988 16.531 6.7188v-0.625c3.6249-0.67888 8.3182-6.6327 10.656-14.688 2.049-7.238 2.8568-16.502 2.7188-22.375-0.137-3.414-1.643-10.808-4.375-17.5-1.502-3.687-3.8095-7.3738-5.3125-9.9688-1.637-2.597-1.6488-8.195-2.4688-14.75z"/>
    <path id="path4297" d="m255.09 193.53c0.136 4.78 2.056 10.905 2.875 17.188 0.684 4.644 0.387 9.3082 0.25 13.406-0.13495 4.7432-1.7152 13.242-3.875 17.375-2.0367-0.93403-2.8329-1.9992-4.1562-3.7188-1.638-2.322-2.7508-4.644-3.8438-7.375-0.819-2.049-1.7765-4.394-2.1875-7.125-0.546-4.097-0.393-10.506 4.25-17.062 3.551-5.19 4.3648-5.5848 5.5938-11.594-1.64 5.326-2.8625 5.869-6.6875 10.375-4.233 4.917-4.9375 12.159-4.9375 18.031 0 2.459 0.9805 5.1872 1.9375 7.7812 1.092 2.732 2.0292 5.452 3.5312 7.5 2.258 3.3208 5.148 5.2092 6.5625 5.5625 0.009 0.002 0.022-0.002 0.0312 0 0.0303 0.007 0.0649 0.0255 0.0937 0.0312v-0.15625c2.6498-2.9544 4.2444-5.8893 4.7812-8.8438 0.683-3.551 0.84-7.1098 1.25-11.344 0.409-3.551 0.11225-8.334-0.84375-13.25-1.365-6.146-3.669-12.412-4.625-16.781z"/>
    <path id="path4299" d="m255.5 135.07c0.137 7.101 0.683 20.35 2.595 25.539 0.546 1.775 5.599 9.56 9.149 18.983 2.459 6.556 3.005 12.565 3.415 14.34 1.639 7.785-0.41 20.896-3.142 33.324-1.365 6.692-6.009 15.023-11.335 18.301l-1.092 1.912c3.005-0.137 10.379-7.375 12.974-16.389 4.371-15.296 6.146-22.398 4.098-39.333-0.273-1.64-0.956-7.238-3.551-13.248-3.824-9.151-9.287-17.891-9.969-19.667-1.23-2.867-2.869-15.295-3.142-23.762z"/>
    <path id="path4301" d="m258.06 125.35c-0.40515 7.2981-0.51351 9.9857 0.85149 15.312 1.502 5.873 9.151 14.34 12.292 24.037 6.009 18.574 4.507 42.884 0.136 61.867-1.638 6.691-9.424 16.389-17.208 19.529l5.736 1.366c3.141-0.137 11.198-7.648 14.34-16.252 5.052-13.521 6.009-29.636 3.96-46.571-0.137-1.639-2.869-16.252-5.463-22.398-3.688-9.15-10.244-17.345-10.926-19.119-1.228-3.005-3.9265-9.2436-3.7185-17.771z"/>
    <rect id="rect4303" height="126.02" width=".55041" y="120.22" x="253.72"/>
   </g>
  </g>
  <path id="path4305" d="m7.943 23.282h109.67c4.096 0 8.0049 1.5405 8.0049 5.7745v29.034c0 4.234-3.9089 7.649-8.0049 7.649h-22.534c-5.054 0-7.239 2.867-7.239 6.145v105.98c0 3.551-2.868 6.282-6.282 6.282h-37.284c-3.415 0-6.146-2.731-6.146-6.282v-106.94c0-3.278-3.005-5.189-5.326-5.189h-24.857c-4.234 0-7.648-3.415-7.648-7.649v-29.035c-0.001-4.234 3.413-5.7745 7.648-5.7745z"/>
  <path id="path4307" d="m289.31 60.959h9.696c3.551 0 6.419 2.868 6.419 6.282v34.69c0 4.507 0.273 6.282-5.19 6.282-10.789 0-15.705 5.736-15.705 12.018v58.589c0 2.732-2.595 5.053-5.736 5.053h-34.827c-3.141 0-5.736-2.321-5.736-5.053v-66.784c-0.0378-1.1744-0.0148-2.9081 0.137-3.823 1.912-24.72 21.308-44.498 45.888-46.981 0.82399-0.0832 3.7394-0.273 5.054-0.273z"/>
 </g>
 <path id="path2555-6" opacity=".5" stroke-linejoin="round" style="color:#000000" d="m24 3.5c-11.311 0-20.5 9.1888-20.5 20.5s9.1888 20.5 20.5 20.5 20.5-9.1888 20.5-20.5-9.1888-20.5-20.5-20.5z" fill-opacity="0" stroke="#42007d" stroke-linecap="round"/>
</svg>
