<?xml version="1.0" encoding="UTF-8" standalone="no"?>
<!-- Created with Inkscape (http://www.inkscape.org/) -->

<svg
   xmlns:dc="http://purl.org/dc/elements/1.1/"
   xmlns:cc="http://creativecommons.org/ns#"
   xmlns:rdf="http://www.w3.org/1999/02/22-rdf-syntax-ns#"
   xmlns:svg="http://www.w3.org/2000/svg"
   xmlns="http://www.w3.org/2000/svg"
   xmlns:xlink="http://www.w3.org/1999/xlink"
   xmlns:sodipodi="http://sodipodi.sourceforge.net/DTD/sodipodi-0.dtd"
   xmlns:inkscape="http://www.inkscape.org/namespaces/inkscape"
   version="1.1"
   width="48"
   height="48"
   id="svg4031"
   inkscape:version="0.91 r"
   sodipodi:docname="browser-tor.svg">
  <sodipodi:namedview
     pagecolor="#ffffff"
     bordercolor="#666666"
     borderopacity="1"
     objecttolerance="10"
     gridtolerance="10"
     guidetolerance="10"
     inkscape:pageopacity="0"
     inkscape:pageshadow="2"
     inkscape:window-width="1600"
     inkscape:window-height="845"
     id="namedview48"
     showgrid="false"
     inkscape:zoom="1"
     inkscape:cx="20.979365"
     inkscape:cy="24"
     inkscape:window-x="0"
     inkscape:window-y="30"
     inkscape:window-maximized="1"
     inkscape:current-layer="svg4031" />
  <defs
     id="defs4033">
    <linearGradient
       id="linearGradient4168">
      <stop
         id="stop4170"
         style="stop-color:#b4f87e;stop-opacity:1"
         offset="0" />
      <stop
         id="stop4172"
         style="stop-color:#e35d4f;stop-opacity:1"
         offset="0.23208089" />
      <stop
         id="stop4174"
         style="stop-color:#c6262e;stop-opacity:1"
         offset="0.5908742" />
      <stop
         id="stop4176"
         style="stop-color:#690b54;stop-opacity:1"
         offset="1" />
    </linearGradient>
    <linearGradient
       id="linearGradient3957">
      <stop
         id="stop3959"
         style="stop-color:#ffffff;stop-opacity:1"
         offset="0" />
      <stop
         id="stop3961"
         style="stop-color:#c1c1c1;stop-opacity:1"
         offset="1" />
    </linearGradient>
    <linearGradient
       id="linearGradient4011">
      <stop
         id="stop4013"
         style="stop-color:#ffffff;stop-opacity:1"
         offset="0" />
      <stop
         id="stop4015"
         style="stop-color:#ffffff;stop-opacity:0.23529412"
         offset="0.507761" />
      <stop
         id="stop4017"
         style="stop-color:#ffffff;stop-opacity:0.15686275"
         offset="0.83456558" />
      <stop
         id="stop4019"
         style="stop-color:#ffffff;stop-opacity:0.39215687"
         offset="1" />
    </linearGradient>
    <linearGradient
       id="linearGradient2867-449-88-871-390-598-476-591-434-148-57-177-3-8">
      <stop
         id="stop3750-8-9"
         style="stop-color:#d290ec;stop-opacity:1"
         offset="0" />
      <stop
         id="stop3752-3-2"
         style="stop-color:#e742ea;stop-opacity:1"
         offset="0.26238" />
      <stop
         id="stop3754-7-2"
         style="stop-color:#d936e6;stop-opacity:1"
         offset="0.704952" />
      <stop
         id="stop3756-9-3"
         style="stop-color:#a02b83;stop-opacity:1"
         offset="1" />
    </linearGradient>
    <linearGradient
       id="linearGradient3820-7-2-1">
      <stop
         id="stop3822-2-6-3"
         style="stop-color:#3d3d3d;stop-opacity:1"
         offset="0" />
      <stop
         id="stop3864-8-7-7"
         style="stop-color:#686868;stop-opacity:0.49803922"
         offset="0.5" />
      <stop
         id="stop3824-1-2-5"
         style="stop-color:#686868;stop-opacity:0"
         offset="1" />
    </linearGradient>
    <linearGradient
       x1="71.204407"
       y1="6.2375584"
       x2="71.204407"
       y2="44.340794"
       id="linearGradient3012"
       xlink:href="#linearGradient4011"
       gradientUnits="userSpaceOnUse"
       gradientTransform="matrix(1.054054,0,0,1.054054,-51.611001,-2.7279009)" />
    <radialGradient
       cx="3.9722471"
       cy="8.4497671"
       r="19.99999"
       fx="3.9722471"
       fy="8.4497671"
       id="radialGradient3015"
       xlink:href="#linearGradient2867-449-88-871-390-598-476-591-434-148-57-177-3-8"
       gradientUnits="userSpaceOnUse"
       gradientTransform="matrix(0,2.4988347,-2.6434689,-6.8014435e-8,46.336814,-12.180468)" />
    <radialGradient
       cx="99.157013"
       cy="186.17059"
       r="62.769119"
       fx="99.157013"
       fy="186.17059"
       id="radialGradient3018"
       xlink:href="#linearGradient3820-7-2-1"
       gradientUnits="userSpaceOnUse"
       gradientTransform="matrix(0.27083381,0,0,0.08762273,-2.855072,25.187228)" />
    <linearGradient
       x1="27.92535"
       y1="15.149301"
       x2="33.447899"
       y2="22.986004"
       id="linearGradient3951"
       xlink:href="#linearGradient4168"
       gradientUnits="userSpaceOnUse" />
    <linearGradient
       x1="24"
       y1="22"
       x2="24"
       y2="26"
       id="linearGradient3963"
       xlink:href="#linearGradient3957"
       gradientUnits="userSpaceOnUse" />
    <linearGradient
       x1="21.013996"
       y1="25.433903"
       x2="22.805599"
       y2="27.343702"
       id="linearGradient3963-7"
       xlink:href="#linearGradient3957-2"
       gradientUnits="userSpaceOnUse" />
    <linearGradient
       id="linearGradient3957-2">
      <stop
         id="stop3959-62"
         style="stop-color:#ffffff;stop-opacity:1"
         offset="0" />
      <stop
         id="stop3961-5"
         style="stop-color:#c1c1c1;stop-opacity:1"
         offset="1" />
    </linearGradient>
  </defs>
  <metadata
     id="metadata4036">
    <rdf:RDF>
      <cc:Work
         rdf:about="">
        <dc:format>image/svg+xml</dc:format>
        <dc:type
           rdf:resource="http://purl.org/dc/dcmitype/StillImage" />
        <dc:title></dc:title>
      </cc:Work>
    </rdf:RDF>
  </metadata>
  <path
     d="m 40.999999,41.499999 a 17,5.4999999 0 1 1 -33.999999,0 17,5.4999999 0 1 1 33.999999,0 z"
     id="path3818-0-5"
     style="fill:url(#radialGradient3018);fill-opacity:1;stroke:none" />
  <circle
     style="opacity:1;fill:#272727;fill-opacity:1;stroke:none;stroke-width:2;stroke-linecap:butt;stroke-linejoin:round;stroke-miterlimit:4;stroke-dasharray:none;stroke-opacity:1"
     id="path4245"
     cx="24"
     cy="24"
     r="20.5" />
  <path
     style="color:#000000;fill:url(#radialGradient3015);fill-opacity:1;fill-rule:nonzero;stroke:none;stroke-width:1;marker:none;visibility:visible;display:inline;overflow:visible;enable-background:accumulate"
     d="M 24 3.5 C 12.688807 3.5 3.5 12.688806 3.5 24 C 3.5 30.931945 6.9606543 37.054343 12.236328 40.765625 C 12.493972 38.676336 13.022775 35.887766 14.128906 34.253906 C 14.222215 34.135208 14.742086 33.534956 15.78125 33.140625 C 16.689531 32.860933 18.931309 32.120971 20.169922 31.236328 C 20.088589 31.129676 20.008762 31.020497 19.931641 30.90625 C 18.915376 29.401729 18.355469 27.378242 18.355469 25.207031 C 18.355469 24.849822 18.367462 24.514603 18.390625 24.197266 C 16.142328 23.749772 14.689453 23.039241 14.689453 22.240234 C 14.689453 21.325213 16.594683 20.528334 19.417969 20.107422 C 19.487852 19.65384 19.537109 19.151015 19.537109 18.621094 C 19.537109 16.621744 20.132584 15 21.802734 15 C 23.702801 15 23.309725 17.232484 24 17.314453 C 24.690341 17.232484 24.297199 15 26.197266 15 C 27.867482 15 28.462891 16.621744 28.462891 18.621094 C 28.462891 19.151015 28.512148 19.653709 28.582031 20.107422 C 31.405251 20.528334 33.310547 21.325213 33.310547 22.240234 C 33.310547 23.039241 31.857606 23.749772 29.609375 24.197266 C 29.632538 24.514603 29.644531 24.849822 29.644531 25.207031 C 29.644531 27.378307 29.084689 29.401795 28.068359 30.90625 C 27.991238 31.020431 27.911279 31.129676 27.830078 31.236328 C 29.068626 32.120971 31.310337 32.860933 32.21875 33.140625 C 33.257848 33.535152 33.777916 34.135273 33.871094 34.253906 C 34.977301 35.887766 35.506046 38.676349 35.763672 40.765625 C 41.039346 37.054343 44.500007 30.931945 44.5 24 C 44.5 12.688806 35.311188 3.5 24 3.5 z M 19.021484 20.6875 C 18.645156 20.914095 18.43366 21.170357 18.433594 21.441406 C 18.433594 22.370503 20.925281 23.123047 24 23.123047 C 27.074719 23.123047 29.566406 22.370503 29.566406 21.441406 C 29.566406 21.170357 29.354976 20.914095 28.978516 20.6875 C 28.990558 20.730122 28.998047 20.772672 28.998047 20.816406 C 28.998047 21.65044 26.759851 22.326172 24 22.326172 C 21.240149 22.326172 19.003906 21.65044 19.003906 20.816406 C 19.003906 20.772737 19.009377 20.730122 19.021484 20.6875 z M 19.158203 24.333984 C 19.140436 24.61073 19.130859 24.901872 19.130859 25.207031 C 19.130859 29.32672 21.269694 32.552734 24 32.552734 C 26.730371 32.552734 28.869141 29.32672 28.869141 25.207031 C 28.869141 24.901872 28.85963 24.610795 28.841797 24.333984 C 27.430911 24.560579 25.773791 24.691406 24 24.691406 C 22.226275 24.691406 20.569089 24.560579 19.158203 24.333984 z M 19.162109 25.166016 L 28.832031 25.166016 L 28.832031 25.507812 L 28.837891 25.507812 C 28.837891 25.566933 28.836111 25.625718 28.832031 25.683594 L 28.832031 25.691406 L 28.830078 25.691406 C 28.738283 26.887035 27.762337 27.828125 26.570312 27.828125 C 25.378354 27.828125 24.402277 26.887035 24.310547 25.691406 L 23.689453 25.691406 C 23.597789 26.887035 22.621646 27.828125 21.429688 27.828125 C 20.237729 27.828125 19.261652 26.887035 19.169922 25.691406 L 19.162109 25.691406 L 19.162109 25.166016 z "
     id="path2555" />
  <path
     d="m 43.5,23.999308 c 0,10.7699 -8.73109,19.50069 -19.499753,19.50069 -10.769649,0 -19.5002474,-8.730889 -19.5002474,-19.50069 0,-10.769402 8.7305984,-19.4993078 19.5002474,-19.4993078 C 34.76891,4.5000002 43.5,13.229906 43.5,23.999308 l 0,0 z"
     id="path8655"
     style="opacity:0.5;color:#000000;fill:none;stroke:url(#linearGradient3012);stroke-width:1;stroke-linecap:round;stroke-linejoin:round;stroke-miterlimit:4;stroke-opacity:1;stroke-dasharray:none;stroke-dashoffset:0;marker:none;visibility:visible;display:inline;overflow:visible;enable-background:accumulate" />
  <path
     d="m 24.000003,3.499998 c -11.311193,0 -20.5000034,9.188806 -20.5000034,20.5 0,11.311194 9.1888104,20.500005 20.5000034,20.500002 11.311188,0 20.500008,-9.188808 20.499997,-20.500002 0,-11.311194 -9.188809,-20.5 -20.499997,-20.5 z"
     id="path2555-6"
     style="opacity:0.5;color:#000000;fill:#000000;fill-opacity:0;fill-rule:nonzero;stroke:#4f007d;stroke-width:1;stroke-linecap:round;stroke-linejoin:round;stroke-miterlimit:4;stroke-opacity:1;stroke-dasharray:none;stroke-dashoffset:0;marker:none;visibility:visible;display:inline;overflow:visible;enable-background:accumulate" />
  <g
     id="g4221"
     transform="matrix(0.06580318,0,0,0.06547087,7.9188215,14.999999)">
    <g
       id="g4177">
      <g
         id="g4179" />
    </g>
    <g
       id="g4185" />
    <g
       id="g4187" />
    <g
       id="g4189" />
    <g
       id="g4191" />
    <g
       id="g4193" />
    <g
       id="g4195" />
    <g
       id="g4197" />
    <g
       id="g4199" />
    <g
       id="g4201" />
    <g
       id="g4203" />
    <g
       id="g4205" />
    <g
       id="g4207" />
    <g
       id="g4209" />
    <g
       id="g4211" />
    <g
       id="g4213" />
  </g>
</svg>
