<?xml version="1.0" encoding="UTF-8" standalone="no"?>
<!-- Created with Inkscape (http://www.inkscape.org/) -->
<svg id="svg4951" xmlns:rdf="http://www.w3.org/1999/02/22-rdf-syntax-ns#" xmlns="http://www.w3.org/2000/svg" height="48px" width="48px" version="1.1" xmlns:cc="http://creativecommons.org/ns#" xmlns:xlink="http://www.w3.org/1999/xlink" xmlns:dc="http://purl.org/dc/elements/1.1/">
 <defs id="defs4953">
  <linearGradient id="linearGradient3189" y2="40.496" gradientUnits="userSpaceOnUse" x2="71.204" gradientTransform="matrix(1.617 0 0 1.617 -92.707 -21.06)" y1="15.369" x1="71.204">
   <stop id="stop4808-4" stop-color="#fff" offset="0"/>
   <stop id="stop4810-0" stop-color="#fff" stop-opacity=".23529" offset=".42448"/>
   <stop id="stop4812-8" stop-color="#fff" stop-opacity=".15686" offset=".82090"/>
   <stop id="stop4814-0" stop-color="#fff" stop-opacity=".39216" offset="1"/>
  </linearGradient>
  <radialGradient id="radialGradient3192" gradientUnits="userSpaceOnUse" cy="3.99" cx="23.896" gradientTransform="matrix(0 2.8885 -3.8128 0 39.213 -65.95)" r="20.397">
   <stop id="stop4369" stop-color="#98642e" offset="0"/>
   <stop id="stop4371" stop-color="#7b5125" offset=".66094"/>
   <stop id="stop4373" stop-color="#5d3d1c" offset="1"/>
  </radialGradient>
  <radialGradient id="radialGradient3195" gradientUnits="userSpaceOnUse" cy="186.17" cx="99.157" gradientTransform="matrix(.27083 0 0 .087623 -2.8551 25.187)" r="62.769">
   <stop id="stop3822-2-6-3" stop-color="#3d3d3d" offset="0"/>
   <stop id="stop3864-8-7-7" stop-color="#686868" stop-opacity=".49804" offset=".5"/>
   <stop id="stop3824-1-2-5" stop-color="#686868" stop-opacity="0" offset="1"/>
  </radialGradient>
 </defs>
 <metadata id="metadata4956">
  <rdf:RDF>
   <cc:Work rdf:about="">
    <dc:format>image/svg+xml</dc:format>
    <dc:type rdf:resource="http://purl.org/dc/dcmitype/StillImage"/>
    <dc:title/>
   </cc:Work>
  </rdf:RDF>
 </metadata>
 <g id="layer1">
  <path id="path3818-0-5" d="m41 41.5a17 5.5 0 0 1 -34 0 17 5.5 0 1 1 34 0z" fill="url(#radialGradient3195)"/>
  <path id="path2555-7-2" style="color:#000000" d="m24 3.5c-11.311 0-20.5 9.1888-20.5 20.5s9.1888 20.5 20.5 20.5 20.5-9.1888 20.5-20.5-9.189-20.5-20.5-20.5z" fill="url(#radialGradient3192)"/>
  <path id="path4176" opacity=".3" stroke-linejoin="round" style="color:#000000" d="m43.5 24c0 10.77-8.73 19.5-19.5 19.5s-19.5-8.73-19.5-19.5 8.73-19.5 19.5-19.5 19.5 8.73 19.5 19.5z" stroke="url(#linearGradient3189)" stroke-linecap="round" fill="none"/>
  <path id="path3871" opacity=".7" style="color:#000000" d="m24 3.5c-11.311 0-20.5 9.189-20.5 20.5s9.189 20.5 20.5 20.5 20.5-9.189 20.5-20.5-9.189-20.5-20.5-20.5z" stroke="#50371f" fill="none"/>
  <g id="g4476" transform="matrix(1.9617 0 0 1.9617 -37.823 294.46)"></g>
  <g id="g4557" stroke-linejoin="round" opacity=".15" transform="matrix(.042483 0 0 .042914 12 9.8681)" stroke="#000" stroke-linecap="round" stroke-width="46.84" fill="none">
   <g id="g4559" stroke-linejoin="round" stroke="#000" stroke-linecap="round" stroke-width="46.84" fill="none">
    <g id="g4561" stroke-linejoin="round" stroke="#000" stroke-linecap="round" stroke-width="46.84" fill="none">
     <path id="path4563" d="m153.42 510.3h106.25 0.107 106.25c143.45-75.34 126.23-310.41 126.23-310.41v-3.478h-232.47-0.107-231.96v3.478c0 0.001-17.741 235.07 125.71 310.4z"/>
     <path id="path4565" d="m200.12 172.38c-7.081-28.72 10.276-46.448 10.634-46.812 0.019-0.019 0.013-0.013 0.038-0.031 27.923-24.627 20.591-49.248 11.651-63.818-0.948-1.544-3.233-0.37-2.662 1.35 3.095 9.266-0.477 19.178-21.526 43.736-23.566 27.496-9.247 54.986-0.76 66.863 0.961 1.349 3.02 0.319 2.625-1.288z"/>
     <path id="path4567" d="m320.11 172.47c-10.314-37.515 12.474-60.761 12.901-61.194 0.019-0.019 0.019-0.013 0.038-0.031 37.691-33.234 24.571-66.455 12.411-84.227-1.023-1.494-3.365-0.144-2.586 1.488 6.165 13.001 3.804 24.671-25.669 59.054-30.974 36.134-10.151 72.274 0.295 86.204 1.003 1.336 3.05 0.307 2.61-1.294z"/>
     <path id="path4569" d="m511.17 535.41h-498.59c-10.848 0-16.586 12.825-9.36 20.917l22.461 25.117c2.379 2.668 5.782 4.187 9.354 4.187h453.68c3.572 0 6.974-1.519 9.36-4.187l22.455-25.117c7.225-8.092 1.488-20.917-9.354-20.917z"/>
     <path id="path4571" d="m612 299.21c0-83.072-78.226-78.044-93.913-76.198 0.031 10.44-0.257 23.698-1.255 38.827 11.406-2.618 55.777-11.281 53.259 36.812 0 0-4.608 65.451-78.138 91.082-6.987 19.85-15.769 39.505-26.868 58.037 150.41-58.846 146.92-148.56 146.92-148.56z"/>
    </g>
   </g>
  </g>
  <g id="g4603" stroke-linejoin="round" opacity=".15" transform="matrix(.042483 0 0 .042914 12 9.8681)" stroke="#000" stroke-linecap="round" stroke-width="23.42" fill="none">
   <g id="g4605" stroke-linejoin="round" stroke="#000" stroke-linecap="round" stroke-width="23.42" fill="none">
    <g id="g4607" stroke-linejoin="round" stroke="#000" stroke-linecap="round" stroke-width="23.42" fill="none">
     <path id="path4609" d="m153.42 510.3h106.25 0.107 106.25c143.45-75.34 126.23-310.41 126.23-310.41v-3.478h-232.47-0.107-231.96v3.478c0 0.001-17.741 235.07 125.71 310.4z"/>
     <path id="path4611" d="m200.12 172.38c-7.081-28.72 10.276-46.448 10.634-46.812 0.019-0.019 0.013-0.013 0.038-0.031 27.923-24.627 20.591-49.248 11.651-63.818-0.948-1.544-3.233-0.37-2.662 1.35 3.095 9.266-0.477 19.178-21.526 43.736-23.566 27.496-9.247 54.986-0.76 66.863 0.961 1.349 3.02 0.319 2.625-1.288z"/>
     <path id="path4613" d="m320.11 172.47c-10.314-37.515 12.474-60.761 12.901-61.194 0.019-0.019 0.019-0.013 0.038-0.031 37.691-33.234 24.571-66.455 12.411-84.227-1.023-1.494-3.365-0.144-2.586 1.488 6.165 13.001 3.804 24.671-25.669 59.054-30.974 36.134-10.151 72.274 0.295 86.204 1.003 1.336 3.05 0.307 2.61-1.294z"/>
     <path id="path4615" d="m511.17 535.41h-498.59c-10.848 0-16.586 12.825-9.36 20.917l22.461 25.117c2.379 2.668 5.782 4.187 9.354 4.187h453.68c3.572 0 6.974-1.519 9.36-4.187l22.455-25.117c7.225-8.092 1.488-20.917-9.354-20.917z"/>
     <path id="path4617" d="m612 299.21c0-83.072-78.226-78.044-93.913-76.198 0.031 10.44-0.257 23.698-1.255 38.827 11.406-2.618 55.777-11.281 53.259 36.812 0 0-4.608 65.451-78.138 91.082-6.987 19.85-15.769 39.505-26.868 58.037 150.41-58.846 146.92-148.56 146.92-148.56z"/>
    </g>
   </g>
  </g>
  <g id="g4533" fill="#fff" transform="matrix(.042483 0 0 .042914 12 9.8681)">
   <g id="g4483" fill="#fff">
    <g id="g4485" fill="#fff">
     <path id="path4487" d="m153.42 510.3h106.25 0.107 106.25c143.45-75.34 126.23-310.41 126.23-310.41v-3.478h-232.47-0.107-231.96v3.478c0 0.001-17.741 235.07 125.71 310.4z"/>
     <path id="path4489" d="m200.12 172.38c-7.081-28.72 10.276-46.448 10.634-46.812 0.019-0.019 0.013-0.013 0.038-0.031 27.923-24.627 20.591-49.248 11.651-63.818-0.948-1.544-3.233-0.37-2.662 1.35 3.095 9.266-0.477 19.178-21.526 43.736-23.566 27.496-9.247 54.986-0.76 66.863 0.961 1.349 3.02 0.319 2.625-1.288z"/>
     <path id="path4491" d="m320.11 172.47c-10.314-37.515 12.474-60.761 12.901-61.194 0.019-0.019 0.019-0.013 0.038-0.031 37.691-33.234 24.571-66.455 12.411-84.227-1.023-1.494-3.365-0.144-2.586 1.488 6.165 13.001 3.804 24.671-25.669 59.054-30.974 36.134-10.151 72.274 0.295 86.204 1.003 1.336 3.05 0.307 2.61-1.294z"/>
     <path id="path4493" d="m511.17 535.41h-498.59c-10.848 0-16.586 12.825-9.36 20.917l22.461 25.117c2.379 2.668 5.782 4.187 9.354 4.187h453.68c3.572 0 6.974-1.519 9.36-4.187l22.455-25.117c7.225-8.092 1.488-20.917-9.354-20.917z"/>
     <path id="path4495" d="m612 299.21c0-83.072-78.226-78.044-93.913-76.198 0.031 10.44-0.257 23.698-1.255 38.827 11.406-2.618 55.777-11.281 53.259 36.812 0 0-4.608 65.451-78.138 91.082-6.987 19.85-15.769 39.505-26.868 58.037 150.41-58.846 146.92-148.56 146.92-148.56z"/>
    </g>
   </g>
  </g>
 </g>
</svg>
