<?xml version="1.0" encoding="UTF-8" standalone="no"?>
<!-- Created with Inkscape (http://www.inkscape.org/) -->

<svg
   xmlns:dc="http://purl.org/dc/elements/1.1/"
   xmlns:cc="http://creativecommons.org/ns#"
   xmlns:rdf="http://www.w3.org/1999/02/22-rdf-syntax-ns#"
   xmlns:svg="http://www.w3.org/2000/svg"
   xmlns="http://www.w3.org/2000/svg"
   xmlns:sodipodi="http://sodipodi.sourceforge.net/DTD/sodipodi-0.dtd"
   xmlns:inkscape="http://www.inkscape.org/namespaces/inkscape"
   id="svg4951"
   height="48px"
   width="48px"
   version="1.1"
   inkscape:version="0.91 r13725"
   sodipodi:docname="caffeine.svg">
  <sodipodi:namedview
     pagecolor="#ffffff"
     bordercolor="#666666"
     borderopacity="1"
     objecttolerance="10"
     gridtolerance="10"
     guidetolerance="10"
     inkscape:pageopacity="0"
     inkscape:pageshadow="2"
     inkscape:window-width="1535"
     inkscape:window-height="876"
     id="namedview48"
     showgrid="false"
     inkscape:zoom="4.9166667"
     inkscape:cx="-10.779661"
     inkscape:cy="24"
     inkscape:window-x="65"
     inkscape:window-y="24"
     inkscape:window-maximized="1"
     inkscape:current-layer="svg4951" />
  <defs
     id="defs4953">
    <linearGradient
       id="linearGradient3189"
       y2="40.496"
       gradientUnits="userSpaceOnUse"
       x2="71.204"
       gradientTransform="matrix(1.617,0,0,1.617,-92.707,-21.06)"
       y1="15.369"
       x1="71.204">
      <stop
         id="stop4808-4"
         stop-color="#fff"
         offset="0" />
      <stop
         id="stop4810-0"
         stop-color="#fff"
         stop-opacity=".23529"
         offset=".42448" />
      <stop
         id="stop4812-8"
         stop-color="#fff"
         stop-opacity=".15686"
         offset=".82090" />
      <stop
         id="stop4814-0"
         stop-color="#fff"
         stop-opacity=".39216"
         offset="1" />
    </linearGradient>
    <radialGradient
       id="radialGradient3192"
       gradientUnits="userSpaceOnUse"
       cy="3.99"
       cx="23.896"
       gradientTransform="matrix(0,2.8885,-3.8128,0,39.213,-65.95)"
       r="20.397">
      <stop
         id="stop4369"
         stop-color="#98642e"
         offset="0" />
      <stop
         id="stop4371"
         stop-color="#7b5125"
         offset=".66094" />
      <stop
         id="stop4373"
         stop-color="#5d3d1c"
         offset="1" />
    </radialGradient>
    <radialGradient
       id="radialGradient3195"
       gradientUnits="userSpaceOnUse"
       cy="186.17"
       cx="99.157"
       gradientTransform="matrix(0.27083,0,0,0.087623,-2.8551,25.187)"
       r="62.769">
      <stop
         id="stop3822-2-6-3"
         stop-color="#3d3d3d"
         offset="0" />
      <stop
         id="stop3864-8-7-7"
         stop-color="#686868"
         stop-opacity=".49804"
         offset=".5" />
      <stop
         id="stop3824-1-2-5"
         stop-color="#686868"
         stop-opacity="0"
         offset="1" />
    </radialGradient>
  </defs>
  <metadata
     id="metadata4956">
    <rdf:RDF>
      <cc:Work
         rdf:about="">
        <dc:format>image/svg+xml</dc:format>
        <dc:type
           rdf:resource="http://purl.org/dc/dcmitype/StillImage" />
        <dc:title />
      </cc:Work>
    </rdf:RDF>
  </metadata>
  <path
     inkscape:connector-curvature="0"
     d="M 24,3.5 C 12.689,3.5 3.5,12.6888 3.5,24 3.5,35.3112 12.6888,44.5 24,44.5 35.3112,44.5 44.5,35.3112 44.5,24 44.5,12.6888 35.311,3.5 24,3.5 Z"
     style="color:#000000;fill:url(#radialGradient3192)"
     id="path2555-7-2" />
  <path
     inkscape:connector-curvature="0"
     d="M 43.5,24 C 43.5,34.77 34.77,43.5 24,43.5 13.23,43.5 4.5,34.77 4.5,24 4.5,13.23 13.23,4.5 24,4.5 34.77,4.5 43.5,13.23 43.5,24 Z"
     style="color:#000000;opacity:0.3;fill:none;stroke:url(#linearGradient3189);stroke-linecap:round;stroke-linejoin:round"
     id="path4176" />
  <path
     inkscape:connector-curvature="0"
     d="M 24,3.5 C 12.689,3.5 3.5,12.689 3.5,24 3.5,35.311 12.689,44.5 24,44.5 35.311,44.5 44.5,35.311 44.5,24 44.5,12.689 35.311,3.5 24,3.5 Z"
     style="color:#000000;opacity:0.7;fill:none;stroke:#50371f"
     id="path3871" />
  <g
     transform="matrix(1.9617,0,0,1.9617,-37.823,294.46)"
     id="g4476" />
  <g
     style="opacity:0.15;fill:none;stroke:#000000;stroke-width:46.84000015;stroke-linecap:round;stroke-linejoin:round"
     transform="matrix(0.042483,0,0,0.042914,12,9.8681)"
     id="g4557">
    <g
       style="fill:none;stroke:#000000;stroke-width:46.84000015;stroke-linecap:round;stroke-linejoin:round"
       id="g4559">
      <g
         style="fill:none;stroke:#000000;stroke-width:46.84000015;stroke-linecap:round;stroke-linejoin:round"
         id="g4561">
        <path
           inkscape:connector-curvature="0"
           d="m 153.42,510.3 106.25,0 0.107,0 106.25,0 c 143.45,-75.34 126.23,-310.41 126.23,-310.41 l 0,-3.478 -232.47,0 -0.107,0 -231.96,0 0,3.478 c 0,0.001 -17.741,235.07 125.71,310.4 z"
           id="path4563" />
        <path
           inkscape:connector-curvature="0"
           d="m 200.12,172.38 c -7.081,-28.72 10.276,-46.448 10.634,-46.812 0.019,-0.019 0.013,-0.013 0.038,-0.031 27.923,-24.627 20.591,-49.248 11.651,-63.818 -0.948,-1.544 -3.233,-0.37 -2.662,1.35 3.095,9.266 -0.477,19.178 -21.526,43.736 -23.566,27.496 -9.247,54.986 -0.76,66.863 0.961,1.349 3.02,0.319 2.625,-1.288 z"
           id="path4565" />
        <path
           inkscape:connector-curvature="0"
           d="m 320.11,172.47 c -10.314,-37.515 12.474,-60.761 12.901,-61.194 0.019,-0.019 0.019,-0.013 0.038,-0.031 37.691,-33.234 24.571,-66.455 12.411,-84.227 -1.023,-1.494 -3.365,-0.144 -2.586,1.488 6.165,13.001 3.804,24.671 -25.669,59.054 -30.974,36.134 -10.151,72.274 0.295,86.204 1.003,1.336 3.05,0.307 2.61,-1.294 z"
           id="path4567" />
        <path
           inkscape:connector-curvature="0"
           d="m 511.17,535.41 -498.59,0 c -10.848,0 -16.586,12.825 -9.36,20.917 l 22.461,25.117 c 2.379,2.668 5.782,4.187 9.354,4.187 l 453.68,0 c 3.572,0 6.974,-1.519 9.36,-4.187 l 22.455,-25.117 c 7.225,-8.092 1.488,-20.917 -9.354,-20.917 z"
           id="path4569" />
        <path
           inkscape:connector-curvature="0"
           d="m 612,299.21 c 0,-83.072 -78.226,-78.044 -93.913,-76.198 0.031,10.44 -0.257,23.698 -1.255,38.827 11.406,-2.618 55.777,-11.281 53.259,36.812 0,0 -4.608,65.451 -78.138,91.082 -6.987,19.85 -15.769,39.505 -26.868,58.037 150.41,-58.846 146.92,-148.56 146.92,-148.56 z"
           id="path4571" />
      </g>
    </g>
  </g>
  <g
     style="opacity:0.15;fill:none;stroke:#000000;stroke-width:23.42000008;stroke-linecap:round;stroke-linejoin:round"
     transform="matrix(0.042483,0,0,0.042914,12,9.8681)"
     id="g4603">
    <g
       style="fill:none;stroke:#000000;stroke-width:23.42000008;stroke-linecap:round;stroke-linejoin:round"
       id="g4605">
      <g
         style="fill:none;stroke:#000000;stroke-width:23.42000008;stroke-linecap:round;stroke-linejoin:round"
         id="g4607">
        <path
           inkscape:connector-curvature="0"
           d="m 153.42,510.3 106.25,0 0.107,0 106.25,0 c 143.45,-75.34 126.23,-310.41 126.23,-310.41 l 0,-3.478 -232.47,0 -0.107,0 -231.96,0 0,3.478 c 0,0.001 -17.741,235.07 125.71,310.4 z"
           id="path4609" />
        <path
           inkscape:connector-curvature="0"
           d="m 200.12,172.38 c -7.081,-28.72 10.276,-46.448 10.634,-46.812 0.019,-0.019 0.013,-0.013 0.038,-0.031 27.923,-24.627 20.591,-49.248 11.651,-63.818 -0.948,-1.544 -3.233,-0.37 -2.662,1.35 3.095,9.266 -0.477,19.178 -21.526,43.736 -23.566,27.496 -9.247,54.986 -0.76,66.863 0.961,1.349 3.02,0.319 2.625,-1.288 z"
           id="path4611" />
        <path
           inkscape:connector-curvature="0"
           d="m 320.11,172.47 c -10.314,-37.515 12.474,-60.761 12.901,-61.194 0.019,-0.019 0.019,-0.013 0.038,-0.031 37.691,-33.234 24.571,-66.455 12.411,-84.227 -1.023,-1.494 -3.365,-0.144 -2.586,1.488 6.165,13.001 3.804,24.671 -25.669,59.054 -30.974,36.134 -10.151,72.274 0.295,86.204 1.003,1.336 3.05,0.307 2.61,-1.294 z"
           id="path4613" />
        <path
           inkscape:connector-curvature="0"
           d="m 511.17,535.41 -498.59,0 c -10.848,0 -16.586,12.825 -9.36,20.917 l 22.461,25.117 c 2.379,2.668 5.782,4.187 9.354,4.187 l 453.68,0 c 3.572,0 6.974,-1.519 9.36,-4.187 l 22.455,-25.117 c 7.225,-8.092 1.488,-20.917 -9.354,-20.917 z"
           id="path4615" />
        <path
           inkscape:connector-curvature="0"
           d="m 612,299.21 c 0,-83.072 -78.226,-78.044 -93.913,-76.198 0.031,10.44 -0.257,23.698 -1.255,38.827 11.406,-2.618 55.777,-11.281 53.259,36.812 0,0 -4.608,65.451 -78.138,91.082 -6.987,19.85 -15.769,39.505 -26.868,58.037 150.41,-58.846 146.92,-148.56 146.92,-148.56 z"
           id="path4617" />
      </g>
    </g>
  </g>
  <g
     style="fill:#ffffff"
     transform="matrix(0.042483,0,0,0.042914,12,9.8681)"
     id="g4533">
    <g
       style="fill:#ffffff"
       id="g4483">
      <g
         style="fill:#ffffff"
         id="g4485">
        <path
           inkscape:connector-curvature="0"
           d="m 153.42,510.3 106.25,0 0.107,0 106.25,0 c 143.45,-75.34 126.23,-310.41 126.23,-310.41 l 0,-3.478 -232.47,0 -0.107,0 -231.96,0 0,3.478 c 0,0.001 -17.741,235.07 125.71,310.4 z"
           id="path4487" />
        <path
           inkscape:connector-curvature="0"
           d="m 200.12,172.38 c -7.081,-28.72 10.276,-46.448 10.634,-46.812 0.019,-0.019 0.013,-0.013 0.038,-0.031 27.923,-24.627 20.591,-49.248 11.651,-63.818 -0.948,-1.544 -3.233,-0.37 -2.662,1.35 3.095,9.266 -0.477,19.178 -21.526,43.736 -23.566,27.496 -9.247,54.986 -0.76,66.863 0.961,1.349 3.02,0.319 2.625,-1.288 z"
           id="path4489" />
        <path
           inkscape:connector-curvature="0"
           d="m 320.11,172.47 c -10.314,-37.515 12.474,-60.761 12.901,-61.194 0.019,-0.019 0.019,-0.013 0.038,-0.031 37.691,-33.234 24.571,-66.455 12.411,-84.227 -1.023,-1.494 -3.365,-0.144 -2.586,1.488 6.165,13.001 3.804,24.671 -25.669,59.054 -30.974,36.134 -10.151,72.274 0.295,86.204 1.003,1.336 3.05,0.307 2.61,-1.294 z"
           id="path4491" />
        <path
           inkscape:connector-curvature="0"
           d="m 511.17,535.41 -498.59,0 c -10.848,0 -16.586,12.825 -9.36,20.917 l 22.461,25.117 c 2.379,2.668 5.782,4.187 9.354,4.187 l 453.68,0 c 3.572,0 6.974,-1.519 9.36,-4.187 l 22.455,-25.117 c 7.225,-8.092 1.488,-20.917 -9.354,-20.917 z"
           id="path4493" />
        <path
           inkscape:connector-curvature="0"
           d="m 612,299.21 c 0,-83.072 -78.226,-78.044 -93.913,-76.198 0.031,10.44 -0.257,23.698 -1.255,38.827 11.406,-2.618 55.777,-11.281 53.259,36.812 0,0 -4.608,65.451 -78.138,91.082 -6.987,19.85 -15.769,39.505 -26.868,58.037 150.41,-58.846 146.92,-148.56 146.92,-148.56 z"
           id="path4495" />
      </g>
    </g>
  </g>
</svg>
