<?xml version="1.0" encoding="UTF-8" standalone="no"?>
<!-- Created with Inkscape (http://www.inkscape.org/) -->
<svg id="svg2453" xmlns:rdf="http://www.w3.org/1999/02/22-rdf-syntax-ns#" xmlns="http://www.w3.org/2000/svg" height="48" width="48" version="1.0" xmlns:cc="http://creativecommons.org/ns#" xmlns:xlink="http://www.w3.org/1999/xlink" xmlns:dc="http://purl.org/dc/elements/1.1/">
 <metadata id="metadata35">
  <rdf:RDF>
   <cc:Work rdf:about="">
    <dc:format>image/svg+xml</dc:format>
    <dc:type rdf:resource="http://purl.org/dc/dcmitype/StillImage"/>
    <dc:title/>
   </cc:Work>
  </rdf:RDF>
 </metadata>
 <defs id="defs2455">
  <radialGradient id="radialGradient19613" xlink:href="#linearGradient5060" gradientUnits="userSpaceOnUse" cy="486.65" cx="605.71" gradientTransform="matrix(.028917 0 0 .012353 26.973 38.471)" r="117.14"/>
  <linearGradient id="linearGradient5060">
   <stop id="stop5062" offset="0"/>
   <stop id="stop5064" stop-opacity="0" offset="1"/>
  </linearGradient>
  <radialGradient id="radialGradient19616" xlink:href="#linearGradient5060" gradientUnits="userSpaceOnUse" cy="486.65" cx="605.71" gradientTransform="matrix(-.028917 0 0 .012353 21.027 38.471)" r="117.14"/>
  <linearGradient id="linearGradient19619" y2="609.51" gradientUnits="userSpaceOnUse" x2="302.86" gradientTransform="matrix(.084497 0 0 .012353 -6.5396 38.471)" y1="366.65" x1="302.86">
   <stop id="stop5050" stop-opacity="0" offset="0"/>
   <stop id="stop5056" offset=".5"/>
   <stop id="stop5052" stop-opacity="0" offset="1"/>
  </linearGradient>
  <linearGradient id="linearGradient3138" y2="43" gradientUnits="userSpaceOnUse" x2="24" gradientTransform="matrix(1.1622 0 0 .91892 -3.8919 4.446)" y1="5.5641" x1="24">
   <stop id="stop3979" stop-color="#fff" offset="0"/>
   <stop id="stop3981" stop-color="#fff" stop-opacity=".23529" offset=".036262"/>
   <stop id="stop3983" stop-color="#fff" stop-opacity=".15686" offset=".95056"/>
   <stop id="stop3985" stop-color="#fff" stop-opacity=".39216" offset="1"/>
  </linearGradient>
  <linearGradient id="linearGradient3141" y2="47.013" gradientUnits="userSpaceOnUse" x2="25.132" gradientTransform="matrix(1.2571 0 0 .76049 -6.1714 7.0815)" y1=".98521" x1="25.132">
   <stop id="stop3602" stop-color="#f4f4f4" offset="0"/>
   <stop id="stop3604" stop-color="#dbdbdb" offset="1"/>
  </linearGradient>
  <linearGradient id="linearGradient3144" y2="2.9062" gradientUnits="userSpaceOnUse" x2="-51.786" gradientTransform="matrix(1.0382 0 0 .73204 69.527 5.6549)" y1="50.786" x1="-51.786">
   <stop id="stop3106-3" stop-opacity=".31783" offset="0"/>
   <stop id="stop3108-9" stop-opacity=".24031" offset="1"/>
  </linearGradient>
  <linearGradient id="linearGradient4002" y2="96.253" gradientUnits="userSpaceOnUse" x2="45.567" gradientTransform="matrix(-.48996 .00069868 .0018136 -.38149 57.129 48.267)" y1="15.27" x1="45.414">
   <stop id="stop4787-5" stop-color="#262626" offset="0"/>
   <stop id="stop4789-1" stop-color="#4d4d4d" offset="1"/>
  </linearGradient>
  <radialGradient id="radialGradient3874" gradientUnits="userSpaceOnUse" cy="8.4498" cx="7.4957" gradientTransform="matrix(1.9105e-8 1.7677 -2.4311 -3.2568e-8 44.542 -1.0597)" r="20">
   <stop id="stop3750-4" stop-color="#90dbec" offset="0"/>
   <stop id="stop3752-8" stop-color="#55c1ec" offset=".26238"/>
   <stop id="stop3754-1" stop-color="#3689e6" offset=".70495"/>
   <stop id="stop3756-0" stop-color="#2b63a0" offset="1"/>
  </radialGradient>
 </defs>
 <g id="g4290">
  <g id="g3257" opacity=".4">
   <rect id="rect2879" height="3" width="40.8" y="43" x="3.6" fill="url(#linearGradient19619)"/>
   <path id="path2881" d="m3.6 43v2.9998c-1.4891 0.006-3.6-0.672-3.6-1.5s1.6618-1.5 3.6-1.5z" fill="url(#radialGradient19616)"/>
   <path id="path2883" d="m44.4 43v2.9998c1.4891 0.0056 3.6-0.67211 3.6-1.5001 0-0.828-1.6618-1.4997-3.6-1.4997z" fill="url(#radialGradient19613)"/>
  </g>
  <path id="path4160" d="m2 9c10.083 0 44 0.00223 44 0.00223v34.998h-44v-35z" fill="url(#linearGradient3141)"/>
  <path id="rect6741-1" stroke-linejoin="round" d="m45.5 43.5h-43v-34h43z" stroke="url(#linearGradient3138)" stroke-linecap="round" fill="none"/>
  <path id="rect3582-50-4" d="m43.5 41.5h-39l0.0000023-30 39 0.000003z" stroke="#185f9a" stroke-linecap="round" fill="url(#linearGradient4002)"/>
  <path id="path4160-6-1" stroke-linejoin="round" d="m1.5 8.4999c10.312 0 45 0.0025 45 0.0025l0.000047 35.998h-45v-36z" stroke="url(#linearGradient3144)" stroke-width=".99992" fill="none"/>
  <rect id="rect5505" style="color:#000000" height="29.5" width="38.35" y="11.75" x="4.825" fill="url(#radialGradient3874)"/>
  <path id="path59" d="m9 32-1 5h32l-1-5m-30 0" fill="#4a4a4a"/>
  <path id="path61" d="m13.328 28h3.344c0.734 0 1.328 0.594 1.328 1.328v3.344c0 0.734-0.594 1.328-1.328 1.328h-3.344c-0.73 0-1.328-0.594-1.328-1.328v-3.344c0-0.734 0.598-1.328 1.328-1.328" fill="#f9f9f9"/>
  <path id="path63" d="m22.328 28h3.344c0.734 0 1.328 0.594 1.328 1.328v3.344c0 0.734-0.594 1.328-1.328 1.328h-3.344c-0.73 0-1.328-0.594-1.328-1.328v-3.344c0-0.734 0.598-1.328 1.328-1.328" fill="#f9f9f9"/>
  <path id="path65" d="m31.33 28h3.352c0.727 0 1.328 0.594 1.328 1.328v3.344c0 0.734-0.602 1.328-1.328 1.328h-3.352c-0.727 0-1.32-0.594-1.32-1.328v-3.344c0-0.734 0.598-1.328 1.32-1.328" fill="#f9f9f9"/>
 </g>
</svg>
