<?xml version="1.0" encoding="UTF-8" standalone="no"?>
<!-- Created with Inkscape (http://www.inkscape.org/) -->
<svg id="svg4951" xmlns:rdf="http://www.w3.org/1999/02/22-rdf-syntax-ns#" xmlns="http://www.w3.org/2000/svg" height="48px" width="48px" version="1.1" xmlns:cc="http://creativecommons.org/ns#" xmlns:xlink="http://www.w3.org/1999/xlink" xmlns:dc="http://purl.org/dc/elements/1.1/">
 <defs id="defs4953">
  <linearGradient id="linearGradient3189" y2="40.496" gradientUnits="userSpaceOnUse" x2="71.204" gradientTransform="matrix(1.617 0 0 1.617 -92.707 -21.06)" y1="15.369" x1="71.204">
   <stop id="stop4808-4" stop-color="#fff" offset="0"/>
   <stop id="stop4810-0" stop-color="#fff" stop-opacity=".23529" offset=".42448"/>
   <stop id="stop4812-8" stop-color="#fff" stop-opacity=".15686" offset=".82090"/>
   <stop id="stop4814-0" stop-color="#fff" stop-opacity=".39216" offset="1"/>
  </linearGradient>
  <radialGradient id="radialGradient3192" gradientUnits="userSpaceOnUse" cy="3.99" cx="23.896" gradientTransform="matrix(0 2.8885 -3.8128 0 39.213 -65.95)" r="20.397">
   <stop id="stop5352" stop-color="#5a7da5" offset="0"/>
   <stop id="stop5354" stop-color="#13396b" offset="1"/>
  </radialGradient>
  <radialGradient id="radialGradient3195" gradientUnits="userSpaceOnUse" cy="186.17" cx="99.157" gradientTransform="matrix(.27083 0 0 .087623 -2.8551 25.187)" r="62.769">
   <stop id="stop3822-2-6-3" stop-color="#3d3d3d" offset="0"/>
   <stop id="stop3864-8-7-7" stop-color="#686868" stop-opacity=".49804" offset=".5"/>
   <stop id="stop3824-1-2-5" stop-color="#686868" stop-opacity="0" offset="1"/>
  </radialGradient>
 </defs>
 <metadata id="metadata4956">
  <rdf:RDF>
   <cc:Work rdf:about="">
    <dc:format>image/svg+xml</dc:format>
    <dc:type rdf:resource="http://purl.org/dc/dcmitype/StillImage"/>
    <dc:title/>
   </cc:Work>
  </rdf:RDF>
 </metadata>
 <g id="layer1">
  <g id="g4611" transform="matrix(.019008 0 0 .018486 29.752 12.43)" stroke="#fff" stroke-width="53.346" fill="none">
   <g id="g4613" stroke="#fff" stroke-width="53.346" fill="none"></g>
  </g>
  <path id="path3818-0-5" d="m41 41.5a17 5.5 0 0 1 -34 0 17 5.5 0 1 1 34 0z" fill="url(#radialGradient3195)"/>
  <path id="path2555-7-2" style="color:#000000" d="m24 3.5c-11.311 0-20.5 9.1888-20.5 20.5s9.1888 20.5 20.5 20.5 20.5-9.1888 20.5-20.5-9.189-20.5-20.5-20.5z" fill="url(#radialGradient3192)"/>
  <path id="path4747" opacity=".15" stroke-linejoin="round" d="m17.42 8.0918-0.279 0.7695-0.782 0.2012 0.633 0.5078-0.054 0.8187 0.671-0.4554 0.748 0.3044-0.218-0.7888 0.515-0.6308-0.804-0.0332-0.43-0.6934zm-3.674 1.3047-0.121 0.1758l-0.21289-0.00195 0.12891 0.16992-0.06641 0.20312 0.20117-0.070312 0.172 0.1269-0.0059-0.21289 0.17383-0.125-0.20312-0.0625-0.06641-0.20312zm-1.141 2.5235-0.537 0.955-1.068 0.086l0.7168 0.82031-0.25195 1.0703 0.98047-0.44726 0.91211 0.57812-0.11133-1.0977 0.81641-0.71484-1.0488-0.23047-0.4082-1.0195zm8.3008 0.32617-0.12891 0.22266-0.25586 0.01953 0.17188 0.19141-0.06055 0.25 0.23438-0.10547 0.21875 0.13476-0.02539-0.25586 0.19531-0.16602-0.25195-0.05273-0.09766-0.23828zm2.4121 0.43945-0.29688 0.45508-0.53906 0.0098 0.33594 0.42578-0.15625 0.52148 0.50391-0.19336 0.44336 0.3125-0.02539-0.54492 0.42969-0.32812-0.51953-0.14453-0.17578-0.51367zm-8.209 1.0938-0.13672 0.26953-0.29883 0.04102 0.21484 0.21289-0.05273 0.29688 0.26758-0.13867 0.26562 0.14258-0.04883-0.29883 0.21875-0.20898-0.29883-0.04492-0.13086-0.27148zm2.4883 0.8125-0.08594 0.26758-0.26953 0.08203 0.22852 0.16406-0.0059 0.28125 0.22852-0.16797 0.26562 0.09375-0.08984-0.26758 0.16992-0.22461-0.28125 0.002-0.16016-0.23047zm4.6133 1.2812-0.09766 0.23633-0.25195 0.05469 0.19531 0.16602-0.02539 0.25586 0.21875-0.13477 0.23438 0.10352-0.06055-0.25 0.17188-0.18945-0.25586-0.02148-0.12891-0.2207zm-3.3047 0.7793 0.002 0.21289-0.17578 0.12305 0.20312 0.06445 0.0625 0.20312 0.12305-0.17188 0.21484 0.0039-0.12695-0.17188 0.07031-0.20117-0.20312 0.06641-0.16992-0.12891zm-7.0527 0.48047-0.20898 0.11328-0.21289-0.10742 0.04492 0.23438-0.16797 0.16797 0.23633 0.03125 0.10742 0.21289 0.10352-0.2168 0.23438-0.03711-0.17188-0.16406 0.03516-0.23438zm15.902 0.39258-0.21484 0.16211-0.25586-0.08594 0.08594 0.25391-0.16016 0.2168 0.26953-0.0039 0.15625 0.2207 0.08008-0.25781 0.25586-0.08008-0.21875-0.15625 0.002-0.26953zm-13.412 0.79102-0.02148 0.30078-0.25977 0.1543 0.28125 0.11133 0.06445 0.29492 0.19336-0.23047 0.30078 0.02734-0.16016-0.25586 0.11914-0.27734-0.29102 0.07422-0.22656-0.19922zm6.1309 0.52734-0.08594 0.26758-0.26953 0.08203 0.22852 0.16406-0.0039 0.28125 0.22656-0.16602 0.26563 0.0918-0.08984-0.26758 0.17188-0.22266h-0.2832l-0.16016-0.23047zm-2.7715 1.127-0.13281 0.27148-0.29687 0.04687 0.2168 0.20898-0.04883 0.29688 0.26562-0.14258 0.26953 0.13867-0.05469-0.29688 0.21484-0.21289-0.29883-0.04102-0.13477-0.26953zm4.4863 1.0254 0.0039 0.27148-0.2207 0.1543 0.25781 0.08008 0.08008 0.25781 0.15625-0.2207 0.26953 0.0039-0.16211-0.2168 0.08594-0.25391-0.25391 0.08594-0.2168-0.16211zm-6.5957 0.42383-0.16016 0.23047-0.28125-0.002 0.16992 0.22461-0.08789 0.26758 0.26562-0.0918 0.22656 0.16602-0.0059-0.28125 0.22852-0.16406-0.26953-0.08203-0.08594-0.26758zm-3.918 0.0293-0.06445 0.20312-0.20312 0.0625 0.17188 0.12305-0.0039 0.21289 0.17188-0.125 0.20117 0.07031-0.06641-0.20312 0.12891-0.16992-0.21289 0.002-0.12305-0.17578zm1.4434 1.1953 0.03711 0.23633-0.17383 0.16406 0.23438 0.03711 0.10352 0.21484 0.10742-0.21094 0.23828-0.03125-0.16992-0.16797 0.04492-0.23438-0.21289 0.10742-0.20898-0.11524zm4.7773 0.48242-0.09961 0.23828-0.25 0.05273 0.19531 0.16797-0.02734 0.25391 0.21875-0.13281 0.23438 0.10352-0.05859-0.25 0.17188-0.19141-0.25781-0.01953-0.12695-0.22266zm2.9688 0.31445-0.16992 0.12891-0.20117-0.06641 0.06836 0.20117-0.125 0.17188 0.21289-0.0039 0.125 0.17188 0.06055-0.20312 0.20312-0.06445-0.17383-0.12305v-0.21289z" stroke="#000" stroke-linecap="round" stroke-width=".5" fill="none"/>
  <path id="path4724" opacity=".15" stroke-linejoin="round" d="m29.829 8a8.1619 8 0 0 1 4.322 7.057 8.1619 8 0 0 1 -8.151 8 8.1619 8 0 0 0 3.838 0.943 8.1619 8 0 0 0 8.162 -8 8.1619 8 0 0 0 -8.162 -8 8.1619 8 0 0 0 -0.0091 0z" stroke="#000" stroke-linecap="round" fill="none"/>
  <path id="path4176" opacity=".3" stroke-linejoin="round" style="color:#000000" d="m43.5 24c0 10.77-8.73 19.5-19.5 19.5s-19.5-8.73-19.5-19.5 8.73-19.5 19.5-19.5 19.5 8.73 19.5 19.5z" stroke="url(#linearGradient3189)" stroke-linecap="round" fill="none"/>
  <path id="path3871" opacity=".4" style="color:#000000" d="m24 3.5c-11.311 0-20.5 9.189-20.5 20.5s9.189 20.5 20.5 20.5 20.5-9.189 20.5-20.5-9.189-20.5-20.5-20.5z" stroke="#000" fill="none"/>
  <g id="g4652" opacity=".15" transform="matrix(.019008 0 0 .018486 15.774 25)" stroke="#fff" stroke-width="53.346" fill="none">
   <g id="g4654" stroke="#fff" stroke-width="53.346" fill="none">
    <g id="g4656" stroke="#fff" stroke-width="53.346" fill="none">
     <path id="path4658" d="m366.59 865.5h10c13.8 0 25-11.199 25-25v-291.6l181.5 289.6c7.3 11.699 22.8 15.199 34.5 7.9l8.5-5.301c11.7-7.299 15.2-22.799 7.9-34.5l-200-319c8.5-12.199 13.399-27.1 13.399-43.1 0-16.1-5.1-31.1-13.6-43.4l-137.3 33.8c-0.4 3.199-0.601 6.4-0.601 9.699 0 16 5 30.801 13.4 43.1l-200 319c-7.3 11.701-3.8 27.102 7.9 34.5l8.5 5.301c11.7 7.301 27.1 3.801 34.5-7.9l181.4-289.7v291.6c0 13.801 11.201 25 25 25z"/>
     <path id="path4660" d="m68.09 420.9c1.1 0 116.8-28.2 116.8-28.2-13.5-22.3-24.9-50.8-32.3-81.2-7.5-30.6-10.5-60.9-8.8-87l-113.6 27.8c-18.2 4.5-23.8 45.7-12.4 92.2 10.601 43.7 32.501 76.4 50.3 76.4z"/>
     <path id="path4662" d="m354.09 134.3-154.6 37.8c-5.7 1.4-10.6 5.3-14.5 11.3-3 4.6-5.5 10.4-7.4 17.2-1.4 4.9-2.4 10.3-3.1 16.2-3 23.8-0.9 54.7 7.2 87.4 8 32.7 20.4 61.101 34 80.8 3.4 4.9 6.8 9.2 10.3 12.9 4.8 5.2 9.7 9.2 14.5 11.9 4.5 2.5 9 3.899 13.3 3.899 1.6 0 3.2-0.2 4.7-0.6l147.6-36.1 7.7-1.899c-22.6-30.7-40.2-73.6-50.7-116.4-10.8-44.1-14.1-87.7-9.399-122.7 0.199-0.501 0.3-1.101 0.399-1.701z"/>
     <path id="path4664" d="m852.89 274.1-62.399-255c-2.8-11.4-13-19.1-24.3-19.1-2 0-4 0.2-6 0.7l-345.4 84.6c-4.1 1-7.8 3-11.2 6-4.899 4.3-9.1 10.6-12.399 18.5-2.101 5-3.801 10.6-5.2 16.7-7.101 31.2-5.5 76.6 6.399 125.2 12.2 49.7 32.4 91.5 53.601 115.6 4.3 4.8 8.6 9 12.899 12.3 1.101 0.899 2.4 1.7 3.7 2.399 9.601 5.5 21.101 7 31.9 4.301l340.1-82.101c13.4-3.2 21.6-16.7 18.299-30.1z"/>
    </g>
   </g>
  </g>
  <path id="path4261" d="m29.829 8a8.1619 8 0 0 1 4.322 7.057 8.1619 8 0 0 1 -8.151 8 8.1619 8 0 0 0 3.838 0.943 8.1619 8 0 0 0 8.162 -8 8.1619 8 0 0 0 -8.162 -8 8.1619 8 0 0 0 -0.0091 0z" fill="#ffdc4f"/>
  <path id="path4270" d="m17.42 8.0918-0.279 0.7695-0.782 0.2012 0.633 0.5078-0.054 0.8187 0.671-0.4554 0.748 0.3044-0.218-0.7888 0.515-0.6308-0.804-0.0332-0.43-0.6934zm-3.674 1.3047-0.121 0.1758l-0.21289-0.00195 0.12891 0.16992-0.06641 0.20312 0.20117-0.070312 0.172 0.1269-0.0059-0.21289 0.17383-0.125-0.20312-0.0625-0.06641-0.20312zm-1.141 2.5235-0.537 0.955-1.068 0.086l0.7168 0.82031-0.25195 1.0703 0.98047-0.44726 0.91211 0.57812-0.11133-1.0977 0.81641-0.71484-1.0488-0.23047-0.4082-1.0195zm8.3008 0.32617-0.12891 0.22266-0.25586 0.01953 0.17188 0.19141-0.06055 0.25 0.23438-0.10547 0.21875 0.13476-0.02539-0.25586 0.19531-0.16602-0.25195-0.05273-0.09766-0.23828zm2.4121 0.43945-0.29688 0.45508-0.53906 0.0098 0.33594 0.42578-0.15625 0.52148 0.50391-0.19336 0.44336 0.3125-0.02539-0.54492 0.42969-0.32812-0.51953-0.14453-0.17578-0.51367zm-8.209 1.0938-0.13672 0.26953-0.29883 0.04102 0.21484 0.21289-0.05273 0.29688 0.26758-0.13867 0.26562 0.14258-0.04883-0.29883 0.21875-0.20898-0.29883-0.04492-0.13086-0.27148zm2.4883 0.8125-0.08594 0.26758-0.26953 0.08203 0.22852 0.16406-0.0059 0.28125 0.22852-0.16797 0.26562 0.09375-0.08984-0.26758 0.16992-0.22461-0.28125 0.002-0.16016-0.23047zm4.6133 1.2812-0.09766 0.23633-0.25195 0.05469 0.19531 0.16602-0.02539 0.25586 0.21875-0.13477 0.23438 0.10352-0.06055-0.25 0.17188-0.18945-0.25586-0.02148-0.12891-0.2207zm-3.3047 0.7793 0.002 0.21289-0.17578 0.12305 0.20312 0.06445 0.0625 0.20312 0.12305-0.17188 0.21484 0.0039-0.12695-0.17188 0.07031-0.20117-0.20312 0.06641-0.16992-0.12891zm-7.0527 0.48047-0.20898 0.11328-0.21289-0.10742 0.04492 0.23438-0.16797 0.16797 0.23633 0.03125 0.10742 0.21289 0.10352-0.2168 0.23438-0.03711-0.17188-0.16406 0.03516-0.23438zm15.902 0.39258-0.21484 0.16211-0.25586-0.08594 0.08594 0.25391-0.16016 0.2168 0.26953-0.0039 0.15625 0.2207 0.08008-0.25781 0.25586-0.08008-0.21875-0.15625 0.002-0.26953zm-13.412 0.79102-0.02148 0.30078-0.25977 0.1543 0.28125 0.11133 0.06445 0.29492 0.19336-0.23047 0.30078 0.02734-0.16016-0.25586 0.11914-0.27734-0.29102 0.07422-0.22656-0.19922zm6.1309 0.52734-0.08594 0.26758-0.26953 0.08203 0.22852 0.16406-0.0039 0.28125 0.22656-0.16602 0.26563 0.0918-0.08984-0.26758 0.17188-0.22266h-0.2832l-0.16016-0.23047zm-2.7715 1.127-0.13281 0.27148-0.29687 0.04687 0.2168 0.20898-0.04883 0.29688 0.26562-0.14258 0.26953 0.13867-0.05469-0.29688 0.21484-0.21289-0.29883-0.04102-0.13477-0.26953zm4.4863 1.0254 0.0039 0.27148-0.2207 0.1543 0.25781 0.08008 0.08008 0.25781 0.15625-0.2207 0.26953 0.0039-0.16211-0.2168 0.08594-0.25391-0.25391 0.08594-0.2168-0.16211zm-6.5957 0.42383-0.16016 0.23047-0.28125-0.002 0.16992 0.22461-0.08789 0.26758 0.26562-0.0918 0.22656 0.16602-0.0059-0.28125 0.22852-0.16406-0.26953-0.08203-0.08594-0.26758zm-3.918 0.0293-0.06445 0.20312-0.20312 0.0625 0.17188 0.12305-0.0039 0.21289 0.17188-0.125 0.20117 0.07031-0.06641-0.20312 0.12891-0.16992-0.21289 0.002-0.12305-0.17578zm1.4434 1.1953 0.03711 0.23633-0.17383 0.16406 0.23438 0.03711 0.10352 0.21484 0.10742-0.21094 0.23828-0.03125-0.16992-0.16797 0.04492-0.23438-0.21289 0.10742-0.20898-0.11524zm4.7773 0.48242-0.09961 0.23828-0.25 0.05273 0.19531 0.16797-0.02734 0.25391 0.21875-0.13281 0.23438 0.10352-0.05859-0.25 0.17188-0.19141-0.25781-0.01953-0.12695-0.22266zm2.9688 0.31445-0.16992 0.12891-0.20117-0.06641 0.06836 0.20117-0.125 0.17188 0.21289-0.0039 0.125 0.17188 0.06055-0.20312 0.20312-0.06445-0.17383-0.12305v-0.21289z" fill="#fff"/>
  <g id="g4500" fill="#272727" transform="matrix(.019008 0 0 .018486 15.774 25)">
   <g id="g4452" fill="#272727">
    <g id="g4454" fill="#272727">
     <path id="path4456" d="m366.59 865.5h10c13.8 0 25-11.199 25-25v-291.6l181.5 289.6c7.3 11.699 22.8 15.199 34.5 7.9l8.5-5.301c11.7-7.299 15.2-22.799 7.9-34.5l-200-319c8.5-12.199 13.399-27.1 13.399-43.1 0-16.1-5.1-31.1-13.6-43.4l-137.3 33.8c-0.4 3.199-0.601 6.4-0.601 9.699 0 16 5 30.801 13.4 43.1l-200 319c-7.3 11.701-3.8 27.102 7.9 34.5l8.5 5.301c11.7 7.301 27.1 3.801 34.5-7.9l181.4-289.7v291.6c0 13.801 11.201 25 25 25z"/>
     <path id="path4458" d="m68.09 420.9c1.1 0 116.8-28.2 116.8-28.2-13.5-22.3-24.9-50.8-32.3-81.2-7.5-30.6-10.5-60.9-8.8-87l-113.6 27.8c-18.2 4.5-23.8 45.7-12.4 92.2 10.601 43.7 32.501 76.4 50.3 76.4z"/>
     <path id="path4460" d="m354.09 134.3-154.6 37.8c-5.7 1.4-10.6 5.3-14.5 11.3-3 4.6-5.5 10.4-7.4 17.2-1.4 4.9-2.4 10.3-3.1 16.2-3 23.8-0.9 54.7 7.2 87.4 8 32.7 20.4 61.101 34 80.8 3.4 4.9 6.8 9.2 10.3 12.9 4.8 5.2 9.7 9.2 14.5 11.9 4.5 2.5 9 3.899 13.3 3.899 1.6 0 3.2-0.2 4.7-0.6l147.6-36.1 7.7-1.899c-22.6-30.7-40.2-73.6-50.7-116.4-10.8-44.1-14.1-87.7-9.399-122.7 0.199-0.501 0.3-1.101 0.399-1.701z"/>
     <path id="path4462" d="m852.89 274.1-62.399-255c-2.8-11.4-13-19.1-24.3-19.1-2 0-4 0.2-6 0.7l-345.4 84.6c-4.1 1-7.8 3-11.2 6-4.899 4.3-9.1 10.6-12.399 18.5-2.101 5-3.801 10.6-5.2 16.7-7.101 31.2-5.5 76.6 6.399 125.2 12.2 49.7 32.4 91.5 53.601 115.6 4.3 4.8 8.6 9 12.899 12.3 1.101 0.899 2.4 1.7 3.7 2.399 9.601 5.5 21.101 7 31.9 4.301l340.1-82.101c13.4-3.2 21.6-16.7 18.299-30.1z"/>
    </g>
   </g>
  </g>
  <g id="g4521" opacity=".15" transform="matrix(.019008 0 0 .018486 15.775 25.001)">
   <g id="g4523">
    <g id="g4525">
     <path id="path4527" d="m44.316 12.43c-0.03802 0-0.07527 0.0044-0.11328 0.01367l-6.5664 1.5645c-0.07793 0.01849-0.14826 0.05391-0.21289 0.10938-0.09312 0.07949-0.17362 0.19771-0.23633 0.34375-0.03994 0.09243-0.07106 0.19583-0.09766 0.30859-0.13498 0.57678-0.10508 1.416 0.12109 2.3145 0.2319 0.91878 0.61654 1.6912 1.0195 2.1367 0.08174 0.08873 0.16242 0.16556 0.24414 0.22656 0.02093 0.01662 0.0456 0.032 0.07031 0.04492 0.1825 0.10168 0.40215 0.12997 0.60742 0.08008l6.4648-1.5176c0.25471-0.05916 0.4104-0.30892 0.34766-0.55664l-1.1875-4.7148c-0.05322-0.21074-0.24614-0.35352-0.46094-0.35352zm-0.01563 0.50391 1.168 4.6426-6.4316 1.5098h-0.002c-0.08356 0.02031-0.17815 0.0066-0.24609-0.03125l-0.0059-0.002-0.0039-0.002-0.0059-0.0039c-0.04609-0.03441-0.10526-0.09012-0.17188-0.16211-0.31605-0.34942-0.6901-1.0668-0.90625-1.9219v-0.002c-0.21016-0.83619-0.22576-1.6225-0.11914-2.0781 0.02211-0.09334 0.04689-0.16844 0.07031-0.22266v-0.002c0.0401-0.09338 0.0864-0.14721 0.10156-0.16016v-0.002h0.002l0.002-0.002 6.5488-1.5605zm-7.8184 1.9785-2.9375 0.69922c-0.10835 0.02588-0.20126 0.09807-0.27539 0.20898-0.05702 0.08504-0.10451 0.19265-0.14062 0.31836-0.02661 0.09058-0.04724 0.18976-0.06055 0.29883-0.05702 0.43998-0.01725 1.0127 0.13672 1.6172 0.15207 0.6045 0.38797 1.128 0.64648 1.4922 0.06463 0.09058 0.13074 0.16988 0.19727 0.23828 0.09124 0.09613 0.18415 0.17079 0.27539 0.2207 0.08554 0.04622 0.17022 0.07227 0.25195 0.07227 0.03041 0 0.06133-0.0043 0.08984-0.01172l2.8047-0.66602 0.14648-0.03516c-0.428-0.567-0.762-1.361-0.962-2.152-0.205-0.815-0.269-1.621-0.179-2.268 0.0038-0.0093 0.0059-0.02211 0.0078-0.0332zm-0.45312 0.62109c-0.0076 0.58042-0.01945 1.167 0.14062 1.8027 0.15309 0.60688 0.46019 1.1459 0.75586 1.6797l-2.3535 0.56055c0.0072 0.000745 0.01175-0.000037-0.0078-0.0098h-0.002c-0.03257-0.01798-0.08733-0.05856-0.15039-0.125l-0.002-0.002-0.002-0.002c-0.04674-0.04805-0.09793-0.10914-0.14844-0.17969l-0.002-0.002c-0.21035-0.29691-0.42972-0.77116-0.56836-1.3223v-0.002c-0.14041-0.55127-0.17111-1.074-0.125-1.4297v-0.002-0.002c0.0102-0.08357 0.02643-0.15581 0.04492-0.21875v-0.002c0.02491-0.0867 0.05631-0.14812 0.07617-0.17774v-0.002c0.0056-0.0084 0.0026-0.0056 0.0039-0.0078l2.3398-0.55664zm-3.543 1.0469-2.1602 0.51367c-0.34595 0.08319-0.45302 0.84546-0.23633 1.7051 0.20151 0.80786 0.6187 1.4121 0.95703 1.4121 0.02091 0 2.2207-0.52148 2.2207-0.52148-0.25661-0.41225-0.47457-0.93801-0.61523-1.5-0.14256-0.56568-0.19833-1.1269-0.16602-1.6094zm-0.43164 0.61719c0.02236 0.36848 0.01591 0.72886 0.11328 1.1152 0.09506 0.37935 0.2698 0.69062 0.42188 1.0234-0.20492 0.0485-0.26885 0.0632-0.53906 0.12695-0.27611 0.06515-0.55322 0.13096-0.76172 0.17969-0.10271 0.02401-0.18733 0.04466-0.24805 0.05859 0.09828-0.000185 0.0101 0.0024-0.11133-0.17578-0.12808-0.18793-0.26724-0.49395-0.35547-0.84766v-0.002c-0.09501-0.37691-0.1127-0.73079-0.08203-0.95117 0.01279-0.0919 0.03215-0.13852 0.04492-0.16797l1.5176-0.35938zm5.9434 2.6484-2.6094 0.625c-0.0076 0.05914-0.01172 0.11675-0.01172 0.17774 0 0.29578 0.09424 0.56951 0.25391 0.79687l-3.8008 5.8984c-0.13876 0.21631-0.07201 0.49996 0.15039 0.63672l0.16016 0.09766c0.2224 0.13497 0.51559 0.07178 0.65625-0.14453l3.4492-5.3555v5.3906c0 0.25513 0.21232 0.46094 0.47461 0.46094h0.18945c0.26231 0 0.47656-0.20581 0.47656-0.46094v-5.3906l3.4492 5.3535c0.13876 0.21627 0.43385 0.28142 0.65625 0.14648l0.16016-0.09961c0.2224-0.13493 0.28915-0.42041 0.15039-0.63672l-3.8008-5.8984c0.16157-0.22552 0.25391-0.49914 0.25391-0.79492 0-0.29763-0.09624-0.57535-0.25781-0.80274zm-0.309 0.591c0.01966 0.07285 0.06836 0.13426 0.06836 0.21289 0 0.19172-0.05758 0.36073-0.16016 0.50391l-0.19726 0.27539 3.959 6.1465-0.11328 0.07031-4.3574-6.7656v7.0508h-0.14062v-7.0508l-4.3574 6.7637-0.11328-0.06836 3.959-6.1406-0.19336-0.27539c-0.06272-0.08932-0.07075-0.2019-0.09766-0.30664l1.745-0.416z" transform="matrix(52.609 0 0 54.094 -1565.2 -672.4)"/>
    </g>
   </g>
  </g>
  <path id="path4717" opacity=".15" d="m29.828 8a8.1619 8 0 0 1 4.3223 7.0566 8.1619 8 0 0 1 -8.1504 8 8.1619 8 0 0 0 3.838 0.943 8.1619 8 0 0 0 8.162 -8 8.1619 8 0 0 0 -8.162 -8 8.1619 8 0 0 0 -0.01 0zm2.1504 0.92188c3.172 0.9198 5.522 3.6781 5.522 7.0781-0.000001 4.1426-3.4193 7.5-7.6621 7.5-0.55638-0.000482-1.0546-0.27582-1.5938-0.39258 3.657-0.99338 6.4063-4.1435 6.4062-8.0508-0.000892-2.3498-0.99241-4.5554-2.6719-6.1348z" fill="#fff"/>
 </g>
</svg>
