<?xml version="1.0" encoding="UTF-8" standalone="no"?>
<!-- Created with Inkscape (http://www.inkscape.org/) -->
<svg id="svg4951" xmlns:rdf="http://www.w3.org/1999/02/22-rdf-syntax-ns#" xmlns="http://www.w3.org/2000/svg" height="48px" width="48px" version="1.1" xmlns:cc="http://creativecommons.org/ns#" xmlns:xlink="http://www.w3.org/1999/xlink" xmlns:dc="http://purl.org/dc/elements/1.1/">
 <defs id="defs4953">
  <linearGradient id="linearGradient3253" y2="40.496" gradientUnits="userSpaceOnUse" x2="71.204" gradientTransform="matrix(1.617 0 0 1.617 -92.707 -21.06)" y1="15.369" x1="71.204">
   <stop id="stop4808-4" stop-color="#fff" offset="0"/>
   <stop id="stop4810-0" stop-color="#fff" stop-opacity=".23529" offset=".42448"/>
   <stop id="stop4812-8" stop-color="#fff" stop-opacity=".15686" offset=".82090"/>
   <stop id="stop4814-0" stop-color="#fff" stop-opacity=".39216" offset="1"/>
  </linearGradient>
  <radialGradient id="radialGradient3256" gradientUnits="userSpaceOnUse" cy="3.99" cx="23.896" gradientTransform="matrix(0 2.8885 -3.8128 0 39.213 -65.95)" r="20.397">
   <stop id="stop3244-9-33-7-0-6" stop-color="#b386bd" offset="0"/>
   <stop id="stop3248-1-7-8-8-6" stop-color="#9f6c9c" offset=".66094"/>
   <stop id="stop3250-9-3-0-5-2" stop-color="#b01bb0" offset="1"/>
  </radialGradient>
  <radialGradient id="radialGradient3259" gradientUnits="userSpaceOnUse" cy="186.17" cx="99.157" gradientTransform="matrix(.27083 0 0 .087623 -2.8551 25.187)" r="62.769">
   <stop id="stop3822-2-6-3" stop-color="#3d3d3d" offset="0"/>
   <stop id="stop3864-8-7-7" stop-color="#686868" stop-opacity=".49804" offset=".5"/>
   <stop id="stop3824-1-2-5" stop-color="#686868" stop-opacity="0" offset="1"/>
  </radialGradient>
 </defs>
 <metadata id="metadata4956">
  <rdf:RDF>
   <cc:Work rdf:about="">
    <dc:format>image/svg+xml</dc:format>
    <dc:type rdf:resource="http://purl.org/dc/dcmitype/StillImage"/>
    <dc:title/>
   </cc:Work>
  </rdf:RDF>
 </metadata>
 <g id="layer1">
  <path id="path3818-0-5" d="m41 41.5a17 5.5 0 0 1 -34 0 17 5.5 0 1 1 34 0z" fill="url(#radialGradient3259)"/>
  <g id="g4089">
   <path id="path2555-7-2" style="color:#000000" d="m24 3.5c-11.311 0-20.5 9.1888-20.5 20.5s9.1888 20.5 20.5 20.5 20.5-9.1888 20.5-20.5-9.189-20.5-20.5-20.5z" fill="url(#radialGradient3256)"/>
   <path id="path4176" opacity=".3" stroke-linejoin="round" style="color:#000000" d="m43.5 24c0 10.77-8.73 19.5-19.5 19.5s-19.5-8.73-19.5-19.5 8.73-19.5 19.5-19.5 19.5 8.73 19.5 19.5z" stroke="url(#linearGradient3253)" stroke-linecap="round" fill="none"/>
   <path id="path3871" opacity=".7" style="color:#000000" d="m24 3.5c-11.311 0-20.5 9.189-20.5 20.5s9.189 20.5 20.5 20.5 20.5-9.189 20.5-20.5-9.189-20.5-20.5-20.5z" stroke="#9f6c9c" fill="none"/>
   <path id="path5948" d="m37.644 15.644c-4.8831-0.6272-8.0734 0.42948-10.804 1.8656 2.7748-3.5345 6.239-4.6398 10.804-1.8656z" fill-rule="evenodd" fill="#2e3436"/>
   <path id="path5950" d="m11.215 15.842c4.643-1.6372 7.9839-1.273 10.955-0.44154-3.4543-2.874-7.0733-3.2283-10.955 0.44154z" fill-rule="evenodd" fill="#2e3436"/>
   <path id="path5944" opacity=".45923" d="m9.5647 29.174c10.899 2.319 24.576-3.628 28.027-5.539" stroke="#c09dbd" stroke-width="1px" fill="none"/>
   <path id="path5946" opacity=".39130" d="m9.6761 29.99c1.1634 0.66659 2.2808 2.1621 4.4204 3.4751 2.6078 1.6003 5.0544 2.9478 7.9929 4.1169 2.5932 1.0317 7.5933 1.8087 10.035-0.97412 2.901-3.307 5.2845-11.543 6.0633-12.221" stroke="#75507b" stroke-width="1px" fill="none"/>
   <path id="path5952" d="m36.875 25.108c-10.511 5.3015-20.535 5.1222-27 4.0938l0.0503 0.90679c10.473 7.497 19.865 11.529 23.699 2.585z" fill-rule="evenodd" stroke="#555753" stroke-width="1px" fill="#eeeeec"/>
  </g>
 </g>
</svg>
