<?xml version="1.0" encoding="UTF-8" standalone="no"?>
<!-- Created with Inkscape (http://www.inkscape.org/) -->

<svg
   xmlns:dc="http://purl.org/dc/elements/1.1/"
   xmlns:cc="http://creativecommons.org/ns#"
   xmlns:rdf="http://www.w3.org/1999/02/22-rdf-syntax-ns#"
   xmlns:svg="http://www.w3.org/2000/svg"
   xmlns="http://www.w3.org/2000/svg"
   xmlns:xlink="http://www.w3.org/1999/xlink"
   xmlns:sodipodi="http://sodipodi.sourceforge.net/DTD/sodipodi-0.dtd"
   xmlns:inkscape="http://www.inkscape.org/namespaces/inkscape"
   version="1.0"
   width="48"
   height="48"
   id="svg3578"
   inkscape:version="0.91 r"
   sodipodi:docname="chess.svg.svg">
  <sodipodi:namedview
     pagecolor="#ffffff"
     bordercolor="#666666"
     borderopacity="1"
     objecttolerance="10"
     gridtolerance="10"
     guidetolerance="10"
     inkscape:pageopacity="0"
     inkscape:pageshadow="2"
     inkscape:window-width="1600"
     inkscape:window-height="845"
     id="namedview38"
     showgrid="false"
     inkscape:zoom="10.66"
     inkscape:cx="27.391912"
     inkscape:cy="22.081244"
     inkscape:window-x="0"
     inkscape:window-y="30"
     inkscape:window-maximized="1"
     inkscape:current-layer="svg3578" />
  <metadata
     id="metadata43">
    <rdf:RDF>
      <cc:Work
         rdf:about="">
        <dc:format>image/svg+xml</dc:format>
        <dc:type
           rdf:resource="http://purl.org/dc/dcmitype/StillImage" />
        <dc:title></dc:title>
      </cc:Work>
    </rdf:RDF>
  </metadata>
  <defs
     id="defs3580">
    <linearGradient
       x1="25.058001"
       y1="47.028"
       x2="25.058001"
       y2="39.999001"
       id="linearGradient2877-634-617"
       gradientUnits="userSpaceOnUse">
      <stop
         id="stop2895"
         style="stop-color:#181818;stop-opacity:0"
         offset="0" />
      <stop
         id="stop2897"
         style="stop-color:#181818;stop-opacity:1"
         offset="0.5" />
      <stop
         id="stop2899"
         style="stop-color:#181818;stop-opacity:0"
         offset="1" />
    </linearGradient>
    <radialGradient
       cx="4.993"
       cy="43.5"
       r="2.5"
       id="radialGradient2875-742-326"
       gradientUnits="userSpaceOnUse"
       gradientTransform="matrix(2.0038,0,0,1.4,-20.012,-104.4)">
      <stop
         id="stop2889"
         style="stop-color:#181818;stop-opacity:1"
         offset="0" />
      <stop
         id="stop2891"
         style="stop-color:#181818;stop-opacity:0"
         offset="1" />
    </radialGradient>
    <radialGradient
       cx="4.993"
       cy="43.5"
       r="2.5"
       id="radialGradient2873-966-168"
       gradientUnits="userSpaceOnUse"
       gradientTransform="matrix(2.0038,0,0,1.4,27.988,-17.4)">
      <stop
         id="stop2883"
         style="stop-color:#181818;stop-opacity:1"
         offset="0" />
      <stop
         id="stop2885"
         style="stop-color:#181818;stop-opacity:0"
         offset="1" />
    </radialGradient>
    <linearGradient
       x1="7"
       y1="4.0325999"
       x2="6"
       y2="43.033001"
       id="linearGradient3008"
       gradientUnits="userSpaceOnUse"
       gradientTransform="translate(0,0.96744)">
      <stop
         id="stop3882"
         style="stop-color:#c3a67d;stop-opacity:1"
         offset="0" />
      <stop
         id="stop3884"
         style="stop-color:#a17d4f;stop-opacity:1"
         offset="0.77499998" />
      <stop
         id="stop3888"
         style="stop-color:#836845;stop-opacity:1"
         offset="1" />
    </linearGradient>
    <radialGradient
       cx="7.4956999"
       cy="8.4497995"
       r="20"
       id="radialGradient3006"
       gradientUnits="userSpaceOnUse"
       gradientTransform="matrix(-5.554e-6,1.8475,-3.0782,-9.3318e-6,50.01,-7.7982)">
      <stop
         id="stop3892"
         style="stop-color:#dac197;stop-opacity:1"
         offset="0" />
      <stop
         id="stop3894"
         style="stop-color:#c1a581;stop-opacity:1"
         offset="0.82028002" />
      <stop
         id="stop3898"
         style="stop-color:#a68b60;stop-opacity:1"
         offset="1" />
    </radialGradient>
    <linearGradient
       x1="24"
       y1="5"
       x2="24"
       y2="43"
       id="linearGradient3003"
       gradientUnits="userSpaceOnUse"
       gradientTransform="translate(0,1)">
      <stop
         id="stop2919"
         style="stop-color:#ffffff;stop-opacity:1"
         offset="0" />
      <stop
         id="stop2921"
         style="stop-color:#ffffff;stop-opacity:0"
         offset="1" />
    </linearGradient>
    <linearGradient
       inkscape:collect="always"
       xlink:href="#linearGradient3003"
       id="linearGradient4279"
       x1="15.826422"
       y1="-11.446399"
       x2="15.675304"
       y2="61.004147"
       gradientUnits="userSpaceOnUse" />
  </defs>
  <g
     id="g2036"
     transform="matrix(1.1,0,0,0.44444,-2.4,25.111)">
    <g
       style="opacity:0.4"
       id="g3712"
       transform="matrix(1.0526,0,0,1.2857,-1.2632,-13.429)">
      <rect
         style="fill:url(#radialGradient2873-966-168)"
         id="rect2801"
         y="40"
         x="38"
         height="7"
         width="5" />
      <rect
         style="fill:url(#radialGradient2875-742-326)"
         id="rect3696"
         transform="scale(-1,-1)"
         y="-47"
         x="-10"
         height="7"
         width="5" />
      <rect
         style="fill:url(#linearGradient2877-634-617)"
         id="rect3700"
         y="40"
         x="10"
         height="7"
         width="28" />
    </g>
  </g>
  <rect
     style="fill:url(#radialGradient3006);stroke:url(#linearGradient3008);stroke-linecap:round;stroke-linejoin:round"
     id="rect5505"
     y="5.4674001"
     x="4.5"
     ry="2.2321999"
     rx="2.2321999"
     height="39"
     width="39" />
  <rect
     style="opacity:0.4;fill:none;stroke:url(#linearGradient3003);stroke-linecap:round;stroke-linejoin:round"
     id="rect6741"
     y="6.5"
     x="5.5"
     ry="1.3652"
     rx="1.3652"
     height="37"
     width="37" />
  <path
     style="opacity:0.2;fill:#1f1911;fill-rule:evenodd"
     id="rect4691"
     inkscape:connector-curvature="0"
     d="m 20.1265,32.99984 -7.0103,0 6e-6,5 7.0103,0 z m 7.9815,-24.9399999 -8.0186,0 -0.006,4.9999999 8.0186,0 z m 13.953,-0.11954 -7,0 -0.006,4.9999999 7,0 z m -7.006,5.0130999 -6.9532,0 -5.39e-4,5.0467 6.9532,0 z m -22.068,-5.0137999 -6.9812,0 L 6,12.9394 l 6.9812,0 z m 29.067,5.0130999 -5.38e-4,5.0467 z m 0,5.047 -7,0 0,5 7,0 z m -7,5 -6.9532,0 0,5 6.9532,0 z m -6.9532,-5 -8.0186,0 0,5 8.0186,0 z m -8.0181,-5.0467 -7.0103,0 -10e-4,5.047 7.01,0 z m -7.011,5.047 -6.9813,0 0,5 6.9813,0 z m 7.0103,5 -7.0103,0 0,5 7.0103,0 z m -7.0103,5 -6.9813,0 0,5 6.9813,0 z m 28.982,-5 0,5 z m 2e-6,5 -7,0 0,5 7,0 z m -2e-6,5 6e-6,5 z m 8e-6,5 -7,0 -0.018,5 7,0 z m -7,-5 -6.9532,0 7e-6,5 6.9532,0 z m -6.953,-5 -8.0186,0 0,5 8.0186,0 z m -0.09354,10 -8.0186,0 -0.017,5 8.0186,0 z m -14.935,0 -6.9813,0 -0.0182,5 6.9813,0 z" />
  <g
     style="fill:none;fill-opacity:1;stroke:url(#linearGradient4279);stroke-opacity:1;stroke-width:1.44084256;stroke-miterlimit:4;stroke-dasharray:none;opacity:0.5"
     transform="matrix(0.66667798,0,0,0.7225216,12.927876,13)"
     id="g4237">
    <g
       style="fill:none;fill-opacity:1;stroke:url(#linearGradient4279);stroke-opacity:1;stroke-width:1.44084256;stroke-miterlimit:4;stroke-dasharray:none"
       id="g4239">
      <path
         style="fill:none;fill-opacity:1;stroke:url(#linearGradient4279);stroke-opacity:1;stroke-width:1.44084256;stroke-miterlimit:4;stroke-dasharray:none"
         inkscape:connector-curvature="0"
         d="m 28.032,32.193 c 0.169,0.375 0.35,1.024 0.35,1.024 l -23.58,0 c 0,0 0.192,-0.763 0.39,-1.157 0.191,-0.39 0.986,-1.059 0.998,-1.082 -0.923,-1.025 -1.7,-2.343 -1.567,-3.912 0.13,-1.576 3.285,-4.771 3.303,-4.854 -0.183,0 -0.293,0 -0.311,0 C 7.384,22.201 6.682,21.826 6.831,21.339 7,20.727 7.756,20.574 7.98,20.574 c 0.03,0 0.248,0 0.593,0 0.059,-0.098 0.157,-0.297 0.157,-0.297 l 1.509,-11.683 0.007,0 -0.137,-0.211 C 9.895,8.386 8.458,8.293 8.471,7.357 8.483,6.343 9.851,6.306 9.89,6.203 l -0.057,0 C 9.833,6.203 8.219,5.4 7.112,3.58 6.004,1.759 5.89,0 5.89,0 l 5.326,0 -0.379,2.91 3.732,0 -0.377,-2.91 4.77,0 -0.377,2.91 3.732,0 L 21.938,0 27.264,0 c 0,0 -0.242,2.103 -1.22,3.58 -0.978,1.478 -2.801,2.623 -2.801,2.623 0,0 1.398,0.438 1.569,1.133 0.146,0.558 -1.029,1.005 -1.263,1.015 -0.024,0 -0.209,0 -0.506,0.002 0,0 1.527,12.139 1.541,12.225 0.466,0 0.761,0 0.797,0 0.223,0 1.03,0.133 1.197,0.744 0.146,0.488 -0.603,0.883 -0.837,0.894 l -0.003,0 c 0.016,0.086 2.745,3.256 2.86,4.854 0.11,1.521 -0.733,2.904 -1.638,3.926 0.037,0.115 0.902,0.822 1.072,1.197 z"
         id="path4241" />
    </g>
    <g
       style="fill:none;fill-opacity:1;stroke:url(#linearGradient4279);stroke-opacity:1;stroke-width:1.44084256;stroke-miterlimit:4;stroke-dasharray:none"
       id="g4243" />
    <g
       style="fill:none;fill-opacity:1;stroke:url(#linearGradient4279);stroke-opacity:1;stroke-width:1.44084256;stroke-miterlimit:4;stroke-dasharray:none"
       id="g4245" />
    <g
       style="fill:none;fill-opacity:1;stroke:url(#linearGradient4279);stroke-opacity:1;stroke-width:1.44084256;stroke-miterlimit:4;stroke-dasharray:none"
       id="g4247" />
    <g
       style="fill:none;fill-opacity:1;stroke:url(#linearGradient4279);stroke-opacity:1;stroke-width:1.44084256;stroke-miterlimit:4;stroke-dasharray:none"
       id="g4249" />
    <g
       style="fill:none;fill-opacity:1;stroke:url(#linearGradient4279);stroke-opacity:1;stroke-width:1.44084256;stroke-miterlimit:4;stroke-dasharray:none"
       id="g4251" />
    <g
       style="fill:none;fill-opacity:1;stroke:url(#linearGradient4279);stroke-opacity:1;stroke-width:1.44084256;stroke-miterlimit:4;stroke-dasharray:none"
       id="g4253" />
    <g
       style="fill:none;fill-opacity:1;stroke:url(#linearGradient4279);stroke-opacity:1;stroke-width:1.44084256;stroke-miterlimit:4;stroke-dasharray:none"
       id="g4255" />
    <g
       style="fill:none;fill-opacity:1;stroke:url(#linearGradient4279);stroke-opacity:1;stroke-width:1.44084256;stroke-miterlimit:4;stroke-dasharray:none"
       id="g4257" />
    <g
       style="fill:none;fill-opacity:1;stroke:url(#linearGradient4279);stroke-opacity:1;stroke-width:1.44084256;stroke-miterlimit:4;stroke-dasharray:none"
       id="g4259" />
    <g
       style="fill:none;fill-opacity:1;stroke:url(#linearGradient4279);stroke-opacity:1;stroke-width:1.44084256;stroke-miterlimit:4;stroke-dasharray:none"
       id="g4261" />
    <g
       style="fill:none;fill-opacity:1;stroke:url(#linearGradient4279);stroke-opacity:1;stroke-width:1.44084256;stroke-miterlimit:4;stroke-dasharray:none"
       id="g4263" />
    <g
       style="fill:none;fill-opacity:1;stroke:url(#linearGradient4279);stroke-opacity:1;stroke-width:1.44084256;stroke-miterlimit:4;stroke-dasharray:none"
       id="g4265" />
    <g
       style="fill:none;fill-opacity:1;stroke:url(#linearGradient4279);stroke-opacity:1;stroke-width:1.44084256;stroke-miterlimit:4;stroke-dasharray:none"
       id="g4267" />
    <g
       style="fill:none;fill-opacity:1;stroke:url(#linearGradient4279);stroke-opacity:1;stroke-width:1.44084256;stroke-miterlimit:4;stroke-dasharray:none"
       id="g4269" />
    <g
       style="fill:none;fill-opacity:1;stroke:url(#linearGradient4279);stroke-opacity:1;stroke-width:1.44084256;stroke-miterlimit:4;stroke-dasharray:none"
       id="g4271" />
  </g>
  <g
     id="g4218"
     transform="matrix(0.66667798,0,0,0.7225216,12.927876,13)"
     style="fill:#363636;fill-opacity:1">
    <g
       id="g4178"
       style="fill:#363636;fill-opacity:1">
      <path
         id="path4180"
         d="m 28.032,32.193 c 0.169,0.375 0.35,1.024 0.35,1.024 l -23.58,0 c 0,0 0.192,-0.763 0.39,-1.157 0.191,-0.39 0.986,-1.059 0.998,-1.082 -0.923,-1.025 -1.7,-2.343 -1.567,-3.912 0.13,-1.576 3.285,-4.771 3.303,-4.854 -0.183,0 -0.293,0 -0.311,0 C 7.384,22.201 6.682,21.826 6.831,21.339 7,20.727 7.756,20.574 7.98,20.574 c 0.03,0 0.248,0 0.593,0 0.059,-0.098 0.157,-0.297 0.157,-0.297 l 1.509,-11.683 0.007,0 -0.137,-0.211 C 9.895,8.386 8.458,8.293 8.471,7.357 8.483,6.343 9.851,6.306 9.89,6.203 l -0.057,0 C 9.833,6.203 8.219,5.4 7.112,3.58 6.004,1.759 5.89,0 5.89,0 l 5.326,0 -0.379,2.91 3.732,0 -0.377,-2.91 4.77,0 -0.377,2.91 3.732,0 L 21.938,0 27.264,0 c 0,0 -0.242,2.103 -1.22,3.58 -0.978,1.478 -2.801,2.623 -2.801,2.623 0,0 1.398,0.438 1.569,1.133 0.146,0.558 -1.029,1.005 -1.263,1.015 -0.024,0 -0.209,0 -0.506,0.002 0,0 1.527,12.139 1.541,12.225 0.466,0 0.761,0 0.797,0 0.223,0 1.03,0.133 1.197,0.744 0.146,0.488 -0.603,0.883 -0.837,0.894 l -0.003,0 c 0.016,0.086 2.745,3.256 2.86,4.854 0.11,1.521 -0.733,2.904 -1.638,3.926 0.037,0.115 0.902,0.822 1.072,1.197 z"
         inkscape:connector-curvature="0"
         style="fill:#363636;fill-opacity:1" />
    </g>
    <g
       id="g4182"
       style="fill:#363636;fill-opacity:1" />
    <g
       id="g4184"
       style="fill:#363636;fill-opacity:1" />
    <g
       id="g4186"
       style="fill:#363636;fill-opacity:1" />
    <g
       id="g4188"
       style="fill:#363636;fill-opacity:1" />
    <g
       id="g4190"
       style="fill:#363636;fill-opacity:1" />
    <g
       id="g4192"
       style="fill:#363636;fill-opacity:1" />
    <g
       id="g4194"
       style="fill:#363636;fill-opacity:1" />
    <g
       id="g4196"
       style="fill:#363636;fill-opacity:1" />
    <g
       id="g4198"
       style="fill:#363636;fill-opacity:1" />
    <g
       id="g4200"
       style="fill:#363636;fill-opacity:1" />
    <g
       id="g4202"
       style="fill:#363636;fill-opacity:1" />
    <g
       id="g4204"
       style="fill:#363636;fill-opacity:1" />
    <g
       id="g4206"
       style="fill:#363636;fill-opacity:1" />
    <g
       id="g4208"
       style="fill:#363636;fill-opacity:1" />
    <g
       id="g4210"
       style="fill:#363636;fill-opacity:1" />
  </g>
</svg>
