<?xml version="1.0" encoding="UTF-8" standalone="no"?>
<svg
   xmlns:dc="http://purl.org/dc/elements/1.1/"
   xmlns:cc="http://creativecommons.org/ns#"
   xmlns:rdf="http://www.w3.org/1999/02/22-rdf-syntax-ns#"
   xmlns:svg="http://www.w3.org/2000/svg"
   xmlns="http://www.w3.org/2000/svg"
   xmlns:sodipodi="http://sodipodi.sourceforge.net/DTD/sodipodi-0.dtd"
   xmlns:inkscape="http://www.inkscape.org/namespaces/inkscape"
   height="48"
   width="48"
   version="1.1"
   id="svg2"
   inkscape:version="0.91 r13725"
   sodipodi:docname="chrome-aapocclcgogkmnckokdopfmhonfmgoek-Default.svg">
  <metadata
     id="metadata68">
    <rdf:RDF>
      <cc:Work
         rdf:about="">
        <dc:format>image/svg+xml</dc:format>
        <dc:type
           rdf:resource="http://purl.org/dc/dcmitype/StillImage" />
      </cc:Work>
    </rdf:RDF>
  </metadata>
  <sodipodi:namedview
     pagecolor="#ffffff"
     bordercolor="#666666"
     borderopacity="1"
     objecttolerance="10"
     gridtolerance="10"
     guidetolerance="10"
     inkscape:pageopacity="0"
     inkscape:pageshadow="2"
     inkscape:window-width="1535"
     inkscape:window-height="876"
     id="namedview66"
     showgrid="false"
     inkscape:zoom="4.9166667"
     inkscape:cx="-9.7627119"
     inkscape:cy="24"
     inkscape:window-x="65"
     inkscape:window-y="24"
     inkscape:window-maximized="1"
     inkscape:current-layer="svg2" />
  <defs
     id="defs4">
    <linearGradient
       id="f"
       y2="43"
       gradientUnits="userSpaceOnUse"
       x2="24"
       gradientTransform="translate(1.17e-5,1)"
       y1="5"
       x1="24">
      <stop
         stop-color="#fff"
         offset="0"
         id="stop7" />
      <stop
         stop-color="#fff"
         stop-opacity=".23529"
         offset=".063165"
         id="stop9" />
      <stop
         stop-color="#fff"
         stop-opacity=".15686"
         offset=".95056"
         id="stop11" />
      <stop
         stop-color="#fff"
         stop-opacity=".39216"
         offset="1"
         id="stop13" />
    </linearGradient>
    <radialGradient
       id="a"
       gradientUnits="userSpaceOnUse"
       cy="8.4498"
       cx="7.4957"
       gradientTransform="matrix(0,2.0716,-2.4089,-5.6386e-8,44.354,-8.9606)"
       r="20">
      <stop
         stop-color="#f8de97"
         offset="0"
         id="stop16" />
      <stop
         stop-color="#f6ce68"
         offset=".26238"
         id="stop18" />
      <stop
         stop-color="#f4ba27"
         offset=".70495"
         id="stop20" />
      <stop
         stop-color="#d89e0c"
         offset="1"
         id="stop22" />
    </radialGradient>
    <radialGradient
       id="c"
       gradientUnits="userSpaceOnUse"
       cy="43.5"
       cx="4.993"
       gradientTransform="matrix(2.0038 0 0 1.4 27.988 -17.4)"
       r="2.5">
      <stop
         stop-color="#181818"
         offset="0"
         id="stop25" />
      <stop
         stop-color="#181818"
         stop-opacity="0"
         offset="1"
         id="stop27" />
    </radialGradient>
    <radialGradient
       id="b"
       gradientUnits="userSpaceOnUse"
       cy="43.5"
       cx="4.993"
       gradientTransform="matrix(2.0038 0 0 1.4 -20.012 -104.4)"
       r="2.5">
      <stop
         stop-color="#181818"
         offset="0"
         id="stop30" />
      <stop
         stop-color="#181818"
         stop-opacity="0"
         offset="1"
         id="stop32" />
    </radialGradient>
    <linearGradient
       id="d"
       y2="39.999"
       gradientUnits="userSpaceOnUse"
       x2="25.058"
       y1="47.028"
       x1="25.058">
      <stop
         stop-color="#181818"
         stop-opacity="0"
         offset="0"
         id="stop35" />
      <stop
         stop-color="#181818"
         offset=".5"
         id="stop37" />
      <stop
         stop-color="#181818"
         stop-opacity="0"
         offset="1"
         id="stop39" />
    </linearGradient>
    <linearGradient
       id="e"
       y2="5.0205"
       gradientUnits="userSpaceOnUse"
       x2="-1.2857"
       gradientTransform="translate(41.286,0)"
       y1="44.977"
       x1="-1.2857">
      <stop
         stop-color="#b98809"
         offset="0"
         id="stop42" />
      <stop
         stop-color="#dca10b"
         offset="1"
         id="stop44" />
    </linearGradient>
  </defs>
  <g
     id="g4196"
     transform="translate(0,-1)">
    <rect
       id="rect54"
       x="5"
       y="6"
       width="38"
       height="38"
       ry="1.5031"
       rx="1.5031"
       style="color:#000000;fill:url(#a)" />
    <rect
       id="rect56"
       x="5.5"
       y="6.5"
       width="37"
       height="37"
       ry="1"
       rx="1"
       style="opacity:0.5;fill:none;stroke:url(#f);stroke-linecap:round;stroke-linejoin:round" />
    <rect
       id="rect58"
       x="4.5"
       y="5.5"
       width="39"
       height="39"
       ry="2"
       rx="2"
       style="color:#000000;fill:none;stroke:url(#e);stroke-linecap:round;stroke-linejoin:round" />
    <path
       id="path60"
       d="m 16,17 c -1.662,0 -3,1.338 -3,3 l 0,12 c 0,1.662 1.338,3 3,3 l 7.5,0 1.5,0 0.5,0 6.5,0 c 1.662,0 3,-1.338 3,-3 l 0,-12 c 0,-1.662 -1.338,-3 -3,-3 l -6.5,0 -0.5,0 -1.5,0 -7.5,0 z m -1,4 8.5,0 1.5,0 0.5,0 7.5,0 0,10 -7.5,0 -0.5,0 -1.5,0 -8.5,0 0,-10 z"
       inkscape:connector-curvature="0"
       style="opacity:0.15" />
    <path
       id="path62"
       d="m 16,16 c -2.1987,0 -4,1.8013 -4,4 l 0,12 c 0,2.1987 1.8013,4 4,4 l 7.5,0 1.5,0 0.5,0 6.5,0 c 2.1987,0 4,-1.8013 4,-4 l 0,-12 c 0,-2.1987 -1.8013,-4 -4,-4 l -6.5,0 -0.5,0 -1.5,0 -7.5,0 z m 0,6 7.5,0 1.5,0 0.5,0 6.5,0 0,8 -6.5,0 -0.5,0 -1.5,0 -7.5,0 0,-8 z"
       inkscape:connector-curvature="0"
       style="opacity:0.05" />
    <path
       id="path64"
       d="m 16,16 c -1.662,0 -3,1.338 -3,3 l 0,12 c 0,1.662 1.338,3 3,3 l 7.5,0 1.5,0 0.5,0 6.5,0 c 1.662,0 3,-1.338 3,-3 l 0,-12 c 0,-1.662 -1.338,-3 -3,-3 l -6.5,0 -0.5,0 -1.5,0 -7.5,0 z m -1,4 8.5,0 1.5,0 0.5,0 7.5,0 0,10 -7.5,0 -0.5,0 -1.5,0 -8.5,0 0,-10 z"
       inkscape:connector-curvature="0"
       style="fill:#ffffff" />
  </g>
</svg>
