<?xml version="1.0" encoding="UTF-8" standalone="no"?>
<svg
   xmlns:dc="http://purl.org/dc/elements/1.1/"
   xmlns:cc="http://creativecommons.org/ns#"
   xmlns:rdf="http://www.w3.org/1999/02/22-rdf-syntax-ns#"
   xmlns:svg="http://www.w3.org/2000/svg"
   xmlns="http://www.w3.org/2000/svg"
   xmlns:xlink="http://www.w3.org/1999/xlink"
   xmlns:sodipodi="http://sodipodi.sourceforge.net/DTD/sodipodi-0.dtd"
   xmlns:inkscape="http://www.inkscape.org/namespaces/inkscape"
   height="48"
   width="48"
   version="1.1"
   viewBox="0 0 48 48.000001"
   id="svg2"
   inkscape:version="0.91 r13725"
   sodipodi:docname="chrome-app-list.svg">
  <metadata
     id="metadata79">
    <rdf:RDF>
      <cc:Work
         rdf:about="">
        <dc:format>image/svg+xml</dc:format>
        <dc:type
           rdf:resource="http://purl.org/dc/dcmitype/StillImage" />
      </cc:Work>
    </rdf:RDF>
  </metadata>
  <sodipodi:namedview
     pagecolor="#ffffff"
     bordercolor="#666666"
     borderopacity="1"
     objecttolerance="10"
     gridtolerance="10"
     guidetolerance="10"
     inkscape:pageopacity="0"
     inkscape:pageshadow="2"
     inkscape:window-width="1535"
     inkscape:window-height="876"
     id="namedview77"
     showgrid="false"
     inkscape:zoom="11.33"
     inkscape:cx="29.932186"
     inkscape:cy="24"
     inkscape:window-x="65"
     inkscape:window-y="24"
     inkscape:window-maximized="1"
     inkscape:current-layer="svg2" />
  <defs
     id="defs4">
    <linearGradient
       id="g"
       y2="5.1758"
       gradientUnits="userSpaceOnUse"
       x2="-95.838"
       gradientTransform="matrix(0.8075,0,0,0.83374,106.88,-0.1)"
       y1="54.2"
       x1="-95.838">
      <stop
         stop-opacity=".32174"
         offset="0"
         id="stop7" />
      <stop
         stop-opacity=".27826"
         offset="1"
         id="stop9" />
    </linearGradient>
    <linearGradient
       id="f"
       y2="43"
       gradientUnits="userSpaceOnUse"
       x2="24"
       gradientTransform="translate(4e-6,0.9622)"
       y1="5"
       x1="24">
      <stop
         stop-color="#fff"
         offset="0"
         id="stop12" />
      <stop
         stop-color="#fff"
         stop-opacity=".23529"
         offset=".063165"
         id="stop14" />
      <stop
         stop-color="#fff"
         stop-opacity=".15686"
         offset=".95056"
         id="stop16" />
      <stop
         stop-color="#fff"
         stop-opacity=".39216"
         offset="1"
         id="stop18" />
    </linearGradient>
    <radialGradient
       id="b"
       gradientUnits="userSpaceOnUse"
       cy="4.3419"
       cx="32"
       gradientTransform="matrix(0,1.6258,-1.6258,0,31.059,-46.17)"
       r="27.5">
      <stop
         stop-color="#fafafa"
         offset="0"
         id="stop21" />
      <stop
         stop-color="#e1e1e1"
         offset="1"
         id="stop23" />
    </radialGradient>
    <radialGradient
       id="d"
       xlink:href="#a"
       gradientUnits="userSpaceOnUse"
       cy="43.5"
       cx="4.993"
       gradientTransform="matrix(2.0038,0,0,1.4,27.988,-17.4)"
       r="2.5" />
    <linearGradient
       id="a">
      <stop
         stop-color="#181818"
         offset="0"
         id="stop27" />
      <stop
         stop-color="#181818"
         stop-opacity="0"
         offset="1"
         id="stop29" />
    </linearGradient>
    <radialGradient
       id="c"
       xlink:href="#a"
       gradientUnits="userSpaceOnUse"
       cy="43.5"
       cx="4.993"
       gradientTransform="matrix(2.0038,0,0,1.4,-20.012,-104.4)"
       r="2.5" />
    <linearGradient
       id="e"
       y2="39.999"
       gradientUnits="userSpaceOnUse"
       x2="25.058"
       y1="47.028"
       x1="25.058">
      <stop
         stop-color="#181818"
         stop-opacity="0"
         offset="0"
         id="stop33" />
      <stop
         stop-color="#181818"
         offset=".5"
         id="stop35" />
      <stop
         stop-color="#181818"
         stop-opacity="0"
         offset="1"
         id="stop37" />
    </linearGradient>
  </defs>
  <g
     id="g4225"
     transform="translate(0,-1.0000243)">
    <rect
       style="color:#000000;fill:url(#b)"
       rx="1.5"
       ry="1.5"
       height="38"
       width="38"
       y="6.0000243"
       x="5"
       id="rect49" />
    <path
       d="M 14.5,15 C 13.669,15 13,15.669 13,16.5 l 0,3 c 0,0.831 0.669,1.5 1.5,1.5 l 3,0 c 0.831,0 1.5,-0.669 1.5,-1.5 l 0,-3 C 19,15.669 18.331,15 17.5,15 l -3,0 z m 8,0 C 21.669,15 21,15.669 21,16.5 l 0,3 c 0,0.831 0.669,1.5 1.5,1.5 l 3,0 c 0.831,0 1.5,-0.669 1.5,-1.5 l 0,-3 C 27,15.669 26.331,15 25.5,15 l -3,0 z m 8,0 C 29.669,15 29,15.669 29,16.5 l 0,3 c 0,0.831 0.669,1.5 1.5,1.5 l 3,0 c 0.831,0 1.5,-0.669 1.5,-1.5 l 0,-3 C 35,15.669 34.331,15 33.5,15 l -3,0 z m -16,8 C 13.669,23 13,23.669 13,24.5 l 0,3 c 0,0.831 0.669,1.5 1.5,1.5 l 3,0 c 0.831,0 1.5,-0.669 1.5,-1.5 l 0,-3 C 19,23.669 18.331,23 17.5,23 l -3,0 z m 8,0 C 21.669,23 21,23.669 21,24.5 l 0,3 c 0,0.831 0.669,1.5 1.5,1.5 l 3,0 c 0.831,0 1.5,-0.669 1.5,-1.5 l 0,-3 C 27,23.669 26.331,23 25.5,23 l -3,0 z m 8,0 C 29.669,23 29,23.669 29,24.5 l 0,3 c 0,0.831 0.669,1.5 1.5,1.5 l 3,0 c 0.831,0 1.5,-0.669 1.5,-1.5 l 0,-3 C 35,23.669 34.331,23 33.5,23 l -3,0 z m -16,8 C 13.669,31 13,31.669 13,32.5 l 0,3 c 0,0.831 0.669,1.5 1.5,1.5 l 3,0 c 0.831,0 1.5,-0.669 1.5,-1.5 l 0,-3 C 19,31.669 18.331,31 17.5,31 l -3,0 z m 8,0 C 21.669,31 21,31.669 21,32.5 l 0,3 c 0,0.831 0.669,1.5 1.5,1.5 l 3,0 c 0.831,0 1.5,-0.669 1.5,-1.5 l 0,-3 C 27,31.669 26.331,31 25.5,31 l -3,0 z m 8,0 C 29.669,31 29,31.669 29,32.5 l 0,3 c 0,0.831 0.669,1.5 1.5,1.5 l 3,0 c 0.831,0 1.5,-0.669 1.5,-1.5 l 0,-3 C 35,31.669 34.331,31 33.5,31 l -3,0 z"
       id="path51"
       inkscape:connector-curvature="0"
       style="opacity:0.05;stroke:#000000;stroke-width:2;stroke-linecap:round;stroke-linejoin:round" />
    <path
       d="M 14.5,15 C 13.669,15 13,15.669 13,16.5 l 0,3 c 0,0.831 0.669,1.5 1.5,1.5 l 3,0 c 0.831,0 1.5,-0.669 1.5,-1.5 l 0,-3 C 19,15.669 18.331,15 17.5,15 l -3,0 z m 8,0 C 21.669,15 21,15.669 21,16.5 l 0,3 c 0,0.831 0.669,1.5 1.5,1.5 l 3,0 c 0.831,0 1.5,-0.669 1.5,-1.5 l 0,-3 C 27,15.669 26.331,15 25.5,15 l -3,0 z m 8,0 C 29.669,15 29,15.669 29,16.5 l 0,3 c 0,0.831 0.669,1.5 1.5,1.5 l 3,0 c 0.831,0 1.5,-0.669 1.5,-1.5 l 0,-3 C 35,15.669 34.331,15 33.5,15 l -3,0 z m -16,8 C 13.669,23 13,23.669 13,24.5 l 0,3 c 0,0.831 0.669,1.5 1.5,1.5 l 3,0 c 0.831,0 1.5,-0.669 1.5,-1.5 l 0,-3 C 19,23.669 18.331,23 17.5,23 l -3,0 z m 8,0 C 21.669,23 21,23.669 21,24.5 l 0,3 c 0,0.831 0.669,1.5 1.5,1.5 l 3,0 c 0.831,0 1.5,-0.669 1.5,-1.5 l 0,-3 C 27,23.669 26.331,23 25.5,23 l -3,0 z m 8,0 C 29.669,23 29,23.669 29,24.5 l 0,3 c 0,0.831 0.669,1.5 1.5,1.5 l 3,0 c 0.831,0 1.5,-0.669 1.5,-1.5 l 0,-3 C 35,23.669 34.331,23 33.5,23 l -3,0 z m -16,8 C 13.669,31 13,31.669 13,32.5 l 0,3 c 0,0.831 0.669,1.5 1.5,1.5 l 3,0 c 0.831,0 1.5,-0.669 1.5,-1.5 l 0,-3 C 19,31.669 18.331,31 17.5,31 l -3,0 z m 8,0 C 21.669,31 21,31.669 21,32.5 l 0,3 c 0,0.831 0.669,1.5 1.5,1.5 l 3,0 c 0.831,0 1.5,-0.669 1.5,-1.5 l 0,-3 C 27,31.669 26.331,31 25.5,31 l -3,0 z m 8,0 C 29.669,31 29,31.669 29,32.5 l 0,3 c 0,0.831 0.669,1.5 1.5,1.5 l 3,0 c 0.831,0 1.5,-0.669 1.5,-1.5 l 0,-3 C 35,31.669 34.331,31 33.5,31 l -3,0 z"
       id="path53"
       inkscape:connector-curvature="0"
       style="opacity:0.15" />
    <rect
       rx="1"
       ry="1"
       height="37"
       width="37"
       y="6.5000243"
       x="5.5"
       id="rect55"
       style="fill:none;stroke:url(#f);stroke-linecap:round;stroke-linejoin:round" />
    <rect
       style="color:#000000;opacity:0.8;fill:none;stroke:url(#g)"
       rx="2"
       ry="2"
       height="39"
       width="39"
       y="5.5000243"
       x="4.5"
       id="rect57" />
    <rect
       rx="1.5"
       ry="1.5"
       height="6"
       width="6"
       y="14.000025"
       x="29"
       id="rect59"
       style="fill:#fe3932" />
    <rect
       rx="1.5"
       ry="1.5"
       height="6"
       width="6"
       y="14.000025"
       x="21"
       id="rect61"
       style="fill:#fe3932" />
    <rect
       rx="1.5"
       ry="1.5"
       height="6"
       width="6"
       y="14.000025"
       x="13"
       id="rect63"
       style="fill:#fe3932" />
    <rect
       rx="1.5"
       ry="1.5"
       height="6"
       width="6"
       y="22.000025"
       x="29"
       id="rect65"
       style="fill:#ffb000" />
    <rect
       rx="1.5"
       ry="1.5"
       height="6"
       width="6"
       y="22.000025"
       x="21"
       id="rect67"
       style="fill:#008bf4" />
    <rect
       rx="1.5"
       ry="1.5"
       height="6"
       width="6"
       y="22.000025"
       x="13"
       id="rect69"
       style="fill:#009d5a" />
    <rect
       rx="1.5"
       ry="1.5"
       height="6"
       width="6"
       y="30.000025"
       x="29"
       id="rect71"
       style="fill:#ffb000" />
    <rect
       rx="1.5"
       ry="1.5"
       height="6"
       width="6"
       y="30.000025"
       x="21"
       id="rect73"
       style="fill:#ffb000" />
    <rect
       rx="1.5"
       ry="1.5"
       height="6"
       width="6"
       y="30.000025"
       x="13"
       id="rect75"
       style="fill:#009d5a" />
  </g>
</svg>
