<?xml version="1.0" encoding="UTF-8" standalone="no"?>
<svg
   xmlns:dc="http://purl.org/dc/elements/1.1/"
   xmlns:cc="http://creativecommons.org/ns#"
   xmlns:rdf="http://www.w3.org/1999/02/22-rdf-syntax-ns#"
   xmlns:svg="http://www.w3.org/2000/svg"
   xmlns="http://www.w3.org/2000/svg"
   xmlns:xlink="http://www.w3.org/1999/xlink"
   xmlns:sodipodi="http://sodipodi.sourceforge.net/DTD/sodipodi-0.dtd"
   xmlns:inkscape="http://www.inkscape.org/namespaces/inkscape"
   height="48"
   width="48"
   version="1.1"
   viewBox="0 0 48 48.000001"
   id="svg2"
   inkscape:version="0.91 r13725"
   sodipodi:docname="chrome-https___web.whatsapp.com_.svg">
  <metadata
     id="metadata80">
    <rdf:RDF>
      <cc:Work
         rdf:about="">
        <dc:format>image/svg+xml</dc:format>
        <dc:type
           rdf:resource="http://purl.org/dc/dcmitype/StillImage" />
      </cc:Work>
    </rdf:RDF>
  </metadata>
  <sodipodi:namedview
     pagecolor="#ffffff"
     bordercolor="#666666"
     borderopacity="1"
     objecttolerance="10"
     gridtolerance="10"
     guidetolerance="10"
     inkscape:pageopacity="0"
     inkscape:pageshadow="2"
     inkscape:window-width="1535"
     inkscape:window-height="876"
     id="namedview78"
     showgrid="false"
     inkscape:zoom="4.9166667"
     inkscape:cx="-9.7627119"
     inkscape:cy="24"
     inkscape:window-x="65"
     inkscape:window-y="24"
     inkscape:window-maximized="1"
     inkscape:current-layer="svg2" />
  <defs
     id="defs4">
    <linearGradient
       id="g"
       y2="-242.15"
       gradientUnits="userSpaceOnUse"
       x2="48.97"
       gradientTransform="matrix(1.617,0,0,1.617,-101.297,-20.5675)"
       y1="-209.35"
       x1="48.97">
      <stop
         stop-color="#fff"
         offset="0"
         id="stop7" />
      <stop
         stop-color="#fff"
         stop-opacity=".23529"
         offset=".42448"
         id="stop9" />
      <stop
         stop-color="#fff"
         stop-opacity=".15686"
         offset=".8209"
         id="stop11" />
      <stop
         stop-color="#fff"
         stop-opacity=".39216"
         offset="1"
         id="stop13" />
    </linearGradient>
    <radialGradient
       id="c"
       gradientUnits="userSpaceOnUse"
       cy="4.3419"
       cx="32"
       gradientTransform="matrix(0 1.3006 -1.3006 0 94.036 165.84)"
       r="27.5">
      <stop
         stop-color="#fafafa"
         offset="0"
         id="stop16" />
      <stop
         stop-color="#e1e1e1"
         offset="1"
         id="stop18" />
    </radialGradient>
    <radialGradient
       id="d"
       xlink:href="#c"
       gradientUnits="userSpaceOnUse"
       cy="-208.52"
       cx="48.978"
       gradientTransform="matrix(2.46275,0.01027813,0.00994813,-2.38375,-94.547,-494.105)"
       r="17.2" />
    <linearGradient
       id="f"
       y2="-244.12"
       gradientUnits="userSpaceOnUse"
       x2="47.467"
       gradientTransform="matrix(0.8075,0,0,-0.8337375,136.1755,-509.4675)"
       y1="-206.95"
       x1="47.37">
      <stop
         stop-opacity=".32174"
         offset="0"
         id="stop22" />
      <stop
         stop-opacity=".27826"
         offset="1"
         id="stop24" />
    </linearGradient>
    <radialGradient
       id="radialGradient12065"
       xlink:href="#c"
       gradientUnits="userSpaceOnUse"
       cy="-6.5901"
       cx="27.34"
       gradientTransform="matrix(3.9021 .0092878 -.0096565 4.0587 -79.814 92.576)"
       r="55.725" />
    <radialGradient
       id="i"
       gradientUnits="userSpaceOnUse"
       cy="186.17"
       cx="99.157"
       gradientTransform="matrix(0.270825,0,0,0.0876225,-2.8545,25.145)"
       r="62.769">
      <stop
         stop-color="#3d3d3d"
         offset="0"
         id="stop28" />
      <stop
         stop-color="#686868"
         stop-opacity=".49804"
         offset=".5"
         id="stop30" />
      <stop
         stop-color="#686868"
         stop-opacity="0"
         offset="1"
         id="stop32" />
    </radialGradient>
    <radialGradient
       id="e"
       xlink:href="#c"
       gradientUnits="userSpaceOnUse"
       cy="-47.109"
       cx="27.391"
       gradientTransform="matrix(2.9895,0.0078878,-0.0073208,2.7757,-54.839,83.435)"
       r="55.725" />
    <linearGradient
       id="h"
       y2="42.608"
       gradientUnits="userSpaceOnUse"
       x2="22.893"
       gradientTransform="translate(5e-4,-0.0425)"
       y1="5.5736"
       x1="22.893">
      <stop
         stop-color="#60d36b"
         offset="0"
         id="stop36" />
      <stop
         stop-color="#27b43d"
         offset="1"
         id="stop38" />
    </linearGradient>
    <radialGradient
       inkscape:collect="always"
       xlink:href="#c"
       id="radialGradient4208"
       gradientUnits="userSpaceOnUse"
       gradientTransform="matrix(2.9895,0.0078878,-0.0073208,2.7757,-54.839,83.435)"
       cx="27.391"
       cy="-47.109"
       r="55.725" />
    <radialGradient
       inkscape:collect="always"
       xlink:href="#c"
       id="radialGradient4210"
       gradientUnits="userSpaceOnUse"
       gradientTransform="matrix(2.9895,0.0078878,-0.0073208,2.7757,-54.839,83.435)"
       cx="27.391"
       cy="-47.109"
       r="55.725" />
  </defs>
  <path
     d="m 24.0005,3.4575 a 20.5,20.5 0 0 0 -20.5,20.5 20.5,20.5 0 0 0 3.05475,10.734375 l -3.748,10.494125 11.084,-3.410125 a 20.5,20.5 0 0 0 10.109375,2.681625 20.5,20.5 0 0 0 20.5,-20.5 20.5,20.5 0 0 0 -20.5,-20.5 z"
     id="path46"
     inkscape:connector-curvature="0"
     style="fill:#b3b3b3" />
  <path
     d="m 24.0005,3.4575 a 20.5,20.5 0 0 0 -20.5,20.5 20.5,20.5 0 0 0 3.05475,10.734375 l -3.748,10.494125 11.084,-3.410125 a 20.5,20.5 0 0 0 10.109375,2.681625 20.5,20.5 0 0 0 20.5,-20.5 20.5,20.5 0 0 0 -20.5,-20.5 z"
     id="path48"
     style="fill:url(#d)"
     inkscape:connector-curvature="0" />
  <path
     d="m 24.0005,4.4575 c -10.7695,0 -19.5,8.7305 -19.5,19.5 0.0025,3.78525 1.0852,7.466375 3.15625,10.63475 l 0,0 -3.23825,9.05275 9.580125,-2.94925 0,0 c 3.037875,1.844625 6.447875,2.753625 10.002,2.76175 10.7695,0 19.5,-8.7305 19.5,-19.5 0,-10.7695 -8.7305,-19.5 -19.5,-19.5 z"
     id="path50"
     style="opacity:0.63700005;fill:none;stroke:url(#g);stroke-width:1;stroke-linecap:round"
     inkscape:connector-curvature="0" />
  <path
     d="m 24.0005,6.9575 a 17,17 0 0 0 -17,17 17,17 0 0 0 3.441375,10.2285 L 8.438,39.7915 l 5.923875,-1.832 a 17,17 0 0 0 9.638625,2.998 17,17 0 0 0 17,-17 17,17 0 0 0 -17,-17 z"
     id="path52"
     style="fill:url(#h)"
     inkscape:connector-curvature="0" />
  <path
     d="m 24.0005,3.4575 a 20.5,20.5 0 0 0 -20.5,20.5 20.5,20.5 0 0 0 3.05475,10.734375 l -3.748,10.494125 11.084,-3.410125 a 20.5,20.5 0 0 0 10.109375,2.681625 20.5,20.5 0 0 0 20.5,-20.5 20.5,20.5 0 0 0 -20.5,-20.5 z"
     id="path54"
     style="opacity:0.8;fill:none;stroke:url(#f);stroke-width:1;stroke-linecap:round"
     inkscape:connector-curvature="0" />
  <path
     d="m 24.0005,6.9575 a 17,17 0 0 0 -17,17 17,17 0 0 0 0.0215,0.408 A 17,17 0 0 1 24,7.9575 a 17,17 0 0 1 16.979,16.58 17,17 0 0 0 0.021,-0.58 17,17 0 0 0 -17,-17 z m -13.797,27.896 -1.7655,4.938 0.4023,-0.125 1.6012,-4.48 a 17,17 0 0 1 -0.238,-0.333 z"
     id="path56"
     inkscape:connector-curvature="0"
     style="opacity:0.15" />
  <path
     d="m 24.0005,6.9575 a 17,17 0 0 0 -17,17 17,17 0 0 0 0.043,0.816 17,17 0 0 1 16.957,-15.816 17,17 0 0 1 16.959,16.162 17,17 0 0 0 0.041,-1.162 17,17 0 0 0 -17,-17 z m -14.035,28.562 -1.5273,4.272 0.8047,-0.248 1.1988,-3.357 a 17,17 0 0 1 -0.4762,-0.667 z"
     id="path58"
     inkscape:connector-curvature="0"
     style="opacity:0.05" />
  <g
     transform="matrix(0.1929125,0,0,-0.192875,18.7155,15.8825)"
     id="g60"
     style="opacity:0.05;fill-rule:evenodd;stroke:#000000;stroke-width:10.36800003">
    <path
       d="m 0,0 c -1.812,4.367 -3.2,4.515 -5.999,4.648 -0.96,0.046 -2.001,0.09 -3.14,0.09 -3.606,0 -7.344,-1.062 -9.597,-3.367 -2.742,-2.805 -9.598,-9.375 -9.598,-22.865 0,-13.492 9.826,-26.529 11.195,-28.36 1.373,-1.828 19.164,-29.919 46.844,-41.388 21.606,-8.949 28.02,-8.153 32.949,-7.074 7.172,1.566 16.178,6.847 18.463,13.248 2.285,6.404 2.285,11.892 1.6,13.033 -0.686,1.144 -2.514,1.828 -5.256,3.203 -2.742,1.371 -16.225,8.004 -18.738,8.918 -2.514,0.914 -4.838,0.635 -6.772,-2.039 -2.668,-3.693 -5.234,-7.488 -7.359,-9.738 -1.668,-1.766 -4.352,-2.012 -6.66,-1.032 -3.036,1.293 -11.578,4.27 -22.053,13.61 -8.15,7.265 -13.654,16.242 -15.254,18.988 -1.6,2.742 -0.141,4.379 1.092,5.871 1.406,1.703 2.703,2.926 4.074,4.525 1.371,1.602 2.137,2.456 3.051,4.288 0.914,1.828 0.299,3.714 -0.387,5.087 C 7.768,-18.98 2.278,-5.492 0,0"
       id="path62"
       inkscape:connector-curvature="0" />
    <path
       d="m 0,0 c -1.812,4.367 -3.2,4.515 -5.999,4.648 -0.96,0.046 -2.001,0.09 -3.14,0.09 -3.606,0 -7.344,-1.062 -9.597,-3.367 -2.742,-2.805 -9.598,-9.375 -9.598,-22.865 0,-13.492 9.826,-26.529 11.195,-28.36 1.373,-1.828 19.164,-29.919 46.844,-41.388 21.606,-8.949 28.02,-8.153 32.949,-7.074 7.172,1.566 16.178,6.847 18.463,13.248 2.285,6.404 2.285,11.892 1.6,13.033 -0.686,1.144 -2.514,1.828 -5.256,3.203 -2.742,1.371 -16.225,8.004 -18.738,8.918 -2.514,0.914 -4.838,0.635 -6.772,-2.039 -2.668,-3.693 -5.234,-7.488 -7.359,-9.738 -1.668,-1.766 -4.352,-2.012 -6.66,-1.032 -3.036,1.293 -11.578,4.27 -22.053,13.61 -8.15,7.265 -13.654,16.242 -15.254,18.988 -1.6,2.742 -0.141,4.379 1.092,5.871 1.406,1.703 2.703,2.926 4.074,4.525 1.371,1.602 2.137,2.456 3.051,4.288 0.914,1.828 0.299,3.714 -0.387,5.087 C 7.768,-18.98 2.278,-5.492 0,0"
       id="path64"
       inkscape:connector-curvature="0" />
  </g>
  <g
     transform="matrix(0.1929125,0,0,-0.192875,18.7155,15.87)"
     id="g66"
     style="opacity:0.15;fill-rule:evenodd">
    <path
       d="m 0,0 c -1.812,4.367 -3.2,4.515 -5.999,4.648 -0.96,0.046 -2.001,0.09 -3.14,0.09 -3.606,0 -7.344,-1.062 -9.597,-3.367 -2.742,-2.805 -9.598,-9.375 -9.598,-22.865 0,-13.492 9.826,-26.529 11.195,-28.36 1.373,-1.828 19.164,-29.919 46.844,-41.388 21.606,-8.949 28.02,-8.153 32.949,-7.074 7.172,1.566 16.178,6.847 18.463,13.248 2.285,6.404 2.285,11.892 1.6,13.033 -0.686,1.144 -2.514,1.828 -5.256,3.203 -2.742,1.371 -16.225,8.004 -18.738,8.918 -2.514,0.914 -4.838,0.635 -6.772,-2.039 -2.668,-3.693 -5.234,-7.488 -7.359,-9.738 -1.668,-1.766 -4.352,-2.012 -6.66,-1.032 -3.036,1.293 -11.578,4.27 -22.053,13.61 -8.15,7.265 -13.654,16.242 -15.254,18.988 -1.6,2.742 -0.141,4.379 1.092,5.871 1.406,1.703 2.703,2.926 4.074,4.525 1.371,1.602 2.137,2.456 3.051,4.288 0.914,1.828 0.299,3.714 -0.387,5.087 C 7.768,-18.98 2.278,-5.492 0,0"
       id="path68"
       inkscape:connector-curvature="0" />
    <path
       d="m 0,0 c -1.812,4.367 -3.2,4.515 -5.999,4.648 -0.96,0.046 -2.001,0.09 -3.14,0.09 -3.606,0 -7.344,-1.062 -9.597,-3.367 -2.742,-2.805 -9.598,-9.375 -9.598,-22.865 0,-13.492 9.826,-26.529 11.195,-28.36 1.373,-1.828 19.164,-29.919 46.844,-41.388 21.606,-8.949 28.02,-8.153 32.949,-7.074 7.172,1.566 16.178,6.847 18.463,13.248 2.285,6.404 2.285,11.892 1.6,13.033 -0.686,1.144 -2.514,1.828 -5.256,3.203 -2.742,1.371 -16.225,8.004 -18.738,8.918 -2.514,0.914 -4.838,0.635 -6.772,-2.039 -2.668,-3.693 -5.234,-7.488 -7.359,-9.738 -1.668,-1.766 -4.352,-2.012 -6.66,-1.032 -3.036,1.293 -11.578,4.27 -22.053,13.61 -8.15,7.265 -13.654,16.242 -15.254,18.988 -1.6,2.742 -0.141,4.379 1.092,5.871 1.406,1.703 2.703,2.926 4.074,4.525 1.371,1.602 2.137,2.456 3.051,4.288 0.914,1.828 0.299,3.714 -0.387,5.087 C 7.768,-18.98 2.278,-5.492 0,0"
       id="path70"
       inkscape:connector-curvature="0" />
  </g>
  <g
     transform="matrix(0.1929125,0,0,-0.192875,18.7155,14.87)"
     id="g72"
     style="fill:url(#e);fill-rule:evenodd">
    <path
       d="m 0,0 c -1.812,4.367 -3.2,4.515 -5.999,4.648 -0.96,0.046 -2.001,0.09 -3.14,0.09 -3.606,0 -7.344,-1.062 -9.597,-3.367 -2.742,-2.805 -9.598,-9.375 -9.598,-22.865 0,-13.492 9.826,-26.529 11.195,-28.36 1.373,-1.828 19.164,-29.919 46.844,-41.388 21.606,-8.949 28.02,-8.153 32.949,-7.074 7.172,1.566 16.178,6.847 18.463,13.248 2.285,6.404 2.285,11.892 1.6,13.033 -0.686,1.144 -2.514,1.828 -5.256,3.203 -2.742,1.371 -16.225,8.004 -18.738,8.918 -2.514,0.914 -4.838,0.635 -6.772,-2.039 -2.668,-3.693 -5.234,-7.488 -7.359,-9.738 -1.668,-1.766 -4.352,-2.012 -6.66,-1.032 -3.036,1.293 -11.578,4.27 -22.053,13.61 -8.15,7.265 -13.654,16.242 -15.254,18.988 -1.6,2.742 -0.141,4.379 1.092,5.871 1.406,1.703 2.703,2.926 4.074,4.525 1.371,1.602 2.137,2.456 3.051,4.288 0.914,1.828 0.299,3.714 -0.387,5.087 C 7.768,-18.98 2.278,-5.492 0,0"
       id="path74"
       style="fill:url(#radialGradient4208)"
       inkscape:connector-curvature="0" />
    <path
       d="m 0,0 c -1.812,4.367 -3.2,4.515 -5.999,4.648 -0.96,0.046 -2.001,0.09 -3.14,0.09 -3.606,0 -7.344,-1.062 -9.597,-3.367 -2.742,-2.805 -9.598,-9.375 -9.598,-22.865 0,-13.492 9.826,-26.529 11.195,-28.36 1.373,-1.828 19.164,-29.919 46.844,-41.388 21.606,-8.949 28.02,-8.153 32.949,-7.074 7.172,1.566 16.178,6.847 18.463,13.248 2.285,6.404 2.285,11.892 1.6,13.033 -0.686,1.144 -2.514,1.828 -5.256,3.203 -2.742,1.371 -16.225,8.004 -18.738,8.918 -2.514,0.914 -4.838,0.635 -6.772,-2.039 -2.668,-3.693 -5.234,-7.488 -7.359,-9.738 -1.668,-1.766 -4.352,-2.012 -6.66,-1.032 -3.036,1.293 -11.578,4.27 -22.053,13.61 -8.15,7.265 -13.654,16.242 -15.254,18.988 -1.6,2.742 -0.141,4.379 1.092,5.871 1.406,1.703 2.703,2.926 4.074,4.525 1.371,1.602 2.137,2.456 3.051,4.288 0.914,1.828 0.299,3.714 -0.387,5.087 C 7.768,-18.98 2.278,-5.492 0,0"
       id="path76"
       style="fill:url(#radialGradient4210)"
       inkscape:connector-curvature="0" />
  </g>
</svg>
