<?xml version="1.0" encoding="UTF-8" standalone="no"?>
<svg
   xmlns:dc="http://purl.org/dc/elements/1.1/"
   xmlns:cc="http://creativecommons.org/ns#"
   xmlns:rdf="http://www.w3.org/1999/02/22-rdf-syntax-ns#"
   xmlns:svg="http://www.w3.org/2000/svg"
   xmlns="http://www.w3.org/2000/svg"
   xmlns:sodipodi="http://sodipodi.sourceforge.net/DTD/sodipodi-0.dtd"
   xmlns:inkscape="http://www.inkscape.org/namespaces/inkscape"
   height="48"
   width="48"
   version="1.1"
   id="svg2"
   inkscape:version="0.91 r13725"
   sodipodi:docname="chrome-aohghmighlieiainnegkcijnfilokake-Default.svg">
  <metadata
     id="metadata86">
    <rdf:RDF>
      <cc:Work
         rdf:about="">
        <dc:format>image/svg+xml</dc:format>
        <dc:type
           rdf:resource="http://purl.org/dc/dcmitype/StillImage" />
      </cc:Work>
    </rdf:RDF>
  </metadata>
  <sodipodi:namedview
     pagecolor="#ffffff"
     bordercolor="#666666"
     borderopacity="1"
     objecttolerance="10"
     gridtolerance="10"
     guidetolerance="10"
     inkscape:pageopacity="0"
     inkscape:pageshadow="2"
     inkscape:window-width="1535"
     inkscape:window-height="876"
     id="namedview84"
     showgrid="false"
     inkscape:zoom="4.9166667"
     inkscape:cx="-9.7627119"
     inkscape:cy="24"
     inkscape:window-x="65"
     inkscape:window-y="24"
     inkscape:window-maximized="1"
     inkscape:current-layer="svg2" />
  <defs
     id="defs4">
    <linearGradient
       id="f"
       y2="43"
       gradientUnits="userSpaceOnUse"
       x2="24"
       gradientTransform="translate(1.17e-5,1)"
       y1="5"
       x1="24">
      <stop
         stop-color="#fff"
         offset="0"
         id="stop7" />
      <stop
         stop-color="#fff"
         stop-opacity=".23529"
         offset=".063165"
         id="stop9" />
      <stop
         stop-color="#fff"
         stop-opacity=".15686"
         offset=".95056"
         id="stop11" />
      <stop
         stop-color="#fff"
         stop-opacity=".39216"
         offset="1"
         id="stop13" />
    </linearGradient>
    <radialGradient
       id="a"
       gradientUnits="userSpaceOnUse"
       cy="8.4498"
       cx="7.4957"
       gradientTransform="matrix(0,1.9103,-2.4089,-5.1996e-8,44.354,-7.7516)"
       r="20">
      <stop
         stop-color="#79a8f7"
         offset="0"
         id="stop16" />
      <stop
         stop-color="#74a5f7"
         offset=".26238"
         id="stop18" />
      <stop
         stop-color="#337bf3"
         offset=".70495"
         id="stop20" />
      <stop
         stop-color="#0e62ed"
         offset="1"
         id="stop22" />
    </radialGradient>
    <radialGradient
       id="c"
       gradientUnits="userSpaceOnUse"
       cy="43.5"
       cx="4.993"
       gradientTransform="matrix(2.0038 0 0 1.4 27.988 -17.4)"
       r="2.5">
      <stop
         stop-color="#181818"
         offset="0"
         id="stop25" />
      <stop
         stop-color="#181818"
         stop-opacity="0"
         offset="1"
         id="stop27" />
    </radialGradient>
    <radialGradient
       id="b"
       gradientUnits="userSpaceOnUse"
       cy="43.5"
       cx="4.993"
       gradientTransform="matrix(2.0038 0 0 1.4 -20.012 -104.4)"
       r="2.5">
      <stop
         stop-color="#181818"
         offset="0"
         id="stop30" />
      <stop
         stop-color="#181818"
         stop-opacity="0"
         offset="1"
         id="stop32" />
    </radialGradient>
    <linearGradient
       id="d"
       y2="39.999"
       gradientUnits="userSpaceOnUse"
       x2="25.058"
       y1="47.028"
       x1="25.058">
      <stop
         stop-color="#181818"
         stop-opacity="0"
         offset="0"
         id="stop35" />
      <stop
         stop-color="#181818"
         offset=".5"
         id="stop37" />
      <stop
         stop-color="#181818"
         stop-opacity="0"
         offset="1"
         id="stop39" />
    </linearGradient>
    <linearGradient
       id="e"
       y2="5.0205"
       gradientUnits="userSpaceOnUse"
       x2="-1.2857"
       gradientTransform="translate(41.286,0)"
       y1="44.977"
       x1="-1.2857">
      <stop
         stop-color="#0a45a8"
         offset="0"
         id="stop42" />
      <stop
         stop-color="#0d5ce0"
         offset="1"
         id="stop44" />
    </linearGradient>
  </defs>
  <g
     id="g4214"
     transform="translate(0,-1)">
    <rect
       id="rect54"
       x="5"
       y="6"
       width="38"
       height="38"
       ry="1.5031"
       rx="1.5031"
       style="color:#000000;fill:url(#a)" />
    <rect
       id="rect56"
       x="5.5"
       y="6.5"
       width="37"
       height="37"
       ry="1"
       rx="1"
       style="opacity:0.5;fill:none;stroke:url(#f);stroke-linecap:round;stroke-linejoin:round" />
    <rect
       id="rect58"
       x="4.5"
       y="5.5"
       width="39"
       height="39"
       ry="2"
       rx="2"
       style="color:#000000;fill:none;stroke:url(#e);stroke-linecap:round;stroke-linejoin:round" />
    <rect
       id="rect60"
       x="15"
       y="19"
       width="18"
       height="2"
       style="opacity:0.15" />
    <rect
       id="rect62"
       x="15"
       y="23"
       width="18"
       height="2"
       style="opacity:0.15" />
    <rect
       id="rect64"
       x="15"
       y="27"
       width="18"
       height="2"
       style="opacity:0.15" />
    <rect
       id="rect66"
       x="15"
       y="31"
       width="10"
       height="2"
       style="opacity:0.15" />
    <path
       id="path68"
       d="m 15,18 a 1.0001,1.0001 0 0 0 -1,1 l 0,2 a 1.0001,1.0001 0 0 0 1,1 l 18,0 a 1.0001,1.0001 0 0 0 1,-1 l 0,-2 a 1.0001,1.0001 0 0 0 -1,-1 l -18,0 z"
       style="color:#000000;text-indent:0;text-decoration:none;text-decoration-line:none;text-decoration-style:solid;text-decoration-color:#000000;text-transform:none;block-progression:tb;white-space:normal;opacity:0.05;isolation:auto;mix-blend-mode:normal;solid-color:#000000;color-rendering:auto;image-rendering:auto;shape-rendering:auto"
       inkscape:connector-curvature="0" />
    <path
       id="path70"
       d="m 15,22 a 1.0001,1.0001 0 0 0 -1,1 l 0,2 a 1.0001,1.0001 0 0 0 1,1 l 18,0 a 1.0001,1.0001 0 0 0 1,-1 l 0,-2 a 1.0001,1.0001 0 0 0 -1,-1 l -18,0 z"
       style="color:#000000;text-indent:0;text-decoration:none;text-decoration-line:none;text-decoration-style:solid;text-decoration-color:#000000;text-transform:none;block-progression:tb;white-space:normal;opacity:0.05;isolation:auto;mix-blend-mode:normal;solid-color:#000000;color-rendering:auto;image-rendering:auto;shape-rendering:auto"
       inkscape:connector-curvature="0" />
    <path
       id="path72"
       d="m 15,26 a 1.0001,1.0001 0 0 0 -1,1 l 0,2 a 1.0001,1.0001 0 0 0 1,1 l 18,0 a 1.0001,1.0001 0 0 0 1,-1 l 0,-2 a 1.0001,1.0001 0 0 0 -1,-1 l -18,0 z"
       style="color:#000000;text-indent:0;text-decoration:none;text-decoration-line:none;text-decoration-style:solid;text-decoration-color:#000000;text-transform:none;block-progression:tb;white-space:normal;opacity:0.05;isolation:auto;mix-blend-mode:normal;solid-color:#000000;color-rendering:auto;image-rendering:auto;shape-rendering:auto"
       inkscape:connector-curvature="0" />
    <path
       id="path74"
       d="m 15,30 a 1.0001,1.0001 0 0 0 -1,1 l 0,2 a 1.0001,1.0001 0 0 0 1,1 l 10,0 a 1.0001,1.0001 0 0 0 1,-1 l 0,-2 a 1.0001,1.0001 0 0 0 -1,-1 l -10,0 z"
       style="color:#000000;text-indent:0;text-decoration:none;text-decoration-line:none;text-decoration-style:solid;text-decoration-color:#000000;text-transform:none;block-progression:tb;white-space:normal;opacity:0.05;isolation:auto;mix-blend-mode:normal;solid-color:#000000;color-rendering:auto;image-rendering:auto;shape-rendering:auto"
       inkscape:connector-curvature="0" />
    <rect
       id="rect76"
       x="15"
       y="18"
       width="18"
       height="2"
       style="fill:#ffffff" />
    <rect
       id="rect78"
       x="15"
       y="22"
       width="18"
       height="2"
       style="fill:#ffffff" />
    <rect
       id="rect80"
       x="15"
       y="26"
       width="18"
       height="2"
       style="fill:#ffffff" />
    <rect
       id="rect82"
       x="15"
       y="30"
       width="10"
       height="2"
       style="fill:#ffffff" />
  </g>
</svg>
