<?xml version="1.0" encoding="UTF-8" standalone="no"?>
<!-- Created with Inkscape (http://www.inkscape.org/) -->

<svg
   xmlns:dc="http://purl.org/dc/elements/1.1/"
   xmlns:cc="http://creativecommons.org/ns#"
   xmlns:rdf="http://www.w3.org/1999/02/22-rdf-syntax-ns#"
   xmlns:svg="http://www.w3.org/2000/svg"
   xmlns="http://www.w3.org/2000/svg"
   xmlns:sodipodi="http://sodipodi.sourceforge.net/DTD/sodipodi-0.dtd"
   xmlns:inkscape="http://www.inkscape.org/namespaces/inkscape"
   id="svg6649"
   height="48"
   width="48"
   version="1.1"
   inkscape:version="0.91 r13725"
   sodipodi:docname="chrome-hmjkmjkepdijhoojdojkdfohbdgmmhki-Default.svg">
  <sodipodi:namedview
     pagecolor="#ffffff"
     bordercolor="#666666"
     borderopacity="1"
     objecttolerance="10"
     gridtolerance="10"
     guidetolerance="10"
     inkscape:pageopacity="0"
     inkscape:pageshadow="2"
     inkscape:window-width="1535"
     inkscape:window-height="876"
     id="namedview37"
     showgrid="false"
     inkscape:zoom="4.9166667"
     inkscape:cx="-10.779661"
     inkscape:cy="24"
     inkscape:window-x="65"
     inkscape:window-y="24"
     inkscape:window-maximized="1"
     inkscape:current-layer="svg6649" />
  <defs
     id="defs6651">
    <radialGradient
       id="radialGradient3013"
       gradientUnits="userSpaceOnUse"
       cy="43.5"
       cx="4.993"
       gradientTransform="matrix(2.0038 0 0 1.4 27.988 -17.4)"
       r="2.5">
      <stop
         id="stop2883"
         stop-color="#181818"
         offset="0" />
      <stop
         id="stop2885"
         stop-color="#181818"
         stop-opacity="0"
         offset="1" />
    </radialGradient>
    <radialGradient
       id="radialGradient3015"
       gradientUnits="userSpaceOnUse"
       cy="43.5"
       cx="4.993"
       gradientTransform="matrix(2.0038 0 0 1.4 -20.012 -104.4)"
       r="2.5">
      <stop
         id="stop2889"
         stop-color="#181818"
         offset="0" />
      <stop
         id="stop2891"
         stop-color="#181818"
         stop-opacity="0"
         offset="1" />
    </radialGradient>
    <linearGradient
       id="linearGradient6647"
       y2="39.999"
       gradientUnits="userSpaceOnUse"
       x2="25.058"
       y1="47.028"
       x1="25.058">
      <stop
         id="stop2895"
         stop-color="#181818"
         stop-opacity="0"
         offset="0" />
      <stop
         id="stop2897"
         stop-color="#181818"
         offset=".5" />
      <stop
         id="stop2899"
         stop-color="#181818"
         stop-opacity="0"
         offset="1" />
    </linearGradient>
    <linearGradient
       id="linearGradient3901"
       y2="43"
       gradientUnits="userSpaceOnUse"
       x2="24"
       gradientTransform="translate(4e-6,1)"
       y1="5"
       x1="24">
      <stop
         id="stop3926-3"
         stop-color="#fff"
         offset="0" />
      <stop
         id="stop3928-91"
         stop-color="#fff"
         stop-opacity=".23529"
         offset=".063165" />
      <stop
         id="stop3930-6"
         stop-color="#fff"
         stop-opacity=".15686"
         offset=".95056" />
      <stop
         id="stop3932-6"
         stop-color="#fff"
         stop-opacity=".39216"
         offset="1" />
    </linearGradient>
    <radialGradient
       id="radialGradient3904"
       fx="6.2002"
       gradientUnits="userSpaceOnUse"
       cy="9.9571"
       cx="6.7304"
       gradientTransform="matrix(0,9.4976,-11.66,0,140.93,-79.161)"
       r="12.672">
      <stop
         id="stop4217"
         stop-color="#ffcd35"
         offset="0" />
      <stop
         id="stop4219"
         stop-color="#f0dd1a"
         offset="1" />
    </radialGradient>
    <radialGradient
       id="radialGradient3926"
       gradientUnits="userSpaceOnUse"
       cy="-24"
       cx="7"
       gradientTransform="matrix(1.2308,0,-2.0513e-8,1.4872,-1.6154,11.692)"
       r="19.5">
      <stop
         id="stop4069-2-9"
         stop-color="#ffe452"
         offset="0" />
      <stop
         id="stop4071-8-9"
         stop-color="#ffeb41"
         stop-opacity="0"
         offset="1" />
    </radialGradient>
  </defs>
  <metadata
     id="metadata6654">
    <rdf:RDF>
      <cc:Work
         rdf:about="">
        <dc:format>image/svg+xml</dc:format>
        <dc:type
           rdf:resource="http://purl.org/dc/dcmitype/StillImage" />
        <dc:title />
      </cc:Work>
    </rdf:RDF>
  </metadata>
  <g
     id="g4165"
     transform="translate(0,-1)">
    <rect
       x="4.5"
       y="5.5"
       width="39"
       height="39"
       ry="2"
       rx="2"
       style="color:#000000;fill:url(#radialGradient3904)"
       id="rect5505-21" />
    <rect
       x="5.5"
       y="6.5"
       width="37"
       height="37"
       ry="1"
       rx="1"
       id="rect6741"
       style="opacity:0.5;fill:none;stroke:url(#linearGradient3901);stroke-linecap:round;stroke-linejoin:round" />
    <rect
       x="5.5"
       y="-43.5"
       width="39"
       height="39"
       ry="2"
       rx="2"
       transform="matrix(0,1,-1,0,0,0)"
       style="color:#000000;opacity:0.4;fill:url(#radialGradient3926)"
       id="rect3920" />
    <rect
       x="4.5"
       y="5.5"
       width="39"
       height="39"
       ry="2"
       rx="2"
       style="color:#000000;opacity:0.4;fill:none;stroke:#644300;stroke-linecap:round;stroke-linejoin:round"
       id="rect5505-21-3-2" />
    <path
       d="m 24.002,12 c -2.1275,0.0043 -4.2571,0.80383 -6.0256,2.3982 -2.1309,1.9211 -2.9642,3.7923 -2.9763,6.6838 -0.01128,2.693 0.76772,4.4559 2.8599,6.4714 l 1.4184,1.3664 0,3.3152 c 0,3.4199 0.18409,4.0148 1.2419,4.0148 0.3154,0 0.53224,0.2139 0.53224,0.52504 0,0.96127 0.63676,1.2251 2.9569,1.2251 1.3536,0 2.3883,-0.13919 2.6021,-0.35003 0.19515,-0.19252 0.35483,-0.58629 0.35483,-0.87507 0,-0.31114 0.21684,-0.52504 0.53224,-0.52504 1.0578,0 1.2419,-0.59492 1.2419,-4.0148 l 0,-3.3152 1.4152,-1.3664 c 2.0394,-1.9692 2.8273,-3.7616 2.8442,-6.4714 0.01801,-2.8952 -0.80418,-4.7426 -2.9846,-6.7084 -1.7605,-1.5872 -3.8856,-2.378 -6.0131,-2.3736 z m 0.152,2.0824 c 3.9194,0.07855 7.3582,3.4071 6.8517,7.6404 -0.26939,2.2513 -1.6938,4.4301 -3.5067,5.3643 -0.68968,0.35544 -0.80978,0.61854 -0.88706,1.9429 l -0.08918,1.5318 -2.3794,0.08387 c -1.3085,0.04606 -2.4728,-0.0088 -2.5873,-0.12169 -0.11446,-0.11291 -0.20791,-0.83619 -0.20791,-1.6075 0,-1.2338 -0.09773,-1.4526 -0.81314,-1.8212 -0.44723,-0.23044 -1.1639,-0.79192 -1.5926,-1.2474 -3.2805,-3.4859 -2.3492,-8.9357 1.8822,-11.016 1.0967,-0.5391 2.2318,-0.77172 3.3293,-0.74973 z m -0.78958,18.709 c 0.24712,6.78e-4 0.52051,0.0067 0.82099,0.01777 2.1113,0.07769 2.3373,0.14259 2.3373,0.66952 0,0.52949 -0.22573,0.59119 -2.4441,0.66815 -2.0249,0.07025 -2.4754,0.0043 -2.6265,-0.38421 -0.27782,-0.71419 0.18237,-0.97615 1.9123,-0.97123 z"
       id="path4325"
       inkscape:connector-curvature="0"
       style="opacity:0.15;fill:none;stroke:#000000;stroke-width:2;stroke-linecap:round;stroke-linejoin:round" />
    <path
       d="m 24.002,12 c -2.1275,0.0043 -4.2571,0.80383 -6.0256,2.3982 -2.1309,1.9211 -2.9642,3.7923 -2.9763,6.6838 -0.01128,2.693 0.76772,4.4559 2.8599,6.4714 l 1.4184,1.3664 0,3.3152 c 0,3.4199 0.18409,4.0148 1.2419,4.0148 0.3154,0 0.53224,0.2139 0.53224,0.52504 0,0.96127 0.63676,1.2251 2.9569,1.2251 1.3536,0 2.3883,-0.13919 2.6021,-0.35003 0.19515,-0.19252 0.35483,-0.58629 0.35483,-0.87507 0,-0.31114 0.21684,-0.52504 0.53224,-0.52504 1.0578,0 1.2419,-0.59492 1.2419,-4.0148 l 0,-3.3152 1.4152,-1.3664 c 2.0394,-1.9692 2.8273,-3.7616 2.8442,-6.4714 0.01801,-2.8952 -0.80418,-4.7426 -2.9846,-6.7084 -1.7605,-1.5872 -3.8856,-2.378 -6.0131,-2.3736 z m 0.152,2.0824 c 3.9194,0.07855 7.3582,3.4071 6.8517,7.6404 -0.26939,2.2513 -1.6938,4.4301 -3.5067,5.3643 -0.68968,0.35544 -0.80978,0.61854 -0.88706,1.9429 l -0.08918,1.5318 -2.3794,0.08387 c -1.3085,0.04606 -2.4728,-0.0088 -2.5873,-0.12169 -0.11446,-0.11291 -0.20791,-0.83619 -0.20791,-1.6075 0,-1.2338 -0.09773,-1.4526 -0.81314,-1.8212 -0.44723,-0.23044 -1.1639,-0.79192 -1.5926,-1.2474 -3.2805,-3.4859 -2.3492,-8.9357 1.8822,-11.016 1.0967,-0.5391 2.2318,-0.77172 3.3293,-0.74973 z m -0.78958,18.709 c 0.24712,6.78e-4 0.52051,0.0067 0.82099,0.01777 2.1113,0.07769 2.3373,0.14259 2.3373,0.66952 0,0.52949 -0.22573,0.59119 -2.4441,0.66815 -2.0249,0.07025 -2.4754,0.0043 -2.6265,-0.38421 -0.27782,-0.71419 0.18237,-0.97615 1.9123,-0.97123 z"
       id="path4327"
       inkscape:connector-curvature="0"
       style="opacity:0.15;fill:none;stroke:#000000;stroke-linecap:round;stroke-linejoin:round" />
    <path
       d="m 24.002,12 c -2.1275,0.0043 -4.2571,0.80383 -6.0256,2.3982 -2.1309,1.9211 -2.9642,3.7923 -2.9763,6.6838 -0.01128,2.693 0.76772,4.4559 2.8599,6.4714 l 1.4184,1.3664 0,3.3152 c 0,3.4199 0.18409,4.0148 1.2419,4.0148 0.3154,0 0.53224,0.2139 0.53224,0.52504 0,0.96127 0.63676,1.2251 2.9569,1.2251 1.3536,0 2.3883,-0.13919 2.6021,-0.35003 0.19515,-0.19252 0.35483,-0.58629 0.35483,-0.87507 0,-0.31114 0.21684,-0.52504 0.53224,-0.52504 1.0578,0 1.2419,-0.59492 1.2419,-4.0148 l 0,-3.3152 1.4152,-1.3664 c 2.0394,-1.9692 2.8273,-3.7616 2.8442,-6.4714 0.01801,-2.8952 -0.80418,-4.7426 -2.9846,-6.7084 -1.7605,-1.5872 -3.8856,-2.378 -6.0131,-2.3736 z m 0.152,2.0824 c 3.9194,0.07855 7.3582,3.4071 6.8517,7.6404 -0.26939,2.2513 -1.6938,4.4301 -3.5067,5.3643 -0.68968,0.35544 -0.80978,0.61854 -0.88706,1.9429 l -0.08918,1.5318 -2.3794,0.08387 c -1.3085,0.04606 -2.4728,-0.0088 -2.5873,-0.12169 -0.11446,-0.11291 -0.20791,-0.83619 -0.20791,-1.6075 0,-1.2338 -0.09773,-1.4526 -0.81314,-1.8212 -0.44723,-0.23044 -1.1639,-0.79192 -1.5926,-1.2474 -3.2805,-3.4859 -2.3492,-8.9357 1.8822,-11.016 1.0967,-0.5391 2.2318,-0.77172 3.3293,-0.74973 z m -0.78958,18.709 c 0.24712,6.78e-4 0.52051,0.0067 0.82099,0.01777 2.1113,0.07769 2.3373,0.14259 2.3373,0.66952 0,0.52949 -0.22573,0.59119 -2.4441,0.66815 -2.0249,0.07025 -2.4754,0.0043 -2.6265,-0.38421 -0.27782,-0.71419 0.18237,-0.97615 1.9123,-0.97123 z"
       id="path4319"
       inkscape:connector-curvature="0"
       style="fill:#ffffff" />
  </g>
</svg>
