<?xml version="1.0" encoding="UTF-8" standalone="no"?>
<!-- Created with Inkscape (http://www.inkscape.org/) -->
<svg id="svg4951" xmlns:rdf="http://www.w3.org/1999/02/22-rdf-syntax-ns#" xmlns="http://www.w3.org/2000/svg" height="48px" width="48px" version="1.1" xmlns:cc="http://creativecommons.org/ns#" xmlns:xlink="http://www.w3.org/1999/xlink" xmlns:dc="http://purl.org/dc/elements/1.1/">
 <defs id="defs4953">
  <radialGradient id="radialGradient3259" gradientUnits="userSpaceOnUse" cy="186.17" cx="99.157" gradientTransform="matrix(.27083 0 0 .087623 -2.8551 25.187)" r="62.769">
   <stop id="stop3822-2-6-3" stop-color="#3d3d3d" offset="0"/>
   <stop id="stop3864-8-7-7" stop-color="#686868" stop-opacity=".49804" offset=".5"/>
   <stop id="stop3824-1-2-5" stop-color="#686868" stop-opacity="0" offset="1"/>
  </radialGradient>
  <linearGradient id="linearGradient3398" y2="40.496" gradientUnits="userSpaceOnUse" x2="71.204" gradientTransform="matrix(1.5496 0 0 1.5496 -87.847 -18.309)" y1="15.369" x1="71.204">
   <stop id="stop4808-4" stop-color="#fff" offset="0"/>
   <stop id="stop4810-0" stop-color="#fff" stop-opacity=".23529" offset=".42448"/>
   <stop id="stop4812-8" stop-color="#fff" stop-opacity=".15686" offset=".82090"/>
   <stop id="stop4814-0" stop-color="#fff" stop-opacity=".39216" offset="1"/>
  </linearGradient>
  <radialGradient id="radialGradient3401" gradientUnits="userSpaceOnUse" cy="3.99" cx="23.896" gradientTransform="matrix(0 2.7682 -3.654 0 38.58 -61.329)" r="20.397">
   <stop id="stop3750-8-9-7-0" stop-color="#90b3ec" offset="0"/>
   <stop id="stop3752-3-2-9-2" stop-color="#428dea" offset=".26238"/>
   <stop id="stop3754-7-2-1-1" stop-color="#4736e6" offset=".70495"/>
   <stop id="stop3756-9-3-9-2" stop-color="#2b36a0" offset="1"/>
  </radialGradient>
  <linearGradient id="linearGradient4251" gradientUnits="userSpaceOnUse" x2="0" gradientTransform="matrix(.31451 0 0 .30108 -37.287 -2.5659)" y1="105.44" y2="132.01">
   <stop id="stop24" stop-color="#eca200" offset="0"/>
   <stop id="stop26" stop-color="#fbda4c" offset="1"/>
  </linearGradient>
  <linearGradient id="linearGradient4256" gradientUnits="userSpaceOnUse" gradientTransform="matrix(0 .83476 -3.1132 0 25.399 -25.965)" x2="52.37" x1="-8.847">
   <stop id="stop29" stop-color="#ea69a2" offset="0"/>
   <stop id="stop31" stop-color="#e54587" offset="1"/>
  </linearGradient>
 </defs>
 <metadata id="metadata4956">
  <rdf:RDF>
   <cc:Work rdf:about="">
    <dc:format>image/svg+xml</dc:format>
    <dc:type rdf:resource="http://purl.org/dc/dcmitype/StillImage"/>
    <dc:title/>
   </cc:Work>
  </rdf:RDF>
 </metadata>
 <g id="layer1">
  <g id="g4526">
   <path id="path3818-0-5" fill="url(#radialGradient3259)" d="m41 41.5a17 5.5 0 0 1 -34 0 17 5.5 0 1 1 34 0z"/>
   <path id="path2555-7-2" style="color:#000000" d="m24 5.2282c-10.84 0-19.646 8.8062-19.646 19.646s8.8062 19.646 19.646 19.646 19.646-8.8062 19.646-19.646-8.806-19.646-19.646-19.646z" fill="url(#radialGradient3401)"/>
   <path id="path76" d="m23.991 4.9911c-7.9581 0-14.809 4.506-17.997 11.009 5.5704 1.1353 11.619 1.748 17.97 1.748 6.3628 0 12.442-0.63024 18.025-1.7739-3.195-6.491-10.048-10.982-17.997-10.982z" fill="url(#linearGradient4256)"/>
   <path id="path78" d="m24.803 5.7741c-1.8248 0-3.4027 0.60019-4.1951 1.4867-0.71362-0.22538-1.5225-0.33891-2.3816-0.33891-2.2344 0-4.1163 0.84311-4.8178 2.0351-0.205-0.2061-0.457-0.3839-0.731-0.5475-0.30398 0.20201-0.6019 0.38232-0.89289 0.60019 0.80369 0.21871 1.4723 0.59017 1.9486 1.0693 0.7015-1.192 2.5869-2.0351 4.8178-2.0351 0.86258 0 1.668 0.1152 2.3816 0.33891 0.7881-0.88401 2.3738-1.4867 4.1951-1.4867 2.1435 0 3.9466 0.84311 4.5199 1.9826 0.08141-0.00501 0.18706 0 0.27107 0l-0.43302 0.23457c0.11172-0.060103 0.2269-0.090989 0.35161-0.13022 0.14636-0.044242 0.28406-0.086815 0.43302-0.10434 0.44082 0.012521 0.86085 0.053425 1.2454 0.13022 0.84699 0.293 1.6056 0.99002 2.0032 1.9041 0.36894 0.85145 0.34122 1.7196 0 2.3999-0.8288-0.4274-1.933-0.56263-3.058-0.33891l0.02685-0.07847c-0.0061 0.005-0.02079-0.0025-0.02685 0-0.26674-0.99253-1.1475-1.9617-2.463-2.5569-2.101-0.94328-4.4965-0.56179-5.3591 0.86064-0.08314 0.12688-0.14636 0.25711-0.18966 0.3915v0.02588l-0.32477 1.1219c0.05283-0.1344 0.11259-0.26211 0.18966-0.3915 0.86604-1.4224 3.2797-1.8331 5.3859-0.88735 0.92753 0.41488 1.6264 1.0251 2.0569 1.6954-0.19226 0.06511-0.37586 0.15026-0.56812 0.23457-1.3155 0.59351-2.1972 1.5652-2.463 2.5569-0.0061-0.0025-0.02079 0.0025-0.02685 0l0.32477 1.1219c0.0035 0.0025 0.02425-0.0025 0.02685 0 0.26674-0.99336 1.1475-1.9617 2.463-2.5569 2.1062-0.94328 4.5173-0.56179 5.3859 0.86064 0.07794 0.12688 0.13684 0.25711 0.18966 0.3915l-0.35161-1.096 0.02685-0.02588c-0.04677-0.1344-0.11259-0.26462-0.18966-0.3915-0.21998-0.36228-0.53262-0.66029-0.9206-0.88735l0.64953-0.36562c-0.0061 0-0.02425-0.02337-0.02685-0.02588 0.45294-0.70287 0.52396-1.6653 0.10826-2.6086-0.19573-0.4516-0.4668-0.85312-0.81235-1.1737 0.43129-0.16361 0.89376-0.26629 1.3805-0.31303 0.5534 0.012521 1.1077 0.17947 1.6238 0.44326-0.706-0.5557-1.437-1.0524-2.219-1.5132-0.64 0.0893-1.242 0.263-1.759 0.5476-0.695-0.3823-1.733-0.626-2.896-0.626-0.12384 0-0.25202 0.020869-0.37933 0.025878-0.578-1.1445-2.383-1.9826-4.521-1.9826zm-9.9058 4.5394c-0.61143-0.0025-1.2644 0.10852-1.8949 0.33891-0.58891 0.2137-1.0817 0.51588-1.4887 0.86064-0.95525-0.17947-1.8897-0.08598-2.6527 0.20869-0.58198 0.65529-1.1094 1.3331-1.597 2.061 0.95005-1.2872 3.2321-1.6128 5.2482-0.70454 0.86258 0.38733 1.5355 0.92408 1.9754 1.5393-0.02771 0.01002-0.05543 0.01586-0.08141 0.02588l0.37933 0.46997c0.08141 0.16946 0.14376 0.34726 0.18966 0.52172 0.0035-0.0025 0.02425 0.0025 0.02685 0l0.05456-0.20869 0.05456 0.10434c0.63308-0.14191 1.3554-0.16695 2.0837-0.05259 1.3458 0.20869 2.4215 0.85479 2.9775 1.6695 0.0035-0.0025 0.02425 0.0025 0.02685 0l-0.08141-1.0693c-0.55514-0.81139-1.655-1.4608-3.0043-1.6695-0.63914-0.10184-1.2662-0.07596-1.8403 0.02588-0.28839-0.96331-1.1631-1.9016-2.4362-2.4784 0.27627-0.16695 0.59064-0.32138 0.9206-0.44326 1.2592-0.45745 2.5955-0.41738 3.5724 0v-0.02588l-0.75779-0.83476c-0.49018-0.20869-1.0704-0.33641-1.6784-0.33891zm23.435 0.60019c0.10912 0.17614 0.18533 0.38065 0.27107 0.57432 0.51443 1.1945 0.44168 2.4208-0.1351 3.3132l1.1094-0.65195c0.24596-0.38232 0.39925-0.82808 0.45987-1.3047-0.51963-0.68116-1.0981-1.3214-1.7052-1.9308zm-31.281 3.183c-0.023383 0.03673-0.058025 0.06762-0.081408 0.10434-0.00433 0.0067 0.00433 0.02003 0 0.02588l-0.026847 0.10434c0.027713-0.08014 0.069284-0.15777 0.10826-0.23457z" fill="#952f5b"/>
   <g id="g4520" stroke-linejoin="round" opacity=".15" stroke="#000" stroke-linecap="round" stroke-width="2" fill="none">
    <path id="path4522" d="m17.469 11.669c-4.5268 0-8.204 4.0661-8.204 9.0813 0 5.0086 3.6772 9.0813 8.204 9.0813 2.6622 0 5.0205-1.4057 6.5187-3.5836 1.4957 2.1779 3.8634 3.5836 6.5222 3.5836 4.5268 0 8.204-4.0694 8.204-9.0813 0-5.0169-3.6772-9.0813-8.204-9.0813-2.6588 0-5.0274 1.4057-6.5222 3.5803-1.4983-2.1745-3.8565-3.5803-6.5187-3.5803"/>
    <path id="path4524" d="m23.943 26.226c-2.9428 0-6.1437 2.824-6.0147 4.6079 0.12558 1.7839 5.2482 9.2157 6.4009 9.2157 1.1536 0 5.6328-7.2849 5.5037-9.3685-0.12818-2.0802-3.9682-4.6079-5.89-4.4576"/>
   </g>
   <g id="g4516">
    <path id="path80" d="m17.469 11.669c-4.5268 0-8.204 4.0661-8.204 9.0813 0 5.0086 3.6772 9.0813 8.204 9.0813 2.6622 0 5.0205-1.4057 6.5187-3.5836 1.4957 2.1779 3.8634 3.5836 6.5222 3.5836 4.5268 0 8.204-4.0694 8.204-9.0813 0-5.0169-3.6772-9.0813-8.204-9.0813-2.6588 0-5.0274 1.4057-6.5222 3.5803-1.4983-2.1745-3.8565-3.5803-6.5187-3.5803" fill="#f9f9f9"/>
    <path id="path82" fill="url(#linearGradient4251)" d="m23.943 26.226c-2.9428 0-6.1437 2.824-6.0147 4.6079 0.12558 1.7839 5.2482 9.2157 6.4009 9.2157 1.1536 0 5.6328-7.2849 5.5037-9.3685-0.12818-2.0802-3.9682-4.6079-5.89-4.4576"/>
   </g>
   <path id="path84" d="m29.567 29.77c-0.70063 2.7355-4.3649 8.507-5.3894 8.507-1.0011 0-4.9936-5.6054-6.1056-8.2499-0.10479 0.28048-0.15242 0.55428-0.1351 0.80554 0.12818 1.7839 5.2482 9.2157 6.4009 9.2157 1.1536 0 5.6362-7.2849 5.5072-9.3618-0.01992-0.29968-0.11865-0.60687-0.27107-0.9199m-0.0035 0.0033" fill="#ecc100"/>
   <path id="path86" d="m20.185 18.657c-1.5597 0-2.8285 1.2162-2.8285 2.7063 0 1.4934 1.2722 2.7096 2.8285 2.7096s2.8285-1.2162 2.8285-2.7096c0-1.49-1.2722-2.7063-2.8285-2.7063m-0.85565 1.3206c0.34209 0 0.61576 0.26378 0.61576 0.59018 0 0.32305-0.27367 0.58684-0.61576 0.58684s-0.61576-0.26378-0.61576-0.58684c0-0.32639 0.27367-0.59018 0.61576-0.59018" fill="#3d3d3d"/>
   <path id="path88" d="m28.19 18.657c-1.5563 0-2.8285 1.2162-2.8285 2.7063 0 1.4934 1.2757 2.7096 2.8285 2.7096 1.5563 0 2.832-1.2162 2.832-2.7096 0-1.49-1.2757-2.7063-2.832-2.7063m-0.85565 1.3206c0.34209 0 0.61922 0.26378 0.61922 0.59018 0 0.32305-0.27713 0.58684-0.61922 0.58684-0.33862 0-0.61576-0.26378-0.61576-0.58684 0-0.32639 0.27713-0.59018 0.61576-0.59018" fill="#3d3d3d"/>
   <path id="path4176" opacity=".3" stroke-linejoin="round" style="color:#000000" d="m42.688 24.874c0 10.321-8.3669 18.688-18.688 18.688s-18.688-8.3669-18.688-18.688 8.3669-18.688 18.688-18.688 18.688 8.3669 18.688 18.688z" stroke="url(#linearGradient3398)" stroke-linecap="round" stroke-width=".95836" fill="none"/>
   <path id="path3871" style="color:#000000" d="m24 5.2282c-10.84 0-19.646 8.8062-19.646 19.646s8.8062 19.646 19.646 19.646 19.646-8.8062 19.646-19.646-8.806-19.646-19.646-19.646z" stroke="#5b6ac1" stroke-width=".95836" fill="none"/>
  </g>
 </g>
</svg>
