<?xml version="1.0" encoding="UTF-8" standalone="no"?>
<!-- Created with Inkscape (http://www.inkscape.org/) -->
<svg id="svg4951" xmlns:rdf="http://www.w3.org/1999/02/22-rdf-syntax-ns#" xmlns="http://www.w3.org/2000/svg" height="48" width="48" version="1.1" xmlns:cc="http://creativecommons.org/ns#" xmlns:xlink="http://www.w3.org/1999/xlink" xmlns:dc="http://purl.org/dc/elements/1.1/">
 <defs id="defs4953">
  <radialGradient id="radialGradient3302" gradientUnits="userSpaceOnUse" cy="186.17" cx="99.157" gradientTransform="matrix(.27083 0 0 .087623 -2.8551 25.187)" r="62.769">
   <stop id="stop3822-2-6-3" stop-color="#3d3d3d" offset="0"/>
   <stop id="stop3864-8-7-7" stop-color="#686868" stop-opacity=".49804" offset=".5"/>
   <stop id="stop3824-1-2-5" stop-color="#686868" stop-opacity="0" offset="1"/>
  </radialGradient>
  <radialGradient id="radialGradient4448" gradientUnits="userSpaceOnUse" cy="-17.681" cx="14.892" gradientTransform="matrix(-1.4387 3.8089e-8 -2.8328e-8 -1.07 45.169 -14.596)" r="25.571">
   <stop id="stop3750-1-0-7-6-6-1-3-9-3" stop-color="#5f5f5f" offset="0"/>
   <stop id="stop3752-3-7-4-0-32-8-923-0-7" stop-color="#515151" offset=".26238"/>
   <stop id="stop3754-1-8-5-2-7-6-7-1-9" stop-color="#404040" offset=".70495"/>
   <stop id="stop3756-1-6-2-6-6-1-96-6-0" stop-color="#343434" offset="1"/>
  </radialGradient>
  <linearGradient id="linearGradient4450" y2="32.568" gradientUnits="userSpaceOnUse" x2="15.124" gradientTransform="matrix(.76418 0 0 .76418 12.377 18.778)" y1="-18.801" x1="15.124">
   <stop id="stop4413" stop-color="#fff" offset="0"/>
   <stop id="stop4415" stop-color="#fff" stop-opacity="0" offset="1"/>
  </linearGradient>
 </defs>
 <metadata id="metadata4956">
  <rdf:RDF>
   <cc:Work rdf:about="">
    <dc:format>image/svg+xml</dc:format>
    <dc:type rdf:resource="http://purl.org/dc/dcmitype/StillImage"/>
    <dc:title/>
   </cc:Work>
  </rdf:RDF>
 </metadata>
 <path id="path3818-0-5" d="m41 41.5a17 5.5 0 0 1 -34 0 17 5.5 0 1 1 34 0z" fill="url(#radialGradient3302)"/>
 <circle id="path2985-6" cy="24" cx="24" r="20.526" fill="url(#radialGradient4448)"/>
 <circle id="path3755-9" opacity=".6" stroke-width=".94845" stroke="#242424" cy="24" cx="24" r="20.526" fill="none"/>
 <circle id="path3773-9" opacity=".6" stroke-width=".93261" stroke-opacity=".58824" stroke="url(#linearGradient4450)" cy="24" cx="24" r="19.54" fill="none"/>
 <path id="path4400" opacity=".15" stroke-linejoin="round" d="m27.024 14.711c-0.10551 1.2091-0.93447 0.69586-1.832 1.3556-0.24213-0.0361-0.51828-0.0361-0.89752-0.0361-0.06855-0.80626 0.20809-0.95275 0.34472-1.0992 0.5528-0.44001 0.93447-0.21975 0.93447-0.21975 0.41375-0.07424 0.7925 0.0361 1.4503-0.000582v0zm2.0712-1.9793h-1.2077v-0.32962h-0.65539v0.18261c-0.07098 0.0361-0.13954 0.11038-0.20809 0.1465h-0.06855c-1.1426-0.95275-1.2106 0.98989-1.9715 0.54989-0.06855-0.40339-0.03405-0.77015-0.03405-1.2463 1.3132-0.03717 0.82897-0.40338 0.45022-0.8795-0.13662-0.18364-0.20809-0.47664-0.24212-0.65976-0.31068-1.2091-1.5899-1.9421-3.453-1.1725-1.2106 0.47612-0.89752 2.199-0.79493 3.3715-0.06855 0.10935-0.20809 0.07326-0.31068 0.07326-1.3132 0.07327-1.9001 1.5382-2.1767 2.7113 0.06855 1.0631-0.06855 2.2356-0.24212 3.2611-0.17357 1.026-0.51828 1.8323-0.5528 2.8216-0.06855 0.8795 0.24213 1.9055 0.17357 2.7118-0.72638 2.2723-1.2452 3.7744-1.6239 6.1932-0.27616 0.54937-1.2422 1.7219-1.6239 1.9788-0.10259 0.18261 0.06855 0.58651-0.10259 0.84237-0.31068 0.47612-0.79493 0.733-1.0711 1.2463 0.06855 0.10935-0.4157 0.21975-0.37875 0.40338 0.03404 0.18261 0.27616 0.65873 0.37875 0.76912 0.03404 0.07327 0.37875-0.11038 0.37875 0 0.13954 0.43898 0.45022 1.3556 0.79493 1.5754 1.5213 0.18261 1.5213 0.18261 2.1422 0 0.34472-1.0631-1.1737-0.58651-1.0371-2.0159 2.0741-0.43898 2.729-1.0626 3.558-3.371 0.37875-1.6858 0.89752-3.3344 1.692-4.9469 0.13662-0.10936 0.10259-0.40287 0.34471-0.51326 0.93155 1.6486 2.6264 2.8221 3.453 4.5445 0.20809 2.2351 0.62379 3.4443 1.3473 3.8476 0.17357 0.07326 0 0.76912 0.13954 0.91561 0 0.21975 0.06855 0.47612-0.03405 0.733-0.07098 0.18364-0.03403 0.40338-0.03403 0.58651v0.21975c0.03403 0.33116 0.10259 0.33116 0.41327 0.58651 0.89752 0.62261 2.1082 1.6125 3.3159 0.8795 0.55281-0.95378-0.62087-2.1619-1.4498-2.785-0.27616-0.21975-0.76041-0.76912-0.69235-1.1359 0.45022-0.47664 0.76041-2.5653 0.58684-4.1778-0.06855-0.36572-0.13662-0.733-0.27616-1.026-0.41327-0.84236-1.3448-2.0154-2.1393-2.8577 0.10259-0.10936 0.24213-0.25689 0.41327-0.33014 0-0.80574-0.31068-1.0626-0.72346-1.6486-0.34763-0.58651-1.1396-1.7219-1.7294-2.0886 0 0 0-0.03717-0.58684-0.03717-0.03404-0.40286 0.07098-0.733 0.17357-1.1725 0-0.32962 0.24213-0.14599 0.31068-0.8795 0.17357-0.62262 0.10259-0.25637 0.24213-0.87899 0.13662-0.293 0.20809-0.58651 0.20809-1.0631 0.51586 0.18365 1.5524 0.1465 2.0026 0l0.10259 0.07327c0.13954 0.03717 0.17358-0.18261 0.27616-0.21923 0.79493-0.44053 1.0711-1.2096 1.7265-1.2829 0 0 0.34763-0.18364 0.863 0 0.20809 0 0.38167 0.0361 0.38167-0.18364 0.03404-0.32961 0.03404-0.58547 0.20809-0.80625 0.13662 0.8795 0.51586 1.8694 1.2077 2.8221l0.68943-0.51326c-0.65539-0.84236-1.0682-1.7951-1.1396-2.8949 0.03402 0.07326 0.07099 0.1465 0.13954 0.21976 0.24213 0 0.37875-0.54989 0.6554-0.51327 0.03403-0.07326 0.1055-0.40338 0.17357-0.65975h2.5895l0.93156-0.21975v-0.51326l-0.68943-0.07326v-0.58651h-0.17357v-0.65975h-0.41327v0.62313l-1.0711-0.07326v-0.40338h-0.41327v0.36624l-1.1051-0.10936v-0.54988h-0.4157v0.51325l-1.6239-0.10936v-0.18209h0.0013z" stroke="#000" stroke-linecap="round" stroke-width="2" fill="none"/>
 <path id="path4410" opacity=".3" stroke-linejoin="round" d="m27.024 14.707c-0.10551 1.2091-0.93447 0.69586-1.832 1.3556-0.24213-0.0361-0.51828-0.0361-0.89752-0.0361-0.06855-0.80626 0.20809-0.95275 0.34472-1.0992 0.5528-0.44001 0.93447-0.21975 0.93447-0.21975 0.41375-0.07424 0.7925 0.0361 1.4503-0.000582v0zm2.0712-1.9793h-1.2077v-0.32962h-0.65539v0.18261c-0.07098 0.0361-0.13954 0.11038-0.20809 0.1465h-0.06855c-1.1426-0.95275-1.2106 0.98989-1.9715 0.54989-0.06855-0.40339-0.03405-0.77015-0.03405-1.2463 1.3132-0.03717 0.82897-0.40338 0.45022-0.8795-0.13662-0.18364-0.20809-0.47664-0.24212-0.65976-0.31068-1.2091-1.5899-1.9421-3.453-1.1725-1.2106 0.47612-0.89752 2.199-0.79493 3.3715-0.06855 0.10935-0.20809 0.07326-0.31068 0.07326-1.3132 0.07327-1.9001 1.5382-2.1767 2.7113 0.06855 1.0631-0.06855 2.2356-0.24212 3.2611-0.17357 1.026-0.51828 1.8323-0.5528 2.8216-0.06855 0.8795 0.24213 1.9055 0.17357 2.7118-0.72638 2.2723-1.2452 3.7744-1.6239 6.1932-0.27616 0.54937-1.2422 1.7219-1.6239 1.9788-0.10259 0.18261 0.06855 0.58651-0.10259 0.84237-0.31068 0.47612-0.79493 0.733-1.0711 1.2463 0.06855 0.10935-0.4157 0.21975-0.37875 0.40338 0.03404 0.18261 0.27616 0.65873 0.37875 0.76912 0.03404 0.07327 0.37875-0.11038 0.37875 0 0.13954 0.43898 0.45022 1.3556 0.79493 1.5754 1.5213 0.18261 1.5213 0.18261 2.1422 0 0.34472-1.0631-1.1737-0.58651-1.0371-2.0159 2.0741-0.43898 2.729-1.0626 3.558-3.371 0.37875-1.6858 0.89752-3.3344 1.692-4.9469 0.13662-0.10936 0.10259-0.40287 0.34471-0.51326 0.93155 1.6486 2.6264 2.8221 3.453 4.5445 0.20809 2.2351 0.62379 3.4443 1.3473 3.8476 0.17357 0.07326 0 0.76912 0.13954 0.91561 0 0.21975 0.06855 0.47612-0.03405 0.733-0.07098 0.18364-0.03403 0.40338-0.03403 0.58651v0.21975c0.03403 0.33116 0.10259 0.33116 0.41327 0.58651 0.89752 0.62261 2.1082 1.6125 3.3159 0.8795 0.55281-0.95378-0.62087-2.1619-1.4498-2.785-0.27616-0.21975-0.76041-0.76912-0.69235-1.1359 0.45022-0.47664 0.76041-2.5653 0.58684-4.1778-0.06855-0.36572-0.13662-0.733-0.27616-1.026-0.41327-0.84236-1.3448-2.0154-2.1393-2.8577 0.10259-0.10936 0.24213-0.25689 0.41327-0.33014 0-0.80574-0.31068-1.0626-0.72346-1.6486-0.34763-0.58651-1.1396-1.7219-1.7294-2.0886 0 0 0-0.03717-0.58684-0.03717-0.03404-0.40286 0.07098-0.733 0.17357-1.1725 0-0.32962 0.24213-0.14599 0.31068-0.8795 0.17357-0.62262 0.10259-0.25637 0.24213-0.87899 0.13662-0.293 0.20809-0.58651 0.20809-1.0631 0.51586 0.18365 1.5524 0.1465 2.0026 0l0.10259 0.07327c0.13954 0.03717 0.17358-0.18261 0.27616-0.21923 0.79493-0.44053 1.0711-1.2096 1.7265-1.2829 0 0 0.34763-0.18364 0.863 0 0.20809 0 0.38167 0.0361 0.38167-0.18364 0.03404-0.32961 0.03404-0.58547 0.20809-0.80625 0.13662 0.8795 0.51586 1.8694 1.2077 2.8221l0.68943-0.51326c-0.65539-0.84236-1.0682-1.7951-1.1396-2.8949 0.03402 0.07326 0.07099 0.1465 0.13954 0.21976 0.24213 0 0.37875-0.54989 0.6554-0.51327 0.03403-0.07326 0.1055-0.40338 0.17357-0.65975h2.5895l0.93156-0.21975v-0.51326l-0.68943-0.07326v-0.58651h-0.17357v-0.65975h-0.41327v0.62313l-1.0711-0.07326v-0.40338h-0.41327v0.36624l-1.1051-0.10936v-0.54988h-0.4157v0.51325l-1.6239-0.10936v-0.18209h0.0013z" stroke="#000" stroke-linecap="round" fill="none"/>
 <path id="path3672" d="m27.025 14.704c-0.10551 1.2091-0.93447 0.69586-1.832 1.3556-0.24213-0.0361-0.51828-0.0361-0.89752-0.0361-0.06855-0.80626 0.20809-0.95275 0.34472-1.0992 0.5528-0.44001 0.93447-0.21975 0.93447-0.21975 0.41375-0.07424 0.7925 0.0361 1.4503-0.000582zm2.0712-1.9793h-1.2077v-0.32962h-0.65539v0.18261c-0.07098 0.0361-0.13954 0.11038-0.20809 0.1465h-0.06855c-1.1426-0.95275-1.2106 0.98989-1.9715 0.54989-0.06855-0.40339-0.03405-0.77015-0.03405-1.2463 1.3132-0.03717 0.82897-0.40338 0.45022-0.8795-0.13662-0.18364-0.20809-0.47664-0.24212-0.65976-0.31068-1.2091-1.5899-1.9421-3.453-1.1725-1.2106 0.47612-0.89752 2.199-0.79493 3.3715-0.06855 0.10935-0.20809 0.07326-0.31068 0.07326-1.3132 0.07327-1.9001 1.5382-2.1767 2.7113 0.06855 1.0631-0.06855 2.2356-0.24212 3.2611-0.17357 1.026-0.51828 1.8323-0.5528 2.8216-0.06855 0.8795 0.24213 1.9055 0.17357 2.7118-0.72638 2.2723-1.2452 3.7744-1.6239 6.1932-0.27616 0.54937-1.2422 1.7219-1.6239 1.9788-0.10259 0.18261 0.06855 0.58651-0.10259 0.84237-0.31068 0.47612-0.79493 0.733-1.0711 1.2463 0.06855 0.10935-0.4157 0.21975-0.37875 0.40338 0.03404 0.18261 0.27616 0.65873 0.37875 0.76912 0.03404 0.07327 0.37875-0.11038 0.37875 0 0.13954 0.43898 0.45022 1.3556 0.79493 1.5754 1.5213 0.18261 1.5213 0.18261 2.1422 0 0.34472-1.0631-1.1737-0.58651-1.0371-2.0159 2.0741-0.43898 2.729-1.0626 3.558-3.371 0.37875-1.6858 0.89752-3.3344 1.692-4.9469 0.13662-0.10936 0.10259-0.40287 0.34471-0.51326 0.93155 1.6486 2.6264 2.8221 3.453 4.5445 0.20809 2.2351 0.62379 3.4443 1.3473 3.8476 0.17357 0.07326 0 0.76912 0.13954 0.91561 0 0.21975 0.06855 0.47612-0.03405 0.733-0.07098 0.18364-0.03403 0.40338-0.03403 0.58651v0.21975c0.03403 0.33116 0.10259 0.33116 0.41327 0.58651 0.89752 0.62261 2.1082 1.6125 3.3159 0.8795 0.55281-0.95378-0.62087-2.1619-1.4498-2.785-0.27616-0.21975-0.76041-0.76912-0.69235-1.1359 0.45022-0.47664 0.76041-2.5653 0.58684-4.1778-0.06855-0.36572-0.13662-0.733-0.27616-1.026-0.41327-0.84236-1.3448-2.0154-2.1393-2.8577 0.10259-0.10936 0.24213-0.25689 0.41327-0.33014 0-0.80574-0.31068-1.0626-0.72346-1.6486-0.34763-0.58651-1.1396-1.7219-1.7294-2.0886 0 0 0-0.03717-0.58684-0.03717-0.03404-0.40286 0.07098-0.733 0.17357-1.1725 0-0.32962 0.24213-0.14599 0.31068-0.8795 0.17357-0.62262 0.10259-0.25637 0.24213-0.87899 0.13662-0.293 0.20809-0.58651 0.20809-1.0631 0.51586 0.18365 1.5524 0.1465 2.0026 0l0.10259 0.07327c0.13954 0.03717 0.17358-0.18261 0.27616-0.21923 0.79493-0.44053 1.0711-1.2096 1.7265-1.2829 0 0 0.34763-0.18364 0.863 0 0.20809 0 0.38167 0.0361 0.38167-0.18364 0.03404-0.32961 0.03404-0.58547 0.20809-0.80625 0.13662 0.8795 0.51586 1.8694 1.2077 2.8221l0.69-0.512c-0.65539-0.84236-1.0682-1.7951-1.1396-2.8949 0.03402 0.07326 0.07099 0.1465 0.13954 0.21976 0.24213 0 0.37875-0.54989 0.6554-0.51327 0.03403-0.07326 0.1055-0.40338 0.17357-0.65975h2.5895l0.932-0.22v-0.51326l-0.68943-0.07326v-0.58651h-0.17357v-0.65975h-0.41327v0.62313l-1.0711-0.07326v-0.40338h-0.41327v0.36624l-1.1051-0.10936v-0.54988h-0.4157v0.51325l-1.6239-0.10936v-0.18209h0.0013z" fill-rule="evenodd" fill="#c9c9c9"/>
 <path id="text4420" opacity=".15" style="color-rendering:auto;text-decoration-color:#000000;color:#000000;isolation:auto;mix-blend-mode:normal;shape-rendering:auto;solid-color:#000000;block-progression:tb;text-decoration-line:none;text-decoration-style:solid;image-rendering:auto;white-space:normal;text-indent:0;text-transform:none" d="m32.098 19.981c-1.1356 0-2.1789 0.33918-2.9387 1.0746-0.76038 0.736-1.1406 1.8041-1.1406 2.9452 0 1.1293 0.37186 2.189 1.1157 2.9292a0.98158 1.019 0 0 0 0.0019 0.002c0.74457 0.73747 1.7728 1.0865 2.8831 1.0865 0.47984 0 0.9504-0.0537 1.409-0.16119 0.459-0.10759 0.90548-0.26915 1.3304-0.48356a0.98158 1.019 0 0 0 0.49841 -0.58505c0.03298 0.03788 0.04191 0.0929 0.07668 0.12935a0.98158 1.019 0 0 0 0 0.002c0.71202 0.74274 1.7199 1.0985 2.8007 1.0985 1.0827 0 2.092-0.35558 2.8026-1.1005 0.70972-0.74398 1.0447-1.7911 1.0447-2.9173 0-1.1282-0.33446-2.1747-1.0447-2.9193-0.71058-0.74487-1.7199-1.1005-2.8026-1.1005-1.0808 0-2.0887 0.35572-2.8007 1.0985a0.98158 1.019 0 0 0 0 0.002c-0.10261 0.10756-0.14105 0.26053-0.22812 0.38009v-0.03184a0.98158 1.019 0 0 0 -0.575 -0.926c-0.37-0.175-0.763-0.306-1.171-0.392h-0.0019c-0.40708-0.08686-0.82796-0.12935-1.2594-0.12935zm6.0365 3.1183c0.20001 0 0.16561-0.0041 0.23578 0.09353 0.07106 0.09885 0.16678 0.33809 0.16678 0.80793 0 0.46666-0.095 0.70608-0.16678 0.80594-0.07018 0.09763-0.03578 0.09353-0.23578 0.09353-0.19616 0-0.16081 0.0054-0.23195-0.09353-0.07178-0.09986-0.16678-0.33928-0.16678-0.80594 0-0.46984 0.09572-0.70908 0.16678-0.80793 0.07114-0.09898 0.03579-0.09353 0.23195-0.09353z"/>
 <path id="text4424" opacity=".3" style="color-rendering:auto;text-decoration-color:#000000;color:#000000;isolation:auto;mix-blend-mode:normal;shape-rendering:auto;solid-color:#000000;block-progression:tb;text-decoration-line:none;text-decoration-style:solid;image-rendering:auto;white-space:normal;text-indent:0;text-transform:none" d="m32.098 20.491c-1.0479 0-1.9472 0.3043-2.6032 0.93927-0.65631 0.63527-0.98532 1.5344-0.98532 2.571 0 1.0256 0.32118 1.9211 0.96423 2.5611a0.49079 0.50948 0 0 0 0.0019 0c0.64343 0.6373 1.5247 0.94723 2.5438 0.94723 0.44515 0 0.87955-0.04832 1.3016-0.14726 0.42229-0.09899 0.83147-0.24817 1.223-0.44575a0.49079 0.50948 0 0 0 0.27604 -0.4577v-2.189c0.05041 0.90865 0.30942 1.7126 0.86072 2.2905a0.49079 0.50948 0 0 0 0.0019 0.002c0.61098 0.63735 1.4649 0.94723 2.4518 0.94723 0.98913 0 1.8447-0.3108 2.4537-0.94922 0.60859-0.63797 0.90289-1.5286 0.90289-2.5591 0-1.0328-0.29402-1.9228-0.90289-2.5611-0.60902-0.63841-1.4646-0.94922-2.4537-0.94922-0.9869 0-1.8408 0.30988-2.4518 0.94723a0.49079 0.50948 0 0 0 -0.0019 0.002c-0.55163 0.57826-0.81041 1.3817-0.86072 2.2924v-0.05572a0.49079 0.50948 0 0 0 -0.49074 -0.50943h-2.239a0.49079 0.50948 0 0 0 -0.49074 0.50943v0.99897a0.49079 0.50948 0 0 0 0.49074 0.50943h0.38531v0.20696c-0.08394 0.009-0.16887 0.01791-0.27029 0.01791-0.45427 0-0.71629-0.11937-0.91247-0.3383-0.19643-0.2192-0.3163-0.54458-0.3163-1.0706 0-0.52907 0.12171-0.8499 0.32397-1.0666 0.20627-0.22098 0.49151-0.34427 0.9719-0.34427 0.26229 0 0.52365 0.03737 0.78787 0.11542 0.26646 0.07808 0.54 0.1988 0.82046 0.36416a0.49079 0.50948 0 0 0 0.735 -0.443v-1.196a0.49079 0.50948 0 0 0 -0.28754 -0.46366c-0.33595-0.15852-0.69296-0.27669-1.0677-0.3562-0.37298-0.07972-0.76029-0.1194-1.1617-0.1194zm0 1.0189c0.33991 0 0.66059 0.03261 0.96423 0.09751 0.20412 0.04331 0.38558 0.12091 0.57125 0.19104v0.06368c-0.10235-0.03897-0.2017-0.10511-0.3048-0.13532-0.34772-0.10272-0.70161-0.15522-1.0562-0.15522-0.66389 0-1.2617 0.20944-1.6773 0.6547-0.41466 0.44434-0.60001 1.0698-0.60001 1.7751 0 0.69799 0.17833 1.3181 0.57892 1.7651 0.40083 0.44731 0.9861 0.66266 1.6313 0.66266 0.16834 0 0.3286-0.0101 0.48116-0.03184a0.49079 0.50948 0 0 0 0.0077 -0.002c0.15879-0.02536 0.30884-0.06401 0.45048-0.12139a0.49079 0.50948 0 0 0 0.31246 -0.47361v-1.1243a0.49079 0.50948 0 0 0 -0.35272 -0.48953h0.73419v1.9144c-0.24038 0.1026-0.48075 0.20725-0.73419 0.26666-0.34908 0.08183-0.70925 0.12338-1.085 0.12338-0.83587 0-1.4242-0.22849-1.8652-0.66465-0.44153-0.43942-0.66327-1.0066-0.66327-1.8248 0-0.82779 0.22468-1.393 0.67285-1.8268 0.44848-0.43411 1.0617-0.66465 1.9342-0.66465zm6.0365 0c0.80192 0 1.35 0.22124 1.7559 0.64674 0.40605 0.42565 0.61918 1.0028 0.61918 1.8447 0 0.8391-0.21285 1.4168-0.61918 1.8427-0.40591 0.4255-0.95402 0.64674-1.7559 0.64674-0.79917 0-1.347-0.22217-1.7559-0.64873-0.40557-0.42582-0.61918-1.0024-0.61918-1.8407 0-0.84195 0.21312-1.4191 0.61918-1.8447 0.40892-0.42656 0.95676-0.64674 1.7559-0.64674zm0 0.06169c-0.55864 0-1.0845 0.25437-1.4109 0.70843-0.32641 0.45412-0.46007 1.0421-0.46007 1.7213 0 0.67694 0.13402 1.2657 0.46007 1.7193 0.32637 0.45406 0.85224 0.70843 1.4109 0.70843 0.56044 0 1.0898-0.2537 1.4166-0.70843 0.32605-0.45362 0.45815-1.0424 0.45815-1.7193 0-0.67922-0.13174-1.2672-0.45815-1.7213-0.32685-0.45473-0.85619-0.70843-1.4166-0.70843zm0 1.0189c0.32015 0 0.47303 0.08183 0.62876 0.2985 0.15617 0.21728 0.26454 0.57276 0.26454 1.1124 0 0.53675-0.10801 0.89263-0.26454 1.1104-0.15574 0.21667-0.30861 0.2985-0.62876 0.2985-0.31698 0-0.46871-0.08116-0.62493-0.2985-0.15654-0.21778-0.26454-0.57366-0.26454-1.1104 0-0.53963 0.10837-0.89512 0.26454-1.1124 0.15622-0.21734 0.30794-0.2985 0.62493-0.2985z"/>
 <g id="text4416" fill="#c9c9c9" transform="scale(.98148 1.0189)">
  <path id="path4401" d="m34.976 25.968q-0.54745 0.26612-1.1367 0.39918-0.58927 0.13306-1.2166 0.13306-1.418 0-2.2468-0.79076-0.82878-0.79456-0.82878-2.1518 0-1.3724 0.84399-2.1594 0.84399-0.78696 2.3115-0.78696 0.56646 0 1.0835 0.10645 0.52084 0.10645 0.98085 0.31554v1.1747q-0.47522-0.26992-0.94663-0.40298-0.46761-0.13306-0.93903-0.13306-0.8744 0-1.3496 0.49042-0.47142 0.48662-0.47142 1.3952 0 0.90101 0.45621 1.3914 0.45621 0.49042 1.2964 0.49042 0.2281 0 0.42199-0.02661 0.19769-0.03041 0.35356-0.09124v-1.1025h-0.89341v-0.98085h2.281v2.7296z"/>
  <path id="path4403" d="m38.854 21.672q-0.66911 0-1.0379 0.49423-0.36877 0.49423-0.36877 1.3914 0 0.89341 0.36877 1.3876 0.36877 0.49423 1.0379 0.49423 0.67291 0 1.0417-0.49423 0.36877-0.49423 0.36877-1.3876 0-0.89721-0.36877-1.3914-0.36877-0.49423-1.0417-0.49423zm0-1.0607q1.3686 0 2.1442 0.78316 0.77556 0.78316 0.77556 2.1632 0 1.3762-0.77556 2.1594-0.77556 0.78316-2.1442 0.78316-1.3648 0-2.1442-0.78316-0.77556-0.78316-0.77556-2.1594 0-1.38 0.77556-2.1632 0.77936-0.78316 2.1442-0.78316z"/>
 </g>
</svg>
