<?xml version="1.0" encoding="UTF-8" standalone="no"?>
<!-- Created with Inkscape (http://www.inkscape.org/) -->

<svg
   xmlns:dc="http://purl.org/dc/elements/1.1/"
   xmlns:cc="http://creativecommons.org/ns#"
   xmlns:rdf="http://www.w3.org/1999/02/22-rdf-syntax-ns#"
   xmlns:svg="http://www.w3.org/2000/svg"
   xmlns="http://www.w3.org/2000/svg"
   xmlns:xlink="http://www.w3.org/1999/xlink"
   xmlns:sodipodi="http://sodipodi.sourceforge.net/DTD/sodipodi-0.dtd"
   xmlns:inkscape="http://www.inkscape.org/namespaces/inkscape"
   version="1.1"
   width="48"
   height="48"
   id="svg4117"
   inkscape:version="0.91 r"
   sodipodi:docname="dassault-systemes.draftsight.svg">
  <sodipodi:namedview
     pagecolor="#ffffff"
     bordercolor="#666666"
     borderopacity="1"
     objecttolerance="10"
     gridtolerance="10"
     guidetolerance="10"
     inkscape:pageopacity="0"
     inkscape:pageshadow="2"
     inkscape:window-width="1600"
     inkscape:window-height="841"
     id="namedview93"
     showgrid="false"
     inkscape:zoom="1"
     inkscape:cx="20.926983"
     inkscape:cy="24.005127"
     inkscape:window-x="-4"
     inkscape:window-y="33"
     inkscape:window-maximized="1"
     inkscape:current-layer="svg4117" />
  <defs
     id="defs4119">
    <linearGradient
       id="linearGradient4019">
      <stop
         id="stop4021"
         style="stop-color:#000000;stop-opacity:1"
         offset="0" />
      <stop
         id="stop4023"
         style="stop-color:#000000;stop-opacity:0"
         offset="1" />
    </linearGradient>
    <linearGradient
       id="linearGradient3924">
      <stop
         id="stop3926"
         style="stop-color:#ffffff;stop-opacity:1"
         offset="0" />
      <stop
         id="stop3928"
         style="stop-color:#ffffff;stop-opacity:0.23529412"
         offset="0.06316455" />
      <stop
         id="stop3930"
         style="stop-color:#ffffff;stop-opacity:0.15686275"
         offset="0.95056331" />
      <stop
         id="stop3932"
         style="stop-color:#ffffff;stop-opacity:0.39215687"
         offset="1" />
    </linearGradient>
    <radialGradient
       cx="4.9929786"
       cy="43.5"
       r="2.5"
       fx="4.9929786"
       fy="43.5"
       id="radialGradient2873-966-168"
       xlink:href="#linearGradient3688-166-749"
       gradientUnits="userSpaceOnUse"
       gradientTransform="matrix(2.003784,0,0,1.4,27.98813,-17.4)" />
    <linearGradient
       id="linearGradient3688-166-749">
      <stop
         id="stop2883"
         style="stop-color:#181818;stop-opacity:1"
         offset="0" />
      <stop
         id="stop2885"
         style="stop-color:#181818;stop-opacity:0"
         offset="1" />
    </linearGradient>
    <radialGradient
       cx="4.9929786"
       cy="43.5"
       r="2.5"
       fx="4.9929786"
       fy="43.5"
       id="radialGradient2875-742-326"
       xlink:href="#linearGradient3688-464-309"
       gradientUnits="userSpaceOnUse"
       gradientTransform="matrix(2.003784,0,0,1.4,-20.01187,-104.4)" />
    <linearGradient
       id="linearGradient3688-464-309">
      <stop
         id="stop2889"
         style="stop-color:#181818;stop-opacity:1"
         offset="0" />
      <stop
         id="stop2891"
         style="stop-color:#181818;stop-opacity:0"
         offset="1" />
    </linearGradient>
    <linearGradient
       x1="25.058096"
       y1="47.027729"
       x2="25.058096"
       y2="39.999443"
       id="linearGradient2877-634-617"
       xlink:href="#linearGradient3702-501-757"
       gradientUnits="userSpaceOnUse" />
    <linearGradient
       id="linearGradient3702-501-757">
      <stop
         id="stop2895"
         style="stop-color:#181818;stop-opacity:0"
         offset="0" />
      <stop
         id="stop2897"
         style="stop-color:#181818;stop-opacity:1"
         offset="0.5" />
      <stop
         id="stop2899"
         style="stop-color:#181818;stop-opacity:0"
         offset="1" />
    </linearGradient>
    <filter
       color-interpolation-filters="sRGB"
       id="filter3831">
      <feGaussianBlur
         id="feGaussianBlur3833"
         stdDeviation="0.6375" />
    </filter>
    <clipPath
       id="clipPath3823">
      <path
         d="M 108.8125,58 C 107.25437,58 106,59.254375 106,60.8125 l 0,24.375 C 106,86.745625 107.25437,88 108.8125,88 l 24.375,0 C 134.74562,88 136,86.745625 136,85.1875 l 0,-24.375 C 136,59.254375 134.74562,58 133.1875,58 l -24.375,0 z m 7.1875,4.5 10,0 0,8.75 5,0 -10,13.75 -10,-13.75 5,0 0,-8.75 z"
         inkscape:connector-curvature="0"
         id="path3825"
         style="fill:#ffffff;fill-opacity:1;stroke:none" />
    </clipPath>
    <linearGradient
       x1="65.262688"
       y1="64.205269"
       x2="65.262688"
       y2="50.068527"
       id="linearGradient3812"
       xlink:href="#linearGradient5010"
       gradientUnits="userSpaceOnUse"
       gradientTransform="matrix(0.625,0,0,0.625,78.5,32.25)" />
    <filter
       color-interpolation-filters="sRGB"
       id="filter3806">
      <feGaussianBlur
         id="feGaussianBlur3808"
         stdDeviation="1.2" />
    </filter>
    <linearGradient
       x1="70"
       y1="54"
       x2="70"
       y2="75.095024"
       id="linearGradient3788"
       xlink:href="#linearGradient3737"
       gradientUnits="userSpaceOnUse"
       gradientTransform="translate(0,4)" />
    <linearGradient
       x1="56"
       y1="72"
       x2="88"
       y2="72"
       id="linearGradient3773"
       xlink:href="#linearGradient3778"
       gradientUnits="userSpaceOnUse"
       gradientTransform="matrix(0.9375,0,0,0.9375,-140.5,3.5)" />
    <linearGradient
       x1="65.262688"
       y1="64.205269"
       x2="65.262688"
       y2="50.068527"
       id="linearGradient3832"
       xlink:href="#linearGradient3737"
       gradientUnits="userSpaceOnUse"
       gradientTransform="matrix(0.625,0,0,0.625,28.5,31.25)" />
    <filter
       color-interpolation-filters="sRGB"
       id="filter3174">
      <feGaussianBlur
         id="feGaussianBlur3176"
         stdDeviation="1.71" />
    </filter>
    <linearGradient
       id="linearGradient3737">
      <stop
         id="stop3739"
         style="stop-color:#ffffff;stop-opacity:1"
         offset="0" />
      <stop
         id="stop3741"
         style="stop-color:#ffffff;stop-opacity:0"
         offset="1" />
    </linearGradient>
    <linearGradient
       x1="45.447727"
       y1="92.539597"
       x2="45.447727"
       y2="7.0165396"
       id="ButtonShadow"
       gradientUnits="userSpaceOnUse"
       gradientTransform="scale(1.0058652,0.994169)">
      <stop
         id="stop3750"
         style="stop-color:#000000;stop-opacity:1"
         offset="0" />
      <stop
         id="stop3752"
         style="stop-color:#000000;stop-opacity:0.58823532"
         offset="1" />
    </linearGradient>
    <linearGradient
       id="linearGradient5010">
      <stop
         id="stop5012"
         style="stop-color:#000000;stop-opacity:1"
         offset="0" />
      <stop
         id="stop5014"
         style="stop-color:#000000;stop-opacity:0"
         offset="1" />
    </linearGradient>
    <linearGradient
       id="linearGradient3778">
      <stop
         id="stop3780"
         style="stop-color:#499119;stop-opacity:1"
         offset="0" />
      <stop
         id="stop3782"
         style="stop-color:#8fd625;stop-opacity:1"
         offset="1" />
    </linearGradient>
    <linearGradient
       id="linearGradient3104">
      <stop
         id="stop3106"
         style="stop-color:#aaaaaa;stop-opacity:1"
         offset="0" />
      <stop
         id="stop3108"
         style="stop-color:#c8c8c8;stop-opacity:1"
         offset="1" />
    </linearGradient>
    <linearGradient
       id="linearGradient3600">
      <stop
         id="stop3602"
         style="stop-color:#f4f4f4;stop-opacity:1"
         offset="0" />
      <stop
         id="stop3604"
         style="stop-color:#dbdbdb;stop-opacity:1"
         offset="1" />
    </linearGradient>
    <linearGradient
       id="linearGradient3104-5">
      <stop
         id="stop3106-9"
         style="stop-color:#aaaaaa;stop-opacity:1"
         offset="0" />
      <stop
         id="stop3108-8"
         style="stop-color:#c8c8c8;stop-opacity:1"
         offset="1" />
    </linearGradient>
    <linearGradient
       x1="23.99999"
       y1="4.999989"
       x2="23.99999"
       y2="43"
       id="linearGradient3084"
       xlink:href="#linearGradient3924"
       gradientUnits="userSpaceOnUse"
       gradientTransform="translate(2.4e-6,0.9674489)" />
    <radialGradient
       cx="7.4956832"
       cy="8.4497671"
       r="19.99999"
       fx="7.4956832"
       fy="8.4497671"
       id="radialGradient3093"
       xlink:href="#linearGradient3600"
       gradientUnits="userSpaceOnUse"
       gradientTransform="matrix(0,1.9392804,-2.0515274,-5.2784231e-8,41.335037,-8.4862548)" />
    <linearGradient
       x1="24"
       y1="44"
       x2="24"
       y2="3.8990016"
       id="linearGradient3095"
       xlink:href="#linearGradient3104"
       gradientUnits="userSpaceOnUse"
       gradientTransform="translate(-6e-7,0.9674389)" />
    <linearGradient
       x1="20"
       y1="43"
       x2="20"
       y2="3"
       id="linearGradient3098"
       xlink:href="#linearGradient3104-5"
       gradientUnits="userSpaceOnUse" />
    <linearGradient
       x1="25.811359"
       y1="11.243645"
       x2="25.811359"
       y2="20.3125"
       id="linearGradient4037"
       xlink:href="#linearGradient4019"
       gradientUnits="userSpaceOnUse" />
    <linearGradient
       x1="15.666173"
       y1="19.527954"
       x2="15.666173"
       y2="31.61681"
       id="linearGradient4041"
       xlink:href="#linearGradient4019"
       gradientUnits="userSpaceOnUse" />
    <linearGradient
       x1="25.065281"
       y1="30.795345"
       x2="25.065281"
       y2="39.562374"
       id="linearGradient4044"
       xlink:href="#linearGradient4019"
       gradientUnits="userSpaceOnUse" />
  </defs>
  <metadata
     id="metadata4122">
    <rdf:RDF>
      <cc:Work
         rdf:about="">
        <dc:format>image/svg+xml</dc:format>
        <dc:type
           rdf:resource="http://purl.org/dc/dcmitype/StillImage" />
        <dc:title></dc:title>
      </cc:Work>
    </rdf:RDF>
  </metadata>
  <g
     transform="translate(-135.85714,-31.05041)"
     id="layer2"
     style="display:none">
    <path
       d="M 11,7 48,5 85,7 c 3.324,0 6,2.676 6,6 l 0,73 c 0,3.324 -2.676,6 -6,6 L 11,92 C 7.676,92 5,89.324 5,86 L 5,13 C 5,9.676 7.676,7 11,7 z"
       inkscape:connector-curvature="0"
       id="rect3745"
       style="opacity:0.9;fill:url(#ButtonShadow);fill-opacity:1;fill-rule:nonzero;stroke:none;filter:url(#filter3174)" />
  </g>
  <g
     transform="translate(-135.85714,-31.05041)"
     id="layer4"
     style="display:none">
    <rect
       width="30"
       height="30"
       rx="2.8125"
       ry="2.8125"
       x="-86"
       y="56"
       transform="matrix(0,-1,1,0,0,4)"
       id="rect3790"
       style="opacity:0.6;fill:#000000;fill-opacity:1;stroke:none;filter:url(#filter3806)" />
    <rect
       width="30"
       height="30"
       rx="2.8125"
       ry="2.8125"
       x="-88"
       y="56"
       transform="matrix(0,-1,1,0,0,0)"
       id="rect2993"
       style="fill:url(#linearGradient3773);fill-opacity:1;stroke:none" />
    <path
       d="M 58.8125,58 C 57.254375,58 56,59.254375 56,60.8125 l 0,24.375 c 0,0.873066 0.410816,1.641163 1.03125,2.15625 C 57.02841,87.289908 57,87.242129 57,87.1875 l 0,-24.375 C 57,61.254375 58.17075,60 59.625,60 l 22.75,0 C 83.82925,60 85,61.254375 85,62.8125 l 0,24.375 c 0,0.05463 -0.02841,0.102408 -0.03125,0.15625 C 85.589184,86.828663 86,86.060566 86,85.1875 l 0,-24.375 C 86,59.254375 84.745625,58 83.1875,58 l -24.375,0 z"
       inkscape:connector-curvature="0"
       id="rect3775"
       style="opacity:0.5;fill:url(#linearGradient3788);fill-opacity:1;stroke:none" />
    <path
       d="m 116,63.5 0,8.75 -5,0 10,13.75 10,-13.75 -5,0 0,-8.75 -10,0 z"
       inkscape:connector-curvature="0"
       transform="translate(-50,0)"
       clip-path="url(#clipPath3823)"
       id="path3810"
       style="opacity:0.6;fill:url(#linearGradient3812);fill-opacity:1;fill-rule:nonzero;stroke:none;display:inline;filter:url(#filter3831)" />
    <path
       d="m 66,62.5 0,8.75 -5,0 10,13.75 10,-13.75 -5,0 0,-8.75 -10,0 z"
       inkscape:connector-curvature="0"
       id="path4278"
       style="fill:url(#linearGradient3832);fill-opacity:1;fill-rule:nonzero;stroke:none;display:inline" />
  </g>
  <g
     transform="matrix(1.1,0,0,0.4444449,-2.4000022,25.11107)"
     id="g2036"
     style="display:inline">
    <g
       transform="matrix(1.052632,0,0,1.285713,-1.263158,-13.42854)"
       id="g3712"
       style="opacity:0.4">
      <rect
         width="5"
         height="7"
         x="38"
         y="40"
         id="rect2801"
         style="fill:url(#radialGradient2873-966-168);fill-opacity:1;stroke:none" />
      <rect
         width="5"
         height="7"
         x="-10"
         y="-47"
         transform="scale(-1,-1)"
         id="rect3696"
         style="fill:url(#radialGradient2875-742-326);fill-opacity:1;stroke:none" />
      <rect
         width="28"
         height="7.0000005"
         x="10"
         y="40"
         id="rect3700"
         style="fill:url(#linearGradient2877-634-617);fill-opacity:1;stroke:none" />
    </g>
  </g>
  <rect
     width="39"
     height="39"
     rx="2"
     ry="2"
     x="4.5"
     y="5.4674392"
     id="rect5505-21"
     style="color:#000000;display:inline;overflow:visible;visibility:visible;fill:url(#radialGradient3093);fill-opacity:1;fill-rule:nonzero;stroke:url(#linearGradient3095);stroke-width:1;stroke-linecap:round;stroke-linejoin:round;stroke-miterlimit:4;stroke-dasharray:none;stroke-dashoffset:0;stroke-opacity:1;marker:none;enable-background:accumulate" />
  <rect
     width="37"
     height="37"
     rx="1"
     ry="1"
     x="5.5"
     y="6.4674392"
     id="rect6741-2"
     style="fill:none;stroke:url(#linearGradient3084);stroke-width:1;stroke-linecap:round;stroke-linejoin:round;stroke-miterlimit:4;stroke-dasharray:none;stroke-dashoffset:0;stroke-opacity:1" />
  <path
     style="color:#000000;font-style:normal;font-variant:normal;font-weight:normal;font-stretch:normal;font-size:medium;line-height:normal;font-family:sans-serif;text-indent:0;text-align:start;text-decoration:none;text-decoration-line:none;text-decoration-style:solid;text-decoration-color:#000000;letter-spacing:normal;word-spacing:normal;text-transform:none;direction:ltr;block-progression:tb;writing-mode:lr-tb;baseline-shift:baseline;text-anchor:start;white-space:normal;clip-rule:nonzero;display:inline;overflow:visible;visibility:visible;opacity:1;isolation:auto;mix-blend-mode:normal;color-interpolation:sRGB;color-interpolation-filters:linearRGB;solid-color:#000000;solid-opacity:1;fill:#94ca4d;fill-opacity:1;fill-rule:nonzero;stroke:none;stroke-width:3.9997685;stroke-linecap:round;stroke-linejoin:round;stroke-miterlimit:4;stroke-dasharray:none;stroke-dashoffset:0;stroke-opacity:1;color-rendering:auto;image-rendering:auto;shape-rendering:auto;text-rendering:auto;enable-background:accumulate"
     d="m 10.030655,14.444142 c -0.5049735,0.143796 -3.8637047,1.035275 -3.8637047,1.035275 l 3.1058285,11.59111 3.1058292,11.591111 3.863703,-1.035276 c 6.378712,-1.709172 10.194452,-8.318227 8.485281,-14.69694 -1.70917,-6.37871 -8.345773,-10.294129 -14.696938,-8.48528 z m 1.035276,3.863702 c 4.290732,-1.149697 8.64826,1.366122 9.797959,5.656854 1.149698,4.290733 -1.366121,8.648262 -5.656855,9.797959 l -2.070553,-7.727405 z"
     id="path4364"
     inkscape:connector-curvature="0"
     sodipodi:nodetypes="scccssssssss" />
  <path
     style="opacity:1;fill:#90b8bd;fill-opacity:1;stroke:none;stroke-width:4;stroke-linecap:round;stroke-linejoin:round;stroke-miterlimit:4;stroke-dasharray:none;stroke-opacity:1"
     d="M 31.37889,10.337891 25.166,33.521484 40.621078,37.662109 31.37889,10.337891 Z M 31.929672,23 c 0.389763,0 0.799381,0.04192 1.228515,0.126953 0.429134,0.08503 0.894501,0.218985 1.398438,0.400391 l 0,2.3125 c -0.452756,-0.272109 -0.889287,-0.475274 -1.310547,-0.611328 -0.42126,-0.136055 -0.819344,-0.205079 -1.19336,-0.205078 -0.401574,0 -0.699634,0.07331 -0.896484,0.220703 -0.192913,0.141723 -0.291016,0.363609 -0.291016,0.664062 0,0.243764 0.07308,0.430162 0.21875,0.560547 0.149607,0.130386 0.416939,0.226704 0.798828,0.289062 l 0.371094,0.07813 c 1.082677,0.198412 1.811531,0.523047 2.185547,0.976562 0.374016,0.453515 0.560547,1.165378 0.560547,2.134766 0,1.014739 -0.259612,1.776905 -0.779297,2.287109 C 33.701002,32.744579 32.926011,33 31.894515,33 31.457507,33 31.003644,32.9497 30.53514,32.847656 30.070573,32.751286 29.591719,32.60271 29.099593,32.404297 l 0,-2.3125 c 0.42126,0.294784 0.853977,0.51667 1.294922,0.664062 0.444882,0.147393 0.89487,0.220704 1.351563,0.220703 0.413386,0 0.724932,-0.08169 0.933594,-0.246093 0.208661,-0.164399 0.3125,-0.409293 0.3125,-0.732422 0,-0.272109 -0.07308,-0.47313 -0.21875,-0.603516 -0.141733,-0.136054 -0.426335,-0.240757 -0.855469,-0.314453 l -0.373047,-0.06836 c -0.940945,-0.170068 -1.600563,-0.484176 -1.978516,-0.94336 -0.377953,-0.459183 -0.566406,-1.156422 -0.566406,-2.091797 0,-1.00907 0.240388,-1.758565 0.720703,-2.246093 C 30.201002,23.24294 30.937545,23 31.929672,23 Z"
     id="rect4368"
     inkscape:connector-curvature="0" />
  <g
     style="font-style:normal;font-variant:normal;font-weight:bold;font-stretch:normal;font-size:40px;line-height:125%;font-family:sans-serif;-inkscape-font-specification:'sans-serif Bold';letter-spacing:0px;word-spacing:0px;fill:#ff0000;fill-opacity:1;stroke:none;stroke-width:1px;stroke-linecap:butt;stroke-linejoin:miter;stroke-opacity:1"
     id="text4371"
     transform="matrix(0.30236221,0,0,0.43537415,30.798828,28.518918)" />
  <path
     style="color:#000000;font-style:normal;font-variant:normal;font-weight:normal;font-stretch:normal;font-size:medium;line-height:normal;font-family:sans-serif;text-indent:0;text-align:start;text-decoration:none;text-decoration-line:none;text-decoration-style:solid;text-decoration-color:#000000;letter-spacing:normal;word-spacing:normal;text-transform:none;direction:ltr;block-progression:tb;writing-mode:lr-tb;baseline-shift:baseline;text-anchor:start;white-space:normal;clip-rule:nonzero;display:inline;overflow:visible;visibility:visible;opacity:0.15;isolation:auto;mix-blend-mode:normal;color-interpolation:sRGB;color-interpolation-filters:linearRGB;solid-color:#000000;solid-opacity:1;fill:#000000;fill-opacity:1;fill-rule:nonzero;stroke:none;stroke-width:3.9997685;stroke-linecap:round;stroke-linejoin:round;stroke-miterlimit:4;stroke-dasharray:none;stroke-dashoffset:0;stroke-opacity:1;color-rendering:auto;image-rendering:auto;shape-rendering:auto;text-rendering:auto;enable-background:accumulate"
     d="M 13.599609 14.009766 C 12.423058 13.967933 11.222093 14.1042 10.03125 14.443359 C 9.5262765 14.587155 6.1660156 15.478516 6.1660156 15.478516 L 9.2734375 27.070312 L 12.378906 38.662109 L 16.242188 37.626953 C 22.6209 35.917781 26.437687 29.308401 24.728516 22.929688 C 23.339815 17.746986 18.697998 14.191041 13.599609 14.009766 z M 13.568359 15.009766 C 13.927188 15.022647 14.283871 15.052857 14.636719 15.101562 C 18.87089 15.686029 22.585605 18.798183 23.761719 23.1875 C 25.329893 29.040006 21.83688 35.091981 15.984375 36.660156 L 13.085938 37.4375 L 10.238281 26.8125 L 7.390625 16.185547 C 8.3447628 15.932142 9.8682655 15.530525 10.304688 15.40625 C 11.393884 15.09604 12.491873 14.971122 13.568359 15.009766 z M 13.5 17.039062 C 12.614628 17.004165 11.70786 17.100313 10.806641 17.341797 A 1.0001 1.0001 0 0 0 10.099609 18.566406 L 12.169922 26.294922 L 14.240234 34.021484 A 1.0001 1.0001 0 0 0 15.466797 34.728516 C 20.273305 33.440618 23.117977 28.511585 21.830078 23.705078 C 20.864153 20.100199 17.851152 17.599415 14.376953 17.117188 C 14.087437 17.077002 13.795124 17.050695 13.5 17.039062 z M 13.464844 18.035156 C 16.877878 18.16386 19.929151 20.478624 20.863281 23.964844 C 22.012979 28.255577 19.497765 32.612022 15.207031 33.761719 L 13.136719 26.035156 L 11.066406 18.308594 C 11.870919 18.093026 12.677221 18.005455 13.464844 18.035156 z "
     id="path4379" />
  <path
     style="opacity:0.15;fill:#000000;fill-opacity:1;stroke:none;stroke-width:4;stroke-linecap:round;stroke-linejoin:round;stroke-miterlimit:4;stroke-dasharray:none;stroke-opacity:1"
     d="M 31.378906 10.337891 L 25.166016 33.521484 L 40.621094 37.662109 L 31.378906 10.337891 z M 31.490234 13.789062 L 34.419922 22.451172 C 34.057537 22.336424 33.692892 22.213729 33.353516 22.146484 C 32.866835 22.050048 32.391151 22 31.929688 22 C 30.777624 22 29.737838 22.296692 29.015625 23.025391 L 31.490234 13.789062 z M 31.929688 23 C 32.319451 23 32.729069 23.04192 33.158203 23.126953 C 33.587337 23.211983 34.052704 23.345938 34.556641 23.527344 L 34.556641 25.839844 C 34.103885 25.567735 33.667354 25.36457 33.246094 25.228516 C 32.824834 25.092461 32.42675 25.023436 32.052734 25.023438 C 31.65116 25.023438 31.3531 25.096748 31.15625 25.244141 C 30.963337 25.385864 30.865234 25.60775 30.865234 25.908203 C 30.865234 26.151967 30.938314 26.338365 31.083984 26.46875 C 31.233591 26.599136 31.500924 26.695455 31.882812 26.757812 L 32.253906 26.835938 C 33.336583 27.03435 34.065437 27.358985 34.439453 27.8125 C 34.813469 28.266015 35 28.977878 35 29.947266 C 35 30.962005 34.740388 31.724171 34.220703 32.234375 C 33.701018 32.744575 32.926027 33 31.894531 33 C 31.457523 33 31.00366 32.9497 30.535156 32.847656 C 30.070589 32.751286 29.591735 32.60271 29.099609 32.404297 L 29.099609 30.091797 C 29.520869 30.386581 29.953586 30.608467 30.394531 30.755859 C 30.839413 30.903252 31.289401 30.976564 31.746094 30.976562 C 32.15948 30.976562 32.471026 30.894872 32.679688 30.730469 C 32.888348 30.56607 32.992188 30.321176 32.992188 29.998047 C 32.992188 29.725938 32.919108 29.524917 32.773438 29.394531 C 32.631704 29.258477 32.347103 29.153774 31.917969 29.080078 L 31.544922 29.011719 C 30.603977 28.841651 29.944359 28.527543 29.566406 28.068359 C 29.188453 27.609176 29 26.911938 29 25.976562 C 29 24.967492 29.240388 24.217997 29.720703 23.730469 C 30.201018 23.242941 30.937561 23 31.929688 23 z M 35.556641 25.810547 L 39.074219 36.212891 L 26.392578 32.814453 L 28.068359 26.558594 C 28.137919 27.376939 28.31972 28.125793 28.794922 28.703125 C 28.943219 28.883295 29.160251 28.983897 29.34375 29.123047 A 1.0001 1.0001 0 0 0 28.099609 30.091797 L 28.099609 32.404297 A 1.0001 1.0001 0 0 0 28.726562 33.332031 C 29.263579 33.548543 29.794443 33.714069 30.322266 33.824219 C 30.324266 33.824646 30.326125 33.823793 30.328125 33.824219 C 30.329525 33.824502 30.330631 33.825872 30.332031 33.826172 C 30.861517 33.94077 31.384011 34 31.894531 34 C 33.091109 34 34.166593 33.688763 34.921875 32.947266 C 35.678024 32.204912 36 31.132565 36 29.947266 C 36 28.849597 35.807926 27.899662 35.210938 27.175781 C 35.082805 27.020415 34.886376 26.947085 34.732422 26.824219 A 1.0001 1.0001 0 0 0 35.556641 25.839844 L 35.556641 25.810547 z M 30.664062 29.78125 C 30.704712 29.79321 30.743822 29.807139 30.785156 29.818359 C 30.760376 29.810759 30.735798 29.814861 30.710938 29.806641 L 30.708984 29.806641 C 30.693894 29.801541 30.679173 29.78654 30.664062 29.78125 z "
     id="path4387" />
</svg>
