<?xml version="1.0" encoding="UTF-8" standalone="no"?>
<!-- Created with Inkscape (http://www.inkscape.org/) -->
<svg id="svg3578" xmlns:rdf="http://www.w3.org/1999/02/22-rdf-syntax-ns#" xmlns="http://www.w3.org/2000/svg" height="48" width="48" version="1.0" xmlns:cc="http://creativecommons.org/ns#" xmlns:xlink="http://www.w3.org/1999/xlink" xmlns:dc="http://purl.org/dc/elements/1.1/">
 <metadata id="metadata43">
  <rdf:RDF>
   <cc:Work rdf:about="">
    <dc:format>image/svg+xml</dc:format>
    <dc:type rdf:resource="http://purl.org/dc/dcmitype/StillImage"/>
    <dc:title/>
   </cc:Work>
  </rdf:RDF>
 </metadata>
 <defs id="defs3580">
  <linearGradient id="linearGradient2877-634-617" y2="39.999" gradientUnits="userSpaceOnUse" x2="25.058" y1="47.028" x1="25.058">
   <stop id="stop2895" stop-color="#181818" stop-opacity="0" offset="0"/>
   <stop id="stop2897" stop-color="#181818" offset=".5"/>
   <stop id="stop2899" stop-color="#181818" stop-opacity="0" offset="1"/>
  </linearGradient>
  <radialGradient id="radialGradient2875-742-326" gradientUnits="userSpaceOnUse" cy="43.5" cx="4.993" gradientTransform="matrix(2.0038,0,0,1.4,-20.012,-104.4)" r="2.5">
   <stop id="stop2889" stop-color="#181818" offset="0"/>
   <stop id="stop2891" stop-color="#181818" stop-opacity="0" offset="1"/>
  </radialGradient>
  <radialGradient id="radialGradient2873-966-168" gradientUnits="userSpaceOnUse" cy="43.5" cx="4.993" gradientTransform="matrix(2.0038,0,0,1.4,27.988,-17.4)" r="2.5">
   <stop id="stop2883" stop-color="#181818" offset="0"/>
   <stop id="stop2885" stop-color="#181818" stop-opacity="0" offset="1"/>
  </radialGradient>
  <radialGradient id="radialGradient3006" gradientUnits="userSpaceOnUse" cy="8.4498" cx="7.4957" gradientTransform="matrix(-5.554e-6,1.8475,-3.0782,-9.3318e-6,50.01,-7.7982)" r="20">
   <stop id="stop3892" stop-color="#dac197" offset="0"/>
   <stop id="stop3894" stop-color="#c1a581" offset=".82028"/>
   <stop id="stop3898" stop-color="#a68b60" offset="1"/>
  </radialGradient>
  <linearGradient id="linearGradient4234" y2="43" gradientUnits="userSpaceOnUse" x2="24" gradientTransform="translate(0,1)" y1="5" x1="24">
   <stop id="stop2919" stop-color="#fff" offset="0"/>
   <stop id="stop2921" stop-color="#fff" stop-opacity="0" offset="1"/>
  </linearGradient>
  <linearGradient id="linearGradient4317" y2="44.935" gradientUnits="userSpaceOnUse" x2="23.281" y1="5.1471" x1="22.84">
   <stop id="stop4313" stop-color="#fff" offset="0"/>
   <stop id="stop4315" stop-color="#fff" stop-opacity="0" offset="1"/>
  </linearGradient>
 </defs>
 <g id="g2036" transform="matrix(1.1 0 0 .44444 -2.4 25.111)">
  <g id="g3712" opacity=".4" transform="matrix(1.0526,0,0,1.2857,-1.2632,-13.429)">
   <rect id="rect2801" height="7" width="5" y="40" x="38" fill="url(#radialGradient2873-966-168)"/>
   <rect id="rect3696" transform="scale(-1)" height="7" width="5" y="-47" x="-10" fill="url(#radialGradient2875-742-326)"/>
   <rect id="rect3700" height="7" width="28" y="40" x="10" fill="url(#linearGradient2877-634-617)"/>
  </g>
 </g>
 <rect id="rect5505" rx="2.2322" ry="2.2322" height="39" width="39" y="5.4674" x="4.5" fill="url(#radialGradient3006)"/>
 <rect id="rect4332" opacity=".4" stroke-linejoin="round" rx="2.2322" ry="2.2322" height="39" width="39" stroke="#000" stroke-linecap="round" y="5.5" x="4.5" fill="none"/>
 <rect id="rect6741" opacity=".4" stroke-linejoin="round" rx="1.3652" ry="1.3652" height="37" width="37" stroke="url(#linearGradient4234)" stroke-linecap="round" y="6.5" x="5.5" fill="none"/>
 <g id="g4235" opacity=".667" stroke-linejoin="round" transform="matrix(.66668 0 0 .72252 -12.072 10.636)" stroke="#000" stroke-linecap="round" stroke-width="2.8817" fill="none"></g>
 <path id="path4309" opacity=".3" stroke-linejoin="round" d="m24 8c-9.377 0-17 7.623-17 17s7.623 17 17 17 17-7.623 17-17-7.623-17-17-17zm0.41211 2.0215c7.9647 0.21603 14.35 6.6017 14.566 14.566-1.69-0.94586-5.3777-2.9245-7.3848-4.0098 0.66349-2.2175 1.3162-4.4221 1.2832-4.4551-0.03297-0.03297-2.2375 0.61971-4.4551 1.2832-1.0853-2.007-3.0639-5.6948-4.0098-7.3848zm-1.0742 0.01172c-0.95071 1.7-2.9214 5.3747-4.002 7.373-2.2175-0.66349-4.4221-1.3162-4.4551-1.2832-0.03297 0.03297 0.61971 2.2375 1.2832 4.4551-1.9236 1.0402-5.3624 2.8849-7.1367 3.8711 0.2837-7.817 6.51-14.077 14.311-14.417zm15.629 15.628c-0.34003 7.8013-6.5999 14.027-14.416 14.311 0.98624-1.7743 2.8309-5.2131 3.8711-7.1367 2.2175 0.66349 4.4221 1.3162 4.4551 1.2832 0.03297-0.03297-0.61971-2.2375-1.2832-4.4551 1.9983-1.0806 5.673-3.0512 7.373-4.002zm-29.926 0.139c1.7778 0.98788 5.2035 2.8253 7.123 3.8633-0.66349 2.2175-1.3162 4.4221-1.2832 4.4551 0.03297 0.03297 2.2375-0.61971 4.4551-1.2832 1.0379 1.9195 2.8754 5.3452 3.8633 7.123-7.653-0.404-13.754-6.505-14.158-14.158z" stroke="url(#linearGradient4317)" stroke-linecap="round" fill="none"/>
 <path id="path4297" d="m24 8c-9.377 0-17 7.623-17 17s7.623 17 17 17 17-7.623 17-17-7.623-17-17-17zm0.412 2.021c7.965 0.217 14.35 6.602 14.567 14.567-1.69-0.946-5.378-2.925-7.385-4.01 0.663-2.217 1.316-4.422 1.283-4.455s-2.238 0.62-4.455 1.283c-1.085-2.007-3.064-5.695-4.01-7.385zm-1.074 0.012c-0.951 1.7-2.922 5.375-4.002 7.373-2.218-0.663-4.422-1.316-4.455-1.283s0.62 2.238 1.283 4.455c-1.924 1.04-5.362 2.885-7.1367 3.871 0.2834-7.816 6.5097-14.076 14.311-14.416zm0.937 8.967h0.186l-0.258 0.211v-0.049l0.072-0.162zm-4.203 0.293h0.949l0.038 0.039 0.035-0.039h0.916v0.039l-0.072 0.123v0.041h0.035l0.107-0.082h0.078c0.048 0 0.072 0.07 0.072 0.211l0.108 0.041v5.561h-0.035l-0.037-0.049h-0.036l-0.035 0.049v0.041l0.143 0.162v0.375h-0.072l0.037-0.041v-0.041h-0.108c0 0.205-0.061 0.371-0.185 0.496h-0.18v0.211c0.072 0 0.108 0.067 0.108 0.203h0.072c0.038 0 0.086-0.112 0.148-0.334l0.18-0.041v4.652l-0.072 0.082h-0.071l-0.15-0.123h-0.035c0 0.081-0.025 0.123-0.072 0.123h-0.151c-0.048 0-0.072-0.042-0.072-0.123h-0.213c0 0.081-0.148 0.123-0.443 0.123h-0.18l-0.15-0.041-0.143 0.041h-0.479l-0.107-0.123v-0.088c0.148-0.465 0.27-0.699 0.365-0.699v-0.049l-0.072-0.08v0.129l-0.186-0.049v0.131l-0.035 0.203h-0.072v-4.148c0-0.054 0.109-0.082 0.328-0.082l0.072-0.121-0.072-0.131v-0.244l0.072-0.129v-0.121h-0.035c0 0.07-0.06 0.124-0.179 0.162l0.035 0.049-0.078 0.414h-0.071l-0.072-0.09v-2.281h0.186v-0.083l-0.079-0.08-0.107 0.039v-3.109l0.072-0.08h0.071l0.115 0.08v-0.039l-0.072-0.131v-0.082l0.035-0.039v-0.041h-0.221v-0.707l0.072-0.08zm2.701 0h1.575c1.377 0 2.374 0.426 2.994 1.281l0.037-0.039v0.039l-0.037 0.041c0.438 0.758 0.658 1.549 0.658 2.371v4.198c0 0.947-0.22 1.721-0.658 2.322h-0.071v0.041l0.036 0.129-0.258 0.244h-0.035v-0.08h-0.073l-0.035 0.121 0.035 0.129c-0.505 0.606-1.613 0.91-3.324 0.91h-0.844l-0.07-0.082v-1.039l0.07-0.121-0.07-0.082v-0.787l0.07-0.09h1.395c0.124 0 0.233 0.044 0.328 0.131h0.108v-0.041l-0.036-0.129c0.73-0.271 1.094-0.823 1.094-1.656v-4.247c-0.162-0.909-0.599-1.365-1.314-1.365 0-0.059-0.072-0.09-0.215-0.09l-0.373 0.049-0.035-0.049v-0.039l-0.25 0.129-0.186-0.041v-0.049l0.035-0.039v-0.041h-0.072l-0.148 0.129h-0.331l-0.07-0.088v-1.99l0.07-0.08zm-2.187 0.121l-0.113 0.17h0.078l0.07-0.088v-0.082h-0.035zm-0.221 0.496l-0.107 0.129 0.328 0.041 0.035-0.041v-0.129h-0.256zm6.869 0.049h0.073c0 0.054 0.036 0.08 0.107 0.08v0.121h-0.072c-0.048 0-0.071-0.04-0.071-0.121h-0.037v0.082h-0.107l0.107-0.162zm-6.906 0.949l0.037 0.041v0.039l-0.037 0.041v0.049l0.188 0.082h0.035v-0.041l-0.078-0.211h-0.145zm-0.221 0.17l0.036 0.203 0.078-0.08v-0.123h-0.114zm3.475 0.082l0.07 0.08 0.037-0.039v-0.041h-0.107zm-2.816 0.162l0.035 0.041-0.035 0.039v0.131l0.185-0.041h0.108v-0.041l-0.108-0.129h-0.035l-0.037 0.041-0.035-0.041h-0.078zm2.851 0.17v0.123h-0.07v-0.041l0.07-0.082zm-2.888 0.123l-0.108 0.039v0.252l0.037-0.041h0.035l0.036 0.041v0.203l-0.071 0.09h-0.072c0-0.086-0.062-0.131-0.186-0.131h-0.142v0.082c0.195 0 0.365 0.169 0.508 0.504h0.185v-0.041c-0.119 0-0.205-0.07-0.258-0.211 0-0.167 0.087-0.252 0.258-0.252l-0.072-0.244c-0.1 0-0.15-0.096-0.15-0.291zm5.119 0.291l0.037 0.244h0.07l-0.035-0.041v-0.041l0.07-0.162h-0.142zm-4.754 0.162v0.041l0.035 0.041-0.035 0.049v0.08l0.115-0.039v-0.09l-0.08-0.082h-0.035zm5.484 0.172l0.07 0.08 0.036-0.041v-0.039h-0.106zm-5.885 0.656v0.049l0.108 0.203h0.185l-0.257-0.252h-0.036zm1.502 0.252v0.082h0.108l-0.073-0.082h-0.035zm-0.408 2.079l0.043 0.041v0.123c0 0.054-0.039 0.08-0.115 0.08l-0.035 0.041v0.041h0.185v-0.326h-0.078zm-0.4 0.041l-0.035 0.041v0.121l0.035-0.039 0.185 0.039 0.108-0.121-0.293-0.041zm-0.178 0.285v0.373l0.07 0.129c0.148-0.038 0.223-0.081 0.223-0.129v-0.041l-0.186 0.041-0.072-0.121v-0.041l0.035-0.211h-0.07zm17.758 0.109c-0.34 7.801-6.6 14.027-14.416 14.311 0.986-1.775 2.831-5.213 3.871-7.137 2.217 0.663 4.422 1.316 4.455 1.283s-0.62-2.237-1.283-4.455c1.998-1.08 5.673-3.051 7.373-4.002zm-29.926 0.139c1.778 0.988 5.204 2.825 7.123 3.863-0.663 2.218-1.316 4.422-1.283 4.455s2.237-0.62 4.455-1.283c1.038 1.919 2.875 5.345 3.863 7.123-7.653-0.404-13.754-6.505-14.158-14.158zm12.531 0.336v0.082l0.108 0.129v-0.049l0.107-0.162h-0.215zm0.108 0.211l0.035 0.041h0.037v-0.041h-0.072zm-1.164 0l-0.08 0.082v0.039h0.037l0.078-0.08v-0.041h-0.035zm0.105 0.373v0.041c0.048 0.065 0.072 0.16 0.072 0.285l0.036-0.041h0.037l0.15 0.129v-0.129l-0.187-0.285h-0.108zm0 0.414v0.123h0.072v-0.041l-0.072-0.082zm6.285 0.049v0.082h0.221v0.089h0.037v-0.089l-0.115-0.082h-0.143zm-5.226 0.154v0.131l0.072 0.08h0.035v-0.129l-0.07-0.082h-0.037zm-0.729 0.041v0.09h0.221v-0.09h-0.221zm0.621 0.17l-0.07 0.203v0.09c0.095-0.06 0.143-0.144 0.143-0.252l-0.036-0.041h-0.037zm-0.806 0.082l-0.108 0.121h0.035c0.1-0.038 0.151-0.078 0.151-0.121h-0.078zm-0.108 0.211l-0.107 0.283 0.107 0.09 0.293-0.09v-0.039c-0.171-0.07-0.258-0.152-0.258-0.244h-0.035zm0.658 0.121l-0.037 0.041v0.041h0.108l-0.071-0.082zm0.694 0.203l-0.18 0.049h-0.293c0 0.054 0.122 0.108 0.365 0.162h0.036l0.072-0.08v-0.131zm-0.801 0.748v0.129l0.07 0.082h0.037l0.071-0.082c-0.096 0-0.143-0.042-0.143-0.129h-0.035zm2.338 0.098c-0.038 0-0.077 0.054-0.115 0.162l0.293 0.129 0.035-0.041v-0.049c-0.034 0-0.07-0.054-0.108-0.162l-0.035-0.039h-0.07zm-0.551 0.08c-0.148 0.065-0.223 0.121-0.223 0.17v0.041h0.223c0 0.168 0.109 0.292 0.328 0.373l0.035-0.039v-0.049c-0.143 0-0.213-0.096-0.213-0.285l0.071-0.09-0.113-0.121-0.108 0.041v-0.041zm-0.986 0.113v0.131l0.105 0.041 0.043-0.041v-0.049l-0.113-0.082h-0.035zm2.265 0.057v0.082l0.073 0.162 0.148-0.041-0.078-0.203h-0.143zm-2.41 0.236c0 0.168-0.037 0.252-0.113 0.252l-0.215-0.041c0 0.081-0.026 0.121-0.078 0.121v0.041l0.186 0.082c0.123-0.054 0.185-0.108 0.185-0.162h0.035l0.037 0.039h0.036c0.004-0.114 0.029-0.17 0.072-0.17-0.019-0.081-0.069-0.135-0.145-0.162zm-1.465 0.211l-0.072 0.082v0.039h0.145v-0.121h-0.073zm3.252 0.049v0.121h0.073v-0.121h-0.073zm0.188 0.162v0.041h0.178v-0.041h-0.178zm-0.08 0.131v0.121l0.08-0.082v-0.039h-0.08zm-2.809 0.154l-0.072 0.08c0.167 0.071 0.25 0.155 0.25 0.252h0.043c0.119-0.114 0.215-0.17 0.287-0.17l-0.072-0.082h-0.328l-0.108-0.08zm0.987 0.08l-0.073 0.082v0.252h0.037l0.071-0.164-0.035-0.17zm0.142 0.082l-0.07 0.088v0.041l0.07-0.088v-0.041zm-1.529 0.252l-0.078 0.08 0.043 0.131c0.109-0.054 0.168-0.112 0.177-0.172v-0.039h-0.142z" fill="#383838"/>
</svg>
