<?xml version="1.0" encoding="UTF-8" standalone="no"?>
<!-- Created with Inkscape (http://www.inkscape.org/) -->

<svg
   xmlns:dc="http://purl.org/dc/elements/1.1/"
   xmlns:cc="http://creativecommons.org/ns#"
   xmlns:rdf="http://www.w3.org/1999/02/22-rdf-syntax-ns#"
   xmlns:svg="http://www.w3.org/2000/svg"
   xmlns="http://www.w3.org/2000/svg"
   xmlns:sodipodi="http://sodipodi.sourceforge.net/DTD/sodipodi-0.dtd"
   xmlns:inkscape="http://www.inkscape.org/namespaces/inkscape"
   id="svg3578"
   height="48"
   width="48"
   version="1.0"
   inkscape:version="0.91 r13725"
   sodipodi:docname="deadfall.svg">
  <sodipodi:namedview
     pagecolor="#ffffff"
     bordercolor="#666666"
     borderopacity="1"
     objecttolerance="10"
     gridtolerance="10"
     guidetolerance="10"
     inkscape:pageopacity="0"
     inkscape:pageshadow="2"
     inkscape:window-width="1535"
     inkscape:window-height="876"
     id="namedview36"
     showgrid="false"
     inkscape:zoom="4.9166667"
     inkscape:cx="-10.779661"
     inkscape:cy="24"
     inkscape:window-x="65"
     inkscape:window-y="24"
     inkscape:window-maximized="1"
     inkscape:current-layer="svg3578" />
  <metadata
     id="metadata43">
    <rdf:RDF>
      <cc:Work
         rdf:about="">
        <dc:format>image/svg+xml</dc:format>
        <dc:type
           rdf:resource="http://purl.org/dc/dcmitype/StillImage" />
        <dc:title />
      </cc:Work>
    </rdf:RDF>
  </metadata>
  <defs
     id="defs3580">
    <linearGradient
       id="linearGradient2877-634-617"
       y2="39.999"
       gradientUnits="userSpaceOnUse"
       x2="25.058"
       y1="47.028"
       x1="25.058">
      <stop
         id="stop2895"
         stop-color="#181818"
         stop-opacity="0"
         offset="0" />
      <stop
         id="stop2897"
         stop-color="#181818"
         offset=".5" />
      <stop
         id="stop2899"
         stop-color="#181818"
         stop-opacity="0"
         offset="1" />
    </linearGradient>
    <radialGradient
       id="radialGradient2875-742-326"
       gradientUnits="userSpaceOnUse"
       cy="43.5"
       cx="4.993"
       gradientTransform="matrix(2.0038,0,0,1.4,-20.012,-104.4)"
       r="2.5">
      <stop
         id="stop2889"
         stop-color="#181818"
         offset="0" />
      <stop
         id="stop2891"
         stop-color="#181818"
         stop-opacity="0"
         offset="1" />
    </radialGradient>
    <radialGradient
       id="radialGradient2873-966-168"
       gradientUnits="userSpaceOnUse"
       cy="43.5"
       cx="4.993"
       gradientTransform="matrix(2.0038,0,0,1.4,27.988,-17.4)"
       r="2.5">
      <stop
         id="stop2883"
         stop-color="#181818"
         offset="0" />
      <stop
         id="stop2885"
         stop-color="#181818"
         stop-opacity="0"
         offset="1" />
    </radialGradient>
    <radialGradient
       id="radialGradient3006"
       gradientUnits="userSpaceOnUse"
       cy="8.4498"
       cx="7.4957"
       gradientTransform="matrix(-5.554e-6,1.8475,-3.0782,-9.3318e-6,50.01,-7.7982)"
       r="20">
      <stop
         id="stop3892"
         stop-color="#dac197"
         offset="0" />
      <stop
         id="stop3894"
         stop-color="#c1a581"
         offset=".82028" />
      <stop
         id="stop3898"
         stop-color="#a68b60"
         offset="1" />
    </radialGradient>
    <linearGradient
       id="linearGradient4234"
       y2="43"
       gradientUnits="userSpaceOnUse"
       x2="24"
       gradientTransform="translate(0,1)"
       y1="5"
       x1="24">
      <stop
         id="stop2919"
         stop-color="#fff"
         offset="0" />
      <stop
         id="stop2921"
         stop-color="#fff"
         stop-opacity="0"
         offset="1" />
    </linearGradient>
    <linearGradient
       id="linearGradient4317"
       y2="44.935"
       gradientUnits="userSpaceOnUse"
       x2="23.281"
       y1="5.1471"
       x1="22.84">
      <stop
         id="stop4313"
         stop-color="#fff"
         offset="0" />
      <stop
         id="stop4315"
         stop-color="#fff"
         stop-opacity="0"
         offset="1" />
    </linearGradient>
  </defs>
  <g
     id="g4235"
     opacity=".667"
     stroke-linejoin="round"
     transform="matrix(.66668 0 0 .72252 -12.072 10.636)"
     stroke="#000"
     stroke-linecap="round"
     stroke-width="2.8817"
     fill="none" />
  <g
     id="g4164"
     transform="translate(0,-1)">
    <rect
       x="4.5"
       y="5.4674001"
       width="39"
       height="39"
       ry="2.2321999"
       rx="2.2321999"
       id="rect5505"
       style="fill:url(#radialGradient3006)" />
    <rect
       x="4.5"
       y="5.5"
       width="39"
       height="39"
       ry="2.2321999"
       rx="2.2321999"
       id="rect4332"
       style="opacity:0.4;fill:none;stroke:#000000;stroke-linecap:round;stroke-linejoin:round" />
    <rect
       x="5.5"
       y="6.5"
       width="37"
       height="37"
       ry="1.3652"
       rx="1.3652"
       id="rect6741"
       style="opacity:0.4;fill:none;stroke:url(#linearGradient4234);stroke-linecap:round;stroke-linejoin:round" />
    <path
       d="M 24,8 C 14.623,8 7,15.623 7,25 7,34.377 14.623,42 24,42 33.377,42 41,34.377 41,25 41,15.623 33.377,8 24,8 Z m 0.41211,2.0215 c 7.9647,0.21603 14.35,6.6017 14.566,14.566 -1.69,-0.94586 -5.3777,-2.9245 -7.3848,-4.0098 0.66349,-2.2175 1.3162,-4.4221 1.2832,-4.4551 -0.03297,-0.03297 -2.2375,0.61971 -4.4551,1.2832 -1.0853,-2.007 -3.0639,-5.6948 -4.0098,-7.3848 z m -1.0742,0.01172 c -0.95071,1.7 -2.9214,5.3747 -4.002,7.373 -2.2175,-0.66349 -4.4221,-1.3162 -4.4551,-1.2832 -0.03297,0.03297 0.61971,2.2375 1.2832,4.4551 -1.9236,1.0402 -5.3624,2.8849 -7.1367,3.8711 0.2837,-7.817 6.51,-14.077 14.311,-14.417 z m 15.629,15.628 c -0.34003,7.8013 -6.5999,14.027 -14.416,14.311 0.98624,-1.7743 2.8309,-5.2131 3.8711,-7.1367 2.2175,0.66349 4.4221,1.3162 4.4551,1.2832 0.03297,-0.03297 -0.61971,-2.2375 -1.2832,-4.4551 1.9983,-1.0806 5.673,-3.0512 7.373,-4.002 z m -29.926,0.139 c 1.7778,0.98788 5.2035,2.8253 7.123,3.8633 -0.66349,2.2175 -1.3162,4.4221 -1.2832,4.4551 0.03297,0.03297 2.2375,-0.61971 4.4551,-1.2832 1.0379,1.9195 2.8754,5.3452 3.8633,7.123 -7.653,-0.404 -13.754,-6.505 -14.158,-14.158 z"
       id="path4309"
       style="opacity:0.3;fill:none;stroke:url(#linearGradient4317);stroke-linecap:round;stroke-linejoin:round"
       inkscape:connector-curvature="0" />
    <path
       d="M 24,8 C 14.623,8 7,15.623 7,25 7,34.377 14.623,42 24,42 33.377,42 41,34.377 41,25 41,15.623 33.377,8 24,8 Z m 0.412,2.021 c 7.965,0.217 14.35,6.602 14.567,14.567 -1.69,-0.946 -5.378,-2.925 -7.385,-4.01 0.663,-2.217 1.316,-4.422 1.283,-4.455 -0.033,-0.033 -2.238,0.62 -4.455,1.283 -1.085,-2.007 -3.064,-5.695 -4.01,-7.385 z m -1.074,0.012 c -0.951,1.7 -2.922,5.375 -4.002,7.373 -2.218,-0.663 -4.422,-1.316 -4.455,-1.283 -0.033,0.033 0.62,2.238 1.283,4.455 -1.924,1.04 -5.362,2.885 -7.1367,3.871 0.2834,-7.816 6.5097,-14.076 14.311,-14.416 z m 0.937,8.967 0.186,0 -0.258,0.211 0,-0.049 L 24.275,19 Z m -4.203,0.293 0.949,0 0.038,0.039 0.035,-0.039 0.916,0 0,0.039 -0.072,0.123 0,0.041 0.035,0 0.107,-0.082 0.078,0 c 0.048,0 0.072,0.07 0.072,0.211 l 0.108,0.041 0,5.561 -0.035,0 -0.037,-0.049 -0.036,0 -0.035,0.049 0,0.041 0.143,0.162 0,0.375 -0.072,0 0.037,-0.041 0,-0.041 -0.108,0 c 0,0.205 -0.061,0.371 -0.185,0.496 l -0.18,0 0,0.211 c 0.072,0 0.108,0.067 0.108,0.203 l 0.072,0 c 0.038,0 0.086,-0.112 0.148,-0.334 l 0.18,-0.041 0,4.652 -0.072,0.082 -0.071,0 -0.15,-0.123 -0.035,0 c 0,0.081 -0.025,0.123 -0.072,0.123 l -0.151,0 c -0.048,0 -0.072,-0.042 -0.072,-0.123 l -0.213,0 c 0,0.081 -0.148,0.123 -0.443,0.123 l -0.18,0 -0.15,-0.041 -0.143,0.041 -0.479,0 L 20,30.869 20,30.781 c 0.148,-0.465 0.27,-0.699 0.365,-0.699 l 0,-0.049 -0.072,-0.08 0,0.129 -0.186,-0.049 0,0.131 -0.035,0.203 -0.072,0 0,-4.148 c 0,-0.054 0.109,-0.082 0.328,-0.082 l 0.072,-0.121 -0.072,-0.131 0,-0.244 0.072,-0.129 0,-0.121 -0.035,0 c 0,0.07 -0.06,0.124 -0.179,0.162 l 0.035,0.049 -0.078,0.414 -0.071,0 -0.072,-0.09 0,-2.281 0.186,0 0,-0.083 -0.079,-0.08 -0.107,0.039 0,-3.109 0.072,-0.08 0.071,0 0.115,0.08 0,-0.039 -0.072,-0.131 0,-0.082 0.035,-0.039 0,-0.041 -0.221,0 0,-0.707 0.072,-0.08 z m 2.701,0 1.575,0 c 1.377,0 2.374,0.426 2.994,1.281 l 0.037,-0.039 0,0.039 -0.037,0.041 C 27.78,21.373 28,22.164 28,22.986 l 0,4.198 c 0,0.947 -0.22,1.721 -0.658,2.322 l -0.071,0 0,0.041 0.036,0.129 -0.258,0.244 -0.035,0 0,-0.08 -0.073,0 -0.035,0.121 0.035,0.129 C 26.436,30.696 25.328,31 23.617,31 l -0.844,0 -0.07,-0.082 0,-1.039 0.07,-0.121 -0.07,-0.082 0,-0.787 0.07,-0.09 1.395,0 c 0.124,0 0.233,0.044 0.328,0.131 l 0.108,0 0,-0.041 -0.036,-0.129 c 0.73,-0.271 1.094,-0.823 1.094,-1.656 l 0,-4.247 c -0.162,-0.909 -0.599,-1.365 -1.314,-1.365 0,-0.059 -0.072,-0.09 -0.215,-0.09 l -0.373,0.049 -0.035,-0.049 0,-0.039 -0.25,0.129 -0.186,-0.041 0,-0.049 0.035,-0.039 0,-0.041 -0.072,0 -0.148,0.129 -0.331,0 -0.07,-0.088 0,-1.99 0.07,-0.08 z m -2.187,0.121 -0.113,0.17 0.078,0 0.07,-0.088 0,-0.082 -0.035,0 z m -0.221,0.496 -0.107,0.129 0.328,0.041 0.035,-0.041 0,-0.129 -0.256,0 z m 6.869,0.049 0.073,0 c 0,0.054 0.036,0.08 0.107,0.08 l 0,0.121 -0.072,0 c -0.048,0 -0.071,-0.04 -0.071,-0.121 l -0.037,0 0,0.082 -0.107,0 0.107,-0.162 z m -6.906,0.949 0.037,0.041 0,0.039 -0.037,0.041 0,0.049 0.188,0.082 0.035,0 0,-0.041 -0.078,-0.211 -0.145,0 z m -0.221,0.17 0.036,0.203 0.078,-0.08 0,-0.123 -0.114,0 z m 3.475,0.082 0.07,0.08 0.037,-0.039 0,-0.041 -0.107,0 z m -2.816,0.162 0.035,0.041 -0.035,0.039 0,0.131 0.185,-0.041 0.108,0 0,-0.041 -0.108,-0.129 -0.035,0 -0.037,0.041 -0.035,-0.041 -0.078,0 z m 2.851,0.17 0,0.123 -0.07,0 0,-0.041 0.07,-0.082 z m -2.888,0.123 -0.108,0.039 0,0.252 0.037,-0.041 0.035,0 0.036,0.041 0,0.203 -0.071,0.09 -0.072,0 c 0,-0.086 -0.062,-0.131 -0.186,-0.131 l -0.142,0 0,0.082 c 0.195,0 0.365,0.169 0.508,0.504 l 0.185,0 0,-0.041 c -0.119,0 -0.205,-0.07 -0.258,-0.211 0,-0.167 0.087,-0.252 0.258,-0.252 l -0.072,-0.244 c -0.1,0 -0.15,-0.096 -0.15,-0.291 z m 5.119,0.291 0.037,0.244 0.07,0 -0.035,-0.041 0,-0.041 0.07,-0.162 -0.142,0 z m -4.754,0.162 0,0.041 0.035,0.041 -0.035,0.049 0,0.08 0.115,-0.039 0,-0.09 -0.08,-0.082 -0.035,0 z m 5.484,0.172 0.07,0.08 0.036,-0.041 0,-0.039 -0.106,0 z m -5.885,0.656 0,0.049 0.108,0.203 0.185,0 -0.257,-0.252 -0.036,0 z m 1.502,0.252 0,0.082 0.108,0 -0.073,-0.082 -0.035,0 z m -0.408,2.079 0.043,0.041 0,0.123 c 0,0.054 -0.039,0.08 -0.115,0.08 l -0.035,0.041 0,0.041 0.185,0 0,-0.326 -0.078,0 z m -0.4,0.041 -0.035,0.041 0,0.121 0.035,-0.039 0.185,0.039 0.108,-0.121 -0.293,-0.041 z m -0.178,0.285 0,0.373 0.07,0.129 c 0.148,-0.038 0.223,-0.081 0.223,-0.129 l 0,-0.041 -0.186,0.041 -0.072,-0.121 0,-0.041 0.035,-0.211 -0.07,0 z m 17.758,0.109 c -0.34,7.801 -6.6,14.027 -14.416,14.311 0.986,-1.775 2.831,-5.213 3.871,-7.137 2.217,0.663 4.422,1.316 4.455,1.283 0.033,-0.033 -0.62,-2.237 -1.283,-4.455 1.998,-1.08 5.673,-3.051 7.373,-4.002 z M 9.041,25.801 c 1.778,0.988 5.204,2.825 7.123,3.863 -0.663,2.218 -1.316,4.422 -1.283,4.455 0.033,0.033 2.237,-0.62 4.455,-1.283 1.038,1.919 2.875,5.345 3.863,7.123 C 15.546,39.555 9.445,33.454 9.041,25.801 Z m 12.531,0.336 0,0.082 0.108,0.129 0,-0.049 0.107,-0.162 -0.215,0 z m 0.108,0.211 0.035,0.041 0.037,0 0,-0.041 -0.072,0 z m -1.164,0 -0.08,0.082 0,0.039 0.037,0 0.078,-0.08 0,-0.041 -0.035,0 z m 0.105,0.373 0,0.041 c 0.048,0.065 0.072,0.16 0.072,0.285 l 0.036,-0.041 0.037,0 0.15,0.129 0,-0.129 -0.187,-0.285 -0.108,0 z m 0,0.414 0,0.123 0.072,0 0,-0.041 -0.072,-0.082 z m 6.285,0.049 0,0.082 0.221,0 0,0.089 0.037,0 0,-0.089 -0.115,-0.082 -0.143,0 z m -5.226,0.154 0,0.131 0.072,0.08 0.035,0 0,-0.129 -0.07,-0.082 -0.037,0 z m -0.729,0.041 0,0.09 0.221,0 0,-0.09 -0.221,0 z m 0.621,0.17 -0.07,0.203 0,0.09 c 0.095,-0.06 0.143,-0.144 0.143,-0.252 l -0.036,-0.041 -0.037,0 z m -0.806,0.082 -0.108,0.121 0.035,0 c 0.1,-0.038 0.151,-0.078 0.151,-0.121 l -0.078,0 z m -0.108,0.211 -0.107,0.283 0.107,0.09 0.293,-0.09 0,-0.039 c -0.171,-0.07 -0.258,-0.152 -0.258,-0.244 l -0.035,0 z m 0.658,0.121 -0.037,0.041 0,0.041 0.108,0 -0.071,-0.082 z m 0.694,0.203 -0.18,0.049 -0.293,0 c 0,0.054 0.122,0.108 0.365,0.162 l 0.036,0 0.072,-0.08 0,-0.131 z m -0.801,0.748 0,0.129 0.07,0.082 0.037,0 0.071,-0.082 c -0.096,0 -0.143,-0.042 -0.143,-0.129 l -0.035,0 z m 2.338,0.098 c -0.038,0 -0.077,0.054 -0.115,0.162 l 0.293,0.129 0.035,-0.041 0,-0.049 c -0.034,0 -0.07,-0.054 -0.108,-0.162 l -0.035,-0.039 -0.07,0 z m -0.551,0.08 c -0.148,0.065 -0.223,0.121 -0.223,0.17 l 0,0.041 0.223,0 c 0,0.168 0.109,0.292 0.328,0.373 l 0.035,-0.039 0,-0.049 c -0.143,0 -0.213,-0.096 -0.213,-0.285 l 0.071,-0.09 -0.113,-0.121 -0.108,0.041 0,-0.041 z m -0.986,0.113 0,0.131 0.105,0.041 0.043,-0.041 0,-0.049 -0.113,-0.082 -0.035,0 z m 2.265,0.057 0,0.082 0.073,0.162 0.148,-0.041 -0.078,-0.203 -0.143,0 z m -2.41,0.236 c 0,0.168 -0.037,0.252 -0.113,0.252 l -0.215,-0.041 c 0,0.081 -0.026,0.121 -0.078,0.121 l 0,0.041 0.186,0.082 c 0.123,-0.054 0.185,-0.108 0.185,-0.162 l 0.035,0 0.037,0.039 0.036,0 c 0.004,-0.114 0.029,-0.17 0.072,-0.17 -0.019,-0.081 -0.069,-0.135 -0.145,-0.162 z m -1.465,0.211 -0.072,0.082 0,0.039 0.145,0 0,-0.121 -0.073,0 z m 3.252,0.049 0,0.121 0.073,0 0,-0.121 -0.073,0 z m 0.188,0.162 0,0.041 0.178,0 0,-0.041 -0.178,0 z m -0.08,0.131 0,0.121 0.08,-0.082 0,-0.039 -0.08,0 z m -2.809,0.154 -0.072,0.08 c 0.167,0.071 0.25,0.155 0.25,0.252 l 0.043,0 c 0.119,-0.114 0.215,-0.17 0.287,-0.17 l -0.072,-0.082 -0.328,0 -0.108,-0.08 z m 0.987,0.08 -0.073,0.082 0,0.252 0.037,0 0.071,-0.164 -0.035,-0.17 z m 0.142,0.082 -0.07,0.088 0,0.041 0.07,-0.088 0,-0.041 z m -1.529,0.252 -0.078,0.08 0.043,0.131 c 0.109,-0.054 0.168,-0.112 0.177,-0.172 l 0,-0.039 -0.142,0 z"
       id="path4297"
       inkscape:connector-curvature="0"
       style="fill:#383838" />
  </g>
</svg>
