<?xml version="1.0" encoding="UTF-8" standalone="no"?>
<!-- Created with Inkscape (http://www.inkscape.org/) -->

<svg
   xmlns:dc="http://purl.org/dc/elements/1.1/"
   xmlns:cc="http://creativecommons.org/ns#"
   xmlns:rdf="http://www.w3.org/1999/02/22-rdf-syntax-ns#"
   xmlns:svg="http://www.w3.org/2000/svg"
   xmlns="http://www.w3.org/2000/svg"
   xmlns:xlink="http://www.w3.org/1999/xlink"
   xmlns:sodipodi="http://sodipodi.sourceforge.net/DTD/sodipodi-0.dtd"
   xmlns:inkscape="http://www.inkscape.org/namespaces/inkscape"
   version="1.0"
   width="48"
   height="48"
   id="svg3578"
   inkscape:version="0.91 r"
   sodipodi:docname="deadfall.svg">
  <sodipodi:namedview
     pagecolor="#ffffff"
     bordercolor="#666666"
     borderopacity="1"
     objecttolerance="10"
     gridtolerance="10"
     guidetolerance="10"
     inkscape:pageopacity="0"
     inkscape:pageshadow="2"
     inkscape:window-width="1600"
     inkscape:window-height="845"
     id="namedview38"
     showgrid="false"
     inkscape:zoom="1"
     inkscape:cx="19.613698"
     inkscape:cy="36.324451"
     inkscape:window-x="0"
     inkscape:window-y="30"
     inkscape:window-maximized="1"
     inkscape:current-layer="svg3578"
     showguides="false" />
  <metadata
     id="metadata43">
    <rdf:RDF>
      <cc:Work
         rdf:about="">
        <dc:format>image/svg+xml</dc:format>
        <dc:type
           rdf:resource="http://purl.org/dc/dcmitype/StillImage" />
        <dc:title />
      </cc:Work>
    </rdf:RDF>
  </metadata>
  <defs
     id="defs3580">
    <linearGradient
       inkscape:collect="always"
       id="linearGradient4311">
      <stop
         style="stop-color:#ffffff;stop-opacity:1;"
         offset="0"
         id="stop4313" />
      <stop
         style="stop-color:#ffffff;stop-opacity:0;"
         offset="1"
         id="stop4315" />
    </linearGradient>
    <linearGradient
       x1="25.058001"
       y1="47.028"
       x2="25.058001"
       y2="39.999001"
       id="linearGradient2877-634-617"
       gradientUnits="userSpaceOnUse">
      <stop
         id="stop2895"
         style="stop-color:#181818;stop-opacity:0"
         offset="0" />
      <stop
         id="stop2897"
         style="stop-color:#181818;stop-opacity:1"
         offset="0.5" />
      <stop
         id="stop2899"
         style="stop-color:#181818;stop-opacity:0"
         offset="1" />
    </linearGradient>
    <radialGradient
       cx="4.993"
       cy="43.5"
       r="2.5"
       id="radialGradient2875-742-326"
       gradientUnits="userSpaceOnUse"
       gradientTransform="matrix(2.0038,0,0,1.4,-20.012,-104.4)">
      <stop
         id="stop2889"
         style="stop-color:#181818;stop-opacity:1"
         offset="0" />
      <stop
         id="stop2891"
         style="stop-color:#181818;stop-opacity:0"
         offset="1" />
    </radialGradient>
    <radialGradient
       cx="4.993"
       cy="43.5"
       r="2.5"
       id="radialGradient2873-966-168"
       gradientUnits="userSpaceOnUse"
       gradientTransform="matrix(2.0038,0,0,1.4,27.988,-17.4)">
      <stop
         id="stop2883"
         style="stop-color:#181818;stop-opacity:1"
         offset="0" />
      <stop
         id="stop2885"
         style="stop-color:#181818;stop-opacity:0"
         offset="1" />
    </radialGradient>
    <linearGradient
       x1="7"
       y1="4.0325999"
       x2="6"
       y2="43.033001"
       id="linearGradient3008"
       gradientUnits="userSpaceOnUse"
       gradientTransform="translate(0,0.96744)">
      <stop
         id="stop3882"
         style="stop-color:#c3a67d;stop-opacity:1"
         offset="0" />
      <stop
         id="stop3884"
         style="stop-color:#a17d4f;stop-opacity:1"
         offset="0.77499998" />
      <stop
         id="stop3888"
         style="stop-color:#836845;stop-opacity:1"
         offset="1" />
    </linearGradient>
    <radialGradient
       cx="7.4956999"
       cy="8.4497995"
       r="20"
       id="radialGradient3006"
       gradientUnits="userSpaceOnUse"
       gradientTransform="matrix(-5.554e-6,1.8475,-3.0782,-9.3318e-6,50.01,-7.7982)">
      <stop
         id="stop3892"
         style="stop-color:#dac197;stop-opacity:1"
         offset="0" />
      <stop
         id="stop3894"
         style="stop-color:#c1a581;stop-opacity:1"
         offset="0.82028002" />
      <stop
         id="stop3898"
         style="stop-color:#a68b60;stop-opacity:1"
         offset="1" />
    </radialGradient>
    <linearGradient
       x1="24"
       y1="5"
       x2="24"
       y2="43"
       id="linearGradient3003"
       gradientUnits="userSpaceOnUse"
       gradientTransform="translate(0,1)">
      <stop
         id="stop2919"
         style="stop-color:#ffffff;stop-opacity:1"
         offset="0" />
      <stop
         id="stop2921"
         style="stop-color:#ffffff;stop-opacity:0"
         offset="1" />
    </linearGradient>
    <linearGradient
       inkscape:collect="always"
       xlink:href="#linearGradient3003"
       id="linearGradient4234"
       gradientUnits="userSpaceOnUse"
       gradientTransform="translate(0,1)"
       x1="24"
       y1="5"
       x2="24"
       y2="43" />
    <linearGradient
       inkscape:collect="always"
       xlink:href="#linearGradient4311"
       id="linearGradient4317"
       x1="22.839869"
       y1="5.147059"
       x2="23.281046"
       y2="44.934639"
       gradientUnits="userSpaceOnUse" />
  </defs>
  <g
     id="g2036"
     transform="matrix(1.1,0,0,0.44444,-2.4,25.111)">
    <g
       style="opacity:0.4"
       id="g3712"
       transform="matrix(1.0526,0,0,1.2857,-1.2632,-13.429)">
      <rect
         style="fill:url(#radialGradient2873-966-168)"
         id="rect2801"
         y="40"
         x="38"
         height="7"
         width="5" />
      <rect
         style="fill:url(#radialGradient2875-742-326)"
         id="rect3696"
         transform="scale(-1,-1)"
         y="-47"
         x="-10"
         height="7"
         width="5" />
      <rect
         style="fill:url(#linearGradient2877-634-617)"
         id="rect3700"
         y="40"
         x="10"
         height="7"
         width="28" />
    </g>
  </g>
  <rect
     style="fill:url(#radialGradient3006);stroke:none;stroke-linecap:round;stroke-linejoin:round"
     id="rect5505"
     y="5.4674001"
     x="4.5"
     ry="2.2321999"
     rx="2.2321999"
     height="39"
     width="39" />
  <rect
     width="39"
     height="39"
     rx="2.2321999"
     ry="2.2321999"
     x="4.5"
     y="5.5"
     id="rect4332"
     style="opacity:0.4;fill:none;stroke:#000000;stroke-linecap:round;stroke-linejoin:round;stroke-opacity:1" />
  <rect
     style="opacity:0.4;fill:none;stroke:url(#linearGradient4234);stroke-linecap:round;stroke-linejoin:round"
     id="rect6741"
     y="6.5"
     x="5.5"
     ry="1.3652"
     rx="1.3652"
     height="37"
     width="37" />
  <g
     id="g4235"
     transform="matrix(0.66667798,0,0,0.7225216,-12.072124,10.635815)"
     style="fill:none;fill-opacity:1;stroke:#000000;stroke-opacity:1;opacity:0.667;stroke-width:2.88168511;stroke-miterlimit:4;stroke-dasharray:none;stroke-linejoin:round;stroke-linecap:round">
    <g
       id="g4238"
       style="fill:none;fill-opacity:1;stroke:#000000;stroke-opacity:1;stroke-width:2.88168511;stroke-miterlimit:4;stroke-dasharray:none;stroke-linejoin:round;stroke-linecap:round" />
    <g
       id="g4242"
       style="fill:none;fill-opacity:1;stroke:#000000;stroke-opacity:1;stroke-width:2.88168511;stroke-miterlimit:4;stroke-dasharray:none;stroke-linejoin:round;stroke-linecap:round" />
    <g
       id="g4244"
       style="fill:none;fill-opacity:1;stroke:#000000;stroke-opacity:1;stroke-width:2.88168511;stroke-miterlimit:4;stroke-dasharray:none;stroke-linejoin:round;stroke-linecap:round" />
    <g
       id="g4246"
       style="fill:none;fill-opacity:1;stroke:#000000;stroke-opacity:1;stroke-width:2.88168511;stroke-miterlimit:4;stroke-dasharray:none;stroke-linejoin:round;stroke-linecap:round" />
    <g
       id="g4248"
       style="fill:none;fill-opacity:1;stroke:#000000;stroke-opacity:1;stroke-width:2.88168511;stroke-miterlimit:4;stroke-dasharray:none;stroke-linejoin:round;stroke-linecap:round" />
    <g
       id="g4250"
       style="fill:none;fill-opacity:1;stroke:#000000;stroke-opacity:1;stroke-width:2.88168511;stroke-miterlimit:4;stroke-dasharray:none;stroke-linejoin:round;stroke-linecap:round" />
    <g
       id="g4252"
       style="fill:none;fill-opacity:1;stroke:#000000;stroke-opacity:1;stroke-width:2.88168511;stroke-miterlimit:4;stroke-dasharray:none;stroke-linejoin:round;stroke-linecap:round" />
    <g
       id="g4254"
       style="fill:none;fill-opacity:1;stroke:#000000;stroke-opacity:1;stroke-width:2.88168511;stroke-miterlimit:4;stroke-dasharray:none;stroke-linejoin:round;stroke-linecap:round" />
    <g
       id="g4256"
       style="fill:none;fill-opacity:1;stroke:#000000;stroke-opacity:1;stroke-width:2.88168511;stroke-miterlimit:4;stroke-dasharray:none;stroke-linejoin:round;stroke-linecap:round" />
    <g
       id="g4258"
       style="fill:none;fill-opacity:1;stroke:#000000;stroke-opacity:1;stroke-width:2.88168511;stroke-miterlimit:4;stroke-dasharray:none;stroke-linejoin:round;stroke-linecap:round" />
    <g
       id="g4260"
       style="fill:none;fill-opacity:1;stroke:#000000;stroke-opacity:1;stroke-width:2.88168511;stroke-miterlimit:4;stroke-dasharray:none;stroke-linejoin:round;stroke-linecap:round" />
    <g
       id="g4262"
       style="fill:none;fill-opacity:1;stroke:#000000;stroke-opacity:1;stroke-width:2.88168511;stroke-miterlimit:4;stroke-dasharray:none;stroke-linejoin:round;stroke-linecap:round" />
    <g
       id="g4264"
       style="fill:none;fill-opacity:1;stroke:#000000;stroke-opacity:1;stroke-width:2.88168511;stroke-miterlimit:4;stroke-dasharray:none;stroke-linejoin:round;stroke-linecap:round" />
    <g
       id="g4266"
       style="fill:none;fill-opacity:1;stroke:#000000;stroke-opacity:1;stroke-width:2.88168511;stroke-miterlimit:4;stroke-dasharray:none;stroke-linejoin:round;stroke-linecap:round" />
    <g
       id="g4268"
       style="fill:none;fill-opacity:1;stroke:#000000;stroke-opacity:1;stroke-width:2.88168511;stroke-miterlimit:4;stroke-dasharray:none;stroke-linejoin:round;stroke-linecap:round" />
    <g
       id="g4270"
       style="fill:none;fill-opacity:1;stroke:#000000;stroke-opacity:1;stroke-width:2.88168511;stroke-miterlimit:4;stroke-dasharray:none;stroke-linejoin:round;stroke-linecap:round" />
  </g>
  <g
     style="font-style:normal;font-variant:normal;font-weight:bold;font-stretch:normal;font-size:40px;line-height:125%;font-family:sans-serif;-inkscape-font-specification:'sans-serif Bold';letter-spacing:0px;word-spacing:0px;fill:#000000;fill-opacity:1;stroke:none;stroke-width:1px;stroke-linecap:butt;stroke-linejoin:miter;stroke-opacity:1"
     id="text4270"
     transform="matrix(0.36441282,0,0,0.34293369,22.310159,21.225994)" />
  <path
     inkscape:connector-curvature="0"
     id="path4309"
     d="M 24,8.0000001 C 14.623004,8.0000003 6.9999998,15.623005 6.9999999,25 6.9999999,34.376996 14.623004,42 24,42 33.376995,42 41,34.376996 41,25 41,15.623005 33.376995,8.0000002 24,8.0000001 Z m 0.412109,2.0214849 c 7.964661,0.21603 14.350376,6.601745 14.566406,14.566406 -1.689991,-0.945857 -5.377725,-2.924499 -7.384765,-4.009766 0.663493,-2.217534 1.316176,-4.422105 1.283203,-4.455078 -0.03297,-0.03297 -2.237544,0.61971 -4.455078,1.283203 -1.085267,-2.00704 -3.063909,-5.694774 -4.009766,-7.384765 z m -1.074219,0.01172 c -0.950708,1.700019 -2.921396,5.374716 -4.001953,7.373047 -2.217534,-0.663493 -4.422105,-1.316176 -4.455078,-1.283203 -0.03297,0.03297 0.61971,2.237544 1.283203,4.455078 -1.923618,1.040158 -5.362413,2.884856 -7.1367184,3.871094 C 9.3106894,16.633086 15.536566,10.373236 23.33789,10.033203 Z M 38.966797,25.66211 c -0.340033,7.801324 -6.599883,14.027201 -14.416016,14.310546 0.986238,-1.774305 2.830936,-5.2131 3.871094,-7.136718 2.217534,0.663493 4.422105,1.316176 4.455078,1.283203 0.03297,-0.03297 -0.61971,-2.237544 -1.283203,-4.455078 1.998331,-1.080557 5.673028,-3.051245 7.373047,-4.001953 z M 9.0410155,25.800782 c 1.7778015,0.987885 5.2035455,2.825349 7.1230465,3.863281 -0.663493,2.217534 -1.316176,4.422105 -1.283203,4.455078 0.03297,0.03297 2.237544,-0.61971 4.455078,-1.283203 1.037932,1.919501 2.875396,5.345245 3.863281,7.123047 C 15.546199,39.55544 9.4445599,33.453801 9.0410155,25.800782 Z"
     style="opacity:0.3;fill:none;fill-opacity:1;stroke:url(#linearGradient4317);stroke-width:1;stroke-linecap:round;stroke-linejoin:round;stroke-miterlimit:4;stroke-dasharray:none;stroke-opacity:1" />
  <path
     style="opacity:1;fill:#383838;fill-opacity:1;stroke:none;stroke-width:2;stroke-linecap:round;stroke-linejoin:round;stroke-miterlimit:4;stroke-dasharray:none;stroke-opacity:1"
     d="M 24 8 C 14.623004 8.0000002 6.9999999 15.623005 7 25 C 7 34.376996 14.623004 42 24 42 C 33.376995 42 41 34.376996 41 25 C 41 15.623005 33.376995 8.0000001 24 8 z M 24.412109 10.021484 C 32.37677 10.237514 38.762486 16.62323 38.978516 24.587891 C 37.288525 23.642034 33.60079 21.663392 31.59375 20.578125 C 32.257243 18.360591 32.909926 16.15602 32.876953 16.123047 C 32.843983 16.090077 30.639409 16.742757 28.421875 17.40625 C 27.336608 15.39921 25.357966 11.711475 24.412109 10.021484 z M 23.337891 10.033203 C 22.387183 11.733222 20.416494 15.407919 19.335938 17.40625 C 17.118403 16.742757 14.913832 16.090074 14.880859 16.123047 C 14.847889 16.156017 15.50057 18.360591 16.164062 20.578125 C 14.240445 21.618283 10.801649 23.462981 9.0273438 24.449219 C 9.3106895 16.633084 15.536567 10.373236 23.337891 10.033203 z M 24.275391 19 L 24.460938 19 L 24.203125 19.210938 L 24.203125 19.162109 L 24.275391 19 z M 20.072266 19.292969 L 21.021484 19.292969 L 21.058594 19.332031 L 21.09375 19.292969 L 22.009766 19.292969 L 22.009766 19.332031 L 21.9375 19.455078 L 21.9375 19.496094 L 21.972656 19.496094 L 22.080078 19.414062 L 22.158203 19.414062 C 22.205865 19.414062 22.230469 19.484269 22.230469 19.625 L 22.337891 19.666016 L 22.337891 25.226562 L 22.302734 25.226562 L 22.265625 25.177734 L 22.230469 25.177734 L 22.195312 25.226562 L 22.195312 25.267578 L 22.337891 25.429688 L 22.337891 25.804688 L 22.265625 25.804688 L 22.302734 25.763672 L 22.302734 25.722656 L 22.195312 25.722656 C 22.195312 25.92834 22.133686 26.094257 22.009766 26.21875 L 21.830078 26.21875 L 21.830078 26.429688 C 21.901571 26.429688 21.9375 26.497495 21.9375 26.632812 L 22.009766 26.632812 C 22.047895 26.632812 22.096243 26.52075 22.158203 26.298828 L 22.337891 26.257812 L 22.337891 30.910156 L 22.265625 30.992188 L 22.195312 30.992188 L 22.044922 30.869141 L 22.009766 30.869141 C 22.009766 30.950331 21.985161 30.992188 21.9375 30.992188 L 21.787109 30.992188 C 21.739448 30.992188 21.714844 30.950331 21.714844 30.869141 L 21.501953 30.869141 C 21.501953 30.950331 21.354096 30.992188 21.058594 30.992188 L 20.878906 30.992188 L 20.728516 30.951172 L 20.585938 30.992188 L 20.107422 30.992188 L 20 30.869141 L 20 30.78125 C 20.147751 30.315756 20.269911 30.082031 20.365234 30.082031 L 20.365234 30.033203 L 20.292969 29.953125 L 20.292969 30.082031 L 20.107422 30.033203 L 20.107422 30.164062 L 20.072266 30.367188 L 20 30.367188 L 20 26.21875 C 20 26.164623 20.108882 26.136719 20.328125 26.136719 L 20.400391 26.015625 L 20.328125 25.884766 L 20.328125 25.640625 L 20.400391 25.511719 L 20.400391 25.390625 L 20.365234 25.390625 C 20.365234 25.46099 20.304701 25.514845 20.185547 25.552734 L 20.220703 25.601562 L 20.142578 26.015625 L 20.072266 26.015625 L 20 25.925781 L 20 23.644531 L 20.185547 23.644531 L 20.185547 23.5625 L 20.107422 23.482422 L 20 23.521484 L 20 20.412109 L 20.072266 20.332031 L 20.142578 20.332031 L 20.257812 20.412109 L 20.257812 20.373047 L 20.185547 20.242188 L 20.185547 20.160156 L 20.220703 20.121094 L 20.220703 20.080078 L 20 20.080078 L 20 19.373047 L 20.072266 19.292969 z M 22.773438 19.292969 L 24.347656 19.292969 C 25.725076 19.292969 26.722196 19.719009 27.341797 20.574219 L 27.378906 20.535156 L 27.378906 20.574219 L 27.341797 20.615234 C 27.780283 21.373015 28 22.163595 28 22.986328 L 28 27.183594 C 28 28.13082 27.780283 28.905048 27.341797 29.505859 L 27.271484 29.505859 L 27.271484 29.546875 L 27.306641 29.675781 L 27.048828 29.919922 L 27.013672 29.919922 L 27.013672 29.839844 L 26.941406 29.839844 L 26.90625 29.960938 L 26.941406 30.089844 C 26.436193 30.696068 25.328238 31 23.617188 31 L 22.773438 31 L 22.703125 30.917969 L 22.703125 29.878906 L 22.773438 29.757812 L 22.703125 29.675781 L 22.703125 28.888672 L 22.773438 28.798828 L 24.167969 28.798828 C 24.291889 28.798828 24.400771 28.843084 24.496094 28.929688 L 24.603516 28.929688 L 24.603516 28.888672 L 24.568359 28.759766 C 25.297582 28.48913 25.662109 27.937074 25.662109 27.103516 L 25.662109 22.857422 C 25.50006 21.948085 25.06258 21.492187 24.347656 21.492188 C 24.347656 21.432648 24.275797 21.402344 24.132812 21.402344 L 23.759766 21.451172 L 23.724609 21.402344 L 23.724609 21.363281 L 23.474609 21.492188 L 23.289062 21.451172 L 23.289062 21.402344 L 23.324219 21.363281 L 23.324219 21.322266 L 23.251953 21.322266 L 23.103516 21.451172 L 22.773438 21.451172 L 22.703125 21.363281 L 22.703125 19.373047 L 22.773438 19.292969 z M 20.585938 19.414062 L 20.472656 19.583984 L 20.550781 19.583984 L 20.621094 19.496094 L 20.621094 19.414062 L 20.585938 19.414062 z M 20.365234 19.910156 L 20.257812 20.039062 L 20.585938 20.080078 L 20.621094 20.039062 L 20.621094 19.910156 L 20.365234 19.910156 z M 27.234375 19.958984 L 27.306641 19.958984 C 27.306641 20.013112 27.34257 20.039062 27.414062 20.039062 L 27.414062 20.160156 L 27.341797 20.160156 C 27.294135 20.160156 27.271484 20.120253 27.271484 20.039062 L 27.234375 20.039062 L 27.234375 20.121094 L 27.126953 20.121094 L 27.234375 19.958984 z M 20.328125 20.908203 L 20.365234 20.949219 L 20.365234 20.988281 L 20.328125 21.029297 L 20.328125 21.078125 L 20.515625 21.160156 L 20.550781 21.160156 L 20.550781 21.119141 L 20.472656 20.908203 L 20.328125 20.908203 z M 20.107422 21.078125 L 20.142578 21.28125 L 20.220703 21.201172 L 20.220703 21.078125 L 20.107422 21.078125 z M 23.582031 21.160156 L 23.652344 21.240234 L 23.689453 21.201172 L 23.689453 21.160156 L 23.582031 21.160156 z M 20.765625 21.322266 L 20.800781 21.363281 L 20.765625 21.402344 L 20.765625 21.533203 L 20.951172 21.492188 L 21.058594 21.492188 L 21.058594 21.451172 L 20.951172 21.322266 L 20.916016 21.322266 L 20.878906 21.363281 L 20.84375 21.322266 L 20.765625 21.322266 z M 23.617188 21.492188 L 23.617188 21.615234 L 23.546875 21.615234 L 23.546875 21.574219 L 23.617188 21.492188 z M 20.728516 21.615234 L 20.621094 21.654297 L 20.621094 21.90625 L 20.658203 21.865234 L 20.693359 21.865234 L 20.728516 21.90625 L 20.728516 22.109375 L 20.658203 22.199219 L 20.585938 22.199219 C 20.585938 22.112615 20.524311 22.068359 20.400391 22.068359 L 20.257812 22.068359 L 20.257812 22.150391 C 20.453225 22.150391 20.62264 22.318708 20.765625 22.654297 L 20.951172 22.654297 L 20.951172 22.613281 C 20.832018 22.613281 20.745787 22.543075 20.693359 22.402344 C 20.693359 22.23455 20.77959 22.150391 20.951172 22.150391 L 20.878906 21.90625 C 20.778817 21.90625 20.728516 21.810092 20.728516 21.615234 z M 25.847656 21.90625 L 25.884766 22.150391 L 25.955078 22.150391 L 25.919922 22.109375 L 25.919922 22.068359 L 25.990234 21.90625 L 25.847656 21.90625 z M 21.09375 22.068359 L 21.09375 22.109375 L 21.128906 22.150391 L 21.09375 22.199219 L 21.09375 22.279297 L 21.208984 22.240234 L 21.208984 22.150391 L 21.128906 22.068359 L 21.09375 22.068359 z M 26.578125 22.240234 L 26.648438 22.320312 L 26.683594 22.279297 L 26.683594 22.240234 L 26.578125 22.240234 z M 20.693359 22.896484 L 20.693359 22.945312 L 20.800781 23.148438 L 20.986328 23.148438 L 20.728516 22.896484 L 20.693359 22.896484 z M 22.195312 23.148438 L 22.195312 23.230469 L 22.302734 23.230469 L 22.230469 23.148438 L 22.195312 23.148438 z M 21.787109 25.226562 L 21.830078 25.267578 L 21.830078 25.390625 C 21.830078 25.444752 21.791102 25.470703 21.714844 25.470703 L 21.679688 25.511719 L 21.679688 25.552734 L 21.865234 25.552734 L 21.865234 25.226562 L 21.787109 25.226562 z M 21.386719 25.267578 L 21.351562 25.308594 L 21.351562 25.429688 L 21.386719 25.390625 L 21.572266 25.429688 L 21.679688 25.308594 L 21.386719 25.267578 z M 21.208984 25.552734 L 21.208984 25.925781 L 21.279297 26.054688 C 21.427048 26.016798 21.501953 25.974496 21.501953 25.925781 L 21.501953 25.884766 L 21.316406 25.925781 L 21.244141 25.804688 L 21.244141 25.763672 L 21.279297 25.552734 L 21.208984 25.552734 z M 38.966797 25.662109 C 38.626764 33.463433 32.366914 39.689311 24.550781 39.972656 C 25.537019 38.198351 27.381717 34.759556 28.421875 32.835938 C 30.639409 33.499431 32.84398 34.152114 32.876953 34.119141 C 32.909923 34.086171 32.257243 31.881597 31.59375 29.664062 C 33.592081 28.583506 37.266778 26.612817 38.966797 25.662109 z M 9.0410156 25.800781 C 10.818817 26.788666 14.244561 28.626131 16.164062 29.664062 C 15.500569 31.881597 14.847886 34.086168 14.880859 34.119141 C 14.913829 34.152111 17.118404 33.499431 19.335938 32.835938 C 20.37387 34.755438 22.211334 38.181182 23.199219 39.958984 C 15.5462 39.555439 9.44456 33.4538 9.0410156 25.800781 z M 21.572266 26.136719 L 21.572266 26.21875 L 21.679688 26.347656 L 21.679688 26.298828 L 21.787109 26.136719 L 21.572266 26.136719 z M 21.679688 26.347656 L 21.714844 26.388672 L 21.751953 26.388672 L 21.751953 26.347656 L 21.679688 26.347656 z M 20.515625 26.347656 L 20.435547 26.429688 L 20.435547 26.46875 L 20.472656 26.46875 L 20.550781 26.388672 L 20.550781 26.347656 L 20.515625 26.347656 z M 20.621094 26.720703 L 20.621094 26.761719 C 20.668755 26.826671 20.693359 26.922382 20.693359 27.046875 L 20.728516 27.005859 L 20.765625 27.005859 L 20.916016 27.134766 L 20.916016 27.005859 L 20.728516 26.720703 L 20.621094 26.720703 z M 20.621094 27.134766 L 20.621094 27.257812 L 20.693359 27.257812 L 20.693359 27.216797 L 20.621094 27.134766 z M 26.90625 27.183594 L 26.90625 27.265625 L 27.126953 27.265625 L 27.126953 27.355469 L 27.164062 27.355469 L 27.164062 27.265625 L 27.048828 27.183594 L 26.90625 27.183594 z M 21.679688 27.337891 L 21.679688 27.46875 L 21.751953 27.548828 L 21.787109 27.548828 L 21.787109 27.419922 L 21.716797 27.337891 L 21.679688 27.337891 z M 20.951172 27.378906 L 20.951172 27.46875 L 21.171875 27.46875 L 21.171875 27.378906 L 20.951172 27.378906 z M 21.572266 27.548828 L 21.501953 27.751953 L 21.501953 27.841797 C 21.597276 27.782257 21.644531 27.698098 21.644531 27.589844 L 21.609375 27.548828 L 21.572266 27.548828 z M 20.765625 27.630859 L 20.658203 27.751953 L 20.693359 27.751953 C 20.793449 27.714064 20.84375 27.674161 20.84375 27.630859 L 20.765625 27.630859 z M 20.658203 27.841797 L 20.550781 28.125 L 20.658203 28.214844 L 20.951172 28.125 L 20.951172 28.085938 C 20.77959 28.015572 20.693359 27.933813 20.693359 27.841797 L 20.658203 27.841797 z M 21.316406 27.962891 L 21.279297 28.003906 L 21.279297 28.044922 L 21.386719 28.044922 L 21.316406 27.962891 z M 22.009766 28.166016 L 21.830078 28.214844 L 21.537109 28.214844 C 21.537109 28.268971 21.65927 28.322826 21.902344 28.376953 L 21.9375 28.376953 L 22.009766 28.296875 L 22.009766 28.166016 z M 21.208984 28.914062 L 21.208984 29.042969 L 21.279297 29.125 L 21.316406 29.125 L 21.386719 29.042969 C 21.291396 29.042969 21.244141 29.000666 21.244141 28.914062 L 21.208984 28.914062 z M 23.546875 29.011719 C 23.508746 29.011719 23.46977 29.065574 23.431641 29.173828 L 23.724609 29.302734 L 23.759766 29.261719 L 23.759766 29.212891 C 23.726402 29.212891 23.690473 29.159036 23.652344 29.050781 L 23.617188 29.011719 L 23.546875 29.011719 z M 22.996094 29.091797 C 22.848343 29.15675 22.773438 29.213004 22.773438 29.261719 L 22.773438 29.302734 L 22.996094 29.302734 C 22.996094 29.470529 23.104976 29.59459 23.324219 29.675781 L 23.359375 29.636719 L 23.359375 29.587891 C 23.21639 29.587891 23.146484 29.49218 23.146484 29.302734 L 23.216797 29.212891 L 23.103516 29.091797 L 22.996094 29.132812 L 22.996094 29.091797 z M 22.009766 29.205078 L 22.009766 29.335938 L 22.115234 29.376953 L 22.158203 29.335938 L 22.158203 29.287109 L 22.044922 29.205078 L 22.009766 29.205078 z M 24.275391 29.261719 L 24.275391 29.34375 L 24.347656 29.505859 L 24.496094 29.464844 L 24.417969 29.261719 L 24.275391 29.261719 z M 21.865234 29.498047 C 21.865234 29.665841 21.828212 29.75 21.751953 29.75 L 21.537109 29.708984 C 21.537109 29.790175 21.511412 29.830078 21.458984 29.830078 L 21.458984 29.871094 L 21.644531 29.953125 C 21.768451 29.898998 21.830078 29.845143 21.830078 29.791016 L 21.865234 29.791016 L 21.902344 29.830078 L 21.9375 29.830078 C 21.942266 29.716411 21.96687 29.660156 22.009766 29.660156 C 21.9907 29.578965 21.941492 29.52511 21.865234 29.498047 z M 20.400391 29.708984 L 20.328125 29.791016 L 20.328125 29.830078 L 20.472656 29.830078 L 20.472656 29.708984 L 20.400391 29.708984 z M 23.652344 29.757812 L 23.652344 29.878906 L 23.724609 29.878906 L 23.724609 29.757812 L 23.652344 29.757812 z M 23.839844 29.919922 L 23.839844 29.960938 L 24.017578 29.960938 L 24.017578 29.919922 L 23.839844 29.919922 z M 23.759766 30.050781 L 23.759766 30.171875 L 23.839844 30.089844 L 23.839844 30.050781 L 23.759766 30.050781 z M 20.951172 30.205078 L 20.878906 30.285156 C 21.045722 30.355522 21.128906 30.43968 21.128906 30.537109 L 21.171875 30.537109 C 21.291029 30.423442 21.387492 30.367187 21.458984 30.367188 L 21.386719 30.285156 L 21.058594 30.285156 L 20.951172 30.205078 z M 21.9375 30.285156 L 21.865234 30.367188 L 21.865234 30.619141 L 21.902344 30.619141 L 21.972656 30.455078 L 21.9375 30.285156 z M 22.080078 30.367188 L 22.009766 30.455078 L 22.009766 30.496094 L 22.080078 30.408203 L 22.080078 30.367188 z M 20.550781 30.619141 L 20.472656 30.699219 L 20.515625 30.830078 C 20.625247 30.775951 20.683827 30.717743 20.693359 30.658203 L 20.693359 30.619141 L 20.550781 30.619141 z "
     id="path4297" />
  <g
     style="font-style:normal;font-variant:normal;font-weight:normal;font-stretch:normal;font-size:40px;line-height:125%;font-family:'Capture it';-inkscape-font-specification:'Capture it';letter-spacing:0px;word-spacing:0px;fill:#000000;fill-opacity:1;stroke:none;stroke-width:1px;stroke-linecap:butt;stroke-linejoin:miter;stroke-opacity:1"
     id="text4319"
     transform="matrix(0.36604099,0,0,0.41569684,31.053716,29.096549)" />
</svg>
