<?xml version="1.0" encoding="UTF-8" standalone="no"?>
<!-- Created with Inkscape (http://www.inkscape.org/) -->
<svg id="svg4951" xmlns:rdf="http://www.w3.org/1999/02/22-rdf-syntax-ns#" xmlns="http://www.w3.org/2000/svg" height="48" width="48" version="1.1" xmlns:cc="http://creativecommons.org/ns#" xmlns:xlink="http://www.w3.org/1999/xlink" xmlns:dc="http://purl.org/dc/elements/1.1/">
 <defs id="defs4953">
  <radialGradient id="radialGradient3302" gradientUnits="userSpaceOnUse" cy="186.17" cx="99.157" gradientTransform="matrix(.27083 0 0 .087623 -2.8551 25.187)" r="62.769">
   <stop id="stop3822-2-6-3" stop-color="#3d3d3d" offset="0"/>
   <stop id="stop3864-8-7-7" stop-color="#686868" stop-opacity=".49804" offset=".5"/>
   <stop id="stop3824-1-2-5" stop-color="#686868" stop-opacity="0" offset="1"/>
  </radialGradient>
  <radialGradient id="radialGradient3037" gradientUnits="userSpaceOnUse" cy="-17.681" cx="14.892" gradientTransform="matrix(-1.7922 4.7451e-8 -3.529e-8 -1.3329 41.581 -41.248)" r="25.571">
   <stop id="stop3767" stop-color="#fff" offset="0"/>
   <stop id="stop3769" stop-color="#e4e4e4" offset="1"/>
  </radialGradient>
  <linearGradient id="linearGradient3039" y2="32.568" gradientUnits="userSpaceOnUse" x2="15.124" y1="-18.801" x1="15.124">
   <stop id="stop3777" stop-color="#fff" stop-opacity=".58824" offset="0"/>
   <stop id="stop3779" stop-color="#fff" offset="1"/>
  </linearGradient>
 </defs>
 <metadata id="metadata4956">
  <rdf:RDF>
   <cc:Work rdf:about="">
    <dc:format>image/svg+xml</dc:format>
    <dc:type rdf:resource="http://purl.org/dc/dcmitype/StillImage"/>
    <dc:title/>
   </cc:Work>
  </rdf:RDF>
 </metadata>
 <path id="path3818-0-5" d="m41 41.5a17 5.5 0 0 1 -34 0 17 5.5 0 1 1 34 0z" fill="url(#radialGradient3302)"/>
 <path id="path2985" d="m40.781 6.8335a25.571 25.571 0 1 1 -51.141 0 25.571 25.571 0 1 1 51.141 0z" transform="matrix(.80271 0 0 .80271 11.791 18.515)" fill="url(#radialGradient3037)"/>
 <path id="path3755" d="m40.781 6.8335a25.571 25.571 0 1 1 -51.141 0 25.571 25.571 0 1 1 51.141 0z" stroke-opacity=".58824" transform="matrix(.80271 0 0 .80271 11.791 18.515)" stroke="#828282" stroke-width="1.1816" fill="none"/>
 <path id="path3773" d="m40.781 6.8335a25.571 25.571 0 1 1 -51.141 0 25.571 25.571 0 1 1 51.141 0z" stroke-opacity=".58824" transform="matrix(.76418 0 0 .76418 12.377 18.778)" stroke="url(#linearGradient3039)" stroke-width="1.2204" fill="none"/>
 <path id="path19-8" d="m-55.203 32.032c-0.68948-0.08373-1.3228-0.4894-1.628-1.0428-0.31109-0.56416-0.33948-0.85964-0.32117-3.3436 0.01418-1.924 0.01914-2.0446 0.0954-2.3202 0.18178-0.65677 0.53377-1.1047 1.0802-1.3747 0.74994-0.37055 1.5582-0.32219 2.2658 0.13558 0.45047 0.29141 0.72423 0.7128 0.87032 1.3397 0.0647 0.27765 0.07089 0.48997 0.07089 2.4335 0 2.3626-0.01149 2.4991-0.25337 3.0111-0.23305 0.49324-0.75998 0.92783-1.3099 1.0803-0.24198 0.0671-0.6627 0.1063-0.87027 0.0811zm0.6042-1.5431c0.2641-0.20144 0.26596-0.218 0.2806-2.4943 0.01137-1.7679 0.005-2.0683-0.04862-2.3095-0.07231-0.32503-0.19916-0.48028-0.44693-0.54699-0.32083-0.08639-0.61474 0.09723-0.7165 0.44766-0.07839 0.26993-0.07758 4.2802 0.00092 4.5507 0.05877 0.20248 0.24976 0.42436 0.39129 0.45456 0.18392 0.03925 0.40998-0.0036 0.53924-0.10218zm3.8826 1.5448c-0.38226-0.0509-0.60536-0.1984-0.75847-0.50146-0.19222-0.38049-0.19212-0.37827-0.19212-4.167v-3.5362h0.77102 0.77102l0.01629 3.2592c0.0177 3.5408 0.01242 3.4581 0.22436 3.5113 0.19461 0.04884 0.40977-0.05546 0.67829-0.32882l0.25725-0.26188 0.0097-3.0899 0.0097-3.0899 0.76998-0.01029 0.76998-0.01029v4.0473 4.0473l-0.10456 0.02148c-0.12615 0.02591-1.2938 0.02422-1.3879-0.002-0.05749-0.01603-0.06654-0.06845-0.06654-0.38553v-0.36698l-0.21864 0.21287c-0.50309 0.48983-1.046 0.71789-1.5495 0.65086zm-10.005-0.13226c-0.03234-0.05233-0.02749-3.1806 0.0056-3.6236 0.04246-0.56815 0.01233-1.0148-0.39553-2.1572-0.1324-0.37085-0.3876-1.1221-0.54715-1.6296-1.1526-3.6662-1.0751-3.4183-0.96497-3.4192 0.75923-0.0065 1.6317-0.002 1.6419 0.0082 0.0073 0.0073 0.25415 0.90261 0.54853 1.9896 0.29438 1.0869 0.54009 1.9917 0.54601 2.0107 0.0059 0.01891 0.17872-0.61418 0.38401-1.4069 0.43034-1.6617 0.6718-2.5792 0.68104-2.5876 0.01925-0.01761 0.23329-0.02168 0.93269-0.01772l0.77414 0.0044-0.01705 0.12358c-0.01394 0.10103-0.54215 1.8751-1.0953 3.6788-0.06093 0.19867-0.21498 0.71199-0.34233 1.1407-0.12735 0.42872-0.28178 0.93796-0.34318 1.1317l-0.11163 0.35217v2.2023c0 2.0652-0.0041 2.2035-0.06654 2.2206-0.13878 0.03797-1.6055 0.01935-1.6302-0.02069z" fill="#fff"/>
 <g id="g4511" opacity=".3" transform="translate(0 -0.5)" stroke="#fff" fill="none">
  <ellipse id="ellipse4513" opacity="1" stroke-linejoin="round" stroke-linecap="round" rx="1.6394" ry="1.5266" cy="17.906" cx="30.404"/>
  <ellipse id="ellipse4515" opacity="1" stroke-linejoin="round" stroke-linecap="round" rx="1.6394" ry="1.5266" cy="20.27" cx="27.839"/>
  <ellipse id="ellipse4517" opacity="1" stroke-linejoin="round" stroke-linecap="round" rx="1.6394" ry="1.5266" cy="23.037" cx="29.75"/>
  <ellipse id="ellipse4519" opacity="1" stroke-linejoin="round" stroke-linecap="round" rx="1.6394" ry="1.5266" cy="20.673" cx="32.316"/>
  <g id="g4521" transform="matrix(.089868 0 0 .087680 9 6.9923)" stroke-width="11.265">
   <g id="g4523" stroke="#fff" stroke-width="11.265" fill="none">
    <g id="g4525" stroke="#fff" stroke-width="11.265" fill="none">
     <g id="g4527">
      <path id="path4529" d="m105.2 137.58c-10.851 0-19.675 8.812-19.675 19.639 0 10.842 8.821 19.645 19.675 19.645 10.835 0 19.633-8.803 19.633-19.645 0.009-10.827-8.797-19.639-19.633-19.639z" stroke="#fff" stroke-width="11.265" fill="none"/>
     </g>
     <g id="g4531">
      <path id="path4533" d="m230.89 80.299h-1.333l-1.219 0.588c-21.49 10.635-38.97 15.553-56.29 15.946l-11.61-0.404c-15.43-1.426-31.99-6.407-53.45-15.994l-1.111-0.511h-1.243c-60.694 0-104.64 107.23-104.64 179.51 0 17.281 2.534 31.213 7.527 41.402 5.944 12.172 15.366 18.604 27.184 18.604 26.949 0 43.459-15.763 59.417-31.016 18.36-17.521 37.329-35.656 74.504-35.656 30.606 0 54.157 18.639 76.903 36.642 18.951 15.024 36.869 29.195 56.625 29.195 10.893 0 19.479-5.464 24.884-15.799 4.492-8.581 6.78-20.494 6.78-35.41 0-63.22-46.6-187.09-102.93-187.09zm-125.7 108.09c-17.21 0-31.21-13.991-31.21-31.18 0-17.186 13.994-31.162 31.21-31.162 17.174 0 31.171 13.976 31.171 31.162 0.006 17.188-13.997 31.18-31.171 31.18zm123.58-76.306c6.672-4.23 16.087-2.102 20.285 4.5 2.107 3.297 2.798 7.233 1.957 11.055-0.858 3.837-3.152 7.11-6.467 9.217-2.354 1.501-5.08 2.294-7.86 2.294-5.05 0-9.687-2.531-12.412-6.789-4.335-6.83-2.317-15.923 4.497-20.277zm-29.573 46.567c-4.348-6.845-2.33-15.94 4.479-20.275 6.659-4.249 16.081-2.126 20.278 4.488 2.107 3.309 2.811 7.245 1.958 11.082-0.847 3.825-3.141 7.095-6.443 9.199-2.378 1.498-5.092 2.297-7.879 2.297-5.043-0.005-9.679-2.543-12.393-6.791zm39.584 35.059c-2.354 1.495-5.086 2.3-7.879 2.3-5.056 0-9.691-2.552-12.399-6.804-2.107-3.303-2.805-7.229-1.951-11.061 0.84-3.831 3.134-7.098 6.437-9.211 6.653-4.24 16.062-2.126 20.296 4.491 4.335 6.847 2.317 15.937-4.504 20.285zm31.537-35.503c-0.853 3.825-3.141 7.095-6.455 9.211-2.36 1.504-5.086 2.309-7.879 2.309-5.05 0-9.673-2.549-12.399-6.803-2.114-3.309-2.805-7.233-1.958-11.07 0.853-3.822 3.146-7.101 6.462-9.218 6.652-4.221 16.038-2.113 20.271 4.504 2.12 3.308 2.811 7.242 1.958 11.067z" stroke="#fff" stroke-width="11.265" fill="none"/>
     </g>
    </g>
   </g>
  </g>
 </g>
 <g id="g4426" transform="translate(0 -0.5)">
  <ellipse id="ellipse4420" rx="1.6394" ry="1.5266" cy="17.906" cx="30.404" fill="#ffd242"/>
  <ellipse id="path4418" rx="1.6394" ry="1.5266" cy="20.27" cx="27.839" fill="#ff4242"/>
  <ellipse id="ellipse4424" rx="1.6394" ry="1.5266" cy="23.037" cx="29.75" fill="#428eff"/>
  <ellipse id="ellipse4422" rx="1.6394" ry="1.5266" cy="20.673" cx="32.316" fill="#79ff42"/>
  <g id="g4395" fill="#424242" transform="matrix(.089868 0 0 .087680 9 6.9923)">
   <g id="g4347" fill="#424242">
    <g id="g4349" fill="#424242">
     <g id="g4351">
      <path id="path4353" d="m105.2 137.58c-10.851 0-19.675 8.812-19.675 19.639 0 10.842 8.821 19.645 19.675 19.645 10.835 0 19.633-8.803 19.633-19.645 0.009-10.827-8.797-19.639-19.633-19.639z" fill="#424242"/>
     </g>
     <g id="g4355">
      <path id="path4357" d="m230.89 80.299h-1.333l-1.219 0.588c-21.49 10.635-38.97 15.553-56.29 15.946l-11.61-0.404c-15.43-1.426-31.99-6.407-53.45-15.994l-1.111-0.511h-1.243c-60.694 0-104.64 107.23-104.64 179.51 0 17.281 2.534 31.213 7.527 41.402 5.944 12.172 15.366 18.604 27.184 18.604 26.949 0 43.459-15.763 59.417-31.016 18.36-17.521 37.329-35.656 74.504-35.656 30.606 0 54.157 18.639 76.903 36.642 18.951 15.024 36.869 29.195 56.625 29.195 10.893 0 19.479-5.464 24.884-15.799 4.492-8.581 6.78-20.494 6.78-35.41 0-63.22-46.6-187.09-102.93-187.09zm-125.7 108.09c-17.21 0-31.21-13.991-31.21-31.18 0-17.186 13.994-31.162 31.21-31.162 17.174 0 31.171 13.976 31.171 31.162 0.006 17.188-13.997 31.18-31.171 31.18zm123.58-76.306c6.672-4.23 16.087-2.102 20.285 4.5 2.107 3.297 2.798 7.233 1.957 11.055-0.858 3.837-3.152 7.11-6.467 9.217-2.354 1.501-5.08 2.294-7.86 2.294-5.05 0-9.687-2.531-12.412-6.789-4.335-6.83-2.317-15.923 4.497-20.277zm-29.573 46.567c-4.348-6.845-2.33-15.94 4.479-20.275 6.659-4.249 16.081-2.126 20.278 4.488 2.107 3.309 2.811 7.245 1.958 11.082-0.847 3.825-3.141 7.095-6.443 9.199-2.378 1.498-5.092 2.297-7.879 2.297-5.043-0.005-9.679-2.543-12.393-6.791zm39.584 35.059c-2.354 1.495-5.086 2.3-7.879 2.3-5.056 0-9.691-2.552-12.399-6.804-2.107-3.303-2.805-7.229-1.951-11.061 0.84-3.831 3.134-7.098 6.437-9.211 6.653-4.24 16.062-2.126 20.296 4.491 4.335 6.847 2.317 15.937-4.504 20.285zm31.537-35.503c-0.853 3.825-3.141 7.095-6.455 9.211-2.36 1.504-5.086 2.309-7.879 2.309-5.05 0-9.673-2.549-12.399-6.803-2.114-3.309-2.805-7.233-1.958-11.07 0.853-3.822 3.146-7.101 6.462-9.218 6.652-4.221 16.038-2.113 20.271 4.504 2.12 3.308 2.811 7.242 1.958 11.067z" fill="#424242"/>
     </g>
    </g>
   </g>
  </g>
 </g>
 <g id="g4388" opacity=".15" transform="matrix(.089868 0 0 .087680 9.0005 6.4927)">
  <g id="g4390">
   <g id="g4396">
    <path id="path4467" d="m53.617 10.984c-5.4542 0-9.4043 9.4012-9.4043 15.738 0 1.5152 0.22902 2.7375 0.67773 3.6309 0.53417 1.0672 1.3794 1.6309 2.4414 1.6309 2.4218 0 3.9057-1.3814 5.3398-2.7188 1.65-1.5362 3.3545-3.127 6.6953-3.127 2.7505 0 4.868 1.6344 6.9121 3.2129 1.7031 1.3173 3.3125 2.5605 5.0879 2.5605 0.97893 0 1.7506-0.48055 2.2363-1.3867 0.40368-0.75238 0.60938-1.7957 0.60938-3.1035 0.000089-5.543-4.1882-16.404-9.25-16.404h-0.11914l-0.10938 0.05078c-1.9308 0.93247-3.5021 1.364-5.0586 1.3984l-1.043-0.03516c-1.3869-0.12503-2.8766-0.56176-4.8047-1.4023l-0.09961-0.04492h-0.11133zm-0.20117 0.94727c0.03517 0.01533 0.06663 0.02593 0.10156 0.04101h-0.0098l-0.0918-0.04101zm11.75 0.03125-0.0918 0.04297h-0.0078c0.03395-0.01616 0.06627-0.02797 0.09961-0.04297zm-11.637 0.01367c1.9315 0.83349 3.5045 1.3038 5.0098 1.4395l0.0293 0.002 1.0996 0.03711h0.0293c1.6939-0.0375 3.3971-0.51289 5.3555-1.4434 0.86976 0.03144 1.8072 0.51984 2.7656 1.4785 0.99098 0.99127 1.9491 2.4413 2.7559 4.0781 1.6136 3.2737 2.627 7.3248 2.627 9.8535 0 1.2068-0.2035 2.1048-0.49414 2.6465-0.3496 0.6522-0.69947 0.85547-1.3398 0.85547-1.2913 0-2.7565-1.0289-4.459-2.3457-2.0441-1.5785-4.3795-3.4277-7.541-3.4277-3.6701 0-5.745 1.8646-7.3945 3.4004-1.4338 1.3371-2.6136 2.4453-4.6406 2.4453-0.69472 0-1.1224-0.25548-1.5332-1.0762v-0.002c-0.3478-0.69246-0.57226-1.7767-0.57227-3.1953 0-2.9683 0.95766-6.8062 2.543-9.791 1.5635-2.9437 3.6583-4.9016 5.7598-4.9551z" transform="matrix(11.127 0 0 11.405 -491.98 -45.359)"/>
   </g>
  </g>
 </g>
 <g id="g4495" transform="matrix(.089868 0 0 .087680 44.213 3.977)" stroke="#000" stroke-width="22.531" fill="none">
  <g id="g4497" stroke="#000" stroke-width="22.531" fill="none"></g>
 </g>
</svg>
