<?xml version="1.0" encoding="UTF-8" standalone="no"?>
<!-- Created with Inkscape (http://www.inkscape.org/) -->

<svg
   xmlns:dc="http://purl.org/dc/elements/1.1/"
   xmlns:cc="http://creativecommons.org/ns#"
   xmlns:rdf="http://www.w3.org/1999/02/22-rdf-syntax-ns#"
   xmlns:svg="http://www.w3.org/2000/svg"
   xmlns="http://www.w3.org/2000/svg"
   xmlns:sodipodi="http://sodipodi.sourceforge.net/DTD/sodipodi-0.dtd"
   xmlns:inkscape="http://www.inkscape.org/namespaces/inkscape"
   id="svg4296"
   height="48"
   width="48"
   version="1.1"
   inkscape:version="0.91 r13725"
   sodipodi:docname="dota2.svg">
  <sodipodi:namedview
     pagecolor="#ffffff"
     bordercolor="#666666"
     borderopacity="1"
     objecttolerance="10"
     gridtolerance="10"
     guidetolerance="10"
     inkscape:pageopacity="0"
     inkscape:pageshadow="2"
     inkscape:window-width="1535"
     inkscape:window-height="876"
     id="namedview40"
     showgrid="false"
     inkscape:zoom="4.9166667"
     inkscape:cx="-10.779661"
     inkscape:cy="24"
     inkscape:window-x="65"
     inkscape:window-y="24"
     inkscape:window-maximized="1"
     inkscape:current-layer="svg4296" />
  <defs
     id="defs4298">
    <linearGradient
       id="linearGradient3024"
       y2="43"
       gradientUnits="userSpaceOnUse"
       x2="24"
       gradientTransform="translate(4e-6,1)"
       y1="5"
       x1="24">
      <stop
         id="stop3897"
         stop-color="#fff"
         offset="0" />
      <stop
         id="stop3899"
         stop-color="#fff"
         stop-opacity=".23529"
         offset=".052632" />
      <stop
         id="stop3901"
         stop-color="#fff"
         stop-opacity=".15686"
         offset=".95056" />
      <stop
         id="stop3903"
         stop-color="#fff"
         stop-opacity=".39216"
         offset="1" />
    </linearGradient>
    <radialGradient
       id="radialGradient3038"
       gradientUnits="userSpaceOnUse"
       cy="43.5"
       cx="4.993"
       gradientTransform="matrix(2.0038,0,0,1.4,27.988,-17.4)"
       r="2.5">
      <stop
         id="stop2883"
         stop-color="#181818"
         offset="0" />
      <stop
         id="stop2885"
         stop-color="#181818"
         stop-opacity="0"
         offset="1" />
    </radialGradient>
    <radialGradient
       id="radialGradient3040"
       gradientUnits="userSpaceOnUse"
       cy="43.5"
       cx="4.993"
       gradientTransform="matrix(2.0038,0,0,1.4,-20.012,-104.4)"
       r="2.5">
      <stop
         id="stop2889"
         stop-color="#181818"
         offset="0" />
      <stop
         id="stop2891"
         stop-color="#181818"
         stop-opacity="0"
         offset="1" />
    </radialGradient>
    <linearGradient
       id="linearGradient3042"
       y2="39.999"
       gradientUnits="userSpaceOnUse"
       x2="25.058"
       y1="47.028"
       x1="25.058">
      <stop
         id="stop2895"
         stop-color="#181818"
         stop-opacity="0"
         offset="0" />
      <stop
         id="stop2897"
         stop-color="#181818"
         offset=".5" />
      <stop
         id="stop2899"
         stop-color="#181818"
         stop-opacity="0"
         offset="1" />
    </linearGradient>
    <radialGradient
       id="radialGradient3054-6"
       gradientUnits="userSpaceOnUse"
       cx="7.1184"
       cy="9.9571"
       r="12.672"
       gradientTransform="matrix(0,9.1402,-11.221,0,136.56,-77.888)">
      <stop
         id="stop3750-1-0-7-6-6-1-3-9-3"
         stop-color="#505050"
         offset="0" />
      <stop
         id="stop3752-3-7-4-0-32-8-923-0-7"
         stop-color="#2b2b2b"
         offset=".26238" />
      <stop
         id="stop3754-1-8-5-2-7-6-7-1-9"
         stop-color="#0a0a0a"
         offset=".70495" />
      <stop
         id="stop3756-1-6-2-6-6-1-96-6-0"
         offset="1" />
    </radialGradient>
  </defs>
  <metadata
     id="metadata4301">
    <rdf:RDF>
      <cc:Work
         rdf:about="">
        <dc:format>image/svg+xml</dc:format>
        <dc:type
           rdf:resource="http://purl.org/dc/dcmitype/StillImage" />
        <dc:title />
      </cc:Work>
    </rdf:RDF>
  </metadata>
  <g
     id="g4182"
     transform="translate(0,-1)">
    <rect
       id="rect5505-21"
       style="color:#000000;fill:url(#radialGradient3054-6)"
       rx="2"
       ry="2"
       height="39"
       width="39"
       y="5.5"
       x="4.5" />
    <rect
       id="rect5505-21-3-2"
       style="color:#000000;opacity:0.7;fill:none;stroke:#000000;stroke-linecap:round;stroke-linejoin:round"
       rx="2"
       ry="2"
       height="39"
       width="39"
       y="5.5"
       x="4.5" />
    <rect
       id="rect6741"
       rx="1"
       ry="1"
       height="37"
       width="37"
       y="6.5"
       x="5.5"
       style="opacity:0.3;fill:none;stroke:url(#linearGradient3024);stroke-linecap:round;stroke-linejoin:round" />
    <g
       id="g4252"
       transform="matrix(0.03646,0,0,0.042129,48.479,20.545)"
       style="fill:#ffffff">
      <path
         id="path4247"
         d="m -847.07,344.86 c -12.191,0.0628 -25.287,1.656 -29.061,3.6953 -0.825,0.44586 -3.2554,1.4049 -5.4004,2.1309 -6.2128,2.1028 -10.033,4.2023 -17.094,9.3984 -6.577,4.84 -8.794,7.0787 -14.658,14.789 -4.1028,5.3944 -9.7694,18.245 -11.045,25.049 -2.4744,13.198 -2.4552,18.547 0.1211,31.5 3.176,15.968 13.623,32 26.549,40.744 3.8574,2.6094 13.962,7.736 18.828,9.5527 2.6221,0.9789 12.548,3.2569 15.898,3.6484 4.1341,0.48318 26.764,-0.14443 30,-0.83203 8.5168,-1.8097 18.822,-5.4585 25.201,-8.9238 2.145,-1.1653 6.0592,-3.846 8.6992,-5.9551 2.64,-2.1092 5.0755,-4.0145 5.4121,-4.2344 1.5223,-0.99438 8.2166,-9.2242 10.816,-13.299 5.4166,-8.489 9.4358,-19.318 10.469,-28.201 0.84706,-7.2844 0.72121,-20.532 -0.24609,-25.799 -2.386,-12.992 -8.4276,-24.792 -16.947,-33.104 -3.7478,-3.6562 -12.353,-10.098 -13.49,-10.098 -0.2599,0 -2.9791,-1.2316 -6.043,-2.7383 -3.0638,-1.5067 -6.6507,-2.9766 -7.9707,-3.2656 -1.32,-0.28902 -3.8842,-0.92391 -5.6992,-1.4102 -6.4614,-1.7311 -10.615,-2.2877 -19.201,-2.5781 -1.6748,-0.0566 -3.3971,-0.0793 -5.1387,-0.0703 z m -8.1953,8.1699 c 5.3719,-0.0497 11.017,0.16348 14.105,0.66406 13.239,2.1455 28.495,14.26 35.518,28.205 5.9114,11.738 7.3957,18.244 8.0156,35.125 0.66212,18.031 -1.8292,30.314 -8.334,41.1 -5.1029,8.4612 -13.131,14.87 -22.637,18.072 -3.2185,1.084 -5.4875,1.373 -11.232,1.4355 -12.723,0.13848 -18.71,-1.0178 -27.277,-5.2695 -10.792,-5.3558 -20.166,-14.855 -25.301,-25.639 -3.3268,-6.9864 -3.2863,-6.887 -5.0176,-12.361 -2.2057,-6.9744 -3.3047,-15.363 -3.3047,-25.225 0,-9.4025 0.67565,-15.381 2.3672,-20.914 0.60534,-1.98 1.58,-5.2111 2.1641,-7.1797 3.7362,-12.593 15.132,-23.442 28.469,-27.104 1.995,-0.54765 7.0929,-0.86043 12.465,-0.91016 z"
         inkscape:connector-curvature="0" />
      <path
         id="path4243"
         d="m -1110.6,347.34 c -14.568,-0.0155 -26.064,0.10016 -26.543,0.39649 -0.658,0.40667 -0.659,0.65957 -0.012,1.4394 0.6118,0.73728 2.0176,0.94531 6.3808,0.94531 3.8825,0 5.7433,0.23339 6.0762,0.76367 0.2639,0.42042 1.1828,1.211 2.041,1.7559 0.8582,0.54486 2.0504,2.0229 2.6504,3.2852 1.0255,2.1577 1.1021,5.5765 1.2676,57.135 0.1737,54.124 0.1597,54.861 -1.0313,56.533 -0.9198,1.2917 -1.0631,1.9659 -0.5996,2.832 0.4672,0.87288 0.2403,1.8495 -0.9785,4.2148 -1.4834,2.8787 -1.7324,3.0801 -3.8418,3.0801 -1.2411,0 -2.4229,0.26961 -2.6269,0.59961 -0.2039,0.33 -1.2782,0.59961 -2.3868,0.59961 -1.1086,0 -2.4428,0.16489 -2.9648,0.36523 -2.9114,1.1172 0.6316,1.4354 16,1.4414 10.948,0.003 19.288,0.30165 23.551,0.84375 3.63,0.46158 8.8871,0.87989 11.684,0.92969 2.7964,0.0497 5.2147,0.21861 5.373,0.37695 0.3175,0.31746 20.344,-0.211 23.016,-0.60742 14.345,-2.1282 18.252,-3.0599 27.09,-6.4648 3.8138,-1.4694 13.121,-6.5372 15.982,-8.7012 9.2766,-7.016 10.528,-8.3615 17.137,-18.459 2.1901,-3.3465 6.0612,-12.449 7.4102,-17.424 0.62639,-2.31 1.4183,-5.1256 1.7617,-6.2578 0.34347,-1.1322 0.79726,-5.1822 1.0078,-9 0.65375,-11.853 -1.2826,-22.344 -6.043,-32.742 -4.979,-10.876 -11.67,-18.407 -23.018,-25.904 -8.0685,-5.3306 -21.059,-9.2351 -36.701,-11.033 -4.5869,-0.52725 -37.402,-0.91754 -61.682,-0.94336 z m 31.578,6.9805 c 7.0397,0 9.6292,0.29383 17.82,2.0137 11.122,2.3351 20.106,5.5613 23.684,8.5059 0.495,0.40746 2.4055,1.5815 4.2461,2.6094 4.7344,2.644 10.024,7.6331 13.643,12.867 4.2169,6.1 8.9868,16.12 9.7597,20.504 0.3491,1.98 0.8993,4.8363 1.2227,6.3477 0.9668,4.5189 1.2,15.11 0.4766,21.688 -0.3729,3.3907 -0.7609,7.1106 -0.8614,8.2656 -0.5345,6.1449 -4.4008,15.371 -9.0078,21.5 -6.8837,9.1573 -22.006,17.029 -35.379,18.414 -8.9314,0.92532 -23.904,0.41592 -29.699,-1.0117 -4.54,-1.1184 -10.038,-4.8167 -11.303,-7.6035 -0.9021,-1.9876 -1.0147,-7.3464 -1.1719,-55.938 -0.1729,-53.389 -0.1647,-53.748 1.0566,-55.301 1.6943,-2.1539 5.5236,-2.8613 15.514,-2.8613 z"
         inkscape:connector-curvature="0" />
      <path
         id="path4239"
         d="m -669.6,483.42 c -0.4201,-0.26826 -3.7401,-0.4464 -7.3777,-0.39588 -6.2869,0.0874 -8.3168,-0.40152 -6.4852,-1.5617 0.4548,-0.28806 2.0554,-0.52788 3.5569,-0.53292 1.5015,-0.006 2.9865,-0.25842 3.3,-0.56304 0.3135,-0.30456 1.3776,-0.64206 2.3647,-0.75 1.4907,-0.1629 2.0362,-0.7044 3.2199,-3.1961 1.1766,-2.4767 1.5023,-4.4128 1.8677,-11.1 0.6165,-11.282 0.2646,-107.39 -0.3957,-108.05 -0.7845,-0.7845 -37.789,0.43692 -40.387,1.3331 -3.2065,1.1063 -6.5915,3.5478 -6.8726,4.9568 -0.1387,0.69492 -0.415,2.0293 -0.6141,2.9651 -0.466,2.1899 -3.1736,4.978 -4.0161,4.1355 -1.4528,-1.4528 2.2002,-22.875 4.2503,-24.925 0.4121,-0.41214 2.5081,-0.23772 6.4808,0.53922 5.497,1.075 9.069,1.1483 55.972,1.1483 35.643,0 51.372,-0.20454 54.508,-0.7089 2.4245,-0.38988 4.7722,-0.56916 5.2172,-0.39834 0.6548,0.25122 0.7539,2.5622 0.5194,12.109 -0.3094,12.602 -0.4716,13.898 -1.7386,13.898 -0.8041,0 -1.6509,-2.0568 -2.4136,-5.8622 -0.5081,-2.5354 -4.6644,-6.0565 -8.863,-7.5085 -2.5132,-0.8691 -6.2512,-1.1847 -18.98,-1.6025 -8.7179,-0.2862 -16.446,-0.294 -17.174,-0.0174 -0.7277,0.27672 -1.4451,1.1303 -1.5941,1.8968 -0.149,0.76656 -0.2411,25.694 -0.2047,55.394 0.07,56.576 -0.014,54.638 2.6352,61.143 1.2267,3.0117 4.2768,4.4245 10.681,4.9475 2.5889,0.21138 5.3821,0.66018 6.2071,0.9972 1.4538,0.594 1.4261,0.62754 -0.9,1.0888 -1.32,0.26172 -3.28,0.65274 -4.3555,0.86886 -1.1644,0.234 -2.2902,0.1152 -2.7828,-0.2937 -0.6223,-0.51642 -1.2157,-0.5097 -2.3942,0.027 -1.225,0.55812 -2.0736,0.5466 -3.8897,-0.0528 -1.7025,-0.5619 -5.5889,-0.69246 -14.55,-0.48894 -6.7251,0.1527 -12.632,0.45156 -13.128,0.66414 -0.495,0.21258 -1.2438,0.16704 -1.664,-0.10122 z"
         inkscape:connector-curvature="0" />
      <path
         id="path4237"
         d="m -480.15,343.12 c -0.30312,-0.0198 -0.62265,0.10652 -1.0586,0.33985 -1.4052,0.75204 -3.4609,4.4441 -5.2129,9.3633 -0.5877,1.65 -1.8389,4.6196 -2.7793,6.5996 -2.1558,4.5394 -5.9277,13.608 -5.9277,14.25 0,0.26688 -0.94461,2.4762 -2.0996,4.9102 -1.155,2.4339 -2.0996,4.6881 -2.0996,5.0078 0,0.61206 -1.5149,4.2531 -4.0254,9.6797 -0.826,1.7855 -2.1233,4.8909 -2.8828,6.9004 -0.7595,2.0095 -2.1862,5.4077 -3.1699,7.5527 -0.9837,2.145 -1.9803,4.5754 -2.2168,5.4004 -0.2365,0.825 -0.76588,2.0392 -1.1758,2.6992 -0.41,0.66 -1.2236,2.685 -1.8066,4.5 -0.583,1.815 -1.404,3.8543 -1.8262,4.5312 -0.4223,0.67686 -1.9156,4.1876 -3.3164,7.8008 -1.4007,3.6131 -2.754,6.838 -3.0078,7.168 -0.2539,0.33 -1.4378,3.03 -2.6308,6 -1.1931,2.97 -2.5387,6.2112 -2.9902,7.2012 -0.4515,0.99 -1.4167,3.2846 -2.1445,5.0996 -4.7339,11.804 -8.0568,17.417 -12.166,20.551 -1.2477,0.95166 -2.8131,1.586 -3.8262,1.5488 -1.6341,-0.0598 -6.1682,0.46578 -9.0644,1.0508 -1.5996,0.32316 -1.7887,1.2774 -0.30859,1.5625 2.0367,0.39222 46.334,0.10893 46.742,-0.29883 0.6855,-0.68556 -0.0301,-0.99185 -3.1328,-1.3438 -6.6657,-0.75606 -6.7992,-0.81048 -8.4316,-3.3965 -2.019,-3.1982 -1.734,-5.4304 1.8711,-14.65 1.4894,-3.8091 2.709,-7.2921 2.709,-7.7402 0,-0.4482 0.60058,-1.2363 1.334,-1.75 1.1591,-0.8118 4.8705,-0.93359 28.379,-0.93359 20.373,0 27.447,0.18504 28.668,0.75 1.0701,0.49518 1.9656,1.6665 2.6348,3.4492 0.5575,1.485 1.3493,3.2404 1.7598,3.9004 0.4105,0.66 1.863,4.0989 3.2266,7.6406 1.3638,3.5417 2.7314,6.595 3.0391,6.7852 1.1542,0.71334 0.48824,2.7051 -1.6016,4.7949 -1.188,1.188 -2.0026,2.3177 -1.8106,2.5098 0.1921,0.19206 10.876,0.37219 23.74,0.40039 17.214,0.0376 23.577,-0.13587 24.098,-0.65625 0.7972,-0.79728 -0.0771,-1.0754 -5.166,-1.6406 -6.2301,-0.69198 -7.4635,-1.0872 -9.8945,-3.168 -2.7468,-2.3512 -6.4626,-7.7512 -8.7832,-12.766 -1.6233,-3.5074 -2.0536,-4.3473 -3.9121,-7.6562 -0.6465,-1.151 -1.0922,-2.6679 -0.99218,-3.3691 0.1572,-1.1015 0.71253,-1.3279 4.082,-1.668 2.145,-0.21648 5.3842,-0.9451 7.1992,-1.6191 5.842,-2.1696 12.724,-3.6873 16.764,-3.6973 4.1474,-0.01 5.8742,-0.59482 5.1602,-1.75 -0.4106,-0.6636 -14.073,-0.974 -29.576,-0.66992 -3.0542,0.0599 -6.0978,-0.0627 -6.7617,-0.27344 -1.404,-0.44561 -2.9418,-3.2666 -5.3633,-9.834 -0.9524,-2.5829 -2.2914,-5.7431 -2.9766,-7.0215 -0.6852,-1.2784 -1.2461,-2.7391 -1.2461,-3.248 0,-0.50898 -0.35838,-1.4584 -0.79688,-2.1094 -0.4385,-0.65094 -2.6391,-5.639 -4.8887,-11.084 -2.2496,-5.445 -4.6003,-10.921 -5.2246,-12.17 -0.6243,-1.2488 -1.9136,-4.3542 -2.8652,-6.9004 -0.9516,-2.5463 -3.2621,-8.2755 -5.1348,-12.73 -1.8728,-4.455 -3.8527,-9.2152 -4.3984,-10.58 -3.9301,-9.8299 -9.5955,-22.169 -10.895,-23.725 -0.85681,-1.0263 -1.3132,-1.465 -1.8184,-1.498 z m -4.7871,38.203 c 0.6643,0 1.209,0.28337 1.209,0.62891 0,0.34554 1.2339,3.7884 2.7422,7.6504 1.5082,3.862 3.3629,8.6411 4.1211,10.621 6.4325,16.799 7.7316,20.117 8.7617,22.367 0.6462,1.4113 1.1738,2.981 1.1738,3.4883 0,0.50736 0.63751,2.3218 1.416,4.0332 0.7785,1.7113 2.1686,5.2455 3.0898,7.8535 1.588,4.4948 1.6201,4.7825 0.60937,5.5215 -0.8268,0.60456 -6.0174,0.78805 -23.111,0.81446 -18.954,0.0293 -22.153,-0.0944 -22.799,-0.87305 -0.4134,-0.49806 -1.1236,-0.9043 -1.5781,-0.9043 -1.1939,0 -1.0416,-0.93084 1.0293,-6.3008 1.0181,-2.64 2.4597,-6.4204 3.2031,-8.4004 0.7435,-1.98 1.6365,-4.2746 1.9844,-5.0996 0.348,-0.825 1.7801,-4.1988 3.1836,-7.498 1.4035,-3.2992 2.8121,-6.9438 3.1289,-8.0996 0.4966,-1.8112 4.8551,-12.78 7.2734,-18.303 3.0105,-6.8752 3.3896,-7.5 4.5625,-7.5 z"
         inkscape:connector-curvature="0" />
      <path
         id="path4233"
         d="m -302.14,481.63 c -0.8004,-0.88452 -0.8466,-1.2674 -0.243,-2.0162 0.6481,-0.80376 7.9974,-7.1647 23.003,-19.91 6.7159,-5.704 20.026,-19.063 24.38,-24.469 7.4787,-9.2865 7.6863,-9.6016 13.528,-20.534 2.0504,-3.8369 4.3632,-11.555 5.5732,-18.598 0.5624,-3.2739 0.5485,-4.6001 -0.068,-6.468 -0.5921,-1.7941 -0.6095,-2.5157 -0.073,-3.0517 0.9143,-0.91434 0.8591,-4.4651 -0.1564,-10.062 -1.2228,-6.7396 -2.9568,-10.676 -6.6788,-15.16 -3.5646,-4.2944 -6.7522,-6.5177 -10.92,-7.6163 -3.1891,-0.84072 -13.77,-0.86766 -18.06,-0.0462 -4.6212,0.88518 -10.045,4.3603 -11.998,7.6879 -0.8719,1.4852 -2.1752,3.4236 -2.8963,4.3075 -0.721,0.88392 -1.4932,2.3989 -1.716,3.3668 -0.9192,3.9943 -2.8239,9.8822 -3.2901,10.17 -0.2749,0.16986 -0.6414,0.08 -0.8143,-0.1998 -0.3963,-0.64128 -2.1685,-19.041 -2.1685,-22.515 0,-3.2013 1.1119,-4.2986 6.9,-6.8092 3.8169,-1.6556 5.7589,-2.2177 13.2,-3.8205 2.3736,-0.51132 17.162,-1.5346 18.9,-1.3079 0.495,0.0646 3.465,0.38076 6.6,0.7026 6.8141,0.6996 10.797,1.5045 13.042,2.6354 0.912,0.45948 2.3567,1.0024 3.2104,1.2065 2.959,0.7074 10.751,5.9069 13.479,8.9946 3.4379,3.8909 7.3323,11.784 8.0867,16.391 1.3515,8.2525 0.3569,17.601 -2.751,25.858 -1.7283,4.5916 -6.3195,13.257 -8.6652,16.354 -0.8746,1.155 -2.6989,3.585 -4.0539,5.4 -8.3185,11.143 -28.488,29.688 -45.352,41.7 -2.3866,1.6999 -3.3295,2.75 -3.2324,3.6 0.1339,1.1723 0.5741,1.1995 19.037,1.1768 24.379,-0.03 31.419,-0.62376 36.702,-3.0961 2.1703,-1.0156 5.063,-2.8557 6.4283,-4.0892 2.3398,-2.1139 5.4696,-7.2491 5.4696,-8.9743 0,-1.0902 2.1439,-3.6352 2.4973,-2.9645 0.8288,1.5725 -3.2479,25.007 -4.6357,26.647 -0.4187,0.495 -0.8513,1.71 -0.9614,2.7 -0.1741,1.5651 -0.5916,1.9336 -3.2002,2.8237 -2.7126,0.92568 -7.0292,1.0263 -45.057,1.05 -39.926,0.0252 -42.107,-0.0288 -43.045,-1.0657 z"
         inkscape:connector-curvature="0" />
    </g>
    <path
       id="path4231"
       d="m 22.701,9.0001 c -0.10444,-8.04e-4 -0.19288,0.0078 -0.32639,0.02788 -0.08643,0.01299 -0.17226,0.0135 -0.2974,0.0017 C 21.86727,9.00979 21.86166,9.01185 21.67527,9.1767 21.5632,9.27583 21.49305,9.31669 21.07442,9.52688 20.74849,9.69053 20.57099,9.77054 20.50603,9.78299 20.35151,9.8126 19.992,9.82032 19.84401,9.79719 19.75777,9.78372 19.49726,9.77532 19.10055,9.77319 18.46095,9.76979 18.37804,9.76172 18.33517,9.69901 c -0.094,-0.1378 -0.134,-0.1527 -0.496,-0.1875 -0.21619,-0.02079 -0.26087,-0.02103 -0.30685,-0.0017 -0.0447,0.01875 -0.17226,0.02027 -0.75331,0.0088 -0.3847,-0.0075 -0.88264,-0.02171 -1.1066,-0.0315 -0.63116,-0.0276 -2.031,-0.03933 -2.166,-0.01815 C 13.14129,9.52625 13.1427,9.52614 12.76896,9.5077 12.5452,9.49666 12.39058,9.49541 12.37365,9.5046 12.33796,9.52379 12.2716,9.69039 12.22659,9.87394 c -0.02905,0.11846 -0.03537,0.19301 -0.03578,0.42234 0,0.26876 0.0021,0.28628 0.05816,0.49923 0.10205,0.38422 0.1093,0.46374 0.1093,1.1976 0,0.77816 -0.03216,1.2556 -0.11148,1.6549 -0.0089,0.04496 -0.02461,0.1406 -0.03482,0.21253 -0.0393,0.27643 -0.05416,0.35216 -0.12511,0.63747 -0.08724,0.35087 -0.10317,0.57442 -0.07184,1.0059 0.04725,0.65016 0.09828,0.96349 0.21247,1.3047 0.22035,0.65828 0.34619,1.5414 0.26825,1.8823 -0.15797,0.691 -0.10537,1.0475 0.21216,1.4378 0.06761,0.08309 0.1273,0.16873 0.1327,0.19028 0.02016,0.081 -0.005,0.64885 -0.03249,0.73261 -0.08251,0.25077 -0.2399,0.37708 -0.54534,0.43766 l -0.10375,0.02053 0.01102,0.09849 c 0.02417,0.21881 0.04125,0.5527 0.05694,1.112 0.02388,0.851 0.06176,1.2733 0.12649,1.4102 0.03938,0.08331 0.16056,0.20623 0.28998,0.29416 0.14999,0.1019 0.19494,0.1881 0.21941,0.42074 0.01724,0.16333 -0.0056,0.64572 -0.04761,1.0053 -0.0089,0.07642 -0.02758,0.23823 -0.04146,0.3596 -0.04285,0.37458 -0.07568,0.57682 -0.10751,0.66237 -0.01932,0.05195 -0.07452,0.13166 -0.15034,0.21716 -0.11443,0.12906 -0.25495,0.36229 -0.28801,0.47805 -0.0081,0.02824 -0.0077,0.41036 0,0.88666 0.01413,0.78518 0.0337,1.1419 0.08253,1.4991 0.02403,0.17577 0.02349,0.65144 0,0.83366 -0.05083,0.37906 -0.0822,0.6924 -0.08222,0.82116 l 0,0.14277 0.07734,0.03925 c 0.20929,0.1063 0.5746,0.20516 0.91589,0.24791 0.25488,0.03192 0.63395,0.02538 0.95292,-0.01647 0.25085,-0.03294 1.2446,-0.05174 1.5064,-0.02852 0.19096,0.01693 0.36421,0.0042 0.64517,-0.04666 0.11342,-0.02062 0.1193,-0.01996 0.27361,0.0309 0.17804,0.05871 0.27064,0.06406 0.47361,0.02725 0.21266,-0.03858 0.43548,-0.0316 0.63933,0.02002 0.15338,0.03883 0.20302,0.04391 0.40294,0.0414 0.12541,-0.0018 0.41853,-0.01815 0.65142,-0.03682 1.0391,-0.08323 1.1187,-0.08298 1.254,0.0033 l 0.08141,0.05198 0.33389,0.01279 c 0.36838,0.01409 0.48093,0.03001 0.62824,0.08876 0.05445,0.0217 0.10943,0.03935 0.12214,0.03935 0.01268,-8.3e-5 0.06526,-0.03636 0.11674,-0.08056 0.07074,-0.06079 0.11562,-0.08533 0.18394,-0.10068 0.10687,-0.02399 0.11716,-0.01717 0.16169,0.10781 0.04049,0.11359 0.09316,0.19719 0.29162,0.46246 0.16744,0.2238 0.22656,0.28058 0.37512,0.36029 0.03503,0.0188 0.07167,0.02935 0.08143,0.02352 0.06429,-0.03845 0.17185,-0.14486 0.25399,-0.25126 0.1827,-0.2367 0.24732,-0.26931 0.50557,-0.25536 0.12902,0.0069 0.19425,0.02155 0.3827,0.08573 0.28674,0.09766 0.46189,0.11396 0.63216,0.05874 0.05867,-0.01904 0.11036,-0.03458 0.11493,-0.03458 0.0046,0 0.03309,0.03865 0.0633,0.08583 0.07427,0.116 0.18943,0.21886 0.26916,0.24041 0.10249,0.02767 0.19171,-0.0018 0.51602,-0.1714 0.45331,-0.23684 0.57404,-0.27302 1.0093,-0.30256 0.44575,-0.03024 1.3697,-0.04763 1.6204,-0.03047 0.49431,0.03378 0.73128,0.03574 0.92825,0.0076 0.103,-0.0147 0.3485,-0.03398 0.54555,-0.04289 0.24651,-0.01111 0.38372,-0.02441 0.43974,-0.04256 0.09693,-0.03145 0.301,-0.13249 0.38746,-0.19188 0.03399,-0.02333 0.06799,-0.04247 0.07556,-0.04247 0.0074,0 0.075,0.03243 0.14991,0.0721 0.07491,0.03967 0.19847,0.0919 0.2746,0.11611 0.12869,0.04088 0.16823,0.04494 0.56182,0.0578 0.2329,0.0076 0.54804,0.02165 0.7003,0.03118 0.41366,0.02595 1.106,0.05795 1.254,0.05795 0.12104,0 0.13555,-0.0037 0.20379,-0.05311 0.0581,-0.04201 0.09891,-0.0564 0.19541,-0.06895 0.06709,-0.0087 0.13478,-0.0161 0.15045,-0.01638 0.03921,-4.66e-4 0.03746,-0.07553 -0.0034,-0.14272 -0.02907,-0.04787 -0.03973,-0.05269 -0.12617,-0.05719 l -0.0944,-0.0049 0,-0.10626 0,-0.10626 0.08141,-0.01027 c 0.0448,-0.0056 0.21494,-0.01993 0.37809,-0.03173 0.35693,-0.02581 0.58341,-0.0088 0.86776,0.06496 0.10301,0.02674 0.26428,0.06454 0.35833,0.08407 0.18191,0.0378 0.32552,0.0895 0.51744,0.18635 0.1397,0.07049 0.23818,0.10706 0.28813,0.10706 l 0.03605,0 0.01475,-0.5353 c 0.02016,-0.72825 0.0187,-1.2817 -0.0048,-1.7205 -0.02747,-0.51678 -0.03038,-1.1773 -0.01517,-3.4246 0.01081,-1.585 0.01787,-1.9882 0.0368,-2.1005 0.04324,-0.25608 0.04484,-0.37002 0.0074,-0.53866 -0.03117,-0.14104 -0.03413,-0.20557 -0.03413,-0.7391 0,-0.56122 -0.0021,-0.58525 -0.0315,-0.6015 -0.0189,-0.01018 -0.17241,-0.01693 -0.38476,-0.01693 l -0.35322,0 0.01001,-0.05039 c 0.0187,-0.09406 0.07239,-0.14512 0.23637,-0.22487 l 0.15666,-0.0762 0.01081,-0.21247 c 0.01309,-0.25827 0.04227,-0.68781 0.06329,-0.93263 0.02436,-0.28348 0.01912,-0.84811 -0.01001,-1.0752 -0.05188,-0.40545 -0.13486,-0.64298 -0.30513,-0.87362 -0.24805,-0.33601 -0.40242,-0.6038 -0.40215,-0.6984 6.2e-5,-0.06451 0.03671,-0.12219 0.20154,-0.31735 0.07541,-0.08927 0.16023,-0.19609 0.18852,-0.23737 L 35.3714,17.8405 35.31346,17.65043 c -0.03188,-0.10455 -0.0579,-0.20451 -0.0579,-0.2221 0,-0.05667 0.10082,-0.13466 0.26866,-0.20779 0.33838,-0.14743 0.37898,-0.20683 0.39962,-0.58501 0.06922,-1.2693 0.0569,-3.4284 -0.02524,-4.4178 -0.02681,-0.32305 -0.03156,-0.35522 -0.09864,-0.6702 -0.0502,-0.23567 -0.04783,-0.26391 0.05136,-0.60922 0.07225,-0.25151 0.08172,-0.35656 0.04887,-0.54126 -0.01413,-0.07985 -0.02584,-0.20265 -0.02584,-0.27287 0,-0.07022 -0.0074,-0.13229 -0.01642,-0.13792 -0.0091,-0.0056 -0.06945,-0.02495 -0.13411,-0.04294 -0.17,-0.0483 -0.322,-0.1339 -0.4,-0.2269 -0.145,-0.1728 -0.261,-0.1953 -1.101,-0.2126 C 33.50552,9.48902 33.41979,9.47852 33.33295,9.39506 33.29168,9.35542 33.27119,9.34836 33.19898,9.34904 33.06655,9.35034 32.99931,9.394 32.90185,9.54214 32.85603,9.6118 32.79891,9.68937 32.77493,9.71449 32.72081,9.7712 32.57457,9.84226 32.55535,9.82118 32.54765,9.81288 32.52213,9.72904 32.49841,9.63505 32.43391,9.3791 32.41756,9.35263 32.30927,9.3285 32.10889,9.28384 31.65107,9.22639 31.22637,9.19265 31.10992,9.18345 30.67386,9.16498 30.25735,9.15173 29.83654,9.13839 29.38799,9.11544 29.24775,9.10006 28.9219,9.06434 28.27006,9.06022 28.14035,9.09306 27.96644,9.1371 27.85829,9.20695 27.80563,9.30915 27.76989,9.37854 27.72026,9.58228 27.70077,9.73974 27.69076,9.81981 27.67964,9.89035 27.67585,9.8965 c -0.0037,0.0062 -0.03824,0.01581 -0.07655,0.02149 -0.10562,0.01569 -0.38033,0.05829 -0.51752,0.08024 -0.06716,0.01075 -0.1881,0.01941 -0.2687,0.01931 -0.12324,-1.52e-4 -0.1611,-0.0069 -0.23786,-0.04257 C 26.44252,9.91331 26.40992,9.86286 26.33384,9.60164 26.32054,9.55622 26.34465,9.56036 25.86856,9.52183 25.61043,9.50094 25.43842,9.47421 25.40845,9.45037 25.3745,9.42337 25.38549,9.38615 25.46248,9.26685 25.51052,9.19239 25.53447,9.13837 25.53135,9.11152 25.52555,9.06199 25.50027,9.0576 25.04612,9.02707 24.58803,8.99628 24.14848,8.99928 23.90612,9.03487 23.6914,9.06642 23.56814,9.06348 22.92087,9.01125 22.83347,9.00425 22.76502,9.00019 22.70235,8.99965 Z m -5.9153,3.9857 c 0.24905,0 0.3954,0.06316 0.62676,0.27036 0.13702,0.12273 0.28292,0.22298 0.43933,0.30192 0.05812,0.02934 0.16805,0.09515 0.24427,0.14628 0.07624,0.05113 0.38226,0.24248 0.6801,0.42521 0.53834,0.33028 0.54158,0.33263 0.55833,0.3993 0.08347,0.3324 0.25605,0.49414 0.7099,0.66525 0.23012,0.08676 0.30478,0.13274 0.38179,0.23514 0.03723,0.0495 0.09637,0.10268 0.14138,0.12718 0.07174,0.03905 0.33927,0.14546 0.47997,0.19092 0.03335,0.01079 0.12127,0.06488 0.19541,0.1202 0.07412,0.05533 0.1972,0.13818 0.27348,0.18417 0.07629,0.04598 0.20348,0.1317 0.28261,0.19044 0.07915,0.05874 0.2036,0.14219 0.27658,0.18544 0.07298,0.04325 0.51744,0.34138 0.98768,0.66253 0.87198,0.59553 0.99643,0.68034 1.9391,1.3213 0.29636,0.2015 0.60243,0.41755 0.6801,0.48012 0.20753,0.16719 0.38316,0.28191 0.74552,0.48694 0.34912,0.19755 0.51578,0.30315 0.72679,0.4606 0.07402,0.05523 0.33977,0.2358 0.59056,0.40131 0.58979,0.38923 0.55337,0.36381 0.67586,0.47161 0.05823,0.05123 0.17914,0.14052 0.26872,0.19837 0.08956,0.05786 0.20312,0.1339 0.25239,0.169 0.34632,0.24675 1.0895,0.73379 1.197,0.78444 0.22687,0.1069 0.30837,0.168 0.7031,0.52722 0.27375,0.24911 0.39382,0.31578 0.6491,0.36051 0.15352,0.02688 0.17613,0.03972 0.36664,0.20731 0.0586,0.05156 0.20152,0.15392 0.3176,0.22748 0.19419,0.12309 0.49059,0.33996 0.78558,0.57468 0.17792,0.14156 0.40635,0.29747 0.51906,0.35422 0.05514,0.02776 0.10305,0.05896 0.1065,0.06934 0.01393,0.04168 -0.05196,0.53253 -0.1039,0.77502 -0.01724,0.08091 -0.07074,0.27586 -0.1187,0.43319 -0.04796,0.15734 -0.11412,0.38906 -0.14702,0.51493 -0.29478,1.128 -0.38827,1.3859 -0.80966,2.2343 -0.19922,0.40111 -0.27672,0.50536 -0.42362,0.56973 -0.07413,0.03248 -0.11689,0.03818 -0.31384,0.0415 -0.24709,0.0042 -0.27431,0.0023 -1.2214,-0.0737 -0.11645,-0.0093 -0.27034,-0.02441 -0.342,-0.03341 -0.63929,-0.08038 -0.88509,-0.13051 -1.0156,-0.20726 -0.14118,-0.08303 -0.46904,-0.42104 -0.95861,-0.98817 -0.13638,-0.15798 -0.33011,-0.36382 -0.43047,-0.45741 -0.14822,-0.13822 -0.86255,-0.91179 -1.5974,-1.7298 -0.08499,-0.0946 -0.15369,-0.19289 -0.21069,-0.3015 -0.095,-0.181 -0.172,-0.256 -0.478,-0.468 -0.211,-0.146 -0.545,-0.486 -1.374,-1.395 -0.521,-0.57 -0.662,-0.715 -0.855,-0.876 -0.127,-0.105 -0.304,-0.272 -0.393,-0.369 -0.223,-0.243 -0.561,-0.607 -0.92,-0.989 -0.166,-0.176 -0.36,-0.387 -0.431,-0.467 -0.381,-0.427 -0.614,-0.668 -1.677,-1.732 -0.99,-0.991 -1.181,-1.189 -1.304,-1.357 -0.114,-0.155 -0.292,-0.345 -0.862,-0.923 -0.395,-0.4 -0.967,-0.989 -1.27,-1.308 -0.30359,-0.31916 -0.69367,-0.72004 -0.86687,-0.89086 -0.30856,-0.30432 -0.31606,-0.31336 -0.37187,-0.44676 -0.03133,-0.07489 -0.057,-0.14536 -0.057,-0.1566 0,-0.01281 0.05631,-0.03127 0.15067,-0.04937 0.21655,-0.04159 0.44797,-0.1234 0.72388,-0.25589 0.52575,-0.25248 0.64665,-0.29288 0.87662,-0.29288 z m 13.391,0.147 c 0.01703,0 0.19868,0.08653 0.40358,0.19231 0.26376,0.13616 0.4557,0.24953 0.65741,0.38823 0.15668,0.10775 0.35091,0.22976 0.43157,0.27111 l 0.14662,0.07519 -0.0021,0.43974 c -0.0021,0.54043 -0.02878,0.71297 -0.19338,1.2325 -0.12393,0.39116 -0.15018,0.54121 -0.18014,1.0299 -0.03457,0.56361 -0.0585,0.6687 -0.16285,0.71644 -0.04802,0.02195 -0.18274,0.02259 -0.27265,0.0013 -0.10899,-0.02578 -0.19541,-0.08182 -0.33742,-0.21896 -0.07653,-0.07391 -0.1642,-0.14738 -0.19477,-0.16325 -0.03057,-0.01587 -0.155,-0.0966 -0.27656,-0.17943 -0.12155,-0.08283 -0.36394,-0.2478 -0.5386,-0.36663 -0.17467,-0.11883 -0.38966,-0.27793 -0.47781,-0.35354 -0.08813,-0.07561 -0.24863,-0.19847 -0.35662,-0.27303 -0.4392,-0.30328 -0.57803,-0.40902 -0.8758,-0.66684 -0.31756,-0.27494 -0.50244,-0.42429 -0.52573,-0.42473 -0.0322,-6.26e-4 -0.19442,-0.12041 -0.31993,-0.23626 -0.07564,-0.0698 -0.19072,-0.16295 -0.25574,-0.20699 -0.11284,-0.07641 -0.23373,-0.20752 -0.23373,-0.25345 0,-0.01185 0.02747,-0.02883 0.06107,-0.03773 0.03358,-0.0089 0.14899,-0.03957 0.25646,-0.06811 0.10749,-0.02854 0.34197,-0.09049 0.52112,-0.13771 0.17914,-0.04723 0.443,-0.11712 0.58632,-0.15527 0.67858,-0.18064 0.8826,-0.2337 1.1318,-0.29436 0.14779,-0.03597 0.30536,-0.07329 0.35016,-0.08295 0.13237,-0.02858 0.43249,-0.13034 0.53288,-0.1807 0.05124,-0.02571 0.1071,-0.04678 0.12416,-0.04678 z m -13.319,10.215 c 0.04771,-0.0085 0.23892,0.16011 0.70861,0.62225 0.24215,0.23826 0.55384,0.54366 0.69267,0.67871 0.13881,0.13505 0.38796,0.38599 0.55366,0.5576 0.31517,0.3264 0.65716,0.65219 1.1792,1.1233 0.17081,0.15416 0.36194,0.32862 0.42474,0.3877 0.0628,0.05907 0.18741,0.17276 0.277,0.25264 0.70574,0.62946 0.97474,0.90735 0.94743,0.97877 -0.0069,0.01815 -0.64097,0.2386 -0.68625,0.2386 -0.007,0 -0.07699,0.03729 -0.15558,0.08279 -0.21582,0.12502 -0.41655,0.18588 -0.72442,0.2196 -0.22384,0.0245 -0.42968,0.08881 -0.69213,0.21615 -0.22428,0.10881 -0.4844,0.19983 -0.65957,0.23083 -0.13779,0.02437 -0.51632,0.03216 -1.0039,0.02062 l -0.41767,-0.0099 -0.1152,-0.07908 C 17.12291,28.82489 16.94207,28.67044 16.78441,28.52512 16.39467,28.16588 16.33077,28.11339 16.19884,28.04409 16.11957,28.00247 16.0427,27.94145 15.94643,27.8438 15.83214,27.72784 15.77878,27.68811 15.64028,27.6159 15.44117,27.51207 15.4009,27.4602 15.37852,27.27844 c -0.016,-0.1295 0.0022,-0.43461 0.03121,-0.5253 0.0108,-0.03383 0.0729,-0.17919 0.1379,-0.32305 0.06499,-0.14385 0.16406,-0.37921 0.22016,-0.52306 0.19924,-0.5108 1.0507,-2.5211 1.0823,-2.5553 0.0021,-0.0023 0.0046,-0.0033 0.0077,-0.0042 z"
       inkscape:connector-curvature="0"
       style="fill:#eb4336" />
  </g>
</svg>
