<?xml version="1.0" encoding="UTF-8" standalone="no"?>
<!-- Created with Inkscape (http://www.inkscape.org/) -->

<svg
   xmlns:dc="http://purl.org/dc/elements/1.1/"
   xmlns:cc="http://creativecommons.org/ns#"
   xmlns:rdf="http://www.w3.org/1999/02/22-rdf-syntax-ns#"
   xmlns:svg="http://www.w3.org/2000/svg"
   xmlns="http://www.w3.org/2000/svg"
   xmlns:sodipodi="http://sodipodi.sourceforge.net/DTD/sodipodi-0.dtd"
   xmlns:inkscape="http://www.inkscape.org/namespaces/inkscape"
   id="svg6649"
   height="48"
   width="48"
   version="1.1"
   inkscape:version="0.91 r13725"
   sodipodi:docname="dropbox.svg">
  <sodipodi:namedview
     pagecolor="#ffffff"
     bordercolor="#666666"
     borderopacity="1"
     objecttolerance="10"
     gridtolerance="10"
     guidetolerance="10"
     inkscape:pageopacity="0"
     inkscape:pageshadow="2"
     inkscape:window-width="1535"
     inkscape:window-height="876"
     id="namedview53"
     showgrid="false"
     inkscape:zoom="4.9166667"
     inkscape:cx="-10.779661"
     inkscape:cy="24"
     inkscape:window-x="65"
     inkscape:window-y="24"
     inkscape:window-maximized="1"
     inkscape:current-layer="svg6649" />
  <defs
     id="defs6651">
    <radialGradient
       id="radialGradient3013"
       gradientUnits="userSpaceOnUse"
       cy="43.5"
       cx="4.993"
       gradientTransform="matrix(2.0038,0,0,1.4,27.988,-17.4)"
       r="2.5">
      <stop
         id="stop2883"
         stop-color="#181818"
         offset="0" />
      <stop
         id="stop2885"
         stop-color="#181818"
         stop-opacity="0"
         offset="1" />
    </radialGradient>
    <radialGradient
       id="radialGradient3015"
       gradientUnits="userSpaceOnUse"
       cy="43.5"
       cx="4.993"
       gradientTransform="matrix(2.0038,0,0,1.4,-20.012,-104.4)"
       r="2.5">
      <stop
         id="stop2889"
         stop-color="#181818"
         offset="0" />
      <stop
         id="stop2891"
         stop-color="#181818"
         stop-opacity="0"
         offset="1" />
    </radialGradient>
    <linearGradient
       id="linearGradient6647"
       y2="39.999"
       gradientUnits="userSpaceOnUse"
       x2="25.058"
       y1="47.028"
       x1="25.058">
      <stop
         id="stop2895"
         stop-color="#181818"
         stop-opacity="0"
         offset="0" />
      <stop
         id="stop2897"
         stop-color="#181818"
         offset=".5" />
      <stop
         id="stop2899"
         stop-color="#181818"
         stop-opacity="0"
         offset="1" />
    </linearGradient>
    <linearGradient
       id="linearGradient3028"
       y2="43"
       gradientUnits="userSpaceOnUse"
       x2="24"
       gradientTransform="translate(4e-6,1)"
       y1="5"
       x1="24">
      <stop
         id="stop3926-3"
         stop-color="#fff"
         offset="0" />
      <stop
         id="stop3928-91"
         stop-color="#fff"
         stop-opacity=".23529"
         offset=".063165" />
      <stop
         id="stop3930-6"
         stop-color="#fff"
         stop-opacity=".15686"
         offset=".95056" />
      <stop
         id="stop3932-6"
         stop-color="#fff"
         stop-opacity=".39216"
         offset="1" />
    </linearGradient>
    <radialGradient
       id="radialGradient3031"
       fx="6.2002"
       gradientUnits="userSpaceOnUse"
       cy="9.9571"
       cx="6.7304"
       gradientTransform="matrix(0,9.4976,-11.66,0,140.93,-79.161)"
       r="12.672">
      <stop
         id="stop3750-1-0-7-6-6-1-3-9"
         stop-color="#6db9ff"
         offset="0" />
      <stop
         id="stop3752-3-7-4-0-32-8-923-0"
         stop-color="#0988ff"
         offset=".26238" />
      <stop
         id="stop3754-1-8-5-2-7-6-7-1"
         stop-color="#007ef4"
         offset=".70495" />
      <stop
         id="stop3756-1-6-2-6-6-1-96-6"
         stop-color="#005fb8"
         offset="1" />
    </radialGradient>
    <clipPath
       id="clipPath-349538100">
      <g
         id="g17"
         transform="translate(0 -1004.4)">
        <path
           id="path19"
           d="m-24 13c0 1.105-0.672 2-1.5 2s-1.5-0.895-1.5-2 0.672-2 1.5-2 1.5 0.895 1.5 2z"
           transform="matrix(15.333 0 0 11.5 415 878.86)"
           fill="#1890d0" />
      </g>
    </clipPath>
  </defs>
  <metadata
     id="metadata6654">
    <rdf:RDF>
      <cc:Work
         rdf:about="">
        <dc:format>image/svg+xml</dc:format>
        <dc:type
           rdf:resource="http://purl.org/dc/dcmitype/StillImage" />
        <dc:title />
      </cc:Work>
    </rdf:RDF>
  </metadata>
  <g
     id="g4196"
     transform="translate(0,-1)">
    <rect
       x="4.5"
       y="5.5"
       width="39"
       height="39"
       ry="2"
       rx="2"
       style="color:#000000;fill:url(#radialGradient3031)"
       id="rect5505-21" />
    <rect
       style="opacity:0.5;fill:none;stroke:url(#linearGradient3028);stroke-linecap:round;stroke-linejoin:round"
       x="5.5"
       y="6.5"
       width="37"
       height="37"
       ry="1"
       rx="1"
       id="rect6741" />
    <rect
       x="4.5"
       y="5.5"
       width="39"
       height="39"
       ry="2"
       rx="2"
       style="color:#000000;opacity:0.4;fill:none;stroke:#003465;stroke-linecap:round;stroke-linejoin:round"
       id="rect5505-21-3-2" />
    <g
       transform="matrix(0.99992,0,0,1,0.0013972,1.0009)"
       clip-path="url(#clipPath-349538100)"
       id="g4239"
       style="opacity:0.15;fill:none;stroke:#000000;stroke-width:2.0000999;stroke-linecap:round;stroke-linejoin:round">
      <!-- color: #1b77bf -->
      <g
         id="g4241"
         style="fill:none;stroke:#000000;stroke-width:2.0000999;stroke-linecap:round;stroke-linejoin:round">
        <path
           transform="matrix(1.0001,0,0,1,27.942,10.847)"
           d="m -8.7559,1.1523 -7.1855,4.8008 5,4.4805 -5,4.1602 5,3.1973 0,2.8926 0.002,0 7.4961,4.4688 7.498,-4.4688 0.00195,0 0,-0.01172 0,-2.8809 5,-3.1973 -5,-4.1602 5,-4.4805 -7.1875,-4.8008 -5.3066,4.7969 -0.00586,-0.00391 -0.00586,0.00391 -5.3066,-4.7969 z"
           id="path4243"
           inkscape:connector-curvature="0"
           style="fill:none;stroke:#000000;stroke-width:2;stroke-linecap:round;stroke-linejoin:round" />
      </g>
    </g>
    <g
       transform="matrix(0.99992,0,0,1,0.0013972,1.0009)"
       clip-path="url(#clipPath-349538100)"
       id="g4262"
       style="opacity:0.15;fill:none;stroke:#000000;stroke-linecap:round;stroke-linejoin:round">
      <!-- color: #1b77bf -->
      <g
         id="g4264"
         style="fill:none;stroke:#000000;stroke-linecap:round;stroke-linejoin:round">
        <path
           transform="matrix(1.0001,0,0,1,27.942,10.847)"
           d="m -8.7559,1.1523 -7.1855,4.8008 5,4.4805 -5,4.1602 5,3.1973 0,2.8926 0.002,0 7.4961,4.4688 7.498,-4.4688 0.00195,0 0,-0.01172 0,-2.8809 5,-3.1973 -5,-4.1602 5,-4.4805 -7.1875,-4.8008 -5.3066,4.7969 -0.00586,-0.00391 -0.00586,0.00391 -5.3066,-4.7969 z"
           id="path4266"
           inkscape:connector-curvature="0"
           style="fill:none;stroke:#000000;stroke-linecap:round;stroke-linejoin:round" />
      </g>
    </g>
    <g
       clip-path="url(#clipPath-349538100)"
       transform="matrix(0.99992,0,0,1,0.0019598,1)"
       id="g63">
      <!-- color: #1b77bf -->
      <g
         id="g65">
        <path
           d="M 24.5,16.793 17,21.27 17,31.532 24.5,27.024 32,31.532 32,21.27 m -7.5,-4.477"
           id="path67"
           inkscape:connector-curvature="0"
           style="fill:#d2e7fa" />
        <path
           d="m 32,31.52 0,-10.238 -7.5,-4.48 0,10.238 m 7.5,4.48"
           id="path69"
           inkscape:connector-curvature="0"
           style="fill:#c2def8" />
        <path
           d="M 17,21.281 17,31.531 24.5,36 32,31.531 32,21.281 24.5,25.75 M 17,21.281"
           id="path71"
           inkscape:connector-curvature="0"
           style="fill:#c2def8" />
        <path
           d="m 32,21.281 0,10.238 -7.5,4.48 0,-10.238 m 7.5,-4.48"
           id="path73"
           inkscape:connector-curvature="0"
           style="fill:#d2e7fa" />
        <path
           d="m 17,21.281 -5,4.16 7.5,4.797 5,-4.477 M 17,21.281"
           id="path75"
           inkscape:connector-curvature="0"
           style="fill:#ffffff" />
        <path
           d="m 32,21.281 5,4.16 -7.5,4.797 -5,-4.477 m 7.5,-4.48"
           id="path77"
           inkscape:connector-curvature="0"
           style="fill:#ffffff" />
        <path
           d="m 12,16.801 5,4.48 7.5,-4.48 L 19.187,12 m -7.188,4.801"
           id="path79"
           inkscape:connector-curvature="0"
           style="fill:#ffffff" />
        <path
           d="m 37,16.801 -5,4.48 -7.5,-4.48 L 29.813,12 m 7.188,4.801"
           id="path81"
           inkscape:connector-curvature="0"
           style="fill:#ffffff" />
      </g>
    </g>
  </g>
</svg>
