<?xml version="1.0" encoding="UTF-8" standalone="no"?>
<!-- Created with Inkscape (http://www.inkscape.org/) -->

<svg
   xmlns:dc="http://purl.org/dc/elements/1.1/"
   xmlns:cc="http://creativecommons.org/ns#"
   xmlns:rdf="http://www.w3.org/1999/02/22-rdf-syntax-ns#"
   xmlns:svg="http://www.w3.org/2000/svg"
   xmlns="http://www.w3.org/2000/svg"
   xmlns:xlink="http://www.w3.org/1999/xlink"
   xmlns:sodipodi="http://sodipodi.sourceforge.net/DTD/sodipodi-0.dtd"
   xmlns:inkscape="http://www.inkscape.org/namespaces/inkscape"
   version="1.1"
   width="48"
   height="48"
   id="svg4031"
   inkscape:version="0.91 r"
   sodipodi:docname="fez.svg">
  <sodipodi:namedview
     pagecolor="#ffffff"
     bordercolor="#666666"
     borderopacity="1"
     objecttolerance="10"
     gridtolerance="10"
     guidetolerance="10"
     inkscape:pageopacity="0"
     inkscape:pageshadow="2"
     inkscape:window-width="1600"
     inkscape:window-height="845"
     id="namedview48"
     showgrid="false"
     showguides="false"
     inkscape:zoom="11.42"
     inkscape:cx="36.184568"
     inkscape:cy="20.822814"
     inkscape:window-x="0"
     inkscape:window-y="30"
     inkscape:window-maximized="1"
     inkscape:current-layer="svg4031" />
  <defs
     id="defs4033">
    <linearGradient
       id="linearGradient4168">
      <stop
         id="stop4170"
         style="stop-color:#f8b17e;stop-opacity:1"
         offset="0" />
      <stop
         id="stop4172"
         style="stop-color:#e35d4f;stop-opacity:1"
         offset="0.23208089" />
      <stop
         id="stop4174"
         style="stop-color:#c6262e;stop-opacity:1"
         offset="0.5908742" />
      <stop
         id="stop4176"
         style="stop-color:#690b54;stop-opacity:1"
         offset="1" />
    </linearGradient>
    <linearGradient
       id="linearGradient3957">
      <stop
         id="stop3959"
         style="stop-color:#ffffff;stop-opacity:1"
         offset="0" />
      <stop
         id="stop3961"
         style="stop-color:#c1c1c1;stop-opacity:1"
         offset="1" />
    </linearGradient>
    <linearGradient
       id="linearGradient4011">
      <stop
         id="stop4013"
         style="stop-color:#ffffff;stop-opacity:1"
         offset="0" />
      <stop
         id="stop4015"
         style="stop-color:#ffffff;stop-opacity:0.23529412"
         offset="0.507761" />
      <stop
         id="stop4017"
         style="stop-color:#ffffff;stop-opacity:0.15686275"
         offset="0.83456558" />
      <stop
         id="stop4019"
         style="stop-color:#ffffff;stop-opacity:0.39215687"
         offset="1" />
    </linearGradient>
    <linearGradient
       id="linearGradient2867-449-88-871-390-598-476-591-434-148-57-177-3-8">
      <stop
         id="stop3750-8-9"
         style="stop-color:#90dbec;stop-opacity:1"
         offset="0" />
      <stop
         id="stop3752-3-2"
         style="stop-color:#42baea;stop-opacity:1"
         offset="0.26238" />
      <stop
         id="stop3754-7-2"
         style="stop-color:#3689e6;stop-opacity:1"
         offset="0.704952" />
      <stop
         id="stop3756-9-3"
         style="stop-color:#2b63a0;stop-opacity:1"
         offset="1" />
    </linearGradient>
    <linearGradient
       id="linearGradient3820-7-2-1">
      <stop
         id="stop3822-2-6-3"
         style="stop-color:#3d3d3d;stop-opacity:1"
         offset="0" />
      <stop
         id="stop3864-8-7-7"
         style="stop-color:#686868;stop-opacity:0.49803922"
         offset="0.5" />
      <stop
         id="stop3824-1-2-5"
         style="stop-color:#686868;stop-opacity:0"
         offset="1" />
    </linearGradient>
    <linearGradient
       x1="71.204407"
       y1="6.2375584"
       x2="71.204407"
       y2="44.340794"
       id="linearGradient3012"
       xlink:href="#linearGradient4011"
       gradientUnits="userSpaceOnUse"
       gradientTransform="matrix(1.054054,0,0,1.054054,-51.611001,-2.7279009)" />
    <radialGradient
       cx="3.9722471"
       cy="8.4497671"
       r="19.99999"
       fx="3.9722471"
       fy="8.4497671"
       id="radialGradient3015"
       xlink:href="#linearGradient2867-449-88-871-390-598-476-591-434-148-57-177-3-8"
       gradientUnits="userSpaceOnUse"
       gradientTransform="matrix(0,2.4988347,-2.6434689,-6.8014435e-8,46.336814,-12.180468)" />
    <radialGradient
       cx="99.157013"
       cy="186.17059"
       r="62.769119"
       fx="99.157013"
       fy="186.17059"
       id="radialGradient3018"
       xlink:href="#linearGradient3820-7-2-1"
       gradientUnits="userSpaceOnUse"
       gradientTransform="matrix(0.27083381,0,0,0.08762273,-2.855072,25.187228)" />
    <linearGradient
       x1="27.92535"
       y1="15.149301"
       x2="33.447899"
       y2="22.986004"
       id="linearGradient3951"
       xlink:href="#linearGradient4168"
       gradientUnits="userSpaceOnUse"
       gradientTransform="translate(-37.016949,19.932203)" />
    <linearGradient
       x1="24"
       y1="22"
       x2="24"
       y2="26"
       id="linearGradient3963"
       xlink:href="#linearGradient3957"
       gradientUnits="userSpaceOnUse" />
    <linearGradient
       x1="21.013996"
       y1="25.433903"
       x2="22.805599"
       y2="27.343702"
       id="linearGradient3963-7"
       xlink:href="#linearGradient3957-2"
       gradientUnits="userSpaceOnUse"
       gradientTransform="translate(-19.118644,3.6610169)" />
    <linearGradient
       id="linearGradient3957-2">
      <stop
         id="stop3959-62"
         style="stop-color:#ffffff;stop-opacity:1"
         offset="0" />
      <stop
         id="stop3961-5"
         style="stop-color:#c1c1c1;stop-opacity:1"
         offset="1" />
    </linearGradient>
    <linearGradient
       id="linearGradient3851">
      <stop
         offset="0"
         style="stop-color:#000000;stop-opacity:0.43200001"
         id="stop3853" />
      <stop
         offset="1"
         style="stop-color:#000000;stop-opacity:0.627451"
         id="stop3855" />
    </linearGradient>
    <linearGradient
       gradientTransform="matrix(1,0,0,-1,0,48.519105)"
       gradientUnits="userSpaceOnUse"
       xlink:href="#linearGradient3851"
       id="linearGradient4326"
       y2="36.949589"
       x2="23.06352"
       y1="12.978221"
       x1="23.06352" />
    <linearGradient
       gradientUnits="userSpaceOnUse"
       xlink:href="#linearGradient3851"
       id="linearGradient4320"
       y2="36.949589"
       x2="23.06352"
       y1="12.978221"
       x1="23.06352"
       gradientTransform="translate(0,-1.4930417)" />
    <linearGradient
       gradientUnits="userSpaceOnUse"
       xlink:href="#linearGradient3707-319-631-407-324-616"
       id="linearGradient4273"
       y2="4.9969058"
       x2="19.927404"
       y1="44.949184"
       x1="19.927404"
       gradientTransform="matrix(0.83333322,0,0,0.83333322,3.9999996,3.1666681)" />
    <linearGradient
       id="linearGradient3707-319-631-407-324-616">
      <stop
         offset="0"
         style="stop-color:#505050;stop-opacity:1"
         id="stop3246" />
      <stop
         offset="1"
         style="stop-color:#8e8e8e;stop-opacity:1"
         id="stop3248" />
    </linearGradient>
    <linearGradient
       gradientTransform="translate(-57.362519,-8.0236327)"
       gradientUnits="userSpaceOnUse"
       xlink:href="#linearGradient3924-803"
       id="linearGradient3473"
       y2="43"
       x2="23.99999"
       y1="4.999989"
       x1="23.99999" />
    <linearGradient
       id="linearGradient3924-803">
      <stop
         offset="0"
         style="stop-color:#ffffff;stop-opacity:1"
         id="stop3252" />
      <stop
         offset="0.06316455"
         style="stop-color:#ffffff;stop-opacity:0.23529412"
         id="stop3254" />
      <stop
         offset="0.95056331"
         style="stop-color:#ffffff;stop-opacity:0.15686275"
         id="stop3256" />
      <stop
         offset="1"
         style="stop-color:#ffffff;stop-opacity:0.39215687"
         id="stop3258" />
    </linearGradient>
    <radialGradient
       gradientTransform="matrix(1.8930301e-8,2.2770672,-2.4088655,-4.1952268e-8,-13.008071,-19.524216)"
       gradientUnits="userSpaceOnUse"
       xlink:href="#linearGradient2867-449-88-871-390-598-476-591-434-148-57-177-641"
       id="radialGradient3476"
       fy="8.4497671"
       fx="7.4956832"
       r="19.99999"
       cy="8.4497671"
       cx="7.4956832" />
    <linearGradient
       id="linearGradient2867-449-88-871-390-598-476-591-434-148-57-177-641">
      <stop
         offset="0"
         style="stop-color:#c7c7c7;stop-opacity:1"
         id="stop3236" />
      <stop
         offset="0.26238"
         style="stop-color:#a6a6a6;stop-opacity:1"
         id="stop3238" />
      <stop
         offset="0.704952"
         style="stop-color:#7b7b7b;stop-opacity:1"
         id="stop3240" />
      <stop
         offset="1"
         style="stop-color:#595959;stop-opacity:1"
         id="stop3242" />
    </linearGradient>
    <radialGradient
       gradientTransform="matrix(2.003784,0,0,1.4,27.98813,-17.4)"
       gradientUnits="userSpaceOnUse"
       xlink:href="#linearGradient3688-166-749-2-324"
       id="radialGradient3013-896"
       fy="43.5"
       fx="4.9929786"
       r="2.5"
       cy="43.5"
       cx="4.9929786" />
    <linearGradient
       id="linearGradient3688-166-749-2-324">
      <stop
         offset="0"
         style="stop-color:#181818;stop-opacity:1"
         id="stop3216" />
      <stop
         offset="1"
         style="stop-color:#181818;stop-opacity:0"
         id="stop3218" />
    </linearGradient>
    <radialGradient
       gradientTransform="matrix(2.003784,0,0,1.4,-20.01187,-104.4)"
       gradientUnits="userSpaceOnUse"
       xlink:href="#linearGradient3688-166-749-2-324"
       id="radialGradient3015-826"
       fy="43.5"
       fx="4.9929786"
       r="2.5"
       cy="43.5"
       cx="4.9929786" />
    <linearGradient
       id="linearGradient3702-501-757-6-946">
      <stop
         offset="0"
         style="stop-color:#181818;stop-opacity:0"
         id="stop3228" />
      <stop
         offset="0.5"
         style="stop-color:#181818;stop-opacity:1"
         id="stop3230" />
      <stop
         offset="1"
         style="stop-color:#181818;stop-opacity:0"
         id="stop3232" />
    </linearGradient>
    <linearGradient
       gradientUnits="userSpaceOnUse"
       xlink:href="#linearGradient3702-501-757-6-946"
       id="linearGradient4395"
       y2="39.999443"
       x2="25.058096"
       y1="47.027729"
       x1="25.058096" />
    <linearGradient
       gradientTransform="translate(-16.076816,-9.0236427)"
       gradientUnits="userSpaceOnUse"
       xlink:href="#linearGradient3851"
       id="linearGradient3857"
       y2="44.858185"
       x2="0.85715157"
       y1="5.7142859"
       x1="0.85715157" />
    <linearGradient
       id="linearGradient665">
      <stop
         id="stop666"
         offset="0.00000000"
         style="stop-color:#ffffff;stop-opacity:0.285714;" />
      <stop
         id="stop667"
         offset="1.00000000"
         style="stop-color:#daecf8;stop-opacity:1;" />
    </linearGradient>
    <linearGradient
       id="linearGradient624">
      <stop
         id="stop625"
         offset="0.00000000"
         style="stop-color:#b9e5ff;stop-opacity:0.419643;" />
      <stop
         id="stop626"
         offset="1.00000000"
         style="stop-color:#ffffff;stop-opacity:1;" />
    </linearGradient>
    <linearGradient
       id="linearGradient619">
      <stop
         id="stop620"
         offset="0.00000000"
         style="stop-color:#66b8ff;stop-opacity:1;" />
      <stop
         id="stop621"
         offset="1.00000000"
         style="stop-color:#00507a;stop-opacity:1;" />
    </linearGradient>
    <linearGradient
       id="linearGradient604">
      <stop
         id="stop605"
         offset="0.00000000"
         style="stop-color:#838383;stop-opacity:1;" />
      <stop
         id="stop606"
         offset="1.00000000"
         style="stop-color:#2c2c2c;stop-opacity:1;" />
    </linearGradient>
    <linearGradient
       id="linearGradient598">
      <stop
         id="stop599"
         offset="0.00000000"
         style="stop-color:#e1dedd;stop-opacity:0.866071;" />
      <stop
         id="stop600"
         offset="1.00000000"
         style="stop-color:#2c2c2c;stop-opacity:1;" />
    </linearGradient>
    <linearGradient
       id="linearGradient593">
      <stop
         id="stop594"
         offset="0.00000000"
         style="stop-color:#fff9db;stop-opacity:0.732143;" />
      <stop
         id="stop595"
         offset="1.00000000"
         style="stop-color:#2c2c2c;stop-opacity:1;" />
    </linearGradient>
    <linearGradient
       id="linearGradient586">
      <stop
         id="stop587"
         offset="0.00000000"
         style="stop-color:#6e6969;stop-opacity:1;" />
      <stop
         id="stop588"
         offset="1.00000000"
         style="stop-color:#2c2c2c;stop-opacity:1;" />
    </linearGradient>
    <linearGradient
       id="linearGradient578">
      <stop
         id="stop579"
         offset="0.00000000"
         style="stop-color:#fff2bc;stop-opacity:1;" />
      <stop
         id="stop580"
         offset="1.00000000"
         style="stop-color:#83560b;stop-opacity:1;" />
    </linearGradient>
    <linearGradient
       y2="279.76099"
       x2="656.45555"
       y1="231.00583"
       x1="596.05675"
       id="linearGradient581"
       xlink:href="#linearGradient578"
       gradientTransform="matrix(0.04557033,0,0,0.07062133,3.1833797,1.0604886)"
       gradientUnits="userSpaceOnUse" />
    <radialGradient
       fy="0.50000000"
       fx="0.50000000"
       r="0.50000000"
       cy="0.50000000"
       cx="0.50000000"
       id="radialGradient582"
       xlink:href="#linearGradient578" />
    <linearGradient
       y2="264.66051"
       x2="908.4478"
       y1="160.6253"
       x1="779.71681"
       id="linearGradient590"
       xlink:href="#linearGradient593"
       gradientTransform="matrix(0.74212107,0,0,1.347489,-928.13501,-522.70223)"
       gradientUnits="userSpaceOnUse" />
    <linearGradient
       y2="0.53906250"
       x2="0.31958762"
       y1="0.49218750"
       x1="0.19587629"
       id="linearGradient592"
       xlink:href="#linearGradient586" />
    <linearGradient
       y2="0.38281250"
       x2="0.66666669"
       y1="0.25781250"
       x1="0.49333334"
       id="linearGradient597"
       xlink:href="#linearGradient598" />
    <linearGradient
       y2="0.10937500"
       x2="0.43835616"
       y1="0.37500000"
       x1="0.83076924"
       id="linearGradient603"
       xlink:href="#linearGradient604" />
    <linearGradient
       y2="0.92968750"
       x2="0.97674412"
       y1="0.37500000"
       x1="0.41085270"
       id="linearGradient618"
       xlink:href="#linearGradient665" />
    <linearGradient
       y2="425.86215"
       x2="411.61445"
       y1="74.221018"
       x1="273.65717"
       id="linearGradient623"
       xlink:href="#linearGradient624"
       gradientTransform="matrix(0.04064714,0,0,0.07917501,2.833117,1.2356199)"
       gradientUnits="userSpaceOnUse" />
    <linearGradient
       y2="598.45589"
       x2="332.64537"
       y1="-72.169076"
       x1="34.350778"
       id="linearGradient664"
       xlink:href="#linearGradient619"
       gradientUnits="userSpaceOnUse"
       gradientTransform="matrix(0.832278,0,0,0.846654,-1182.4079,-22.878397)" />
    <clipPath
       id="clipPath-728235023">
      <g
         transform="translate(0,-1004.3622)"
         id="g17">
        <path
           style="fill:#1890d0"
           inkscape:connector-curvature="0"
           d="m -24,13 c 0,1.105 -0.672,2 -1.5,2 -0.828,0 -1.5,-0.895 -1.5,-2 0,-1.105 0.672,-2 1.5,-2 0.828,0 1.5,0.895 1.5,2 z"
           transform="matrix(15.333333,0,0,11.5,414.99999,878.8622)"
           id="path19" />
      </g>
    </clipPath>
  </defs>
  <metadata
     id="metadata4036">
    <rdf:RDF>
      <cc:Work
         rdf:about="">
        <dc:format>image/svg+xml</dc:format>
        <dc:type
           rdf:resource="http://purl.org/dc/dcmitype/StillImage" />
        <dc:title></dc:title>
      </cc:Work>
    </rdf:RDF>
  </metadata>
  <g
     id="g4262"
     transform="matrix(0.06933696,0,0,0.06782488,40.269957,22.327111)" />
  <g
     id="g4388">
    <path
       style="fill:url(#radialGradient3018);fill-opacity:1;stroke:none"
       id="path3818-0-5"
       d="m 40.999999,41.499999 a 17,5.4999999 0 1 1 -33.999999,0 17,5.4999999 0 1 1 33.999999,0 z"
       inkscape:connector-curvature="0" />
    <path
       style="color:#000000;display:inline;overflow:visible;visibility:visible;fill:url(#radialGradient3015);fill-opacity:1;fill-rule:nonzero;stroke:none;stroke-width:1;marker:none;enable-background:accumulate"
       id="path2555"
       d="M 24.000003,3.4999982 C 12.68881,3.4999982 3.4999996,12.688804 3.4999996,23.999998 3.4999996,35.311192 12.68881,44.500003 24.000003,44.5 35.311191,44.5 44.500011,35.311192 44.5,23.999998 44.5,12.688804 35.311191,3.4999982 24.000003,3.4999982 Z"
       inkscape:connector-curvature="0" />
    <path
       style="color:#000000;display:inline;overflow:visible;visibility:visible;opacity:0.5;fill:none;stroke:url(#linearGradient3012);stroke-width:1;stroke-linecap:round;stroke-linejoin:round;stroke-miterlimit:4;stroke-dasharray:none;stroke-dashoffset:0;stroke-opacity:1;marker:none;enable-background:accumulate"
       id="path8655"
       d="m 43.5,23.999308 c 0,10.7699 -8.73109,19.50069 -19.499753,19.50069 -10.769649,0 -19.5002474,-8.730889 -19.5002474,-19.50069 0,-10.769402 8.7305984,-19.4993078 19.5002474,-19.4993078 C 34.76891,4.5000002 43.5,13.229906 43.5,23.999308 l 0,0 z"
       inkscape:connector-curvature="0" />
    <path
       style="color:#000000;display:inline;overflow:visible;visibility:visible;opacity:0.5;fill:#000000;fill-opacity:0;fill-rule:nonzero;stroke:#00537d;stroke-width:1;stroke-linecap:round;stroke-linejoin:round;stroke-miterlimit:4;stroke-dasharray:none;stroke-dashoffset:0;stroke-opacity:1;marker:none;enable-background:accumulate"
       id="path2555-6"
       d="m 24.000003,3.499998 c -11.311193,0 -20.5000034,9.188806 -20.5000034,20.5 0,11.311194 9.1888104,20.500005 20.5000034,20.500002 11.311188,0 20.500008,-9.188808 20.499997,-20.500002 0,-11.311194 -9.188809,-20.5 -20.499997,-20.5 z"
       inkscape:connector-curvature="0" />
    <g
       style="fill:#000000;fill-opacity:1;opacity:0.15"
       id="g4370"
       transform="translate(0,1.3472986)">
      <rect
         transform="matrix(0.99764465,-0.06859414,0.06859414,0.99764465,0,0)"
         ry="2.290633"
         rx="2.2906327"
         y="20.701534"
         x="11.820292"
         height="16"
         width="24"
         id="rect4372"
         style="opacity:1;fill:#000000;fill-opacity:1;stroke:none;stroke-width:2.0999999;stroke-linecap:round;stroke-linejoin:round;stroke-miterlimit:4;stroke-dasharray:none;stroke-opacity:1" />
      <ellipse
         ry="2"
         rx="1.5"
         cy="25.778093"
         cx="18.161821"
         id="ellipse4374"
         style="opacity:1;fill:#000000;fill-opacity:1;stroke:none;stroke-width:2.0999999;stroke-linecap:round;stroke-linejoin:round;stroke-miterlimit:4;stroke-dasharray:none;stroke-opacity:1" />
      <path
         sodipodi:nodetypes="ccscscccc"
         inkscape:connector-curvature="0"
         id="path4376"
         d="m 17.217503,12.999755 0.719359,1.027996 c 0,0 -3.261869,0.969313 -4.131986,2.277542 -0.956126,1.437546 -0.433662,5.004066 -0.433662,5.004066 0,0 0.04415,2.067419 -0.649598,2.661049 -0.35858,0.306831 -1.410796,0.119075 -1.410796,0.119075 l 0.465387,-6.917099 1.490854,-2.509581 z"
         style="opacity:1;fill:#000000;fill-opacity:1;stroke:none;stroke-width:2.0999999;stroke-linecap:round;stroke-linejoin:round;stroke-miterlimit:4;stroke-dasharray:none;stroke-opacity:1" />
      <path
         style="fill:#000000;fill-opacity:1"
         d="m 18.692533,23.418242 c -1.312494,0.199244 -2.908786,0.136554 -4.270535,-0.167714 l -0.873949,-0.195275 -0.222996,0.317031 c -0.449841,0.639536 -0.942438,0.949155 -1.460359,0.9179 -0.709552,-0.04282 -1.015694,-0.746775 -0.7933,-1.824149 0.06598,-0.319645 0.171708,-1.220927 0.234946,-2.00285 0.217561,-2.690083 0.542886,-4.049121 1.216893,-5.083533 0.124162,-0.190554 0.256711,-0.449278 0.294555,-0.574944 0.09935,-0.329905 0.58465,-0.696787 1.477835,-1.117227 1.093221,-0.514602 4.518724,-1.494484 5.978023,-1.710042 1.648773,-0.243547 2.390035,-0.201456 2.679038,0.152122 0.08672,0.106095 0.946889,1.529686 1.911492,3.163536 0.964603,1.633849 1.833009,3.097215 1.929792,3.251923 0.21623,0.345643 0.20073,0.385688 -0.407452,1.05268 -1.166172,1.278938 -2.606982,2.246831 -4.361127,2.929675 -0.737231,0.286985 -2.554236,0.772668 -3.332855,0.890869 z m -6.060805,0.210236 c 0.416394,-0.321554 0.477511,-0.89055 0.420677,-3.91652 -0.04439,-2.36344 0.0064,-2.879312 0.349476,-3.549317 0.45761,-0.893694 1.187597,-1.371255 2.730605,-1.786375 1.158241,-0.311604 1.430589,-0.426463 1.359304,-0.573264 -0.08208,-0.169038 -0.550172,-0.09397 -2.020852,0.324082 l -1.394463,0.396387 -0.404754,0.343808 c -0.779188,0.661859 -1.349952,1.91265 -1.603115,3.513117 -0.07091,0.448267 -0.17824,1.437665 -0.238518,2.198664 -0.06028,0.760998 -0.16959,1.656779 -0.242917,1.990624 -0.147876,0.673251 -0.09657,1.07498 0.152867,1.196965 0.295629,0.144575 0.583264,0.100004 0.89169,-0.138171 z"
         id="path4378"
         inkscape:connector-curvature="0" />
      <path
         style="fill:#000000;fill-opacity:1"
         d="m 18.692533,23.418242 c -1.312494,0.199244 -2.908786,0.136554 -4.270535,-0.167714 l -0.873949,-0.195275 -0.222996,0.317031 c -0.449841,0.639536 -0.942438,0.949155 -1.460359,0.9179 -0.709552,-0.04282 -1.015694,-0.746775 -0.7933,-1.824149 0.06598,-0.319645 0.171708,-1.220927 0.234946,-2.00285 0.217561,-2.690083 0.542886,-4.049121 1.216893,-5.083533 0.124162,-0.190554 0.256711,-0.449278 0.294555,-0.574944 0.09935,-0.329905 0.58465,-0.696787 1.477835,-1.117227 1.093221,-0.514602 4.518724,-1.494484 5.978023,-1.710042 1.648773,-0.243547 2.390035,-0.201456 2.679038,0.152122 0.08672,0.106095 0.946889,1.529686 1.911492,3.163536 0.964603,1.633849 1.833009,3.097215 1.929792,3.251923 0.21623,0.345643 0.20073,0.385688 -0.407452,1.05268 -1.166172,1.278938 -2.606982,2.246831 -4.361127,2.929675 -0.737231,0.286985 -2.554236,0.772668 -3.332855,0.890869 z m 3.001053,-1.679657 c 1.850039,-0.703724 3.47663,-1.834806 3.997681,-2.779866 L 25.860222,18.652278 24.292688,16.0148 c -0.862144,-1.450613 -1.597784,-2.655712 -1.634756,-2.677998 -0.03697,-0.02229 -0.355062,0.102398 -0.706868,0.277076 -1.081237,0.536856 -2.176761,0.90343 -4.201277,1.405794 -1.03301,0.256331 -2.170601,0.502907 -2.527982,0.547947 -0.772218,0.09732 -0.916213,0.182829 -1.249901,0.742224 -0.258638,0.433582 -0.328753,0.712208 -0.344186,1.367743 -0.0231,0.981033 0.02213,4.132671 0.0614,4.279252 0.09462,0.353124 1.523088,0.752434 2.771942,0.774861 0.580932,0.01043 1.734032,-0.08851 2.395065,-0.205508 0.65156,-0.115321 2.200009,-0.545132 2.837457,-0.787606 z m -8.87482,1.715532 c 0.276947,-0.44363 0.318444,-1.076965 0.256111,-3.908802 -0.04822,-2.190687 0.02425,-2.813251 0.404067,-3.47111 0.491535,-0.851365 1.279735,-1.33091 2.902,-1.765595 0.773212,-0.207181 1.039607,-0.303492 1.120684,-0.405163 0.08734,-0.109524 0.08619,-0.145219 -0.0064,-0.199596 -0.08501,-0.04992 -0.49246,0.03005 -1.655862,0.325029 -1.776708,0.450476 -1.999824,0.554546 -2.561689,1.19487 -0.849333,0.967931 -1.26272,2.5012 -1.486112,5.512039 -0.05029,0.677798 -0.143655,1.444003 -0.207479,1.702676 -0.294522,1.193678 -0.04253,1.624059 0.783021,1.337322 0.223016,-0.07746 0.360194,-0.175158 0.451659,-0.32167 z M 20.81559,13.187849 c 0.715734,-0.291364 0.964506,-0.4509 0.777196,-0.498413 -0.202894,-0.05147 -1.73063,0.183316 -2.663274,0.409288 l -0.85857,0.208025 0.03909,0.318942 c 0.0215,0.175418 0.06262,0.34226 0.09138,0.37076 0.06291,0.06234 1.777529,-0.468016 2.614176,-0.808602 z"
         id="path4380"
         inkscape:connector-curvature="0" />
      <ellipse
         transform="matrix(0.99003381,-0.14082985,0.14082985,0.99003381,0,0)"
         style="opacity:1;fill:#000000;fill-opacity:1;stroke:none;stroke-width:2.0999999;stroke-linecap:round;stroke-linejoin:round;stroke-miterlimit:4;stroke-dasharray:none;stroke-opacity:1"
         id="ellipse4382"
         cx="28.847425"
         cy="27.626673"
         rx="1.5"
         ry="2" />
      <path
         sodipodi:nodetypes="sssss"
         inkscape:connector-curvature="0"
         id="path4384"
         d="m 30.502282,29.240974 c 0.178418,1.552854 -1.763018,3.051374 -4.336318,3.347039 -2.5733,0.295665 -4.80401,-0.723489 -4.982428,-2.276343 -0.178417,-1.552853 2.227708,-1.368348 4.801008,-1.664013 2.5733,-0.295664 4.339319,-0.959537 4.517738,0.593317 z"
         style="opacity:1;fill:#000000;fill-opacity:1;stroke:none;stroke-width:2.0999999;stroke-linecap:round;stroke-linejoin:round;stroke-miterlimit:4;stroke-dasharray:none;stroke-opacity:1" />
      <ellipse
         transform="matrix(0.99826192,-0.05893337,0.05893337,0.99826192,0,0)"
         ry="0.77614379"
         rx="2.3488562"
         cy="33.021595"
         cx="24.153379"
         id="ellipse4386"
         style="opacity:1;fill:#000000;fill-opacity:1;stroke:none;stroke-width:2.0999999;stroke-linecap:round;stroke-linejoin:round;stroke-miterlimit:4;stroke-dasharray:none;stroke-opacity:1" />
    </g>
    <g
       transform="translate(0,0.34729857)"
       id="g4342">
      <rect
         style="opacity:1;fill:#ffffff;fill-opacity:1;stroke:none;stroke-width:2.0999999;stroke-linecap:round;stroke-linejoin:round;stroke-miterlimit:4;stroke-dasharray:none;stroke-opacity:1"
         id="rect4298"
         width="24"
         height="16"
         x="11.820292"
         y="20.701534"
         rx="2.2906327"
         ry="2.290633"
         transform="matrix(0.99764465,-0.06859414,0.06859414,0.99764465,0,0)" />
      <ellipse
         style="opacity:1;fill:#2a1e21;fill-opacity:1;stroke:none;stroke-width:2.0999999;stroke-linecap:round;stroke-linejoin:round;stroke-miterlimit:4;stroke-dasharray:none;stroke-opacity:1"
         id="path4300"
         cx="18.161821"
         cy="25.778093"
         rx="1.5"
         ry="2" />
      <path
         style="opacity:1;fill:#f7d460;fill-opacity:1;stroke:none;stroke-width:2.0999999;stroke-linecap:round;stroke-linejoin:round;stroke-miterlimit:4;stroke-dasharray:none;stroke-opacity:1"
         d="m 17.217503,12.999755 0.719359,1.027996 c 0,0 -3.261869,0.969313 -4.131986,2.277542 -0.956126,1.437546 -0.433662,5.004066 -0.433662,5.004066 0,0 0.04415,2.067419 -0.649598,2.661049 -0.35858,0.306831 -1.410796,0.119075 -1.410796,0.119075 l 0.465387,-6.917099 1.490854,-2.509581 z"
         id="rect4309"
         inkscape:connector-curvature="0"
         sodipodi:nodetypes="ccscscccc" />
      <path
         inkscape:connector-curvature="0"
         id="path4294"
         d="m 18.692533,23.418242 c -1.312494,0.199244 -2.908786,0.136554 -4.270535,-0.167714 l -0.873949,-0.195275 -0.222996,0.317031 c -0.449841,0.639536 -0.942438,0.949155 -1.460359,0.9179 -0.709552,-0.04282 -1.015694,-0.746775 -0.7933,-1.824149 0.06598,-0.319645 0.171708,-1.220927 0.234946,-2.00285 0.217561,-2.690083 0.542886,-4.049121 1.216893,-5.083533 0.124162,-0.190554 0.256711,-0.449278 0.294555,-0.574944 0.09935,-0.329905 0.58465,-0.696787 1.477835,-1.117227 1.093221,-0.514602 4.518724,-1.494484 5.978023,-1.710042 1.648773,-0.243547 2.390035,-0.201456 2.679038,0.152122 0.08672,0.106095 0.946889,1.529686 1.911492,3.163536 0.964603,1.633849 1.833009,3.097215 1.929792,3.251923 0.21623,0.345643 0.20073,0.385688 -0.407452,1.05268 -1.166172,1.278938 -2.606982,2.246831 -4.361127,2.929675 -0.737231,0.286985 -2.554236,0.772668 -3.332855,0.890869 z m -6.060805,0.210236 c 0.416394,-0.321554 0.477511,-0.89055 0.420677,-3.91652 -0.04439,-2.36344 0.0064,-2.879312 0.349476,-3.549317 0.45761,-0.893694 1.187597,-1.371255 2.730605,-1.786375 1.158241,-0.311604 1.430589,-0.426463 1.359304,-0.573264 -0.08208,-0.169038 -0.550172,-0.09397 -2.020852,0.324082 l -1.394463,0.396387 -0.404754,0.343808 c -0.779188,0.661859 -1.349952,1.91265 -1.603115,3.513117 -0.07091,0.448267 -0.17824,1.437665 -0.238518,2.198664 -0.06028,0.760998 -0.16959,1.656779 -0.242917,1.990624 -0.147876,0.673251 -0.09657,1.07498 0.152867,1.196965 0.295629,0.144575 0.583264,0.100004 0.89169,-0.138171 z"
         style="fill:#f74863;fill-opacity:1" />
      <path
         inkscape:connector-curvature="0"
         id="path4292"
         d="m 18.692533,23.418242 c -1.312494,0.199244 -2.908786,0.136554 -4.270535,-0.167714 l -0.873949,-0.195275 -0.222996,0.317031 c -0.449841,0.639536 -0.942438,0.949155 -1.460359,0.9179 -0.709552,-0.04282 -1.015694,-0.746775 -0.7933,-1.824149 0.06598,-0.319645 0.171708,-1.220927 0.234946,-2.00285 0.217561,-2.690083 0.542886,-4.049121 1.216893,-5.083533 0.124162,-0.190554 0.256711,-0.449278 0.294555,-0.574944 0.09935,-0.329905 0.58465,-0.696787 1.477835,-1.117227 1.093221,-0.514602 4.518724,-1.494484 5.978023,-1.710042 1.648773,-0.243547 2.390035,-0.201456 2.679038,0.152122 0.08672,0.106095 0.946889,1.529686 1.911492,3.163536 0.964603,1.633849 1.833009,3.097215 1.929792,3.251923 0.21623,0.345643 0.20073,0.385688 -0.407452,1.05268 -1.166172,1.278938 -2.606982,2.246831 -4.361127,2.929675 -0.737231,0.286985 -2.554236,0.772668 -3.332855,0.890869 z m 3.001053,-1.679657 c 1.850039,-0.703724 3.47663,-1.834806 3.997681,-2.779866 L 25.860222,18.652278 24.292688,16.0148 c -0.862144,-1.450613 -1.597784,-2.655712 -1.634756,-2.677998 -0.03697,-0.02229 -0.355062,0.102398 -0.706868,0.277076 -1.081237,0.536856 -2.176761,0.90343 -4.201277,1.405794 -1.03301,0.256331 -2.170601,0.502907 -2.527982,0.547947 -0.772218,0.09732 -0.916213,0.182829 -1.249901,0.742224 -0.258638,0.433582 -0.328753,0.712208 -0.344186,1.367743 -0.0231,0.981033 0.02213,4.132671 0.0614,4.279252 0.09462,0.353124 1.523088,0.752434 2.771942,0.774861 0.580932,0.01043 1.734032,-0.08851 2.395065,-0.205508 0.65156,-0.115321 2.200009,-0.545132 2.837457,-0.787606 z m -8.87482,1.715532 c 0.276947,-0.44363 0.318444,-1.076965 0.256111,-3.908802 -0.04822,-2.190687 0.02425,-2.813251 0.404067,-3.47111 0.491535,-0.851365 1.279735,-1.33091 2.902,-1.765595 0.773212,-0.207181 1.039607,-0.303492 1.120684,-0.405163 0.08734,-0.109524 0.08619,-0.145219 -0.0064,-0.199596 -0.08501,-0.04992 -0.49246,0.03005 -1.655862,0.325029 -1.776708,0.450476 -1.999824,0.554546 -2.561689,1.19487 -0.849333,0.967931 -1.26272,2.5012 -1.486112,5.512039 -0.05029,0.677798 -0.143655,1.444003 -0.207479,1.702676 -0.294522,1.193678 -0.04253,1.624059 0.783021,1.337322 0.223016,-0.07746 0.360194,-0.175158 0.451659,-0.32167 z M 20.81559,13.187849 c 0.715734,-0.291364 0.964506,-0.4509 0.777196,-0.498413 -0.202894,-0.05147 -1.73063,0.183316 -2.663274,0.409288 l -0.85857,0.208025 0.03909,0.318942 c 0.0215,0.175418 0.06262,0.34226 0.09138,0.37076 0.06291,0.06234 1.777529,-0.468016 2.614176,-0.808602 z"
         style="fill:#2a1e21" />
      <ellipse
         ry="2"
         rx="1.5"
         cy="27.626673"
         cx="28.847425"
         id="ellipse4302"
         style="opacity:1;fill:#2a1e21;fill-opacity:1;stroke:none;stroke-width:2.0999999;stroke-linecap:round;stroke-linejoin:round;stroke-miterlimit:4;stroke-dasharray:none;stroke-opacity:1"
         transform="matrix(0.99003381,-0.14082985,0.14082985,0.99003381,0,0)" />
      <path
         style="opacity:1;fill:#2a1e21;fill-opacity:1;stroke:none;stroke-width:2.0999999;stroke-linecap:round;stroke-linejoin:round;stroke-miterlimit:4;stroke-dasharray:none;stroke-opacity:1"
         d="m 30.502282,29.240974 c 0.178418,1.552854 -1.763018,3.051374 -4.336318,3.347039 -2.5733,0.295665 -4.80401,-0.723489 -4.982428,-2.276343 -0.178417,-1.552853 2.227708,-1.368348 4.801008,-1.664013 2.5733,-0.295664 4.339319,-0.959537 4.517738,0.593317 z"
         id="path4304"
         inkscape:connector-curvature="0"
         sodipodi:nodetypes="sssss" />
      <ellipse
         style="opacity:1;fill:#f74863;fill-opacity:1;stroke:none;stroke-width:2.0999999;stroke-linecap:round;stroke-linejoin:round;stroke-miterlimit:4;stroke-dasharray:none;stroke-opacity:1"
         id="path4307"
         cx="24.153379"
         cy="33.021595"
         rx="2.3488562"
         ry="0.77614379"
         transform="matrix(0.99826192,-0.05893337,0.05893337,0.99826192,0,0)" />
    </g>
  </g>
</svg>
