<?xml version="1.0" encoding="UTF-8" standalone="no"?>
<!-- Created with Inkscape (http://www.inkscape.org/) -->
<svg id="svg4031" xmlns:rdf="http://www.w3.org/1999/02/22-rdf-syntax-ns#" xmlns="http://www.w3.org/2000/svg" height="48" width="48" version="1.1" xmlns:cc="http://creativecommons.org/ns#" xmlns:xlink="http://www.w3.org/1999/xlink" xmlns:dc="http://purl.org/dc/elements/1.1/">
 <defs id="defs4033">
  <linearGradient id="linearGradient3012" y2="44.341" gradientUnits="userSpaceOnUse" x2="71.204" gradientTransform="matrix(1.0541 0 0 1.0541 -51.611 -2.7279)" y1="6.2376" x1="71.204">
   <stop id="stop4013" stop-color="#fff" offset="0"/>
   <stop id="stop4015" stop-color="#fff" stop-opacity=".23529" offset=".50776"/>
   <stop id="stop4017" stop-color="#fff" stop-opacity=".15686" offset=".83457"/>
   <stop id="stop4019" stop-color="#fff" stop-opacity=".39216" offset="1"/>
  </linearGradient>
  <radialGradient id="radialGradient3015" gradientUnits="userSpaceOnUse" cy="8.4498" cx="3.9722" gradientTransform="matrix(0 2.4988 -2.6435 -6.8014e-8 46.337 -12.18)" r="20">
   <stop id="stop3750-8-9" stop-color="#90dbec" offset="0"/>
   <stop id="stop3752-3-2" stop-color="#42baea" offset=".26238"/>
   <stop id="stop3754-7-2" stop-color="#3689e6" offset=".70495"/>
   <stop id="stop3756-9-3" stop-color="#2b63a0" offset="1"/>
  </radialGradient>
  <radialGradient id="radialGradient3018" gradientUnits="userSpaceOnUse" cy="186.17" cx="99.157" gradientTransform="matrix(.27083 0 0 .087623 -2.8551 25.187)" r="62.769">
   <stop id="stop3822-2-6-3" stop-color="#3d3d3d" offset="0"/>
   <stop id="stop3864-8-7-7" stop-color="#686868" stop-opacity=".49804" offset=".5"/>
   <stop id="stop3824-1-2-5" stop-color="#686868" stop-opacity="0" offset="1"/>
  </radialGradient>
 </defs>
 <metadata id="metadata4036">
  <rdf:RDF>
   <cc:Work rdf:about="">
    <dc:format>image/svg+xml</dc:format>
    <dc:type rdf:resource="http://purl.org/dc/dcmitype/StillImage"/>
    <dc:title/>
   </cc:Work>
  </rdf:RDF>
 </metadata>
 <g id="g4388">
  <path id="path3818-0-5" fill="url(#radialGradient3018)" d="m41 41.5a17 5.5 0 1 1 -34 0 17 5.5 0 1 1 34 0z"/>
  <path id="path2555" style="color:#000000" d="m24 3.5c-11.311 0-20.5 9.189-20.5 20.5s9.189 20.5 20.5 20.5 20.5-9.189 20.5-20.5-9.189-20.5-20.5-20.5z" fill="url(#radialGradient3015)"/>
  <path id="path8655" opacity=".5" stroke-linejoin="round" style="color:#000000" d="m43.5 23.999c0 10.77-8.7311 19.501-19.5 19.501-10.77 0-19.5-8.7309-19.5-19.501 0-10.769 8.7306-19.499 19.5-19.499s19.5 8.73 19.5 19.499v0z" stroke="url(#linearGradient3012)" stroke-linecap="round" fill="none"/>
  <path id="path2555-6" opacity=".5" stroke-linejoin="round" style="color:#000000" d="m24 3.5c-11.311 0-20.5 9.1888-20.5 20.5s9.1888 20.5 20.5 20.5 20.5-9.1888 20.5-20.5-9.1888-20.5-20.5-20.5z" fill-opacity="0" stroke="#00537d" stroke-linecap="round"/>
  <g id="g4370" opacity=".15" transform="translate(0 1.3473)">
   <rect id="rect4372" opacity="1" ry="2.2906" rx="2.2906" transform="rotate(-3.9332)" height="16" width="24" y="20.702" x="11.82"/>
   <ellipse id="ellipse4374" opacity="1" rx="1.5" ry="2" cy="25.778" cx="18.162"/>
   <path id="path4376" opacity="1" d="m17.218 13 0.71936 1.028s-3.2619 0.96931-4.132 2.2775c-0.95613 1.4375-0.43366 5.0041-0.43366 5.0041s0.04415 2.0674-0.6496 2.661c-0.35858 0.30683-1.4108 0.11908-1.4108 0.11908l0.46539-6.9171 1.4909-2.5096z"/>
   <path id="path4378" d="m18.693 23.418c-1.3125 0.19924-2.9088 0.13655-4.2705-0.16771l-0.87395-0.19528-0.223 0.31703c-0.44984 0.63954-0.94244 0.94916-1.4604 0.9179-0.70955-0.04282-1.0157-0.74678-0.7933-1.8241 0.06598-0.31964 0.17171-1.2209 0.23495-2.0028 0.21756-2.6901 0.54289-4.0491 1.2169-5.0835 0.12416-0.19055 0.25671-0.44928 0.29456-0.57494 0.09935-0.3299 0.58465-0.69679 1.4778-1.1172 1.0932-0.5146 4.5187-1.4945 5.978-1.71 1.6488-0.24355 2.39-0.20146 2.679 0.15212 0.08672 0.1061 0.94689 1.5297 1.9115 3.1635 0.9646 1.6338 1.833 3.0972 1.9298 3.2519 0.21623 0.34564 0.20073 0.38569-0.40745 1.0527-1.1662 1.2789-2.607 2.2468-4.3611 2.9297-0.73723 0.28698-2.5542 0.77267-3.3329 0.89087zm-6.0608 0.21024c0.41639-0.32155 0.47751-0.89055 0.42068-3.9165-0.04439-2.3634 0.0064-2.8793 0.34948-3.5493 0.45761-0.89369 1.1876-1.3713 2.7306-1.7864 1.1582-0.3116 1.4306-0.42646 1.3593-0.57326-0.08208-0.16904-0.55017-0.09397-2.0209 0.32408l-1.3945 0.39639-0.40475 0.34381c-0.77919 0.66186-1.35 1.9126-1.6031 3.5131-0.07091 0.44827-0.17824 1.4377-0.23852 2.1987s-0.16959 1.6568-0.24292 1.9906c-0.14788 0.67325-0.09657 1.075 0.15287 1.197 0.29563 0.14458 0.58326 0.1 0.89169-0.13817z"/>
   <path id="path4380" d="m18.693 23.418c-1.3125 0.19924-2.9088 0.13655-4.2705-0.16771l-0.87395-0.19528-0.223 0.31703c-0.44984 0.63954-0.94244 0.94916-1.4604 0.9179-0.70955-0.04282-1.0157-0.74678-0.7933-1.8241 0.06598-0.31964 0.17171-1.2209 0.23495-2.0028 0.21756-2.6901 0.54289-4.0491 1.2169-5.0835 0.12416-0.19055 0.25671-0.44928 0.29456-0.57494 0.09935-0.3299 0.58465-0.69679 1.4778-1.1172 1.0932-0.5146 4.5187-1.4945 5.978-1.71 1.6488-0.24355 2.39-0.20146 2.679 0.15212 0.08672 0.1061 0.94689 1.5297 1.9115 3.1635 0.9646 1.6338 1.833 3.0972 1.9298 3.2519 0.21623 0.34564 0.20073 0.38569-0.40745 1.0527-1.1662 1.2789-2.607 2.2468-4.3611 2.9297-0.73723 0.28698-2.5542 0.77267-3.3329 0.89087zm3.0011-1.6797c1.85-0.70372 3.4766-1.8348 3.9977-2.7799l0.168-0.306-1.567-2.637c-0.86214-1.4506-1.5978-2.6557-1.6348-2.678-0.03697-0.02229-0.35506 0.1024-0.70687 0.27708-1.0812 0.53686-2.1768 0.90343-4.2013 1.4058-1.033 0.25633-2.1706 0.50291-2.528 0.54795-0.77222 0.09732-0.91621 0.18283-1.2499 0.74222-0.25864 0.43358-0.32875 0.71221-0.34419 1.3677-0.0231 0.98103 0.02213 4.1327 0.0614 4.2793 0.09462 0.35312 1.5231 0.75243 2.7719 0.77486 0.58093 0.01043 1.734-0.08851 2.3951-0.20551 0.65156-0.11532 2.2-0.54513 2.8375-0.78761zm-8.8748 1.7155c0.27695-0.44363 0.31844-1.077 0.25611-3.9088-0.04822-2.1907 0.02425-2.8133 0.40407-3.4711 0.49154-0.85136 1.2797-1.3309 2.902-1.7656 0.77321-0.20718 1.0396-0.30349 1.1207-0.40516 0.08734-0.10952 0.08619-0.14522-0.0064-0.1996-0.08501-0.04992-0.49246 0.03005-1.6559 0.32503-1.7767 0.45048-1.9998 0.55455-2.5617 1.1949-0.84933 0.96793-1.2627 2.5012-1.4861 5.512-0.05029 0.6778-0.14366 1.444-0.20748 1.7027-0.29452 1.1937-0.04253 1.6241 0.78302 1.3373 0.22302-0.07746 0.36019-0.17516 0.45166-0.32167zm7.997-10.266c0.71573-0.29136 0.96451-0.4509 0.7772-0.49841-0.20289-0.05147-1.7306 0.18332-2.6633 0.40929l-0.85857 0.20802 0.03909 0.31894c0.0215 0.17542 0.06262 0.34226 0.09138 0.37076 0.06291 0.06234 1.7775-0.46802 2.6142-0.8086z"/>
   <ellipse id="ellipse4382" opacity="1" rx="1.5" transform="matrix(.99003 -.14083 .14083 .99003 0 0)" ry="2" cy="27.627" cx="28.847"/>
   <path id="path4384" opacity="1" d="m30.502 29.241c0.17842 1.5529-1.763 3.0514-4.3363 3.347-2.5733 0.29566-4.804-0.72349-4.9824-2.2763-0.17842-1.5529 2.2277-1.3683 4.801-1.664 2.5733-0.29566 4.3393-0.95954 4.5177 0.59332z"/>
   <ellipse id="ellipse4386" opacity="1" rx="2.3489" transform="matrix(.99826 -.058933 .058933 .99826 0 0)" ry=".77614" cy="33.022" cx="24.153"/>
  </g>
  <g id="g4342" transform="translate(0 .34730)">
   <rect id="rect4298" transform="rotate(-3.9332)" rx="2.2906" ry="2.2906" height="16" width="24" y="20.702" x="11.82" fill="#fff"/>
   <ellipse id="path4300" rx="1.5" ry="2" cy="25.778" cx="18.162" fill="#2a1e21"/>
   <path id="rect4309" d="m17.218 13 0.71936 1.028s-3.2619 0.96931-4.132 2.2775c-0.95613 1.4375-0.43366 5.0041-0.43366 5.0041s0.04415 2.0674-0.6496 2.661c-0.35858 0.30683-1.4108 0.11908-1.4108 0.11908l0.46539-6.9171 1.4909-2.5096z" fill="#f7d460"/>
   <path id="path4294" d="m18.693 23.418c-1.3125 0.19924-2.9088 0.13655-4.2705-0.16771l-0.87395-0.19528-0.223 0.31703c-0.44984 0.63954-0.94244 0.94916-1.4604 0.9179-0.70955-0.04282-1.0157-0.74678-0.7933-1.8241 0.06598-0.31964 0.17171-1.2209 0.23495-2.0028 0.21756-2.6901 0.54289-4.0491 1.2169-5.0835 0.12416-0.19055 0.25671-0.44928 0.29456-0.57494 0.09935-0.3299 0.58465-0.69679 1.4778-1.1172 1.0932-0.5146 4.5187-1.4945 5.978-1.71 1.6488-0.24355 2.39-0.20146 2.679 0.15212 0.08672 0.1061 0.94689 1.5297 1.9115 3.1635 0.9646 1.6338 1.833 3.0972 1.9298 3.2519 0.21623 0.34564 0.20073 0.38569-0.40745 1.0527-1.1662 1.2789-2.607 2.2468-4.3611 2.9297-0.73723 0.28698-2.5542 0.77267-3.3329 0.89087zm-6.0608 0.21024c0.41639-0.32155 0.47751-0.89055 0.42068-3.9165-0.04439-2.3634 0.0064-2.8793 0.34948-3.5493 0.45761-0.89369 1.1876-1.3713 2.7306-1.7864 1.1582-0.3116 1.4306-0.42646 1.3593-0.57326-0.08208-0.16904-0.55017-0.09397-2.0209 0.32408l-1.3945 0.39639-0.40475 0.34381c-0.77919 0.66186-1.35 1.9126-1.6031 3.5131-0.07091 0.44827-0.17824 1.4377-0.23852 2.1987s-0.16959 1.6568-0.24292 1.9906c-0.14788 0.67325-0.09657 1.075 0.15287 1.197 0.29563 0.14458 0.58326 0.1 0.89169-0.13817z" fill="#f74863"/>
   <path id="path4292" d="m18.693 23.418c-1.3125 0.19924-2.9088 0.13655-4.2705-0.16771l-0.87395-0.19528-0.223 0.31703c-0.44984 0.63954-0.94244 0.94916-1.4604 0.9179-0.70955-0.04282-1.0157-0.74678-0.7933-1.8241 0.06598-0.31964 0.17171-1.2209 0.23495-2.0028 0.21756-2.6901 0.54289-4.0491 1.2169-5.0835 0.12416-0.19055 0.25671-0.44928 0.29456-0.57494 0.09935-0.3299 0.58465-0.69679 1.4778-1.1172 1.0932-0.5146 4.5187-1.4945 5.978-1.71 1.6488-0.24355 2.39-0.20146 2.679 0.15212 0.08672 0.1061 0.94689 1.5297 1.9115 3.1635 0.9646 1.6338 1.833 3.0972 1.9298 3.2519 0.21623 0.34564 0.20073 0.38569-0.40745 1.0527-1.1662 1.2789-2.607 2.2468-4.3611 2.9297-0.73723 0.28698-2.5542 0.77267-3.3329 0.89087zm3.0011-1.6797c1.85-0.70372 3.4766-1.8348 3.9977-2.7799l0.168-0.306-1.567-2.637c-0.86214-1.4506-1.5978-2.6557-1.6348-2.678-0.03697-0.02229-0.35506 0.1024-0.70687 0.27708-1.0812 0.53686-2.1768 0.90343-4.2013 1.4058-1.033 0.25633-2.1706 0.50291-2.528 0.54795-0.77222 0.09732-0.91621 0.18283-1.2499 0.74222-0.25864 0.43358-0.32875 0.71221-0.34419 1.3677-0.0231 0.98103 0.02213 4.1327 0.0614 4.2793 0.09462 0.35312 1.5231 0.75243 2.7719 0.77486 0.58093 0.01043 1.734-0.08851 2.3951-0.20551 0.65156-0.11532 2.2-0.54513 2.8375-0.78761zm-8.8748 1.7155c0.27695-0.44363 0.31844-1.077 0.25611-3.9088-0.04822-2.1907 0.02425-2.8133 0.40407-3.4711 0.49154-0.85136 1.2797-1.3309 2.902-1.7656 0.77321-0.20718 1.0396-0.30349 1.1207-0.40516 0.08734-0.10952 0.08619-0.14522-0.0064-0.1996-0.08501-0.04992-0.49246 0.03005-1.6559 0.32503-1.7767 0.45048-1.9998 0.55455-2.5617 1.1949-0.84933 0.96793-1.2627 2.5012-1.4861 5.512-0.05029 0.6778-0.14366 1.444-0.20748 1.7027-0.29452 1.1937-0.04253 1.6241 0.78302 1.3373 0.22302-0.07746 0.36019-0.17516 0.45166-0.32167zm7.997-10.266c0.71573-0.29136 0.96451-0.4509 0.7772-0.49841-0.20289-0.05147-1.7306 0.18332-2.6633 0.40929l-0.85857 0.20802 0.03909 0.31894c0.0215 0.17542 0.06262 0.34226 0.09138 0.37076 0.06291 0.06234 1.7775-0.46802 2.6142-0.8086z" fill="#2a1e21"/>
   <ellipse id="ellipse4302" rx="1.5" ry="2" transform="matrix(.99003 -.14083 .14083 .99003 0 0)" cy="27.627" cx="28.847" fill="#2a1e21"/>
   <path id="path4304" d="m30.502 29.241c0.17842 1.5529-1.763 3.0514-4.3363 3.347-2.5733 0.29566-4.804-0.72349-4.9824-2.2763-0.17842-1.5529 2.2277-1.3683 4.801-1.664 2.5733-0.29566 4.3393-0.95954 4.5177 0.59332z" fill="#2a1e21"/>
   <ellipse id="path4307" rx="2.3489" ry=".77614" transform="matrix(.99826 -.058933 .058933 .99826 0 0)" cy="33.022" cx="24.153" fill="#f74863"/>
  </g>
 </g>
</svg>
