<?xml version="1.0" encoding="UTF-8" standalone="no"?>
<!-- Created with Inkscape (http://www.inkscape.org/) -->

<svg
   xmlns:dc="http://purl.org/dc/elements/1.1/"
   xmlns:cc="http://creativecommons.org/ns#"
   xmlns:rdf="http://www.w3.org/1999/02/22-rdf-syntax-ns#"
   xmlns:svg="http://www.w3.org/2000/svg"
   xmlns="http://www.w3.org/2000/svg"
   xmlns:xlink="http://www.w3.org/1999/xlink"
   xmlns:sodipodi="http://sodipodi.sourceforge.net/DTD/sodipodi-0.dtd"
   xmlns:inkscape="http://www.inkscape.org/namespaces/inkscape"
   version="1.1"
   width="48"
   height="48"
   id="svg4031"
   inkscape:version="0.91 r"
   sodipodi:docname="firefox.svg">
  <sodipodi:namedview
     pagecolor="#ffffff"
     bordercolor="#666666"
     borderopacity="1"
     objecttolerance="10"
     gridtolerance="10"
     guidetolerance="10"
     inkscape:pageopacity="0"
     inkscape:pageshadow="2"
     inkscape:window-width="1535"
     inkscape:window-height="876"
     id="namedview48"
     showgrid="false"
     showguides="false"
     inkscape:zoom="1"
     inkscape:cx="7.3497967"
     inkscape:cy="25.17927"
     inkscape:window-x="65"
     inkscape:window-y="24"
     inkscape:window-maximized="1"
     inkscape:current-layer="svg4031"
     inkscape:snap-to-guides="true" />
  <defs
     id="defs4033">
    <linearGradient
       id="linearGradient4168">
      <stop
         id="stop4170"
         style="stop-color:#f8b17e;stop-opacity:1"
         offset="0" />
      <stop
         id="stop4172"
         style="stop-color:#e35d4f;stop-opacity:1"
         offset="0.23208089" />
      <stop
         id="stop4174"
         style="stop-color:#c6262e;stop-opacity:1"
         offset="0.5908742" />
      <stop
         id="stop4176"
         style="stop-color:#690b54;stop-opacity:1"
         offset="1" />
    </linearGradient>
    <linearGradient
       id="linearGradient3957">
      <stop
         id="stop3959"
         style="stop-color:#ffffff;stop-opacity:1"
         offset="0" />
      <stop
         id="stop3961"
         style="stop-color:#c1c1c1;stop-opacity:1"
         offset="1" />
    </linearGradient>
    <linearGradient
       id="linearGradient4011">
      <stop
         id="stop4013"
         style="stop-color:#ffffff;stop-opacity:1"
         offset="0" />
      <stop
         id="stop4015"
         style="stop-color:#ffffff;stop-opacity:0.23529412"
         offset="0.507761" />
      <stop
         id="stop4017"
         style="stop-color:#ffffff;stop-opacity:0.15686275"
         offset="0.83456558" />
      <stop
         id="stop4019"
         style="stop-color:#ffffff;stop-opacity:0.39215687"
         offset="1" />
    </linearGradient>
    <linearGradient
       id="linearGradient2867-449-88-871-390-598-476-591-434-148-57-177-3-8">
      <stop
         id="stop3750-8-9"
         style="stop-color:#90dbec;stop-opacity:1"
         offset="0" />
      <stop
         id="stop3752-3-2"
         style="stop-color:#42baea;stop-opacity:1"
         offset="0.26238" />
      <stop
         id="stop3754-7-2"
         style="stop-color:#3689e6;stop-opacity:1"
         offset="0.704952" />
      <stop
         id="stop3756-9-3"
         style="stop-color:#2b63a0;stop-opacity:1"
         offset="1" />
    </linearGradient>
    <linearGradient
       id="linearGradient3820-7-2-1">
      <stop
         id="stop3822-2-6-3"
         style="stop-color:#3d3d3d;stop-opacity:1"
         offset="0" />
      <stop
         id="stop3864-8-7-7"
         style="stop-color:#686868;stop-opacity:0.49803922"
         offset="0.5" />
      <stop
         id="stop3824-1-2-5"
         style="stop-color:#686868;stop-opacity:0"
         offset="1" />
    </linearGradient>
    <linearGradient
       x1="71.204407"
       y1="6.2375584"
       x2="71.204407"
       y2="44.340794"
       id="linearGradient3012"
       xlink:href="#linearGradient4011"
       gradientUnits="userSpaceOnUse"
       gradientTransform="matrix(1.054054,0,0,1.054054,-51.611001,-2.7279009)" />
    <radialGradient
       cx="3.9722471"
       cy="8.4497671"
       r="19.99999"
       fx="3.9722471"
       fy="8.4497671"
       id="radialGradient3015"
       xlink:href="#linearGradient2867-449-88-871-390-598-476-591-434-148-57-177-3-8"
       gradientUnits="userSpaceOnUse"
       gradientTransform="matrix(0,2.4988347,-2.6434689,-6.8014435e-8,46.336814,-12.180468)" />
    <radialGradient
       cx="99.157013"
       cy="186.17059"
       r="62.769119"
       fx="99.157013"
       fy="186.17059"
       id="radialGradient3018"
       xlink:href="#linearGradient3820-7-2-1"
       gradientUnits="userSpaceOnUse"
       gradientTransform="matrix(0.27083381,0,0,0.08762273,-2.855072,25.187228)" />
    <linearGradient
       x1="27.92535"
       y1="15.149301"
       x2="33.447899"
       y2="22.986004"
       id="linearGradient3951"
       xlink:href="#linearGradient4168"
       gradientUnits="userSpaceOnUse"
       gradientTransform="translate(-37.016949,19.932203)" />
    <linearGradient
       x1="24"
       y1="22"
       x2="24"
       y2="26"
       id="linearGradient3963"
       xlink:href="#linearGradient3957"
       gradientUnits="userSpaceOnUse" />
    <linearGradient
       x1="21.013996"
       y1="25.433903"
       x2="22.805599"
       y2="27.343702"
       id="linearGradient3963-7"
       xlink:href="#linearGradient3957-2"
       gradientUnits="userSpaceOnUse"
       gradientTransform="translate(-19.118644,3.6610169)" />
    <linearGradient
       id="linearGradient3957-2">
      <stop
         id="stop3959-62"
         style="stop-color:#ffffff;stop-opacity:1"
         offset="0" />
      <stop
         id="stop3961-5"
         style="stop-color:#c1c1c1;stop-opacity:1"
         offset="1" />
    </linearGradient>
    <linearGradient
       id="linearGradient3851">
      <stop
         offset="0"
         style="stop-color:#000000;stop-opacity:0.43200001"
         id="stop3853" />
      <stop
         offset="1"
         style="stop-color:#000000;stop-opacity:0.627451"
         id="stop3855" />
    </linearGradient>
    <linearGradient
       gradientTransform="matrix(1,0,0,-1,0,48.519105)"
       gradientUnits="userSpaceOnUse"
       xlink:href="#linearGradient3851"
       id="linearGradient4326"
       y2="36.949589"
       x2="23.06352"
       y1="12.978221"
       x1="23.06352" />
    <linearGradient
       gradientUnits="userSpaceOnUse"
       xlink:href="#linearGradient3851"
       id="linearGradient4320"
       y2="36.949589"
       x2="23.06352"
       y1="12.978221"
       x1="23.06352"
       gradientTransform="translate(0,-1.4930417)" />
    <linearGradient
       gradientUnits="userSpaceOnUse"
       xlink:href="#linearGradient3707-319-631-407-324-616"
       id="linearGradient4273"
       y2="4.9969058"
       x2="19.927404"
       y1="44.949184"
       x1="19.927404"
       gradientTransform="matrix(0.83333322,0,0,0.83333322,3.9999996,3.1666681)" />
    <linearGradient
       id="linearGradient3707-319-631-407-324-616">
      <stop
         offset="0"
         style="stop-color:#505050;stop-opacity:1"
         id="stop3246" />
      <stop
         offset="1"
         style="stop-color:#8e8e8e;stop-opacity:1"
         id="stop3248" />
    </linearGradient>
    <linearGradient
       gradientTransform="translate(-57.362519,-8.0236327)"
       gradientUnits="userSpaceOnUse"
       xlink:href="#linearGradient3924-803"
       id="linearGradient3473"
       y2="43"
       x2="23.99999"
       y1="4.999989"
       x1="23.99999" />
    <linearGradient
       id="linearGradient3924-803">
      <stop
         offset="0"
         style="stop-color:#ffffff;stop-opacity:1"
         id="stop3252" />
      <stop
         offset="0.06316455"
         style="stop-color:#ffffff;stop-opacity:0.23529412"
         id="stop3254" />
      <stop
         offset="0.95056331"
         style="stop-color:#ffffff;stop-opacity:0.15686275"
         id="stop3256" />
      <stop
         offset="1"
         style="stop-color:#ffffff;stop-opacity:0.39215687"
         id="stop3258" />
    </linearGradient>
    <radialGradient
       gradientTransform="matrix(1.8930301e-8,2.2770672,-2.4088655,-4.1952268e-8,-13.008071,-19.524216)"
       gradientUnits="userSpaceOnUse"
       xlink:href="#linearGradient2867-449-88-871-390-598-476-591-434-148-57-177-641"
       id="radialGradient3476"
       fy="8.4497671"
       fx="7.4956832"
       r="19.99999"
       cy="8.4497671"
       cx="7.4956832" />
    <linearGradient
       id="linearGradient2867-449-88-871-390-598-476-591-434-148-57-177-641">
      <stop
         offset="0"
         style="stop-color:#c7c7c7;stop-opacity:1"
         id="stop3236" />
      <stop
         offset="0.26238"
         style="stop-color:#a6a6a6;stop-opacity:1"
         id="stop3238" />
      <stop
         offset="0.704952"
         style="stop-color:#7b7b7b;stop-opacity:1"
         id="stop3240" />
      <stop
         offset="1"
         style="stop-color:#595959;stop-opacity:1"
         id="stop3242" />
    </linearGradient>
    <radialGradient
       gradientTransform="matrix(2.003784,0,0,1.4,27.98813,-17.4)"
       gradientUnits="userSpaceOnUse"
       xlink:href="#linearGradient3688-166-749-2-324"
       id="radialGradient3013-896"
       fy="43.5"
       fx="4.9929786"
       r="2.5"
       cy="43.5"
       cx="4.9929786" />
    <linearGradient
       id="linearGradient3688-166-749-2-324">
      <stop
         offset="0"
         style="stop-color:#181818;stop-opacity:1"
         id="stop3216" />
      <stop
         offset="1"
         style="stop-color:#181818;stop-opacity:0"
         id="stop3218" />
    </linearGradient>
    <radialGradient
       gradientTransform="matrix(2.003784,0,0,1.4,-20.01187,-104.4)"
       gradientUnits="userSpaceOnUse"
       xlink:href="#linearGradient3688-166-749-2-324"
       id="radialGradient3015-826"
       fy="43.5"
       fx="4.9929786"
       r="2.5"
       cy="43.5"
       cx="4.9929786" />
    <linearGradient
       id="linearGradient3702-501-757-6-946">
      <stop
         offset="0"
         style="stop-color:#181818;stop-opacity:0"
         id="stop3228" />
      <stop
         offset="0.5"
         style="stop-color:#181818;stop-opacity:1"
         id="stop3230" />
      <stop
         offset="1"
         style="stop-color:#181818;stop-opacity:0"
         id="stop3232" />
    </linearGradient>
    <linearGradient
       gradientUnits="userSpaceOnUse"
       xlink:href="#linearGradient3702-501-757-6-946"
       id="linearGradient4395"
       y2="39.999443"
       x2="25.058096"
       y1="47.027729"
       x1="25.058096" />
    <linearGradient
       gradientTransform="translate(-16.076816,-9.0236427)"
       gradientUnits="userSpaceOnUse"
       xlink:href="#linearGradient3851"
       id="linearGradient3857"
       y2="44.858185"
       x2="0.85715157"
       y1="5.7142859"
       x1="0.85715157" />
    <radialGradient
       cx="23.896"
       cy="3.99"
       r="20.396999"
       id="radialGradient3093-0-3-6-6"
       gradientUnits="userSpaceOnUse"
       gradientTransform="matrix(0,1.2316483,-1.625754,0,18.486966,-28.721977)">
      <stop
         id="stop3244-9-33-7-0-9"
         style="stop-color:#ffffff;stop-opacity:1"
         offset="0" />
      <stop
         id="stop3246-3-5-0-8-5"
         style="stop-color:#dddddd;stop-opacity:1"
         offset="0.26238" />
      <stop
         id="stop3248-1-7-8-8-1"
         style="stop-color:#abacae;stop-opacity:1"
         offset="0.66093999" />
      <stop
         id="stop3250-9-3-0-5-1"
         style="stop-color:#89898b;stop-opacity:1"
         offset="1" />
    </radialGradient>
    <linearGradient
       id="linearGradient3846">
      <stop
         id="stop3848"
         style="stop-color:#fff3cb;stop-opacity:1"
         offset="0" />
      <stop
         id="stop3850"
         style="stop-color:#fdde76;stop-opacity:1"
         offset="0.26238" />
      <stop
         id="stop3852"
         style="stop-color:#f9c440;stop-opacity:1"
         offset="0.66093999" />
      <stop
         id="stop3854"
         style="stop-color:#e48b20;stop-opacity:1"
         offset="1" />
    </linearGradient>
    <linearGradient
       id="linearGradient4806-2">
      <stop
         id="stop4808-4"
         style="stop-color:#ffffff;stop-opacity:1"
         offset="0" />
      <stop
         id="stop4810-0"
         style="stop-color:#ffffff;stop-opacity:0.23529412"
         offset="0.42447853" />
      <stop
         id="stop4812-8"
         style="stop-color:#ffffff;stop-opacity:0.15686275"
         offset="0.82089913" />
      <stop
         id="stop4814-0"
         style="stop-color:#ffffff;stop-opacity:0.39215687"
         offset="1" />
    </linearGradient>
    <radialGradient
       cx="4.9929786"
       cy="43.5"
       r="2.5"
       fx="4.9929786"
       fy="43.5"
       id="radialGradient3176"
       xlink:href="#linearGradient3851"
       gradientUnits="userSpaceOnUse"
       gradientTransform="matrix(3.6992923,0,0,2.5772273,28.158275,-51.880679)" />
    <radialGradient
       cx="4.9929786"
       cy="43.5"
       r="2.5"
       fx="4.9929786"
       fy="43.5"
       id="radialGradient3178"
       xlink:href="#linearGradient3851"
       gradientUnits="userSpaceOnUse"
       gradientTransform="matrix(3.6992923,0,0,2.5772273,-13.432878,-172.33801)" />
    <linearGradient
       gradientTransform="matrix(1.8461532,0,0,1.8408765,-23.512105,-19.849426)"
       x1="25.058096"
       y1="47.027729"
       x2="25.058096"
       y2="39.999443"
       id="linearGradient3180"
       xlink:href="#linearGradient3702-4-7"
       gradientUnits="userSpaceOnUse" />
    <linearGradient
       id="linearGradient3702-4-7">
      <stop
         id="stop3704-7-8"
         style="stop-color:#000000;stop-opacity:0"
         offset="0" />
      <stop
         id="stop3710-0-0"
         style="stop-color:#000000;stop-opacity:1"
         offset="0.5" />
      <stop
         id="stop3706-7-2"
         style="stop-color:#000000;stop-opacity:0"
         offset="1" />
    </linearGradient>
    <radialGradient
       cx="676"
       cy="-233.5"
       r="29.5"
       fx="680.40613"
       fy="-249.59378"
       id="radialGradient3037"
       xlink:href="#linearGradient4747-3"
       gradientUnits="userSpaceOnUse"
       gradientTransform="matrix(1.2135399,2.71748e-8,-2.3222332e-8,0.93992419,-797.50331,244.73495)" />
    <linearGradient
       id="linearGradient4747-3">
      <stop
         id="stop4749-7"
         style="stop-color:#ffffff;stop-opacity:1"
         offset="0" />
      <stop
         id="stop9072-8"
         style="stop-color:#f7f7f7;stop-opacity:1"
         offset="0.5" />
      <stop
         id="stop4751-3"
         style="stop-color:#dbe0e1;stop-opacity:1"
         offset="1" />
    </linearGradient>
    <radialGradient
       cx="680.5658"
       cy="365.6579"
       r="12.052631"
       fx="680.60205"
       fy="355.25784"
       id="radialGradient3033"
       xlink:href="#linearGradient9165-59"
       gradientUnits="userSpaceOnUse"
       gradientTransform="matrix(0.89892639,0,0,0.85804127,-584.89522,-296.29104)" />
    <linearGradient
       id="linearGradient9165-59">
      <stop
         id="stop9167-6"
         style="stop-color:#b6c5cc;stop-opacity:1"
         offset="0" />
      <stop
         id="stop9169-9"
         style="stop-color:#e5f0f6;stop-opacity:0"
         offset="1" />
    </linearGradient>
    <radialGradient
       cx="680.5658"
       cy="365.6579"
       r="12.052631"
       fx="681.32629"
       fy="354.21619"
       id="radialGradient3030"
       xlink:href="#linearGradient9165-5-1"
       gradientUnits="userSpaceOnUse"
       gradientTransform="matrix(0.67018853,0,0,0.63970691,-443.61431,-214.00076)" />
    <linearGradient
       id="linearGradient9165-5-1">
      <stop
         id="stop9167-7-12"
         style="stop-color:#acb9bf;stop-opacity:1"
         offset="0" />
      <stop
         id="stop9169-0-4"
         style="stop-color:#acb9bf;stop-opacity:0"
         offset="1" />
    </linearGradient>
    <linearGradient
       x1="20.153708"
       y1="3.0216999"
       x2="20.153708"
       y2="26.666777"
       id="linearGradient3027-6"
       xlink:href="#linearGradient4017-8"
       gradientUnits="userSpaceOnUse"
       gradientTransform="matrix(1.5000314,0,0,1.4444261,-1.1508701,3.5963123)" />
    <linearGradient
       id="linearGradient4017-8">
      <stop
         id="stop4019-8"
         style="stop-color:#ffffff;stop-opacity:1"
         offset="0" />
      <stop
         id="stop4021-4"
         style="stop-color:#ffffff;stop-opacity:0.23529412"
         offset="0.49550432" />
      <stop
         id="stop4023-7"
         style="stop-color:#ffffff;stop-opacity:0.15686275"
         offset="0.88038814" />
      <stop
         id="stop4025-5"
         style="stop-color:#ffffff;stop-opacity:0.39215687"
         offset="1" />
    </linearGradient>
    <radialGradient
       r="20.002001"
       gradientTransform="matrix(0,1.0014,-1.0999,0,-6.531,65.08)"
       cx="21.120001"
       cy="26.141001"
       gradientUnits="userSpaceOnUse"
       fy="22.504"
       id="radialGradient4347">
      <stop
         offset="0"
         stop-color="#ffca51"
         id="stop4349"
         style="stop-color:#ffc77a;stop-opacity:1" />
      <stop
         offset="1"
         stop-color="#ffbb39"
         id="stop4351"
         style="stop-color:#ffbe68;stop-opacity:1" />
    </radialGradient>
    <linearGradient
       id="linearGradient6322"
       y2="44.332001"
       gradientUnits="userSpaceOnUse"
       x2="32.438"
       gradientTransform="matrix(0.97581,0,0,0.97579,-58.703,61.851)"
       y1="8.5398998"
       x1="21.375">
      <stop
         id="stop9946-9"
         stop-color="#de6300"
         offset="0" />
      <stop
         id="stop9944-7"
         stop-color="#d04e00"
         offset="1" />
    </linearGradient>
    <radialGradient
       r="20.002001"
       gradientTransform="matrix(0,1.0014,-1.0999,0,-6.531,65.08)"
       cx="21.120001"
       cy="26.141001"
       gradientUnits="userSpaceOnUse"
       fy="22.504"
       id="radialGradient4347-1">
      <stop
         offset="0"
         stop-color="#ffca51"
         id="stop4349-7"
         style="stop-color:#ffb958;stop-opacity:1" />
      <stop
         style="stop-color:#e28515;stop-opacity:1"
         offset="1"
         stop-color="#ff6201"
         id="stop4355-5" />
    </radialGradient>
  </defs>
  <metadata
     id="metadata4036">
    <rdf:RDF>
      <cc:Work
         rdf:about="">
        <dc:format>image/svg+xml</dc:format>
        <dc:type
           rdf:resource="http://purl.org/dc/dcmitype/StillImage" />
        <dc:title />
      </cc:Work>
    </rdf:RDF>
  </metadata>
  <path
     inkscape:connector-curvature="0"
     d="m 40.999999,41.499999 a 17,5.4999999 0 1 1 -33.999999,0 17,5.4999999 0 1 1 33.999999,0 z"
     id="path3818-0-5"
     style="fill:url(#radialGradient3018);fill-opacity:1;stroke:none" />
  <path
     inkscape:connector-curvature="0"
     d="M 24.000003,3.4999982 C 12.68881,3.4999982 3.4999996,12.688804 3.4999996,23.999998 3.4999996,35.311192 12.68881,44.500003 24.000003,44.5 35.311191,44.5 44.500011,35.311192 44.5,23.999998 44.5,12.688804 35.311191,3.4999982 24.000003,3.4999982 Z"
     id="path2555"
     style="color:#000000;display:inline;overflow:visible;visibility:visible;fill:url(#radialGradient3015);fill-opacity:1;fill-rule:nonzero;stroke:none;stroke-width:1;marker:none;enable-background:accumulate" />
  <path
     style="color:#000000;display:inline;overflow:visible;visibility:visible;fill:#000000;fill-opacity:1;fill-rule:nonzero;stroke:none;stroke-width:1;marker:none;enable-background:accumulate;opacity:0.15"
     d="M 31.097656 4.7910156 A 1.0001 1.0001 0 0 0 31.470703 5.96875 C 37.231478 9.9094745 38.547586 18.008159 36.125 24.173828 C 34.913707 27.256663 32.800642 29.805601 29.919922 31.146484 C 27.986376 32.046488 25.649399 32.357134 22.957031 31.949219 C 23.399947 31.742236 23.920975 31.575733 24.259766 31.322266 C 25.476949 30.411626 26.097676 29.508746 26.791016 29.162109 C 26.706196 29.204509 26.922158 29.13028 27.183594 29.09375 C 27.44503 29.05722 27.769403 29.02463 28.117188 28.939453 C 28.46497 28.854273 28.973567 28.762232 29.296875 28.117188 C 29.458529 27.794664 29.455989 27.386971 29.363281 27.095703 C 29.270571 26.804435 29.122713 26.586764 28.947266 26.375 C 28.141498 25.4025 27.156466 24.843503 26.167969 24.650391 C 25.179471 24.457278 24.223825 24.600061 23.353516 24.830078 C 21.612897 25.290119 20.025237 26.041016 19.34375 26.041016 C 17.031573 26.041016 16.506969 24.861066 16.554688 24.216797 C 16.578547 23.894662 16.697157 23.696973 17.005859 23.570312 C 17.314562 23.443653 17.948202 23.400464 18.974609 23.904297 A 1.0001 1.0001 0 0 0 20.414062 23.064453 C 20.414062 23.064453 20.335112 21.711446 20.121094 20.386719 C 20.490158 19.968047 21.076775 19.564035 21.810547 19.179688 C 22.22369 18.963283 22.646189 18.748488 23.042969 18.462891 C 23.439748 18.177293 23.861177 17.789138 24.03125 17.173828 C 24.139976 16.780514 24.22731 16.467001 24.265625 16.128906 C 24.303945 15.790812 24.297415 15.314173 23.964844 14.90625 C 23.632277 14.498327 23.190052 14.402165 22.859375 14.361328 C 22.528698 14.320488 22.207355 14.325481 21.808594 14.332031 C 20.327878 14.356301 19.585081 14.252481 19.298828 14.119141 C 19.073359 14.01411 18.903513 13.696362 18.675781 13.271484 C 18.685911 13.146974 18.672181 12.990465 18.896484 12.482422 C 19.18631 11.825991 19.752237 10.965888 20.978516 10.1875 A 1.0001 1.0001 0 0 0 20.439453 8.34375 C 16.880336 8.361115 15.155046 10.033759 14.5625 10.673828 C 13.980279 10.540324 12.348061 10.32425 10.375 10.703125 C 10.060463 10.474689 9.7769668 10.209094 9.5566406 9.8574219 A 1.0001 1.0001 0 0 0 9.3808594 9.6484375 C 5.7481763 13.348371 3.5 18.412473 3.5 24 C 3.5 35.311194 12.688807 44.500003 24 44.5 C 35.311188 44.5 44.500011 35.311194 44.5 24 C 44.5 15.187302 38.911222 7.6851071 31.097656 4.7910156 z M 37.445312 10.021484 C 39.763334 12.251235 41.595568 14.977683 42.589844 18.115234 C 42.624794 18.229576 42.656234 18.324289 42.677734 18.398438 A 1.0001 1.0001 0 0 0 42.681641 18.40625 C 42.730821 18.570375 42.777611 18.739649 42.824219 18.912109 C 43.13893 20.113026 43.339262 21.306936 43.433594 22.460938 C 43.439994 22.541538 43.445349 22.610389 43.449219 22.667969 A 1.0001 1.0001 0 0 0 43.449219 22.671875 C 43.468299 22.939992 43.477908 23.215419 43.486328 23.5 C 43.490328 23.656039 43.497477 23.787626 43.498047 23.894531 C 43.490247 25.352502 43.342156 26.739851 43.074219 28.054688 C 43.074219 28.054688 43.074219 28.056641 43.074219 28.056641 C 41.205058 36.869843 33.377417 43.5 24 43.5 C 14.241314 43.500003 6.1575455 36.321291 4.7246094 26.970703 C 4.7226694 26.958063 4.717099 26.897553 4.703125 26.798828 L 4.703125 26.792969 C 4.6687082 26.542326 4.6338567 26.310221 4.6113281 26.089844 C 4.5401559 25.393637 4.5041114 24.677691 4.5019531 23.943359 L 4.5019531 23.939453 L 4.5019531 23.9375 C 4.5022689 23.90147 4.5064025 23.834428 4.5078125 23.730469 A 1.0001 1.0001 0 0 0 4.5078125 23.724609 C 4.5112709 23.311468 4.5346176 22.908757 4.5644531 22.5 L 4.5644531 22.496094 C 4.5926741 22.127213 4.6299511 21.764587 4.6777344 21.40625 A 1.0001 1.0001 0 0 0 4.6777344 21.402344 C 4.6973784 21.251282 4.7141059 21.111796 4.7324219 20.990234 L 4.7324219 20.986328 C 5.2639512 17.56923 6.7937889 14.526197 8.8671875 11.935547 C 9.0905167 12.14507 9.2102227 12.400362 9.4941406 12.570312 A 1.0001 1.0001 0 0 0 10.285156 12.673828 C 12.117802 12.145639 14.591797 12.699219 14.591797 12.699219 A 1.0001 1.0001 0 0 0 15.638672 12.322266 C 15.638672 12.322266 16.252485 11.580753 17.490234 11.001953 C 17.358226 11.225769 17.157591 11.467302 17.066406 11.673828 C 16.637599 12.645041 16.611328 13.466797 16.611328 13.466797 A 1.0001 1.0001 0 0 0 16.714844 13.925781 C 17.127065 14.762119 17.588954 15.528174 18.455078 15.931641 C 19.321202 16.335108 20.29178 16.357408 21.839844 16.332031 C 22.005666 16.329331 22.054268 16.336291 22.175781 16.337891 C 22.148611 16.450709 22.147399 16.49088 22.105469 16.642578 C 22.118419 16.595738 22.092669 16.683168 21.875 16.839844 C 21.657332 16.996518 21.297206 17.191145 20.882812 17.408203 C 20.054028 17.842319 18.970073 18.359426 18.251953 19.417969 A 1.0001 1.0001 0 0 0 18.111328 20.224609 C 18.304638 20.987661 18.239583 21.122053 18.267578 21.619141 C 17.530875 21.484964 16.836368 21.478517 16.246094 21.720703 C 15.247325 22.130492 14.633143 23.08818 14.560547 24.068359 C 14.415355 26.028719 16.245083 28.041016 19.34375 28.041016 C 20.978311 28.041016 22.448055 27.138228 23.865234 26.763672 C 24.573824 26.576394 25.222143 26.503673 25.783203 26.613281 C 26.086741 26.672581 26.373725 26.987805 26.662109 27.175781 C 26.430523 27.206851 26.207788 27.217431 25.896484 27.373047 C 24.584462 28.028995 23.958686 29.050218 23.0625 29.720703 C 22.166314 30.391188 21.006763 30.921438 18.443359 30.75 A 1.0001 1.0001 0 0 0 18.001953 32.675781 C 22.989292 34.691249 27.343499 34.552919 30.763672 32.960938 C 34.183845 31.368955 36.622061 28.378416 37.986328 24.90625 C 39.825176 20.226241 39.719466 14.605583 37.445312 10.021484 z "
     id="path4261" />
  <path
     inkscape:connector-curvature="0"
     d="m 24.000003,3.499998 c -11.311193,0 -20.5000034,9.188806 -20.5000034,20.5 0,11.311194 9.1888104,20.500005 20.5000034,20.500002 11.311188,0 20.500008,-9.188808 20.499997,-20.500002 0,-11.311194 -9.188809,-20.5 -20.499997,-20.5 z"
     id="path2555-6"
     style="color:#000000;display:inline;overflow:visible;visibility:visible;opacity:0.5;fill:#000000;fill-opacity:0;fill-rule:nonzero;stroke:#00537d;stroke-width:1;stroke-linecap:round;stroke-linejoin:round;stroke-miterlimit:4;stroke-dasharray:none;stroke-dashoffset:0;stroke-opacity:1;marker:none;enable-background:accumulate" />
  <path
     inkscape:connector-curvature="0"
     style="opacity:1;fill:#ffa63b;fill-opacity:1;stroke:none;stroke-width:0.995;stroke-miterlimit:4;stroke-dasharray:none"
     d="m 32.035156,5.1425781 c 12.44295,8.5117439 5.496672,34.3462769 -13.658203,26.6054689 5.474754,0.366146 5.961435,-2.477884 7.966797,-3.480469 0.653294,-0.32658 2.827769,-0.05441 1.833984,-1.253906 -2.720725,-3.283709 -6.517936,0.02734 -8.833984,0.02734 -5.410844,0 -4.711479,-6.383355 0.07227,-4.035157 0,0 0.08172,-1.378719 -0.335938,-3.027343 1.042026,-1.535997 3.674029,-1.933375 3.988281,-3.070313 0.421275,-1.523956 0.316937,-1.601812 -1.24414,-1.576172 -3.02878,0.04965 -3.425397,-0.249944 -4.212891,-1.847656 0,0 0.0425,-2.369951 2.832031,-4.140625 -3.860539,0.018836 -5.609375,2.384766 -5.609375,2.384766 0,0 -2.616949,-0.652353 -4.826172,-0.01563 -0.5680568,-0.340036 -0.9816184,-0.817908 -1.2988276,-1.324219 -2.5640583,2.877739 -4.3464948,6.46679 -4.9648438,10.447266 -0.021574,0.142592 -0.039534,0.29093 -0.058594,0.4375 -0.050731,0.380446 -0.089624,0.763684 -0.1191407,1.15039 -0.030793,0.421248 -0.054867,0.847733 -0.058594,1.292969 -0.00101,0.07438 -0.00564,0.148083 -0.00586,0.222656 0.00206,0.767911 0.040339,1.519326 0.1152344,2.251953 0.025657,0.25098 0.061861,0.497416 0.095703,0.744141 0.00894,0.06216 0.013939,0.125517 0.023437,0.1875 C 5.2430393,36.955029 13.750557,44.500003 24,44.5 c 9.851992,0 18.092168,-6.971526 20.054688,-16.244141 0.282036,-1.383373 0.435916,-2.840723 0.443359,-4.367187 -7.5e-4,-0.139914 -0.0082,-0.278726 -0.01172,-0.417969 -0.0085,-0.287326 -0.01824,-0.576522 -0.03906,-0.869141 -0.005,-0.0745 -0.01174,-0.148373 -0.01758,-0.222656 -0.09934,-1.215268 -0.309827,-2.468219 -0.640626,-3.728515 -0.0481,-0.177974 -0.09764,-0.355222 -0.15039,-0.53125 -0.0287,-0.09897 -0.06155,-0.197907 -0.0918,-0.296875 C 41.739263,12.10908 37.494504,7.4753618 32.035156,5.1425781 Z"
     id="path10380-0-8-9" />
  <path
     style="opacity:0.15;fill:#ffffff;fill-opacity:1;stroke:none;stroke-width:0.995;stroke-miterlimit:4;stroke-dasharray:none"
     d="M 32.035156 5.1425781 C 44.478106 13.654322 37.531828 39.488855 18.376953 31.748047 C 23.851707 32.114193 24.338388 29.270163 26.34375 28.267578 C 26.997044 27.940998 29.171519 28.213168 28.177734 27.013672 C 25.457009 23.729963 21.659798 27.041016 19.34375 27.041016 C 13.932906 27.041016 14.632267 20.657661 19.416016 23.005859 C 19.416016 23.005859 19.497736 21.62714 19.080078 19.978516 C 20.122104 18.442519 22.754107 18.045141 23.068359 16.908203 C 23.489634 15.384247 23.385296 15.306391 21.824219 15.332031 C 18.795439 15.381681 18.398822 15.082087 17.611328 13.484375 C 17.611328 13.484375 17.653828 11.114424 20.443359 9.34375 C 16.58282 9.362586 14.833984 11.728516 14.833984 11.728516 C 14.833984 11.728516 12.217035 11.076168 10.007812 11.712891 C 9.4397557 11.372855 9.0261936 10.894983 8.7089844 10.388672 C 6.1449261 13.266411 4.3624896 16.855462 3.7441406 20.835938 C 3.7225666 20.97853 3.7046069 21.126868 3.6855469 21.273438 C 3.6348159 21.653883 3.595923 22.037122 3.5664062 22.423828 C 3.5356132 22.845076 3.5115395 23.271561 3.5078125 23.716797 C 3.5068025 23.791177 3.5021731 23.86488 3.5019531 23.939453 C 3.5040131 24.707364 3.5422921 25.458779 3.6171875 26.191406 C 3.6428445 26.442386 3.6790486 26.688822 3.7128906 26.935547 C 3.7218306 26.997707 3.7268301 27.061064 3.7363281 27.123047 C 5.2430371 36.955038 13.750557 44.500003 24 44.5 C 33.851992 44.5 42.092168 37.528474 44.054688 28.255859 C 44.336723 26.872486 44.490604 25.415136 44.498047 23.888672 C 44.497297 23.748758 44.489848 23.609946 44.486328 23.470703 C 44.477828 23.183377 44.468086 22.894181 44.447266 22.601562 C 44.442266 22.527062 44.435527 22.453189 44.429688 22.378906 C 44.330348 21.163638 44.119862 19.910687 43.789062 18.650391 C 43.740963 18.472417 43.691422 18.295169 43.638672 18.119141 C 43.609972 18.020171 43.577125 17.921234 43.546875 17.822266 C 41.739267 12.10908 37.494504 7.4753618 32.035156 5.1425781 z M 37.445312 10.021484 C 39.763334 12.251235 41.595568 14.977683 42.589844 18.115234 C 42.624794 18.229576 42.656234 18.324289 42.677734 18.398438 A 1.0001 1.0001 0 0 0 42.681641 18.40625 C 42.730821 18.570375 42.777611 18.739649 42.824219 18.912109 C 43.13893 20.113026 43.339262 21.306936 43.433594 22.460938 C 43.439994 22.541538 43.445349 22.610389 43.449219 22.667969 A 1.0001 1.0001 0 0 0 43.449219 22.671875 C 43.468299 22.939992 43.477908 23.215419 43.486328 23.5 C 43.490328 23.656039 43.497477 23.787626 43.498047 23.894531 C 43.490247 25.352502 43.342156 26.739851 43.074219 28.054688 C 43.074219 28.054688 43.074219 28.056641 43.074219 28.056641 C 41.205058 36.869843 33.377417 43.5 24 43.5 C 14.241314 43.500003 6.1575455 36.321291 4.7246094 26.970703 C 4.7226694 26.958063 4.717099 26.897553 4.703125 26.798828 L 4.703125 26.792969 C 4.6687082 26.542326 4.6338567 26.310221 4.6113281 26.089844 C 4.5401559 25.393637 4.5041114 24.677691 4.5019531 23.943359 L 4.5019531 23.939453 L 4.5019531 23.9375 C 4.5022689 23.90147 4.5064025 23.834428 4.5078125 23.730469 A 1.0001 1.0001 0 0 0 4.5078125 23.724609 C 4.5112709 23.311468 4.5346176 22.908757 4.5644531 22.5 L 4.5644531 22.496094 C 4.5926741 22.127213 4.6299511 21.764587 4.6777344 21.40625 A 1.0001 1.0001 0 0 0 4.6777344 21.402344 C 4.6973784 21.251282 4.7141059 21.111796 4.7324219 20.990234 L 4.7324219 20.986328 C 5.2639512 17.56923 6.7937889 14.526197 8.8671875 11.935547 C 9.0905167 12.14507 9.2102227 12.400362 9.4941406 12.570312 A 1.0001 1.0001 0 0 0 10.285156 12.673828 C 12.117802 12.145639 14.591797 12.699219 14.591797 12.699219 A 1.0001 1.0001 0 0 0 15.638672 12.322266 C 15.638672 12.322266 16.252485 11.580753 17.490234 11.001953 C 17.358226 11.225769 17.157591 11.467302 17.066406 11.673828 C 16.637599 12.645041 16.611328 13.466797 16.611328 13.466797 A 1.0001 1.0001 0 0 0 16.714844 13.925781 C 17.127065 14.762119 17.588954 15.528174 18.455078 15.931641 C 19.321202 16.335108 20.29178 16.357408 21.839844 16.332031 C 22.005666 16.329331 22.054268 16.336291 22.175781 16.337891 C 22.148611 16.450709 22.147399 16.49088 22.105469 16.642578 C 22.118419 16.595738 22.092669 16.683168 21.875 16.839844 C 21.657332 16.996518 21.297206 17.191145 20.882812 17.408203 C 20.054028 17.842319 18.970073 18.359426 18.251953 19.417969 A 1.0001 1.0001 0 0 0 18.111328 20.224609 C 18.304638 20.987661 18.239583 21.122053 18.267578 21.619141 C 17.530875 21.484964 16.836368 21.478517 16.246094 21.720703 C 15.247325 22.130492 14.633143 23.08818 14.560547 24.068359 C 14.415355 26.028719 16.245083 28.041016 19.34375 28.041016 C 20.978311 28.041016 22.448055 27.138228 23.865234 26.763672 C 24.573824 26.576394 25.222143 26.503673 25.783203 26.613281 C 26.086741 26.672581 26.373725 26.987805 26.662109 27.175781 C 26.430523 27.206851 26.207788 27.217431 25.896484 27.373047 C 24.584462 28.028995 23.958686 29.050218 23.0625 29.720703 C 22.166314 30.391188 21.006763 30.921438 18.443359 30.75 A 1.0001 1.0001 0 0 0 18.001953 32.675781 C 22.989292 34.691249 27.343499 34.552919 30.763672 32.960938 C 34.183845 31.368955 36.622061 28.378416 37.986328 24.90625 C 39.825176 20.226241 39.719466 14.605583 37.445312 10.021484 z "
     id="path4250" />
  <path
     inkscape:connector-curvature="0"
     d="m 43.5,23.999308 c 0,10.7699 -8.73109,19.50069 -19.499753,19.50069 -10.769649,0 -19.5002474,-8.730889 -19.5002474,-19.50069 0,-10.769402 8.7305984,-19.4993078 19.5002474,-19.4993078 C 34.76891,4.5000002 43.5,13.229906 43.5,23.999308 l 0,0 z"
     id="path8655"
     style="color:#000000;display:inline;overflow:visible;visibility:visible;opacity:0.5;fill:none;stroke:url(#linearGradient3012);stroke-width:1;stroke-linecap:round;stroke-linejoin:round;stroke-miterlimit:4;stroke-dasharray:none;stroke-dashoffset:0;stroke-opacity:1;marker:none;enable-background:accumulate" />
</svg>
