<?xml version="1.0" encoding="UTF-8" standalone="no"?>
<!-- Created with Inkscape (http://www.inkscape.org/) -->

<svg
   xmlns:dc="http://purl.org/dc/elements/1.1/"
   xmlns:cc="http://creativecommons.org/ns#"
   xmlns:rdf="http://www.w3.org/1999/02/22-rdf-syntax-ns#"
   xmlns:svg="http://www.w3.org/2000/svg"
   xmlns="http://www.w3.org/2000/svg"
   xmlns:sodipodi="http://sodipodi.sourceforge.net/DTD/sodipodi-0.dtd"
   xmlns:inkscape="http://www.inkscape.org/namespaces/inkscape"
   id="svg3143"
   height="48"
   width="48"
   version="1.1"
   inkscape:version="0.91 r13725"
   sodipodi:docname="FoxitReader.svg">
  <sodipodi:namedview
     pagecolor="#ffffff"
     bordercolor="#666666"
     borderopacity="1"
     objecttolerance="10"
     gridtolerance="10"
     guidetolerance="10"
     inkscape:pageopacity="0"
     inkscape:pageshadow="2"
     inkscape:window-width="1535"
     inkscape:window-height="876"
     id="namedview37"
     showgrid="false"
     inkscape:zoom="4.9166667"
     inkscape:cx="-43.525424"
     inkscape:cy="24"
     inkscape:window-x="65"
     inkscape:window-y="24"
     inkscape:window-maximized="1"
     inkscape:current-layer="svg3143" />
  <defs
     id="defs3145">
    <radialGradient
       id="radialGradient4031"
       gradientUnits="userSpaceOnUse"
       cy="31.427"
       cx="64"
       gradientTransform="matrix(-0.0406904,1.6253179,-1.2289925,-0.03057964,63.982479,-92.31386)"
       r="33.942">
      <stop
         id="stop38"
         stop-color="#fafafa"
         offset="0" />
      <stop
         id="stop40"
         stop-color="#e0e0e0"
         offset="1" />
    </radialGradient>
    <linearGradient
       id="linearGradient3106"
       x1="24"
       gradientUnits="userSpaceOnUse"
       y1="5"
       gradientTransform="translate(5.3e-6,1.5e-6)"
       x2="24"
       y2="43">
      <stop
         id="stop3926-7"
         stop-color="#FFF"
         offset="0" />
      <stop
         id="stop3928-3"
         stop-color="#FFF"
         stop-opacity="0.23529412"
         offset="0.063165" />
      <stop
         id="stop3930-7"
         stop-color="#FFF"
         stop-opacity="0.15686275"
         offset="0.95056" />
      <stop
         id="stop3932-1"
         stop-color="#FFF"
         stop-opacity="0.39215687"
         offset="1" />
    </linearGradient>
    <radialGradient
       id="radialGradient3115"
       gradientUnits="userSpaceOnUse"
       cy="9.9444"
       cx="9.4048"
       gradientTransform="matrix(0.01605049,3.939175,-8.1858086,0.03335375,105.73127,-35.132753)"
       r="12.672">
      <stop
         id="stop3891"
         stop-color="#ff9c44"
         offset="0" />
      <stop
         id="stop3893"
         stop-color="#ff7e0c"
         offset="0.71084" />
      <stop
         id="stop3895"
         stop-color="#cb5f00"
         offset="1" />
    </radialGradient>
  </defs>
  <metadata
     id="metadata3148">
    <rdf:RDF>
      <cc:Work
         rdf:about="">
        <dc:format>image/svg+xml</dc:format>
        <dc:type
           rdf:resource="http://purl.org/dc/dcmitype/StillImage" />
        <dc:title />
      </cc:Work>
    </rdf:RDF>
  </metadata>
  <rect
     id="rect5505-21"
     style="color:#000000;fill:url(#radialGradient3115);fill-rule:nonzero;enable-background:accumulate"
     rx="2"
     ry="2"
     height="39"
     width="39"
     y="4.5"
     x="4.5" />
  <rect
     style="opacity:0.5;fill:none;stroke:url(#linearGradient3106);stroke-width:1;stroke-linecap:round;stroke-linejoin:round;stroke-miterlimit:4;stroke-dasharray:none;stroke-dashoffset:0"
     id="rect6741-2"
     rx="1"
     ry="1"
     width="37"
     x="5.5"
     y="5.5"
     stroke-miterlimit="4"
     height="37" />
  <rect
     id="rect5505-21-1"
     style="color:#000000;opacity:0.35;fill:none;stroke:#410000;stroke-width:1;stroke-linecap:round;stroke-linejoin:round;stroke-miterlimit:4;stroke-dasharray:none;stroke-dashoffset:0;enable-background:accumulate"
     rx="2"
     ry="2"
     width="39"
     x="4.5"
     y="4.5"
     stroke-miterlimit="4"
     height="39" />
  <path
     d="m 32.726642,20.575731 c -16.006218,-9.153052 -19.990598,19.907304 -3.42875,11.096641 2.03654,-1.083452 -4.427975,0.673134 -5.699158,-2.929607 3.989835,0.208623 6.294795,-1.511285 6.723338,-5.68172 0.519515,0.858176 0.685811,1.716312 1.736499,2.574518 0.248872,-1.006134 0.507685,-2.012269 0.178095,-3.018404 2.777448,1.538818 2.562571,6.900095 -0.583857,11.180968 -4.503037,6.125809 -20.38156,7.038371 -20.651294,-7.494246 C 10.797366,15.294616 31.285082,3.2510724 37,21.108211 c -2.701781,-3.379589 -6.021323,-6.282373 -10.018029,-5.68172 2.977274,1.232904 5.207375,2.853611 5.74361,5.149037 z"
     id="path4167"
     style="opacity:0.3;fill:#000000;fill-opacity:1"
     inkscape:connector-curvature="0" />
  <path
     d="m 32.726642,19.57573 c -16.006218,-9.153052 -19.990598,19.907304 -3.42875,11.096641 2.03654,-1.083452 -4.427975,0.673134 -5.699158,-2.929607 3.989835,0.208623 6.294795,-1.511285 6.723338,-5.68172 0.519515,0.858176 0.685811,1.716312 1.736499,2.574518 0.248872,-1.006134 0.507685,-2.012269 0.178095,-3.018404 2.777448,1.538818 2.562571,6.900095 -0.583857,11.180968 C 27.149772,38.923935 11.271249,39.836497 11.001515,25.30388 10.797366,14.294615 31.285082,2.2510717 37,20.10821 34.298219,16.728621 30.978677,13.825837 26.981971,14.42649 c 2.977274,1.232904 5.207375,2.853611 5.74361,5.149037 z"
     id="path4169"
     style="fill:none;stroke:#000000;stroke-opacity:1;opacity:0.15"
     inkscape:connector-curvature="0" />
  <path
     inkscape:connector-curvature="0"
     style="fill:url(#radialGradient4031)"
     id="path3977"
     d="m 32.726642,19.57573 c -16.006218,-9.153052 -19.990598,19.907304 -3.42875,11.096641 2.03654,-1.083452 -4.427975,0.673134 -5.699158,-2.929607 3.989835,0.208623 6.294795,-1.511285 6.723338,-5.68172 0.519515,0.858176 0.685811,1.716312 1.736499,2.574518 0.248872,-1.006134 0.507685,-2.012269 0.178095,-3.018404 2.777448,1.538818 2.562571,6.900095 -0.583857,11.180968 C 27.149772,38.923935 11.271249,39.836497 11.001515,25.30388 10.797366,14.294615 31.285082,2.2510717 37,20.10821 34.298219,16.728621 30.978677,13.825837 26.981971,14.42649 c 2.977274,1.232904 5.207375,2.853611 5.74361,5.149037 z" />
</svg>
