<?xml version="1.0" encoding="UTF-8" standalone="no"?>
<!-- Created with Inkscape (http://www.inkscape.org/) -->

<svg
   xmlns:dc="http://purl.org/dc/elements/1.1/"
   xmlns:cc="http://creativecommons.org/ns#"
   xmlns:rdf="http://www.w3.org/1999/02/22-rdf-syntax-ns#"
   xmlns:svg="http://www.w3.org/2000/svg"
   xmlns="http://www.w3.org/2000/svg"
   xmlns:xlink="http://www.w3.org/1999/xlink"
   xmlns:sodipodi="http://sodipodi.sourceforge.net/DTD/sodipodi-0.dtd"
   xmlns:inkscape="http://www.inkscape.org/namespaces/inkscape"
   version="1.1"
   width="48"
   height="48"
   id="svg18157"
   inkscape:version="0.91 r13725"
   sodipodi:docname="fslint_icon.svg">
  <sodipodi:namedview
     pagecolor="#ffffff"
     bordercolor="#666666"
     borderopacity="1"
     objecttolerance="10"
     gridtolerance="10"
     guidetolerance="10"
     inkscape:pageopacity="0"
     inkscape:pageshadow="2"
     inkscape:window-width="1551"
     inkscape:window-height="876"
     id="namedview72"
     showgrid="false"
     inkscape:snap-grids="false"
     inkscape:zoom="4.97"
     inkscape:cx="-3.5975855"
     inkscape:cy="12.620199"
     inkscape:window-x="49"
     inkscape:window-y="24"
     inkscape:window-maximized="1"
     inkscape:current-layer="svg18157">
    <inkscape:grid
       type="xygrid"
       id="grid4322" />
  </sodipodi:namedview>
  <defs
     id="defs18159">
    <linearGradient
       x1="42.470848"
       y1="11.952797"
       x2="42.470848"
       y2="35.581654"
       id="linearGradient12489"
       xlink:href="#linearGradient3454-2-5-0-3"
       gradientUnits="userSpaceOnUse"
       gradientTransform="matrix(0.89189031,0,0,1.0986542,3.142773,3.887208)" />
    <linearGradient
       id="linearGradient3454-2-5-0-3">
      <stop
         id="stop3456-4-9-38-1"
         style="stop-color:#ffffff;stop-opacity:1"
         offset="0" />
      <stop
         id="stop3458-39-80-3-5"
         style="stop-color:#ffffff;stop-opacity:0.23529412"
         offset="0.0097359" />
      <stop
         id="stop3460-7-0-2-4"
         style="stop-color:#ffffff;stop-opacity:0.15686275"
         offset="0.99001008" />
      <stop
         id="stop3462-0-9-8-7"
         style="stop-color:#ffffff;stop-opacity:0.39215687"
         offset="1" />
    </linearGradient>
    <linearGradient
       x1="22.934725"
       y1="49.629246"
       x2="22.809399"
       y2="36.657963"
       id="linearGradient12487"
       xlink:href="#linearGradient6129-963-697-142-998-580-273-44-2-2"
       gradientUnits="userSpaceOnUse"
       gradientTransform="matrix(1.1446925,0,0,0.9977536,-3.4661379,1.0988397)" />
    <linearGradient
       id="linearGradient6129-963-697-142-998-580-273-44-2-2">
      <stop
         id="stop2661-01-6-2"
         style="stop-color:#0a0a0a;stop-opacity:0.498"
         offset="0" />
      <stop
         id="stop2663-64-5-5"
         style="stop-color:#0a0a0a;stop-opacity:0"
         offset="1" />
    </linearGradient>
    <linearGradient
       x1="35.792694"
       y1="17.118193"
       x2="35.792694"
       y2="43.761127"
       id="linearGradient12481"
       xlink:href="#linearGradient4632-0-6-4"
       gradientUnits="userSpaceOnUse"
       gradientTransform="matrix(1,0,0,1.0357143,2.0849371e-6,-1.5890903)" />
    <linearGradient
       id="linearGradient4632-0-6-4">
      <stop
         id="stop4634-4-4-7"
         style="stop-color:#b4cee1;stop-opacity:1"
         offset="0" />
      <stop
         id="stop4636-3-1-5"
         style="stop-color:#5d9fcd;stop-opacity:1"
         offset="1" />
    </linearGradient>
    <radialGradient
       cx="605.71429"
       cy="486.64789"
       r="117.14286"
       fx="605.71429"
       fy="486.64789"
       id="radialGradient12475"
       xlink:href="#linearGradient5060-820-91-9-0"
       gradientUnits="userSpaceOnUse"
       gradientTransform="matrix(-0.03079083,0,0,0.02470588,23.389752,31.94164)" />
    <linearGradient
       id="linearGradient5060-820-91-9-0">
      <stop
         id="stop2681-778-5-1"
         style="stop-color:#000000;stop-opacity:1"
         offset="0" />
      <stop
         id="stop2683-2-86-2"
         style="stop-color:#000000;stop-opacity:0"
         offset="1" />
    </linearGradient>
    <radialGradient
       cx="605.71429"
       cy="486.64789"
       r="117.14286"
       fx="605.71429"
       fy="486.64789"
       id="radialGradient12471"
       xlink:href="#linearGradient5060-179-37-4-0"
       gradientUnits="userSpaceOnUse"
       gradientTransform="matrix(0.03079083,0,0,0.02470588,24.610252,31.94164)" />
    <linearGradient
       id="linearGradient5060-179-37-4-0">
      <stop
         id="stop2675-91-9-2"
         style="stop-color:#000000;stop-opacity:1"
         offset="0" />
      <stop
         id="stop2677-09-0-9"
         style="stop-color:#000000;stop-opacity:0"
         offset="1" />
    </linearGradient>
    <linearGradient
       x1="302.85715"
       y1="366.64789"
       x2="302.85715"
       y2="609.50507"
       id="linearGradient12467"
       xlink:href="#linearGradient5048-585-73-1-5"
       gradientUnits="userSpaceOnUse"
       gradientTransform="matrix(0.07938856,0,0,0.02470588,-4.6932879,31.94164)" />
    <linearGradient
       id="linearGradient5048-585-73-1-5">
      <stop
         id="stop2667-99-4-6"
         style="stop-color:#000000;stop-opacity:0"
         offset="0" />
      <stop
         id="stop2669-5-9-4"
         style="stop-color:#000000;stop-opacity:1"
         offset="0.5" />
      <stop
         id="stop2671-56-4-2"
         style="stop-color:#000000;stop-opacity:0"
         offset="1" />
    </linearGradient>
    <linearGradient
       x1="21.37039"
       y1="4.2476678"
       x2="21.37039"
       y2="34.143417"
       id="linearGradient12463"
       xlink:href="#linearGradient4507-0-4-7"
       gradientUnits="userSpaceOnUse"
       gradientTransform="matrix(0.89189031,0,0,1.0580283,3.1206621,5.3535997)" />
    <linearGradient
       id="linearGradient4507-0-4-7">
      <stop
         id="stop4509-35-6-1"
         style="stop-color:#ffffff;stop-opacity:1"
         offset="0" />
      <stop
         id="stop4511-46-3-8"
         style="stop-color:#ffffff;stop-opacity:0.23529412"
         offset="0.07395859" />
      <stop
         id="stop4513-15-5-9"
         style="stop-color:#ffffff;stop-opacity:0.15686275"
         offset="0.99001008" />
      <stop
         id="stop4515-1-1-8"
         style="stop-color:#ffffff;stop-opacity:0.39215687"
         offset="1" />
    </linearGradient>
    <linearGradient
       x1="62.988873"
       y1="13"
       x2="62.988873"
       y2="16"
       id="linearGradient12459"
       xlink:href="#linearGradient4646-7-4-3"
       gradientUnits="userSpaceOnUse"
       gradientTransform="translate(-50.940897,-3.1315613e-7)" />
    <linearGradient
       id="linearGradient4646-7-4-3">
      <stop
         id="stop4648-8-0-3"
         style="stop-color:#f9f9f9;stop-opacity:1"
         offset="0" />
      <stop
         id="stop4650-1-7-3"
         style="stop-color:#d8d8d8;stop-opacity:1"
         offset="1" />
    </linearGradient>
    <linearGradient
       id="linearGradient3104-8-8-97-4-6-11-5-5">
      <stop
         id="stop3106-5-4-3-5-0-2-1-0"
         style="stop-color:#000000;stop-opacity:0.32173914"
         offset="0" />
      <stop
         id="stop3108-4-3-7-8-2-0-7-9"
         style="stop-color:#000000;stop-opacity:0.27826086"
         offset="1" />
    </linearGradient>
    <linearGradient
       x1="-51.786404"
       y1="53.514328"
       x2="-51.786404"
       y2="3.6336823"
       id="linearGradient18155"
       xlink:href="#linearGradient3104-8-8-97-4-6-11-5-5"
       gradientUnits="userSpaceOnUse"
       gradientTransform="matrix(0.80749834,0,0,0.83374395,106.87672,-0.06984031)" />
    <linearGradient
       id="linearGradient3277-442">
      <stop
         offset="0"
         style="stop-color:#575757;stop-opacity:1"
         id="stop3378" />
      <stop
         offset="1"
         style="stop-color:#333333;stop-opacity:1"
         id="stop3380" />
    </linearGradient>
    <linearGradient
       id="linearGradient11114-516">
      <stop
         offset="0"
         style="stop-color:#242424;stop-opacity:0.99215686"
         id="stop3372" />
      <stop
         offset="1"
         style="stop-color:#656565;stop-opacity:1"
         id="stop3374" />
    </linearGradient>
    <linearGradient
       id="linearGradient3294">
      <stop
         offset="0"
         style="stop-color:#ffffff;stop-opacity:0.19520548"
         id="stop3296" />
      <stop
         offset="1"
         style="stop-color:#ffffff;stop-opacity:0"
         id="stop3298" />
    </linearGradient>
    <linearGradient
       id="linearGradient11104-770">
      <stop
         offset="0"
         style="stop-color:#333333;stop-opacity:1"
         id="stop3402" />
      <stop
         offset="1"
         style="stop-color:#333333;stop-opacity:0.6122449"
         id="stop3404" />
    </linearGradient>
    <linearGradient
       id="linearGradient2300-465">
      <stop
         offset="0"
         style="stop-color:#343434;stop-opacity:0.97647059"
         id="stop3396" />
      <stop
         offset="1"
         style="stop-color:#929292;stop-opacity:1"
         id="stop3398" />
    </linearGradient>
    <linearGradient
       id="linearGradient6209-717">
      <stop
         offset="0"
         style="stop-color:#979797;stop-opacity:1"
         id="stop3366" />
      <stop
         offset="1"
         style="stop-color:#000000;stop-opacity:0.34117648"
         id="stop3368" />
    </linearGradient>
    <linearGradient
       id="linearGradient8838">
      <stop
         offset="0"
         style="stop-color:#7f7f7f;stop-opacity:1"
         id="stop8840" />
      <stop
         offset="1"
         style="stop-color:#808080;stop-opacity:0"
         id="stop8842" />
    </linearGradient>
    <radialGradient
       gradientTransform="matrix(1,0,0,0.341176,0,3.047059)"
       gradientUnits="userSpaceOnUse"
       xlink:href="#linearGradient8838"
       id="radialGradient2759"
       fy="4.625"
       fx="62.625"
       r="10.625"
       cy="4.625"
       cx="62.625" />
    <linearGradient
       gradientTransform="matrix(1.0113456,0,0,1.0013346,-0.1475723,1.8143278)"
       gradientUnits="userSpaceOnUse"
       xlink:href="#linearGradient3277-442"
       id="linearGradient2782"
       y2="29.484051"
       x2="31.364458"
       y1="27.988184"
       x1="32.892574" />
    <linearGradient
       gradientTransform="matrix(0.3936567,0,0,0.38976,101.37812,-4.2393119)"
       gradientUnits="userSpaceOnUse"
       xlink:href="#linearGradient11114-516"
       id="linearGradient2780"
       y2="91.972626"
       x2="-164.71831"
       y1="99.667191"
       x1="-172.65306" />
    <linearGradient
       gradientTransform="matrix(0.3936567,0,0,0.38976,-50.208746,-0.4726547)"
       gradientUnits="userSpaceOnUse"
       xlink:href="#linearGradient3294"
       id="linearGradient2778"
       y2="67.350082"
       x2="201.87128"
       y1="146.1507"
       x1="277.573" />
    <linearGradient
       id="linearGradient4454-600">
      <stop
         offset="0"
         style="stop-color:#a1a1a1;stop-opacity:0.20784314"
         id="stop3408" />
      <stop
         offset="1"
         style="stop-color:#a1a1a1;stop-opacity:0.67843139"
         id="stop3410" />
    </linearGradient>
    <radialGradient
       gradientUnits="userSpaceOnUse"
       xlink:href="#linearGradient4454-600"
       id="radialGradient2776"
       fy="21.817987"
       fx="18.240929"
       r="8.3085051"
       cy="21.817987"
       cx="18.240929" />
    <radialGradient
       gradientTransform="matrix(3.0710057,0,0,2.3628614,-33.010584,-21.34546)"
       gradientUnits="userSpaceOnUse"
       xlink:href="#linearGradient3294"
       id="radialGradient2774"
       fy="13.078408"
       fx="15.414371"
       r="6.65625"
       cy="13.078408"
       cx="15.414371" />
    <linearGradient
       gradientTransform="matrix(0.4037708,0,0,0.399774,0.5399201,2.6759154)"
       gradientUnits="userSpaceOnUse"
       xlink:href="#linearGradient11104-770"
       id="linearGradient2772"
       y2="4.5362983"
       x2="41.485142"
       y1="68.291702"
       x1="41.541653" />
    <linearGradient
       gradientTransform="matrix(0.4037708,0,0,0.399774,-51.833663,-0.3327449)"
       gradientUnits="userSpaceOnUse"
       xlink:href="#linearGradient2300-465"
       id="linearGradient2770"
       y2="11.949074"
       x2="173.09576"
       y1="75.31868"
       x1="173.09576" />
    <linearGradient
       gradientTransform="matrix(0.3845313,0,0,0.3807249,-48.396976,0.258476)"
       gradientUnits="userSpaceOnUse"
       xlink:href="#linearGradient6209-717"
       id="linearGradient2768"
       y2="11.949074"
       x2="173.09576"
       y1="75.31868"
       x1="173.09576" />
  </defs>
  <metadata
     id="metadata18162">
    <rdf:RDF>
      <cc:Work
         rdf:about="">
        <dc:format>image/svg+xml</dc:format>
        <dc:type
           rdf:resource="http://purl.org/dc/dcmitype/StillImage" />
        <dc:title />
      </cc:Work>
    </rdf:RDF>
  </metadata>
  <path
     style="color:#000000;display:inline;overflow:visible;visibility:visible;opacity:0.8;fill:none;stroke:url(#linearGradient18155);stroke-width:1;stroke-linecap:butt;stroke-linejoin:miter;stroke-miterlimit:4;stroke-dasharray:none;stroke-dashoffset:0;stroke-opacity:1;marker:none;enable-background:accumulate"
     id="rect4251-0-0-61"
     inkscape:connector-curvature="0"
     d="m 5.5000021,8.4999997 c -0.554,0 -1,0.446 -1,1 l 0,2.0000003 -1,0 c -0.554,0 -1,0.446 -1,1 l 0,6 c 0,0.554 0.446,1 1,1 l 40.9999999,0 c 0.554,0 1,-0.446 1,-1 l 0,-6 c 0,-0.554 -0.446,-1 -1,-1 l -23,0 0,-2.0000003 c 0,-0.554 -0.446,-1 -1,-1 l -14.9999999,0 z" />
  <path
     style="color:#000000;display:inline;overflow:visible;visibility:visible;fill:url(#linearGradient12459);fill-opacity:1;fill-rule:nonzero;stroke:none;stroke-width:0.99992168;marker:none;enable-background:accumulate"
     id="rect4251-3-2"
     inkscape:connector-curvature="0"
     d="m 5.5000021,8.9999997 c -0.277,0 -0.5,0.223 -0.5,0.5 l 0,2.5000003 -1.5,0 c -0.277,0 -0.5,0.223 -0.5,0.5 l 0,6 c 0,0.277 0.223,0.5 0.5,0.5 l 40.9999999,0 c 0.277,0 0.5,-0.223 0.5,-0.5 l 0,-6 c 0,-0.277 -0.223,-0.5 -0.5,-0.5 l -23.5,0 0,-2.5000003 c 0,-0.277 -0.223,-0.5 -0.5,-0.5 l -14.9999999,0 z" />
  <path
     style="color:#000000;display:inline;overflow:visible;visibility:visible;fill:none;stroke:url(#linearGradient12463);stroke-width:1;stroke-linecap:round;stroke-linejoin:round;stroke-miterlimit:4;stroke-dasharray:none;stroke-dashoffset:0;stroke-opacity:1;marker:none;enable-background:accumulate"
     id="rect4251-9-21-7"
     inkscape:connector-curvature="0"
     d="m 5.5000021,9.4999997 0,3.0000003 -2,0 0,7 40.9999999,0 0,-7 -24,0 0,-3.0000003 -14.9999999,0 z" />
  <rect
     style="display:inline;overflow:visible;visibility:visible;opacity:0.3;fill:url(#linearGradient12467);fill-opacity:1;fill-rule:nonzero;stroke:none;stroke-width:1;marker:none"
     id="rect4173-8-8"
     y="41"
     x="4.8333426"
     height="6.0000005"
     width="38.333332" />
  <path
     style="display:inline;overflow:visible;visibility:visible;opacity:0.3;fill:url(#radialGradient12471);fill-opacity:1;fill-rule:nonzero;stroke:none;stroke-width:1;marker:none"
     id="path5058-9-0"
     inkscape:connector-curvature="0"
     d="m 43.166672,41.00021 c 0,0 0,5.99967 0,5.99967 1.58565,0.0113 3.83333,-1.34422 3.83333,-3.00022 0,-1.656 -1.76947,-2.99945 -3.83333,-2.99945 z" />
  <path
     style="display:inline;overflow:visible;visibility:visible;opacity:0.3;fill:url(#radialGradient12475);fill-opacity:1;fill-rule:nonzero;stroke:none;stroke-width:1;marker:none"
     id="path5018-6-6"
     inkscape:connector-curvature="0"
     d="m 4.8333321,41.00021 c 0,0 0,5.99967 0,5.99967 -1.58565,0.0113 -3.83333,-1.34422 -3.83333,-3.00022 0,-1.656 1.76947,-2.99945 3.83333,-2.99945 z" />
  <path
     style="fill:url(#linearGradient12481);fill-opacity:1;stroke:none"
     id="path3388-7-1"
     inkscape:connector-curvature="0"
     d="m 2.1626121,15.50019 c -1.07231,0.12829 -0.49959,1.45416 -0.58508,2.19974 0.12444,0.48182 0.92748,26.17643 0.92748,26.17643 0,0.7414 0.35172,0.61579 1.24292,0.61579 13.1885599,0 27.7725299,0 40.9610899,0 0.96008,0.0231 0.75718,0.0121 0.75718,-0.62748 0,0 0.99298,-27.35421 1.0285,-27.7811 0,-0.44949 0.0902,-0.58338 -0.47316,-0.58338 -14.08405,0 -29.77488,0 -43.8589299,0 z" />
  <path
     style="opacity:0.4;fill:url(#linearGradient12487);fill-opacity:1;stroke:none"
     id="path6127-1-4"
     inkscape:connector-curvature="0"
     d="m 2.0582421,16.06515 43.8964799,4e-4 c 0.63416,0 1.04515,0.44461 1.04515,0.99737 l -1.03241,26.96037 c 0.0147,0.6994 -0.20909,0.97671 -0.9459,0.96204 L 3.2408421,44.96773 c -0.63416,0 -1.27363,-0.41277 -1.27363,-0.96552 L 1.0130921,17.0629 c 0,-0.55276 0.41099,-0.99775 1.04515,-0.99775 z" />
  <path
     style="color:#000000;display:inline;overflow:visible;visibility:visible;opacity:0.5;fill:none;stroke:url(#linearGradient12489);stroke-width:1.00000012;stroke-linecap:round;stroke-linejoin:miter;stroke-miterlimit:4;stroke-dasharray:none;stroke-dashoffset:0;stroke-opacity:1;marker:none;enable-background:accumulate"
     id="path4587-3-5"
     inkscape:connector-curvature="0"
     d="m 2.5221121,16.499999 c 0.016793,0.183202 0.022163,0.537823 0.03125,0.908598 0.023112,0.08973 0.025524,0.06151 0.03125,0.09735 0.011058,0.06921 0.027034,0.143566 0.03125,0.1947 0.0064,0.07761 -0.00668,0.179686 0,0.292049 0.013352,0.224726 0.045306,0.530459 0.0625,0.908598 0.034388,0.756279 0.078083,1.7745 0.125,3.017843 0.093834,2.486687 0.2030642,5.769016 0.3125,9.02108 0.2122959,6.308724 0.3945663,12.188203 0.40625,12.558123 0.1225025,0.0037 0.071108,0 0.25,0 l 40.7187499,0 c 0.0124,-0.341463 0.253182,-6.673493 0.5,-13.401821 0.126691,-3.453636 0.245386,-6.941969 0.34375,-9.572728 0.04918,-1.31538 0.09434,-2.421026 0.125,-3.212543 0.01322,-0.341237 0.02246,-0.594976 0.03125,-0.811249 l -42.9687499,0 z" />
  <path
     style="opacity:0.3;fill:none;stroke:#000000;stroke-width:1;stroke-linecap:round;stroke-linejoin:round;stroke-miterlimit:4;stroke-dashoffset:0;stroke-opacity:1"
     id="path3388-7-1-7"
     inkscape:connector-curvature="0"
     d="m 2.1626121,15.50019 c -1.07231,0.12829 -0.49959,1.45416 -0.58508,2.19974 0.12444,0.48182 0.92748,26.17643 0.92748,26.17643 0,0.7414 0.35172,0.61579 1.24292,0.61579 13.1885599,0 27.7725299,0 40.9610899,0 0.96008,0.0231 0.75718,0.0121 0.75718,-0.62748 0,0 0.99298,-27.35421 1.0285,-27.7811 0,-0.44949 0.0902,-0.58338 -0.47316,-0.58338 -14.08405,0 -29.77488,0 -43.8589299,0 z" />
  <g
     id="layer1"
     transform="translate(-2.315614,-1.0000002)">
    <path
       style="display:inline;overflow:visible;visibility:visible;opacity:0.3;fill:url(#radialGradient2759);fill-opacity:1;fill-rule:evenodd;stroke:none;stroke-width:0.99999988;marker:none"
       id="path8836"
       transform="matrix(2.149872,0,0,1.6619216,-110.63573,34.289147)"
       inkscape:connector-curvature="0"
       d="m 73.25,4.625 a 10.625,3.625 0 1 1 -21.25,0 10.625,3.625 0 1 1 21.25,0 z" />
    <path
       style="display:inline;fill:url(#linearGradient2780);fill-opacity:1;fill-rule:evenodd;stroke:url(#linearGradient2782);stroke-width:1.25790954;stroke-linecap:round;stroke-linejoin:round;stroke-miterlimit:4;stroke-dasharray:none;stroke-opacity:1"
       id="path11112"
       inkscape:connector-curvature="0"
       d="m 28.183928,24.771802 17.601461,16.2194 -2.439808,3.278384 -17.537714,-17.545053 2.376061,-1.952731 z" />
    <path
       style="display:inline;fill:url(#linearGradient2778);fill-opacity:1;fill-rule:evenodd;stroke:none"
       id="path11122"
       inkscape:connector-curvature="0"
       d="M 43.375247,43.204937 29.259227,25.777711 46.337872,40.616736 43.375247,43.204937 Z" />
    <path
       style="display:inline;fill:#3e3e3e;fill-opacity:1;stroke:none"
       id="path13082"
       transform="matrix(0.3701926,-0.4150383,0.4745098,0.3092893,-97.502604,109.5756)"
       inkscape:connector-curvature="0"
       d="m 247.90924,110.29199 a 4.86685,2.6562012 0 1 1 -9.7337,0 4.86685,2.6562012 0 1 1 9.7337,0 z" />
    <path
       style="display:inline;visibility:visible;fill:url(#radialGradient2776);fill-opacity:1;fill-rule:evenodd;stroke:none;stroke-width:0.88163906;marker:none"
       id="path4452"
       transform="matrix(1.4889549,0,0,1.4383688,-7.506469,-10.003202)"
       inkscape:connector-curvature="0"
       d="m 25.897786,18.478292 a 8.3085051,8.3085051 0 1 1 -16.61701,0 8.3085051,8.3085051 0 1 1 16.61701,0 z" />
    <path
       style="display:inline;overflow:visible;visibility:visible;opacity:0.83422457;fill:url(#radialGradient2774);fill-opacity:1;fill-rule:evenodd;stroke:none;stroke-width:1;marker:none"
       id="path4462"
       inkscape:connector-curvature="0"
       d="m 18.173574,6.2875092 c -6.167668,0 -11.1620724,4.4243448 -11.1620724,9.8880428 0,1.577938 0.1382919,3.207765 0.8807217,4.531967 1.4832709,0.484315 3.4184287,0.635856 5.0907577,0.635856 7.308643,0 13.594949,-5.367693 14.045982,-11.7419735 C 24.978875,7.4552716 21.59337,6.2875092 18.173574,6.2875092 Z" />
    <path
       style="display:inline;fill:url(#linearGradient2770);fill-opacity:1;stroke:url(#linearGradient2772);stroke-width:1.29022872;stroke-linecap:round;stroke-linejoin:round;stroke-miterlimit:4;stroke-dasharray:none;stroke-opacity:1"
       id="path2298"
       inkscape:connector-curvature="0"
       d="m 18.411216,4.6414839 c -7.597567,0 -13.7660654,5.6316951 -13.7660613,12.5678951 0,6.9362 6.1684943,12.567893 13.7660613,12.567894 7.59756,0 13.766059,-5.631694 13.766059,-12.567894 0,-6.9362 -6.168495,-12.5678951 -13.766059,-12.5678951 z m 0.16403,0.824534 c 6.799869,0 12.327628,5.0356991 12.327628,11.2436431 0,6.207944 -5.527759,11.243643 -12.327628,11.243643 -6.799871,1e-6 -12.3150081,-5.035698 -12.3150081,-11.243643 0,-6.207944 5.5151371,-11.2436431 12.3150081,-11.2436431 z" />
    <path
       style="display:inline;fill:url(#linearGradient2768);fill-opacity:1;stroke:none"
       id="path4267"
       inkscape:connector-curvature="0"
       d="m 18.49954,5.0037791 c -7.235544,0 -13.0973151,5.3625389 -13.0973151,11.9682339 0,6.605694 5.8617671,11.968234 13.0973151,11.968233 7.235544,0 13.109932,-5.36254 13.109932,-11.968233 0,-6.605695 -5.874392,-11.9682339 -13.109932,-11.9682339 z m 0.07571,0.4622387 c 6.799867,0 11.788366,5.0356992 11.788366,11.2436432 0,6.207944 -4.988499,10.70972 -11.788366,10.70972 -6.799872,10e-7 -11.8656244,-4.501775 -11.8656244,-10.70972 0,-6.207944 5.0657524,-11.2436432 11.8656244,-11.2436432 z" />
  </g>
</svg>
