<?xml version="1.0" encoding="UTF-8" standalone="no"?>
<!-- Created with Inkscape (http://www.inkscape.org/) -->

<svg
   xmlns:dc="http://purl.org/dc/elements/1.1/"
   xmlns:cc="http://creativecommons.org/ns#"
   xmlns:rdf="http://www.w3.org/1999/02/22-rdf-syntax-ns#"
   xmlns:svg="http://www.w3.org/2000/svg"
   xmlns="http://www.w3.org/2000/svg"
   xmlns:xlink="http://www.w3.org/1999/xlink"
   xmlns:sodipodi="http://sodipodi.sourceforge.net/DTD/sodipodi-0.dtd"
   xmlns:inkscape="http://www.inkscape.org/namespaces/inkscape"
   version="1.1"
   width="48"
   height="48"
   id="svg3996"
   inkscape:version="0.91 r"
   sodipodi:docname="gajim.svg">
  <sodipodi:namedview
     pagecolor="#ffffff"
     bordercolor="#666666"
     borderopacity="1"
     objecttolerance="10"
     gridtolerance="10"
     guidetolerance="10"
     inkscape:pageopacity="0"
     inkscape:pageshadow="2"
     inkscape:window-width="1600"
     inkscape:window-height="845"
     id="namedview37"
     showgrid="true"
     inkscape:zoom="1"
     inkscape:cx="19.553777"
     inkscape:cy="20.14546"
     inkscape:window-x="0"
     inkscape:window-y="30"
     inkscape:window-maximized="1"
     inkscape:current-layer="svg3996" />
  <defs
     id="defs3998">
    <linearGradient
       id="linearGradient3828">
      <stop
         id="stop3830"
         offset="0"
         style="stop-color:#1c3d7b;stop-opacity:1;" />
      <stop
         style="stop-color:#1f4286;stop-opacity:1;"
         offset="0.21795046"
         id="stop3840" />
      <stop
         style="stop-color:#163162;stop-opacity:1;"
         offset="0.38381505"
         id="stop3832" />
      <stop
         style="stop-color:#122850;stop-opacity:1;"
         offset="0.76098669"
         id="stop3834" />
      <stop
         id="stop3836"
         offset="1"
         style="stop-color:#0b182f;stop-opacity:1;" />
    </linearGradient>
    <linearGradient
       id="linearGradient3837">
      <stop
         style="stop-color:#0b182f;stop-opacity:0.07843138;"
         offset="0"
         id="stop3839" />
      <stop
         style="stop-color:#0b182f;stop-opacity:0.56470591;"
         offset="1"
         id="stop3841" />
    </linearGradient>
    <linearGradient
       id="linearGradient3829">
      <stop
         style="stop-color:#161616;stop-opacity:1;"
         offset="0"
         id="stop3831" />
      <stop
         id="stop3824"
         offset="0.25"
         style="stop-color:#3c3c3c;stop-opacity:1;" />
      <stop
         id="stop3822"
         offset="0.5"
         style="stop-color:#393939;stop-opacity:1;" />
      <stop
         style="stop-color:#333333;stop-opacity:1;"
         offset="1"
         id="stop3833" />
    </linearGradient>
    <linearGradient
       id="linearGradient3793">
      <stop
         style="stop-color:#8eff7d;stop-opacity:1;"
         offset="0"
         id="stop3795" />
      <stop
         style="stop-color:#56ae49;stop-opacity:1;"
         offset="1"
         id="stop3797" />
    </linearGradient>
    <linearGradient
       x1="132.3414"
       y1="2.2922528"
       x2="132.3414"
       y2="33.33271"
       id="linearGradient6784-9"
       xlink:href="#linearGradient6786-4"
       gradientUnits="userSpaceOnUse"
       gradientTransform="matrix(1.1891887,0,0,1.4107063,-126.14094,-11.842585)" />
    <linearGradient
       id="linearGradient6786-4">
      <stop
         id="stop6788-2"
         style="stop-color:#ffffff;stop-opacity:0.6484375;"
         offset="0" />
      <stop
         id="stop6790-0"
         style="stop-color:#ffffff;stop-opacity:0.23529412"
         offset="0.46352294" />
      <stop
         id="stop6792-0"
         style="stop-color:#ffffff;stop-opacity:0.15686275"
         offset="0.76175833" />
      <stop
         id="stop6794-4"
         style="stop-color:#ffffff;stop-opacity:0.39215687"
         offset="1" />
    </linearGradient>
    <linearGradient
       x1="22.642942"
       y1="26.966721"
       x2="22.642942"
       y2="30.98424"
       id="linearGradient6883"
       xlink:href="#linearGradient3922"
       gradientUnits="userSpaceOnUse"
       gradientTransform="matrix(1.23944,0,0,1.2401758,2.5038689,6.6210943)" />
    <linearGradient
       id="linearGradient3922">
      <stop
         id="stop3924"
         style="stop-color:#000000;stop-opacity:1"
         offset="0" />
      <stop
         id="stop3926-9"
         style="stop-color:#000000;stop-opacity:0"
         offset="1" />
    </linearGradient>
    <linearGradient
       x1="22.642942"
       y1="26.966721"
       x2="22.642942"
       y2="30.98424"
       id="linearGradient6886"
       xlink:href="#linearGradient3922"
       gradientUnits="userSpaceOnUse"
       gradientTransform="matrix(1.3333351,0,0,1.3333351,0.0846107,3.459921)" />
    <linearGradient
       x1="-51.786404"
       y1="53.514328"
       x2="-51.786404"
       y2="3.6336823"
       id="linearGradient3394-3"
       xlink:href="#linearGradient3104-8-8-97-9"
       gradientUnits="userSpaceOnUse"
       gradientTransform="matrix(1.0700435,0,0,1.1244505,78.923391,-1.102116)" />
    <linearGradient
       id="linearGradient3104-8-8-97-9">
      <stop
         id="stop3106-5-4-3-6"
         style="stop-color:#56ae49;stop-opacity:1;"
         offset="0" />
      <stop
         id="stop3108-4-3-7-0"
         style="stop-color:#6dbd61;stop-opacity:1;"
         offset="1" />
    </linearGradient>
    <linearGradient
       x1="-60.960796"
       y1="28.233982"
       x2="-60.914154"
       y2="104.84189"
       id="linearGradient6654-1"
       xlink:href="#linearGradient3600-8-3"
       gradientUnits="userSpaceOnUse"
       gradientTransform="matrix(0.58378914,3.5977471e-4,-3.5543764e-4,0.59091266,61.565019,-10.157046)" />
    <linearGradient
       id="linearGradient3600-8-3">
      <stop
         id="stop3828-7-6"
         style="stop-color:#9fd89a;stop-opacity:1;"
         offset="0" />
      <stop
         id="stop3604-2-5"
         style="stop-color:#40b742;stop-opacity:1;"
         offset="1" />
    </linearGradient>
    <linearGradient
       id="linearGradient8838-561-565">
      <stop
         id="stop4621"
         style="stop-color:#0a0a0a;stop-opacity:1"
         offset="0" />
      <stop
         id="stop4623"
         style="stop-color:#0a0a0a;stop-opacity:0"
         offset="1" />
    </linearGradient>
    <radialGradient
       cx="62.625"
       cy="4.625"
       r="10.625"
       fx="62.625"
       fy="4.625"
       id="radialGradient3994"
       xlink:href="#linearGradient8838-561-565"
       gradientUnits="userSpaceOnUse"
       gradientTransform="matrix(2.8862785,0,0,1.0039217,-148.75315,46.023509)" />
    <linearGradient
       inkscape:collect="always"
       xlink:href="#linearGradient6786-4"
       id="linearGradient3015"
       gradientUnits="userSpaceOnUse"
       gradientTransform="matrix(1.1891887,0,0,1.4107063,-126.14094,4.157415)"
       x1="132.3414"
       y1="2.2922528"
       x2="132.3414"
       y2="33.33271" />
    <linearGradient
       inkscape:collect="always"
       xlink:href="#linearGradient3104-8-8-97-9"
       id="linearGradient3026"
       gradientUnits="userSpaceOnUse"
       gradientTransform="matrix(1.0700435,0,0,1.1244505,78.923391,-1.102116)"
       x1="-51.786404"
       y1="53.514328"
       x2="-51.786404"
       y2="3.6336823" />
    <linearGradient
       inkscape:collect="always"
       xlink:href="#linearGradient3600-8-3"
       id="linearGradient3029"
       gradientUnits="userSpaceOnUse"
       gradientTransform="matrix(0.58378914,3.5977471e-4,-3.5543764e-4,0.59091266,61.683663,-10.445182)"
       x1="-60.960796"
       y1="28.233982"
       x2="-60.914154"
       y2="104.84189" />
    <radialGradient
       inkscape:collect="always"
       xlink:href="#linearGradient8838-561-565"
       id="radialGradient3032"
       gradientUnits="userSpaceOnUse"
       gradientTransform="matrix(2.8862785,0,0,1.0039217,-148.75315,46.023509)"
       cx="62.625"
       cy="4.625"
       fx="62.625"
       fy="4.625"
       r="10.625" />
    <radialGradient
       inkscape:collect="always"
       xlink:href="#linearGradient8838-561-565"
       id="radialGradient3846"
       gradientUnits="userSpaceOnUse"
       gradientTransform="matrix(2.8862785,0,0,1.0039217,-148.75315,46.023509)"
       cx="62.625"
       cy="4.625"
       fx="62.625"
       fy="4.625"
       r="10.625" />
    <linearGradient
       inkscape:collect="always"
       xlink:href="#linearGradient3600-8-3"
       id="linearGradient3848"
       gradientUnits="userSpaceOnUse"
       gradientTransform="matrix(0.58378914,3.5977471e-4,-3.5543764e-4,0.59091266,61.683663,-10.445182)"
       x1="-60.960796"
       y1="28.233982"
       x2="-60.914154"
       y2="104.84189" />
    <linearGradient
       inkscape:collect="always"
       xlink:href="#linearGradient3104-8-8-97-9"
       id="linearGradient3850"
       gradientUnits="userSpaceOnUse"
       gradientTransform="matrix(1.0700435,0,0,1.1244505,78.923391,-1.102116)"
       x1="-51.786404"
       y1="53.514328"
       x2="-51.786404"
       y2="3.6336823" />
    <linearGradient
       inkscape:collect="always"
       xlink:href="#linearGradient6786-4"
       id="linearGradient3852"
       gradientUnits="userSpaceOnUse"
       gradientTransform="matrix(1.1891887,0,0,1.4107063,-126.14094,4.157415)"
       x1="132.3414"
       y1="2.2922528"
       x2="132.3414"
       y2="33.33271" />
    <linearGradient
       inkscape:collect="always"
       xlink:href="#linearGradient6786-4"
       id="linearGradient3857"
       gradientUnits="userSpaceOnUse"
       gradientTransform="matrix(1.1891887,0,0,1.4107063,-126.14094,4.157415)"
       x1="132.3414"
       y1="2.2922528"
       x2="132.3414"
       y2="33.33271" />
    <linearGradient
       inkscape:collect="always"
       xlink:href="#linearGradient3104-8-8-97-9"
       id="linearGradient3860"
       gradientUnits="userSpaceOnUse"
       gradientTransform="matrix(1.0700435,0,0,1.1244505,78.923391,-1.102116)"
       x1="-51.786404"
       y1="53.514328"
       x2="-51.786404"
       y2="3.6336823" />
    <linearGradient
       inkscape:collect="always"
       xlink:href="#linearGradient3600-8-3"
       id="linearGradient3863"
       gradientUnits="userSpaceOnUse"
       gradientTransform="matrix(0.58378914,3.5977471e-4,-3.5543764e-4,0.59091266,61.683663,-10.445182)"
       x1="-60.960796"
       y1="28.233982"
       x2="-60.914154"
       y2="104.84189" />
    <radialGradient
       inkscape:collect="always"
       xlink:href="#linearGradient8838-561-565"
       id="radialGradient3866"
       gradientUnits="userSpaceOnUse"
       gradientTransform="matrix(2.8862785,0,0,1.0039217,-148.75315,46.023509)"
       cx="62.625"
       cy="4.625"
       fx="62.625"
       fy="4.625"
       r="10.625" />
    <linearGradient
       inkscape:collect="always"
       xlink:href="#linearGradient3600-8-3"
       id="linearGradient3791"
       gradientUnits="userSpaceOnUse"
       gradientTransform="matrix(0.58378914,3.5977471e-4,-3.5543764e-4,0.59091266,-21.401383,-7.9703083)"
       x1="-60.960796"
       y1="28.233982"
       x2="-60.914154"
       y2="104.84189" />
    <radialGradient
       inkscape:collect="always"
       xlink:href="#linearGradient3793"
       id="radialGradient3801"
       cx="32.530331"
       cy="4.2225037"
       fx="32.530331"
       fy="4.2225037"
       r="29"
       gradientTransform="matrix(-1.2635884,2.7508939e-8,-2.7917323e-8,-1.282347,73.635278,12.467861)"
       gradientUnits="userSpaceOnUse" />
    <linearGradient
       inkscape:collect="always"
       xlink:href="#linearGradient3837"
       id="linearGradient3041"
       gradientUnits="userSpaceOnUse"
       x1="32.336823"
       y1="12.908117"
       x2="32.105118"
       y2="46.584076"
       gradientTransform="matrix(0.91539148,0,0,0.91539148,2.7074727,2.3933796)" />
    <linearGradient
       inkscape:collect="always"
       xlink:href="#linearGradient6786-4"
       id="linearGradient3044"
       gradientUnits="userSpaceOnUse"
       gradientTransform="matrix(1.1891887,0,0,1.4107063,-126.14094,4.157415)"
       x1="132.3414"
       y1="2.2922528"
       x2="132.3414"
       y2="33.33271" />
    <radialGradient
       inkscape:collect="always"
       xlink:href="#linearGradient3793"
       id="radialGradient3047"
       gradientUnits="userSpaceOnUse"
       gradientTransform="matrix(-1.2635884,2.7508939e-8,-2.7917323e-8,-1.282347,73.635278,12.467861)"
       cx="32.530331"
       cy="4.2225037"
       fx="32.530331"
       fy="4.2225037"
       r="29" />
    <linearGradient
       inkscape:collect="always"
       xlink:href="#linearGradient3104-8-8-97-9"
       id="linearGradient3049"
       gradientUnits="userSpaceOnUse"
       gradientTransform="matrix(1.0700435,0,0,1.1244505,78.923391,-1.102116)"
       x1="-51.786404"
       y1="53.514328"
       x2="-51.786404"
       y2="3.6336823" />
    <radialGradient
       inkscape:collect="always"
       xlink:href="#linearGradient8838-561-565"
       id="radialGradient3052"
       gradientUnits="userSpaceOnUse"
       gradientTransform="matrix(2.8862785,0,0,1.0039217,-148.75315,46.023509)"
       cx="62.625"
       cy="4.625"
       fx="62.625"
       fy="4.625"
       r="10.625" />
    <linearGradient
       inkscape:collect="always"
       xlink:href="#linearGradient3828"
       id="linearGradient3838"
       x1="37.766056"
       y1="42.744667"
       x2="29.637123"
       y2="16.44607"
       gradientUnits="userSpaceOnUse" />
    <radialGradient
       inkscape:collect="always"
       xlink:href="#linearGradient8838-561-565"
       id="radialGradient3848"
       gradientUnits="userSpaceOnUse"
       gradientTransform="matrix(2.8862785,0,0,1.0039217,-148.75315,46.023509)"
       cx="62.625"
       cy="4.625"
       fx="62.625"
       fy="4.625"
       r="10.625" />
    <radialGradient
       inkscape:collect="always"
       xlink:href="#linearGradient3793"
       id="radialGradient3850"
       gradientUnits="userSpaceOnUse"
       gradientTransform="matrix(-1.2635884,2.7508939e-8,-2.7917323e-8,-1.282347,73.635278,12.467861)"
       cx="32.530331"
       cy="4.2225037"
       fx="32.530331"
       fy="4.2225037"
       r="29" />
    <linearGradient
       inkscape:collect="always"
       xlink:href="#linearGradient3104-8-8-97-9"
       id="linearGradient3853"
       gradientUnits="userSpaceOnUse"
       gradientTransform="matrix(1.0700435,0,0,1.1244505,78.923391,-1.102116)"
       x1="-51.786404"
       y1="53.514328"
       x2="-51.786404"
       y2="3.6336823" />
    <linearGradient
       inkscape:collect="always"
       xlink:href="#linearGradient6786-4"
       id="linearGradient3855"
       gradientUnits="userSpaceOnUse"
       gradientTransform="matrix(1.1891887,0,0,1.4107063,-126.14094,4.157415)"
       x1="132.3414"
       y1="2.2922528"
       x2="132.3414"
       y2="33.33271" />
    <linearGradient
       inkscape:collect="always"
       xlink:href="#linearGradient3828"
       id="linearGradient3858"
       gradientUnits="userSpaceOnUse"
       x1="37.766056"
       y1="42.744667"
       x2="29.637123"
       y2="16.44607" />
    <linearGradient
       inkscape:collect="always"
       xlink:href="#linearGradient3837"
       id="linearGradient3861"
       gradientUnits="userSpaceOnUse"
       gradientTransform="matrix(0.91539148,0,0,0.91539148,2.7074727,2.3933796)"
       x1="32.336823"
       y1="12.908117"
       x2="32.105118"
       y2="46.584076" />
    <linearGradient
       inkscape:collect="always"
       xlink:href="#linearGradient3828"
       id="linearGradient3864"
       gradientUnits="userSpaceOnUse"
       x1="37.766056"
       y1="42.744667"
       x2="29.637123"
       y2="16.44607" />
    <linearGradient
       inkscape:collect="always"
       xlink:href="#linearGradient3837"
       id="linearGradient3866"
       gradientUnits="userSpaceOnUse"
       gradientTransform="matrix(0.91539148,0,0,0.91539148,2.7074727,2.3933796)"
       x1="32.336823"
       y1="12.908117"
       x2="32.105118"
       y2="46.584076" />
    <linearGradient
       inkscape:collect="always"
       xlink:href="#linearGradient6786-4"
       id="linearGradient3869"
       gradientUnits="userSpaceOnUse"
       gradientTransform="matrix(1.1891887,0,0,1.4107063,-126.14094,4.157415)"
       x1="132.3414"
       y1="2.2922528"
       x2="132.3414"
       y2="33.33271" />
    <radialGradient
       inkscape:collect="always"
       xlink:href="#linearGradient3793"
       id="radialGradient3872"
       gradientUnits="userSpaceOnUse"
       gradientTransform="matrix(-1.2635884,2.7508939e-8,-2.7917323e-8,-1.282347,73.635278,12.467861)"
       cx="32.530331"
       cy="4.2225037"
       fx="32.530331"
       fy="4.2225037"
       r="29" />
    <linearGradient
       inkscape:collect="always"
       xlink:href="#linearGradient3104-8-8-97-9"
       id="linearGradient3874"
       gradientUnits="userSpaceOnUse"
       gradientTransform="matrix(1.0700435,0,0,1.1244505,78.923391,-1.102116)"
       x1="-51.786404"
       y1="53.514328"
       x2="-51.786404"
       y2="3.6336823" />
    <radialGradient
       inkscape:collect="always"
       xlink:href="#linearGradient8838-561-565"
       id="radialGradient3877"
       gradientUnits="userSpaceOnUse"
       gradientTransform="matrix(2.8862785,0,0,1.0039217,-148.75315,46.023509)"
       cx="62.625"
       cy="4.625"
       fx="62.625"
       fy="4.625"
       r="10.625" />
    <radialGradient
       inkscape:collect="always"
       xlink:href="#linearGradient8838-561-565"
       id="radialGradient3842"
       gradientUnits="userSpaceOnUse"
       gradientTransform="matrix(2.8862785,0,0,1.0039217,-148.75315,46.023509)"
       cx="62.625"
       cy="4.625"
       fx="62.625"
       fy="4.625"
       r="10.625" />
    <radialGradient
       inkscape:collect="always"
       xlink:href="#linearGradient3793"
       id="radialGradient3844"
       gradientUnits="userSpaceOnUse"
       gradientTransform="matrix(-1.2635884,2.7508939e-8,-2.7917323e-8,-1.282347,73.635278,12.467861)"
       cx="32.530331"
       cy="4.2225037"
       fx="32.530331"
       fy="4.2225037"
       r="29" />
    <linearGradient
       inkscape:collect="always"
       xlink:href="#linearGradient3104-8-8-97-9"
       id="linearGradient3846"
       gradientUnits="userSpaceOnUse"
       gradientTransform="matrix(1.0700435,0,0,1.1244505,78.923391,-1.102116)"
       x1="-51.786404"
       y1="53.514328"
       x2="-51.786404"
       y2="3.6336823" />
    <linearGradient
       inkscape:collect="always"
       xlink:href="#linearGradient6786-4"
       id="linearGradient3849"
       gradientUnits="userSpaceOnUse"
       gradientTransform="matrix(1.1891887,0,0,1.4107063,-126.14094,4.157415)"
       x1="132.3414"
       y1="2.2922528"
       x2="132.3414"
       y2="33.33271" />
    <linearGradient
       inkscape:collect="always"
       xlink:href="#linearGradient3828"
       id="linearGradient3851"
       gradientUnits="userSpaceOnUse"
       x1="37.766056"
       y1="42.744667"
       x2="29.637123"
       y2="16.44607" />
    <linearGradient
       inkscape:collect="always"
       xlink:href="#linearGradient3837"
       id="linearGradient3854"
       gradientUnits="userSpaceOnUse"
       gradientTransform="matrix(0.91539148,0,0,0.91539148,2.7074727,2.3933796)"
       x1="32.336823"
       y1="12.908117"
       x2="32.105118"
       y2="46.584076" />
    <linearGradient
       inkscape:collect="always"
       xlink:href="#linearGradient3828"
       id="linearGradient3859"
       gradientUnits="userSpaceOnUse"
       x1="37.766056"
       y1="42.744667"
       x2="29.637123"
       y2="16.44607"
       gradientTransform="matrix(0.73912397,0,0,0.73912397,0.3478317,3.97e-4)" />
    <linearGradient
       inkscape:collect="always"
       xlink:href="#linearGradient3837"
       id="linearGradient3862"
       gradientUnits="userSpaceOnUse"
       gradientTransform="matrix(0.67658778,0,0,0.67658778,2.3489897,1.7694012)"
       x1="32.336823"
       y1="12.908117"
       x2="32.105118"
       y2="46.584076" />
    <linearGradient
       inkscape:collect="always"
       xlink:href="#linearGradient6786-4"
       id="linearGradient3865"
       gradientUnits="userSpaceOnUse"
       gradientTransform="matrix(0.87895787,0,0,1.0426868,-92.885961,3.0732421)"
       x1="132.3414"
       y1="2.2922528"
       x2="132.3414"
       y2="33.33271" />
    <radialGradient
       inkscape:collect="always"
       xlink:href="#linearGradient3793"
       id="radialGradient3868"
       gradientUnits="userSpaceOnUse"
       gradientTransform="matrix(-0.93394847,2.0332516e-8,-2.0634363e-8,-0.94781341,54.773431,9.2156919)"
       cx="32.530331"
       cy="4.2225037"
       fx="32.530331"
       fy="4.2225037"
       r="29" />
    <linearGradient
       inkscape:collect="always"
       xlink:href="#linearGradient3104-8-8-97-9"
       id="linearGradient3870"
       gradientUnits="userSpaceOnUse"
       gradientTransform="matrix(0.7908948,0,0,0.83110832,58.682002,-0.81420335)"
       x1="-51.786404"
       y1="53.514328"
       x2="-51.786404"
       y2="3.6336823" />
    <radialGradient
       inkscape:collect="always"
       xlink:href="#linearGradient8838-561-565"
       id="radialGradient3873"
       gradientUnits="userSpaceOnUse"
       gradientTransform="matrix(2.1333176,0,0,0.74202259,-109.59919,34.017476)"
       cx="62.625"
       cy="4.625"
       fx="62.625"
       fy="4.625"
       r="10.625" />
    <linearGradient
       inkscape:collect="always"
       xlink:href="#linearGradient3828"
       id="linearGradient3071"
       gradientUnits="userSpaceOnUse"
       gradientTransform="matrix(0.73912397,0,0,0.73912397,0.3478317,-0.108978)"
       x1="37.766056"
       y1="42.744667"
       x2="29.637123"
       y2="16.44607" />
    <linearGradient
       inkscape:collect="always"
       xlink:href="#linearGradient3837"
       id="linearGradient3073"
       gradientUnits="userSpaceOnUse"
       gradientTransform="matrix(0.67658778,0,0,0.67658778,2.3489897,1.6600262)"
       x1="32.336823"
       y1="12.908117"
       x2="32.105118"
       y2="46.584076" />
    <linearGradient
       inkscape:collect="always"
       xlink:href="#linearGradient6786-4"
       id="linearGradient3076"
       gradientUnits="userSpaceOnUse"
       gradientTransform="matrix(0.87895787,0,0,1.0426868,-92.885961,2.9638671)"
       x1="132.3414"
       y1="2.2922528"
       x2="132.3414"
       y2="33.33271" />
    <radialGradient
       inkscape:collect="always"
       xlink:href="#linearGradient3793"
       id="radialGradient3079"
       gradientUnits="userSpaceOnUse"
       gradientTransform="matrix(-0.93394847,2.0332516e-8,-2.0634363e-8,-0.94781341,54.773431,9.1063169)"
       cx="32.530331"
       cy="4.2225037"
       fx="32.530331"
       fy="4.2225037"
       r="29" />
    <linearGradient
       inkscape:collect="always"
       xlink:href="#linearGradient3104-8-8-97-9"
       id="linearGradient3081"
       gradientUnits="userSpaceOnUse"
       gradientTransform="matrix(0.7908948,0,0,0.83110832,58.682002,-0.92357835)"
       x1="-51.786404"
       y1="53.514328"
       x2="-51.786404"
       y2="3.6336823" />
    <radialGradient
       inkscape:collect="always"
       xlink:href="#linearGradient8838-561-565"
       id="radialGradient3084"
       gradientUnits="userSpaceOnUse"
       gradientTransform="matrix(2.1333176,0,0,0.74202259,-109.59919,33.908101)"
       cx="62.625"
       cy="4.625"
       fx="62.625"
       fy="4.625"
       r="10.625" />
  </defs>
  <metadata
     id="metadata4001">
    <rdf:RDF>
      <cc:Work
         rdf:about="">
        <dc:format>image/svg+xml</dc:format>
        <dc:type
           rdf:resource="http://purl.org/dc/dcmitype/StillImage" />
        <dc:title />
      </cc:Work>
    </rdf:RDF>
  </metadata>
  <path
     style="opacity:0.2;fill:url(#radialGradient3084);fill-opacity:1;fill-rule:evenodd;stroke:none;stroke-width:0.99999988;marker:none;visibility:visible;display:inline;overflow:visible"
     id="path8836"
     inkscape:connector-curvature="0"
     d="m 46.666322,37.339959 c 0,4.354213 -10.148138,7.884001 -22.6665,7.884001 -12.518363,0 -22.6665002,-3.529788 -22.6665002,-7.884001 0,-4.354212 10.1481372,-7.884 22.6665002,-7.884 12.518362,0 22.6665,3.529788 22.6665,7.884 l 0,0 z" />
  <path
     style="color:#000000;fill:url(#radialGradient3079);fill-opacity:1.0;stroke:url(#linearGradient3081);stroke-width:1;stroke-linecap:butt;stroke-linejoin:round;stroke-miterlimit:4;stroke-opacity:1;stroke-dasharray:none;stroke-dashoffset:0;marker:none;visibility:visible;display:inline;overflow:visible;enable-background:accumulate"
     id="path4111-6"
     inkscape:connector-curvature="0"
     d="M 23.944252,3.9642462 C 23.406759,3.9850082 22.877158,4.0256453 22.333357,4.0775769 10.731951,5.1854193 2.0768027,13.678209 3.0025982,23.002685 3.4647775,27.657666 6.2407624,31.64292 10.334955,34.335086 l 0,0.113334 c 0,0 1.274,2.193675 -3.0551486,7.082751 0,0 4.6883716,0.297074 11.0540826,-4.023002 2.327102,0.452669 4.782972,0.583413 7.332355,0.339973 C 37.267668,36.740305 45.922782,28.304174 44.997001,18.979692 44.158003,10.529386 35.761184,4.2396956 25.555149,3.9642632 c -0.527894,-0.014317 -1.073422,-0.020755 -1.610897,0 z" />
  <path
     inkscape:connector-curvature="0"
     style="color:#000000;fill:none;stroke:url(#linearGradient3076);stroke-width:1;stroke-linecap:round;stroke-linejoin:miter;stroke-miterlimit:4;stroke-opacity:1;stroke-dasharray:none;stroke-dashoffset:0;marker:none;visibility:visible;display:inline;overflow:visible;enable-background:accumulate;opacity:0.6"
     id="path3089"
     d="M 23.976701,4.9609528 C 23.459326,4.980938 22.942441,5.025221 22.406063,5.0764409 11.242125,6.1425087 3.1341789,14.290694 3.9931824,22.942451 c 0.4377453,4.408906 3.0965919,8.086688 7.1674246,10.763493 0.108883,0.454724 0.15175,0.51728 0.307272,1.039733 0.06902,0.372669 0.07417,0.881414 -0.05255,1.547201 -0.199105,1.046157 -0.64474,2.439729 -2.0697826,4.063356 0.8102996,-0.171696 1.1884166,-0.258464 1.5557056,-0.36899 1.858913,-0.559391 3.917129,-1.299329 7.023868,-3.407712 0.159845,-0.109496 0.36407,-0.09128 0.554343,-0.05472 2.255066,0.438657 4.63063,0.56363 7.114068,0.326483 C 36.598969,35.800369 44.867745,27.871554 43.99079,19.038952 43.219676,11.27237 35.388839,5.2271707 25.524242,4.9609528 c -0.520574,-0.014118 -1.034492,-0.019812 -1.547541,0 z"
     sodipodi:nodetypes="cssccscsccsscc" />
  <g
     style="fill:none;fill-opacity:1;stroke:#000000;stroke-opacity:1;stroke-width:6.2660405;stroke-miterlimit:4;stroke-dasharray:none;stroke-linejoin:round;stroke-linecap:round;opacity:0.15"
     id="g4239"
     transform="matrix(0.326961,0,0,0.31158579,17.016124,9.3066523)">
    <g
       id="g4241"
       style="fill:none;fill-opacity:1;stroke-miterlimit:4;stroke:#000000;stroke-opacity:1;stroke-width:233.04122785;stroke-dasharray:none;stroke-linejoin:round;stroke-linecap:round"
       transform="matrix(0.02688812,0,0,-0.02688812,-1.364473,98.59382)">
      <path
         inkscape:connector-curvature="0"
         id="path4243"
         style="fill:none;fill-opacity:1;stroke:#000000;stroke-opacity:1;stroke-width:233.04122785;stroke-miterlimit:4;stroke-dasharray:none;stroke-linejoin:round;stroke-linecap:round"
         d="m 719.899,2297.19 c 0,34.81 -6.429,72.81 -26.649,102 -40.54,58.51 -127.57,77.12 -188.15,40.25 -30.62,-18.65 -47.65,-51.21 -57.25,-84.64 -19.06,-66.38 -10.32,-142.13 3.009,-208.79 4.26,-21.32 8.66,-42.67 14.64,-63.6 2.16,-7.55 3.16,-18.52 8.07,-24.8 8.569,-10.98 29.49,-14.16 42.319,-12 38.49,6.47 28.96,69.85 27.65,96.8 -3.07,63.13 -21.67,124.4 -3.65,187.19 7.63,26.57 22.37,56.45 49.2,67.99 24.22,10.43 48.66,-2.33 58.25,-25.99 15.529,-38.31 11.649,-82.54 21.389,-122.4 3.31,-13.55 6.95,-26.97 13.06,-39.6 1.77,-3.65 4.21,-11.24 9.34,-10.78 12.47,1.14 30.2,21.95 39.549,29.67 30.2,24.96 61.23,51.69 96,70.16 16.36,8.69 43.279,22.76 59.99,7.98 4.259,-3.77 7.689,-8.27 10.739,-13.04 19.64,-30.77 0.14,-54.74 -12.629,-84 -16.53,-37.87 -33.469,-75.36 -57.42,-109.2 -20.59,-29.1 -48.729,-54.61 -65.18,-86.4 -10.59,-20.47 -16.58,-42.9 -12.2,-66 3.55,-18.68 18.03,-29.96 37.08,-25.58 14.26,3.28 23.92,15.5 32.05,26.78 14.49,20.12 27.95,41 42.35,61.2 27.86,39.07 60.73,75.6 84.16,117.6 28.24,50.63 41.86,107.92 41.829,165.59 -0.019,47.13 -17.109,119.16 -72,129.04 -10.329,1.85 -22.14,0.84 -32.4,-0.95 -12.749,-2.22 -25.549,-6.37 -37.199,-12.01 -31.21,-15.1 -58.2,-37.65 -81.39,-63.29 -14.469,-15.98 -27.429,-36.08 -44.599,-49.2" />
      <path
         inkscape:connector-curvature="0"
         id="path4245"
         style="fill:none;fill-opacity:1;stroke:#000000;stroke-opacity:1;stroke-width:233.04122785;stroke-miterlimit:4;stroke-dasharray:none;stroke-linejoin:round;stroke-linecap:round"
         d="m 668.3,3463.03 c -43.29,-5.69 -87.29,-5.1 -130.79,-11.82 -83.329,-12.87 -163.14,-38.76 -241.189,-69.99 -28.42,-11.37 -56.46,-24.04 -84,-37.37 -10.249,-4.96 -25.88,-8.93 -34.12,-16.89 -4.289,-4.15 -3.849,-13.87 -4.37,-19.42 -1.449,-15.61 -3.399,-31.2 -4.91,-46.8 -5.829,-60.2 -9.939,-122.22 -1.319,-182.39 2.79,-19.44 8.83,-54.7 32.72,-58.43 36.739,-5.75 65.279,39.46 83.309,64.43 42.11,58.32 90.02,112.61 159.08,138.68 81.3,30.69 174.38,37.92 260.39,43.82 241.31,16.54 505.009,-27.54 682.769,-205.3 25.28,-25.28 49.21,-52.11 69.56,-81.6 79.59,-115.26 121.68,-246.32 141.95,-383.98 9.53,-64.63 16.04,-130.03 1.3,-194.39 -25.58,-111.66 -92.65,-208.85 -169.72,-291.59 -52.75,-56.63 -112.11,-107.82 -173.89,-154.35 -34.49,-25.97 -73.17,-48 -105.6,-76.39 -37.35,-32.7 -68.42,-73.62 -92.03,-117.25 -63.54,-117.48 -80.579,-258.84 -61.89,-389.98 3.83,-26.88 7.29,-53.89 13.38,-80.4 1.82,-7.93 2.14,-21.56 7.27,-28.04 9.6,-12.12 35.8,-18.79 50.47,-19.5 15.3,-0.74 25.48,11.02 29.23,24.74 6.42,23.51 2.58,49.55 -1.14,73.2 -7.62,48.44 -14.6,97.22 -12.44,146.39 3.98,90.79 39.08,175.39 102,241.19 63.99,66.92 150.42,105.51 223.14,161.57 146.56,112.98 277.86,265.41 328.28,446.8 18.02,64.87 23.99,133.61 15.76,200.39 -10.4,84.47 -41.29,168.84 -70.39,248.39 -88.69,242.48 -240.83,473.08 -482.44,584.01 -95.89,44.02 -196.16,64.06 -299.99,78.52 -48.69,6.78 -97.37,10.94 -146.391,13.09 -27.229,1.19 -56.849,4.21 -83.999,0.64" />
      <path
         inkscape:connector-curvature="0"
         id="path4247"
         style="fill:none;fill-opacity:1;stroke:#000000;stroke-opacity:1;stroke-width:233.04122785;stroke-miterlimit:4;stroke-dasharray:none;stroke-linejoin:round;stroke-linecap:round"
         d="m 290.31,1893.49 c -47.09,-6.74 -60.78,-44.49 -52.08,-87.08 11.14,-54.5 54,-96.07 96.469,-128.81 108.81,-83.88 249.35,-129.22 386.38,-123.22 53.47,2.34 111.72,11.18 160.79,33.87 26.31,12.16 53.83,55.97 18,74.72 -4.91,2.57 -11.329,4.16 -16.8,5.06 -15.649,2.56 -33.17,-4.1 -47.999,-8.36 -26.15,-7.51 -52.28,-15.2 -79.2,-19.52 -80.43,-12.92 -167.4,5.46 -233.99,53.12 -53.829,38.54 -97.369,89.36 -138.47,140.74 -25.159,31.45 -47.899,65.96 -93.119,59.48" />
      <path
         inkscape:connector-curvature="0"
         id="path4249"
         style="fill:none;fill-opacity:1;stroke:#000000;stroke-opacity:1;stroke-width:233.04122785;stroke-miterlimit:4;stroke-dasharray:none;stroke-linejoin:round;stroke-linecap:round"
         d="m 229.11,1627.11 c -11.98,-1.58 -25.72,-1.13 -35.98,-8.66 -21.4,-15.71 2.17,-47.31 13.43,-61.63 32.649,-41.49 75.639,-75.93 118.54,-106.29 119.599,-84.61 255.079,-133.42 400.78,-143.41 41.889,-2.87 84.559,0.11 125.989,7.01 15.149,2.53 34,3.67 48,10.21 39.619,18.53 28.159,93.38 -7.2,110.02 -15.44,7.26 -40.21,-2.33 -56.4,-4.58 -38.29,-5.34 -76.69,-5.88 -115.2,-4.94 -100.93,2.47 -208.45,33.56 -296.39,82.62 -34.57,19.3 -66.319,42.78 -96,68.91 -18.05,15.89 -36.59,41.89 -59.999,49.92 -10.9,3.74 -28.261,2.32 -39.601,0.83" />
      <path
         inkscape:connector-curvature="0"
         id="path4251"
         style="fill:none;fill-opacity:1;stroke:#000000;stroke-opacity:1;stroke-width:233.04122785;stroke-miterlimit:4;stroke-dasharray:none;stroke-linejoin:round;stroke-linecap:round"
         d="m 253.109,1402.7 c -17.059,-1.91 -29.919,-10.81 -41.139,-23.47 -7.73,-8.72 -15.07,-16.6 -19.51,-27.6 -24.48,-60.56 40.78,-117.73 85.85,-146.33 50.159,-31.82 104.959,-55.41 160.789,-75.28 125.92,-44.82 273.61,-73.51 404.38,-33.44 38.87,11.9 77.29,33.66 105.55,63.07 15.919,16.57 26.849,41.66 -2.35,52.27 -17.3,6.28 -38.31,-9.71 -54,-16.03 -37.04,-14.94 -75.44,-26.28 -115.2,-31.09 -52.37,-6.35 -99.52,5.18 -149.99,17.81 -43.11,10.78 -86.709,21.56 -128.39,37.1 -35.56,13.26 -70.88,29.01 -101.999,51.03 -9.3,6.58 -20.44,12.44 -28.06,21.01 -24.91,28.03 -43.63,60.83 -70.34,87.49 -11.54,11.52 -27.939,25.44 -45.6,23.47" />
    </g>
  </g>
  <g
     transform="matrix(0.326961,0,0,0.31158579,17.016124,9.3066523)"
     id="g4253"
     style="fill:none;fill-opacity:1;stroke:#000000;stroke-opacity:1;stroke-width:3.13302025;stroke-miterlimit:4;stroke-dasharray:none;stroke-linejoin:round;stroke-linecap:round;opacity:0.15">
    <g
       transform="matrix(0.02688812,0,0,-0.02688812,-1.364473,98.59382)"
       style="fill:none;fill-opacity:1;stroke-miterlimit:4;stroke:#000000;stroke-opacity:1;stroke-width:116.52061393;stroke-dasharray:none;stroke-linejoin:round;stroke-linecap:round"
       id="g4255">
      <path
         d="m 719.899,2297.19 c 0,34.81 -6.429,72.81 -26.649,102 -40.54,58.51 -127.57,77.12 -188.15,40.25 -30.62,-18.65 -47.65,-51.21 -57.25,-84.64 -19.06,-66.38 -10.32,-142.13 3.009,-208.79 4.26,-21.32 8.66,-42.67 14.64,-63.6 2.16,-7.55 3.16,-18.52 8.07,-24.8 8.569,-10.98 29.49,-14.16 42.319,-12 38.49,6.47 28.96,69.85 27.65,96.8 -3.07,63.13 -21.67,124.4 -3.65,187.19 7.63,26.57 22.37,56.45 49.2,67.99 24.22,10.43 48.66,-2.33 58.25,-25.99 15.529,-38.31 11.649,-82.54 21.389,-122.4 3.31,-13.55 6.95,-26.97 13.06,-39.6 1.77,-3.65 4.21,-11.24 9.34,-10.78 12.47,1.14 30.2,21.95 39.549,29.67 30.2,24.96 61.23,51.69 96,70.16 16.36,8.69 43.279,22.76 59.99,7.98 4.259,-3.77 7.689,-8.27 10.739,-13.04 19.64,-30.77 0.14,-54.74 -12.629,-84 -16.53,-37.87 -33.469,-75.36 -57.42,-109.2 -20.59,-29.1 -48.729,-54.61 -65.18,-86.4 -10.59,-20.47 -16.58,-42.9 -12.2,-66 3.55,-18.68 18.03,-29.96 37.08,-25.58 14.26,3.28 23.92,15.5 32.05,26.78 14.49,20.12 27.95,41 42.35,61.2 27.86,39.07 60.73,75.6 84.16,117.6 28.24,50.63 41.86,107.92 41.829,165.59 -0.019,47.13 -17.109,119.16 -72,129.04 -10.329,1.85 -22.14,0.84 -32.4,-0.95 -12.749,-2.22 -25.549,-6.37 -37.199,-12.01 -31.21,-15.1 -58.2,-37.65 -81.39,-63.29 -14.469,-15.98 -27.429,-36.08 -44.599,-49.2"
         style="fill:none;fill-opacity:1;stroke:#000000;stroke-opacity:1;stroke-width:116.52061393;stroke-miterlimit:4;stroke-dasharray:none;stroke-linejoin:round;stroke-linecap:round"
         id="path4257"
         inkscape:connector-curvature="0" />
      <path
         d="m 668.3,3463.03 c -43.29,-5.69 -87.29,-5.1 -130.79,-11.82 -83.329,-12.87 -163.14,-38.76 -241.189,-69.99 -28.42,-11.37 -56.46,-24.04 -84,-37.37 -10.249,-4.96 -25.88,-8.93 -34.12,-16.89 -4.289,-4.15 -3.849,-13.87 -4.37,-19.42 -1.449,-15.61 -3.399,-31.2 -4.91,-46.8 -5.829,-60.2 -9.939,-122.22 -1.319,-182.39 2.79,-19.44 8.83,-54.7 32.72,-58.43 36.739,-5.75 65.279,39.46 83.309,64.43 42.11,58.32 90.02,112.61 159.08,138.68 81.3,30.69 174.38,37.92 260.39,43.82 241.31,16.54 505.009,-27.54 682.769,-205.3 25.28,-25.28 49.21,-52.11 69.56,-81.6 79.59,-115.26 121.68,-246.32 141.95,-383.98 9.53,-64.63 16.04,-130.03 1.3,-194.39 -25.58,-111.66 -92.65,-208.85 -169.72,-291.59 -52.75,-56.63 -112.11,-107.82 -173.89,-154.35 -34.49,-25.97 -73.17,-48 -105.6,-76.39 -37.35,-32.7 -68.42,-73.62 -92.03,-117.25 -63.54,-117.48 -80.579,-258.84 -61.89,-389.98 3.83,-26.88 7.29,-53.89 13.38,-80.4 1.82,-7.93 2.14,-21.56 7.27,-28.04 9.6,-12.12 35.8,-18.79 50.47,-19.5 15.3,-0.74 25.48,11.02 29.23,24.74 6.42,23.51 2.58,49.55 -1.14,73.2 -7.62,48.44 -14.6,97.22 -12.44,146.39 3.98,90.79 39.08,175.39 102,241.19 63.99,66.92 150.42,105.51 223.14,161.57 146.56,112.98 277.86,265.41 328.28,446.8 18.02,64.87 23.99,133.61 15.76,200.39 -10.4,84.47 -41.29,168.84 -70.39,248.39 -88.69,242.48 -240.83,473.08 -482.44,584.01 -95.89,44.02 -196.16,64.06 -299.99,78.52 -48.69,6.78 -97.37,10.94 -146.391,13.09 -27.229,1.19 -56.849,4.21 -83.999,0.64"
         style="fill:none;fill-opacity:1;stroke:#000000;stroke-opacity:1;stroke-width:116.52061393;stroke-miterlimit:4;stroke-dasharray:none;stroke-linejoin:round;stroke-linecap:round"
         id="path4259"
         inkscape:connector-curvature="0" />
      <path
         d="m 290.31,1893.49 c -47.09,-6.74 -60.78,-44.49 -52.08,-87.08 11.14,-54.5 54,-96.07 96.469,-128.81 108.81,-83.88 249.35,-129.22 386.38,-123.22 53.47,2.34 111.72,11.18 160.79,33.87 26.31,12.16 53.83,55.97 18,74.72 -4.91,2.57 -11.329,4.16 -16.8,5.06 -15.649,2.56 -33.17,-4.1 -47.999,-8.36 -26.15,-7.51 -52.28,-15.2 -79.2,-19.52 -80.43,-12.92 -167.4,5.46 -233.99,53.12 -53.829,38.54 -97.369,89.36 -138.47,140.74 -25.159,31.45 -47.899,65.96 -93.119,59.48"
         style="fill:none;fill-opacity:1;stroke:#000000;stroke-opacity:1;stroke-width:116.52061393;stroke-miterlimit:4;stroke-dasharray:none;stroke-linejoin:round;stroke-linecap:round"
         id="path4261"
         inkscape:connector-curvature="0" />
      <path
         d="m 229.11,1627.11 c -11.98,-1.58 -25.72,-1.13 -35.98,-8.66 -21.4,-15.71 2.17,-47.31 13.43,-61.63 32.649,-41.49 75.639,-75.93 118.54,-106.29 119.599,-84.61 255.079,-133.42 400.78,-143.41 41.889,-2.87 84.559,0.11 125.989,7.01 15.149,2.53 34,3.67 48,10.21 39.619,18.53 28.159,93.38 -7.2,110.02 -15.44,7.26 -40.21,-2.33 -56.4,-4.58 -38.29,-5.34 -76.69,-5.88 -115.2,-4.94 -100.93,2.47 -208.45,33.56 -296.39,82.62 -34.57,19.3 -66.319,42.78 -96,68.91 -18.05,15.89 -36.59,41.89 -59.999,49.92 -10.9,3.74 -28.261,2.32 -39.601,0.83"
         style="fill:none;fill-opacity:1;stroke:#000000;stroke-opacity:1;stroke-width:116.52061393;stroke-miterlimit:4;stroke-dasharray:none;stroke-linejoin:round;stroke-linecap:round"
         id="path4263"
         inkscape:connector-curvature="0" />
      <path
         d="m 253.109,1402.7 c -17.059,-1.91 -29.919,-10.81 -41.139,-23.47 -7.73,-8.72 -15.07,-16.6 -19.51,-27.6 -24.48,-60.56 40.78,-117.73 85.85,-146.33 50.159,-31.82 104.959,-55.41 160.789,-75.28 125.92,-44.82 273.61,-73.51 404.38,-33.44 38.87,11.9 77.29,33.66 105.55,63.07 15.919,16.57 26.849,41.66 -2.35,52.27 -17.3,6.28 -38.31,-9.71 -54,-16.03 -37.04,-14.94 -75.44,-26.28 -115.2,-31.09 -52.37,-6.35 -99.52,5.18 -149.99,17.81 -43.11,10.78 -86.709,21.56 -128.39,37.1 -35.56,13.26 -70.88,29.01 -101.999,51.03 -9.3,6.58 -20.44,12.44 -28.06,21.01 -24.91,28.03 -43.63,60.83 -70.34,87.49 -11.54,11.52 -27.939,25.44 -45.6,23.47"
         style="fill:none;fill-opacity:1;stroke:#000000;stroke-opacity:1;stroke-width:116.52061393;stroke-miterlimit:4;stroke-dasharray:none;stroke-linejoin:round;stroke-linecap:round"
         id="path4265"
         inkscape:connector-curvature="0" />
    </g>
  </g>
  <g
     transform="matrix(0.326961,0,0,0.31158579,17.016124,9.3066523)"
     id="g3012"
     style="fill:#ffffff;fill-opacity:1">
    <g
       transform="matrix(0.02688812,0,0,-0.02688812,-1.364473,98.59382)"
       style="fill:#ffffff;fill-opacity:1;stroke-miterlimit:10"
       id="g2035">
      <path
         d="m 719.899,2297.19 c 0,34.81 -6.429,72.81 -26.649,102 -40.54,58.51 -127.57,77.12 -188.15,40.25 -30.62,-18.65 -47.65,-51.21 -57.25,-84.64 -19.06,-66.38 -10.32,-142.13 3.009,-208.79 4.26,-21.32 8.66,-42.67 14.64,-63.6 2.16,-7.55 3.16,-18.52 8.07,-24.8 8.569,-10.98 29.49,-14.16 42.319,-12 38.49,6.47 28.96,69.85 27.65,96.8 -3.07,63.13 -21.67,124.4 -3.65,187.19 7.63,26.57 22.37,56.45 49.2,67.99 24.22,10.43 48.66,-2.33 58.25,-25.99 15.529,-38.31 11.649,-82.54 21.389,-122.4 3.31,-13.55 6.95,-26.97 13.06,-39.6 1.77,-3.65 4.21,-11.24 9.34,-10.78 12.47,1.14 30.2,21.95 39.549,29.67 30.2,24.96 61.23,51.69 96,70.16 16.36,8.69 43.279,22.76 59.99,7.98 4.259,-3.77 7.689,-8.27 10.739,-13.04 19.64,-30.77 0.14,-54.74 -12.629,-84 -16.53,-37.87 -33.469,-75.36 -57.42,-109.2 -20.59,-29.1 -48.729,-54.61 -65.18,-86.4 -10.59,-20.47 -16.58,-42.9 -12.2,-66 3.55,-18.68 18.03,-29.96 37.08,-25.58 14.26,3.28 23.92,15.5 32.05,26.78 14.49,20.12 27.95,41 42.35,61.2 27.86,39.07 60.73,75.6 84.16,117.6 28.24,50.63 41.86,107.92 41.829,165.59 -0.019,47.13 -17.109,119.16 -72,129.04 -10.329,1.85 -22.14,0.84 -32.4,-0.95 -12.749,-2.22 -25.549,-6.37 -37.199,-12.01 -31.21,-15.1 -58.2,-37.65 -81.39,-63.29 -14.469,-15.98 -27.429,-36.08 -44.599,-49.2"
         style="fill:#ffffff;fill-opacity:1;stroke:none"
         id="path26"
         inkscape:connector-curvature="0" />
      <path
         d="m 668.3,3463.03 c -43.29,-5.69 -87.29,-5.1 -130.79,-11.82 -83.329,-12.87 -163.14,-38.76 -241.189,-69.99 -28.42,-11.37 -56.46,-24.04 -84,-37.37 -10.249,-4.96 -25.88,-8.93 -34.12,-16.89 -4.289,-4.15 -3.849,-13.87 -4.37,-19.42 -1.449,-15.61 -3.399,-31.2 -4.91,-46.8 -5.829,-60.2 -9.939,-122.22 -1.319,-182.39 2.79,-19.44 8.83,-54.7 32.72,-58.43 36.739,-5.75 65.279,39.46 83.309,64.43 42.11,58.32 90.02,112.61 159.08,138.68 81.3,30.69 174.38,37.92 260.39,43.82 241.31,16.54 505.009,-27.54 682.769,-205.3 25.28,-25.28 49.21,-52.11 69.56,-81.6 79.59,-115.26 121.68,-246.32 141.95,-383.98 9.53,-64.63 16.04,-130.03 1.3,-194.39 -25.58,-111.66 -92.65,-208.85 -169.72,-291.59 -52.75,-56.63 -112.11,-107.82 -173.89,-154.35 -34.49,-25.97 -73.17,-48 -105.6,-76.39 -37.35,-32.7 -68.42,-73.62 -92.03,-117.25 -63.54,-117.48 -80.579,-258.84 -61.89,-389.98 3.83,-26.88 7.29,-53.89 13.38,-80.4 1.82,-7.93 2.14,-21.56 7.27,-28.04 9.6,-12.12 35.8,-18.79 50.47,-19.5 15.3,-0.74 25.48,11.02 29.23,24.74 6.42,23.51 2.58,49.55 -1.14,73.2 -7.62,48.44 -14.6,97.22 -12.44,146.39 3.98,90.79 39.08,175.39 102,241.19 63.99,66.92 150.42,105.51 223.14,161.57 146.56,112.98 277.86,265.41 328.28,446.8 18.02,64.87 23.99,133.61 15.76,200.39 -10.4,84.47 -41.29,168.84 -70.39,248.39 -88.69,242.48 -240.83,473.08 -482.44,584.01 -95.89,44.02 -196.16,64.06 -299.99,78.52 -48.69,6.78 -97.37,10.94 -146.391,13.09 -27.229,1.19 -56.849,4.21 -83.999,0.64"
         style="fill:#ffffff;fill-opacity:1;stroke:none"
         id="path28"
         inkscape:connector-curvature="0" />
      <path
         d="m 290.31,1893.49 c -47.09,-6.74 -60.78,-44.49 -52.08,-87.08 11.14,-54.5 54,-96.07 96.469,-128.81 108.81,-83.88 249.35,-129.22 386.38,-123.22 53.47,2.34 111.72,11.18 160.79,33.87 26.31,12.16 53.83,55.97 18,74.72 -4.91,2.57 -11.329,4.16 -16.8,5.06 -15.649,2.56 -33.17,-4.1 -47.999,-8.36 -26.15,-7.51 -52.28,-15.2 -79.2,-19.52 -80.43,-12.92 -167.4,5.46 -233.99,53.12 -53.829,38.54 -97.369,89.36 -138.47,140.74 -25.159,31.45 -47.899,65.96 -93.119,59.48"
         style="fill:#ffffff;fill-opacity:1;stroke:none"
         id="path30"
         inkscape:connector-curvature="0" />
      <path
         d="m 229.11,1627.11 c -11.98,-1.58 -25.72,-1.13 -35.98,-8.66 -21.4,-15.71 2.17,-47.31 13.43,-61.63 32.649,-41.49 75.639,-75.93 118.54,-106.29 119.599,-84.61 255.079,-133.42 400.78,-143.41 41.889,-2.87 84.559,0.11 125.989,7.01 15.149,2.53 34,3.67 48,10.21 39.619,18.53 28.159,93.38 -7.2,110.02 -15.44,7.26 -40.21,-2.33 -56.4,-4.58 -38.29,-5.34 -76.69,-5.88 -115.2,-4.94 -100.93,2.47 -208.45,33.56 -296.39,82.62 -34.57,19.3 -66.319,42.78 -96,68.91 -18.05,15.89 -36.59,41.89 -59.999,49.92 -10.9,3.74 -28.261,2.32 -39.601,0.83"
         style="fill:#ffffff;fill-opacity:1;stroke:none"
         id="path32"
         inkscape:connector-curvature="0" />
      <path
         d="m 253.109,1402.7 c -17.059,-1.91 -29.919,-10.81 -41.139,-23.47 -7.73,-8.72 -15.07,-16.6 -19.51,-27.6 -24.48,-60.56 40.78,-117.73 85.85,-146.33 50.159,-31.82 104.959,-55.41 160.789,-75.28 125.92,-44.82 273.61,-73.51 404.38,-33.44 38.87,11.9 77.29,33.66 105.55,63.07 15.919,16.57 26.849,41.66 -2.35,52.27 -17.3,6.28 -38.31,-9.71 -54,-16.03 -37.04,-14.94 -75.44,-26.28 -115.2,-31.09 -52.37,-6.35 -99.52,5.18 -149.99,17.81 -43.11,10.78 -86.709,21.56 -128.39,37.1 -35.56,13.26 -70.88,29.01 -101.999,51.03 -9.3,6.58 -20.44,12.44 -28.06,21.01 -24.91,28.03 -43.63,60.83 -70.34,87.49 -11.54,11.52 -27.939,25.44 -45.6,23.47"
         style="fill:#ffffff;fill-opacity:1;stroke:none"
         id="path34"
         inkscape:connector-curvature="0" />
    </g>
  </g>
</svg>
