<?xml version="1.0" encoding="UTF-8" standalone="no"?>
<!-- Created with Inkscape (http://www.inkscape.org/) -->

<svg
   xmlns:dc="http://purl.org/dc/elements/1.1/"
   xmlns:cc="http://creativecommons.org/ns#"
   xmlns:rdf="http://www.w3.org/1999/02/22-rdf-syntax-ns#"
   xmlns:svg="http://www.w3.org/2000/svg"
   xmlns="http://www.w3.org/2000/svg"
   xmlns:sodipodi="http://sodipodi.sourceforge.net/DTD/sodipodi-0.dtd"
   xmlns:inkscape="http://www.inkscape.org/namespaces/inkscape"
   id="svg6649"
   height="48"
   width="48"
   version="1.1"
   inkscape:version="0.91 r13725"
   sodipodi:docname="garrysmod.svg">
  <sodipodi:namedview
     pagecolor="#ffffff"
     bordercolor="#666666"
     borderopacity="1"
     objecttolerance="10"
     gridtolerance="10"
     guidetolerance="10"
     inkscape:pageopacity="0"
     inkscape:pageshadow="2"
     inkscape:window-width="1535"
     inkscape:window-height="876"
     id="namedview37"
     showgrid="false"
     inkscape:zoom="4.9166667"
     inkscape:cx="-11.389831"
     inkscape:cy="24"
     inkscape:window-x="65"
     inkscape:window-y="24"
     inkscape:window-maximized="1"
     inkscape:current-layer="svg6649" />
  <defs
     id="defs6651">
    <radialGradient
       id="radialGradient3013"
       gradientUnits="userSpaceOnUse"
       cy="43.5"
       cx="4.993"
       gradientTransform="matrix(2.0038,0,0,1.4,27.988,-17.4)"
       r="2.5">
      <stop
         id="stop2883"
         stop-color="#181818"
         offset="0" />
      <stop
         id="stop2885"
         stop-color="#181818"
         stop-opacity="0"
         offset="1" />
    </radialGradient>
    <radialGradient
       id="radialGradient3015"
       gradientUnits="userSpaceOnUse"
       cy="43.5"
       cx="4.993"
       gradientTransform="matrix(2.0038,0,0,1.4,-20.012,-104.4)"
       r="2.5">
      <stop
         id="stop2889"
         stop-color="#181818"
         offset="0" />
      <stop
         id="stop2891"
         stop-color="#181818"
         stop-opacity="0"
         offset="1" />
    </radialGradient>
    <linearGradient
       id="linearGradient6647"
       y2="39.999"
       gradientUnits="userSpaceOnUse"
       x2="25.058"
       y1="47.028"
       x1="25.058">
      <stop
         id="stop2895"
         stop-color="#181818"
         stop-opacity="0"
         offset="0" />
      <stop
         id="stop2897"
         stop-color="#181818"
         offset=".5" />
      <stop
         id="stop2899"
         stop-color="#181818"
         stop-opacity="0"
         offset="1" />
    </linearGradient>
    <linearGradient
       id="linearGradient3028"
       y2="43"
       gradientUnits="userSpaceOnUse"
       x2="24"
       gradientTransform="translate(4e-6,1)"
       y1="5"
       x1="24">
      <stop
         id="stop3926-3"
         stop-color="#fff"
         offset="0" />
      <stop
         id="stop3928-91"
         stop-color="#fff"
         stop-opacity=".23529"
         offset=".063165" />
      <stop
         id="stop3930-6"
         stop-color="#fff"
         stop-opacity=".15686"
         offset=".95056" />
      <stop
         id="stop3932-6"
         stop-color="#fff"
         stop-opacity=".39216"
         offset="1" />
    </linearGradient>
    <radialGradient
       id="radialGradient3031"
       fx="6.2002"
       gradientUnits="userSpaceOnUse"
       cy="9.9571"
       cx="6.7304"
       gradientTransform="matrix(0,9.4976,-11.66,0,140.93,-79.161)"
       r="12.672">
      <stop
         id="stop3750-1-0-7-6-6-1-3-9"
         stop-color="#6db9ff"
         offset="0" />
      <stop
         id="stop3752-3-7-4-0-32-8-923-0"
         stop-color="#0988ff"
         offset=".26238" />
      <stop
         id="stop3754-1-8-5-2-7-6-7-1"
         stop-color="#007ef4"
         offset=".70495" />
      <stop
         id="stop3756-1-6-2-6-6-1-96-6"
         stop-color="#005fb8"
         offset="1" />
    </radialGradient>
  </defs>
  <metadata
     id="metadata6654">
    <rdf:RDF>
      <cc:Work
         rdf:about="">
        <dc:format>image/svg+xml</dc:format>
        <dc:type
           rdf:resource="http://purl.org/dc/dcmitype/StillImage" />
        <dc:title />
      </cc:Work>
    </rdf:RDF>
  </metadata>
  <g
     id="g4180"
     transform="translate(0,-1)">
    <rect
       x="4.5"
       y="5.5"
       width="39"
       height="39"
       ry="2"
       rx="2"
       style="color:#000000;fill:url(#radialGradient3031)"
       id="rect5505-21" />
    <rect
       style="opacity:0.5;fill:none;stroke:url(#linearGradient3028);stroke-linecap:round;stroke-linejoin:round"
       x="5.5"
       y="6.5"
       width="37"
       height="37"
       ry="1"
       rx="1"
       id="rect6741" />
    <rect
       x="4.5"
       y="5.5"
       width="39"
       height="39"
       ry="2"
       rx="2"
       style="color:#000000;opacity:0.4;fill:none;stroke:#003465;stroke-linecap:round;stroke-linejoin:round"
       id="rect5505-21-3-2" />
    <path
       d="M 23.457,11 C 18.041,11 14,15.584 14,21.438 c 0,4.4622 2.181,8.119 5.4941,9.7559 l -4.2148,0 a 1.0001,1.0001 0 0 0 -0.935,1.355 c 1.53,4.02 5.213,6.451 9.765,6.451 3.3466,0 6.1605,-1.3072 7.959,-3.7383 a 1.0001,1.0001 0 0 0 0.01,-0.012 c 1.374,-1.913 1.922,-4.408 1.922,-8.006 l 0,-14.814 a 1.0001,1.0001 0 0 0 -1,-1 l -3.7637,0 a 1.0001,1.0001 0 0 0 -0.81836,0.22461 1.0001,1.0001 0 0 0 -0.06055,0.05664 1.0001,1.0001 0 0 0 -0.01563,0.01367 1.0001,1.0001 0 0 0 -0.01367,0.01758 1.0001,1.0001 0 0 0 -0.26367,0.83789 l 0,0.0098 c -1.301,-0.94 -2.795,-1.59 -4.607,-1.59 z m 0,2 c 2.2388,0 3.6879,0.70864 4.7852,2.3047 a 1.0001,1.0001 0 0 0 1.8223,-0.56641 l 0,-1.3086 1.9355,0 0,13.814 c 0,3.392 -0.50318,5.3801 -1.543,6.832 -1.423,1.921 -3.5,2.924 -6.348,2.924 -3.277,0 -5.696,-1.396 -7.144,-3.807 l 2.6855,0 c 1.2559,1.2586 2.7223,1.9453 4.6133,1.9453 1.7416,0 3.2677,-0.59818 4.2656,-1.8105 0.99789,-1.2124 1.4527,-2.8977 1.5352,-4.9883 a 1.0001,1.0001 0 0 0 -1.7793,-0.66602 c -1.4911,1.8628 -2.6685,2.4629 -4.8574,2.4629 -4.343,0 -7.428,-3.475 -7.428,-8.699 0,-4.969 3.145,-8.438 7.457,-8.438 z m 0.46484,2.0254 a 1.0001,1.0001 0 0 0 -0.422,0.088 c -1.5164,0.11169 -2.8812,0.71753 -3.8066,1.8086 -1.0158,1.1976 -1.541,2.843 -1.541,4.7129 0,1.8553 0.5307,3.4806 1.5625,4.6504 1.0318,1.1698 2.555,1.8262 4.2695,1.8262 1.7182,0 3.2509,-0.66457 4.2969,-1.834 1.046,-1.16943 1.5977,-2.7956 1.5977,-4.6426 0,-1.8677 -0.56856,-3.5217 -1.625,-4.7168 -0.96473,-1.0914 -2.3641,-1.6974 -3.9121,-1.8066 a 1.0001,1.0001 0 0 0 -0.41992,-0.08594 z m 0,2 c 1.2138,0 2.1477,0.44047 2.834,1.2168 0.68624,0.77632 1.123,1.9278 1.123,3.3926 0,1.4526 -0.42217,2.5643 -1.0879,3.3086 -0.66572,0.74428 -1.5817,1.168 -2.8066,1.168 -1.2287,0 -2.1206,-0.41469 -2.7695,-1.1504 -0.64893,-0.7357 -1.0625,-1.849 -1.0625,-3.3262 0,-1.4956 0.41698,-2.6543 1.0664,-3.4199 0.64943,-0.76563 1.5221,-1.1895 2.7031,-1.1895 z m 3.6797,13.791 c -0.1737,0.48836 -0.36723,0.93655 -0.61719,1.2402 -0.59764,0.72609 -1.3951,1.082 -2.7207,1.082 -1.7352,0 -2.4637,-0.32631 -3.541,-1.5898 0.8679,0.27984 1.7283,0.58789 2.7051,0.58789 1.6093,0 2.9443,-0.52823 4.1738,-1.3203 z"
       style="color:#000000;text-indent:0;text-decoration:none;text-decoration-line:none;text-decoration-style:solid;text-decoration-color:#000000;text-transform:none;block-progression:tb;white-space:normal;opacity:0.15;isolation:auto;mix-blend-mode:normal;solid-color:#000000;color-rendering:auto;image-rendering:auto;shape-rendering:auto"
       id="path4177"
       inkscape:connector-curvature="0" />
    <path
       d="m 23.457,11.5 c -5.14,0 -8.957,4.305 -8.957,9.938 0,5.8508 3.7564,10.199 8.9277,10.199 2.0245,0 3.5466,-0.79818 4.9512,-2.1074 -0.18469,1.2054 -0.48873,2.2151 -1.0078,2.8457 -0.6977,0.84766 -1.6778,1.2637 -3.1074,1.2637 -1.8292,0 -2.7818,-0.4262 -3.9258,-1.7695 a 0.50005,0.50005 0 0 0 -0.38086,-0.17578 l -4.6777,0 a 0.50005,0.50005 0 0 0 -0.467,0.677 c 1.463,3.841 4.914,6.129 9.297,6.129 3.2224,0 5.8539,-1.2308 7.5586,-3.5352 a 0.50005,0.50005 0 0 0 0.0039,-0.0059 c 1.291,-1.798 1.828,-4.167 1.828,-7.715 l 0,-14.814 a 0.50005,0.50005 0 0 0 -0.5,-0.5 l -3.8418,0 a 0.50005,0.50005 0 0 0 -0.37695,0.08203 0.50005,0.50005 0 0 0 -0.02344,0.01758 0.50005,0.50005 0 0 0 -0.01562,0.01172 0.50005,0.50005 0 0 0 -0.0039,0.0039 0.50005,0.50005 0 0 0 -0.0332,0.03125 0.50005,0.50005 0 0 0 -0.02148,0.02539 0.50005,0.50005 0 0 0 -0.01172,0.01172 0.50005,0.50005 0 0 0 -0.002,0.0039 0.50005,0.50005 0 0 0 -0.10547,0.38086 l 0,1.1621 c -1.317,-1.328 -2.975,-2.16 -5.107,-2.16 z m 0,1 c 2.3587,0 4.0135,0.79961 5.1973,2.5215 a 0.50005,0.50005 0 0 0 0.91016,-0.2832 l 0,-1.8086 2.9355,0 0,14.314 c 0,3.4463 -0.5157,5.5614 -1.6406,7.1289 -3.23e-4,4.5e-4 3.23e-4,0.0015 0,0.002 -1.5172,2.048 -3.7784,3.125 -6.75,3.125 -3.7494,0 -6.5348,-1.7792 -7.9863,-4.8066 l 3.6777,0 c 1.2181,1.3248 2.5597,1.9453 4.4629,1.9453 1.6376,0 2.9811,-0.53811 3.8789,-1.6289 0.89783,-1.0908 1.3419,-2.6645 1.4219,-4.6914 a 0.50005,0.50005 0 0 0 -0.88867,-0.33203 c -1.551,1.9378 -2.9453,2.6504 -5.248,2.6504 -4.619,0.001 -7.928,-3.765 -7.928,-9.198 0,-5.19 3.369,-8.938 7.957,-8.938 z m 0.46484,3.0254 a 0.50005,0.50005 0 0 0 -0.20898,0.04297 c -1.4742,0.0574 -2.7571,0.63874 -3.6367,1.6758 -0.92422,1.0896 -1.4238,2.6143 -1.4238,4.3906 0,1.7608 0.50142,3.2571 1.4375,4.3184 0.93608,1.0612 2.3015,1.6582 3.8945,1.6582 1.5949,0 2.9729,-0.60483 3.9238,-1.668 0.95092,-1.0631 1.4707,-2.5603 1.4707,-4.3086 0,-1.767 -0.53611,-3.2943 -1.5,-4.3848 -0.91848,-1.039 -2.2421,-1.6252 -3.748,-1.6816 A 0.50005,0.50005 0 0 0 23.92188,15.5254 Z m 0,1 c 1.3427,0 2.4302,0.5057 3.209,1.3867 0.77879,0.88102 1.248,2.1571 1.248,3.7227 0,1.5512 -0.45601,2.792 -1.2168,3.6426 -0.76079,0.85057 -1.8295,1.334 -3.1777,1.334 -1.3501,0 -2.3999,-0.47414 -3.1445,-1.3184 -0.74465,-0.84421 -1.1875,-2.0865 -1.1875,-3.6582 0,-1.5892 0.44452,-2.8705 1.1855,-3.7441 0.74102,-0.87361 1.7732,-1.3652 3.084,-1.3652 z"
       style="color:#000000;text-indent:0;text-decoration:none;text-decoration-line:none;text-decoration-style:solid;text-decoration-color:#000000;text-transform:none;block-progression:tb;white-space:normal;opacity:0.15;isolation:auto;mix-blend-mode:normal;solid-color:#000000;color-rendering:auto;image-rendering:auto;shape-rendering:auto"
       id="path4179"
       inkscape:connector-curvature="0" />
    <path
       d="m 29.065,12.429 0,2.3097 c -1.27,-1.848 -3.129,-2.739 -5.607,-2.739 -4.864,0 -8.458,4.025 -8.458,9.437 0,5.6421 3.5318,9.7005 8.4268,9.7005 2.4165,0 4.0276,-0.82487 5.6386,-2.8376 -0.1549,3.9264 -1.7349,5.8401 -4.8021,5.8401 -1.9208,0 -3.0981,-0.52794 -4.3064,-1.9467 l -4.6782,0 c 1.395,3.662 4.617,5.807 8.83,5.807 3.0981,0 5.5456,-1.1548 7.1566,-3.3325 1.208,-1.683 1.735,-3.927 1.735,-7.424 l 0,-14.815 -3.9346,0 m -5.142,3.596 c 2.9432,0 4.957,2.2766 4.957,5.6091 0,3.2995 -1.9518,5.4772 -4.895,5.4772 -2.9432,0 -4.8331,-2.1447 -4.8331,-5.4772 0,-3.3655 1.8899,-5.6091 4.7711,-5.6091"
       id="path3800"
       inkscape:connector-curvature="0"
       style="fill:#f9f9f9" />
  </g>
  <g
     transform="translate(0,-1)"
     id="g4188">
    <rect
       id="rect4190"
       style="color:#000000;fill:url(#radialGradient3031)"
       rx="2"
       ry="2"
       height="39"
       width="39"
       y="5.5"
       x="4.5" />
    <rect
       id="rect4192"
       rx="1"
       ry="1"
       height="37"
       width="37"
       y="6.5"
       x="5.5"
       style="opacity:0.5;fill:none;stroke:url(#linearGradient3028);stroke-linecap:round;stroke-linejoin:round" />
    <rect
       id="rect4194"
       style="color:#000000;opacity:0.4;fill:none;stroke:#003465;stroke-linecap:round;stroke-linejoin:round"
       rx="2"
       ry="2"
       height="39"
       width="39"
       y="5.5"
       x="4.5" />
    <path
       inkscape:connector-curvature="0"
       id="path4196"
       style="color:#000000;text-indent:0;text-decoration:none;text-decoration-line:none;text-decoration-style:solid;text-decoration-color:#000000;text-transform:none;block-progression:tb;white-space:normal;opacity:0.15;isolation:auto;mix-blend-mode:normal;solid-color:#000000;color-rendering:auto;image-rendering:auto;shape-rendering:auto"
       d="M 23.457,11 C 18.041,11 14,15.584 14,21.438 c 0,4.4622 2.181,8.119 5.4941,9.7559 l -4.2148,0 a 1.0001,1.0001 0 0 0 -0.935,1.355 c 1.53,4.02 5.213,6.451 9.765,6.451 3.3466,0 6.1605,-1.3072 7.959,-3.7383 a 1.0001,1.0001 0 0 0 0.01,-0.012 c 1.374,-1.913 1.922,-4.408 1.922,-8.006 l 0,-14.814 a 1.0001,1.0001 0 0 0 -1,-1 l -3.7637,0 a 1.0001,1.0001 0 0 0 -0.81836,0.22461 1.0001,1.0001 0 0 0 -0.06055,0.05664 1.0001,1.0001 0 0 0 -0.01563,0.01367 1.0001,1.0001 0 0 0 -0.01367,0.01758 1.0001,1.0001 0 0 0 -0.26367,0.83789 l 0,0.0098 c -1.301,-0.94 -2.795,-1.59 -4.607,-1.59 z m 0,2 c 2.2388,0 3.6879,0.70864 4.7852,2.3047 a 1.0001,1.0001 0 0 0 1.8223,-0.56641 l 0,-1.3086 1.9355,0 0,13.814 c 0,3.392 -0.50318,5.3801 -1.543,6.832 -1.423,1.921 -3.5,2.924 -6.348,2.924 -3.277,0 -5.696,-1.396 -7.144,-3.807 l 2.6855,0 c 1.2559,1.2586 2.7223,1.9453 4.6133,1.9453 1.7416,0 3.2677,-0.59818 4.2656,-1.8105 0.99789,-1.2124 1.4527,-2.8977 1.5352,-4.9883 a 1.0001,1.0001 0 0 0 -1.7793,-0.66602 c -1.4911,1.8628 -2.6685,2.4629 -4.8574,2.4629 -4.343,0 -7.428,-3.475 -7.428,-8.699 0,-4.969 3.145,-8.438 7.457,-8.438 z m 0.46484,2.0254 a 1.0001,1.0001 0 0 0 -0.422,0.088 c -1.5164,0.11169 -2.8812,0.71753 -3.8066,1.8086 -1.0158,1.1976 -1.541,2.843 -1.541,4.7129 0,1.8553 0.5307,3.4806 1.5625,4.6504 1.0318,1.1698 2.555,1.8262 4.2695,1.8262 1.7182,0 3.2509,-0.66457 4.2969,-1.834 1.046,-1.16943 1.5977,-2.7956 1.5977,-4.6426 0,-1.8677 -0.56856,-3.5217 -1.625,-4.7168 -0.96473,-1.0914 -2.3641,-1.6974 -3.9121,-1.8066 a 1.0001,1.0001 0 0 0 -0.41992,-0.08594 z m 0,2 c 1.2138,0 2.1477,0.44047 2.834,1.2168 0.68624,0.77632 1.123,1.9278 1.123,3.3926 0,1.4526 -0.42217,2.5643 -1.0879,3.3086 -0.66572,0.74428 -1.5817,1.168 -2.8066,1.168 -1.2287,0 -2.1206,-0.41469 -2.7695,-1.1504 -0.64893,-0.7357 -1.0625,-1.849 -1.0625,-3.3262 0,-1.4956 0.41698,-2.6543 1.0664,-3.4199 0.64943,-0.76563 1.5221,-1.1895 2.7031,-1.1895 z m 3.6797,13.791 c -0.1737,0.48836 -0.36723,0.93655 -0.61719,1.2402 -0.59764,0.72609 -1.3951,1.082 -2.7207,1.082 -1.7352,0 -2.4637,-0.32631 -3.541,-1.5898 0.8679,0.27984 1.7283,0.58789 2.7051,0.58789 1.6093,0 2.9443,-0.52823 4.1738,-1.3203 z" />
    <path
       inkscape:connector-curvature="0"
       id="path4198"
       style="color:#000000;text-indent:0;text-decoration:none;text-decoration-line:none;text-decoration-style:solid;text-decoration-color:#000000;text-transform:none;block-progression:tb;white-space:normal;opacity:0.15;isolation:auto;mix-blend-mode:normal;solid-color:#000000;color-rendering:auto;image-rendering:auto;shape-rendering:auto"
       d="m 23.457,11.5 c -5.14,0 -8.957,4.305 -8.957,9.938 0,5.8508 3.7564,10.199 8.9277,10.199 2.0245,0 3.5466,-0.79818 4.9512,-2.1074 -0.18469,1.2054 -0.48873,2.2151 -1.0078,2.8457 -0.6977,0.84766 -1.6778,1.2637 -3.1074,1.2637 -1.8292,0 -2.7818,-0.4262 -3.9258,-1.7695 a 0.50005,0.50005 0 0 0 -0.38086,-0.17578 l -4.6777,0 a 0.50005,0.50005 0 0 0 -0.467,0.677 c 1.463,3.841 4.914,6.129 9.297,6.129 3.2224,0 5.8539,-1.2308 7.5586,-3.5352 a 0.50005,0.50005 0 0 0 0.0039,-0.0059 c 1.291,-1.798 1.828,-4.167 1.828,-7.715 l 0,-14.814 a 0.50005,0.50005 0 0 0 -0.5,-0.5 l -3.8418,0 a 0.50005,0.50005 0 0 0 -0.37695,0.08203 0.50005,0.50005 0 0 0 -0.02344,0.01758 0.50005,0.50005 0 0 0 -0.01562,0.01172 0.50005,0.50005 0 0 0 -0.0039,0.0039 0.50005,0.50005 0 0 0 -0.0332,0.03125 0.50005,0.50005 0 0 0 -0.02148,0.02539 0.50005,0.50005 0 0 0 -0.01172,0.01172 0.50005,0.50005 0 0 0 -0.002,0.0039 0.50005,0.50005 0 0 0 -0.10547,0.38086 l 0,1.1621 c -1.317,-1.328 -2.975,-2.16 -5.107,-2.16 z m 0,1 c 2.3587,0 4.0135,0.79961 5.1973,2.5215 a 0.50005,0.50005 0 0 0 0.91016,-0.2832 l 0,-1.8086 2.9355,0 0,14.314 c 0,3.4463 -0.5157,5.5614 -1.6406,7.1289 -3.23e-4,4.5e-4 3.23e-4,0.0015 0,0.002 -1.5172,2.048 -3.7784,3.125 -6.75,3.125 -3.7494,0 -6.5348,-1.7792 -7.9863,-4.8066 l 3.6777,0 c 1.2181,1.3248 2.5597,1.9453 4.4629,1.9453 1.6376,0 2.9811,-0.53811 3.8789,-1.6289 0.89783,-1.0908 1.3419,-2.6645 1.4219,-4.6914 a 0.50005,0.50005 0 0 0 -0.88867,-0.33203 c -1.551,1.9378 -2.9453,2.6504 -5.248,2.6504 -4.619,0.001 -7.928,-3.765 -7.928,-9.198 0,-5.19 3.369,-8.938 7.957,-8.938 z m 0.46484,3.0254 a 0.50005,0.50005 0 0 0 -0.20898,0.04297 c -1.4742,0.0574 -2.7571,0.63874 -3.6367,1.6758 -0.92422,1.0896 -1.4238,2.6143 -1.4238,4.3906 0,1.7608 0.50142,3.2571 1.4375,4.3184 0.93608,1.0612 2.3015,1.6582 3.8945,1.6582 1.5949,0 2.9729,-0.60483 3.9238,-1.668 0.95092,-1.0631 1.4707,-2.5603 1.4707,-4.3086 0,-1.767 -0.53611,-3.2943 -1.5,-4.3848 -0.91848,-1.039 -2.2421,-1.6252 -3.748,-1.6816 A 0.50005,0.50005 0 0 0 23.92188,15.5254 Z m 0,1 c 1.3427,0 2.4302,0.5057 3.209,1.3867 0.77879,0.88102 1.248,2.1571 1.248,3.7227 0,1.5512 -0.45601,2.792 -1.2168,3.6426 -0.76079,0.85057 -1.8295,1.334 -3.1777,1.334 -1.3501,0 -2.3999,-0.47414 -3.1445,-1.3184 -0.74465,-0.84421 -1.1875,-2.0865 -1.1875,-3.6582 0,-1.5892 0.44452,-2.8705 1.1855,-3.7441 0.74102,-0.87361 1.7732,-1.3652 3.084,-1.3652 z" />
    <path
       style="fill:#f9f9f9"
       inkscape:connector-curvature="0"
       id="path4200"
       d="m 29.065,12.429 0,2.3097 c -1.27,-1.848 -3.129,-2.739 -5.607,-2.739 -4.864,0 -8.458,4.025 -8.458,9.437 0,5.6421 3.5318,9.7005 8.4268,9.7005 2.4165,0 4.0276,-0.82487 5.6386,-2.8376 -0.1549,3.9264 -1.7349,5.8401 -4.8021,5.8401 -1.9208,0 -3.0981,-0.52794 -4.3064,-1.9467 l -4.6782,0 c 1.395,3.662 4.617,5.807 8.83,5.807 3.0981,0 5.5456,-1.1548 7.1566,-3.3325 1.208,-1.683 1.735,-3.927 1.735,-7.424 l 0,-14.815 -3.9346,0 m -5.142,3.596 c 2.9432,0 4.957,2.2766 4.957,5.6091 0,3.2995 -1.9518,5.4772 -4.895,5.4772 -2.9432,0 -4.8331,-2.1447 -4.8331,-5.4772 0,-3.3655 1.8899,-5.6091 4.7711,-5.6091" />
  </g>
</svg>
