<?xml version="1.0" encoding="UTF-8" standalone="no"?>
<!-- Created with Inkscape (http://www.inkscape.org/) -->
<svg id="svg4951" xmlns:rdf="http://www.w3.org/1999/02/22-rdf-syntax-ns#" xmlns="http://www.w3.org/2000/svg" height="48px" width="48px" version="1.1" xmlns:cc="http://creativecommons.org/ns#" xmlns:xlink="http://www.w3.org/1999/xlink" xmlns:dc="http://purl.org/dc/elements/1.1/">
 <defs id="defs4953">
  <linearGradient id="linearGradient4501">
   <stop id="stop4503" stop-color="#fff" offset="0"/>
   <stop id="stop4505" stop-color="#fff" stop-opacity=".3" offset="1"/>
  </linearGradient>
  <linearGradient id="linearGradient3189" y2="40.496" gradientUnits="userSpaceOnUse" x2="71.204" gradientTransform="matrix(1.617 0 0 1.617 -92.707 -21.06)" y1="15.369" x1="71.204">
   <stop id="stop4808-4" stop-color="#fff" offset="0"/>
   <stop id="stop4810-0" stop-color="#fff" stop-opacity=".23529" offset=".42448"/>
   <stop id="stop4812-8" stop-color="#fff" stop-opacity=".15686" offset=".82090"/>
   <stop id="stop4814-0" stop-color="#fff" stop-opacity=".39216" offset="1"/>
  </linearGradient>
  <radialGradient id="radialGradient3192" gradientUnits="userSpaceOnUse" cy="3.99" cx="23.896" gradientTransform="matrix(0 2.8885 -3.8128 0 39.213 -65.95)" r="20.397">
   <stop id="stop4369" stop-color="#ffbe44" offset="0"/>
   <stop id="stop4371" stop-color="#c67a00" offset=".66094"/>
   <stop id="stop4373" stop-color="#cb7d00" offset="1"/>
  </radialGradient>
  <radialGradient id="radialGradient3195" gradientUnits="userSpaceOnUse" cy="186.17" cx="99.157" gradientTransform="matrix(.27083 0 0 .087623 -2.8551 25.187)" r="62.769">
   <stop id="stop3822-2-6-3" stop-color="#3d3d3d" offset="0"/>
   <stop id="stop3864-8-7-7" stop-color="#686868" stop-opacity=".49804" offset=".5"/>
   <stop id="stop3824-1-2-5" stop-color="#686868" stop-opacity="0" offset="1"/>
  </radialGradient>
  <linearGradient id="linearGradient4491" y2="16.997" xlink:href="#linearGradient4501" gradientUnits="userSpaceOnUse" x2="8.8085" y1="2.2664" x1="8.9438"/>
  <linearGradient id="linearGradient4482" y2="16.997" xlink:href="#linearGradient4501" gradientUnits="userSpaceOnUse" x2="8.8085" gradientTransform="matrix(.50975 0 0 .50975 19.281 -2.2711)" y1="2.2664" x1="8.9438"/>
 </defs>
 <metadata id="metadata4956">
  <rdf:RDF>
   <cc:Work rdf:about="">
    <dc:format>image/svg+xml</dc:format>
    <dc:type rdf:resource="http://purl.org/dc/dcmitype/StillImage"/>
    <dc:title/>
   </cc:Work>
  </rdf:RDF>
 </metadata>
 <g id="layer1">
  <path id="path3818-0-5" d="m41 41.5a17 5.5 0 0 1 -34 0 17 5.5 0 1 1 34 0z" fill="url(#radialGradient3195)"/>
  <path id="path2555-7-2" style="color:#000000" d="m24 3.5c-11.311 0-20.5 9.1888-20.5 20.5s9.1888 20.5 20.5 20.5 20.5-9.1888 20.5-20.5-9.189-20.5-20.5-20.5z" fill="url(#radialGradient3192)"/>
  <path id="path4176" opacity=".3" stroke-linejoin="round" style="color:#000000" d="m43.5 24c0 10.77-8.73 19.5-19.5 19.5s-19.5-8.73-19.5-19.5 8.73-19.5 19.5-19.5 19.5 8.73 19.5 19.5z" stroke="url(#linearGradient3189)" stroke-linecap="round" fill="none"/>
  <path id="path3871" opacity=".7" style="color:#000000" d="m24 3.5c-11.311 0-20.5 9.189-20.5 20.5s9.189 20.5 20.5 20.5 20.5-9.189 20.5-20.5-9.189-20.5-20.5-20.5z" stroke="#5c3f24" fill="none"/>
  <g id="g4479" opacity=".5" transform="matrix(1.3882 0 0 1.4032 11.331 10.312)" stroke="url(#linearGradient4491)" stroke-width="1.433" fill="none">
   <g id="g4481" stroke="url(#linearGradient4491)" stroke-width="1.433" fill="none">
    <path id="path4483" opacity="1" style="color-rendering:auto;text-decoration-color:#000000;color:#000000;isolation:auto;mix-blend-mode:normal;shape-rendering:auto;solid-color:#000000;block-progression:tb;text-decoration-line:none;text-decoration-style:solid;image-rendering:auto;white-space:normal;text-indent:0;text-transform:none" d="m9.5843 2.6243c-0.00621 0-0.011717 0.00294-0.017921 0.00299-1.1463 0.00824-2.1529 0.78848-2.2919 1.8807-0.9432 0.3567-1.7792 0.9015-2.4592 1.6159h-0.10554l-0.20211 0.27877-0.00299 0.00299-0.00896 0.012943c-0.038015 0.052094-0.039217 0.054143-0.00498 0.00697l-0.00398 0.00498c-0.1375 0.191-0.275 0.4374-0.4191 0.6511-0.1853-0.594-0.4815-1.1237-0.929-1.5393-1.2198-1.1327-2.7007-0.9785-3.0346-0.9358-0.47721 0.015667-0.75082 0.35418-0.87813 0.61429-0.13006 0.26573-0.18124 0.54522-0.1812 0.84826-0.00003619 0.30305 0.05114 0.58253 0.1812 0.84826s0.40622 0.62204 0.90302 0.62325h0.00099555 0.00099555c0.009017 0.0000026 0.017874-0.00172 0.026881-0.00199h0.017921l0.016926-0.0009955c0.047537-0.00216 0.75155 0.080514 0.89307 0.21207 0.092404 0.085889 0.21545 0.33137 0.1822 0.90004-0.079304 1.3386 0.28833 2.5196 1.1529 3.2965 0.30721 0.27651 0.64081 0.40541 0.96674 0.54062 0.92281 2.5544 3.333 4.3986 6.1957 4.3986 2.3642 0 4.4141-1.2669 5.5874-3.1362 1.4257-0.07256 2.7837-0.99442 3.5185-2.4661 1.006-2.016 0.531-4.4613-1.303-5.3762-0.991-0.4929-2.106-0.3224-3.068 0.1822-0.674-0.6974-1.496-1.2318-2.424-1.583-0.141-1.0967-1.156-1.8817-2.3097-1.8817zm0 1.4337c0.58045 0 0.9299 0.36624 0.9299 0.68399 0 0.00719-0.0017 0.032364-0.01294 0.08861l-0.12943 0.64814 0.6362 0.1812c0.99241 0.28293 1.8622 0.85646 2.5209 1.6219l0.21505 0.2509 0.83532-0.00299 0.17523-0.1135c0.68381-0.44011 1.4063-0.51857 1.9922-0.227 0.97626 0.48709 1.3843 2.003 0.66009 3.4548-0.58556 1.1728-1.6923 1.7922-2.5637 1.7184l-0.33552-0.02887 1.0653-0.27977c0.721-0.18982 1.3296-0.72852 1.7015-1.4745v-0.000996c0.28213-0.56532 0.38294-1.1695 0.29769-1.7324-0.08529-0.56311-0.38453-1.1301-0.94882-1.4118h-0.000996c-0.16-0.0774-0.33-0.1288-0.501-0.151-0.506-0.0661-0.978 0.0981-1.378 0.3604l-0.4759 0.31163 0.19514 0.53365c0.20304 0.55528 0.3166 1.1481 0.3166 1.7692 0 0.32692-0.0336 0.65216-0.09359 0.97272l-0.20709 1.1021-0.10354-0.009-0.22302 0.41119c-0.88038 1.6184-2.5909 2.718-4.5699 2.718-2.3461 0-4.3185-1.5484-4.9681-3.6738l-0.1104-0.362-0.3634-0.113c-0.2689-0.083-0.5303-0.213-0.7616-0.421h-0.0009956c-0.4952-0.445-0.7434-1.0957-0.681-2.1466v-0.0009955c0.0467-0.7993-0.1046-1.539-0.6362-2.0331-0.5981-0.5559-1.1971-0.5928-1.5761-0.5854-0.002228-0.021702-0.006972-0.022014-0.006969-0.045798-0.00000204-0.020675 0.004236-0.020656 0.005974-0.039824 0.35341-0.022805 1.0523-0.019052 1.6786 0.56252 0.49971 0.46418 0.74535 1.1188 0.68399 2.1515v0.0009955c-0.022274 0.37777 0.053117 0.69025 0.13142 1.0026-0.0003773 0.00478-0.00362 0.00815-0.00398 0.012943l0.00597-0.0009956c0.024886 0.097447 0.00545 0.22247 0.04082 0.31362l1.383-0.2046c0.0636-0.8442 0.6271-1.7353 1.2266-2.5707 0.6585-0.7718 1.5334-1.353 2.5318-1.6368l0.6362-0.1802-0.1294-0.6491c-0.013652-0.068275-0.014934-0.093505-0.014934-0.08861 0-0.31713 0.35081-0.68399 0.9299-0.68399zm-9.4554 0.5396c-0.00888 0.0000219-0.012169 0.00772-0.020908 0.00796l0.12146-0.0009955c-0.017818-0.0022-0.03574-0.00385-0.053763-0.00498l-0.022899-0.00199h-0.023894zm15.809 4.1059c0.01963 0.00256 0.03155 0.00594 0.0458 0.012943 0.05071 0.025313 0.13602 0.1119 0.17124 0.34448 0.01707 0.1127-0.05523 0.2789-0.07865 0.42513-0.03316-0.26623-0.07664-0.52666-0.14038-0.78156 0.000334 0.0000413 0.0017-0.00104 0.002-0.0009956z" fill="url(#linearGradient4482)"/>
   </g>
  </g>
  <g id="g4388" fill="#a4c639" transform="matrix(1.3882 0 0 1.4032 11.331 10.312)">
   <g id="g4390" fill="#a4c639">
    <path id="path4394" d="m-19.021 11.01c-1.7832 0-3.2305 1.2316-3.2305 2.748 0 0.15498 0.02722 0.30209 0.05664 0.44922-2.2433 0.63758-4.204 1.9397-5.6719 3.668h-0.002c-0.0027 0.0037-0.0051 0.008-0.0078 0.01172-0.0012 0.0014-0.0027 0.0025-0.0039 0.0039-1.2075 1.6778-2.5408 3.6358-2.7051 5.8164-0.20402-0.52574-0.29904-1.1839-0.25-2.0156 0.13732-2.3109-0.46294-4.104-1.7871-5.334-1.9616-1.8214-4.4628-1.5357-4.9219-1.4746a0.72548 1.4801 0 0 0 -0.02148 -0.002 0.72548 1.4801 0 0 0 -0.72461 1.4805 0.72548 1.4801 0 0 0 0.72461 1.4805 0.72548 1.4801 0 0 0 0.05273 -0.0039 0.72548 1.4801 0 0 0 0.0039 0c0.20232-0.0092 1.8571-0.06082 2.7734 0.79102 0.61206 0.5689 0.8812 1.5351 0.80273 2.877-0.13928 2.3443 0.46485 4.1412 1.7988 5.3398 0.63168 0.5689 1.3408 0.9151 2.0215 1.125 1.4517 4.7493 5.8677 8.2031 11.09 8.2031 4.4041 0 8.2336-2.4529 10.199-6.0664 2.411 0.20402 5.035-1.3981 6.4062-4.1445 1.6969-3.4016 0.83045-7.2869-1.9258-8.6621-1.6557-0.82393-3.6216-0.5555-5.2949 0.52148l-0.58008 0.002c-1.4647-1.702-3.4045-2.9842-5.625-3.6172 0.02943-0.14713 0.05273-0.29424 0.05273-0.44922 0-1.5164-1.4453-2.748-3.2305-2.748zm12.646 9.125c0.18652 0.02434 0.36547 0.07775 0.53516 0.16211 1.2065 0.60225 1.5057 2.5628 0.64648 4.2832-0.56498 1.1339-1.5135 1.9189-2.4375 2.1621 0.13144-0.7023 0.20898-1.4264 0.20898-2.166 0-1.3909-0.25583-2.7192-0.70703-3.9531 0.57528-0.37665 1.1944-0.56129 1.7539-0.48828z" transform="matrix(.50975 0 0 .50975 19.281 -2.2711)" fill="#2a2a2a"/>
   </g>
  </g>
  <g id="g4476" transform="matrix(1.9617 0 0 1.9617 -37.823 294.46)"></g>
 </g>
</svg>
