<?xml version="1.0" encoding="UTF-8" standalone="no"?>
<!-- Created with Inkscape (http://www.inkscape.org/) -->
<svg id="svg4951" xmlns:rdf="http://www.w3.org/1999/02/22-rdf-syntax-ns#" xmlns="http://www.w3.org/2000/svg" height="48px" width="48px" version="1.1" xmlns:cc="http://creativecommons.org/ns#" xmlns:xlink="http://www.w3.org/1999/xlink" xmlns:dc="http://purl.org/dc/elements/1.1/">
 <defs id="defs4953">
  <linearGradient id="linearGradient4806-2">
   <stop id="stop4808-4" stop-color="#fff" offset="0"/>
   <stop id="stop4810-0" stop-color="#fff" stop-opacity=".23529" offset=".42448"/>
   <stop id="stop4812-8" stop-color="#fff" stop-opacity=".15686" offset=".82090"/>
   <stop id="stop4814-0" stop-color="#fff" stop-opacity=".39216" offset="1"/>
  </linearGradient>
  <linearGradient id="linearGradient3214" y2="40.496" xlink:href="#linearGradient4806-2" gradientUnits="userSpaceOnUse" x2="71.204" gradientTransform="matrix(1.617 0 0 1.617 -92.707 -21.06)" y1="15.369" x1="71.204"/>
  <radialGradient id="radialGradient3217" gradientUnits="userSpaceOnUse" cy="3.99" cx="23.896" gradientTransform="matrix(0 2.8885 -3.8128 0 39.213 -65.95)" r="20.397">
   <stop id="stop3244-9-33-7-0-6" stop-color="#9cdd66" offset="0"/>
   <stop id="stop3248-1-7-8-8-6" stop-color="#386727" offset=".66094"/>
   <stop id="stop3250-9-3-0-5-2" stop-color="#2e5527" offset="1"/>
  </radialGradient>
  <radialGradient id="radialGradient3220" gradientUnits="userSpaceOnUse" cy="186.17" cx="99.157" gradientTransform="matrix(.27083 0 0 .087623 -2.8551 25.187)" r="62.769">
   <stop id="stop3822-2-6-3" stop-color="#3d3d3d" offset="0"/>
   <stop id="stop3864-8-7-7" stop-color="#686868" stop-opacity=".49804" offset=".5"/>
   <stop id="stop3824-1-2-5" stop-color="#686868" stop-opacity="0" offset="1"/>
  </radialGradient>
  <linearGradient id="linearGradient4418" y2="45.18" xlink:href="#linearGradient4806-2" gradientUnits="userSpaceOnUse" x2="23.353" y1="3.2174" x1="24.08"/>
  <linearGradient id="linearGradient4433" y2="25.611" gradientUnits="userSpaceOnUse" x2="23.078" gradientTransform="matrix(1 0 0 1.0521 0 -.90547)" y1="13.035" x1="22.759">
   <stop id="stop6305-1-0-2" stop-color="#fff" offset="0"/>
   <stop id="stop6307-5-0-6" stop-color="#fff" stop-opacity="0" offset="1"/>
  </linearGradient>
 </defs>
 <metadata id="metadata4956">
  <rdf:RDF>
   <cc:Work rdf:about="">
    <dc:format>image/svg+xml</dc:format>
    <dc:type rdf:resource="http://purl.org/dc/dcmitype/StillImage"/>
    <dc:title/>
   </cc:Work>
  </rdf:RDF>
 </metadata>
 <g id="layer1">
  <g id="g4438">
   <path id="path3818-0-5" fill="url(#radialGradient3220)" d="m41 41.5a17 5.5 0 0 1 -34 0 17 5.5 0 1 1 34 0z"/>
   <path id="path2555-7-2" style="color:#000000" d="m24 3.5c-11.311 0-20.5 9.1888-20.5 20.5s9.1888 20.5 20.5 20.5 20.5-9.1888 20.5-20.5-9.189-20.5-20.5-20.5z" fill="url(#radialGradient3217)"/>
   <path id="path4435" opacity=".15" stroke-linejoin="round" d="m34.487 24a10.487 10.487 0 0 1 -10.487 10.487 10.487 10.487 0 0 1 -10.487 -10.487 10.487 10.487 0 0 1 10.487 -10.487 10.487 10.487 0 0 1 10.487 10.487z" stroke="#000" stroke-linecap="round" stroke-width="1.025" fill="#4998ff"/>
   <path id="path4410" stroke-linejoin="round" opacity=".3" style="color:#000000" d="m24 10a14 14 0 0 0 -14 14 14 14 0 0 0 14 14 14 14 0 0 0 7.201 -2.012l4.686 4.686c1.637-1.17 3.09-2.574 4.32-4.164l-4.643-4.643a14 14 0 0 0 2.436 -7.867 14 14 0 0 0 -14 -14zm0 3a11 11 0 0 1 11 11 11 11 0 0 1 -11 11 11 11 0 0 1 -11 -11 11 11 0 0 1 11 -11z" stroke="url(#linearGradient4418)" stroke-linecap="round" fill="none"/>
   <path id="path4387" style="color:#000000" d="m24 10a14 14 0 0 0 -14 14 14 14 0 0 0 14 14 14 14 0 0 0 7.201 -2.012l4.686 4.686c1.637-1.17 3.09-2.574 4.32-4.164l-4.643-4.643a14 14 0 0 0 2.436 -7.867 14 14 0 0 0 -14 -14zm0 3a11 11 0 0 1 11 11 11 11 0 0 1 -11 11 11 11 0 0 1 -11 -11 11 11 0 0 1 11 -11z" fill="#252525"/>
   <path id="path4176" opacity=".3" stroke-linejoin="round" style="color:#000000" d="m43.5 24c0 10.77-8.73 19.5-19.5 19.5s-19.5-8.73-19.5-19.5 8.73-19.5 19.5-19.5 19.5 8.73 19.5 19.5z" stroke="url(#linearGradient3214)" stroke-linecap="round" fill="none"/>
   <path id="path3871" opacity=".7" style="color:#000000" d="m24 3.5c-11.311 0-20.5 9.189-20.5 20.5s9.189 20.5 20.5 20.5 20.5-9.189 20.5-20.5-9.189-20.5-20.5-20.5z" stroke="#386727" fill="none"/>
   <g id="g3771" opacity=".5" transform="matrix(.12472 0 0 .13530 18 16)">
    <g id="g3773">
     <path id="path3775" d="m86.068 0c-24.602 0-29.217 35.041-15.377 35.041 13.838 0 39.979-35.041 15.377-35.041z"/>
     <path id="path3777" d="m45.217 30.699c7.369 0.45 15.454-28.122 1.604-26.325-13.845 1.797-8.976 25.875-1.604 26.325z"/>
     <path id="path3779" d="m11.445 48.453c5.241-2.307 0.675-24.872-8.237-18.718-8.908 6.155 2.996 21.024 8.237 18.718z"/>
     <path id="path3781" d="m26.212 36.642c6.239-1.272 6.581-26.864-4.545-22.273-11.128 4.592-1.689 23.547 4.545 22.273z"/>
     <path id="path3783" d="m58.791 93.913c1.107 8.454-6.202 12.629-13.36 7.179-22.787-17.347 37.729-26.002 33.74-49.704-3.311-19.674-63.676-13.617-70.55 17.167-4.653 20.821 19.153 49.707 43.993 49.707 12.22 0 26.315-11.034 28.952-25.012 2.014-10.659-23.699-6.388-22.775 0.665z"/>
    </g>
   </g>
   <path id="path4264" opacity=".3" d="m34.866 22.457c0-0.81127 0.23346 0.6914 0.08466-0.0736-1.0547-5.4818-6.274-9.3078-10.943-9.3833-5.5267 0.44071-9.8748 3.9983-10.943 9.3832-0.1488 0.76498 0.0067-0.7377 0.0067 0.07358 0 6.49 4.8452-1.49 11.014-1.49 6.1684 0 10.78 7.9802 10.78 1.49z" fill="url(#linearGradient4433)"/>
  </g>
 </g>
</svg>
