<?xml version="1.0" encoding="UTF-8" standalone="no"?>
<!-- Created with Inkscape (http://www.inkscape.org/) -->
<svg id="svg4951" xmlns:rdf="http://www.w3.org/1999/02/22-rdf-syntax-ns#" xmlns="http://www.w3.org/2000/svg" height="48px" width="48px" version="1.1" xmlns:cc="http://creativecommons.org/ns#" xmlns:xlink="http://www.w3.org/1999/xlink" xmlns:dc="http://purl.org/dc/elements/1.1/">
 <defs id="defs4953">
  <radialGradient id="radialGradient3093-0-3-6-3" gradientUnits="userSpaceOnUse" cy="3.99" cx="23.896" gradientTransform="matrix(0 1.2316 -1.6258 0 18.487 -28.722)" r="20.397">
   <stop id="stop3244-9-33-7-0-6" stop-color="#9cdd66" offset="0"/>
   <stop id="stop3248-1-7-8-8-6" stop-color="#386727" offset=".66094"/>
   <stop id="stop3250-9-3-0-5-2" stop-color="#2e5527" offset="1"/>
  </radialGradient>
  <linearGradient id="linearGradient4026" y2="422.66" xlink:href="#radialGradient3093-0-3-6-3" gradientUnits="userSpaceOnUse" x2="612.7" gradientTransform="matrix(.49668 0 0 .50834 -243.58 -210.24)" y1="479.7" x1="612.7"/>
  <linearGradient id="linearGradient4028" y2="422.66" xlink:href="#radialGradient3093-0-3-6-3" gradientUnits="userSpaceOnUse" x2="612.7" gradientTransform="matrix(.49668 0 0 .50834 -243.58 -210.24)" y1="477.74" x1="612.7"/>
  <linearGradient id="linearGradient3214" y2="40.496" gradientUnits="userSpaceOnUse" x2="71.204" gradientTransform="matrix(1.617 0 0 1.617 -92.707 -21.06)" y1="15.369" x1="71.204">
   <stop id="stop4808-4" stop-color="#fff" offset="0"/>
   <stop id="stop4810-0" stop-color="#fff" stop-opacity=".23529" offset=".42448"/>
   <stop id="stop4812-8" stop-color="#fff" stop-opacity=".15686" offset=".82090"/>
   <stop id="stop4814-0" stop-color="#fff" stop-opacity=".39216" offset="1"/>
  </linearGradient>
  <radialGradient id="radialGradient3217" xlink:href="#radialGradient3093-0-3-6-3" gradientUnits="userSpaceOnUse" cy="3.99" cx="23.896" gradientTransform="matrix(0 2.8885 -3.8128 0 39.213 -65.95)" r="20.397"/>
  <radialGradient id="radialGradient3220" gradientUnits="userSpaceOnUse" cy="186.17" cx="99.157" gradientTransform="matrix(.27083 0 0 .087623 -2.8551 25.187)" r="62.769">
   <stop id="stop3822-2-6-3" stop-color="#3d3d3d" offset="0"/>
   <stop id="stop3864-8-7-7" stop-color="#686868" stop-opacity=".49804" offset=".5"/>
   <stop id="stop3824-1-2-5" stop-color="#686868" stop-opacity="0" offset="1"/>
  </radialGradient>
 </defs>
 <metadata id="metadata4956">
  <rdf:RDF>
   <cc:Work rdf:about="">
    <dc:format>image/svg+xml</dc:format>
    <dc:type rdf:resource="http://purl.org/dc/dcmitype/StillImage"/>
    <dc:title/>
   </cc:Work>
  </rdf:RDF>
 </metadata>
 <g id="layer1">
  <path id="path3818-0-5" d="m41 41.5a17 5.5 0 0 1 -34 0 17 5.5 0 1 1 34 0z" fill="url(#radialGradient3220)"/>
  <path id="path2555-7-2" style="color:#000000" d="m24 3.5c-11.311 0-20.5 9.1888-20.5 20.5s9.1888 20.5 20.5 20.5 20.5-9.1888 20.5-20.5-9.189-20.5-20.5-20.5z" fill="url(#radialGradient3217)"/>
  <path id="path4176" opacity=".3" stroke-linejoin="round" style="color:#000000" d="m43.5 24c0 10.77-8.73 19.5-19.5 19.5s-19.5-8.73-19.5-19.5 8.73-19.5 19.5-19.5 19.5 8.73 19.5 19.5z" stroke="url(#linearGradient3214)" stroke-linecap="round" fill="none"/>
  <path id="path3871" opacity=".7" style="color:#000000" d="m24 3.5c-11.311 0-20.5 9.189-20.5 20.5s9.189 20.5 20.5 20.5 20.5-9.189 20.5-20.5-9.189-20.5-20.5-20.5z" stroke="#386727" fill="none"/>
  <g id="g4021" fill-rule="evenodd" transform="matrix(.99999 0 0 1 -34.837 -.41294)">
   <path id="path4428-3" opacity=".1" d="m54.038 15.496a2.5643 2.6246 0 0 0 -2.3592 2.6211v12.994a2.5643 2.6246 0 0 0 3.8492 2.2716l10.989-6.4972a2.5643 2.6246 0 0 0 0 -4.5433l-10.989-6.497a2.5643 2.6246 0 0 0 -1.49 -0.34948z" fill="url(#linearGradient4026)"/>
   <path id="path4428" opacity=".2" d="m54.131 16.593a1.4911 1.5262 0 0 0 -1.3814 1.525v12.994a1.4911 1.5262 0 0 0 2.235 1.3185l10.989-6.4972a1.4911 1.5262 0 0 0 0 -2.637l-10.989-6.497a1.4911 1.5262 0 0 0 -0.85366 -0.20651z" fill="url(#linearGradient4028)"/>
   <path id="path6156" stroke-linejoin="round" d="m54.236 31.115v-13l11 6.5z" stroke="#fff" fill="#fff"/>
  </g>
 </g>
</svg>
