<?xml version="1.0" encoding="UTF-8" standalone="no"?>
<!-- Created with Inkscape (http://www.inkscape.org/) -->

<svg
   xmlns:dc="http://purl.org/dc/elements/1.1/"
   xmlns:cc="http://creativecommons.org/ns#"
   xmlns:rdf="http://www.w3.org/1999/02/22-rdf-syntax-ns#"
   xmlns:svg="http://www.w3.org/2000/svg"
   xmlns="http://www.w3.org/2000/svg"
   xmlns:xlink="http://www.w3.org/1999/xlink"
   xmlns:sodipodi="http://sodipodi.sourceforge.net/DTD/sodipodi-0.dtd"
   xmlns:inkscape="http://www.inkscape.org/namespaces/inkscape"
   version="1.1"
   width="48"
   height="48"
   id="svg6649"
   inkscape:version="0.91 r13725"
   sodipodi:docname="gnome-maps.svg">
  <sodipodi:namedview
     pagecolor="#ffffff"
     bordercolor="#666666"
     borderopacity="1"
     objecttolerance="10"
     gridtolerance="10"
     guidetolerance="10"
     inkscape:pageopacity="0"
     inkscape:pageshadow="2"
     inkscape:window-width="1600"
     inkscape:window-height="876"
     id="namedview45"
     showgrid="false"
     inkscape:zoom="7.03"
     inkscape:cx="-8.8126159"
     inkscape:cy="9.1539179"
     inkscape:window-x="0"
     inkscape:window-y="24"
     inkscape:window-maximized="1"
     inkscape:current-layer="layer4-7">
    <inkscape:grid
       type="xygrid"
       id="grid3022" />
  </sodipodi:namedview>
  <defs
     id="defs6651">
    <linearGradient
       id="linearGradient3924-1">
      <stop
         id="stop3926-3"
         style="stop-color:#ffffff;stop-opacity:1"
         offset="0" />
      <stop
         id="stop3928-91"
         style="stop-color:#ffffff;stop-opacity:0.23529412"
         offset="0.06316455" />
      <stop
         id="stop3930-6"
         style="stop-color:#ffffff;stop-opacity:0.15686275"
         offset="0.95056331" />
      <stop
         id="stop3932-6"
         style="stop-color:#ffffff;stop-opacity:0.39215687"
         offset="1" />
    </linearGradient>
    <linearGradient
       id="linearGradient4317-9"
       y2="282.67999"
       gradientUnits="userSpaceOnUse"
       x2="667.97998"
       gradientTransform="translate(-307.23,125.39)"
       y1="-19.788"
       x1="667.97998">
      <stop
         id="stop4313-3"
         style="stop-opacity:0"
         offset="0" />
      <stop
         id="stop4319-9"
         offset=".50383" />
      <stop
         id="stop4315-5"
         style="stop-opacity:0"
         offset="1" />
    </linearGradient>
    <filter
       id="filter4321-8"
       style="color-interpolation-filters:sRGB"
       height="1.1472"
       width="1.2761"
       y="-0.073590003"
       x="-0.13804001">
      <feGaussianBlur
         id="feGaussianBlur4323-9"
         stdDeviation="9.3237456" />
    </filter>
    <filter
       id="filter4398-1"
       style="color-interpolation-filters:sRGB"
       height="1.0184"
       width="1.0345"
       y="-0.0091987001"
       x="-0.017254001">
      <feGaussianBlur
         id="feGaussianBlur4400-9"
         stdDeviation="1.1654682" />
    </filter>
    <linearGradient
       inkscape:collect="always"
       xlink:href="#linearGradient3924-1"
       id="linearGradient3029"
       gradientUnits="userSpaceOnUse"
       gradientTransform="matrix(8.5333333,0,0,8.5333333,524.41245,59.809192)"
       x1="23.99999"
       y1="4.999989"
       x2="23.99999"
       y2="43" />
  </defs>
  <metadata
     id="metadata6654">
    <rdf:RDF>
      <cc:Work
         rdf:about="">
        <dc:format>image/svg+xml</dc:format>
        <dc:type
           rdf:resource="http://purl.org/dc/dcmitype/StillImage" />
        <dc:title />
      </cc:Work>
    </rdf:RDF>
  </metadata>
  <g
     style="enable-background:new"
     id="layer4-7"
     transform="matrix(0.1171875,0,0,0.1171875,-61.454581,-6.0088841)">
    <rect
       style="color:#000000;display:inline;overflow:visible;visibility:visible;fill:#a3cb5b;fill-opacity:1;fill-rule:nonzero;stroke:none;stroke-width:0.99999994;marker:none;enable-background:accumulate"
       id="rect5505-21"
       y="98.209106"
       x="562.8125"
       ry="17.066668"
       rx="17.066668"
       height="332.79999"
       width="332.79999" />
    <rect
       style="color:#000000;display:inline;overflow:visible;visibility:visible;opacity:0.6;fill:none;stroke:#517e00;stroke-width:8.53333378;stroke-linecap:round;stroke-linejoin:round;stroke-miterlimit:4;stroke-dasharray:none;stroke-dashoffset:0;stroke-opacity:1;marker:none;enable-background:accumulate"
       id="rect5505-21-3-2"
       y="98.209106"
       x="562.8125"
       ry="17.066668"
       rx="17.066668"
       height="332.79999"
       width="332.79999" />
    <path
       style="fill:#ece9e2;fill-opacity:1;stroke:none;stroke-width:1px;stroke-linecap:butt;stroke-linejoin:miter;stroke-opacity:1"
       d="m 741.81543,266.30281 149.53032,-149.53032 0,299.06064 -9.34565,9.34564 -140.18467,-158.87596 0,0"
       id="path3897"
       inkscape:connector-curvature="0" />
    <path
       style="fill:#7bc1e3;fill-opacity:1;stroke:none;stroke-width:1px;stroke-linecap:butt;stroke-linejoin:miter;stroke-opacity:1"
       d="m 577.73803,426.74247 306.30646,0 -143.58115,-162.7253 z"
       id="path3895"
       inkscape:connector-curvature="0" />
    <path
       style="fill:#ffffff;fill-opacity:1;stroke:none"
       d="m 871.60313,425.9941 c 0,0 6.62918,1.21659 9.58263,0 4.1606,-1.71389 7.97307,-4.87217 9.70316,-9.02604 1.21858,-2.92576 0,-9.50818 0,-9.50818 l -134.15679,-142.6227 -19.16528,19.01635 z"
       id="path3883"
       inkscape:connector-curvature="0"
       sodipodi:nodetypes="csscccc" />
    <path
       style="fill:#ffde00;fill-opacity:1;stroke:none"
       d="m 888.82919,102.40444 -321.2706,314.83234 c 0,0 2.34392,6.99164 5.8666,7.92735 2.37678,0.63138 3.21481,1.36829 5.65118,1.42606 6.42228,0.15232 12.91004,-0.0836 12.91004,-0.0836 L 888.82919,139.47683 Z"
       id="path3875"
       inkscape:connector-curvature="0"
       sodipodi:nodetypes="ccssccc" />
    <rect
       style="opacity:0.5;fill:none;stroke:url(#linearGradient3029);stroke-width:8.53333378;stroke-linecap:round;stroke-linejoin:round;stroke-miterlimit:4;stroke-dasharray:none;stroke-dashoffset:0;stroke-opacity:1"
       id="rect6741"
       y="106.74243"
       x="571.34583"
       ry="8.5333338"
       rx="8.5333338"
       height="315.73334"
       width="315.73334" />
    <g
       style="enable-background:new"
       id="layer3-9"
       transform="translate(-6e-6,8.5333297)">
      <path
         inkscape:connector-curvature="0"
         id="path4269"
         style="color:#000000;opacity:0.15;fill:#ffffff;enable-background:accumulate"
         d="m 567.07909,256.07581 0,45.66333 0,116.47 324.26667,0 0,-116.47 0,-45.66333 -324.26667,0 z" />
      <rect
         id="rect4277"
         style="color:#000000;opacity:0.15;fill:#ffffff;enable-background:accumulate"
         height="324.26666"
         width="113.93034"
         y="93.942482"
         x="686.54578" />
    </g>
    <path
       inkscape:connector-curvature="0"
       id="path4394"
       style="color:#000000;opacity:0.1;filter:url(#filter4398-1);enable-background:accumulate"
       d="m 344.62,104 c -44.766,0 -81.055,36.29 -81.055,81.055 0,8.8885 1.4996,17.417 4.1433,25.42 0.26885,0.81383 0.48141,1.6478 0.77513,2.4499 2.0646,6.8316 32.326,106.12 76.222,195.15 0.0123,0 0.0303,-0.007 0.0445,-0.0201 0.0175,-0.009 0.0336,-0.027 0.0496,-0.0448 0.0175,-0.0175 0.0338,-0.0345 0.0504,-0.0462 0.0175,-0.0123 0.0338,-0.0236 0.0473,-0.0236 46.9,-97.241 76.712,-197.47 76.712,-197.47 l -0.0236,0 c 2.6405,-7.9981 4.0898,-16.538 4.0898,-25.421 2.1e-4,-44.766 -36.289,-81.055 -81.055,-81.055 z"
       transform="matrix(0.78278178,0,0,0.78278178,572.28705,-5.2004816)" />
    <path
       inkscape:connector-curvature="0"
       id="path4307"
       style="color:#000000;opacity:0.4;fill:url(#linearGradient4317-9);filter:url(#filter4321-8);enable-background:accumulate"
       d="m 344.62,104 c -44.766,0 -81.055,36.29 -81.055,81.055 0,8.8885 1.4996,17.417 4.1433,25.42 0.26885,0.81383 0.48141,1.6478 0.77513,2.4499 2.0646,6.8316 32.326,106.12 76.222,195.15 0.0123,0 0.0303,-0.007 0.0445,-0.0201 0.0175,-0.009 0.0336,-0.027 0.0496,-0.0448 0.0175,-0.0175 0.0338,-0.0345 0.0504,-0.0462 0.0175,-0.0123 0.0338,-0.0236 0.0473,-0.0236 46.9,-97.241 76.712,-197.47 76.712,-197.47 l -0.0236,0 c 2.6405,-7.9981 4.0898,-16.538 4.0898,-25.421 2.1e-4,-44.766 -36.289,-81.055 -81.055,-81.055 z"
       transform="matrix(0.78278178,0,0,0.78278178,572.28705,-5.2004816)" />
    <path
       inkscape:connector-curvature="0"
       id="path4789"
       style="color:#000000;fill:#e2483d;enable-background:accumulate"
       d="m 844.4128,76.879914 c -35.34688,0 -64.00038,28.515146 -64.00038,63.689606 0,6.9842 1.18406,13.68552 3.27151,19.97395 0.21227,0.63944 0.38012,1.29477 0.612,1.92502 1.63021,5.36799 25.52437,83.38461 60.1843,153.34065 0.0103,0 0.0241,-0.005 0.0353,-0.0155 0.0138,-0.007 0.0267,-0.0214 0.0387,-0.0351 0.0138,-0.0136 0.0267,-0.0274 0.0396,-0.0359 0.0137,-0.0102 0.0266,-0.0189 0.037,-0.0189 37.03187,-76.40787 60.57118,-155.16359 60.57118,-155.16359 l -0.019,0 c 2.08492,-6.28457 3.22927,-12.99487 3.22927,-19.97476 1.7e-4,-35.17522 -28.65352,-63.689579 -64.00039,-63.689579 z" />
    <circle
       id="path4793"
       style="color:#000000;fill:#bb2b20;enable-background:accumulate"
       cy="140.87581"
       cx="844.41241"
       r="21.333334" />
  </g>
</svg>
