<?xml version="1.0" encoding="UTF-8" standalone="no"?>
<!-- Created with Inkscape (http://www.inkscape.org/) -->

<svg
   xmlns:dc="http://purl.org/dc/elements/1.1/"
   xmlns:cc="http://creativecommons.org/ns#"
   xmlns:rdf="http://www.w3.org/1999/02/22-rdf-syntax-ns#"
   xmlns:svg="http://www.w3.org/2000/svg"
   xmlns="http://www.w3.org/2000/svg"
   xmlns:xlink="http://www.w3.org/1999/xlink"
   xmlns:sodipodi="http://sodipodi.sourceforge.net/DTD/sodipodi-0.dtd"
   xmlns:inkscape="http://www.inkscape.org/namespaces/inkscape"
   version="1.1"
   width="48"
   height="48"
   id="svg4569"
   inkscape:version="0.91 r13725"
   sodipodi:docname="gnome-subtitles.svg">
  <sodipodi:namedview
     pagecolor="#ffffff"
     bordercolor="#666666"
     borderopacity="1"
     objecttolerance="10"
     gridtolerance="10"
     guidetolerance="10"
     inkscape:pageopacity="0"
     inkscape:pageshadow="2"
     inkscape:window-width="1600"
     inkscape:window-height="876"
     id="namedview88"
     showgrid="false"
     inkscape:zoom="1"
     inkscape:cx="-0.56692926"
     inkscape:cy="17.952756"
     inkscape:window-x="0"
     inkscape:window-y="24"
     inkscape:window-maximized="1"
     inkscape:current-layer="svg4569">
    <inkscape:grid
       type="xygrid"
       id="grid4352" />
  </sodipodi:namedview>
  <metadata
     id="metadata42">
    <rdf:RDF>
      <cc:Work
         rdf:about="">
        <dc:format>image/svg+xml</dc:format>
        <dc:type
           rdf:resource="http://purl.org/dc/dcmitype/StillImage" />
        <dc:title></dc:title>
      </cc:Work>
    </rdf:RDF>
  </metadata>
  <defs
     id="defs4571">
    <linearGradient
       id="linearGradient10691-1">
      <stop
         id="stop10693-3"
         style="stop-color:#000000;stop-opacity:1"
         offset="0" />
      <stop
         id="stop10695-1"
         style="stop-color:#000000;stop-opacity:0"
         offset="1" />
    </linearGradient>
    <radialGradient
       inkscape:collect="always"
       xlink:href="#linearGradient2867-449-88-871-390-598-476-591-434-148-57-177-8-3-3-6-4-8-8-8-5-7"
       id="radialGradient3348"
       gradientUnits="userSpaceOnUse"
       gradientTransform="matrix(0,8.4371492,-12.947656,0,153.88012,-73.473106)"
       cx="7.1183534"
       cy="9.9571075"
       fx="7.1183534"
       fy="9.9571075"
       r="12.671875" />
    <linearGradient
       id="linearGradient2867-449-88-871-390-598-476-591-434-148-57-177-8-3-3-6-4-8-8-8-5-7">
      <stop
         id="stop3750-1-0-7-6-6-1-3-9-3-9"
         style="stop-color:#505050;stop-opacity:1"
         offset="0" />
      <stop
         id="stop3752-3-7-4-0-32-8-923-0-7-0"
         style="stop-color:#2b2b2b;stop-opacity:1"
         offset="0.26238" />
      <stop
         id="stop3754-1-8-5-2-7-6-7-1-9-1"
         style="stop-color:#0a0a0a;stop-opacity:1"
         offset="0.704952" />
      <stop
         id="stop3756-1-6-2-6-6-1-96-6-0-1"
         style="stop-color:#000000;stop-opacity:1"
         offset="1" />
    </linearGradient>
    <linearGradient
       inkscape:collect="always"
       xlink:href="#linearGradient3462"
       id="linearGradient3345"
       gradientUnits="userSpaceOnUse"
       gradientTransform="matrix(1.1621621,0,0,0.91891888,-3.8918939,-0.55405082)"
       x1="40.290417"
       y1="5.4143372"
       x2="40.290417"
       y2="42.437775" />
    <linearGradient
       id="linearGradient3462">
      <stop
         offset="0"
         style="stop-color:#ffffff;stop-opacity:1"
         id="stop3464" />
      <stop
         offset="0.03457849"
         style="stop-color:#ffffff;stop-opacity:0.23529412"
         id="stop3466" />
      <stop
         offset="0.96375686"
         style="stop-color:#ffffff;stop-opacity:0.15686275"
         id="stop3468" />
      <stop
         offset="1"
         style="stop-color:#ffffff;stop-opacity:0.39215687"
         id="stop3470" />
    </linearGradient>
    <linearGradient
       inkscape:collect="always"
       xlink:href="#linearGradient3600-8-3-6"
       id="linearGradient3069"
       gradientUnits="userSpaceOnUse"
       gradientTransform="matrix(-0.41185003,2.5381292e-4,2.5075322e-4,0.4168755,18.85141,8.9069708)"
       x1="-60.960796"
       y1="28.233982"
       x2="-60.914154"
       y2="104.84189" />
    <linearGradient
       id="linearGradient3600-8-3-6">
      <stop
         id="stop3828-7-6-4"
         style="stop-color:#f4f4f4;stop-opacity:1"
         offset="0" />
      <stop
         id="stop3604-2-5-6"
         style="stop-color:#dbdbdb;stop-opacity:1"
         offset="1" />
    </linearGradient>
    <linearGradient
       inkscape:collect="always"
       xlink:href="#linearGradient10691-1"
       id="linearGradient3071"
       gradientUnits="userSpaceOnUse"
       gradientTransform="matrix(-0.7548915,0,0,0.79327441,6.6054713,15.29502)"
       x1="-51.786404"
       y1="53.514328"
       x2="-51.786404"
       y2="3.6336823" />
    <linearGradient
       inkscape:collect="always"
       xlink:href="#linearGradient6786-4"
       id="linearGradient3073"
       gradientUnits="userSpaceOnUse"
       gradientTransform="matrix(-0.83894574,0,0,0.9952214,151.27372,19.0055)"
       x1="132.3414"
       y1="2.2922528"
       x2="132.3414"
       y2="33.33271" />
    <linearGradient
       id="linearGradient6786-4">
      <stop
         id="stop6788-2"
         style="stop-color:#ffffff;stop-opacity:1"
         offset="0" />
      <stop
         id="stop6790-0"
         style="stop-color:#ffffff;stop-opacity:0.23529412"
         offset="0.46352294" />
      <stop
         id="stop6792-0"
         style="stop-color:#ffffff;stop-opacity:0.15686275"
         offset="0.76175833" />
      <stop
         id="stop6794-4"
         style="stop-color:#ffffff;stop-opacity:0.39215687"
         offset="1" />
    </linearGradient>
    <linearGradient
       inkscape:collect="always"
       xlink:href="#linearGradient10691-1"
       id="linearGradient3133"
       gradientUnits="userSpaceOnUse"
       x1="30.950611"
       y1="32.005627"
       x2="30.950611"
       y2="38.56596" />
    <linearGradient
       inkscape:collect="always"
       xlink:href="#linearGradient10691-1"
       id="linearGradient3131"
       gradientUnits="userSpaceOnUse"
       x1="30.950611"
       y1="32.005627"
       x2="30.950611"
       y2="38.56596" />
    <linearGradient
       inkscape:collect="always"
       xlink:href="#linearGradient10691-1"
       id="linearGradient3129"
       gradientUnits="userSpaceOnUse"
       x1="30.950611"
       y1="32.005627"
       x2="30.950611"
       y2="38.56596" />
  </defs>
  <rect
     width="45"
     height="36"
     rx="1.5"
     ry="1.5"
     x="1.4999998"
     y="3.4999981"
     id="rect5505-21-3-8-5-2"
     style="opacity:0.9;color:#000000;fill:url(#radialGradient3348);fill-opacity:1;fill-rule:nonzero;stroke:none;stroke-width:0.99999994;marker:none;visibility:visible;display:inline;overflow:visible;enable-background:accumulate" />
  <rect
     width="43"
     height="34"
     rx="0.75"
     ry="0.75"
     x="2.5000002"
     y="4.5"
     id="rect6741-5-0-2-3"
     style="opacity:0.3;fill:none;stroke:url(#linearGradient3345);stroke-width:1;stroke-linecap:round;stroke-linejoin:round;stroke-miterlimit:4;stroke-opacity:1;stroke-dasharray:none;stroke-dashoffset:0" />
  <rect
     width="45"
     height="36"
     rx="1.5"
     ry="1.5"
     x="1.4999998"
     y="3.5"
     id="rect5505-21-3-8-9-1-1"
     style="opacity:0.7;color:#000000;fill:none;stroke:#000000;stroke-width:1;stroke-linecap:round;stroke-linejoin:round;stroke-miterlimit:4;stroke-opacity:1;stroke-dasharray:none;stroke-dashoffset:0;marker:none;visibility:visible;display:inline;overflow:visible;enable-background:accumulate" />
  <g
     transform="translate(-1.7014705,1.2697395)"
     id="g4222">
    <g
       style="stroke-width:1.3939414;stroke-miterlimit:4;stroke-dasharray:none"
       transform="matrix(0.77804235,0,0,0.77804235,-1.0076711,0.75786616)"
       id="g3849">
      <path
         sodipodi:nodetypes="ccccccccccc"
         d="m 39.741344,20.483611 c 6.944026,0.263519 14.176641,3.317396 17.84978,9.562345 2.742834,4.465257 1.996352,11.082592 -0.777491,14.758826 -1.17177,1.652779 -2.614762,2.922697 -4.205907,4.105183 -0.74955,2.388604 0.715765,4.607248 2.09057,6.405985 -0.879005,0.365645 -3.329478,-0.50577 -4.745434,-1.057424 -1.698247,-0.654643 -3.247231,-1.661813 -4.800926,-2.577305 -7.836248,1.519713 -16.692465,-0.872073 -21.916574,-7.234838 -3.364153,-3.941338 -4.374483,-9.931794 -1.926886,-14.616069 3.094929,-6.103652 9.952554,-9.06194 16.46102,-9.330398 0.656788,-0.02753 1.314744,-0.03991 1.971848,-0.0163 z"
         inkscape:connector-curvature="0"
         id="path3063"
         style="color:#000000;display:inline;overflow:visible;visibility:visible;fill:url(#linearGradient3069);fill-opacity:1;fill-rule:nonzero;stroke:none;stroke-width:1.3939414;marker:none;enable-background:accumulate" />
      <path
         d="m 39.761881,19.96034 c 0.513025,0.01981 1.018517,0.0586 1.537564,0.10817 11.073284,1.057411 19.334429,9.16359 18.450778,18.063595 -0.44114,4.443075 -3.090755,8.246912 -6.998571,10.816523 l 0,0.108171 c 0,0 -1.216004,2.093814 2.916071,6.760328 0,0 -4.474946,0.283551 -10.550876,-3.839866 -2.221166,0.432062 -4.565241,0.556856 -6.998568,0.324498 -11.073302,-1.057407 -19.334416,-9.109507 -18.450778,-18.009517 0.800805,-8.065629 8.815381,-14.068997 18.556814,-14.331891 0.503863,-0.01366 1.024557,-0.01981 1.537566,0 z"
         inkscape:connector-curvature="0"
         id="path3065"
         style="color:#000000;display:inline;overflow:visible;visibility:visible;fill:none;stroke:url(#linearGradient3071);stroke-width:1.3939414;stroke-linecap:butt;stroke-linejoin:round;stroke-miterlimit:4;stroke-dasharray:none;stroke-dashoffset:0;stroke-opacity:1;marker:none;enable-background:accumulate" />
      <path
         sodipodi:nodetypes="ccscccsscccsscc"
         d="m 39.730909,21.376534 c 0.493821,0.01908 0.987178,0.06133 1.499139,0.110235 10.767688,1.028229 17.95401,8.057435 17.117007,16.487609 -0.417821,4.208205 -2.798727,7.447414 -6.563068,9.922685 -0.201127,0.125331 -0.330536,0.358267 -0.330695,0.595247 -0.0025,0.006 0.0026,0.01562 0,0.02205 -0.04714,0.113091 -0.07268,0.150007 -0.110235,0.352737 -0.06589,0.355706 -0.0989,0.863662 0.02204,1.499141 0.190041,0.998533 0.154685,2.2874 1.405733,3.972277 -1.304398,0.0092 -6.38508,-3.159327 -7.11348,-3.652683 -0.152568,-0.104513 -0.347496,-0.145125 -0.529108,-0.110234 -2.152412,0.418687 -4.971141,0.462833 -7.341526,0.236481 -9.623395,-0.918956 -17.572764,-8.007686 -16.73574,-16.438209 0.758666,-7.641203 8.608648,-12.765402 17.202841,-12.997335 0.496876,-0.01347 0.987399,-0.0189 1.477092,-1e-6 z"
         inkscape:connector-curvature="0"
         id="path3067"
         style="color:#000000;display:inline;overflow:visible;visibility:visible;fill:none;stroke:url(#linearGradient3073);stroke-width:1.3939414;stroke-linecap:round;stroke-linejoin:miter;stroke-miterlimit:4;stroke-dasharray:none;stroke-dashoffset:0;stroke-opacity:1;marker:none;enable-background:accumulate" />
    </g>
    <g
       transform="matrix(1.0845454,0,0,1.0845454,-2.0290882,-2.1159001)"
       id="g3135">
      <circle
         transform="matrix(0.7173903,0,0,-0.7173903,12.928569,54.69384)"
         id="path3879"
         style="fill:#ffffff;stroke:none"
         cx="31.125"
         cy="35.125"
         r="3" />
      <circle
         style="fill:#808080;stroke:none"
         id="path3871"
         transform="matrix(0.7173903,0,0,0.7173903,12.928569,3.7887735)"
         cx="31.125"
         cy="35.125"
         r="3" />
      <circle
         transform="matrix(0.61490597,0,0,0.61490597,16.118394,7.3885355)"
         id="path3873"
         style="opacity:0.3;fill:none;stroke:url(#linearGradient3133);stroke-opacity:1"
         cx="31.125"
         cy="35.125"
         r="3" />
      <circle
         style="fill:#ffffff;stroke:none"
         id="path3926"
         transform="matrix(0.7173903,0,0,-0.7173903,7.0997729,54.69384)"
         cx="31.125"
         cy="35.125"
         r="3" />
      <circle
         transform="matrix(0.7173903,0,0,0.7173903,7.0997729,3.7887735)"
         id="path3928"
         style="fill:#808080;stroke:none"
         cx="31.125"
         cy="35.125"
         r="3" />
      <circle
         style="opacity:0.3;fill:none;stroke:url(#linearGradient3131);stroke-opacity:1"
         id="path3930"
         transform="matrix(0.61490597,0,0,0.61490597,10.289598,7.3885355)"
         cx="31.125"
         cy="35.125"
         r="3" />
      <circle
         transform="matrix(0.7173903,0,0,-0.7173903,1.2709767,54.69384)"
         id="path3936"
         style="fill:#ffffff;stroke:none"
         cx="31.125"
         cy="35.125"
         r="3" />
      <circle
         style="fill:#808080;stroke:none"
         id="path3938"
         transform="matrix(0.7173903,0,0,0.7173903,1.2709767,3.7887735)"
         cx="31.125"
         cy="35.125"
         r="3" />
      <circle
         transform="matrix(0.61490597,0,0,0.61490597,4.4608017,7.3885355)"
         id="path3940"
         style="opacity:0.3;fill:none;stroke:url(#linearGradient3129);stroke-opacity:1"
         cx="31.125"
         cy="35.125"
         r="3" />
    </g>
  </g>
</svg>
