<?xml version="1.0" encoding="UTF-8" standalone="no"?>
<!-- Created with Inkscape (http://www.inkscape.org/) -->
<svg id="svg4031" xmlns:rdf="http://www.w3.org/1999/02/22-rdf-syntax-ns#" xmlns="http://www.w3.org/2000/svg" height="48" width="48" version="1.1" xmlns:cc="http://creativecommons.org/ns#" xmlns:xlink="http://www.w3.org/1999/xlink" xmlns:dc="http://purl.org/dc/elements/1.1/">
 <defs id="defs4033">
  <linearGradient id="linearGradient3012" y2="44.341" gradientUnits="userSpaceOnUse" x2="71.204" gradientTransform="matrix(1.0541 0 0 1.0541 -51.611 -2.7279)" y1="6.2376" x1="71.204">
   <stop id="stop4013" stop-color="#fff" offset="0"/>
   <stop id="stop4015" stop-color="#fff" stop-opacity=".23529" offset=".50776"/>
   <stop id="stop4017" stop-color="#fff" stop-opacity=".15686" offset=".83457"/>
   <stop id="stop4019" stop-color="#fff" stop-opacity=".39216" offset="1"/>
  </linearGradient>
  <radialGradient id="radialGradient3018" gradientUnits="userSpaceOnUse" cy="186.17" cx="99.157" gradientTransform="matrix(.27083 0 0 .087623 -2.8551 25.187)" r="62.769">
   <stop id="stop3822-2-6-3" stop-color="#3d3d3d" offset="0"/>
   <stop id="stop3864-8-7-7" stop-color="#686868" stop-opacity=".49804" offset=".5"/>
   <stop id="stop3824-1-2-5" stop-color="#686868" stop-opacity="0" offset="1"/>
  </radialGradient>
  <linearGradient id="linearGradient4450" y2="32.568" gradientUnits="userSpaceOnUse" y1="-18.801" gradientTransform="matrix(.76259 0 0 .76259 -81.477 23.436)" x2="15.124" x1="15.124">
   <stop id="stop4577" stop-color="#fff" offset="0"/>
   <stop id="stop4579" stop-color="#fff" stop-opacity="0" offset="1"/>
  </linearGradient>
 </defs>
 <metadata id="metadata4036">
  <rdf:RDF>
   <cc:Work rdf:about="">
    <dc:format>image/svg+xml</dc:format>
    <dc:type rdf:resource="http://purl.org/dc/dcmitype/StillImage"/>
    <dc:title/>
   </cc:Work>
  </rdf:RDF>
 </metadata>
 <circle id="path3773-9" opacity=".6" stroke-width=".99998" stroke-opacity=".58824" stroke="url(#linearGradient4450)" cy="28.647" cx="-69.878" r="19.5" fill="none"/>
 <path id="path3818-0-5" d="m41 41.5a17 5.5 0 1 1 -34 0 17 5.5 0 1 1 34 0z" fill="url(#radialGradient3018)"/>
 <circle id="circle4564" style="color:#000000" cy="24" cx="24" r="9.5" fill="#fff"/>
 <g id="g4840" transform="matrix(.97619 0 0 .97619 .57143 .57143)">
  <path id="path37-7" d="m42.849 14.681a21.055 21.05 0 0 0 -36.283 -2.443l8.4597 14.66a9.3996 9.3972 0 0 1 8.8357 -12.216" fill="#f06b59"/>
  <path id="path39-4" d="m6.5662 12.238a21.055 21.05 0 0 0 15.791 32.702l8.8357-15.036a9.3996 9.3972 0 0 1 -16.167 -3.007" fill="#67b24c"/>
  <path id="path41-4" d="m22.358 44.94a21.055 21.05 0 0 0 20.491 -30.259h-18.987a9.3996 9.3972 0 0 1 7.3317 15.223" fill="#efd94d"/>
 </g>
 <path id="path8655" opacity=".5" stroke-linejoin="round" style="color:#000000" d="m43.5 23.999c0 10.77-8.7311 19.501-19.5 19.501-10.77 0-19.5-8.7309-19.5-19.501 0-10.769 8.7306-19.499 19.5-19.499s19.5 8.73 19.5 19.499v0z" stroke="url(#linearGradient3012)" stroke-linecap="round" fill="none"/>
 <path id="path2555-6" opacity=".5" stroke-linejoin="round" style="color:#000000" d="m24 3.5c-11.311 0-20.5 9.1888-20.5 20.5s9.1888 20.5 20.5 20.5 20.5-9.1888 20.5-20.5-9.1888-20.5-20.5-20.5z" fill-opacity="0" stroke="#3f3f3f" stroke-linecap="round"/>
 <g id="g4497" transform="translate(.026342 -.026342)">
  <circle id="path4326-9" opacity=".3" style="color:#000000" stroke-width=".99986" stroke="#000" cy="24.026" cx="23.974" r="9.0001" fill="none"/>
  <ellipse id="path4266-2" style="color:#000000" rx="6.5142" ry="6.5142" cy="24" cx="24" fill="#668fb6"/>
  <ellipse id="ellipse4493" opacity=".3" stroke="#000" style="color:#000000" rx="6.5001" ry="6.5001" cy="24" cx="24" stroke-width=".99985" fill="none"/>
 </g>
</svg>
