<?xml version="1.0" encoding="UTF-8" standalone="no"?>
<!-- Created with Inkscape (http://www.inkscape.org/) -->
<svg id="svg4951" xmlns:rdf="http://www.w3.org/1999/02/22-rdf-syntax-ns#" xmlns="http://www.w3.org/2000/svg" height="48px" width="48px" version="1.1" xmlns:cc="http://creativecommons.org/ns#" xmlns:xlink="http://www.w3.org/1999/xlink" xmlns:dc="http://purl.org/dc/elements/1.1/">
 <defs id="defs4953">
  <linearGradient id="linearGradient3189" y2="40.496" gradientUnits="userSpaceOnUse" x2="71.204" gradientTransform="matrix(1.617 0 0 1.617 -92.707 -21.06)" y1="15.369" x1="71.204">
   <stop id="stop4808-4" stop-color="#fff" offset="0"/>
   <stop id="stop4810-0" stop-color="#fff" stop-opacity=".23529" offset=".42448"/>
   <stop id="stop4812-8" stop-color="#fff" stop-opacity=".15686" offset=".82090"/>
   <stop id="stop4814-0" stop-color="#fff" stop-opacity=".39216" offset="1"/>
  </linearGradient>
  <radialGradient id="radialGradient3192" gradientUnits="userSpaceOnUse" cy="3.99" cx="23.896" gradientTransform="matrix(0 2.8885 -3.8128 0 39.213 -65.95)" r="20.397">
   <stop id="stop5352" stop-color="#5a7da5" offset="0"/>
   <stop id="stop5354" stop-color="#13396b" offset="1"/>
  </radialGradient>
  <radialGradient id="radialGradient3195" gradientUnits="userSpaceOnUse" cy="186.17" cx="99.157" gradientTransform="matrix(.27083 0 0 .087623 -2.8551 25.187)" r="62.769">
   <stop id="stop3822-2-6-3" stop-color="#3d3d3d" offset="0"/>
   <stop id="stop3864-8-7-7" stop-color="#686868" stop-opacity=".49804" offset=".5"/>
   <stop id="stop3824-1-2-5" stop-color="#686868" stop-opacity="0" offset="1"/>
  </radialGradient>
 </defs>
 <metadata id="metadata4956">
  <rdf:RDF>
   <cc:Work rdf:about="">
    <dc:format>image/svg+xml</dc:format>
    <dc:type rdf:resource="http://purl.org/dc/dcmitype/StillImage"/>
    <dc:title/>
   </cc:Work>
  </rdf:RDF>
 </metadata>
 <g id="layer1">
  <g id="g4698">
   <path id="path3818-0-5" fill="url(#radialGradient3195)" d="m41 41.5a17 5.5 0 0 1 -34 0 17 5.5 0 1 1 34 0z"/>
   <path id="path2555-7-2" style="color:#000000" d="m24 3.5c-11.311 0-20.5 9.1888-20.5 20.5s9.1888 20.5 20.5 20.5 20.5-9.1888 20.5-20.5-9.189-20.5-20.5-20.5z" fill="url(#radialGradient3192)"/>
   <g id="g4424" transform="matrix(.17320 0 0 .17242 3.2405 3.3241)">
    <linearGradient id="SVGID_4_" y2="337.5" gradientUnits="userSpaceOnUse" y1="337.5" gradientTransform="matrix(1,0,0,-1,194,388)" x2="36.998" x1="-115.24">
     <stop id="stop4427" stop-color="#fff" offset=".5385"/>
     <stop id="stop4429" stop-color="#F7F7F7" offset=".6146"/>
     <stop id="stop4431" stop-color="#E3E3E3" offset=".845"/>
     <stop id="stop4433" stop-color="#DBDBDB" offset="1"/>
    </linearGradient>
    <path id="path4435" fill="url(#SVGID_4_)" d="m120 4.5c-14.53 0-28.434 2.691-41.244 7.591 4.917-0.674 10.804-1.091 17.869-1.091 40.294 0 63.143 17.536 79.75 36.125 11.08 12.406 30.33 49.375 44.62 49.375 4.159-0.36 7.427-3.585 9.998-8.523-13.89-48.21-58.32-83.477-111-83.477z"/>
    <radialGradient id="SVGID_5_" cx="-72.407" gradientUnits="userSpaceOnUse" cy="294.63" r="90.898" gradientTransform="matrix(1,0,0,-1,194,388)">
     <stop id="stop4438" stop-color="#fff" offset=".6758"/>
     <stop id="stop4440" stop-color="#F7F7F7" offset=".7293"/>
     <stop id="stop4442" stop-color="#E3E3E3" offset=".8911"/>
     <stop id="stop4444" stop-color="#DBDBDB" offset="1"/>
    </radialGradient>
    <path id="path4446" fill="url(#SVGID_5_)" d="m49.333 64.333c39.021 0 107.68 82.677 180.63 91.074 1.861-5.784 3.285-11.765 4.219-17.905-33.16-7.22-74.85-45.921-89.85-60.5-23.44-22.791-45.314-45.667-75.331-45.667-10.24 0-19.639 1.762-27.772 4.208-15.063 14.055-26.364 32.087-32.223 52.428 12.038-12.033 25.795-23.636 40.329-23.636z"/>
    <radialGradient id="SVGID_6_" cx="-78.348" gradientUnits="userSpaceOnUse" cy="196.55" r="74.676" gradientTransform="matrix(1,0,0,-1,194,388)">
     <stop id="stop4449" stop-color="#fff" offset=".6758"/>
     <stop id="stop4451" stop-color="#F7F7F7" offset=".7293"/>
     <stop id="stop4453" stop-color="#E3E3E3" offset=".8911"/>
     <stop id="stop4455" stop-color="#DBDBDB" offset="1"/>
    </radialGradient>
    <path id="path4457" fill="url(#SVGID_6_)" d="m165.12 194.12c-66.995 0-117.62-36.12-135.62-36.12-7.34 0-11.575 5.128-14.018 11.201 11.564 24.521 31.501 44.314 56.127 55.695-3.472-8.922-5.566-20.729 7.682-20.729 11.708 0 23.375 10.083 66.583 10.083 19.729 0 37.899-4.116 51.258-8.287 7.072-6.35 13.359-13.557 18.691-21.462-12.762 4.544-31.348 9.624-50.698 9.624z"/>
   </g>
   <path id="path4176" opacity=".3" stroke-linejoin="round" style="color:#000000" d="m43.5 24c0 10.77-8.73 19.5-19.5 19.5s-19.5-8.73-19.5-19.5 8.73-19.5 19.5-19.5 19.5 8.73 19.5 19.5z" stroke="url(#linearGradient3189)" stroke-linecap="round" fill="none"/>
   <path id="path3871" opacity=".7" style="color:#000000" d="m24 3.5c-11.311 0-20.5 9.189-20.5 20.5s9.189 20.5 20.5 20.5 20.5-9.189 20.5-20.5-9.189-20.5-20.5-20.5z" stroke="#203860" fill="none"/>
  </g>
 </g>
</svg>
