<?xml version="1.0" encoding="UTF-8" standalone="no"?>
<!-- Created with Inkscape (http://www.inkscape.org/) -->
<svg id="svg4951" xmlns:rdf="http://www.w3.org/1999/02/22-rdf-syntax-ns#" xmlns="http://www.w3.org/2000/svg" height="48px" width="48px" version="1.1" xmlns:cc="http://creativecommons.org/ns#" xmlns:xlink="http://www.w3.org/1999/xlink" xmlns:dc="http://purl.org/dc/elements/1.1/">
 <defs id="defs4953">
  <radialGradient id="radialGradient3220" gradientUnits="userSpaceOnUse" cy="186.17" cx="99.157" gradientTransform="matrix(.27083 0 0 .087623 -2.8551 25.187)" r="62.769">
   <stop id="stop3822-2-6-3" stop-color="#3d3d3d" offset="0"/>
   <stop id="stop3864-8-7-7" stop-color="#686868" stop-opacity=".49804" offset=".5"/>
   <stop id="stop3824-1-2-5" stop-color="#686868" stop-opacity="0" offset="1"/>
  </radialGradient>
  <linearGradient id="linearGradient4539" y2="62.125" gradientUnits="userSpaceOnUse" x2="2.875" gradientTransform="matrix(-.73183 -.80816 .80816 -.73183 29.759 74.94)" y1="1.5" x1="2.5">
   <stop id="stop6305-1-0-2" stop-color="#fff" offset="0"/>
   <stop id="stop6307-5-0-6" stop-color="#fff" stop-opacity="0" offset="1"/>
  </linearGradient>
  <radialGradient id="radialGradient4572" gradientUnits="userSpaceOnUse" cy="-9.3184" cx="33.252" gradientTransform="matrix(-.028675 2.6619 -1.3623 -.014675 12.308 -102.1)" r="25.457">
   <stop id="stop4061-2" stop-color="#333" offset="0"/>
   <stop id="stop4063-0" stop-color="#1a1a1a" offset="1"/>
  </radialGradient>
 </defs>
 <metadata id="metadata4956">
  <rdf:RDF>
   <cc:Work rdf:about="">
    <dc:format>image/svg+xml</dc:format>
    <dc:type rdf:resource="http://purl.org/dc/dcmitype/StillImage"/>
    <dc:title/>
   </cc:Work>
  </rdf:RDF>
 </metadata>
 <g id="layer1">
  <g id="g4523" transform="matrix(.075292 -.042469 .042469 .075292 12.325 28.282)"></g>
  <path id="path3818-0-5" d="m41 41.5a17 5.5 0 0 1 -34 0 17 5.5 0 1 1 34 0z" fill="url(#radialGradient3220)"/>
  <path id="path3607-8-2" d="m37.677 35.834c-8.622 9.521-16.136 9.253-21.295 4.885-7.744-6.556-14.907-30.371-10.823-34.881 4.0838-4.5099 29.79 2.3522 35.303 7.344 5.5122 4.9915 5.8908 12.631-3.1846 22.653z" fill="#767676"/>
  <path id="path4570" d="m10.904 4.373c-2.5247 0.0369-4.452 0.4783-5.3454 1.4649-4.084 4.5101 3.0788 28.325 10.822 34.881 1.6646 1.4093 3.5785 2.3833 5.6914 2.748-0.1992-0.83183-0.12688-1.6055 0.2793-2.2148 0.1806-0.27208 0.42078-0.49139 0.69922-0.66602l-0.0059-0.002s3.4231-2.2243 3.0195-6.2246c-0.4034-4.0002-0.78915-5.232 0.27148-4.0254 1.061 1.2071 1.2903 3.2161 2.0371 3.6973 0.74662 0.48121 0.86566 0.40128 1.2598 0.16797 0.09068-0.05373 0.17265-0.09751 0.25195-0.13867l3.5352-12.678-0.04297-0.01172c-0.06334-0.01747-0.1018-0.08324-0.08398-0.14648l0.0293-0.10352c0.01461-0.0524 0.06457-0.07851 0.11719-0.07813 0.06898-0.29665 0.06537-0.78136-0.44726-1.2656-0.04759-0.04531-0.04397-0.10873 0.0098-0.14648 0.0537-0.03764 0.10332-0.07742 0.15234-0.11719l-0.19336-0.05273c-0.03463 0.10171-0.08268 0.16699-0.21094 0.13086-0.19148-0.05337-0.30328-0.25368-0.25-0.44531 0.05329-0.19163 0.2518-0.30352 0.44336-0.25 0.12909 0.03566 0.13579 0.11776 0.11328 0.22266l0.39844 0.11133c0.17908-0.20175 0.3082-0.41534 0.39844-0.62891l-0.37695-0.10547c-0.03472 0.10156-0.08422 0.16666-0.21289 0.13086-0.19194-0.05331-0.30375-0.25167-0.25-0.44336 0.05362-0.19192 0.25371-0.3036 0.44531-0.25 0.12813 0.0359 0.13422 0.11559 0.11133 0.2207l0.39648 0.11133c0.06453-0.25474 0.08468-0.49996 0.08008-0.7168l-0.398-0.11c-0.03472 0.10156-0.08418 0.16674-0.21289 0.13086-0.19161-0.0536-0.30337-0.25188-0.25-0.44336 0.05329-0.19163 0.25337-0.30526 0.44531-0.25195 0.12871 0.03588 0.13387 0.11764 0.11133 0.22266l0.27148 0.07617c-0.0158-0.11088-0.03593-0.20547-0.05273-0.27539-0.03589-0.14192-0.06578-0.32969-0.0918-0.52344-0.0085-0.06518 0.01578-0.16061 0.06055-0.20898 0.29186-0.31886 0.74686-0.46766 1.1914-0.34375l0.04883 0.01367c0.02626 0.0073 0.0025 0.04291-0.04883 0.08399-0.1652 0.13169-0.28631 0.2885-0.31641 0.39648-0.06858 0.24651 0.25002 0.55269 0.71289 0.68164 0.4623 0.12898 0.89186 0.03254 0.96094-0.21484 0.03048-0.1082 0.0074-0.30554-0.06641-0.50391-0.0223-0.06136-0.02273-0.10281 0.0039-0.0957 0.02677 0.0075 0.04687 0.01367 0.04687 0.01367 0.44631 0.1244 0.76064 0.48979 0.84375 0.91602 0.01246 0.06413-0.01561 0.15785-0.05664 0.20898-0.12147 0.15099-0.24224 0.29387-0.34375 0.39648-0.05103 0.05082-0.11806 0.12052-0.18945 0.20703l0.27 0.076c0.03472-0.10156 0.08223-0.16674 0.21094-0.13086 0.19194 0.05331 0.30554 0.25156 0.25195 0.44336s-0.25375 0.30352-0.44531 0.25c-0.12834-0.03609-0.13422-0.11559-0.11133-0.2207l-0.39844-0.11133c-0.11585 0.18276-0.2264 0.40342-0.30274 0.6543l0.39453 0.10938c0.03472-0.10156 0.08227-0.16666 0.21094-0.13086 0.19156 0.05352 0.30324 0.25361 0.25 0.44531-0.05337 0.19148-0.2518 0.30333-0.44336 0.25-0.12909-0.03566-0.13625-0.1177-0.11328-0.22266l-0.375-0.10352c-0.03348 0.22938-0.03362 0.47629 0.01563 0.74219l0.39844 0.11133c0.03421-0.10157 0.08268-0.16699 0.21094-0.13086 0.19193 0.05311 0.3037 0.2514 0.25 0.44336-0.05321 0.19159-0.2518 0.30352-0.44336 0.25-0.12864-0.03592-0.13633-0.1157-0.11328-0.2207l-0.191-0.052c0.02208 0.0592 0.04112 0.11873 0.06836 0.17969 0.02615 0.06008-0.0023 0.11491-0.06641 0.12891-0.68946 0.14991-0.94302 0.56374-1.0371 0.85352 0.04279 0.02747 0.07112 0.07396 0.05664 0.125l-0.0293 0.10352c-0.01752 0.06308-0.08164 0.09975-0.14453 0.08203l-0.04297-0.01172-3.916 14.045c0.0231 0.50652 0.16214 1.5146 0.89453 1.7188 0.98639 0.27461 1.7029-0.77083 2.0039-1.416 0.30103-0.64519 0.80822-0.16902 0.75 0.69531-0.05919 0.86438-0.42052 1.6136-1.0742 2.4336-0.171 0.21461-0.33228 0.42667-0.4707 0.65625 1.4428-1.1006 2.9251-2.4581 4.4434-4.1348 9.0755-10.022 8.6958-17.661 3.1836-22.652-4.305-3.9-20.938-8.9405-29.956-8.809z" fill="url(#radialGradient4572)"/>
  <path id="path4398-7-9" opacity="0.98" d="m32.5 0.54688c-9.8605 0-16.631 1.9844-20.873 5.166-4.2421 3.1816-6.0801 7.5411-6.0801 12.787 0 2.4647 1.0783 6.6861 2.8848 11.457s4.3191 10.141 7.1074 15.16c2.7884 5.019 5.8585 9.6929 8.7402 13.062 2.8817 3.3696 5.6488 5.2734 7.2207 5.2734 1.6397 0 4.4461-1.7273 7.4062-4.832s6.1327-7.4585 9.0078-12.281c5.75-9.645 10.276-21.269 10.041-28.304-0.159-4.757-1.896-9.0379-5.859-12.217-3.963-3.1784-10.252-5.2711-19.596-5.2711z" stroke-opacity=".47403" transform="matrix(-.45088 .49607 -.49791 -.44921 52.205 19.355)" stroke="url(#linearGradient4539)" stroke-width="1px" fill="none"/>
  <path id="path4058-6" d="m37.677 35.834c-8.622 9.521-16.136 9.253-21.295 4.885-7.744-6.556-14.907-30.371-10.823-34.881 4.0838-4.5099 29.79 2.3522 35.303 7.344 5.5122 4.9915 5.8908 12.631-3.1846 22.653z" stroke-opacity=".43210" stroke="#000" stroke-width=".73706" fill="none"/>
  <g id="text4575" fill="#767676" transform="scale(.96839 1.0326)">
   <path id="path4392" d="m22.691 11l-0.062 0.135v0.041l0.228-0.176h-0.166zm-3.732 0.244l-0.064 0.067v0.589h0.197v0.034l-0.031 0.035v0.066l0.062 0.11v0.033l-0.102-0.069h-0.062l-0.064 0.069v2.593l0.095-0.035 0.071 0.069v0.068h-0.166v1.902l0.064 0.075h0.062l0.071-0.346-0.031-0.041c0.105-0.032 0.158-0.076 0.158-0.135h0.031v0.102l-0.062 0.109v0.203l0.062 0.108-0.062 0.101c-0.195 0-0.293 0.023-0.293 0.069v3.459h0.064l0.031-0.17v-0.108l0.166 0.041v-0.109l0.063 0.068v0.041c-0.085 0-0.193 0.194-0.324 0.582v0.074l0.095 0.102h0.426l0.127-0.033 0.133 0.033h0.158c0.262 0 0.395-0.034 0.395-0.102h0.191c0 0.068 0.02 0.102 0.062 0.102h0.133c0.043 0 0.065-0.034 0.065-0.102h0.031l0.133 0.102h0.064l0.063-0.068v-3.879l-0.159 0.033c-0.055 0.185-0.098 0.277-0.132 0.277h-0.065c0-0.113-0.03-0.168-0.094-0.168v-0.175h0.159c0.11-0.104 0.164-0.243 0.164-0.415h0.095v0.036l-0.031 0.033h0.063v-0.313l-0.127-0.134v-0.034l0.033-0.041h0.031l0.031 0.041h0.032v-4.638l-0.094-0.034c0-0.117-0.022-0.175-0.065-0.175h-0.07l-0.094 0.066h-0.033v-0.033l0.065-0.102v-0.033h-0.813l-0.033 0.033-0.031-0.033h-0.844zm2.4 0l-0.064 0.067v1.66l0.064 0.074h0.291l0.133-0.109h0.065v0.035l-0.032 0.033v0.041l0.164 0.033 0.223-0.107v0.033l0.031 0.041 0.33-0.041c0.127 0 0.192 0.024 0.192 0.074 0.635 0 1.024 0.381 1.168 1.139v0.176c0 0.695-0.323 1.155-0.971 1.38l0.031 0.108v0.035h-0.095c-0.085-0.072-0.181-0.109-0.291-0.109h-1.239l-0.064 0.074v0.658l0.064 0.066-0.064 0.102v0.867l0.064 0.069h0.748c1.52 0 2.505-0.255 2.954-0.76l-0.032-0.108 0.032-0.101h0.062v0.068h0.033l0.229-0.203-0.033-0.109v-0.034h0.064c0.389-0.501 0.584-1.147 0.584-1.937v-0.135c0-0.686-0.195-1.344-0.584-1.976l0.031-0.036v-0.033l-0.031 0.033c-0.55-0.713-1.437-1.068-2.66-1.068h-1.397zm-7.226 0.047c-1.283 0-2.372 0.571-3.27 1.713-0.478 0.817-0.744 1.562-0.799 2.234v0.033l0.032 0.036c-0.064 0-0.096 0.263-0.096 0.791 0 0.483 0.032 0.724 0.096 0.724l0.025-0.101c-0.025 0-0.044-0.065-0.057-0.196l0.12 0.067-0.032 0.027 0.065 0.137 0.119-0.102h0.033l-0.09 0.102 0.032 0.162v0.066h-0.094l-0.153-0.101c0 0.329 0.039 0.494 0.12 0.494h0.152v-0.061h0.279l0.186-0.066v0.033l0.062-0.068v-0.033l0.096 0.033h0.031l0.026-0.033h0.064l-0.033 0.033 0.033 0.035-0.064 0.127 0.031 0.035v0.033l-0.031 0.034-0.121-0.067v0.033l-0.032-0.033c-0.101 0.068-0.152 0.155-0.152 0.264 0.038 0.099 0.079 0.153 0.121 0.162h0.127l0.057-0.061c0.05 0 0.123 0.054 0.216 0.162h0.032c0.063 0 0.095-0.044 0.095-0.134h0.032l0.031 0.033-0.031 0.033v0.035l0.031 0.033v0.034l-0.063 0.068v-0.068h-0.064l-0.031 0.035-0.09-0.069v0.034l-0.094-0.034h-0.033l0.064 0.198h-0.064l-0.031-0.035 0.031-0.034c-0.076-0.131-0.178-0.197-0.305-0.197v0.035l-0.158-0.035 0.031-0.228h0.033l0.032 0.033v-0.069l-0.032-0.033 0.094-0.095-0.062-0.067h-0.096v0.102l-0.031-0.035h-0.026l-0.031 0.035c0-0.068-0.022-0.102-0.064-0.102l0.031 0.162c-0.144 0-0.215 0.098-0.215 0.297 0.191 0.591 0.324 0.889 0.4 0.889h0.032l-0.032 0.101 0.463 0.69 0.063-0.069h0.033l0.025 0.036-0.025 0.134c0.512 0.556 0.954 0.894 1.326 1.016 0.081 0 0.121-0.043 0.121-0.129h0.032c0.059 0 0.089 0.043 0.089 0.129l0.063-0.061 0.183 0.061-0.025 0.17 0.553 0.129v-0.035h0.064c-0.021-0.154-0.063-0.231-0.127-0.231v-0.033h0.032l0.031 0.033-0.031-0.162 0.031-0.101c-0.081 0-0.121-0.031-0.121-0.094l0.058-0.069h0.032l0.095 0.069h0.032l-0.032-0.035c0.098-0.176 0.169-0.264 0.215-0.264 0 0.081-0.061 0.203-0.183 0.365l0.087 0.028v0.068h-0.062v0.101l0.127-0.033 0.062-0.068v-0.129h-0.062v-0.068l0.121-0.102 0.127 0.068h0.031l0.057-0.162v-0.068c-0.081 0-0.119-0.021-0.119-0.066l-0.129 0.033h-0.026l0.026-0.162c0.063 0 0.095-0.024 0.095-0.069l0.065 0.069h0.031l0.031-0.036v-0.033l-0.031-0.033v-0.096l0.031-0.033h-0.031v-0.035l0.031-0.033c0-0.032-0.042-0.062-0.127-0.094v0.027l-0.214-0.062h-0.065l-0.121 0.035h-0.031l0.031 0.094v0.068c0 0.045-0.051 0.067-0.152 0.067v0.027l0.025 0.035-0.119 0.033v-0.033c0-0.086-0.032-0.129-0.096-0.129v-0.068c0.165 0 0.279-0.098 0.342-0.297l0.186 0.033v0.033l-0.034 0.035v0.034h0.065v-0.102h0.062l0.026 0.033v-0.033l0.033-0.033v-0.096l-0.522-0.135c-0.431-0.297-0.646-0.471-0.646-0.521-0.284-0.537-0.45-0.813-0.496-0.826l0.031-0.033c0-0.199-0.052-0.299-0.158-0.299v0.033h-0.057v-0.033h0.032l0.089-0.094c-0.067-0.6-0.14-0.942-0.216-1.023l-0.09 0.033h-0.031l-0.032-0.033v-0.034l0.032-0.035 0.089 0.035 0.063-0.06v-0.069l-0.031-0.033h0.031c0.063 0 0.096-0.131 0.096-0.392v-0.069l-0.032-0.033c-0.063 0-0.095-0.023-0.095-0.068h0.095l0.032 0.033c0.097-0.691 0.322-1.262 0.673-1.713v-0.06c-0.038 0-0.058 0.032-0.058 0.095-0.043-0.009-0.085-0.065-0.127-0.164l0.248 0.069 0.527-0.426 0.711-0.266-0.096-0.033v-0.033l0.186-0.137v-1.51l-0.033-0.033zm-0.057 1.746l0.09-0.033v-0.068h-0.033c-0.038 0-0.057 0.033-0.057 0.101zm0.496-1.746l-0.064 0.068v1.645c0 0.054 0.123 0.097 0.369 0.129 0.478 0.153 0.869 0.429 1.174 0.826l0.369 0.656v0.033l-0.025 0.036 0.335 0.324 1.639-0.826c-0.034-0.109-0.066-0.162-0.096-0.162v0.203l-0.064-0.069v-0.066l0.064-0.096c-0.084-0.415-0.404-0.932-0.959-1.551-0.884-0.767-1.798-1.15-2.742-1.15zm4.844 0.055h0.031v0.066l-0.062 0.076h-0.071l0.102-0.142zm-0.197 0.412h0.228v0.109l-0.031 0.033-0.293-0.033 0.096-0.109zm6.101 0.041l-0.095 0.135h0.095v-0.067h0.032c0 0.068 0.022 0.102 0.064 0.102h0.063v-0.102c-0.064 0-0.094-0.023-0.094-0.068h-0.065zm-8.59 0.576h0.122v0.135h-0.059c0-0.068-0.02-0.102-0.063-0.102v-0.033zm2.458 0.217h0.126l0.071 0.176v0.033h-0.033l-0.164-0.069v-0.039l0.031-0.035v-0.033l-0.031-0.033zm-0.198 0.14h0.102v0.102l-0.071 0.068-0.031-0.17zm3.086 0.069h0.096v0.033l-0.031 0.035-0.065-0.068zm-10.437 0.101h0.025c-0.013 0.059-0.063 0.113-0.152 0.162v-0.093l0.127-0.069zm7.935 0.034h0.071l0.031 0.035 0.031-0.035h0.033l0.094 0.109v0.033h-0.094l-0.166 0.035v-0.109l0.031-0.033-0.031-0.035zm2.533 0.142l-0.062 0.068v0.034h0.062v-0.102zm-2.564 0.102c0 0.162 0.044 0.244 0.133 0.244l0.064 0.203c-0.152 0-0.228 0.069-0.228 0.209 0.046 0.117 0.122 0.178 0.228 0.178v0.033h-0.166c-0.127-0.28-0.277-0.42-0.451-0.42v-0.068h0.127c0.11 0 0.166 0.037 0.166 0.109h0.063l0.064-0.074v-0.17l-0.031-0.033h-0.033l-0.032 0.033v-0.209l0.096-0.035zm4.547 0.244h0.127l-0.065 0.135v0.035l0.032 0.033h-0.063l-0.031-0.203zm-4.223 0.135h0.031l0.071 0.068v0.074l-0.102 0.033v-0.066l0.031-0.041-0.031-0.033v-0.035zm4.869 0.142h0.096v0.033l-0.031 0.036-0.065-0.069zm-6.775 0.522h0.002l0.031 0.027h0.031l0.032-0.027h0.064v0.06l-0.185 0.069h-0.127v-0.034c0.101 0 0.152-0.032 0.152-0.095zm1.551 0.027h0.031l0.228 0.209h-0.166l-0.093-0.168v-0.041zm-8.864 0.17h0.094v0.066h-0.094v-0.066zm10.196 0.039h0.033l0.062 0.068h-0.095v-0.068zm4.185 0h0.127l0.102 0.068v0.075h-0.033v-0.075h-0.196v-0.068zm-12.959 0.617h0.057l-0.121 0.129h-0.031v-0.062c0.063 0 0.095-0.022 0.095-0.067zm-0.623 0.067h0.096v0.062h-0.096v-0.062zm-0.799 0.326h0.094v0.101l-0.031 0.034-0.063-0.067v-0.068zm0.28 0.135l0.088 0.035v0.033h-0.088v-0.068zm-0.496 0.128l0.095 0.069v0.033l-0.095-0.033v-0.069zm0.679 0.069h0.032c0.029 0.104 0.08 0.181 0.152 0.23h0.031l0.033-0.035v0.035c0 0.077 0.071 0.131 0.215 0.162v-0.06h0.031v0.06h0.186l-0.033 0.168v0.028l0.033 0.035-0.096 0.033-0.121-0.096h-0.031v0.063l0.031 0.033h-0.095v-0.068h-0.057l0.025 0.101v0.035h-0.152l0.031-0.035-0.062-0.066h-0.032l-0.025 0.033-0.033-0.033v-0.035l0.033-0.028h-0.064l-0.032 0.028v-0.028l-0.183 0.028c0 0.09-0.093 0.158-0.28 0.203h-0.033c0-0.036 0.083-0.091 0.248-0.168 0-0.063 0.022-0.096 0.065-0.096h0.031c0-0.221-0.083-0.332-0.248-0.332v-0.033l0.031-0.033c0.081 0.013 0.121 0.047 0.121 0.101 0.119-0.013 0.212-0.047 0.28-0.101l-0.032-0.096v-0.033zm10.934 0.181h0.062l0.034 0.036c0.033 0.09 0.064 0.134 0.093 0.134v0.041l-0.031 0.034-0.26-0.108c0.034-0.09 0.068-0.137 0.102-0.137zm-0.49 0.069v0.033l0.095-0.033 0.102 0.101-0.063 0.075c0 0.158 0.063 0.236 0.19 0.236v0.041l-0.031 0.035c-0.195-0.068-0.293-0.173-0.293-0.312h-0.196v-0.034c0-0.04 0.064-0.088 0.196-0.142zm-11.028 0.107l0.026 0.035h0.031l0.031-0.035v0.069l-0.088 0.033v-0.102zm9.955 0.035h0.071v0.27h-0.166v-0.033l0.033-0.034c0.068 0 0.101-0.023 0.101-0.068v-0.101l-0.039-0.034zm2.209 0h0.127l0.071 0.168-0.133 0.035-0.065-0.136v-0.067zm-2.564 0.034l0.26 0.033-0.094 0.101-0.166-0.033-0.031 0.033v-0.101l0.031-0.033zm-5.365 0.021l-0.071 0.066-0.164-0.046v0.541l0.071 0.027h0.031l0.031-0.041v0.074h-0.133v1.172h0.006l0.127-0.041 0.133 0.041h0.191l0.032-0.041 0.031 0.041h0.228l0.034-0.041 0.031 0.041h0.392l0.229-0.041v0.041h0.064l0.065-0.074 0.228 0.033 0.022-0.162 0.015 0.101v0.102c-0.182 0.117-0.273 0.194-0.273 0.23v0.028h0.059l0.031-0.028v0.028l0.031 0.033v0.035h-0.215c0 0.068-0.123 0.209-0.369 0.426-0.33 0.176-0.496 0.308-0.496 0.398h-0.062v-0.033l0.031-0.033v-0.035l-0.28 0.068v0.096l0.159-0.027v0.128l-0.032 0.034 0.032 0.033c-0.165 0.027-0.246 0.158-0.246 0.392v0.129l0.183 0.264-0.127 0.068h-0.025l-0.096-0.068h-0.096v0.203h-0.056v0.461h0.121c0 0.041-0.031 0.061-0.09 0.061v0.068c1.126 0 2.145-0.494 3.055-1.482 0.698-1.011 1.047-1.955 1.047-2.83h-0.153l0.033-0.096v-0.033h-0.033l-0.031 0.033h-0.096v-0.067l-0.119 0.067-0.033-0.102 0.096-0.033 0.121 0.033 0.031-0.162v-0.068h-1.873l0.057 0.101v0.028h-0.063c-0.03 0-0.031 0.123-0.006 0.367v0.033h0.094l0.064-0.068v-0.067h0.057l-0.025 0.168c-0.064 0-0.096 0.02-0.096 0.061h-0.062l-0.032-0.026v0.026l-0.025 0.035v0.195c0 0.045 0.039 0.069 0.119 0.069v0.068c-0.051 0-0.081 0.054-0.094 0.162l0.032 0.033h-0.032l-0.09-0.068h-0.031l-0.031 0.23c0 0.068 0.02 0.102 0.062 0.102h0.153v0.129h-0.031c0-0.063-0.031-0.094-0.09-0.094h-0.032l-0.031 0.033-0.031-0.033h-0.065l-0.005 0.008v-0.022l-0.032-0.035 0.032-0.033v-0.453l-0.032-0.238h-0.033l-0.031 0.035h-0.07l-0.19-0.137-0.096 0.069c-0.067 0-0.101 0.044-0.101 0.134h-0.031l-0.034-0.033c0-0.068-0.033-0.101-0.101-0.101-0.059 0-0.113-0.103-0.164-0.311v-0.035c0.089 0 0.133 0.046 0.133 0.137h0.197v0.066h0.197c0.081 0.095 0.199 0.153 0.356 0.176v-0.621h-0.065l-0.031 0.107-0.26-0.074v-0.033l0.031-0.036 0.159 0.036h0.033v-0.036l-0.065-0.066h-1.295l-0.031 0.033-0.033-0.033h-0.031zm3.822 0.012c0.008 0.045 0.027 0.068 0.057 0.068l0.013-0.068h-0.07zm-1.732 0.068h0.062c0.004 0.108 0.035 0.162 0.09 0.162h0.031l0.031-0.033c0 0.09 0.033 0.135 0.096 0.135v0.027l-0.031 0.035c-0.042 0-0.065-0.032-0.065-0.095-0.224-0.037-0.336-0.081-0.336-0.135v-0.035h0.032l0.025 0.035c0.042 0 0.065-0.033 0.065-0.096zm-1.899 0.055h0.195c0.089 0.14 0.186 0.209 0.288 0.209v0.068c-0.149-0.077-0.223-0.134-0.223-0.17-0.064 0-0.096 0.034-0.096 0.102-0.089-0.09-0.165-0.135-0.228-0.135l0.064-0.074zm5.016 0.08h0.062l-0.031 0.178v0.033l0.064 0.101 0.165-0.033v0.033c0 0.041-0.067 0.076-0.198 0.108l-0.062-0.108v-0.312zm-9.473 0.129h0.057l0.062 0.062h-0.119v-0.062zm0.399 0h0.033v0.027c0 0.068-0.022 0.102-0.065 0.102l0.032-0.129zm7.035 0l0.064 0.062h-0.152v-0.035l0.088-0.027zm4.211 0.013h0.062v0.102h-0.062v-0.102zm-4.764 0.014h0.033v0.17l-0.096-0.068h-0.095l-0.026 0.035v-0.068l0.026-0.034h0.031l0.033 0.034 0.094-0.069zm4.928 0.123h0.158v0.033h-0.158v-0.033zm-11.473 0.014h0.031l-0.088 0.101v-0.035l0.057-0.066zm6.387 0.033h0.031l0.064 0.129v0.033h-0.095l0.031-0.033-0.031-0.096v-0.033zm5.015 0.061h0.071v0.033l-0.071 0.068v-0.101zm-4.705 0.033l0.127 0.035v0.066h-0.094l-0.033-0.101zm0.866 0h0.062v0.101h-0.096l0.034-0.101zm-3.247 0.055h0.096l0.065 0.068-0.065 0.066h-0.062l-0.034-0.134zm5.145 0.013h0.189l-0.095 0.135v0.037l-0.094-0.103v-0.069zm-8.318 0.033h0.031v0.069l-0.152 0.033v-0.033l-0.032-0.033 0.153-0.036zm-0.248 0.069h0.064l-0.127 0.129-0.025-0.096 0.088-0.033zm-0.368 0.06h0.032l-0.065 0.069 0.033 0.162h-0.033l-0.215-0.129v-0.033h0.032l0.089 0.033 0.127-0.102zm7.993 0.014h0.033v0.035l-0.071 0.067h-0.031v-0.034l0.069-0.068zm1.039 0h0.06v0.033h-0.031l-0.029-0.033zm-5.209 0.014h0.031v0.142h-0.031v-0.142zm1.517 0.041h0.063l0.056 0.134h-0.088l-0.031-0.101v-0.033zm-0.902 0.027h0.062l0.071 0.074-0.102 0.102-0.031-0.176zm-0.94 0.107l-0.064 0.204-0.102-0.034v-0.134l0.166-0.036zm-3.193 0.061h0.063v0.17c0.059 0 0.152 0.107 0.279 0.324h-0.031l-0.121-0.127h-0.032l-0.031 0.033h-0.152l-0.096-0.17h0.062v-0.033h-0.093c-0.102 0.045-0.153 0.113-0.153 0.203h-0.033l-0.031-0.134 0.127-0.198h0.025l0.032 0.034v-0.034l0.126 0.034c0.039 0 0.059-0.034 0.059-0.102zm7.783 0.062h0.096l0.164 0.237v0.107l-0.133-0.107h-0.031l-0.031 0.033c0-0.104-0.022-0.182-0.065-0.236v-0.034zm-2.564 0.006h0.031l0.031 0.034h0.059l0.031-0.034v0.034l0.031 0.035-0.121 0.06h-0.093l0.031-0.129zm-1.803 0.008h0.068c0 0.068 0.023 0.102 0.065 0.102v0.209h-0.031l-0.102-0.244v-0.067zm-4.928 0.061l0.032 0.162h0.033l0.094-0.102v-0.027l-0.127-0.033h-0.032zm0.959 0.06l0.153 0.033v0.102l-0.09-0.033-0.031 0.101h-0.032l-0.031-0.101 0.031-0.102zm8.336 0.209l0.065 0.069v0.033h-0.065v-0.102zm-4.299 0.014h0.065v0.101l-0.133 0.069v-0.069c0.047 0 0.068-0.033 0.068-0.101zm-4.748 0.109l0.127 0.033h0.026l0.031-0.033c0.063 0.054 0.096 0.119 0.096 0.196v0.068l-0.311-0.197v-0.034l0.031-0.033zm6.299 0h0.031l0.057 0.067h-0.025l-0.063-0.067zm3.688 0.047h0.033l0.062 0.068v0.108h-0.031l-0.064-0.067v-0.109zm-0.647 0.033h0.196v0.076h-0.196v-0.076zm-7.422 0.055v0.061h-0.095v-0.034l0.095-0.027zm7.975 0.088h0.031l0.031 0.035c0 0.09-0.042 0.159-0.126 0.209v-0.074l0.064-0.17zm-0.719 0.068h0.071c0 0.036-0.044 0.07-0.133 0.102h-0.033l0.095-0.102zm-3.027 0.041l0.057 0.061v0.068l-0.057 0.067h-0.033l-0.032-0.102c0-0.063 0.023-0.094 0.065-0.094zm0.584 0l0.031 0.129h-0.096l0.032-0.035-0.032-0.033 0.065-0.061zm-4.629 0.061h0.031l0.09 0.068-0.064 0.067-0.057-0.067v-0.068zm6.977 0.074h0.033c0 0.077 0.076 0.144 0.228 0.203v0.033l-0.261 0.075-0.094-0.075 0.094-0.236zm-8.153 0.061h0.121l-0.056 0.095-0.127-0.027 0.062-0.068zm5.34 0.035l0.121 0.033v0.027h-0.088l-0.033-0.027v-0.033zm3.398 0.006l0.063 0.068h-0.096v-0.035l0.033-0.033zm-3.709 0.027l0.065 0.06v0.069l-0.065 0.066h-0.025l-0.031-0.101c0-0.063 0.018-0.094 0.056-0.094zm4.325 0.143v0.107l-0.065 0.068h-0.031c-0.216-0.045-0.324-0.091-0.324-0.136h0.261l0.159-0.039zm-8.336 0.019c0.063 0.018 0.094 0.084 0.094 0.197h-0.063l-0.031-0.035 0.031-0.094v-0.035l-0.031-0.033zm0.246 0.162l0.127 0.035v0.034l-0.279 0.093 0.152-0.162zm-1.199 0.069h0.088l0.033 0.033 0.031-0.033v0.068l-0.064 0.06h-0.057l-0.031-0.128zm-0.496 0.195h0.064l0.057 0.068-0.088 0.033h-0.033v-0.101zm1.144 0h0.063l-0.032 0.137h-0.031v-0.137zm1.389 0h0.025l0.065 0.068v0.033l-0.032-0.033-0.09 0.069v-0.069h0.057v-0.033l-0.025-0.035zm-2.348 0.068h0.031l0.032 0.096v0.033h-0.032l-0.031-0.033v-0.096zm1.422 0.033l0.215 0.231v0.129h-0.063c-0.101-0.045-0.152-0.122-0.152-0.231v-0.129zm7.467 0.077h0.031c0 0.072 0.042 0.107 0.127 0.107l-0.063 0.068h-0.033l-0.062-0.068v-0.107zm-8.61 0.087h0.088l0.032 0.102-0.088 0.027v-0.027l-0.032 0.027-0.064-0.062 0.064-0.067zm0.495 0.067h0.031l-0.031 0.129h-0.063l-0.064-0.067 0.127-0.062zm2.71 0.035l-0.056 0.061v0.033l0.056 0.068h0.034l0.031-0.162h-0.065zm6.116 0.053h0.031l0.101 0.068v0.041l-0.037 0.033-0.095-0.033v-0.109zm-8.985 0.041v0.035l-0.056 0.066h-0.034l0.09-0.101zm0.215 0h0.065v0.101h-0.065v-0.101zm0.096 0.135h0.096l0.183 0.062 0.09-0.062v0.062l-0.057 0.066c-0.084 0-0.127 0.024-0.127 0.069h-0.033v-0.069l-0.088 0.036-0.064-0.069v-0.033l0.033-0.035-0.033-0.027zm2.965 0.062h0.09v0.066l-0.09-0.033v-0.033zm5.582 0.006c0.067 0.022 0.11 0.067 0.127 0.135-0.038 0-0.061 0.047-0.065 0.142h-0.031l-0.031-0.033h-0.032c0 0.045-0.055 0.09-0.166 0.135l-0.164-0.067v-0.035c0.047 0 0.069-0.034 0.069-0.101l0.191 0.035c0.068 0 0.102-0.071 0.102-0.211zm-6.045 0.096v0.324l0.056-0.061v-0.263h-0.056zm4.742 0.08h0.064v0.101h-0.126v-0.033l0.062-0.068zm-7.459 0.082l0.152 0.068v0.066l-0.033 0.028 0.096-0.028 0.152 0.028v0.033h-0.152c-0.102 0-0.173-0.054-0.215-0.162v-0.033zm0.584 0.033h0.031l-0.031 0.101h-0.057l0.057-0.101zm3.365 0.035h0.031l-0.031 0.094h-0.064v-0.028l0.064-0.066zm-2.871 0.162l0.127 0.033v0.034h-0.094l-0.033-0.034v-0.033zm0.344 0h0.121c0 0.068 0.02 0.102 0.062 0.102v0.066h-0.126l-0.057-0.168zm-0.959 0.033l0.031 0.034h0.059v0.035l-0.121 0.066h-0.032l0.032-0.101 0.031-0.034zm7.486 0.069l0.094 0.066h0.293l0.064 0.069c-0.063 0-0.15 0.047-0.255 0.142h-0.038c0-0.081-0.074-0.152-0.222-0.211l0.064-0.066zm-5.607 0.033c-0.034 0-0.063 0.097-0.088 0.291l0.088 0.033v-0.033l0.033-0.027v-0.264h-0.033zm-1.078 0.033l0.127 0.028v0.101h-0.127v-0.033l0.031-0.033h-0.065v-0.035l0.034-0.028zm7.56 0l0.033 0.143-0.064 0.136h-0.031v-0.21l0.062-0.069zm0.127 0.069v0.033l-0.062 0.076v-0.035l0.062-0.074zm-5.771 0.027l0.058 0.068v0.067l-0.09-0.034v-0.068l0.032-0.033zm4.414 0.183h0.127v0.034c-0.009 0.049-0.063 0.097-0.16 0.142l-0.038-0.109 0.071-0.067zm-5.436 0.012l-0.217 0.102v0.068h0.034l0.031-0.033 0.088 0.129v0.033l0.248-0.033h0.033l-0.033-0.096c0-0.113-0.061-0.17-0.184-0.17z" transform="scale(1.0326 .96839)" fill="#767676"/>
  </g>
 </g>
</svg>
