<?xml version="1.0" encoding="UTF-8" standalone="no"?>
<!-- Created with Inkscape (http://www.inkscape.org/) -->

<svg
   xmlns:dc="http://purl.org/dc/elements/1.1/"
   xmlns:cc="http://creativecommons.org/ns#"
   xmlns:rdf="http://www.w3.org/1999/02/22-rdf-syntax-ns#"
   xmlns:svg="http://www.w3.org/2000/svg"
   xmlns="http://www.w3.org/2000/svg"
   xmlns:xlink="http://www.w3.org/1999/xlink"
   xmlns:sodipodi="http://sodipodi.sourceforge.net/DTD/sodipodi-0.dtd"
   xmlns:inkscape="http://www.inkscape.org/namespaces/inkscape"
   width="48px"
   height="48px"
   id="svg4951"
   version="1.1"
   inkscape:version="0.91 r"
   sodipodi:docname="GP6-icon.svg">
  <defs
     id="defs4953">
    <radialGradient
       gradientTransform="matrix(0,1.2316483,-1.625754,0,18.486966,-28.721977)"
       gradientUnits="userSpaceOnUse"
       id="radialGradient4364"
       r="20.396999"
       cy="3.99"
       cx="23.896">
      <stop
         offset="0"
         style="stop-color:#ff8fa6;stop-opacity:1"
         id="stop4366" />
      <stop
         offset="0.66093999"
         style="stop-color:#ff43ba;stop-opacity:1"
         id="stop4368" />
      <stop
         offset="1"
         style="stop-color:#cb5a86;stop-opacity:1"
         id="stop4370" />
    </radialGradient>
    <linearGradient
       id="linearGradient4131">
      <stop
         style="stop-color:#4f0000;stop-opacity:1;"
         offset="0"
         id="stop4133" />
      <stop
         id="stop4139"
         offset="0.97898853"
         style="stop-color:#4f0000;stop-opacity:0.6875;" />
      <stop
         style="stop-color:#4f0000;stop-opacity:0;"
         offset="1"
         id="stop4135" />
    </linearGradient>
    <radialGradient
       cx="23.896"
       cy="3.99"
       r="20.396999"
       id="radialGradient3887"
       gradientUnits="userSpaceOnUse"
       gradientTransform="matrix(0,1.2316483,-1.625754,0,18.486966,-28.721977)">
      <stop
         id="stop3889"
         style="stop-color:#fadc65;stop-opacity:1;"
         offset="0" />
      <stop
         id="stop3891"
         style="stop-color:#fecb31;stop-opacity:1;"
         offset="0.84763265" />
      <stop
         id="stop3893"
         style="stop-color:#f0c003;stop-opacity:1;"
         offset="1" />
    </radialGradient>
    <linearGradient
       inkscape:collect="always"
       xlink:href="#linearGradient6455-7-3"
       id="linearGradient4761"
       gradientUnits="userSpaceOnUse"
       x1="38.851257"
       y1="41.608219"
       x2="34.130882"
       y2="37.809635" />
    <linearGradient
       inkscape:collect="always"
       id="linearGradient6455-7-3">
      <stop
         style="stop-color:#fbac9b;stop-opacity:1"
         offset="0"
         id="stop6457-5-1" />
      <stop
         style="stop-color:#fcfafc;stop-opacity:1"
         offset="1"
         id="stop6459-8-9" />
    </linearGradient>
    <linearGradient
       inkscape:collect="always"
       xlink:href="#linearGradient6413-0-0"
       id="linearGradient4763"
       gradientUnits="userSpaceOnUse"
       x1="38.851257"
       y1="41.608219"
       x2="34.130882"
       y2="37.809635" />
    <linearGradient
       id="linearGradient6413-0-0"
       inkscape:collect="always">
      <stop
         id="stop6415-1-7"
         offset="0"
         style="stop-color:#feffff;stop-opacity:1" />
      <stop
         id="stop6417-4-9"
         offset="1"
         style="stop-color:#fe70ca;stop-opacity:1" />
    </linearGradient>
    <radialGradient
       inkscape:collect="always"
       xlink:href="#linearGradient6303-33-0-2"
       id="radialGradient4765"
       gradientUnits="userSpaceOnUse"
       cx="36.49107"
       cy="39.708927"
       fx="36.49107"
       fy="39.708927"
       r="3.1589286" />
    <linearGradient
       inkscape:collect="always"
       id="linearGradient6303-33-0-2">
      <stop
         style="stop-color:#ffffff;stop-opacity:1;"
         offset="0"
         id="stop6305-1-0-2" />
      <stop
         style="stop-color:#ffffff;stop-opacity:0;"
         offset="1"
         id="stop6307-5-0-6" />
    </linearGradient>
    <radialGradient
       inkscape:collect="always"
       xlink:href="#linearGradient6303-3-2-1"
       id="radialGradient4767"
       gradientUnits="userSpaceOnUse"
       cx="36.49107"
       cy="39.708927"
       fx="36.49107"
       fy="39.708927"
       r="3.1589286" />
    <linearGradient
       inkscape:collect="always"
       id="linearGradient6303-3-2-1">
      <stop
         style="stop-color:#ffffff;stop-opacity:1;"
         offset="0"
         id="stop6305-3-0-9" />
      <stop
         style="stop-color:#ffffff;stop-opacity:0;"
         offset="1"
         id="stop6307-1-0-1" />
    </linearGradient>
    <radialGradient
       inkscape:collect="always"
       xlink:href="#linearGradient6303-4-8"
       id="radialGradient4769"
       gradientUnits="userSpaceOnUse"
       cx="36.49107"
       cy="39.708927"
       fx="36.49107"
       fy="39.708927"
       r="3.1589286" />
    <linearGradient
       inkscape:collect="always"
       id="linearGradient6303-4-8">
      <stop
         style="stop-color:#ffffff;stop-opacity:1;"
         offset="0"
         id="stop6305-33-3" />
      <stop
         style="stop-color:#ffffff;stop-opacity:0;"
         offset="1"
         id="stop6307-9-3" />
    </linearGradient>
    <radialGradient
       inkscape:collect="always"
       xlink:href="#linearGradient6088-6-1-0"
       id="radialGradient4771"
       gradientUnits="userSpaceOnUse"
       gradientTransform="matrix(2.0664963,0,0,2.0664963,-34.525221,-33.493375)"
       cx="32.372566"
       cy="31.405056"
       fx="32.372566"
       fy="31.405056"
       r="3.857446" />
    <linearGradient
       id="linearGradient6088-6-1-0">
      <stop
         style="stop-color:#ff54d2;stop-opacity:0;"
         offset="0"
         id="stop6090-2-0-4" />
      <stop
         id="stop6257-4-6-1"
         offset="0.32368398"
         style="stop-color:#ff54d2;stop-opacity:0;" />
      <stop
         id="stop6255-3-6-7"
         offset="0.56140333"
         style="stop-color:#ff54d2;stop-opacity:0.2521739;" />
      <stop
         style="stop-color:#ff54d2;stop-opacity:0.47826087;"
         offset="1"
         id="stop6092-9-6-8" />
    </linearGradient>
    <radialGradient
       inkscape:collect="always"
       xlink:href="#linearGradient6191-8-3-4"
       id="radialGradient4773"
       gradientUnits="userSpaceOnUse"
       gradientTransform="matrix(2.0676498,0.55402509,-0.5348486,1.9960821,-17.765612,-49.217228)"
       cx="32.372566"
       cy="31.405056"
       fx="32.372566"
       fy="31.405056"
       r="3.857446" />
    <linearGradient
       id="linearGradient6191-8-3-4">
      <stop
         id="stop6193-75-7-6"
         offset="0"
         style="stop-color:#ffffff;stop-opacity:0;" />
      <stop
         style="stop-color:#ffffff;stop-opacity:0"
         offset="0.40531859"
         id="stop6197-3-4-1" />
      <stop
         id="stop6195-7-2-5"
         offset="1"
         style="stop-color:#ffffff;stop-opacity:0.47826087;" />
    </linearGradient>
    <radialGradient
       inkscape:collect="always"
       xlink:href="#linearGradient6191-7-9-4"
       id="radialGradient4775"
       gradientUnits="userSpaceOnUse"
       gradientTransform="matrix(2.0676498,0.55402509,-0.5348486,1.9960821,-17.765612,-49.217228)"
       cx="32.372566"
       cy="31.405056"
       fx="32.372566"
       fy="31.405056"
       r="3.857446" />
    <linearGradient
       id="linearGradient6191-7-9-4">
      <stop
         id="stop6193-7-3-6"
         offset="0"
         style="stop-color:#ffffff;stop-opacity:0;" />
      <stop
         style="stop-color:#ffffff;stop-opacity:0"
         offset="0.40531859"
         id="stop6197-2-2-0" />
      <stop
         id="stop6195-2-1-9"
         offset="1"
         style="stop-color:#ffffff;stop-opacity:0.47826087;" />
    </linearGradient>
    <radialGradient
       inkscape:collect="always"
       xlink:href="#linearGradient6191-9-9"
       id="radialGradient4777"
       gradientUnits="userSpaceOnUse"
       gradientTransform="matrix(2.0676498,0.55402509,-0.5348486,1.9960821,-17.765612,-49.217228)"
       cx="32.372566"
       cy="31.405056"
       fx="32.372566"
       fy="31.405056"
       r="3.857446" />
    <linearGradient
       id="linearGradient6191-9-9">
      <stop
         id="stop6193-8-1"
         offset="0"
         style="stop-color:#ffffff;stop-opacity:0;" />
      <stop
         style="stop-color:#ffffff;stop-opacity:0"
         offset="0.40531859"
         id="stop6197-8-8" />
      <stop
         id="stop6195-9-3"
         offset="1"
         style="stop-color:#ffffff;stop-opacity:0.47826087;" />
    </linearGradient>
    <linearGradient
       inkscape:collect="always"
       xlink:href="#linearGradient3990-3-1-7"
       id="linearGradient4730"
       gradientUnits="userSpaceOnUse"
       gradientTransform="matrix(0.11534799,0,0,0.0865106,16.28139,17.444973)"
       x1="68.313301"
       y1="52.925316"
       x2="68.313301"
       y2="65.922028" />
    <linearGradient
       id="linearGradient3990-3-1-7">
      <stop
         id="stop3992-0-0-1"
         style="stop-color:#ffffff;stop-opacity:1"
         offset="0" />
      <stop
         id="stop3994-2-1-8"
         style="stop-color:#ffffff;stop-opacity:0"
         offset="1" />
    </linearGradient>
    <linearGradient
       inkscape:collect="always"
       xlink:href="#linearGradient4316-4-6-6-4"
       id="linearGradient4779"
       gradientUnits="userSpaceOnUse"
       x1="92.696327"
       y1="16.554602"
       x2="92.696327"
       y2="48.983677" />
    <linearGradient
       id="linearGradient4316-4-6-6-4">
      <stop
         offset="0"
         style="stop-color:#ffffff;stop-opacity:1"
         id="stop4318-4-4-6-5" />
      <stop
         offset="0.33799788"
         style="stop-color:#ffffff;stop-opacity:0.23529412"
         id="stop4320-2-2-6-59" />
      <stop
         offset="0.61996669"
         style="stop-color:#ffffff;stop-opacity:0.15686275"
         id="stop4322-4-5-5-0" />
      <stop
         offset="1"
         style="stop-color:#ffffff;stop-opacity:0.39215687"
         id="stop4324-4-1-5-5" />
    </linearGradient>
    <radialGradient
       inkscape:collect="always"
       xlink:href="#linearGradient6088-74-4"
       id="radialGradient4781"
       gradientUnits="userSpaceOnUse"
       gradientTransform="matrix(2.0664963,0,0,2.0664963,-34.525221,-33.493375)"
       cx="32.372566"
       cy="31.405056"
       fx="32.372566"
       fy="31.405056"
       r="3.857446" />
    <linearGradient
       id="linearGradient6088-74-4">
      <stop
         style="stop-color:#ff54d2;stop-opacity:0;"
         offset="0"
         id="stop6090-5-66" />
      <stop
         id="stop6257-5-4"
         offset="0.32368398"
         style="stop-color:#f62b68;stop-opacity:1" />
      <stop
         id="stop6255-6-7"
         offset="0.56140333"
         style="stop-color:#ff0105;stop-opacity:1" />
      <stop
         style="stop-color:#ff54d2;stop-opacity:0.47826087;"
         offset="1"
         id="stop6092-0-22" />
    </linearGradient>
    <linearGradient
       inkscape:collect="always"
       xlink:href="#linearGradient4316-4-0-7"
       id="linearGradient4783"
       gradientUnits="userSpaceOnUse"
       x1="92.696327"
       y1="16.554602"
       x2="92.696327"
       y2="48.983677" />
    <linearGradient
       id="linearGradient4316-4-0-7">
      <stop
         offset="0"
         style="stop-color:#ffffff;stop-opacity:1"
         id="stop4318-4-5-3" />
      <stop
         offset="0.33799788"
         style="stop-color:#ffffff;stop-opacity:0.23529412"
         id="stop4320-2-9-4" />
      <stop
         offset="0.61996669"
         style="stop-color:#ffffff;stop-opacity:0.15686275"
         id="stop4322-4-1-3" />
      <stop
         offset="1"
         style="stop-color:#ffffff;stop-opacity:0.39215687"
         id="stop4324-4-8-66" />
    </linearGradient>
    <radialGradient
       inkscape:collect="always"
       xlink:href="#linearGradient4278-3-5"
       id="radialGradient4738"
       gradientUnits="userSpaceOnUse"
       gradientTransform="matrix(0.40504519,-6.0397343e-8,5.6748136e-8,0.38056881,-14.881685,-12.451151)"
       cx="95.838364"
       cy="95.388451"
       fx="95.838364"
       fy="95.388451"
       r="9.4981718" />
    <linearGradient
       id="linearGradient4278-3-5">
      <stop
         id="stop4280-6-90"
         style="stop-color:#000000;stop-opacity:0"
         offset="0" />
      <stop
         id="stop4286-1-9"
         style="stop-color:#000000;stop-opacity:0"
         offset="0.5" />
      <stop
         id="stop4282-24-4"
         style="stop-color:#000000;stop-opacity:1"
         offset="1" />
    </linearGradient>
    <radialGradient
       inkscape:collect="always"
       xlink:href="#linearGradient2867-449-88-871-390-598-476-591-434-148-57-177-691-4-22"
       id="radialGradient4741"
       gradientUnits="userSpaceOnUse"
       gradientTransform="matrix(0,0.41038782,-0.54170722,0,26.16143,10.43124)"
       cx="23.896"
       cy="3.99"
       r="20.396999" />
    <linearGradient
       id="linearGradient2867-449-88-871-390-598-476-591-434-148-57-177-691-4-22">
      <stop
         id="stop7191-4-6"
         style="stop-color:#612f91;stop-opacity:1"
         offset="0" />
      <stop
         id="stop7197-2-8"
         style="stop-color:#1a4aa2;stop-opacity:1"
         offset="1" />
    </linearGradient>
    <linearGradient
       inkscape:collect="always"
       xlink:href="#linearGradient3087-408-5-3"
       id="linearGradient4743"
       gradientUnits="userSpaceOnUse"
       gradientTransform="matrix(0.17195169,0,0,0.17195091,19.87316,19.873055)"
       x1="7.0776"
       y1="3.0816"
       x2="7.0776"
       y2="45.368999" />
    <linearGradient
       x1="7.0776"
       y1="3.0816"
       x2="7.0776"
       y2="45.368999"
       id="linearGradient3087-408-5-3"
       gradientUnits="userSpaceOnUse"
       gradientTransform="matrix(0.22110724,0,0,0.22110728,6.6934256,6.693263)">
      <stop
         id="stop7201-5-71"
         style="stop-color:#170418;stop-opacity:1"
         offset="0" />
      <stop
         id="stop7203-2-8"
         style="stop-color:#50386b;stop-opacity:1"
         offset="1" />
    </linearGradient>
    <radialGradient
       inkscape:collect="always"
       xlink:href="#linearGradient6042-1-7"
       id="radialGradient4748"
       gradientUnits="userSpaceOnUse"
       gradientTransform="matrix(0,1.4370509,-3.3103161,0,94.30873,-29.673199)"
       cx="31.999998"
       cy="21.239277"
       fx="31.999998"
       fy="21.239277"
       r="10.498171" />
    <linearGradient
       id="linearGradient6042-1-7">
      <stop
         id="stop6044-9-6"
         offset="0"
         style="stop-color:#07132d;stop-opacity:1" />
      <stop
         id="stop6046-9-5"
         offset="1"
         style="stop-color:#425479;stop-opacity:1;" />
    </linearGradient>
    <radialGradient
       inkscape:collect="always"
       xlink:href="#linearGradient4507-6-5"
       id="radialGradient4785"
       gradientUnits="userSpaceOnUse"
       gradientTransform="matrix(0,1.9804002,-1.9804002,0,123.92313,-164.4618)"
       cx="91.349998"
       cy="16.447752"
       fx="91.349998"
       fy="16.447752"
       r="15.639286" />
    <linearGradient
       id="linearGradient4507-6-5">
      <stop
         style="stop-color:#2d3955;stop-opacity:1"
         offset="0"
         id="stop4509-3-8" />
      <stop
         id="stop5959-4-45"
         offset="0.72468865"
         style="stop-color:#2b3853;stop-opacity:1" />
      <stop
         style="stop-color:#192640;stop-opacity:1;"
         offset="0.75"
         id="stop5961-1-7" />
      <stop
         style="stop-color:#08142e;stop-opacity:1"
         offset="1"
         id="stop4511-1-0" />
    </linearGradient>
    <linearGradient
       inkscape:collect="always"
       xlink:href="#linearGradient4316-5-3"
       id="linearGradient4787"
       gradientUnits="userSpaceOnUse"
       x1="92.696327"
       y1="16.554602"
       x2="92.696327"
       y2="48.983677" />
    <linearGradient
       id="linearGradient4316-5-3">
      <stop
         offset="0"
         style="stop-color:#ffffff;stop-opacity:1"
         id="stop4318-1-6" />
      <stop
         offset="0.33799788"
         style="stop-color:#ffffff;stop-opacity:0.23529412"
         id="stop4320-9-8" />
      <stop
         offset="0.61996669"
         style="stop-color:#ffffff;stop-opacity:0.15686275"
         id="stop4322-42-31" />
      <stop
         offset="1"
         style="stop-color:#ffffff;stop-opacity:0.39215687"
         id="stop4324-9-9" />
    </linearGradient>
    <linearGradient
       inkscape:collect="always"
       xlink:href="#linearGradient4220-7-2"
       id="linearGradient4789"
       gradientUnits="userSpaceOnUse"
       x1="91.566116"
       y1="16.542858"
       x2="91.566116"
       y2="48.631081" />
    <linearGradient
       inkscape:collect="always"
       id="linearGradient4220-7-2">
      <stop
         style="stop-color:#7a8498;stop-opacity:1"
         offset="0"
         id="stop4222-7-5" />
      <stop
         style="stop-color:#34405c;stop-opacity:1"
         offset="1"
         id="stop4224-0-5" />
    </linearGradient>
    <linearGradient
       inkscape:collect="always"
       xlink:href="#linearGradient4164-9"
       id="linearGradient4756"
       gradientUnits="userSpaceOnUse"
       gradientTransform="matrix(0.66665978,0,0,0.66665668,-10.209335,2.6672249)"
       x1="51.199997"
       y1="8.1142893"
       x2="51.199997"
       y2="56.114563" />
    <linearGradient
       id="linearGradient4164-9">
      <stop
         style="stop-color:#b6b6b6;stop-opacity:1;"
         offset="0"
         id="stop4166-3" />
      <stop
         id="stop4216-6"
         offset="0.33095336"
         style="stop-color:#a4a4a4;stop-opacity:1;" />
      <stop
         style="stop-color:#c5c5c5;stop-opacity:1;"
         offset="1"
         id="stop4168-0" />
    </linearGradient>
    <linearGradient
       id="linearGradient4806-2">
      <stop
         id="stop4808-4"
         style="stop-color:#ffffff;stop-opacity:1"
         offset="0" />
      <stop
         id="stop4810-0"
         style="stop-color:#ffffff;stop-opacity:0.23529412"
         offset="0.42447853" />
      <stop
         id="stop4812-8"
         style="stop-color:#ffffff;stop-opacity:0.15686275"
         offset="0.82089913" />
      <stop
         id="stop4814-0"
         style="stop-color:#ffffff;stop-opacity:0.39215687"
         offset="1" />
    </linearGradient>
    <radialGradient
       gradientTransform="matrix(0,1.2316483,-1.625754,0,18.486966,-28.721977)"
       gradientUnits="userSpaceOnUse"
       id="radialGradient3093-0-3-6-6"
       r="20.396999"
       cy="3.99"
       cx="23.896">
      <stop
         offset="0"
         style="stop-color:#af0000;stop-opacity:1;"
         id="stop3244-9-33-7-0-9" />
      <stop
         offset="0.66093999"
         style="stop-color:#5e0a0a;stop-opacity:1;"
         id="stop3248-1-7-8-8-1" />
      <stop
         offset="1"
         style="stop-color:#340000;stop-opacity:1;"
         id="stop3250-9-3-0-5-1" />
    </radialGradient>
    <linearGradient
       id="linearGradient3820-7-2-1">
      <stop
         id="stop3822-2-6-3"
         style="stop-color:#3d3d3d;stop-opacity:1"
         offset="0" />
      <stop
         id="stop3864-8-7-7"
         style="stop-color:#686868;stop-opacity:0.49803922"
         offset="0.5" />
      <stop
         id="stop3824-1-2-5"
         style="stop-color:#686868;stop-opacity:0"
         offset="1" />
    </linearGradient>
    <linearGradient
       inkscape:collect="always"
       xlink:href="#linearGradient4806-2"
       id="linearGradient3107"
       gradientUnits="userSpaceOnUse"
       gradientTransform="matrix(1.6169806,0,0,1.6169806,-92.707374,-21.060237)"
       x1="71.204407"
       y1="15.369057"
       x2="71.204407"
       y2="40.495617" />
    <radialGradient
       inkscape:collect="always"
       xlink:href="#radialGradient3093-0-3-6-6"
       id="radialGradient3110"
       gradientUnits="userSpaceOnUse"
       gradientTransform="matrix(0,2.8885219,-3.8127977,0,39.21344,-65.949504)"
       cx="23.896"
       cy="3.99"
       fx="23.896"
       fy="3.99"
       r="20.396999" />
    <radialGradient
       inkscape:collect="always"
       xlink:href="#linearGradient3820-7-2-1"
       id="radialGradient3113"
       gradientUnits="userSpaceOnUse"
       gradientTransform="matrix(0.27083381,0,0,0.08762273,-2.85507,25.187228)"
       cx="99.157013"
       cy="186.17059"
       fx="99.157013"
       fy="186.17059"
       r="62.769119" />
    <radialGradient
       inkscape:collect="always"
       xlink:href="#radialGradient3887"
       id="radialGradient3885"
       gradientUnits="userSpaceOnUse"
       gradientTransform="matrix(0,1.3786873,-1.2719608,0,29.000812,-23.567598)"
       cx="26.562172"
       cy="4.0296049"
       fx="26.562172"
       fy="4.0296049"
       r="20.396999" />
    <radialGradient
       inkscape:collect="always"
       xlink:href="#radialGradient3093-0-3-6-6"
       id="radialGradient3905"
       cx="25.339682"
       cy="14.177508"
       fx="25.339682"
       fy="14.177508"
       r="11.548543"
       gradientTransform="matrix(-2.4213099e-8,5.2964277,-3.2488584,0,69.925571,-131.06687)"
       gradientUnits="userSpaceOnUse" />
    <clipPath
       clipPathUnits="userSpaceOnUse"
       id="clipPath3195">
      <path
         d="M 24,7.0304587 C 14.636795,7.0304587 7.0304578,14.636792 7.0304578,24 7.0304578,33.363208 14.636795,40.969545 24,40.969542 33.363205,40.969542 40.969551,33.363208 40.969542,24 40.969542,14.636792 33.363205,7.0304587 24,7.0304587 z"
         inkscape:connector-curvature="0"
         id="path3197"
         style="color:#000000;fill:url(#radialGradient3199);fill-opacity:1;fill-rule:nonzero;stroke:none;stroke-width:0.99999994;marker:none;visibility:visible;display:inline;overflow:visible;enable-background:accumulate" />
    </clipPath>
    <radialGradient
       inkscape:collect="always"
       xlink:href="#radialGradient3887"
       id="radialGradient3199"
       gradientUnits="userSpaceOnUse"
       gradientTransform="matrix(0,1.3786873,-1.2719608,0,29.000812,-23.567598)"
       cx="26.562172"
       cy="4.0296049"
       fx="26.562172"
       fy="4.0296049"
       r="20.396999" />
    <filter
       id="filter3301"
       inkscape:label="Canvas Bumps, matte"
       inkscape:menu="Bumps"
       inkscape:menu-tooltip="Same as Canvas Bumps but with a diffuse light instead of a specular one"
       color-interpolation-filters="sRGB">
      <feTurbulence
         id="feTurbulence3303"
         baseFrequency="0.2"
         seed="300"
         numOctaves="7"
         result="result1"
         type="turbulence" />
      <feDisplacementMap
         id="feDisplacementMap3305"
         in2="result1"
         xChannelSelector="R"
         result="result6" />
      <feBlend
         id="feBlend3307"
         in2="SourceGraphic"
         result="fbSourceGraphic"
         mode="screen"
         in="result6" />
      <feColorMatrix
         id="feColorMatrix3309"
         values="1 0 0 -1 0 1 0 1 -1 0 1 0 0 -1 0 -0.8 -1 0 4 -2.5 "
         result="fbSourceGraphicAlpha" />
      <feGaussianBlur
         id="feGaussianBlur3311"
         stdDeviation="0.5"
         in="fbSourceGraphicAlpha"
         result="result0" />
      <feDiffuseLighting
         id="feDiffuseLighting3313"
         result="result5"
         surfaceScale="15"
         diffuseConstant="0.4">
        <feDistantLight
           id="feDistantLight3315"
           azimuth="235"
           elevation="25" />
      </feDiffuseLighting>
      <feComposite
         id="feComposite3317"
         in2="SourceGraphic"
         result="result4"
         operator="arithmetic"
         k2="0.9"
         k3="0.9" />
      <feComposite
         id="feComposite3319"
         in2="SourceGraphic"
         in="result4"
         result="result2"
         operator="in" />
    </filter>
    <filter
       id="filter3339"
       x="-0.15"
       width="1.3"
       y="-0.15"
       height="1.3"
       inkscape:menu-tooltip="Stone wall texture to use with not too saturated colors"
       inkscape:menu="Textures"
       inkscape:label="Stone wall"
       color-interpolation-filters="sRGB">
      <feTurbulence
         id="feTurbulence3341"
         type="turbulence"
         numOctaves="5"
         baseFrequency="0.08 0.175"
         seed="25" />
      <feColorMatrix
         id="feColorMatrix3343"
         result="result5"
         values="1 0 0 0 0 0 1 0 0 0 0 0 1 0 0 0 0 0 2 0 " />
      <feComposite
         id="feComposite3345"
         in2="result5"
         in="SourceGraphic"
         operator="in" />
      <feMorphology
         id="feMorphology3347"
         operator="dilate"
         radius="0.65"
         result="result3" />
      <feTurbulence
         id="feTurbulence3349"
         numOctaves="7"
         baseFrequency="0.05 0.09"
         type="fractalNoise"
         seed="25" />
      <feGaussianBlur
         id="feGaussianBlur3351"
         stdDeviation="2"
         result="result7" />
      <feDisplacementMap
         id="feDisplacementMap3353"
         in2="result7"
         in="result3"
         xChannelSelector="R"
         yChannelSelector="G"
         scale="5"
         result="result4" />
      <feFlood
         id="feFlood3355"
         flood-opacity="1"
         flood-color="rgb(255,255,255)"
         result="result8" />
      <feComposite
         id="feComposite3357"
         in2="result4"
         k3="0.7"
         k1="0.7"
         result="result2"
         operator="arithmetic" />
      <feComposite
         id="feComposite3359"
         in2="SourceAlpha"
         k2="1"
         in="result2"
         operator="arithmetic"
         k1="1"
         result="result6" />
      <feBlend
         id="feBlend3361"
         in2="result6"
         mode="multiply"
         in="result6" />
    </filter>
    <linearGradient
       inkscape:collect="always"
       xlink:href="#linearGradient4131"
       id="linearGradient4137"
       x1="26.327349"
       y1="8.3451138"
       x2="13.568726"
       y2="35.595116"
       gradientUnits="userSpaceOnUse" />
    <radialGradient
       inkscape:collect="always"
       xlink:href="#radialGradient3093-0-3-6-6"
       id="radialGradient3146"
       gradientUnits="userSpaceOnUse"
       gradientTransform="matrix(-2.4213099e-8,5.2964277,-3.2488584,0,69.925571,-131.06687)"
       cx="25.339682"
       cy="14.177508"
       fx="25.339682"
       fy="14.177508"
       r="11.548543" />
    <radialGradient
       inkscape:collect="always"
       xlink:href="#radialGradient3887"
       id="radialGradient3152"
       gradientUnits="userSpaceOnUse"
       gradientTransform="matrix(0,1.3786873,-1.2719608,0,29.000812,-23.567598)"
       cx="26.562172"
       cy="4.0296049"
       fx="26.562172"
       fy="4.0296049"
       r="20.396999" />
    <linearGradient
       inkscape:collect="always"
       xlink:href="#linearGradient4806-2"
       id="linearGradient3156"
       gradientUnits="userSpaceOnUse"
       gradientTransform="matrix(1.6169806,0,0,1.6169806,-92.707374,-21.060237)"
       x1="71.204407"
       y1="15.369057"
       x2="71.204407"
       y2="40.495617" />
    <radialGradient
       inkscape:collect="always"
       xlink:href="#radialGradient3093-0-3-6-6"
       id="radialGradient3159"
       gradientUnits="userSpaceOnUse"
       gradientTransform="matrix(0,2.8885219,-3.8127977,0,39.21344,-65.949504)"
       cx="23.896"
       cy="3.99"
       fx="23.896"
       fy="3.99"
       r="20.396999" />
    <radialGradient
       inkscape:collect="always"
       xlink:href="#linearGradient3820-7-2-1"
       id="radialGradient3162"
       gradientUnits="userSpaceOnUse"
       gradientTransform="matrix(0.27083381,0,0,0.08762273,-2.85507,25.187228)"
       cx="99.157013"
       cy="186.17059"
       fx="99.157013"
       fy="186.17059"
       r="62.769119" />
    <clipPath
       clipPathUnits="userSpaceOnUse"
       id="clipPath3166">
      <path
         inkscape:connector-curvature="0"
         style="opacity:0.7;color:#000000;fill:none;stroke:#000000;stroke-width:0.83333331;stroke-opacity:1;marker:none;visibility:visible;display:inline;overflow:visible;enable-background:accumulate"
         d="m 24,6.9166666 c -9.425992,0 -17.0833333,7.6573384 -17.0833333,17.0833324 0,9.425993 7.6573413,17.083334 17.0833333,17.083334 9.425992,0 17.083342,-7.657341 17.083333,-17.083334 C 41.083333,14.574005 33.425992,6.9166666 24,6.9166666 z"
         id="path3168" />
    </clipPath>
    <radialGradient
       inkscape:collect="always"
       xlink:href="#radialGradient3887-3"
       id="radialGradient3178"
       gradientUnits="userSpaceOnUse"
       gradientTransform="matrix(0,1.9695532,-1.8170868,0,39.144016,-35.953711)"
       cx="26.562172"
       cy="4.0296049"
       fx="26.562172"
       fy="4.0296049"
       r="20.396999" />
    <radialGradient
       cx="23.896"
       cy="3.99"
       r="20.396999"
       id="radialGradient3887-3"
       gradientUnits="userSpaceOnUse"
       gradientTransform="matrix(0,1.2316483,-1.625754,0,18.486966,-28.721977)">
      <stop
         id="stop3889-6"
         style="stop-color:#323232;stop-opacity:1;"
         offset="0" />
      <stop
         id="stop3891-4"
         style="stop-color:#191919;stop-opacity:1;"
         offset="0.84763265" />
      <stop
         id="stop3893-2"
         style="stop-color:#0c0c0c;stop-opacity:1;"
         offset="1" />
    </radialGradient>
    <radialGradient
       inkscape:collect="always"
       xlink:href="#radialGradient3093-0-3-6"
       id="radialGradient3188"
       gradientUnits="userSpaceOnUse"
       gradientTransform="matrix(0,3.0649701,-2.2650546,0,68.222661,-78.729711)"
       cx="27.852608"
       cy="15.611503"
       fx="27.852608"
       fy="15.611503"
       r="16.795624" />
    <radialGradient
       cx="23.896"
       cy="3.99"
       r="20.396999"
       id="radialGradient3093-0-3-6"
       gradientUnits="userSpaceOnUse"
       gradientTransform="matrix(0,1.2316483,-1.625754,0,18.486966,-28.721977)">
      <stop
         id="stop3244-9-33-7-0"
         style="stop-color:#ff9c44;stop-opacity:1;"
         offset="0" />
      <stop
         id="stop3248-1-7-8-8"
         style="stop-color:#ff7e0c;stop-opacity:1;"
         offset="0.66093999" />
      <stop
         id="stop3250-9-3-0-5"
         style="stop-color:#cb5f00;stop-opacity:1;"
         offset="1" />
    </radialGradient>
    <radialGradient
       r="20.396999"
       fy="4.0296049"
       fx="26.562172"
       cy="4.0296049"
       cx="26.562172"
       gradientTransform="matrix(0,1.9695532,-1.8170868,0,-32.105983,-47.57871)"
       gradientUnits="userSpaceOnUse"
       id="radialGradient3218"
       xlink:href="#radialGradient3887-3"
       inkscape:collect="always" />
    <radialGradient
       cx="23.896"
       cy="3.99"
       r="20.396999"
       id="radialGradient3093-0-3-6-3"
       gradientUnits="userSpaceOnUse"
       gradientTransform="matrix(0,1.2316483,-1.625754,0,18.486966,-28.721977)">
      <stop
         id="stop3244-9-33-7-0-6"
         style="stop-color:#ff44f9;stop-opacity:1;"
         offset="0" />
      <stop
         id="stop3248-1-7-8-8-6"
         style="stop-color:#ff0ce9;stop-opacity:1;"
         offset="0.66093999" />
      <stop
         id="stop3250-9-3-0-5-2"
         style="stop-color:#cb00bf;stop-opacity:1;"
         offset="1" />
    </radialGradient>
    <radialGradient
       inkscape:collect="always"
       xlink:href="#radialGradient3887-4"
       id="radialGradient3178-3"
       gradientUnits="userSpaceOnUse"
       gradientTransform="matrix(0,1.3786872,-1.2719608,0,28.000811,-5.9671391)"
       cx="26.562172"
       cy="4.0296049"
       fx="26.562172"
       fy="4.0296049"
       r="20.396999" />
    <radialGradient
       cx="23.896"
       cy="3.99"
       r="20.396999"
       id="radialGradient3887-4"
       gradientUnits="userSpaceOnUse"
       gradientTransform="matrix(0,1.2316483,-1.625754,0,18.486966,-28.721977)">
      <stop
         id="stop3889-1"
         style="stop-color:#323232;stop-opacity:1;"
         offset="0" />
      <stop
         id="stop3891-5"
         style="stop-color:#191919;stop-opacity:1;"
         offset="0.84763265" />
      <stop
         id="stop3893-3"
         style="stop-color:#0c0c0c;stop-opacity:1;"
         offset="1" />
    </radialGradient>
    <radialGradient
       r="20.396999"
       fy="4.0296049"
       fx="26.562172"
       cy="4.0296049"
       cx="26.562172"
       gradientTransform="matrix(0,1.3786872,-1.2719608,0,-22.874189,-22.942597)"
       gradientUnits="userSpaceOnUse"
       id="radialGradient3246"
       xlink:href="#radialGradient3887-4"
       inkscape:collect="always" />
    <radialGradient
       inkscape:collect="always"
       xlink:href="#radialGradient3887"
       id="radialGradient3225"
       gradientUnits="userSpaceOnUse"
       gradientTransform="matrix(0,1.3786873,-1.2719608,0,29.000812,-23.567598)"
       cx="26.562172"
       cy="4.0296049"
       fx="26.562172"
       fy="4.0296049"
       r="20.396999" />
    <radialGradient
       inkscape:collect="always"
       xlink:href="#radialGradient3887"
       id="radialGradient3241"
       gradientUnits="userSpaceOnUse"
       gradientTransform="matrix(0,1.3786873,-1.2719608,0,29.000812,-23.567598)"
       cx="26.562172"
       cy="4.0296049"
       fx="26.562172"
       fy="4.0296049"
       r="20.396999" />
    <linearGradient
       inkscape:collect="always"
       xlink:href="#linearGradient4806-2"
       id="linearGradient3189"
       gradientUnits="userSpaceOnUse"
       gradientTransform="matrix(1.6169806,0,0,1.6169806,-92.707374,-21.060237)"
       x1="71.204407"
       y1="15.369057"
       x2="71.204407"
       y2="40.495617" />
    <radialGradient
       inkscape:collect="always"
       xlink:href="#radialGradient3093-0-3-6-3"
       id="radialGradient3192"
       gradientUnits="userSpaceOnUse"
       gradientTransform="matrix(0,2.8885219,-3.8127977,0,39.21344,-65.949505)"
       cx="23.896"
       cy="3.99"
       fx="23.896"
       fy="3.99"
       r="20.396999" />
    <radialGradient
       inkscape:collect="always"
       xlink:href="#linearGradient3820-7-2-1"
       id="radialGradient3195"
       gradientUnits="userSpaceOnUse"
       gradientTransform="matrix(0.27083381,0,0,0.08762273,-2.85507,25.187228)"
       cx="99.157013"
       cy="186.17059"
       fx="99.157013"
       fy="186.17059"
       r="62.769119" />
    <linearGradient
       inkscape:collect="always"
       xlink:href="#linearGradient5803"
       id="linearGradient3990"
       x1="4.3265858"
       y1="24"
       x2="43.673412"
       y2="24"
       gradientUnits="userSpaceOnUse" />
    <linearGradient
       inkscape:collect="always"
       xlink:href="#linearGradient5803"
       id="linearGradient3023"
       gradientUnits="userSpaceOnUse"
       gradientTransform="matrix(0.71090703,0,0,0.71090703,-91.334988,2.139763)"
       x1="167.98311"
       y1="8.50811"
       x2="167.98311"
       y2="54.780239" />
    <linearGradient
       id="linearGradient5803">
      <stop
         id="stop5805"
         style="stop-color:#fff5ef;stop-opacity:1"
         offset="0" />
      <stop
         id="stop5807"
         style="stop-color:#fef8dd;stop-opacity:1"
         offset="1" />
    </linearGradient>
    <linearGradient
       y2="54.780239"
       x2="167.98311"
       y1="8.50811"
       x1="167.98311"
       gradientTransform="matrix(0.71090703,0,0,0.71090703,-91.334988,2.139763)"
       gradientUnits="userSpaceOnUse"
       id="linearGradient3061"
       xlink:href="#linearGradient5803"
       inkscape:collect="always" />
    <linearGradient
       inkscape:collect="always"
       xlink:href="#linearGradient5803"
       id="linearGradient4023"
       gradientUnits="userSpaceOnUse"
       x1="4.3265858"
       y1="24"
       x2="43.673412"
       y2="24" />
    <linearGradient
       inkscape:collect="always"
       xlink:href="#linearGradient5803"
       id="linearGradient4025"
       gradientUnits="userSpaceOnUse"
       x1="4.3265858"
       y1="24"
       x2="43.673412"
       y2="24" />
    <linearGradient
       inkscape:collect="always"
       xlink:href="#linearGradient5803"
       id="linearGradient4027"
       gradientUnits="userSpaceOnUse"
       x1="4.3265858"
       y1="24"
       x2="43.673412"
       y2="24" />
    <linearGradient
       inkscape:collect="always"
       xlink:href="#linearGradient5803"
       id="linearGradient4029"
       gradientUnits="userSpaceOnUse"
       x1="4.3265858"
       y1="24"
       x2="43.673412"
       y2="24" />
    <linearGradient
       inkscape:collect="always"
       xlink:href="#linearGradient2490-1-7"
       id="linearGradient3933"
       gradientUnits="userSpaceOnUse"
       gradientTransform="matrix(0.49667601,0,0,0.50834023,-313.41781,-210.18268)"
       x1="612.70459"
       y1="481.67188"
       x2="612.70459"
       y2="422.65628" />
    <linearGradient
       id="linearGradient2490-1-7">
      <stop
         id="stop2492-7-5"
         style="stop-color:#121579;stop-opacity:1;"
         offset="0" />
      <stop
         id="stop2494-2-7"
         style="stop-color:#2795dd;stop-opacity:1;"
         offset="1" />
    </linearGradient>
    <linearGradient
       inkscape:collect="always"
       xlink:href="#linearGradient2490-1-2"
       id="linearGradient3935"
       gradientUnits="userSpaceOnUse"
       gradientTransform="matrix(0.49667601,0,0,0.50834023,-313.41781,-210.18268)"
       x1="612.70459"
       y1="479.70468"
       x2="612.70459"
       y2="422.65628" />
    <linearGradient
       id="linearGradient2490-1-2">
      <stop
         id="stop2492-7-3"
         style="stop-color:#123479;stop-opacity:1;"
         offset="0" />
      <stop
         id="stop2494-2-4"
         style="stop-color:#2774dd;stop-opacity:1;"
         offset="1" />
    </linearGradient>
    <linearGradient
       inkscape:collect="always"
       xlink:href="#linearGradient2490-1"
       id="linearGradient3937"
       gradientUnits="userSpaceOnUse"
       gradientTransform="matrix(0.49667601,0,0,0.50834023,-313.41781,-210.18268)"
       x1="612.70459"
       y1="477.73749"
       x2="612.70459"
       y2="422.65628" />
    <linearGradient
       id="linearGradient2490-1">
      <stop
         id="stop2492-7"
         style="stop-color:#123179;stop-opacity:1;"
         offset="0" />
      <stop
         id="stop2494-2"
         style="stop-color:#2774dd;stop-opacity:1;"
         offset="1" />
    </linearGradient>
    <linearGradient
       inkscape:collect="always"
       xlink:href="#radialGradient3093-0-3-6-3"
       id="linearGradient3997"
       gradientUnits="userSpaceOnUse"
       gradientTransform="matrix(0.49667601,0,0,0.50834023,-277.09343,-210.17426)"
       x1="612.70459"
       y1="477.73749"
       x2="612.70459"
       y2="422.65628" />
    <linearGradient
       inkscape:collect="always"
       xlink:href="#radialGradient3093-0-3-6-3"
       id="linearGradient4000"
       gradientUnits="userSpaceOnUse"
       gradientTransform="matrix(0.49667601,0,0,0.50834023,-277.09343,-210.17426)"
       x1="612.70459"
       y1="479.70468"
       x2="612.70459"
       y2="422.65628" />
    <linearGradient
       inkscape:collect="always"
       xlink:href="#radialGradient3093-0-3-6-3"
       id="linearGradient4003"
       gradientUnits="userSpaceOnUse"
       gradientTransform="matrix(0.49667601,0,0,0.50834023,-277.09343,-210.17426)"
       x1="612.70459"
       y1="481.67188"
       x2="612.70459"
       y2="422.65628" />
    <linearGradient
       inkscape:collect="always"
       xlink:href="#radialGradient3093-0-3-6-3"
       id="linearGradient4010"
       gradientUnits="userSpaceOnUse"
       gradientTransform="matrix(0.49667601,0,0,0.50834023,-277.09343,-210.17426)"
       x1="612.70459"
       y1="479.70468"
       x2="612.70459"
       y2="422.65628" />
    <linearGradient
       inkscape:collect="always"
       xlink:href="#radialGradient3093-0-3-6-3"
       id="linearGradient4012"
       gradientUnits="userSpaceOnUse"
       gradientTransform="matrix(0.49667601,0,0,0.50834023,-277.09343,-210.17426)"
       x1="612.70459"
       y1="477.73749"
       x2="612.70459"
       y2="422.65628" />
    <linearGradient
       inkscape:collect="always"
       xlink:href="#radialGradient3093-0-3-6-3"
       id="linearGradient4016"
       gradientUnits="userSpaceOnUse"
       gradientTransform="matrix(0.49667601,0,0,0.50834023,-243.57964,-210.23835)"
       x1="612.70459"
       y1="477.73749"
       x2="612.70459"
       y2="422.65628" />
    <linearGradient
       inkscape:collect="always"
       xlink:href="#radialGradient3093-0-3-6-3"
       id="linearGradient4019"
       gradientUnits="userSpaceOnUse"
       gradientTransform="matrix(0.49667601,0,0,0.50834023,-243.57964,-210.23835)"
       x1="612.70459"
       y1="479.70468"
       x2="612.70459"
       y2="422.65628" />
    <radialGradient
       inkscape:collect="always"
       xlink:href="#linearGradient3820-7-2-1"
       id="radialGradient3220"
       gradientUnits="userSpaceOnUse"
       gradientTransform="matrix(0.27083381,0,0,0.08762273,-2.85507,25.187228)"
       cx="99.157013"
       cy="186.17059"
       fx="99.157013"
       fy="186.17059"
       r="62.769119" />
    <linearGradient
       inkscape:collect="always"
       id="linearGradient4059-7">
      <stop
         style="stop-color:#333333;stop-opacity:1"
         offset="0"
         id="stop4061-2" />
      <stop
         style="stop-color:#1a1a1a;stop-opacity:1"
         offset="1"
         id="stop4063-0" />
    </linearGradient>
    <linearGradient
       inkscape:collect="always"
       xlink:href="#linearGradient6303-33-0-2"
       id="linearGradient4509"
       x1="2.5"
       y1="1.5"
       x2="2.875"
       y2="62.125"
       gradientUnits="userSpaceOnUse"
       gradientTransform="matrix(-0.73182709,-0.80816323,0.80816323,-0.73182709,29.759094,74.939854)" />
    <linearGradient
       inkscape:collect="always"
       xlink:href="#linearGradient6303-33-0-2"
       id="linearGradient4539"
       gradientUnits="userSpaceOnUse"
       gradientTransform="matrix(-0.73182709,-0.80816323,0.80816323,-0.73182709,29.759094,74.939854)"
       x1="2.5"
       y1="1.5"
       x2="2.875"
       y2="62.125" />
    <radialGradient
       inkscape:collect="always"
       xlink:href="#linearGradient4059-7"
       id="radialGradient4572"
       gradientUnits="userSpaceOnUse"
       gradientTransform="matrix(-0.02867454,2.6619374,-1.3623427,-0.01467523,12.307836,-102.09798)"
       cx="33.251587"
       cy="-9.3184195"
       fx="33.251587"
       fy="-9.3184195"
       r="25.456741" />
  </defs>
  <sodipodi:namedview
     id="base"
     pagecolor="#ff8cff"
     bordercolor="#666666"
     borderopacity="1.0"
     inkscape:pageopacity="0"
     inkscape:pageshadow="2"
     inkscape:zoom="15.07"
     inkscape:cx="21.688307"
     inkscape:cy="31.729013"
     inkscape:current-layer="layer1"
     showgrid="true"
     inkscape:grid-bbox="true"
     inkscape:document-units="px"
     inkscape:window-width="1600"
     inkscape:window-height="845"
     inkscape:window-x="0"
     inkscape:window-y="30"
     inkscape:window-maximized="1" />
  <metadata
     id="metadata4956">
    <rdf:RDF>
      <cc:Work
         rdf:about="">
        <dc:format>image/svg+xml</dc:format>
        <dc:type
           rdf:resource="http://purl.org/dc/dcmitype/StillImage" />
        <dc:title />
      </cc:Work>
    </rdf:RDF>
  </metadata>
  <g
     id="layer1"
     inkscape:label="Layer 1"
     inkscape:groupmode="layer">
    <g
       id="g4523"
       transform="matrix(0.07529168,-0.04246893,0.04246893,0.07529168,12.325381,28.282278)">
      <g
         id="g4483" />
      <g
         id="g4487" />
      <g
         id="g4489" />
      <g
         id="g4491" />
      <g
         id="g4493" />
      <g
         id="g4495" />
      <g
         id="g4497" />
      <g
         id="g4499" />
      <g
         id="g4501" />
      <g
         id="g4503" />
      <g
         id="g4505" />
      <g
         id="g4507" />
      <g
         id="g4509" />
      <g
         id="g4511" />
      <g
         id="g4513" />
      <g
         id="g4515" />
    </g>
    <path
       inkscape:connector-curvature="0"
       style="fill:url(#radialGradient3220);fill-opacity:1;stroke:none"
       id="path3818-0-5"
       d="m 41,41.5 a 17,5.4999999 0 0 1 -34,0 17,5.4999999 0 1 1 34,0 z" />
    <path
       style="display:inline;fill:#767676;fill-opacity:1;stroke:none;stroke-width:1;stroke-linecap:butt;stroke-linejoin:miter;stroke-miterlimit:4;stroke-dasharray:none;stroke-opacity:0.47402595"
       d="M 37.676947,35.834379 C 29.055259,45.355386 21.540957,45.087146 16.381508,40.718876 8.6380372,34.162835 1.4748983,10.347979 5.558855,5.8380292 9.6428123,1.3280787 35.349423,8.1902327 40.861584,13.181736 c 5.512161,4.991502 5.890822,12.63053 -3.184637,22.652643 z"
       id="path3607-8-2"
       inkscape:connector-curvature="0"
       sodipodi:nodetypes="sssss"
       inkscape:transform-center-x="-4.5961941" />
    <path
       inkscape:connector-curvature="0"
       style="display:inline;fill:url(#radialGradient4572);fill-opacity:1;stroke:none;stroke-width:1;stroke-linecap:butt;stroke-linejoin:miter;stroke-miterlimit:4;stroke-dasharray:none;stroke-opacity:0.47402595"
       d="M 10.904297,4.3730469 C 8.3792975,4.4098715 6.4519594,4.851339 5.5585938,5.8378906 1.4746371,10.34784 8.6373886,34.162709 16.380859,40.71875 c 1.664577,1.409321 3.578497,2.383307 5.691407,2.748047 -0.199201,-0.831829 -0.126878,-1.60553 0.279296,-2.214844 0.180598,-0.272076 0.420778,-0.491392 0.699219,-0.666015 l -0.0059,-0.002 c 0,0 3.42313,-2.224256 3.019531,-6.224609 -0.403396,-4.00017 -0.789147,-5.232032 0.271485,-4.025391 1.061004,1.207126 1.290292,3.216065 2.037109,3.697266 0.746624,0.481211 0.86566,0.401284 1.259765,0.167969 0.09068,-0.05373 0.172648,-0.09751 0.251954,-0.138672 l 3.535156,-12.677735 -0.04297,-0.01172 c -0.06334,-0.01747 -0.101803,-0.08324 -0.08398,-0.146485 l 0.0293,-0.103515 c 0.01461,-0.0524 0.06457,-0.07851 0.117187,-0.07813 0.06898,-0.296651 0.06537,-0.781355 -0.447265,-1.265625 -0.04759,-0.04531 -0.04397,-0.108731 0.0098,-0.146485 0.0537,-0.03764 0.103315,-0.07742 0.152344,-0.117187 l -0.193359,-0.05273 c -0.03463,0.10171 -0.08268,0.166989 -0.210938,0.130859 -0.191479,-0.05337 -0.303285,-0.253683 -0.25,-0.445313 0.05329,-0.191629 0.251796,-0.30352 0.443359,-0.25 0.129089,0.03566 0.135793,0.117759 0.113282,0.222657 l 0.398437,0.111328 c 0.17908,-0.201747 0.3082,-0.415342 0.398438,-0.628907 l -0.376954,-0.105468 c -0.03472,0.101559 -0.08422,0.166659 -0.21289,0.130859 -0.19194,-0.05331 -0.303746,-0.251668 -0.25,-0.443359 0.05362,-0.191917 0.253706,-0.303596 0.445312,-0.25 0.128134,0.0359 0.134216,0.115593 0.111328,0.220703 l 0.396485,0.111328 c 0.06453,-0.254742 0.08468,-0.499959 0.08008,-0.716797 L 33.648438,17.4375 c -0.03472,0.10156 -0.08418,0.166735 -0.212891,0.130859 -0.191606,-0.0536 -0.30337,-0.25188 -0.25,-0.443359 0.05329,-0.191629 0.253372,-0.305261 0.445312,-0.251953 0.128713,0.03588 0.133873,0.11764 0.111329,0.222656 l 0.271484,0.07617 c -0.0158,-0.11088 -0.03593,-0.205474 -0.05273,-0.275391 -0.03589,-0.141925 -0.06578,-0.329693 -0.0918,-0.523437 -0.0085,-0.06518 0.01578,-0.160609 0.06055,-0.208985 0.291864,-0.318858 0.746859,-0.467655 1.191406,-0.34375 l 0.04883,0.01367 c 0.02626,0.0073 0.0025,0.04291 -0.04883,0.08399 -0.165201,0.13169 -0.286308,0.288498 -0.316406,0.396484 -0.06858,0.246506 0.250016,0.55269 0.71289,0.681641 0.462295,0.12898 0.891859,0.03254 0.960938,-0.214844 0.03048,-0.108199 0.0074,-0.305543 -0.06641,-0.503906 -0.0223,-0.06136 -0.02273,-0.102811 0.0039,-0.0957 0.02677,0.0075 0.04687,0.01367 0.04687,0.01367 0.446312,0.124399 0.760638,0.489787 0.84375,0.916016 0.01246,0.06413 -0.01561,0.157854 -0.05664,0.208984 -0.121466,0.150988 -0.24224,0.293871 -0.34375,0.396485 -0.05103,0.05082 -0.118065,0.120515 -0.189453,0.207031 L 36.986328,18 c 0.03472,-0.10156 0.08223,-0.166735 0.210938,-0.130859 0.19194,0.05331 0.305539,0.25156 0.251953,0.443359 -0.05359,0.191799 -0.253749,0.30352 -0.445313,0.25 -0.128336,-0.03609 -0.134216,-0.115593 -0.111328,-0.220703 l -0.398437,-0.111328 c -0.115853,0.182756 -0.226399,0.403417 -0.302735,0.654297 l 0.394532,0.109375 c 0.03472,-0.10156 0.08227,-0.16666 0.210937,-0.13086 0.191564,0.05352 0.303242,0.253608 0.25,0.445313 -0.05337,0.191479 -0.251805,0.303327 -0.443359,0.25 -0.129089,-0.03566 -0.136254,-0.117697 -0.113282,-0.222656 l -0.375,-0.103516 c -0.03348,0.229385 -0.03362,0.476293 0.01563,0.742187 l 0.398438,0.111329 c 0.03421,-0.101574 0.08268,-0.16699 0.210937,-0.13086 0.191931,0.05311 0.303695,0.2514 0.25,0.44336 -0.05321,0.191586 -0.251795,0.30352 -0.443359,0.25 -0.128637,-0.03592 -0.136329,-0.115701 -0.113281,-0.220704 L 36.242188,20.375 c 0.02208,0.0592 0.04112,0.11873 0.06836,0.179688 0.02615,0.06008 -0.0023,0.114906 -0.06641,0.128906 -0.689465,0.149913 -0.943016,0.563738 -1.03711,0.853515 0.04279,0.02747 0.07112,0.07396 0.05664,0.125 l -0.0293,0.103516 c -0.01752,0.06308 -0.08164,0.09975 -0.144531,0.08203 l -0.04297,-0.01172 -3.916016,14.044921 c 0.0231,0.506525 0.162136,1.51455 0.894532,1.71875 0.986386,0.274613 1.702878,-0.770826 2.003906,-1.416015 0.301028,-0.645189 0.808224,-0.169018 0.75,0.695312 -0.05919,0.864379 -0.42052,1.613595 -1.074219,2.433594 -0.170998,0.214613 -0.332282,0.426671 -0.470703,0.65625 1.442781,-1.100564 2.925084,-2.45812 4.443359,-4.134766 9.075467,-10.02211 8.695763,-17.660838 3.183602,-22.65234 C 36.554952,9.2820287 19.922152,4.2415302 10.904297,4.3730469 Z"
       id="path4570" />
    <path
       sodipodi:type="inkscape:offset"
       inkscape:radius="-1.0461588"
       inkscape:original="M 32.5 -0.5 C 12.5 -0.5 4.5 7.5 4.5 18.5 C 4.5 29.5 22.5 64.5 31.5 64.5 C 40.5 64.5 59.5 33 59 18 C 58.666852 8.0055509 51.5 -0.5 32.5 -0.5 z "
       style="display:inline;opacity:0.98000004;fill:none;stroke:url(#linearGradient4539);stroke-width:1px;stroke-linecap:butt;stroke-linejoin:miter;stroke-opacity:0.47402595"
       id="path4398-7-9"
       d="m 32.5,0.546875 c -9.860512,0 -16.630944,1.9844388 -20.873047,5.1660156 C 7.3848506,8.8944675 5.546875,13.253614 5.546875,18.5 c 0,2.464684 1.0783038,6.686119 2.8847656,11.457031 1.8064614,4.770912 4.3190644,10.141113 7.1074214,15.160157 2.788358,5.019043 5.858512,9.692866 8.740235,13.0625 2.881723,3.369633 5.648769,5.273437 7.220703,5.273437 1.639741,0 4.446115,-1.727314 7.40625,-4.832031 2.960135,-3.104718 6.132712,-7.458501 9.007812,-12.28125 C 53.664263,36.694346 58.189567,25.06981 57.955078,18.035156 57.796496,13.277701 56.058555,8.9971243 52.095703,5.8183594 48.132851,2.6395945 41.843892,0.546875 32.5,0.546875 Z"
       transform="matrix(-0.45087863,0.4960711,-0.4979093,-0.44921405,52.204528,19.354566)"
       inkscape:transform-center-x="-3.3683354"
       inkscape:transform-center-y="0.0015176873" />
    <path
       inkscape:transform-center-x="-4.5961941"
       sodipodi:nodetypes="sssss"
       inkscape:connector-curvature="0"
       id="path4058-6"
       d="M 37.676947,35.834379 C 29.055259,45.355386 21.540957,45.087146 16.381508,40.718876 8.6380372,34.162835 1.4748983,10.347979 5.558855,5.8380292 9.6428123,1.3280787 35.349423,8.1902327 40.861584,13.181736 c 5.512161,4.991502 5.890822,12.63053 -3.184637,22.652643 z"
       style="display:inline;fill:none;fill-opacity:1;stroke:#000000;stroke-width:0.73705846;stroke-linecap:butt;stroke-linejoin:miter;stroke-miterlimit:4;stroke-dasharray:none;stroke-opacity:0.43209881" />
    <g
       transform="scale(0.96838926,1.0326426)"
       style="font-style:normal;font-weight:normal;font-size:13.42763233px;line-height:125%;font-family:sans-serif;letter-spacing:0px;word-spacing:0px;fill:#767676;fill-opacity:1;stroke:none;stroke-width:1px;stroke-linecap:butt;stroke-linejoin:miter;stroke-opacity:1"
       id="text4575">
      <path
         style="font-style:normal;font-variant:normal;font-weight:normal;font-stretch:normal;font-family:'Capture it';-inkscape-font-specification:'Capture it';fill:#767676;fill-opacity:1"
         d="M 22.691406 11 L 22.628906 11.134766 L 22.628906 11.175781 L 22.857422 11 L 22.691406 11 z M 18.958984 11.244141 L 18.894531 11.310547 L 18.894531 11.900391 L 19.091797 11.900391 L 19.091797 11.933594 L 19.060547 11.96875 L 19.060547 12.035156 L 19.123047 12.144531 L 19.123047 12.177734 L 19.021484 12.109375 L 18.958984 12.109375 L 18.894531 12.177734 L 18.894531 14.771484 L 18.990234 14.736328 L 19.060547 14.804688 L 19.060547 14.873047 L 18.894531 14.873047 L 18.894531 16.775391 L 18.958984 16.849609 L 19.021484 16.849609 L 19.091797 16.503906 L 19.060547 16.462891 C 19.166367 16.431292 19.21875 16.3868 19.21875 16.328125 L 19.25 16.328125 L 19.25 16.429688 L 19.1875 16.539062 L 19.1875 16.742188 L 19.25 16.849609 L 19.1875 16.951172 C 18.992791 16.951172 18.894531 16.974398 18.894531 17.019531 L 18.894531 20.478516 L 18.958984 20.478516 L 18.990234 20.308594 L 18.990234 20.201172 L 19.15625 20.242188 L 19.15625 20.132812 L 19.21875 20.201172 L 19.21875 20.242188 C 19.134094 20.242187 19.025748 20.436044 18.894531 20.824219 L 18.894531 20.898438 L 18.990234 21 L 19.416016 21 L 19.542969 20.966797 L 19.675781 21 L 19.833984 21 C 20.096419 21 20.228516 20.966144 20.228516 20.898438 L 20.419922 20.898438 C 20.419922 20.966144 20.440097 21 20.482422 21 L 20.615234 21 C 20.657559 21 20.679688 20.966144 20.679688 20.898438 L 20.710938 20.898438 L 20.84375 21 L 20.908203 21 L 20.970703 20.931641 L 20.970703 17.052734 L 20.8125 17.085938 C 20.757472 17.270997 20.713549 17.363281 20.679688 17.363281 L 20.615234 17.363281 C 20.615234 17.25044 20.584978 17.195312 20.521484 17.195312 L 20.521484 17.019531 L 20.679688 17.019531 C 20.78974 16.915717 20.84375 16.776987 20.84375 16.605469 L 20.939453 16.605469 L 20.939453 16.640625 L 20.908203 16.673828 L 20.970703 16.673828 L 20.970703 16.361328 L 20.84375 16.226562 L 20.84375 16.193359 L 20.876953 16.152344 L 20.908203 16.152344 L 20.939453 16.193359 L 20.970703 16.193359 L 20.970703 11.554688 L 20.876953 11.521484 C 20.876953 11.404129 20.854825 11.345703 20.8125 11.345703 L 20.742188 11.345703 L 20.648438 11.412109 L 20.615234 11.412109 L 20.615234 11.378906 L 20.679688 11.277344 L 20.679688 11.244141 L 19.867188 11.244141 L 19.833984 11.277344 L 19.802734 11.244141 L 18.958984 11.244141 z M 21.359375 11.244141 L 21.294922 11.310547 L 21.294922 12.970703 L 21.359375 13.044922 L 21.650391 13.044922 L 21.783203 12.935547 L 21.847656 12.935547 L 21.847656 12.970703 L 21.816406 13.003906 L 21.816406 13.044922 L 21.980469 13.078125 L 22.203125 12.970703 L 22.203125 13.003906 L 22.234375 13.044922 L 22.564453 13.003906 C 22.691437 13.003906 22.755859 13.028476 22.755859 13.078125 C 23.39078 13.078125 23.779913 13.458503 23.923828 14.216797 L 23.923828 14.392578 C 23.923828 15.087681 23.600744 15.547755 22.953125 15.773438 L 22.984375 15.880859 L 22.984375 15.916016 L 22.888672 15.916016 C 22.804016 15.843797 22.707709 15.806641 22.597656 15.806641 L 21.359375 15.806641 L 21.294922 15.880859 L 21.294922 16.539062 L 21.359375 16.605469 L 21.294922 16.707031 L 21.294922 17.574219 L 21.359375 17.642578 L 22.107422 17.642578 C 23.626999 17.642578 24.61187 17.388341 25.060547 16.882812 L 25.029297 16.775391 L 25.060547 16.673828 L 25.123047 16.673828 L 25.123047 16.742188 L 25.15625 16.742188 L 25.384766 16.539062 L 25.351562 16.429688 L 25.351562 16.396484 L 25.416016 16.396484 C 25.805434 15.895469 26 15.248873 26 14.458984 L 26 14.324219 C 26 13.638143 25.805434 12.979567 25.416016 12.347656 L 25.447266 12.3125 L 25.447266 12.279297 L 25.416016 12.3125 C 24.865751 11.599343 23.97914 11.244141 22.755859 11.244141 L 21.359375 11.244141 z M 14.132812 11.291016 C 12.850273 11.291016 11.760636 11.861952 10.863281 13.003906 C 10.384972 13.820878 10.119477 14.565747 10.064453 15.238281 L 10.064453 15.271484 L 10.095703 15.306641 C 10.032209 15.306641 10 15.569559 10 16.097656 C 10 16.580618 10.032209 16.822266 10.095703 16.822266 L 10.121094 16.720703 C 10.095696 16.720703 10.077152 16.656287 10.064453 16.525391 L 10.183594 16.591797 L 10.152344 16.619141 L 10.216797 16.755859 L 10.335938 16.654297 L 10.369141 16.654297 L 10.279297 16.755859 L 10.310547 16.917969 L 10.310547 16.984375 L 10.216797 16.984375 L 10.064453 16.882812 C 10.064453 17.212309 10.10317 17.376953 10.183594 17.376953 L 10.335938 17.376953 L 10.335938 17.316406 L 10.615234 17.316406 L 10.800781 17.25 L 10.800781 17.283203 L 10.863281 17.214844 L 10.863281 17.181641 L 10.958984 17.214844 L 10.990234 17.214844 L 11.015625 17.181641 L 11.080078 17.181641 L 11.046875 17.214844 L 11.080078 17.25 L 11.015625 17.376953 L 11.046875 17.412109 L 11.046875 17.445312 L 11.015625 17.478516 L 10.894531 17.412109 L 10.894531 17.445312 L 10.863281 17.412109 C 10.761694 17.479814 10.710938 17.567454 10.710938 17.675781 C 10.749036 17.775084 10.789706 17.828865 10.832031 17.837891 L 10.958984 17.837891 L 11.015625 17.777344 C 11.066419 17.777344 11.1393 17.831125 11.232422 17.939453 L 11.263672 17.939453 C 11.327166 17.939453 11.359375 17.894961 11.359375 17.804688 L 11.390625 17.804688 L 11.421875 17.837891 L 11.390625 17.871094 L 11.390625 17.90625 L 11.421875 17.939453 L 11.421875 17.972656 L 11.359375 18.041016 L 11.359375 17.972656 L 11.294922 17.972656 L 11.263672 18.007812 L 11.173828 17.939453 L 11.173828 17.972656 L 11.080078 17.939453 L 11.046875 17.939453 L 11.111328 18.136719 L 11.046875 18.136719 L 11.015625 18.101562 L 11.046875 18.068359 C 10.970684 17.937464 10.869171 17.871094 10.742188 17.871094 L 10.742188 17.90625 L 10.583984 17.871094 L 10.615234 17.642578 L 10.648438 17.642578 L 10.679688 17.675781 L 10.679688 17.607422 L 10.648438 17.574219 L 10.742188 17.478516 L 10.679688 17.412109 L 10.583984 17.412109 L 10.583984 17.513672 L 10.552734 17.478516 L 10.527344 17.478516 L 10.496094 17.513672 C 10.496094 17.445965 10.473966 17.412109 10.431641 17.412109 L 10.462891 17.574219 C 10.318976 17.574219 10.248047 17.672493 10.248047 17.871094 C 10.438523 18.462382 10.572247 18.759766 10.648438 18.759766 L 10.679688 18.759766 L 10.648438 18.861328 L 11.111328 19.550781 L 11.173828 19.482422 L 11.207031 19.482422 L 11.232422 19.517578 L 11.207031 19.652344 C 11.719201 20.207523 12.160716 20.5461 12.533203 20.667969 C 12.613626 20.667969 12.654297 20.624821 12.654297 20.539062 L 12.685547 20.539062 C 12.744806 20.539063 12.775391 20.58221 12.775391 20.667969 L 12.837891 20.607422 L 13.021484 20.667969 L 12.996094 20.837891 L 13.548828 20.966797 L 13.548828 20.931641 L 13.613281 20.931641 C 13.592119 20.778177 13.549822 20.701172 13.486328 20.701172 L 13.486328 20.667969 L 13.517578 20.667969 L 13.548828 20.701172 L 13.517578 20.539062 L 13.548828 20.4375 C 13.468405 20.4375 13.427734 20.406941 13.427734 20.34375 L 13.486328 20.275391 L 13.517578 20.275391 L 13.613281 20.34375 L 13.644531 20.34375 L 13.613281 20.308594 C 13.710637 20.132561 13.781565 20.044922 13.828125 20.044922 C 13.828125 20.126167 13.767283 20.247664 13.644531 20.410156 L 13.732422 20.4375 L 13.732422 20.505859 L 13.669922 20.505859 L 13.669922 20.607422 L 13.796875 20.574219 L 13.859375 20.505859 L 13.859375 20.376953 L 13.796875 20.376953 L 13.796875 20.308594 L 13.917969 20.207031 L 14.044922 20.275391 L 14.076172 20.275391 L 14.132812 20.113281 L 14.132812 20.044922 C 14.052389 20.044922 14.013672 20.023649 14.013672 19.978516 L 13.884766 20.011719 L 13.859375 20.011719 L 13.884766 19.849609 C 13.94826 19.849609 13.980469 19.826383 13.980469 19.78125 L 14.044922 19.849609 L 14.076172 19.849609 L 14.107422 19.814453 L 14.107422 19.78125 L 14.076172 19.748047 L 14.076172 19.652344 L 14.107422 19.619141 L 14.076172 19.619141 L 14.076172 19.583984 L 14.107422 19.550781 C 14.107422 19.519182 14.065125 19.488623 13.980469 19.457031 L 13.980469 19.484375 L 13.765625 19.421875 L 13.701172 19.421875 L 13.580078 19.457031 L 13.548828 19.457031 L 13.580078 19.550781 L 13.580078 19.619141 C 13.580078 19.664274 13.529322 19.685547 13.427734 19.685547 L 13.427734 19.712891 L 13.453125 19.748047 L 13.333984 19.78125 L 13.333984 19.748047 C 13.333984 19.662287 13.301775 19.619141 13.238281 19.619141 L 13.238281 19.550781 C 13.403359 19.550781 13.516584 19.452507 13.580078 19.253906 L 13.765625 19.287109 L 13.765625 19.320312 L 13.732422 19.355469 L 13.732422 19.388672 L 13.796875 19.388672 L 13.796875 19.287109 L 13.859375 19.287109 L 13.884766 19.320312 L 13.884766 19.287109 L 13.917969 19.253906 L 13.917969 19.158203 L 13.396484 19.023438 C 12.964738 18.725536 12.75 18.551603 12.75 18.501953 C 12.466401 17.964829 12.300466 17.689323 12.253906 17.675781 L 12.285156 17.642578 C 12.285156 17.443978 12.232774 17.34375 12.126953 17.34375 L 12.126953 17.376953 L 12.070312 17.376953 L 12.070312 17.34375 L 12.101562 17.34375 L 12.191406 17.25 C 12.123681 16.649684 12.0508 16.307808 11.974609 16.226562 L 11.884766 16.259766 L 11.853516 16.259766 L 11.822266 16.226562 L 11.822266 16.193359 L 11.853516 16.158203 L 11.943359 16.193359 L 12.005859 16.132812 L 12.005859 16.064453 L 11.974609 16.03125 L 12.005859 16.03125 C 12.069353 16.03125 12.101562 15.900464 12.101562 15.638672 L 12.101562 15.570312 L 12.070312 15.537109 C 12.006818 15.537109 11.974609 15.513883 11.974609 15.46875 L 12.070312 15.46875 L 12.101562 15.501953 C 12.198917 14.811364 12.424068 14.240428 12.775391 13.789062 L 12.775391 13.728516 C 12.737294 13.728516 12.716797 13.761028 12.716797 13.824219 C 12.674466 13.815191 12.632169 13.759457 12.589844 13.660156 L 12.837891 13.728516 L 13.365234 13.302734 L 14.076172 13.037109 L 13.980469 13.003906 L 13.980469 12.970703 L 14.166016 12.833984 L 14.166016 11.324219 L 14.132812 11.291016 z M 14.076172 13.037109 L 14.166016 13.003906 L 14.166016 12.935547 L 14.132812 12.935547 C 14.094716 12.935547 14.076172 12.969402 14.076172 13.037109 z M 14.572266 11.291016 L 14.507812 11.359375 L 14.507812 13.003906 C 14.507812 13.058074 14.63145 13.101221 14.876953 13.132812 C 15.35526 13.286277 15.746019 13.561783 16.050781 13.958984 L 16.419922 14.615234 L 16.419922 14.648438 L 16.394531 14.683594 L 16.730469 15.007812 L 18.369141 14.181641 C 18.335279 14.073313 18.30307 14.019531 18.273438 14.019531 L 18.273438 14.222656 L 18.208984 14.154297 L 18.208984 14.087891 L 18.273438 13.992188 C 18.188782 13.576931 17.86895 13.059777 17.314453 12.441406 C 16.429797 11.674085 15.51618 11.291016 14.572266 11.291016 z M 19.416016 11.345703 L 19.447266 11.345703 L 19.447266 11.412109 L 19.384766 11.488281 L 19.314453 11.488281 L 19.416016 11.345703 z M 19.21875 11.757812 L 19.447266 11.757812 L 19.447266 11.867188 L 19.416016 11.900391 L 19.123047 11.867188 L 19.21875 11.757812 z M 25.320312 11.798828 L 25.224609 11.933594 L 25.320312 11.933594 L 25.320312 11.867188 L 25.351562 11.867188 C 25.351562 11.934894 25.373691 11.96875 25.416016 11.96875 L 25.478516 11.96875 L 25.478516 11.867188 C 25.415022 11.867188 25.384766 11.843961 25.384766 11.798828 L 25.320312 11.798828 z M 16.730469 12.375 L 16.851562 12.375 L 16.851562 12.509766 L 16.792969 12.509766 C 16.792969 12.442059 16.772794 12.408203 16.730469 12.408203 L 16.730469 12.375 z M 19.1875 12.591797 L 19.314453 12.591797 L 19.384766 12.767578 L 19.384766 12.800781 L 19.351562 12.800781 L 19.1875 12.732422 L 19.1875 12.693359 L 19.21875 12.658203 L 19.21875 12.625 L 19.1875 12.591797 z M 18.990234 12.732422 L 19.091797 12.732422 L 19.091797 12.833984 L 19.021484 12.902344 L 18.990234 12.732422 z M 22.076172 12.800781 L 22.171875 12.800781 L 22.171875 12.833984 L 22.140625 12.869141 L 22.076172 12.800781 z M 11.638672 12.902344 L 11.664062 12.902344 C 11.651364 12.961022 11.600608 13.014804 11.511719 13.064453 L 11.511719 12.970703 L 11.638672 12.902344 z M 19.574219 12.935547 L 19.644531 12.935547 L 19.675781 12.970703 L 19.707031 12.935547 L 19.740234 12.935547 L 19.833984 13.044922 L 19.833984 13.078125 L 19.740234 13.078125 L 19.574219 13.113281 L 19.574219 13.003906 L 19.605469 12.970703 L 19.574219 12.935547 z M 22.107422 13.078125 L 22.044922 13.146484 L 22.044922 13.179688 L 22.107422 13.179688 L 22.107422 13.078125 z M 19.542969 13.179688 C 19.542969 13.342179 19.586893 13.423828 19.675781 13.423828 L 19.740234 13.626953 C 19.587853 13.626953 19.511719 13.696014 19.511719 13.835938 C 19.55828 13.953293 19.634415 14.013672 19.740234 14.013672 L 19.740234 14.046875 L 19.574219 14.046875 C 19.447235 13.767029 19.296592 13.626953 19.123047 13.626953 L 19.123047 13.558594 L 19.25 13.558594 C 19.360053 13.558594 19.416016 13.59575 19.416016 13.667969 L 19.478516 13.667969 L 19.542969 13.59375 L 19.542969 13.423828 L 19.511719 13.390625 L 19.478516 13.390625 L 19.447266 13.423828 L 19.447266 13.214844 L 19.542969 13.179688 z M 24.089844 13.423828 L 24.216797 13.423828 L 24.152344 13.558594 L 24.152344 13.59375 L 24.183594 13.626953 L 24.121094 13.626953 L 24.089844 13.423828 z M 19.867188 13.558594 L 19.898438 13.558594 L 19.96875 13.626953 L 19.96875 13.701172 L 19.867188 13.734375 L 19.867188 13.667969 L 19.898438 13.626953 L 19.867188 13.59375 L 19.867188 13.558594 z M 24.736328 13.701172 L 24.832031 13.701172 L 24.832031 13.734375 L 24.800781 13.769531 L 24.736328 13.701172 z M 17.960938 14.222656 L 17.962891 14.222656 L 17.994141 14.25 L 18.025391 14.25 L 18.056641 14.222656 L 18.121094 14.222656 L 18.121094 14.283203 L 17.935547 14.351562 L 17.808594 14.351562 L 17.808594 14.318359 C 17.910181 14.318359 17.960938 14.285847 17.960938 14.222656 z M 19.511719 14.25 L 19.542969 14.25 L 19.771484 14.458984 L 19.605469 14.458984 L 19.511719 14.291016 L 19.511719 14.25 z M 10.648438 14.419922 L 10.742188 14.419922 L 10.742188 14.486328 L 10.648438 14.486328 L 10.648438 14.419922 z M 20.84375 14.458984 L 20.876953 14.458984 L 20.939453 14.527344 L 20.84375 14.527344 L 20.84375 14.458984 z M 25.029297 14.458984 L 25.15625 14.458984 L 25.257812 14.527344 L 25.257812 14.601562 L 25.224609 14.601562 L 25.224609 14.527344 L 25.029297 14.527344 L 25.029297 14.458984 z M 12.070312 15.076172 L 12.126953 15.076172 L 12.005859 15.205078 L 11.974609 15.205078 L 11.974609 15.142578 C 12.038103 15.142578 12.070312 15.121305 12.070312 15.076172 z M 11.447266 15.142578 L 11.542969 15.142578 L 11.542969 15.205078 L 11.447266 15.205078 L 11.447266 15.142578 z M 10.648438 15.46875 L 10.742188 15.46875 L 10.742188 15.570312 L 10.710938 15.603516 L 10.648438 15.537109 L 10.648438 15.46875 z M 10.927734 15.603516 L 11.015625 15.638672 L 11.015625 15.671875 L 10.927734 15.671875 L 10.927734 15.603516 z M 10.431641 15.732422 L 10.527344 15.800781 L 10.527344 15.833984 L 10.431641 15.800781 L 10.431641 15.732422 z M 11.111328 15.800781 L 11.142578 15.800781 C 11.172208 15.904596 11.222964 15.981601 11.294922 16.03125 L 11.326172 16.03125 L 11.359375 15.996094 L 11.359375 16.03125 C 11.359375 16.107979 11.430303 16.161761 11.574219 16.193359 L 11.574219 16.132812 L 11.605469 16.132812 L 11.605469 16.193359 L 11.791016 16.193359 L 11.757812 16.361328 L 11.757812 16.388672 L 11.791016 16.423828 L 11.695312 16.457031 L 11.574219 16.361328 L 11.542969 16.361328 L 11.542969 16.423828 L 11.574219 16.457031 L 11.478516 16.457031 L 11.478516 16.388672 L 11.421875 16.388672 L 11.447266 16.490234 L 11.447266 16.525391 L 11.294922 16.525391 L 11.326172 16.490234 L 11.263672 16.423828 L 11.232422 16.423828 L 11.207031 16.457031 L 11.173828 16.423828 L 11.173828 16.388672 L 11.207031 16.361328 L 11.142578 16.361328 L 11.111328 16.388672 L 11.111328 16.361328 L 10.927734 16.388672 C 10.927734 16.478948 10.834681 16.546664 10.648438 16.591797 L 10.615234 16.591797 C 10.615234 16.555687 10.698202 16.50056 10.863281 16.423828 C 10.863281 16.360637 10.885409 16.328125 10.927734 16.328125 L 10.958984 16.328125 C 10.958984 16.106956 10.876017 15.996094 10.710938 15.996094 L 10.710938 15.962891 L 10.742188 15.929688 C 10.82261 15.943229 10.863281 15.977084 10.863281 16.03125 C 10.9818 16.017709 11.074853 15.983853 11.142578 15.929688 L 11.111328 15.833984 L 11.111328 15.800781 z M 22.044922 15.982422 L 22.107422 15.982422 L 22.140625 16.017578 C 22.174486 16.107851 22.204742 16.152344 22.234375 16.152344 L 22.234375 16.193359 L 22.203125 16.226562 L 21.943359 16.119141 C 21.977223 16.028867 22.011061 15.982422 22.044922 15.982422 z M 21.554688 16.050781 L 21.554688 16.083984 L 21.650391 16.050781 L 21.751953 16.152344 L 21.689453 16.226562 C 21.689453 16.38454 21.751923 16.462891 21.878906 16.462891 L 21.878906 16.503906 L 21.847656 16.539062 C 21.652947 16.471358 21.554688 16.366486 21.554688 16.226562 L 21.359375 16.226562 L 21.359375 16.193359 C 21.359375 16.152738 21.423471 16.104947 21.554688 16.050781 z M 10.527344 16.158203 L 10.552734 16.193359 L 10.583984 16.193359 L 10.615234 16.158203 L 10.615234 16.226562 L 10.527344 16.259766 L 10.527344 16.158203 z M 20.482422 16.193359 L 20.552734 16.193359 L 20.552734 16.462891 L 20.386719 16.462891 L 20.386719 16.429688 L 20.419922 16.396484 C 20.487647 16.396484 20.521484 16.373258 20.521484 16.328125 L 20.521484 16.226562 L 20.482422 16.193359 z M 22.691406 16.193359 L 22.818359 16.193359 L 22.888672 16.361328 L 22.755859 16.396484 L 22.691406 16.259766 L 22.691406 16.193359 z M 20.126953 16.226562 L 20.386719 16.259766 L 20.292969 16.361328 L 20.126953 16.328125 L 20.095703 16.361328 L 20.095703 16.259766 L 20.126953 16.226562 z M 14.761719 16.248047 L 14.691406 16.314453 L 14.527344 16.267578 L 14.527344 16.808594 L 14.597656 16.835938 L 14.628906 16.835938 L 14.660156 16.794922 L 14.660156 16.869141 L 14.527344 16.869141 L 14.527344 18.041016 L 14.533203 18.041016 L 14.660156 18 L 14.792969 18.041016 L 14.984375 18.041016 L 15.015625 18 L 15.046875 18.041016 L 15.275391 18.041016 L 15.308594 18 L 15.339844 18.041016 L 15.732422 18.041016 L 15.960938 18 L 15.960938 18.041016 L 16.025391 18.041016 L 16.089844 17.966797 L 16.318359 18 L 16.339844 17.837891 L 16.355469 17.939453 L 16.355469 18.041016 C 16.173458 18.158371 16.082031 18.235376 16.082031 18.271484 L 16.082031 18.298828 L 16.140625 18.298828 L 16.171875 18.271484 L 16.171875 18.298828 L 16.203125 18.332031 L 16.203125 18.367188 L 15.988281 18.367188 C 15.988281 18.434892 15.864643 18.576313 15.619141 18.792969 C 15.288982 18.969001 15.123047 19.101133 15.123047 19.191406 L 15.060547 19.191406 L 15.060547 19.158203 L 15.091797 19.125 L 15.091797 19.089844 L 14.8125 19.158203 L 14.8125 19.253906 L 14.970703 19.226562 L 14.970703 19.355469 L 14.939453 19.388672 L 14.970703 19.421875 C 14.805624 19.448956 14.724609 19.579743 14.724609 19.814453 L 14.724609 19.943359 L 14.908203 20.207031 L 14.78125 20.275391 L 14.755859 20.275391 L 14.660156 20.207031 L 14.564453 20.207031 L 14.564453 20.410156 L 14.507812 20.410156 L 14.507812 20.871094 L 14.628906 20.871094 C 14.628906 20.911718 14.598321 20.931641 14.539062 20.931641 L 14.539062 21 C 15.664989 21 16.683697 20.506068 17.59375 19.517578 C 18.292163 18.50652 18.640625 17.563149 18.640625 16.6875 L 18.488281 16.6875 L 18.521484 16.591797 L 18.521484 16.558594 L 18.488281 16.558594 L 18.457031 16.591797 L 18.361328 16.591797 L 18.361328 16.525391 L 18.242188 16.591797 L 18.208984 16.490234 L 18.304688 16.457031 L 18.425781 16.490234 L 18.457031 16.328125 L 18.457031 16.259766 L 16.583984 16.259766 L 16.640625 16.361328 L 16.640625 16.388672 L 16.578125 16.388672 C 16.548466 16.388672 16.546868 16.512122 16.572266 16.755859 L 16.572266 16.789062 L 16.666016 16.789062 L 16.730469 16.720703 L 16.730469 16.654297 L 16.787109 16.654297 L 16.761719 16.822266 C 16.698225 16.822266 16.666016 16.842188 16.666016 16.882812 L 16.603516 16.882812 L 16.572266 16.857422 L 16.572266 16.882812 L 16.546875 16.917969 L 16.546875 17.113281 C 16.546875 17.158415 16.585592 17.181641 16.666016 17.181641 L 16.666016 17.25 C 16.61522 17.25 16.584964 17.303782 16.572266 17.412109 L 16.603516 17.445312 L 16.572266 17.445312 L 16.482422 17.376953 L 16.451172 17.376953 L 16.419922 17.607422 C 16.419922 17.675129 16.440097 17.708984 16.482422 17.708984 L 16.634766 17.708984 L 16.634766 17.837891 L 16.603516 17.837891 C 16.603516 17.7747 16.572931 17.744141 16.513672 17.744141 L 16.482422 17.744141 L 16.451172 17.777344 L 16.419922 17.744141 L 16.355469 17.744141 L 16.349609 17.751953 L 16.349609 17.730469 L 16.318359 17.695312 L 16.349609 17.662109 L 16.349609 17.208984 L 16.318359 16.970703 L 16.285156 16.970703 L 16.253906 17.005859 L 16.183594 17.005859 L 15.994141 16.869141 L 15.898438 16.9375 C 15.830713 16.9375 15.796875 16.981992 15.796875 17.072266 L 15.765625 17.072266 L 15.732422 17.039062 C 15.732422 16.971356 15.698584 16.9375 15.630859 16.9375 C 15.571602 16.9375 15.517592 16.834581 15.466797 16.626953 L 15.466797 16.591797 C 15.555685 16.591797 15.599609 16.638243 15.599609 16.728516 L 15.796875 16.728516 L 15.796875 16.794922 L 15.994141 16.794922 C 16.074564 16.88971 16.192996 16.948136 16.349609 16.970703 L 16.349609 16.349609 L 16.285156 16.349609 L 16.253906 16.457031 L 15.994141 16.382812 L 15.994141 16.349609 L 16.025391 16.314453 L 16.183594 16.349609 L 16.216797 16.349609 L 16.216797 16.314453 L 16.152344 16.248047 L 14.857422 16.248047 L 14.826172 16.28125 L 14.792969 16.248047 L 14.761719 16.248047 z M 18.583984 16.259766 C 18.592448 16.304899 18.610992 16.328125 18.640625 16.328125 L 18.654297 16.259766 L 18.583984 16.259766 z M 16.851562 16.328125 L 16.914062 16.328125 C 16.918298 16.436453 16.948882 16.490234 17.003906 16.490234 L 17.035156 16.490234 L 17.066406 16.457031 C 17.066406 16.547304 17.098615 16.591797 17.162109 16.591797 L 17.162109 16.619141 L 17.130859 16.654297 C 17.088534 16.654297 17.066406 16.621785 17.066406 16.558594 C 16.842067 16.522486 16.730469 16.477994 16.730469 16.423828 L 16.730469 16.388672 L 16.761719 16.388672 L 16.787109 16.423828 C 16.829434 16.423828 16.851562 16.391316 16.851562 16.328125 z M 14.953125 16.382812 L 15.148438 16.382812 C 15.237326 16.522736 15.33396 16.591797 15.435547 16.591797 L 15.435547 16.660156 C 15.287399 16.583423 15.212891 16.526342 15.212891 16.490234 C 15.149397 16.490234 15.117188 16.52409 15.117188 16.591797 C 15.028301 16.501524 14.952166 16.457031 14.888672 16.457031 L 14.953125 16.382812 z M 19.96875 16.462891 L 20.03125 16.462891 L 20 16.640625 L 20 16.673828 L 20.064453 16.775391 L 20.228516 16.742188 L 20.228516 16.775391 C 20.228516 16.816011 20.162467 16.851214 20.03125 16.882812 L 19.96875 16.775391 L 19.96875 16.462891 z M 10.496094 16.591797 L 10.552734 16.591797 L 10.615234 16.654297 L 10.496094 16.654297 L 10.496094 16.591797 z M 10.894531 16.591797 L 10.927734 16.591797 L 10.927734 16.619141 C 10.927734 16.686848 10.905606 16.720703 10.863281 16.720703 L 10.894531 16.591797 z M 17.929688 16.591797 L 17.994141 16.654297 L 17.841797 16.654297 L 17.841797 16.619141 L 17.929688 16.591797 z M 22.140625 16.605469 L 22.203125 16.605469 L 22.203125 16.707031 L 22.140625 16.707031 L 22.140625 16.605469 z M 17.376953 16.619141 L 17.410156 16.619141 L 17.410156 16.789062 L 17.314453 16.720703 L 17.21875 16.720703 L 17.193359 16.755859 L 17.193359 16.6875 L 17.21875 16.654297 L 17.25 16.654297 L 17.283203 16.6875 L 17.376953 16.619141 z M 22.304688 16.742188 L 22.462891 16.742188 L 22.462891 16.775391 L 22.304688 16.775391 L 22.304688 16.742188 z M 10.832031 16.755859 L 10.863281 16.755859 L 10.775391 16.857422 L 10.775391 16.822266 L 10.832031 16.755859 z M 17.21875 16.789062 L 17.25 16.789062 L 17.314453 16.917969 L 17.314453 16.951172 L 17.21875 16.951172 L 17.25 16.917969 L 17.21875 16.822266 L 17.21875 16.789062 z M 22.234375 16.849609 L 22.304688 16.849609 L 22.304688 16.882812 L 22.234375 16.951172 L 22.234375 16.849609 z M 17.529297 16.882812 L 17.65625 16.917969 L 17.65625 16.984375 L 17.5625 16.984375 L 17.529297 16.882812 z M 18.394531 16.882812 L 18.457031 16.882812 L 18.457031 16.984375 L 18.361328 16.984375 L 18.394531 16.882812 z M 15.148438 16.9375 L 15.244141 16.9375 L 15.308594 17.005859 L 15.244141 17.072266 L 15.181641 17.072266 L 15.148438 16.9375 z M 20.292969 16.951172 L 20.482422 16.951172 L 20.386719 17.085938 L 20.386719 17.123047 L 20.292969 17.019531 L 20.292969 16.951172 z M 11.974609 16.984375 L 12.005859 16.984375 L 12.005859 17.052734 L 11.853516 17.085938 L 11.853516 17.052734 L 11.822266 17.019531 L 11.974609 16.984375 z M 11.726562 17.052734 L 11.791016 17.052734 L 11.664062 17.181641 L 11.638672 17.085938 L 11.726562 17.052734 z M 11.359375 17.113281 L 11.390625 17.113281 L 11.326172 17.181641 L 11.359375 17.34375 L 11.326172 17.34375 L 11.111328 17.214844 L 11.111328 17.181641 L 11.142578 17.181641 L 11.232422 17.214844 L 11.359375 17.113281 z M 19.351562 17.126953 L 19.384766 17.126953 L 19.384766 17.162109 L 19.314453 17.228516 L 19.283203 17.228516 L 19.283203 17.195312 L 19.351562 17.126953 z M 20.390625 17.126953 L 20.451172 17.126953 L 20.451172 17.160156 L 20.419922 17.160156 L 20.390625 17.126953 z M 15.181641 17.140625 L 15.212891 17.140625 L 15.212891 17.283203 L 15.181641 17.283203 L 15.181641 17.140625 z M 16.699219 17.181641 L 16.761719 17.181641 L 16.818359 17.316406 L 16.730469 17.316406 L 16.699219 17.214844 L 16.699219 17.181641 z M 15.796875 17.208984 L 15.859375 17.208984 L 15.929688 17.283203 L 15.828125 17.384766 L 15.796875 17.208984 z M 14.857422 17.316406 L 14.792969 17.519531 L 14.691406 17.486328 L 14.691406 17.351562 L 14.857422 17.316406 z M 11.664062 17.376953 L 11.726562 17.376953 L 11.726562 17.546875 C 11.785821 17.546875 11.878875 17.654438 12.005859 17.871094 L 11.974609 17.871094 L 11.853516 17.744141 L 11.822266 17.744141 L 11.791016 17.777344 L 11.638672 17.777344 L 11.542969 17.607422 L 11.605469 17.607422 L 11.605469 17.574219 L 11.511719 17.574219 C 11.410131 17.619355 11.359375 17.68707 11.359375 17.777344 L 11.326172 17.777344 L 11.294922 17.642578 L 11.421875 17.445312 L 11.447266 17.445312 L 11.478516 17.478516 L 11.478516 17.445312 L 11.605469 17.478516 C 11.643565 17.478516 11.664062 17.44466 11.664062 17.376953 z M 19.447266 17.439453 L 19.542969 17.439453 L 19.707031 17.675781 L 19.707031 17.783203 L 19.574219 17.675781 L 19.542969 17.675781 L 19.511719 17.708984 C 19.511719 17.605172 19.489591 17.526822 19.447266 17.472656 L 19.447266 17.439453 z M 16.882812 17.445312 L 16.914062 17.445312 L 16.945312 17.478516 L 17.003906 17.478516 L 17.035156 17.445312 L 17.035156 17.478516 L 17.066406 17.513672 L 16.945312 17.574219 L 16.851562 17.574219 L 16.882812 17.445312 z M 15.080078 17.453125 L 15.148438 17.453125 C 15.148438 17.520832 15.170566 17.554688 15.212891 17.554688 L 15.212891 17.763672 L 15.181641 17.763672 L 15.080078 17.519531 L 15.080078 17.453125 z M 10.152344 17.513672 L 10.183594 17.675781 L 10.216797 17.675781 L 10.310547 17.574219 L 10.310547 17.546875 L 10.183594 17.513672 L 10.152344 17.513672 z M 11.111328 17.574219 L 11.263672 17.607422 L 11.263672 17.708984 L 11.173828 17.675781 L 11.142578 17.777344 L 11.111328 17.777344 L 11.080078 17.675781 L 11.111328 17.574219 z M 19.447266 17.783203 L 19.511719 17.851562 L 19.511719 17.884766 L 19.447266 17.884766 L 19.447266 17.783203 z M 15.148438 17.796875 L 15.212891 17.796875 L 15.212891 17.898438 L 15.080078 17.966797 L 15.080078 17.898438 C 15.126638 17.898437 15.148438 17.864582 15.148438 17.796875 z M 10.400391 17.90625 L 10.527344 17.939453 L 10.552734 17.939453 L 10.583984 17.90625 C 10.647478 17.960414 10.679688 18.02483 10.679688 18.101562 L 10.679688 18.169922 L 10.369141 17.972656 L 10.369141 17.939453 L 10.400391 17.90625 z M 16.699219 17.90625 L 16.730469 17.90625 L 16.787109 17.972656 L 16.761719 17.972656 L 16.699219 17.90625 z M 20.386719 17.953125 L 20.419922 17.953125 L 20.482422 18.021484 L 20.482422 18.128906 L 20.451172 18.128906 L 20.386719 18.0625 L 20.386719 17.953125 z M 19.740234 17.986328 L 19.935547 17.986328 L 19.935547 18.0625 L 19.740234 18.0625 L 19.740234 17.986328 z M 12.318359 18.041016 L 12.318359 18.101562 L 12.222656 18.101562 L 12.222656 18.068359 L 12.318359 18.041016 z M 20.292969 18.128906 L 20.324219 18.128906 L 20.355469 18.164062 C 20.355469 18.254336 20.313172 18.323397 20.228516 18.373047 L 20.228516 18.298828 L 20.292969 18.128906 z M 19.574219 18.197266 L 19.644531 18.197266 C 19.644531 18.233381 19.600608 18.267236 19.511719 18.298828 L 19.478516 18.298828 L 19.574219 18.197266 z M 16.546875 18.238281 L 16.603516 18.298828 L 16.603516 18.367188 L 16.546875 18.433594 L 16.513672 18.433594 L 16.482422 18.332031 C 16.482422 18.26884 16.50455 18.238281 16.546875 18.238281 z M 17.130859 18.238281 L 17.162109 18.367188 L 17.066406 18.367188 L 17.097656 18.332031 L 17.066406 18.298828 L 17.130859 18.238281 z M 12.501953 18.298828 L 12.533203 18.298828 L 12.623047 18.367188 L 12.558594 18.433594 L 12.501953 18.367188 L 12.501953 18.298828 z M 19.478516 18.373047 L 19.511719 18.373047 C 19.511719 18.449782 19.587853 18.517497 19.740234 18.576172 L 19.740234 18.609375 L 19.478516 18.683594 L 19.384766 18.609375 L 19.478516 18.373047 z M 11.326172 18.433594 L 11.447266 18.433594 L 11.390625 18.529297 L 11.263672 18.501953 L 11.326172 18.433594 z M 16.666016 18.46875 L 16.787109 18.501953 L 16.787109 18.529297 L 16.699219 18.529297 L 16.666016 18.501953 L 16.666016 18.46875 z M 20.064453 18.474609 L 20.126953 18.542969 L 20.03125 18.542969 L 20.03125 18.507812 L 20.064453 18.474609 z M 16.355469 18.501953 L 16.419922 18.5625 L 16.419922 18.630859 L 16.355469 18.697266 L 16.330078 18.697266 L 16.298828 18.595703 C 16.298828 18.532512 16.317372 18.501953 16.355469 18.501953 z M 20.679688 18.644531 L 20.679688 18.751953 L 20.615234 18.820312 L 20.583984 18.820312 C 20.368112 18.775172 20.259766 18.728727 20.259766 18.683594 L 20.521484 18.683594 L 20.679688 18.644531 z M 12.34375 18.664062 C 12.407244 18.682117 12.4375 18.748487 12.4375 18.861328 L 12.375 18.861328 L 12.34375 18.826172 L 12.375 18.732422 L 12.375 18.697266 L 12.34375 18.664062 z M 12.589844 18.826172 L 12.716797 18.861328 L 12.716797 18.894531 L 12.4375 18.988281 L 12.589844 18.826172 z M 11.390625 18.894531 L 11.478516 18.894531 L 11.511719 18.927734 L 11.542969 18.894531 L 11.542969 18.962891 L 11.478516 19.023438 L 11.421875 19.023438 L 11.390625 18.894531 z M 10.894531 19.089844 L 10.958984 19.089844 L 11.015625 19.158203 L 10.927734 19.191406 L 10.894531 19.191406 L 10.894531 19.089844 z M 12.039062 19.089844 L 12.101562 19.089844 L 12.070312 19.226562 L 12.039062 19.226562 L 12.039062 19.089844 z M 13.427734 19.089844 L 13.453125 19.089844 L 13.517578 19.158203 L 13.517578 19.191406 L 13.486328 19.158203 L 13.396484 19.226562 L 13.396484 19.158203 L 13.453125 19.158203 L 13.453125 19.125 L 13.427734 19.089844 z M 11.080078 19.158203 L 11.111328 19.158203 L 11.142578 19.253906 L 11.142578 19.287109 L 11.111328 19.287109 L 11.080078 19.253906 L 11.080078 19.158203 z M 12.501953 19.191406 L 12.716797 19.421875 L 12.716797 19.550781 L 12.654297 19.550781 C 12.55271 19.505645 12.501953 19.42864 12.501953 19.320312 L 12.501953 19.191406 z M 19.96875 19.267578 L 20 19.267578 C 20 19.339796 20.042297 19.375 20.126953 19.375 L 20.064453 19.443359 L 20.03125 19.443359 L 19.96875 19.375 L 19.96875 19.267578 z M 11.359375 19.355469 L 11.447266 19.355469 L 11.478516 19.457031 L 11.390625 19.484375 L 11.390625 19.457031 L 11.359375 19.484375 L 11.294922 19.421875 L 11.359375 19.355469 z M 11.853516 19.421875 L 11.884766 19.421875 L 11.853516 19.550781 L 11.791016 19.550781 L 11.726562 19.484375 L 11.853516 19.421875 z M 14.564453 19.457031 L 14.507812 19.517578 L 14.507812 19.550781 L 14.564453 19.619141 L 14.597656 19.619141 L 14.628906 19.457031 L 14.564453 19.457031 z M 20.679688 19.509766 L 20.710938 19.509766 L 20.8125 19.578125 L 20.8125 19.619141 L 20.775391 19.652344 L 20.679688 19.619141 L 20.679688 19.509766 z M 11.695312 19.550781 L 11.695312 19.585938 L 11.638672 19.652344 L 11.605469 19.652344 L 11.695312 19.550781 z M 11.910156 19.550781 L 11.974609 19.550781 L 11.974609 19.652344 L 11.910156 19.652344 L 11.910156 19.550781 z M 12.005859 19.685547 L 12.101562 19.685547 L 12.285156 19.748047 L 12.375 19.685547 L 12.375 19.748047 L 12.318359 19.814453 C 12.233703 19.814453 12.191406 19.837679 12.191406 19.882812 L 12.158203 19.882812 L 12.158203 19.814453 L 12.070312 19.849609 L 12.005859 19.78125 L 12.005859 19.748047 L 12.039062 19.712891 L 12.005859 19.685547 z M 14.970703 19.748047 L 15.060547 19.748047 L 15.060547 19.814453 L 14.970703 19.78125 L 14.970703 19.748047 z M 20.552734 19.753906 C 20.620456 19.776472 20.662754 19.820965 20.679688 19.888672 C 20.641623 19.888672 20.619495 19.936463 20.615234 20.03125 L 20.583984 20.03125 L 20.552734 19.998047 L 20.521484 19.998047 C 20.521484 20.043186 20.465522 20.087679 20.355469 20.132812 L 20.191406 20.066406 L 20.191406 20.03125 C 20.237966 20.03125 20.259766 19.997394 20.259766 19.929688 L 20.451172 19.964844 C 20.518897 19.964844 20.552734 19.893829 20.552734 19.753906 z M 14.507812 19.849609 L 14.507812 20.173828 L 14.564453 20.113281 L 14.564453 19.849609 L 14.507812 19.849609 z M 19.25 19.929688 L 19.314453 19.929688 L 19.314453 20.03125 L 19.1875 20.03125 L 19.1875 19.998047 L 19.25 19.929688 z M 11.791016 20.011719 L 11.943359 20.080078 L 11.943359 20.146484 L 11.910156 20.173828 L 12.005859 20.146484 L 12.158203 20.173828 L 12.158203 20.207031 L 12.005859 20.207031 C 11.90427 20.207031 11.833341 20.15325 11.791016 20.044922 L 11.791016 20.011719 z M 12.375 20.044922 L 12.40625 20.044922 L 12.375 20.146484 L 12.318359 20.146484 L 12.375 20.044922 z M 15.740234 20.080078 L 15.771484 20.080078 L 15.740234 20.173828 L 15.675781 20.173828 L 15.675781 20.146484 L 15.740234 20.080078 z M 12.869141 20.242188 L 12.996094 20.275391 L 12.996094 20.308594 L 12.902344 20.308594 L 12.869141 20.275391 L 12.869141 20.242188 z M 13.212891 20.242188 L 13.333984 20.242188 C 13.333984 20.309894 13.354159 20.34375 13.396484 20.34375 L 13.396484 20.410156 L 13.269531 20.410156 L 13.212891 20.242188 z M 12.253906 20.275391 L 12.285156 20.308594 L 12.34375 20.308594 L 12.34375 20.34375 L 12.222656 20.410156 L 12.191406 20.410156 L 12.222656 20.308594 L 12.253906 20.275391 z M 19.740234 20.34375 L 19.833984 20.410156 L 20.126953 20.410156 L 20.191406 20.478516 C 20.127914 20.478516 20.041367 20.526307 19.935547 20.621094 L 19.898438 20.621094 C 19.898437 20.539845 19.82393 20.468831 19.675781 20.410156 L 19.740234 20.34375 z M 14.132812 20.376953 C 14.098951 20.376953 14.070319 20.473882 14.044922 20.667969 L 14.132812 20.701172 L 14.132812 20.667969 L 14.166016 20.640625 L 14.166016 20.376953 L 14.132812 20.376953 z M 13.054688 20.410156 L 13.181641 20.4375 L 13.181641 20.539062 L 13.054688 20.539062 L 13.054688 20.505859 L 13.085938 20.472656 L 13.021484 20.472656 L 13.021484 20.4375 L 13.054688 20.410156 z M 20.615234 20.410156 L 20.648438 20.552734 L 20.583984 20.689453 L 20.552734 20.689453 L 20.552734 20.478516 L 20.615234 20.410156 z M 20.742188 20.478516 L 20.742188 20.511719 L 20.679688 20.587891 L 20.679688 20.552734 L 20.742188 20.478516 z M 14.970703 20.505859 L 15.029297 20.574219 L 15.029297 20.640625 L 14.939453 20.607422 L 14.939453 20.539062 L 14.970703 20.505859 z M 19.384766 20.689453 L 19.511719 20.689453 L 19.511719 20.722656 C 19.503254 20.77231 19.448917 20.820101 19.351562 20.865234 L 19.314453 20.755859 L 19.384766 20.689453 z M 13.949219 20.701172 L 13.732422 20.802734 L 13.732422 20.871094 L 13.765625 20.871094 L 13.796875 20.837891 L 13.884766 20.966797 L 13.884766 21 L 14.132812 20.966797 L 14.166016 20.966797 L 14.132812 20.871094 C 14.132812 20.758253 14.07197 20.701172 13.949219 20.701172 z "
         transform="scale(1.0326426,0.96838926)"
         id="path4392" />
    </g>
  </g>
</svg>
