<?xml version="1.0" encoding="UTF-8" standalone="no"?>
<!-- Created with Inkscape (http://www.inkscape.org/) -->
<svg id="svg7087" xmlns:rdf="http://www.w3.org/1999/02/22-rdf-syntax-ns#" xmlns="http://www.w3.org/2000/svg" height="48" width="48" version="1.1" xmlns:cc="http://creativecommons.org/ns#" xmlns:xlink="http://www.w3.org/1999/xlink" xmlns:dc="http://purl.org/dc/elements/1.1/">
 <defs id="defs7089">
  <linearGradient id="linearGradient6430" y2="991.36" xlink:href="#linearGradient6420" gradientUnits="userSpaceOnUse" x2="33" gradientTransform="matrix(.55556 0 0 .58491 5.6667 431.72)" y1="1045.4" x1="33"/>
  <linearGradient id="linearGradient6420">
   <stop id="stop6422" offset="0"/>
   <stop id="stop6424" stop-opacity="0" offset="1"/>
  </linearGradient>
  <linearGradient id="linearGradient4939" y2="42.728" xlink:href="#linearGradient4035" gradientUnits="userSpaceOnUse" x2="16.806" gradientTransform="matrix(1.2484 0 0 1.6646 3.6184 974.14)" y1="20.62" x1="16.806"/>
  <linearGradient id="linearGradient4035">
   <stop id="stop4037" stop-color="#fff" offset="0"/>
   <stop id="stop4039" stop-color="#fff" stop-opacity=".23529" offset=".055556"/>
   <stop id="stop4041" stop-color="#fff" stop-opacity=".15686" offset=".94444"/>
   <stop id="stop4043" stop-color="#fff" stop-opacity=".39216" offset="1"/>
  </linearGradient>
  <radialGradient id="radialGradient5299" gradientUnits="userSpaceOnUse" cx="7.1184" cy="9.9571" r="12.672" gradientTransform="matrix(0 8.9059 -8.344 0 107.7 926.61)">
   <stop id="stop3750-1-0-7-6-6-1-3-9-3-9" stop-color="#505050" offset="0"/>
   <stop id="stop3752-3-7-4-0-32-8-923-0-7-0" stop-color="#2b2b2b" offset=".26238"/>
   <stop id="stop3754-1-8-5-2-7-6-7-1-9-1" stop-color="#0a0a0a" offset=".70495"/>
   <stop id="stop3756-1-6-2-6-6-1-96-6-0-1" offset="1"/>
  </radialGradient>
  <linearGradient id="linearGradient4610" y2="42.728" xlink:href="#linearGradient4035" gradientUnits="userSpaceOnUse" x2="16.806" gradientTransform="matrix(1.5259 0 0 1.942 -.91089 965.35)" y1="20.62" x1="16.806"/>
  <linearGradient id="linearGradient6426" y2="991.36" xlink:href="#linearGradient6420" gradientUnits="userSpaceOnUse" x2="33" gradientTransform="matrix(.68889 0 0 .75472 1.2667 258.29)" y1="1045.4" x1="33"/>
  <linearGradient id="linearGradient4899" y2="1048.4" gradientUnits="userSpaceOnUse" x2="33" gradientTransform="matrix(.68627 0 0 .74576 1.3529 267.41)" y1="988.36" x1="33">
   <stop id="stop4324-9-7" stop-color="#f0f0f0" offset="0"/>
   <stop id="stop2860-4-4" stop-color="#d7d7d8" offset=".085525"/>
   <stop id="stop2862-5-9" stop-color="#b2b2b3" offset=".92166"/>
   <stop id="stop4326-1-1" stop-color="#979798" offset="1"/>
  </linearGradient>
  <linearGradient id="linearGradient10158" y2="39.999" gradientUnits="userSpaceOnUse" x2="25.058" gradientTransform="matrix(1.0714 0 0 .57143 -1.7857 1023.5)" y1="47.028" x1="25.058">
   <stop id="stop3100" stop-color="#181818" stop-opacity="0" offset="0"/>
   <stop id="stop3102" stop-color="#181818" offset=".5"/>
   <stop id="stop3104" stop-color="#181818" stop-opacity="0" offset="1"/>
  </linearGradient>
  <radialGradient id="radialGradient10161" gradientUnits="userSpaceOnUse" cy="43.5" cx="4.993" gradientTransform="matrix(1.9774 0 0 0.8 -18.814 -1083.2)" r="2.5">
   <stop id="stop3094" stop-color="#181818" offset="0"/>
   <stop id="stop3096" stop-color="#181818" stop-opacity="0" offset="1"/>
  </radialGradient>
  <radialGradient id="radialGradient10164" gradientUnits="userSpaceOnUse" cy="43.5" cx="4.9965" gradientTransform="matrix(2.0038 2.1079e-7 -5.1366e-8 .80001 28.988 1013.6)" r="2.5">
   <stop id="stop3088" stop-color="#181818" offset="0"/>
   <stop id="stop3090" stop-color="#181818" stop-opacity="0" offset="1"/>
  </radialGradient>
  <linearGradient id="linearGradient11040" y2="43" gradientUnits="userSpaceOnUse" x2="24" gradientTransform="matrix(.56757 0 0 .75676 10.378 1008.7)" y1="5.5641" x1="24">
   <stop id="stop3979" stop-color="#fff" offset="0"/>
   <stop id="stop3981" stop-color="#fff" stop-opacity=".23529" offset=".036262"/>
   <stop id="stop3983" stop-color="#fff" stop-opacity=".15686" offset=".95056"/>
   <stop id="stop3985" stop-color="#fff" stop-opacity=".39216" offset="1"/>
  </linearGradient>
  <linearGradient id="linearGradient11043" y2="47.013" gradientUnits="userSpaceOnUse" x2="25.132" gradientTransform="matrix(.62857 0 0 .63012 8.9143 1010.8)" y1=".98521" x1="25.132">
   <stop id="stop3602-7" stop-color="#f4f4f4" offset="0"/>
   <stop id="stop3604-6" stop-color="#dbdbdb" offset="1"/>
  </linearGradient>
  <linearGradient id="linearGradient11058" y2="1015.4" spreadMethod="reflect" gradientUnits="userSpaceOnUse" x2="32" gradientTransform="matrix(.68182 0 0 1.4 1.5 -398.14)" y1="1017.9" x1="32">
   <stop id="stop6309" stop-color="#c00" offset="0"/>
   <stop id="stop6311" stop-color="#c00" stop-opacity="0" offset="1"/>
  </linearGradient>
  <clipPath id="clipPath4409">
   <path id="path4411" d="m73.381 96.337h33.939v29.143h-33.939v-29.143zm13.058 10.513c0.776 1.52 1.658 3.23 2.363 4.95l0.28 0.68c-0.922 3.51-1.474 6.33-0.981 8.15 0.133 0.47 0.683 0.76 1.272 0.76h0.356 0.033 0.015 0.002 0.009 0.003 0.004 0.013c0.797 0 1.172-1.02 1.215-1.41 0.071-0.66-0.236-1.79-0.236-1.79 0 0.45 0.018 1.19-0.268 1.82-0.332 0.73-0.651 1.17-0.936 1.24-0.144-0.1-0.284-0.3-0.332-0.68-0.098-0.54-0.13-1.22-0.13-1.57 0-1.23 0.244-2.86 0.721-4.54 0.091 0.26 0.17 0.51 0.233 0.74 0.098 0.37 0.721 2.82 0.721 2.82s-0.157-3.26-0.376-4.24c-0.047-0.21-0.099-0.41-0.153-0.63 0.788-2.2 2.057-4.16 3.571-5.57 0.596-0.56 1.351-1.01 2.064-1.42 1.468 0.21 2.826 0.31 3.977 0.31h0.211c1.59-0.02 2.76-0.25 3.23-0.72 0.23-0.23 0.32-0.5 0.35-0.81 0.01-0.11-0.05-0.39-0.06-0.46 0.01 0.08 0.01 0.5-1.26 0.91-0.53 0.17-1.31 0.24-2.25 0.24-0.845 0-1.826-0.06-2.89-0.17 2.102-1.03 4.16-1.64 5.3-1.64 0.27 0 0.5 0.03 0.65 0.11 0.2 0.09 0.44 0.42 0.44 0.42s-0.14-0.65-0.25-0.8c-0.13-0.18-0.38-0.37-0.62-0.43-0.2-0.06-0.44-0.08-0.72-0.08-1.56 0-4.306 0.78-6.75 2.17-3.224-0.47-6.766-1.35-9.604-2.28-2.4-4.209-4.288-6.459-5.855-6.459-0.254 0-0.498 0.059-0.736 0.178l-0.627 0.315c-0.256 0.147-0.294 0.501-0.235 0.789 0.2 0.974 1.419 2.437 3.87 3.907 0.264 0.16 1.439 0.78 1.439 0.78s-0.871-0.85-1.074-1.01c-1.956-1.603-3.4-3.619-3.364-4.402l0.006-0.068c1.663 0.237 4.154 3.62 7.359 9.89m1.015-0.52c-0.535-1.01-1.058-1.94-1.542-2.8 2.672 1.12 5.547 1.83 8.284 2.34-0.368 0.26-0.725 0.53-1.062 0.81-1.506 1.28-2.656 2.87-3.487 4.54-0.529-1.42-1.158-2.93-2.193-4.89"/>
  </clipPath>
  <clipPath id="clipPath4421">
   <path id="path4423" d="m73.381 91.53h33.939v4.875h-33.939v-4.875z"/>
  </clipPath>
  <clipPath id="clipPath4433">
   <path id="path4435" d="m88.101 120.63c-0.493-1.82 0.059-4.64 0.981-8.15l-0.28-0.68c-0.705-1.72-1.587-3.43-2.363-4.95-3.205-6.27-5.696-9.653-7.359-9.89l-0.006 0.068c-0.036 0.783 1.408 2.799 3.364 4.402 0.203 0.16 1.074 1.01 1.074 1.01s-1.175-0.62-1.439-0.78c-2.451-1.47-3.67-2.933-3.87-3.907-0.059-0.288-0.021-0.642 0.235-0.789l0.627-0.315c0.238-0.119 0.482-0.178 0.736-0.178 1.567 0 3.455 2.25 5.855 6.459 2.838 0.93 6.38 1.81 9.604 2.28 2.444-1.39 5.19-2.17 6.75-2.17 0.28 0 0.52 0.02 0.72 0.08 0.24 0.06 0.49 0.25 0.62 0.43 0.11 0.15 0.25 0.8 0.25 0.8s-0.24-0.33-0.44-0.42c-0.15-0.08-0.38-0.11-0.65-0.11-1.14 0-3.198 0.61-5.3 1.64 1.064 0.11 2.045 0.17 2.89 0.17 0.94 0 1.72-0.07 2.25-0.24 1.27-0.41 1.27-0.83 1.26-0.91 0.01 0.07 0.07 0.35 0.06 0.46-0.03 0.31-0.12 0.58-0.35 0.81-0.47 0.47-1.64 0.7-3.23 0.72h-0.211c-1.151 0-2.509-0.1-3.977-0.31-0.713 0.41-1.468 0.86-2.064 1.42-1.514 1.41-2.783 3.37-3.571 5.57 0.054 0.22 0.106 0.42 0.153 0.63 0.219 0.98 0.376 4.24 0.376 4.24s-0.623-2.45-0.721-2.82c-0.063-0.23-0.142-0.48-0.233-0.74-0.477 1.68-0.721 3.31-0.721 4.54 0 0.35 0.032 1.03 0.13 1.57 0.048 0.38 0.188 0.58 0.332 0.68 0.285-0.07 0.604-0.51 0.936-1.24 0.286-0.63 0.268-1.37 0.268-1.82 0 0 0.307 1.13 0.236 1.79-0.043 0.39-0.418 1.41-1.215 1.41h-0.013-0.004-0.003-0.009-0.002-0.015-0.033-0.356c-0.589 0-1.139-0.29-1.272-0.76m-0.647-14.3c1.035 1.96 1.664 3.47 2.193 4.89 0.831-1.67 1.981-3.26 3.487-4.54 0.337-0.28 0.694-0.55 1.062-0.81-2.737-0.51-5.612-1.22-8.284-2.34 0.484 0.86 1.007 1.79 1.542 2.8"/>
  </clipPath>
 </defs>
 <metadata id="metadata7092">
  <rdf:RDF>
   <cc:Work rdf:about="">
    <dc:format>image/svg+xml</dc:format>
    <dc:type rdf:resource="http://purl.org/dc/dcmitype/StillImage"/>
    <dc:title/>
   </cc:Work>
  </rdf:RDF>
 </metadata>
 <g id="layer1" transform="translate(0 -1004.4)">
  <g id="g10676">
   <rect id="rect2801" opacity=".4" height="4" width="5" y="1046.4" x="39" fill="url(#radialGradient10164)"/>
   <rect id="rect3696" opacity=".4" transform="scale(-1)" height="4" width="5" y="-1050.4" x="-9" fill="url(#radialGradient10161)"/>
   <rect id="rect3700" opacity=".4" height="4" width="30" y="1046.4" x="9" fill="url(#linearGradient10158)"/>
  </g>
  <rect id="rect4897" rx="1" ry="1" height="44" width="35" y="1004.9" x="6.5" fill="url(#linearGradient4899)"/>
  <rect id="rect6410" opacity=".35" rx="1" ry="1" height="40" width="31" stroke="url(#linearGradient6426)" y="1006.9" x="8.5" fill="none"/>
  <rect id="rect3993" opacity=".5" rx="1" ry="1" height="44" width="35" stroke="#000" y="1004.9" x="6.5" fill="none"/>
  <rect id="rect6741-5-0-2-3" stroke-linejoin="round" height="42" width="33" stroke="url(#linearGradient4610)" stroke-linecap="round" y="1005.9" x="7.5" fill="none"/>
  <rect id="rect5505-21-3-8-5-2" opacity=".9" style="color:#000000" height="38" width="29" y="1007.9" x="9.5" fill="url(#radialGradient5299)"/>
  <rect id="rect4935" opacity=".7" stroke-linejoin="round" height="38" width="29" stroke="#000" y="1007.9" x="9.5" fill="none"/>
  <rect id="rect4937" opacity=".3" stroke-linejoin="round" height="36" width="27" stroke="url(#linearGradient4939)" stroke-linecap="round" y="1008.9" x="10.5" fill="none"/>
  <rect id="rect6428" opacity=".15" rx="1" ry="1" height="31" width="25" stroke="url(#linearGradient6430)" y="1011.9" x="11.5" fill="none"/>
  <path id="path4160-3" d="m13 1012.4h22v29h-22v-29z" fill="url(#linearGradient11043)"/>
  <path id="rect6741-1-8" stroke-linejoin="round" d="m34.5 1040.9h-21v-28h21z" stroke="url(#linearGradient11040)" stroke-linecap="round" fill="none"/>
  <path id="path4160-3-4" opacity=".3" stroke-linejoin="round" d="m12.5 1011.9h23l0.000028 29.998h-23v-30z" stroke="#000" stroke-width=".99992" fill="none"/>
  <g id="g11054" transform="translate(0 7.0001)">
   <rect id="rect5537" opacity=".8" height="7" width="30" y="1023.4" x="9" fill="url(#linearGradient11058)"/>
   <rect id="rect3099" opacity=".8" height="1" width="30" y="1026.4" x="9" fill="#fff"/>
  </g>
  <g id="g4405" transform="matrix(21.344 0 0 -21.344 -2406.5 3267.3)">
   <g id="g4407" clip-path="url(#clipPath4409)"></g>
  </g>
  <g id="g4417" transform="matrix(21.344 0 0 -21.344 -2406.5 3267.3)">
   <g id="g4419" clip-path="url(#clipPath4421)"></g>
  </g>
  <g id="g4429" transform="matrix(21.344 0 0 -21.344 -2406.5 3267.3)">
   <g id="g4431" clip-path="url(#clipPath4433)"></g>
  </g>
  <g id="g4441" transform="matrix(21.344 0 0 -21.344 -2406.5 3267.3)">
   <g id="g4443">
    <g id="g4449"></g>
   </g>
  </g>
  <g id="text4404" fill="#4989ff" transform="matrix(.29274 0 0 .28016 21.026 748.48)">
   <path id="path4409" d="m-17.948 991.01h1.1914q2.5586 0 3.8477-1.0156 1.3086-1.0156 1.3086-3.3008 0-2.1289-1.1719-3.1445-1.1523-1.0156-3.6328-1.0156h-1.543v8.4766zm12.48-4.5312q0 1.875-0.56641 3.5938t-1.875 3.0273q-1.2891 1.3086-3.418 2.0898-2.1094 0.78125-5.2344 0.78125h-1.3867v10.156h-6.0547v-28.555h7.9297q2.7539 0 4.7461 0.625 2.0117 0.60547 3.3008 1.7578 1.3086 1.1328 1.9336 2.793 0.625 1.6406 0.625 3.7305z"/>
   <path id="path4412" d="m21.994 991.58q0 3.6133-0.99609 6.3477-0.97656 2.7148-2.8516 4.5508-1.8555 1.8164-4.5703 2.7344-2.6953 0.918-6.1523 0.918h-7.5195v-28.555h8.3594q3.1445 0 5.6641 0.89843 2.5391 0.89844 4.3359 2.6758 1.7969 1.7578 2.7539 4.375 0.97656 2.6172 0.97656 6.0547zm-6.1328 0.15625q0-2.3828-0.48828-4.1016-0.46875-1.7383-1.3867-2.8711-0.89844-1.1328-2.2266-1.6797-1.3086-0.54688-3.0078-0.54688h-2.793v18.594h2.2266q3.8281 0 5.7422-2.3438 1.9336-2.3438 1.9336-7.0508z"/>
   <path id="path4414" d="m33.908 1006.1h-5.957v-28.555h16.367v4.9609h-10.41v7.3633h9.6875v4.9414h-9.6875v11.289z"/>
  </g>
 </g>
</svg>
