<?xml version="1.0" encoding="UTF-8" standalone="no"?>
<!-- Created with Inkscape (http://www.inkscape.org/) -->

<svg
   xmlns:dc="http://purl.org/dc/elements/1.1/"
   xmlns:cc="http://creativecommons.org/ns#"
   xmlns:rdf="http://www.w3.org/1999/02/22-rdf-syntax-ns#"
   xmlns:svg="http://www.w3.org/2000/svg"
   xmlns="http://www.w3.org/2000/svg"
   xmlns:xlink="http://www.w3.org/1999/xlink"
   xmlns:sodipodi="http://sodipodi.sourceforge.net/DTD/sodipodi-0.dtd"
   xmlns:inkscape="http://www.inkscape.org/namespaces/inkscape"
   version="1.1"
   width="48"
   height="48"
   id="svg4117"
   inkscape:version="0.91 r"
   sodipodi:docname="gwoffice.svg">
  <sodipodi:namedview
     pagecolor="#ffffff"
     bordercolor="#666666"
     borderopacity="1"
     objecttolerance="10"
     gridtolerance="10"
     guidetolerance="10"
     inkscape:pageopacity="0"
     inkscape:pageshadow="2"
     inkscape:window-width="1535"
     inkscape:window-height="876"
     id="namedview93"
     showgrid="false"
     inkscape:zoom="15.670846"
     inkscape:cx="10.884754"
     inkscape:cy="17.565128"
     inkscape:window-x="65"
     inkscape:window-y="24"
     inkscape:window-maximized="1"
     inkscape:current-layer="svg4117"
     showguides="true" />
  <defs
     id="defs4119">
    <linearGradient
       id="linearGradient4019">
      <stop
         id="stop4021"
         style="stop-color:#000000;stop-opacity:1"
         offset="0" />
      <stop
         id="stop4023"
         style="stop-color:#000000;stop-opacity:0"
         offset="1" />
    </linearGradient>
    <linearGradient
       id="linearGradient3924">
      <stop
         id="stop3926"
         style="stop-color:#ffffff;stop-opacity:1"
         offset="0" />
      <stop
         id="stop3928"
         style="stop-color:#ffffff;stop-opacity:0.23529412"
         offset="0.06316455" />
      <stop
         id="stop3930"
         style="stop-color:#ffffff;stop-opacity:0.15686275"
         offset="0.95056331" />
      <stop
         id="stop3932"
         style="stop-color:#ffffff;stop-opacity:0.39215687"
         offset="1" />
    </linearGradient>
    <radialGradient
       cx="4.9929786"
       cy="43.5"
       r="2.5"
       fx="4.9929786"
       fy="43.5"
       id="radialGradient2873-966-168"
       xlink:href="#linearGradient3688-166-749"
       gradientUnits="userSpaceOnUse"
       gradientTransform="matrix(2.003784,0,0,1.4,27.98813,-17.4)" />
    <linearGradient
       id="linearGradient3688-166-749">
      <stop
         id="stop2883"
         style="stop-color:#181818;stop-opacity:1"
         offset="0" />
      <stop
         id="stop2885"
         style="stop-color:#181818;stop-opacity:0"
         offset="1" />
    </linearGradient>
    <radialGradient
       cx="4.9929786"
       cy="43.5"
       r="2.5"
       fx="4.9929786"
       fy="43.5"
       id="radialGradient2875-742-326"
       xlink:href="#linearGradient3688-464-309"
       gradientUnits="userSpaceOnUse"
       gradientTransform="matrix(2.003784,0,0,1.4,-20.01187,-104.4)" />
    <linearGradient
       id="linearGradient3688-464-309">
      <stop
         id="stop2889"
         style="stop-color:#181818;stop-opacity:1"
         offset="0" />
      <stop
         id="stop2891"
         style="stop-color:#181818;stop-opacity:0"
         offset="1" />
    </linearGradient>
    <linearGradient
       x1="25.058096"
       y1="47.027729"
       x2="25.058096"
       y2="39.999443"
       id="linearGradient2877-634-617"
       xlink:href="#linearGradient3702-501-757"
       gradientUnits="userSpaceOnUse" />
    <linearGradient
       id="linearGradient3702-501-757">
      <stop
         id="stop2895"
         style="stop-color:#181818;stop-opacity:0"
         offset="0" />
      <stop
         id="stop2897"
         style="stop-color:#181818;stop-opacity:1"
         offset="0.5" />
      <stop
         id="stop2899"
         style="stop-color:#181818;stop-opacity:0"
         offset="1" />
    </linearGradient>
    <filter
       color-interpolation-filters="sRGB"
       id="filter3831">
      <feGaussianBlur
         id="feGaussianBlur3833"
         stdDeviation="0.6375" />
    </filter>
    <clipPath
       id="clipPath3823">
      <path
         d="M 108.8125,58 C 107.25437,58 106,59.254375 106,60.8125 l 0,24.375 C 106,86.745625 107.25437,88 108.8125,88 l 24.375,0 C 134.74562,88 136,86.745625 136,85.1875 l 0,-24.375 C 136,59.254375 134.74562,58 133.1875,58 l -24.375,0 z m 7.1875,4.5 10,0 0,8.75 5,0 -10,13.75 -10,-13.75 5,0 0,-8.75 z"
         inkscape:connector-curvature="0"
         id="path3825"
         style="fill:#ffffff;fill-opacity:1;stroke:none" />
    </clipPath>
    <linearGradient
       x1="65.262688"
       y1="64.205269"
       x2="65.262688"
       y2="50.068527"
       id="linearGradient3812"
       xlink:href="#linearGradient5010"
       gradientUnits="userSpaceOnUse"
       gradientTransform="matrix(0.625,0,0,0.625,78.5,32.25)" />
    <filter
       color-interpolation-filters="sRGB"
       id="filter3806">
      <feGaussianBlur
         id="feGaussianBlur3808"
         stdDeviation="1.2" />
    </filter>
    <linearGradient
       x1="70"
       y1="54"
       x2="70"
       y2="75.095024"
       id="linearGradient3788"
       xlink:href="#linearGradient3737"
       gradientUnits="userSpaceOnUse"
       gradientTransform="translate(0,4)" />
    <linearGradient
       x1="56"
       y1="72"
       x2="88"
       y2="72"
       id="linearGradient3773"
       xlink:href="#linearGradient3778"
       gradientUnits="userSpaceOnUse"
       gradientTransform="matrix(0.9375,0,0,0.9375,-140.5,3.5)" />
    <linearGradient
       x1="65.262688"
       y1="64.205269"
       x2="65.262688"
       y2="50.068527"
       id="linearGradient3832"
       xlink:href="#linearGradient3737"
       gradientUnits="userSpaceOnUse"
       gradientTransform="matrix(0.625,0,0,0.625,28.5,31.25)" />
    <filter
       color-interpolation-filters="sRGB"
       id="filter3174">
      <feGaussianBlur
         id="feGaussianBlur3176"
         stdDeviation="1.71" />
    </filter>
    <linearGradient
       id="linearGradient3737">
      <stop
         id="stop3739"
         style="stop-color:#ffffff;stop-opacity:1"
         offset="0" />
      <stop
         id="stop3741"
         style="stop-color:#ffffff;stop-opacity:0"
         offset="1" />
    </linearGradient>
    <linearGradient
       x1="45.447727"
       y1="92.539597"
       x2="45.447727"
       y2="7.0165396"
       id="ButtonShadow"
       gradientUnits="userSpaceOnUse"
       gradientTransform="scale(1.0058652,0.994169)">
      <stop
         id="stop3750"
         style="stop-color:#000000;stop-opacity:1"
         offset="0" />
      <stop
         id="stop3752"
         style="stop-color:#000000;stop-opacity:0.58823532"
         offset="1" />
    </linearGradient>
    <linearGradient
       id="linearGradient5010">
      <stop
         id="stop5012"
         style="stop-color:#000000;stop-opacity:1"
         offset="0" />
      <stop
         id="stop5014"
         style="stop-color:#000000;stop-opacity:0"
         offset="1" />
    </linearGradient>
    <linearGradient
       id="linearGradient3778">
      <stop
         id="stop3780"
         style="stop-color:#499119;stop-opacity:1"
         offset="0" />
      <stop
         id="stop3782"
         style="stop-color:#8fd625;stop-opacity:1"
         offset="1" />
    </linearGradient>
    <linearGradient
       id="linearGradient3104">
      <stop
         id="stop3106"
         style="stop-color:#aaaaaa;stop-opacity:1"
         offset="0" />
      <stop
         id="stop3108"
         style="stop-color:#c8c8c8;stop-opacity:1"
         offset="1" />
    </linearGradient>
    <linearGradient
       id="linearGradient3600">
      <stop
         id="stop3602"
         style="stop-color:#f4f4f4;stop-opacity:1"
         offset="0" />
      <stop
         id="stop3604"
         style="stop-color:#dbdbdb;stop-opacity:1"
         offset="1" />
    </linearGradient>
    <linearGradient
       id="linearGradient3104-5">
      <stop
         id="stop3106-9"
         style="stop-color:#aaaaaa;stop-opacity:1"
         offset="0" />
      <stop
         id="stop3108-8"
         style="stop-color:#c8c8c8;stop-opacity:1"
         offset="1" />
    </linearGradient>
    <linearGradient
       x1="23.99999"
       y1="4.999989"
       x2="23.99999"
       y2="43"
       id="linearGradient3084"
       xlink:href="#linearGradient3924"
       gradientUnits="userSpaceOnUse"
       gradientTransform="translate(2.4e-6,0.9674489)" />
    <radialGradient
       cx="7.4956832"
       cy="8.4497671"
       r="19.99999"
       fx="7.4956832"
       fy="8.4497671"
       id="radialGradient3093"
       xlink:href="#linearGradient3600"
       gradientUnits="userSpaceOnUse"
       gradientTransform="matrix(0,1.9392804,-2.0515274,-5.2784231e-8,41.335037,-8.4862548)" />
    <linearGradient
       x1="24"
       y1="44"
       x2="24"
       y2="3.8990016"
       id="linearGradient3095"
       xlink:href="#linearGradient3104"
       gradientUnits="userSpaceOnUse"
       gradientTransform="translate(-6e-7,0.9674389)" />
    <linearGradient
       x1="20"
       y1="43"
       x2="20"
       y2="3"
       id="linearGradient3098"
       xlink:href="#linearGradient3104-5"
       gradientUnits="userSpaceOnUse" />
    <linearGradient
       x1="25.811359"
       y1="11.243645"
       x2="25.811359"
       y2="20.3125"
       id="linearGradient4037"
       xlink:href="#linearGradient4019"
       gradientUnits="userSpaceOnUse" />
    <linearGradient
       x1="15.666173"
       y1="19.527954"
       x2="15.666173"
       y2="31.61681"
       id="linearGradient4041"
       xlink:href="#linearGradient4019"
       gradientUnits="userSpaceOnUse" />
    <linearGradient
       x1="25.065281"
       y1="30.795345"
       x2="25.065281"
       y2="39.562374"
       id="linearGradient4044"
       xlink:href="#linearGradient4019"
       gradientUnits="userSpaceOnUse" />
    <clipPath
       id="clipPath-006527871">
      <g
         transform="translate(0,-1004.3622)"
         id="g17">
        <path
           style="fill:#1890d0"
           inkscape:connector-curvature="0"
           d="m -24,13 c 0,1.105 -0.672,2 -1.5,2 -0.828,0 -1.5,-0.895 -1.5,-2 0,-1.105 0.672,-2 1.5,-2 0.828,0 1.5,0.895 1.5,2 z"
           transform="matrix(15.333333,0,0,11.5,414.99999,878.8622)"
           id="path19" />
      </g>
    </clipPath>
  </defs>
  <metadata
     id="metadata4122">
    <rdf:RDF>
      <cc:Work
         rdf:about="">
        <dc:format>image/svg+xml</dc:format>
        <dc:type
           rdf:resource="http://purl.org/dc/dcmitype/StillImage" />
        <dc:title />
      </cc:Work>
    </rdf:RDF>
  </metadata>
  <g
     transform="translate(-135.85714,-31.05041)"
     id="layer2"
     style="display:none">
    <path
       d="M 11,7 48,5 85,7 c 3.324,0 6,2.676 6,6 l 0,73 c 0,3.324 -2.676,6 -6,6 L 11,92 C 7.676,92 5,89.324 5,86 L 5,13 C 5,9.676 7.676,7 11,7 z"
       inkscape:connector-curvature="0"
       id="rect3745"
       style="opacity:0.9;fill:url(#ButtonShadow);fill-opacity:1;fill-rule:nonzero;stroke:none;filter:url(#filter3174)" />
  </g>
  <g
     transform="translate(-135.85714,-31.05041)"
     id="layer4"
     style="display:none">
    <rect
       width="30"
       height="30"
       rx="2.8125"
       ry="2.8125"
       x="-86"
       y="56"
       transform="matrix(0,-1,1,0,0,4)"
       id="rect3790"
       style="opacity:0.6;fill:#000000;fill-opacity:1;stroke:none;filter:url(#filter3806)" />
    <rect
       width="30"
       height="30"
       rx="2.8125"
       ry="2.8125"
       x="-88"
       y="56"
       transform="matrix(0,-1,1,0,0,0)"
       id="rect2993"
       style="fill:url(#linearGradient3773);fill-opacity:1;stroke:none" />
    <path
       d="M 58.8125,58 C 57.254375,58 56,59.254375 56,60.8125 l 0,24.375 c 0,0.873066 0.410816,1.641163 1.03125,2.15625 C 57.02841,87.289908 57,87.242129 57,87.1875 l 0,-24.375 C 57,61.254375 58.17075,60 59.625,60 l 22.75,0 C 83.82925,60 85,61.254375 85,62.8125 l 0,24.375 c 0,0.05463 -0.02841,0.102408 -0.03125,0.15625 C 85.589184,86.828663 86,86.060566 86,85.1875 l 0,-24.375 C 86,59.254375 84.745625,58 83.1875,58 l -24.375,0 z"
       inkscape:connector-curvature="0"
       id="rect3775"
       style="opacity:0.5;fill:url(#linearGradient3788);fill-opacity:1;stroke:none" />
    <path
       d="m 116,63.5 0,8.75 -5,0 10,13.75 10,-13.75 -5,0 0,-8.75 -10,0 z"
       inkscape:connector-curvature="0"
       transform="translate(-50,0)"
       clip-path="url(#clipPath3823)"
       id="path3810"
       style="opacity:0.6;fill:url(#linearGradient3812);fill-opacity:1;fill-rule:nonzero;stroke:none;display:inline;filter:url(#filter3831)" />
    <path
       d="m 66,62.5 0,8.75 -5,0 10,13.75 10,-13.75 -5,0 0,-8.75 -10,0 z"
       inkscape:connector-curvature="0"
       id="path4278"
       style="fill:url(#linearGradient3832);fill-opacity:1;fill-rule:nonzero;stroke:none;display:inline" />
  </g>
  <g
     transform="matrix(1.1,0,0,0.4444449,-2.4000022,25.11107)"
     id="g2036"
     style="display:inline">
    <g
       transform="matrix(1.052632,0,0,1.285713,-1.263158,-13.42854)"
       id="g3712"
       style="opacity:0.4">
      <rect
         width="5"
         height="7"
         x="38"
         y="40"
         id="rect2801"
         style="fill:url(#radialGradient2873-966-168);fill-opacity:1;stroke:none" />
      <rect
         width="5"
         height="7"
         x="-10"
         y="-47"
         transform="scale(-1,-1)"
         id="rect3696"
         style="fill:url(#radialGradient2875-742-326);fill-opacity:1;stroke:none" />
      <rect
         width="28"
         height="7.0000005"
         x="10"
         y="40"
         id="rect3700"
         style="fill:url(#linearGradient2877-634-617);fill-opacity:1;stroke:none" />
    </g>
  </g>
  <path
     d="M 22.96875,8.1875 A 2.9359229,2.9359229 0 0 0 21.5625,8.59375 l -11.03125,6.375 A 2.9359229,2.9359229 0 0 0 9.125,17 2.9359229,2.9359229 0 0 0 9.09375,17 2.9359229,2.9359229 0 0 0 8.125,19.1875 L 8.0625,31.90625 a 2.9359229,2.9359229 0 0 0 1,2.1875 2.9359229,2.9359229 0 0 0 0,0.03125 2.9359229,2.9359229 0 0 0 1.4375,2.09375 l 11,6.3125 a 2.9359229,2.9359229 0 0 0 2.40625,0.21875 2.9359229,2.9359229 0 0 0 0.03125,0 2.9359229,2.9359229 0 0 0 2.5,-0.1875 l 11,-6.34375 a 2.9359229,2.9359229 0 0 0 1.40625,-2 2.9359229,2.9359229 0 0 0 1.09375,-2.25 l 0,-12.71875 a 2.9359229,2.9359229 0 0 0 -1,-2.1875 A 2.9359229,2.9359229 0 0 0 37.5,14.96875 L 26.46875,8.625 A 2.9359229,2.9359229 0 0 0 24.0625,8.375 2.9359229,2.9359229 0 0 0 22.96875,8.1875 Z"
     inkscape:connector-curvature="0"
     id="path4564-0"
     style="color:#000000;display:inline;overflow:visible;visibility:visible;opacity:0.05;fill:url(#linearGradient3098);fill-opacity:1;fill-rule:nonzero;stroke:none;stroke-width:1;marker:none;enable-background:accumulate" />
  <rect
     width="39"
     height="39"
     rx="2"
     ry="2"
     x="4.5"
     y="5.4674392"
     id="rect5505-21"
     style="color:#000000;display:inline;overflow:visible;visibility:visible;fill:url(#radialGradient3093);fill-opacity:1;fill-rule:nonzero;stroke:url(#linearGradient3095);stroke-width:1;stroke-linecap:round;stroke-linejoin:round;stroke-miterlimit:4;stroke-dasharray:none;stroke-dashoffset:0;stroke-opacity:1;marker:none;enable-background:accumulate" />
  <rect
     width="37"
     height="37"
     rx="1"
     ry="1"
     x="5.5"
     y="6.4674392"
     id="rect6741-2"
     style="fill:none;stroke:url(#linearGradient3084);stroke-width:1;stroke-linecap:round;stroke-linejoin:round;stroke-miterlimit:4;stroke-dasharray:none;stroke-dashoffset:0;stroke-opacity:1" />
  <g
     transform="matrix(1.0769231,0,0,1.0909091,-1.8468693,-2.2725851)"
     id="g4255"
     style="opacity:0.15;fill:none;stroke:#ffffff;stroke-width:1.8451997;stroke-linecap:round;stroke-linejoin:round;stroke-miterlimit:4;stroke-dasharray:none;stroke-opacity:1">
    <path
       style="fill:none;fill-opacity:1;fill-rule:evenodd;stroke:#ffffff;stroke-width:2;stroke-linecap:round;stroke-linejoin:round;stroke-miterlimit:4;stroke-dasharray:none;stroke-opacity:1"
       d="m 52.566406,10.103516 -9.333984,16.001953 4.664062,7.998047 9.333985,-16 4.666015,8.001953 -9.330078,0 -4.669922,7.998047 18.669922,0 4.666016,-7.998047 -9.335938,-16.001953 -9.330078,0 z"
       transform="matrix(0.92857141,0,0,0.91666666,-29.143727,4.7383133)"
       id="path4257"
       inkscape:connector-curvature="0" />
  </g>
  <g
     style="opacity:0.15;fill:none;stroke:#ffffff;stroke-width:0.92259985;stroke-linecap:round;stroke-linejoin:round;stroke-miterlimit:4;stroke-dasharray:none;stroke-opacity:1"
     id="g4264"
     transform="matrix(1.0769231,0,0,1.0909091,-1.8468693,-2.2725851)">
    <path
       inkscape:connector-curvature="0"
       id="path4266"
       transform="matrix(0.92857141,0,0,0.91666666,-29.143727,4.7383133)"
       d="m 52.566406,10.103516 -9.333984,16.001953 4.664062,7.998047 9.333985,-16 4.666015,8.001953 -9.330078,0 -4.669922,7.998047 18.669922,0 4.666016,-7.998047 -9.335938,-16.001953 -9.330078,0 z"
       style="fill:none;fill-opacity:1;fill-rule:evenodd;stroke:#ffffff;stroke-width:1;stroke-linecap:round;stroke-linejoin:round;stroke-miterlimit:4;stroke-dasharray:none;stroke-opacity:1" />
  </g>
  <g
     id="g4268"
     transform="matrix(1.0769231,0,0,1.0909091,-1.8461544,-2.2727276)">
    <path
       style="fill:#3e86fb;fill-opacity:1;fill-rule:evenodd;stroke:none"
       inkscape:connector-curvature="0"
       d="M 32.668,36 15.29,36 19.575357,28.668 37,28.668"
       id="path57"
       sodipodi:nodetypes="cccc" />
    <path
       style="fill:#fbb436;fill-opacity:1;fill-rule:evenodd;stroke:none"
       inkscape:connector-curvature="0"
       d="m 19.668,14 8.664,14.668 8.668,0 L 28.332,14 m -8.664,0"
       id="path59" />
    <path
       style="fill:#0aa35f;fill-opacity:1;fill-rule:evenodd;stroke:none"
       inkscape:connector-curvature="0"
       d="M 19.668,14 11,28.668 15.332,36 24,21.332 M 19.668,14"
       id="path61" />
  </g>
  <g
     transform="translate(35.775862,-3.5560345)"
     id="g4235"
     style="fill:none">
    <path
       id="path4237"
       transform="translate(-35.775862,3.5560345)"
       d="M 55.443359 10.443359 L 46.775391 25.111328 L 51.107422 32.443359 L 59.775391 17.775391 L 64.107422 25.111328 L 55.443359 25.111328 L 51.107422 32.443359 L 68.443359 32.443359 L 72.775391 25.111328 L 64.107422 10.443359 L 55.443359 10.443359 z "
       style="fill:none;fill-opacity:1;fill-rule:evenodd;stroke:none" />
  </g>
  <g
     transform="translate(36.912226,-6.1128527)"
     id="g4239"
     style="fill:none;stroke:#000000;stroke-opacity:1;stroke-linejoin:round;stroke-linecap:round;stroke-width:2;stroke-miterlimit:4;stroke-dasharray:none" />
  <g
     transform="matrix(1.0769231,0,0,1.0909091,-35.092604,-1.7622255)"
     id="g4240">
    <path
       style="opacity:0.15;fill:#000000;fill-opacity:1;fill-rule:evenodd;stroke:none"
       d="m 50.538974,13.532037 -8.667271,14.668457 4.309151,7.295736 -0.01995,0.03581 0.04171,0 17.336356,0 4.332728,-7.331543 -8.669084,-14.668457 -8.663644,0 z m 0.533203,0.916667 7.597238,0 8.126813,13.75179 -3.790457,6.414877 -16.269949,0 -3.788645,-6.414877 8.125,-13.75179 z m 3.746931,5.503581 a 0.92866427,0.91675833 0 0 0 -0.749024,0.452961 l -4.336356,7.333334 a 0.92866427,0.91675833 0 0 0 0.801618,1.378581 l 8.667272,0 a 0.92866427,0.91675833 0 0 0 0.801618,-1.378581 l -4.330915,-7.333334 a 0.92866427,0.91675833 0 0 0 -0.854213,-0.452961 z m 0.05259,0.914876 4.330915,7.333333 -8.667272,0 4.336357,-7.333333 z"
       id="path4242"
       inkscape:connector-curvature="0" />
  </g>
  <g
     id="g4249"
     transform="matrix(1.0769231,0,0,1.0909091,-35.092604,-1.7622255)"
     style="fill:none;stroke:#000000;stroke-opacity:1;stroke-width:1.84519966;stroke-miterlimit:4;stroke-dasharray:none;stroke-linejoin:round;stroke-linecap:round" />
</svg>
