<?xml version="1.0" encoding="UTF-8" standalone="no"?>
<!-- Created with Inkscape (http://www.inkscape.org/) -->
<svg id="svg3489" xmlns:rdf="http://www.w3.org/1999/02/22-rdf-syntax-ns#" xmlns="http://www.w3.org/2000/svg" height="48" width="48" version="1.1" xmlns:cc="http://creativecommons.org/ns#" xmlns:xlink="http://www.w3.org/1999/xlink" xmlns:dc="http://purl.org/dc/elements/1.1/">
 <defs id="defs3491">
  <linearGradient id="linearGradient3192" y2="40.496" gradientUnits="userSpaceOnUse" x2="71.204" gradientTransform="matrix(1.6288 0 0 1.6288 -93.561 -21.546)" y1="15.369" x1="71.204">
   <stop id="stop4808" stop-color="#fff" offset="0"/>
   <stop id="stop4810" stop-color="#fff" stop-opacity=".23529" offset=".42448"/>
   <stop id="stop4812" stop-color="#fff" stop-opacity=".15686" offset=".82090"/>
   <stop id="stop4814" stop-color="#fff" stop-opacity=".39216" offset="1"/>
  </linearGradient>
  <radialGradient id="radialGradient3196" gradientUnits="userSpaceOnUse" cy="3.99" cx="23.896" gradientTransform="matrix(0 2.0083 -3.8407 0 39.325 -45.225)" r="20.397">
   <stop id="stop3750-1-0-7-6-6-1-3-9-3" stop-color="#5f5f5f" offset="0"/>
   <stop id="stop3752-3-7-4-0-32-8-923-0-7" stop-color="#515151" offset=".26238"/>
   <stop id="stop3754-1-8-5-2-7-6-7-1-9" stop-color="#404040" offset=".70495"/>
   <stop id="stop3756-1-6-2-6-6-1-96-6-0" stop-color="#343434" offset="1"/>
  </radialGradient>
  <radialGradient id="radialGradient3200" gradientUnits="userSpaceOnUse" cy="186.17" cx="99.157" gradientTransform="matrix(.26765 0 0 .083640 -2.5391 25.422)" r="62.769">
   <stop id="stop3822-2-6" stop-color="#3d3d3d" offset="0"/>
   <stop id="stop3864-8-7" stop-color="#686868" stop-opacity=".49804" offset=".5"/>
   <stop id="stop3824-1-2" stop-color="#686868" stop-opacity="0" offset="1"/>
  </radialGradient>
 </defs>
 <metadata id="metadata3494">
  <rdf:RDF>
   <cc:Work rdf:about="">
    <dc:format>image/svg+xml</dc:format>
    <dc:type rdf:resource="http://purl.org/dc/dcmitype/StillImage"/>
    <dc:title/>
   </cc:Work>
  </rdf:RDF>
 </metadata>
 <path id="path3818-0" d="m40.8 40.994a16.8 5.25 0 1 1 -33.6 0 16.8 5.25 0 1 1 33.6 0z" fill="url(#radialGradient3200)"/>
 <path id="path2555-7" style="color:#000000" d="m24 3.1937c-11.394 0-20.65 9.256-20.65 20.65s9.256 20.65 20.65 20.65 20.65-9.256 20.65-20.65v-12.25c0-4.6348-3.7652-8.4-8.4-8.4h-12.25z" fill="url(#radialGradient3196)"/>
 <path id="path2555-7-1" opacity=".7" stroke-linejoin="round" style="color:#000000" d="m24 3.1937c-11.394 0-20.65 9.256-20.65 20.65s9.256 20.65 20.65 20.65 20.65-9.256 20.65-20.65v-12.25c0-4.6348-3.7652-8.4-8.4-8.4h-12.25z" stroke="#242424" stroke-linecap="round" fill="none"/>
 <path id="path4756" opacity=".15" d="m37.019 9.6986c0-0.56778 0.20779-1.0016 0.62338-1.3014 0.3593-0.26475 0.83117-0.39712 1.4156-0.39713 0.53679 0.000006 0.9935 0.14833 1.3701 0.44497 0.38095 0.29665 0.57142 0.64275 0.57143 1.0383-0.000004 0.4083-0.12338 0.80223-0.37013 1.1818-0.1342 0.21053-0.44806 0.57257-0.94156 1.0861-0.1342 0.14035-0.33334 0.35885-0.5974 0.6555l-0.22078 0.24402c-0.14286 0.15949-0.25108 0.28549-0.32468 0.37799-0.03463 0.04465-0.05195 0.07177-0.05195 0.08134l2.4091 0.0048v0.88516h-3.901v-0.828c0-0.01914 0.09091-0.12918 0.27273-0.33014 0.08225-0.0925 0.17532-0.19457 0.27922-0.30622l0.31818-0.33971c0.18615-0.1882 0.47835-0.48963 0.87662-0.9043 0.37662-0.38915 0.65801-0.74162 0.84416-1.0574 0.15151-0.25837 0.22727-0.4992 0.22727-0.72248-0.000002-0.18181-0.06927-0.33652-0.20779-0.46411-0.15152-0.13395-0.34632-0.20094-0.58442-0.20094-0.34199 0.0000051-0.58442 0.14514-0.72727 0.4354-0.04762 0.095698-0.07142 0.21053-0.07142 0.3445v0.22966h-1.2078v-0.15789"/>
 <path id="path3019" opacity=".3" stroke-linejoin="round" style="color:#000000" d="m24 4.181c-10.737 0-19.653 8.6447-19.653 19.663 0 10.721 8.6351 19.646 19.653 19.646 10.706 0 19.657-8.617 19.657-19.635 0-5.0055 0.000222-8.406 0.000222-12.261 0-3.9666-3.19-7.4017-7.4074-7.4017-5.4384 0-7.8509-0.011049-12.25-0.011049z" stroke="url(#linearGradient3192)" stroke-linecap="round" fill="none"/>
 <path id="path3205" d="m37.019 8.6986c0-0.56778 0.20779-1.0016 0.62338-1.3014 0.3593-0.26475 0.83117-0.39712 1.4156-0.39713 0.53679 0.000006 0.9935 0.14833 1.3701 0.44497 0.38095 0.29665 0.57142 0.64275 0.57143 1.0383-0.000004 0.4083-0.12338 0.80223-0.37013 1.1818-0.1342 0.21053-0.44806 0.57257-0.94156 1.0861-0.1342 0.14035-0.33334 0.35885-0.5974 0.6555l-0.22078 0.24402c-0.14286 0.15949-0.25108 0.28549-0.32468 0.37799-0.03463 0.04465-0.05195 0.07177-0.05195 0.08134l2.4091 0.0048v0.88516h-3.901v-0.828c0-0.01914 0.09091-0.12918 0.27273-0.33014 0.08225-0.0925 0.17532-0.19457 0.27922-0.30622l0.31818-0.33971c0.18615-0.1882 0.47835-0.48963 0.87662-0.9043 0.37662-0.38915 0.65801-0.74162 0.84416-1.0574 0.15151-0.25837 0.22727-0.4992 0.22727-0.72248-0.000002-0.18181-0.06927-0.33652-0.20779-0.46411-0.15152-0.13395-0.34632-0.20094-0.58442-0.20094-0.34199 0.0000051-0.58442 0.14514-0.72727 0.4354-0.04762 0.095698-0.07142 0.21053-0.07142 0.3445v0.22966h-1.2078v-0.15789" fill="#f37b21"/>
 <g id="g4426" opacity=".15" transform="matrix(.087242 0 0 .087242 8.0619 9.1046)">
  <path id="path4428" d="m24 9c-8.267 0-15 6.733-15 15 0 8.268 6.733 15 15 15s15-6.733 15-15-6.733-15-15-15zm0 2.9668c6.6638 0 12.033 5.3695 12.033 12.033 0 6.6647-5.3692 12.033-12.033 12.033-6.664 0-12.033-5.3684-12.033-12.033 0-6.6637 5.3691-12.033 12.033-12.033zm-4.373 3.2148v2.623h2.6855l0.77344 2.2012-6.8965 11.137h3.0957l4.9395-7.7812 3.3672 8.5371 5.0078-1.4453-0.77539-2.6016-2.3203 0.75586-5.2793-13.426h-4.5977z" transform="matrix(11.462 0 0 11.462 -92.408 -92.898)"/>
 </g>
 <path id="path4402" fill="#f37b21" d="m24 9c-8.267 0-15 6.733-15 15 0 8.2676 6.7332 15 15 15s15-6.7325 15-15c0-8.2667-6.7332-15-15-15zm0 2.9668c6.6638 0 12.033 5.3695 12.033 12.033 0 6.6647-5.3692 12.033-12.033 12.033-6.664 0-12.033-5.3684-12.033-12.033 0-6.6637 5.3691-12.033 12.033-12.033zm-4.373 3.2148v2.623h2.6855l0.77344 2.2012-6.8965 11.137h3.0957l4.9395-7.7812 3.3672 8.5371 5.0078-1.4453-0.77539-2.6016-2.3203 0.75586-5.2793-13.426h-4.5977z"/>
</svg>
