<?xml version="1.0" encoding="UTF-8" standalone="no"?>
<!-- Created with Inkscape (http://www.inkscape.org/) -->
<svg id="svg4951" xmlns:rdf="http://www.w3.org/1999/02/22-rdf-syntax-ns#" xmlns="http://www.w3.org/2000/svg" height="48" width="48" version="1.1" xmlns:cc="http://creativecommons.org/ns#" xmlns:xlink="http://www.w3.org/1999/xlink" xmlns:dc="http://purl.org/dc/elements/1.1/">
 <defs id="defs4953">
  <radialGradient id="radialGradient3302" gradientUnits="userSpaceOnUse" cy="186.17" cx="99.157" gradientTransform="matrix(.27083 0 0 .087623 -2.8551 25.187)" r="62.769">
   <stop id="stop3822-2-6-3" stop-color="#3d3d3d" offset="0"/>
   <stop id="stop3864-8-7-7" stop-color="#686868" stop-opacity=".49804" offset=".5"/>
   <stop id="stop3824-1-2-5" stop-color="#686868" stop-opacity="0" offset="1"/>
  </radialGradient>
  <radialGradient id="radialGradient4448" gradientUnits="userSpaceOnUse" cy="-17.681" cx="14.892" gradientTransform="matrix(-1.4387 3.8089e-8 -2.8328e-8 -1.07 45.169 -14.596)" r="25.571">
   <stop id="stop3750-1-0-7-6-6-1-3-9-3" stop-color="#5f5f5f" offset="0"/>
   <stop id="stop3752-3-7-4-0-32-8-923-0-7" stop-color="#515151" offset=".26238"/>
   <stop id="stop3754-1-8-5-2-7-6-7-1-9" stop-color="#404040" offset=".70495"/>
   <stop id="stop3756-1-6-2-6-6-1-96-6-0" stop-color="#343434" offset="1"/>
  </radialGradient>
  <linearGradient id="linearGradient4450" y2="32.568" gradientUnits="userSpaceOnUse" x2="15.124" gradientTransform="matrix(.76418 0 0 .76418 12.377 18.778)" y1="-18.801" x1="15.124">
   <stop id="stop4413" stop-color="#fff" offset="0"/>
   <stop id="stop4415" stop-color="#fff" stop-opacity="0" offset="1"/>
  </linearGradient>
 </defs>
 <metadata id="metadata4956">
  <rdf:RDF>
   <cc:Work rdf:about="">
    <dc:format>image/svg+xml</dc:format>
    <dc:type rdf:resource="http://purl.org/dc/dcmitype/StillImage"/>
    <dc:title/>
   </cc:Work>
  </rdf:RDF>
 </metadata>
 <path id="path3818-0-5" d="m41 41.5a17 5.5 0 0 1 -34 0 17 5.5 0 1 1 34 0z" fill="url(#radialGradient3302)"/>
 <circle id="path2985-6" cy="24" cx="24" r="20.526" fill="url(#radialGradient4448)"/>
 <circle id="path3755-9" opacity=".6" stroke-width=".94845" stroke="#242424" cy="24" cx="24" r="20.526" fill="none"/>
 <circle id="path3773-9" opacity=".6" stroke-width=".93261" stroke-opacity=".58824" stroke="url(#linearGradient4450)" cy="24" cx="24" r="19.54" fill="none"/>
 <g id="g4426" opacity=".15" transform="matrix(.087242 0 0 .087242 8.0619 9.1046)">
  <path id="path4428" d="m24 9c-8.267 0-15 6.733-15 15 0 8.268 6.733 15 15 15s15-6.733 15-15-6.733-15-15-15zm0 2.9668c6.6638 0 12.033 5.3695 12.033 12.033 0 6.6647-5.3692 12.033-12.033 12.033-6.664 0-12.033-5.3684-12.033-12.033 0-6.6637 5.3691-12.033 12.033-12.033zm-4.373 3.2148v2.623h2.6855l0.77344 2.2012-6.8965 11.137h3.0957l4.9395-7.7812 3.3672 8.5371 5.0078-1.4453-0.77539-2.6016-2.3203 0.75586-5.2793-13.426h-4.5977z" transform="matrix(11.462 0 0 11.462 -92.408 -92.898)"/>
 </g>
 <g id="g4413" transform="matrix(.087242 0 0 .087242 8.0619 8.1046)">
  <path id="path4402" fill="#f37b21" d="m24 9c-8.267 0-15 6.733-15 15 0 8.268 6.733 15 15 15s15-6.733 15-15-6.733-15-15-15zm0 2.967c6.664 0 12.033 5.369 12.033 12.033 0 6.665-5.369 12.033-12.033 12.033s-12.033-5.368-12.033-12.033c0-6.664 5.369-12.033 12.033-12.033zm-4.373 3.215v2.623h2.685l0.774 2.201-6.897 11.137h3.096l4.94-7.782 3.367 8.537 5.008-1.445-0.776-2.601-2.32 0.755-5.279-13.425h-4.598z" transform="matrix(11.462 0 0 11.462 -92.408 -92.898)"/>
 </g>
</svg>
