<?xml version="1.0" encoding="UTF-8" standalone="no"?>
<!-- Created with Inkscape (http://www.inkscape.org/) -->
<svg id="svg5390" xmlns:rdf="http://www.w3.org/1999/02/22-rdf-syntax-ns#" xmlns="http://www.w3.org/2000/svg" height="48" width="48" version="1.1" xmlns:cc="http://creativecommons.org/ns#" xmlns:xlink="http://www.w3.org/1999/xlink" xmlns:dc="http://purl.org/dc/elements/1.1/">
 <defs id="defs5392">
  <radialGradient id="radialGradient3013" gradientUnits="userSpaceOnUse" cy="43.5" cx="4.993" gradientTransform="matrix(2.0038 0 0 1.4 27.988 -17.4)" r="2.5">
   <stop id="stop2883" stop-color="#181818" offset="0"/>
   <stop id="stop2885" stop-color="#181818" stop-opacity="0" offset="1"/>
  </radialGradient>
  <radialGradient id="radialGradient3015" gradientUnits="userSpaceOnUse" cy="43.5" cx="4.993" gradientTransform="matrix(2.0038 0 0 1.4 -20.012 -104.4)" r="2.5">
   <stop id="stop2889" stop-color="#181818" offset="0"/>
   <stop id="stop2891" stop-color="#181818" stop-opacity="0" offset="1"/>
  </radialGradient>
  <linearGradient id="linearGradient5388" y2="39.999" gradientUnits="userSpaceOnUse" x2="25.058" y1="47.028" x1="25.058">
   <stop id="stop2895" stop-color="#181818" stop-opacity="0" offset="0"/>
   <stop id="stop2897" stop-color="#181818" offset=".5"/>
   <stop id="stop2899" stop-color="#181818" stop-opacity="0" offset="1"/>
  </linearGradient>
  <linearGradient id="linearGradient3037" y2="43" gradientUnits="userSpaceOnUse" x2="24" gradientTransform="translate(.0000037 1)" y1="5" x1="24">
   <stop id="stop3926-2-0" stop-color="#fff" offset="0"/>
   <stop id="stop3928-2-0" stop-color="#fff" stop-opacity=".23529" offset=".063165"/>
   <stop id="stop3930-6-1" stop-color="#fff" stop-opacity=".15686" offset=".95056"/>
   <stop id="stop3932-1-6" stop-color="#fff" stop-opacity=".39216" offset="1"/>
  </linearGradient>
  <radialGradient id="radialGradient3045" gradientUnits="userSpaceOnUse" cy="8.4498" cx="11.546" gradientTransform="matrix(1.9428e-8 2.337 -2.4723 -4.3056e-8 44.89 -11.435)" r="20">
   <stop id="stop3750-6-3-7-0-5-3-5-7" stop-color="#a0a0a0" offset="0"/>
   <stop id="stop3752-3-7-7-6-4-4-3-4" stop-color="#a0a0a0" offset=".26238"/>
   <stop id="stop3754-1-7-4-6-36-7-7-2-4" stop-color="#8e8e8e" offset=".70495"/>
   <stop id="stop3756-7-5-7-1-4-3-1-7" stop-color="#666" offset="1"/>
  </radialGradient>
 </defs>
 <metadata id="metadata5395">
  <rdf:RDF>
   <cc:Work rdf:about="">
    <dc:format>image/svg+xml</dc:format>
    <dc:type rdf:resource="http://purl.org/dc/dcmitype/StillImage"/>
    <dc:title/>
   </cc:Work>
  </rdf:RDF>
 </metadata>
 <g id="g3712" opacity=".4" transform="matrix(1.1579 0 0 .57143 -3.7895 19.143)">
  <rect id="rect2801" height="7" width="5" y="40" x="38" fill="url(#radialGradient3013)"/>
  <rect id="rect3696" transform="scale(-1)" height="7" width="5" y="-47" x="-10" fill="url(#radialGradient3015)"/>
  <rect id="rect3700" height="7" width="28" y="40" x="10" fill="url(#linearGradient5388)"/>
 </g>
 <rect id="rect4179" style="color:#000000" rx="2" ry="2" height="39" width="39" y="5.5" x="4.5" fill="url(#radialGradient3045)"/>
 <g id="g3829" opacity=".15" stroke="#000" fill="#a0a0a0">
  <path id="path3831" d="m21.653 12.306-9.3938 9.6126c-3.1739 3.9305 2.16 3.4732 4.4466 4.6053 0.82022 0.83841-3.1438 1.4572-2.3236 2.2964 0.82022 0.8384 4.9598 1.6153 5.7814 2.4537 0.82022 0.8384-1.6789 1.7279-0.85868 2.5663s2.7173 0.04405 3.0725 1.9796c0.25313 1.3831 3.4187 0.59437 4.9668-0.53842 0.82022-0.8391-1.5691-0.76009-0.7489-1.5985 2.0397-2.0859 3.9389-0.75799 4.6368-2.8481 0.34473-1.0328-3.0026-1.5922-2.181-2.4306 2.36-1.3782 10.517-2.2754 6.6464-6.1457l-9.7371-9.9525c-1.1908-1.1433-3.1781-1.1559-4.3074 0zm10.79 18.529c0 0.47689 3.5138 0.78946 3.5138-0.11258-0.50067-1.4489-3.0984-1.351-3.5138 0.11258zm-15.828 2.5341c0.83211 0.71953 2.1173-0.17901 2.5026-1.1831-0.80624-1.0713-3.8242 0.03846-2.5026 1.1831zm15.388-1.5544c-1.0727 0.96217 0.12027 1.9383 1.1775 1.3167 0.23565-0.23914-0.0063-1.0776-1.1775-1.3167z"/>
  <path id="path3833" d="m19.405 27.044c0.25103 0.15593 4.048 0.92721 4.9759 1.081 0.32166 0.06783 0.0937 0.39927-0.34963 0.62304-0.99993 0.26572-5.85-1.7041-4.6263-1.7041z"/>
  <path id="path3835" d="m25.392 12.98 3.7165 3.7746c0.35242 0.36012 0.34753 1.058 0.15034 1.2587l-1.8453-1.4761-0.36291 2.1859-1.5419-0.81393-2.4691 1.56-0.81743-3.2886-1.3265 2.295h-2.0278c-0.82652 0-0.92371-1.0489-0.17272-1.7999 1.3118-1.416 2.8173-2.8592 3.6354-3.6956 0.82232-0.8405 2.2551-0.81673 3.0613 0z"/>
 </g>
 <rect id="rect5505-21-69-0" stroke-linejoin="round" opacity=".4" style="color:#000000" rx="2" ry="2" height="39" width="39" stroke="#000" stroke-linecap="round" y="5.5" x="4.5" fill="none"/>
 <path id="rect3132" opacity=".1" style="color:#000000" d="m8.5 7.9v2h-1.5v1h1.5v4h-1.5v1h1.5v4h-1.5v1h1.5v4h-1.5v1h1.5v4h-1.5v1h1.5v4h-1.5v1h1.5v4h-1.5v1h1.5v1h1v-1h4v1h1v-1h4v1h1v-1h4v1h1v-1h4v1h1v-1h4v1h1v-1h4v1h1v-1h1.5v-1h-1.5v-4h1.5v-1h-1.5v-4h1.5v-1h-1.5v-4h1.5v-1h-1.5v-4h1.5v-1h-1.5v-4h1.5v-1h-1.5v-4h1.5v-1h-1.5v-2h-1v2h-4v-2h-1v2h-4v-2h-1v2h-4v-2h-1v2h-4v-2h-1v2h-4v-2h-1v2h-4v-2h-1zm1 3h4v4h-4v-4zm5 0h4v4h-4v-4zm5 0h4v4h-4v-4zm5 0h4v4h-4v-4zm5 0h4v4h-4v-4zm5 0h4v4h-4v-4zm-25 5h4v4h-4v-4zm5 0h4v4h-4v-4zm5 0h4v4h-4v-4zm5 0h4v4h-4v-4zm5 0h4v4h-4v-4zm5 0h4v4h-4v-4zm-25 5h4v4h-4v-4zm5 0h4v4h-4v-4zm5 0h4v4h-4v-4zm5 0h4v4h-4v-4zm5 0h4v4h-4v-4zm5 0h4v4h-4v-4zm-25 5h4v4h-4v-4zm5 0h4v4h-4v-4zm5 0h4v4h-4v-4zm5 0h4v4h-4v-4zm5 0h4v4h-4v-4zm5 0h4v4h-4v-4zm-25 5h4v4h-4v-4zm5 0h4v4h-4v-4zm5 0h4v4h-4v-4zm5 0h4v4h-4v-4zm5 0h4v4h-4v-4zm5 0h4v4h-4v-4zm-25 5h4v4h-4v-4zm5 0h4v4h-4v-4zm5 0h4v4h-4v-4zm5 0h4v4h-4v-4zm5 0h4v4h-4v-4zm5 0h4v4h-4v-4z" fill="#fff"/>
 <g id="g4179" opacity=".15" stroke="#000" stroke-width="2" fill="#a0a0a0">
  <path id="path4181" d="m21.653 12.306-9.3938 9.6126c-3.1739 3.9305 2.16 3.4732 4.4466 4.6053 0.82022 0.83841-3.1438 1.4572-2.3236 2.2964 0.82022 0.8384 4.9598 1.6153 5.7814 2.4537 0.82022 0.8384-1.6789 1.7279-0.85868 2.5663s2.7173 0.04405 3.0725 1.9796c0.25313 1.3831 3.4187 0.59437 4.9668-0.53842 0.82022-0.8391-1.5691-0.76009-0.7489-1.5985 2.0397-2.0859 3.9389-0.75799 4.6368-2.8481 0.34473-1.0328-3.0026-1.5922-2.181-2.4306 2.36-1.3782 10.517-2.2754 6.6464-6.1457l-9.7371-9.9525c-1.1908-1.1433-3.1781-1.1559-4.3074 0zm10.79 18.529c0 0.47689 3.5138 0.78946 3.5138-0.11258-0.50067-1.4489-3.0984-1.351-3.5138 0.11258zm-15.828 2.5341c0.83211 0.71953 2.1173-0.17901 2.5026-1.1831-0.80624-1.0713-3.8242 0.03846-2.5026 1.1831zm15.388-1.5544c-1.0727 0.96217 0.12027 1.9383 1.1775 1.3167 0.23565-0.23914-0.0063-1.0776-1.1775-1.3167z"/>
  <path id="path4183" d="m19.405 27.044c0.25103 0.15593 4.048 0.92721 4.9759 1.081 0.32166 0.06783 0.0937 0.39927-0.34963 0.62304-0.99993 0.26572-5.85-1.7041-4.6263-1.7041z"/>
  <path id="path4185" d="m25.392 12.98 3.7165 3.7746c0.35242 0.36012 0.34753 1.058 0.15034 1.2587l-1.8453-1.4761-0.36291 2.1859-1.5419-0.81393-2.4691 1.56-0.81743-3.2886-1.3265 2.295h-2.0278c-0.82652 0-0.92371-1.0489-0.17272-1.7999 1.3118-1.416 2.8173-2.8592 3.6354-3.6956 0.82232-0.8405 2.2551-0.81673 3.0613 0z"/>
 </g>
 <rect id="rect6741-1" opacity=".5" stroke-linejoin="round" rx="1" ry="1" height="37" width="37" stroke="url(#linearGradient3037)" stroke-linecap="round" y="6.5" x="5.5" fill="none"/>
 <g id="g3824">
  <path id="path5" d="m21.653 12.306-9.3938 9.6126c-3.1739 3.9305 2.16 3.4732 4.4466 4.6053 0.82022 0.83841-3.1438 1.4572-2.3236 2.2964 0.82022 0.8384 4.9598 1.6153 5.7814 2.4537 0.82022 0.8384-1.6789 1.7279-0.85868 2.5663s2.7173 0.04405 3.0725 1.9796c0.25313 1.3831 3.4187 0.59437 4.9668-0.53842 0.82022-0.8391-1.5691-0.76009-0.7489-1.5985 2.0397-2.0859 3.9389-0.75799 4.6368-2.8481 0.34473-1.0328-3.0026-1.5922-2.181-2.4306 2.36-1.3782 10.517-2.2754 6.6464-6.1457l-9.7371-9.9525c-1.1908-1.1433-3.1781-1.1559-4.3074 0zm10.79 18.529c0 0.47689 3.5138 0.78946 3.5138-0.11258-0.50067-1.4489-3.0984-1.351-3.5138 0.11258zm-15.828 2.5341c0.83211 0.71953 2.1173-0.17901 2.5026-1.1831-0.80624-1.0713-3.8242 0.03846-2.5026 1.1831zm15.388-1.5544c-1.0727 0.96217 0.12027 1.9383 1.1775 1.3167 0.23565-0.23914-0.0063-1.0776-1.1775-1.3167z" fill="#fcfcfc"/>
  <path id="path7" d="m19.405 27.044c0.25103 0.15593 4.048 0.92721 4.9759 1.081 0.32166 0.06783 0.0937 0.39927-0.34963 0.62304-0.99993 0.26572-5.85-1.7041-4.6263-1.7041z" fill="#a0a0a0"/>
  <path id="path9" d="m25.392 12.98 3.7165 3.7746c0.35242 0.36012 0.34753 1.058 0.15034 1.2587l-1.8453-1.4761-0.36291 2.1859-1.5419-0.81393-2.4691 1.56-0.81743-3.2886-1.3265 2.295h-2.0278c-0.82652 0-0.92371-1.0489-0.17272-1.7999 1.3118-1.416 2.8173-2.8592 3.6354-3.6956 0.82232-0.8405 2.2551-0.81673 3.0613 0z" fill="#a0a0a0"/>
 </g>
</svg>
