<?xml version="1.0" encoding="UTF-8" standalone="no"?>
<svg
   xmlns:dc="http://purl.org/dc/elements/1.1/"
   xmlns:cc="http://creativecommons.org/ns#"
   xmlns:rdf="http://www.w3.org/1999/02/22-rdf-syntax-ns#"
   xmlns:svg="http://www.w3.org/2000/svg"
   xmlns="http://www.w3.org/2000/svg"
   xmlns:sodipodi="http://sodipodi.sourceforge.net/DTD/sodipodi-0.dtd"
   xmlns:inkscape="http://www.inkscape.org/namespaces/inkscape"
   height="48"
   width="48"
   version="1.1"
   id="svg2"
   inkscape:version="0.91 r13725"
   sodipodi:docname="insync.svg">
  <metadata
     id="metadata75">
    <rdf:RDF>
      <cc:Work
         rdf:about="">
        <dc:format>image/svg+xml</dc:format>
        <dc:type
           rdf:resource="http://purl.org/dc/dcmitype/StillImage" />
      </cc:Work>
    </rdf:RDF>
  </metadata>
  <sodipodi:namedview
     pagecolor="#ffffff"
     bordercolor="#666666"
     borderopacity="1"
     objecttolerance="10"
     gridtolerance="10"
     guidetolerance="10"
     inkscape:pageopacity="0"
     inkscape:pageshadow="2"
     inkscape:window-width="1535"
     inkscape:window-height="876"
     id="namedview73"
     showgrid="false"
     inkscape:zoom="4.9166667"
     inkscape:cx="-43.525424"
     inkscape:cy="24"
     inkscape:window-x="65"
     inkscape:window-y="24"
     inkscape:window-maximized="1"
     inkscape:current-layer="svg2" />
  <defs
     id="defs4">
    <linearGradient
       id="f"
       y2="43"
       gradientUnits="userSpaceOnUse"
       x2="24"
       gradientTransform="translate(1.17e-5,1)"
       y1="5"
       x1="24">
      <stop
         stop-color="#fff"
         offset="0"
         id="stop7" />
      <stop
         stop-color="#fff"
         stop-opacity=".23529"
         offset=".063165"
         id="stop9" />
      <stop
         stop-color="#fff"
         stop-opacity=".15686"
         offset=".95056"
         id="stop11" />
      <stop
         stop-color="#fff"
         stop-opacity=".39216"
         offset="1"
         id="stop13" />
    </linearGradient>
    <radialGradient
       id="a"
       gradientUnits="userSpaceOnUse"
       cy="8.4498"
       cx="7.4957"
       gradientTransform="matrix(1.893e-8,2.2771,-2.4089,-4.1952e-8,44.354,-10.501)"
       r="20">
      <stop
         stop-color="#73baff"
         offset="0"
         id="stop16" />
      <stop
         stop-color="#5aa7f3"
         offset=".26238"
         id="stop18" />
      <stop
         stop-color="#1977d4"
         offset=".70495"
         id="stop20" />
      <stop
         stop-color="#0065c8"
         offset="1"
         id="stop22" />
    </radialGradient>
    <linearGradient
       id="e"
       y2="44.858"
       gradientUnits="userSpaceOnUse"
       x2=".85715"
       gradientTransform="translate(41.286,0)"
       y1="5.7143"
       x1=".85715">
      <stop
         stop-color="#0065c8"
         offset="0"
         id="stop42"
         style="stop-color:#2065a8;stop-opacity:1" />
      <stop
         stop-color="#00478b"
         offset="1"
         id="stop44"
         style="stop-color:#10477b;stop-opacity:1" />
    </linearGradient>
    <linearGradient
       id="g"
       y2="37"
       gradientUnits="userSpaceOnUse"
       x2="25"
       gradientTransform="translate(0,1)"
       y1="12"
       x1="25">
      <stop
         stop-color="#fff"
         offset="0"
         id="stop47" />
      <stop
         stop-color="#c4e0fa"
         offset="1"
         id="stop49" />
    </linearGradient>
  </defs>
  <g
     id="g4203"
     transform="translate(0,-1)">
    <rect
       id="rect59"
       x="5"
       y="6"
       width="38"
       height="38"
       ry="1.5031"
       rx="1.5031"
       style="color:#000000;fill:url(#a)" />
    <rect
       id="rect61"
       x="5.5"
       y="6.5"
       width="37"
       height="37"
       ry="1"
       rx="1"
       style="opacity:0.5;fill:none;stroke:url(#f);stroke-linecap:round;stroke-linejoin:round" />
    <rect
       id="rect63"
       x="4.5"
       y="5.5"
       width="39"
       height="39"
       ry="2"
       rx="2"
       style="color:#000000;fill:none;stroke:url(#e);stroke-linecap:round;stroke-linejoin:round" />
    <g
       id="g65">
      <path
         id="path67"
         d="m 30,14 c -7.7201,0 -14,6.2799 -14,14 0,0.68069 0.06583,1.345 0.16016,2 l 2.0195,0 c -0.109,-0.652 -0.18,-1.317 -0.18,-2 0,-6.6392 5.3608,-12 12,-12 0.6832,0 1.3483,0.07061 2,0.17969 l 0,-2.0195 c -0.655,-0.094 -1.319,-0.16 -2,-0.16 z m 0,4 c -5.511,0 -10,4.489 -10,10 0,0.6848 0.0692,1.3534 0.20117,2 l 2.0605,0 c -0.164,-0.64 -0.262,-1.307 -0.262,-2 0,-4.4301 3.5699,-8 8,-8 0.69262,0 1.3598,0.09755 2,0.26172 l 0,-2.0605 c -0.647,-0.133 -1.315,-0.202 -2,-0.202 z m 0,4 c -3.3019,0 -6,2.6981 -6,6 0,0.70173 0.12794,1.3729 0.35156,2 l 2.1973,0 c -0.34,-0.589 -0.549,-1.266 -0.549,-2 0,-2.221 1.779,-4 4,-4 0.73393,0 1.4108,0.20853 2,0.54883 l 0,-2.1973 c -0.627,-0.224 -1.298,-0.352 -2,-0.352 z m 0,4 a 2,2 0 0 0 -2,2 2,2 0 0 0 2,2 2,2 0 0 0 2,-2 2,2 0 0 0 -2,-2 z m -1,5 c -0.554,0 -1,0.446 -1,1 l 0,5 c 0,0.554 0.446,1 1,1 l 2,0 c 0.554,0 1,-0.446 1,-1 l 0,-5 c 0,-0.554 -0.446,-1 -1,-1 l -2,0 z"
         inkscape:connector-curvature="0"
         style="opacity:0.05;stroke:#000000;stroke-width:2;stroke-linejoin:round" />
      <path
         id="path69"
         d="m 30,14 c -7.7201,0 -14,6.2799 -14,14 0,0.68069 0.06583,1.345 0.16016,2 l 2.0195,0 c -0.109,-0.652 -0.18,-1.317 -0.18,-2 0,-6.6392 5.3608,-12 12,-12 0.6832,0 1.3483,0.07061 2,0.17969 l 0,-2.0195 c -0.655,-0.094 -1.319,-0.16 -2,-0.16 z m 0,4 c -5.511,0 -10,4.489 -10,10 0,0.6848 0.0692,1.3534 0.20117,2 l 2.0605,0 c -0.164,-0.64 -0.262,-1.307 -0.262,-2 0,-4.4301 3.5699,-8 8,-8 0.69262,0 1.3598,0.09755 2,0.26172 l 0,-2.0605 c -0.647,-0.133 -1.315,-0.202 -2,-0.202 z m 0,4 c -3.3019,0 -6,2.6981 -6,6 0,0.70173 0.12794,1.3729 0.35156,2 l 2.1973,0 c -0.34,-0.589 -0.549,-1.266 -0.549,-2 0,-2.221 1.779,-4 4,-4 0.73393,0 1.4108,0.20853 2,0.54883 l 0,-2.1973 c -0.627,-0.224 -1.298,-0.352 -2,-0.352 z m 0,4 a 2,2 0 0 0 -2,2 2,2 0 0 0 2,2 2,2 0 0 0 2,-2 2,2 0 0 0 -2,-2 z m -1,5 c -0.554,0 -1,0.446 -1,1 l 0,5 c 0,0.554 0.446,1 1,1 l 2,0 c 0.554,0 1,-0.446 1,-1 l 0,-5 c 0,-0.554 -0.446,-1 -1,-1 l -2,0 z"
         inkscape:connector-curvature="0"
         style="opacity:0.15" />
      <path
         id="path71"
         d="m 30,13 c -7.7201,0 -14,6.2799 -14,14 0,0.68069 0.06583,1.345 0.16016,2 l 2.0195,0 c -0.109,-0.652 -0.18,-1.317 -0.18,-2 0,-6.6392 5.3608,-12 12,-12 0.6832,0 1.3483,0.07061 2,0.17969 l 0,-2.0195 c -0.655,-0.094 -1.319,-0.16 -2,-0.16 z m 0,4 c -5.511,0 -10,4.489 -10,10 0,0.6848 0.0692,1.3534 0.20117,2 l 2.0605,0 c -0.164,-0.64 -0.262,-1.307 -0.262,-2 0,-4.4301 3.5699,-8 8,-8 0.69262,0 1.3598,0.09755 2,0.26172 l 0,-2.0605 c -0.647,-0.133 -1.315,-0.202 -2,-0.202 z m 0,4 c -3.3019,0 -6,2.6981 -6,6 0,0.70173 0.12794,1.3729 0.35156,2 l 2.1973,0 c -0.34,-0.589 -0.549,-1.266 -0.549,-2 0,-2.221 1.779,-4 4,-4 0.73393,0 1.4108,0.20853 2,0.54883 l 0,-2.1973 c -0.627,-0.224 -1.298,-0.352 -2,-0.352 z m 0,4 a 2,2 0 0 0 -2,2 2,2 0 0 0 2,2 2,2 0 0 0 2,-2 2,2 0 0 0 -2,-2 z m -1,5 c -0.554,0 -1,0.446 -1,1 l 0,5 c 0,0.554 0.446,1 1,1 l 2,0 c 0.554,0 1,-0.446 1,-1 l 0,-5 c 0,-0.554 -0.446,-1 -1,-1 l -2,0 z"
         style="fill:url(#g)"
         inkscape:connector-curvature="0" />
    </g>
  </g>
</svg>
