<?xml version="1.0" encoding="UTF-8" standalone="no"?>
<!-- Created with Inkscape (http://www.inkscape.org/) -->

<svg
   xmlns:dc="http://purl.org/dc/elements/1.1/"
   xmlns:cc="http://creativecommons.org/ns#"
   xmlns:rdf="http://www.w3.org/1999/02/22-rdf-syntax-ns#"
   xmlns:svg="http://www.w3.org/2000/svg"
   xmlns="http://www.w3.org/2000/svg"
   xmlns:xlink="http://www.w3.org/1999/xlink"
   xmlns:sodipodi="http://sodipodi.sourceforge.net/DTD/sodipodi-0.dtd"
   xmlns:inkscape="http://www.inkscape.org/namespaces/inkscape"
   version="1.1"
   width="48"
   height="48"
   id="svg4951"
   inkscape:version="0.91 r"
   sodipodi:docname="intellij.svg">
  <sodipodi:namedview
     pagecolor="#ffffff"
     bordercolor="#666666"
     borderopacity="1"
     objecttolerance="10"
     gridtolerance="10"
     guidetolerance="10"
     inkscape:pageopacity="0"
     inkscape:pageshadow="2"
     inkscape:window-width="1278"
     inkscape:window-height="686"
     id="namedview154"
     showgrid="false"
     inkscape:zoom="1"
     inkscape:cx="7.9335249"
     inkscape:cy="21.585739"
     inkscape:window-x="157"
     inkscape:window-y="97"
     inkscape:window-maximized="0"
     inkscape:current-layer="svg4951"
     showguides="false" />
  <defs
     id="defs4953">
    <linearGradient
       x1="38.851257"
       y1="41.608219"
       x2="34.130882"
       y2="37.809635"
       id="linearGradient4761"
       xlink:href="#linearGradient6455-7-3"
       gradientUnits="userSpaceOnUse" />
    <linearGradient
       id="linearGradient6455-7-3">
      <stop
         id="stop6457-5-1"
         style="stop-color:#fbac9b;stop-opacity:1"
         offset="0" />
      <stop
         id="stop6459-8-9"
         style="stop-color:#fcfafc;stop-opacity:1"
         offset="1" />
    </linearGradient>
    <linearGradient
       x1="38.851257"
       y1="41.608219"
       x2="34.130882"
       y2="37.809635"
       id="linearGradient4763"
       xlink:href="#linearGradient6413-0-0"
       gradientUnits="userSpaceOnUse" />
    <linearGradient
       id="linearGradient6413-0-0">
      <stop
         id="stop6415-1-7"
         style="stop-color:#feffff;stop-opacity:1"
         offset="0" />
      <stop
         id="stop6417-4-9"
         style="stop-color:#fe70ca;stop-opacity:1"
         offset="1" />
    </linearGradient>
    <radialGradient
       cx="36.49107"
       cy="39.708927"
       r="3.1589286"
       fx="36.49107"
       fy="39.708927"
       id="radialGradient4765"
       xlink:href="#linearGradient6303-33-0-2"
       gradientUnits="userSpaceOnUse" />
    <linearGradient
       id="linearGradient6303-33-0-2">
      <stop
         id="stop6305-1-0-2"
         style="stop-color:#ffffff;stop-opacity:1"
         offset="0" />
      <stop
         id="stop6307-5-0-6"
         style="stop-color:#ffffff;stop-opacity:0"
         offset="1" />
    </linearGradient>
    <radialGradient
       cx="36.49107"
       cy="39.708927"
       r="3.1589286"
       fx="36.49107"
       fy="39.708927"
       id="radialGradient4767"
       xlink:href="#linearGradient6303-3-2-1"
       gradientUnits="userSpaceOnUse" />
    <linearGradient
       id="linearGradient6303-3-2-1">
      <stop
         id="stop6305-3-0-9"
         style="stop-color:#ffffff;stop-opacity:1"
         offset="0" />
      <stop
         id="stop6307-1-0-1"
         style="stop-color:#ffffff;stop-opacity:0"
         offset="1" />
    </linearGradient>
    <radialGradient
       cx="36.49107"
       cy="39.708927"
       r="3.1589286"
       fx="36.49107"
       fy="39.708927"
       id="radialGradient4769"
       xlink:href="#linearGradient6303-4-8"
       gradientUnits="userSpaceOnUse" />
    <linearGradient
       id="linearGradient6303-4-8">
      <stop
         id="stop6305-33-3"
         style="stop-color:#ffffff;stop-opacity:1"
         offset="0" />
      <stop
         id="stop6307-9-3"
         style="stop-color:#ffffff;stop-opacity:0"
         offset="1" />
    </linearGradient>
    <radialGradient
       cx="32.372566"
       cy="31.405056"
       r="3.857446"
       fx="32.372566"
       fy="31.405056"
       id="radialGradient4771"
       xlink:href="#linearGradient6088-6-1-0"
       gradientUnits="userSpaceOnUse"
       gradientTransform="matrix(2.0664963,0,0,2.0664963,-34.525221,-33.493375)" />
    <linearGradient
       id="linearGradient6088-6-1-0">
      <stop
         id="stop6090-2-0-4"
         style="stop-color:#ff54d2;stop-opacity:0"
         offset="0" />
      <stop
         id="stop6257-4-6-1"
         style="stop-color:#ff54d2;stop-opacity:0"
         offset="0.32368398" />
      <stop
         id="stop6255-3-6-7"
         style="stop-color:#ff54d2;stop-opacity:0.2521739"
         offset="0.56140333" />
      <stop
         id="stop6092-9-6-8"
         style="stop-color:#ff54d2;stop-opacity:0.47826087"
         offset="1" />
    </linearGradient>
    <radialGradient
       cx="32.372566"
       cy="31.405056"
       r="3.857446"
       fx="32.372566"
       fy="31.405056"
       id="radialGradient4773"
       xlink:href="#linearGradient6191-8-3-4"
       gradientUnits="userSpaceOnUse"
       gradientTransform="matrix(2.0676498,0.55402509,-0.5348486,1.9960821,-17.765612,-49.217228)" />
    <linearGradient
       id="linearGradient6191-8-3-4">
      <stop
         id="stop6193-75-7-6"
         style="stop-color:#ffffff;stop-opacity:0"
         offset="0" />
      <stop
         id="stop6197-3-4-1"
         style="stop-color:#ffffff;stop-opacity:0"
         offset="0.40531859" />
      <stop
         id="stop6195-7-2-5"
         style="stop-color:#ffffff;stop-opacity:0.47826087"
         offset="1" />
    </linearGradient>
    <radialGradient
       cx="32.372566"
       cy="31.405056"
       r="3.857446"
       fx="32.372566"
       fy="31.405056"
       id="radialGradient4775"
       xlink:href="#linearGradient6191-7-9-4"
       gradientUnits="userSpaceOnUse"
       gradientTransform="matrix(2.0676498,0.55402509,-0.5348486,1.9960821,-17.765612,-49.217228)" />
    <linearGradient
       id="linearGradient6191-7-9-4">
      <stop
         id="stop6193-7-3-6"
         style="stop-color:#ffffff;stop-opacity:0"
         offset="0" />
      <stop
         id="stop6197-2-2-0"
         style="stop-color:#ffffff;stop-opacity:0"
         offset="0.40531859" />
      <stop
         id="stop6195-2-1-9"
         style="stop-color:#ffffff;stop-opacity:0.47826087"
         offset="1" />
    </linearGradient>
    <radialGradient
       cx="32.372566"
       cy="31.405056"
       r="3.857446"
       fx="32.372566"
       fy="31.405056"
       id="radialGradient4777"
       xlink:href="#linearGradient6191-9-9"
       gradientUnits="userSpaceOnUse"
       gradientTransform="matrix(2.0676498,0.55402509,-0.5348486,1.9960821,-17.765612,-49.217228)" />
    <linearGradient
       id="linearGradient6191-9-9">
      <stop
         id="stop6193-8-1"
         style="stop-color:#ffffff;stop-opacity:0"
         offset="0" />
      <stop
         id="stop6197-8-8"
         style="stop-color:#ffffff;stop-opacity:0"
         offset="0.40531859" />
      <stop
         id="stop6195-9-3"
         style="stop-color:#ffffff;stop-opacity:0.47826087"
         offset="1" />
    </linearGradient>
    <linearGradient
       x1="68.313301"
       y1="52.925316"
       x2="68.313301"
       y2="65.922028"
       id="linearGradient4730"
       xlink:href="#linearGradient3990-3-1-7"
       gradientUnits="userSpaceOnUse"
       gradientTransform="matrix(0.11534799,0,0,0.0865106,16.28139,17.444973)" />
    <linearGradient
       id="linearGradient3990-3-1-7">
      <stop
         id="stop3992-0-0-1"
         style="stop-color:#ffffff;stop-opacity:1"
         offset="0" />
      <stop
         id="stop3994-2-1-8"
         style="stop-color:#ffffff;stop-opacity:0"
         offset="1" />
    </linearGradient>
    <linearGradient
       x1="92.696327"
       y1="16.554602"
       x2="92.696327"
       y2="48.983677"
       id="linearGradient4779"
       xlink:href="#linearGradient4316-4-6-6-4"
       gradientUnits="userSpaceOnUse" />
    <linearGradient
       id="linearGradient4316-4-6-6-4">
      <stop
         id="stop4318-4-4-6-5"
         style="stop-color:#ffffff;stop-opacity:1"
         offset="0" />
      <stop
         id="stop4320-2-2-6-59"
         style="stop-color:#ffffff;stop-opacity:0.23529412"
         offset="0.33799788" />
      <stop
         id="stop4322-4-5-5-0"
         style="stop-color:#ffffff;stop-opacity:0.15686275"
         offset="0.61996669" />
      <stop
         id="stop4324-4-1-5-5"
         style="stop-color:#ffffff;stop-opacity:0.39215687"
         offset="1" />
    </linearGradient>
    <radialGradient
       cx="32.372566"
       cy="31.405056"
       r="3.857446"
       fx="32.372566"
       fy="31.405056"
       id="radialGradient4781"
       xlink:href="#linearGradient6088-74-4"
       gradientUnits="userSpaceOnUse"
       gradientTransform="matrix(2.0664963,0,0,2.0664963,-34.525221,-33.493375)" />
    <linearGradient
       id="linearGradient6088-74-4">
      <stop
         id="stop6090-5-66"
         style="stop-color:#ff54d2;stop-opacity:0"
         offset="0" />
      <stop
         id="stop6257-5-4"
         style="stop-color:#f62b68;stop-opacity:1"
         offset="0.32368398" />
      <stop
         id="stop6255-6-7"
         style="stop-color:#ff0105;stop-opacity:1"
         offset="0.56140333" />
      <stop
         id="stop6092-0-22"
         style="stop-color:#ff54d2;stop-opacity:0.47826087"
         offset="1" />
    </linearGradient>
    <linearGradient
       x1="92.696327"
       y1="16.554602"
       x2="92.696327"
       y2="48.983677"
       id="linearGradient4783"
       xlink:href="#linearGradient4316-4-0-7"
       gradientUnits="userSpaceOnUse" />
    <linearGradient
       id="linearGradient4316-4-0-7">
      <stop
         id="stop4318-4-5-3"
         style="stop-color:#ffffff;stop-opacity:1"
         offset="0" />
      <stop
         id="stop4320-2-9-4"
         style="stop-color:#ffffff;stop-opacity:0.23529412"
         offset="0.33799788" />
      <stop
         id="stop4322-4-1-3"
         style="stop-color:#ffffff;stop-opacity:0.15686275"
         offset="0.61996669" />
      <stop
         id="stop4324-4-8-66"
         style="stop-color:#ffffff;stop-opacity:0.39215687"
         offset="1" />
    </linearGradient>
    <radialGradient
       cx="95.838364"
       cy="95.388451"
       r="9.4981718"
       fx="95.838364"
       fy="95.388451"
       id="radialGradient4738"
       xlink:href="#linearGradient4278-3-5"
       gradientUnits="userSpaceOnUse"
       gradientTransform="matrix(0.40504519,-6.0397343e-8,5.6748136e-8,0.38056881,-14.881685,-12.451151)" />
    <linearGradient
       id="linearGradient4278-3-5">
      <stop
         id="stop4280-6-90"
         style="stop-color:#000000;stop-opacity:0"
         offset="0" />
      <stop
         id="stop4286-1-9"
         style="stop-color:#000000;stop-opacity:0"
         offset="0.5" />
      <stop
         id="stop4282-24-4"
         style="stop-color:#000000;stop-opacity:1"
         offset="1" />
    </linearGradient>
    <radialGradient
       cx="23.896"
       cy="3.99"
       r="20.396999"
       id="radialGradient4741"
       xlink:href="#linearGradient2867-449-88-871-390-598-476-591-434-148-57-177-691-4-22"
       gradientUnits="userSpaceOnUse"
       gradientTransform="matrix(0,0.41038782,-0.54170722,0,26.16143,10.43124)" />
    <linearGradient
       id="linearGradient2867-449-88-871-390-598-476-591-434-148-57-177-691-4-22">
      <stop
         id="stop7191-4-6"
         style="stop-color:#612f91;stop-opacity:1"
         offset="0" />
      <stop
         id="stop7197-2-8"
         style="stop-color:#1a4aa2;stop-opacity:1"
         offset="1" />
    </linearGradient>
    <linearGradient
       x1="7.0776"
       y1="3.0816"
       x2="7.0776"
       y2="45.368999"
       id="linearGradient4743"
       xlink:href="#linearGradient3087-408-5-3"
       gradientUnits="userSpaceOnUse"
       gradientTransform="matrix(0.17195169,0,0,0.17195091,19.87316,19.873055)" />
    <linearGradient
       x1="7.0776"
       y1="3.0816"
       x2="7.0776"
       y2="45.368999"
       id="linearGradient3087-408-5-3"
       gradientUnits="userSpaceOnUse"
       gradientTransform="matrix(0.22110724,0,0,0.22110728,6.6934256,6.693263)">
      <stop
         id="stop7201-5-71"
         style="stop-color:#170418;stop-opacity:1"
         offset="0" />
      <stop
         id="stop7203-2-8"
         style="stop-color:#50386b;stop-opacity:1"
         offset="1" />
    </linearGradient>
    <radialGradient
       cx="31.999998"
       cy="21.239277"
       r="10.498171"
       fx="31.999998"
       fy="21.239277"
       id="radialGradient4748"
       xlink:href="#linearGradient6042-1-7"
       gradientUnits="userSpaceOnUse"
       gradientTransform="matrix(0,1.4370509,-3.3103161,0,94.30873,-29.673199)" />
    <linearGradient
       id="linearGradient6042-1-7">
      <stop
         id="stop6044-9-6"
         style="stop-color:#07132d;stop-opacity:1"
         offset="0" />
      <stop
         id="stop6046-9-5"
         style="stop-color:#425479;stop-opacity:1"
         offset="1" />
    </linearGradient>
    <radialGradient
       cx="91.349998"
       cy="16.447752"
       r="15.639286"
       fx="91.349998"
       fy="16.447752"
       id="radialGradient4785"
       xlink:href="#linearGradient4507-6-5"
       gradientUnits="userSpaceOnUse"
       gradientTransform="matrix(0,1.9804002,-1.9804002,0,123.92313,-164.4618)" />
    <linearGradient
       id="linearGradient4507-6-5">
      <stop
         id="stop4509-3-8"
         style="stop-color:#2d3955;stop-opacity:1"
         offset="0" />
      <stop
         id="stop5959-4-45"
         style="stop-color:#2b3853;stop-opacity:1"
         offset="0.72468865" />
      <stop
         id="stop5961-1-7"
         style="stop-color:#192640;stop-opacity:1"
         offset="0.75" />
      <stop
         id="stop4511-1-0"
         style="stop-color:#08142e;stop-opacity:1"
         offset="1" />
    </linearGradient>
    <linearGradient
       x1="92.696327"
       y1="16.554602"
       x2="92.696327"
       y2="48.983677"
       id="linearGradient4787"
       xlink:href="#linearGradient4316-5-3"
       gradientUnits="userSpaceOnUse" />
    <linearGradient
       id="linearGradient4316-5-3">
      <stop
         id="stop4318-1-6"
         style="stop-color:#ffffff;stop-opacity:1"
         offset="0" />
      <stop
         id="stop4320-9-8"
         style="stop-color:#ffffff;stop-opacity:0.23529412"
         offset="0.33799788" />
      <stop
         id="stop4322-42-31"
         style="stop-color:#ffffff;stop-opacity:0.15686275"
         offset="0.61996669" />
      <stop
         id="stop4324-9-9"
         style="stop-color:#ffffff;stop-opacity:0.39215687"
         offset="1" />
    </linearGradient>
    <linearGradient
       x1="91.566116"
       y1="16.542858"
       x2="91.566116"
       y2="48.631081"
       id="linearGradient4789"
       xlink:href="#linearGradient4220-7-2"
       gradientUnits="userSpaceOnUse" />
    <linearGradient
       id="linearGradient4220-7-2">
      <stop
         id="stop4222-7-5"
         style="stop-color:#7a8498;stop-opacity:1"
         offset="0" />
      <stop
         id="stop4224-0-5"
         style="stop-color:#34405c;stop-opacity:1"
         offset="1" />
    </linearGradient>
    <linearGradient
       x1="51.199997"
       y1="8.1142893"
       x2="51.199997"
       y2="56.114563"
       id="linearGradient4756"
       xlink:href="#linearGradient4164-9"
       gradientUnits="userSpaceOnUse"
       gradientTransform="matrix(0.66665978,0,0,0.66665668,-10.209335,2.6672249)" />
    <linearGradient
       id="linearGradient4164-9">
      <stop
         id="stop4166-3"
         style="stop-color:#b6b6b6;stop-opacity:1"
         offset="0" />
      <stop
         id="stop4216-6"
         style="stop-color:#a4a4a4;stop-opacity:1"
         offset="0.33095336" />
      <stop
         id="stop4168-0"
         style="stop-color:#c5c5c5;stop-opacity:1"
         offset="1" />
    </linearGradient>
    <linearGradient
       x1="71.204407"
       y1="15.369057"
       x2="71.204407"
       y2="40.495617"
       id="linearGradient3177"
       xlink:href="#linearGradient4806-2"
       gradientUnits="userSpaceOnUse"
       gradientTransform="matrix(1.6169806,0,0,1.6169806,-92.707374,-21.060237)" />
    <linearGradient
       id="linearGradient4806-2">
      <stop
         id="stop4808-4"
         style="stop-color:#ffffff;stop-opacity:1"
         offset="0" />
      <stop
         id="stop4810-0"
         style="stop-color:#ffffff;stop-opacity:0.23529412"
         offset="0.42447853" />
      <stop
         id="stop4812-8"
         style="stop-color:#ffffff;stop-opacity:0.15686275"
         offset="0.82089913" />
      <stop
         id="stop4814-0"
         style="stop-color:#ffffff;stop-opacity:0.39215687"
         offset="1" />
    </linearGradient>
    <radialGradient
       cx="23.896"
       cy="3.99"
       r="20.396999"
       fx="23.896"
       fy="3.99"
       id="radialGradient4201"
       xlink:href="#radialGradient3093-0-3-6-6"
       gradientUnits="userSpaceOnUse"
       gradientTransform="matrix(0,2.8885219,-3.8127977,0,39.21344,-65.949504)" />
    <radialGradient
       cx="23.896"
       cy="3.99"
       r="20.396999"
       id="radialGradient3093-0-3-6-6"
       gradientUnits="userSpaceOnUse"
       gradientTransform="matrix(0,1.2316483,-1.625754,0,18.486966,-28.721977)">
      <stop
         id="stop3244-9-33-7-0-9"
         style="stop-color:#ffffff;stop-opacity:1"
         offset="0" />
      <stop
         id="stop3246-3-5-0-8-5"
         style="stop-color:#dddddd;stop-opacity:1"
         offset="0.26238" />
      <stop
         id="stop3248-1-7-8-8-1"
         style="stop-color:#abacae;stop-opacity:1"
         offset="0.66093999" />
      <stop
         id="stop3250-9-3-0-5-1"
         style="stop-color:#89898b;stop-opacity:1"
         offset="1" />
    </radialGradient>
    <linearGradient
       id="linearGradient3820-7-2-1">
      <stop
         id="stop3822-2-6-3"
         style="stop-color:#3d3d3d;stop-opacity:1"
         offset="0" />
      <stop
         id="stop3864-8-7-7"
         style="stop-color:#686868;stop-opacity:0.49803922"
         offset="0.5" />
      <stop
         id="stop3824-1-2-5"
         style="stop-color:#686868;stop-opacity:0"
         offset="1" />
    </linearGradient>
    <radialGradient
       cx="99.157013"
       cy="186.17059"
       r="62.769119"
       fx="99.157013"
       fy="186.17059"
       id="radialGradient4949"
       xlink:href="#linearGradient3820-7-2-1"
       gradientUnits="userSpaceOnUse"
       gradientTransform="matrix(0.27083381,0,0,0.08762273,-2.85507,25.187228)" />
    <linearGradient
       id="linearGradient8838">
      <stop
         offset="0"
         style="stop-color:#000000;stop-opacity:1"
         id="stop8840" />
      <stop
         offset="1"
         style="stop-color:#000000;stop-opacity:0"
         id="stop8842" />
    </linearGradient>
    <linearGradient
       id="linearGradient4422">
      <stop
         id="stop4424"
         style="stop-color:#e4e4e4;stop-opacity:1;"
         offset="0" />
      <stop
         id="stop4426"
         style="stop-color:#d2d2d3;stop-opacity:1;"
         offset="0.37188172" />
      <stop
         id="stop4428"
         style="stop-color:#ababac;stop-opacity:1;"
         offset="0.81009638" />
      <stop
         id="stop4430"
         style="stop-color:#888889;stop-opacity:1;"
         offset="1" />
    </linearGradient>
    <linearGradient
       id="linearGradient5873">
      <stop
         style="stop-color:#8b8b8b;stop-opacity:1;"
         offset="0"
         id="stop5875" />
      <stop
         style="stop-color:#c0c0c0;stop-opacity:1;"
         offset="1"
         id="stop5877" />
    </linearGradient>
    <linearGradient
       id="linearGradient3162">
      <stop
         style="stop-color:#f9f9f9;stop-opacity:1;"
         offset="0"
         id="stop3164" />
      <stop
         style="stop-color:#d4d4d4;stop-opacity:1"
         offset="1"
         id="stop3166" />
    </linearGradient>
    <linearGradient
       id="linearGradient4436">
      <stop
         style="stop-color:#efefef;stop-opacity:1;"
         offset="0"
         id="stop4438" />
      <stop
         style="stop-color:#ffffff;stop-opacity:1;"
         offset="1"
         id="stop4440" />
    </linearGradient>
    <linearGradient
       id="linearGradient4965"
       inkscape:collect="always">
      <stop
         id="stop4967"
         offset="0"
         style="stop-color:#000000;stop-opacity:1;" />
      <stop
         id="stop4969"
         offset="1"
         style="stop-color:#000000;stop-opacity:0" />
    </linearGradient>
    <linearGradient
       inkscape:collect="always"
       xlink:href="#linearGradient4644-104-3-3-6-2-3-4"
       id="linearGradient10060"
       gradientUnits="userSpaceOnUse"
       gradientTransform="matrix(1.3333333,0,0,1.1052632,-8.0000008,-2.526316)"
       x1="24.25"
       y1="29.5"
       x2="24.25"
       y2="18.454639" />
    <linearGradient
       id="linearGradient4644-104-3-3-6-2-3-4">
      <stop
         offset="0"
         style="stop-color:#ff4035;stop-opacity:1;"
         id="stop5237-6-5-1-7-5-2" />
      <stop
         offset="1"
         style="stop-color:#dc311a;stop-opacity:1;"
         id="stop5239-4-6-4-8-4-8" />
    </linearGradient>
    <radialGradient
       inkscape:collect="always"
       xlink:href="#linearGradient3820-7-2-1"
       id="radialGradient3302"
       gradientUnits="userSpaceOnUse"
       gradientTransform="matrix(0.27083381,0,0,0.08762273,-2.85507,25.187228)"
       cx="99.157013"
       cy="186.17059"
       fx="99.157013"
       fy="186.17059"
       r="62.769119" />
    <radialGradient
       inkscape:collect="always"
       xlink:href="#linearGradient4422"
       id="radialGradient3392"
       gradientUnits="userSpaceOnUse"
       gradientTransform="matrix(0,2.4988347,-2.6434689,-6.8014435e-8,104.09953,-11.248822)"
       cx="5.3215203"
       cy="8.4497671"
       fx="5.3215203"
       fy="8.4497671"
       r="19.99999" />
    <linearGradient
       inkscape:collect="always"
       xlink:href="#linearGradient5873"
       id="linearGradient3394"
       gradientUnits="userSpaceOnUse"
       gradientTransform="translate(57.762712,0.93164569)"
       x1="23.75"
       y1="44.25"
       x2="24.000118"
       y2="1.1171311" />
    <radialGradient
       inkscape:collect="always"
       xlink:href="#linearGradient3162"
       id="radialGradient3396"
       gradientUnits="userSpaceOnUse"
       gradientTransform="matrix(9.7678889e-8,2.0000001,-2.7333333,1.3349447e-7,67.82222,-34.333337)"
       cx="25"
       cy="15.666667"
       fx="25"
       fy="15.666667"
       r="10" />
    <linearGradient
       inkscape:collect="always"
       xlink:href="#linearGradient4436"
       id="linearGradient3398"
       gradientUnits="userSpaceOnUse"
       x1="24.777349"
       y1="24.616444"
       x2="24.777349"
       y2="31.493454" />
    <linearGradient
       inkscape:collect="always"
       xlink:href="#linearGradient4965"
       id="linearGradient3400"
       gradientUnits="userSpaceOnUse"
       x1="24.777349"
       y1="18.226145"
       x2="24.777349"
       y2="22.31111" />
    <linearGradient
       inkscape:collect="always"
       xlink:href="#linearGradient4644-104-3-3-6-2-3-4"
       id="linearGradient3402"
       gradientUnits="userSpaceOnUse"
       gradientTransform="matrix(1.3333333,0,0,1.1052632,49.762711,-1.5946703)"
       x1="24.25"
       y1="29.5"
       x2="24.25"
       y2="18.454639" />
    <radialGradient
       inkscape:collect="always"
       xlink:href="#linearGradient3765"
       id="radialGradient3037"
       gradientUnits="userSpaceOnUse"
       gradientTransform="matrix(-1.7922484,4.7450628e-8,-3.529013e-8,-1.3329366,41.58142,-41.248313)"
       cx="14.891734"
       cy="-17.680855"
       fx="14.891734"
       fy="-17.680855"
       r="25.570608" />
    <linearGradient
       id="linearGradient3765">
      <stop
         style="stop-color:#ffffff;stop-opacity:1;"
         offset="0"
         id="stop3767" />
      <stop
         style="stop-color:#e4e4e4;stop-opacity:1;"
         offset="1"
         id="stop3769" />
    </linearGradient>
    <linearGradient
       inkscape:collect="always"
       xlink:href="#linearGradient3775"
       id="linearGradient3039"
       gradientUnits="userSpaceOnUse"
       x1="15.123692"
       y1="-18.801283"
       x2="15.123692"
       y2="32.56842" />
    <linearGradient
       id="linearGradient3775">
      <stop
         style="stop-color:#ffffff;stop-opacity:0.58823532;"
         offset="0"
         id="stop3777" />
      <stop
         style="stop-color:#ffffff;stop-opacity:1;"
         offset="1"
         id="stop3779" />
    </linearGradient>
    <linearGradient
       inkscape:collect="always"
       xlink:href="#linearGradient3772-6"
       id="linearGradient3041"
       gradientUnits="userSpaceOnUse"
       gradientTransform="matrix(1.4102564,0,0,1.4102564,1.4050412,-4.5399056)"
       x1="27.096104"
       y1="10.880992"
       x2="27.096104"
       y2="39.150768" />
    <linearGradient
       id="linearGradient3772-6">
      <stop
         id="stop3774-6"
         style="stop-color:#b4b4b4;stop-opacity:1"
         offset="0" />
      <stop
         id="stop3776-4"
         style="stop-color:#969696;stop-opacity:1"
         offset="1" />
    </linearGradient>
    <linearGradient
       inkscape:collect="always"
       xlink:href="#linearGradient3063"
       id="linearGradient3036"
       gradientUnits="userSpaceOnUse"
       x1="532.82074"
       y1="694.12231"
       x2="532.82074"
       y2="263.72833" />
    <linearGradient
       inkscape:collect="always"
       id="linearGradient3063">
      <stop
         style="stop-color:#912420;stop-opacity:1"
         offset="0"
         id="stop3065" />
      <stop
         style="stop-color:#cf332d;stop-opacity:1"
         offset="1"
         id="stop3067" />
    </linearGradient>
    <linearGradient
       inkscape:collect="always"
       xlink:href="#linearGradient3014"
       id="linearGradient3038"
       gradientUnits="userSpaceOnUse"
       x1="543.32074"
       y1="441.51886"
       x2="543.32074"
       y2="817.55579" />
    <linearGradient
       id="linearGradient3014">
      <stop
         id="stop3016"
         style="stop-color:#ffffff;stop-opacity:1"
         offset="0" />
      <stop
         id="stop3018"
         style="stop-color:#b3b3b3;stop-opacity:1"
         offset="1" />
    </linearGradient>
    <linearGradient
       y2="817.55579"
       x2="543.32074"
       y1="441.51886"
       x1="543.32074"
       gradientUnits="userSpaceOnUse"
       id="linearGradient3065"
       xlink:href="#linearGradient3014"
       inkscape:collect="always" />
    <linearGradient
       inkscape:collect="always"
       xlink:href="#linearGradient3014"
       id="linearGradient3189"
       gradientUnits="userSpaceOnUse"
       x1="543.32074"
       y1="441.51886"
       x2="543.32074"
       y2="817.55579"
       gradientTransform="matrix(0.03802351,0,0,0.03802351,-53.244551,8.2907021)" />
    <linearGradient
       inkscape:collect="always"
       xlink:href="#linearGradient3063"
       id="linearGradient3193"
       gradientUnits="userSpaceOnUse"
       x1="532.82074"
       y1="694.12231"
       x2="532.82074"
       y2="263.72833"
       gradientTransform="matrix(0.03802351,0,0,0.03802351,-53.244551,8.2907021)" />
    <linearGradient
       inkscape:collect="always"
       xlink:href="#linearGradient3772-6"
       id="linearGradient3205"
       gradientUnits="userSpaceOnUse"
       gradientTransform="matrix(1.4102564,0,0,1.4102564,1.4050412,-4.5399056)"
       x1="27.096104"
       y1="10.880992"
       x2="27.096104"
       y2="39.150768" />
    <linearGradient
       inkscape:collect="always"
       xlink:href="#linearGradient3063"
       id="linearGradient3213"
       gradientUnits="userSpaceOnUse"
       gradientTransform="matrix(0.03802351,0,0,0.03802351,-53.244551,8.2907021)"
       x1="532.82074"
       y1="694.12231"
       x2="532.82074"
       y2="263.72833" />
    <linearGradient
       inkscape:collect="always"
       xlink:href="#linearGradient3014"
       id="linearGradient3215"
       gradientUnits="userSpaceOnUse"
       gradientTransform="matrix(0.03802351,0,0,0.03802351,-53.244551,8.2907021)"
       x1="543.32074"
       y1="441.51886"
       x2="543.32074"
       y2="817.55579" />
    <clipPath
       id="clipPath-439311876">
      <g
         transform="translate(0,-1004.3622)"
         id="g17">
        <path
           style="fill:#1890d0"
           inkscape:connector-curvature="0"
           d="m -24,13 c 0,1.105 -0.672,2 -1.5,2 -0.828,0 -1.5,-0.895 -1.5,-2 0,-1.105 0.672,-2 1.5,-2 0.828,0 1.5,0.895 1.5,2 z"
           transform="matrix(15.333333,0,0,11.5,414.99999,878.8622)"
           id="path19-2" />
      </g>
    </clipPath>
  </defs>
  <metadata
     id="metadata4956">
    <rdf:RDF>
      <cc:Work
         rdf:about="">
        <dc:format>image/svg+xml</dc:format>
        <dc:type
           rdf:resource="http://purl.org/dc/dcmitype/StillImage" />
        <dc:title />
      </cc:Work>
    </rdf:RDF>
  </metadata>
  <path
     style="fill:url(#radialGradient3302);fill-opacity:1;stroke:none"
     id="path3818-0-5"
     inkscape:connector-curvature="0"
     d="m 41,41.5 a 17,5.4999999 0 0 1 -34,0 17,5.4999999 0 1 1 34,0 z" />
  <path
     sodipodi:type="arc"
     style="fill:url(#radialGradient3037);fill-opacity:1;stroke:none"
     id="path2985"
     sodipodi:cx="15.210103"
     sodipodi:cy="6.8335247"
     sodipodi:rx="25.570608"
     sodipodi:ry="25.570608"
     d="m 40.780711,6.8335247 a 25.570608,25.570608 0 1 1 -51.141216,0 25.570608,25.570608 0 1 1 51.141216,0 z"
     transform="matrix(0.80270962,0,0,0.80270962,11.790704,18.514669)" />
  <path
     transform="matrix(0.80270962,0,0,0.80270962,11.790704,18.514669)"
     d="m 40.780711,6.8335247 a 25.570608,25.570608 0 1 1 -51.141216,0 25.570608,25.570608 0 1 1 51.141216,0 z"
     sodipodi:ry="25.570608"
     sodipodi:rx="25.570608"
     sodipodi:cy="6.8335247"
     sodipodi:cx="15.210103"
     id="path3755"
     style="fill:none;stroke:#828282;stroke-width:1.18156528;stroke-miterlimit:4;stroke-opacity:0.58823529;stroke-dasharray:none"
     sodipodi:type="arc" />
  <path
     sodipodi:type="arc"
     style="fill:none;stroke:url(#linearGradient3039);stroke-width:1.22041357;stroke-miterlimit:4;stroke-opacity:0.58823529;stroke-dasharray:none"
     id="path3773"
     sodipodi:cx="15.210103"
     sodipodi:cy="6.8335247"
     sodipodi:rx="25.570608"
     sodipodi:ry="25.570608"
     d="m 40.780711,6.8335247 a 25.570608,25.570608 0 1 1 -51.141216,0 25.570608,25.570608 0 1 1 51.141216,0 z"
     transform="matrix(0.76417715,0,0,0.76417715,12.376786,18.777865)" />
  <path
     inkscape:connector-curvature="0"
     d="m -55.203064,32.032276 c -0.689481,-0.08373 -1.322804,-0.489404 -1.627955,-1.042784 -0.311094,-0.564157 -0.339476,-0.859635 -0.321166,-3.343585 0.01418,-1.924021 0.01914,-2.044632 0.0954,-2.320158 0.181784,-0.656771 0.533767,-1.10472 1.080209,-1.374722 0.74994,-0.370553 1.558169,-0.322191 2.265808,0.135578 0.450474,0.29141 0.724234,0.712803 0.870317,1.339661 0.0647,0.277648 0.07089,0.489966 0.07089,2.433504 0,2.362617 -0.01149,2.499149 -0.253374,3.011101 -0.233046,0.493243 -0.759978,0.927831 -1.309857,1.080308 -0.241982,0.0671 -0.662699,0.106304 -0.870273,0.0811 z m 0.604195,-1.543116 c 0.264102,-0.201441 0.265965,-0.217997 0.280602,-2.494268 0.01137,-1.767864 0.005,-2.068287 -0.04862,-2.309502 -0.07231,-0.32503 -0.199158,-0.480276 -0.446928,-0.546993 -0.320834,-0.08639 -0.614735,0.09723 -0.716503,0.447657 -0.07839,0.269927 -0.07758,4.280248 9.2e-4,4.550724 0.05877,0.202478 0.249765,0.424363 0.391292,0.454563 0.183924,0.03925 0.409975,-0.0036 0.539238,-0.102181 z m 3.882579,1.544764 c -0.382265,-0.0509 -0.605358,-0.198395 -0.758466,-0.501462 -0.192224,-0.380494 -0.192121,-0.378267 -0.192121,-4.166997 l 0,-3.536186 0.771022,0 0.771021,0 0.01629,3.259162 c 0.0177,3.540759 0.01242,3.458118 0.224357,3.511312 0.194611,0.04884 0.409771,-0.05546 0.678294,-0.328819 l 0.257248,-0.261882 0.0097,-3.089887 0.0097,-3.089886 0.769976,-0.01029 0.769976,-0.01029 0,4.047269 0,4.04727 -0.104564,0.02148 c -0.126152,0.02591 -1.293786,0.02422 -1.387859,-0.002 -0.05749,-0.01603 -0.06654,-0.06845 -0.06654,-0.385529 l 0,-0.366977 -0.218635,0.212869 c -0.503094,0.489826 -1.046026,0.717888 -1.549458,0.650859 z m -10.004887,-0.132262 c -0.03234,-0.05233 -0.02749,-3.180553 0.0056,-3.623633 0.04246,-0.568153 0.01233,-1.014842 -0.395528,-2.157184 -0.132405,-0.370848 -0.387602,-1.122139 -0.547152,-1.629634 -1.152609,-3.666201 -1.075094,-3.418301 -0.964972,-3.419242 0.759232,-0.0065 1.631673,-0.002 1.641865,0.0082 0.0073,0.0073 0.254148,0.902608 0.548533,1.989557 0.294385,1.086948 0.540089,1.991745 0.546009,2.010659 0.0059,0.01891 0.178723,-0.614176 0.384007,-1.406869 0.430335,-1.661714 0.671804,-2.57918 0.68104,-2.587631 0.01925,-0.01761 0.233293,-0.02168 0.93269,-0.01772 l 0.774136,0.0044 -0.01705,0.123577 c -0.01394,0.101028 -0.542148,1.875113 -1.095309,3.678774 -0.06093,0.198673 -0.214979,0.71199 -0.342329,1.140705 -0.12735,0.428715 -0.281781,0.937959 -0.343178,1.131654 l -0.111633,0.352173 0,2.202346 c 0,2.065189 -0.0041,2.20348 -0.06654,2.220551 -0.138778,0.03797 -1.605462,0.01935 -1.630209,-0.02069 z"
     id="path19-8"
     style="fill:#ffffff;fill-opacity:1;stroke:none" />
  <path
     id="path55"
     d="m 15.533078,26.968263 c -0.41487,-0.06346 -0.874311,-0.247862 -1.229179,-0.492293 -0.402011,-0.271019 -0.830595,-0.783897 -1.03803,-1.233309 -0.498871,-1.102087 -0.284579,-2.409153 0.549444,-3.313121 0.311152,-0.335343 0.82031,-0.650103 1.289181,-0.80105 0.344582,-0.110638 0.595731,-0.140655 1.024315,-0.12436 0.425155,0.01372 0.720021,0.08062 1.078316,0.23757 0.612875,0.27102 1.178606,0.807054 1.4769,1.400551 0.455157,0.908257 0.414869,2.010344 -0.09686,2.877433 -0.625732,1.058347 -1.844624,1.634691 -3.070373,1.444291 m 0.01714,0.0035"
     inkscape:connector-curvature="0"
     style="fill:#f28720;fill-opacity:1;fill-rule:nonzero;stroke:none" />
  <path
     id="path57"
     d="m 15.188444,34.948685 c -1.090731,-0.232756 -1.936324,-1.084972 -2.155755,-2.165362 -0.02112,-0.110879 -0.03581,-0.336304 -0.03213,-0.56906 0.0037,-0.322559 0.01836,-0.429773 0.07162,-0.644202 0.261665,-0.987837 1.025545,-1.729174 2.040989,-1.990337 0.190052,-0.0504 0.340625,-0.06048 0.968621,-0.08247 0.742764,-0.02108 0.993411,-0.0504 1.427684,-0.157614 0.336951,-0.08614 0.746435,-0.232756 1.061351,-0.386705 1.682004,-0.816477 3.568749,-2.204765 3.568749,-4.037487 0.04315,-0.383039 0,-4.578141 0,-6.414529 -0.559137,0 -1.424011,0 -3.672497,0 -1.975803,0 -2.592782,0.02108 -2.754372,0 -1.836248,0 -2.754373,-0.916361 -2.671741,-2.99925 -0.08631,-1.582558 0.835482,-2.501668 2.67173,-2.501668 l 5.967807,0.0073 5.967807,-0.0073 c 0,4.277574 0,8.555148 0,12.829057 0,5.498167 -4.995513,8.215178 -9.521866,9.013329 -0.627997,0.107214 -0.96862,0.139287 -1.828903,0.146617 -0.77857,0.011 -0.867628,0.0073 -1.104504,-0.04307 m 14.291522,-2.695019 c -0.03948,-0.394035 -0.03948,-16.07939 0,-16.494501 0,-1.832723 0.918124,-2.749084 2.714893,-2.749084 1.875727,0 2.793852,0.916361 2.793852,2.749084 0,0.705598 -0.01836,-0.515912 -0.0073,8.003498 0.01101,5.507331 0.02112,8.243586 0.0073,8.491003 0,1.829057 -0.918125,2.749084 -2.714894,2.749084 -1.875727,0 -2.793851,-0.916361 -2.793851,-2.749084 m 0,0"
     inkscape:connector-curvature="0"
     style="fill:#408be2;fill-opacity:1;fill-rule:nonzero;stroke:none" />
  <g
     transform="matrix(0.9181026,0,0,0.91636121,1.9418038,2.0082586)"
     id="g4318"
     style="opacity:0.15;fill:#000000;fill-opacity:1">
    <path
       style="fill:#000000;fill-opacity:1;fill-rule:nonzero;stroke:none"
       d="m -19.320312,11.994141 c -1.832231,0 -2.752131,0.919397 -2.666016,2.501953 -0.08245,2.082889 0.833785,3 2.666016,3 0.161236,0.02108 0.776566,0 2.748046,0 l 3.664063,0 c 0,1.836388 0.04306,6.031023 0,6.414062 0,1.832723 -1.882223,3.220632 -3.560547,4.03711 -0.314228,0.153948 -0.722379,0.30058 -1.058594,0.386718 -0.433322,0.107215 -0.684644,0.137127 -1.425781,0.158204 -0.626623,0.02199 -0.775208,0.03163 -0.964844,0.08203 -1.013223,0.261163 -1.776016,1.002397 -2.037109,1.990234 -0.05314,0.214429 -0.0686,0.321972 -0.07227,0.644531 -0.0037,0.232756 0.01213,0.45748 0.0332,0.56836 0.218952,1.08039 1.062046,1.93326 2.150391,2.166015 l 0.208984,-0.976562 c -0.702305,-0.150196 -1.237699,-0.694308 -1.378906,-1.382813 0.0079,0.03807 -0.01646,-0.182288 -0.01367,-0.359375 l 0,-0.002 0,-0.002 c 0.0033,-0.287102 -2.9e-5,-0.240264 0.04102,-0.404297 0.170664,-0.640213 0.630069,-1.09653 1.316406,-1.273437 l 0.0039,-0.002 0.0039,0 c 0.09426,-0.02505 0.129644,-0.02744 0.738281,-0.04883 0.761084,-0.02164 1.157595,-0.067 1.636719,-0.185547 l 0.002,-0.002 0.0059,0 c 0.410552,-0.105184 0.852457,-0.263574 1.248047,-0.457032 l 0.0039,-0.002 c 0.906424,-0.441252 1.877351,-1.034249 2.673828,-1.828125 0.792884,-0.790293 1.434042,-1.838526 1.441407,-3.08789 0.0246,-0.272802 0.02159,-0.482737 0.02344,-0.919922 0.002,-0.481407 7.86e-4,-1.101356 -0.002,-1.765625 -0.0054,-1.32854 -0.01758,-2.839626 -0.01758,-3.75 l 0,-0.998047 -4.664063,0 c -0.989302,0 -1.640025,0.0052 -2.058593,0.0078 -0.418569,0.0027 -0.684521,-0.01621 -0.560547,0 l -0.06445,-0.0078 -0.06445,0 c -0.749472,0 -1.103757,-0.166348 -1.3125,-0.394532 -0.208744,-0.228184 -0.390674,-0.675126 -0.355469,-1.564453 l 0.002,-0.04687 -0.002,-0.04883 c -0.03199,-0.587834 0.09877,-0.866144 0.30664,-1.064453 0.207615,-0.198067 0.612153,-0.380415 1.359375,-0.380859 l 5.957032,0.0059 4.9531246,-0.0039 0,11.826172 c 0,2.446765 -1.0553578,4.170121 -2.6855466,5.490234 -1.628797,1.318988 -3.855199,2.160424 -5.982422,2.537109 -0.600061,0.102671 -0.830258,0.125675 -1.666016,0.132813 l -0.002,0 -0.0039,0 c -0.772645,0.01093 -0.682859,0.02032 -0.878906,-0.02148 l -0.208985,0.978515 c 0.236358,0.0504 0.32665,0.05396 1.103516,0.04297 0.8584,-0.0073 1.197596,-0.03927 1.824219,-0.146484 4.516449,-0.798151 9.5019528,-3.515505 9.5019528,-9.013672 l 0,-12.830078 -5.9550778,0.0078 -5.955078,-0.0078 z m 16.4511714,0.0078 c -1.792838,0 -2.7089844,0.917278 -2.7089844,2.75 -0.039393,0.415112 -0.039393,16.100105 0,16.494141 l 0.9941406,-0.09961 c 0.013879,0.138801 1.686e-4,-0.03025 -0.00195,-0.162109 -0.00211,-0.131857 -0.00403,-0.318522 -0.00586,-0.550781 -0.00366,-0.464519 -0.00727,-1.111623 -0.00977,-1.876953 -0.00495,-1.530659 -0.00781,-3.540358 -0.00781,-5.550782 0,-2.010425 0.00287,-4.021388 0.00781,-5.554687 0.00247,-0.76665 0.00608,-1.414341 0.00977,-1.88086 0.00183,-0.233259 0.00375,-0.421598 0.00586,-0.554687 0.00211,-0.13309 0.013441,-0.291447 0.00195,-0.169922 l 0.00586,-0.04687 0,-0.04687 c 0,-0.749672 0.1705979,-1.136897 0.390625,-1.359375 0.2200271,-0.222478 0.5922462,-0.390625 1.3183594,-0.390625 0.7726756,0 1.1658176,0.175961 1.390625,0.398438 0.2248083,0.222477 0.3964844,0.60189 0.3964844,1.351562 0,0.68828 -0.018815,-0.514861 -0.00781,8.005859 0.0055,2.753945 0.011501,4.814374 0.013672,6.216797 0.0011,0.701211 0.00269,1.238523 0.00195,1.613282 -8.107e-4,0.374759 -0.00842,0.64841 -0.00586,0.601562 l -0.00195,0.0293 0,0.02734 c 0,0.747506 -0.1740333,1.132291 -0.3945313,1.355468 -0.2204989,0.223178 -0.5890216,0.392579 -1.3144531,0.392579 -0.7726756,0 -1.1677707,-0.174008 -1.3925782,-0.396485 -0.2248083,-0.222477 -0.3945312,-0.60189 -0.3945312,-1.351562 l -1,0 c 0,1.832722 0.9154854,2.748047 2.7871094,2.748047 1.79283797,0 2.70898435,-0.91899 2.70898435,-2.748047 0.01374173,-0.247418 0.0031809,-2.982904 -0.0078125,-8.490235 -0.01099339,-8.51941 0.0078125,-7.298308 0.0078125,-8.003906 0,-1.832722 -0.91548545,-2.75 -2.78710935,-2.75 z"
       transform="matrix(1.0915654,0,0,1.0912727,36.089498,-1.0937891)"
       id="path4322"
       inkscape:connector-curvature="0" />
  </g>
  <path
     style="fill:#000000;fill-opacity:1;fill-rule:nonzero;stroke:none;opacity:0.15"
     d="m 16.127378,21.005323 c -0.428584,-0.01629 -0.678856,0.01241 -1.023438,0.123047 -0.468871,0.150947 -0.97791,0.465438 -1.289062,0.800781 -0.834023,0.903968 -1.047699,2.212366 -0.548829,3.314453 0.207436,0.449412 0.635099,0.961403 1.03711,1.232422 0.350547,0.241455 0.802022,0.422694 1.21289,0.488282 l 0.002,0 c 1.225093,0.189489 2.442958,-0.387526 3.068359,-1.445313 0.511729,-0.867089 0.552813,-1.968696 0.09766,-2.876953 -0.298294,-0.593497 -0.86564,-1.129371 -1.478515,-1.400391 -0.358295,-0.15695 -0.65297,-0.222608 -1.078125,-0.236328 z m -0.03711,0.998047 0.002,0 0.0039,0 c 0.335313,0.01082 0.439724,0.03635 0.708984,0.154297 0.37421,0.166833 0.805961,0.578614 0.984375,0.933594 0.299401,0.59745 0.270439,1.352464 -0.06445,1.919922 -0.416793,0.704953 -1.229479,1.091889 -2.052735,0.964843 -0.237704,-0.03876 -0.589473,-0.177325 -0.802734,-0.324218 l -0.0039,-0.002 -0.0039,-0.002 c -0.189325,-0.127634 -0.574149,-0.582882 -0.685547,-0.820312 -0.329903,-0.732725 -0.192157,-1.606146 0.373047,-2.21875 0.154173,-0.16518 0.576247,-0.435751 0.859375,-0.527344 0.260047,-0.0835 0.314468,-0.09209 0.68164,-0.07813 z"
     id="path4342"
     inkscape:connector-curvature="0" />
</svg>
