<?xml version="1.0" encoding="UTF-8" standalone="no"?>
<!-- Created with Inkscape (http://www.inkscape.org/) -->
<svg id="svg4117" xmlns:rdf="http://www.w3.org/1999/02/22-rdf-syntax-ns#" xmlns="http://www.w3.org/2000/svg" height="48" width="48" version="1.1" xmlns:cc="http://creativecommons.org/ns#" xmlns:xlink="http://www.w3.org/1999/xlink" xmlns:dc="http://purl.org/dc/elements/1.1/">
 <defs id="defs4119">
  <radialGradient id="radialGradient2873-966-168" gradientUnits="userSpaceOnUse" cy="43.5" cx="4.993" gradientTransform="matrix(2.0038 0 0 1.4 27.988 -17.4)" r="2.5">
   <stop id="stop2883" stop-color="#181818" offset="0"/>
   <stop id="stop2885" stop-color="#181818" stop-opacity="0" offset="1"/>
  </radialGradient>
  <radialGradient id="radialGradient2875-742-326" gradientUnits="userSpaceOnUse" cy="43.5" cx="4.993" gradientTransform="matrix(2.0038 0 0 1.4 -20.012 -104.4)" r="2.5">
   <stop id="stop2889" stop-color="#181818" offset="0"/>
   <stop id="stop2891" stop-color="#181818" stop-opacity="0" offset="1"/>
  </radialGradient>
  <linearGradient id="linearGradient2877-634-617" y2="39.999" gradientUnits="userSpaceOnUse" x2="25.058" y1="47.028" x1="25.058">
   <stop id="stop2895" stop-color="#181818" stop-opacity="0" offset="0"/>
   <stop id="stop2897" stop-color="#181818" offset=".5"/>
   <stop id="stop2899" stop-color="#181818" stop-opacity="0" offset="1"/>
  </linearGradient>
  <filter id="filter3831" color-interpolation-filters="sRGB">
   <feGaussianBlur id="feGaussianBlur3833" stdDeviation="0.6375"/>
  </filter>
  <clipPath id="clipPath3823">
   <path id="path3825" fill="#fff" d="m108.81 58c-1.56 0-2.81 1.254-2.81 2.812v24.375c0 1.559 1.25 2.813 2.81 2.813h24.375c1.57 0 2.82-1.254 2.82-2.812v-24.375c0-1.559-1.25-2.813-2.81-2.813h-24.375zm7.1875 4.5h10v8.75h5l-10 13.75-10-13.75h5v-8.75z"/>
  </clipPath>
  <linearGradient id="linearGradient3812" y2="50.069" gradientUnits="userSpaceOnUse" x2="65.263" gradientTransform="matrix(.625 0 0 .625 78.5 32.25)" y1="64.205" x1="65.263">
   <stop id="stop5012" offset="0"/>
   <stop id="stop5014" stop-opacity="0" offset="1"/>
  </linearGradient>
  <filter id="filter3806" color-interpolation-filters="sRGB">
   <feGaussianBlur id="feGaussianBlur3808" stdDeviation="1.2"/>
  </filter>
  <linearGradient id="linearGradient3788" y2="75.095" xlink:href="#linearGradient3737" gradientUnits="userSpaceOnUse" x2="70" gradientTransform="translate(0,4)" y1="54" x1="70"/>
  <linearGradient id="linearGradient3773" y2="72" gradientUnits="userSpaceOnUse" x2="88" gradientTransform="matrix(.9375 0 0 .9375 -140.5 3.5)" y1="72" x1="56">
   <stop id="stop3780" stop-color="#499119" offset="0"/>
   <stop id="stop3782" stop-color="#8fd625" offset="1"/>
  </linearGradient>
  <linearGradient id="linearGradient3832" y2="50.069" xlink:href="#linearGradient3737" gradientUnits="userSpaceOnUse" x2="65.263" gradientTransform="matrix(.625 0 0 .625 28.5 31.25)" y1="64.205" x1="65.263"/>
  <filter id="filter3174" color-interpolation-filters="sRGB">
   <feGaussianBlur id="feGaussianBlur3176" stdDeviation="1.71"/>
  </filter>
  <linearGradient id="linearGradient3737">
   <stop id="stop3739" stop-color="#fff" offset="0"/>
   <stop id="stop3741" stop-color="#fff" stop-opacity="0" offset="1"/>
  </linearGradient>
  <linearGradient id="ButtonShadow" y2="7.0165" gradientUnits="userSpaceOnUse" x2="45.448" gradientTransform="scale(1.0059 .99417)" y1="92.54" x1="45.448">
   <stop id="stop3750" offset="0"/>
   <stop id="stop3752" stop-opacity=".58824" offset="1"/>
  </linearGradient>
  <linearGradient id="linearGradient3084" y2="43" gradientUnits="userSpaceOnUse" x2="24" gradientTransform="translate(.0000024 .96745)" y1="5" x1="24">
   <stop id="stop3926" stop-color="#fff" offset="0"/>
   <stop id="stop3928" stop-color="#fff" stop-opacity=".23529" offset=".063165"/>
   <stop id="stop3930" stop-color="#fff" stop-opacity=".15686" offset=".95056"/>
   <stop id="stop3932" stop-color="#fff" stop-opacity=".39216" offset="1"/>
  </linearGradient>
  <radialGradient id="radialGradient3093" gradientUnits="userSpaceOnUse" cy="8.4498" cx="7.4957" gradientTransform="matrix(0 1.9393 -2.0515 -5.2784e-8 41.335 -8.4863)" r="20">
   <stop id="stop3602" stop-color="#f4f4f4" offset="0"/>
   <stop id="stop3604" stop-color="#dbdbdb" offset="1"/>
  </radialGradient>
  <linearGradient id="linearGradient3095" y2="3.899" gradientUnits="userSpaceOnUse" x2="24" gradientTransform="translate(-6e-7 .96744)" y1="44" x1="24">
   <stop id="stop3106" stop-color="#aaa" offset="0"/>
   <stop id="stop3108" stop-color="#c8c8c8" offset="1"/>
  </linearGradient>
  <linearGradient id="linearGradient3098" y2="3" gradientUnits="userSpaceOnUse" x2="20" y1="43" x1="20">
   <stop id="stop3106-9" stop-color="#aaa" offset="0"/>
   <stop id="stop3108-8" stop-color="#c8c8c8" offset="1"/>
  </linearGradient>
 </defs>
 <metadata id="metadata4122">
  <rdf:RDF>
   <cc:Work rdf:about="">
    <dc:format>image/svg+xml</dc:format>
    <dc:type rdf:resource="http://purl.org/dc/dcmitype/StillImage"/>
    <dc:title/>
   </cc:Work>
  </rdf:RDF>
 </metadata>
 <g id="layer2" display="none" transform="translate(-135.86 -31.05)">
  <path id="rect3745" opacity=".9" d="m11 7 37-2 37 2c3.324 0 6 2.676 6 6v73c0 3.324-2.676 6-6 6h-74c-3.324 0-6-2.676-6-6v-73c0-3.324 2.676-6 6-6z" filter="url(#filter3174)" fill="url(#ButtonShadow)"/>
 </g>
 <g id="layer4" display="none" transform="translate(-135.86 -31.05)">
  <rect id="rect3790" opacity=".6" transform="matrix(0,-1,1,0,0,4)" rx="2.8125" ry="2.8125" height="30" filter="url(#filter3806)" width="30" y="56" x="-86"/>
  <rect id="rect2993" transform="rotate(-90)" rx="2.8125" ry="2.8125" height="30" width="30" y="56" x="-88" fill="url(#linearGradient3773)"/>
  <path id="rect3775" opacity=".5" d="m58.812 58c-1.558 0-2.812 1.254-2.812 2.812v24.375c0 0.87307 0.41082 1.6412 1.0312 2.1562-0.003-0.053-0.031-0.101-0.031-0.155v-24.375c0-1.559 1.171-2.813 2.625-2.813h22.75c1.454 0 2.625 1.254 2.625 2.812v24.375c0 0.05463-0.02841 0.10241-0.03125 0.15625 0.62-0.514 1.031-1.282 1.031-2.155v-24.375c0-1.559-1.254-2.813-2.812-2.813h-24.375z" fill="url(#linearGradient3788)"/>
  <path id="path3810" opacity=".6" filter="url(#filter3831)" d="m116 63.5v8.75h-5l10 13.75 10-13.75h-5v-8.75h-10z" clip-path="url(#clipPath3823)" transform="translate(-50)" display="inline" fill="url(#linearGradient3812)"/>
  <path id="path4278" d="m66 62.5v8.75h-5l10 13.75 10-13.75h-5v-8.75h-10z" display="inline" fill="url(#linearGradient3832)"/>
 </g>
 <g id="g2036" transform="matrix(1.1 0 0 .44444 -2.4 25.111)">
  <g id="g3712" opacity=".4" transform="matrix(1.0526 0 0 1.2857 -1.2632 -13.429)">
   <rect id="rect2801" height="7" width="5" y="40" x="38" fill="url(#radialGradient2873-966-168)"/>
   <rect id="rect3696" transform="scale(-1)" height="7" width="5" y="-47" x="-10" fill="url(#radialGradient2875-742-326)"/>
   <rect id="rect3700" height="7" width="28" y="40" x="10" fill="url(#linearGradient2877-634-617)"/>
  </g>
 </g>
 <path id="path4564-0" opacity=".05" style="color:#000000" d="m22.969 8.1875a2.9359 2.9359 0 0 0 -1.407 0.4063l-11.031 6.375a2.9359 2.9359 0 0 0 -1.406 2.031 2.9359 2.9359 0 0 0 -0.0312 0 2.9359 2.9359 0 0 0 -0.9688 2.188l-0.0625 12.718a2.9359 2.9359 0 0 0 1 2.1875 2.9359 2.9359 0 0 0 0 0.03125 2.9359 2.9359 0 0 0 1.4375 2.0938l11 6.3125a2.9359 2.9359 0 0 0 2.4062 0.21875 2.9359 2.9359 0 0 0 0.03125 0 2.9359 2.9359 0 0 0 2.5 -0.1875l11-6.3438a2.9359 2.9359 0 0 0 1.4062 -2 2.9359 2.9359 0 0 0 1.0938 -2.25v-12.719a2.9359 2.9359 0 0 0 -1 -2.1875 2.9359 2.9359 0 0 0 -1.437 -2.093l-11.031-6.344a2.9359 2.9359 0 0 0 -2.407 -0.25 2.9359 2.9359 0 0 0 -1.093 -0.1875z" fill="url(#linearGradient3098)"/>
 <rect id="rect5505-21" stroke-linejoin="round" height="39" stroke="url(#linearGradient3095)" stroke-linecap="round" fill="url(#radialGradient3093)" style="color:#000000" rx="2" ry="2" width="39" y="5.4674" x="4.5"/>
 <rect id="rect6741-2" stroke-linejoin="round" rx="1" ry="1" height="37" width="37" stroke="url(#linearGradient3084)" stroke-linecap="round" y="6.4674" x="5.5" fill="none"/>
 <g id="g4244" stroke-linejoin="round" opacity=".15" stroke="#fff" stroke-linecap="round" fill="none">
  <path id="path4246" d="m40.851 19.248c-1.601-7.633-16.702-8.117-26.435-2.301v0.64231c9.7209-4.9081 23.514-4.8768 24.77 2.1547 0.42295 2.3294-0.90916 4.752-3.2977 6.1459v1.8242c2.8753-1.0319 5.8143-4.3718 4.9629-8.466m-17.701 13.365c-6.717 0.608-13.716-0.349-14.696-5.504-0.4867-2.538 0.6979-5.232 2.261-6.904v-0.89492c-2.8177 2.4259-4.3482 5.4944-3.4645 9.1175 1.127 4.6494 7.1337 7.2811 16.304 6.4048 3.6309-0.34287 8.3826-1.4904 11.68-3.2706v-2.5292c-2.9969 1.7555-7.9535 3.2058-12.084 3.5797z" stroke-width="2"/>
  <g id="g4248" transform="matrix(1.1214 0 0 1.1339 -2.2027 -4.3125)" stroke-width="1.7736">
   <path id="path4250" d="m34.067 19.677h-1.6573v7.0052c0 0.82275 0.41595 1.5383 1.6573 1.6518"/>
   <path id="path4252" d="m14.323 22.237h-1.6575v4.5755c0 0.82306 0.41595 1.5384 1.6575 1.6518"/>
   <rect id="rect4254" height="1.4902" width="1.6575" y="19.89" x="12.665"/>
   <path id="path4256" d="m24.255 28.391c-1.3439 0-1.9104-0.8857-1.9104-1.7598v-6.0768h1.6394v1.6831h1.2414v1.2602h-1.2414v3.0399c0 0.35751 0.18079 0.55357 0.57241 0.55357h0.66904v1.2999h-0.97036"/>
   <path id="path4258" d="m28.613 23.421c-0.56038 0-0.99421 0.27525-1.1751 0.64713-0.10845 0.22414-0.1447 0.39451-0.16259 0.66997h2.5374c-0.03622-0.67282-0.35585-1.3171-1.1997-1.3171m-1.3377 2.3786c0 0.79763 0.53008 1.3849 1.4583 1.3849 0.72942 0 1.091-0.193 1.5129-0.58719l1.0126 0.92239c-0.65094 0.60723-1.332 0.97631-2.5374 0.97631-1.573 0-3.0799-0.8146-3.0799-3.1876 0-2.0293 1.3139-3.1759 3.0437-3.1759 1.7539 0 2.7602 1.3425 2.7602 3.1052v0.56203h-4.1704"/>
   <path id="path4260" d="m18.789 23.497c0.48206 0 0.68102 0.22429 0.68102 0.59041v4.3114h1.6454v-4.3171c0-0.87708-0.49426-1.845-1.9347-1.845h-3.3932v6.162h1.6394v-4.9018"/>
  </g>
 </g>
 <g id="g4262" stroke-linejoin="round" opacity=".15" stroke="#fff" stroke-linecap="round" fill="none">
  <path id="path4264" d="m40.851 19.248c-1.601-7.633-16.702-8.117-26.435-2.301v0.64231c9.7209-4.9081 23.514-4.8768 24.77 2.1547 0.42295 2.3294-0.90916 4.752-3.2977 6.1459v1.8242c2.8753-1.0319 5.8143-4.3718 4.9629-8.466m-17.701 13.365c-6.717 0.608-13.716-0.349-14.696-5.504-0.4867-2.538 0.6979-5.232 2.261-6.904v-0.89492c-2.8177 2.4259-4.3482 5.4944-3.4645 9.1175 1.127 4.6494 7.1337 7.2811 16.304 6.4048 3.6309-0.34287 8.3826-1.4904 11.68-3.2706v-2.5292c-2.9969 1.7555-7.9535 3.2058-12.084 3.5797z"/>
  <g id="g4266" transform="matrix(1.1214 0 0 1.1339 -2.2027 -4.3125)" stroke-width=".88680">
   <path id="path4268" d="m34.067 19.677h-1.6573v7.0052c0 0.82275 0.41595 1.5383 1.6573 1.6518"/>
   <path id="path4270" d="m14.323 22.237h-1.6575v4.5755c0 0.82306 0.41595 1.5384 1.6575 1.6518"/>
   <rect id="rect4272" height="1.4902" width="1.6575" y="19.89" x="12.665"/>
   <path id="path4274" d="m24.255 28.391c-1.3439 0-1.9104-0.8857-1.9104-1.7598v-6.0768h1.6394v1.6831h1.2414v1.2602h-1.2414v3.0399c0 0.35751 0.18079 0.55357 0.57241 0.55357h0.66904v1.2999h-0.97036"/>
   <path id="path4276" d="m28.613 23.421c-0.56038 0-0.99421 0.27525-1.1751 0.64713-0.10845 0.22414-0.1447 0.39451-0.16259 0.66997h2.5374c-0.03622-0.67282-0.35585-1.3171-1.1997-1.3171m-1.3377 2.3786c0 0.79763 0.53008 1.3849 1.4583 1.3849 0.72942 0 1.091-0.193 1.5129-0.58719l1.0126 0.92239c-0.65094 0.60723-1.332 0.97631-2.5374 0.97631-1.573 0-3.0799-0.8146-3.0799-3.1876 0-2.0293 1.3139-3.1759 3.0437-3.1759 1.7539 0 2.7602 1.3425 2.7602 3.1052v0.56203h-4.1704"/>
   <path id="path4279" d="m18.789 23.497c0.48206 0 0.68102 0.22429 0.68102 0.59041v4.3114h1.6454v-4.3171c0-0.87708-0.49426-1.845-1.9347-1.845h-3.3932v6.162h1.6394v-4.9018"/>
  </g>
 </g>
 <g id="g4234" fill="#127cc1">
  <path id="path6" d="m40.851 19.248c-1.601-7.633-16.702-8.117-26.435-2.301v0.64231c9.7209-4.9081 23.514-4.8768 24.77 2.1547 0.42295 2.3294-0.90916 4.752-3.2977 6.1459v1.8242c2.8753-1.0319 5.8143-4.3718 4.9629-8.466m-17.701 13.365c-6.717 0.608-13.716-0.349-14.696-5.504-0.4867-2.538 0.6979-5.232 2.261-6.904v-0.89492c-2.8177 2.4259-4.3482 5.4944-3.4645 9.1175 1.127 4.6494 7.1337 7.2811 16.304 6.4048 3.6309-0.34287 8.3826-1.4904 11.68-3.2706v-2.5292c-2.9969 1.7555-7.9535 3.2058-12.084 3.5797z"/>
  <g id="g4224" transform="matrix(1.1214 0 0 1.1339 -2.2027 -4.3125)">
   <path id="path8" d="m34.067 19.677h-1.6573v7.0052c0 0.82275 0.41595 1.5383 1.6573 1.6518"/>
   <path id="path10" d="m14.323 22.237h-1.6575v4.5755c0 0.82306 0.41595 1.5384 1.6575 1.6518"/>
   <rect id="rect12" height="1.4902" width="1.6575" y="19.89" x="12.665"/>
   <path id="path14" d="m24.255 28.391c-1.3439 0-1.9104-0.8857-1.9104-1.7598v-6.0768h1.6394v1.6831h1.2414v1.2602h-1.2414v3.0399c0 0.35751 0.18079 0.55357 0.57241 0.55357h0.66904v1.2999h-0.97036"/>
   <path id="path16" d="m28.613 23.421c-0.56038 0-0.99421 0.27525-1.1751 0.64713-0.10845 0.22414-0.1447 0.39451-0.16259 0.66997h2.5374c-0.03622-0.67282-0.35585-1.3171-1.1997-1.3171m-1.3377 2.3786c0 0.79763 0.53008 1.3849 1.4583 1.3849 0.72942 0 1.091-0.193 1.5129-0.58719l1.0126 0.92239c-0.65094 0.60723-1.332 0.97631-2.5374 0.97631-1.573 0-3.0799-0.8146-3.0799-3.1876 0-2.0293 1.3139-3.1759 3.0437-3.1759 1.7539 0 2.7602 1.3425 2.7602 3.1052v0.56203h-4.1704"/>
   <path id="path18" d="m18.789 23.497c0.48206 0 0.68102 0.22429 0.68102 0.59041v4.3114h1.6454v-4.3171c0-0.87708-0.49426-1.845-1.9347-1.845h-3.3932v6.162h1.6394v-4.9018"/>
  </g>
 </g>
</svg>
