<?xml version="1.0" encoding="UTF-8" standalone="no"?>
<!-- Created with Inkscape (http://www.inkscape.org/) -->

<svg
   xmlns:dc="http://purl.org/dc/elements/1.1/"
   xmlns:cc="http://creativecommons.org/ns#"
   xmlns:rdf="http://www.w3.org/1999/02/22-rdf-syntax-ns#"
   xmlns:svg="http://www.w3.org/2000/svg"
   xmlns="http://www.w3.org/2000/svg"
   xmlns:xlink="http://www.w3.org/1999/xlink"
   xmlns:sodipodi="http://sodipodi.sourceforge.net/DTD/sodipodi-0.dtd"
   xmlns:inkscape="http://www.inkscape.org/namespaces/inkscape"
   version="1.1"
   width="48"
   height="48"
   id="svg6955"
   inkscape:version="0.91 r13725"
   sodipodi:docname="iViewer.svg">
  <sodipodi:namedview
     pagecolor="#ffffff"
     bordercolor="#666666"
     borderopacity="1"
     objecttolerance="10"
     gridtolerance="10"
     guidetolerance="10"
     inkscape:pageopacity="0"
     inkscape:pageshadow="2"
     inkscape:window-width="1600"
     inkscape:window-height="876"
     id="namedview39"
     showgrid="false"
     inkscape:zoom="7.9999999"
     inkscape:cx="14.075783"
     inkscape:cy="14.628322"
     inkscape:window-x="0"
     inkscape:window-y="24"
     inkscape:window-maximized="1"
     inkscape:current-layer="svg6955" />
  <defs
     id="defs6957">
    <linearGradient
       x1="22.642942"
       y1="26.966721"
       x2="22.642942"
       y2="30.98424"
       id="linearGradient6883"
       xlink:href="#linearGradient3922"
       gradientUnits="userSpaceOnUse"
       gradientTransform="translate(-0.2938755,2.5949995)" />
    <linearGradient
       id="linearGradient3922">
      <stop
         id="stop3924"
         style="stop-color:#000000;stop-opacity:1"
         offset="0" />
      <stop
         id="stop3926-9"
         style="stop-color:#000000;stop-opacity:0"
         offset="1" />
    </linearGradient>
    <linearGradient
       x1="22.642942"
       y1="26.966721"
       x2="22.642942"
       y2="30.98424"
       id="linearGradient6886"
       xlink:href="#linearGradient3922"
       gradientUnits="userSpaceOnUse"
       gradientTransform="translate(-0.2938755,2.5949995)" />
    <linearGradient
       x1="132.3414"
       y1="2.2922528"
       x2="132.3414"
       y2="33.33271"
       id="linearGradient6784"
       xlink:href="#linearGradient6786"
       gradientUnits="userSpaceOnUse"
       gradientTransform="matrix(0.89189031,0,0,1.0580283,-94.605571,3.1181196)" />
    <linearGradient
       id="linearGradient6786">
      <stop
         id="stop6788"
         style="stop-color:#ffffff;stop-opacity:1"
         offset="0" />
      <stop
         id="stop6790"
         style="stop-color:#ffffff;stop-opacity:0.23529412"
         offset="0.46352294" />
      <stop
         id="stop6792"
         style="stop-color:#ffffff;stop-opacity:0.15686275"
         offset="0.76175833" />
      <stop
         id="stop6794"
         style="stop-color:#ffffff;stop-opacity:0.39215687"
         offset="1" />
    </linearGradient>
    <linearGradient
       x1="-51.786404"
       y1="53.514328"
       x2="-51.786404"
       y2="3.6336823"
       id="linearGradient3394-3"
       xlink:href="#linearGradient3104-8-8-97-9"
       gradientUnits="userSpaceOnUse"
       gradientTransform="matrix(0.80749834,0,0,0.83374395,59.410297,-0.3364531)" />
    <linearGradient
       id="linearGradient3104-8-8-97-9">
      <stop
         id="stop3106-5-4-3-6"
         style="stop-color:#000000;stop-opacity:0.32173914"
         offset="0" />
      <stop
         id="stop3108-4-3-7-0"
         style="stop-color:#000000;stop-opacity:0.27826086"
         offset="1" />
    </linearGradient>
    <linearGradient
       id="linearGradient3600-8-3">
      <stop
         id="stop3828-7-6"
         style="stop-color:#f4f4f4;stop-opacity:1"
         offset="0" />
      <stop
         id="stop3794"
         style="stop-color:#e9e9e9;stop-opacity:1"
         offset="0.6956892" />
      <stop
         id="stop3604-2-5"
         style="stop-color:#dbdbdb;stop-opacity:1"
         offset="1" />
    </linearGradient>
    <linearGradient
       id="linearGradient8838-561-565">
      <stop
         id="stop4621"
         style="stop-color:#0a0a0a;stop-opacity:1"
         offset="0" />
      <stop
         id="stop4623"
         style="stop-color:#0a0a0a;stop-opacity:0"
         offset="1" />
    </linearGradient>
    <radialGradient
       cx="62.625"
       cy="4.625"
       r="10.625"
       fx="62.625"
       fy="4.625"
       id="radialGradient6953"
       xlink:href="#linearGradient8838-561-565"
       gradientUnits="userSpaceOnUse"
       gradientTransform="matrix(2.1647059,0,0,0.7529402,-111.56471,34.517647)" />
    <radialGradient
       cx="24.003401"
       cy="3.0403864"
       r="20.984106"
       fx="24.003401"
       fy="3.0403864"
       id="radialGradient3792"
       xlink:href="#linearGradient3600-8-3"
       gradientUnits="userSpaceOnUse"
       gradientTransform="matrix(0,1.7177641,-1.500366,0,28.565093,-35.624161)" />
    <linearGradient
       inkscape:collect="always"
       xlink:href="#linearGradient3903"
       id="linearGradient3960"
       gradientUnits="userSpaceOnUse"
       x1="30.950611"
       y1="32.005627"
       x2="30.950611"
       y2="38.56596" />
    <linearGradient
       inkscape:collect="always"
       id="linearGradient3903">
      <stop
         style="stop-color:#000000;stop-opacity:1;"
         offset="0"
         id="stop3905" />
      <stop
         style="stop-color:#000000;stop-opacity:0;"
         offset="1"
         id="stop3907" />
    </linearGradient>
    <linearGradient
       inkscape:collect="always"
       xlink:href="#linearGradient3903"
       id="linearGradient3962"
       gradientUnits="userSpaceOnUse"
       x1="30.950611"
       y1="32.005627"
       x2="30.950611"
       y2="38.56596" />
    <linearGradient
       inkscape:collect="always"
       xlink:href="#linearGradient3903"
       id="linearGradient3964"
       gradientUnits="userSpaceOnUse"
       x1="30.950611"
       y1="32.005627"
       x2="30.950611"
       y2="38.56596" />
    <linearGradient
       inkscape:collect="always"
       xlink:href="#linearGradient3600-8-3-6"
       id="linearGradient3069"
       gradientUnits="userSpaceOnUse"
       gradientTransform="matrix(-0.41185003,2.5381292e-4,2.5075322e-4,0.4168755,18.85141,8.9069708)"
       x1="-60.960796"
       y1="28.233982"
       x2="-60.914154"
       y2="104.84189" />
    <linearGradient
       id="linearGradient3600-8-3-6">
      <stop
         id="stop3828-7-6-4"
         style="stop-color:#f4f4f4;stop-opacity:1"
         offset="0" />
      <stop
         id="stop3604-2-5-6"
         style="stop-color:#dbdbdb;stop-opacity:1"
         offset="1" />
    </linearGradient>
    <linearGradient
       inkscape:collect="always"
       xlink:href="#linearGradient3104-8-8-97-9-6"
       id="linearGradient3071"
       gradientUnits="userSpaceOnUse"
       gradientTransform="matrix(-0.7548915,0,0,0.79327441,6.6054713,15.29502)"
       x1="-51.786404"
       y1="53.514328"
       x2="-51.786404"
       y2="3.6336823" />
    <linearGradient
       id="linearGradient3104-8-8-97-9-6">
      <stop
         id="stop3106-5-4-3-6-7"
         style="stop-color:#000000;stop-opacity:0.32173914"
         offset="0" />
      <stop
         id="stop3108-4-3-7-0-3"
         style="stop-color:#000000;stop-opacity:0.27826086"
         offset="1" />
    </linearGradient>
    <linearGradient
       inkscape:collect="always"
       xlink:href="#linearGradient6786-4"
       id="linearGradient3073"
       gradientUnits="userSpaceOnUse"
       gradientTransform="matrix(-0.83894574,0,0,0.9952214,151.27372,19.0055)"
       x1="132.3414"
       y1="2.2922528"
       x2="132.3414"
       y2="33.33271" />
    <linearGradient
       id="linearGradient6786-4">
      <stop
         id="stop6788-2"
         style="stop-color:#ffffff;stop-opacity:1"
         offset="0" />
      <stop
         id="stop6790-0"
         style="stop-color:#ffffff;stop-opacity:0.23529412"
         offset="0.46352294" />
      <stop
         id="stop6792-0"
         style="stop-color:#ffffff;stop-opacity:0.15686275"
         offset="0.76175833" />
      <stop
         id="stop6794-4"
         style="stop-color:#ffffff;stop-opacity:0.39215687"
         offset="1" />
    </linearGradient>
    <linearGradient
       inkscape:collect="always"
       xlink:href="#linearGradient3843"
       id="linearGradient3058"
       gradientUnits="userSpaceOnUse"
       gradientTransform="matrix(0.58378914,3.5977471e-4,-3.5543764e-4,0.59091266,61.565019,-10.157046)"
       x1="-60.960796"
       y1="28.233982"
       x2="-60.914154"
       y2="104.84189" />
    <linearGradient
       id="linearGradient3843">
      <stop
         offset="0"
         style="stop-color:#7db9f3;stop-opacity:1;"
         id="stop3845" />
      <stop
         offset="1"
         style="stop-color:#2384d1;stop-opacity:1;"
         id="stop3847" />
    </linearGradient>
    <linearGradient
       inkscape:collect="always"
       xlink:href="#linearGradient6786-4"
       id="linearGradient3044"
       gradientUnits="userSpaceOnUse"
       gradientTransform="matrix(1.1891887,0,0,1.4107063,-126.14094,4.157415)"
       x1="132.3414"
       y1="2.2922528"
       x2="132.3414"
       y2="33.33271" />
    <linearGradient
       id="linearGradient3118">
      <stop
         id="stop3120"
         style="stop-color:#ffffff;stop-opacity:1"
         offset="0" />
      <stop
         id="stop3122"
         style="stop-color:#ffffff;stop-opacity:0.23529412"
         offset="0.46352294" />
      <stop
         id="stop3124"
         style="stop-color:#ffffff;stop-opacity:0.15686275"
         offset="0.76175833" />
      <stop
         id="stop3126"
         style="stop-color:#ffffff;stop-opacity:0.39215687"
         offset="1" />
    </linearGradient>
    <radialGradient
       inkscape:collect="always"
       xlink:href="#linearGradient8838-561-565-7"
       id="radialGradient3069"
       gradientUnits="userSpaceOnUse"
       gradientTransform="matrix(2.0705882,0,0,0.72020369,-106.33726,50.350215)"
       cx="62.625"
       cy="4.625"
       fx="62.625"
       fy="4.625"
       r="10.625" />
    <linearGradient
       id="linearGradient8838-561-565-7">
      <stop
         id="stop4621-7"
         style="stop-color:#0a0a0a;stop-opacity:1"
         offset="0" />
      <stop
         id="stop4623-3"
         style="stop-color:#0a0a0a;stop-opacity:0"
         offset="1" />
    </linearGradient>
    <radialGradient
       r="10.625"
       fy="4.625"
       fx="62.625"
       cy="4.625"
       cx="62.625"
       gradientTransform="matrix(2.0705882,0,0,0.72020369,-181.53499,35.666562)"
       gradientUnits="userSpaceOnUse"
       id="radialGradient3154"
       xlink:href="#linearGradient8838-561-565-7"
       inkscape:collect="always" />
    <linearGradient
       inkscape:collect="always"
       xlink:href="#linearGradient6786"
       id="linearGradient3157"
       gradientUnits="userSpaceOnUse"
       gradientTransform="matrix(0.89189031,0,0,1.0580283,-94.605571,3.1181196)"
       x1="132.3414"
       y1="2.2922528"
       x2="132.3414"
       y2="33.33271" />
    <radialGradient
       inkscape:collect="always"
       xlink:href="#linearGradient3843"
       id="radialGradient3163"
       gradientUnits="userSpaceOnUse"
       gradientTransform="matrix(0,1.7177641,-1.500366,0,28.565093,-35.624161)"
       cx="24.003401"
       cy="3.0403864"
       fx="24.003401"
       fy="3.0403864"
       r="20.984106" />
    <radialGradient
       inkscape:collect="always"
       xlink:href="#linearGradient8838-561-565"
       id="radialGradient3166"
       gradientUnits="userSpaceOnUse"
       gradientTransform="matrix(2.1647059,0,0,0.7529402,-111.56471,34.517647)"
       cx="62.625"
       cy="4.625"
       fx="62.625"
       fy="4.625"
       r="10.625" />
    <linearGradient
       inkscape:collect="always"
       xlink:href="#linearGradient6786"
       id="linearGradient3087"
       gradientUnits="userSpaceOnUse"
       gradientTransform="matrix(0.96729553,0,0,1.1474797,-104.63313,1.2658422)"
       x1="132.3414"
       y1="2.2922528"
       x2="132.3414"
       y2="33.33271" />
    <radialGradient
       inkscape:collect="always"
       xlink:href="#linearGradient3843"
       id="radialGradient3091"
       gradientUnits="userSpaceOnUse"
       gradientTransform="matrix(0,1.8629932,-1.627215,0,28.951052,-40.75192)"
       cx="24.003401"
       cy="3.0403864"
       fx="24.003401"
       fy="3.0403864"
       r="20.984106" />
    <linearGradient
       inkscape:collect="always"
       xlink:href="#linearGradient3903"
       id="linearGradient3096"
       gradientUnits="userSpaceOnUse"
       x1="30.950611"
       y1="32.005627"
       x2="30.950611"
       y2="38.56596" />
    <linearGradient
       inkscape:collect="always"
       xlink:href="#linearGradient3903"
       id="linearGradient3098"
       gradientUnits="userSpaceOnUse"
       x1="30.950611"
       y1="32.005627"
       x2="30.950611"
       y2="38.56596" />
    <linearGradient
       inkscape:collect="always"
       xlink:href="#linearGradient3903"
       id="linearGradient3100"
       gradientUnits="userSpaceOnUse"
       x1="30.950611"
       y1="32.005627"
       x2="30.950611"
       y2="38.56596" />
    <linearGradient
       inkscape:collect="always"
       xlink:href="#linearGradient3903"
       id="linearGradient3114"
       gradientUnits="userSpaceOnUse"
       x1="30.950611"
       y1="32.005627"
       x2="30.950611"
       y2="38.56596" />
    <linearGradient
       inkscape:collect="always"
       xlink:href="#linearGradient3903"
       id="linearGradient3119"
       gradientUnits="userSpaceOnUse"
       x1="30.950611"
       y1="32.005627"
       x2="30.950611"
       y2="38.56596" />
    <linearGradient
       inkscape:collect="always"
       xlink:href="#linearGradient3903"
       id="linearGradient3124"
       gradientUnits="userSpaceOnUse"
       x1="30.950611"
       y1="32.005627"
       x2="30.950611"
       y2="38.56596" />
    <linearGradient
       inkscape:collect="always"
       xlink:href="#linearGradient3903"
       id="linearGradient3129"
       gradientUnits="userSpaceOnUse"
       x1="30.950611"
       y1="32.005627"
       x2="30.950611"
       y2="38.56596" />
    <linearGradient
       inkscape:collect="always"
       xlink:href="#linearGradient3903"
       id="linearGradient3131"
       gradientUnits="userSpaceOnUse"
       x1="30.950611"
       y1="32.005627"
       x2="30.950611"
       y2="38.56596" />
    <linearGradient
       inkscape:collect="always"
       xlink:href="#linearGradient3903"
       id="linearGradient3133"
       gradientUnits="userSpaceOnUse"
       x1="30.950611"
       y1="32.005627"
       x2="30.950611"
       y2="38.56596" />
  </defs>
  <metadata
     id="metadata6960">
    <rdf:RDF>
      <cc:Work
         rdf:about="">
        <dc:format>image/svg+xml</dc:format>
        <dc:type
           rdf:resource="http://purl.org/dc/dcmitype/StillImage" />
        <dc:title />
      </cc:Work>
    </rdf:RDF>
  </metadata>
  <path
     style="color:#000000;display:inline;overflow:visible;visibility:visible;fill:url(#radialGradient3091);fill-opacity:1;fill-rule:nonzero;stroke:none;stroke-width:0.98542732;marker:none;enable-background:accumulate"
     id="path6603"
     inkscape:connector-curvature="0"
     d="M 23.966267,3.3210353 C 15.965926,3.6195309 7.6330962,7.2664696 3.4012061,14.340299 0.24113798,19.398223 0.56654574,26.324432 4.3033332,30.995463 c 1.3500174,1.87215 3.2034522,3.298106 5.0366414,4.637541 0.8635694,2.705639 -1.0219496,5.293852 -2.605888,7.331331 1.0127179,0.414176 3.8359524,-0.572901 5.4673024,-1.197775 1.956582,-0.741532 3.741193,-1.882381 5.531235,-2.919385 9.028285,1.721424 19.231696,-0.987823 25.250486,-8.195106 3.875904,-4.464464 5.039924,-11.250024 2.220001,-16.556034 C 41.637386,7.1822555 33.73659,3.6435949 26.238069,3.3395046 c -0.7567,-0.031179 -1.514742,-0.045217 -2.271802,-0.018469 z"
     sodipodi:nodetypes="ccccccccccc" />
  <path
     style="color:#000000;display:inline;overflow:visible;visibility:visible;opacity:0.5;fill:none;stroke:#002255;stroke-width:1.0844605;stroke-linecap:butt;stroke-linejoin:round;stroke-miterlimit:4;stroke-dasharray:none;stroke-dashoffset:0;stroke-opacity:1;marker:none;enable-background:accumulate"
     id="path4111-6"
     inkscape:connector-curvature="0"
     d="M 23.938495,2.8370805 C 23.343321,2.8596669 22.756887,2.9038813 22.154728,2.9603823 9.3083329,4.1656979 -0.27563001,13.405723 0.74951592,23.550613 1.2612934,28.615159 4.3351792,32.951056 8.8687342,35.880091 l 0,0.123306 c 0,0 1.4107178,2.386684 -3.3830074,7.705924 0,0 5.1914962,0.323213 12.2403352,-4.376964 2.576834,0.492497 5.296251,0.634745 8.119217,0.369885 C 38.691694,38.496933 48.275619,29.318551 47.250489,19.173657 46.321455,9.9798515 37.023544,3.1367647 25.722263,2.8370981 c -0.584545,-0.015584 -1.188615,-0.022586 -1.783768,0 z"
     sodipodi:nodetypes="cssccccssccc" />
  <path
     style="color:#000000;display:inline;overflow:visible;visibility:visible;opacity:0.5;fill:none;stroke:url(#linearGradient3087);stroke-width:1.08454549;stroke-linecap:round;stroke-linejoin:miter;stroke-miterlimit:4;stroke-dasharray:none;stroke-dashoffset:0;stroke-opacity:1;marker:none;enable-background:accumulate"
     id="path6779"
     inkscape:connector-curvature="0"
     d="M 23.966109,3.9168835 C 16.160021,4.2282533 8.0340151,7.735312 3.8828265,14.621751 c -3.05962852,4.855278 -2.759211,11.516737 0.8389944,16.011462 1.3293647,1.950473 3.3605073,3.240467 5.1096751,4.722034 1.044981,2.476564 -0.5466955,4.982594 -1.9302154,6.961322 3.4602674,-0.476364 6.5869064,-2.231433 9.5134114,-4.038286 1.752789,0.02363 3.521764,0.533887 5.304645,0.463152 8.10207,0.111925 16.692139,-3.297418 21.189932,-10.300083 C 47.114213,23.636925 46.983183,16.920973 43.466912,12.314966 39.050059,6.2837907 31.225998,3.6698281 23.966109,3.9168835 Z"
     sodipodi:nodetypes="cccccccccc" />
  <g
     id="g3849"
     transform="matrix(0.77804235,0,0,0.77804235,-1.0076711,0.75786616)"
     style="stroke-width:1.3939414;stroke-miterlimit:4;stroke-dasharray:none">
    <path
       style="color:#000000;display:inline;overflow:visible;visibility:visible;fill:url(#linearGradient3069);fill-opacity:1;fill-rule:nonzero;stroke:none;stroke-width:1.3939414;marker:none;enable-background:accumulate"
       id="path3063"
       inkscape:connector-curvature="0"
       d="m 39.741344,20.483611 c 6.944026,0.263519 14.176641,3.317396 17.84978,9.562345 2.742834,4.465257 1.996352,11.082592 -0.777491,14.758826 -1.17177,1.652779 -2.614762,2.922697 -4.205907,4.105183 -0.74955,2.388604 0.715765,4.607248 2.09057,6.405985 -0.879005,0.365645 -3.329478,-0.50577 -4.745434,-1.057424 -1.698247,-0.654643 -3.247231,-1.661813 -4.800926,-2.577305 -7.836248,1.519713 -16.692465,-0.872073 -21.916574,-7.234838 -3.364153,-3.941338 -4.374483,-9.931794 -1.926886,-14.616069 3.094929,-6.103652 9.952554,-9.06194 16.46102,-9.330398 0.656788,-0.02753 1.314744,-0.03991 1.971848,-0.0163 z"
       sodipodi:nodetypes="ccccccccccc" />
    <path
       style="color:#000000;display:inline;overflow:visible;visibility:visible;fill:none;stroke:url(#linearGradient3071);stroke-width:1.3939414;stroke-linecap:butt;stroke-linejoin:round;stroke-miterlimit:4;stroke-dasharray:none;stroke-dashoffset:0;stroke-opacity:1;marker:none;enable-background:accumulate"
       id="path3065"
       inkscape:connector-curvature="0"
       d="m 39.761881,19.96034 c 0.513025,0.01981 1.018517,0.0586 1.537564,0.10817 11.073284,1.057411 19.334429,9.16359 18.450778,18.063595 -0.44114,4.443075 -3.090755,8.246912 -6.998571,10.816523 l 0,0.108171 c 0,0 -1.216004,2.093814 2.916071,6.760328 0,0 -4.474946,0.283551 -10.550876,-3.839866 -2.221166,0.432062 -4.565241,0.556856 -6.998568,0.324498 -11.073302,-1.057407 -19.334416,-9.109507 -18.450778,-18.009517 0.800805,-8.065629 8.815381,-14.068997 18.556814,-14.331891 0.503863,-0.01366 1.024557,-0.01981 1.537566,0 z" />
    <path
       style="color:#000000;display:inline;overflow:visible;visibility:visible;fill:none;stroke:url(#linearGradient3073);stroke-width:1.3939414;stroke-linecap:round;stroke-linejoin:miter;stroke-miterlimit:4;stroke-dasharray:none;stroke-dashoffset:0;stroke-opacity:1;marker:none;enable-background:accumulate"
       id="path3067"
       inkscape:connector-curvature="0"
       d="m 39.730909,21.376534 c 0.493821,0.01908 0.987178,0.06133 1.499139,0.110235 10.767688,1.028229 17.95401,8.057435 17.117007,16.487609 -0.417821,4.208205 -2.798727,7.447414 -6.563068,9.922685 -0.201127,0.125331 -0.330536,0.358267 -0.330695,0.595247 -0.0025,0.006 0.0026,0.01562 0,0.02205 -0.04714,0.113091 -0.07268,0.150007 -0.110235,0.352737 -0.06589,0.355706 -0.0989,0.863662 0.02204,1.499141 0.190041,0.998533 0.154685,2.2874 1.405733,3.972277 -1.304398,0.0092 -6.38508,-3.159327 -7.11348,-3.652683 -0.152568,-0.104513 -0.347496,-0.145125 -0.529108,-0.110234 -2.152412,0.418687 -4.971141,0.462833 -7.341526,0.236481 -9.623395,-0.918956 -17.572764,-8.007686 -16.73574,-16.438209 0.758666,-7.641203 8.608648,-12.765402 17.202841,-12.997335 0.496876,-0.01347 0.987399,-0.0189 1.477092,-1e-6 z"
       sodipodi:nodetypes="ccscccsscccsscc" />
  </g>
  <g
     id="g3135"
     transform="matrix(1.0845454,0,0,1.0845454,-2.0290882,-2.1159001)">
    <circle
       r="3"
       cy="35.125"
       cx="31.125"
       style="fill:#ffffff;stroke:none"
       id="path3879"
       transform="matrix(0.7173903,0,0,-0.7173903,12.928569,54.69384)" />
    <circle
       r="3"
       cy="35.125"
       cx="31.125"
       transform="matrix(0.7173903,0,0,0.7173903,12.928569,3.7887735)"
       id="path3871"
       style="fill:#808080;stroke:none" />
    <circle
       r="3"
       cy="35.125"
       cx="31.125"
       style="opacity:0.3;fill:none;stroke:url(#linearGradient3133);stroke-opacity:1"
       id="path3873"
       transform="matrix(0.61490597,0,0,0.61490597,16.118394,7.3885355)" />
    <circle
       r="3"
       cy="35.125"
       cx="31.125"
       transform="matrix(0.7173903,0,0,-0.7173903,7.0997729,54.69384)"
       id="path3926"
       style="fill:#ffffff;stroke:none" />
    <circle
       r="3"
       cy="35.125"
       cx="31.125"
       style="fill:#808080;stroke:none"
       id="path3928"
       transform="matrix(0.7173903,0,0,0.7173903,7.0997729,3.7887735)" />
    <circle
       r="3"
       cy="35.125"
       cx="31.125"
       transform="matrix(0.61490597,0,0,0.61490597,10.289598,7.3885355)"
       id="path3930"
       style="opacity:0.3;fill:none;stroke:url(#linearGradient3131);stroke-opacity:1" />
    <circle
       r="3"
       cy="35.125"
       cx="31.125"
       style="fill:#ffffff;stroke:none"
       id="path3936"
       transform="matrix(0.7173903,0,0,-0.7173903,1.2709767,54.69384)" />
    <circle
       r="3"
       cy="35.125"
       cx="31.125"
       transform="matrix(0.7173903,0,0,0.7173903,1.2709767,3.7887735)"
       id="path3938"
       style="fill:#808080;stroke:none" />
    <circle
       r="3"
       cy="35.125"
       cx="31.125"
       style="opacity:0.3;fill:none;stroke:url(#linearGradient3129);stroke-opacity:1"
       id="path3940"
       transform="matrix(0.61490597,0,0,0.61490597,4.4608017,7.3885355)" />
  </g>
</svg>
