<?xml version="1.0" encoding="UTF-8" standalone="no"?>
<!-- Created with Inkscape (http://www.inkscape.org/) -->
<svg id="svg4951" xmlns:rdf="http://www.w3.org/1999/02/22-rdf-syntax-ns#" xmlns="http://www.w3.org/2000/svg" height="48" width="48" version="1.1" xmlns:cc="http://creativecommons.org/ns#" xmlns:xlink="http://www.w3.org/1999/xlink" xmlns:dc="http://purl.org/dc/elements/1.1/">
 <defs id="defs4953">
  <radialGradient id="radialGradient3302" gradientUnits="userSpaceOnUse" cy="186.17" cx="99.157" gradientTransform="matrix(.27083 0 0 .087623 -2.8551 25.187)" r="62.769">
   <stop id="stop3822-2-6-3" stop-color="#3d3d3d" offset="0"/>
   <stop id="stop3864-8-7-7" stop-color="#686868" stop-opacity=".49804" offset=".5"/>
   <stop id="stop3824-1-2-5" stop-color="#686868" stop-opacity="0" offset="1"/>
  </radialGradient>
  <radialGradient id="radialGradient3037" gradientUnits="userSpaceOnUse" cy="-17.681" cx="14.892" gradientTransform="matrix(-1.7922 4.7451e-8 -3.529e-8 -1.3329 41.581 -41.248)" r="25.571">
   <stop id="stop3767" stop-color="#fff" offset="0"/>
   <stop id="stop3769" stop-color="#e4e4e4" offset="1"/>
  </radialGradient>
  <linearGradient id="linearGradient3039" y2="32.568" gradientUnits="userSpaceOnUse" x2="15.124" y1="-18.801" x1="15.124">
   <stop id="stop3777" stop-color="#fff" stop-opacity=".58824" offset="0"/>
   <stop id="stop3779" stop-color="#fff" offset="1"/>
  </linearGradient>
  <linearGradient id="linearGradient3127" y2="156" gradientUnits="userSpaceOnUse" y1="133.54" x2="36.164" x1="36.164">
   <stop id="stop5191" stop-color="#fff" offset="0"/>
   <stop id="stop5193" stop-color="#fff" stop-opacity="0" offset="1"/>
  </linearGradient>
  <linearGradient id="linearGradient4067" y2="36.274" gradientUnits="userSpaceOnUse" x2="24.203" y1="8.4128" x1="23.546">
   <stop id="stop4071" stop-color="#ff4e00" offset="0"/>
   <stop id="stop4073" stop-color="#007eff" offset="1"/>
  </linearGradient>
 </defs>
 <metadata id="metadata4956">
  <rdf:RDF>
   <cc:Work rdf:about="">
    <dc:format>image/svg+xml</dc:format>
    <dc:type rdf:resource="http://purl.org/dc/dcmitype/StillImage"/>
    <dc:title/>
   </cc:Work>
  </rdf:RDF>
 </metadata>
 <path id="path3818-0-5" d="m41 41.5a17 5.5 0 0 1 -34 0 17 5.5 0 1 1 34 0z" fill="url(#radialGradient3302)"/>
 <path id="path2985" d="m40.781 6.8335a25.571 25.571 0 1 1 -51.141 0 25.571 25.571 0 1 1 51.141 0z" transform="matrix(.80271 0 0 .80271 11.791 18.515)" fill="url(#radialGradient3037)"/>
 <path id="path3755" d="m40.781 6.8335a25.571 25.571 0 1 1 -51.141 0 25.571 25.571 0 1 1 51.141 0z" stroke-opacity=".16337" transform="matrix(.80271 0 0 .80271 11.791 18.515)" stroke="#004081" stroke-width="1.1816" fill="none"/>
 <path id="path3773" d="m40.781 6.8335a25.571 25.571 0 1 1 -51.141 0 25.571 25.571 0 1 1 51.141 0z" stroke-opacity=".58824" transform="matrix(.76418 0 0 .76418 12.377 18.778)" stroke="url(#linearGradient3039)" stroke-width="1.2204" fill="none"/>
 <path id="path4317-4" style="color:#000000" d="m35.312 139.5c-12.41 0-22.375 10.193-22.375 22.969v6.25h0.375 44.031 0.375v-6.25c0.001-12.77-9.995-22.97-22.406-22.97z" stroke="url(#linearGradient3127)" stroke-width="1.369" fill="none"/>
 <g id="g4047" opacity=".15" fill-rule="evenodd" stroke="url(#linearGradient4067)">
  <path id="path4049" d="m25.04 22.126c1.3798 1.519-0.37105 2.8904-0.37105 2.8904s3.5039-1.7372 1.9027-3.9034c-1.5116-2.026-2.6595-3.0264 3.5787-6.506 0 0-9.7875 2.3433-5.1146 7.5064" fill="#ff7f28"/>
  <path id="path4051" d="m32.439 32.427s0.81167 0.63774-0.88968 1.1321c-3.2319 0.935-13.444 1.2186-16.281 0.03268-1.0172-0.42376 0.89389-1.0088 1.4947-1.1363 0.63036-0.13176 0.98455-0.10752 0.98455-0.10752-1.1279-0.76951-7.3293 1.5074-3.1455 2.1536 11.41 1.7751 20.798-0.79902 17.838-2.0756" fill="#347cc8"/>
  <path id="path4053" d="m20.484 24.098s-5.1968 1.1817-1.8405 1.6139c1.421 0.18131 4.2376 0.1402 6.8729-0.06957 2.1536-0.17288 4.3114-0.54393 4.3114-0.54393s-0.76213 0.31307-1.3092 0.67148c-5.2706 1.3303-15.462 0.70837-12.535-0.65039 2.4825-1.149 4.5011-1.0172 4.5011-1.0172" fill="#347cc8"/>
  <path id="path4055" d="m29.805 29.096c5.3613-2.6722 2.882-5.2379 1.1532-4.8922-0.42376 0.08644-0.6135 0.15601-0.6135 0.15601s0.15285-0.23507 0.45327-0.33732c3.4301-1.1532 6.057 3.4048-1.1037 5.2084 0 0 0.08222-0.06957 0.10752-0.13598" fill="#347cc8"/>
  <path id="path4057" d="m26.569 9.015s2.9684 2.8493-2.8208 7.2302c-4.636 3.5123-1.0541 5.5173 0 7.8026-2.7049-2.3391-4.694-4.402-3.3605-6.3247 1.9554-2.8166 7.3788-4.1796 6.1803-8.7049" fill="#ff7f28"/>
  <path id="path4059" d="m21.011 36.336c5.1473 0.31729 13.053-0.17709 13.243-2.5078 0 0-0.36262 0.88124-4.2586 1.5854-4.3936 0.79059-9.8128 0.69994-13.028 0.19396 0 0 0.65883 0.51863 4.0436 0.7284" fill="#347cc8"/>
 </g>
 <g id="g4039" fill-rule="evenodd">
  <path id="path63" d="m25.04 22.126c1.3798 1.519-0.37105 2.8904-0.37105 2.8904s3.5039-1.7372 1.9027-3.9034c-1.5116-2.026-2.6595-3.0264 3.5787-6.506 0 0-9.7875 2.3433-5.1146 7.5064" fill="#ff7f28"/>
  <path id="path65" d="m32.439 32.427s0.81167 0.63774-0.88968 1.1321c-3.2319 0.935-13.444 1.2186-16.281 0.03268-1.0172-0.42376 0.89389-1.0088 1.4947-1.1363 0.63036-0.13176 0.98455-0.10752 0.98455-0.10752-1.1279-0.76951-7.3293 1.5074-3.1455 2.1536 11.41 1.7751 20.798-0.79902 17.838-2.0756" fill="#347cc8"/>
  <path id="path67" d="m20.484 24.098s-5.1968 1.1817-1.8405 1.6139c1.421 0.18131 4.2376 0.1402 6.8729-0.06957 2.1536-0.17288 4.3114-0.54393 4.3114-0.54393s-0.76213 0.31307-1.3092 0.67148c-5.2706 1.3303-15.462 0.70837-12.535-0.65039 2.4825-1.149 4.5011-1.0172 4.5011-1.0172" fill="#347cc8"/>
  <path id="path69" d="m29.805 29.096c5.3613-2.6722 2.882-5.2379 1.1532-4.8922-0.42376 0.08644-0.6135 0.15601-0.6135 0.15601s0.15285-0.23507 0.45327-0.33732c3.4301-1.1532 6.057 3.4048-1.1037 5.2084 0 0 0.08222-0.06957 0.10752-0.13598" fill="#347cc8"/>
  <path id="path71" d="m26.569 9.015s2.9684 2.8493-2.8208 7.2302c-4.636 3.5123-1.0541 5.5173 0 7.8026-2.7049-2.3391-4.694-4.402-3.3605-6.3247 1.9554-2.8166 7.3788-4.1796 6.1803-8.7049" fill="#ff7f28"/>
  <path id="path73" d="m21.011 36.336c5.1473 0.31729 13.053-0.17709 13.243-2.5078 0 0-0.36262 0.88124-4.2586 1.5854-4.3936 0.79059-9.8128 0.69994-13.028 0.19396 0 0 0.65883 0.51863 4.0436 0.7284" fill="#347cc8"/>
 </g>
</svg>
