<?xml version="1.0" encoding="UTF-8" standalone="no"?>
<!-- Created with Inkscape (http://www.inkscape.org/) -->

<svg
   xmlns:dc="http://purl.org/dc/elements/1.1/"
   xmlns:cc="http://creativecommons.org/ns#"
   xmlns:rdf="http://www.w3.org/1999/02/22-rdf-syntax-ns#"
   xmlns:svg="http://www.w3.org/2000/svg"
   xmlns="http://www.w3.org/2000/svg"
   xmlns:xlink="http://www.w3.org/1999/xlink"
   xmlns:sodipodi="http://sodipodi.sourceforge.net/DTD/sodipodi-0.dtd"
   xmlns:inkscape="http://www.inkscape.org/namespaces/inkscape"
   version="1.1"
   width="48"
   height="48"
   id="svg6649"
   inkscape:version="0.48.4 r9939"
   sodipodi:docname="kdeconnect.svg">
  <sodipodi:namedview
     pagecolor="#ffffff"
     bordercolor="#666666"
     borderopacity="1"
     objecttolerance="10"
     gridtolerance="10"
     guidetolerance="10"
     inkscape:pageopacity="0"
     inkscape:pageshadow="2"
     inkscape:window-width="1600"
     inkscape:window-height="845"
     id="namedview113"
     showgrid="false"
     inkscape:zoom="8.86"
     inkscape:cx="46.157242"
     inkscape:cy="24"
     inkscape:window-x="0"
     inkscape:window-y="30"
     inkscape:window-maximized="1"
     inkscape:current-layer="svg6649">
    <inkscape:grid
       type="xygrid"
       id="grid3090" />
  </sodipodi:namedview>
  <defs
     id="defs6651">
    <linearGradient
       id="linearGradient5418">
      <stop
         id="stop5420"
         style="stop-color:#ffffff;stop-opacity:1"
         offset="0" />
      <stop
         id="stop5422"
         style="stop-color:#ffffff;stop-opacity:0.23529412"
         offset="0.10691732" />
      <stop
         id="stop5424"
         style="stop-color:#ffffff;stop-opacity:0.15686275"
         offset="0.99395192" />
      <stop
         id="stop5426"
         style="stop-color:#ffffff;stop-opacity:0.39215687"
         offset="1" />
    </linearGradient>
    <linearGradient
       id="linearGradient5221">
      <stop
         id="stop5223"
         style="stop-color:#918e88;stop-opacity:1"
         offset="0" />
      <stop
         id="stop5225"
         style="stop-color:#605c58;stop-opacity:1"
         offset="1" />
    </linearGradient>
    <linearGradient
       id="linearGradient5052">
      <stop
         id="stop5054"
         style="stop-color:#5e5750;stop-opacity:1"
         offset="0" />
      <stop
         id="stop5056"
         style="stop-color:#756d65;stop-opacity:1"
         offset="1" />
    </linearGradient>
    <linearGradient
       id="linearGradient5010">
      <stop
         id="stop5012"
         style="stop-color:#dad7bd;stop-opacity:1"
         offset="0" />
      <stop
         id="stop5014"
         style="stop-color:#e8e5d4;stop-opacity:1"
         offset="1" />
    </linearGradient>
    <linearGradient
       id="linearGradient3924-1">
      <stop
         id="stop3926-3"
         style="stop-color:#ffffff;stop-opacity:1"
         offset="0" />
      <stop
         id="stop3928-91"
         style="stop-color:#ffffff;stop-opacity:0.23529412"
         offset="0.06316455" />
      <stop
         id="stop3930-6"
         style="stop-color:#ffffff;stop-opacity:0.15686275"
         offset="0.95056331" />
      <stop
         id="stop3932-6"
         style="stop-color:#ffffff;stop-opacity:0.39215687"
         offset="1" />
    </linearGradient>
    <radialGradient
       cx="4.9929786"
       cy="43.5"
       r="2.5"
       fx="4.9929786"
       fy="43.5"
       id="radialGradient3013"
       xlink:href="#linearGradient3688-166-749"
       gradientUnits="userSpaceOnUse"
       gradientTransform="matrix(2.003784,0,0,1.4,27.98813,-17.4)" />
    <linearGradient
       id="linearGradient3688-166-749">
      <stop
         id="stop2883"
         style="stop-color:#181818;stop-opacity:1"
         offset="0" />
      <stop
         id="stop2885"
         style="stop-color:#181818;stop-opacity:0"
         offset="1" />
    </linearGradient>
    <radialGradient
       cx="4.9929786"
       cy="43.5"
       r="2.5"
       fx="4.9929786"
       fy="43.5"
       id="radialGradient3015"
       xlink:href="#linearGradient3688-464-309"
       gradientUnits="userSpaceOnUse"
       gradientTransform="matrix(2.003784,0,0,1.4,-20.01187,-104.4)" />
    <linearGradient
       id="linearGradient3688-464-309">
      <stop
         id="stop2889"
         style="stop-color:#181818;stop-opacity:1"
         offset="0" />
      <stop
         id="stop2891"
         style="stop-color:#181818;stop-opacity:0"
         offset="1" />
    </linearGradient>
    <linearGradient
       id="linearGradient3702-501-757">
      <stop
         id="stop2895"
         style="stop-color:#181818;stop-opacity:0"
         offset="0" />
      <stop
         id="stop2897"
         style="stop-color:#181818;stop-opacity:1"
         offset="0.5" />
      <stop
         id="stop2899"
         style="stop-color:#181818;stop-opacity:0"
         offset="1" />
    </linearGradient>
    <linearGradient
       x1="25.058096"
       y1="47.027729"
       x2="25.058096"
       y2="39.999443"
       id="linearGradient6647"
       xlink:href="#linearGradient3702-501-757"
       gradientUnits="userSpaceOnUse" />
    <radialGradient
       cx="23.896"
       cy="3.99"
       r="20.396999"
       id="radialGradient3093-0-3-6-6"
       gradientUnits="userSpaceOnUse"
       gradientTransform="matrix(0,1.2316483,-1.625754,0,18.486966,-28.721977)">
      <stop
         id="stop3244-9-33-7-0-9"
         style="stop-color:#ffffff;stop-opacity:1"
         offset="0" />
      <stop
         id="stop3246-3-5-0-8-5"
         style="stop-color:#dddddd;stop-opacity:1"
         offset="0.26238" />
      <stop
         id="stop3248-1-7-8-8-1"
         style="stop-color:#abacae;stop-opacity:1"
         offset="0.66093999" />
      <stop
         id="stop3250-9-3-0-5-1"
         style="stop-color:#89898b;stop-opacity:1"
         offset="1" />
    </radialGradient>
    <linearGradient
       x1="23.99999"
       y1="4.999989"
       x2="23.99999"
       y2="43"
       id="linearGradient4650"
       xlink:href="#linearGradient3924-1"
       gradientUnits="userSpaceOnUse"
       gradientTransform="matrix(1,0,0,1.1081081,4e-6,-3.5945874)" />
    <radialGradient
       cx="6.7304144"
       cy="9.9571075"
       r="12.671875"
       fx="6.2001843"
       fy="9.9571075"
       id="radialGradient4653"
       xlink:href="#radialGradient3093-0-3-6-6"
       gradientUnits="userSpaceOnUse"
       gradientTransform="matrix(0,10.228133,-11.360987,0,137.93232,-89.173356)" />
    <linearGradient
       x1="23.99999"
       y1="7.8130584"
       x2="23.99999"
       y2="39.682545"
       id="linearGradient4650-6"
       xlink:href="#linearGradient3924-1-2"
       gradientUnits="userSpaceOnUse"
       gradientTransform="matrix(0.32432433,0,0,0.21621622,24.716214,30.31069)" />
    <linearGradient
       id="linearGradient3924-1-2">
      <stop
         id="stop3926-3-4"
         style="stop-color:#ffffff;stop-opacity:1"
         offset="0" />
      <stop
         id="stop3928-91-8"
         style="stop-color:#ffffff;stop-opacity:0.23529412"
         offset="0.01109819" />
      <stop
         id="stop3930-6-9"
         style="stop-color:#ffffff;stop-opacity:0.15686275"
         offset="0.99395192" />
      <stop
         id="stop3932-6-2"
         style="stop-color:#ffffff;stop-opacity:0.39215687"
         offset="1" />
    </linearGradient>
    <linearGradient
       id="linearGradient2867-449-88-871-390-598-476-591-434-148-57-177-8-3-3-6-4-8-8-8-8">
      <stop
         id="stop3750-1-0-7-6-6-1-3-9-2"
         style="stop-color:#ffcd7d;stop-opacity:1"
         offset="0" />
      <stop
         id="stop3752-3-7-4-0-32-8-923-0-9"
         style="stop-color:#fc8f36;stop-opacity:1"
         offset="0.26238" />
      <stop
         id="stop3754-1-8-5-2-7-6-7-1-9"
         style="stop-color:#e23a0e;stop-opacity:1"
         offset="0.704952" />
      <stop
         id="stop3756-1-6-2-6-6-1-96-6-7"
         style="stop-color:#ac441f;stop-opacity:1"
         offset="1" />
    </linearGradient>
    <radialGradient
       cx="6.7304144"
       cy="9.9571075"
       r="12.671875"
       fx="6.2001843"
       fy="9.9571075"
       id="radialGradient4685"
       xlink:href="#linearGradient2867-449-88-871-390-598-476-591-434-148-57-177-8-3-3-6-4-8-8-8-8"
       gradientUnits="userSpaceOnUse"
       gradientTransform="matrix(0,2.4352699,-4.1856266,0,74.554373,8.7920576)" />
    <linearGradient
       x1="16"
       y1="4"
       x2="16"
       y2="15"
       id="linearGradient5016"
       xlink:href="#linearGradient5010"
       gradientUnits="userSpaceOnUse"
       gradientTransform="matrix(0.96954645,0,0,0.97727168,0.98846535,0.94697349)" />
    <linearGradient
       x1="15"
       y1="5"
       x2="15"
       y2="16"
       id="linearGradient5058"
       xlink:href="#linearGradient5052"
       gradientUnits="userSpaceOnUse"
       gradientTransform="matrix(0.96875,0,0,0.90909091,0.75,0.95454544)" />
    <linearGradient
       x1="23.99999"
       y1="7.8130584"
       x2="23.99999"
       y2="39.682545"
       id="linearGradient4650-6-72"
       xlink:href="#linearGradient3924-1-2-0"
       gradientUnits="userSpaceOnUse"
       gradientTransform="matrix(0.32432433,0,0,0.21621622,7.6369026,30.31069)" />
    <linearGradient
       id="linearGradient3924-1-2-0">
      <stop
         id="stop3926-3-4-9"
         style="stop-color:#ffffff;stop-opacity:1"
         offset="0" />
      <stop
         id="stop3928-91-8-1"
         style="stop-color:#ffffff;stop-opacity:0.23529412"
         offset="0.01109819" />
      <stop
         id="stop3930-6-9-1"
         style="stop-color:#ffffff;stop-opacity:0.15686275"
         offset="0.99395192" />
      <stop
         id="stop3932-6-2-6"
         style="stop-color:#ffffff;stop-opacity:0.39215687"
         offset="1" />
    </linearGradient>
    <linearGradient
       x1="14.175284"
       y1="30.426174"
       x2="14.175284"
       y2="40.415752"
       id="linearGradient5227"
       xlink:href="#linearGradient5221"
       gradientUnits="userSpaceOnUse"
       gradientTransform="translate(0.92068863,0)" />
    <linearGradient
       x1="23.99999"
       y1="7.8130584"
       x2="23.99999"
       y2="39.682545"
       id="linearGradient4650-6-72-7"
       xlink:href="#linearGradient3924-1-2-0-5"
       gradientUnits="userSpaceOnUse"
       gradientTransform="matrix(0.32432433,0,0,0.21621622,7.6369026,18.31069)" />
    <linearGradient
       id="linearGradient3924-1-2-0-5">
      <stop
         id="stop3926-3-4-9-8"
         style="stop-color:#ffffff;stop-opacity:1"
         offset="0" />
      <stop
         id="stop3928-91-8-1-3"
         style="stop-color:#ffffff;stop-opacity:0.23529412"
         offset="0.01109819" />
      <stop
         id="stop3930-6-9-1-4"
         style="stop-color:#ffffff;stop-opacity:0.15686275"
         offset="0.99395192" />
      <stop
         id="stop3932-6-2-6-7"
         style="stop-color:#ffffff;stop-opacity:0.39215687"
         offset="1" />
    </linearGradient>
    <linearGradient
       id="linearGradient5221-1">
      <stop
         id="stop5223-0"
         style="stop-color:#918e88;stop-opacity:1"
         offset="0" />
      <stop
         id="stop5225-4"
         style="stop-color:#605c58;stop-opacity:1"
         offset="1" />
    </linearGradient>
    <linearGradient
       x1="14.175284"
       y1="30.426174"
       x2="14.175284"
       y2="40.415752"
       id="linearGradient5252"
       xlink:href="#linearGradient5221-1"
       gradientUnits="userSpaceOnUse"
       gradientTransform="translate(0.92068863,-12)" />
    <linearGradient
       id="linearGradient5221-1-5">
      <stop
         id="stop5223-0-5"
         style="stop-color:#918e88;stop-opacity:1"
         offset="0" />
      <stop
         id="stop5225-4-3"
         style="stop-color:#605c58;stop-opacity:1"
         offset="1" />
    </linearGradient>
    <linearGradient
       x1="23.99999"
       y1="7.8130584"
       x2="23.99999"
       y2="39.682545"
       id="linearGradient4650-6-72-7-6"
       xlink:href="#linearGradient3924-1-2-0-5-4"
       gradientUnits="userSpaceOnUse"
       gradientTransform="matrix(0.32432433,0,0,0.21621622,24.716214,18.31069)" />
    <linearGradient
       id="linearGradient3924-1-2-0-5-4">
      <stop
         id="stop3926-3-4-9-8-4"
         style="stop-color:#ffffff;stop-opacity:1"
         offset="0" />
      <stop
         id="stop3928-91-8-1-3-9"
         style="stop-color:#ffffff;stop-opacity:0.23529412"
         offset="0.01109819" />
      <stop
         id="stop3930-6-9-1-4-0"
         style="stop-color:#ffffff;stop-opacity:0.15686275"
         offset="0.99395192" />
      <stop
         id="stop3932-6-2-6-7-8"
         style="stop-color:#ffffff;stop-opacity:0.39215687"
         offset="1" />
    </linearGradient>
    <linearGradient
       x1="14.175284"
       y1="30.426174"
       x2="14.175284"
       y2="40.415752"
       id="linearGradient5310"
       xlink:href="#linearGradient5221-1-5"
       gradientUnits="userSpaceOnUse"
       gradientTransform="translate(18,-12)" />
    <linearGradient
       x1="43.816097"
       y1="-10.328197"
       x2="43.816097"
       y2="-57.312084"
       id="linearGradient4650-6-72-7-8"
       xlink:href="#linearGradient5418"
       gradientUnits="userSpaceOnUse"
       gradientTransform="matrix(0.32432433,0,0,0.25945946,7.6369026,18.672828)" />
    <radialGradient
       cx="4.9929786"
       cy="43.5"
       r="2.5"
       fx="4.9929786"
       fy="43.5"
       id="radialGradient3337-2-2"
       xlink:href="#linearGradient3688-166-749-4-0-3-8"
       gradientUnits="userSpaceOnUse"
       gradientTransform="matrix(2.003784,0,0,1.4,27.98813,-17.4)" />
    <linearGradient
       id="linearGradient3688-166-749-4-0-3-8">
      <stop
         id="stop2883-4-0-1-8"
         style="stop-color:#181818;stop-opacity:1"
         offset="0" />
      <stop
         id="stop2885-9-2-9-6"
         style="stop-color:#181818;stop-opacity:0"
         offset="1" />
    </linearGradient>
    <radialGradient
       cx="4.9929786"
       cy="43.5"
       r="2.5"
       fx="4.9929786"
       fy="43.5"
       id="radialGradient3339-1-4"
       xlink:href="#linearGradient3688-464-309-9-2-4-2"
       gradientUnits="userSpaceOnUse"
       gradientTransform="matrix(2.003784,0,0,1.4,-20.01187,-104.4)" />
    <linearGradient
       id="linearGradient3688-464-309-9-2-4-2">
      <stop
         id="stop2889-7-9-6-9"
         style="stop-color:#181818;stop-opacity:1"
         offset="0" />
      <stop
         id="stop2891-6-6-1-7"
         style="stop-color:#181818;stop-opacity:0"
         offset="1" />
    </linearGradient>
    <linearGradient
       x1="25.058096"
       y1="47.027729"
       x2="25.058096"
       y2="39.999443"
       id="linearGradient6394"
       xlink:href="#linearGradient3702-501-757-8-4-1-1"
       gradientUnits="userSpaceOnUse" />
    <linearGradient
       id="linearGradient3702-501-757-8-4-1-1">
      <stop
         id="stop2895-8-9-9-1"
         style="stop-color:#181818;stop-opacity:0"
         offset="0" />
      <stop
         id="stop2897-7-8-7-7"
         style="stop-color:#181818;stop-opacity:1"
         offset="0.5" />
      <stop
         id="stop2899-4-5-1-5"
         style="stop-color:#181818;stop-opacity:0"
         offset="1" />
    </linearGradient>
    <radialGradient
       cx="6.7304144"
       cy="9.9571075"
       r="12.671875"
       fx="6.2001843"
       fy="9.9571075"
       id="radialGradient4176-9"
       xlink:href="#radialGradient3093-0-3-6-6-3"
       gradientUnits="userSpaceOnUse"
       gradientTransform="matrix(0,14.124565,-16.14456,0,193.90382,-124.90606)" />
    <radialGradient
       cx="23.896"
       cy="3.99"
       r="20.396999"
       id="radialGradient3093-0-3-6-6-3"
       gradientUnits="userSpaceOnUse"
       gradientTransform="matrix(0,1.2316483,-1.625754,0,18.486966,-28.721977)">
      <stop
         id="stop3244-9-33-7-0-9-7"
         style="stop-color:#ffffff;stop-opacity:1"
         offset="0" />
      <stop
         id="stop3246-3-5-0-8-5-5"
         style="stop-color:#dddddd;stop-opacity:1"
         offset="0.26238" />
      <stop
         id="stop3248-1-7-8-8-1-3"
         style="stop-color:#abacae;stop-opacity:1"
         offset="0.66093999" />
      <stop
         id="stop3250-9-3-0-5-1-2"
         style="stop-color:#89898b;stop-opacity:1"
         offset="1" />
    </radialGradient>
    <linearGradient
       x1="23.99999"
       y1="4.999989"
       x2="23.99999"
       y2="43"
       id="linearGradient3311"
       xlink:href="#linearGradient3924-2-2-5-8"
       gradientUnits="userSpaceOnUse"
       gradientTransform="matrix(1.4324324,0,0,1.5405406,-2.378381,-6.9017142)" />
    <linearGradient
       id="linearGradient3924-2-2-5-8">
      <stop
         id="stop3926-9-4-9-6"
         style="stop-color:#ffffff;stop-opacity:1"
         offset="0" />
      <stop
         id="stop3928-9-8-6-5"
         style="stop-color:#ffffff;stop-opacity:0.23529412"
         offset="0.06316455" />
      <stop
         id="stop3930-3-5-1-7"
         style="stop-color:#ffffff;stop-opacity:0.15686275"
         offset="0.95056331" />
      <stop
         id="stop3932-8-0-4-8"
         style="stop-color:#ffffff;stop-opacity:0.39215687"
         offset="1" />
    </linearGradient>
    <linearGradient
       inkscape:collect="always"
       xlink:href="#linearGradient5418-9"
       id="linearGradient4090"
       gradientUnits="userSpaceOnUse"
       gradientTransform="matrix(0.46191647,0,0,0.61528866,8.6949797,37.499081)"
       x1="43.816097"
       y1="-10.328197"
       x2="43.816097"
       y2="-57.312084" />
    <linearGradient
       id="linearGradient5418-9">
      <stop
         id="stop5420-1"
         style="stop-color:#ffffff;stop-opacity:1"
         offset="0" />
      <stop
         id="stop5422-3"
         style="stop-color:#ffffff;stop-opacity:0.23529412"
         offset="0.10691732" />
      <stop
         id="stop5424-9"
         style="stop-color:#ffffff;stop-opacity:0.15686275"
         offset="0.99395192" />
      <stop
         id="stop5426-1"
         style="stop-color:#ffffff;stop-opacity:0.39215687"
         offset="1" />
    </linearGradient>
    <linearGradient
       inkscape:collect="always"
       xlink:href="#linearGradient5010-0"
       id="linearGradient4087"
       gradientUnits="userSpaceOnUse"
       gradientTransform="matrix(1.393723,0,0,2.3701976,-1.0790741,-5.0513259)"
       x1="16"
       y1="4"
       x2="16"
       y2="15" />
    <linearGradient
       id="linearGradient5010-0">
      <stop
         id="stop5012-2"
         style="stop-color:#646464;stop-opacity:1;"
         offset="0" />
      <stop
         id="stop5014-0"
         style="stop-color:#161616;stop-opacity:1;"
         offset="1" />
    </linearGradient>
    <linearGradient
       inkscape:collect="always"
       xlink:href="#linearGradient5052-2"
       id="linearGradient4084"
       gradientUnits="userSpaceOnUse"
       gradientTransform="matrix(1.40625,0,0,2.2636331,-1.7499991,-5.6503107)"
       x1="15"
       y1="5"
       x2="15"
       y2="16" />
    <linearGradient
       id="linearGradient5052-2">
      <stop
         id="stop5054-9"
         style="stop-color:#5e5750;stop-opacity:1"
         offset="0" />
      <stop
         id="stop5056-2"
         style="stop-color:#756d65;stop-opacity:1"
         offset="1" />
    </linearGradient>
    <linearGradient
       inkscape:collect="always"
       xlink:href="#linearGradient4237-6-4"
       id="linearGradient4022"
       gradientUnits="userSpaceOnUse"
       gradientTransform="matrix(0.46054556,0,0,0.41993592,7.6375671,35.785344)"
       x1="23.99999"
       y1="7.0519686"
       x2="23.99999"
       y2="40.899719" />
    <linearGradient
       id="linearGradient4237-6-4">
      <stop
         id="stop4239-3-8"
         style="stop-color:#ffffff;stop-opacity:1"
         offset="0" />
      <stop
         id="stop4241-6-3"
         style="stop-color:#ffffff;stop-opacity:0.23529412"
         offset="0.01109819" />
      <stop
         id="stop4243-5-7"
         style="stop-color:#ffffff;stop-opacity:0.15686275"
         offset="0.99395192" />
      <stop
         id="stop4245-9-7"
         style="stop-color:#ffffff;stop-opacity:0.39215687"
         offset="1" />
    </linearGradient>
    <linearGradient
       inkscape:collect="always"
       xlink:href="#linearGradient4237-6-4"
       id="linearGradient4010"
       gradientUnits="userSpaceOnUse"
       gradientTransform="matrix(0.46054556,0,0,0.41993592,33.997792,35.785344)"
       x1="23.99999"
       y1="7.0519686"
       x2="23.99999"
       y2="40.899719" />
    <linearGradient
       id="linearGradient3211">
      <stop
         id="stop3213"
         style="stop-color:#ffffff;stop-opacity:1"
         offset="0" />
      <stop
         id="stop3215"
         style="stop-color:#ffffff;stop-opacity:0.23529412"
         offset="0.01109819" />
      <stop
         id="stop3217"
         style="stop-color:#ffffff;stop-opacity:0.15686275"
         offset="0.99395192" />
      <stop
         id="stop3219"
         style="stop-color:#ffffff;stop-opacity:0.39215687"
         offset="1" />
    </linearGradient>
    <linearGradient
       inkscape:collect="always"
       xlink:href="#linearGradient4237-6-4"
       id="linearGradient3152"
       gradientUnits="userSpaceOnUse"
       gradientTransform="matrix(0.33773281,0,0,0.30795246,25.465005,27.392619)"
       x1="23.99999"
       y1="7.0519686"
       x2="23.99999"
       y2="40.899719" />
    <linearGradient
       inkscape:collect="always"
       xlink:href="#linearGradient4237-6-4"
       id="linearGradient3157"
       gradientUnits="userSpaceOnUse"
       gradientTransform="matrix(0.33773281,0,0,0.30795246,6.1342085,27.392619)"
       x1="23.99999"
       y1="7.0519686"
       x2="23.99999"
       y2="40.899719" />
    <linearGradient
       inkscape:collect="always"
       xlink:href="#linearGradient5052-2"
       id="linearGradient3162"
       gradientUnits="userSpaceOnUse"
       gradientTransform="matrix(1.0312482,0,0,1.6599946,-0.74999442,-2.9934732)"
       x1="15"
       y1="5"
       x2="15"
       y2="16" />
    <linearGradient
       inkscape:collect="always"
       xlink:href="#linearGradient5010-0"
       id="linearGradient3165"
       gradientUnits="userSpaceOnUse"
       gradientTransform="matrix(1.0220617,0,0,1.7381418,-0.25798363,-2.5542184)"
       x1="16"
       y1="4"
       x2="16"
       y2="15" />
    <linearGradient
       inkscape:collect="always"
       xlink:href="#linearGradient5418-9"
       id="linearGradient3168"
       gradientUnits="userSpaceOnUse"
       gradientTransform="matrix(0.33873814,0,0,0.45121088,6.909643,28.649357)"
       x1="43.816097"
       y1="-10.328197"
       x2="43.816097"
       y2="-57.312084" />
    <linearGradient
       inkscape:collect="always"
       xlink:href="#linearGradient3924-2-2-5-8"
       id="linearGradient3172"
       gradientUnits="userSpaceOnUse"
       gradientTransform="matrix(1.0504485,0,0,1.1297278,-1.210807,-3.9111674)"
       x1="23.99999"
       y1="4.999989"
       x2="23.99999"
       y2="43" />
    <radialGradient
       inkscape:collect="always"
       xlink:href="#radialGradient3093-0-3-6-6-3"
       id="radialGradient3175"
       gradientUnits="userSpaceOnUse"
       gradientTransform="matrix(0,10.357996,-11.839323,0,142.72922,-90.447533)"
       cx="6.7304144"
       cy="9.9571075"
       fx="6.2001843"
       fy="9.9571075"
       r="12.671875" />
  </defs>
  <metadata
     id="metadata6654">
    <rdf:RDF>
      <cc:Work
         rdf:about="">
        <dc:format>image/svg+xml</dc:format>
        <dc:type
           rdf:resource="http://purl.org/dc/dcmitype/StillImage" />
        <dc:title />
      </cc:Work>
    </rdf:RDF>
  </metadata>
  <g
     transform="matrix(1.1578947,0,0,0.52380858,-3.7894737,21.630997)"
     id="g3712-8-2-4-4"
     style="opacity:0.4">
    <rect
       width="5"
       height="7"
       x="38"
       y="40"
       id="rect2801-5-5-7-9"
       style="fill:url(#radialGradient3337-2-2);fill-opacity:1;stroke:none" />
    <rect
       width="5"
       height="7"
       x="-10"
       y="-47"
       transform="scale(-1,-1)"
       id="rect3696-3-0-3-7"
       style="fill:url(#radialGradient3339-1-4);fill-opacity:1;stroke:none" />
    <rect
       width="28"
       height="7.0000005"
       x="10"
       y="40"
       id="rect3700-5-6-8-4"
       style="fill:url(#linearGradient6394);fill-opacity:1;stroke:none" />
  </g>
  <rect
     width="39.59993"
     height="42.533257"
     rx="1.83333"
     ry="1.83333"
     x="4.199996"
     y="1.8834126"
     id="rect5505-21-3-8-5-2"
     style="color:#000000;fill:url(#radialGradient3175);fill-opacity:1;fill-rule:nonzero;stroke:none;stroke-width:0.99999994;marker:none;visibility:visible;display:inline;overflow:visible;enable-background:accumulate" />
  <rect
     width="38.866596"
     height="41.799927"
     rx="1.4666641"
     ry="1.4666641"
     x="4.5666609"
     y="2.3023307"
     id="rect6741-5-0-2-3"
     style="opacity:0.5;fill:none;stroke:url(#linearGradient3172);stroke-width:0.73333204;stroke-linecap:round;stroke-linejoin:round;stroke-miterlimit:4;stroke-opacity:1;stroke-dasharray:none;stroke-dashoffset:0" />
  <rect
     width="40.33326"
     height="43.26659"
     rx="2.199996"
     ry="2.1999962"
     x="3.833329"
     y="1.5167489"
     id="rect5505-21-3-8-9-1-1"
     style="opacity:0.4;color:#000000;fill:none;stroke:#000000;stroke-width:0.73333204;stroke-linecap:round;stroke-linejoin:round;stroke-miterlimit:4;stroke-opacity:1;stroke-dasharray:none;stroke-dashoffset:0;marker:none;visibility:visible;display:inline;overflow:visible;enable-background:accumulate" />
  <rect
     width="34.466606"
     height="20.868502"
     rx="1.4666641"
     ry="2.6085627"
     x="6.7666569"
     y="4.0022168"
     id="rect4940-8-8-1-9"
     style="opacity:0.5;color:#000000;fill:none;stroke:url(#linearGradient3168);stroke-width:0.97799337;stroke-linecap:round;stroke-linejoin:round;stroke-miterlimit:4;stroke-opacity:1;stroke-dasharray:none;stroke-dashoffset:0;marker:none;visibility:visible;display:inline;overflow:visible;enable-background:accumulate" />
  <rect
     width="33.733273"
     height="19.564222"
     rx="1.4666641"
     ry="2.6085627"
     x="7.1333227"
     y="4.6543574"
     id="rect4940-8-3"
     style="color:#000000;fill:url(#linearGradient3165);fill-opacity:1;fill-rule:nonzero;stroke:none;stroke-width:0.75;marker:none;visibility:visible;display:inline;overflow:visible;enable-background:accumulate" />
  <rect
     width="32.999943"
     height="18.259941"
     rx="0.73333204"
     ry="1.3042814"
     x="7.4999886"
     y="5.3064981"
     id="rect4940-8-8-0"
     style="opacity:0.7;color:#000000;fill:none;stroke:url(#linearGradient3162);stroke-width:0.97799337;stroke-miterlimit:4;stroke-opacity:1;stroke-dasharray:none;marker:none;visibility:visible;display:inline;overflow:visible;enable-background:accumulate" />
  <rect
     width="31.533279"
     height="15.651377"
     x="8.2333193"
     y="6.6107798"
     id="rect4940-8-8-2-5"
     style="opacity:0.05;color:#000000;fill:none;stroke:#000000;stroke-width:0.97799349;stroke-miterlimit:4;stroke-opacity:1;stroke-dasharray:none;marker:none;visibility:visible;display:inline;overflow:visible;enable-background:accumulate" />
  <rect
     width="13.884571"
     height="13.293281"
     rx="0.69422853"
     ry="0.94951999"
     x="7.2975101"
     y="28.136845"
     id="rect5505-21-0-8-7"
     style="color:#000000;fill:#41c53a;fill-opacity:1;fill-rule:nonzero;stroke:none;stroke-width:0.99999994;marker:none;visibility:visible;display:inline;overflow:visible;enable-background:accumulate" />
  <rect
     width="12.496113"
     height="11.39424"
     x="7.9917378"
     y="29.086359"
     id="rect6741-1-2-7"
     style="opacity:0.3;fill:none;stroke:url(#linearGradient3157);stroke-width:0.81190127;stroke-linecap:round;stroke-linejoin:round;stroke-miterlimit:4;stroke-opacity:1;stroke-dasharray:none;stroke-dashoffset:0" />
  <rect
     width="13.884571"
     height="13.293281"
     rx="0.69422853"
     ry="0.94951999"
     x="7.2975101"
     y="28.136845"
     id="rect5505-21-3-2-3-9-7"
     style="opacity:0.4;color:#000000;fill:none;stroke:#000000;stroke-width:0.81190133;stroke-linecap:round;stroke-linejoin:round;stroke-miterlimit:4;stroke-opacity:1;stroke-dasharray:none;stroke-dashoffset:0;marker:none;visibility:visible;display:inline;overflow:visible;enable-background:accumulate" />
  <rect
     style="color:#000000;fill:#c53a46;fill-opacity:1;fill-rule:nonzero;stroke:none;stroke-width:0.99999994;marker:none;visibility:visible;display:inline;overflow:visible;enable-background:accumulate"
     id="rect4000"
     y="28.136845"
     x="26.628305"
     ry="0.94951999"
     rx="0.69422853"
     height="13.293281"
     width="13.884571" />
  <rect
     style="opacity:0.3;fill:none;stroke:url(#linearGradient3152);stroke-width:0.81190127;stroke-linecap:round;stroke-linejoin:round;stroke-miterlimit:4;stroke-opacity:1;stroke-dasharray:none;stroke-dashoffset:0"
     id="rect4002"
     y="29.086359"
     x="27.322536"
     height="11.39424"
     width="12.496113" />
  <rect
     style="opacity:0.4;color:#000000;fill:none;stroke:#000000;stroke-width:0.81190133;stroke-linecap:round;stroke-linejoin:round;stroke-miterlimit:4;stroke-opacity:1;stroke-dasharray:none;stroke-dashoffset:0;marker:none;visibility:visible;display:inline;overflow:visible;enable-background:accumulate"
     id="rect4004"
     y="28.136845"
     x="26.628305"
     ry="0.94951999"
     rx="0.69422853"
     height="13.293281"
     width="13.884571" />
  <g
     id="g4047"
     transform="matrix(0.61111009,0,0,0.61111009,6.2476293,6.6714728)">
    <path
       style="fill:#8b2931;fill-opacity:1;stroke:#8b2931;stroke-width:0.60000002;stroke-miterlimit:4;stroke-opacity:1;stroke-dasharray:none"
       id="path3-0"
       d="m 37.603456,41.976709 c -0.03172,-0.243487 0.04237,-0.455212 0.222315,-0.635175 l 2.11197,-2.09604 c 0.09527,-0.105863 0.219668,-0.1959 0.373163,-0.269948 0.153502,-0.0741 0.304335,-0.121747 0.452512,-0.14292 0.01057,0 0.04237,-0.003 0.09533,-0.008 0.05288,-0.0053 0.121687,-0.008 0.206377,-0.008 0.201173,0 0.526726,0.03442 0.976643,0.103215 0.449918,0.06878 1.000403,0.238245 1.651411,0.508148 0.651112,0.269947 1.389502,0.674925 2.215215,1.214775 0.825705,0.53985 1.70439,1.28094 2.635988,2.223128 0.741045,0.730455 1.355048,1.429148 1.842016,2.096085 0.486975,0.666938 0.878662,1.283588 1.175085,1.849958 0.296437,0.566371 0.518753,1.079806 0.66696,1.540306 0.148208,0.460507 0.248783,0.857497 0.30171,1.190963 0.05295,0.333472 0.0741,0.595477 0.06353,0.786037 -0.01057,0.190553 -0.0159,0.296415 -0.0159,0.317588 -0.02115,0.148207 -0.06885,0.299062 -0.142912,0.452565 -0.0741,0.153502 -0.164093,0.27789 -0.269955,0.373163 l -2.111971,2.11197 c -0.148208,0.148208 -0.317588,0.222315 -0.50814,0.222315 -0.137625,0 -0.259365,-0.03967 -0.365228,-0.1191 -0.105862,-0.0794 -0.195847,-0.177315 -0.269955,-0.293768 l -1.699095,-3.22353 c -0.09528,-0.16938 -0.121748,-0.354645 -0.0794,-0.55578 0.04237,-0.201143 0.13233,-0.370523 0.269955,-0.508148 l 0.778088,-0.778088 c 0.02115,-0.02115 0.03967,-0.05557 0.05557,-0.103222 0.0159,-0.04763 0.02385,-0.08734 0.02385,-0.119093 -0.04237,-0.222315 -0.137625,-0.476385 -0.285832,-0.762217 C 47.84572,47.089825 47.649873,46.78018 47.385213,46.414953 47.12056,46.049725 46.744743,45.628915 46.257775,45.15256 45.78139,44.665562 45.35794,44.287127 44.987417,44.01715 c -0.37047,-0.269895 -0.680167,-0.468443 -0.92895,-0.595478 -0.248775,-0.127035 -0.439328,-0.20379 -0.571658,-0.230205 l -0.198442,-0.03967 c -0.02115,0 -0.05565,0.008 -0.103245,0.02385 -0.04763,0.0159 -0.08204,0.03442 -0.103215,0.05558 l -0.90513,0.921008 c -0.190605,0.16938 -0.412868,0.25407 -0.666938,0.25407 -0.180015,0 -0.322883,-0.03173 -0.428745,-0.09528 l -0.0159,0 -3.064688,-1.810253 c -0.22239,-0.137678 -0.35472,-0.312353 -0.397065,-0.524078 z"
       inkscape:connector-curvature="0" />
    <path
       inkscape:connector-curvature="0"
       d="m 37.603456,41.976709 c -0.03172,-0.243487 0.04237,-0.455212 0.222315,-0.635175 l 2.11197,-2.09604 c 0.09527,-0.105863 0.219668,-0.1959 0.373163,-0.269948 0.153502,-0.0741 0.304335,-0.121747 0.452512,-0.14292 0.01057,0 0.04237,-0.003 0.09533,-0.008 0.05288,-0.0053 0.121687,-0.008 0.206377,-0.008 0.201173,0 0.526726,0.03442 0.976643,0.103215 0.449918,0.06878 1.000403,0.238245 1.651411,0.508148 0.651112,0.269947 1.389502,0.674925 2.215215,1.214775 0.825705,0.53985 1.70439,1.28094 2.635988,2.223128 0.741045,0.730455 1.355048,1.429148 1.842016,2.096085 0.486975,0.666938 0.878662,1.283588 1.175085,1.849958 0.296437,0.566371 0.518753,1.079806 0.66696,1.540306 0.148208,0.460507 0.248783,0.857497 0.30171,1.190963 0.05295,0.333472 0.0741,0.595477 0.06353,0.786037 -0.01057,0.190553 -0.0159,0.296415 -0.0159,0.317588 -0.02115,0.148207 -0.06885,0.299062 -0.142912,0.452565 -0.0741,0.153502 -0.164093,0.27789 -0.269955,0.373163 l -2.111971,2.11197 c -0.148208,0.148208 -0.317588,0.222315 -0.50814,0.222315 -0.137625,0 -0.259365,-0.03967 -0.365228,-0.1191 -0.105862,-0.0794 -0.195847,-0.177315 -0.269955,-0.293768 l -1.699095,-3.22353 c -0.09528,-0.16938 -0.121748,-0.354645 -0.0794,-0.55578 0.04237,-0.201143 0.13233,-0.370523 0.269955,-0.508148 l 0.778088,-0.778088 c 0.02115,-0.02115 0.03967,-0.05557 0.05557,-0.103222 0.0159,-0.04763 0.02385,-0.08734 0.02385,-0.119093 -0.04237,-0.222315 -0.137625,-0.476385 -0.285832,-0.762217 C 47.84572,47.089825 47.649873,46.78018 47.385213,46.414953 47.12056,46.049725 46.744743,45.628915 46.257775,45.15256 45.78139,44.665562 45.35794,44.287127 44.987417,44.01715 c -0.37047,-0.269895 -0.680167,-0.468443 -0.92895,-0.595478 -0.248775,-0.127035 -0.439328,-0.20379 -0.571658,-0.230205 l -0.198442,-0.03967 c -0.02115,0 -0.05565,0.008 -0.103245,0.02385 -0.04763,0.0159 -0.08204,0.03442 -0.103215,0.05558 l -0.90513,0.921008 c -0.190605,0.16938 -0.412868,0.25407 -0.666938,0.25407 -0.180015,0 -0.322883,-0.03173 -0.428745,-0.09528 l -0.0159,0 -3.064688,-1.810253 c -0.22239,-0.137678 -0.35472,-0.312353 -0.397065,-0.524078 z"
       id="path4045"
       style="fill:#ffffff;fill-opacity:1;stroke:none" />
  </g>
  <g
     id="g4060"
     transform="matrix(0.61111009,0,0,0.61111009,2.6692775,6.5219445)">
    <path
       style="fill:#2a8127;fill-opacity:1;stroke:#2a8127;stroke-width:0.60000002;stroke-miterlimit:4;stroke-opacity:1;stroke-dasharray:none"
       id="path3"
       d="m 26.464062,50.474131 c 0.03172,0.243487 -0.04237,0.455212 -0.222315,0.635175 l -2.11197,2.09604 c -0.09527,0.105863 -0.219668,0.1959 -0.373163,0.269948 -0.153502,0.0741 -0.304335,0.121747 -0.452512,0.14292 -0.01057,0 -0.04237,0.003 -0.09533,0.008 -0.05288,0.0053 -0.121687,0.008 -0.206377,0.008 -0.201173,0 -0.526726,-0.03442 -0.976643,-0.103215 -0.449918,-0.06878 -1.000403,-0.238245 -1.651411,-0.508148 -0.651112,-0.269947 -1.389502,-0.674925 -2.215215,-1.214775 -0.825705,-0.53985 -1.70439,-1.28094 -2.635988,-2.223128 C 14.782093,48.854493 14.16809,48.1558 13.681122,47.488863 13.194147,46.821925 12.80246,46.205275 12.506037,45.638905 12.2096,45.072534 11.987284,44.559099 11.839077,44.098599 c -0.148208,-0.460507 -0.248783,-0.857497 -0.30171,-1.190963 -0.05295,-0.333472 -0.0741,-0.595477 -0.06353,-0.786037 0.01057,-0.190553 0.0159,-0.296415 0.0159,-0.317588 0.02115,-0.148207 0.06885,-0.299062 0.142912,-0.452565 0.0741,-0.153502 0.164093,-0.27789 0.269955,-0.373163 l 2.111971,-2.11197 c 0.148208,-0.148208 0.317588,-0.222315 0.50814,-0.222315 0.137625,0 0.259365,0.03967 0.365228,0.1191 0.105862,0.0794 0.195847,0.177315 0.269955,0.293768 l 1.699095,3.22353 c 0.09528,0.16938 0.121748,0.354645 0.0794,0.55578 -0.04237,0.201143 -0.13233,0.370523 -0.269955,0.508148 l -0.778088,0.778088 c -0.02115,0.02115 -0.03967,0.05557 -0.05557,0.103222 -0.0159,0.04763 -0.02385,0.08734 -0.02385,0.119093 0.04237,0.222315 0.137625,0.476385 0.285832,0.762217 0.127036,0.254071 0.322883,0.563716 0.587543,0.928943 0.264653,0.365228 0.64047,0.786038 1.127438,1.262393 0.476385,0.486998 0.899835,0.865433 1.270358,1.13541 0.37047,0.269895 0.680167,0.468443 0.92895,0.595478 0.248775,0.127035 0.439328,0.20379 0.571658,0.230205 l 0.198442,0.03967 c 0.02115,0 0.05565,-0.008 0.103245,-0.02385 0.04763,-0.0159 0.08204,-0.03442 0.103215,-0.05558 l 0.90513,-0.921008 c 0.190605,-0.16938 0.412868,-0.25407 0.666938,-0.25407 0.180015,0 0.322883,0.03173 0.428745,0.09528 h 0.0159 l 3.064688,1.810253 c 0.22239,0.137678 0.35472,0.312353 0.397065,0.524078 z"
       inkscape:connector-curvature="0" />
    <path
       inkscape:connector-curvature="0"
       d="m 26.464062,50.474131 c 0.03172,0.243487 -0.04237,0.455212 -0.222315,0.635175 l -2.11197,2.09604 c -0.09527,0.105863 -0.219668,0.1959 -0.373163,0.269948 -0.153502,0.0741 -0.304335,0.121747 -0.452512,0.14292 -0.01057,0 -0.04237,0.003 -0.09533,0.008 -0.05288,0.0053 -0.121687,0.008 -0.206377,0.008 -0.201173,0 -0.526726,-0.03442 -0.976643,-0.103215 -0.449918,-0.06878 -1.000403,-0.238245 -1.651411,-0.508148 -0.651112,-0.269947 -1.389502,-0.674925 -2.215215,-1.214775 -0.825705,-0.53985 -1.70439,-1.28094 -2.635988,-2.223128 C 14.782093,48.854493 14.16809,48.1558 13.681122,47.488863 13.194147,46.821925 12.80246,46.205275 12.506037,45.638905 12.2096,45.072534 11.987284,44.559099 11.839077,44.098599 c -0.148208,-0.460507 -0.248783,-0.857497 -0.30171,-1.190963 -0.05295,-0.333472 -0.0741,-0.595477 -0.06353,-0.786037 0.01057,-0.190553 0.0159,-0.296415 0.0159,-0.317588 0.02115,-0.148207 0.06885,-0.299062 0.142912,-0.452565 0.0741,-0.153502 0.164093,-0.27789 0.269955,-0.373163 l 2.111971,-2.11197 c 0.148208,-0.148208 0.317588,-0.222315 0.50814,-0.222315 0.137625,0 0.259365,0.03967 0.365228,0.1191 0.105862,0.0794 0.195847,0.177315 0.269955,0.293768 l 1.699095,3.22353 c 0.09528,0.16938 0.121748,0.354645 0.0794,0.55578 -0.04237,0.201143 -0.13233,0.370523 -0.269955,0.508148 l -0.778088,0.778088 c -0.02115,0.02115 -0.03967,0.05557 -0.05557,0.103222 -0.0159,0.04763 -0.02385,0.08734 -0.02385,0.119093 0.04237,0.222315 0.137625,0.476385 0.285832,0.762217 0.127036,0.254071 0.322883,0.563716 0.587543,0.928943 0.264653,0.365228 0.64047,0.786038 1.127438,1.262393 0.476385,0.486998 0.899835,0.865433 1.270358,1.13541 0.37047,0.269895 0.680167,0.468443 0.92895,0.595478 0.248775,0.127035 0.439328,0.20379 0.571658,0.230205 l 0.198442,0.03967 c 0.02115,0 0.05565,-0.008 0.103245,-0.02385 0.04763,-0.0159 0.08204,-0.03442 0.103215,-0.05558 l 0.90513,-0.921008 c 0.190605,-0.16938 0.412868,-0.25407 0.666938,-0.25407 0.180015,0 0.322883,0.03173 0.428745,0.09528 h 0.0159 l 3.064688,1.810253 c 0.22239,0.137678 0.35472,0.312353 0.397065,0.524078 z"
       id="path4051"
       style="fill:#ffffff;fill-opacity:1;stroke:none" />
  </g>
  <g
     transform="matrix(0.17769286,0,0,0.17769286,29.684871,6.7884306)"
     id="g2995"
     style="opacity:0.69999999999999996;fill:#ffffff;fill-opacity:1;stroke:none">
    <path
       inkscape:connector-curvature="0"
       transform="matrix(1.988777,0,0,1.988777,40.42912,22.14292)"
       style="font-size:24px;fill:#ffffff;fill-opacity:1;stroke:none;font-family:VAG Rounded Black SSi"
       id="path829"
       d="m -6.8225527,5.8193731 0,-13.9921875 c 0,-0.515625 0.1679688,-0.9453125 0.5039063,-1.2890625 0.3359375,-0.34375 0.7695312,-0.515625 1.3007812,-0.515625 0.53125,0 0.9609375,0.1601563 1.2890625,0.4804688 0.3359375,0.3203125 0.5039063,0.7617187 0.5039063,1.3242187 l 0,5.2265625 5.90625,-6.3515625 c 0.4140625,-0.453125 0.8789062,-0.6796875 1.3945312,-0.6796875 0.4765625,0 0.890625,0.1640625 1.2421875,0.4921875 0.359375,0.3203125 0.5390625,0.7421875 0.5390625,1.265625 0,0.296875 -0.09375,0.5898438 -0.28125,0.8789063 -0.1875,0.28125 -0.4882812,0.6289062 -0.9023437,1.0429687 L 0.13838482,-1.7860956 5.6813536,4.0615606 c 0.3203125,0.3046875 0.5664062,0.6015625 0.7382812,0.890625 0.1796875,0.28125 0.2695313,0.59375 0.2695313,0.9375 0,0.546875 -0.1796875,0.9648438 -0.5390625,1.2539063 -0.359375,0.28125 -0.8046875,0.421875 -1.3359375,0.421875 -0.3125,0 -0.5976563,-0.085937 -0.8554688,-0.2578125 -0.25,-0.171875 -0.5703125,-0.4609375 -0.9609375,-0.8671875 l -6.2226562,-6.79687502 0,6.17578122 c 0,0.4921875 -0.1679688,0.90625 -0.5039063,1.2421875 -0.3359375,0.3359375 -0.765625,0.5039063 -1.2890625,0.5039063 -0.5234375,0 -0.9570312,-0.1601563 -1.3007812,-0.4804688 -0.3359375,-0.3203125 -0.5039063,-0.7421875 -0.5039063,-1.265625 z" />
    <path
       inkscape:connector-curvature="0"
       transform="matrix(0.290029,0,0,0.290029,-1.446166,-5.26496)"
       style="font-size:12px;fill:#ffffff;fill-opacity:1;fill-rule:evenodd;stroke:none"
       sodipodi:stroke-cmyk="(0 0 0 0.8)"
       sodipodi:nodetypes="ccccccccccccccccccccccc"
       id="path705"
       d="m 37.139197,181.1474 15.80708,16.55976 25.592269,-17.31256 20.323362,9.03275 6.774432,29.66775 21.82871,-0.20049 6.02177,-30.44062 20.32333,-8.05939 25.59229,16.5599 12.04348,-16.5599 -29.04413,-27.40948 C 87.958944,221.26415 23.628859,116.02943 87.571178,72.003552 L 87.571095,56.19647 80.043997,59.960043 56.709788,45.126111 40.59092,58.363176 55.204367,83.2942 l -8.27986,20.32333 -28.515242,4.73684 -0.088,21.60824 29.355989,7.52717 8.091681,19.7589 -18.629743,23.89872 z" />
  </g>
</svg>
