<?xml version="1.0" encoding="UTF-8" standalone="no"?>
<!-- Created with Inkscape (http://www.inkscape.org/) -->
<svg id="svg4951" xmlns:rdf="http://www.w3.org/1999/02/22-rdf-syntax-ns#" xmlns="http://www.w3.org/2000/svg" height="48" width="48" version="1.1" xmlns:cc="http://creativecommons.org/ns#" xmlns:xlink="http://www.w3.org/1999/xlink" xmlns:dc="http://purl.org/dc/elements/1.1/">
 <defs id="defs4953">
  <linearGradient id="linearGradient4515">
   <stop id="stop4517" stop-color="#fff" offset="0"/>
   <stop id="stop4519" stop-color="#b3b3b3" offset="1"/>
  </linearGradient>
  <radialGradient id="radialGradient3302" gradientUnits="userSpaceOnUse" cy="186.17" cx="99.157" gradientTransform="matrix(.27083 0 0 .087623 -2.8551 25.187)" r="62.769">
   <stop id="stop3822-2-6-3" stop-color="#3d3d3d" offset="0"/>
   <stop id="stop3864-8-7-7" stop-color="#686868" stop-opacity=".49804" offset=".5"/>
   <stop id="stop3824-1-2-5" stop-color="#686868" stop-opacity="0" offset="1"/>
  </radialGradient>
  <radialGradient id="radialGradient4448" gradientUnits="userSpaceOnUse" cy="-17.681" cx="14.892" gradientTransform="matrix(-1.4387 3.8089e-8 -2.8328e-8 -1.07 45.169 -14.596)" r="25.571">
   <stop id="stop3750-1-0-7-6-6-1-3-9-3" stop-color="#5f5f5f" offset="0"/>
   <stop id="stop3752-3-7-4-0-32-8-923-0-7" stop-color="#515151" offset=".26238"/>
   <stop id="stop3754-1-8-5-2-7-6-7-1-9" stop-color="#404040" offset=".70495"/>
   <stop id="stop3756-1-6-2-6-6-1-96-6-0" stop-color="#343434" offset="1"/>
  </radialGradient>
  <linearGradient id="linearGradient4450" y2="32.568" gradientUnits="userSpaceOnUse" x2="15.124" gradientTransform="matrix(.76418 0 0 .76418 12.377 18.778)" y1="-18.801" x1="15.124">
   <stop id="stop4413" stop-color="#fff" offset="0"/>
   <stop id="stop4415" stop-color="#fff" stop-opacity="0" offset="1"/>
  </linearGradient>
  <linearGradient id="linearGradient4439" y2="36.716" gradientUnits="userSpaceOnUse" x2="24.557" gradientTransform="translate(-.10347)" y1="11.608" x1="24.945">
   <stop id="stop4435" stop-color="#9ac468" offset="0"/>
   <stop id="stop4437" stop-color="#729e3e" offset="1"/>
  </linearGradient>
  <linearGradient id="linearGradient4521" y2="24.213" xlink:href="#linearGradient4515" gradientUnits="userSpaceOnUse" x2="18.203" y1="17.339" x1="18.005"/>
  <linearGradient id="linearGradient4529" y2="24.338" xlink:href="#linearGradient4515" gradientUnits="userSpaceOnUse" x2="31.679" y1="16.77" x1="28.674"/>
  <radialGradient id="radialGradient4502" gradientUnits="userSpaceOnUse" cy="24.981" cx="23.935" gradientTransform="matrix(1 0 0 5.7941 0 -119.76)" r="1.8329">
   <stop id="stop4498" stop-color="#fff" offset="0"/>
   <stop id="stop4500" stop-color="#fff" stop-opacity="0" offset="1"/>
  </radialGradient>
 </defs>
 <metadata id="metadata4956">
  <rdf:RDF>
   <cc:Work rdf:about="">
    <dc:format>image/svg+xml</dc:format>
    <dc:type rdf:resource="http://purl.org/dc/dcmitype/StillImage"/>
    <dc:title/>
   </cc:Work>
  </rdf:RDF>
 </metadata>
 <g id="g4504">
  <path id="path3818-0-5" fill="url(#radialGradient3302)" d="m41 41.5a17 5.5 0 0 1 -34 0 17 5.5 0 1 1 34 0z"/>
  <circle id="path2985-6" cx="24" cy="24" r="20.526" fill="url(#radialGradient4448)"/>
  <circle id="path3755-9" opacity=".6" cx="24" stroke="#242424" cy="24" r="20.526" stroke-width=".94845" fill="none"/>
  <circle id="path3773-9" opacity=".6" stroke-opacity=".58824" cx="24" stroke="url(#linearGradient4450)" cy="24" r="19.54" stroke-width=".93261" fill="none"/>
  <path id="rect4344" stroke-linejoin="round" d="m22.047 11.183h4.0146c3.7829 0 6.8283 3.2973 6.8283 7.3929v10.848c0 4.0957-3.0454 7.3929-6.8283 7.3929h-4.0146c-3.7829 0-6.8283-3.2973-6.8283-7.3929v-10.848c0-4.0957 3.0454-7.3929 6.8283-7.3929z" stroke="#1d1d1d" stroke-linecap="round" stroke-width=".36717" fill="url(#linearGradient4439)"/>
  <rect id="rect4405" opacity=".2" ry="1.713" rx="3.0222" transform="matrix(1.9456 0 0 .94492 -22.578 1.2143)" height="21.24" width="3.6658" y="14.361" x="22.102" fill="url(#radialGradient4502)"/>
  <path id="path4364" d="m19.034 27.665h10.042c0.81582 0 1.4726 0.6533 1.4726 1.4648 0 0-0.42482 0.78035-1.3178 1.44-2.7445 2.0274-8.0426 2.2696-10.383-0.12384l-1.2868-1.3162c0-0.81149 0.65678-1.4648 1.4726-1.4648z" fill="#1d1d1d"/>
  <path id="path4357" d="m19.033 27.738c-0.13634 0-0.26459 0.02447-0.38972 0.05865a5.4463 1.7971 0 0 0 5.4403 1.748 5.4463 1.7971 0 0 0 5.4374 -1.7309c-0.14126-0.04457-0.28789-0.07581-0.44437-0.07581h-10.044z" fill="#fff"/>
  <path id="path4346" stroke-linejoin="round" d="m21.659 20.449c0 0.8668-0.19408 1.6642-0.69483 2.2958-0.68308 0.86155-1.5848 1.4146-2.7735 1.4146-2.0601 0-3.4683-1.557-3.4683-3.6062s1.4606-3.4499 3.5207-3.4499 3.416 1.2966 3.416 3.3458z" stroke="#1d1d1d" stroke-linecap="round" stroke-width=".36717" fill="url(#linearGradient4521)"/>
  <ellipse id="path4369" rx="1.1783" ry="1.0679" cy="21.179" cx="17.326" fill="#1d1d1d"/>
  <path id="path4350" stroke-linejoin="round" d="m32.095 22.882c-0.64544 0.58237-1.3696 0.97512-2.1763 1.0305-1.1005 0.0756-2.1181-0.21716-2.9168-1.0929-1.3841-1.5178-1.1709-3.6014 0.35501-4.9782s3.5502-1.2418 4.9344 0.27596c1.3841 1.5178 1.3296 3.3878-0.19625 4.7646z" stroke="#1d1d1d" stroke-linecap="round" stroke-width=".36717" fill="url(#linearGradient4529)"/>
  <ellipse id="ellipse4371" rx="1.1783" ry="1.0679" cy="20.869" cx="31.196" fill="#1d1d1d"/>
  <path id="path4382" stroke-linejoin="round" d="m28.492 12.164c0.23988 0.18802-0.91033-0.51647-1.2248-0.254-0.27112 0.22631 0.62043 1.1121 0.16325 1.2895-0.2429 0.09427-1.1827-1.4967-1.4686-1.4197-0.33006 0.0889-0.34459 2.6057-0.72242 2.6681-0.37931 0.06264-0.79864-2.6527-1.2158-2.6206-0.39323 0.03032-0.41751 3.0754-0.83546 3.0754-0.84429 0-0.46706-3.0942-1.1924-3.2114-0.36722-0.05931-0.36831 1.6364-0.69132 1.5521-0.3421-0.08931 0.2754-1.9736-0.83912-0.50425-0.25851-1.2881 0.0028-0.5461 0.50066-1.4244 0 0-1.864 1.0789-1.7212 0.94864 0.89582-0.81783 1.5322-0.9804 4.7729-0.9804s3.3462-0.0033 4.4743 0.88086z" stroke="#1d1d1d" stroke-linecap="round" stroke-width=".43393" fill="#1d1d1d"/>
 </g>
</svg>
