<?xml version="1.0" encoding="UTF-8" standalone="no"?>
<!-- Created with Inkscape (http://www.inkscape.org/) -->
<svg id="svg4951" xmlns:rdf="http://www.w3.org/1999/02/22-rdf-syntax-ns#" xmlns="http://www.w3.org/2000/svg" height="48px" width="48px" version="1.1" xmlns:cc="http://creativecommons.org/ns#" xmlns:xlink="http://www.w3.org/1999/xlink" xmlns:dc="http://purl.org/dc/elements/1.1/">
 <defs id="defs4953">
  <linearGradient id="linearGradient3189" y2="40.496" gradientUnits="userSpaceOnUse" x2="71.204" gradientTransform="matrix(1.617 0 0 1.617 -92.707 -21.06)" y1="15.369" x1="71.204">
   <stop id="stop4808-4" stop-color="#fff" offset="0"/>
   <stop id="stop4810-0" stop-color="#fff" stop-opacity=".23529" offset=".42448"/>
   <stop id="stop4812-8" stop-color="#fff" stop-opacity=".15686" offset=".82090"/>
   <stop id="stop4814-0" stop-color="#fff" stop-opacity=".39216" offset="1"/>
  </linearGradient>
  <radialGradient id="radialGradient3192" gradientUnits="userSpaceOnUse" cy="3.99" cx="23.896" gradientTransform="matrix(0 2.8885 -3.8128 0 39.213 -65.95)" r="20.397">
   <stop id="stop5352" stop-color="#5a7da5" offset="0"/>
   <stop id="stop5354" stop-color="#13396b" offset="1"/>
  </radialGradient>
  <radialGradient id="radialGradient3195" gradientUnits="userSpaceOnUse" cy="186.17" cx="99.157" gradientTransform="matrix(.27083 0 0 .087623 -2.8551 25.187)" r="62.769">
   <stop id="stop3822-2-6-3" stop-color="#3d3d3d" offset="0"/>
   <stop id="stop3864-8-7-7" stop-color="#686868" stop-opacity=".49804" offset=".5"/>
   <stop id="stop3824-1-2-5" stop-color="#686868" stop-opacity="0" offset="1"/>
  </radialGradient>
  <clipPath id="clipPath-490640644">
   <g id="g17" transform="translate(0 -1004.4)">
    <path id="path19" d="m-24 13c0 1.105-0.672 2-1.5 2s-1.5-0.895-1.5-2 0.672-2 1.5-2 1.5 0.895 1.5 2z" transform="matrix(15.333 0 0 11.5 415 878.86)" fill="#1890d0"/>
   </g>
  </clipPath>
 </defs>
 <metadata id="metadata4956">
  <rdf:RDF>
   <cc:Work rdf:about="">
    <dc:format>image/svg+xml</dc:format>
    <dc:type rdf:resource="http://purl.org/dc/dcmitype/StillImage"/>
    <dc:title/>
   </cc:Work>
  </rdf:RDF>
 </metadata>
 <g id="layer1">
  <path id="path3818-0-5" d="m41 41.5a17 5.5 0 0 1 -34 0 17 5.5 0 1 1 34 0z" fill="url(#radialGradient3195)"/>
  <path id="path2555-7-2" style="color:#000000" d="m24 3.5c-11.311 0-20.5 9.1888-20.5 20.5s9.1888 20.5 20.5 20.5 20.5-9.1888 20.5-20.5-9.189-20.5-20.5-20.5z" fill="url(#radialGradient3192)"/>
  <path id="path4176" opacity=".3" stroke-linejoin="round" style="color:#000000" d="m43.5 24c0 10.77-8.73 19.5-19.5 19.5s-19.5-8.73-19.5-19.5 8.73-19.5 19.5-19.5 19.5 8.73 19.5 19.5z" stroke="url(#linearGradient3189)" stroke-linecap="round" fill="none"/>
  <path id="path3871" opacity=".7" style="color:#000000" d="m24 3.5c-11.311 0-20.5 9.189-20.5 20.5s9.189 20.5 20.5 20.5 20.5-9.189 20.5-20.5-9.189-20.5-20.5-20.5z" stroke="#203860" fill="none"/>
  <g id="g4510" stroke-linejoin="round" transform="translate(0 .00031376)" stroke="#000" stroke-linecap="round" fill="none">
   <g id="g4494" opacity=".15" transform="translate(-.0058935 .0038715)" stroke-width="2">
    <g id="g4496" stroke-linejoin="round" clip-path="url(#clipPath-490640644)" stroke="#000" stroke-linecap="round" stroke-width="2" fill="none"><!-- color: #004694 -->
     <g id="g4498" stroke-linejoin="round" stroke="#000" stroke-linecap="round" stroke-width="2" fill="none">
      <path id="path4500" stroke-linejoin="round" d="m22.488 35.918c-1.141-0.234-2.051-0.98-2.555-2.094-0.238-0.52-0.27-0.688-0.234-1.172 0.035-0.523 0.07-0.594 0.395-0.875 1.027-0.902 1.25-1.141 1.441-1.57 0.191-0.422 0.207-0.551 0.156-1.395-0.051-0.836-0.035-0.984 0.148-1.418 0.418-1.012 1.34-1.59 3.285-2.078 1.379-0.348 2.391-0.352 3.121-0.016 0.586 0.27 1.215 0.895 1.52 1.527 0.418 0.855 1.438 1.469 2.445 1.473 1.293 0.008 2.02 1.01 1.941 2.684-0.043 0.875-0.289 1.426-0.91 2.023-1.184 1.145-5.324 2.5-8.926 2.918-0.926 0.105-1.281 0.105-1.82-0.004m-7.129-6.04c-1.305-0.41-2.453-1.898-2.695-3.48-0.055-0.352-0.156-0.727-0.227-0.836-0.289-0.449-0.57-2.348-0.379-2.543 0.102-0.105 0.602 0.441 0.605 0.656 0 0.102 0.086 0.332 0.184 0.508l0.184 0.316 0.293-0.305c0.379-0.375 0.836-0.512 1.293-0.387 0.355 0.105 0.492 0.191 1.785 1.066 0.438 0.297 1.121 0.734 1.516 0.977 0.395 0.238 0.828 0.586 0.973 0.773 0.543 0.695 0.398 1.566-0.41 2.441-0.391 0.422-0.563 0.535-1.078 0.695-0.625 0.199-1.594 0.25-2.039 0.109m16.684-4.555c-1.277-0.477-1.809-1.164-1.617-2.078 0.035-0.168 0.344-0.883 0.684-1.586s0.621-1.332 0.621-1.395c0.004-0.297 0.457-1.094 0.758-1.332 0.254-0.199 0.43-0.262 0.797-0.266l0.469-0.012 0.027-0.348c0.016-0.191-0.039-0.492-0.121-0.672-0.176-0.387-0.105-0.914 0.113-0.871 0.211 0.043 0.898 1.352 1.063 2.02 0.082 0.328 0.281 0.789 0.441 1.027 0.52 0.758 0.711 1.422 0.719 2.477 0.004 0.816-0.027 0.992-0.227 1.441-0.387 0.848-1.023 1.367-2.02 1.641-0.609 0.168-1.172 0.152-1.711-0.051m-13.04-3.03c-0.984-0.25-1.629-0.773-2.02-1.637-0.438-0.973-0.348-2.691 0.195-3.629 0.164-0.285 0.184-0.457 0.172-1.305-0.02-0.898 0.125-1.855 0.305-2.035 0.137-0.145 0.402 0.395 0.402 0.813 0 0.238 0.082 0.613 0.18 0.84 0.164 0.371 0.199 0.398 0.426 0.344 0.137-0.035 0.5-0.086 0.813-0.113 0.555-0.051 0.57-0.047 0.859 0.273 0.32 0.352 0.508 0.875 0.508 1.41 0 0.438 0.242 0.918 0.758 1.516 1.277 1.465 0.969 2.77-0.805 3.438-0.648 0.238-1.109 0.266-1.793 0.086m5.629-1.656c-0.449-0.156-0.879-0.648-1.035-1.188-0.098-0.348-0.121-0.715-0.082-1.438 0.055-0.965 0.051-0.977-0.219-1.422-0.77-1.266-0.539-2.102 0.656-2.355l0.5-0.105-0.063-0.297c-0.078-0.379-0.348-0.922-0.527-1.078-0.164-0.141-0.195-0.754-0.039-0.754 0.176 0 1.656 1.609 1.816 1.977 0.117 0.262 0.281 0.418 0.625 0.598 0.652 0.348 1.594 1.348 1.953 2.078 0.375 0.77 0.461 1.648 0.227 2.281-0.199 0.543-0.914 1.301-1.465 1.559-0.504 0.234-1.855 0.316-2.352 0.145m0.004 0.004" stroke="#000" stroke-linecap="round" stroke-width="2" fill="none"/>
     </g>
    </g>
   </g>
   <g id="g4502" opacity=".15" transform="translate(-.0058935 .0038715)">
    <g id="g4504" stroke-linejoin="round" clip-path="url(#clipPath-490640644)" stroke="#000" stroke-linecap="round" fill="none"><!-- color: #004694 -->
     <g id="g4506" stroke-linejoin="round" stroke="#000" stroke-linecap="round" fill="none">
      <path id="path4508" stroke-linejoin="round" d="m22.488 35.918c-1.141-0.234-2.051-0.98-2.555-2.094-0.238-0.52-0.27-0.688-0.234-1.172 0.035-0.523 0.07-0.594 0.395-0.875 1.027-0.902 1.25-1.141 1.441-1.57 0.191-0.422 0.207-0.551 0.156-1.395-0.051-0.836-0.035-0.984 0.148-1.418 0.418-1.012 1.34-1.59 3.285-2.078 1.379-0.348 2.391-0.352 3.121-0.016 0.586 0.27 1.215 0.895 1.52 1.527 0.418 0.855 1.438 1.469 2.445 1.473 1.293 0.008 2.02 1.01 1.941 2.684-0.043 0.875-0.289 1.426-0.91 2.023-1.184 1.145-5.324 2.5-8.926 2.918-0.926 0.105-1.281 0.105-1.82-0.004m-7.129-6.04c-1.305-0.41-2.453-1.898-2.695-3.48-0.055-0.352-0.156-0.727-0.227-0.836-0.289-0.449-0.57-2.348-0.379-2.543 0.102-0.105 0.602 0.441 0.605 0.656 0 0.102 0.086 0.332 0.184 0.508l0.184 0.316 0.293-0.305c0.379-0.375 0.836-0.512 1.293-0.387 0.355 0.105 0.492 0.191 1.785 1.066 0.438 0.297 1.121 0.734 1.516 0.977 0.395 0.238 0.828 0.586 0.973 0.773 0.543 0.695 0.398 1.566-0.41 2.441-0.391 0.422-0.563 0.535-1.078 0.695-0.625 0.199-1.594 0.25-2.039 0.109m16.684-4.555c-1.277-0.477-1.809-1.164-1.617-2.078 0.035-0.168 0.344-0.883 0.684-1.586s0.621-1.332 0.621-1.395c0.004-0.297 0.457-1.094 0.758-1.332 0.254-0.199 0.43-0.262 0.797-0.266l0.469-0.012 0.027-0.348c0.016-0.191-0.039-0.492-0.121-0.672-0.176-0.387-0.105-0.914 0.113-0.871 0.211 0.043 0.898 1.352 1.063 2.02 0.082 0.328 0.281 0.789 0.441 1.027 0.52 0.758 0.711 1.422 0.719 2.477 0.004 0.816-0.027 0.992-0.227 1.441-0.387 0.848-1.023 1.367-2.02 1.641-0.609 0.168-1.172 0.152-1.711-0.051m-13.04-3.03c-0.984-0.25-1.629-0.773-2.02-1.637-0.438-0.973-0.348-2.691 0.195-3.629 0.164-0.285 0.184-0.457 0.172-1.305-0.02-0.898 0.125-1.855 0.305-2.035 0.137-0.145 0.402 0.395 0.402 0.813 0 0.238 0.082 0.613 0.18 0.84 0.164 0.371 0.199 0.398 0.426 0.344 0.137-0.035 0.5-0.086 0.813-0.113 0.555-0.051 0.57-0.047 0.859 0.273 0.32 0.352 0.508 0.875 0.508 1.41 0 0.438 0.242 0.918 0.758 1.516 1.277 1.465 0.969 2.77-0.805 3.438-0.648 0.238-1.109 0.266-1.793 0.086m5.629-1.656c-0.449-0.156-0.879-0.648-1.035-1.188-0.098-0.348-0.121-0.715-0.082-1.438 0.055-0.965 0.051-0.977-0.219-1.422-0.77-1.266-0.539-2.102 0.656-2.355l0.5-0.105-0.063-0.297c-0.078-0.379-0.348-0.922-0.527-1.078-0.164-0.141-0.195-0.754-0.039-0.754 0.176 0 1.656 1.609 1.816 1.977 0.117 0.262 0.281 0.418 0.625 0.598 0.652 0.348 1.594 1.348 1.953 2.078 0.375 0.77 0.461 1.648 0.227 2.281-0.199 0.543-0.914 1.301-1.465 1.559-0.504 0.234-1.855 0.316-2.352 0.145m0.004 0.004" stroke="#000" stroke-linecap="round" fill="none"/>
     </g>
    </g>
   </g>
  </g>
  <g id="g47" transform="translate(-.0058935 .0038715)">
   <g id="g49" clip-path="url(#clipPath-490640644)"><!-- color: #004694 -->
    <g id="g51">
     <path id="path53" d="m22.488 35.918c-1.141-0.234-2.051-0.98-2.555-2.094-0.238-0.52-0.27-0.688-0.234-1.172 0.035-0.523 0.07-0.594 0.395-0.875 1.027-0.902 1.25-1.141 1.441-1.57 0.191-0.422 0.207-0.551 0.156-1.395-0.051-0.836-0.035-0.984 0.148-1.418 0.418-1.012 1.34-1.59 3.285-2.078 1.379-0.348 2.391-0.352 3.121-0.016 0.586 0.27 1.215 0.895 1.52 1.527 0.418 0.855 1.438 1.469 2.445 1.473 1.293 0.008 2.02 1.01 1.941 2.684-0.043 0.875-0.289 1.426-0.91 2.023-1.184 1.145-5.324 2.5-8.926 2.918-0.926 0.105-1.281 0.105-1.82-0.004m-7.129-6.04c-1.305-0.41-2.453-1.898-2.695-3.48-0.055-0.352-0.156-0.727-0.227-0.836-0.289-0.449-0.57-2.348-0.379-2.543 0.102-0.105 0.602 0.441 0.605 0.656 0 0.102 0.086 0.332 0.184 0.508l0.184 0.316 0.293-0.305c0.379-0.375 0.836-0.512 1.293-0.387 0.355 0.105 0.492 0.191 1.785 1.066 0.438 0.297 1.121 0.734 1.516 0.977 0.395 0.238 0.828 0.586 0.973 0.773 0.543 0.695 0.398 1.566-0.41 2.441-0.391 0.422-0.563 0.535-1.078 0.695-0.625 0.199-1.594 0.25-2.039 0.109m16.684-4.555c-1.277-0.477-1.809-1.164-1.617-2.078 0.035-0.168 0.344-0.883 0.684-1.586s0.621-1.332 0.621-1.395c0.004-0.297 0.457-1.094 0.758-1.332 0.254-0.199 0.43-0.262 0.797-0.266l0.469-0.012 0.027-0.348c0.016-0.191-0.039-0.492-0.121-0.672-0.176-0.387-0.105-0.914 0.113-0.871 0.211 0.043 0.898 1.352 1.063 2.02 0.082 0.328 0.281 0.789 0.441 1.027 0.52 0.758 0.711 1.422 0.719 2.477 0.004 0.816-0.027 0.992-0.227 1.441-0.387 0.848-1.023 1.367-2.02 1.641-0.609 0.168-1.172 0.152-1.711-0.051m-13.04-3.03c-0.984-0.25-1.629-0.773-2.02-1.637-0.438-0.973-0.348-2.691 0.195-3.629 0.164-0.285 0.184-0.457 0.172-1.305-0.02-0.898 0.125-1.855 0.305-2.035 0.137-0.145 0.402 0.395 0.402 0.813 0 0.238 0.082 0.613 0.18 0.84 0.164 0.371 0.199 0.398 0.426 0.344 0.137-0.035 0.5-0.086 0.813-0.113 0.555-0.051 0.57-0.047 0.859 0.273 0.32 0.352 0.508 0.875 0.508 1.41 0 0.438 0.242 0.918 0.758 1.516 1.277 1.465 0.969 2.77-0.805 3.438-0.648 0.238-1.109 0.266-1.793 0.086m5.629-1.656c-0.449-0.156-0.879-0.648-1.035-1.188-0.098-0.348-0.121-0.715-0.082-1.438 0.055-0.965 0.051-0.977-0.219-1.422-0.77-1.266-0.539-2.102 0.656-2.355l0.5-0.105-0.063-0.297c-0.078-0.379-0.348-0.922-0.527-1.078-0.164-0.141-0.195-0.754-0.039-0.754 0.176 0 1.656 1.609 1.816 1.977 0.117 0.262 0.281 0.418 0.625 0.598 0.652 0.348 1.594 1.348 1.953 2.078 0.375 0.77 0.461 1.648 0.227 2.281-0.199 0.543-0.914 1.301-1.465 1.559-0.504 0.234-1.855 0.316-2.352 0.145m0.004 0.004" fill="#f9f9f9"/>
    </g>
   </g>
  </g>
 </g>
</svg>
