<?xml version="1.0" encoding="UTF-8" standalone="no"?>
<!-- Created with Inkscape (http://www.inkscape.org/) -->
<svg id="svg4369" xmlns:rdf="http://www.w3.org/1999/02/22-rdf-syntax-ns#" xmlns="http://www.w3.org/2000/svg" height="48px" width="48px" version="1.1" xmlns:cc="http://creativecommons.org/ns#" xmlns:xlink="http://www.w3.org/1999/xlink" xmlns:dc="http://purl.org/dc/elements/1.1/">
 <defs id="defs4371">
  <linearGradient id="linearGradient5344-867-2">
   <stop id="stop5559-5" stop-color="#71cc28" offset="0"/>
   <stop id="stop5561-3" stop-color="#7fbc2f" offset=".39698"/>
   <stop id="stop5563-5" stop-color="#81a92b" offset="1"/>
  </linearGradient>
  <linearGradient id="linearGradient4288">
   <stop id="stop4290" stop-color="#188c29" offset="0"/>
   <stop id="stop4292" stop-color="#3fa74b" offset="1"/>
  </linearGradient>
  <radialGradient id="radialGradient2873-966-168" gradientUnits="userSpaceOnUse" cy="43.5" cx="4.993" gradientTransform="matrix(2.0038 0 0 1.4 27.988 -17.4)" r="2.5">
   <stop id="stop2883" stop-color="#181818" offset="0"/>
   <stop id="stop2885" stop-color="#181818" stop-opacity="0" offset="1"/>
  </radialGradient>
  <radialGradient id="radialGradient2875-742-326" gradientUnits="userSpaceOnUse" cy="43.5" cx="4.993" gradientTransform="matrix(2.0038 0 0 1.4 -20.012 -104.4)" r="2.5">
   <stop id="stop2889" stop-color="#181818" offset="0"/>
   <stop id="stop2891" stop-color="#181818" stop-opacity="0" offset="1"/>
  </radialGradient>
  <linearGradient id="linearGradient2877-634-617" y2="39.999" gradientUnits="userSpaceOnUse" x2="25.058" y1="47.028" x1="25.058">
   <stop id="stop2895" stop-color="#181818" stop-opacity="0" offset="0"/>
   <stop id="stop2897" stop-color="#181818" offset=".5"/>
   <stop id="stop2899" stop-color="#181818" stop-opacity="0" offset="1"/>
  </linearGradient>
  <radialGradient id="radialGradient3048" xlink:href="#linearGradient5344-867-2" gradientUnits="userSpaceOnUse" cy="1.9041" cx="7.422" gradientTransform="matrix(0 .68247 -.92431 0 39.189 .84179)" r="20"/>
  <linearGradient id="linearGradient3050" y2="3.899" xlink:href="#linearGradient4288" gradientUnits="userSpaceOnUse" x2="24" gradientTransform="translate(-6e-7 .96744)" y1="44" x1="24"/>
  <linearGradient id="linearGradient3056" y2="43" gradientUnits="userSpaceOnUse" x2="24" gradientTransform="translate(.0000024 .96745)" y1="5" x1="24">
   <stop id="stop3926-8" stop-color="#fff" offset="0"/>
   <stop id="stop3928-6" stop-color="#fff" stop-opacity=".23529" offset=".063165"/>
   <stop id="stop3930-4" stop-color="#fff" stop-opacity=".15686" offset=".95056"/>
   <stop id="stop3932-4" stop-color="#fff" stop-opacity=".39216" offset="1"/>
  </linearGradient>
  <radialGradient id="radialGradient3059" fx="7.2758" xlink:href="#linearGradient5344-867-2" gradientUnits="userSpaceOnUse" cy="9.9571" cx="7.8061" gradientTransform="matrix(-1.6167e-7 4.3522 -8.0922 -1.3064e-7 102.56 -28.435)" r="12.672"/>
  <linearGradient id="linearGradient3061" y2="-7.1723" xlink:href="#linearGradient4288" gradientUnits="userSpaceOnUse" x2="10.72" gradientTransform="matrix(1 0 0 .65924 -2.0048 11.167)" y1="49.805" x1="10.72"/>
  <linearGradient id="linearGradient3064" y2="43" gradientUnits="userSpaceOnUse" x2="24" gradientTransform="translate(.0000024 .96745)" y1="5" x1="24">
   <stop id="stop3926" stop-color="#fff" offset="0"/>
   <stop id="stop3928" stop-color="#fff" stop-opacity=".23529" offset=".063165"/>
   <stop id="stop3930" stop-color="#fff" stop-opacity=".15686" offset=".95056"/>
   <stop id="stop3932" stop-color="#fff" stop-opacity=".39216" offset="1"/>
  </linearGradient>
  <radialGradient id="radialGradient3067" gradientUnits="userSpaceOnUse" cy="8.4498" cx="7.4957" gradientTransform="matrix(0 1.9393 -2.0515 -5.2784e-8 41.335 -8.4863)" r="20">
   <stop id="stop3602" stop-color="#f4f4f4" offset="0"/>
   <stop id="stop3604" stop-color="#dbdbdb" offset="1"/>
  </radialGradient>
  <linearGradient id="linearGradient3069" y2="3.899" gradientUnits="userSpaceOnUse" x2="24" gradientTransform="translate(-6e-7 .96744)" y1="44" x1="24">
   <stop id="stop3106" stop-color="#aaa" offset="0"/>
   <stop id="stop3108" stop-color="#c8c8c8" offset="1"/>
  </linearGradient>
  <linearGradient id="linearGradient3072" y2="3" gradientUnits="userSpaceOnUse" x2="20" y1="43" x1="20">
   <stop id="stop3106-9" stop-color="#aaa" offset="0"/>
   <stop id="stop3108-8" stop-color="#c8c8c8" offset="1"/>
  </linearGradient>
  <linearGradient id="linearGradient3880" y2="-26.094" gradientUnits="userSpaceOnUse" x2="69.261" y1="-26.094" x1="-9.8065">
   <stop id="stop3106-9-1" stop-color="#aaa" offset="0"/>
   <stop id="stop3108-9" stop-color="#c8c8c8" offset="1"/>
  </linearGradient>
 </defs>
 <metadata id="metadata4374">
  <rdf:RDF>
   <cc:Work rdf:about="">
    <dc:format>image/svg+xml</dc:format>
    <dc:type rdf:resource="http://purl.org/dc/dcmitype/StillImage"/>
    <dc:title/>
   </cc:Work>
  </rdf:RDF>
 </metadata>
 <g id="layer1">
  <g id="g3882">
   <g id="g2036" transform="matrix(1.1 0 0 .44444 -2.4 25.111)">
    <g id="g3712" opacity=".4" transform="matrix(1.0526 0 0 1.2857 -1.2632 -13.429)">
     <rect id="rect2801" height="7" width="5" y="40" x="38" fill="url(#radialGradient2873-966-168)"/>
     <rect id="rect3696" transform="scale(-1)" height="7" width="5" y="-47" x="-10" fill="url(#radialGradient2875-742-326)"/>
     <rect id="rect3700" height="7" width="28" y="40" x="10" fill="url(#linearGradient2877-634-617)"/>
    </g>
   </g>
   <path id="path4564-0" opacity=".05" style="color:#000000" d="m22.969 8.1875a2.9359 2.9359 0 0 0 -1.4062 0.40625l-11.032 6.3752a2.9359 2.9359 0 0 0 -1.406 2.031 2.9359 2.9359 0 0 0 -0.0312 0 2.9359 2.9359 0 0 0 -0.9688 2.188l-0.0625 12.718a2.9359 2.9359 0 0 0 1 2.1875 2.9359 2.9359 0 0 0 0 0.03125 2.9359 2.9359 0 0 0 1.4375 2.0938l11 6.3125a2.9359 2.9359 0 0 0 2.4062 0.21875 2.9359 2.9359 0 0 0 0.03125 0 2.9359 2.9359 0 0 0 2.5 -0.1875l11-6.3438a2.9359 2.9359 0 0 0 1.4062 -2 2.9359 2.9359 0 0 0 1.0938 -2.25v-12.719a2.9359 2.9359 0 0 0 -1 -2.1875 2.9359 2.9359 0 0 0 -1.437 -2.093l-11.031-6.344a2.9359 2.9359 0 0 0 -2.4062 -0.25 2.9359 2.9359 0 0 0 -1.0938 -0.1875z" fill="url(#linearGradient3072)"/>
   <rect id="rect5505-21" stroke-linejoin="round" height="39" stroke="url(#linearGradient3069)" stroke-linecap="round" fill="url(#radialGradient3067)" style="color:#000000" rx="2" ry="2" width="39" y="5.4674" x="4.5"/>
   <rect id="rect6741-2" stroke-linejoin="round" rx="1" ry="1" height="37" width="37" stroke="url(#linearGradient3064)" stroke-linecap="round" y="6.4674" x="5.5" fill="none"/>
   <path id="rect5505-21-0" stroke-linejoin="round" style="color:#000000" d="m10 5.5s-3.1003-0.03125-3.5-0.03125c-1.108 0-2 0.892-2 2v35c0 1.108 0.892 2 2 2h3.5" stroke="url(#linearGradient3061)" fill="url(#radialGradient3059)"/>
   <path id="rect3855" stroke-linejoin="round" style="color:#000000" d="m32.062 5.4688 11.438 11.438v-9.4375c0-1.108-0.892-2-2-2h-9.4375z" stroke="url(#linearGradient3050)" stroke-linecap="round" fill="url(#radialGradient3048)"/>
   <rect id="rect6741-2-5" opacity=".4" stroke-linejoin="round" rx="1" ry="1" height="37" width="37" stroke="url(#linearGradient3056)" stroke-linecap="round" y="6.4674" x="5.5" fill="none"/>
   <path id="rect3089" d="m17.497-38.62h19.762v8.4278h-19.762zm0 17.125h19.762v7.9278h-19.762zm9.6283 7.931v-25.059h4.9278v25.059zm-4.875 0v-25.059h4.9278v25.059zm-4.75 0v-25.059h4.9278v25.059zm0 0.0016v-25.062h19.75v25.062z" transform="rotate(90)" stroke="url(#linearGradient3880)" fill="none"/>
  </g>
 </g>
</svg>
