<?xml version="1.0" encoding="UTF-8" standalone="no"?>
<!-- Created with Inkscape (http://www.inkscape.org/) -->
<svg id="svg4369" xmlns:rdf="http://www.w3.org/1999/02/22-rdf-syntax-ns#" xmlns="http://www.w3.org/2000/svg" height="48px" width="48px" version="1.1" xmlns:cc="http://creativecommons.org/ns#" xmlns:xlink="http://www.w3.org/1999/xlink" xmlns:dc="http://purl.org/dc/elements/1.1/">
 <defs id="defs4371">
  <linearGradient id="linearGradient5344-867-2">
   <stop id="stop5559-5" stop-color="#da90f9" offset="0"/>
   <stop id="stop5561-3" stop-color="#b560f1" offset=".39698"/>
   <stop id="stop5563-5" stop-color="#7e36ce" offset="1"/>
  </linearGradient>
  <linearGradient id="linearGradient4288">
   <stop id="stop4290" stop-color="#6820b9" offset="0"/>
   <stop id="stop4292" stop-color="#9137ed" offset="1"/>
  </linearGradient>
  <linearGradient id="linearGradient3104-5-6">
   <stop id="stop3106-9-1" stop-color="#aaa" offset="0"/>
   <stop id="stop3108-9" stop-color="#c8c8c8" offset="1"/>
  </linearGradient>
  <radialGradient id="radialGradient2873-966-168" gradientUnits="userSpaceOnUse" cy="43.5" cx="4.993" gradientTransform="matrix(2.0038 0 0 1.4 27.988 -17.4)" r="2.5">
   <stop id="stop2883" stop-color="#181818" offset="0"/>
   <stop id="stop2885" stop-color="#181818" stop-opacity="0" offset="1"/>
  </radialGradient>
  <radialGradient id="radialGradient2875-742-326" gradientUnits="userSpaceOnUse" cy="43.5" cx="4.993" gradientTransform="matrix(2.0038 0 0 1.4 -20.012 -104.4)" r="2.5">
   <stop id="stop2889" stop-color="#181818" offset="0"/>
   <stop id="stop2891" stop-color="#181818" stop-opacity="0" offset="1"/>
  </radialGradient>
  <linearGradient id="linearGradient2877-634-617" y2="39.999" gradientUnits="userSpaceOnUse" x2="25.058" y1="47.028" x1="25.058">
   <stop id="stop2895" stop-color="#181818" stop-opacity="0" offset="0"/>
   <stop id="stop2897" stop-color="#181818" offset=".5"/>
   <stop id="stop2899" stop-color="#181818" stop-opacity="0" offset="1"/>
  </linearGradient>
  <linearGradient id="linearGradient3061" y2="43" gradientUnits="userSpaceOnUse" x2="24" gradientTransform="translate(.0000024 .96745)" y1="5" x1="24">
   <stop id="stop3926-8" stop-color="#fff" offset="0"/>
   <stop id="stop3928-6" stop-color="#fff" stop-opacity=".23529" offset=".063165"/>
   <stop id="stop3930-4" stop-color="#fff" stop-opacity=".15686" offset=".95056"/>
   <stop id="stop3932-4" stop-color="#fff" stop-opacity=".39216" offset="1"/>
  </linearGradient>
  <radialGradient id="radialGradient3064" xlink:href="#linearGradient5344-867-2" gradientUnits="userSpaceOnUse" cy="1.9912" cx="7.1089" gradientTransform="matrix(0 .88867 -.83940 0 38.921 -1.0176)" r="20"/>
  <linearGradient id="linearGradient3066" y2="3.899" xlink:href="#linearGradient4288" gradientUnits="userSpaceOnUse" x2="24" gradientTransform="translate(-6e-7 .96744)" y1="44" x1="24"/>
  <radialGradient id="radialGradient3069" fx="7.2758" xlink:href="#linearGradient5344-867-2" gradientUnits="userSpaceOnUse" cy="9.9571" cx="7.8061" gradientTransform="matrix(-1.6167e-7 4.3522 -8.0922 -1.3064e-7 102.56 -28.435)" r="12.672"/>
  <linearGradient id="linearGradient3071" y2="-7.1723" xlink:href="#linearGradient4288" gradientUnits="userSpaceOnUse" x2="10.72" gradientTransform="matrix(1 0 0 .65924 -2.0048 11.167)" y1="49.805" x1="10.72"/>
  <linearGradient id="linearGradient3074" y2="43" gradientUnits="userSpaceOnUse" x2="24" gradientTransform="translate(.0000024 .96745)" y1="5" x1="24">
   <stop id="stop3926" stop-color="#fff" offset="0"/>
   <stop id="stop3928" stop-color="#fff" stop-opacity=".23529" offset=".063165"/>
   <stop id="stop3930" stop-color="#fff" stop-opacity=".15686" offset=".95056"/>
   <stop id="stop3932" stop-color="#fff" stop-opacity=".39216" offset="1"/>
  </linearGradient>
  <radialGradient id="radialGradient3077" gradientUnits="userSpaceOnUse" cy="8.4498" cx="7.4957" gradientTransform="matrix(0 1.9393 -2.0515 -5.2784e-8 41.335 -8.4863)" r="20">
   <stop id="stop3602" stop-color="#f4f4f4" offset="0"/>
   <stop id="stop3604" stop-color="#dbdbdb" offset="1"/>
  </radialGradient>
  <linearGradient id="linearGradient3079" y2="3.899" gradientUnits="userSpaceOnUse" x2="24" gradientTransform="translate(-6e-7 .96744)" y1="44" x1="24">
   <stop id="stop3106" stop-color="#aaa" offset="0"/>
   <stop id="stop3108" stop-color="#c8c8c8" offset="1"/>
  </linearGradient>
  <linearGradient id="linearGradient3082" y2="3" gradientUnits="userSpaceOnUse" x2="20" y1="43" x1="20">
   <stop id="stop3106-9" stop-color="#aaa" offset="0"/>
   <stop id="stop3108-8" stop-color="#c8c8c8" offset="1"/>
  </linearGradient>
  <linearGradient id="linearGradient3112" y2="65.786" xlink:href="#linearGradient3104-5-6" gradientUnits="userSpaceOnUse" x2="26.007" gradientTransform="matrix(.89752 0 0 .89752 2.7772 1.8587)" y1="-7.7159" x1="26.007"/>
  <linearGradient id="linearGradient3116" y2="65.786" xlink:href="#linearGradient3104-5-6" gradientUnits="userSpaceOnUse" x2="26.007" gradientTransform="matrix(.89752 0 0 .89752 2.7772 1.2337)" y1="-7.7159" x1="26.007"/>
 </defs>
 <metadata id="metadata4374">
  <rdf:RDF>
   <cc:Work rdf:about="">
    <dc:format>image/svg+xml</dc:format>
    <dc:type rdf:resource="http://purl.org/dc/dcmitype/StillImage"/>
    <dc:title/>
   </cc:Work>
  </rdf:RDF>
 </metadata>
 <g id="layer1">
  <g id="g2036" transform="matrix(1.1 0 0 .44444 -2.4 25.111)">
   <g id="g3712" opacity=".4" transform="matrix(1.0526 0 0 1.2857 -1.2632 -13.429)">
    <rect id="rect2801" height="7" width="5" y="40" x="38" fill="url(#radialGradient2873-966-168)"/>
    <rect id="rect3696" transform="scale(-1)" height="7" width="5" y="-47" x="-10" fill="url(#radialGradient2875-742-326)"/>
    <rect id="rect3700" height="7" width="28" y="40" x="10" fill="url(#linearGradient2877-634-617)"/>
   </g>
  </g>
  <path id="path4564-0" opacity=".05" style="color:#000000" d="m22.969 8.1875a2.9359 2.9359 0 0 0 -1.4062 0.40625l-11.032 6.3752a2.9359 2.9359 0 0 0 -1.406 2.031 2.9359 2.9359 0 0 0 -0.0312 0 2.9359 2.9359 0 0 0 -0.9688 2.188l-0.0625 12.718a2.9359 2.9359 0 0 0 1 2.1875 2.9359 2.9359 0 0 0 0 0.03125 2.9359 2.9359 0 0 0 1.4375 2.0938l11 6.3125a2.9359 2.9359 0 0 0 2.4062 0.21875 2.9359 2.9359 0 0 0 0.03125 0 2.9359 2.9359 0 0 0 2.5 -0.1875l11-6.3438a2.9359 2.9359 0 0 0 1.4062 -2 2.9359 2.9359 0 0 0 1.0938 -2.25v-12.719a2.9359 2.9359 0 0 0 -1 -2.1875 2.9359 2.9359 0 0 0 -1.437 -2.093l-11.031-6.344a2.9359 2.9359 0 0 0 -2.4062 -0.25 2.9359 2.9359 0 0 0 -1.0938 -0.1875z" fill="url(#linearGradient3082)"/>
  <rect id="rect5505-21" stroke-linejoin="round" height="39" stroke="url(#linearGradient3079)" stroke-linecap="round" fill="url(#radialGradient3077)" style="color:#000000" rx="2" ry="2" width="39" y="5.4674" x="4.5"/>
  <rect id="rect6741-2" stroke-linejoin="round" rx="1" ry="1" height="37" width="37" stroke="url(#linearGradient3074)" stroke-linecap="round" y="6.4674" x="5.5" fill="none"/>
  <path id="rect5505-21-0" stroke-linejoin="round" style="color:#000000" d="m10 5.5s-3.1003-0.03125-3.5-0.03125c-1.108 0-2 0.892-2 2v35c0 1.108 0.892 2 2 2h3.5" stroke="url(#linearGradient3071)" fill="url(#radialGradient3069)"/>
  <path id="rect3841" stroke-linejoin="round" style="color:#000000" d="m32.062 5.4688 11.438 11.438v-9.4375c0-1.108-0.892-2-2-2h-9.4375z" stroke="url(#linearGradient3066)" stroke-linecap="round" fill="url(#radialGradient3064)"/>
  <rect id="rect6741-2-5" opacity=".4" stroke-linejoin="round" rx="1" ry="1" height="37" width="37" stroke="url(#linearGradient3061)" stroke-linecap="round" y="6.4674" x="5.5" fill="none"/>
  <g id="g3107" transform="matrix(.94775 0 0 .93883 -1.88 .87907)">
   <path id="path3932" d="m29.052 15.041c-0.33413 0-4.1778 0.0099-4.5097 0.02805-0.05522 0.0031-0.11344-0.0035-0.16828 0-0.2691 0.01728-0.5261 0.05554-0.78533 0.08414-0.0095 0.0011-0.01856-0.0011-0.02805 0-0.05759 0.0065-0.11098 0.02105-0.16829 0.02805-0.4858 0.05962-0.93316 0.156-1.3743 0.25243-0.11002 0.02382-0.22871 0.02992-0.33657 0.0561-0.0795 0.01929-0.14692 0.03573-0.22438 0.05609-0.11192 0.02957-0.2286 0.05226-0.33657 0.08414-0.36502 0.10765-0.7265 0.2343-1.0378 0.36462-0.24617 0.10307-0.4633 0.22129-0.67314 0.33657-0.18278 0.10093-0.37872 0.19883-0.5329 0.30852-0.0215 0.01538-0.03519 0.04057-0.05609 0.05609-0.05547 0.04091-0.11698 0.07019-0.16828 0.11219-0.08258 0.06838-0.15339 0.15362-0.22438 0.22438-0.05526 0.05508-0.0922 0.1119-0.14024 0.16828-0.07176 0.08299-0.14057 0.16644-0.19633 0.25243-0.06287 0.09695-0.12675 0.18015-0.16828 0.28048-0.02235 0.05337-0.04007 0.11426-0.05609 0.16828-0.0331 0.91168-0.04874-0.29008-0.0561 0.59561 0 1.1624 1.4755 2.2516 3.8706 2.8328 2.395 0.58115 8.8461 0.5811 11.241 0 2.3951-0.58118 3.8706-1.6704 3.8706-2.8328-0.10384-0.77623-0.01333 0.57242 0-0.20294 0-0.13307-0.01915-0.26378-0.05609-0.39266-0.01623-0.05663-0.03304-0.1126-0.05609-0.16828-0.04025-0.09612-0.10808-0.18688-0.16828-0.28048-0.05576-0.08598-0.12458-0.16943-0.19633-0.25243-0.04804-0.05638-0.08498-0.1132-0.14024-0.16828-0.07445-0.07397-0.13757-0.15332-0.22438-0.22438-0.05268-0.04362-0.111-0.06962-0.16829-0.11219-0.02002-0.01476-0.03554-0.04147-0.05609-0.05609-0.15418-0.10969-0.35012-0.20759-0.5329-0.30852-0.20503-0.11322-0.4072-0.23568-0.64509-0.33657-0.0075-0.0031-0.02049 0.0031-0.02805 0-0.31126-0.13032-0.67274-0.25697-1.0378-0.36462-0.11147-0.03288-0.22038-0.0536-0.33657-0.08414-0.17793-0.04702-0.37366-0.07125-0.56095-0.11219-0.17764-0.03845-0.35034-0.10793-0.5329-0.14024-0.01783-0.0031-0.0382 0.0031-0.0561 0-0.25891-0.04484-0.5188-0.07965-0.78533-0.11219-0.05768-0.0071-0.11006-0.02152-0.16828-0.02805-0.0092-0.000988-0.01881 0.000987-0.02805 0-0.25923-0.0286-0.51623-0.06687-0.78533-0.08414-0.05636-0.0036-0.11179 0.0031-0.16828 0-0.33163-0.01822-0.66626-0.02805-1.0097-0.02805z" fill="url(#linearGradient3112)"/>
   <path id="path7848" d="m36.787 28.868c-0.55801 0.96651-1.6486 2.0426-3.8646 2.5804-2.395 0.5811-8.8461 0.58115-11.241 0-2.0957-0.50854-3.4993-1.417-3.8145-2.4121-0.02535 0.80079-0.04964 3.2635-0.0561 4.0397 0 1.1624 1.4755 2.2516 3.8706 2.8328 2.395 0.58116 8.8461 0.5811 11.241 0 2.3951-0.58118 3.8706-1.6704 3.8706-2.8328 0.0063-1.2887-0.0059-2.9104-0.0059-4.208z" fill="url(#linearGradient3112)"/>
   <path id="path7850" d="m17.867 21.489c-0.0331 0.91168-0.04874 4.0979-0.0561 4.9836 0 1.1624 1.4755 2.2516 3.8706 2.8328 2.395 0.58116 8.8461 0.5811 11.241 0 2.3951-0.58118 3.8706-1.6704 3.8706-2.8328 0-1.7437 0.0102-3.2443 0.0102-4.9836-0.53774 0.9314-1.785 1.9036-3.8808 2.4121-2.395 0.5811-8.8461 0.58115-11.241 0-2.0957-0.50854-3.4993-1.417-3.8145-2.4121z" fill="url(#linearGradient3116)"/>
  </g>
 </g>
</svg>
