<?xml version="1.0" encoding="UTF-8" standalone="no"?>
<!-- Created with Inkscape (http://www.inkscape.org/) -->

<svg
   xmlns:dc="http://purl.org/dc/elements/1.1/"
   xmlns:cc="http://creativecommons.org/ns#"
   xmlns:rdf="http://www.w3.org/1999/02/22-rdf-syntax-ns#"
   xmlns:svg="http://www.w3.org/2000/svg"
   xmlns="http://www.w3.org/2000/svg"
   xmlns:xlink="http://www.w3.org/1999/xlink"
   xmlns:sodipodi="http://sodipodi.sourceforge.net/DTD/sodipodi-0.dtd"
   xmlns:inkscape="http://www.inkscape.org/namespaces/inkscape"
   version="1.1"
   width="48"
   height="48"
   id="svg4296"
   inkscape:version="0.91 r13725"
   sodipodi:docname="libreoffice-base.svg">
  <sodipodi:namedview
     pagecolor="#ffffff"
     bordercolor="#666666"
     borderopacity="1"
     objecttolerance="10"
     gridtolerance="10"
     guidetolerance="10"
     inkscape:pageopacity="0"
     inkscape:pageshadow="2"
     inkscape:window-width="1535"
     inkscape:window-height="876"
     id="namedview66"
     showgrid="false"
     inkscape:zoom="7.03"
     inkscape:cx="14.598746"
     inkscape:cy="26.446937"
     inkscape:window-x="65"
     inkscape:window-y="24"
     inkscape:window-maximized="1"
     inkscape:current-layer="svg4296"
     showguides="true"
     inkscape:guide-bbox="true"
     inkscape:snap-global="true">
    <inkscape:grid
       type="xygrid"
       id="grid3069" />
  </sodipodi:namedview>
  <defs
     id="defs4298">
    <linearGradient
       id="linearGradient3924-1">
      <stop
         id="stop3926-3"
         style="stop-color:#ffffff;stop-opacity:1"
         offset="0" />
      <stop
         id="stop3928-91"
         style="stop-color:#ffffff;stop-opacity:0.23529412"
         offset="0.06316455" />
      <stop
         id="stop3930-6"
         style="stop-color:#ffffff;stop-opacity:0.15686275"
         offset="0.95056331" />
      <stop
         id="stop3932-6"
         style="stop-color:#ffffff;stop-opacity:0.39215687"
         offset="1" />
    </linearGradient>
    <radialGradient
       inkscape:collect="always"
       xlink:href="#linearGradient14740"
       id="radialGradient3046"
       gradientUnits="userSpaceOnUse"
       gradientTransform="matrix(0,9.1980625,-11.296759,0,137.30827,-79.535047)"
       cx="7.1183534"
       cy="9.9571075"
       fx="7.1183534"
       fy="9.9571075"
       r="12.671875" />
    <linearGradient
       id="linearGradient14740">
      <stop
         offset="0"
         style="stop-color:#f278ff;stop-opacity:1"
         id="stop14742" />
      <stop
         offset="0.26238"
         style="stop-color:#e34fd5;stop-opacity:1"
         id="stop14744" />
      <stop
         offset="0.66093999"
         style="stop-color:#9926c6;stop-opacity:1"
         id="stop14746" />
      <stop
         offset="1"
         style="stop-color:#520b69;stop-opacity:1"
         id="stop14748" />
    </linearGradient>
    <linearGradient
       inkscape:collect="always"
       xlink:href="#linearGradient3924-1"
       id="linearGradient3491"
       gradientUnits="userSpaceOnUse"
       gradientTransform="matrix(1.0106408,0,0,1.0037349,-0.20980827,-0.20064812)"
       x1="23.99999"
       y1="4.999989"
       x2="23.99999"
       y2="43" />
    <mask
       id="mask32">
      <g
         id="g2190"
         style="filter:url(#alpha)">
        <use
           xlink:href="#surface65"
           id="use2192"
           x="0"
           y="0"
           width="166.39929"
           height="204.80005" />
      </g>
    </mask>
    <filter
       id="alpha"
       filterUnits="objectBoundingBox"
       x="0"
       y="0"
       width="1"
       height="1">
      <feColorMatrix
         type="matrix"
         in="SourceGraphic"
         values="0 0 0 0 1 0 0 0 0 1 0 0 0 0 1 0 0 0 1 0"
         id="feColorMatrix339" />
    </filter>
    <mask
       id="mask39">
      <g
         id="g4274"
         style="filter:url(#alpha)">
        <use
           xlink:href="#surface80"
           id="use4276"
           x="0"
           y="0"
           width="166.39929"
           height="204.80005" />
      </g>
    </mask>
    <mask
       id="mask40">
      <g
         id="g4312"
         style="filter:url(#alpha)">
        <use
           xlink:href="#surface83"
           id="use4314"
           x="0"
           y="0"
           width="166.39929"
           height="204.80005" />
      </g>
    </mask>
    <mask
       id="mask41">
      <g
         id="g4350"
         style="filter:url(#alpha)">
        <use
           xlink:href="#surface86"
           id="use4352"
           x="0"
           y="0"
           width="166.39929"
           height="204.80005" />
      </g>
    </mask>
    <mask
       id="mask45">
      <g
         id="g4862"
         style="filter:url(#alpha)">
        <use
           xlink:href="#surface94"
           id="use4864"
           x="0"
           y="0"
           width="166.39929"
           height="204.80005" />
      </g>
    </mask>
    <mask
       id="mask46">
      <g
         id="g4900"
         style="filter:url(#alpha)">
        <use
           xlink:href="#surface97"
           id="use4902"
           x="0"
           y="0"
           width="166.39929"
           height="204.80005" />
      </g>
    </mask>
    <mask
       id="mask48">
      <g
         id="g5322"
         style="filter:url(#alpha)">
        <use
           xlink:href="#surface101"
           id="use5324"
           x="0"
           y="0"
           width="166.39929"
           height="204.80005" />
      </g>
    </mask>
    <mask
       id="mask49">
      <g
         id="g5360"
         style="filter:url(#alpha)">
        <use
           xlink:href="#surface104"
           id="use5362"
           x="0"
           y="0"
           width="166.39929"
           height="204.80005" />
      </g>
    </mask>
    <mask
       id="mask51">
      <g
         id="g5782"
         style="filter:url(#alpha)">
        <use
           xlink:href="#surface108"
           id="use5784"
           x="0"
           y="0"
           width="166.39929"
           height="204.80005" />
      </g>
    </mask>
  </defs>
  <metadata
     id="metadata4301">
    <rdf:RDF>
      <cc:Work
         rdf:about="">
        <dc:format>image/svg+xml</dc:format>
        <dc:type
           rdf:resource="http://purl.org/dc/dcmitype/StillImage" />
        <dc:title />
      </cc:Work>
    </rdf:RDF>
  </metadata>
  <use
     transform="matrix(0.28359625,0,0,0.28359628,-104.74452,-3.3295402)"
     xlink:href="#surface66"
     mask="url(#mask32)"
     id="use5918"
     x="0"
     y="0"
     width="166.39929"
     height="204.80005" />
  <use
     transform="matrix(0.28359625,0,0,0.28359628,-104.74452,-3.3295402)"
     xlink:href="#surface81"
     mask="url(#mask39)"
     id="use5938"
     x="0"
     y="0"
     width="166.39929"
     height="204.80005" />
  <use
     transform="matrix(0.28359625,0,0,0.28359628,-104.74452,-3.3295402)"
     xlink:href="#surface84"
     mask="url(#mask40)"
     id="use5940"
     x="0"
     y="0"
     width="166.39929"
     height="204.80005" />
  <use
     transform="matrix(0.28359625,0,0,0.28359628,-104.74452,-3.3295402)"
     xlink:href="#surface87"
     mask="url(#mask41)"
     id="use5942"
     x="0"
     y="0"
     width="166.39929"
     height="204.80005" />
  <use
     transform="matrix(0.28359625,0,0,0.28359628,-104.74452,-3.3295402)"
     xlink:href="#surface95"
     mask="url(#mask45)"
     id="use5946"
     x="0"
     y="0"
     width="166.39929"
     height="204.80005" />
  <use
     transform="matrix(0.28359625,0,0,0.28359628,-104.74452,-3.3295402)"
     xlink:href="#surface98"
     mask="url(#mask46)"
     id="use5948"
     x="0"
     y="0"
     width="166.39929"
     height="204.80005" />
  <use
     transform="matrix(0.28359625,0,0,0.28359628,-104.74452,-3.3295402)"
     xlink:href="#surface102"
     mask="url(#mask48)"
     id="use5950"
     x="0"
     y="0"
     width="166.39929"
     height="204.80005" />
  <use
     transform="matrix(0.28359625,0,0,0.28359628,-104.74452,-3.3295402)"
     xlink:href="#surface105"
     mask="url(#mask49)"
     id="use5952"
     x="0"
     y="0"
     width="166.39929"
     height="204.80005" />
  <use
     transform="matrix(0.28359625,0,0,0.28359628,-104.74452,-3.3295402)"
     xlink:href="#surface109"
     mask="url(#mask51)"
     id="use5954"
     x="0"
     y="0"
     width="166.39929"
     height="204.80005" />
  <path
     sodipodi:nodetypes="ccccccc"
     id="path4572-6"
     d="M 33.839822,4.7258158 40.6588,11.6361 l 2.627402,2.662578 0,-2.127299 -0.01485,-5.3478746 c -0.0085,-1.9209672 0.0014,-2.1098586 0.0014,-2.1098586 z"
     style="color:#000000;display:inline;overflow:visible;visibility:visible;fill:#983f97;fill-opacity:1;stroke:#983f97;stroke-width:1.42743552;stroke-linecap:round;stroke-linejoin:round;stroke-miterlimit:4;stroke-dasharray:none;stroke-dashoffset:0;stroke-opacity:1;marker:none;enable-background:accumulate"
     inkscape:connector-curvature="0" />
  <path
     style="color:#000000;display:inline;overflow:visible;visibility:visible;opacity:0.9;fill:url(#radialGradient3046);fill-opacity:1;fill-rule:nonzero;stroke:none;stroke-width:1;stroke-miterlimit:4;stroke-dasharray:none;marker:none;enable-background:accumulate"
     d="m 6.4990133,4.379967 c 11.7692477,0.0096 9.6176957,-0.01913 21.3864197,0.01437 1.100146,1.0560012 14.386645,14.419986 15.691995,15.684893 0.04289,11.191885 0.04393,10.509223 0.02789,21.735534 -0.240539,1.779761 -2.364072,1.966636 -3.793539,1.81191 -11.213803,-0.0096 -22.428442,0.01913 -33.6417239,-0.01437 -1.7804653,-0.240442 -1.9674147,-2.363133 -1.8126269,-3.792035 0,-11.099857 0,-22.199714 0,-33.2995725 C 4.3215842,5.3798745 5.3578791,4.3442621 6.4990063,4.379968 Z"
     id="rect5505-21-3-8-5-2"
     inkscape:connector-curvature="0"
     sodipodi:nodetypes="ccccccccc" />
  <path
     style="opacity:0.5;fill:none;stroke:url(#linearGradient3491);stroke-width:0.98383963;stroke-linecap:round;stroke-linejoin:round;stroke-miterlimit:4;stroke-dasharray:none;stroke-dashoffset:0;stroke-opacity:1"
     d="m 6.7598001,5.3198901 c 11.5238489,0 20.8018929,-0.027138 20.8018929,-0.027138 5.31562,5.3918929 10.991765,10.9557309 15.179585,15.1191319 0,0 0.0012,14.056582 0.0012,20.648516 0.0065,1.405563 -1.544639,1.482902 -2.598019,1.397684 -11.128202,0 -22.256406,0 -33.3846083,0 -1.4190383,0.0064 -1.4971178,-1.529969 -1.4110838,-2.573349 0,-11.055717 0,-22.111438 0,-33.1671602 C 5.330442,5.9662845 6.0010859,5.3018107 6.7598397,5.3198915 Z"
     id="rect6741-5-0-2-3"
     inkscape:connector-curvature="0"
     sodipodi:nodetypes="ccccccccc" />
  <path
     style="color:#000000;display:inline;overflow:visible;visibility:visible;opacity:0.6;fill:none;stroke:#3c0040;stroke-width:1;stroke-linecap:round;stroke-linejoin:round;stroke-miterlimit:4;stroke-dasharray:none;stroke-dashoffset:0;stroke-opacity:1;marker:none;enable-background:accumulate"
     d="m 6.4990113,4.379968 c 7.1318987,0 21.2467547,-6.05e-4 21.2467547,-6.05e-4 1.580085,1.5101387 13.466637,13.337388 15.886286,15.790331 0,11.240656 -4e-6,20.949131 -0.01236,21.699288 -0.183382,1.763795 -1.747756,1.820082 -3.385343,1.757685 -11.245112,0 -22.490224,0 -33.7353367,0 -1.840838,0.05141 -2.1422433,-1.432478 -2.1415781,-3.384001 0,-11.240657 0,-22.481312 0,-33.7219705 C 4.3296432,5.3699985 5.3474681,4.3522731 6.4990133,4.379968 Z"
     id="rect5505-21-3-8-9-1-1"
     inkscape:connector-curvature="0"
     sodipodi:nodetypes="ccccccccc" />
  <g
     id="g4193"
     transform="translate(-1,1)">
    <g
       id="g4234"
       transform="translate(8.0007137,-4)">
      <path
         inkscape:connector-curvature="0"
         style="color:#000000;display:inline;overflow:visible;visibility:visible;opacity:0.3;fill:#000000;fill-opacity:1;fill-rule:nonzero;stroke:none;stroke-width:20;marker:none;enable-background:new"
         d="m 24.001953,23.09375 c -1.94828,0 -3.86221,0.32641 -5.34375,0.90625 -0.74077,0.28987 -1.36898,0.62256 -1.84375,1.0625 -0.47477,0.43994 -0.8125,0.77901 -0.8125,1.40625 0,0.0101 -0.001,0.02125 0,0.03125 -0.006,0.0317 0,0.06005 0,0.09375 l 0,0.75 0,2.125 0,0.875 0,2.15625 0,0.84375 0,1.25 0,0.8125 c 0,0.62724 0.33773,1.18516 0.8125,1.625 0.47477,0.43994 1.10298,0.77263 1.84375,1.0625 1.48154,0.57974 3.39547,0.90625 5.34375,0.90625 1.94828,0 3.86221,-0.32651 5.34375,-0.90625 0.74077,-0.28987 1.36898,-0.62256 1.84375,-1.0625 0.37163,-0.34436 0.64255,-0.75318 0.75,-1.21875 0.0367,-0.06962 0.0625,-0.13425 0.0625,-0.21875 l 0,-0.1875 0,-2.0625 0,-0.84375 0,-2.15625 0,-0.875 0,-2.125 0,-0.75 c 0,-0.0336 0.006,-0.06195 0,-0.09375 10e-4,-0.0097 0,-0.02105 0,-0.03125 0,-0.62724 -0.33773,-0.96631 -0.8125,-1.40625 -0.47477,-0.43994 -1.10298,-0.77263 -1.84375,-1.0625 -1.48154,-0.57974 -3.39547,-0.90625 -5.34375,-0.90625 z m 0,1 c 1.83572,0 3.67754,0.29501 5,0.8125 0.66123,0.25874 1.19102,0.59099 1.53125,0.90625 0.34023,0.31526 0.46875,0.36683 0.46875,0.65625 0,0.26173 -0.16408,0.53187 -0.4375,0.8125 -0.49437,0.37024 -1.05685,0.72924 -1.78125,1 -1.30612,0.47796 -3.0255,0.8125 -4.78125,0.8125 -1.75575,0 -3.47513,-0.33454 -4.78125,-0.8125 -0.7244,-0.27076 -1.28688,-0.62976 -1.78125,-1 -0.27342,-0.28063 -0.4375,-0.55077 -0.4375,-0.8125 0,-0.28942 0.12852,-0.34099 0.46875,-0.65625 0.34023,-0.31526 0.87002,-0.64751 1.53125,-0.90625 1.32246,-0.51749 3.16428,-0.8125 5,-0.8125 z m -7,4.125 c 0.45423,0.37759 0.99324,0.70931 1.65625,0.96875 0.0688,0.0272 0.1793,0.0051 0.25,0.03125 1.39654,0.51326 3.04193,0.875 5.09375,0.875 2.05182,0 3.69721,-0.36169 5.09375,-0.875 0.0707,-0.0262 0.1812,-0.004 0.25,-0.03125 0.66301,-0.25944 1.20202,-0.59116 1.65625,-0.96875 l 0,1.25 c 0,0.25766 -0.14196,0.53684 -0.40625,0.8125 -0.51751,0.39071 -1.1026,0.75141 -1.875,1.03125 -1.30009,0.46623 -2.9872,0.78125 -4.71875,0.78125 -1.73155,0 -3.41866,-0.31502 -4.71875,-0.78125 -0.7724,-0.27984 -1.35749,-0.64054 -1.875,-1.03125 -0.26429,-0.27566 -0.40625,-0.55484 -0.40625,-0.8125 l 0,-1.25 z m 0,3 c 0.45423,0.37759 0.99324,0.70931 1.65625,0.96875 0.0688,0.0272 0.1793,0.005 0.25,0.03125 1.39622,0.51284 3.04283,0.875 5.09375,0.875 2.05092,0 3.69753,-0.36211 5.09375,-0.875 0.0707,-0.0262 0.1812,-0.004 0.25,-0.03125 0.66301,-0.25944 1.20202,-0.59116 1.65625,-0.96875 l 0,1.28125 c 0,0.26905 -0.14721,0.52284 -0.4375,0.8125 -0.51044,0.38186 -1.08841,0.72478 -1.84375,1 -1.30054,0.46707 -2.98545,0.78125 -4.71875,0.78125 -1.7333,0 -3.41821,-0.31418 -4.71875,-0.78125 -0.75534,-0.27522 -1.33331,-0.61814 -1.84375,-1 -0.29029,-0.28966 -0.4375,-0.54345 -0.4375,-0.8125 l 0,-1.28125 z m 0,3.03125 c 0.45423,0.37759 0.99324,0.70931 1.65625,0.96875 0.0689,0.0272 0.1793,0.005 0.25,0.03125 1.39622,0.51284 3.04283,0.84375 5.09375,0.84375 2.05092,0 3.69753,-0.33086 5.09375,-0.84375 0.0707,-0.0262 0.1811,-0.004 0.25,-0.03125 0.66301,-0.25944 1.20202,-0.59116 1.65625,-0.96875 l 0,1.15625 c 0,0.28942 -0.12852,0.55974 -0.46875,0.875 -0.34023,0.31526 -0.87002,0.64751 -1.53125,0.90625 -1.32246,0.51749 -3.16428,0.8125 -5,0.8125 -1.83572,0 -3.67754,-0.29501 -5,-0.8125 -0.66123,-0.25874 -1.19102,-0.59099 -1.53125,-0.90625 -0.34023,-0.31526 -0.46875,-0.58558 -0.46875,-0.875 l 0,-0.8125 0,-0.34375 z"
         id="path4236" />
      <path
         id="path4238"
         d="m 24.001953,22.09375 c -1.94828,0 -3.86221,0.32641 -5.34375,0.90625 -0.74077,0.28987 -1.36898,0.62256 -1.84375,1.0625 -0.47477,0.43994 -0.8125,0.77901 -0.8125,1.40625 0,0.0101 -0.001,0.02125 0,0.03125 -0.006,0.0317 0,0.06005 0,0.09375 l 0,0.75 0,2.125 0,0.875 0,2.15625 0,0.84375 0,1.25 0,0.8125 c 0,0.62724 0.33773,1.18516 0.8125,1.625 0.47477,0.43994 1.10298,0.77263 1.84375,1.0625 1.48154,0.57974 3.39547,0.90625 5.34375,0.90625 1.94828,0 3.86221,-0.32651 5.34375,-0.90625 0.74077,-0.28987 1.36898,-0.62256 1.84375,-1.0625 0.37163,-0.34436 0.64255,-0.75318 0.75,-1.21875 0.0367,-0.06962 0.0625,-0.13425 0.0625,-0.21875 l 0,-0.1875 0,-2.0625 0,-0.84375 0,-2.15625 0,-0.875 0,-2.125 0,-0.75 c 0,-0.0336 0.006,-0.06195 0,-0.09375 10e-4,-0.0097 0,-0.02105 0,-0.03125 0,-0.62724 -0.33773,-0.96631 -0.8125,-1.40625 -0.47477,-0.43994 -1.10298,-0.77263 -1.84375,-1.0625 -1.48154,-0.57974 -3.39547,-0.90625 -5.34375,-0.90625 z m 0,1 c 1.83572,0 3.67754,0.29501 5,0.8125 0.66123,0.25874 1.19102,0.59099 1.53125,0.90625 0.34023,0.31526 0.46875,0.36683 0.46875,0.65625 0,0.26173 -0.16408,0.53187 -0.4375,0.8125 -0.49437,0.37024 -1.05685,0.72924 -1.78125,1 -1.30612,0.47796 -3.0255,0.8125 -4.78125,0.8125 -1.75575,0 -3.47513,-0.33454 -4.78125,-0.8125 -0.7244,-0.27076 -1.28688,-0.62976 -1.78125,-1 -0.27342,-0.28063 -0.4375,-0.55077 -0.4375,-0.8125 0,-0.28942 0.12852,-0.34099 0.46875,-0.65625 0.34023,-0.31526 0.87002,-0.64751 1.53125,-0.90625 1.32246,-0.51749 3.16428,-0.8125 5,-0.8125 z m -7,4.125 c 0.45423,0.37759 0.99324,0.70931 1.65625,0.96875 0.0688,0.0272 0.1793,0.0051 0.25,0.03125 1.39654,0.51326 3.04193,0.875 5.09375,0.875 2.05182,0 3.69721,-0.36169 5.09375,-0.875 0.0707,-0.0262 0.1812,-0.004 0.25,-0.03125 0.66301,-0.25944 1.20202,-0.59116 1.65625,-0.96875 l 0,1.25 c 0,0.25766 -0.14196,0.53684 -0.40625,0.8125 -0.51751,0.39071 -1.1026,0.75141 -1.875,1.03125 -1.30009,0.46623 -2.9872,0.78125 -4.71875,0.78125 -1.73155,0 -3.41866,-0.31502 -4.71875,-0.78125 -0.7724,-0.27984 -1.35749,-0.64054 -1.875,-1.03125 -0.26429,-0.27566 -0.40625,-0.55484 -0.40625,-0.8125 l 0,-1.25 z m 0,3 c 0.45423,0.37759 0.99324,0.70931 1.65625,0.96875 0.0688,0.0272 0.1793,0.0051 0.25,0.03125 1.39622,0.51284 3.04283,0.875 5.09375,0.875 2.05092,0 3.69753,-0.36211 5.09375,-0.875 0.0707,-0.0262 0.1812,-0.004 0.25,-0.03125 0.66301,-0.25944 1.20202,-0.59116 1.65625,-0.96875 l 0,1.28125 c 0,0.26905 -0.14721,0.52284 -0.4375,0.8125 -0.51044,0.38186 -1.08841,0.72478 -1.84375,1 -1.30054,0.46707 -2.98545,0.78125 -4.71875,0.78125 -1.7333,0 -3.41821,-0.31418 -4.71875,-0.78125 -0.75534,-0.27522 -1.33331,-0.61814 -1.84375,-1 -0.29029,-0.28966 -0.4375,-0.54345 -0.4375,-0.8125 l 0,-1.28125 z m 0,3.03125 c 0.45423,0.37759 0.99324,0.70931 1.65625,0.96875 0.0689,0.0272 0.1793,0.005 0.25,0.03125 1.39622,0.51284 3.04283,0.84375 5.09375,0.84375 2.05092,0 3.69753,-0.33086 5.09375,-0.84375 0.0707,-0.0262 0.1811,-0.004 0.25,-0.03125 0.66301,-0.25944 1.20202,-0.59116 1.65625,-0.96875 l 0,1.15625 c 0,0.28942 -0.12852,0.55974 -0.46875,0.875 -0.34023,0.31526 -0.87002,0.64751 -1.53125,0.90625 -1.32246,0.51749 -3.16428,0.8125 -5,0.8125 -1.83572,0 -3.67754,-0.29501 -5,-0.8125 -0.66123,-0.25874 -1.19102,-0.59099 -1.53125,-0.90625 -0.34023,-0.31526 -0.46875,-0.58558 -0.46875,-0.875 l 0,-0.8125 0,-0.34375 z"
         style="color:#000000;display:inline;overflow:visible;visibility:visible;fill:#ffffff;fill-opacity:1;fill-rule:nonzero;stroke:none;stroke-width:20;marker:none;enable-background:new"
         inkscape:connector-curvature="0" />
    </g>
    <g
       transform="translate(-6.9992863,0)"
       id="g4230">
      <path
         id="path4228"
         d="m 24.001953,23.09375 c -1.94828,0 -3.86221,0.32641 -5.34375,0.90625 -0.74077,0.28987 -1.36898,0.62256 -1.84375,1.0625 -0.47477,0.43994 -0.8125,0.77901 -0.8125,1.40625 0,0.0101 -0.001,0.02125 0,0.03125 -0.006,0.0317 0,0.06005 0,0.09375 l 0,0.75 0,2.125 0,0.875 0,2.15625 0,0.84375 0,1.25 0,0.8125 c 0,0.62724 0.33773,1.18516 0.8125,1.625 0.47477,0.43994 1.10298,0.77263 1.84375,1.0625 1.48154,0.57974 3.39547,0.90625 5.34375,0.90625 1.94828,0 3.86221,-0.32651 5.34375,-0.90625 0.74077,-0.28987 1.36898,-0.62256 1.84375,-1.0625 0.37163,-0.34436 0.64255,-0.75318 0.75,-1.21875 0.0367,-0.06962 0.0625,-0.13425 0.0625,-0.21875 l 0,-0.1875 0,-2.0625 0,-0.84375 0,-2.15625 0,-0.875 0,-2.125 0,-0.75 c 0,-0.0336 0.006,-0.06195 0,-0.09375 10e-4,-0.0097 0,-0.02105 0,-0.03125 0,-0.62724 -0.33773,-0.96631 -0.8125,-1.40625 -0.47477,-0.43994 -1.10298,-0.77263 -1.84375,-1.0625 -1.48154,-0.57974 -3.39547,-0.90625 -5.34375,-0.90625 z m 0,1 c 1.83572,0 3.67754,0.29501 5,0.8125 0.66123,0.25874 1.19102,0.59099 1.53125,0.90625 0.34023,0.31526 0.46875,0.36683 0.46875,0.65625 0,0.26173 -0.16408,0.53187 -0.4375,0.8125 -0.49437,0.37024 -1.05685,0.72924 -1.78125,1 -1.30612,0.47796 -3.0255,0.8125 -4.78125,0.8125 -1.75575,0 -3.47513,-0.33454 -4.78125,-0.8125 -0.7244,-0.27076 -1.28688,-0.62976 -1.78125,-1 -0.27342,-0.28063 -0.4375,-0.55077 -0.4375,-0.8125 0,-0.28942 0.12852,-0.34099 0.46875,-0.65625 0.34023,-0.31526 0.87002,-0.64751 1.53125,-0.90625 1.32246,-0.51749 3.16428,-0.8125 5,-0.8125 z m -7,4.125 c 0.45423,0.37759 0.99324,0.70931 1.65625,0.96875 0.0688,0.0272 0.1793,0.0051 0.25,0.03125 1.39654,0.51326 3.04193,0.875 5.09375,0.875 2.05182,0 3.69721,-0.36169 5.09375,-0.875 0.0707,-0.0262 0.1812,-0.004 0.25,-0.03125 0.66301,-0.25944 1.20202,-0.59116 1.65625,-0.96875 l 0,1.25 c 0,0.25766 -0.14196,0.53684 -0.40625,0.8125 -0.51751,0.39071 -1.1026,0.75141 -1.875,1.03125 -1.30009,0.46623 -2.9872,0.78125 -4.71875,0.78125 -1.73155,0 -3.41866,-0.31502 -4.71875,-0.78125 -0.7724,-0.27984 -1.35749,-0.64054 -1.875,-1.03125 -0.26429,-0.27566 -0.40625,-0.55484 -0.40625,-0.8125 l 0,-1.25 z m 0,3 c 0.45423,0.37759 0.99324,0.70931 1.65625,0.96875 0.0688,0.0272 0.1793,0.005 0.25,0.03125 1.39622,0.51284 3.04283,0.875 5.09375,0.875 2.05092,0 3.69753,-0.36211 5.09375,-0.875 0.0707,-0.0262 0.1812,-0.004 0.25,-0.03125 0.66301,-0.25944 1.20202,-0.59116 1.65625,-0.96875 l 0,1.28125 c 0,0.26905 -0.14721,0.52284 -0.4375,0.8125 -0.51044,0.38186 -1.08841,0.72478 -1.84375,1 -1.30054,0.46707 -2.98545,0.78125 -4.71875,0.78125 -1.7333,0 -3.41821,-0.31418 -4.71875,-0.78125 -0.75534,-0.27522 -1.33331,-0.61814 -1.84375,-1 -0.29029,-0.28966 -0.4375,-0.54345 -0.4375,-0.8125 l 0,-1.28125 z m 0,3.03125 c 0.45423,0.37759 0.99324,0.70931 1.65625,0.96875 0.0689,0.0272 0.1793,0.005 0.25,0.03125 1.39622,0.51284 3.04283,0.84375 5.09375,0.84375 2.05092,0 3.69753,-0.33086 5.09375,-0.84375 0.0707,-0.0262 0.1811,-0.004 0.25,-0.03125 0.66301,-0.25944 1.20202,-0.59116 1.65625,-0.96875 l 0,1.15625 c 0,0.28942 -0.12852,0.55974 -0.46875,0.875 -0.34023,0.31526 -0.87002,0.64751 -1.53125,0.90625 -1.32246,0.51749 -3.16428,0.8125 -5,0.8125 -1.83572,0 -3.67754,-0.29501 -5,-0.8125 -0.66123,-0.25874 -1.19102,-0.59099 -1.53125,-0.90625 -0.34023,-0.31526 -0.46875,-0.58558 -0.46875,-0.875 l 0,-0.8125 0,-0.34375 z"
         style="color:#000000;display:inline;overflow:visible;visibility:visible;opacity:0.3;fill:#000000;fill-opacity:1;fill-rule:nonzero;stroke:none;stroke-width:20;marker:none;enable-background:new"
         inkscape:connector-curvature="0" />
      <path
         inkscape:connector-curvature="0"
         style="color:#000000;display:inline;overflow:visible;visibility:visible;fill:#ffffff;fill-opacity:1;fill-rule:nonzero;stroke:none;stroke-width:20;marker:none;enable-background:new"
         d="m 24.001953,22.09375 c -1.94828,0 -3.86221,0.32641 -5.34375,0.90625 -0.74077,0.28987 -1.36898,0.62256 -1.84375,1.0625 -0.47477,0.43994 -0.8125,0.77901 -0.8125,1.40625 0,0.0101 -0.001,0.02125 0,0.03125 -0.006,0.0317 0,0.06005 0,0.09375 l 0,0.75 0,2.125 0,0.875 0,2.15625 0,0.84375 0,1.25 0,0.8125 c 0,0.62724 0.33773,1.18516 0.8125,1.625 0.47477,0.43994 1.10298,0.77263 1.84375,1.0625 1.48154,0.57974 3.39547,0.90625 5.34375,0.90625 1.94828,0 3.86221,-0.32651 5.34375,-0.90625 0.74077,-0.28987 1.36898,-0.62256 1.84375,-1.0625 0.37163,-0.34436 0.64255,-0.75318 0.75,-1.21875 0.0367,-0.06962 0.0625,-0.13425 0.0625,-0.21875 l 0,-0.1875 0,-2.0625 0,-0.84375 0,-2.15625 0,-0.875 0,-2.125 0,-0.75 c 0,-0.0336 0.006,-0.06195 0,-0.09375 10e-4,-0.0097 0,-0.02105 0,-0.03125 0,-0.62724 -0.33773,-0.96631 -0.8125,-1.40625 -0.47477,-0.43994 -1.10298,-0.77263 -1.84375,-1.0625 -1.48154,-0.57974 -3.39547,-0.90625 -5.34375,-0.90625 z m 0,1 c 1.83572,0 3.67754,0.29501 5,0.8125 0.66123,0.25874 1.19102,0.59099 1.53125,0.90625 0.34023,0.31526 0.46875,0.36683 0.46875,0.65625 0,0.26173 -0.16408,0.53187 -0.4375,0.8125 -0.49437,0.37024 -1.05685,0.72924 -1.78125,1 -1.30612,0.47796 -3.0255,0.8125 -4.78125,0.8125 -1.75575,0 -3.47513,-0.33454 -4.78125,-0.8125 -0.7244,-0.27076 -1.28688,-0.62976 -1.78125,-1 -0.27342,-0.28063 -0.4375,-0.55077 -0.4375,-0.8125 0,-0.28942 0.12852,-0.34099 0.46875,-0.65625 0.34023,-0.31526 0.87002,-0.64751 1.53125,-0.90625 1.32246,-0.51749 3.16428,-0.8125 5,-0.8125 z m -7,4.125 c 0.45423,0.37759 0.99324,0.70931 1.65625,0.96875 0.0688,0.0272 0.1793,0.0051 0.25,0.03125 1.39654,0.51326 3.04193,0.875 5.09375,0.875 2.05182,0 3.69721,-0.36169 5.09375,-0.875 0.0707,-0.0262 0.1812,-0.004 0.25,-0.03125 0.66301,-0.25944 1.20202,-0.59116 1.65625,-0.96875 l 0,1.25 c 0,0.25766 -0.14196,0.53684 -0.40625,0.8125 -0.51751,0.39071 -1.1026,0.75141 -1.875,1.03125 -1.30009,0.46623 -2.9872,0.78125 -4.71875,0.78125 -1.73155,0 -3.41866,-0.31502 -4.71875,-0.78125 -0.7724,-0.27984 -1.35749,-0.64054 -1.875,-1.03125 -0.26429,-0.27566 -0.40625,-0.55484 -0.40625,-0.8125 l 0,-1.25 z m 0,3 c 0.45423,0.37759 0.99324,0.70931 1.65625,0.96875 0.0688,0.0272 0.1793,0.0051 0.25,0.03125 1.39622,0.51284 3.04283,0.875 5.09375,0.875 2.05092,0 3.69753,-0.36211 5.09375,-0.875 0.0707,-0.0262 0.1812,-0.004 0.25,-0.03125 0.66301,-0.25944 1.20202,-0.59116 1.65625,-0.96875 l 0,1.28125 c 0,0.26905 -0.14721,0.52284 -0.4375,0.8125 -0.51044,0.38186 -1.08841,0.72478 -1.84375,1 -1.30054,0.46707 -2.98545,0.78125 -4.71875,0.78125 -1.7333,0 -3.41821,-0.31418 -4.71875,-0.78125 -0.75534,-0.27522 -1.33331,-0.61814 -1.84375,-1 -0.29029,-0.28966 -0.4375,-0.54345 -0.4375,-0.8125 l 0,-1.28125 z m 0,3.03125 c 0.45423,0.37759 0.99324,0.70931 1.65625,0.96875 0.0689,0.0272 0.1793,0.005 0.25,0.03125 1.39622,0.51284 3.04283,0.84375 5.09375,0.84375 2.05092,0 3.69753,-0.33086 5.09375,-0.84375 0.0707,-0.0262 0.1811,-0.004 0.25,-0.03125 0.66301,-0.25944 1.20202,-0.59116 1.65625,-0.96875 l 0,1.15625 c 0,0.28942 -0.12852,0.55974 -0.46875,0.875 -0.34023,0.31526 -0.87002,0.64751 -1.53125,0.90625 -1.32246,0.51749 -3.16428,0.8125 -5,0.8125 -1.83572,0 -3.67754,-0.29501 -5,-0.8125 -0.66123,-0.25874 -1.19102,-0.59099 -1.53125,-0.90625 -0.34023,-0.31526 -0.46875,-0.58558 -0.46875,-0.875 l 0,-0.8125 0,-0.34375 z"
         id="path4204" />
    </g>
  </g>
</svg>
