<?xml version="1.0" encoding="UTF-8" standalone="no"?>
<!-- Created with Inkscape (http://www.inkscape.org/) -->
<svg id="svg4951" xmlns:rdf="http://www.w3.org/1999/02/22-rdf-syntax-ns#" xmlns="http://www.w3.org/2000/svg" height="48px" width="48px" version="1.1" xmlns:cc="http://creativecommons.org/ns#" xmlns:xlink="http://www.w3.org/1999/xlink" xmlns:dc="http://purl.org/dc/elements/1.1/">
 <defs id="defs4953">
  <linearGradient id="linearGradient3189" y2="40.496" gradientUnits="userSpaceOnUse" x2="71.204" gradientTransform="matrix(1.617 0 0 1.617 -92.707 -21.06)" y1="15.369" x1="71.204">
   <stop id="stop4808-4" stop-color="#fff" offset="0"/>
   <stop id="stop4810-0" stop-color="#fff" stop-opacity=".23529" offset=".42448"/>
   <stop id="stop4812-8" stop-color="#fff" stop-opacity=".15686" offset=".82090"/>
   <stop id="stop4814-0" stop-color="#fff" stop-opacity=".39216" offset="1"/>
  </linearGradient>
  <radialGradient id="radialGradient3192" gradientUnits="userSpaceOnUse" cy="3.99" cx="23.896" gradientTransform="matrix(0 2.8885 -3.8128 0 39.213 -65.95)" r="20.397">
   <stop id="stop5352" stop-color="#5a7da5" offset="0"/>
   <stop id="stop5354" stop-color="#13396b" offset="1"/>
  </radialGradient>
  <radialGradient id="radialGradient3195" gradientUnits="userSpaceOnUse" cy="186.17" cx="99.157" gradientTransform="matrix(.27083 0 0 .087623 -2.8551 25.187)" r="62.769">
   <stop id="stop3822-2-6-3" stop-color="#3d3d3d" offset="0"/>
   <stop id="stop3864-8-7-7" stop-color="#686868" stop-opacity=".49804" offset=".5"/>
   <stop id="stop3824-1-2-5" stop-color="#686868" stop-opacity="0" offset="1"/>
  </radialGradient>
 </defs>
 <metadata id="metadata4956">
  <rdf:RDF>
   <cc:Work rdf:about="">
    <dc:format>image/svg+xml</dc:format>
    <dc:type rdf:resource="http://purl.org/dc/dcmitype/StillImage"/>
    <dc:title/>
   </cc:Work>
  </rdf:RDF>
 </metadata>
 <g id="layer1">
  <path id="path3818-0-5" d="m41 41.5a17 5.5 0 0 1 -34 0 17 5.5 0 1 1 34 0z" fill="url(#radialGradient3195)"/>
  <path id="path2555-7-2" style="color:#000000" d="m24 3.5c-11.311 0-20.5 9.1888-20.5 20.5s9.1888 20.5 20.5 20.5 20.5-9.1888 20.5-20.5-9.189-20.5-20.5-20.5z" fill="url(#radialGradient3192)"/>
  <path id="path4176" opacity=".3" stroke-linejoin="round" style="color:#000000" d="m43.5 24c0 10.77-8.73 19.5-19.5 19.5s-19.5-8.73-19.5-19.5 8.73-19.5 19.5-19.5 19.5 8.73 19.5 19.5z" stroke="url(#linearGradient3189)" stroke-linecap="round" fill="none"/>
  <path id="path3871" opacity=".7" style="color:#000000" d="m24 3.5c-11.311 0-20.5 9.189-20.5 20.5s9.189 20.5 20.5 20.5 20.5-9.189 20.5-20.5-9.189-20.5-20.5-20.5z" stroke="#203860" fill="none"/>
  <path id="path4380" opacity=".15" style="enable-background:new;color-rendering:auto;text-decoration-color:#000000;color:#000000;isolation:auto;mix-blend-mode:normal;shape-rendering:auto;solid-color:#000000;block-progression:tb;text-decoration-line:none;text-decoration-style:solid;image-rendering:auto;white-space:normal;text-indent:0;text-transform:none" d="m17.777 11c-3.731 0-6.777 3.046-6.777 6.777 0 2.856 1.817 5.231 4.328 6.223-2.51 0.996-4.328 3.368-4.328 6.223 0 3.731 3.046 6.777 6.777 6.777 2.857 0 5.232-1.818 6.223-4.33 0.991 2.512 3.366 4.33 6.223 4.33 3.731 0 6.777-3.046 6.777-6.777 0-2.857-1.818-5.232-4.33-6.223 2.512-0.991 4.33-3.366 4.33-6.223 0-3.731-3.046-6.777-6.777-6.777-2.857 0-5.232 1.818-6.223 4.33-0.991-2.512-3.366-4.33-6.223-4.33zm0 2c2.2479 0 4.0327 1.5725 4.5469 3.6562-2.8361 0.65965-5.0083 2.8319-5.668 5.668-2.083-0.514-3.656-2.299-3.656-4.547 0-2.65 2.127-4.777 4.777-4.777zm12.445 0c2.651 0 4.778 2.127 4.778 4.777 0 2.248-1.572 4.033-3.656 4.547-0.66-2.836-2.832-5.008-5.668-5.668 0.514-2.083 2.299-3.656 4.547-3.656zm-4.7773 6.5137c1.4372 0.48462 2.5564 1.6038 3.041 3.041h-3.041v-3.041zm-2.8906 0.0078v3.0332h-3.0469c0.48178-1.4446 1.6029-2.5579 3.0469-3.0332zm-3.041 5.9238h3.041v3.041c-1.436-0.485-2.556-1.605-3.04-3.042zm5.9316 0h3.041c-0.48462 1.4372-1.6038 2.5564-3.041 3.041v-3.041zm-8.793 0.21094c0.65388 2.8453 2.8293 5.0263 5.6719 5.6875-0.514 2.083-2.299 3.656-4.547 3.656-2.65 0-4.777-2.127-4.777-4.777 0-2.2469 1.5728-4.0487 3.6523-4.5664zm14.691 0.01953c2.084 0.513 3.657 2.298 3.657 4.546 0 2.65-2.127 4.777-4.777 4.777-2.2479 0-4.0327-1.5725-4.5469-3.6562 2.8361-0.65965 5.0083-2.8319 5.668-5.668z"/>
  <path id="path4382" opacity=".15" style="enable-background:new;color-rendering:auto;text-decoration-color:#000000;color:#000000;isolation:auto;mix-blend-mode:normal;shape-rendering:auto;solid-color:#000000;block-progression:tb;text-decoration-line:none;text-decoration-style:solid;image-rendering:auto;white-space:normal;text-indent:0;text-transform:none" d="m17.777 11.5c-3.461 0-6.277 2.816-6.277 6.277 0 3.2393 2.4829 5.8697 5.6367 6.1992-3.161 0.326-5.637 3.004-5.637 6.247 0 3.461 2.816 6.277 6.277 6.277 3.271 0 5.936-2.525 6.223-5.723 0.287 3.198 2.952 5.723 6.223 5.723 3.461 0 6.277-2.816 6.277-6.277 0-3.271-2.525-5.936-5.723-6.223 3.198-0.287 5.723-2.952 5.723-6.223 0-3.461-2.816-6.277-6.277-6.277-3.271 0-5.936 2.525-6.223 5.723-0.287-3.198-2.952-5.723-6.223-5.723zm0 1c2.6489 0 4.7661 1.9693 5.1484 4.5098-3.0571 0.48138-5.4346 2.8589-5.916 5.916-2.54-0.383-4.509-2.5-4.509-5.149 0-2.92 2.357-5.277 5.277-5.277zm12.445 0c2.9208 0 5.2773 2.3566 5.2773 5.2773 0 2.6489-1.9693 4.7661-4.5098 5.1484-0.48138-3.0571-2.8589-5.4346-5.916-5.916 0.383-2.541 2.5-4.51 5.149-4.51zm-6.2773 5.332v0.39062h-0.89062l0.2832-0.30469c0.07943-0.0089 0.14627-0.05279 0.22656-0.05859l0.38086-0.02734zm-0.89062 1.0352v4.1875h-4.1895c0.41152-2.124 2.0645-3.7881 4.1895-4.1875zm1.8906 0c2.114 0.41276 3.7747 2.0736 4.1875 4.1875h-4.1875v-4.1875zm-6.0781 6.0781h4.1875v4.1875c-2.1139-0.41276-3.7747-2.0736-4.1875-4.1875zm6.0781 0h4.1875c-0.41276 2.114-2.0736 3.7747-4.1875 4.1875v-4.1875zm-7.9434 0.0957c0.46856 3.0732 2.8553 5.466 5.9238 5.9492-0.383 2.541-2.5 4.51-5.149 4.51-2.92 0-5.277-2.357-5.277-5.277 0-2.6484 1.9644-4.7973 4.502-5.1816zm13.988 0.0332c2.541 0.383 4.51 2.5 4.51 5.149 0 2.92-2.357 5.277-5.277 5.277-2.6489 0-4.7661-1.9693-5.1484-4.5098 3.0569-0.48135 5.4345-2.8591 5.916-5.916z"/>
  <path id="path5698" style="color:#000000;enable-background:new" d="m17.778 12c-3.191 0-5.778 2.587-5.778 5.778 0 3.0484 2.3681 5.5329 5.3611 5.75 0.23773-3.2873 2.8793-5.9289 6.1667-6.1667-0.21706-2.993-2.7016-5.3611-5.75-5.3611zm12.444 0c-3.0484 0-5.5329 2.3681-5.75 5.3611 3.2873 0.23773 5.9289 2.8793 6.1667 6.1667 2.993-0.217 5.361-2.702 5.361-5.75 0-3.191-2.587-5.778-5.778-5.778zm-6.6667 6.2222c-0.03707 0.0027-0.10199 0.02409-0.13889 0.02773-2.7562 0.2799-4.9667 2.5343-5.1944 5.3056h5.3333v-5.3333zm0.88889 0v5.3333h5.3333c-0.23-2.808-2.524-5.102-5.333-5.333zm-6.2222 6.2222c0.23082 2.8084 2.525 5.1025 5.3333 5.3333v-5.3333h-5.3333zm6.2222 0v5.3333c2.8084-0.23082 5.1025-2.525 5.3333-5.3333h-0.11111-5.2222zm-7.25 0.02773c-2.913 0.296-5.194 2.759-5.194 5.75 0 3.191 2.5868 5.7778 5.7778 5.7778 3.0484 0 5.5329-2.3681 5.75-5.3611-3.2873-0.23773-5.9289-2.8793-6.1667-6.1667-0.05582 0.0044-0.1113-0.0054-0.16667 0zm13.444 0c-0.23773 3.2873-2.8793 5.9289-6.1667 6.1667 0.21706 2.993 2.7016 5.3611 5.75 5.3611 3.191 0 5.7778-2.5868 5.7778-5.7778 0-3.0484-2.3681-5.5329-5.3611-5.75z" fill="#ddd"/>
 </g>
</svg>
