<?xml version="1.0" encoding="UTF-8" standalone="no"?>
<svg
   xmlns:dc="http://purl.org/dc/elements/1.1/"
   xmlns:cc="http://creativecommons.org/ns#"
   xmlns:rdf="http://www.w3.org/1999/02/22-rdf-syntax-ns#"
   xmlns:svg="http://www.w3.org/2000/svg"
   xmlns="http://www.w3.org/2000/svg"
   xmlns:xlink="http://www.w3.org/1999/xlink"
   xmlns:sodipodi="http://sodipodi.sourceforge.net/DTD/sodipodi-0.dtd"
   xmlns:inkscape="http://www.inkscape.org/namespaces/inkscape"
   version="1.1"
   width="48"
   height="48"
   id="svg4375"
   inkscape:version="0.91 r13725"
   sodipodi:docname="logview.svg">
  <sodipodi:namedview
     pagecolor="#ffffff"
     bordercolor="#666666"
     borderopacity="1"
     objecttolerance="10"
     gridtolerance="10"
     guidetolerance="10"
     inkscape:pageopacity="0"
     inkscape:pageshadow="2"
     inkscape:window-width="1535"
     inkscape:window-height="876"
     id="namedview120"
     showgrid="false"
     inkscape:zoom="4.9166667"
     inkscape:cx="-45.559322"
     inkscape:cy="24"
     inkscape:window-x="65"
     inkscape:window-y="24"
     inkscape:window-maximized="1"
     inkscape:current-layer="svg4375" />
  <defs
     id="defs4377">
    <linearGradient
       x1="22.004084"
       y1="44.854229"
       x2="22.004084"
       y2="3.0718794"
       id="linearGradient3436"
       xlink:href="#linearGradient3104"
       gradientUnits="userSpaceOnUse" />
    <linearGradient
       id="linearGradient3104">
      <stop
         id="stop3106"
         style="stop-color:#a0a0a0;stop-opacity:1"
         offset="0" />
      <stop
         id="stop3108"
         style="stop-color:#c8c8c8;stop-opacity:1"
         offset="1" />
    </linearGradient>
    <linearGradient
       x1="68.437271"
       y1="4.410717"
       x2="68.437271"
       y2="40.927929"
       id="linearGradient3388"
       xlink:href="#linearGradient3454"
       gradientUnits="userSpaceOnUse"
       gradientTransform="matrix(0.89189031,0,0,1.0580283,-42.797372,0.0041396)" />
    <linearGradient
       id="linearGradient3454">
      <stop
         id="stop3456"
         style="stop-color:#ffffff;stop-opacity:1"
         offset="0" />
      <stop
         id="stop3458"
         style="stop-color:#ffffff;stop-opacity:0.23529412"
         offset="0.0097359" />
      <stop
         id="stop3460"
         style="stop-color:#ffffff;stop-opacity:0.15686275"
         offset="0.99001008" />
      <stop
         id="stop3462"
         style="stop-color:#ffffff;stop-opacity:0.39215687"
         offset="1" />
    </linearGradient>
    <linearGradient
       x1="-60.969666"
       y1="13.668072"
       x2="-60.908253"
       y2="114.5354"
       id="linearGradient3458"
       xlink:href="#linearGradient3600"
       gradientUnits="userSpaceOnUse"
       gradientTransform="matrix(0.43751048,2.65089e-4,-2.6637648e-4,0.43539595,46.156983,-6.2332098)" />
    <linearGradient
       id="linearGradient3600">
      <stop
         id="stop3828"
         style="stop-color:#f4f4f4;stop-opacity:1"
         offset="0" />
      <stop
         id="stop3604"
         style="stop-color:#dbdbdb;stop-opacity:1"
         offset="1" />
    </linearGradient>
    <linearGradient
       x1="-51.786404"
       y1="53.514328"
       x2="-51.786404"
       y2="3.6336823"
       id="linearGradient3394"
       xlink:href="#linearGradient3104-8-8-97"
       gradientUnits="userSpaceOnUse"
       gradientTransform="matrix(0.80749834,0,0,0.83374395,59.410297,0.2581128)" />
    <linearGradient
       id="linearGradient3104-8-8-97">
      <stop
         id="stop3106-5-4-3"
         style="stop-color:#000000;stop-opacity:0.32173914"
         offset="0" />
      <stop
         id="stop3108-4-3-7"
         style="stop-color:#000000;stop-opacity:0.27826086"
         offset="1" />
    </linearGradient>
    <radialGradient
       gradientTransform="matrix(1,0,0,0.341176,0,3.047059)"
       gradientUnits="userSpaceOnUse"
       xlink:href="#linearGradient8838"
       id="radialGradient2759"
       fy="4.625"
       fx="62.625"
       r="10.625"
       cy="4.625"
       cx="62.625" />
    <linearGradient
       id="linearGradient8838">
      <stop
         offset="0"
         style="stop-color:#7f7f7f;stop-opacity:1"
         id="stop8840" />
      <stop
         offset="1"
         style="stop-color:#808080;stop-opacity:0"
         id="stop8842" />
    </linearGradient>
    <linearGradient
       gradientTransform="matrix(0.3936567,0,0,0.38976,101.37812,-4.2393119)"
       gradientUnits="userSpaceOnUse"
       xlink:href="#linearGradient11114-516"
       id="linearGradient2780"
       y2="91.972626"
       x2="-164.71831"
       y1="99.667191"
       x1="-172.65306" />
    <linearGradient
       id="linearGradient11114-516">
      <stop
         offset="0"
         style="stop-color:#242424;stop-opacity:0.99215686"
         id="stop3372" />
      <stop
         offset="1"
         style="stop-color:#656565;stop-opacity:1"
         id="stop3374" />
    </linearGradient>
    <linearGradient
       gradientTransform="matrix(1.0113456,0,0,1.0013346,-0.1475723,1.8143278)"
       gradientUnits="userSpaceOnUse"
       xlink:href="#linearGradient3277-442"
       id="linearGradient2782"
       y2="29.484051"
       x2="31.364458"
       y1="27.988184"
       x1="32.892574" />
    <linearGradient
       id="linearGradient3277-442">
      <stop
         offset="0"
         style="stop-color:#575757;stop-opacity:1"
         id="stop3378" />
      <stop
         offset="1"
         style="stop-color:#333333;stop-opacity:1"
         id="stop3380" />
    </linearGradient>
    <linearGradient
       gradientTransform="matrix(0.3936567,0,0,0.38976,-50.208746,-0.4726547)"
       gradientUnits="userSpaceOnUse"
       xlink:href="#linearGradient3294"
       id="linearGradient2778"
       y2="67.350082"
       x2="201.87128"
       y1="146.1507"
       x1="277.573" />
    <linearGradient
       id="linearGradient3294">
      <stop
         offset="0"
         style="stop-color:#ffffff;stop-opacity:0.19520548"
         id="stop3296" />
      <stop
         offset="1"
         style="stop-color:#ffffff;stop-opacity:0"
         id="stop3298" />
    </linearGradient>
    <radialGradient
       gradientUnits="userSpaceOnUse"
       xlink:href="#linearGradient4454-600"
       id="radialGradient2776"
       fy="21.817987"
       fx="18.240929"
       r="8.3085051"
       cy="21.817987"
       cx="18.240929" />
    <linearGradient
       id="linearGradient4454-600">
      <stop
         offset="0"
         style="stop-color:#a1a1a1;stop-opacity:0.20784314"
         id="stop3408" />
      <stop
         offset="1"
         style="stop-color:#a1a1a1;stop-opacity:0.67843139"
         id="stop3410" />
    </linearGradient>
    <radialGradient
       gradientTransform="matrix(3.0710057,0,0,2.3628614,-33.010584,-21.34546)"
       gradientUnits="userSpaceOnUse"
       xlink:href="#linearGradient3294"
       id="radialGradient2774"
       fy="13.078408"
       fx="15.414371"
       r="6.65625"
       cy="13.078408"
       cx="15.414371" />
    <linearGradient
       gradientTransform="matrix(0.4037708,0,0,0.399774,-51.833663,-0.3327449)"
       gradientUnits="userSpaceOnUse"
       xlink:href="#linearGradient2300-465"
       id="linearGradient2770"
       y2="11.949074"
       x2="173.09576"
       y1="75.31868"
       x1="173.09576" />
    <linearGradient
       id="linearGradient2300-465">
      <stop
         offset="0"
         style="stop-color:#343434;stop-opacity:0.97647059"
         id="stop3396" />
      <stop
         offset="1"
         style="stop-color:#929292;stop-opacity:1"
         id="stop3398" />
    </linearGradient>
    <linearGradient
       gradientTransform="matrix(0.4037708,0,0,0.399774,0.5399201,2.6759154)"
       gradientUnits="userSpaceOnUse"
       xlink:href="#linearGradient11104-770"
       id="linearGradient2772"
       y2="4.5362983"
       x2="41.485142"
       y1="68.291702"
       x1="41.541653" />
    <linearGradient
       id="linearGradient11104-770">
      <stop
         offset="0"
         style="stop-color:#333333;stop-opacity:1"
         id="stop3402" />
      <stop
         offset="1"
         style="stop-color:#333333;stop-opacity:0.6122449"
         id="stop3404" />
    </linearGradient>
    <linearGradient
       gradientTransform="matrix(0.3845313,0,0,0.3807249,-48.396976,0.258476)"
       gradientUnits="userSpaceOnUse"
       xlink:href="#linearGradient6209-717"
       id="linearGradient2768"
       y2="11.949074"
       x2="173.09576"
       y1="75.31868"
       x1="173.09576" />
    <linearGradient
       id="linearGradient6209-717">
      <stop
         offset="0"
         style="stop-color:#979797;stop-opacity:1"
         id="stop3366" />
      <stop
         offset="1"
         style="stop-color:#000000;stop-opacity:0.34117648"
         id="stop3368" />
    </linearGradient>
  </defs>
  <metadata
     id="metadata4380">
    <rdf:RDF>
      <cc:Work
         rdf:about="">
        <dc:format>image/svg+xml</dc:format>
        <dc:type
           rdf:resource="http://purl.org/dc/dcmitype/StillImage" />
        <dc:title></dc:title>
      </cc:Work>
    </rdf:RDF>
  </metadata>
  <path
     inkscape:connector-curvature="0"
     style="color:#000000;display:inline;overflow:visible;visibility:visible;fill:none;stroke:url(#linearGradient3394);stroke-width:0.99992168;stroke-linecap:butt;stroke-linejoin:round;stroke-miterlimit:4;stroke-dasharray:none;stroke-dashoffset:0;stroke-opacity:1;marker:none;enable-background:accumulate"
     id="path2855-8"
     d="m 7.4999853,3.4999608 33.0007937,0 0.99926,41.0000782 -35.0000782,-0.02112 z" />
  <path
     inkscape:connector-curvature="0"
     style="display:inline;fill:url(#linearGradient3458);fill-opacity:1;stroke:none"
     id="path2855"
     d="m 7.9714498,4.0014475 c 8.2788402,0.00501 23.7790052,-0.00501 32.0578422,0 C 40.10218,5.5680159 40.927087,41.26681 41,44 29.666668,43.993137 18.333335,43.986262 7,43.979395 7.0891888,40.909165 7.8822608,5.3791153 7.9714498,4.0014475 Z" />
  <path
     inkscape:connector-curvature="0"
     style="color:#000000;display:inline;overflow:visible;visibility:visible;fill:none;stroke:url(#linearGradient3388);stroke-width:1.00000012;stroke-linecap:round;stroke-linejoin:miter;stroke-miterlimit:4;stroke-dasharray:none;stroke-dashoffset:0;stroke-opacity:1;marker:none;enable-background:accumulate"
     id="path2855-3"
     d="M 8.4428778,4.5 39.557843,4.5 40.5,43.5 7.5000001,43.47991 Z" />
  <path
     inkscape:connector-curvature="0"
     style="display:inline;opacity:0.59069764;fill:#80b3ff;fill-rule:evenodd;stroke:#f6abab;stroke-width:0.49999991;stroke-linecap:round;stroke-linejoin:round;stroke-miterlimit:4;stroke-dasharray:none;stroke-opacity:1"
     id="path5685"
     d="M 12.687579,4.2498875 12.25,43.749999" />
  <path
     inkscape:connector-curvature="0"
     style="display:inline;opacity:0.43720931;fill:#80b3ff;fill-rule:evenodd;stroke:#80b3ff;stroke-width:0.24999996;stroke-linecap:round;stroke-linejoin:round;stroke-miterlimit:4;stroke-dasharray:none;stroke-opacity:1"
     id="path6656"
     d="M 40.057439,9.8749988 7.8771512,9.6904668" />
  <path
     inkscape:connector-curvature="0"
     style="display:inline;opacity:0.43720931;fill:#80b3ff;fill-rule:evenodd;stroke:#80b3ff;stroke-width:0.24999994;stroke-linecap:round;stroke-linejoin:round;stroke-miterlimit:4;stroke-dasharray:none;stroke-opacity:1"
     id="path6658"
     d="M 40.131449,11.874999 7.8685462,11.690464" />
  <path
     inkscape:connector-curvature="0"
     style="display:inline;opacity:0.43720931;fill:#80b3ff;fill-rule:evenodd;stroke:#80b3ff;stroke-width:0.24999996;stroke-linecap:round;stroke-linejoin:round;stroke-miterlimit:4;stroke-dasharray:none;stroke-opacity:1"
     id="path6660"
     d="M 40.214067,13.874999 7.7859295,13.690468" />
  <path
     inkscape:connector-curvature="0"
     style="display:inline;opacity:0.43720931;fill:#80b3ff;fill-rule:evenodd;stroke:#80b3ff;stroke-width:0.24999994;stroke-linecap:round;stroke-linejoin:round;stroke-miterlimit:4;stroke-dasharray:none;stroke-opacity:1"
     id="path6662"
     d="M 40.296684,15.874999 7.7033144,15.690466" />
  <path
     inkscape:connector-curvature="0"
     style="display:inline;opacity:0.43720931;fill:#80b3ff;fill-rule:evenodd;stroke:#80b3ff;stroke-width:0.24999994;stroke-linecap:round;stroke-linejoin:round;stroke-miterlimit:4;stroke-dasharray:none;stroke-opacity:1"
     id="path6664"
     d="M 40.296685,17.874999 7.7033138,17.690466" />
  <path
     inkscape:connector-curvature="0"
     style="display:inline;opacity:0.43720931;fill:#80b3ff;fill-rule:evenodd;stroke:#80b3ff;stroke-width:0.24999996;stroke-linecap:round;stroke-linejoin:round;stroke-miterlimit:4;stroke-dasharray:none;stroke-opacity:1"
     id="path6666"
     d="M 40.379302,19.874999 7.6206973,19.690465" />
  <path
     inkscape:connector-curvature="0"
     style="display:inline;overflow:visible;visibility:visible;opacity:0.43720931;fill:#80b3ff;fill-opacity:1;fill-rule:evenodd;stroke:#80b3ff;stroke-width:0.24999996;stroke-linecap:round;stroke-linejoin:round;stroke-miterlimit:4;stroke-dasharray:none;stroke-dashoffset:0;stroke-opacity:1;marker:none;enable-background:accumulate"
     id="path7637"
     d="M 40.379302,21.874999 7.6206974,21.690467" />
  <path
     inkscape:connector-curvature="0"
     style="display:inline;overflow:visible;visibility:visible;opacity:0.43720931;fill:#80b3ff;fill-opacity:1;fill-rule:evenodd;stroke:#80b3ff;stroke-width:0.24999997;stroke-linecap:round;stroke-linejoin:round;stroke-miterlimit:4;stroke-dasharray:none;stroke-dashoffset:0;stroke-opacity:1;marker:none;enable-background:accumulate"
     id="path7639"
     d="M 40.461915,23.874999 7.538081,23.690466" />
  <path
     inkscape:connector-curvature="0"
     style="display:inline;overflow:visible;visibility:visible;opacity:0.43720931;fill:#80b3ff;fill-opacity:1;fill-rule:evenodd;stroke:#80b3ff;stroke-width:0.24999997;stroke-linecap:round;stroke-linejoin:round;stroke-miterlimit:4;stroke-dasharray:none;stroke-dashoffset:0;stroke-opacity:1;marker:none;enable-background:accumulate"
     id="path7641"
     d="M 40.461913,25.874999 7.5380821,25.690466" />
  <path
     inkscape:connector-curvature="0"
     style="display:inline;overflow:visible;visibility:visible;opacity:0.43720931;fill:#80b3ff;fill-opacity:1;fill-rule:evenodd;stroke:#80b3ff;stroke-width:0.24999997;stroke-linecap:round;stroke-linejoin:round;stroke-miterlimit:4;stroke-dasharray:none;stroke-dashoffset:0;stroke-opacity:1;marker:none;enable-background:accumulate"
     id="path7645"
     d="M 40.627148,27.874999 7.3728501,27.690469" />
  <path
     inkscape:connector-curvature="0"
     style="display:inline;overflow:visible;visibility:visible;opacity:0.43720931;fill:#80b3ff;fill-opacity:1;fill-rule:evenodd;stroke:#80b3ff;stroke-width:0.24999997;stroke-linecap:round;stroke-linejoin:round;stroke-miterlimit:4;stroke-dasharray:none;stroke-dashoffset:0;stroke-opacity:1;marker:none;enable-background:accumulate"
     id="path7647"
     d="M 40.627148,29.864131 7.3728497,29.679597" />
  <path
     inkscape:connector-curvature="0"
     style="display:inline;overflow:visible;visibility:visible;opacity:0.43720931;fill:#80b3ff;fill-opacity:1;fill-rule:evenodd;stroke:#80b3ff;stroke-width:0.24999996;stroke-linecap:round;stroke-linejoin:round;stroke-miterlimit:4;stroke-dasharray:none;stroke-dashoffset:0;stroke-opacity:1;marker:none;enable-background:accumulate"
     id="path7649"
     d="M 40.874996,31.874999 7.125001,31.690466" />
  <path
     inkscape:connector-curvature="0"
     style="display:inline;overflow:visible;visibility:visible;opacity:0.43720931;fill:#80b3ff;fill-opacity:1;fill-rule:evenodd;stroke:#80b3ff;stroke-width:0.24999996;stroke-linecap:round;stroke-linejoin:round;stroke-miterlimit:4;stroke-dasharray:none;stroke-dashoffset:0;stroke-opacity:1;marker:none;enable-background:accumulate"
     id="path7651"
     d="M 40.874996,33.830428 7.125001,33.645894" />
  <path
     inkscape:connector-curvature="0"
     style="display:inline;overflow:visible;visibility:visible;opacity:0.43720931;fill:#80b3ff;fill-opacity:1;fill-rule:evenodd;stroke:#80b3ff;stroke-width:0.24999996;stroke-linecap:round;stroke-linejoin:round;stroke-miterlimit:4;stroke-dasharray:none;stroke-dashoffset:0;stroke-opacity:1;marker:none;enable-background:accumulate"
     id="path7653"
     d="M 40.874995,35.813576 7.1250017,35.629044" />
  <path
     inkscape:connector-curvature="0"
     style="display:inline;overflow:visible;visibility:visible;opacity:0.43720931;fill:#80b3ff;fill-opacity:1;fill-rule:evenodd;stroke:#80b3ff;stroke-width:0.24999996;stroke-linecap:round;stroke-linejoin:round;stroke-miterlimit:4;stroke-dasharray:none;stroke-dashoffset:0;stroke-opacity:1;marker:none;enable-background:accumulate"
     id="path7655"
     d="M 40.874996,37.796724 7.1250009,37.612188" />
  <path
     inkscape:connector-curvature="0"
     style="display:inline;overflow:visible;visibility:visible;opacity:0.43720931;fill:#80b3ff;fill-opacity:1;fill-rule:evenodd;stroke:#80b3ff;stroke-width:0.24999996;stroke-linecap:round;stroke-linejoin:round;stroke-miterlimit:4;stroke-dasharray:none;stroke-dashoffset:0;stroke-opacity:1;marker:none;enable-background:accumulate"
     id="path7657"
     d="M 40.874995,39.779873 7.1250018,39.595339" />
  <path
     inkscape:connector-curvature="0"
     style="display:inline;overflow:visible;visibility:visible;opacity:0.43720931;fill:#80b3ff;fill-opacity:1;fill-rule:evenodd;stroke:#80b3ff;stroke-width:0.24999996;stroke-linecap:round;stroke-linejoin:round;stroke-miterlimit:4;stroke-dasharray:none;stroke-dashoffset:0;stroke-opacity:1;marker:none;enable-background:accumulate"
     id="path7659"
     d="M 40.874995,41.874999 7.1250016,41.690466" />
  <path
     inkscape:connector-curvature="0"
     style="display:inline;opacity:0.59069764;fill:none;stroke:#b9d5ff;stroke-width:0.49999991;stroke-linecap:round;stroke-linejoin:round;stroke-miterlimit:4;stroke-dasharray:none;stroke-opacity:1"
     id="path7671"
     d="M 35.25,4.1672721 36.299508,43.667383" />
  <path
     inkscape:connector-curvature="0"
     style="fill:none;stroke:url(#linearGradient3436);stroke-width:1px;stroke-linecap:butt;stroke-linejoin:miter;stroke-opacity:1"
     id="path3715"
     d="m 12.998934,11.546347 2.34797,0 m 0.335425,0 2.180258,0 m 0.350956,0 1.945461,0 m 0.319893,0 0.83856,0 m 0.335425,0 1.878376,0 m 0.368967,0 4.930737,0 m 0.335426,0 3.756752,0 m 0.335425,0 1.140442,0 M 12.998934,13.5 l 3.640632,0 m 0.423562,0 1.739577,0 m 0.321577,0 0.85845,0 m 0.349272,0 1.602406,0 m 0.335425,0 1.643346,0 m 0.31021,0 2.580441,0 m 0.335426,0 3.404208,0 m -17.544532,1.980028 3.081427,0 m 0.323704,0 5.074837,0 m 0.31103,0 2.461186,0 m 0.315453,0 2.30241,0 m 0.330181,0 1.961321,0 m 0.315454,0 L 32.5606,15.5 m -19.561666,2 4.284352,0 m 0.336433,0 4.630578,0 m 0.319893,0 1.81966,0 m 0.335425,0 4.331127,0 m 0.291512,0 2.968536,0 m 0.335426,0 1.174909,0 m 0.335425,0 0.649892,0 m -21.813168,2 1.599235,0 m 0.491344,0 5.921499,0 m -8.012078,10 3.640632,0 m 0.423562,0 1.739577,0 m 0.321577,0 0.85845,0 m 0.349272,0 1.602406,0 m 0.335425,0 1.643346,0 m 0.31021,0 2.580441,0 m -13.804898,3.980028 3.081427,0 m 0.323704,0 5.074837,0 m 0.31103,0 2.461186,0 m 8.697299,0.06136 5.026898,0 M 12.998934,27.5 l 4.284352,0 m 0.336433,0 4.630578,0 m 0.319893,0 1.81966,0 m 0.335425,0 4.331127,0 m -16.057468,-4 2.34797,0 m 0.335425,0 2.180258,0 m 0.350956,0 1.945461,0 m 0.319893,0 0.83856,0 m 0.335425,0 1.878376,0 m 0.368967,0 4.930737,0 m 0.335426,0 3.756752,0 m -19.924206,2 3.954284,0 m 0.311043,0 4.198951,0 m 0.319893,0 1.641931,0 m 0.310036,0 3.950279,0 m 0.316902,0 4.314197,0 m -19.317516,10 3.695207,0 m 0.396663,0 1.629116,0 m 0.381575,0 0.812557,0 m 0.258655,0 1.604035,0 m 0.212949,0 8.492084,0 m 0.399586,0 2.266883,0 m 0.304807,0 0.572374,0 m -16.81675,2 1.20539,0 m -5.415131,0 3.856881,0 m 1.866532,0 2.804548,0 m 0.29667,0 4.116902,0 m 0.319893,0 2.792858,0 m 0.281139,0 0.575511,0 m 0.314681,0 3.546443,0 m 0.362569,0 1.85674,0 m -18.781626,2 1.701949,0 m -5.91169,0 3.856881,0 m 2.423647,0 2.392767,0" />
  <g
     id="layer1"
     transform="translate(3.86e-4,-1.9981849)">
    <path
       style="display:inline;overflow:visible;visibility:visible;opacity:0.3;fill:url(#radialGradient2759);fill-opacity:1;fill-rule:evenodd;stroke:none;stroke-width:0.99999988;marker:none"
       id="path8836"
       transform="matrix(2.149872,0,0,1.6619216,-110.63573,34.289147)"
       inkscape:connector-curvature="0"
       d="m 73.25,4.625 a 10.625,3.625 0 1 1 -21.25,0 10.625,3.625 0 1 1 21.25,0 z" />
    <path
       style="display:inline;fill:url(#linearGradient2780);fill-opacity:1;fill-rule:evenodd;stroke:url(#linearGradient2782);stroke-width:1.25790954;stroke-linecap:round;stroke-linejoin:round;stroke-miterlimit:4;stroke-dasharray:none;stroke-opacity:1"
       id="path11112"
       inkscape:connector-curvature="0"
       d="m 28.183928,24.771802 17.601461,16.2194 -2.439808,3.278384 -17.537714,-17.545053 2.376061,-1.952731 z" />
    <path
       style="display:inline;fill:url(#linearGradient2778);fill-opacity:1;fill-rule:evenodd;stroke:none"
       id="path11122"
       inkscape:connector-curvature="0"
       d="M 43.375247,43.204937 29.259227,25.777711 46.337872,40.616736 43.375247,43.204937 Z" />
    <path
       style="display:inline;fill:#3e3e3e;fill-opacity:1;stroke:none"
       id="path13082"
       transform="matrix(0.3701926,-0.4150383,0.4745098,0.3092893,-97.502604,109.5756)"
       inkscape:connector-curvature="0"
       d="m 247.90924,110.29199 a 4.86685,2.6562012 0 1 1 -9.7337,0 4.86685,2.6562012 0 1 1 9.7337,0 z" />
    <path
       style="display:inline;visibility:visible;fill:url(#radialGradient2776);fill-opacity:1;fill-rule:evenodd;stroke:none;stroke-width:0.88163906;marker:none"
       id="path4452"
       transform="matrix(1.4889549,0,0,1.4383688,-7.506469,-10.003202)"
       inkscape:connector-curvature="0"
       d="m 25.897786,18.478292 a 8.3085051,8.3085051 0 1 1 -16.61701,0 8.3085051,8.3085051 0 1 1 16.61701,0 z" />
    <path
       style="display:inline;overflow:visible;visibility:visible;opacity:0.83422457;fill:url(#radialGradient2774);fill-opacity:1;fill-rule:evenodd;stroke:none;stroke-width:1;marker:none"
       id="path4462"
       inkscape:connector-curvature="0"
       d="m 18.173574,6.2875092 c -6.167668,0 -11.1620724,4.4243448 -11.1620724,9.8880428 0,1.577938 0.1382919,3.207765 0.8807217,4.531967 1.4832709,0.484315 3.4184287,0.635856 5.0907577,0.635856 7.308643,0 13.594949,-5.367693 14.045982,-11.7419735 C 24.978875,7.4552716 21.59337,6.2875092 18.173574,6.2875092 Z" />
    <path
       style="display:inline;fill:url(#linearGradient2770);fill-opacity:1;stroke:url(#linearGradient2772);stroke-width:1.29022872;stroke-linecap:round;stroke-linejoin:round;stroke-miterlimit:4;stroke-dasharray:none;stroke-opacity:1"
       id="path2298"
       inkscape:connector-curvature="0"
       d="m 18.411216,4.6414839 c -7.597567,0 -13.7660654,5.6316951 -13.7660613,12.5678951 0,6.9362 6.1684943,12.567893 13.7660613,12.567894 7.59756,0 13.766059,-5.631694 13.766059,-12.567894 0,-6.9362 -6.168495,-12.5678951 -13.766059,-12.5678951 z m 0.16403,0.824534 c 6.799869,0 12.327628,5.0356991 12.327628,11.2436431 0,6.207944 -5.527759,11.243643 -12.327628,11.243643 -6.799871,1e-6 -12.3150081,-5.035698 -12.3150081,-11.243643 0,-6.207944 5.5151371,-11.2436431 12.3150081,-11.2436431 z" />
    <path
       style="display:inline;fill:url(#linearGradient2768);fill-opacity:1;stroke:none"
       id="path4267"
       inkscape:connector-curvature="0"
       d="m 18.49954,5.0037791 c -7.235544,0 -13.0973151,5.3625389 -13.0973151,11.9682339 0,6.605694 5.8617671,11.968234 13.0973151,11.968233 7.235544,0 13.109932,-5.36254 13.109932,-11.968233 0,-6.605695 -5.874392,-11.9682339 -13.109932,-11.9682339 z m 0.07571,0.4622387 c 6.799867,0 11.788366,5.0356992 11.788366,11.2436432 0,6.207944 -4.988499,10.70972 -11.788366,10.70972 -6.799872,10e-7 -11.8656244,-4.501775 -11.8656244,-10.70972 0,-6.207944 5.0657524,-11.2436432 11.8656244,-11.2436432 z" />
  </g>
</svg>
