<?xml version="1.0" encoding="UTF-8" standalone="no"?>
<!-- Created with Inkscape (http://www.inkscape.org/) -->

<svg
   xmlns:dc="http://purl.org/dc/elements/1.1/"
   xmlns:cc="http://creativecommons.org/ns#"
   xmlns:rdf="http://www.w3.org/1999/02/22-rdf-syntax-ns#"
   xmlns:svg="http://www.w3.org/2000/svg"
   xmlns="http://www.w3.org/2000/svg"
   xmlns:xlink="http://www.w3.org/1999/xlink"
   xmlns:sodipodi="http://sodipodi.sourceforge.net/DTD/sodipodi-0.dtd"
   xmlns:inkscape="http://www.inkscape.org/namespaces/inkscape"
   id="svg4296"
   height="48"
   width="48"
   version="1.1"
   inkscape:version="0.91 r13725"
   sodipodi:docname="mc.svg">
  <sodipodi:namedview
     pagecolor="#ffffff"
     bordercolor="#666666"
     borderopacity="1"
     objecttolerance="10"
     gridtolerance="10"
     guidetolerance="10"
     inkscape:pageopacity="0"
     inkscape:pageshadow="2"
     inkscape:window-width="1535"
     inkscape:window-height="876"
     id="namedview82"
     showgrid="false"
     inkscape:zoom="4.9166667"
     inkscape:cx="-10.779661"
     inkscape:cy="24"
     inkscape:window-x="65"
     inkscape:window-y="24"
     inkscape:window-maximized="1"
     inkscape:current-layer="svg4296" />
  <defs
     id="defs4298">
    <linearGradient
       id="linearGradient4319">
      <stop
         id="stop4321"
         stop-color="#6a9eda"
         offset="0" />
      <stop
         id="stop4323"
         stop-color="#1b499c"
         offset="1" />
    </linearGradient>
    <linearGradient
       id="linearGradient3024"
       y2="43"
       gradientUnits="userSpaceOnUse"
       x2="24"
       gradientTransform="translate(4e-6,1)"
       y1="5"
       x1="24">
      <stop
         id="stop3897"
         stop-color="#fff"
         offset="0" />
      <stop
         id="stop3899"
         stop-color="#fff"
         stop-opacity=".23529"
         offset=".052632" />
      <stop
         id="stop3901"
         stop-color="#fff"
         stop-opacity=".15686"
         offset=".95056" />
      <stop
         id="stop3903"
         stop-color="#fff"
         stop-opacity=".39216"
         offset="1" />
    </linearGradient>
    <radialGradient
       id="radialGradient3038"
       gradientUnits="userSpaceOnUse"
       cy="43.5"
       cx="4.993"
       gradientTransform="matrix(2.0038 0 0 1.4 27.988 -17.4)"
       r="2.5">
      <stop
         id="stop2883"
         stop-color="#181818"
         offset="0" />
      <stop
         id="stop2885"
         stop-color="#181818"
         stop-opacity="0"
         offset="1" />
    </radialGradient>
    <radialGradient
       id="radialGradient3040"
       gradientUnits="userSpaceOnUse"
       cy="43.5"
       cx="4.993"
       gradientTransform="matrix(2.0038 0 0 1.4 -20.012 -104.4)"
       r="2.5">
      <stop
         id="stop2889"
         stop-color="#181818"
         offset="0" />
      <stop
         id="stop2891"
         stop-color="#181818"
         stop-opacity="0"
         offset="1" />
    </radialGradient>
    <linearGradient
       id="linearGradient3042"
       y2="39.999"
       gradientUnits="userSpaceOnUse"
       x2="25.058"
       y1="47.028"
       x1="25.058">
      <stop
         id="stop2895"
         stop-color="#181818"
         stop-opacity="0"
         offset="0" />
      <stop
         id="stop2897"
         stop-color="#181818"
         offset=".5" />
      <stop
         id="stop2899"
         stop-color="#181818"
         stop-opacity="0"
         offset="1" />
    </linearGradient>
    <radialGradient
       id="radialGradient3054-6"
       gradientUnits="userSpaceOnUse"
       cy="9.9571"
       cx="7.1184"
       gradientTransform="matrix(0,9.1402,-11.221,0,136.56,-77.888)"
       r="12.672">
      <stop
         id="stop3750-1-0-7-6-6-1-3-9-3"
         stop-color="#505050"
         offset="0" />
      <stop
         id="stop3752-3-7-4-0-32-8-923-0-7"
         stop-color="#2b2b2b"
         offset=".26238" />
      <stop
         id="stop3754-1-8-5-2-7-6-7-1-9"
         stop-color="#0a0a0a"
         offset=".70495" />
      <stop
         id="stop3756-1-6-2-6-6-1-96-6-0"
         offset="1" />
    </radialGradient>
    <linearGradient
       id="linearGradient4295"
       y2="42.94"
       xlink:href="#linearGradient4319"
       gradientUnits="userSpaceOnUse"
       x2="15.094"
       y1="7.2633"
       x1="15.017" />
    <linearGradient
       id="linearGradient4311"
       y2="42.807"
       xlink:href="#linearGradient4319"
       gradientUnits="userSpaceOnUse"
       x2="33.196"
       y1="7.1306"
       x1="33.517" />
  </defs>
  <metadata
     id="metadata4301">
    <rdf:RDF>
      <cc:Work
         rdf:about="">
        <dc:format>image/svg+xml</dc:format>
        <dc:type
           rdf:resource="http://purl.org/dc/dcmitype/StillImage" />
        <dc:title />
      </cc:Work>
    </rdf:RDF>
  </metadata>
  <g
     id="g4210"
     transform="translate(0,-1)">
    <rect
       x="4.5"
       y="5.5"
       width="39"
       height="39"
       ry="2"
       rx="2"
       style="color:#000000;fill:url(#radialGradient3054-6)"
       id="rect5505-21" />
    <rect
       x="4.5"
       y="5.5"
       width="39"
       height="39"
       ry="2"
       rx="2"
       style="color:#000000;opacity:0.4;fill:none;stroke:#000000;stroke-linecap:round;stroke-linejoin:round"
       id="rect5505-21-3-2" />
    <rect
       x="5.5"
       y="6.5"
       width="37"
       height="37"
       ry="1"
       rx="1"
       id="rect6741"
       style="opacity:0.3;fill:none;stroke:url(#linearGradient3024);stroke-linecap:round;stroke-linejoin:round" />
    <path
       d="m 6.6309,7.0957 c -0.277,0 -0.5,0.223 -0.5,0.5 l 0,34.879 c 0,0.277 0.223,0.5 0.5,0.5 l 16.186,0 c 0.277,0 0.5,-0.223 0.5,-0.5 l 0,-34.879 c 0,-0.277 -0.223,-0.5 -0.5,-0.5 z"
       id="rect4212"
       style="fill:url(#linearGradient4295);fill-rule:evenodd"
       inkscape:connector-curvature="0" />
    <path
       d="m 25.131,7.0957 c -0.277,0 -0.5,0.223 -0.5,0.5 l 0,34.879 c 0,0.277 0.223,0.5 0.5,0.5 l 16.186,0 c 0.277,0 0.5,-0.223 0.5,-0.5 l 0,-34.879 c 0,-0.277 -0.223,-0.5 -0.5,-0.5 z"
       id="rect4237"
       style="fill:url(#linearGradient4311)"
       inkscape:connector-curvature="0" />
    <g
       transform="translate(1,0)"
       id="g4261">
      <g
         transform="translate(0,0.5)"
         id="g4409"
         style="opacity:0.15">
        <path
           d="m 7,11 7,0 0,1 -7,0 z"
           id="path4411"
           inkscape:connector-curvature="0"
           style="opacity:1" />
        <path
           d="m 7,14 5,0 0,1 -5,0 z"
           id="path4413"
           inkscape:connector-curvature="0"
           style="opacity:1" />
        <path
           d="m 7,17 7,0 0,1 -7,0 z"
           id="path4415"
           inkscape:connector-curvature="0"
           style="opacity:1" />
        <path
           d="m 7,20 10,0 0,1 -10,0 z"
           id="path4417"
           inkscape:connector-curvature="0"
           style="opacity:1" />
        <path
           d="m 7,23 9,0 0,1 -9,0 z"
           id="path4419"
           inkscape:connector-curvature="0"
           style="opacity:1" />
        <path
           d="m 7,26 5,0 0,1 -5,0 z"
           id="path4421"
           inkscape:connector-curvature="0"
           style="opacity:1" />
        <path
           d="m 7,29 9,0 0,1 -9,0 z"
           id="path4423"
           inkscape:connector-curvature="0"
           style="opacity:1" />
        <path
           d="M 7,8 8,8 8,9 7,9 Z"
           id="path4425"
           inkscape:connector-curvature="0"
           style="opacity:1" />
        <path
           d="m 26,8 1,0 0,1 -1,0 z"
           id="path4427"
           inkscape:connector-curvature="0"
           style="opacity:1" />
        <path
           d="m 26,27 5,0 0,-1 -5,0 z"
           id="path4429"
           inkscape:connector-curvature="0"
           style="opacity:1" />
        <path
           d="m 26,24 7,0 0,-1 -7,0 z"
           id="path4431"
           inkscape:connector-curvature="0"
           style="opacity:1" />
        <path
           d="m 26,21 5,0 0,-1 -5,0 z"
           id="path4433"
           inkscape:connector-curvature="0"
           style="opacity:1" />
        <path
           d="m 26,18 9,0 0,-1 -9,0 z"
           id="path4435"
           inkscape:connector-curvature="0"
           style="opacity:1" />
        <path
           d="m 26,15 4,0 0,-1 -4,0 z"
           id="path4437"
           inkscape:connector-curvature="0"
           style="opacity:1" />
        <path
           d="m 26,12 6,0 0,-1 -6,0 z"
           id="path4439"
           inkscape:connector-curvature="0"
           style="opacity:1" />
        <path
           d="m 15,11 2,0 0,1 -2,0 z"
           id="path4441"
           inkscape:connector-curvature="0"
           style="opacity:1" />
        <path
           d="m 15,17 2,0 0,1 -2,0 z"
           id="path4443"
           inkscape:connector-curvature="0"
           style="opacity:1" />
        <path
           d="m 13,26 2,0 0,1 -2,0 z"
           id="path4445"
           inkscape:connector-curvature="0"
           style="opacity:1" />
        <path
           d="m 31,14 2,0 0,1 -2,0 z"
           id="path4447"
           inkscape:connector-curvature="0"
           style="opacity:1" />
        <path
           d="m 32,20 2,0 0,1 -2,0 z"
           id="path4449"
           inkscape:connector-curvature="0"
           style="opacity:1" />
      </g>
      <g
         id="g4387"
         style="fill:#ffffff">
        <path
           d="m 7,11 7,0 0,1 -7,0 z"
           id="rect4223"
           inkscape:connector-curvature="0" />
        <path
           d="m 7,14 5,0 0,1 -5,0 z"
           id="path4226"
           inkscape:connector-curvature="0" />
        <path
           d="m 7,17 7,0 0,1 -7,0 z"
           id="path4228"
           inkscape:connector-curvature="0" />
        <path
           d="m 7,20 10,0 0,1 -10,0 z"
           id="path4230"
           inkscape:connector-curvature="0" />
        <path
           d="m 7,23 9,0 0,1 -9,0 z"
           id="path4232"
           inkscape:connector-curvature="0" />
        <path
           d="m 7,26 5,0 0,1 -5,0 z"
           id="path4234"
           inkscape:connector-curvature="0" />
        <path
           d="m 7,29 9,0 0,1 -9,0 z"
           id="path4236"
           inkscape:connector-curvature="0" />
        <path
           d="M 7,8 8,8 8,9 7,9 Z"
           id="path4254"
           inkscape:connector-curvature="0" />
        <path
           d="m 26,8 1,0 0,1 -1,0 z"
           id="path4256"
           inkscape:connector-curvature="0" />
        <path
           d="m 26,27 5,0 0,-1 -5,0 z"
           id="path4271"
           inkscape:connector-curvature="0" />
        <path
           d="m 26,24 7,0 0,-1 -7,0 z"
           id="path4273"
           inkscape:connector-curvature="0" />
        <path
           d="m 26,21 5,0 0,-1 -5,0 z"
           id="path4275"
           inkscape:connector-curvature="0" />
        <path
           d="m 26,18 9,0 0,-1 -9,0 z"
           id="path4277"
           inkscape:connector-curvature="0" />
        <path
           d="m 26,15 4,0 0,-1 -4,0 z"
           id="path4279"
           inkscape:connector-curvature="0" />
        <path
           d="m 26,12 6,0 0,-1 -6,0 z"
           id="path4281"
           inkscape:connector-curvature="0" />
        <path
           d="m 15,11 2,0 0,1 -2,0 z"
           id="path4297"
           inkscape:connector-curvature="0" />
        <path
           d="m 15,17 2,0 0,1 -2,0 z"
           id="path4299"
           inkscape:connector-curvature="0" />
        <path
           d="m 13,26 2,0 0,1 -2,0 z"
           id="path4301"
           inkscape:connector-curvature="0" />
        <path
           d="m 31,14 2,0 0,1 -2,0 z"
           id="path4303"
           inkscape:connector-curvature="0" />
        <path
           d="m 32,20 2,0 0,1 -2,0 z"
           id="path4385"
           inkscape:connector-curvature="0" />
      </g>
    </g>
  </g>
</svg>
