<?xml version="1.0" encoding="UTF-8" standalone="no"?>
<!-- Created with Inkscape (http://www.inkscape.org/) -->
<svg id="svg4061" xmlns:rdf="http://www.w3.org/1999/02/22-rdf-syntax-ns#" xmlns="http://www.w3.org/2000/svg" height="48" width="48" version="1.1" xmlns:cc="http://creativecommons.org/ns#" xmlns:xlink="http://www.w3.org/1999/xlink" xmlns:dc="http://purl.org/dc/elements/1.1/">
 <defs id="defs4063">
  <linearGradient id="linearGradient3026" y2="40.496" gradientUnits="userSpaceOnUse" x2="71.204" gradientTransform="matrix(1.617 0 0 1.617 -92.707 -21.06)" y1="15.369" x1="71.204">
   <stop id="stop4808-4" stop-color="#fff" offset="0"/>
   <stop id="stop4810-0" stop-color="#fff" stop-opacity=".23529" offset=".42448"/>
   <stop id="stop4812-8" stop-color="#fff" stop-opacity=".15686" offset=".82090"/>
   <stop id="stop4814-0" stop-color="#fff" stop-opacity=".39216" offset="1"/>
  </linearGradient>
  <radialGradient id="radialGradient3029" fx="4.459" fy="8.5089" gradientUnits="userSpaceOnUse" cy="8.6258" cx="15.026" gradientTransform="matrix(-3.4973e-8 1.8855 -1.7764 -5.4723e-8 39.14 -7.9932)" r="20">
   <stop id="stop4170" stop-color="#ff9696" offset="0"/>
   <stop id="stop4172" stop-color="#fd7676" offset=".26238"/>
   <stop id="stop4174" stop-color="#f94040" offset=".66094"/>
   <stop id="stop4176" stop-color="#e42020" offset="1"/>
  </radialGradient>
  <radialGradient id="radialGradient3032" gradientUnits="userSpaceOnUse" cy="3.99" cx="23.896" gradientTransform="matrix(0 2.8885 -3.8128 0 39.213 -65.95)" r="20.397">
   <stop id="stop3244-9-33-7-0-9" stop-color="#fff" offset="0"/>
   <stop id="stop3246-3-5-0-8-5" stop-color="#ddd" offset=".26238"/>
   <stop id="stop3248-1-7-8-8-1" stop-color="#abacae" offset=".66094"/>
   <stop id="stop3250-9-3-0-5-1" stop-color="#89898b" offset="1"/>
  </radialGradient>
  <radialGradient id="radialGradient3035" gradientUnits="userSpaceOnUse" cy="186.17" cx="99.157" gradientTransform="matrix(.27083 0 0 .087623 -2.8551 25.187)" r="62.769">
   <stop id="stop3822-2-6-3" stop-color="#3d3d3d" offset="0"/>
   <stop id="stop3864-8-7-7" stop-color="#686868" stop-opacity=".49804" offset=".5"/>
   <stop id="stop3824-1-2-5" stop-color="#686868" stop-opacity="0" offset="1"/>
  </radialGradient>
 </defs>
 <metadata id="metadata4066">
  <rdf:RDF>
   <cc:Work rdf:about="">
    <dc:format>image/svg+xml</dc:format>
    <dc:type rdf:resource="http://purl.org/dc/dcmitype/StillImage"/>
    <dc:title/>
   </cc:Work>
  </rdf:RDF>
 </metadata>
 <path id="path3818-0-5" d="m41 41.5a17 5.5 0 0 1 -34 0 17 5.5 0 1 1 34 0z" fill="url(#radialGradient3035)"/>
 <path id="path2555-7-2" style="color:#000000" d="m24 3.5c-11.311 0-20.5 9.189-20.5 20.5s9.189 20.5 20.5 20.5 20.5-9.189 20.5-20.5-9.189-20.5-20.5-20.5z" fill="url(#radialGradient3032)"/>
 <path id="path2555-7-65" style="color:#000000" d="m24 3.5c-11.311 0-20.5 9.189-20.5 20.5s9.189 20.5 20.5 20.5 20.5-9.189 20.5-20.5-9.189-20.5-20.5-20.5z" fill="url(#radialGradient3029)"/>
 <path id="path4176" opacity=".5" stroke-linejoin="round" style="color:#000000" d="m43.5 24c0 10.77-8.73 19.5-19.5 19.5s-19.5-8.73-19.5-19.5 8.73-19.5 19.5-19.5 19.5 8.73 19.5 19.5z" stroke="url(#linearGradient3026)" stroke-linecap="round" fill="none"/>
 <path id="path2555-7-1-7" opacity=".5" stroke-linejoin="round" style="color:#000000" d="m24 3.5001c-11.311 0-20.5 9.1888-20.5 20.5s9.1888 20.5 20.5 20.5 20.5-9.1888 20.5-20.5-9.189-20.5-20.5-20.5z" stroke="#980000" stroke-linecap="round" fill="none"/>
 <path id="text4182" opacity=".15" style="color-rendering:auto;text-decoration-color:#000000;color:#000000;isolation:auto;mix-blend-mode:normal;shape-rendering:auto;solid-color:#000000;block-progression:tb;text-decoration-line:none;text-decoration-style:solid;image-rendering:auto;white-space:normal;text-indent:0;text-transform:none" d="m14.001 13.999a0.99946 1.0007 0 0 0 -0.99936 1.0006v18a0.99946 1.0007 0 0 0 0.99936 1.0006h4.3937a0.99946 1.0007 0 0 0 0.99936 -1.0006v-8.2767l2.2232 5.2103a0.99946 1.0007 0 0 0 0.91934 0.60781h2.9395a0.99946 1.0007 0 0 0 0.91738 -0.60781l2.2251-5.2143v8.2807a0.99946 1.0007 0 0 0 0.99936 1.0006h4.382a0.99946 1.0007 0 0 0 0.99936 -1.0006v-18a0.99946 1.0007 0 0 0 -0.99936 -1.0006h-5.8888a0.99946 1.0007 0 0 0 -0.91738 0.60781l-3.1972 7.4774-3.1777-7.4755a0.99946 1.0007 0 0 0 -0.91934 -0.60976h-5.8986zm0.99936 2.0013h4.2395l3.8355 9.0253a0.99946 1.0007 0 0 0 1.8367 0.002l3.8589-9.0272h4.2297v15.998h-2.3832v-12.164a0.99946 1.0007 0 0 0 -1.9187 -0.39283l-3.8823 9.0976h-1.6201l-3.8823-9.0976a0.99946 1.0007 0 0 0 -1.9187 0.39283v12.164h-2.395v-15.998z"/>
 <path id="text4190" opacity=".15" style="color-rendering:auto;text-decoration-color:#000000;color:#000000;isolation:auto;mix-blend-mode:normal;shape-rendering:auto;solid-color:#000000;block-progression:tb;text-decoration-line:none;text-decoration-style:solid;image-rendering:auto;white-space:normal;text-indent:0;text-transform:none" d="m14.001 14.5a0.49973 0.50037 0 0 0 -0.49968 0.50032v18a0.49973 0.50037 0 0 0 0.5 0.5h4.3937a0.49973 0.50037 0 0 0 0.49968 -0.50032v-10.724l3.1835 7.4598a0.49973 0.50037 0 0 0 0.45869 0.30488h2.9395a0.49973 0.50037 0 0 0 0.45869 -0.30488l3.1835-7.4598v10.724a0.49973 0.50037 0 0 0 0.5 0.5h4.382a0.49973 0.50037 0 0 0 0.49968 -0.50032v-18a0.49973 0.50037 0 0 0 -0.49968 -0.50032h-5.8888a0.49973 0.50037 0 0 0 -0.45869 0.30293l-3.6578 8.5562-3.6344-8.5543a0.49973 0.50037 0 0 0 -0.46064 -0.30488h-5.8986zm0.49968 1.0006h5.069l3.9643 9.3282a0.49973 0.50037 0 0 0 0.91934 0.002l3.9877-9.3302h5.0593v16.999h-3.3826v-12.664a0.49973 0.50037 0 0 0 -0.96033 -0.19739l-4.0111 9.4025h-2.2798l-4.0111-9.4025a0.49973 0.50037 0 0 0 -0.96033 0.19739v12.664h-3.3943v-16.999z"/>
 <g id="text4178" fill="#fff" transform="scale(.99936 1.0006)">
  <path id="path4177" d="m14.009 14.99h5.9038l4.0965 9.6268 4.1206-9.6268h5.8918v17.989h-4.3857v-13.157l-4.1447 9.6991h-2.9399l-4.1447-9.6991v13.157h-4.3977v-17.989z"/>
 </g>
</svg>
