<?xml version="1.0" encoding="UTF-8" standalone="no"?>
<svg
   xmlns:dc="http://purl.org/dc/elements/1.1/"
   xmlns:cc="http://creativecommons.org/ns#"
   xmlns:rdf="http://www.w3.org/1999/02/22-rdf-syntax-ns#"
   xmlns:svg="http://www.w3.org/2000/svg"
   xmlns="http://www.w3.org/2000/svg"
   xmlns:sodipodi="http://sodipodi.sourceforge.net/DTD/sodipodi-0.dtd"
   xmlns:inkscape="http://www.inkscape.org/namespaces/inkscape"
   height="48"
   width="48"
   version="1.1"
   viewBox="0 0 48 48.000001"
   id="svg2"
   inkscape:version="0.91 r13725"
   sodipodi:docname="messengerfordesktop.svg">
  <metadata
     id="metadata51">
    <rdf:RDF>
      <cc:Work
         rdf:about="">
        <dc:format>image/svg+xml</dc:format>
        <dc:type
           rdf:resource="http://purl.org/dc/dcmitype/StillImage" />
      </cc:Work>
    </rdf:RDF>
  </metadata>
  <sodipodi:namedview
     pagecolor="#ffffff"
     bordercolor="#666666"
     borderopacity="1"
     objecttolerance="10"
     gridtolerance="10"
     guidetolerance="10"
     inkscape:pageopacity="0"
     inkscape:pageshadow="2"
     inkscape:window-width="1535"
     inkscape:window-height="876"
     id="namedview49"
     showgrid="false"
     inkscape:zoom="4.9166667"
     inkscape:cx="-9.7627119"
     inkscape:cy="24"
     inkscape:window-x="65"
     inkscape:window-y="24"
     inkscape:window-maximized="1"
     inkscape:current-layer="svg2" />
  <defs
     id="defs4">
    <radialGradient
       id="d"
       gradientUnits="userSpaceOnUse"
       cy="186.17"
       cx="99.157"
       gradientTransform="matrix(0.270825,0,0,0.103555,-2.8545,19.17)"
       r="62.769">
      <stop
         stop-color="#3d3d3d"
         offset="0"
         id="stop7" />
      <stop
         stop-color="#686868"
         stop-opacity=".49804"
         offset=".5"
         id="stop9" />
      <stop
         stop-color="#686868"
         stop-opacity="0"
         offset="1"
         id="stop11" />
    </radialGradient>
    <linearGradient
       id="c"
       y2="-241.75"
       gradientUnits="userSpaceOnUse"
       x2="48.97"
       y1="-209.75"
       x1="48.97"
       gradientTransform="matrix(1.25,0,0,-1.25,-37.212,-258.23)">
      <stop
         stop-color="#fff"
         offset="0"
         id="stop14" />
      <stop
         stop-color="#fff"
         stop-opacity=".23529"
         offset=".50776"
         id="stop16" />
      <stop
         stop-color="#fff"
         stop-opacity=".15686"
         offset=".83457"
         id="stop18" />
      <stop
         stop-color="#fff"
         stop-opacity=".39216"
         offset="1"
         id="stop20" />
    </linearGradient>
    <radialGradient
       id="b"
       gradientUnits="userSpaceOnUse"
       cy="-3.0867"
       cx="24.948"
       gradientTransform="matrix(0,2.439,-2.2439,0,17.0745,-64.8915)"
       r="20.5">
      <stop
         stop-color="#90dbec"
         offset="0"
         id="stop23" />
      <stop
         stop-color="#42baea"
         offset=".26238"
         id="stop25" />
      <stop
         stop-color="#3689e6"
         offset=".70495"
         id="stop27" />
      <stop
         stop-color="#2b63a0"
         offset="1"
         id="stop29" />
    </radialGradient>
  </defs>
  <path
     d="m 23.9985,3.4575 c -11.347,0 -20.498,8.521 -20.498,19 0.0095,5.798 2.8745,11.28 7.797,14.883 l 0.201,0.15 0,6.612 6.295,-3.541 0.199,0.058 c 1.946,0.554 3.97,0.836 6.006,0.838 11.347,0 20.502,-8.521 20.502,-19 0,-10.479 -9.155,-19 -20.502,-19 z"
     id="path37"
     style="fill:url(#b)"
     inkscape:connector-curvature="0" />
  <path
     d="m 23.9985,3.4575 c -11.347,0 -20.498,8.521 -20.498,19 0.0095,5.798 2.8745,11.28 7.797,14.883 l 0.201,0.15 0,6.612 6.295,-3.541 0.199,0.058 c 1.946,0.554 3.97,0.836 6.006,0.838 11.347,0 20.502,-8.521 20.502,-19 0,-10.479 -9.155,-19 -20.502,-19 z"
     id="path39"
     inkscape:connector-curvature="0"
     style="opacity:0.5;fill:none;stroke:#00537d;stroke-linecap:round" />
  <path
     d="m 23.998,4.4575 c -10.845625,0 -19.4975,8.102625 -19.4975,17.9975 l 0,0.0025 c 0.00963,5.46925 2.70575,10.65 7.38675,14.07625 l 0.0039,0.0038 0.607425,0.455075 0,5.402375 5.171875,-2.910125 0.5957,0.175787 0.0079,0.0025 c 1.853375,0.52715 3.7835,0.795625 5.724625,0.796875 10.846375,0 19.5025,-8.103875 19.5025,-18 0,-9.896125 -8.6555,-17.9999995 -19.5025,-17.9999995 l 0,-0.0025 z"
     id="path41"
     style="opacity:0.5;fill:none;stroke:url(#c);stroke-width:1;stroke-linecap:round"
     inkscape:connector-curvature="0" />
  <path
     d="m 26.173,30.4075 -5.40075,-5.81625 -10.538,5.81625 11.591875,-12.425625 5.5325,5.81625 10.40625,-5.81625 L 26.173,30.4075 Z"
     id="path43"
     inkscape:connector-curvature="0"
     style="opacity:0.15" />
  <path
     style="color:#000000;text-indent:0;text-decoration:none;text-decoration-line:none;text-decoration-style:solid;text-decoration-color:#000000;text-transform:none;block-progression:tb;white-space:normal;opacity:0.05;isolation:auto;mix-blend-mode:normal;solid-color:#000000;color-rendering:auto;image-rendering:auto;shape-rendering:auto"
     d="M 10.23925,31.4075 A 1.0001,1.0001 0 0 1 9.5043875,29.725375 L 21.096137,17.301 a 1.0001,1.0001 0 0 1 1.455125,-0.0075 l 4.9975,5.253875 9.729,-5.437 A 1.0001,1.0001 0 0 1 38.496025,18.6655 L 26.904275,31.08975 A 1.0001,1.0001 0 0 1 25.4419,31.08725 l -4.870625,-5.24175 -9.8535,5.437 a 1.0001,1.0001 0 0 1 -0.478513,0.1245 z m 15.935,-2.46825 6.499,-6.965375 -4.826625,2.69775 a 1.0001,1.0001 0 0 1 -1.210938,-0.183113 l -4.80225,-5.046375 -6.582,7.055625 5.039,-2.78075 a 1.0001,1.0001 0 0 1 1.215825,0.195313 l 4.668,5.026875 z"
     id="path45"
     inkscape:connector-curvature="0" />
  <path
     d="m 26.173,29.4075 -5.40075,-5.81625 -10.538,5.81625 11.591875,-12.425625 5.5325,5.81625 10.40625,-5.81625 L 26.173,29.4075 Z"
     id="path47"
     inkscape:connector-curvature="0"
     style="fill:#ffffff" />
</svg>
