<?xml version="1.0" encoding="UTF-8" standalone="no"?>
<svg id="svg2" xmlns:rdf="http://www.w3.org/1999/02/22-rdf-syntax-ns#" xmlns="http://www.w3.org/2000/svg" height="100%" width="100%" version="1.1" xmlns:cc="http://creativecommons.org/ns#" xmlns:xlink="http://www.w3.org/1999/xlink" viewBox="0 0 48 48" xmlns:dc="http://purl.org/dc/elements/1.1/">
 <metadata id="metadata490">
  <rdf:RDF>
   <cc:Work rdf:about="">
    <dc:format>image/svg+xml</dc:format>
    <dc:type rdf:resource="http://purl.org/dc/dcmitype/StillImage"/>
    <dc:title/>
   </cc:Work>
  </rdf:RDF>
 </metadata>
 <defs id="defs4">
  <clipPath id="5">
   <path id="path7" d="m6.5 4c-1.376 0-2.5 1.124-2.5 2.5v35c0 1.376 1.124 2.5 2.5 2.5h35c1.376 0 2.5-1.124 2.5-2.5v-35c0-1.376-1.124-2.5-2.5-2.5z"/>
  </clipPath>
  <linearGradient id="4" y1="47.03" x2="0" y2="39.999" gradientUnits="userSpaceOnUse">
   <stop id="stop10" stop-color="#181818" stop-opacity="0" offset="0"/>
   <stop id="stop12" stop-color="#181818" offset=".5"/>
   <stop id="stop14" stop-color="#181818" stop-opacity="0" offset="1"/>
  </linearGradient>
  <linearGradient id="0">
   <stop id="stop17" stop-color="#181818" offset="0"/>
   <stop id="stop19" stop-color="#181818" stop-opacity="0" offset="1"/>
  </linearGradient>
  <linearGradient id="1" y1="6" x2="0" y2="44" gradientUnits="userSpaceOnUse">
   <stop id="stop22" stop-color="#fff" offset="0"/>
   <stop id="stop24" stop-color="#fff" stop-opacity=".235" offset=".053"/>
   <stop id="stop26" stop-color="#fff" stop-opacity=".157" offset=".951"/>
   <stop id="stop28" stop-color="#fff" stop-opacity=".392" offset="1"/>
  </linearGradient>
  <radialGradient id="3" xlink:href="#0" gradientUnits="userSpaceOnUse" cy="43.5" cx="4.993" gradientTransform="matrix(2.0038 0 0 1.4-20.01-104.4)" r="2.5"/>
  <radialGradient id="2" xlink:href="#0" gradientUnits="userSpaceOnUse" cy="43.5" cx="4.993" gradientTransform="matrix(2.0038 0 0 1.4 27.988-17.4)" r="2.5"/>
 </defs>
 <g id="g32" opacity=".6" transform="matrix(1.1579 0 0 .64286-3.789 16.04)">
  <path id="path34" d="m38 40h5v7h-5z" fill="url(#2)"/>
  <path id="path36" d="m-10-47h5v7h-5z" transform="scale(-1)" fill="url(#3)"/>
  <path id="path38" d="m10 40h28v7h-28z" fill="url(#4)"/>
 </g>
 <g id="g40" transform="translate(0 1)" clip-path="url(#5)">
  <path id="path42" d="m21 27h3v3h-3z" fill="#583c28"/>
  <path id="path44" d="m18 27h3v3h-3z" fill="#785439"/>
  <path id="path46" d="m18 30h3v3h-3z" fill="#583c28"/>
  <path id="path48" d="m18 33h3v3h-3z" fill="#b8845b"/>
  <path id="path50" d="m18 36h3v3h-3z" fill="#785439"/>
  <path id="path52" d="m18 39h3v3h-3z" fill="#b8845b"/>
  <path id="path54" d="m18 42h3v3h-3z" fill="#956b49"/>
  <path id="path56" d="m21 30h3v3h-3z" fill="#785439"/>
  <g id="g58" fill="#956b49">
   <path id="path60" d="m21 33h3v3h-3z"/>
   <path id="path62" d="m21 36h3v3h-3z"/>
  </g>
  <path id="path64" d="m21 39h3v3h-3z" fill="#785439"/>
  <path id="path66" d="m21 42h3v3h-3z" fill="#956b49"/>
  <path id="path68" d="m21 18h3v3h-3z" fill="#583c28"/>
  <path id="path70" d="m21 21h3v3h-3z" fill="#b8845b"/>
  <path id="path72" d="m21 24h3v3h-3z" fill="#785439"/>
  <path id="path74" d="m3 18h3v3h-3z" fill="#583c28"/>
  <path id="path76" d="m3 21h3v3h-3z" fill="#785439"/>
  <path id="path78" d="m6 18h3v3h-3z" fill="#956b49"/>
  <path id="path80" d="m6 21h3v3h-3z" fill="#785439"/>
  <path id="path82" d="m9 18h3v3h-3z" fill="#956b49"/>
  <g id="g84" fill="#785439">
   <path id="path86" d="m9 21h3v3h-3z"/>
   <path id="path88" d="m12 18h3v3h-3z"/>
  </g>
  <path id="path90" d="m12 21h3v3h-3z" fill="#868686"/>
  <path id="path92" d="m15 18h3v3h-3z" fill="#956b49"/>
  <path id="path94" d="m15 21h3v3h-3z" fill="#785439"/>
  <path id="path96" d="m18 18h3v3h-3z" fill="#583c28"/>
  <g id="g98" fill="#785439">
   <path id="path100" d="m18 21h3v3h-3z"/>
   <path id="path102" d="m3 24h3v3h-3z"/>
   <path id="path104" d="m3 27h3v3h-3z"/>
  </g>
  <g id="g106" fill="#956b49">
   <path id="path108" d="m3 30h3v3h-3z"/>
   <path id="path110" d="m3 33h3v3h-3z"/>
  </g>
  <path id="path112" d="m3 36h3v3h-3z" fill="#785439"/>
  <path id="path114" d="m3 39h3v3h-3z" fill="#583c28"/>
  <path id="path116" d="m3 42h3v3h-0.375s-2.625 0-2.625-2.625z" fill="#956b49"/>
  <path id="path118" d="m6 24h3v3h-3z" fill="#b8845b"/>
  <path id="path120" d="m6 27h3v3h-3z" fill="#785439"/>
  <path id="path122" d="m6 30h3v3h-3z" fill="#583c28"/>
  <g id="g124" fill="#785439">
   <path id="path126" d="m6 33h3v3h-3z"/>
   <path id="path128" d="m6 36h3v3h-3z"/>
  </g>
  <path id="path130" d="m6 39h3v3h-3z" fill="#956b49"/>
  <path id="path132" d="m6 42h3v3h-3z" fill="#785439"/>
  <path id="path134" d="m9 24h3v3h-3z" fill="#b8845b"/>
  <path id="path136" d="m9 27h3v3h-3z" fill="#956b49"/>
  <path id="path138" d="m9 30h3v3h-3z" fill="#785439"/>
  <path id="path140" d="m9 33h3v3h-3z" fill="#b8845b"/>
  <path id="path142" d="m9 36h3v3h-3z" fill="#956b49"/>
  <g id="g144" fill="#785439">
   <path id="path146" d="m9 39h3v3h-3z"/>
   <path id="path148" d="m9 42h3v3h-3z"/>
  </g>
  <path id="path150" d="m12 24h3v3h-3z" fill="#956b49"/>
  <g id="g152" fill="#785439">
   <path id="path154" d="m12 27h3v3h-3z"/>
   <path id="path156" d="m12 30h3v3h-3z"/>
  </g>
  <path id="path158" d="m12 33h3v3h-3z" fill="#b8845b"/>
  <g id="g160" fill="#956b49">
   <path id="path162" d="m12 36h3v3h-3z"/>
   <path id="path164" d="m12 39h3v3h-3z"/>
  </g>
  <path id="path166" d="m12 42h3v3h-3z" fill="#583c28"/>
  <g id="g168" fill="#956b49">
   <path id="path170" d="m15 24h3v3h-3z"/>
   <path id="path172" d="m15 27h3v3h-3z"/>
  </g>
  <path id="path174" d="m15 30h3v3h-3z" fill="#583c28"/>
  <path id="path176" d="m15 33h3v3h-3z" fill="#785439"/>
  <path id="path178" d="m15 36h3v3h-3z" fill="#b8845b"/>
  <path id="path180" d="m15 39h3v3h-3z" fill="#956b49"/>
  <g id="g182" fill="#785439">
   <path id="path184" d="m15 42h3v3h-3z"/>
   <path id="path186" d="m18 24h3v3h-3z"/>
   <path id="path188" d="m24 27h3v3h-3z"/>
  </g>
  <g id="g190" fill="#956b49">
   <path id="path192" d="m27 27h3v3h-3z"/>
   <path id="path194" d="m30 27h3v3h-3z"/>
  </g>
  <g id="g196" fill="#785439">
   <path id="path198" d="m33 27h3v3h-3z"/>
   <path id="path200" d="m36 27h3v3h-3z"/>
   <path id="path202" d="m39 27h3v3h-3z"/>
  </g>
  <path id="path204" d="m42 27h3v3h-3z" fill="#583c28"/>
  <path id="path206" d="m24 30h3v3h-3z" fill="#785439"/>
  <path id="path208" d="m24 33h3v3h-3z" fill="#583c28"/>
  <path id="path210" d="m24 36h3v3h-3z" fill="#6b6b6b"/>
  <g id="g212" fill="#785439">
   <path id="path214" d="m24 39h3v3h-3z"/>
   <path id="path216" d="m24 42h3v3h-3z"/>
   <path id="path218" d="m27 30h3v3h-3z"/>
  </g>
  <path id="path220" d="m27 33h3v3h-3z" fill="#b8845b"/>
  <path id="path222" d="m27 36h3v3h-3z" fill="#956b49"/>
  <path id="path224" d="m27 39h3v3h-3z" fill="#785439"/>
  <path id="path226" d="m27 42h3v3h-3z" fill="#583c28"/>
  <path id="path228" d="m30 30h3v3h-3z" fill="#785439"/>
  <path id="path230" d="m30 33h3v3h-3z" fill="#b8845b"/>
  <path id="path232" d="m30 36h3v3h-3z" fill="#956b49"/>
  <path id="path234" d="m30 39h3v3h-3z" fill="#785439"/>
  <path id="path236" d="m30 42h3v3h-3z" fill="#b8845b"/>
  <path id="path238" d="m33 30h3v3h-3z" fill="#785439"/>
  <path id="path240" d="m33 33h3v3h-3z" fill="#583c28"/>
  <g id="g242" fill="#785439">
   <path id="path244" d="m33 36h3v3h-3z"/>
   <path id="path246" d="m33 39h3v3h-3z"/>
  </g>
  <path id="path248" d="m33 42h3v3h-3z" fill="#583c28"/>
  <path id="path250" d="m36 30h3v3h-3z" fill="#b8845b"/>
  <path id="path252" d="m36 33h3v3h-3z" fill="#956b49"/>
  <path id="path254" d="m36 36h3v3h-3z" fill="#583c28"/>
  <g id="g256" fill="#785439">
   <path id="path258" d="m36 39h3v3h-3z"/>
   <path id="path260" d="m36 42h3v3h-3z"/>
  </g>
  <path id="path262" d="m39 30h3v3h-3z" fill="#b8845b"/>
  <g id="g264" fill="#956b49">
   <path id="path266" d="m39 33h3v3h-3z"/>
   <path id="path268" d="m39 36h3v3h-3z"/>
  </g>
  <path id="path270" d="m39 39h3v3h-3z" fill="#785439"/>
  <path id="path272" d="m39 42h3v3h-3z" fill="#b8845b"/>
  <path id="path274" d="m42 30h3v3h-3z" fill="#785439"/>
  <path id="path276" d="m42 33h3v3h-3z" fill="#868686"/>
  <path id="path278" d="m42 36h3v3h-3z" fill="#785439"/>
  <path id="path280" d="m42 39h3v3h-3z" fill="#b8845b"/>
  <path id="path282" d="m42 42h3v0.375s0 2.625-2.625 2.625h-0.375z" fill="#583c28"/>
  <path id="path284" d="m21 3h3v3h-3z" fill="#6bab41"/>
  <path id="path286" d="m21 6h3v3h-3z" fill="#61a137"/>
  <g id="g288" fill="#583c28">
   <path id="path290" d="m21 9h3v3h-3z"/>
   <path id="path292" d="m21 12h3v3h-3z"/>
  </g>
  <path id="path294" d="m21 15h3v3h-3z" fill="#785439"/>
  <path id="path296" d="m24 3h3v3h-3z" fill="#7dbd53"/>
  <path id="path298" d="m24 6h3v3h-3z" fill="#5e9e34"/>
  <path id="path300" d="m24 9h3v3h-3z" fill="#73b349"/>
  <path id="path302" d="m24 12h3v3h-3z" fill="#5e9e34"/>
  <g id="g304" fill="#583c28">
   <path id="path306" d="m24 15h3v3h-3z"/>
   <path id="path308" d="m24 18h3v3h-3z"/>
  </g>
  <path id="path310" d="m24 21h3v3h-3z" fill="#b8845b"/>
  <path id="path312" d="m24 24h3v3h-3z" fill="#956b49"/>
  <path id="path314" d="m27 3h3v3h-3z" fill="#75b54b"/>
  <path id="path316" d="m27 6h3v3h-3z" fill="#92c162"/>
  <path id="path318" d="m27 9h3v3h-3z" fill="#7ebe54"/>
  <g id="g320" fill="#583c28">
   <path id="path322" d="m27 12h3v3h-3z"/>
   <path id="path324" d="m27 15h3v3h-3z"/>
  </g>
  <g id="g326" fill="#785439">
   <path id="path328" d="m27 18h3v3h-3z"/>
   <path id="path330" d="m27 21h3v3h-3z"/>
  </g>
  <path id="path332" d="m27 24h3v3h-3z" fill="#583c28"/>
  <path id="path334" d="m30 3h3v3h-3z" fill="#69a93f"/>
  <path id="path336" d="m30 6h3v3h-3z" fill="#8fbe5f"/>
  <path id="path338" d="m30 9h3v3h-3z" fill="#91c061"/>
  <path id="path340" d="m30 12h3v3h-3z" fill="#6cac42"/>
  <path id="path342" d="m30 15h3v3h-3z" fill="#583c28"/>
  <path id="path344" d="m30 18h3v3h-3z" fill="#785439"/>
  <path id="path346" d="m30 21h3v3h-3z" fill="#b8845b"/>
  <path id="path348" d="m30 24h3v3h-3z" fill="#956b49"/>
  <path id="path350" d="m33 3h3v3h-3z" fill="#66a63c"/>
  <path id="path352" d="m33 6h3v3h-3z" fill="#72b248"/>
  <path id="path354" d="m33 9h3v3h-3z" fill="#96c566"/>
  <path id="path356" d="m33 12h3v3h-3z" fill="#583c28"/>
  <path id="path358" d="m33 15h3v3h-3z" fill="#6b6b6b"/>
  <path id="path360" d="m33 18h3v3h-3z" fill="#583c28"/>
  <path id="path362" d="m33 21h3v3h-3z" fill="#b8845b"/>
  <path id="path364" d="m33 24h3v3h-3z" fill="#956b49"/>
  <path id="path366" d="m36 3h3v3h-3z" fill="#68a83e"/>
  <path id="path368" d="m36 6h3v3h-3z" fill="#60a036"/>
  <path id="path370" d="m36 9h3v3h-3z" fill="#583c28"/>
  <g id="g372" fill="#785439">
   <path id="path374" d="m36 12h3v3h-3z"/>
   <path id="path376" d="m36 15h3v3h-3z"/>
   <path id="path378" d="m36 18h3v3h-3z"/>
   <path id="path380" d="m36 21h3v3h-3z"/>
   <path id="path382" d="m36 24h3v3h-3z"/>
  </g>
  <path id="path384" d="m39 3h3v3h-3z" fill="#60a036"/>
  <path id="path386" d="m39 6h3v3h-3z" fill="#6bab41"/>
  <path id="path388" d="m39 9h3v3h-3z" fill="#56962c"/>
  <path id="path390" d="m39 12h3v3h-3z" fill="#583c28"/>
  <path id="path392" d="m39 15h3v3h-3z" fill="#956b49"/>
  <path id="path394" d="m39 18h3v3h-3z" fill="#785439"/>
  <path id="path396" d="m39 21h3v3h-3z" fill="#956b49"/>
  <path id="path398" d="m39 24h3v3h-3z" fill="#785439"/>
  <path id="path400" d="m42 3h0.375s2.625 0 2.625 2.625v0.375h-3z" fill="#4f8f25"/>
  <path id="path402" d="m42 6h3v3h-3z" fill="#66a63c"/>
  <path id="path404" d="m42 9h3v3h-3z" fill="#4f8f25"/>
  <g id="g406" fill="#583c28">
   <path id="path408" d="m42 12h3v3h-3z"/>
   <path id="path410" d="m42 15h3v3h-3z"/>
  </g>
  <g id="g412" fill="#785439">
   <path id="path414" d="m42 18h3v3h-3z"/>
   <path id="path416" d="m42 21h3v3h-3z"/>
  </g>
  <path id="path418" d="m42 24h3v3h-3z" fill="#956b49"/>
  <path id="path420" d="m3 5.625c0-2.625 2.625-2.625 2.625-2.625h0.375v3h-3z" fill="#75b54b"/>
  <path id="path422" d="m3 6h3v3h-3z" fill="#6bab41"/>
  <path id="path424" d="m3 9h3v3h-3z" fill="#583c28"/>
  <path id="path426" d="m3 12h3v3h-3z" fill="#6b6b6b"/>
  <path id="path428" d="m3 15h3v3h-3z" fill="#785439"/>
  <path id="path430" d="m6 3h3v3h-3z" fill="#72b248"/>
  <path id="path432" d="m6 6h3v3h-3z" fill="#89b859"/>
  <path id="path434" d="m6 9h3v3h-3z" fill="#9bca6b"/>
  <path id="path436" d="m6 12h3v3h-3z" fill="#583c28"/>
  <path id="path438" d="m6 15h3v3h-3z" fill="#956b49"/>
  <path id="path440" d="m9 3h3v3h-3z" fill="#65a53b"/>
  <path id="path442" d="m9 6h3v3h-3z" fill="#80af50"/>
  <path id="path444" d="m9 9h3v3h-3z" fill="#63a339"/>
  <path id="path446" d="m9 12h3v3h-3z" fill="#583c28"/>
  <path id="path448" d="m9 15h3v3h-3z" fill="#b8845b"/>
  <path id="path450" d="m12 3h3v3h-3z" fill="#65a53b"/>
  <path id="path452" d="m12 6h3v3h-3z" fill="#82b152"/>
  <path id="path454" d="m12 9h3v3h-3z" fill="#68a83e"/>
  <path id="path456" d="m12 12h3v3h-3z" fill="#70b046"/>
  <path id="path458" d="m12 15h3v3h-3z" fill="#583c28"/>
  <path id="path460" d="m15 3h3v3h-3z" fill="#6eae44"/>
  <g id="g462" fill="#583c28">
   <path id="path464" d="m15 6h3v3h-3z"/>
   <path id="path466" d="m15 9h3v3h-3z"/>
   <path id="path468" d="m15 12h3v3h-3z"/>
  </g>
  <path id="path470" d="m15 15h3v3h-3z" fill="#956b49"/>
  <path id="path472" d="m18 3h3v3h-3z" fill="#5e9e34"/>
  <path id="path474" d="m18 6h3v3h-3z" fill="#67a73d"/>
  <path id="path476" d="m18 9h3v3h-3z" fill="#6faf45"/>
  <path id="path478" d="m18 12h3v3h-3z" fill="#583c28"/>
  <path id="path480" d="m18 15h3v3h-3z" fill="#785439"/>
 </g>
 <g id="g482" stroke-linejoin="round" stroke-linecap="round" fill="none">
  <rect id="rect484" opacity=".3" rx="2" height="39" width="39" stroke="#000" y="5.5" x="4.5"/>
  <rect id="rect486" opacity=".5" rx="1" height="37" width="37" stroke="url(#1)" y="6.5" x="5.5"/>
 </g>
</svg>
