<?xml version="1.0" encoding="UTF-8" standalone="no"?>
<svg
   xmlns:dc="http://purl.org/dc/elements/1.1/"
   xmlns:cc="http://creativecommons.org/ns#"
   xmlns:rdf="http://www.w3.org/1999/02/22-rdf-syntax-ns#"
   xmlns:svg="http://www.w3.org/2000/svg"
   xmlns="http://www.w3.org/2000/svg"
   xmlns:xlink="http://www.w3.org/1999/xlink"
   xmlns:sodipodi="http://sodipodi.sourceforge.net/DTD/sodipodi-0.dtd"
   xmlns:inkscape="http://www.inkscape.org/namespaces/inkscape"
   id="svg2"
   height="100%"
   width="100%"
   version="1.1"
   viewBox="0 0 48 48"
   inkscape:version="0.91 r13725"
   sodipodi:docname="minecraft.svg">
  <sodipodi:namedview
     pagecolor="#ffffff"
     bordercolor="#666666"
     borderopacity="1"
     objecttolerance="10"
     gridtolerance="10"
     guidetolerance="10"
     inkscape:pageopacity="0"
     inkscape:pageshadow="2"
     inkscape:window-width="1535"
     inkscape:window-height="876"
     id="namedview249"
     showgrid="false"
     inkscape:zoom="4.9166667"
     inkscape:cx="-10.779661"
     inkscape:cy="24"
     inkscape:window-x="65"
     inkscape:window-y="24"
     inkscape:window-maximized="1"
     inkscape:current-layer="svg2" />
  <metadata
     id="metadata490">
    <rdf:RDF>
      <cc:Work
         rdf:about="">
        <dc:format>image/svg+xml</dc:format>
        <dc:type
           rdf:resource="http://purl.org/dc/dcmitype/StillImage" />
        <dc:title />
      </cc:Work>
    </rdf:RDF>
  </metadata>
  <defs
     id="defs4">
    <clipPath
       id="5">
      <path
         id="path7"
         d="m6.5 4c-1.376 0-2.5 1.124-2.5 2.5v35c0 1.376 1.124 2.5 2.5 2.5h35c1.376 0 2.5-1.124 2.5-2.5v-35c0-1.376-1.124-2.5-2.5-2.5z" />
    </clipPath>
    <linearGradient
       id="4"
       y1="47.03"
       x2="0"
       y2="39.999"
       gradientUnits="userSpaceOnUse">
      <stop
         id="stop10"
         stop-color="#181818"
         stop-opacity="0"
         offset="0" />
      <stop
         id="stop12"
         stop-color="#181818"
         offset=".5" />
      <stop
         id="stop14"
         stop-color="#181818"
         stop-opacity="0"
         offset="1" />
    </linearGradient>
    <linearGradient
       id="0">
      <stop
         id="stop17"
         stop-color="#181818"
         offset="0" />
      <stop
         id="stop19"
         stop-color="#181818"
         stop-opacity="0"
         offset="1" />
    </linearGradient>
    <linearGradient
       id="1"
       y1="6"
       x2="0"
       y2="44"
       gradientUnits="userSpaceOnUse">
      <stop
         id="stop22"
         stop-color="#fff"
         offset="0" />
      <stop
         id="stop24"
         stop-color="#fff"
         stop-opacity=".235"
         offset=".053" />
      <stop
         id="stop26"
         stop-color="#fff"
         stop-opacity=".157"
         offset=".951" />
      <stop
         id="stop28"
         stop-color="#fff"
         stop-opacity=".392"
         offset="1" />
    </linearGradient>
    <radialGradient
       id="3"
       xlink:href="#0"
       gradientUnits="userSpaceOnUse"
       cy="43.5"
       cx="4.993"
       gradientTransform="matrix(2.0038 0 0 1.4-20.01-104.4)"
       r="2.5" />
    <radialGradient
       id="2"
       xlink:href="#0"
       gradientUnits="userSpaceOnUse"
       cy="43.5"
       cx="4.993"
       gradientTransform="matrix(2.0038 0 0 1.4 27.988-17.4)"
       r="2.5" />
  </defs>
  <g
     id="g4377"
     transform="translate(0,-1)">
    <g
       clip-path="url(#5)"
       transform="translate(0,1)"
       id="g40">
      <path
         d="m 21,27 3,0 0,3 -3,0 z"
         id="path42"
         inkscape:connector-curvature="0"
         style="fill:#583c28" />
      <path
         d="m 18,27 3,0 0,3 -3,0 z"
         id="path44"
         inkscape:connector-curvature="0"
         style="fill:#785439" />
      <path
         d="m 18,30 3,0 0,3 -3,0 z"
         id="path46"
         inkscape:connector-curvature="0"
         style="fill:#583c28" />
      <path
         d="m 18,33 3,0 0,3 -3,0 z"
         id="path48"
         inkscape:connector-curvature="0"
         style="fill:#b8845b" />
      <path
         d="m 18,36 3,0 0,3 -3,0 z"
         id="path50"
         inkscape:connector-curvature="0"
         style="fill:#785439" />
      <path
         d="m 18,39 3,0 0,3 -3,0 z"
         id="path52"
         inkscape:connector-curvature="0"
         style="fill:#b8845b" />
      <path
         d="m 18,42 3,0 0,3 -3,0 z"
         id="path54"
         inkscape:connector-curvature="0"
         style="fill:#956b49" />
      <path
         d="m 21,30 3,0 0,3 -3,0 z"
         id="path56"
         inkscape:connector-curvature="0"
         style="fill:#785439" />
      <g
         id="g58"
         style="fill:#956b49">
        <path
           d="m 21,33 3,0 0,3 -3,0 z"
           id="path60"
           inkscape:connector-curvature="0" />
        <path
           d="m 21,36 3,0 0,3 -3,0 z"
           id="path62"
           inkscape:connector-curvature="0" />
      </g>
      <path
         d="m 21,39 3,0 0,3 -3,0 z"
         id="path64"
         inkscape:connector-curvature="0"
         style="fill:#785439" />
      <path
         d="m 21,42 3,0 0,3 -3,0 z"
         id="path66"
         inkscape:connector-curvature="0"
         style="fill:#956b49" />
      <path
         d="m 21,18 3,0 0,3 -3,0 z"
         id="path68"
         inkscape:connector-curvature="0"
         style="fill:#583c28" />
      <path
         d="m 21,21 3,0 0,3 -3,0 z"
         id="path70"
         inkscape:connector-curvature="0"
         style="fill:#b8845b" />
      <path
         d="m 21,24 3,0 0,3 -3,0 z"
         id="path72"
         inkscape:connector-curvature="0"
         style="fill:#785439" />
      <path
         d="m 3,18 3,0 0,3 -3,0 z"
         id="path74"
         inkscape:connector-curvature="0"
         style="fill:#583c28" />
      <path
         d="m 3,21 3,0 0,3 -3,0 z"
         id="path76"
         inkscape:connector-curvature="0"
         style="fill:#785439" />
      <path
         d="m 6,18 3,0 0,3 -3,0 z"
         id="path78"
         inkscape:connector-curvature="0"
         style="fill:#956b49" />
      <path
         d="m 6,21 3,0 0,3 -3,0 z"
         id="path80"
         inkscape:connector-curvature="0"
         style="fill:#785439" />
      <path
         d="m 9,18 3,0 0,3 -3,0 z"
         id="path82"
         inkscape:connector-curvature="0"
         style="fill:#956b49" />
      <g
         id="g84"
         style="fill:#785439">
        <path
           d="m 9,21 3,0 0,3 -3,0 z"
           id="path86"
           inkscape:connector-curvature="0" />
        <path
           d="m 12,18 3,0 0,3 -3,0 z"
           id="path88"
           inkscape:connector-curvature="0" />
      </g>
      <path
         d="m 12,21 3,0 0,3 -3,0 z"
         id="path90"
         inkscape:connector-curvature="0"
         style="fill:#868686" />
      <path
         d="m 15,18 3,0 0,3 -3,0 z"
         id="path92"
         inkscape:connector-curvature="0"
         style="fill:#956b49" />
      <path
         d="m 15,21 3,0 0,3 -3,0 z"
         id="path94"
         inkscape:connector-curvature="0"
         style="fill:#785439" />
      <path
         d="m 18,18 3,0 0,3 -3,0 z"
         id="path96"
         inkscape:connector-curvature="0"
         style="fill:#583c28" />
      <g
         id="g98"
         style="fill:#785439">
        <path
           d="m 18,21 3,0 0,3 -3,0 z"
           id="path100"
           inkscape:connector-curvature="0" />
        <path
           d="m 3,24 3,0 0,3 -3,0 z"
           id="path102"
           inkscape:connector-curvature="0" />
        <path
           d="m 3,27 3,0 0,3 -3,0 z"
           id="path104"
           inkscape:connector-curvature="0" />
      </g>
      <g
         id="g106"
         style="fill:#956b49">
        <path
           d="m 3,30 3,0 0,3 -3,0 z"
           id="path108"
           inkscape:connector-curvature="0" />
        <path
           d="m 3,33 3,0 0,3 -3,0 z"
           id="path110"
           inkscape:connector-curvature="0" />
      </g>
      <path
         d="m 3,36 3,0 0,3 -3,0 z"
         id="path112"
         inkscape:connector-curvature="0"
         style="fill:#785439" />
      <path
         d="m 3,39 3,0 0,3 -3,0 z"
         id="path114"
         inkscape:connector-curvature="0"
         style="fill:#583c28" />
      <path
         d="m 3,42 3,0 0,3 -0.375,0 C 5.625,45 3,45 3,42.375 Z"
         id="path116"
         inkscape:connector-curvature="0"
         style="fill:#956b49" />
      <path
         d="m 6,24 3,0 0,3 -3,0 z"
         id="path118"
         inkscape:connector-curvature="0"
         style="fill:#b8845b" />
      <path
         d="m 6,27 3,0 0,3 -3,0 z"
         id="path120"
         inkscape:connector-curvature="0"
         style="fill:#785439" />
      <path
         d="m 6,30 3,0 0,3 -3,0 z"
         id="path122"
         inkscape:connector-curvature="0"
         style="fill:#583c28" />
      <g
         id="g124"
         style="fill:#785439">
        <path
           d="m 6,33 3,0 0,3 -3,0 z"
           id="path126"
           inkscape:connector-curvature="0" />
        <path
           d="m 6,36 3,0 0,3 -3,0 z"
           id="path128"
           inkscape:connector-curvature="0" />
      </g>
      <path
         d="m 6,39 3,0 0,3 -3,0 z"
         id="path130"
         inkscape:connector-curvature="0"
         style="fill:#956b49" />
      <path
         d="m 6,42 3,0 0,3 -3,0 z"
         id="path132"
         inkscape:connector-curvature="0"
         style="fill:#785439" />
      <path
         d="m 9,24 3,0 0,3 -3,0 z"
         id="path134"
         inkscape:connector-curvature="0"
         style="fill:#b8845b" />
      <path
         d="m 9,27 3,0 0,3 -3,0 z"
         id="path136"
         inkscape:connector-curvature="0"
         style="fill:#956b49" />
      <path
         d="m 9,30 3,0 0,3 -3,0 z"
         id="path138"
         inkscape:connector-curvature="0"
         style="fill:#785439" />
      <path
         d="m 9,33 3,0 0,3 -3,0 z"
         id="path140"
         inkscape:connector-curvature="0"
         style="fill:#b8845b" />
      <path
         d="m 9,36 3,0 0,3 -3,0 z"
         id="path142"
         inkscape:connector-curvature="0"
         style="fill:#956b49" />
      <g
         id="g144"
         style="fill:#785439">
        <path
           d="m 9,39 3,0 0,3 -3,0 z"
           id="path146"
           inkscape:connector-curvature="0" />
        <path
           d="m 9,42 3,0 0,3 -3,0 z"
           id="path148"
           inkscape:connector-curvature="0" />
      </g>
      <path
         d="m 12,24 3,0 0,3 -3,0 z"
         id="path150"
         inkscape:connector-curvature="0"
         style="fill:#956b49" />
      <g
         id="g152"
         style="fill:#785439">
        <path
           d="m 12,27 3,0 0,3 -3,0 z"
           id="path154"
           inkscape:connector-curvature="0" />
        <path
           d="m 12,30 3,0 0,3 -3,0 z"
           id="path156"
           inkscape:connector-curvature="0" />
      </g>
      <path
         d="m 12,33 3,0 0,3 -3,0 z"
         id="path158"
         inkscape:connector-curvature="0"
         style="fill:#b8845b" />
      <g
         id="g160"
         style="fill:#956b49">
        <path
           d="m 12,36 3,0 0,3 -3,0 z"
           id="path162"
           inkscape:connector-curvature="0" />
        <path
           d="m 12,39 3,0 0,3 -3,0 z"
           id="path164"
           inkscape:connector-curvature="0" />
      </g>
      <path
         d="m 12,42 3,0 0,3 -3,0 z"
         id="path166"
         inkscape:connector-curvature="0"
         style="fill:#583c28" />
      <g
         id="g168"
         style="fill:#956b49">
        <path
           d="m 15,24 3,0 0,3 -3,0 z"
           id="path170"
           inkscape:connector-curvature="0" />
        <path
           d="m 15,27 3,0 0,3 -3,0 z"
           id="path172"
           inkscape:connector-curvature="0" />
      </g>
      <path
         d="m 15,30 3,0 0,3 -3,0 z"
         id="path174"
         inkscape:connector-curvature="0"
         style="fill:#583c28" />
      <path
         d="m 15,33 3,0 0,3 -3,0 z"
         id="path176"
         inkscape:connector-curvature="0"
         style="fill:#785439" />
      <path
         d="m 15,36 3,0 0,3 -3,0 z"
         id="path178"
         inkscape:connector-curvature="0"
         style="fill:#b8845b" />
      <path
         d="m 15,39 3,0 0,3 -3,0 z"
         id="path180"
         inkscape:connector-curvature="0"
         style="fill:#956b49" />
      <g
         id="g182"
         style="fill:#785439">
        <path
           d="m 15,42 3,0 0,3 -3,0 z"
           id="path184"
           inkscape:connector-curvature="0" />
        <path
           d="m 18,24 3,0 0,3 -3,0 z"
           id="path186"
           inkscape:connector-curvature="0" />
        <path
           d="m 24,27 3,0 0,3 -3,0 z"
           id="path188"
           inkscape:connector-curvature="0" />
      </g>
      <g
         id="g190"
         style="fill:#956b49">
        <path
           d="m 27,27 3,0 0,3 -3,0 z"
           id="path192"
           inkscape:connector-curvature="0" />
        <path
           d="m 30,27 3,0 0,3 -3,0 z"
           id="path194"
           inkscape:connector-curvature="0" />
      </g>
      <g
         id="g196"
         style="fill:#785439">
        <path
           d="m 33,27 3,0 0,3 -3,0 z"
           id="path198"
           inkscape:connector-curvature="0" />
        <path
           d="m 36,27 3,0 0,3 -3,0 z"
           id="path200"
           inkscape:connector-curvature="0" />
        <path
           d="m 39,27 3,0 0,3 -3,0 z"
           id="path202"
           inkscape:connector-curvature="0" />
      </g>
      <path
         d="m 42,27 3,0 0,3 -3,0 z"
         id="path204"
         inkscape:connector-curvature="0"
         style="fill:#583c28" />
      <path
         d="m 24,30 3,0 0,3 -3,0 z"
         id="path206"
         inkscape:connector-curvature="0"
         style="fill:#785439" />
      <path
         d="m 24,33 3,0 0,3 -3,0 z"
         id="path208"
         inkscape:connector-curvature="0"
         style="fill:#583c28" />
      <path
         d="m 24,36 3,0 0,3 -3,0 z"
         id="path210"
         inkscape:connector-curvature="0"
         style="fill:#6b6b6b" />
      <g
         id="g212"
         style="fill:#785439">
        <path
           d="m 24,39 3,0 0,3 -3,0 z"
           id="path214"
           inkscape:connector-curvature="0" />
        <path
           d="m 24,42 3,0 0,3 -3,0 z"
           id="path216"
           inkscape:connector-curvature="0" />
        <path
           d="m 27,30 3,0 0,3 -3,0 z"
           id="path218"
           inkscape:connector-curvature="0" />
      </g>
      <path
         d="m 27,33 3,0 0,3 -3,0 z"
         id="path220"
         inkscape:connector-curvature="0"
         style="fill:#b8845b" />
      <path
         d="m 27,36 3,0 0,3 -3,0 z"
         id="path222"
         inkscape:connector-curvature="0"
         style="fill:#956b49" />
      <path
         d="m 27,39 3,0 0,3 -3,0 z"
         id="path224"
         inkscape:connector-curvature="0"
         style="fill:#785439" />
      <path
         d="m 27,42 3,0 0,3 -3,0 z"
         id="path226"
         inkscape:connector-curvature="0"
         style="fill:#583c28" />
      <path
         d="m 30,30 3,0 0,3 -3,0 z"
         id="path228"
         inkscape:connector-curvature="0"
         style="fill:#785439" />
      <path
         d="m 30,33 3,0 0,3 -3,0 z"
         id="path230"
         inkscape:connector-curvature="0"
         style="fill:#b8845b" />
      <path
         d="m 30,36 3,0 0,3 -3,0 z"
         id="path232"
         inkscape:connector-curvature="0"
         style="fill:#956b49" />
      <path
         d="m 30,39 3,0 0,3 -3,0 z"
         id="path234"
         inkscape:connector-curvature="0"
         style="fill:#785439" />
      <path
         d="m 30,42 3,0 0,3 -3,0 z"
         id="path236"
         inkscape:connector-curvature="0"
         style="fill:#b8845b" />
      <path
         d="m 33,30 3,0 0,3 -3,0 z"
         id="path238"
         inkscape:connector-curvature="0"
         style="fill:#785439" />
      <path
         d="m 33,33 3,0 0,3 -3,0 z"
         id="path240"
         inkscape:connector-curvature="0"
         style="fill:#583c28" />
      <g
         id="g242"
         style="fill:#785439">
        <path
           d="m 33,36 3,0 0,3 -3,0 z"
           id="path244"
           inkscape:connector-curvature="0" />
        <path
           d="m 33,39 3,0 0,3 -3,0 z"
           id="path246"
           inkscape:connector-curvature="0" />
      </g>
      <path
         d="m 33,42 3,0 0,3 -3,0 z"
         id="path248"
         inkscape:connector-curvature="0"
         style="fill:#583c28" />
      <path
         d="m 36,30 3,0 0,3 -3,0 z"
         id="path250"
         inkscape:connector-curvature="0"
         style="fill:#b8845b" />
      <path
         d="m 36,33 3,0 0,3 -3,0 z"
         id="path252"
         inkscape:connector-curvature="0"
         style="fill:#956b49" />
      <path
         d="m 36,36 3,0 0,3 -3,0 z"
         id="path254"
         inkscape:connector-curvature="0"
         style="fill:#583c28" />
      <g
         id="g256"
         style="fill:#785439">
        <path
           d="m 36,39 3,0 0,3 -3,0 z"
           id="path258"
           inkscape:connector-curvature="0" />
        <path
           d="m 36,42 3,0 0,3 -3,0 z"
           id="path260"
           inkscape:connector-curvature="0" />
      </g>
      <path
         d="m 39,30 3,0 0,3 -3,0 z"
         id="path262"
         inkscape:connector-curvature="0"
         style="fill:#b8845b" />
      <g
         id="g264"
         style="fill:#956b49">
        <path
           d="m 39,33 3,0 0,3 -3,0 z"
           id="path266"
           inkscape:connector-curvature="0" />
        <path
           d="m 39,36 3,0 0,3 -3,0 z"
           id="path268"
           inkscape:connector-curvature="0" />
      </g>
      <path
         d="m 39,39 3,0 0,3 -3,0 z"
         id="path270"
         inkscape:connector-curvature="0"
         style="fill:#785439" />
      <path
         d="m 39,42 3,0 0,3 -3,0 z"
         id="path272"
         inkscape:connector-curvature="0"
         style="fill:#b8845b" />
      <path
         d="m 42,30 3,0 0,3 -3,0 z"
         id="path274"
         inkscape:connector-curvature="0"
         style="fill:#785439" />
      <path
         d="m 42,33 3,0 0,3 -3,0 z"
         id="path276"
         inkscape:connector-curvature="0"
         style="fill:#868686" />
      <path
         d="m 42,36 3,0 0,3 -3,0 z"
         id="path278"
         inkscape:connector-curvature="0"
         style="fill:#785439" />
      <path
         d="m 42,39 3,0 0,3 -3,0 z"
         id="path280"
         inkscape:connector-curvature="0"
         style="fill:#b8845b" />
      <path
         d="m 42,42 3,0 0,0.375 c 0,0 0,2.625 -2.625,2.625 L 42,45 Z"
         id="path282"
         inkscape:connector-curvature="0"
         style="fill:#583c28" />
      <path
         d="m 21,3 3,0 0,3 -3,0 z"
         id="path284"
         inkscape:connector-curvature="0"
         style="fill:#6bab41" />
      <path
         d="m 21,6 3,0 0,3 -3,0 z"
         id="path286"
         inkscape:connector-curvature="0"
         style="fill:#61a137" />
      <g
         id="g288"
         style="fill:#583c28">
        <path
           d="m 21,9 3,0 0,3 -3,0 z"
           id="path290"
           inkscape:connector-curvature="0" />
        <path
           d="m 21,12 3,0 0,3 -3,0 z"
           id="path292"
           inkscape:connector-curvature="0" />
      </g>
      <path
         d="m 21,15 3,0 0,3 -3,0 z"
         id="path294"
         inkscape:connector-curvature="0"
         style="fill:#785439" />
      <path
         d="m 24,3 3,0 0,3 -3,0 z"
         id="path296"
         inkscape:connector-curvature="0"
         style="fill:#7dbd53" />
      <path
         d="m 24,6 3,0 0,3 -3,0 z"
         id="path298"
         inkscape:connector-curvature="0"
         style="fill:#5e9e34" />
      <path
         d="m 24,9 3,0 0,3 -3,0 z"
         id="path300"
         inkscape:connector-curvature="0"
         style="fill:#73b349" />
      <path
         d="m 24,12 3,0 0,3 -3,0 z"
         id="path302"
         inkscape:connector-curvature="0"
         style="fill:#5e9e34" />
      <g
         id="g304"
         style="fill:#583c28">
        <path
           d="m 24,15 3,0 0,3 -3,0 z"
           id="path306"
           inkscape:connector-curvature="0" />
        <path
           d="m 24,18 3,0 0,3 -3,0 z"
           id="path308"
           inkscape:connector-curvature="0" />
      </g>
      <path
         d="m 24,21 3,0 0,3 -3,0 z"
         id="path310"
         inkscape:connector-curvature="0"
         style="fill:#b8845b" />
      <path
         d="m 24,24 3,0 0,3 -3,0 z"
         id="path312"
         inkscape:connector-curvature="0"
         style="fill:#956b49" />
      <path
         d="m 27,3 3,0 0,3 -3,0 z"
         id="path314"
         inkscape:connector-curvature="0"
         style="fill:#75b54b" />
      <path
         d="m 27,6 3,0 0,3 -3,0 z"
         id="path316"
         inkscape:connector-curvature="0"
         style="fill:#92c162" />
      <path
         d="m 27,9 3,0 0,3 -3,0 z"
         id="path318"
         inkscape:connector-curvature="0"
         style="fill:#7ebe54" />
      <g
         id="g320"
         style="fill:#583c28">
        <path
           d="m 27,12 3,0 0,3 -3,0 z"
           id="path322"
           inkscape:connector-curvature="0" />
        <path
           d="m 27,15 3,0 0,3 -3,0 z"
           id="path324"
           inkscape:connector-curvature="0" />
      </g>
      <g
         id="g326"
         style="fill:#785439">
        <path
           d="m 27,18 3,0 0,3 -3,0 z"
           id="path328"
           inkscape:connector-curvature="0" />
        <path
           d="m 27,21 3,0 0,3 -3,0 z"
           id="path330"
           inkscape:connector-curvature="0" />
      </g>
      <path
         d="m 27,24 3,0 0,3 -3,0 z"
         id="path332"
         inkscape:connector-curvature="0"
         style="fill:#583c28" />
      <path
         d="m 30,3 3,0 0,3 -3,0 z"
         id="path334"
         inkscape:connector-curvature="0"
         style="fill:#69a93f" />
      <path
         d="m 30,6 3,0 0,3 -3,0 z"
         id="path336"
         inkscape:connector-curvature="0"
         style="fill:#8fbe5f" />
      <path
         d="m 30,9 3,0 0,3 -3,0 z"
         id="path338"
         inkscape:connector-curvature="0"
         style="fill:#91c061" />
      <path
         d="m 30,12 3,0 0,3 -3,0 z"
         id="path340"
         inkscape:connector-curvature="0"
         style="fill:#6cac42" />
      <path
         d="m 30,15 3,0 0,3 -3,0 z"
         id="path342"
         inkscape:connector-curvature="0"
         style="fill:#583c28" />
      <path
         d="m 30,18 3,0 0,3 -3,0 z"
         id="path344"
         inkscape:connector-curvature="0"
         style="fill:#785439" />
      <path
         d="m 30,21 3,0 0,3 -3,0 z"
         id="path346"
         inkscape:connector-curvature="0"
         style="fill:#b8845b" />
      <path
         d="m 30,24 3,0 0,3 -3,0 z"
         id="path348"
         inkscape:connector-curvature="0"
         style="fill:#956b49" />
      <path
         d="m 33,3 3,0 0,3 -3,0 z"
         id="path350"
         inkscape:connector-curvature="0"
         style="fill:#66a63c" />
      <path
         d="m 33,6 3,0 0,3 -3,0 z"
         id="path352"
         inkscape:connector-curvature="0"
         style="fill:#72b248" />
      <path
         d="m 33,9 3,0 0,3 -3,0 z"
         id="path354"
         inkscape:connector-curvature="0"
         style="fill:#96c566" />
      <path
         d="m 33,12 3,0 0,3 -3,0 z"
         id="path356"
         inkscape:connector-curvature="0"
         style="fill:#583c28" />
      <path
         d="m 33,15 3,0 0,3 -3,0 z"
         id="path358"
         inkscape:connector-curvature="0"
         style="fill:#6b6b6b" />
      <path
         d="m 33,18 3,0 0,3 -3,0 z"
         id="path360"
         inkscape:connector-curvature="0"
         style="fill:#583c28" />
      <path
         d="m 33,21 3,0 0,3 -3,0 z"
         id="path362"
         inkscape:connector-curvature="0"
         style="fill:#b8845b" />
      <path
         d="m 33,24 3,0 0,3 -3,0 z"
         id="path364"
         inkscape:connector-curvature="0"
         style="fill:#956b49" />
      <path
         d="m 36,3 3,0 0,3 -3,0 z"
         id="path366"
         inkscape:connector-curvature="0"
         style="fill:#68a83e" />
      <path
         d="m 36,6 3,0 0,3 -3,0 z"
         id="path368"
         inkscape:connector-curvature="0"
         style="fill:#60a036" />
      <path
         d="m 36,9 3,0 0,3 -3,0 z"
         id="path370"
         inkscape:connector-curvature="0"
         style="fill:#583c28" />
      <g
         id="g372"
         style="fill:#785439">
        <path
           d="m 36,12 3,0 0,3 -3,0 z"
           id="path374"
           inkscape:connector-curvature="0" />
        <path
           d="m 36,15 3,0 0,3 -3,0 z"
           id="path376"
           inkscape:connector-curvature="0" />
        <path
           d="m 36,18 3,0 0,3 -3,0 z"
           id="path378"
           inkscape:connector-curvature="0" />
        <path
           d="m 36,21 3,0 0,3 -3,0 z"
           id="path380"
           inkscape:connector-curvature="0" />
        <path
           d="m 36,24 3,0 0,3 -3,0 z"
           id="path382"
           inkscape:connector-curvature="0" />
      </g>
      <path
         d="m 39,3 3,0 0,3 -3,0 z"
         id="path384"
         inkscape:connector-curvature="0"
         style="fill:#60a036" />
      <path
         d="m 39,6 3,0 0,3 -3,0 z"
         id="path386"
         inkscape:connector-curvature="0"
         style="fill:#6bab41" />
      <path
         d="m 39,9 3,0 0,3 -3,0 z"
         id="path388"
         inkscape:connector-curvature="0"
         style="fill:#56962c" />
      <path
         d="m 39,12 3,0 0,3 -3,0 z"
         id="path390"
         inkscape:connector-curvature="0"
         style="fill:#583c28" />
      <path
         d="m 39,15 3,0 0,3 -3,0 z"
         id="path392"
         inkscape:connector-curvature="0"
         style="fill:#956b49" />
      <path
         d="m 39,18 3,0 0,3 -3,0 z"
         id="path394"
         inkscape:connector-curvature="0"
         style="fill:#785439" />
      <path
         d="m 39,21 3,0 0,3 -3,0 z"
         id="path396"
         inkscape:connector-curvature="0"
         style="fill:#956b49" />
      <path
         d="m 39,24 3,0 0,3 -3,0 z"
         id="path398"
         inkscape:connector-curvature="0"
         style="fill:#785439" />
      <path
         d="m 42,3 0.375,0 C 42.375,3 45,3 45,5.625 L 45,6 42,6 Z"
         id="path400"
         inkscape:connector-curvature="0"
         style="fill:#4f8f25" />
      <path
         d="m 42,6 3,0 0,3 -3,0 z"
         id="path402"
         inkscape:connector-curvature="0"
         style="fill:#66a63c" />
      <path
         d="m 42,9 3,0 0,3 -3,0 z"
         id="path404"
         inkscape:connector-curvature="0"
         style="fill:#4f8f25" />
      <g
         id="g406"
         style="fill:#583c28">
        <path
           d="m 42,12 3,0 0,3 -3,0 z"
           id="path408"
           inkscape:connector-curvature="0" />
        <path
           d="m 42,15 3,0 0,3 -3,0 z"
           id="path410"
           inkscape:connector-curvature="0" />
      </g>
      <g
         id="g412"
         style="fill:#785439">
        <path
           d="m 42,18 3,0 0,3 -3,0 z"
           id="path414"
           inkscape:connector-curvature="0" />
        <path
           d="m 42,21 3,0 0,3 -3,0 z"
           id="path416"
           inkscape:connector-curvature="0" />
      </g>
      <path
         d="m 42,24 3,0 0,3 -3,0 z"
         id="path418"
         inkscape:connector-curvature="0"
         style="fill:#956b49" />
      <path
         d="M 3,5.625 C 3,3 5.625,3 5.625,3 L 6,3 6,6 3,6 Z"
         id="path420"
         inkscape:connector-curvature="0"
         style="fill:#75b54b" />
      <path
         d="M 3,6 6,6 6,9 3,9 Z"
         id="path422"
         inkscape:connector-curvature="0"
         style="fill:#6bab41" />
      <path
         d="m 3,9 3,0 0,3 -3,0 z"
         id="path424"
         inkscape:connector-curvature="0"
         style="fill:#583c28" />
      <path
         d="m 3,12 3,0 0,3 -3,0 z"
         id="path426"
         inkscape:connector-curvature="0"
         style="fill:#6b6b6b" />
      <path
         d="m 3,15 3,0 0,3 -3,0 z"
         id="path428"
         inkscape:connector-curvature="0"
         style="fill:#785439" />
      <path
         d="M 6,3 9,3 9,6 6,6 Z"
         id="path430"
         inkscape:connector-curvature="0"
         style="fill:#72b248" />
      <path
         d="M 6,6 9,6 9,9 6,9 Z"
         id="path432"
         inkscape:connector-curvature="0"
         style="fill:#89b859" />
      <path
         d="m 6,9 3,0 0,3 -3,0 z"
         id="path434"
         inkscape:connector-curvature="0"
         style="fill:#9bca6b" />
      <path
         d="m 6,12 3,0 0,3 -3,0 z"
         id="path436"
         inkscape:connector-curvature="0"
         style="fill:#583c28" />
      <path
         d="m 6,15 3,0 0,3 -3,0 z"
         id="path438"
         inkscape:connector-curvature="0"
         style="fill:#956b49" />
      <path
         d="m 9,3 3,0 0,3 -3,0 z"
         id="path440"
         inkscape:connector-curvature="0"
         style="fill:#65a53b" />
      <path
         d="m 9,6 3,0 0,3 -3,0 z"
         id="path442"
         inkscape:connector-curvature="0"
         style="fill:#80af50" />
      <path
         d="m 9,9 3,0 0,3 -3,0 z"
         id="path444"
         inkscape:connector-curvature="0"
         style="fill:#63a339" />
      <path
         d="m 9,12 3,0 0,3 -3,0 z"
         id="path446"
         inkscape:connector-curvature="0"
         style="fill:#583c28" />
      <path
         d="m 9,15 3,0 0,3 -3,0 z"
         id="path448"
         inkscape:connector-curvature="0"
         style="fill:#b8845b" />
      <path
         d="m 12,3 3,0 0,3 -3,0 z"
         id="path450"
         inkscape:connector-curvature="0"
         style="fill:#65a53b" />
      <path
         d="m 12,6 3,0 0,3 -3,0 z"
         id="path452"
         inkscape:connector-curvature="0"
         style="fill:#82b152" />
      <path
         d="m 12,9 3,0 0,3 -3,0 z"
         id="path454"
         inkscape:connector-curvature="0"
         style="fill:#68a83e" />
      <path
         d="m 12,12 3,0 0,3 -3,0 z"
         id="path456"
         inkscape:connector-curvature="0"
         style="fill:#70b046" />
      <path
         d="m 12,15 3,0 0,3 -3,0 z"
         id="path458"
         inkscape:connector-curvature="0"
         style="fill:#583c28" />
      <path
         d="m 15,3 3,0 0,3 -3,0 z"
         id="path460"
         inkscape:connector-curvature="0"
         style="fill:#6eae44" />
      <g
         id="g462"
         style="fill:#583c28">
        <path
           d="m 15,6 3,0 0,3 -3,0 z"
           id="path464"
           inkscape:connector-curvature="0" />
        <path
           d="m 15,9 3,0 0,3 -3,0 z"
           id="path466"
           inkscape:connector-curvature="0" />
        <path
           d="m 15,12 3,0 0,3 -3,0 z"
           id="path468"
           inkscape:connector-curvature="0" />
      </g>
      <path
         d="m 15,15 3,0 0,3 -3,0 z"
         id="path470"
         inkscape:connector-curvature="0"
         style="fill:#956b49" />
      <path
         d="m 18,3 3,0 0,3 -3,0 z"
         id="path472"
         inkscape:connector-curvature="0"
         style="fill:#5e9e34" />
      <path
         d="m 18,6 3,0 0,3 -3,0 z"
         id="path474"
         inkscape:connector-curvature="0"
         style="fill:#67a73d" />
      <path
         d="m 18,9 3,0 0,3 -3,0 z"
         id="path476"
         inkscape:connector-curvature="0"
         style="fill:#6faf45" />
      <path
         d="m 18,12 3,0 0,3 -3,0 z"
         id="path478"
         inkscape:connector-curvature="0"
         style="fill:#583c28" />
      <path
         d="m 18,15 3,0 0,3 -3,0 z"
         id="path480"
         inkscape:connector-curvature="0"
         style="fill:#785439" />
    </g>
    <g
       id="g482"
       style="fill:none;stroke-linecap:round;stroke-linejoin:round">
      <rect
         x="4.5"
         y="5.5"
         width="39"
         height="39"
         rx="2"
         id="rect484"
         style="opacity:0.3;stroke:#000000" />
      <rect
         x="5.5"
         y="6.5"
         width="37"
         height="37"
         rx="1"
         id="rect486"
         style="opacity:0.5;stroke:url(#1)" />
    </g>
  </g>
</svg>
