<?xml version="1.0" encoding="UTF-8" standalone="no"?>
<!-- Created with Inkscape (http://www.inkscape.org/) -->

<svg
   xmlns:dc="http://purl.org/dc/elements/1.1/"
   xmlns:cc="http://creativecommons.org/ns#"
   xmlns:rdf="http://www.w3.org/1999/02/22-rdf-syntax-ns#"
   xmlns:svg="http://www.w3.org/2000/svg"
   xmlns="http://www.w3.org/2000/svg"
   xmlns:xlink="http://www.w3.org/1999/xlink"
   xmlns:sodipodi="http://sodipodi.sourceforge.net/DTD/sodipodi-0.dtd"
   xmlns:inkscape="http://www.inkscape.org/namespaces/inkscape"
   version="1.1"
   width="48"
   height="48"
   id="svg4951"
   inkscape:version="0.91 r"
   sodipodi:docname="minitube.svg">
  <sodipodi:namedview
     pagecolor="#ffffff"
     bordercolor="#666666"
     borderopacity="1"
     objecttolerance="10"
     gridtolerance="10"
     guidetolerance="10"
     inkscape:pageopacity="0"
     inkscape:pageshadow="2"
     inkscape:window-width="1278"
     inkscape:window-height="686"
     id="namedview154"
     showgrid="false"
     inkscape:zoom="1"
     inkscape:cx="10.97373"
     inkscape:cy="28.58255"
     inkscape:window-x="157"
     inkscape:window-y="97"
     inkscape:window-maximized="0"
     inkscape:current-layer="svg4951" />
  <defs
     id="defs4953">
    <linearGradient
       x1="38.851257"
       y1="41.608219"
       x2="34.130882"
       y2="37.809635"
       id="linearGradient4761"
       xlink:href="#linearGradient6455-7-3"
       gradientUnits="userSpaceOnUse" />
    <linearGradient
       id="linearGradient6455-7-3">
      <stop
         id="stop6457-5-1"
         style="stop-color:#fbac9b;stop-opacity:1"
         offset="0" />
      <stop
         id="stop6459-8-9"
         style="stop-color:#fcfafc;stop-opacity:1"
         offset="1" />
    </linearGradient>
    <linearGradient
       x1="38.851257"
       y1="41.608219"
       x2="34.130882"
       y2="37.809635"
       id="linearGradient4763"
       xlink:href="#linearGradient6413-0-0"
       gradientUnits="userSpaceOnUse" />
    <linearGradient
       id="linearGradient6413-0-0">
      <stop
         id="stop6415-1-7"
         style="stop-color:#feffff;stop-opacity:1"
         offset="0" />
      <stop
         id="stop6417-4-9"
         style="stop-color:#fe70ca;stop-opacity:1"
         offset="1" />
    </linearGradient>
    <radialGradient
       cx="36.49107"
       cy="39.708927"
       r="3.1589286"
       fx="36.49107"
       fy="39.708927"
       id="radialGradient4765"
       xlink:href="#linearGradient6303-33-0-2"
       gradientUnits="userSpaceOnUse" />
    <linearGradient
       id="linearGradient6303-33-0-2">
      <stop
         id="stop6305-1-0-2"
         style="stop-color:#ffffff;stop-opacity:1"
         offset="0" />
      <stop
         id="stop6307-5-0-6"
         style="stop-color:#ffffff;stop-opacity:0"
         offset="1" />
    </linearGradient>
    <radialGradient
       cx="36.49107"
       cy="39.708927"
       r="3.1589286"
       fx="36.49107"
       fy="39.708927"
       id="radialGradient4767"
       xlink:href="#linearGradient6303-3-2-1"
       gradientUnits="userSpaceOnUse" />
    <linearGradient
       id="linearGradient6303-3-2-1">
      <stop
         id="stop6305-3-0-9"
         style="stop-color:#ffffff;stop-opacity:1"
         offset="0" />
      <stop
         id="stop6307-1-0-1"
         style="stop-color:#ffffff;stop-opacity:0"
         offset="1" />
    </linearGradient>
    <radialGradient
       cx="36.49107"
       cy="39.708927"
       r="3.1589286"
       fx="36.49107"
       fy="39.708927"
       id="radialGradient4769"
       xlink:href="#linearGradient6303-4-8"
       gradientUnits="userSpaceOnUse" />
    <linearGradient
       id="linearGradient6303-4-8">
      <stop
         id="stop6305-33-3"
         style="stop-color:#ffffff;stop-opacity:1"
         offset="0" />
      <stop
         id="stop6307-9-3"
         style="stop-color:#ffffff;stop-opacity:0"
         offset="1" />
    </linearGradient>
    <radialGradient
       cx="32.372566"
       cy="31.405056"
       r="3.857446"
       fx="32.372566"
       fy="31.405056"
       id="radialGradient4771"
       xlink:href="#linearGradient6088-6-1-0"
       gradientUnits="userSpaceOnUse"
       gradientTransform="matrix(2.0664963,0,0,2.0664963,-34.525221,-33.493375)" />
    <linearGradient
       id="linearGradient6088-6-1-0">
      <stop
         id="stop6090-2-0-4"
         style="stop-color:#ff54d2;stop-opacity:0"
         offset="0" />
      <stop
         id="stop6257-4-6-1"
         style="stop-color:#ff54d2;stop-opacity:0"
         offset="0.32368398" />
      <stop
         id="stop6255-3-6-7"
         style="stop-color:#ff54d2;stop-opacity:0.2521739"
         offset="0.56140333" />
      <stop
         id="stop6092-9-6-8"
         style="stop-color:#ff54d2;stop-opacity:0.47826087"
         offset="1" />
    </linearGradient>
    <radialGradient
       cx="32.372566"
       cy="31.405056"
       r="3.857446"
       fx="32.372566"
       fy="31.405056"
       id="radialGradient4773"
       xlink:href="#linearGradient6191-8-3-4"
       gradientUnits="userSpaceOnUse"
       gradientTransform="matrix(2.0676498,0.55402509,-0.5348486,1.9960821,-17.765612,-49.217228)" />
    <linearGradient
       id="linearGradient6191-8-3-4">
      <stop
         id="stop6193-75-7-6"
         style="stop-color:#ffffff;stop-opacity:0"
         offset="0" />
      <stop
         id="stop6197-3-4-1"
         style="stop-color:#ffffff;stop-opacity:0"
         offset="0.40531859" />
      <stop
         id="stop6195-7-2-5"
         style="stop-color:#ffffff;stop-opacity:0.47826087"
         offset="1" />
    </linearGradient>
    <radialGradient
       cx="32.372566"
       cy="31.405056"
       r="3.857446"
       fx="32.372566"
       fy="31.405056"
       id="radialGradient4775"
       xlink:href="#linearGradient6191-7-9-4"
       gradientUnits="userSpaceOnUse"
       gradientTransform="matrix(2.0676498,0.55402509,-0.5348486,1.9960821,-17.765612,-49.217228)" />
    <linearGradient
       id="linearGradient6191-7-9-4">
      <stop
         id="stop6193-7-3-6"
         style="stop-color:#ffffff;stop-opacity:0"
         offset="0" />
      <stop
         id="stop6197-2-2-0"
         style="stop-color:#ffffff;stop-opacity:0"
         offset="0.40531859" />
      <stop
         id="stop6195-2-1-9"
         style="stop-color:#ffffff;stop-opacity:0.47826087"
         offset="1" />
    </linearGradient>
    <radialGradient
       cx="32.372566"
       cy="31.405056"
       r="3.857446"
       fx="32.372566"
       fy="31.405056"
       id="radialGradient4777"
       xlink:href="#linearGradient6191-9-9"
       gradientUnits="userSpaceOnUse"
       gradientTransform="matrix(2.0676498,0.55402509,-0.5348486,1.9960821,-17.765612,-49.217228)" />
    <linearGradient
       id="linearGradient6191-9-9">
      <stop
         id="stop6193-8-1"
         style="stop-color:#ffffff;stop-opacity:0"
         offset="0" />
      <stop
         id="stop6197-8-8"
         style="stop-color:#ffffff;stop-opacity:0"
         offset="0.40531859" />
      <stop
         id="stop6195-9-3"
         style="stop-color:#ffffff;stop-opacity:0.47826087"
         offset="1" />
    </linearGradient>
    <linearGradient
       x1="68.313301"
       y1="52.925316"
       x2="68.313301"
       y2="65.922028"
       id="linearGradient4730"
       xlink:href="#linearGradient3990-3-1-7"
       gradientUnits="userSpaceOnUse"
       gradientTransform="matrix(0.11534799,0,0,0.0865106,16.28139,17.444973)" />
    <linearGradient
       id="linearGradient3990-3-1-7">
      <stop
         id="stop3992-0-0-1"
         style="stop-color:#ffffff;stop-opacity:1"
         offset="0" />
      <stop
         id="stop3994-2-1-8"
         style="stop-color:#ffffff;stop-opacity:0"
         offset="1" />
    </linearGradient>
    <linearGradient
       x1="92.696327"
       y1="16.554602"
       x2="92.696327"
       y2="48.983677"
       id="linearGradient4779"
       xlink:href="#linearGradient4316-4-6-6-4"
       gradientUnits="userSpaceOnUse" />
    <linearGradient
       id="linearGradient4316-4-6-6-4">
      <stop
         id="stop4318-4-4-6-5"
         style="stop-color:#ffffff;stop-opacity:1"
         offset="0" />
      <stop
         id="stop4320-2-2-6-59"
         style="stop-color:#ffffff;stop-opacity:0.23529412"
         offset="0.33799788" />
      <stop
         id="stop4322-4-5-5-0"
         style="stop-color:#ffffff;stop-opacity:0.15686275"
         offset="0.61996669" />
      <stop
         id="stop4324-4-1-5-5"
         style="stop-color:#ffffff;stop-opacity:0.39215687"
         offset="1" />
    </linearGradient>
    <radialGradient
       cx="32.372566"
       cy="31.405056"
       r="3.857446"
       fx="32.372566"
       fy="31.405056"
       id="radialGradient4781"
       xlink:href="#linearGradient6088-74-4"
       gradientUnits="userSpaceOnUse"
       gradientTransform="matrix(2.0664963,0,0,2.0664963,-34.525221,-33.493375)" />
    <linearGradient
       id="linearGradient6088-74-4">
      <stop
         id="stop6090-5-66"
         style="stop-color:#ff54d2;stop-opacity:0"
         offset="0" />
      <stop
         id="stop6257-5-4"
         style="stop-color:#f62b68;stop-opacity:1"
         offset="0.32368398" />
      <stop
         id="stop6255-6-7"
         style="stop-color:#ff0105;stop-opacity:1"
         offset="0.56140333" />
      <stop
         id="stop6092-0-22"
         style="stop-color:#ff54d2;stop-opacity:0.47826087"
         offset="1" />
    </linearGradient>
    <linearGradient
       x1="92.696327"
       y1="16.554602"
       x2="92.696327"
       y2="48.983677"
       id="linearGradient4783"
       xlink:href="#linearGradient4316-4-0-7"
       gradientUnits="userSpaceOnUse" />
    <linearGradient
       id="linearGradient4316-4-0-7">
      <stop
         id="stop4318-4-5-3"
         style="stop-color:#ffffff;stop-opacity:1"
         offset="0" />
      <stop
         id="stop4320-2-9-4"
         style="stop-color:#ffffff;stop-opacity:0.23529412"
         offset="0.33799788" />
      <stop
         id="stop4322-4-1-3"
         style="stop-color:#ffffff;stop-opacity:0.15686275"
         offset="0.61996669" />
      <stop
         id="stop4324-4-8-66"
         style="stop-color:#ffffff;stop-opacity:0.39215687"
         offset="1" />
    </linearGradient>
    <radialGradient
       cx="95.838364"
       cy="95.388451"
       r="9.4981718"
       fx="95.838364"
       fy="95.388451"
       id="radialGradient4738"
       xlink:href="#linearGradient4278-3-5"
       gradientUnits="userSpaceOnUse"
       gradientTransform="matrix(0.40504519,-6.0397343e-8,5.6748136e-8,0.38056881,-14.881685,-12.451151)" />
    <linearGradient
       id="linearGradient4278-3-5">
      <stop
         id="stop4280-6-90"
         style="stop-color:#000000;stop-opacity:0"
         offset="0" />
      <stop
         id="stop4286-1-9"
         style="stop-color:#000000;stop-opacity:0"
         offset="0.5" />
      <stop
         id="stop4282-24-4"
         style="stop-color:#000000;stop-opacity:1"
         offset="1" />
    </linearGradient>
    <radialGradient
       cx="23.896"
       cy="3.99"
       r="20.396999"
       id="radialGradient4741"
       xlink:href="#linearGradient2867-449-88-871-390-598-476-591-434-148-57-177-691-4-22"
       gradientUnits="userSpaceOnUse"
       gradientTransform="matrix(0,0.41038782,-0.54170722,0,26.16143,10.43124)" />
    <linearGradient
       id="linearGradient2867-449-88-871-390-598-476-591-434-148-57-177-691-4-22">
      <stop
         id="stop7191-4-6"
         style="stop-color:#612f91;stop-opacity:1"
         offset="0" />
      <stop
         id="stop7197-2-8"
         style="stop-color:#1a4aa2;stop-opacity:1"
         offset="1" />
    </linearGradient>
    <linearGradient
       x1="7.0776"
       y1="3.0816"
       x2="7.0776"
       y2="45.368999"
       id="linearGradient4743"
       xlink:href="#linearGradient3087-408-5-3"
       gradientUnits="userSpaceOnUse"
       gradientTransform="matrix(0.17195169,0,0,0.17195091,19.87316,19.873055)" />
    <linearGradient
       x1="7.0776"
       y1="3.0816"
       x2="7.0776"
       y2="45.368999"
       id="linearGradient3087-408-5-3"
       gradientUnits="userSpaceOnUse"
       gradientTransform="matrix(0.22110724,0,0,0.22110728,6.6934256,6.693263)">
      <stop
         id="stop7201-5-71"
         style="stop-color:#170418;stop-opacity:1"
         offset="0" />
      <stop
         id="stop7203-2-8"
         style="stop-color:#50386b;stop-opacity:1"
         offset="1" />
    </linearGradient>
    <radialGradient
       cx="31.999998"
       cy="21.239277"
       r="10.498171"
       fx="31.999998"
       fy="21.239277"
       id="radialGradient4748"
       xlink:href="#linearGradient6042-1-7"
       gradientUnits="userSpaceOnUse"
       gradientTransform="matrix(0,1.4370509,-3.3103161,0,94.30873,-29.673199)" />
    <linearGradient
       id="linearGradient6042-1-7">
      <stop
         id="stop6044-9-6"
         style="stop-color:#07132d;stop-opacity:1"
         offset="0" />
      <stop
         id="stop6046-9-5"
         style="stop-color:#425479;stop-opacity:1"
         offset="1" />
    </linearGradient>
    <radialGradient
       cx="91.349998"
       cy="16.447752"
       r="15.639286"
       fx="91.349998"
       fy="16.447752"
       id="radialGradient4785"
       xlink:href="#linearGradient4507-6-5"
       gradientUnits="userSpaceOnUse"
       gradientTransform="matrix(0,1.9804002,-1.9804002,0,123.92313,-164.4618)" />
    <linearGradient
       id="linearGradient4507-6-5">
      <stop
         id="stop4509-3-8"
         style="stop-color:#2d3955;stop-opacity:1"
         offset="0" />
      <stop
         id="stop5959-4-45"
         style="stop-color:#2b3853;stop-opacity:1"
         offset="0.72468865" />
      <stop
         id="stop5961-1-7"
         style="stop-color:#192640;stop-opacity:1"
         offset="0.75" />
      <stop
         id="stop4511-1-0"
         style="stop-color:#08142e;stop-opacity:1"
         offset="1" />
    </linearGradient>
    <linearGradient
       x1="92.696327"
       y1="16.554602"
       x2="92.696327"
       y2="48.983677"
       id="linearGradient4787"
       xlink:href="#linearGradient4316-5-3"
       gradientUnits="userSpaceOnUse" />
    <linearGradient
       id="linearGradient4316-5-3">
      <stop
         id="stop4318-1-6"
         style="stop-color:#ffffff;stop-opacity:1"
         offset="0" />
      <stop
         id="stop4320-9-8"
         style="stop-color:#ffffff;stop-opacity:0.23529412"
         offset="0.33799788" />
      <stop
         id="stop4322-42-31"
         style="stop-color:#ffffff;stop-opacity:0.15686275"
         offset="0.61996669" />
      <stop
         id="stop4324-9-9"
         style="stop-color:#ffffff;stop-opacity:0.39215687"
         offset="1" />
    </linearGradient>
    <linearGradient
       x1="91.566116"
       y1="16.542858"
       x2="91.566116"
       y2="48.631081"
       id="linearGradient4789"
       xlink:href="#linearGradient4220-7-2"
       gradientUnits="userSpaceOnUse" />
    <linearGradient
       id="linearGradient4220-7-2">
      <stop
         id="stop4222-7-5"
         style="stop-color:#7a8498;stop-opacity:1"
         offset="0" />
      <stop
         id="stop4224-0-5"
         style="stop-color:#34405c;stop-opacity:1"
         offset="1" />
    </linearGradient>
    <linearGradient
       x1="51.199997"
       y1="8.1142893"
       x2="51.199997"
       y2="56.114563"
       id="linearGradient4756"
       xlink:href="#linearGradient4164-9"
       gradientUnits="userSpaceOnUse"
       gradientTransform="matrix(0.66665978,0,0,0.66665668,-10.209335,2.6672249)" />
    <linearGradient
       id="linearGradient4164-9">
      <stop
         id="stop4166-3"
         style="stop-color:#b6b6b6;stop-opacity:1"
         offset="0" />
      <stop
         id="stop4216-6"
         style="stop-color:#a4a4a4;stop-opacity:1"
         offset="0.33095336" />
      <stop
         id="stop4168-0"
         style="stop-color:#c5c5c5;stop-opacity:1"
         offset="1" />
    </linearGradient>
    <linearGradient
       x1="71.204407"
       y1="15.369057"
       x2="71.204407"
       y2="40.495617"
       id="linearGradient3177"
       xlink:href="#linearGradient4806-2"
       gradientUnits="userSpaceOnUse"
       gradientTransform="matrix(1.6169806,0,0,1.6169806,-92.707374,-21.060237)" />
    <linearGradient
       id="linearGradient4806-2">
      <stop
         id="stop4808-4"
         style="stop-color:#ffffff;stop-opacity:1"
         offset="0" />
      <stop
         id="stop4810-0"
         style="stop-color:#ffffff;stop-opacity:0.23529412"
         offset="0.42447853" />
      <stop
         id="stop4812-8"
         style="stop-color:#ffffff;stop-opacity:0.15686275"
         offset="0.82089913" />
      <stop
         id="stop4814-0"
         style="stop-color:#ffffff;stop-opacity:0.39215687"
         offset="1" />
    </linearGradient>
    <radialGradient
       cx="23.896"
       cy="3.99"
       r="20.396999"
       fx="23.896"
       fy="3.99"
       id="radialGradient4201"
       xlink:href="#radialGradient3093-0-3-6-6"
       gradientUnits="userSpaceOnUse"
       gradientTransform="matrix(0,2.8885219,-3.8127977,0,39.21344,-65.949504)" />
    <radialGradient
       cx="23.896"
       cy="3.99"
       r="20.396999"
       id="radialGradient3093-0-3-6-6"
       gradientUnits="userSpaceOnUse"
       gradientTransform="matrix(0,1.2316483,-1.625754,0,18.486966,-28.721977)">
      <stop
         id="stop3244-9-33-7-0-9"
         style="stop-color:#ffffff;stop-opacity:1"
         offset="0" />
      <stop
         id="stop3246-3-5-0-8-5"
         style="stop-color:#dddddd;stop-opacity:1"
         offset="0.26238" />
      <stop
         id="stop3248-1-7-8-8-1"
         style="stop-color:#abacae;stop-opacity:1"
         offset="0.66093999" />
      <stop
         id="stop3250-9-3-0-5-1"
         style="stop-color:#89898b;stop-opacity:1"
         offset="1" />
    </radialGradient>
    <linearGradient
       id="linearGradient3820-7-2-1">
      <stop
         id="stop3822-2-6-3"
         style="stop-color:#3d3d3d;stop-opacity:1"
         offset="0" />
      <stop
         id="stop3864-8-7-7"
         style="stop-color:#686868;stop-opacity:0.49803922"
         offset="0.5" />
      <stop
         id="stop3824-1-2-5"
         style="stop-color:#686868;stop-opacity:0"
         offset="1" />
    </linearGradient>
    <radialGradient
       cx="99.157013"
       cy="186.17059"
       r="62.769119"
       fx="99.157013"
       fy="186.17059"
       id="radialGradient4949"
       xlink:href="#linearGradient3820-7-2-1"
       gradientUnits="userSpaceOnUse"
       gradientTransform="matrix(0.27083381,0,0,0.08762273,-2.85507,25.187228)" />
    <linearGradient
       id="linearGradient8838">
      <stop
         offset="0"
         style="stop-color:#000000;stop-opacity:1"
         id="stop8840" />
      <stop
         offset="1"
         style="stop-color:#000000;stop-opacity:0"
         id="stop8842" />
    </linearGradient>
    <linearGradient
       id="linearGradient4422">
      <stop
         id="stop4424"
         style="stop-color:#e4e4e4;stop-opacity:1;"
         offset="0" />
      <stop
         id="stop4426"
         style="stop-color:#d2d2d3;stop-opacity:1;"
         offset="0.37188172" />
      <stop
         id="stop4428"
         style="stop-color:#ababac;stop-opacity:1;"
         offset="0.81009638" />
      <stop
         id="stop4430"
         style="stop-color:#888889;stop-opacity:1;"
         offset="1" />
    </linearGradient>
    <linearGradient
       id="linearGradient5873">
      <stop
         style="stop-color:#8b8b8b;stop-opacity:1;"
         offset="0"
         id="stop5875" />
      <stop
         style="stop-color:#c0c0c0;stop-opacity:1;"
         offset="1"
         id="stop5877" />
    </linearGradient>
    <linearGradient
       id="linearGradient3162">
      <stop
         style="stop-color:#f9f9f9;stop-opacity:1;"
         offset="0"
         id="stop3164" />
      <stop
         style="stop-color:#d4d4d4;stop-opacity:1"
         offset="1"
         id="stop3166" />
    </linearGradient>
    <linearGradient
       id="linearGradient4436">
      <stop
         style="stop-color:#efefef;stop-opacity:1;"
         offset="0"
         id="stop4438" />
      <stop
         style="stop-color:#ffffff;stop-opacity:1;"
         offset="1"
         id="stop4440" />
    </linearGradient>
    <linearGradient
       id="linearGradient4965"
       inkscape:collect="always">
      <stop
         id="stop4967"
         offset="0"
         style="stop-color:#000000;stop-opacity:1;" />
      <stop
         id="stop4969"
         offset="1"
         style="stop-color:#000000;stop-opacity:0" />
    </linearGradient>
    <linearGradient
       inkscape:collect="always"
       xlink:href="#linearGradient4644-104-3-3-6-2-3-4"
       id="linearGradient10060"
       gradientUnits="userSpaceOnUse"
       gradientTransform="matrix(1.3333333,0,0,1.1052632,-8.0000008,-2.526316)"
       x1="24.25"
       y1="29.5"
       x2="24.25"
       y2="18.454639" />
    <linearGradient
       id="linearGradient4644-104-3-3-6-2-3-4">
      <stop
         offset="0"
         style="stop-color:#ff4035;stop-opacity:1;"
         id="stop5237-6-5-1-7-5-2" />
      <stop
         offset="1"
         style="stop-color:#dc311a;stop-opacity:1;"
         id="stop5239-4-6-4-8-4-8" />
    </linearGradient>
    <radialGradient
       inkscape:collect="always"
       xlink:href="#linearGradient3820-7-2-1"
       id="radialGradient3302"
       gradientUnits="userSpaceOnUse"
       gradientTransform="matrix(0.27083381,0,0,0.08762273,-2.85507,25.187228)"
       cx="99.157013"
       cy="186.17059"
       fx="99.157013"
       fy="186.17059"
       r="62.769119" />
    <radialGradient
       inkscape:collect="always"
       xlink:href="#linearGradient4422"
       id="radialGradient3392"
       gradientUnits="userSpaceOnUse"
       gradientTransform="matrix(0,2.4988347,-2.6434689,-6.8014435e-8,104.09953,-11.248822)"
       cx="5.3215203"
       cy="8.4497671"
       fx="5.3215203"
       fy="8.4497671"
       r="19.99999" />
    <linearGradient
       inkscape:collect="always"
       xlink:href="#linearGradient5873"
       id="linearGradient3394"
       gradientUnits="userSpaceOnUse"
       gradientTransform="translate(57.762712,0.93164569)"
       x1="23.75"
       y1="44.25"
       x2="24.000118"
       y2="1.1171311" />
    <radialGradient
       inkscape:collect="always"
       xlink:href="#linearGradient3162"
       id="radialGradient3396"
       gradientUnits="userSpaceOnUse"
       gradientTransform="matrix(9.7678889e-8,2.0000001,-2.7333333,1.3349447e-7,67.82222,-34.333337)"
       cx="25"
       cy="15.666667"
       fx="25"
       fy="15.666667"
       r="10" />
    <linearGradient
       inkscape:collect="always"
       xlink:href="#linearGradient4436"
       id="linearGradient3398"
       gradientUnits="userSpaceOnUse"
       x1="24.777349"
       y1="24.616444"
       x2="24.777349"
       y2="31.493454" />
    <linearGradient
       inkscape:collect="always"
       xlink:href="#linearGradient4965"
       id="linearGradient3400"
       gradientUnits="userSpaceOnUse"
       x1="24.777349"
       y1="18.226145"
       x2="24.777349"
       y2="22.31111" />
    <linearGradient
       inkscape:collect="always"
       xlink:href="#linearGradient4644-104-3-3-6-2-3-4"
       id="linearGradient3402"
       gradientUnits="userSpaceOnUse"
       gradientTransform="matrix(1.3333333,0,0,1.1052632,49.762711,-1.5946703)"
       x1="24.25"
       y1="29.5"
       x2="24.25"
       y2="18.454639" />
    <radialGradient
       inkscape:collect="always"
       xlink:href="#linearGradient3765"
       id="radialGradient3037"
       gradientUnits="userSpaceOnUse"
       gradientTransform="matrix(-1.7922484,4.7450628e-8,-3.529013e-8,-1.3329366,41.58142,-41.248313)"
       cx="14.891734"
       cy="-17.680855"
       fx="14.891734"
       fy="-17.680855"
       r="25.570608" />
    <linearGradient
       id="linearGradient3765">
      <stop
         style="stop-color:#ffffff;stop-opacity:1;"
         offset="0"
         id="stop3767" />
      <stop
         style="stop-color:#e4e4e4;stop-opacity:1;"
         offset="1"
         id="stop3769" />
    </linearGradient>
    <linearGradient
       inkscape:collect="always"
       xlink:href="#linearGradient3775"
       id="linearGradient3039"
       gradientUnits="userSpaceOnUse"
       x1="15.123692"
       y1="-18.801283"
       x2="15.123692"
       y2="32.56842" />
    <linearGradient
       id="linearGradient3775">
      <stop
         style="stop-color:#ffffff;stop-opacity:0.58823532;"
         offset="0"
         id="stop3777" />
      <stop
         style="stop-color:#ffffff;stop-opacity:1;"
         offset="1"
         id="stop3779" />
    </linearGradient>
    <linearGradient
       inkscape:collect="always"
       xlink:href="#linearGradient3772-6"
       id="linearGradient3041"
       gradientUnits="userSpaceOnUse"
       gradientTransform="matrix(1.4102564,0,0,1.4102564,1.4050412,-4.5399056)"
       x1="27.096104"
       y1="10.880992"
       x2="27.096104"
       y2="39.150768" />
    <linearGradient
       id="linearGradient3772-6">
      <stop
         id="stop3774-6"
         style="stop-color:#b4b4b4;stop-opacity:1"
         offset="0" />
      <stop
         id="stop3776-4"
         style="stop-color:#969696;stop-opacity:1"
         offset="1" />
    </linearGradient>
    <linearGradient
       inkscape:collect="always"
       xlink:href="#linearGradient3063"
       id="linearGradient3036"
       gradientUnits="userSpaceOnUse"
       x1="532.82074"
       y1="694.12231"
       x2="532.82074"
       y2="263.72833" />
    <linearGradient
       inkscape:collect="always"
       id="linearGradient3063">
      <stop
         style="stop-color:#912420;stop-opacity:1"
         offset="0"
         id="stop3065" />
      <stop
         style="stop-color:#cf332d;stop-opacity:1"
         offset="1"
         id="stop3067" />
    </linearGradient>
    <linearGradient
       inkscape:collect="always"
       xlink:href="#linearGradient3014"
       id="linearGradient3038"
       gradientUnits="userSpaceOnUse"
       x1="543.32074"
       y1="441.51886"
       x2="543.32074"
       y2="817.55579" />
    <linearGradient
       id="linearGradient3014">
      <stop
         id="stop3016"
         style="stop-color:#ffffff;stop-opacity:1"
         offset="0" />
      <stop
         id="stop3018"
         style="stop-color:#b3b3b3;stop-opacity:1"
         offset="1" />
    </linearGradient>
    <linearGradient
       y2="817.55579"
       x2="543.32074"
       y1="441.51886"
       x1="543.32074"
       gradientUnits="userSpaceOnUse"
       id="linearGradient3065"
       xlink:href="#linearGradient3014"
       inkscape:collect="always" />
    <linearGradient
       inkscape:collect="always"
       xlink:href="#linearGradient3014"
       id="linearGradient3189"
       gradientUnits="userSpaceOnUse"
       x1="543.32074"
       y1="441.51886"
       x2="543.32074"
       y2="817.55579"
       gradientTransform="matrix(0.03802351,0,0,0.03802351,-53.244551,8.2907021)" />
    <linearGradient
       inkscape:collect="always"
       xlink:href="#linearGradient3063"
       id="linearGradient3193"
       gradientUnits="userSpaceOnUse"
       x1="532.82074"
       y1="694.12231"
       x2="532.82074"
       y2="263.72833"
       gradientTransform="matrix(0.03802351,0,0,0.03802351,-53.244551,8.2907021)" />
    <linearGradient
       inkscape:collect="always"
       xlink:href="#linearGradient3772-6"
       id="linearGradient3205"
       gradientUnits="userSpaceOnUse"
       gradientTransform="matrix(1.4102564,0,0,1.4102564,1.4050412,-4.5399056)"
       x1="27.096104"
       y1="10.880992"
       x2="27.096104"
       y2="39.150768" />
    <linearGradient
       inkscape:collect="always"
       xlink:href="#linearGradient3063"
       id="linearGradient3213"
       gradientUnits="userSpaceOnUse"
       gradientTransform="matrix(0.03802351,0,0,0.03802351,-53.244551,8.2907021)"
       x1="532.82074"
       y1="694.12231"
       x2="532.82074"
       y2="263.72833" />
    <linearGradient
       inkscape:collect="always"
       xlink:href="#linearGradient3014"
       id="linearGradient3215"
       gradientUnits="userSpaceOnUse"
       gradientTransform="matrix(0.03802351,0,0,0.03802351,-53.244551,8.2907021)"
       x1="543.32074"
       y1="441.51886"
       x2="543.32074"
       y2="817.55579" />
    <linearGradient
       inkscape:collect="always"
       xlink:href="#linearGradient3063"
       id="linearGradient3225"
       gradientUnits="userSpaceOnUse"
       gradientTransform="matrix(0.03802351,0,0,0.03802351,-53.244551,8.2907021)"
       x1="532.82074"
       y1="694.12231"
       x2="532.82074"
       y2="263.72833" />
    <linearGradient
       inkscape:collect="always"
       xlink:href="#linearGradient3014"
       id="linearGradient3227"
       gradientUnits="userSpaceOnUse"
       gradientTransform="matrix(0.03802351,0,0,0.03802351,-53.244551,8.2907021)"
       x1="543.32074"
       y1="441.51886"
       x2="543.32074"
       y2="817.55579" />
  </defs>
  <metadata
     id="metadata4956">
    <rdf:RDF>
      <cc:Work
         rdf:about="">
        <dc:format>image/svg+xml</dc:format>
        <dc:type
           rdf:resource="http://purl.org/dc/dcmitype/StillImage" />
        <dc:title />
      </cc:Work>
    </rdf:RDF>
  </metadata>
  <path
     style="fill:url(#radialGradient3302);fill-opacity:1;stroke:none"
     id="path3818-0-5"
     inkscape:connector-curvature="0"
     d="m 41,41.5 a 17,5.4999999 0 0 1 -34,0 17,5.4999999 0 1 1 34,0 z" />
  <path
     sodipodi:type="arc"
     style="fill:url(#radialGradient3037);fill-opacity:1;stroke:none"
     id="path2985"
     sodipodi:cx="15.210103"
     sodipodi:cy="6.8335247"
     sodipodi:rx="25.570608"
     sodipodi:ry="25.570608"
     d="m 40.780711,6.8335247 a 25.570608,25.570608 0 1 1 -51.141216,0 25.570608,25.570608 0 1 1 51.141216,0 z"
     transform="matrix(0.80270962,0,0,0.80270962,11.790704,18.514669)" />
  <path
     transform="matrix(0.80270962,0,0,0.80270962,11.790704,18.514669)"
     d="m 40.780711,6.8335247 a 25.570608,25.570608 0 1 1 -51.141216,0 25.570608,25.570608 0 1 1 51.141216,0 z"
     sodipodi:ry="25.570608"
     sodipodi:rx="25.570608"
     sodipodi:cy="6.8335247"
     sodipodi:cx="15.210103"
     id="path3755"
     style="fill:none;stroke:#828282;stroke-width:1.18156528;stroke-miterlimit:4;stroke-opacity:0.58823529;stroke-dasharray:none"
     sodipodi:type="arc" />
  <path
     sodipodi:type="arc"
     style="fill:none;stroke:url(#linearGradient3039);stroke-width:1.22041357;stroke-miterlimit:4;stroke-opacity:0.58823529;stroke-dasharray:none"
     id="path3773"
     sodipodi:cx="15.210103"
     sodipodi:cy="6.8335247"
     sodipodi:rx="25.570608"
     sodipodi:ry="25.570608"
     d="m 40.780711,6.8335247 a 25.570608,25.570608 0 1 1 -51.141216,0 25.570608,25.570608 0 1 1 51.141216,0 z"
     transform="matrix(0.76417715,0,0,0.76417715,12.376786,18.777865)" />
  <path
     inkscape:connector-curvature="0"
     d="m -55.203064,32.032276 c -0.689481,-0.08373 -1.322804,-0.489404 -1.627955,-1.042784 -0.311094,-0.564157 -0.339476,-0.859635 -0.321166,-3.343585 0.01418,-1.924021 0.01914,-2.044632 0.0954,-2.320158 0.181784,-0.656771 0.533767,-1.10472 1.080209,-1.374722 0.74994,-0.370553 1.558169,-0.322191 2.265808,0.135578 0.450474,0.29141 0.724234,0.712803 0.870317,1.339661 0.0647,0.277648 0.07089,0.489966 0.07089,2.433504 0,2.362617 -0.01149,2.499149 -0.253374,3.011101 -0.233046,0.493243 -0.759978,0.927831 -1.309857,1.080308 -0.241982,0.0671 -0.662699,0.106304 -0.870273,0.0811 z m 0.604195,-1.543116 c 0.264102,-0.201441 0.265965,-0.217997 0.280602,-2.494268 0.01137,-1.767864 0.005,-2.068287 -0.04862,-2.309502 -0.07231,-0.32503 -0.199158,-0.480276 -0.446928,-0.546993 -0.320834,-0.08639 -0.614735,0.09723 -0.716503,0.447657 -0.07839,0.269927 -0.07758,4.280248 9.2e-4,4.550724 0.05877,0.202478 0.249765,0.424363 0.391292,0.454563 0.183924,0.03925 0.409975,-0.0036 0.539238,-0.102181 z m 3.882579,1.544764 c -0.382265,-0.0509 -0.605358,-0.198395 -0.758466,-0.501462 -0.192224,-0.380494 -0.192121,-0.378267 -0.192121,-4.166997 l 0,-3.536186 0.771022,0 0.771021,0 0.01629,3.259162 c 0.0177,3.540759 0.01242,3.458118 0.224357,3.511312 0.194611,0.04884 0.409771,-0.05546 0.678294,-0.328819 l 0.257248,-0.261882 0.0097,-3.089887 0.0097,-3.089886 0.769976,-0.01029 0.769976,-0.01029 0,4.047269 0,4.04727 -0.104564,0.02148 c -0.126152,0.02591 -1.293786,0.02422 -1.387859,-0.002 -0.05749,-0.01603 -0.06654,-0.06845 -0.06654,-0.385529 l 0,-0.366977 -0.218635,0.212869 c -0.503094,0.489826 -1.046026,0.717888 -1.549458,0.650859 z m -10.004887,-0.132262 c -0.03234,-0.05233 -0.02749,-3.180553 0.0056,-3.623633 0.04246,-0.568153 0.01233,-1.014842 -0.395528,-2.157184 -0.132405,-0.370848 -0.387602,-1.122139 -0.547152,-1.629634 -1.152609,-3.666201 -1.075094,-3.418301 -0.964972,-3.419242 0.759232,-0.0065 1.631673,-0.002 1.641865,0.0082 0.0073,0.0073 0.254148,0.902608 0.548533,1.989557 0.294385,1.086948 0.540089,1.991745 0.546009,2.010659 0.0059,0.01891 0.178723,-0.614176 0.384007,-1.406869 0.430335,-1.661714 0.671804,-2.57918 0.68104,-2.587631 0.01925,-0.01761 0.233293,-0.02168 0.93269,-0.01772 l 0.774136,0.0044 -0.01705,0.123577 c -0.01394,0.101028 -0.542148,1.875113 -1.095309,3.678774 -0.06093,0.198673 -0.214979,0.71199 -0.342329,1.140705 -0.12735,0.428715 -0.281781,0.937959 -0.343178,1.131654 l -0.111633,0.352173 0,2.202346 c 0,2.065189 -0.0041,2.20348 -0.06654,2.220551 -0.138778,0.03797 -1.605462,0.01935 -1.630209,-0.02069 z"
     id="path19-8"
     style="fill:#ffffff;fill-opacity:1;stroke:none" />
  <g
     id="g3207"
     transform="matrix(0.84256569,0,0,0.84256569,52.316455,5.9317463)">
    <path
       style="fill:#ffffff"
       id="path15"
       d="m -44.332681,19.494489 0,13.688464 22.053636,0 0,-13.688464 z"
       inkscape:connector-curvature="0" />
    <path
       style="fill:url(#linearGradient3225);fill-opacity:1;stroke:none"
       id="path17"
       d="m -36.064307,35.069654 c -0.888799,-0.01577 -1.9411,-0.04037 -2.338446,-0.05466 -2.667965,-0.09598 -4.499689,-0.198572 -4.865671,-0.272519 -0.521668,-0.105404 -1.104636,-0.458406 -1.442984,-0.873764 -0.542269,-0.665692 -0.831055,-1.473373 -0.971322,-2.716616 -0.326106,-2.890387 -0.318872,-6.260314 0.01943,-9.049596 0.148159,-1.221581 0.516769,-2.104703 1.135505,-2.720463 0.353108,-0.35141 0.692355,-0.548126 1.144848,-0.663855 0.979032,-0.250394 8.644669,-0.449805 13.307347,-0.346172 2.693195,0.05986 5.603476,0.18395 6.376985,0.271907 1.000345,0.113752 1.702727,0.631822 2.1888,1.614443 0.367003,0.741919 0.485058,1.319395 0.633514,3.098916 0.117614,1.409862 0.145554,2.287563 0.124603,3.914209 -0.02507,1.946825 -0.14887,3.661526 -0.333866,4.624413 -0.195513,1.017628 -0.658316,1.885405 -1.255924,2.354913 -0.461784,0.362798 -0.95347,0.524651 -1.726397,0.568295 -0.230042,0.01299 -0.520922,0.03155 -0.646399,0.04125 -0.446339,0.0345 -2.834532,0.13136 -4.144564,0.168093 -1.947102,0.0546 -5.353103,0.07408 -7.205455,0.04121 z"
       inkscape:connector-curvature="0" />
    <path
       style="opacity:0.753;fill:#000000;fill-opacity:1;stroke:none"
       id="rect3947"
       d="m -43.597939,21.258002 0,0.722447 0,0.721258 0.846023,0.01069 0.846023,0.01069 0.0095,4.581834 c 0.0052,2.520008 0.0173,4.602777 0.02733,4.629362 0.01409,0.03734 0.190317,0.04599 0.771164,0.03802 l 0.750964,-0.0095 0.01901,-4.619857 0.01901,-4.619857 0.866223,-0.01069 0.866223,-0.01069 -0.01069,-0.711753 -0.01069,-0.711752 -2.500046,-0.01069 -2.500045,-0.0095 z m 10.874723,0.0012 0,5.361316 0,5.361314 0.684423,0 0.684423,0 0,-0.361223 c 0,-0.239415 0.01479,-0.361223 0.04278,-0.361223 0.02322,0 0.177008,0.1262 0.342212,0.281611 0.532348,0.500795 0.993535,0.639072 1.568469,0.469353 0.220305,-0.06503 0.489055,-0.327963 0.609567,-0.596494 0.231411,-0.515653 0.231703,-0.527739 0.231703,-3.424492 0,-2.378075 -0.0057,-2.671184 -0.06535,-2.92781 -0.191167,-0.822747 -0.6083,-1.182949 -1.308248,-1.130012 -0.392513,0.02969 -0.701787,0.185953 -1.071788,0.543023 -0.160763,0.155145 -0.305138,0.282793 -0.320823,0.282801 -0.01568,7e-6 -0.02852,-0.787087 -0.02852,-1.749082 l 0,-1.749082 -0.684423,0 -0.684423,0 z m 7.533408,2.664022 c -0.22281,0.0046 -0.445784,0.04447 -0.659468,0.122389 -0.737307,0.268835 -1.17298,0.753359 -1.348649,1.501929 -0.06209,0.264574 -0.06892,0.502514 -0.06892,2.441822 0,2.378501 0.0087,2.475596 0.251906,2.962269 0.433285,0.867074 1.518697,1.319236 2.504798,1.04327 0.732405,-0.204967 1.239118,-0.70469 1.429445,-1.410435 0.03253,-0.1206 0.06861,-0.46246 0.0808,-0.76047 l 0.02258,-0.541835 -0.704621,0 -0.704625,0 -0.01782,0.4848 c -0.0198,0.552117 -0.07635,0.741267 -0.276861,0.917317 -0.213984,0.187881 -0.606923,0.200856 -0.862658,0.02852 -0.304024,-0.204882 -0.380045,-0.5513 -0.36479,-1.677788 l 0.0107,-0.798493 1.459152,-0.01069 1.459153,-0.0095 -0.0202,-1.188235 c -0.02235,-1.324913 -0.04999,-1.526026 -0.273291,-1.996234 -0.330983,-0.696951 -1.120879,-1.124914 -1.916624,-1.108624 z m -13.046817,0.111694 0,3.442317 c 0,3.748619 0.004,3.829419 0.213882,4.190903 0.229302,0.394881 0.767688,0.518595 1.334388,0.306565 0.273682,-0.102398 0.594299,-0.32389 0.865035,-0.59887 0.124823,-0.12678 0.248874,-0.230518 0.27567,-0.230518 0.03666,0 0.04872,0.103551 0.04872,0.418259 l 0,0.418258 0.684423,0 0.684423,0 0,-3.973456 0,-3.973458 -0.684423,0 -0.684423,0 0,3.065646 0,3.064458 -0.294682,0.293494 c -0.233948,0.232551 -0.332313,0.302599 -0.476482,0.342211 -0.245063,0.06733 -0.399181,0.02113 -0.500247,-0.150906 -0.07626,-0.129812 -0.07778,-0.188194 -0.08793,-3.373398 l -0.01069,-3.241505 -0.683235,0 -0.684423,0 z m 13.102662,1.126447 c 0.3055,0 0.498093,0.117591 0.628578,0.382612 0.08271,0.167982 0.09183,0.23878 0.103375,0.857905 l 0.01189,0.674918 -0.745025,0 c -0.642464,0 -0.74906,-0.0092 -0.76879,-0.0606 -0.03527,-0.09192 0.01391,-1.157892 0.0606,-1.313 0.109713,-0.364453 0.342371,-0.541835 0.709374,-0.541835 z m -5.480136,0.08912 c 0.214812,-0.0077 0.399674,0.09089 0.499056,0.291117 0.06919,0.139392 0.07386,0.264578 0.08199,2.390729 0.0078,2.039857 0.0026,2.260247 -0.05704,2.432316 -0.04581,0.132128 -0.104663,0.215322 -0.19487,0.27567 -0.227982,0.152517 -0.559036,0.10382 -0.860282,-0.125952 l -0.133083,-0.101 0,-2.423999 0,-2.425187 0.133083,-0.101 c 0.178595,-0.136221 0.364065,-0.206702 0.531141,-0.212694 z"
       inkscape:connector-curvature="0" />
    <path
       style="fill:url(#linearGradient3227);fill-opacity:1;stroke:#ffffff;stroke-width:0.03802351;stroke-opacity:1"
       id="rect3947-6"
       d="m -43.597939,21.073322 0,0.722446 0,0.721259 0.846023,0.01069 0.846023,0.01069 0.0095,4.581833 c 0.0052,2.520008 0.0173,4.602778 0.02733,4.629362 0.01409,0.03734 0.190318,0.04599 0.771164,0.03802 l 0.750965,-0.0095 0.01901,-4.619856 0.01901,-4.619857 0.866223,-0.01069 0.866223,-0.01069 -0.01069,-0.711753 -0.01069,-0.711752 -2.500046,-0.01069 -2.500045,-0.0095 z m 10.874723,0.0012 0,5.361315 0,5.361315 0.684424,0 0.684423,0 0,-0.361223 c 0,-0.239415 0.01479,-0.361224 0.04278,-0.361224 0.02322,0 0.177009,0.126201 0.342212,0.281612 0.532348,0.500795 0.993535,0.639072 1.56847,0.469353 0.220304,-0.06503 0.489054,-0.327963 0.609566,-0.596494 0.231411,-0.515654 0.231704,-0.52774 0.231704,-3.424493 0,-2.378075 -0.0057,-2.671183 -0.06535,-2.92781 -0.191167,-0.822746 -0.6083,-1.182948 -1.308248,-1.130011 -0.392513,0.02969 -0.701788,0.185953 -1.071788,0.543023 -0.160763,0.155145 -0.305139,0.282792 -0.320824,0.2828 -0.01568,8e-6 -0.02852,-0.787087 -0.02852,-1.749081 l 0,-1.749082 -0.684423,0 -0.684424,0 z m 7.533408,2.664022 c -0.22281,0.0046 -0.445783,0.04447 -0.659468,0.122388 -0.737306,0.268836 -1.17298,0.753359 -1.348648,1.501929 -0.06209,0.264574 -0.06892,0.502515 -0.06892,2.441822 0,2.378502 0.0087,2.475596 0.251906,2.962269 0.433285,0.867075 1.518697,1.319236 2.504799,1.04327 0.732405,-0.204966 1.239117,-0.704689 1.429444,-1.410434 0.03253,-0.120601 0.06861,-0.462461 0.0808,-0.76047 l 0.02258,-0.541835 -0.704621,0 -0.704625,0 -0.01782,0.484799 c -0.0198,0.552117 -0.07635,0.741267 -0.27686,0.917318 -0.213985,0.18788 -0.606924,0.200855 -0.862659,0.02852 -0.304024,-0.204881 -0.380045,-0.5513 -0.364789,-1.677787 l 0.0107,-0.798494 1.459152,-0.01069 1.459152,-0.0095 -0.0202,-1.188235 c -0.02235,-1.324913 -0.04999,-1.526026 -0.27329,-1.996234 -0.330983,-0.69695 -1.12088,-1.124913 -1.916625,-1.108623 z m -13.046816,0.111694 0,3.442316 c 0,3.748619 0.004,3.82942 0.213882,4.190904 0.229302,0.39488 0.767687,0.518594 1.334387,0.306564 0.273683,-0.102397 0.5943,-0.32389 0.865035,-0.59887 0.124823,-0.12678 0.248875,-0.230517 0.275671,-0.230517 0.03666,0 0.04872,0.103551 0.04872,0.418258 l 0,0.418259 0.684423,0 0.684424,0 0,-3.973457 0,-3.973457 -0.684424,0 -0.684423,0 0,3.065646 0,3.064457 -0.294682,0.293494 c -0.233947,0.232551 -0.332312,0.302599 -0.476482,0.342212 -0.245062,0.06733 -0.39918,0.02113 -0.500247,-0.150906 -0.07626,-0.129813 -0.07778,-0.188195 -0.08793,-3.373398 l -0.01069,-3.241505 -0.683235,0 -0.684423,0 z m 13.102662,1.126447 c 0.305499,0 0.498092,0.11759 0.628578,0.382611 0.08271,0.167983 0.09183,0.238781 0.103374,0.857906 l 0.01189,0.674917 -0.745025,0 c -0.642464,0 -0.749059,-0.0092 -0.76879,-0.0606 -0.03527,-0.09192 0.01391,-1.157892 0.0606,-1.312999 0.109713,-0.364453 0.342372,-0.541835 0.709375,-0.541835 z m -5.480137,0.08912 c 0.214812,-0.0077 0.399675,0.09089 0.499057,0.291118 0.06919,0.139391 0.07386,0.264577 0.08199,2.390728 0.0078,2.039858 0.0026,2.260247 -0.05703,2.432316 -0.04582,0.132128 -0.104664,0.215322 -0.194871,0.275671 -0.227981,0.152517 -0.559035,0.103819 -0.860282,-0.125953 l -0.133082,-0.101 0,-2.423999 0,-2.425187 0.133082,-0.101 c 0.178595,-0.136221 0.364065,-0.206701 0.531141,-0.212694 z"
       inkscape:connector-curvature="0" />
  </g>
  <text
     xml:space="preserve"
     style="font-style:normal;font-weight:normal;font-size:10.31910515px;line-height:125%;font-family:Sans;letter-spacing:0px;word-spacing:0px;fill:#2f2f2f;fill-opacity:1;stroke:none;stroke-width:1px;stroke-linecap:butt;stroke-linejoin:miter;stroke-opacity:1"
     x="16.437323"
     y="16.992945"
     id="text4327"
     sodipodi:linespacing="125%"
     transform="scale(0.83225313,1.2015575)"><tspan
       sodipodi:role="line"
       id="tspan4329"
       x="16.437323"
       y="16.992945"
       style="font-style:normal;font-variant:normal;font-weight:bold;font-stretch:normal;font-family:Sans;-inkscape-font-specification:'Sans Bold';fill:#2f2f2f">Mini</tspan></text>
</svg>
