<?xml version="1.0" encoding="UTF-8" standalone="no"?>
<!-- Created with Inkscape (http://www.inkscape.org/) -->
<svg id="svg4951" xmlns:rdf="http://www.w3.org/1999/02/22-rdf-syntax-ns#" xmlns="http://www.w3.org/2000/svg" height="48" width="48" version="1.1" xmlns:cc="http://creativecommons.org/ns#" xmlns:xlink="http://www.w3.org/1999/xlink" xmlns:dc="http://purl.org/dc/elements/1.1/">
 <defs id="defs4953">
  <radialGradient id="radialGradient3302" gradientUnits="userSpaceOnUse" cy="186.17" cx="99.157" gradientTransform="matrix(.27083 0 0 .087623 -2.8551 25.187)" r="62.769">
   <stop id="stop3822-2-6-3" stop-color="#3d3d3d" offset="0"/>
   <stop id="stop3864-8-7-7" stop-color="#686868" stop-opacity=".49804" offset=".5"/>
   <stop id="stop3824-1-2-5" stop-color="#686868" stop-opacity="0" offset="1"/>
  </radialGradient>
  <radialGradient id="radialGradient3037" gradientUnits="userSpaceOnUse" cy="-17.681" cx="14.892" gradientTransform="matrix(-1.4387 3.8089e-8 -2.8328e-8 -1.07 45.169 -14.596)" r="25.571">
   <stop id="stop3767" stop-color="#fff" offset="0"/>
   <stop id="stop3769" stop-color="#e4e4e4" offset="1"/>
  </radialGradient>
  <linearGradient id="linearGradient3039" y2="32.568" gradientUnits="userSpaceOnUse" x2="15.124" gradientTransform="matrix(.76418 0 0 .76418 12.377 18.778)" y1="-18.801" x1="15.124">
   <stop id="stop3777" stop-color="#fff" stop-opacity=".58824" offset="0"/>
   <stop id="stop3779" stop-color="#fff" offset="1"/>
  </linearGradient>
 </defs>
 <metadata id="metadata4956">
  <rdf:RDF>
   <cc:Work rdf:about="">
    <dc:format>image/svg+xml</dc:format>
    <dc:type rdf:resource="http://purl.org/dc/dcmitype/StillImage"/>
    <dc:title/>
   </cc:Work>
  </rdf:RDF>
 </metadata>
 <g id="g4506">
  <path id="path3818-0-5" fill="url(#radialGradient3302)" d="m41 41.5a17 5.5 0 0 1 -34 0 17 5.5 0 1 1 34 0z"/>
  <circle id="path2985" cx="24" cy="24" r="20.526" fill="url(#radialGradient3037)"/>
  <circle id="path3755" stroke-opacity=".58824" cx="24" stroke="#828282" cy="24" r="20.526" stroke-width=".94845" fill="none"/>
  <circle id="path3773" stroke-opacity=".58824" cx="24" stroke="url(#linearGradient3039)" cy="24" r="19.54" stroke-width=".93261" fill="none"/>
  <path id="path4504" opacity=".15" d="m19.553 42.599c-8.128-2.273-13.553-9.26-13.553-17.456 0-5.062 1.7491-9.389 5.186-12.829 3.575-3.579 7.765-5.314 12.834-5.314 5.0686 0 9.2588 1.735 12.834 5.3141 2.4016 2.404 4.2822 5.9017 4.8975 9.1086 0.50696 2.6422 0.20918 7.1242-0.634 9.5427-1.7695 5.0754-6.0844 9.3974-11.177 11.195-2.5448 0.8983-7.9307 1.1257-10.388 0.43864zm8.4581-1.8448c2.6168-0.68228 5.2236-2.1787 7.216-4.1425 8.942-8.813 5.105-23.703-7.028-27.27-2.12-0.6234-6.128-0.6327-8.479-0.0198-6.022 1.5698-10.824 6.8788-11.878 13.13-1.3182 7.823 3.8478 15.993 11.498 18.184 2.3902 0.68453 6.2947 0.73769 8.6712 0.11805zm-16.019-8.603c-0.26988-0.4123-0.76137-1.4627-1.0922-2.3343-2.4333-6.4105 0.68534-14.065 6.9207-16.986 5.3357-2.4994 10.942-1.637 15.237 2.3441 3.108 2.8804 4.5513 6.5108 4.2852 10.779-0.22301 3.5782-2.0802 7.695-2.0802 4.6111v-1.1016l-0.81162 0.63907c-1.5509 1.2212-1.98 0.72509-1.3097-1.5143 0.29194-0.97539 0.24723-1.3623-0.30074-2.6023-0.66593-1.507-1.2743-1.6471-1.2743-0.29351 0 1.8576-1.4807 2.8908-4.1431 2.8908-1.3167 0-1.8556-0.14629-2.3456-0.63678-0.73762-0.73837-0.65497-1.4362 0.51-4.3061 1.2577-3.0984 0.9957-4.1027-1.3585-5.2064-0.92855-0.43535-1.6788-1.0367-1.9066-1.5282l-0.37569-0.81041-0.26543 0.70089c-0.18521 0.48906-0.08145 1.1681 0.34334 2.2469 0.33482 0.85031 0.60877 1.8317 0.60877 2.1808 0 0.66776-0.99836 2.3118-1.8008 2.9655-0.97697 0.79583-2.8233 0.3905-4.2828-0.94023l-0.69307-0.63191v0.64714c0 0.35593 0.42946 1.7207 0.95435 3.0329 0.76563 1.914 0.90062 2.5734 0.68262 3.3343-0.37435 1.3066-1.6501 1.7533-2.9214 1.023-1.1858-0.68123-1.4879-0.47204-1.4879 1.0304 0 1.3882-0.38204 1.551-1.0926 0.46553z"/>
  <path id="path4550-9" d="m19.553 41.599c-8.128-2.273-13.553-9.26-13.553-17.456 0-5.062 1.7491-9.389 5.186-12.829 3.575-3.579 7.765-5.314 12.834-5.314 5.0686 0 9.2588 1.735 12.834 5.3141 2.4016 2.404 4.2822 5.9017 4.8975 9.1086 0.50696 2.6422 0.20918 7.1242-0.634 9.5427-1.7695 5.0754-6.0844 9.3974-11.177 11.195-2.5448 0.8983-7.9307 1.1257-10.388 0.43864zm8.4581-1.8448c2.6168-0.68228 5.2236-2.1787 7.216-4.1425 8.942-8.813 5.105-23.703-7.028-27.27-2.12-0.6234-6.128-0.6327-8.479-0.0198-6.022 1.5702-10.824 6.8788-11.878 13.13-1.3182 7.823 3.8478 15.993 11.498 18.184 2.3902 0.68453 6.2947 0.73769 8.6712 0.11805zm-16.019-8.603c-0.26988-0.4123-0.76137-1.4627-1.0922-2.3343-2.4333-6.4105 0.68534-14.065 6.9207-16.986 5.3357-2.4994 10.942-1.637 15.237 2.3441 3.108 2.8804 4.5513 6.5108 4.2852 10.779-0.22301 3.5782-2.0802 7.695-2.0802 4.6111v-1.1016l-0.81162 0.63907c-1.5509 1.2212-1.98 0.72509-1.3097-1.5143 0.29194-0.97539 0.24723-1.3623-0.30074-2.6023-0.66593-1.507-1.2743-1.6471-1.2743-0.29351 0 1.8576-1.4807 2.8908-4.1431 2.8908-1.3167 0-1.8556-0.14629-2.3456-0.63678-0.73762-0.73837-0.65497-1.4362 0.51-4.3061 1.2577-3.0984 0.9957-4.1027-1.3585-5.2064-0.92855-0.43535-1.6788-1.0367-1.9066-1.5282l-0.37569-0.81041-0.26543 0.70089c-0.18521 0.48906-0.08145 1.1681 0.34334 2.2469 0.33482 0.85031 0.60877 1.8317 0.60877 2.1808 0 0.66776-0.99836 2.3118-1.8008 2.9655-0.97697 0.79583-2.8233 0.3905-4.2828-0.94023l-0.69307-0.63191v0.64714c0 0.35593 0.42946 1.7207 0.95435 3.0329 0.76563 1.914 0.90062 2.5734 0.68262 3.3343-0.37435 1.3066-1.6501 1.7533-2.9214 1.023-1.1858-0.68123-1.4879-0.47204-1.4879 1.0304 0 1.3882-0.38204 1.551-1.0926 0.46553z" fill="#ce3230"/>
 </g>
</svg>
