<?xml version="1.0" encoding="UTF-8" standalone="no"?>
<svg
   xmlns:dc="http://purl.org/dc/elements/1.1/"
   xmlns:cc="http://creativecommons.org/ns#"
   xmlns:rdf="http://www.w3.org/1999/02/22-rdf-syntax-ns#"
   xmlns:svg="http://www.w3.org/2000/svg"
   xmlns="http://www.w3.org/2000/svg"
   xmlns:sodipodi="http://sodipodi.sourceforge.net/DTD/sodipodi-0.dtd"
   xmlns:inkscape="http://www.inkscape.org/namespaces/inkscape"
   id="svg2"
   viewBox="0 0 48 48.000001"
   version="1.1"
   width="48"
   height="48"
   inkscape:version="0.91 r13725"
   sodipodi:docname="netflix.svg">
  <sodipodi:namedview
     pagecolor="#ffffff"
     bordercolor="#666666"
     borderopacity="1"
     objecttolerance="10"
     gridtolerance="10"
     guidetolerance="10"
     inkscape:pageopacity="0"
     inkscape:pageshadow="2"
     inkscape:window-width="1535"
     inkscape:window-height="876"
     id="namedview52"
     showgrid="false"
     inkscape:zoom="1"
     inkscape:cx="21.497571"
     inkscape:cy="24"
     inkscape:window-x="65"
     inkscape:window-y="24"
     inkscape:window-maximized="1"
     inkscape:current-layer="svg2" />
  <metadata
     id="metadata79">
    <rdf:RDF>
      <cc:Work
         rdf:about="">
        <dc:format>image/svg+xml</dc:format>
        <dc:type
           rdf:resource="http://purl.org/dc/dcmitype/StillImage" />
        <dc:title />
      </cc:Work>
    </rdf:RDF>
  </metadata>
  <defs
     id="defs4">
    <linearGradient
       x1="-95.838"
       y1="54.2"
       gradientTransform="matrix(0.8075,0,0,0.83374,106.88,-1.1000243)"
       x2="-95.838"
       gradientUnits="userSpaceOnUse"
       y2="5.1758"
       id="g">
      <stop
         id="stop7"
         offset="0"
         stop-opacity=".32174" />
      <stop
         id="stop9"
         offset="1"
         stop-opacity=".27826" />
    </linearGradient>
    <linearGradient
       x1="24"
       y1="5"
       gradientTransform="translate(4e-6,-0.0378243)"
       x2="24"
       gradientUnits="userSpaceOnUse"
       y2="43"
       id="f">
      <stop
         id="stop12"
         offset="0"
         stop-color="#fff" />
      <stop
         id="stop14"
         offset=".063165"
         stop-opacity=".23529"
         stop-color="#fff" />
      <stop
         id="stop16"
         offset=".95056"
         stop-opacity=".15686"
         stop-color="#fff" />
      <stop
         id="stop18"
         offset="1"
         stop-opacity=".39216"
         stop-color="#fff" />
    </linearGradient>
    <radialGradient
       r="27.5"
       gradientTransform="matrix(0,1.6258,-1.6258,0,31.059,-47.170024)"
       cx="32"
       cy="4.3419"
       gradientUnits="userSpaceOnUse"
       id="b">
      <stop
         id="stop21"
         offset="0"
         stop-color="#fafafa" />
      <stop
         id="stop23"
         offset="1"
         stop-color="#e1e1e1" />
    </radialGradient>
  </defs>
  <rect
     style="color:#000000;fill:url(#b)"
     rx="1.5"
     ry="1.5"
     height="38"
     width="38"
     y="5"
     x="5"
     id="rect49" />
  <rect
     style="fill:none;stroke:url(#f);stroke-linecap:round;stroke-linejoin:round"
     rx="1"
     ry="1"
     height="37"
     width="37"
     y="5.5"
     x="5.5"
     id="rect55" />
  <rect
     style="color:#000000;opacity:0.8;fill:none;stroke:url(#g)"
     rx="2"
     ry="2"
     height="39"
     width="39"
     y="4.5"
     x="4.5"
     id="rect57" />
  <g
     style="fill:#ffffff;fill-opacity:1"
     id="g4252"
     transform="matrix(0.11333333,0,0,0.11333333,-36.55238,-28.822428)">
    <g
       style="fill:#ffffff;fill-opacity:1"
       id="g4254"
       transform="matrix(2.5445375,0,0,2.5445375,1157.1714,-1457.8678)">
      <path
         inkscape:connector-curvature="0"
         id="path4256"
         transform="matrix(3.4676359,0,0,3.4676359,-328.01654,675.64238)"
         d="m 13.275391,18.980469 0,7.185547 0,1.33789 c 1.151,-0.09949 2.307145,-0.18223 3.466797,-0.25 l 0,-0.002 0,-0.384765 0,-0.951172 c -0.670486,0.03893 -1.340211,0.08307 -2.007813,0.132812 l 0,-2.138672 1.744141,0 0,-1.335937 -1.744141,0 0,-2.25586 2.009766,0 0,-1.33789 -3.46875,0 z m 10.453125,0 0,8.060547 c 0.09444,0 0.190351,0 0.285156,0 0.392198,0 0.782711,0.0026 1.173828,0.0059 l 0,-3.136719 1.746094,0 0,-1.335937 -1.746094,0 0,-2.25586 2.009766,0 0,-1.33789 -3.46875,0 z m 4.888672,0 0,6.808593 0,1.335938 0,0.002 c 1.160372,0.04254 2.316668,0.101163 3.46875,0.175781 l 0,-0.433593 0,-0.904297 c -0.668684,-0.04326 -1.33856,-0.08084 -2.009766,-0.113282 l 0,-6.871093 -1.458984,0 z m 7.679687,0 1.5,4.257812 -1.773437,4.38086 c 0.473665,0.04578 0.947698,0.0953 1.419921,0.146484 l 1.041016,-2.574219 0.992187,2.810547 c 0.508632,0.0638 1.016609,0.13124 1.523438,0.201172 L 39.261719,23.273438 41,18.980469 l -1.472656,0 -0.01367,0.02148 -0.939453,2.318359 -0.824219,-2.339843 -1.453125,0 z M 7,18.982422 l 0,9.222656 0.00781,0 c 0.4606885,-0.0638 0.9242279,-0.125196 1.3867187,-0.183594 l 0,-5.085937 1.7187503,4.880859 c 0.528819,-0.05948 1.058863,-0.115339 1.589843,-0.167968 l 0,-8.666016 -1.394531,0 0,5.267578 -1.8554685,-5.267578 -0.058594,0 -1.3945312,0 z m 11.144531,0 0,1.335937 1.357422,0 0,6.804688 c 0.483759,-0.0173 0.969877,-0.03303 1.455078,-0.04492 l 0,-6.759766 1.357422,0 0,-1.335937 -4.169922,0 z m 15.326172,0 0,8.416016 c 0.484841,0.03713 0.969727,0.07696 1.453125,0.11914 l 0,-8.535156 -1.453125,0 z"
         style="fill:#ffffff;fill-opacity:1;fill-rule:nonzero;stroke:none" />
    </g>
  </g>
  <g
     transform="matrix(0.11333333,0,0,0.11333333,-36.55238,-28.822428)"
     id="g4264"
     style="fill:#4e4e4e;fill-opacity:1">
    <g
       transform="matrix(2.5445375,0,0,2.5445375,1157.1714,-1457.8678)"
       id="g4266"
       style="fill:#4e4e4e;fill-opacity:1" />
  </g>
  <g
     id="g4286"
     transform="translate(0,0.2049996)">
    <g
       style="fill:#e50914;fill-opacity:1"
       id="layer1"
       transform="matrix(0.11333333,0,0,0.11333333,-36.55238,-29.822428)">
      <g
         style="fill:#e50914;fill-opacity:1"
         id="g3235"
         transform="matrix(2.5445375,0,0,2.5445375,1157.1714,-1457.8678)">
        <path
           inkscape:connector-curvature="0"
           id="path3015"
           transform="matrix(3.4676359,0,0,3.4676359,-328.01654,675.64238)"
           d="m 13.275391,18.980469 0,7.185547 0,1.33789 c 1.151,-0.09949 2.307145,-0.18223 3.466797,-0.25 l 0,-0.002 0,-0.384765 0,-0.951172 c -0.670486,0.03893 -1.340211,0.08307 -2.007813,0.132812 l 0,-2.138672 1.744141,0 0,-1.335937 -1.744141,0 0,-2.25586 2.009766,0 0,-1.33789 -3.46875,0 z m 10.453125,0 0,8.060547 c 0.09444,0 0.190351,0 0.285156,0 0.392198,0 0.782711,0.0026 1.173828,0.0059 l 0,-3.136719 1.746094,0 0,-1.335937 -1.746094,0 0,-2.25586 2.009766,0 0,-1.33789 -3.46875,0 z m 4.888672,0 0,6.808593 0,1.335938 0,0.002 c 1.160372,0.04254 2.316668,0.101163 3.46875,0.175781 l 0,-0.433593 0,-0.904297 c -0.668684,-0.04326 -1.33856,-0.08084 -2.009766,-0.113282 l 0,-6.871093 -1.458984,0 z m 7.679687,0 1.5,4.257812 -1.773437,4.38086 c 0.473665,0.04578 0.947698,0.0953 1.419921,0.146484 l 1.041016,-2.574219 0.992187,2.810547 c 0.508632,0.0638 1.016609,0.13124 1.523438,0.201172 L 39.261719,23.273438 41,18.980469 l -1.472656,0 -0.01367,0.02148 -0.939453,2.318359 -0.824219,-2.339843 -1.453125,0 z M 7,18.982422 l 0,9.222656 0.00781,0 c 0.4606885,-0.0638 0.9242279,-0.125196 1.3867187,-0.183594 l 0,-5.085937 1.7187503,4.880859 c 0.528819,-0.05948 1.058863,-0.115339 1.589843,-0.167968 l 0,-8.666016 -1.394531,0 0,5.267578 -1.8554685,-5.267578 -0.058594,0 -1.3945312,0 z m 11.144531,0 0,1.335937 1.357422,0 0,6.804688 c 0.483759,-0.0173 0.969877,-0.03303 1.455078,-0.04492 l 0,-6.759766 1.357422,0 0,-1.335937 -4.169922,0 z m 15.326172,0 0,8.416016 c 0.484841,0.03713 0.969727,0.07696 1.453125,0.11914 l 0,-8.535156 -1.453125,0 z"
           style="fill:#e50914;fill-opacity:1;fill-rule:nonzero;stroke:none" />
      </g>
    </g>
    <g
       transform="matrix(0.11333333,0,0,0.11333333,-36.55238,-29.822428)"
       id="g4271"
       style="fill:#3c0206;fill-opacity:1">
      <g
         transform="matrix(2.5445375,0,0,2.5445375,1157.1714,-1457.8678)"
         id="g4273"
         style="fill:#3c0206;fill-opacity:1">
        <path
           id="path4275"
           transform="matrix(3.4676359,0,0,3.4676359,-328.01654,676.35351)"
           d="m 13.275391,18.775391 0,7.185547 0,1.33789 c 1.151,-0.09949 2.307145,-0.18223 3.466797,-0.25 l 0,-0.002 0,-0.384766 0,-0.951171 c -0.670486,0.03893 -1.340211,0.08307 -2.007813,0.132812 l 0,-2.138672 1.744141,0 0,-1.335937 -1.744141,0 0,-2.25586 2.009766,0 0,-1.33789 -3.46875,0 z m 10.453125,0 0,8.060547 0.285156,0 c 0.392198,0 0.782711,0.0026 1.173828,0.0059 l 0,-3.136719 1.746094,0 0,-1.335937 -1.746094,0 0,-2.25586 2.009766,0 0,-1.33789 -3.46875,0 z m 4.888672,0 0,6.808593 0,1.335938 0,0.002 c 1.160371,0.04254 2.316668,0.101163 3.46875,0.175781 l 0,-0.433594 0,-0.904296 c -0.668684,-0.04326 -1.33856,-0.08084 -2.009766,-0.113282 l 0,-6.871093 -1.458984,0 z m 7.679687,0 1.5,4.257812 -1.773437,4.380859 c 0.473664,0.04578 0.947698,0.0953 1.419921,0.146485 l 1.041016,-2.574219 0.992187,2.810547 c 0.508632,0.0638 1.016609,0.13124 1.523438,0.201172 L 39.261719,23.068359 41,18.775391 l -1.472656,0 -0.01367,0.02148 -0.939453,2.318359 -0.824219,-2.339843 -1.453125,0 z M 7,18.777344 7,28 l 0.00781,0 c 0.4606885,-0.0638 0.924228,-0.125196 1.3867187,-0.183594 l 0,-5.085937 1.7187498,4.880859 c 0.528819,-0.05948 1.058863,-0.11534 1.589844,-0.167969 l 0,-8.666015 -1.394531,0 0,5.267578 -1.855469,-5.267578 -0.058594,0 -1.3945312,0 z m 11.144531,0 0,1.335937 1.357422,0 0,6.804688 c 0.483759,-0.0173 0.969877,-0.03303 1.455078,-0.04492 l 0,-6.759766 1.357422,0 0,-1.335937 -4.169922,0 z m 15.326172,0 0,8.416015 c 0.484841,0.03713 0.969727,0.07696 1.453125,0.119141 l 0,-8.535156 -1.453125,0 z m -19.695312,0.498047 2.46875,0 0,0.33789 -1.509766,0 a 0.50004999,0.50004999 0 0 0 -0.5,0.5 l 0,2.25586 a 0.50004999,0.50004999 0 0 0 0.5,0.5 l 1.244141,0 0,0.335937 -1.244141,0 a 0.50004999,0.50004999 0 0 0 -0.5,0.5 l 0,2.138672 a 0.50004999,0.50004999 0 0 0 0.537109,0.498047 c 0.488815,-0.03642 0.979997,-0.06515 1.470704,-0.0957 l 0,0.335937 c -0.824372,0.05112 -1.64646,0.112567 -2.466797,0.179688 l 0,-0.800781 0,-6.685547 z m 10.453125,0 2.46875,0 0,0.33789 -1.509766,0 a 0.50004999,0.50004999 0 0 0 -0.5,0.5 l 0,2.25586 a 0.50004999,0.50004999 0 0 0 0.5,0.5 l 1.246094,0 0,0.335937 -1.246094,0 a 0.50004999,0.50004999 0 0 0 -0.5,0.5 l 0,2.634766 c -0.152891,-8.65e-4 -0.3056,-0.0017 -0.458984,-0.002 l 0,-7.0625 z m 4.888672,0 0.458984,0 0,6.371093 a 0.50004999,0.50004999 0 0 0 0.476562,0.5 c 0.512586,0.02477 1.022282,0.05491 1.533204,0.08594 l 0,0.339844 c -0.820482,-0.0496 -1.644122,-0.09157 -2.46875,-0.125 l 0,-0.863282 0,-6.308593 z m 7.884765,0 0.394531,0 0.707032,2.005859 a 0.50004999,0.50004999 0 0 0 0.933593,0.02148 l 0.822266,-2.027343 0.398437,0 -1.458984,3.605468 a 0.50004999,0.50004999 0 0 0 -0.0078,0.353516 l 1.466796,4.160156 c -0.137358,-0.01811 -0.27458,-0.03509 -0.412109,-0.05273 l -0.890625,-2.521485 a 0.50004999,0.50004999 0 0 0 -0.933594,-0.02148 l -0.90039,2.22461 c -0.128076,-0.01358 -0.256462,-0.02584 -0.384766,-0.03906 l 1.523438,-3.763672 a 0.50004999,0.50004999 0 0 0 0.0078,-0.353515 L 37.001953,19.275391 Z M 7.5,19.277344 l 0.5996094,0 1.7382812,4.933594 a 0.50004999,0.50004999 0 0 0 0.9707034,-0.166016 l 0,-4.767578 0.394531,0 0,7.716797 c -0.249946,0.02567 -0.500473,0.05092 -0.75,0.07813 L 8.8652344,22.564453 a 0.50004999,0.50004999 0 0 0 -0.9707032,0.166016 l 0,4.648437 C 7.7629142,27.396036 7.6314959,27.412119 7.5,27.429688 l 0,-8.152344 z m 11.144531,0 3.169922,0 0,0.335937 -0.857422,0 a 0.50004999,0.50004999 0 0 0 -0.5,0.5 l 0,6.275391 c -0.151873,0.0044 -0.303482,0.0087 -0.455078,0.01367 l 0,-6.289063 a 0.50004999,0.50004999 0 0 0 -0.5,-0.5 l -0.857422,0 0,-0.335937 z m 15.326172,0 0.453125,0 0,7.492187 c -0.151155,-0.0126 -0.301826,-0.025 -0.453125,-0.03711 l 0,-7.455078 z"
           style="opacity:0.3;fill:#3c0206;fill-opacity:1;fill-rule:nonzero;stroke:none"
           inkscape:connector-curvature="0" />
      </g>
    </g>
  </g>
  <g
     transform="matrix(0.11333333,0,0,0.11333333,-36.55238,-29.822428)"
     id="g4277"
     style="fill:none;fill-opacity:1;stroke:#000000;stroke-opacity:1;stroke-width:8.82352967;stroke-miterlimit:4;stroke-dasharray:none;stroke-linejoin:round;stroke-linecap:round">
    <g
       transform="matrix(2.5445375,0,0,2.5445375,1157.1714,-1457.8678)"
       id="g4279"
       style="fill:none;fill-opacity:1;stroke:#000000;stroke-opacity:1;stroke-width:3.46763593;stroke-miterlimit:4;stroke-dasharray:none;stroke-linejoin:round;stroke-linecap:round" />
  </g>
</svg>
