<?xml version="1.0" encoding="UTF-8" standalone="no"?>
<!-- Created with Inkscape (http://www.inkscape.org/) -->

<svg
   xmlns:dc="http://purl.org/dc/elements/1.1/"
   xmlns:cc="http://creativecommons.org/ns#"
   xmlns:rdf="http://www.w3.org/1999/02/22-rdf-syntax-ns#"
   xmlns:svg="http://www.w3.org/2000/svg"
   xmlns="http://www.w3.org/2000/svg"
   xmlns:xlink="http://www.w3.org/1999/xlink"
   xmlns:sodipodi="http://sodipodi.sourceforge.net/DTD/sodipodi-0.dtd"
   xmlns:inkscape="http://www.inkscape.org/namespaces/inkscape"
   version="1.1"
   width="48"
   height="48"
   id="svg4951"
   inkscape:version="0.91 r"
   sodipodi:docname="nexuiz.svg">
  <sodipodi:namedview
     pagecolor="#009acb"
     bordercolor="#666666"
     borderopacity="1"
     objecttolerance="10"
     gridtolerance="10"
     guidetolerance="10"
     inkscape:pageopacity="0.74509804"
     inkscape:pageshadow="2"
     inkscape:window-width="1600"
     inkscape:window-height="842"
     id="namedview154"
     showgrid="false"
     inkscape:zoom="5.71"
     inkscape:cx="-27.292469"
     inkscape:cy="26.052743"
     inkscape:window-x="-4"
     inkscape:window-y="32"
     inkscape:window-maximized="1"
     inkscape:current-layer="svg4951" />
  <defs
     id="defs4953">
    <linearGradient
       id="linearGradient4411">
      <stop
         id="stop4413"
         offset="0"
         style="stop-color:#ffffff;stop-opacity:1" />
      <stop
         id="stop4415"
         offset="1"
         style="stop-color:#ffffff;stop-opacity:0" />
    </linearGradient>
    <linearGradient
       x1="38.851257"
       y1="41.608219"
       x2="34.130882"
       y2="37.809635"
       id="linearGradient4761"
       xlink:href="#linearGradient6455-7-3"
       gradientUnits="userSpaceOnUse" />
    <linearGradient
       id="linearGradient6455-7-3">
      <stop
         id="stop6457-5-1"
         style="stop-color:#fbac9b;stop-opacity:1"
         offset="0" />
      <stop
         id="stop6459-8-9"
         style="stop-color:#fcfafc;stop-opacity:1"
         offset="1" />
    </linearGradient>
    <linearGradient
       x1="38.851257"
       y1="41.608219"
       x2="34.130882"
       y2="37.809635"
       id="linearGradient4763"
       xlink:href="#linearGradient6413-0-0"
       gradientUnits="userSpaceOnUse" />
    <linearGradient
       id="linearGradient6413-0-0">
      <stop
         id="stop6415-1-7"
         style="stop-color:#feffff;stop-opacity:1"
         offset="0" />
      <stop
         id="stop6417-4-9"
         style="stop-color:#fe70ca;stop-opacity:1"
         offset="1" />
    </linearGradient>
    <radialGradient
       cx="36.49107"
       cy="39.708927"
       r="3.1589286"
       fx="36.49107"
       fy="39.708927"
       id="radialGradient4765"
       xlink:href="#linearGradient6303-33-0-2"
       gradientUnits="userSpaceOnUse" />
    <linearGradient
       id="linearGradient6303-33-0-2">
      <stop
         id="stop6305-1-0-2"
         style="stop-color:#ffffff;stop-opacity:1"
         offset="0" />
      <stop
         id="stop6307-5-0-6"
         style="stop-color:#ffffff;stop-opacity:0"
         offset="1" />
    </linearGradient>
    <radialGradient
       cx="36.49107"
       cy="39.708927"
       r="3.1589286"
       fx="36.49107"
       fy="39.708927"
       id="radialGradient4767"
       xlink:href="#linearGradient6303-3-2-1"
       gradientUnits="userSpaceOnUse" />
    <linearGradient
       id="linearGradient6303-3-2-1">
      <stop
         id="stop6305-3-0-9"
         style="stop-color:#ffffff;stop-opacity:1"
         offset="0" />
      <stop
         id="stop6307-1-0-1"
         style="stop-color:#ffffff;stop-opacity:0"
         offset="1" />
    </linearGradient>
    <radialGradient
       cx="36.49107"
       cy="39.708927"
       r="3.1589286"
       fx="36.49107"
       fy="39.708927"
       id="radialGradient4769"
       xlink:href="#linearGradient6303-4-8"
       gradientUnits="userSpaceOnUse" />
    <linearGradient
       id="linearGradient6303-4-8">
      <stop
         id="stop6305-33-3"
         style="stop-color:#ffffff;stop-opacity:1"
         offset="0" />
      <stop
         id="stop6307-9-3"
         style="stop-color:#ffffff;stop-opacity:0"
         offset="1" />
    </linearGradient>
    <radialGradient
       cx="32.372566"
       cy="31.405056"
       r="3.857446"
       fx="32.372566"
       fy="31.405056"
       id="radialGradient4771"
       xlink:href="#linearGradient6088-6-1-0"
       gradientUnits="userSpaceOnUse"
       gradientTransform="matrix(2.0664963,0,0,2.0664963,-34.525221,-33.493375)" />
    <linearGradient
       id="linearGradient6088-6-1-0">
      <stop
         id="stop6090-2-0-4"
         style="stop-color:#ff54d2;stop-opacity:0"
         offset="0" />
      <stop
         id="stop6257-4-6-1"
         style="stop-color:#ff54d2;stop-opacity:0"
         offset="0.32368398" />
      <stop
         id="stop6255-3-6-7"
         style="stop-color:#ff54d2;stop-opacity:0.2521739"
         offset="0.56140333" />
      <stop
         id="stop6092-9-6-8"
         style="stop-color:#ff54d2;stop-opacity:0.47826087"
         offset="1" />
    </linearGradient>
    <radialGradient
       cx="32.372566"
       cy="31.405056"
       r="3.857446"
       fx="32.372566"
       fy="31.405056"
       id="radialGradient4773"
       xlink:href="#linearGradient6191-8-3-4"
       gradientUnits="userSpaceOnUse"
       gradientTransform="matrix(2.0676498,0.55402509,-0.5348486,1.9960821,-17.765612,-49.217228)" />
    <linearGradient
       id="linearGradient6191-8-3-4">
      <stop
         id="stop6193-75-7-6"
         style="stop-color:#ffffff;stop-opacity:0"
         offset="0" />
      <stop
         id="stop6197-3-4-1"
         style="stop-color:#ffffff;stop-opacity:0"
         offset="0.40531859" />
      <stop
         id="stop6195-7-2-5"
         style="stop-color:#ffffff;stop-opacity:0.47826087"
         offset="1" />
    </linearGradient>
    <radialGradient
       cx="32.372566"
       cy="31.405056"
       r="3.857446"
       fx="32.372566"
       fy="31.405056"
       id="radialGradient4775"
       xlink:href="#linearGradient6191-7-9-4"
       gradientUnits="userSpaceOnUse"
       gradientTransform="matrix(2.0676498,0.55402509,-0.5348486,1.9960821,-17.765612,-49.217228)" />
    <linearGradient
       id="linearGradient6191-7-9-4">
      <stop
         id="stop6193-7-3-6"
         style="stop-color:#ffffff;stop-opacity:0"
         offset="0" />
      <stop
         id="stop6197-2-2-0"
         style="stop-color:#ffffff;stop-opacity:0"
         offset="0.40531859" />
      <stop
         id="stop6195-2-1-9"
         style="stop-color:#ffffff;stop-opacity:0.47826087"
         offset="1" />
    </linearGradient>
    <radialGradient
       cx="32.372566"
       cy="31.405056"
       r="3.857446"
       fx="32.372566"
       fy="31.405056"
       id="radialGradient4777"
       xlink:href="#linearGradient6191-9-9"
       gradientUnits="userSpaceOnUse"
       gradientTransform="matrix(2.0676498,0.55402509,-0.5348486,1.9960821,-17.765612,-49.217228)" />
    <linearGradient
       id="linearGradient6191-9-9">
      <stop
         id="stop6193-8-1"
         style="stop-color:#ffffff;stop-opacity:0"
         offset="0" />
      <stop
         id="stop6197-8-8"
         style="stop-color:#ffffff;stop-opacity:0"
         offset="0.40531859" />
      <stop
         id="stop6195-9-3"
         style="stop-color:#ffffff;stop-opacity:0.47826087"
         offset="1" />
    </linearGradient>
    <linearGradient
       x1="68.313301"
       y1="52.925316"
       x2="68.313301"
       y2="65.922028"
       id="linearGradient4730"
       xlink:href="#linearGradient3990-3-1-7"
       gradientUnits="userSpaceOnUse"
       gradientTransform="matrix(0.11534799,0,0,0.0865106,16.28139,17.444973)" />
    <linearGradient
       id="linearGradient3990-3-1-7">
      <stop
         id="stop3992-0-0-1"
         style="stop-color:#ffffff;stop-opacity:1"
         offset="0" />
      <stop
         id="stop3994-2-1-8"
         style="stop-color:#ffffff;stop-opacity:0"
         offset="1" />
    </linearGradient>
    <linearGradient
       x1="92.696327"
       y1="16.554602"
       x2="92.696327"
       y2="48.983677"
       id="linearGradient4779"
       xlink:href="#linearGradient4316-4-6-6-4"
       gradientUnits="userSpaceOnUse" />
    <linearGradient
       id="linearGradient4316-4-6-6-4">
      <stop
         id="stop4318-4-4-6-5"
         style="stop-color:#ffffff;stop-opacity:1"
         offset="0" />
      <stop
         id="stop4320-2-2-6-59"
         style="stop-color:#ffffff;stop-opacity:0.23529412"
         offset="0.33799788" />
      <stop
         id="stop4322-4-5-5-0"
         style="stop-color:#ffffff;stop-opacity:0.15686275"
         offset="0.61996669" />
      <stop
         id="stop4324-4-1-5-5"
         style="stop-color:#ffffff;stop-opacity:0.39215687"
         offset="1" />
    </linearGradient>
    <radialGradient
       cx="32.372566"
       cy="31.405056"
       r="3.857446"
       fx="32.372566"
       fy="31.405056"
       id="radialGradient4781"
       xlink:href="#linearGradient6088-74-4"
       gradientUnits="userSpaceOnUse"
       gradientTransform="matrix(2.0664963,0,0,2.0664963,-34.525221,-33.493375)" />
    <linearGradient
       id="linearGradient6088-74-4">
      <stop
         id="stop6090-5-66"
         style="stop-color:#ff54d2;stop-opacity:0"
         offset="0" />
      <stop
         id="stop6257-5-4"
         style="stop-color:#f62b68;stop-opacity:1"
         offset="0.32368398" />
      <stop
         id="stop6255-6-7"
         style="stop-color:#ff0105;stop-opacity:1"
         offset="0.56140333" />
      <stop
         id="stop6092-0-22"
         style="stop-color:#ff54d2;stop-opacity:0.47826087"
         offset="1" />
    </linearGradient>
    <linearGradient
       x1="92.696327"
       y1="16.554602"
       x2="92.696327"
       y2="48.983677"
       id="linearGradient4783"
       xlink:href="#linearGradient4316-4-0-7"
       gradientUnits="userSpaceOnUse" />
    <linearGradient
       id="linearGradient4316-4-0-7">
      <stop
         id="stop4318-4-5-3"
         style="stop-color:#ffffff;stop-opacity:1"
         offset="0" />
      <stop
         id="stop4320-2-9-4"
         style="stop-color:#ffffff;stop-opacity:0.23529412"
         offset="0.33799788" />
      <stop
         id="stop4322-4-1-3"
         style="stop-color:#ffffff;stop-opacity:0.15686275"
         offset="0.61996669" />
      <stop
         id="stop4324-4-8-66"
         style="stop-color:#ffffff;stop-opacity:0.39215687"
         offset="1" />
    </linearGradient>
    <radialGradient
       cx="95.838364"
       cy="95.388451"
       r="9.4981718"
       fx="95.838364"
       fy="95.388451"
       id="radialGradient4738"
       xlink:href="#linearGradient4278-3-5"
       gradientUnits="userSpaceOnUse"
       gradientTransform="matrix(0.40504519,-6.0397343e-8,5.6748136e-8,0.38056881,-14.881685,-12.451151)" />
    <linearGradient
       id="linearGradient4278-3-5">
      <stop
         id="stop4280-6-90"
         style="stop-color:#000000;stop-opacity:0"
         offset="0" />
      <stop
         id="stop4286-1-9"
         style="stop-color:#000000;stop-opacity:0"
         offset="0.5" />
      <stop
         id="stop4282-24-4"
         style="stop-color:#000000;stop-opacity:1"
         offset="1" />
    </linearGradient>
    <radialGradient
       cx="23.896"
       cy="3.99"
       r="20.396999"
       id="radialGradient4741"
       xlink:href="#linearGradient2867-449-88-871-390-598-476-591-434-148-57-177-691-4-22"
       gradientUnits="userSpaceOnUse"
       gradientTransform="matrix(0,0.41038782,-0.54170722,0,26.16143,10.43124)" />
    <linearGradient
       id="linearGradient2867-449-88-871-390-598-476-591-434-148-57-177-691-4-22">
      <stop
         id="stop7191-4-6"
         style="stop-color:#612f91;stop-opacity:1"
         offset="0" />
      <stop
         id="stop7197-2-8"
         style="stop-color:#1a4aa2;stop-opacity:1"
         offset="1" />
    </linearGradient>
    <linearGradient
       x1="7.0776"
       y1="3.0816"
       x2="7.0776"
       y2="45.368999"
       id="linearGradient4743"
       xlink:href="#linearGradient3087-408-5-3"
       gradientUnits="userSpaceOnUse"
       gradientTransform="matrix(0.17195169,0,0,0.17195091,19.87316,19.873055)" />
    <linearGradient
       x1="7.0776"
       y1="3.0816"
       x2="7.0776"
       y2="45.368999"
       id="linearGradient3087-408-5-3"
       gradientUnits="userSpaceOnUse"
       gradientTransform="matrix(0.22110724,0,0,0.22110728,6.6934256,6.693263)">
      <stop
         id="stop7201-5-71"
         style="stop-color:#170418;stop-opacity:1"
         offset="0" />
      <stop
         id="stop7203-2-8"
         style="stop-color:#50386b;stop-opacity:1"
         offset="1" />
    </linearGradient>
    <radialGradient
       cx="31.999998"
       cy="21.239277"
       r="10.498171"
       fx="31.999998"
       fy="21.239277"
       id="radialGradient4748"
       xlink:href="#linearGradient6042-1-7"
       gradientUnits="userSpaceOnUse"
       gradientTransform="matrix(0,1.4370509,-3.3103161,0,94.30873,-29.673199)" />
    <linearGradient
       id="linearGradient6042-1-7">
      <stop
         id="stop6044-9-6"
         style="stop-color:#07132d;stop-opacity:1"
         offset="0" />
      <stop
         id="stop6046-9-5"
         style="stop-color:#425479;stop-opacity:1"
         offset="1" />
    </linearGradient>
    <radialGradient
       cx="91.349998"
       cy="16.447752"
       r="15.639286"
       fx="91.349998"
       fy="16.447752"
       id="radialGradient4785"
       xlink:href="#linearGradient4507-6-5"
       gradientUnits="userSpaceOnUse"
       gradientTransform="matrix(0,1.9804002,-1.9804002,0,123.92313,-164.4618)" />
    <linearGradient
       id="linearGradient4507-6-5">
      <stop
         id="stop4509-3-8"
         style="stop-color:#2d3955;stop-opacity:1"
         offset="0" />
      <stop
         id="stop5959-4-45"
         style="stop-color:#2b3853;stop-opacity:1"
         offset="0.72468865" />
      <stop
         id="stop5961-1-7"
         style="stop-color:#192640;stop-opacity:1"
         offset="0.75" />
      <stop
         id="stop4511-1-0"
         style="stop-color:#08142e;stop-opacity:1"
         offset="1" />
    </linearGradient>
    <linearGradient
       x1="92.696327"
       y1="16.554602"
       x2="92.696327"
       y2="48.983677"
       id="linearGradient4787"
       xlink:href="#linearGradient4316-5-3"
       gradientUnits="userSpaceOnUse" />
    <linearGradient
       id="linearGradient4316-5-3">
      <stop
         id="stop4318-1-6"
         style="stop-color:#ffffff;stop-opacity:1"
         offset="0" />
      <stop
         id="stop4320-9-8"
         style="stop-color:#ffffff;stop-opacity:0.23529412"
         offset="0.33799788" />
      <stop
         id="stop4322-42-31"
         style="stop-color:#ffffff;stop-opacity:0.15686275"
         offset="0.61996669" />
      <stop
         id="stop4324-9-9"
         style="stop-color:#ffffff;stop-opacity:0.39215687"
         offset="1" />
    </linearGradient>
    <linearGradient
       x1="91.566116"
       y1="16.542858"
       x2="91.566116"
       y2="48.631081"
       id="linearGradient4789"
       xlink:href="#linearGradient4220-7-2"
       gradientUnits="userSpaceOnUse" />
    <linearGradient
       id="linearGradient4220-7-2">
      <stop
         id="stop4222-7-5"
         style="stop-color:#7a8498;stop-opacity:1"
         offset="0" />
      <stop
         id="stop4224-0-5"
         style="stop-color:#34405c;stop-opacity:1"
         offset="1" />
    </linearGradient>
    <linearGradient
       x1="51.199997"
       y1="8.1142893"
       x2="51.199997"
       y2="56.114563"
       id="linearGradient4756"
       xlink:href="#linearGradient4164-9"
       gradientUnits="userSpaceOnUse"
       gradientTransform="matrix(0.66665978,0,0,0.66665668,-10.209335,2.6672249)" />
    <linearGradient
       id="linearGradient4164-9">
      <stop
         id="stop4166-3"
         style="stop-color:#b6b6b6;stop-opacity:1"
         offset="0" />
      <stop
         id="stop4216-6"
         style="stop-color:#a4a4a4;stop-opacity:1"
         offset="0.33095336" />
      <stop
         id="stop4168-0"
         style="stop-color:#c5c5c5;stop-opacity:1"
         offset="1" />
    </linearGradient>
    <linearGradient
       x1="71.204407"
       y1="15.369057"
       x2="71.204407"
       y2="40.495617"
       id="linearGradient3177"
       xlink:href="#linearGradient4806-2"
       gradientUnits="userSpaceOnUse"
       gradientTransform="matrix(1.6169806,0,0,1.6169806,-92.707374,-21.060237)" />
    <linearGradient
       id="linearGradient4806-2">
      <stop
         id="stop4808-4"
         style="stop-color:#ffffff;stop-opacity:1"
         offset="0" />
      <stop
         id="stop4810-0"
         style="stop-color:#ffffff;stop-opacity:0.23529412"
         offset="0.42447853" />
      <stop
         id="stop4812-8"
         style="stop-color:#ffffff;stop-opacity:0.15686275"
         offset="0.82089913" />
      <stop
         id="stop4814-0"
         style="stop-color:#ffffff;stop-opacity:0.39215687"
         offset="1" />
    </linearGradient>
    <radialGradient
       cx="23.896"
       cy="3.99"
       r="20.396999"
       fx="23.896"
       fy="3.99"
       id="radialGradient4201"
       xlink:href="#radialGradient3093-0-3-6-6"
       gradientUnits="userSpaceOnUse"
       gradientTransform="matrix(0,2.8885219,-3.8127977,0,39.21344,-65.949504)" />
    <radialGradient
       cx="23.896"
       cy="3.99"
       r="20.396999"
       id="radialGradient3093-0-3-6-6"
       gradientUnits="userSpaceOnUse"
       gradientTransform="matrix(0,1.2316483,-1.625754,0,18.486966,-28.721977)">
      <stop
         id="stop3244-9-33-7-0-9"
         style="stop-color:#ffffff;stop-opacity:1"
         offset="0" />
      <stop
         id="stop3246-3-5-0-8-5"
         style="stop-color:#dddddd;stop-opacity:1"
         offset="0.26238" />
      <stop
         id="stop3248-1-7-8-8-1"
         style="stop-color:#abacae;stop-opacity:1"
         offset="0.66093999" />
      <stop
         id="stop3250-9-3-0-5-1"
         style="stop-color:#89898b;stop-opacity:1"
         offset="1" />
    </radialGradient>
    <linearGradient
       id="linearGradient3820-7-2-1">
      <stop
         id="stop3822-2-6-3"
         style="stop-color:#3d3d3d;stop-opacity:1"
         offset="0" />
      <stop
         id="stop3864-8-7-7"
         style="stop-color:#686868;stop-opacity:0.49803922"
         offset="0.5" />
      <stop
         id="stop3824-1-2-5"
         style="stop-color:#686868;stop-opacity:0"
         offset="1" />
    </linearGradient>
    <radialGradient
       cx="99.157013"
       cy="186.17059"
       r="62.769119"
       fx="99.157013"
       fy="186.17059"
       id="radialGradient4949"
       xlink:href="#linearGradient3820-7-2-1"
       gradientUnits="userSpaceOnUse"
       gradientTransform="matrix(0.27083381,0,0,0.08762273,-2.85507,25.187228)" />
    <linearGradient
       id="linearGradient8838">
      <stop
         offset="0"
         style="stop-color:#000000;stop-opacity:1"
         id="stop8840" />
      <stop
         offset="1"
         style="stop-color:#000000;stop-opacity:0"
         id="stop8842" />
    </linearGradient>
    <linearGradient
       id="linearGradient4422">
      <stop
         id="stop4424"
         style="stop-color:#e4e4e4;stop-opacity:1;"
         offset="0" />
      <stop
         id="stop4426"
         style="stop-color:#d2d2d3;stop-opacity:1;"
         offset="0.37188172" />
      <stop
         id="stop4428"
         style="stop-color:#ababac;stop-opacity:1;"
         offset="0.81009638" />
      <stop
         id="stop4430"
         style="stop-color:#888889;stop-opacity:1;"
         offset="1" />
    </linearGradient>
    <linearGradient
       id="linearGradient5873">
      <stop
         style="stop-color:#8b8b8b;stop-opacity:1;"
         offset="0"
         id="stop5875" />
      <stop
         style="stop-color:#c0c0c0;stop-opacity:1;"
         offset="1"
         id="stop5877" />
    </linearGradient>
    <linearGradient
       id="linearGradient3162">
      <stop
         style="stop-color:#f9f9f9;stop-opacity:1;"
         offset="0"
         id="stop3164" />
      <stop
         style="stop-color:#d4d4d4;stop-opacity:1"
         offset="1"
         id="stop3166" />
    </linearGradient>
    <linearGradient
       id="linearGradient4436">
      <stop
         style="stop-color:#efefef;stop-opacity:1;"
         offset="0"
         id="stop4438" />
      <stop
         style="stop-color:#ffffff;stop-opacity:1;"
         offset="1"
         id="stop4440" />
    </linearGradient>
    <linearGradient
       id="linearGradient4965"
       inkscape:collect="always">
      <stop
         id="stop4967"
         offset="0"
         style="stop-color:#000000;stop-opacity:1;" />
      <stop
         id="stop4969"
         offset="1"
         style="stop-color:#000000;stop-opacity:0" />
    </linearGradient>
    <linearGradient
       inkscape:collect="always"
       xlink:href="#linearGradient4644-104-3-3-6-2-3-4"
       id="linearGradient10060"
       gradientUnits="userSpaceOnUse"
       gradientTransform="matrix(1.3333333,0,0,1.1052632,-8.0000008,-2.526316)"
       x1="24.25"
       y1="29.5"
       x2="24.25"
       y2="18.454639" />
    <linearGradient
       id="linearGradient4644-104-3-3-6-2-3-4">
      <stop
         offset="0"
         style="stop-color:#ff4035;stop-opacity:1;"
         id="stop5237-6-5-1-7-5-2" />
      <stop
         offset="1"
         style="stop-color:#dc311a;stop-opacity:1;"
         id="stop5239-4-6-4-8-4-8" />
    </linearGradient>
    <radialGradient
       inkscape:collect="always"
       xlink:href="#linearGradient3820-7-2-1"
       id="radialGradient3302"
       gradientUnits="userSpaceOnUse"
       gradientTransform="matrix(0.27083381,0,0,0.08762273,-2.85507,25.187228)"
       cx="99.157013"
       cy="186.17059"
       fx="99.157013"
       fy="186.17059"
       r="62.769119" />
    <radialGradient
       inkscape:collect="always"
       xlink:href="#linearGradient4422"
       id="radialGradient3392"
       gradientUnits="userSpaceOnUse"
       gradientTransform="matrix(0,2.4988347,-2.6434689,-6.8014435e-8,104.09953,-11.248822)"
       cx="5.3215203"
       cy="8.4497671"
       fx="5.3215203"
       fy="8.4497671"
       r="19.99999" />
    <linearGradient
       inkscape:collect="always"
       xlink:href="#linearGradient5873"
       id="linearGradient3394"
       gradientUnits="userSpaceOnUse"
       gradientTransform="translate(57.762712,0.93164569)"
       x1="23.75"
       y1="44.25"
       x2="24.000118"
       y2="1.1171311" />
    <radialGradient
       inkscape:collect="always"
       xlink:href="#linearGradient3162"
       id="radialGradient3396"
       gradientUnits="userSpaceOnUse"
       gradientTransform="matrix(9.7678889e-8,2.0000001,-2.7333333,1.3349447e-7,67.82222,-34.333337)"
       cx="25"
       cy="15.666667"
       fx="25"
       fy="15.666667"
       r="10" />
    <linearGradient
       inkscape:collect="always"
       xlink:href="#linearGradient4436"
       id="linearGradient3398"
       gradientUnits="userSpaceOnUse"
       x1="24.777349"
       y1="24.616444"
       x2="24.777349"
       y2="31.493454" />
    <linearGradient
       inkscape:collect="always"
       xlink:href="#linearGradient4965"
       id="linearGradient3400"
       gradientUnits="userSpaceOnUse"
       x1="24.777349"
       y1="18.226145"
       x2="24.777349"
       y2="22.31111" />
    <linearGradient
       inkscape:collect="always"
       xlink:href="#linearGradient4644-104-3-3-6-2-3-4"
       id="linearGradient3402"
       gradientUnits="userSpaceOnUse"
       gradientTransform="matrix(1.3333333,0,0,1.1052632,49.762711,-1.5946703)"
       x1="24.25"
       y1="29.5"
       x2="24.25"
       y2="18.454639" />
    <linearGradient
       id="linearGradient3765">
      <stop
         style="stop-color:#ffffff;stop-opacity:1;"
         offset="0"
         id="stop3767" />
      <stop
         style="stop-color:#e4e4e4;stop-opacity:1;"
         offset="1"
         id="stop3769" />
    </linearGradient>
    <linearGradient
       id="linearGradient3775">
      <stop
         style="stop-color:#ffffff;stop-opacity:0.58823532;"
         offset="0"
         id="stop3777" />
      <stop
         style="stop-color:#ffffff;stop-opacity:1;"
         offset="1"
         id="stop3779" />
    </linearGradient>
    <linearGradient
       id="linearGradient3772-6">
      <stop
         id="stop3774-6"
         style="stop-color:#b4b4b4;stop-opacity:1"
         offset="0" />
      <stop
         id="stop3776-4"
         style="stop-color:#969696;stop-opacity:1"
         offset="1" />
    </linearGradient>
    <linearGradient
       inkscape:collect="always"
       xlink:href="#linearGradient3768-2"
       id="linearGradient3963"
       gradientUnits="userSpaceOnUse"
       x1="20.117516"
       y1="-202.20998"
       x2="461.9924"
       y2="-202.20998" />
    <linearGradient
       id="linearGradient3768-2">
      <stop
         style="stop-color:#5587a3;stop-opacity:1;"
         offset="0"
         id="stop3770-4" />
      <stop
         style="stop-color:#457d8f;stop-opacity:1;"
         offset="1"
         id="stop3772-8" />
    </linearGradient>
    <linearGradient
       inkscape:collect="always"
       xlink:href="#linearGradient3768-2"
       id="linearGradient3954"
       gradientUnits="userSpaceOnUse"
       x1="20.117516"
       y1="-202.20998"
       x2="32.586807"
       y2="-123.50863" />
    <linearGradient
       id="linearGradient3180">
      <stop
         style="stop-color:#5587a3;stop-opacity:1;"
         offset="0"
         id="stop3182" />
      <stop
         style="stop-color:#457d8f;stop-opacity:1;"
         offset="1"
         id="stop3184" />
    </linearGradient>
    <linearGradient
       inkscape:collect="always"
       xlink:href="#linearGradient3768-2"
       id="linearGradient3956"
       gradientUnits="userSpaceOnUse"
       x1="20.117516"
       y1="-202.20998"
       x2="32.586807"
       y2="-123.50863" />
    <linearGradient
       id="linearGradient3187">
      <stop
         style="stop-color:#5587a3;stop-opacity:1;"
         offset="0"
         id="stop3189" />
      <stop
         style="stop-color:#457d8f;stop-opacity:1;"
         offset="1"
         id="stop3191" />
    </linearGradient>
    <linearGradient
       inkscape:collect="always"
       xlink:href="#linearGradient3768-2"
       id="linearGradient3958"
       gradientUnits="userSpaceOnUse"
       x1="20.117516"
       y1="-202.20998"
       x2="32.586807"
       y2="-123.50863" />
    <linearGradient
       id="linearGradient3194">
      <stop
         style="stop-color:#5587a3;stop-opacity:1;"
         offset="0"
         id="stop3196" />
      <stop
         style="stop-color:#457d8f;stop-opacity:1;"
         offset="1"
         id="stop3198" />
    </linearGradient>
    <linearGradient
       inkscape:collect="always"
       xlink:href="#linearGradient3768-2"
       id="linearGradient3961"
       gradientUnits="userSpaceOnUse"
       x1="20.117516"
       y1="-202.20998"
       x2="32.586807"
       y2="-123.50863" />
    <linearGradient
       id="linearGradient3201">
      <stop
         style="stop-color:#5587a3;stop-opacity:1;"
         offset="0"
         id="stop3203" />
      <stop
         style="stop-color:#457d8f;stop-opacity:1;"
         offset="1"
         id="stop3205" />
    </linearGradient>
    <linearGradient
       inkscape:collect="always"
       xlink:href="#linearGradient3800-7-2"
       id="linearGradient3973"
       gradientUnits="userSpaceOnUse"
       spreadMethod="pad"
       x1="457.9744"
       y1="-51.710907"
       x2="442.4953"
       y2="-202.20998" />
    <linearGradient
       id="linearGradient3800-7-2">
      <stop
         style="stop-color:#5ca2b8;stop-opacity:1;"
         offset="0"
         id="stop3802-4-8" />
      <stop
         style="stop-color:#5ca2b8;stop-opacity:1;"
         offset="1"
         id="stop3804-0-6" />
    </linearGradient>
    <linearGradient
       inkscape:collect="always"
       xlink:href="#linearGradient3800-7-2"
       id="linearGradient3965"
       gradientUnits="userSpaceOnUse"
       gradientTransform="translate(-3.6333562,-1.8175159)"
       spreadMethod="pad"
       x1="396.35013"
       y1="-224.8987"
       x2="378.80692"
       y2="-368.20535" />
    <linearGradient
       id="linearGradient3212">
      <stop
         style="stop-color:#5ca2b8;stop-opacity:1;"
         offset="0"
         id="stop3214" />
      <stop
         style="stop-color:#5ca2b8;stop-opacity:1;"
         offset="1"
         id="stop3216" />
    </linearGradient>
    <linearGradient
       inkscape:collect="always"
       xlink:href="#linearGradient3800-7-2"
       id="linearGradient3967"
       gradientUnits="userSpaceOnUse"
       gradientTransform="translate(-3.6333562,-1.8175159)"
       spreadMethod="pad"
       x1="450.1077"
       y1="-143.3038"
       x2="433.4119"
       y2="-242.45497" />
    <linearGradient
       id="linearGradient3219">
      <stop
         style="stop-color:#5ca2b8;stop-opacity:1;"
         offset="0"
         id="stop3221" />
      <stop
         style="stop-color:#5ca2b8;stop-opacity:1;"
         offset="1"
         id="stop3223" />
    </linearGradient>
    <linearGradient
       inkscape:collect="always"
       xlink:href="#linearGradient3800-7-2"
       id="linearGradient3969"
       gradientUnits="userSpaceOnUse"
       gradientTransform="translate(-3.6333562,-1.8175159)"
       spreadMethod="pad"
       x1="489.50595"
       y1="-113.46021"
       x2="442.4953"
       y2="-202.20998" />
    <linearGradient
       id="linearGradient3226">
      <stop
         style="stop-color:#5ca2b8;stop-opacity:1;"
         offset="0"
         id="stop3228" />
      <stop
         style="stop-color:#5ca2b8;stop-opacity:1;"
         offset="1"
         id="stop3230" />
    </linearGradient>
    <linearGradient
       inkscape:collect="always"
       xlink:href="#linearGradient3800-7-2"
       id="linearGradient3971"
       gradientUnits="userSpaceOnUse"
       gradientTransform="translate(-3.6333562,-1.8175159)"
       spreadMethod="pad"
       x1="446.69247"
       y1="-139.79538"
       x2="425.41571"
       y2="-267.90073" />
    <linearGradient
       id="linearGradient3233">
      <stop
         style="stop-color:#5ca2b8;stop-opacity:1;"
         offset="0"
         id="stop3235" />
      <stop
         style="stop-color:#5ca2b8;stop-opacity:1;"
         offset="1"
         id="stop3237" />
    </linearGradient>
    <radialGradient
       inkscape:collect="always"
       xlink:href="#linearGradient3765"
       id="radialGradient3280"
       gradientUnits="userSpaceOnUse"
       gradientTransform="matrix(-1.7922484,4.7450628e-8,-3.529013e-8,-1.3329366,41.58142,-41.248313)"
       cx="14.891734"
       cy="-17.680855"
       fx="14.891734"
       fy="-17.680855"
       r="25.570608" />
    <linearGradient
       inkscape:collect="always"
       xlink:href="#linearGradient3775"
       id="linearGradient3282"
       gradientUnits="userSpaceOnUse"
       x1="15.123692"
       y1="-18.801283"
       x2="15.123692"
       y2="32.56842" />
    <linearGradient
       inkscape:collect="always"
       xlink:href="#linearGradient3772-6"
       id="linearGradient3293"
       gradientUnits="userSpaceOnUse"
       gradientTransform="matrix(1.4102564,0,0,1.4102564,1.4050412,-4.5399056)"
       x1="27.096104"
       y1="10.880992"
       x2="27.096104"
       y2="39.150768" />
    <linearGradient
       inkscape:collect="always"
       xlink:href="#linearGradient3768-2"
       id="linearGradient4084"
       gradientUnits="userSpaceOnUse"
       x1="20.117516"
       y1="-202.20998"
       x2="461.9924"
       y2="-202.20998" />
    <linearGradient
       inkscape:collect="always"
       xlink:href="#linearGradient3800-7-2"
       id="linearGradient4086"
       gradientUnits="userSpaceOnUse"
       spreadMethod="pad"
       x1="457.9744"
       y1="-51.710907"
       x2="442.4953"
       y2="-202.20998" />
    <linearGradient
       inkscape:collect="always"
       xlink:href="#linearGradient3768-2"
       id="linearGradient4130"
       gradientUnits="userSpaceOnUse"
       x1="20.117516"
       y1="-202.20998"
       x2="32.586807"
       y2="-123.50863" />
    <linearGradient
       inkscape:collect="always"
       xlink:href="#linearGradient3768-2"
       id="linearGradient4132"
       gradientUnits="userSpaceOnUse"
       x1="20.117516"
       y1="-202.20998"
       x2="32.586807"
       y2="-123.50863" />
    <linearGradient
       inkscape:collect="always"
       xlink:href="#linearGradient3768-2"
       id="linearGradient4134"
       gradientUnits="userSpaceOnUse"
       x1="20.117516"
       y1="-202.20998"
       x2="32.586807"
       y2="-123.50863" />
    <linearGradient
       inkscape:collect="always"
       xlink:href="#linearGradient3768-2"
       id="linearGradient4136"
       gradientUnits="userSpaceOnUse"
       x1="20.117516"
       y1="-202.20998"
       x2="32.586807"
       y2="-123.50863" />
    <linearGradient
       inkscape:collect="always"
       xlink:href="#linearGradient3768-2"
       id="linearGradient4138"
       gradientUnits="userSpaceOnUse"
       x1="20.117516"
       y1="-202.20998"
       x2="461.9924"
       y2="-202.20998" />
    <linearGradient
       inkscape:collect="always"
       xlink:href="#linearGradient3800-7-2"
       id="linearGradient4140"
       gradientUnits="userSpaceOnUse"
       gradientTransform="translate(-3.6333562,-1.8175159)"
       spreadMethod="pad"
       x1="396.35013"
       y1="-224.8987"
       x2="378.80692"
       y2="-368.20535" />
    <linearGradient
       inkscape:collect="always"
       xlink:href="#linearGradient3800-7-2"
       id="linearGradient4142"
       gradientUnits="userSpaceOnUse"
       gradientTransform="translate(-3.6333562,-1.8175159)"
       spreadMethod="pad"
       x1="450.1077"
       y1="-143.3038"
       x2="433.4119"
       y2="-242.45497" />
    <linearGradient
       inkscape:collect="always"
       xlink:href="#linearGradient3800-7-2"
       id="linearGradient4144"
       gradientUnits="userSpaceOnUse"
       gradientTransform="translate(-3.6333562,-1.8175159)"
       spreadMethod="pad"
       x1="489.50595"
       y1="-113.46021"
       x2="442.4953"
       y2="-202.20998" />
    <linearGradient
       inkscape:collect="always"
       xlink:href="#linearGradient3800-7-2"
       id="linearGradient4146"
       gradientUnits="userSpaceOnUse"
       gradientTransform="translate(-3.6333562,-1.8175159)"
       spreadMethod="pad"
       x1="446.69247"
       y1="-139.79538"
       x2="425.41571"
       y2="-267.90073" />
    <linearGradient
       inkscape:collect="always"
       xlink:href="#linearGradient3800-7-2"
       id="linearGradient4148"
       gradientUnits="userSpaceOnUse"
       spreadMethod="pad"
       x1="457.9744"
       y1="-51.710907"
       x2="442.4953"
       y2="-202.20998" />
    <radialGradient
       inkscape:collect="always"
       xlink:href="#linearGradient3820-7-2-1-6"
       id="radialGradient3955"
       gradientUnits="userSpaceOnUse"
       gradientTransform="matrix(0.27083381,0,0,0.08762273,-62.985938,28.699317)"
       cx="99.157013"
       cy="186.17059"
       fx="99.157013"
       fy="186.17059"
       r="62.769119" />
    <linearGradient
       id="linearGradient3820-7-2-1-6">
      <stop
         id="stop3822-2-6-3-7"
         style="stop-color:#3d3d3d;stop-opacity:1"
         offset="0" />
      <stop
         id="stop3864-8-7-7-1"
         style="stop-color:#686868;stop-opacity:0.49803922"
         offset="0.5" />
      <stop
         id="stop3824-1-2-5-5"
         style="stop-color:#686868;stop-opacity:0"
         offset="1" />
    </linearGradient>
    <radialGradient
       inkscape:collect="always"
       xlink:href="#linearGradient2867-449-88-871-390-598-476-591-434-148-57-177-8-3-3-6-4-8-8-8-5"
       id="radialGradient3957"
       gradientUnits="userSpaceOnUse"
       gradientTransform="matrix(-1.7922484,4.7450628e-8,-3.529013e-8,-1.3329366,41.58142,-41.248313)"
       cx="14.891734"
       cy="-17.680855"
       fx="14.891734"
       fy="-17.680855"
       r="25.570608" />
    <linearGradient
       id="linearGradient2867-449-88-871-390-598-476-591-434-148-57-177-8-3-3-6-4-8-8-8-5">
      <stop
         id="stop3750-1-0-7-6-6-1-3-9-3"
         style="stop-color:#5f5f5f;stop-opacity:1;"
         offset="0" />
      <stop
         id="stop3752-3-7-4-0-32-8-923-0-7"
         style="stop-color:#515151;stop-opacity:1;"
         offset="0.26238" />
      <stop
         id="stop3754-1-8-5-2-7-6-7-1-9"
         style="stop-color:#404040;stop-opacity:1;"
         offset="0.704952" />
      <stop
         id="stop3756-1-6-2-6-6-1-96-6-0"
         style="stop-color:#343434;stop-opacity:1;"
         offset="1" />
    </linearGradient>
    <linearGradient
       inkscape:collect="always"
       xlink:href="#linearGradient3775-8"
       id="linearGradient3282-2"
       gradientUnits="userSpaceOnUse"
       x1="15.123692"
       y1="-18.801283"
       x2="15.123692"
       y2="32.56842" />
    <linearGradient
       id="linearGradient3775-8">
      <stop
         style="stop-color:#ffffff;stop-opacity:0.58823532;"
         offset="0"
         id="stop3777-3" />
      <stop
         style="stop-color:#ffffff;stop-opacity:1;"
         offset="1"
         id="stop3779-1" />
    </linearGradient>
    <radialGradient
       inkscape:collect="always"
       xlink:href="#linearGradient4234"
       id="radialGradient4178"
       gradientUnits="userSpaceOnUse"
       gradientTransform="matrix(-7.5339981e-8,1.108671,-1.6023204,-1.0888603e-7,-2.9588268,-10.297257)"
       cx="31.840776"
       cy="20.00672"
       fx="31.840776"
       fy="20.00672"
       r="5.9926605" />
    <linearGradient
       id="linearGradient4234">
      <stop
         offset="0"
         style="stop-color:#8badea;stop-opacity:1"
         id="stop4236" />
      <stop
         offset="0.26238"
         style="stop-color:#6396cd;stop-opacity:1"
         id="stop4238" />
      <stop
         offset="0.66093999"
         style="stop-color:#3b7caf;stop-opacity:1"
         id="stop4240" />
      <stop
         offset="1"
         style="stop-color:#194c70;stop-opacity:1"
         id="stop4242" />
    </linearGradient>
    <linearGradient
       inkscape:collect="always"
       xlink:href="#linearGradient4252"
       id="linearGradient4180"
       gradientUnits="userSpaceOnUse"
       gradientTransform="matrix(0.57825668,0,0,0.56936361,-53.42815,13.38376)"
       x1="29.329277"
       y1="29.777784"
       x2="29.329277"
       y2="20.041948" />
    <linearGradient
       id="linearGradient4252">
      <stop
         offset="0"
         style="stop-color:#1f4b6a;stop-opacity:1"
         id="stop4254" />
      <stop
         offset="1"
         style="stop-color:#4083c2;stop-opacity:1"
         id="stop4256" />
    </linearGradient>
    <linearGradient
       inkscape:collect="always"
       xlink:href="#linearGradient4368"
       id="linearGradient4175"
       gradientUnits="userSpaceOnUse"
       gradientTransform="matrix(0.45115764,0,0,0.45004823,-109.64701,12.92475)"
       x1="166.49399"
       y1="28.05773"
       x2="166.49399"
       y2="37.641525" />
    <linearGradient
       inkscape:collect="always"
       id="linearGradient4368">
      <stop
         style="stop-color:#ffffff;stop-opacity:1;"
         offset="0"
         id="stop4370" />
      <stop
         style="stop-color:#ffffff;stop-opacity:0;"
         offset="1"
         id="stop4372" />
    </linearGradient>
    <linearGradient
       y2="37.641525"
       x2="166.49399"
       y1="28.05773"
       x1="166.49399"
       gradientTransform="matrix(0.45115764,0,0,0.45004823,-109.64701,12.92475)"
       gradientUnits="userSpaceOnUse"
       id="linearGradient4267"
       xlink:href="#linearGradient4368"
       inkscape:collect="always" />
    <linearGradient
       inkscape:collect="always"
       xlink:href="#linearGradient4252"
       id="linearGradient4410"
       gradientUnits="userSpaceOnUse"
       gradientTransform="matrix(0.57825668,0,0,0.56936361,-53.42815,13.38376)"
       x1="29.329277"
       y1="29.777784"
       x2="29.329277"
       y2="20.041948" />
    <linearGradient
       inkscape:collect="always"
       xlink:href="#linearGradient4368"
       id="linearGradient4413"
       gradientUnits="userSpaceOnUse"
       gradientTransform="matrix(0.45115764,0,0,0.45004823,0.03004,8.4673906)"
       x1="166.49399"
       y1="28.05773"
       x2="166.49399"
       y2="37.641525" />
    <radialGradient
       inkscape:collect="always"
       xlink:href="#linearGradient4234"
       id="radialGradient4416"
       gradientUnits="userSpaceOnUse"
       gradientTransform="matrix(-7.5339981e-8,1.108671,-1.6023204,-1.0888603e-7,106.71822,-14.754616)"
       cx="31.840776"
       cy="20.00672"
       fx="31.840776"
       fy="20.00672"
       r="5.9926605" />
    <linearGradient
       inkscape:collect="always"
       xlink:href="#linearGradient4252"
       id="linearGradient4418"
       gradientUnits="userSpaceOnUse"
       gradientTransform="matrix(0.57825668,0,0,0.56936361,56.2489,8.9264006)"
       x1="29.329277"
       y1="29.777784"
       x2="29.329277"
       y2="20.041948" />
    <radialGradient
       inkscape:collect="always"
       xlink:href="#linearGradient3820-7-2-1-6"
       id="radialGradient4431"
       gradientUnits="userSpaceOnUse"
       gradientTransform="matrix(0.27083381,0,0,0.08762273,40.875833,32.565789)"
       cx="99.157013"
       cy="186.17059"
       fx="99.157013"
       fy="186.17059"
       r="62.769119" />
    <radialGradient
       inkscape:collect="always"
       xlink:href="#linearGradient3765"
       id="radialGradient4446"
       gradientUnits="userSpaceOnUse"
       gradientTransform="matrix(-1.7922484,4.7450628e-8,-3.529013e-8,-1.3329366,41.58142,-41.248313)"
       cx="14.891734"
       cy="-17.680855"
       fx="14.891734"
       fy="-17.680855"
       r="25.570608" />
    <radialGradient
       inkscape:collect="always"
       xlink:href="#linearGradient2867-449-88-871-390-598-476-591-434-148-57-177-8-3-3-6-4-8-8-8-5"
       id="radialGradient4448"
       gradientUnits="userSpaceOnUse"
       gradientTransform="matrix(-1.438655,3.8089076e-8,-2.8327727e-8,-1.069961,45.16851,-14.595754)"
       cx="14.891734"
       cy="-17.680855"
       fx="14.891734"
       fy="-17.680855"
       r="25.570608" />
    <linearGradient
       inkscape:collect="always"
       xlink:href="#linearGradient4411"
       id="linearGradient4450"
       gradientUnits="userSpaceOnUse"
       x1="15.123692"
       y1="-18.801283"
       x2="15.123692"
       y2="32.56842"
       gradientTransform="matrix(0.76417715,0,0,0.76417715,12.376786,18.77786)" />
    <clipPath
       id="clipPath-147250665">
      <g
         transform="translate(0,-1004.3622)"
         id="g17">
        <path
           style="fill:#1890d0"
           inkscape:connector-curvature="0"
           d="m -24,13 c 0,1.105 -0.672,2 -1.5,2 -0.828,0 -1.5,-0.895 -1.5,-2 0,-1.105 0.672,-2 1.5,-2 0.828,0 1.5,0.895 1.5,2 z"
           transform="matrix(15.333333,0,0,11.5,414.99999,878.8622)"
           id="path19" />
      </g>
    </clipPath>
  </defs>
  <metadata
     id="metadata4956">
    <rdf:RDF>
      <cc:Work
         rdf:about="">
        <dc:format>image/svg+xml</dc:format>
        <dc:type
           rdf:resource="http://purl.org/dc/dcmitype/StillImage" />
        <dc:title />
      </cc:Work>
    </rdf:RDF>
  </metadata>
  <path
     style="fill:url(#radialGradient3302);fill-opacity:1;stroke:none"
     id="path3818-0-5"
     inkscape:connector-curvature="0"
     d="m 41,41.5 a 17,5.4999999 0 0 1 -34,0 17,5.4999999 0 1 1 34,0 z" />
  <circle
     r="20.525774"
     cy="24"
     cx="24"
     style="fill:url(#radialGradient4448);fill-opacity:1;stroke:none"
     id="path2985-6" />
  <g
     id="g4432"
     transform="translate(0.00167369,-0.0055)"
     style="fill:none;stroke:#000000;stroke-opacity:1;stroke-linejoin:round;stroke-linecap:round;opacity:0.15">
    <g
       id="g4434"
       clip-path="url(#clipPath-147250665)"
       style="fill:none;stroke:#000000;stroke-opacity:1;stroke-linejoin:round;stroke-linecap:round">
      <!-- color: #2c7ea8 -->
      <g
         id="g4436"
         style="fill:none;stroke:#000000;stroke-opacity:1;stroke-linejoin:round;stroke-linecap:round">
        <path
           id="path4438"
           d="m 20.395,12 c -0.07,0 -0.148,0.023 -0.219,0.074 -0.074,0.051 -0.133,0.145 -0.145,0.223 -0.027,0.156 0.008,0.23 0.074,0.363 0.309,0.555 0.617,0.984 0.734,1.316 0.203,0.457 0.199,0.879 0.145,1.164 l -0.371,1.75 c -1.855,0.426 -3.645,0.859 -5.438,1.461 -0.348,0.109 -0.617,0.223 -0.883,0.363 -0.023,-0.004 -0.051,-0.004 -0.074,0 -0.094,0.059 -0.098,0.141 -0.148,0.219 -0.023,0.043 -0.066,0.09 -0.074,0.148 -0.008,0.055 0.02,0.152 0.074,0.219 0.156,0.211 0.367,0.301 0.664,0.438 0.293,0.137 0.633,0.273 0.883,0.367 1.246,0.449 2.848,0.813 4.117,0.949 -0.344,1.527 -0.672,3.035 -1.18,4.52 -0.121,0.363 -0.277,0.742 -0.438,1.098 -0.461,1.02 -1.051,1.949 -1.617,2.844 -0.602,0.836 -1.105,1.652 -1.762,2.406 -0.125,0.129 -0.32,0.242 -0.441,0.363 -0.059,0.066 -0.102,0.164 -0.148,0.223 -0.02,0.027 -0.055,0.039 -0.074,0.074 -0.02,0.031 -0.008,0.051 0,0.145 -0.004,0.023 -0.004,0.051 0,0.074 0.016,0.027 0.043,0.055 0.074,0.074 0.02,0.027 0.043,0.055 0.074,0.074 0.023,0.004 0.051,0.004 0.074,0 0.133,0.02 0.242,-0.031 0.367,-0.074 0.129,-0.039 0.219,-0.074 0.371,-0.145 0.305,-0.145 0.695,-0.301 1.027,-0.512 0.473,-0.297 0.828,-0.602 1.102,-0.801 0.484,-0.352 1.574,-1.355 2.133,-2.039 0.641,-0.723 1.32,-1.5 1.84,-2.48 0.008,-0.02 -0.012,-0.055 0,-0.074 0.035,-0.063 0.238,-0.449 0.293,-0.586 0.109,-0.273 0.184,-0.547 0.219,-0.656 l 1.617,-4.887 5.66,-1.313 c -0.141,1.18 -0.297,2.32 -0.438,3.5 -0.109,0.973 -0.184,1.363 -0.293,2.406 -0.004,0.031 0.004,0.039 0,0.074 -0.066,0.32 -0.246,1.223 -0.297,1.461 -0.375,1.809 -0.777,3.453 -1.613,4.887 -0.203,0.277 -0.434,0.57 -0.664,0.801 -0.23,-0.113 -0.555,-0.27 -1.027,-0.293 -0.008,0 -0.051,0 -0.074,0 -0.023,-0.004 -0.051,-0.004 -0.074,0 0,0 -0.074,0.07 -0.074,0.074 -0.027,0.02 -0.059,0.043 -0.074,0.074 -0.031,0.168 0.023,0.297 0.074,0.441 0.051,0.145 0.09,0.305 0.145,0.438 0.426,0.953 0.926,1.781 1.398,2.625 0.016,0.031 0.039,0.055 0.074,0.074 0.016,0.031 0.039,0.055 0.074,0.074 0.023,0.004 0.047,0.004 0.074,0 0.023,0.004 0.047,0.004 0.074,0 0.027,-0.016 0.055,-0.039 0.074,-0.074 0.703,-0.66 1.535,-1.73 2.133,-2.625 1.172,-1.746 2.164,-3.695 2.867,-5.906 0.105,-0.344 0.191,-0.691 0.293,-1.094 l 2.203,-8.387 c 0.094,-0.371 0.203,-0.785 0.219,-1.098 0.004,-0.023 0.004,-0.055 0,-0.074 C 33.956,16.655 33.854,16.6 33.78,16.533 33.706,16.482 33.655,16.435 33.561,16.388 33.37,16.294 33.12,16.177 32.897,16.099 31.838,15.747 30.69,15.423 29.444,15.15 c -0.137,-0.059 -0.223,-0.082 -0.367,-0.078 -0.145,0.016 -0.355,0.043 -0.516,0.078 -0.32,0.066 -0.648,0.168 -0.883,0.227 l -2.941,0.648 c 0.125,-0.387 0.332,-0.961 0.145,-1.676 -0.25,-0.816 -0.898,-1.293 -1.613,-1.531 -0.613,-0.207 -1.211,-0.391 -1.84,-0.586 -0.102,-0.023 -0.563,-0.188 -1.027,-0.219 M 20.394,11.99"
           inkscape:connector-curvature="0"
           style="fill:none;fill-opacity:1;fill-rule:nonzero;stroke:#000000;stroke-opacity:1;stroke-linejoin:round;stroke-linecap:round" />
        <path
           style="color:#000000;font-style:normal;font-variant:normal;font-weight:normal;font-stretch:normal;font-size:medium;line-height:normal;font-family:sans-serif;text-indent:0;text-align:start;text-decoration:none;text-decoration-line:none;text-decoration-style:solid;text-decoration-color:#000000;letter-spacing:normal;word-spacing:normal;text-transform:none;direction:ltr;block-progression:tb;writing-mode:lr-tb;baseline-shift:baseline;text-anchor:start;white-space:normal;clip-rule:nonzero;display:inline;overflow:visible;visibility:visible;opacity:1;isolation:auto;mix-blend-mode:normal;color-interpolation:sRGB;color-interpolation-filters:linearRGB;solid-color:#000000;solid-opacity:1;fill:#000000;fill-opacity:1;fill-rule:nonzero;stroke:none;stroke-width:1;stroke-linecap:round;stroke-linejoin:round;stroke-miterlimit:4;stroke-dasharray:none;stroke-dashoffset:0;stroke-opacity:1;color-rendering:auto;image-rendering:auto;shape-rendering:auto;text-rendering:auto;enable-background:accumulate"
           d="m 20.394531,11.5 c -0.01508,0 -0.02793,0.01287 -0.04297,0.01367 a 0.50005,0.50005 0 0 0 -0.214843,0.07227 c -0.08283,0.02748 -0.17155,0.02731 -0.246094,0.08008 -0.204084,0.141687 -0.310952,0.293842 -0.351563,0.550781 -0.04122,0.252022 0.05022,0.531066 0.117188,0.666015 a 0.50005,0.50005 0 0 0 0.01172,0.01953 c 0.324422,0.5827 0.628768,1.040324 0.699219,1.240234 a 0.50005,0.50005 0 0 0 0.01562,0.03711 c 0.155654,0.350411 0.14741,0.666449 0.109376,0.867187 L 20.1875,16.486328 c -1.746781,0.403942 -3.456515,0.814693 -5.171875,1.390625 -0.320365,0.10092 -0.580066,0.217262 -0.833984,0.34375 -0.01643,0.0019 -0.03073,-0.0031 -0.04883,0 a 0.50005,0.50005 0 0 0 -0.179687,0.07031 c -0.132636,0.08325 -0.231167,0.220941 -0.271484,0.300781 -0.04032,0.07984 -0.0479,0.09518 -0.0332,0.07227 a 0.50005,0.50005 0 0 0 -0.01953,0.0332 c 0.02757,-0.05154 -0.08985,0.05477 -0.126953,0.3125 -0.04341,0.298454 0.03255,0.414888 0.177735,0.595703 0.242498,0.319942 0.558789,0.45359 0.845703,0.585937 l -0.0039,0 c 0.312431,0.146085 0.661,0.283505 0.919922,0.38086 a 0.50005,0.50005 0 0 0 0.0059,0.0039 c 1.122283,0.404418 2.469842,0.672911 3.673828,0.845703 -0.305851,1.35795 -0.598328,2.696155 -1.041016,3.990234 a 0.50005,0.50005 0 0 0 0,0.0039 c -0.113247,0.33974 -0.263855,0.70569 -0.419922,1.050781 -0.441986,0.97793 -1.017629,1.885688 -1.583984,2.78125 -0.603005,0.839575 -1.095572,1.627688 -1.707031,2.332031 -0.04976,0.04848 -0.228403,0.154184 -0.425782,0.351563 a 0.50005,0.50005 0 0 0 -0.01953,0.01953 c -0.142453,0.159354 -0.196097,0.283573 -0.169922,0.25 0.03749,-0.04479 0.06943,-0.06858 0.04687,-0.05078 -0.02417,0.01907 -0.09349,0.08402 -0.15039,0.175781 -0.05617,0.09864 -0.09064,0.277188 -0.08594,0.341797 0.0049,0.06756 0.0093,0.07262 0.01172,0.101562 l 0.0059,-0.128906 c -0.01574,0.09049 -0.01574,0.155605 0,0.246094 a 0.50005,0.50005 0 0 0 0.0625,0.169922 c 0.06448,0.108807 0.134871,0.178365 0.242188,0.24414 l -0.140625,-0.128906 c 0.03072,0.04147 0.09119,0.127336 0.214844,0.203125 a 0.50005,0.50005 0 0 0 0.175781,0.06641 c 0.03547,0.0062 0.06511,-0.0013 0.0957,0 0.285565,0.03775 0.496267,-0.06115 0.589844,-0.09375 l 0.0039,0 c 0.139524,-0.04304 0.262887,-0.09071 0.419922,-0.164062 a 0.50005,0.50005 0 0 0 0.002,-0.002 c 0.281323,-0.133744 0.694586,-0.294778 1.082031,-0.541016 l -0.0039,0 c 0.50814,-0.319065 0.887257,-0.641437 1.130859,-0.818359 0.557082,-0.405151 1.602191,-1.369982 2.212891,-2.113282 l 0.002,-0.002 c 0.642261,-0.724434 1.353542,-1.532576 1.90625,-2.574219 a 0.50005,0.50005 0 0 0 0.02148,-0.04883 c 0.02648,-0.06619 0.0018,-0.04515 0.0078,-0.08789 0.07109,-0.129117 0.202784,-0.367085 0.285156,-0.572266 0.121705,-0.304821 0.205903,-0.608518 0.230469,-0.685547 l 0.002,-0.0039 1.527344,-4.615234 4.6875,-1.087891 c -0.115996,0.928102 -0.236647,1.845652 -0.34961,2.791016 a 0.50005,0.50005 0 0 0 0,0.0039 c -0.10782,0.962472 -0.182843,1.356389 -0.292968,2.410156 -0.0027,0.02839 -4.91e-4,0.04025 0,0.06445 l 0,0.0039 c -0.0716,0.348796 -0.243237,1.200208 -0.289063,1.414062 a 0.50005,0.50005 0 0 0 0,0.002 c -0.371559,1.7924 -0.768641,3.374988 -1.550781,4.722656 -0.134378,0.18208 -0.278693,0.344961 -0.419922,0.50586 -0.235949,-0.09624 -0.437007,-0.211791 -0.820312,-0.230469 a 0.50005,0.50005 0 0 0 -0.02344,0 l -0.07422,0 0.08594,0.0059 c -0.09049,-0.01574 -0.155605,-0.01574 -0.246094,0 a 0.50005,0.50005 0 0 0 -0.257813,0.13086 c 0,0 -0.02115,0.01784 -0.04297,0.03906 -0.01091,0.01061 -0.0221,0.02175 -0.03516,0.03516 -0.0065,0.0067 -0.01296,0.01323 -0.02539,0.02734 -0.0062,0.0071 -0.01163,0.01393 -0.02734,0.03516 -0.0079,0.01062 -0.03502,0.05444 -0.03516,0.05469 -4e-6,7e-6 -0.0018,0.0035 -0.002,0.0039 -0.03458,0.03768 -0.05023,0.02387 -0.08594,0.09766 a 0.50005,0.50005 0 0 0 -0.04297,0.126953 c -0.05809,0.31481 0.05041,0.571335 0.0957,0.699218 0.03906,0.111629 0.07747,0.275156 0.154297,0.460938 a 0.50005,0.50005 0 0 0 0.0039,0.01367 c 0.440174,0.984709 0.950541,1.824313 1.416015,2.65625 0.05838,0.108849 0.168225,0.219167 0.275391,0.277343 0.02819,0.02209 0.04544,0.0586 0.07422,0.07422 a 0.50005,0.50005 0 0 0 0.152343,0.05273 c 0.08085,0.01406 0.162933,0.01225 0.232422,0.002 0.02438,-0.0013 0.05203,0.0033 0.07422,0 a 0.50005,0.50005 0 0 0 0.181641,-0.06445 c 0.07737,-0.04585 0.184365,-0.130327 0.257812,-0.265625 l -0.0957,0.126953 c 0.75608,-0.709834 1.590331,-1.790873 2.205078,-2.710938 1.195199,-1.78056 2.209289,-3.773624 2.927735,-6.033203 a 0.50005,0.50005 0 0 0 0.002,-0.0059 c 0.109746,-0.35955 0.197655,-0.713488 0.298828,-1.113282 l 0.002,-0.0039 2.201172,-8.382812 a 0.50005,0.50005 0 0 0 0.002,-0.0039 c 0.09057,-0.357463 0.201139,-0.766406 0.226563,-1.16211 0.01337,-0.07882 0.02058,-0.120034 -0.0039,-0.236328 a 0.50005,0.50005 0 0 0 -0.02734,-0.08594 c -0.124885,-0.304951 -0.340242,-0.403257 -0.345704,-0.408203 a 0.50005,0.50005 0 0 0 -0.05078,-0.04102 c -0.0442,-0.03046 -0.130743,-0.105411 -0.279297,-0.179688 a 0.50005,0.50005 0 0 0 -0.0039,-0.002 c -0.198609,-0.09774 -0.458594,-0.221504 -0.71875,-0.3125 a 0.50005,0.50005 0 0 0 -0.0078,-0.002 c -1.074489,-0.357148 -2.239836,-0.685931 -3.503907,-0.962891 l 0.0918,0.0293 c -0.163459,-0.0704 -0.377375,-0.124771 -0.580078,-0.11914 a 0.50005,0.50005 0 0 0 -0.04102,0.002 c -0.15364,0.01695 -0.369373,0.04506 -0.566406,0.08789 -0.351104,0.07288 -0.690252,0.178201 -0.898437,0.230469 l -2.283203,0.501953 c 0.07874,-0.370276 0.227523,-0.652921 0.0918,-1.171875 a 0.50005,0.50005 0 0 0 -0.0059,-0.01953 C 25.054669,13.208564 24.248207,12.616618 23.429688,12.34375 l -0.002,0 c -0.620663,-0.209553 -1.223805,-0.395229 -1.851562,-0.589844 a 0.50005,0.50005 0 0 0 -0.03711,-0.0098 c 0.0416,0.0094 -0.159909,-0.05103 -0.363281,-0.103516 -0.157201,-0.04057 -0.365014,-0.07172 -0.572265,-0.09766 A 0.50005,0.50005 0 0 0 20.394531,11.5 Z m 0.222657,1.054688 c 0.106091,0.01837 0.21508,0.03055 0.308593,0.05469 0.168629,0.04352 0.248977,0.07895 0.392578,0.111328 0.615462,0.190758 1.198576,0.370255 1.791016,0.570313 a 0.50005,0.50005 0 0 0 0.002,0.002 c 0.607586,0.202245 1.087944,0.566954 1.285156,1.197265 0.139255,0.554913 -0.006,0.98235 -0.134765,1.38086 a 0.50005,0.50005 0 0 0 0.582031,0.642578 l 2.941406,-0.648438 a 0.50005,0.50005 0 0 0 0.01367,-0.0039 c 0.260432,-0.06539 0.576895,-0.161636 0.863281,-0.220703 a 0.50005,0.50005 0 0 0 0.0059,-0.002 c 0.115494,-0.02511 0.295057,-0.04888 0.429687,-0.06445 0.07301,-0.0026 0.04218,-0.0106 0.148438,0.03516 a 0.50005,0.50005 0 0 0 0.0918,0.0293 c 1.227928,0.26904 2.358832,0.588695 3.402343,0.935547 0.184257,0.06514 0.416879,0.172788 0.597657,0.261719 0.03423,0.01711 0.0652,0.04504 0.136718,0.0957 -0.02744,0.230164 -0.09651,0.548668 -0.179687,0.876953 l -2.201172,8.382812 a 0.50005,0.50005 0 0 0 -0.002,0.0059 c -0.102348,0.404376 -0.18531,0.743197 -0.285156,1.070312 l 0,-0.0059 c -0.687554,2.162421 -1.655886,4.067857 -2.804688,5.779297 -0.515861,0.772066 -1.220477,1.630072 -1.828125,2.253906 -0.415505,-0.733368 -0.838583,-1.444677 -1.195312,-2.240234 l -0.002,-0.0078 c -0.01872,-0.04649 -0.0518,-0.149363 -0.07812,-0.234375 0.170148,0.04709 0.36486,0.07913 0.501953,0.146484 a 0.50005,0.50005 0 0 0 0.574218,-0.0957 c 0.261051,-0.262186 0.50236,-0.570145 0.712891,-0.857422 a 0.50005,0.50005 0 0 0 0.0293,-0.04492 c 0.883999,-1.516334 1.292946,-3.215056 1.669922,-5.033204 l 0,-0.0039 c 0.05528,-0.258281 0.232301,-1.147851 0.296875,-1.460937 a 0.50005,0.50005 0 0 0 0.0078,-0.04492 c 0.0037,-0.0324 7.18e-4,-0.04978 0,-0.07813 0.107702,-1.03058 0.18308,-1.418393 0.292969,-2.398438 l 0,-0.0039 c 0.140226,-1.173164 0.296002,-2.311927 0.4375,-3.496094 A 0.50005,0.50005 0 0 0 28.8125,18.894531 l -5.660156,1.3125 a 0.50005,0.50005 0 0 0 -0.361328,0.330078 l -1.617188,4.888672 a 0.50005,0.50005 0 0 0 -0.002,0.0039 c -0.046,0.143265 -0.111464,0.38369 -0.207031,0.623046 -0.01782,0.04368 -0.220479,0.44386 -0.251953,0.503907 -0.04005,0.06341 -0.0062,0.05863 -0.01953,0.107421 -0.03562,0.130306 -0.05408,0.269117 -0.05078,0.28711 0.0045,0.02473 -0.05742,-0.0215 0.0293,-0.238281 l 0.02148,-0.04883 c -0.48682,0.917469 -1.132175,1.661721 -1.771484,2.382813 a 0.50005,0.50005 0 0 0 -0.01367,0.01563 c -0.509024,0.622848 -1.631664,1.652929 -2.039062,1.949219 -0.304398,0.221077 -0.636359,0.508268 -1.074219,0.783203 a 0.50005,0.50005 0 0 0 -0.002,0.002 c -0.154605,0.09826 -0.355936,0.181671 -0.544922,0.269531 0.61553,-0.738687 1.111534,-1.501363 1.65625,-2.257812 a 0.50005,0.50005 0 0 0 0.01758,-0.02539 c 0.565357,-0.893984 1.170494,-1.842882 1.650391,-2.904297 l 0,-0.002 c 0.165093,-0.365151 0.326734,-0.75625 0.455078,-1.140625 l 0.002,-0.0039 c 0.519407,-1.519356 0.850205,-3.045113 1.193359,-4.56836 a 0.50005,0.50005 0 0 0 -0.435547,-0.607421 c -1.217516,-0.130483 -2.796298,-0.488906 -3.99414,-0.919922 l -0.0059,-0.002 c -0.240672,-0.09061 -0.570063,-0.222554 -0.841797,-0.34961 a 0.50005,0.50005 0 0 0 -0.002,-0.002 c -0.191303,-0.08824 -0.224305,-0.128107 -0.296875,-0.177734 0.205142,-0.101452 0.403642,-0.191493 0.677735,-0.277344 a 0.50005,0.50005 0 0 0 0.0098,-0.0039 c 1.766393,-0.593067 3.539273,-1.022104 5.390625,-1.447266 a 0.50005,0.50005 0 0 0 0.376953,-0.382812 l 0.371094,-1.75 a 0.50005,0.50005 0 0 0 0.002,-0.01172 c 0.06922,-0.365306 0.06658,-0.886594 -0.175781,-1.44336 -0.148784,-0.4092 -0.420018,-0.788012 -0.68164,-1.234374 z m 12.828124,4.349609 c 0.04873,0.04412 0.01351,-0.0015 0.03125,0.01563 -2.32e-4,0.002 -0.0017,0.0058 -0.002,0.0078 l -0.0293,-0.02344 z m -18.935546,2.261719 c 0.0053,-0.01082 -0.0054,0.01575 0.002,0.002 l -0.02149,0.03516 c 0.01486,-0.02318 0.0091,-0.01815 0.01953,-0.03711 z"
           id="path4440"
           inkscape:connector-curvature="0" />
      </g>
    </g>
  </g>
  <circle
     r="20.525774"
     cy="24"
     cx="24"
     id="path3755-9"
     style="opacity:0.6;fill:none;stroke:#242424;stroke-width:0.94845384;stroke-miterlimit:4;stroke-dasharray:none;stroke-opacity:1" />
  <circle
     r="19.540474"
     cy="23.999884"
     cx="24"
     style="opacity:0.6;fill:none;stroke:url(#linearGradient4450);stroke-width:0.93261218;stroke-miterlimit:4;stroke-dasharray:none;stroke-opacity:0.58823529"
     id="path3773-9" />
  <g
     id="g4420"
     transform="translate(0.00167369,-0.0055)"
     style="fill:none;stroke:#000000;stroke-opacity:1;stroke-width:2;stroke-miterlimit:4;stroke-dasharray:none;stroke-linejoin:round;stroke-linecap:round;opacity:0.15">
    <g
       id="g4422"
       clip-path="url(#clipPath-147250665)"
       style="fill:none;stroke:#000000;stroke-opacity:1;stroke-width:2;stroke-miterlimit:4;stroke-dasharray:none;stroke-linejoin:round;stroke-linecap:round">
      <!-- color: #2c7ea8 -->
      <g
         id="g4424"
         style="fill:none;stroke:#000000;stroke-opacity:1;stroke-width:2;stroke-miterlimit:4;stroke-dasharray:none;stroke-linejoin:round;stroke-linecap:round">
        <path
           id="path4426"
           d="m 20.395,12 c -0.07,0 -0.148,0.023 -0.219,0.074 -0.074,0.051 -0.133,0.145 -0.145,0.223 -0.027,0.156 0.008,0.23 0.074,0.363 0.309,0.555 0.617,0.984 0.734,1.316 0.203,0.457 0.199,0.879 0.145,1.164 l -0.371,1.75 c -1.855,0.426 -3.645,0.859 -5.438,1.461 -0.348,0.109 -0.617,0.223 -0.883,0.363 -0.023,-0.004 -0.051,-0.004 -0.074,0 -0.094,0.059 -0.098,0.141 -0.148,0.219 -0.023,0.043 -0.066,0.09 -0.074,0.148 -0.008,0.055 0.02,0.152 0.074,0.219 0.156,0.211 0.367,0.301 0.664,0.438 0.293,0.137 0.633,0.273 0.883,0.367 1.246,0.449 2.848,0.813 4.117,0.949 -0.344,1.527 -0.672,3.035 -1.18,4.52 -0.121,0.363 -0.277,0.742 -0.438,1.098 -0.461,1.02 -1.051,1.949 -1.617,2.844 -0.602,0.836 -1.105,1.652 -1.762,2.406 -0.125,0.129 -0.32,0.242 -0.441,0.363 -0.059,0.066 -0.102,0.164 -0.148,0.223 -0.02,0.027 -0.055,0.039 -0.074,0.074 -0.02,0.031 -0.008,0.051 0,0.145 -0.004,0.023 -0.004,0.051 0,0.074 0.016,0.027 0.043,0.055 0.074,0.074 0.02,0.027 0.043,0.055 0.074,0.074 0.023,0.004 0.051,0.004 0.074,0 0.133,0.02 0.242,-0.031 0.367,-0.074 0.129,-0.039 0.219,-0.074 0.371,-0.145 0.305,-0.145 0.695,-0.301 1.027,-0.512 0.473,-0.297 0.828,-0.602 1.102,-0.801 0.484,-0.352 1.574,-1.355 2.133,-2.039 0.641,-0.723 1.32,-1.5 1.84,-2.48 0.008,-0.02 -0.012,-0.055 0,-0.074 0.035,-0.063 0.238,-0.449 0.293,-0.586 0.109,-0.273 0.184,-0.547 0.219,-0.656 l 1.617,-4.887 5.66,-1.313 c -0.141,1.18 -0.297,2.32 -0.438,3.5 -0.109,0.973 -0.184,1.363 -0.293,2.406 -0.004,0.031 0.004,0.039 0,0.074 -0.066,0.32 -0.246,1.223 -0.297,1.461 -0.375,1.809 -0.777,3.453 -1.613,4.887 -0.203,0.277 -0.434,0.57 -0.664,0.801 -0.23,-0.113 -0.555,-0.27 -1.027,-0.293 -0.008,0 -0.051,0 -0.074,0 -0.023,-0.004 -0.051,-0.004 -0.074,0 0,0 -0.074,0.07 -0.074,0.074 -0.027,0.02 -0.059,0.043 -0.074,0.074 -0.031,0.168 0.023,0.297 0.074,0.441 0.051,0.145 0.09,0.305 0.145,0.438 0.426,0.953 0.926,1.781 1.398,2.625 0.016,0.031 0.039,0.055 0.074,0.074 0.016,0.031 0.039,0.055 0.074,0.074 0.023,0.004 0.047,0.004 0.074,0 0.023,0.004 0.047,0.004 0.074,0 0.027,-0.016 0.055,-0.039 0.074,-0.074 0.703,-0.66 1.535,-1.73 2.133,-2.625 1.172,-1.746 2.164,-3.695 2.867,-5.906 0.105,-0.344 0.191,-0.691 0.293,-1.094 l 2.203,-8.387 c 0.094,-0.371 0.203,-0.785 0.219,-1.098 0.004,-0.023 0.004,-0.055 0,-0.074 C 33.956,16.655 33.854,16.6 33.78,16.533 33.706,16.482 33.655,16.435 33.561,16.388 33.37,16.294 33.12,16.177 32.897,16.099 31.838,15.747 30.69,15.423 29.444,15.15 c -0.137,-0.059 -0.223,-0.082 -0.367,-0.078 -0.145,0.016 -0.355,0.043 -0.516,0.078 -0.32,0.066 -0.648,0.168 -0.883,0.227 l -2.941,0.648 c 0.125,-0.387 0.332,-0.961 0.145,-1.676 -0.25,-0.816 -0.898,-1.293 -1.613,-1.531 -0.613,-0.207 -1.211,-0.391 -1.84,-0.586 -0.102,-0.023 -0.563,-0.188 -1.027,-0.219 M 20.394,11.99"
           inkscape:connector-curvature="0"
           style="fill:none;fill-opacity:1;fill-rule:nonzero;stroke:#000000;stroke-opacity:1;stroke-width:2;stroke-miterlimit:4;stroke-dasharray:none;stroke-linejoin:round;stroke-linecap:round" />
        <path
           style="color:#000000;font-style:normal;font-variant:normal;font-weight:normal;font-stretch:normal;font-size:medium;line-height:normal;font-family:sans-serif;text-indent:0;text-align:start;text-decoration:none;text-decoration-line:none;text-decoration-style:solid;text-decoration-color:#000000;letter-spacing:normal;word-spacing:normal;text-transform:none;direction:ltr;block-progression:tb;writing-mode:lr-tb;baseline-shift:baseline;text-anchor:start;white-space:normal;clip-rule:nonzero;display:inline;overflow:visible;visibility:visible;opacity:0.15;isolation:auto;mix-blend-mode:normal;color-interpolation:sRGB;color-interpolation-filters:linearRGB;solid-color:#000000;solid-opacity:1;fill:#000000;fill-opacity:1;fill-rule:nonzero;stroke:none;stroke-width:2;stroke-linecap:round;stroke-linejoin:round;stroke-miterlimit:4;stroke-dasharray:none;stroke-dashoffset:0;stroke-opacity:1;color-rendering:auto;image-rendering:auto;shape-rendering:auto;text-rendering:auto;enable-background:accumulate"
           d="m 20.394531,11 c -0.01417,0 -0.02496,0.01323 -0.03906,0.01367 a 1.0001,1.0001 0 0 0 -0.529297,0.171875 c -0.07089,0.03389 -0.155115,0.02614 -0.220703,0.07226 -0.334141,0.232014 -0.489929,0.444971 -0.558594,0.88086 -0.05503,0.350398 0.09386,0.82926 0.162109,0.966797 a 1.0001,1.0001 0 0 0 0.02148,0.04101 c 0.339845,0.610402 0.642115,1.09429 0.666015,1.16211 a 1.0001,1.0001 0 0 0 0.0293,0.07422 c 0.107942,0.243002 0.09808,0.451638 0.07617,0.56836 -7.4e-5,3.94e-4 7.4e-5,0.0016 0,0.002 l -0.240234,1.130859 c -1.637638,0.382071 -3.254482,0.766214 -4.884766,1.3125 -0.0015,4.78e-4 -0.0024,0.0015 -0.0039,0.002 -0.30401,0.09544 -0.554288,0.211371 -0.804688,0.330078 -0.0079,0.0013 -0.01333,-0.0014 -0.02148,0 a 1.0001,1.0001 0 0 0 -0.361328,0.138672 c -0.218272,0.137 -0.389537,0.375992 -0.451172,0.498046 -0.06164,0.122055 -0.06024,0.112181 -0.0059,0.02734 a 1.0001,1.0001 0 0 0 -0.04102,0.06836 c 0.07789,-0.145622 -0.113763,0.02338 -0.179688,0.480468 -0.0764,0.53313 0.04403,0.677517 0.277344,0.966797 0.327805,0.428612 0.745953,0.607607 1.025391,0.736328 0.331861,0.155171 0.687233,0.295775 0.955078,0.396485 a 1.0001,1.0001 0 0 0 0.01172,0.0039 c 0.996013,0.358916 2.138375,0.556482 3.230468,0.746094 -0.269231,1.179171 -0.521644,2.351822 -0.90039,3.458984 a 1.0001,1.0001 0 0 0 -0.002,0.0078 c -0.105494,0.316481 -0.249258,0.667771 -0.400391,1.001954 -0.419309,0.927756 -0.97541,1.810966 -1.537109,2.699218 -0.611739,0.851942 -1.095634,1.622039 -1.669922,2.285157 0.01163,-0.01951 -0.141508,0.06729 -0.408203,0.333984 a 1.0001,1.0001 0 0 0 -0.03906,0.04102 c -0.225906,0.252709 -0.289757,0.399583 -0.191406,0.273437 a 1.0001,1.0001 0 0 0 -0.01563,0.01953 c 0.113896,-0.153759 0.188073,-0.185568 0.148438,-0.154297 -0.03543,0.02795 -0.162117,0.146693 -0.265626,0.310547 -0.08964,0.158546 -0.130824,0.407355 -0.138671,0.550782 -0.01607,0.120985 -0.02324,0.219899 0,0.353515 a 1.0001,1.0001 0 0 0 0.125,0.337891 c 0.112957,0.190615 0.228475,0.305419 0.412109,0.417969 l -0.28125,-0.257813 c 0.04144,0.05594 0.139158,0.197501 0.355469,0.330078 a 1.0001,1.0001 0 0 0 0.351562,0.132813 c 0.04673,0.0081 0.08338,-0.0033 0.123047,0 0.431407,0.05207 0.740666,-0.08767 0.806641,-0.111328 0.155635,-0.04855 0.310996,-0.10821 0.476562,-0.185547 a 1.0001,1.0001 0 0 0 0.0059,-0.0039 c 0.256405,-0.121897 0.688241,-0.289331 1.128906,-0.568359 0.54328,-0.341129 0.944999,-0.683045 1.158203,-0.837891 a 1.0001,1.0001 0 0 0 0.002,0 c 0.63363,-0.460821 1.645394,-1.399813 2.304688,-2.203124 0.641542,-0.723671 1.380253,-1.558204 1.96289,-2.65625 a 1.0001,1.0001 0 0 0 0.04492,-0.09766 c 0.02641,-0.06602 -0.007,-0.03078 0.0078,-0.08398 0.0807,-0.143981 0.178422,-0.308356 0.285156,-0.574219 a 1.0001,1.0001 0 0 0 0,-0.002 c 0.134431,-0.336695 0.225698,-0.666617 0.240234,-0.712891 l 0.002,-0.0078 1.4375,-4.345703 3.716797,-0.863281 c -0.08811,0.689852 -0.175036,1.3749 -0.259765,2.083984 a 1.0001,1.0001 0 0 0 0,0.0078 c -0.1056,0.942646 -0.18153,1.347338 -0.291016,2.388672 -0.0034,0.02652 0.0011,0.03452 0,0.0625 -0.07457,0.363815 -0.241641,1.196667 -0.283203,1.390625 a 1.0001,1.0001 0 0 0 -0.002,0.0059 c -0.368097,1.775697 -0.759236,3.294469 -1.488281,4.55664 -0.05944,0.07978 -0.115012,0.136649 -0.175782,0.212891 -0.20393,-0.06076 -0.301789,-0.137768 -0.564453,-0.15625 -0.157977,-0.02747 -0.258038,-0.02747 -0.416015,0 a 1.0001,1.0001 0 0 0 -0.515626,0.259766 c 0,0 -0.02174,0.02047 -0.04687,0.04492 -0.01257,0.01223 -0.02575,0.02523 -0.04492,0.04492 -0.0096,0.0098 -0.02013,0.01899 -0.04297,0.04492 -0.01142,0.01296 -0.02381,0.02663 -0.05469,0.06836 -0.01544,0.02087 -0.07017,0.107173 -0.07031,0.107422 -9e-6,1.6e-5 -0.006,0.01369 -0.0078,0.01758 -0.04189,0.05692 -0.05081,0.02063 -0.09375,0.109376 a 1.0001,1.0001 0 0 0 -0.08203,0.253906 c -0.08518,0.461621 0.0737,0.845264 0.113281,0.957031 0.02752,0.07869 0.06498,0.246736 0.164063,0.486328 a 1.0001,1.0001 0 0 0 0.01172,0.02539 c 0.451949,1.011052 0.964474,1.859385 1.421875,2.675781 0.09866,0.191151 0.302451,0.394322 0.486328,0.494141 0.02797,0.01919 0.04474,0.05927 0.07227,0.07422 a 1.0001,1.0001 0 0 0 0.306641,0.107422 c 0.138695,0.02412 0.2806,0.0205 0.392578,0.0039 0.02304,-0.0021 0.05305,0.0031 0.07422,0 a 1.0001,1.0001 0 0 0 0.363281,-0.128906 c 0.127731,-0.07569 0.313512,-0.221435 0.441406,-0.457031 l -0.193359,0.251953 c 0.808821,-0.759348 1.647893,-1.852017 2.279297,-2.796875 l 0,-0.002 c 1.217997,-1.814774 2.254574,-3.850628 2.988281,-6.158203 a 1.0001,1.0001 0 0 0 0.0039,-0.01172 c 0.114522,-0.375193 0.204235,-0.735801 0.304688,-1.132812 l 0.002,-0.0078 2.201172,-8.378906 a 1.0001,1.0001 0 0 0 0.002,-0.0078 c 0.08701,-0.343399 0.199411,-0.755612 0.234375,-1.21875 0.02389,-0.135489 0.03951,-0.188785 -0.0059,-0.404296 a 1.0001,1.0001 0 0 0 -0.05469,-0.173829 c -0.206769,-0.504902 -0.535732,-0.646953 -0.472656,-0.589843 a 1.0001,1.0001 0 0 0 -0.103516,-0.08203 c -0.0144,-0.0099 -0.136736,-0.11329 -0.339844,-0.214843 a 1.0001,1.0001 0 0 0 -0.0059,-0.0039 C 33.795734,15.388745 33.523875,15.25829 33.226562,15.154297 a 1.0001,1.0001 0 0 0 -0.01367,-0.0039 c -1.089977,-0.362297 -2.272546,-0.695644 -3.554688,-0.976563 l 0.181641,0.05859 c -0.189919,-0.08179 -0.529611,-0.167418 -0.791016,-0.160156 a 1.0001,1.0001 0 0 0 -0.08203,0.0059 c -0.159203,0.01757 -0.379155,0.043 -0.607422,0.0918 -7.67e-4,1.58e-4 -0.0012,-1.59e-4 -0.002,0 -0.0037,7.93e-4 -0.0061,0.0011 -0.0098,0.002 -0.381575,0.07961 -0.732207,0.188718 -0.914062,0.234375 L 25.878906,14.75 c -0.0081,-0.220961 0.03432,-0.411068 -0.0293,-0.654297 a 1.0001,1.0001 0 0 0 -0.01172,-0.03906 c -0.359095,-1.172086 -1.326567,-1.877318 -2.248047,-2.185547 l -0.0059,-0.002 c -0.627457,-0.211767 -1.233638,-0.397809 -1.859375,-0.591797 a 1.0001,1.0001 0 0 0 -0.07617,-0.02149 c 0.134203,0.03026 -0.126914,-0.04264 -0.347657,-0.09961 -0.141953,-0.03663 -0.346079,-0.06072 -0.535156,-0.08984 A 1.0001,1.0001 0 0 0 20.394531,11 Z m 4.294922,20.232422 c -0.0219,-0.0015 -0.02463,-0.01259 -0.04687,-0.01367 a 1.0001,1.0001 0 0 0 -0.04883,0 l -0.07422,0 0.169922,0.01367 z M 21.615234,13.341797 c 0.449364,0.139804 0.896046,0.275943 1.333985,0.423828 a 1.0001,1.0001 0 0 0 0.0039,0.002 c 0.498847,0.16605 0.813267,0.41747 0.957031,0.861328 0.09551,0.39721 0.007,0.679135 -0.125,1.087891 a 1.0001,1.0001 0 0 0 1.167969,1.285156 l 2.939453,-0.648437 a 1.0001,1.0001 0 0 0 0.0293,-0.0059 c 0.285864,-0.07177 0.589024,-0.166615 0.841797,-0.21875 a 1.0001,1.0001 0 0 0 0.0098,-0.002 c 0.06668,-0.0145 0.197223,-0.03026 0.310546,-0.04492 a 1.0001,1.0001 0 0 0 0.146485,0.04492 c 1.207711,0.264611 2.3192,0.578922 3.345703,0.919922 0.0018,6.06e-4 0.004,0.0013 0.0059,0.002 0.09199,0.03296 0.213873,0.09247 0.332031,0.146484 -0.03547,0.17073 -0.05151,0.284974 -0.103515,0.490235 l -2.201172,8.378906 a 1.0001,1.0001 0 0 0 -0.002,0.0098 c -0.101576,0.401324 -0.183942,0.727847 -0.277344,1.035156 -0.672108,2.113842 -1.618537,3.975464 -2.74414,5.652344 a 1.0001,1.0001 0 0 0 0,0.002 c -0.376428,0.563382 -0.861129,1.096068 -1.324219,1.634766 -0.165893,-0.295884 -0.326896,-0.601465 -0.480469,-0.902344 a 1.0001,1.0001 0 0 0 0.546875,-0.279297 c 0.292102,-0.293372 0.543656,-0.618462 0.761719,-0.916016 a 1.0001,1.0001 0 0 0 0.05859,-0.08789 c 0.931874,-1.598455 1.347619,-3.352397 1.726562,-5.179688 l 0.002,-0.0078 c 0.05951,-0.278408 0.233736,-1.15481 0.296875,-1.460938 a 1.0001,1.0001 0 0 0 0.01367,-0.08984 c 0.0034,-0.03015 -5.95e-4,-0.04212 0,-0.07422 a 1.0001,1.0001 0 0 0 0.002,-0.0078 C 29.295946,24.373571 29.369557,23.988734 29.480469,23 l 0,-0.0059 c 0.139516,-1.167038 0.295427,-2.305164 0.4375,-3.494141 a 1.0001,1.0001 0 0 0 -1.21875,-1.091797 l -5.660157,1.3125 a 1.0001,1.0001 0 0 0 -0.722656,0.660156 l -1.617187,4.886719 a 1.0001,1.0001 0 0 0 -0.0039,0.0078 c -0.05701,0.177531 -0.113178,0.386084 -0.195312,0.591797 0.01706,-0.04378 -0.248175,0.488511 -0.238281,0.470703 l 0.0293,-0.04883 c -0.287977,0.455963 -0.147201,0.716117 -0.140625,0.751954 0.0066,0.03584 -0.120786,-0.07011 0.05664,-0.513672 l 0.04492,-0.09766 c -0.45364,0.854937 -1.06746,1.565971 -1.705078,2.285156 a 1.0001,1.0001 0 0 0 -0.02539,0.03125 c -0.225283,0.275659 -0.573743,0.553931 -0.955078,0.914062 0.500405,-0.79408 1.027686,-1.617567 1.460938,-2.576172 0.169805,-0.375469 0.336608,-0.77861 0.472656,-1.185546 l 0.002,-0.0078 c 0.530875,-1.55378 0.864679,-3.097502 1.207031,-4.617187 a 1.0001,1.0001 0 0 0 -0.86914,-1.212891 c -1.163157,-0.124657 -2.714168,-0.478846 -3.863282,-0.890625 1.58594,-0.506565 3.17849,-0.918673 4.859376,-1.304688 a 1.0001,1.0001 0 0 0 0.755859,-0.767578 l 0.371094,-1.75 a 1.0001,1.0001 0 0 0 0.0039,-0.02148 c 0.08459,-0.446443 0.07307,-1.069995 -0.210938,-1.728516 -0.03775,-0.101484 -0.09752,-0.165341 -0.140625,-0.255859 z m -8.529296,19.287109 c -8.36e-4,0.01871 -0.02046,0.06139 -0.01953,0.07422 0.0083,0.114498 0.01079,0.0985 0.01172,0.109375 l 0.0078,-0.183594 z"
           id="path4428"
           inkscape:connector-curvature="0" />
      </g>
    </g>
  </g>
  <g
     transform="translate(0.00167369,-0.0055)"
     id="g47">
    <g
       clip-path="url(#clipPath-147250665)"
       id="g49">
      <!-- color: #2c7ea8 -->
      <g
         id="g51">
        <path
           style="fill:#f9f9f9;fill-opacity:1;fill-rule:nonzero;stroke:none"
           inkscape:connector-curvature="0"
           d="m 20.395,12 c -0.07,0 -0.148,0.023 -0.219,0.074 -0.074,0.051 -0.133,0.145 -0.145,0.223 -0.027,0.156 0.008,0.23 0.074,0.363 0.309,0.555 0.617,0.984 0.734,1.316 0.203,0.457 0.199,0.879 0.145,1.164 l -0.371,1.75 c -1.855,0.426 -3.645,0.859 -5.438,1.461 -0.348,0.109 -0.617,0.223 -0.883,0.363 -0.023,-0.004 -0.051,-0.004 -0.074,0 -0.094,0.059 -0.098,0.141 -0.148,0.219 -0.023,0.043 -0.066,0.09 -0.074,0.148 -0.008,0.055 0.02,0.152 0.074,0.219 0.156,0.211 0.367,0.301 0.664,0.438 0.293,0.137 0.633,0.273 0.883,0.367 1.246,0.449 2.848,0.813 4.117,0.949 -0.344,1.527 -0.672,3.035 -1.18,4.52 -0.121,0.363 -0.277,0.742 -0.438,1.098 -0.461,1.02 -1.051,1.949 -1.617,2.844 -0.602,0.836 -1.105,1.652 -1.762,2.406 -0.125,0.129 -0.32,0.242 -0.441,0.363 -0.059,0.066 -0.102,0.164 -0.148,0.223 -0.02,0.027 -0.055,0.039 -0.074,0.074 -0.02,0.031 -0.008,0.051 0,0.145 -0.004,0.023 -0.004,0.051 0,0.074 0.016,0.027 0.043,0.055 0.074,0.074 0.02,0.027 0.043,0.055 0.074,0.074 0.023,0.004 0.051,0.004 0.074,0 0.133,0.02 0.242,-0.031 0.367,-0.074 0.129,-0.039 0.219,-0.074 0.371,-0.145 0.305,-0.145 0.695,-0.301 1.027,-0.512 0.473,-0.297 0.828,-0.602 1.102,-0.801 0.484,-0.352 1.574,-1.355 2.133,-2.039 0.641,-0.723 1.32,-1.5 1.84,-2.48 0.008,-0.02 -0.012,-0.055 0,-0.074 0.035,-0.063 0.238,-0.449 0.293,-0.586 0.109,-0.273 0.184,-0.547 0.219,-0.656 l 1.617,-4.887 5.66,-1.313 c -0.141,1.18 -0.297,2.32 -0.438,3.5 -0.109,0.973 -0.184,1.363 -0.293,2.406 -0.004,0.031 0.004,0.039 0,0.074 -0.066,0.32 -0.246,1.223 -0.297,1.461 -0.375,1.809 -0.777,3.453 -1.613,4.887 -0.203,0.277 -0.434,0.57 -0.664,0.801 -0.23,-0.113 -0.555,-0.27 -1.027,-0.293 -0.008,0 -0.051,0 -0.074,0 -0.023,-0.004 -0.051,-0.004 -0.074,0 0,0 -0.074,0.07 -0.074,0.074 -0.027,0.02 -0.059,0.043 -0.074,0.074 -0.031,0.168 0.023,0.297 0.074,0.441 0.051,0.145 0.09,0.305 0.145,0.438 0.426,0.953 0.926,1.781 1.398,2.625 0.016,0.031 0.039,0.055 0.074,0.074 0.016,0.031 0.039,0.055 0.074,0.074 0.023,0.004 0.047,0.004 0.074,0 0.023,0.004 0.047,0.004 0.074,0 0.027,-0.016 0.055,-0.039 0.074,-0.074 0.703,-0.66 1.535,-1.73 2.133,-2.625 1.172,-1.746 2.164,-3.695 2.867,-5.906 0.105,-0.344 0.191,-0.691 0.293,-1.094 l 2.203,-8.387 c 0.094,-0.371 0.203,-0.785 0.219,-1.098 0.004,-0.023 0.004,-0.055 0,-0.074 C 33.956,16.655 33.854,16.6 33.78,16.533 33.706,16.482 33.655,16.435 33.561,16.388 33.37,16.294 33.12,16.177 32.897,16.099 31.838,15.747 30.69,15.423 29.444,15.15 c -0.137,-0.059 -0.223,-0.082 -0.367,-0.078 -0.145,0.016 -0.355,0.043 -0.516,0.078 -0.32,0.066 -0.648,0.168 -0.883,0.227 l -2.941,0.648 c 0.125,-0.387 0.332,-0.961 0.145,-1.676 -0.25,-0.816 -0.898,-1.293 -1.613,-1.531 -0.613,-0.207 -1.211,-0.391 -1.84,-0.586 -0.102,-0.023 -0.563,-0.188 -1.027,-0.219 M 20.394,11.99"
           id="path53" />
        <path
           id="path4398"
           d="m 20.395,12 c -0.07,0 -0.148,0.023 -0.219,0.074 -0.074,0.051 -0.133,0.145 -0.145,0.223 -0.027,0.156 0.008,0.23 0.074,0.363 0.309,0.555 0.617,0.984 0.734,1.316 0.203,0.457 0.199,0.879 0.145,1.164 l -0.371,1.75 c -1.855,0.426 -3.645,0.859 -5.438,1.461 -0.348,0.109 -0.617,0.223 -0.883,0.363 -0.023,-0.004 -0.051,-0.004 -0.074,0 -0.094,0.059 -0.098,0.141 -0.148,0.219 -0.023,0.043 -0.066,0.09 -0.074,0.148 -0.008,0.055 0.02,0.152 0.074,0.219 0.156,0.211 0.367,0.301 0.664,0.438 0.293,0.137 0.633,0.273 0.883,0.367 1.246,0.449 2.848,0.813 4.117,0.949 -0.344,1.527 -0.672,3.035 -1.18,4.52 -0.121,0.363 -0.277,0.742 -0.438,1.098 -0.461,1.02 -1.051,1.949 -1.617,2.844 -0.602,0.836 -1.105,1.652 -1.762,2.406 -0.125,0.129 -0.32,0.242 -0.441,0.363 -0.059,0.066 -0.102,0.164 -0.148,0.223 -0.02,0.027 -0.055,0.039 -0.074,0.074 -0.02,0.031 -0.008,0.051 0,0.145 -0.004,0.023 -0.004,0.051 0,0.074 0.016,0.027 0.043,0.055 0.074,0.074 0.02,0.027 0.043,0.055 0.074,0.074 0.023,0.004 0.051,0.004 0.074,0 0.133,0.02 0.242,-0.031 0.367,-0.074 0.129,-0.039 0.219,-0.074 0.371,-0.145 0.305,-0.145 0.695,-0.301 1.027,-0.512 0.473,-0.297 0.828,-0.602 1.102,-0.801 0.484,-0.352 1.574,-1.355 2.133,-2.039 0.641,-0.723 1.32,-1.5 1.84,-2.48 0.008,-0.02 -0.012,-0.055 0,-0.074 0.035,-0.063 0.238,-0.449 0.293,-0.586 0.109,-0.273 0.184,-0.547 0.219,-0.656 l 1.617,-4.887 5.66,-1.313 c -0.141,1.18 -0.297,2.32 -0.438,3.5 -0.109,0.973 -0.184,1.363 -0.293,2.406 -0.004,0.031 0.004,0.039 0,0.074 -0.066,0.32 -0.246,1.223 -0.297,1.461 -0.375,1.809 -0.777,3.453 -1.613,4.887 -0.203,0.277 -0.434,0.57 -0.664,0.801 -0.23,-0.113 -0.555,-0.27 -1.027,-0.293 -0.008,0 -0.051,0 -0.074,0 -0.023,-0.004 -0.051,-0.004 -0.074,0 0,0 -0.074,0.07 -0.074,0.074 -0.027,0.02 -0.059,0.043 -0.074,0.074 -0.031,0.168 0.023,0.297 0.074,0.441 0.051,0.145 0.09,0.305 0.145,0.438 0.426,0.953 0.926,1.781 1.398,2.625 0.016,0.031 0.039,0.055 0.074,0.074 0.016,0.031 0.039,0.055 0.074,0.074 0.023,0.004 0.047,0.004 0.074,0 0.023,0.004 0.047,0.004 0.074,0 0.027,-0.016 0.055,-0.039 0.074,-0.074 0.703,-0.66 1.535,-1.73 2.133,-2.625 1.172,-1.746 2.164,-3.695 2.867,-5.906 0.105,-0.344 0.191,-0.691 0.293,-1.094 l 2.203,-8.387 c 0.094,-0.371 0.203,-0.785 0.219,-1.098 0.004,-0.023 0.004,-0.055 0,-0.074 C 33.956,16.655 33.854,16.6 33.78,16.533 33.706,16.482 33.655,16.435 33.561,16.388 33.37,16.294 33.12,16.177 32.897,16.099 31.838,15.747 30.69,15.423 29.444,15.15 c -0.137,-0.059 -0.223,-0.082 -0.367,-0.078 -0.145,0.016 -0.355,0.043 -0.516,0.078 -0.32,0.066 -0.648,0.168 -0.883,0.227 l -2.941,0.648 c 0.125,-0.387 0.332,-0.961 0.145,-1.676 -0.25,-0.816 -0.898,-1.293 -1.613,-1.531 -0.613,-0.207 -1.211,-0.391 -1.84,-0.586 -0.102,-0.023 -0.563,-0.188 -1.027,-0.219 M 20.394,11.99"
           inkscape:connector-curvature="0"
           style="fill:none;fill-opacity:1;fill-rule:nonzero;stroke:none" />
      </g>
    </g>
  </g>
</svg>
