<?xml version="1.0" encoding="UTF-8" standalone="no"?>
<!-- Created with Inkscape (http://www.inkscape.org/) -->
<svg id="svg4951" xmlns:rdf="http://www.w3.org/1999/02/22-rdf-syntax-ns#" xmlns="http://www.w3.org/2000/svg" height="48" width="48" version="1.1" xmlns:cc="http://creativecommons.org/ns#" xmlns:xlink="http://www.w3.org/1999/xlink" xmlns:dc="http://purl.org/dc/elements/1.1/">
 <defs id="defs4953">
  <radialGradient id="radialGradient3302" gradientUnits="userSpaceOnUse" cy="186.17" cx="99.157" gradientTransform="matrix(.27083 0 0 .087623 -2.8551 25.187)" r="62.769">
   <stop id="stop3822-2-6-3" stop-color="#3d3d3d" offset="0"/>
   <stop id="stop3864-8-7-7" stop-color="#686868" stop-opacity=".49804" offset=".5"/>
   <stop id="stop3824-1-2-5" stop-color="#686868" stop-opacity="0" offset="1"/>
  </radialGradient>
  <radialGradient id="radialGradient4147" gradientUnits="userSpaceOnUse" cy="3.99" cx="23.896" gradientTransform="matrix(0 2.8885 -3.8128 0 39.213 -65.95)" r="20.397">
   <stop id="stop3750-1-0-7-6-6-1-3-9-3" stop-color="#5f5f5f" offset="0"/>
   <stop id="stop3752-3-7-4-0-32-8-923-0-7" stop-color="#515151" offset=".26238"/>
   <stop id="stop3754-1-8-5-2-7-6-7-1-9" stop-color="#404040" offset=".70495"/>
   <stop id="stop3756-1-6-2-6-6-1-96-6-0" stop-color="#343434" offset="1"/>
  </radialGradient>
  <linearGradient id="linearGradient4149" y2="40.496" gradientUnits="userSpaceOnUse" x2="71.204" gradientTransform="matrix(1.617 0 0 1.617 -92.707 -21.06)" y1="15.369" x1="71.204">
   <stop id="stop4808-4-8" stop-color="#fff" offset="0"/>
   <stop id="stop4810-0-9" stop-color="#fff" stop-opacity=".23529" offset=".42448"/>
   <stop id="stop4812-8-9" stop-color="#fff" stop-opacity=".15686" offset=".82090"/>
   <stop id="stop4814-0-6" stop-color="#fff" stop-opacity=".39216" offset="1"/>
  </linearGradient>
 </defs>
 <metadata id="metadata4956">
  <rdf:RDF>
   <cc:Work rdf:about="">
    <dc:format>image/svg+xml</dc:format>
    <dc:type rdf:resource="http://purl.org/dc/dcmitype/StillImage"/>
    <dc:title/>
   </cc:Work>
  </rdf:RDF>
 </metadata>
 <path id="path3818-0-5" d="m41 41.5a17 5.5 0 0 1 -34 0 17 5.5 0 1 1 34 0z" fill="url(#radialGradient3302)"/>
 <path id="path2555-7-2" style="color:#000000" d="m24 3.5c-11.311 0-20.5 9.189-20.5 20.5s9.189 20.5 20.5 20.5 20.5-9.189 20.5-20.5-9.189-20.5-20.5-20.5z" fill="url(#radialGradient4147)"/>
 <path id="path4560" opacity=".15" style="color-rendering:auto;text-decoration-color:#000000;color:#000000;isolation:auto;mix-blend-mode:normal;shape-rendering:auto;solid-color:#000000;block-progression:tb;text-decoration-line:none;text-decoration-style:solid;image-rendering:auto;white-space:normal;text-indent:0;text-transform:none" d="m21.172 9a1.0001 1.0001 0 0 0 -0.12109 0.00781c-0.52748 0.064559-0.92137 0.2461-1.1855 0.35156-2.2361 0.89273-4.2955 2.5987-5.3711 4.6621a1.0001 1.0001 0 0 0 -0.0078 0.01563l-0.0039 0.0078a1.0001 1.0001 0 0 0 0 0.002c-1.3595 2.7382-1.1042 5.5728-0.4375 7.7461 0.15233 0.49657 0.38218 0.96766 0.76172 1.3262 0.37954 0.35851 0.82925 0.55214 1.3086 0.70703 1.6062 0.519 2.9297 0.86394 3.9688 1.9316 1.2886 1.4943 1.7241 2.9185 1.5156 4.4219-0.33354 2.3529-1.6868 3.9819-3.7168 4.623-0.64512 0.20375-2.4031 0.26669-3.0625 0.10938-1.084-0.259-2.259-1.083-3.082-2.261-0.453-0.651-1.41-0.775-1.988-0.439-0.5777 0.336-0.9394 1.23-0.5957 1.945a1.0001 1.0001 0 0 0 0.044922 0.08398c0.78679 1.3011 1.8924 2.3764 2.9941 3.127a1.0001 1.0001 0 0 0 0.002 0.002c2.8741 1.9436 6.6694 2.1577 9.8477 0.60352 1.3354-0.65299 2.8891-1.6361 3.6758-3.0254 0.27313-0.48234 0.35371-1.0456 0.29688-1.502-0.05684-0.45639-0.19872-0.81532-0.32031-1.168-0.16941-0.49134-0.50181-1.4062-0.56055-1.7402-0.45827-2.6061 1.2315-5.3337 3.7578-6.0801 0.97917-0.28929 2.8947-0.13898 3.7695 0.27734 2.1413 1.019 3.3295 3.0668 3.1562 5.4453-0.000049 0.000675 0.00005 0.0013 0 0.002-0.02378 0.24964-0.05392 0.48364-0.08398 0.75391-0.06334 0.4022 0.05026 0.84917 0.29102 1.1562 0.24075 0.30708 0.5678 0.48291 0.90234 0.54883s0.69988 0.02662 1.0391-0.16602c0.12865-0.07307 0.16561-0.24716 0.26953-0.36328a1.0001 1.0001 0 0 0 0.4375 -0.59375 1.0001 1.0001 0 0 0 0.002 -0.002 1.0001 1.0001 0 0 0 0.0039 -0.01367c0.04067-0.18168 0.01358-0.06468 0-0.0078-0.0068 0.02844 0.02045-0.09143 0-0.0039a1.0001 1.0001 0 0 0 0.01367 -0.05664c0.05694-0.32731 0.09238-0.65892 0.11914-1.0137l-0.0098 0.07227c0.25506-1.6469 0.36238-3.4655-0.23242-5.0664a1.0001 1.0001 0 0 0 -0.0039 -0.01172l-0.0059-0.01172c-1.182-3.0982-3.62-5.4209-6.7324-6.3594-0.71784-0.21645-1.415-0.45916-2.2441-0.23828-0.88549 0.23588-1.3603 0.92632-1.707 1.457-1.1312 1.7315-3.2123 2.6554-5.1113 2.3379-1.7163-0.28699-2.9218-1.0627-3.7266-2.2949-1.9034-2.9143-0.88499-6.6151 2.1523-8.1387a1.0001 1.0001 0 0 0 0.02734 -0.01563c0.21497-0.11635 0.38069-0.20117 0.57617-0.29883l-0.04883 0.02344c0.66308-0.28679 1.0018-1.0399 0.89062-1.6562-0.11-0.6147-0.736-1.2199-1.464-1.219zm-4.3301 5.2559c-0.95525 2.2529-0.95153 4.8862 0.52344 7.1445 0.30603 0.46856 0.77342 0.77495 1.1758 1.1504-0.61664-0.22761-1.2403-0.44269-1.8105-0.62695-0.35383-0.11433-0.48919-0.20159-0.55078-0.25977s-0.12751-0.14051-0.22461-0.45703c-0.56657-1.8469-0.75002-4.1107 0.31836-6.2656 0.12469-0.23833 0.39803-0.45002 0.56836-0.68555zm13.258 6.4824c0.18122-0.04827 0.42322 0.0034 1.1504 0.22266 1.8254 0.55043 3.1861 1.813 4.2578 3.3555-0.5756-0.55026-1.2331-1.0283-1.9863-1.3867-1.4641-0.69673-3.3898-0.82758-4.9941-0.4082 0.366-0.36204 0.73505-0.72264 1.0234-1.1641 0.31326-0.47949 0.42393-0.58587 0.54883-0.61914zm-9.0098 3.3359c0.4542 0.15993 0.84751 0.41474 1.3457 0.49805 1.0229 0.17105 2.0372 0.02909 3.0137-0.25391-1.0146 0.97023-1.7652 2.175-2.1133 3.5391-0.3022-1.1973-0.82801-2.3649-1.7578-3.4355a1.0001 1.0001 0 0 0 -0.03516 -0.03906c-0.14055-0.14598-0.30722-0.18158-0.45312-0.30859zm2.2324 7.3125c0.16805 0.59839 0.38174 1.2529 0.48242 1.5449 0.1267 0.36746 0.2077 0.62791 0.22461 0.76367s0.02387 0.13771-0.05078 0.26953c-0.34669 0.61224-1.7252 1.6802-2.8145 2.2129-1.3216 0.64626-2.7773 0.88758-4.1895 0.77539 0.52389-0.05238 1.0592-0.10121 1.5117-0.24414 2.4484-0.77329 4.1729-2.7757 4.8359-5.3223z"/>
 <path id="path4564" opacity=".15" style="color-rendering:auto;text-decoration-color:#000000;color:#000000;isolation:auto;mix-blend-mode:normal;shape-rendering:auto;solid-color:#000000;block-progression:tb;text-decoration-line:none;text-decoration-style:solid;image-rendering:auto;white-space:normal;text-indent:0;text-transform:none" d="m21.172 9.5a0.50005 0.50005 0 0 0 -0.06055 0.00391c-0.43957 0.0538-0.78468 0.21018-1.0605 0.32031-2.124 0.84798-4.1108 2.5064-5.1133 4.4297a0.50005 0.50005 0 0 0 -0.0039 0.0059l-0.0039 0.0078a0.50005 0.50005 0 0 0 0 0.002c-1.2872 2.5926-1.05 5.285-0.4082 7.377 0.13853 0.45156 0.32885 0.82399 0.62891 1.1074 0.30006 0.28343 0.67117 0.45096 1.1191 0.5957 1.5891 0.51349 3.0336 0.87956 4.1836 2.0684 1.3705 1.5838 1.8733 3.1792 1.6426 4.834-0.35721 2.5153-1.8536 4.3297-4.0625 5.0273-0.79168 0.25004-2.5213 0.31211-3.3301 0.11914-1.229-0.293-2.49-1.192-3.376-2.46-0.314-0.452-0.933-0.521-1.324-0.293-0.3913 0.227-0.637 0.8-0.3985 1.296a0.50005 0.50005 0 0 0 0.023437 0.04297c0.74098 1.2253 1.8035 2.2613 2.8477 2.9727a0.50005 0.50005 0 0 0 0.002 0c2.7176 1.8378 6.3258 2.0451 9.3457 0.56836 1.2739-0.62291 2.7842-1.6273 3.4609-2.8223 0.22351-0.39471 0.28318-0.81713 0.23633-1.1934-0.04685-0.37623-0.17401-0.71005-0.29688-1.0664-0.1604-0.46522-0.5019-1.3738-0.58008-1.8184-0.50375-2.8647 1.3281-5.8253 4.1074-6.6465 1.1441-0.33802 3.0903-0.18668 4.127 0.30664 2.3156 1.1019 3.6262 3.3589 3.4414 5.9277-0.02578 0.27504-0.05918 0.52239-0.08984 0.80078-0.04415 0.2803 0.03317 0.56965 0.19141 0.77148s0.37644 0.32049 0.60352 0.36524c0.22708 0.04474 0.4743 0.01921 0.69726-0.10742 0.12641-0.07179 0.17961-0.23311 0.26562-0.36328a0.50005 0.50005 0 0 0 0.20117 -0.27344 0.50005 0.50005 0 0 0 0.002 -0.0039 0.50005 0.50005 0 0 0 0 -0.0039 0.50005 0.50005 0 0 0 0.002 -0.0039c0.03126-0.13961 0.03184-0.14353 0.002-0.01563a0.50005 0.50005 0 0 0 0.0078 -0.0293c0.05319-0.30576 0.08729-0.62024 0.11328-0.96484 0.0057-0.07528 0.0053-0.0788 0-0.0078l-0.0059 0.03906c0.24876-1.6063 0.33415-3.3578-0.20703-4.8145a0.50005 0.50005 0 0 0 -0.01172 -0.02734c-0.0016-0.0042-0.0043-0.0076-0.0059-0.01172l-0.002-0.0059c-1.1345-2.9501-3.4422-5.1399-6.3984-6.0312-0.72018-0.21716-1.3035-0.41406-1.9707-0.23633-0.69534 0.18523-1.0796 0.73014-1.418 1.248-1.2385 1.8957-3.5052 2.9091-5.6133 2.5566-1.8302-0.30602-3.179-1.164-4.0605-2.5137-2.0576-3.1504-0.94716-7.2076 2.3457-8.8594a0.50005 0.50005 0 0 0 0.01367 -0.0078c0.21093-0.11416 0.37837-0.2008 0.56641-0.29492 0.45623-0.19732 0.67245-0.69477 0.59766-1.1094-0.075-0.415-0.473-0.8096-0.973-0.809zm-0.14062 1.0605c-0.1651 0.08317-0.32292 0.16364-0.51172 0.26562-0.00086 0.000431-0.0011 0.0015-0.002 0.002-3.8019 1.9089-5.0998 6.6771-2.7344 10.299 1.0349 1.5845 2.6766 2.609 4.7344 2.9531 2.5262 0.42241 5.1621-0.77193 6.6152-2.9961 0.32163-0.49229 0.52285-0.7442 0.83789-0.82812 0.3432-0.09143 0.69899 0.008 1.4238 0.22656 2.6745 0.80646 4.7428 2.7659 5.7695 5.4668a0.50005 0.50005 0 0 0 0 0.002c0.43394 1.168 0.39242 2.7875 0.15625 4.3125a0.50005 0.50005 0 0 0 -0.0039 0.03906c-0.0056 0.07498-0.0054 0.07714 0 0.0059-0.0215 0.28498-0.05265 0.52828-0.08984 0.76367 0.02798-0.24751 0.06143-0.48607 0.08789-0.76953a0.50005 0.50005 0 0 0 0 -0.0098c0.21636-2.9579-1.3375-5.6414-4.0078-6.9121-1.3603-0.64732-3.3659-0.7968-4.8398-0.36133-3.2854 0.97064-5.4033 4.3972-4.8086 7.7793 0.11707 0.66577 0.47674 1.5577 0.61914 1.9707 0.12542 0.36376 0.22116 0.64737 0.24805 0.86328 0.02689 0.21592 0.01099 0.35867-0.11328 0.57813-0.45669 0.80649-1.8785 1.8533-3.0293 2.416-2.7032 1.3219-5.941 1.1281-8.3457-0.49805-0.49565-0.33765-0.89746-0.92925-1.3633-1.4199 0.84258 0.78036 1.7714 1.4175 2.7969 1.6621 1.1077 0.26428 2.7785 0.20394 3.8633-0.13867 2.5686-0.81122 4.3489-2.9987 4.752-5.8418 0.273-1.952-0.36-3.887-1.884-5.641a0.50005 0.50005 0 0 0 -0.01758 -0.01953c-1.3706-1.4235-3.0568-1.8316-4.6055-2.332-0.38521-0.12447-0.60111-0.23783-0.74219-0.37109s-0.24651-0.3123-0.35742-0.67383c-0.59185-1.9293-0.79698-4.3371 0.3457-6.6387 0.85636-1.6429 2.6978-3.2025 4.5977-3.9609 0.22445-0.08961 0.41415-0.14451 0.60938-0.19336z"/>
 <path id="path4520" style="color-rendering:auto;text-decoration-color:#000000;color:#000000;isolation:auto;mix-blend-mode:normal;shape-rendering:auto;solid-color:#000000;block-progression:tb;text-decoration-line:none;text-decoration-style:solid;image-rendering:auto;white-space:normal;text-indent:0;text-transform:none" d="m21.173 10c-0.35166 0.04304-0.64873 0.17424-0.9363 0.28904-2.012 0.80323-3.926 2.412-4.8555 4.195l-0.0039 0.0078c-1.215 2.447-0.994 4.997-0.377 7.008 0.24943 0.81309 0.5904 1.1053 1.4236 1.3745 1.5709 0.50758 3.1386 0.8929 4.3995 2.2025 1.4514 1.6712 2.0188 3.4383 1.767 5.2438-0.37987 2.6797-2.0169 4.6807-4.4059 5.4352-0.93824 0.29632-2.6384 0.35752-3.5966 0.1289-1.3761-0.32831-2.7222-1.3032-3.6709-2.6619-0.35162-0.50538-1.1288-0.05288-0.86202 0.50192 0.69516 1.1496 1.7148 2.1461 2.7014 2.8182 2.5611 1.7319 5.9854 1.9325 8.847 0.53317 1.2123-0.59282 2.6781-1.6182 3.2448-2.619 0.34778-0.61417 0.15055-1.1313-0.09774-1.8514-0.1514-0.43911-0.50246-1.3392-0.60009-1.8944-0.54924-3.1234 1.4263-6.3165 4.4587-7.2124 1.309-0.38674 3.2856-0.23636 4.4841 0.33396 2.4942 1.1869 3.9259 3.6583 3.7237 6.4234-0.02783 0.2981-0.06318 0.55377-0.09382 0.83588-0.09979 0.63361 0.83281 0.81737 0.98126 0.19334 0.0015-0.0067 0.000423-0.01473 0.002-0.02148h0.002c0.04944-0.28422 0.08228-0.58345 0.10751-0.91791 0.000151-0.002-0.000149-0.0039 0-0.0059 0.24247-1.5656 0.30578-3.2518-0.18179-4.5641l-0.002-0.0039c-1.0779-2.8354-3.2709-4.9182-6.0928-5.7691-0.72251-0.21786-1.1915-0.36503-1.6967-0.23045-0.50519 0.13458-0.79787 0.53194-1.1279 1.037-1.3458 2.0599-3.7972 3.1646-6.1143 2.7772-1.944-0.32506-3.4399-1.2671-4.3981-2.7342-2.2118-3.3865-1.0073-7.7995 2.5411-9.5794 0.22535-0.12197 0.40494-0.21401 0.60596-0.31443 0.49877-0.21572 0.36758-0.95957-0.17597-0.95888z" fill="#fff"/>
 <path id="path3871" opacity=".6" style="color:#000000" d="m24 3.5c-11.311 0-20.5 9.189-20.5 20.5s9.189 20.5 20.5 20.5 20.5-9.189 20.5-20.5-9.189-20.5-20.5-20.5z" stroke="#242424" fill="none"/>
 <path id="path4176" opacity=".3" stroke-linejoin="round" style="color:#000000" d="m43.5 24c0 10.77-8.7305 19.5-19.5 19.5s-19.5-8.7304-19.5-19.5 8.7305-19.5 19.5-19.5 19.5 8.7304 19.5 19.5z" stroke="url(#linearGradient4149)" stroke-linecap="round" fill="none"/>
</svg>
