<?xml version="1.0" encoding="UTF-8" standalone="no"?>
<!-- Created with Inkscape (http://www.inkscape.org/) -->
<svg id="svg4951" xmlns:rdf="http://www.w3.org/1999/02/22-rdf-syntax-ns#" xmlns="http://www.w3.org/2000/svg" height="48px" width="48px" version="1.1" xmlns:cc="http://creativecommons.org/ns#" xmlns:xlink="http://www.w3.org/1999/xlink" xmlns:dc="http://purl.org/dc/elements/1.1/">
 <defs id="defs4953">
  <linearGradient id="linearGradient3189" y2="40.496" gradientUnits="userSpaceOnUse" x2="71.204" gradientTransform="matrix(1.617 0 0 1.617 -92.707 -21.06)" y1="15.369" x1="71.204">
   <stop id="stop4808-4" stop-color="#fff" offset="0"/>
   <stop id="stop4810-0" stop-color="#fff" stop-opacity=".23529" offset=".42448"/>
   <stop id="stop4812-8" stop-color="#fff" stop-opacity=".15686" offset=".82090"/>
   <stop id="stop4814-0" stop-color="#fff" stop-opacity=".39216" offset="1"/>
  </linearGradient>
  <radialGradient id="radialGradient3192" gradientUnits="userSpaceOnUse" cy="3.99" cx="23.896" gradientTransform="matrix(0 2.8885 -3.8128 0 39.213 -65.95)" r="20.397">
   <stop id="stop4369" stop-color="#fe4" offset="0"/>
   <stop id="stop4371" stop-color="#ffa20c" offset=".66094"/>
   <stop id="stop4373" stop-color="#cba200" offset="1"/>
  </radialGradient>
  <radialGradient id="radialGradient3195" gradientUnits="userSpaceOnUse" cy="186.17" cx="99.157" gradientTransform="matrix(.27083 0 0 .087623 -2.8551 25.187)" r="62.769">
   <stop id="stop3822-2-6-3" stop-color="#3d3d3d" offset="0"/>
   <stop id="stop3864-8-7-7" stop-color="#686868" stop-opacity=".49804" offset=".5"/>
   <stop id="stop3824-1-2-5" stop-color="#686868" stop-opacity="0" offset="1"/>
  </radialGradient>
 </defs>
 <metadata id="metadata4956">
  <rdf:RDF>
   <cc:Work rdf:about="">
    <dc:format>image/svg+xml</dc:format>
    <dc:type rdf:resource="http://purl.org/dc/dcmitype/StillImage"/>
    <dc:title/>
   </cc:Work>
  </rdf:RDF>
 </metadata>
 <g id="layer1">
  <path id="path3818-0-5" d="m41 41.5a17 5.5 0 0 1 -34 0 17 5.5 0 1 1 34 0z" fill="url(#radialGradient3195)"/>
  <path id="path2555-7-2" style="color:#000000" d="m24 3.5c-11.311 0-20.5 9.1888-20.5 20.5s9.1888 20.5 20.5 20.5 20.5-9.1888 20.5-20.5-9.189-20.5-20.5-20.5z" fill="url(#radialGradient3192)"/>
  <path id="path4176" opacity=".3" stroke-linejoin="round" style="color:#000000" d="m43.5 24c0 10.77-8.73 19.5-19.5 19.5s-19.5-8.73-19.5-19.5 8.73-19.5 19.5-19.5 19.5 8.73 19.5 19.5z" stroke="url(#linearGradient3189)" stroke-linecap="round" fill="none"/>
  <path id="path3871" opacity=".7" style="color:#000000" d="m24 3.5c-11.311 0-20.5 9.189-20.5 20.5s9.189 20.5 20.5 20.5 20.5-9.189 20.5-20.5-9.189-20.5-20.5-20.5z" stroke="#5c3f24" fill="none"/>
  <g id="g4613" fill="#2f2f2f" transform="translate(-1.9326e-7 0.5)">
   <g id="g4567">
    <g id="g4079" transform="matrix(1.2135 0 0 1.1947 -5.1235 -5.6727)">
     <path id="path4081" style="color:#000000" d="m15.343 25.169c-0.84684 0-1.5928 0.73543-2.0562 1.8601l0.12707 5.615c0.46721 0.94862 1.1622 1.5482 1.9292 1.5482 1.4075 0 2.5414-2.0153 2.5414-4.5059s-1.1339-4.5174-2.5414-4.5174z"/>
     <rect id="rect4083" style="color:#000000" transform="matrix(.99955 -.029984 .029975 .99955 0 0)" rx=".35313" ry=".35318" height="9.0846" width="2.1565" y="25.57" x="15.641"/>
     <path id="path4085" style="color:#000000" d="m24.007 13.119c-4.8692 0-8.7794 4.0088-8.7794 9.0002v2.8191h0.64691v-1.6984c0-4.7765 3.6253-8.619 8.1325-8.619s8.1441 3.8425 8.1441 8.619v1.6984h0.64691v-2.8191c0-4.9915-3.9218-9.0002-8.791-9.0002z"/>
     <path id="path4087" d="m15.026 24.682h1.1763l-0.26139-1.3725h-0.78417z"/>
     <rect id="rect4089" style="color:#000000" transform="matrix(.99932 -.036936 .023899 .99971 0 0)" rx=".35270" ry=".40355" height="10.38" width="2.1538" y="25.048" x="14.179"/>
     <path id="path4091" style="color:#000000" d="m32.657 25.169c0.84684 0 1.5928 0.73543 2.0562 1.8601l-0.12707 5.615c-0.46721 0.94862-1.1622 1.5482-1.9292 1.5482-1.4075 0-2.5414-2.0153-2.5414-4.5059s1.1339-4.5174 2.5414-4.5174z"/>
     <rect id="rect4093" style="color:#000000" transform="matrix(-.99955 -.029984 -.029975 .99955 0 0)" rx=".35313" ry=".35318" height="9.0846" width="2.1565" y="24.131" x="-32.338"/>
     <path id="path4095" style="enable-background:new" d="m32.974 24.682h-1.1763l0.26139-1.3725h0.78417z"/>
     <rect id="rect4097" style="color:#000000" transform="matrix(-.99932 -.036936 -.023899 .99971 0 0)" rx=".35270" ry=".40355" height="10.38" width="2.1538" y="23.275" x="-33.811"/>
    </g>
    <g id="g4453" transform="matrix(.70588 0 0 .70588 36.353 15.647)">
     <path id="path4441" d="m-21.252 10.877a8.5 8.5 0 0 0 -8.5 8.5 8.5 8.5 0 0 0 8.5 8.5 8.5 8.5 0 0 0 8.5 -8.5 8.5 8.5 0 0 0 -8.5 -8.5zm-3.5 3a2 2 0 0 1 2 2 2 2 0 0 1 -2 2 2 2 0 0 1 -2 -2 2 2 0 0 1 2 -2zm7 0a2 2 0 0 1 2 2 2 2 0 0 1 -2 2 2 2 0 0 1 -2 -2 2 2 0 0 1 2 -2zm-0.82422 8.2617c0.29414-0.03535 0.48247-0.0073 0.48828 0.12891 0.02325 0.5447-2.3847 2.2624-3.9238 2.3281-1.5391 0.06569-2.9611-0.83812-2.9844-1.3828-0.02325-0.5447 2.0786-0.22461 3.0078-0.26367 0.69694-0.02934 2.5297-0.70451 3.4121-0.81055z" transform="translate(3.7523 -1.8762)"/>
     <circle id="path4443" cy="14.5" cx="-20.5" r="1.5"/>
     <circle id="circle4451" cx="-13.5" cy="14.5" r="1.5"/>
    </g>
   </g>
   <g id="g4583" opacity=".3" transform="translate(0,1)">
    <g id="g4585" transform="matrix(1.2135 0 0 1.1947 -5.1235 -5.6727)">
     <path id="path4587" style="color:#000000" d="m15.343 25.169c-0.84684 0-1.5928 0.73543-2.0562 1.8601l0.12707 5.615c0.46721 0.94862 1.1622 1.5482 1.9292 1.5482 1.4075 0 2.5414-2.0153 2.5414-4.5059s-1.1339-4.5174-2.5414-4.5174z"/>
     <rect id="rect4589" ry=".35318" style="color:#000000" rx=".35313" transform="matrix(.99955 -.029984 .029975 .99955 0 0)" height="9.0846" width="2.1565" y="25.57" x="15.641"/>
     <path id="path4591" style="color:#000000" d="m24.007 13.119c-4.8692 0-8.7794 4.0088-8.7794 9.0002v2.8191h0.64691v-1.6984c0-4.7765 3.6253-8.619 8.1325-8.619s8.1441 3.8425 8.1441 8.619v1.6984h0.64691v-2.8191c0-4.9915-3.9218-9.0002-8.791-9.0002z"/>
     <path id="path4593" d="m15.026 24.682h1.1763l-0.26139-1.3725h-0.78417z"/>
     <rect id="rect4595" ry=".40355" style="color:#000000" rx=".35270" transform="matrix(.99932 -.036936 .023899 .99971 0 0)" height="10.38" width="2.1538" y="25.048" x="14.179"/>
     <path id="path4597" style="color:#000000" d="m32.657 25.169c0.84684 0 1.5928 0.73543 2.0562 1.8601l-0.12707 5.615c-0.46721 0.94862-1.1622 1.5482-1.9292 1.5482-1.4075 0-2.5414-2.0153-2.5414-4.5059s1.1339-4.5174 2.5414-4.5174z"/>
     <rect id="rect4599" ry=".35318" style="color:#000000" rx=".35313" transform="matrix(-.99955 -.029984 -.029975 .99955 0 0)" height="9.0846" width="2.1565" y="24.131" x="-32.338"/>
     <path id="path4601" style="enable-background:new" d="m32.974 24.682h-1.1763l0.26139-1.3725h0.78417z"/>
     <rect id="rect4603" ry=".40355" style="color:#000000" rx=".35270" transform="matrix(-.99932 -.036936 -.023899 .99971 0 0)" height="10.38" width="2.1538" y="23.275" x="-33.811"/>
    </g>
    <g id="g4605" transform="matrix(.70588 0 0 .70588 36.353 15.647)">
     <path id="path4607" opacity="1" d="m-21.252 10.877a8.5 8.5 0 0 0 -8.5 8.5 8.5 8.5 0 0 0 8.5 8.5 8.5 8.5 0 0 0 8.5 -8.5 8.5 8.5 0 0 0 -8.5 -8.5zm-3.5 3a2 2 0 0 1 2 2 2 2 0 0 1 -2 2 2 2 0 0 1 -2 -2 2 2 0 0 1 2 -2zm7 0a2 2 0 0 1 2 2 2 2 0 0 1 -2 2 2 2 0 0 1 -2 -2 2 2 0 0 1 2 -2zm-0.82422 8.2617c0.29414-0.03535 0.48247-0.0073 0.48828 0.12891 0.02325 0.5447-2.3847 2.2624-3.9238 2.3281-1.5391 0.06569-2.9611-0.83812-2.9844-1.3828-0.02325-0.5447 2.0786-0.22461 3.0078-0.26367 0.69694-0.02934 2.5297-0.70451 3.4121-0.81055z" transform="translate(3.7523 -1.8762)"/>
     <circle id="circle4609" opacity="1" cx="-20.5" cy="14.5" r="1.5"/>
     <circle id="circle4611" opacity="1" cy="14.5" cx="-13.5" r="1.5"/>
    </g>
   </g>
  </g>
 </g>
</svg>
