<?xml version="1.0" encoding="UTF-8" standalone="no"?>
<!-- Created with Inkscape (http://www.inkscape.org/) -->
<svg id="svg4951" xmlns:rdf="http://www.w3.org/1999/02/22-rdf-syntax-ns#" xmlns="http://www.w3.org/2000/svg" height="48" width="48" version="1.1" xmlns:cc="http://creativecommons.org/ns#" xmlns:xlink="http://www.w3.org/1999/xlink" xmlns:dc="http://purl.org/dc/elements/1.1/">
 <defs id="defs4953">
  <linearGradient id="linearGradient3775">
   <stop id="stop3777" stop-color="#fff" stop-opacity=".58824" offset="0"/>
   <stop id="stop3779" stop-color="#fff" offset="1"/>
  </linearGradient>
  <radialGradient id="radialGradient4292" gradientUnits="userSpaceOnUse" cy="186.17" cx="99.157" gradientTransform="matrix(.27083 0 0 .064194 -2.8551 31.02)" r="62.769">
   <stop id="stop3822-2-6-3" stop-color="#3d3d3d" offset="0"/>
   <stop id="stop3864-8-7-7" stop-color="#686868" stop-opacity=".49804" offset=".5"/>
   <stop id="stop3824-1-2-5" stop-color="#686868" stop-opacity="0" offset="1"/>
  </radialGradient>
  <linearGradient id="linearGradient4846" y2="345.98" xlink:href="#linearGradient3775" gradientUnits="userSpaceOnUse" x2="252.04" y1="172.59" x1="253.47"/>
 </defs>
 <metadata id="metadata4956">
  <rdf:RDF>
   <cc:Work rdf:about="">
    <dc:format>image/svg+xml</dc:format>
    <dc:type rdf:resource="http://purl.org/dc/dcmitype/StillImage"/>
    <dc:title/>
   </cc:Work>
  </rdf:RDF>
 </metadata>
 <path id="path3818-0-5" d="m41 42.971a17 4.0294 0 0 1 -34 0 17 4.0294 0 1 1 34 0z" fill="url(#radialGradient4292)"/>
 <g id="g4798" fill="#4c8cff" transform="matrix(.28667 0 0 -.28703 -47.532 97.581)">
  <g id="g4800" fill="#4c8cff">
   <g id="g4802" fill="#4c8cff">
    <g id="g4804" fill="#4c8cff">
     <path id="path4806" fill="#4c8cff" d="m185 260.56c0-37.755 26.508-72.139 66.281-72.139 39.776 0 66.277 34.384 66.277 72.139 0 42.431-27.281 70.703-66.277 70.703-39.002 0-66.281-28.272-66.281-70.703m39.17 1.585c0 28.512 4.605 60.009 27.113 60.009 22.506 0 27.072-31.831 27.072-60.344 0-26.413-2.81-62.401-27.072-62.401-24.264 0-27.113 36.326-27.113 62.736"/>
    </g>
   </g>
  </g>
 </g>
 <g id="g5167" opacity=".7" transform="matrix(.28667 0 0 -.28703 -47.533 97.58)" stroke="#002e54" stroke-width="3.4862" fill="none">
  <g id="g5169" stroke="#002e54" stroke-width="3.4862" fill="none">
   <g id="g5175" stroke="#002e54" stroke-width="3.4862" fill="none">
    <g id="g5177" stroke="#002e54" stroke-width="3.4862" fill="none">
     <path id="path5185" d="m185 260.56c0-37.755 26.508-72.139 66.281-72.139 39.776 0 66.277 34.384 66.277 72.139 0 42.431-27.281 70.703-66.277 70.703-39.002 0-66.281-28.272-66.281-70.703m39.17 1.585c0 28.512 4.605 60.009 27.113 60.009 22.506 0 27.072-31.831 27.072-60.344 0-26.413-2.81-62.401-27.072-62.401-24.264 0-27.113 36.326-27.113 62.736" stroke="#002e54" stroke-width="3.4862" fill="none"/>
    </g>
   </g>
  </g>
 </g>
 <g id="g4810" opacity=".2" transform="matrix(.27160 0 0 -.27302 -43.746 93.939)" stroke="url(#linearGradient4846)" stroke-width="3.6706" fill="none">
  <g id="g4812" stroke="url(#linearGradient4846)" stroke-width="3.6706" fill="none">
   <g id="g4814" stroke="url(#linearGradient4846)" stroke-width="3.6706" fill="none">
    <g id="g4816" stroke="url(#linearGradient4846)" stroke-width="3.6706" fill="none">
     <path id="path4818" d="m185 260.56c0-37.755 26.508-72.139 66.281-72.139 39.776 0 66.277 34.384 66.277 72.139 0 42.431-27.281 70.703-66.277 70.703-39.002 0-66.281-28.272-66.281-70.703" stroke="url(#linearGradient4846)" stroke-width="3.6706" fill="none"/>
    </g>
   </g>
  </g>
 </g>
</svg>
