<?xml version="1.0" encoding="UTF-8" standalone="no"?>
<!-- Created with Inkscape (http://www.inkscape.org/) -->

<svg
   xmlns:dc="http://purl.org/dc/elements/1.1/"
   xmlns:cc="http://creativecommons.org/ns#"
   xmlns:rdf="http://www.w3.org/1999/02/22-rdf-syntax-ns#"
   xmlns:svg="http://www.w3.org/2000/svg"
   xmlns="http://www.w3.org/2000/svg"
   xmlns:xlink="http://www.w3.org/1999/xlink"
   xmlns:sodipodi="http://sodipodi.sourceforge.net/DTD/sodipodi-0.dtd"
   xmlns:inkscape="http://www.inkscape.org/namespaces/inkscape"
   version="1.1"
   width="48"
   height="48"
   id="svg4031"
   inkscape:version="0.91 r"
   sodipodi:docname="palemoon.svg">
  <sodipodi:namedview
     pagecolor="#ffffff"
     bordercolor="#666666"
     borderopacity="1"
     objecttolerance="10"
     gridtolerance="10"
     guidetolerance="10"
     inkscape:pageopacity="0"
     inkscape:pageshadow="2"
     inkscape:window-width="1600"
     inkscape:window-height="845"
     id="namedview48"
     showgrid="false"
     showguides="false"
     inkscape:zoom="1"
     inkscape:cx="13.056251"
     inkscape:cy="24.252022"
     inkscape:window-x="0"
     inkscape:window-y="30"
     inkscape:window-maximized="1"
     inkscape:current-layer="svg4031" />
  <defs
     id="defs4033">
    <linearGradient
       id="linearGradient4168">
      <stop
         id="stop4170"
         style="stop-color:#f8b17e;stop-opacity:1"
         offset="0" />
      <stop
         id="stop4172"
         style="stop-color:#e35d4f;stop-opacity:1"
         offset="0.23208089" />
      <stop
         id="stop4174"
         style="stop-color:#c6262e;stop-opacity:1"
         offset="0.5908742" />
      <stop
         id="stop4176"
         style="stop-color:#690b54;stop-opacity:1"
         offset="1" />
    </linearGradient>
    <linearGradient
       id="linearGradient3957">
      <stop
         id="stop3959"
         style="stop-color:#ffffff;stop-opacity:1"
         offset="0" />
      <stop
         id="stop3961"
         style="stop-color:#c1c1c1;stop-opacity:1"
         offset="1" />
    </linearGradient>
    <linearGradient
       id="linearGradient4011">
      <stop
         id="stop4013"
         style="stop-color:#ffffff;stop-opacity:1"
         offset="0" />
      <stop
         id="stop4015"
         style="stop-color:#ffffff;stop-opacity:0.23529412"
         offset="0.507761" />
      <stop
         id="stop4017"
         style="stop-color:#ffffff;stop-opacity:0.15686275"
         offset="0.83456558" />
      <stop
         id="stop4019"
         style="stop-color:#ffffff;stop-opacity:0.39215687"
         offset="1" />
    </linearGradient>
    <linearGradient
       id="linearGradient2867-449-88-871-390-598-476-591-434-148-57-177-3-8">
      <stop
         id="stop3750-8-9"
         style="stop-color:#90dbec;stop-opacity:1"
         offset="0" />
      <stop
         id="stop3752-3-2"
         style="stop-color:#42baea;stop-opacity:1"
         offset="0.26238" />
      <stop
         id="stop3754-7-2"
         style="stop-color:#3689e6;stop-opacity:1"
         offset="0.704952" />
      <stop
         id="stop3756-9-3"
         style="stop-color:#2b63a0;stop-opacity:1"
         offset="1" />
    </linearGradient>
    <linearGradient
       id="linearGradient3820-7-2-1">
      <stop
         id="stop3822-2-6-3"
         style="stop-color:#3d3d3d;stop-opacity:1"
         offset="0" />
      <stop
         id="stop3864-8-7-7"
         style="stop-color:#686868;stop-opacity:0.49803922"
         offset="0.5" />
      <stop
         id="stop3824-1-2-5"
         style="stop-color:#686868;stop-opacity:0"
         offset="1" />
    </linearGradient>
    <linearGradient
       x1="71.204407"
       y1="6.2375584"
       x2="71.204407"
       y2="44.340794"
       id="linearGradient3012"
       xlink:href="#linearGradient4011"
       gradientUnits="userSpaceOnUse"
       gradientTransform="matrix(1.054054,0,0,1.054054,-49.488985,-2.0647709)" />
    <radialGradient
       cx="3.9722471"
       cy="8.4497671"
       r="19.99999"
       fx="3.9722471"
       fy="8.4497671"
       id="radialGradient3015"
       xlink:href="#linearGradient2867-449-88-871-390-598-476-591-434-148-57-177-3-8"
       gradientUnits="userSpaceOnUse"
       gradientTransform="matrix(0,2.4988347,-2.6434689,-6.8014435e-8,46.336814,-12.180468)" />
    <radialGradient
       cx="99.157013"
       cy="186.17059"
       r="62.769119"
       fx="99.157013"
       fy="186.17059"
       id="radialGradient3018"
       xlink:href="#linearGradient3820-7-2-1"
       gradientUnits="userSpaceOnUse"
       gradientTransform="matrix(0.27083381,0,0,0.08762273,-2.855072,25.187228)" />
    <linearGradient
       x1="27.92535"
       y1="15.149301"
       x2="33.447899"
       y2="22.986004"
       id="linearGradient3951"
       xlink:href="#linearGradient4168"
       gradientUnits="userSpaceOnUse"
       gradientTransform="translate(-37.016949,19.932203)" />
    <linearGradient
       x1="24"
       y1="22"
       x2="24"
       y2="26"
       id="linearGradient3963"
       xlink:href="#linearGradient3957"
       gradientUnits="userSpaceOnUse" />
    <linearGradient
       x1="21.013996"
       y1="25.433903"
       x2="22.805599"
       y2="27.343702"
       id="linearGradient3963-7"
       xlink:href="#linearGradient3957-2"
       gradientUnits="userSpaceOnUse"
       gradientTransform="translate(-19.118644,3.6610169)" />
    <linearGradient
       id="linearGradient3957-2">
      <stop
         id="stop3959-62"
         style="stop-color:#ffffff;stop-opacity:1"
         offset="0" />
      <stop
         id="stop3961-5"
         style="stop-color:#c1c1c1;stop-opacity:1"
         offset="1" />
    </linearGradient>
    <linearGradient
       id="linearGradient3851">
      <stop
         offset="0"
         style="stop-color:#000000;stop-opacity:0.43200001"
         id="stop3853" />
      <stop
         offset="1"
         style="stop-color:#000000;stop-opacity:0.627451"
         id="stop3855" />
    </linearGradient>
    <linearGradient
       gradientTransform="matrix(1,0,0,-1,0,48.519105)"
       gradientUnits="userSpaceOnUse"
       xlink:href="#linearGradient3851"
       id="linearGradient4326"
       y2="36.949589"
       x2="23.06352"
       y1="12.978221"
       x1="23.06352" />
    <linearGradient
       gradientUnits="userSpaceOnUse"
       xlink:href="#linearGradient3851"
       id="linearGradient4320"
       y2="36.949589"
       x2="23.06352"
       y1="12.978221"
       x1="23.06352"
       gradientTransform="translate(0,-1.4930417)" />
    <linearGradient
       gradientUnits="userSpaceOnUse"
       xlink:href="#linearGradient3707-319-631-407-324-616"
       id="linearGradient4273"
       y2="4.9969058"
       x2="19.927404"
       y1="44.949184"
       x1="19.927404"
       gradientTransform="matrix(0.83333322,0,0,0.83333322,3.9999996,3.1666681)" />
    <linearGradient
       id="linearGradient3707-319-631-407-324-616">
      <stop
         offset="0"
         style="stop-color:#505050;stop-opacity:1"
         id="stop3246" />
      <stop
         offset="1"
         style="stop-color:#8e8e8e;stop-opacity:1"
         id="stop3248" />
    </linearGradient>
    <linearGradient
       gradientTransform="translate(-57.362519,-8.0236327)"
       gradientUnits="userSpaceOnUse"
       xlink:href="#linearGradient3924-803"
       id="linearGradient3473"
       y2="43"
       x2="23.99999"
       y1="4.999989"
       x1="23.99999" />
    <linearGradient
       id="linearGradient3924-803">
      <stop
         offset="0"
         style="stop-color:#ffffff;stop-opacity:1"
         id="stop3252" />
      <stop
         offset="0.06316455"
         style="stop-color:#ffffff;stop-opacity:0.23529412"
         id="stop3254" />
      <stop
         offset="0.95056331"
         style="stop-color:#ffffff;stop-opacity:0.15686275"
         id="stop3256" />
      <stop
         offset="1"
         style="stop-color:#ffffff;stop-opacity:0.39215687"
         id="stop3258" />
    </linearGradient>
    <radialGradient
       gradientTransform="matrix(1.8930301e-8,2.2770672,-2.4088655,-4.1952268e-8,-13.008071,-19.524216)"
       gradientUnits="userSpaceOnUse"
       xlink:href="#linearGradient2867-449-88-871-390-598-476-591-434-148-57-177-641"
       id="radialGradient3476"
       fy="8.4497671"
       fx="7.4956832"
       r="19.99999"
       cy="8.4497671"
       cx="7.4956832" />
    <linearGradient
       id="linearGradient2867-449-88-871-390-598-476-591-434-148-57-177-641">
      <stop
         offset="0"
         style="stop-color:#c7c7c7;stop-opacity:1"
         id="stop3236" />
      <stop
         offset="0.26238"
         style="stop-color:#a6a6a6;stop-opacity:1"
         id="stop3238" />
      <stop
         offset="0.704952"
         style="stop-color:#7b7b7b;stop-opacity:1"
         id="stop3240" />
      <stop
         offset="1"
         style="stop-color:#595959;stop-opacity:1"
         id="stop3242" />
    </linearGradient>
    <radialGradient
       gradientTransform="matrix(2.003784,0,0,1.4,27.98813,-17.4)"
       gradientUnits="userSpaceOnUse"
       xlink:href="#linearGradient3688-166-749-2-324"
       id="radialGradient3013-896"
       fy="43.5"
       fx="4.9929786"
       r="2.5"
       cy="43.5"
       cx="4.9929786" />
    <linearGradient
       id="linearGradient3688-166-749-2-324">
      <stop
         offset="0"
         style="stop-color:#181818;stop-opacity:1"
         id="stop3216" />
      <stop
         offset="1"
         style="stop-color:#181818;stop-opacity:0"
         id="stop3218" />
    </linearGradient>
    <radialGradient
       gradientTransform="matrix(2.003784,0,0,1.4,-20.01187,-104.4)"
       gradientUnits="userSpaceOnUse"
       xlink:href="#linearGradient3688-166-749-2-324"
       id="radialGradient3015-826"
       fy="43.5"
       fx="4.9929786"
       r="2.5"
       cy="43.5"
       cx="4.9929786" />
    <linearGradient
       id="linearGradient3702-501-757-6-946">
      <stop
         offset="0"
         style="stop-color:#181818;stop-opacity:0"
         id="stop3228" />
      <stop
         offset="0.5"
         style="stop-color:#181818;stop-opacity:1"
         id="stop3230" />
      <stop
         offset="1"
         style="stop-color:#181818;stop-opacity:0"
         id="stop3232" />
    </linearGradient>
    <linearGradient
       gradientUnits="userSpaceOnUse"
       xlink:href="#linearGradient3702-501-757-6-946"
       id="linearGradient4395"
       y2="39.999443"
       x2="25.058096"
       y1="47.027729"
       x1="25.058096" />
    <linearGradient
       gradientTransform="translate(-16.076816,-9.0236427)"
       gradientUnits="userSpaceOnUse"
       xlink:href="#linearGradient3851"
       id="linearGradient3857"
       y2="44.858185"
       x2="0.85715157"
       y1="5.7142859"
       x1="0.85715157" />
    <linearGradient
       id="linearGradient665">
      <stop
         id="stop666"
         offset="0.00000000"
         style="stop-color:#ffffff;stop-opacity:0.285714;" />
      <stop
         id="stop667"
         offset="1.00000000"
         style="stop-color:#daecf8;stop-opacity:1;" />
    </linearGradient>
    <linearGradient
       id="linearGradient624">
      <stop
         id="stop625"
         offset="0.00000000"
         style="stop-color:#b9e5ff;stop-opacity:0.419643;" />
      <stop
         id="stop626"
         offset="1.00000000"
         style="stop-color:#ffffff;stop-opacity:1;" />
    </linearGradient>
    <linearGradient
       id="linearGradient619">
      <stop
         id="stop620"
         offset="0.00000000"
         style="stop-color:#66b8ff;stop-opacity:1;" />
      <stop
         id="stop621"
         offset="1.00000000"
         style="stop-color:#00507a;stop-opacity:1;" />
    </linearGradient>
    <linearGradient
       id="linearGradient604">
      <stop
         id="stop605"
         offset="0.00000000"
         style="stop-color:#838383;stop-opacity:1;" />
      <stop
         id="stop606"
         offset="1.00000000"
         style="stop-color:#2c2c2c;stop-opacity:1;" />
    </linearGradient>
    <linearGradient
       id="linearGradient598">
      <stop
         id="stop599"
         offset="0.00000000"
         style="stop-color:#e1dedd;stop-opacity:0.866071;" />
      <stop
         id="stop600"
         offset="1.00000000"
         style="stop-color:#2c2c2c;stop-opacity:1;" />
    </linearGradient>
    <linearGradient
       id="linearGradient593">
      <stop
         id="stop594"
         offset="0.00000000"
         style="stop-color:#fff9db;stop-opacity:0.732143;" />
      <stop
         id="stop595"
         offset="1.00000000"
         style="stop-color:#2c2c2c;stop-opacity:1;" />
    </linearGradient>
    <linearGradient
       id="linearGradient586">
      <stop
         id="stop587"
         offset="0.00000000"
         style="stop-color:#6e6969;stop-opacity:1;" />
      <stop
         id="stop588"
         offset="1.00000000"
         style="stop-color:#2c2c2c;stop-opacity:1;" />
    </linearGradient>
    <linearGradient
       id="linearGradient578">
      <stop
         id="stop579"
         offset="0.00000000"
         style="stop-color:#fff2bc;stop-opacity:1;" />
      <stop
         id="stop580"
         offset="1.00000000"
         style="stop-color:#83560b;stop-opacity:1;" />
    </linearGradient>
    <linearGradient
       y2="279.76099"
       x2="656.45555"
       y1="231.00583"
       x1="596.05675"
       id="linearGradient581"
       xlink:href="#linearGradient578"
       gradientTransform="matrix(0.04557033,0,0,0.07062133,3.1833797,1.0604886)"
       gradientUnits="userSpaceOnUse" />
    <radialGradient
       fy="0.50000000"
       fx="0.50000000"
       r="0.50000000"
       cy="0.50000000"
       cx="0.50000000"
       id="radialGradient582"
       xlink:href="#linearGradient578" />
    <linearGradient
       y2="264.66051"
       x2="908.4478"
       y1="160.6253"
       x1="779.71681"
       id="linearGradient590"
       xlink:href="#linearGradient593"
       gradientTransform="matrix(0.74212107,0,0,1.347489,-928.13501,-522.70223)"
       gradientUnits="userSpaceOnUse" />
    <linearGradient
       y2="0.53906250"
       x2="0.31958762"
       y1="0.49218750"
       x1="0.19587629"
       id="linearGradient592"
       xlink:href="#linearGradient586" />
    <linearGradient
       y2="0.38281250"
       x2="0.66666669"
       y1="0.25781250"
       x1="0.49333334"
       id="linearGradient597"
       xlink:href="#linearGradient598" />
    <linearGradient
       y2="0.10937500"
       x2="0.43835616"
       y1="0.37500000"
       x1="0.83076924"
       id="linearGradient603"
       xlink:href="#linearGradient604" />
    <linearGradient
       y2="0.92968750"
       x2="0.97674412"
       y1="0.37500000"
       x1="0.41085270"
       id="linearGradient618"
       xlink:href="#linearGradient665" />
    <linearGradient
       y2="425.86215"
       x2="411.61445"
       y1="74.221018"
       x1="273.65717"
       id="linearGradient623"
       xlink:href="#linearGradient624"
       gradientTransform="matrix(0.04064714,0,0,0.07917501,2.833117,1.2356199)"
       gradientUnits="userSpaceOnUse" />
    <linearGradient
       y2="598.45589"
       x2="332.64537"
       y1="-72.169076"
       x1="34.350778"
       id="linearGradient664"
       xlink:href="#linearGradient619"
       gradientUnits="userSpaceOnUse"
       gradientTransform="matrix(0.832278,0,0,0.846654,-1182.4079,-22.878397)" />
    <linearGradient
       x1="71.204407"
       y1="15.369057"
       x2="71.204407"
       y2="40.495617"
       id="linearGradient3081"
       xlink:href="#linearGradient4806-2"
       gradientUnits="userSpaceOnUse"
       gradientTransform="matrix(1.6169806,0,0,1.6169806,-92.70737,-21.060237)" />
    <linearGradient
       id="linearGradient4806-2">
      <stop
         id="stop4808-4"
         style="stop-color:#ffffff;stop-opacity:1"
         offset="0" />
      <stop
         id="stop4810-0"
         style="stop-color:#ffffff;stop-opacity:0.23529412"
         offset="0.42447853" />
      <stop
         id="stop4812-8"
         style="stop-color:#ffffff;stop-opacity:0.15686275"
         offset="0.82089913" />
      <stop
         id="stop4814-0"
         style="stop-color:#ffffff;stop-opacity:0.39215687"
         offset="1" />
    </linearGradient>
    <linearGradient
       x1="35.5"
       y1="22"
       x2="48.262592"
       y2="21.91367"
       id="linearGradient3078"
       xlink:href="#linearGradient3678"
       gradientUnits="userSpaceOnUse"
       gradientTransform="matrix(0,0.91421579,0.91421579,0,2.9894266,0.6877848)" />
    <linearGradient
       id="linearGradient3678">
      <stop
         id="stop3680"
         style="stop-color:#ffffff;stop-opacity:0.13368984"
         offset="0" />
      <stop
         id="stop3682"
         style="stop-color:#ffffff;stop-opacity:0"
         offset="1" />
    </linearGradient>
    <linearGradient
       x1="3.5"
       y1="23"
       x2="47.5"
       y2="23"
       id="linearGradient3075"
       xlink:href="#linearGradient3678"
       gradientUnits="userSpaceOnUse"
       gradientTransform="matrix(0,0.91421579,0.91421579,0,2.9894266,0.6877848)" />
    <linearGradient
       x1="14.893399"
       y1="22.292894"
       x2="4.0629644"
       y2="21.829967"
       id="linearGradient3071"
       xlink:href="#linearGradient3678"
       gradientUnits="userSpaceOnUse"
       gradientTransform="matrix(0.64644818,0.64644818,-0.64644818,0.64644818,22.400273,-7.35245)" />
    <linearGradient
       x1="46.006096"
       y1="23.707108"
       x2="4.2867966"
       y2="27.242641"
       id="linearGradient3068"
       xlink:href="#linearGradient3678"
       gradientUnits="userSpaceOnUse"
       gradientTransform="matrix(0.64644818,0.64644818,-0.64644818,0.64644818,22.400273,-7.35245)" />
    <linearGradient
       x1="48.127419"
       y1="25.828426"
       x2="2.8725832"
       y2="24.414213"
       id="linearGradient3064"
       xlink:href="#linearGradient3678"
       gradientUnits="userSpaceOnUse"
       gradientTransform="matrix(0.64644818,-0.64644818,-0.64644818,-0.64644818,22.231006,55.436572)" />
    <linearGradient
       x1="14.893399"
       y1="23.707106"
       x2="2.8318863"
       y2="24.108988"
       id="linearGradient3060"
       xlink:href="#linearGradient3678"
       gradientUnits="userSpaceOnUse"
       gradientTransform="matrix(0.64644818,-0.64644818,-0.64644818,-0.64644818,22.231006,55.436572)" />
    <linearGradient
       x1="4.4897356"
       y1="23"
       x2="47.500416"
       y2="23"
       id="linearGradient3057"
       xlink:href="#linearGradient3678"
       gradientUnits="userSpaceOnUse"
       gradientTransform="matrix(0.91421579,0,0,-0.91421579,0.7038908,45.027255)" />
    <linearGradient
       x1="37.5"
       y1="23"
       x2="49.089928"
       y2="23.172663"
       id="linearGradient3053"
       xlink:href="#linearGradient3678"
       gradientUnits="userSpaceOnUse"
       gradientTransform="matrix(0.91421579,0,0,-0.91421579,0.7038908,45.027255)" />
    <radialGradient
       inkscape:collect="always"
       xlink:href="#linearGradient2867-449-88-871-390-598-476-591-434-148-57-177-3-8"
       id="radialGradient4392"
       gradientUnits="userSpaceOnUse"
       gradientTransform="matrix(0,2.4988347,-2.6434689,-6.8014435e-8,46.336814,-12.180468)"
       cx="3.9722471"
       cy="8.4497671"
       fx="3.9722471"
       fy="8.4497671"
       r="19.99999" />
    <linearGradient
       gradientTransform="matrix(1.054054,0,0,1.054054,-51.611006,-2.7279)"
       gradientUnits="userSpaceOnUse"
       xlink:href="#linearGradient4011"
       id="linearGradient3012-0"
       y2="44.340794"
       x2="71.204407"
       y1="6.2375584"
       x1="71.204407" />
    <radialGradient
       gradientTransform="matrix(0,2.4988347,-2.6434689,-6.8014435e-8,-12.08407,-9.7357827)"
       gradientUnits="userSpaceOnUse"
       xlink:href="#linearGradient2867-449-88-871-390-598-476-591-434-148-57-177-3-8"
       id="radialGradient3015-4"
       fy="8.4497671"
       fx="3.9722471"
       r="19.99999"
       cy="8.4497671"
       cx="3.9722471" />
    <radialGradient
       gradientTransform="matrix(0.27083381,0,0,0.08762273,-61.275956,27.631913)"
       gradientUnits="userSpaceOnUse"
       xlink:href="#linearGradient3820-7-2-1"
       id="radialGradient3018-0"
       fy="186.17059"
       fx="99.157013"
       r="62.769119"
       cy="186.17059"
       cx="99.157013" />
    <linearGradient
       gradientTransform="translate(-37.016949,19.932203)"
       gradientUnits="userSpaceOnUse"
       xlink:href="#linearGradient4168"
       id="linearGradient4506"
       y2="22.986004"
       x2="33.447899"
       y1="15.149301"
       x1="27.92535" />
    <linearGradient
       gradientUnits="userSpaceOnUse"
       xlink:href="#linearGradient3957"
       id="linearGradient4508"
       y2="26"
       x2="24"
       y1="22"
       x1="24" />
    <linearGradient
       x1="23.06352"
       y1="12.978221"
       x2="23.06352"
       y2="36.949589"
       id="linearGradient4510"
       xlink:href="#linearGradient3851"
       gradientUnits="userSpaceOnUse"
       gradientTransform="matrix(1,0,0,-1,0,48.519105)" />
    <linearGradient
       gradientTransform="translate(0,-1.4930417)"
       x1="23.06352"
       y1="12.978221"
       x2="23.06352"
       y2="36.949589"
       id="linearGradient4512"
       xlink:href="#linearGradient3851"
       gradientUnits="userSpaceOnUse" />
    <radialGradient
       cx="7.4956832"
       cy="8.4497671"
       r="19.99999"
       fx="7.4956832"
       fy="8.4497671"
       id="radialGradient3476-4"
       xlink:href="#linearGradient2867-449-88-871-390-598-476-591-434-148-57-177-641"
       gradientUnits="userSpaceOnUse"
       gradientTransform="matrix(1.8930301e-8,2.2770672,-2.4088655,-4.1952268e-8,-13.008071,-19.524216)" />
    <radialGradient
       cx="4.9929786"
       cy="43.5"
       r="2.5"
       fx="4.9929786"
       fy="43.5"
       id="radialGradient3013-896-5"
       xlink:href="#linearGradient3688-166-749-2-324"
       gradientUnits="userSpaceOnUse"
       gradientTransform="matrix(2.003784,0,0,1.4,27.98813,-17.4)" />
    <radialGradient
       cx="4.9929786"
       cy="43.5"
       r="2.5"
       fx="4.9929786"
       fy="43.5"
       id="radialGradient3015-826-6"
       xlink:href="#linearGradient3688-166-749-2-324"
       gradientUnits="userSpaceOnUse"
       gradientTransform="matrix(2.003784,0,0,1.4,-20.01187,-104.4)" />
    <linearGradient
       x1="25.058096"
       y1="47.027729"
       x2="25.058096"
       y2="39.999443"
       id="linearGradient4517"
       xlink:href="#linearGradient3702-501-757-6-946"
       gradientUnits="userSpaceOnUse" />
    <linearGradient
       x1="0.85715157"
       y1="5.7142859"
       x2="0.85715157"
       y2="44.858185"
       id="linearGradient4519"
       xlink:href="#linearGradient3851"
       gradientUnits="userSpaceOnUse"
       gradientTransform="translate(-16.076816,-9.0236427)" />
    <linearGradient
       gradientUnits="userSpaceOnUse"
       gradientTransform="matrix(0.04557033,0,0,0.07062133,3.1833797,1.0604886)"
       xlink:href="#linearGradient578"
       id="linearGradient4521"
       x1="596.05675"
       y1="231.00583"
       x2="656.45555"
       y2="279.76099" />
    <radialGradient
       xlink:href="#linearGradient578"
       id="radialGradient582-6"
       cx="0.50000000"
       cy="0.50000000"
       r="0.50000000"
       fx="0.50000000"
       fy="0.50000000" />
    <linearGradient
       gradientUnits="userSpaceOnUse"
       gradientTransform="matrix(0.74212107,0,0,1.347489,-928.13501,-522.70223)"
       xlink:href="#linearGradient593"
       id="linearGradient4524"
       x1="779.71681"
       y1="160.6253"
       x2="908.4478"
       y2="264.66051" />
    <linearGradient
       xlink:href="#linearGradient586"
       id="linearGradient4526"
       x1="0.19587629"
       y1="0.49218750"
       x2="0.31958762"
       y2="0.53906250" />
    <linearGradient
       xlink:href="#linearGradient598"
       id="linearGradient4528"
       x1="0.49333334"
       y1="0.25781250"
       x2="0.66666669"
       y2="0.38281250" />
    <linearGradient
       xlink:href="#linearGradient604"
       id="linearGradient4530"
       x1="0.83076924"
       y1="0.37500000"
       x2="0.43835616"
       y2="0.10937500" />
    <linearGradient
       xlink:href="#linearGradient665"
       id="linearGradient4532"
       x1="0.41085270"
       y1="0.37500000"
       x2="0.97674412"
       y2="0.92968750" />
    <linearGradient
       gradientUnits="userSpaceOnUse"
       gradientTransform="matrix(0.04064714,0,0,0.07917501,2.833117,1.2356199)"
       xlink:href="#linearGradient624"
       id="linearGradient4534"
       x1="273.65717"
       y1="74.221018"
       x2="411.61445"
       y2="425.86215" />
    <linearGradient
       gradientTransform="matrix(0.832278,0,0,0.846654,-1182.4079,-22.878397)"
       gradientUnits="userSpaceOnUse"
       xlink:href="#linearGradient619"
       id="linearGradient4536"
       x1="34.350778"
       y1="-72.169076"
       x2="332.64537"
       y2="598.45589" />
  </defs>
  <metadata
     id="metadata4036">
    <rdf:RDF>
      <cc:Work
         rdf:about="">
        <dc:format>image/svg+xml</dc:format>
        <dc:type
           rdf:resource="http://purl.org/dc/dcmitype/StillImage" />
        <dc:title></dc:title>
      </cc:Work>
    </rdf:RDF>
  </metadata>
  <g
     transform="scale(1.0224822,0.97801212)"
     style="font-style:normal;font-weight:normal;font-size:30.51494026px;line-height:125%;font-family:Sans;letter-spacing:0px;word-spacing:0px;fill:#323232;fill-opacity:1;stroke:none"
     id="text3783" />
  <g
     id="g4280"
     transform="translate(-54.31207,1.6875)" />
  <g
     id="g4282"
     transform="translate(-54.31207,1.6875)" />
  <g
     id="g4284"
     transform="translate(-54.31207,1.6875)" />
  <g
     id="g4286"
     transform="translate(-54.31207,1.6875)" />
  <g
     id="g4288"
     transform="translate(-54.31207,1.6875)" />
  <g
     id="g4290"
     transform="translate(-54.31207,1.6875)" />
  <g
     id="g4292"
     transform="translate(-54.31207,1.6875)" />
  <g
     id="g4294"
     transform="translate(-54.31207,1.6875)" />
  <g
     id="g4296"
     transform="translate(-54.31207,1.6875)" />
  <g
     id="g4298"
     transform="translate(-54.31207,1.6875)" />
  <g
     id="g4300"
     transform="translate(-54.31207,1.6875)" />
  <g
     id="g4302"
     transform="translate(-54.31207,1.6875)" />
  <g
     id="g4304"
     transform="translate(-54.31207,1.6875)" />
  <g
     id="g4306"
     transform="translate(-54.31207,1.6875)" />
  <g
     id="g4308"
     transform="translate(-54.31207,1.6875)" />
  <g
     id="g4556">
    <path
       style="fill:url(#radialGradient3018);fill-opacity:1;stroke:none"
       id="path3818-0-5"
       d="m 40.999999,41.499999 a 17,5.4999999 0 1 1 -33.999999,0 17,5.4999999 0 1 1 33.999999,0 z"
       inkscape:connector-curvature="0" />
    <path
       inkscape:connector-curvature="0"
       d="M 24.000003,3.4999995 C 12.68881,3.4999995 3.5,12.688804 3.5,23.999999 3.5,35.311192 12.68881,44.500003 24.000003,44.5 35.311191,44.5 44.500011,35.311192 44.5,23.999999 44.5,12.688804 35.311191,3.4999995 24.000003,3.4999995 Z"
       id="path4390"
       style="color:#000000;display:inline;overflow:visible;visibility:visible;fill:url(#radialGradient4392);fill-opacity:1;fill-rule:nonzero;stroke:none;stroke-width:1;marker:none;enable-background:accumulate" />
    <path
       style="fill:#ffffff;fill-opacity:1"
       id="path4276"
       d="M 14.695312 5.7539062 C 14.269299 5.9718629 13.855426 6.2068761 13.447266 6.453125 L 13.140625 6.6835938 L 14.279297 6.6835938 L 14.382812 7.0175781 L 14.087891 7.2929688 L 15.347656 7.328125 L 15.541016 7.7832031 L 14.123047 7.7304688 L 14.052734 7.3808594 L 13.160156 7.1875 L 12.6875 6.9238281 L 12.673828 6.9238281 C 9.0569341 9.3294966 6.2643252 12.858514 4.7539062 17.003906 L 5.4941406 17.361328 L 5.4941406 19.03125 L 6.3320312 20.466797 L 7.015625 20.572266 L 7.1035156 20.080078 L 6.296875 18.835938 L 6.140625 17.625 L 6.6113281 17.625 L 6.8105469 18.871094 L 7.9746094 20.572266 L 7.6757812 21.121094 L 8.4160156 22.255859 L 10.253906 22.712891 L 10.253906 22.414062 L 10.988281 22.519531 L 10.919922 23.044922 L 11.496094 23.150391 L 12.388672 23.394531 L 13.648438 24.833984 L 15.259766 24.955078 L 15.416016 26.271484 L 14.314453 27.042969 L 14.263672 28.21875 L 14.105469 28.9375 L 15.699219 30.9375 L 15.820312 31.621094 C 15.820312 31.621094 16.397945 31.779297 16.46875 31.779297 C 16.53861 31.779297 17.763672 32.708984 17.763672 32.708984 L 17.763672 36.322266 L 18.201172 36.445312 L 17.904297 38.111328 L 18.638672 39.09375 L 18.503906 40.746094 L 19.474609 42.457031 L 20.722656 43.548828 L 21.976562 43.572266 L 22.097656 43.167969 L 21.177734 42.390625 L 21.230469 42.003906 L 21.394531 41.53125 L 21.429688 41.048828 L 20.806641 41.029297 L 20.492188 40.634766 L 21.009766 40.134766 L 21.080078 39.759766 L 20.501953 39.59375 L 20.537109 39.244141 L 21.359375 39.119141 L 22.611328 38.515625 L 23.03125 37.744141 L 24.34375 36.060547 L 24.046875 34.744141 L 24.449219 34.042969 L 25.65625 34.080078 L 26.46875 33.433594 L 26.732422 30.892578 L 27.632812 29.746094 L 27.791016 29.007812 L 26.96875 28.744141 L 26.425781 27.853516 L 24.570312 27.833984 L 23.099609 27.271484 L 23.03125 26.220703 L 22.539062 25.361328 L 21.208984 25.341797 L 20.441406 24.132812 L 19.757812 23.798828 L 19.722656 24.166016 L 18.480469 24.240234 L 18.025391 23.605469 L 16.730469 23.341797 L 15.662109 24.578125 L 13.982422 24.292969 L 13.859375 22.394531 L 12.632812 22.185547 L 13.125 21.253906 L 12.984375 20.71875 L 11.373047 21.798828 L 10.359375 21.675781 L 9.9980469 20.880859 L 10.21875 20.0625 L 10.777344 19.03125 L 12.064453 18.378906 L 14.548828 18.376953 L 14.542969 19.136719 L 15.435547 19.552734 L 15.365234 18.255859 L 16.007812 17.605469 L 17.306641 16.751953 L 17.396484 16.150391 L 18.691406 14.798828 L 20.068359 14.035156 L 19.947266 13.933594 L 20.878906 13.054688 L 21.220703 13.144531 L 21.378906 13.341797 L 21.732422 12.947266 L 21.818359 12.910156 L 21.431641 12.855469 L 21.037109 12.722656 L 21.037109 12.34375 L 21.246094 12.173828 L 21.705078 12.173828 L 21.916016 12.265625 L 22.097656 12.634766 L 22.322266 12.601562 L 22.322266 12.568359 L 22.384766 12.589844 L 23.03125 12.492188 L 23.123047 12.175781 L 23.490234 12.267578 L 23.490234 12.611328 L 23.150391 12.845703 L 23.201172 13.220703 L 24.369141 13.582031 C 24.369141 13.582031 24.371191 13.588166 24.373047 13.597656 L 24.642578 13.574219 L 24.660156 13.066406 L 23.732422 12.642578 L 23.679688 12.400391 L 24.449219 12.136719 L 24.482422 11.398438 L 23.679688 10.908203 L 23.626953 9.6640625 L 22.523438 10.207031 L 22.121094 10.207031 L 22.226562 9.2597656 L 20.726562 8.9042969 L 20.105469 9.375 L 20.105469 10.808594 L 18.988281 11.164062 L 18.541016 12.099609 L 18.054688 12.177734 L 18.054688 10.980469 L 17.005859 10.835938 L 16.480469 10.494141 L 16.269531 9.71875 L 18.146484 8.6171875 L 19.064453 8.3378906 L 19.158203 8.9550781 L 19.669922 8.9296875 L 19.708984 8.6191406 L 20.244141 8.5410156 L 20.253906 8.4335938 L 20.023438 8.3378906 L 19.970703 8.0078125 L 20.628906 7.953125 L 21.025391 7.5371094 L 21.046875 7.5078125 L 21.052734 7.5097656 L 21.173828 7.3847656 L 22.556641 7.2089844 L 23.167969 7.7304688 L 21.564453 8.5859375 L 23.605469 9.0683594 L 23.869141 8.3847656 L 24.761719 8.3847656 L 25.076172 7.7890625 L 24.447266 7.6308594 L 24.447266 6.8769531 L 22.46875 5.9980469 L 21.103516 6.15625 L 20.333984 6.5605469 L 20.386719 7.5429688 L 19.580078 7.4199219 L 19.457031 6.8769531 L 20.228516 6.1738281 L 18.828125 6.1054688 L 18.425781 6.2265625 L 18.251953 6.6992188 L 18.775391 6.7890625 L 18.671875 7.3144531 L 17.779297 7.3671875 L 17.640625 7.7167969 L 16.345703 7.7539062 C 16.345703 7.7539062 16.309743 7.0175781 16.257812 7.0175781 C 16.205893 7.0175781 17.271484 7 17.271484 7 L 18.042969 6.2441406 L 17.623047 6.0332031 L 17.0625 6.578125 L 16.134766 6.5253906 L 15.574219 5.7539062 L 14.695312 5.7539062 z M 12.123047 7.8066406 L 12.875 7.8066406 L 12.875 8.1367188 L 12.658203 8.4257812 L 11.623047 8.4257812 L 11.623047 8.0039062 L 11.623047 7.9648438 L 12.082031 7.9648438 L 12.123047 7.8066406 z M 37.550781 8.6542969 L 36.683594 8.9941406 L 36.275391 9.4394531 L 36.369141 9.9589844 L 36.871094 10.029297 L 37.171875 10.787109 L 38.037109 10.4375 L 38.179688 11.449219 L 37.919922 11.449219 L 37.208984 11.34375 L 36.421875 11.476562 L 35.660156 12.554688 L 34.570312 12.726562 L 34.412109 13.662109 L 34.873047 13.769531 L 34.740234 14.371094 L 33.658203 14.154297 L 32.666016 14.371094 L 32.455078 14.923828 L 32.626953 16.085938 L 33.208984 16.359375 L 34.185547 16.353516 L 34.845703 16.294922 L 35.046875 15.767578 L 36.078125 14.425781 L 36.757812 14.564453 L 37.425781 13.958984 L 37.550781 14.431641 L 39.195312 15.544922 L 38.994141 15.814453 L 38.251953 15.775391 L 38.537109 16.179688 L 38.994141 16.279297 L 39.527344 16.056641 L 39.515625 15.412109 L 39.753906 15.292969 L 39.5625 15.089844 L 38.464844 14.476562 L 38.177734 13.662109 L 39.089844 13.662109 L 39.380859 13.951172 L 40.166016 14.630859 L 40.199219 15.451172 L 41.013672 16.318359 L 41.316406 15.128906 L 41.878906 14.820312 L 41.984375 15.792969 L 42.535156 16.398438 L 43.021484 16.390625 C 42.900842 16.089851 42.769066 15.79551 42.634766 15.501953 L 42.626953 15.503906 L 42.626953 15.486328 C 41.925951 13.957522 41.049882 12.527829 40.011719 11.228516 L 39.941406 11.332031 L 38.496094 11.318359 L 38.40625 11.017578 L 39.310547 10.556641 L 39.310547 10.410156 C 38.759189 9.7895909 38.172766 9.2040883 37.550781 8.6542969 z M 12.857422 8.9511719 C 12.897072 8.9511719 12.857422 9.4101563 12.857422 9.4101562 L 11.820312 9.4765625 L 11.623047 9.2402344 L 12.357422 9.0292969 C 12.357422 9.0292969 12.817771 8.9511719 12.857422 8.9511719 z M 14.119141 11.1875 L 14.617188 11.306641 L 14.445312 11.976562 L 13.90625 12.148438 L 13.566406 11.449219 L 14.119141 11.1875 z M 15.484375 12.777344 L 16.310547 12.777344 L 16.310547 13.029297 L 16.492188 13.029297 L 16.492188 13.462891 L 15.232422 13.462891 L 14.761719 13.332031 L 14.878906 13.029297 L 15.484375 12.777344 z M 16.716797 12.962891 L 17.150391 13.357422 L 16.716797 13.462891 L 16.716797 12.962891 z M 17.669922 13.568359 L 17.990234 13.769531 L 17.732422 13.982422 L 17.478516 13.769531 L 17.669922 13.568359 z M 15.248047 13.634766 L 15.943359 13.634766 L 15.050781 14.882812 L 14.683594 14.685547 L 14.761719 14.160156 L 15.248047 13.634766 z M 16.365234 13.634766 L 17.072266 13.634766 L 17.072266 14.054688 L 16.757812 14.257812 L 16.365234 14.332031 L 16.365234 13.634766 z M 17.244141 14.095703 L 17.296875 14.095703 L 18.097656 14.332031 L 18.097656 14.740234 L 17.427734 14.740234 L 17.244141 14.474609 L 17.244141 14.095703 z M 16.914062 14.474609 L 16.914062 14.884766 L 16.613281 15.1875 L 15.943359 15.1875 L 16.048828 14.728516 L 16.365234 14.701172 L 16.429688 14.542969 L 16.914062 14.474609 z M 37.734375 16.212891 L 35.371094 16.396484 L 34.638672 16.791016 L 33.701172 16.791016 L 33.240234 16.744141 L 32.101562 17.378906 L 32.101562 18.572266 L 29.771484 20.255859 L 29.964844 20.974609 L 30.4375 20.974609 L 30.314453 21.658203 L 29.982422 21.78125 L 29.962891 23.570312 L 31.976562 25.867188 L 32.851562 25.867188 L 32.90625 25.728516 L 34.480469 25.728516 L 34.933594 25.306641 L 35.828125 25.306641 L 36.316406 25.798828 L 37.648438 25.9375 L 37.472656 27.710938 L 38.949219 30.324219 L 38.171875 31.814453 L 38.224609 32.515625 L 38.835938 33.128906 L 38.835938 34.816406 L 39.640625 35.900391 L 39.640625 37.226562 C 42.665827 33.653982 44.500005 29.041548 44.5 24 C 44.5 21.970802 44.201046 20.011944 43.650391 18.160156 L 42.410156 18.160156 L 41.386719 17.396484 L 40.310547 17.501953 L 40.310547 18.160156 L 39.96875 18.160156 L 39.601562 17.896484 L 37.734375 17.421875 L 37.734375 16.212891 z " />
    <path
       style="color:#000000;display:inline;overflow:visible;visibility:visible;opacity:0.5;fill:#000000;fill-opacity:0;fill-rule:nonzero;stroke:#00537d;stroke-width:1;stroke-linecap:round;stroke-linejoin:round;stroke-miterlimit:4;stroke-dasharray:none;stroke-dashoffset:0;stroke-opacity:1;marker:none;enable-background:accumulate"
       id="path2555-6"
       d="m 24.000003,3.4999989 c -11.311193,0 -20.5000032,9.1888061 -20.5000032,20.5000001 0,11.311194 9.1888102,20.500005 20.5000032,20.500002 11.311188,0 20.500008,-9.188808 20.499997,-20.500002 C 44.5,12.688805 35.311191,3.4999989 24.000003,3.4999989 Z"
       inkscape:connector-curvature="0" />
    <path
       style="color:#000000;display:inline;overflow:visible;visibility:visible;opacity:0.5;fill:none;stroke:url(#linearGradient3012-0);stroke-width:1;stroke-linecap:round;stroke-linejoin:round;stroke-miterlimit:4;stroke-dasharray:none;stroke-dashoffset:0;stroke-opacity:1;marker:none;enable-background:accumulate"
       id="path8655"
       d="m 43.5,23.999309 c 0,10.7699 -8.73109,19.50069 -19.499753,19.50069 -10.769649,0 -19.5002469,-8.730889 -19.5002469,-19.50069 0,-10.769402 8.7305979,-19.499308 19.5002469,-19.499308 C 34.76891,4.500001 43.5,13.229907 43.5,23.999309 l 0,0 z"
       inkscape:connector-curvature="0" />
  </g>
  <g
     transform="matrix(1.0224822,0,0,0.97801212,-58.420884,2.4446853)"
     style="font-style:normal;font-weight:normal;font-size:30.51494026px;line-height:125%;font-family:Sans;letter-spacing:0px;word-spacing:0px;fill:#323232;fill-opacity:1;stroke:none"
     id="text3783-5" />
</svg>
