<?xml version="1.0" encoding="UTF-8" standalone="no"?>
<!-- Created with Inkscape (http://www.inkscape.org/) -->
<svg id="svg4031" xmlns:rdf="http://www.w3.org/1999/02/22-rdf-syntax-ns#" xmlns="http://www.w3.org/2000/svg" height="48" width="48" version="1.1" xmlns:cc="http://creativecommons.org/ns#" xmlns:xlink="http://www.w3.org/1999/xlink" xmlns:dc="http://purl.org/dc/elements/1.1/">
 <defs id="defs4033">
  <radialGradient id="radialGradient3018" gradientUnits="userSpaceOnUse" cy="186.17" cx="99.157" gradientTransform="matrix(.27083 0 0 .087623 -2.8551 25.187)" r="62.769">
   <stop id="stop3822-2-6-3" stop-color="#3d3d3d" offset="0"/>
   <stop id="stop3864-8-7-7" stop-color="#686868" stop-opacity=".49804" offset=".5"/>
   <stop id="stop3824-1-2-5" stop-color="#686868" stop-opacity="0" offset="1"/>
  </radialGradient>
  <radialGradient id="radialGradient4392" gradientUnits="userSpaceOnUse" cy="8.4498" cx="3.9722" gradientTransform="matrix(0 2.4988 -2.6435 -6.8014e-8 46.337 -12.18)" r="20">
   <stop id="stop3750-8-9" stop-color="#90dbec" offset="0"/>
   <stop id="stop3752-3-2" stop-color="#42baea" offset=".26238"/>
   <stop id="stop3754-7-2" stop-color="#3689e6" offset=".70495"/>
   <stop id="stop3756-9-3" stop-color="#2b63a0" offset="1"/>
  </radialGradient>
  <linearGradient id="linearGradient3012-0" x1="71.204" gradientUnits="userSpaceOnUse" y1="6.2376" gradientTransform="matrix(1.0541 0 0 1.0541 -51.611 -2.7279)" x2="71.204" y2="44.341">
   <stop id="stop4013" stop-color="#fff" offset="0"/>
   <stop id="stop4015" stop-color="#fff" stop-opacity=".23529" offset=".50776"/>
   <stop id="stop4017" stop-color="#fff" stop-opacity=".15686" offset=".83457"/>
   <stop id="stop4019" stop-color="#fff" stop-opacity=".39216" offset="1"/>
  </linearGradient>
 </defs>
 <metadata id="metadata4036">
  <rdf:RDF>
   <cc:Work rdf:about="">
    <dc:format>image/svg+xml</dc:format>
    <dc:type rdf:resource="http://purl.org/dc/dcmitype/StillImage"/>
    <dc:title/>
   </cc:Work>
  </rdf:RDF>
 </metadata>
 <g id="g4556">
  <path id="path3818-0-5" fill="url(#radialGradient3018)" d="m41 41.5a17 5.5 0 1 1 -34 0 17 5.5 0 1 1 34 0z"/>
  <path id="path4390" style="color:#000000" d="m24 3.5c-11.311 0-20.5 9.189-20.5 20.5s9.189 20.5 20.5 20.5 20.5-9.189 20.5-20.5-9.189-20.5-20.5-20.5z" fill="url(#radialGradient4392)"/>
  <path id="path4276" fill="#fff" d="m14.695 5.7539c-0.426 0.218-0.84 0.453-1.248 0.6992l-0.306 0.2305h1.138l0.104 0.334-0.295 0.2754 1.26 0.0351 0.193 0.4551-1.418-0.0527-0.07-0.3496-0.893-0.1934-0.472-0.2637h-0.014c-3.6171 2.4057-6.4097 5.9352-7.9201 10.08l0.7402 0.357v1.67l0.8379 1.436 0.6836 0.105 0.0879-0.492-0.8066-1.244-0.1563-1.211h0.4707l0.1992 1.246 1.1641 1.701-0.2988 0.549 0.7402 1.135 1.838 0.457v-0.299l0.734 0.106-0.068 0.525 0.576 0.105 0.893 0.245 1.259 1.439 1.612 0.121 0.156 1.316-1.102 0.772-0.05 1.176-0.159 0.719 1.594 2 0.121 0.683s0.578 0.158 0.649 0.158c0.07 0 1.295 0.93 1.295 0.93v3.613l0.437 0.123-0.297 1.666 0.735 0.983-0.135 1.652 0.971 1.711 1.248 1.092 1.254 0.023 0.121-0.404-0.92-0.777 0.052-0.387 0.165-0.473 0.035-0.482-0.623-0.02-0.315-0.394 0.518-0.5 0.07-0.375-0.578-0.166 0.035-0.35 0.822-0.125 1.252-0.603 0.42-0.772 1.313-1.683-0.297-1.317 0.402-0.701 1.207 0.037 0.813-0.646 0.263-2.541 0.901-1.147 0.158-0.738-0.822-0.264-0.543-0.89-1.856-0.02-1.47-0.563-0.069-1.05-0.492-0.86-1.33-0.019-0.768-1.209-0.683-0.334-0.035 0.367-1.243 0.074-0.455-0.635-1.295-0.263-1.068 1.236-1.68-0.285-0.123-1.898-1.226-0.209 0.492-0.932-0.141-0.535-1.611 1.08-1.014-0.123-0.361-0.795 0.221-0.819 0.558-1.031 1.287-0.652 2.485-0.002-0.006 0.76 0.893 0.416-0.071-1.297 0.643-0.651 1.299-0.853 0.089-0.602 1.295-1.351 1.377-0.764-0.121-0.101 0.932-0.879 0.342 0.09 0.158 0.197 0.353-0.395 0.086-0.037-0.386-0.055-0.395-0.132v-0.379l0.209-0.17h0.459l0.211 0.092 0.182 0.369 0.224-0.033v-0.034l0.063 0.022 0.646-0.098 0.092-0.316 0.367 0.092v0.343l-0.34 0.235 0.051 0.375 1.168 0.361s0.002 0.006 0.004 0.016l0.27-0.024 0.017-0.508-0.928-0.423-0.052-0.243 0.769-0.263 0.033-0.739-0.802-0.49-0.053-1.2439-1.104 0.5429h-0.402l0.106-0.9472-1.5-0.3555-0.622 0.4707v1.434l-1.117 0.355-0.447 0.936-0.486 0.078v-1.198l-1.049-0.144-0.526-0.342-0.21-0.7752 1.876-1.1016 0.918-0.2793 0.094 0.6172 0.512-0.0254 0.039-0.3106 0.535-0.0781 0.01-0.1074-0.231-0.0957-0.052-0.3301 0.658-0.0547 0.396-0.416 0.022-0.0293 0.006 0.002 0.121-0.125 1.383-0.1758 0.611 0.5215-1.604 0.8554 2.041 0.4825 0.264-0.6836h0.893l0.314-0.5957-0.629-0.1582v-0.7539l-1.978-0.879-1.365 0.1582-0.77 0.4043 0.053 0.9825-0.807-0.1231-0.123-0.5429 0.772-0.7032-1.401-0.0683-0.402 0.1211-0.174 0.4726 0.523 0.0899-0.103 0.5254-0.893 0.0527-0.138 0.3496-1.295 0.0371s-0.036-0.7363-0.088-0.7363 1.013-0.0176 1.013-0.0176l0.772-0.7559-0.42-0.2109-0.561 0.5449-0.927-0.0527-0.561-0.7715h-0.879zm-2.572 2.0527h0.752v0.3301l-0.217 0.2891h-1.035v-0.4219-0.0391h0.459l0.041-0.1582zm25.428 0.8477l-0.867 0.3398-0.409 0.4454 0.094 0.5195 0.502 0.07 0.301 0.758 0.865-0.349 0.143 1.011h-0.26l-0.711-0.105-0.787 0.133-0.762 1.078-1.09 0.172-0.158 0.935 0.461 0.108-0.133 0.601-1.082-0.217-0.992 0.217-0.211 0.553 0.172 1.162 0.582 0.273 0.977-0.005 0.66-0.059 0.201-0.527 1.031-1.342 0.68 0.138 0.668-0.605 0.125 0.473 1.644 1.113-0.201 0.269-0.742-0.039 0.285 0.405 0.457 0.099 0.533-0.222-0.011-0.645 0.238-0.119-0.192-0.203-1.097-0.613-0.287-0.815h0.912l0.291 0.289 0.785 0.68 0.033 0.82 0.815 0.867 0.302-1.189 0.563-0.309 0.105 0.973 0.551 0.605 0.486-0.007c-0.12-0.301-0.252-0.595-0.386-0.889l-0.008 0.002v-0.018c-0.701-1.528-1.577-2.958-2.615-4.257l-0.071 0.103-1.445-0.014-0.09-0.3 0.905-0.461v-0.147c-0.552-0.6204-1.138-1.2059-1.76-1.7557zm-24.694 0.2969c0.04 0 0 0.459 0 0.459l-1.037 0.0664-0.197-0.2364 0.734-0.2109s0.461-0.0781 0.5-0.0781zm1.262 2.2368l0.498 0.119-0.172 0.67-0.539 0.171-0.34-0.699 0.553-0.261zm1.365 1.589h0.827v0.252h0.181v0.434h-1.26l-0.47-0.131 0.117-0.303 0.605-0.252zm1.233 0.186l0.433 0.394-0.433 0.106v-0.5zm0.953 0.605l0.32 0.202-0.258 0.212-0.253-0.212 0.191-0.202zm-2.422 0.067h0.695l-0.892 1.248-0.367-0.197 0.078-0.526 0.486-0.525zm1.117 0h0.707v0.42l-0.314 0.203-0.393 0.074v-0.697zm0.879 0.461h0.053l0.801 0.236v0.408h-0.67l-0.184-0.265v-0.379zm-0.33 0.379v0.41l-0.301 0.303h-0.67l0.106-0.459 0.316-0.028 0.065-0.158 0.484-0.068zm20.82 1.738l-2.363 0.183-0.732 0.395h-0.938l-0.461-0.047-1.138 0.635v1.193l-2.331 1.684 0.194 0.719h0.473l-0.124 0.683-0.332 0.123-0.019 1.789 2.014 2.297h0.875l0.054-0.138h1.574l0.454-0.422h0.894l0.488 0.492 1.332 0.139-0.175 1.773 1.476 2.613-0.777 1.49 0.053 0.702 0.611 0.613v1.687l0.805 1.084v1.327c3.025-3.573 4.859-8.185 4.859-13.227 0-2.029-0.299-3.988-0.85-5.84h-1.24l-1.023-0.764-1.076 0.106v0.658h-0.342l-0.367-0.264-1.868-0.474v-1.209z"/>
  <path id="path2555-6" opacity=".5" stroke-linejoin="round" style="color:#000000" d="m24 3.5c-11.311 0-20.5 9.1888-20.5 20.5s9.1888 20.5 20.5 20.5 20.5-9.1888 20.5-20.5-9.189-20.5-20.5-20.5z" fill-opacity="0" stroke="#00537d" stroke-linecap="round"/>
  <path id="path8655" opacity=".5" stroke-linejoin="round" style="color:#000000" d="m43.5 23.999c0 10.77-8.7311 19.501-19.5 19.501-10.77 0-19.5-8.7309-19.5-19.501 0-10.769 8.7306-19.499 19.5-19.499s19.5 8.73 19.5 19.499v0z" stroke="url(#linearGradient3012-0)" stroke-linecap="round" fill="none"/>
 </g>
</svg>
