<?xml version="1.0" encoding="UTF-8" standalone="no"?>
<!-- Created with Inkscape (http://www.inkscape.org/) -->
<svg id="svg3143" xmlns:rdf="http://www.w3.org/1999/02/22-rdf-syntax-ns#" xmlns="http://www.w3.org/2000/svg" height="48" width="48" version="1.1" xmlns:cc="http://creativecommons.org/ns#" xmlns:xlink="http://www.w3.org/1999/xlink" xmlns:dc="http://purl.org/dc/elements/1.1/">
 <defs id="defs3145">
  <radialGradient id="radialGradient3030" gradientUnits="userSpaceOnUse" cy="43.5" cx="4.993" gradientTransform="matrix(2.3202 0 0 0.9 28.618 4.85)" r="2.5">
   <stop id="stop2883" stop-color="#181818" offset="0"/>
   <stop id="stop2885" stop-color="#181818" stop-opacity="0" offset="1"/>
  </radialGradient>
  <radialGradient id="radialGradient3032" gradientUnits="userSpaceOnUse" cy="43.5" cx="4.993" gradientTransform="matrix(2.3202 0 0 0.9 -19.382 -83.15)" r="2.5">
   <stop id="stop2889" stop-color="#181818" offset="0"/>
   <stop id="stop2891" stop-color="#181818" stop-opacity="0" offset="1"/>
  </radialGradient>
  <linearGradient id="linearGradient3034" y2="39.999" gradientUnits="userSpaceOnUse" x2="25.058" gradientTransform="matrix(1.1579 0 0 .64286 -3.7895 16.036)" y1="47.028" x1="25.058">
   <stop id="stop2895" stop-color="#181818" stop-opacity="0" offset="0"/>
   <stop id="stop2897" stop-color="#181818" offset=".5"/>
   <stop id="stop2899" stop-color="#181818" stop-opacity="0" offset="1"/>
  </linearGradient>
  <linearGradient id="linearGradient3044" y2="43" gradientUnits="userSpaceOnUse" x2="24" gradientTransform="translate(.0000053 1)" y1="5" x1="24">
   <stop id="stop3926-7" stop-color="#fff" offset="0"/>
   <stop id="stop3928-3" stop-color="#fff" stop-opacity=".23529" offset=".063165"/>
   <stop id="stop3930-7" stop-color="#fff" stop-opacity=".15686" offset=".95056"/>
   <stop id="stop3932-1" stop-color="#fff" stop-opacity=".39216" offset="1"/>
  </linearGradient>
  <radialGradient id="radialGradient3053" gradientUnits="userSpaceOnUse" cy="9.9941" cx="8.2761" gradientTransform="matrix(0 6.6678 -8.1859 0 105.88 -59.463)" r="12.672">
   <stop id="stop4199" stop-color="#e5c591" offset="0"/>
   <stop id="stop4201" stop-color="#c6a46c" offset=".26238"/>
   <stop id="stop4203" stop-color="#9f784d" offset=".66094"/>
   <stop id="stop4205" stop-color="#59391b" offset="1"/>
  </radialGradient>
  <linearGradient id="linearGradient4075" y2="49.325" xlink:href="#linearGradient3922" gradientUnits="userSpaceOnUse" x2="33.811" gradientTransform="matrix(.19928 0 0 .20905 29.884 29.791)" y1="34.374" x1="32.393"/>
  <linearGradient id="linearGradient3922">
   <stop id="stop3924" stop-color="#fff" offset="0"/>
   <stop id="stop3926" stop-color="#fff" stop-opacity="0" offset="1"/>
  </linearGradient>
  <linearGradient id="linearGradient4047" y2="36.194" xlink:href="#linearGradient3922" gradientUnits="userSpaceOnUse" x2="10.081" y1="37.326" x1="10.135"/>
  <linearGradient id="linearGradient3959" y2="19.163" gradientUnits="userSpaceOnUse" x2="24.505" gradientTransform="matrix(.99589 0 0 .99296 -.044851 -.60021)" y1="33.767" x1="24.505">
   <stop id="stop3955" offset="0"/>
   <stop id="stop3957" stop-opacity="0" offset="1"/>
  </linearGradient>
  <linearGradient id="linearGradient3949" y2="35.652" xlink:href="#linearGradient3922" gradientUnits="userSpaceOnUse" x2="23.018" gradientTransform="matrix(.99589 0 0 .99296 1.0644 -2.0749)" y1="10.805" x1="22.561"/>
  <linearGradient id="linearGradient4238" y2="34.115" gradientUnits="userSpaceOnUse" x2="24.976" y1="9.6482" x1="24.12">
   <stop id="stop4234" stop-color="#fff" offset="0"/>
   <stop id="stop4236" stop-color="#fff" stop-opacity="0" offset="1"/>
  </linearGradient>
 </defs>
 <metadata id="metadata3148">
  <rdf:RDF>
   <cc:Work rdf:about="">
    <dc:format>image/svg+xml</dc:format>
    <dc:type rdf:resource="http://purl.org/dc/dcmitype/StillImage"/>
    <dc:title/>
   </cc:Work>
  </rdf:RDF>
 </metadata>
 <rect id="rect2801-3" height="4.5" width="5.7895" y="41.75" x="40.211" fill="url(#radialGradient3030)"/>
 <rect id="rect3696-6" transform="scale(-1)" height="4.5" width="5.7895" y="-46.25" x="-7.7895" fill="url(#radialGradient3032)"/>
 <rect id="rect3700-4" height="4.5" width="32.421" y="41.75" x="7.7895" fill="url(#linearGradient3034)"/>
 <rect id="rect5505-21" style="color:#000000" rx="2" ry="2" height="39" width="39" y="5.5" x="4.5" fill="url(#radialGradient3053)"/>
 <rect id="rect6741-2" opacity=".5" stroke-linejoin="round" rx="1" ry="1" height="37" width="37" stroke="url(#linearGradient3044)" stroke-linecap="round" y="6.5" x="5.5" fill="none"/>
 <rect id="rect5505-21-1" opacity=".4" stroke-linejoin="round" style="color:#000000" rx="2" ry="2" height="39" width="39" stroke="#413400" stroke-linecap="round" y="5.5" x="4.5" fill="none"/>
 <rect id="rect3927" opacity=".15" rx="7.9671" ry="7.9436" height="24.574" width="32.862" stroke="url(#linearGradient3949)" y="9.0254" x="7.4766" stroke-width=".99442" fill="none"/>
 <rect id="rect3127" rx="7.9671" ry="7.9436" height="24.574" width="32.862" y="9.0254" x="7.4766" fill="#323232"/>
 <rect id="rect3951" opacity=".3" rx="7.9671" ry="7.9436" height="24.574" width="32.862" stroke="url(#linearGradient3959)" y="9.0254" x="7.4766" stroke-width=".49721" fill="none"/>
 <g id="g3952" transform="matrix(.99589 0 0 .99296 2.288 .20291)">
  <g id="g3938" fill="#1b1b1b">
   <path id="path3940" d="m12.796 35.915h-5.6578c-0.37341 0-0.67893 0.30552-0.67893 0.67893s0.30552 0.67893 0.67893 0.67893h5.6578c0.37341 0 0.67893-0.30552 0.67893-0.67893s-0.30552-0.67893-0.67893-0.67893z"/>
   <path id="path3942" d="m12.796 35.915h-5.6578c-0.37341 0-0.67893 0.30552-0.67893 0.67893s0.30552 0.67893 0.67893 0.67893h5.6578c0.37341 0 0.67893-0.30552 0.67893-0.67893s-0.30552-0.67893-0.67893-0.67893z"/>
  </g>
  <g id="g3918" opacity=".1" transform="matrix(.97192 0 0 1.0019 .27960 -.17057)" stroke="url(#linearGradient4047)" stroke-width=".20267" fill="none">
   <path id="path5" d="m12.796 35.915h-5.6578c-0.37341 0-0.67893 0.30552-0.67893 0.67893s0.30552 0.67893 0.67893 0.67893h5.6578c0.37341 0 0.67893-0.30552 0.67893-0.67893s-0.30552-0.67893-0.67893-0.67893z"/>
   <path id="path3898" d="m12.817 36.098-5.6786-0.183c-0.37321-0.01206-0.74294 0.41108-0.68944 0.78087 0.052544 0.36322 0.25298 0.58719 0.65791 0.58719h5.6893c0.37341 0 0.66842-0.20358 0.66842-0.57699s-0.2742-0.59552-0.6474-0.60757z"/>
  </g>
 </g>
 <g id="g3960" transform="matrix(.99589 0 0 .99296 2.288 2.0898)">
  <g id="g3962" fill="#1b1b1b">
   <path id="path3964" d="m12.796 35.915h-5.6578c-0.37341 0-0.67893 0.30552-0.67893 0.67893s0.30552 0.67893 0.67893 0.67893h5.6578c0.37341 0 0.67893-0.30552 0.67893-0.67893s-0.30552-0.67893-0.67893-0.67893z"/>
   <path id="path3966" d="m12.796 35.915h-5.6578c-0.37341 0-0.67893 0.30552-0.67893 0.67893s0.30552 0.67893 0.67893 0.67893h5.6578c0.37341 0 0.67893-0.30552 0.67893-0.67893s-0.30552-0.67893-0.67893-0.67893z"/>
  </g>
  <g id="g3968" opacity=".1" transform="matrix(.97192 0 0 1.0019 .27960 -.17057)" stroke="url(#linearGradient4047)" stroke-width=".20267" fill="none">
   <path id="path3970" d="m12.796 35.915h-5.6578c-0.37341 0-0.67893 0.30552-0.67893 0.67893s0.30552 0.67893 0.67893 0.67893h5.6578c0.37341 0 0.67893-0.30552 0.67893-0.67893s-0.30552-0.67893-0.67893-0.67893z"/>
   <path id="path3972" d="m12.817 36.098-5.6786-0.183c-0.37321-0.01206-0.74294 0.41108-0.68944 0.78087 0.052544 0.36322 0.25298 0.58719 0.65791 0.58719h5.6893c0.37341 0 0.66842-0.20358 0.66842-0.57699s-0.2742-0.59552-0.6474-0.60757z"/>
  </g>
 </g>
 <g id="g3980" transform="matrix(.99589 0 0 .99296 2.288 3.9764)">
  <g id="g3982" fill="#1b1b1b">
   <path id="path3984" d="m12.796 35.915h-5.6578c-0.37341 0-0.67893 0.30552-0.67893 0.67893s0.30552 0.67893 0.67893 0.67893h5.6578c0.37341 0 0.67893-0.30552 0.67893-0.67893s-0.30552-0.67893-0.67893-0.67893z"/>
   <path id="path3986" d="m12.796 35.915h-5.6578c-0.37341 0-0.67893 0.30552-0.67893 0.67893s0.30552 0.67893 0.67893 0.67893h5.6578c0.37341 0 0.67893-0.30552 0.67893-0.67893s-0.30552-0.67893-0.67893-0.67893z"/>
  </g>
  <g id="g3988" opacity=".1" transform="matrix(.97192 0 0 1.0019 .27960 -.17057)" stroke="url(#linearGradient4047)" stroke-width=".20267" fill="none">
   <path id="path3990" d="m12.796 35.915h-5.6578c-0.37341 0-0.67893 0.30552-0.67893 0.67893s0.30552 0.67893 0.67893 0.67893h5.6578c0.37341 0 0.67893-0.30552 0.67893-0.67893s-0.30552-0.67893-0.67893-0.67893z"/>
   <path id="path3992" d="m12.817 36.098-5.6786-0.183c-0.37321-0.01206-0.74294 0.41108-0.68944 0.78087 0.052544 0.36322 0.25298 0.58719 0.65791 0.58719h5.6893c0.37341 0 0.66842-0.20358 0.66842-0.57699s-0.2742-0.59552-0.6474-0.60757z"/>
  </g>
 </g>
 <ellipse id="path4061" opacity=".1" rx="2.6562" ry="2.6484" cy="37.916" cx="34.273" fill="none"/>
 <ellipse id="path4063" rx="2.4295" ry="2.4224" cy="38.566" cx="36.313" fill="#1b1b1b"/>
 <ellipse id="path4065" rx="1.5297" ry="1.5252" cy="38.615" cx="36.334" fill="#ff312c"/>
 <ellipse id="path4067" opacity=".3" rx="1.4316" ry="1.4273" stroke="url(#linearGradient4075)" cy="38.606" cx="36.333" stroke-width=".16456" fill="none"/>
 <path id="rect4230" opacity=".2" d="m15.444 9.0254h16.928c4.4138 0 7.9671 3.5429 7.9671 7.9436v8.6869c0 4.4008-3.5533 7.9436-7.9671 7.9436h-16.928c-4.4138 0-7.9671-3.5429-7.9671-7.9436v-8.6869c0-4.4008 3.5533-7.9436 7.9671-7.9436z" fill="url(#linearGradient4238)"/>
</svg>
