<?xml version="1.0" encoding="UTF-8" standalone="no"?>
<!-- Created with Inkscape (http://www.inkscape.org/) -->
<svg id="svg4951" xmlns:rdf="http://www.w3.org/1999/02/22-rdf-syntax-ns#" xmlns="http://www.w3.org/2000/svg" height="48" width="48" version="1.1" xmlns:cc="http://creativecommons.org/ns#" xmlns:xlink="http://www.w3.org/1999/xlink" xmlns:dc="http://purl.org/dc/elements/1.1/">
 <defs id="defs4953">
  <linearGradient id="linearGradient4411">
   <stop id="stop4413" stop-color="#fff" offset="0"/>
   <stop id="stop4415" stop-color="#fff" stop-opacity="0" offset="1"/>
  </linearGradient>
  <radialGradient id="radialGradient3302" gradientUnits="userSpaceOnUse" cy="186.17" cx="99.157" gradientTransform="matrix(.27083 0 0 .087623 -2.8551 25.187)" r="62.769">
   <stop id="stop3822-2-6-3" stop-color="#3d3d3d" offset="0"/>
   <stop id="stop3864-8-7-7" stop-color="#686868" stop-opacity=".49804" offset=".5"/>
   <stop id="stop3824-1-2-5" stop-color="#686868" stop-opacity="0" offset="1"/>
  </radialGradient>
  <radialGradient id="radialGradient4448" gradientUnits="userSpaceOnUse" cy="-17.681" cx="14.892" gradientTransform="matrix(-1.4387 3.8089e-8 -2.8328e-8 -1.07 45.169 -14.596)" r="25.571">
   <stop id="stop3750-1-0-7-6-6-1-3-9-3" stop-color="#5f5f5f" offset="0"/>
   <stop id="stop3752-3-7-4-0-32-8-923-0-7" stop-color="#515151" offset=".26238"/>
   <stop id="stop3754-1-8-5-2-7-6-7-1-9" stop-color="#404040" offset=".70495"/>
   <stop id="stop3756-1-6-2-6-6-1-96-6-0" stop-color="#343434" offset="1"/>
  </radialGradient>
  <linearGradient id="linearGradient4450" y2="32.568" xlink:href="#linearGradient4411" gradientUnits="userSpaceOnUse" x2="15.124" gradientTransform="matrix(.76418 0 0 .76418 12.377 18.778)" y1="-18.801" x1="15.124"/>
  <radialGradient id="radialGradient32528" gradientUnits="userSpaceOnUse" cx="161.5" cy="161.5" r="37" gradientTransform="matrix(.36856 -.25223 .28274 .41314 -73.853 7.0191)">
   <stop id="stop4435-2-1" stop-color="#fce94f" offset="0"/>
   <stop id="stop4437-2-8" stop-color="#c4a000" offset="1"/>
  </radialGradient>
  <linearGradient id="ButtonShadow" x1="45.448" gradientUnits="userSpaceOnUse" y1="92.54" gradientTransform="scale(1.0059 .99417)" x2="45.448" y2="7.0165">
   <stop id="stop3750" offset="0"/>
   <stop id="stop3752" stop-opacity=".58824" offset="1"/>
  </linearGradient>
  <filter id="filter3174" style="color-interpolation-filters:sRGB">
   <feGaussianBlur id="feGaussianBlur3176" stdDeviation="1.71"/>
  </filter>
  <linearGradient id="linearGradient3185" x1="206.69" xlink:href="#SVGID_14_" gradientUnits="userSpaceOnUse" y1="-167.53" gradientTransform="matrix(.72832 0 0 -.72832 -346.1 -103.56)" x2="206.69" y2="-167.53"/>
  <linearGradient id="SVGID_14_" x1="206.69" gradientUnits="userSpaceOnUse" y1="-167.53" gradientTransform="matrix(1 0 0 -1 -270.96 -122.07)" x2="206.69" y2="-167.53">
   <stop id="stop3506" stop-color="#7e9ec4" offset="0"/>
   <stop id="stop3508" stop-color="#151d89" offset="1"/>
  </linearGradient>
  <linearGradient id="linearGradient3182" x1="206.69" xlink:href="#SVGID_14_" gradientUnits="userSpaceOnUse" y1="-167.53" gradientTransform="matrix(.72832 0 0 -.72832 -426.1 -102.56)" x2="206.69" y2="-167.53"/>
  <linearGradient id="linearGradient3021" x1="32.036" gradientUnits="userSpaceOnUse" y1="19" gradientTransform="matrix(.77778 0 0 .77778 -12.111 -13.667)" x2="32.036" y2="47.012">
   <stop id="stop3311" stop-color="#f6f6f6" offset="0"/>
   <stop id="stop3313" stop-color="#d2d2d2" offset="1"/>
  </linearGradient>
  <linearGradient id="linearGradient3017" x1="86.133" gradientUnits="userSpaceOnUse" y1="105.1" gradientTransform="matrix(.15623 0 0 .15623 2.0012 2.1574)" x2="84.639" y2="20.895">
   <stop id="stop5130-3" stop-color="#fff" offset="0"/>
   <stop id="stop5132-4" stop-color="#959595" offset="1"/>
  </linearGradient>
  <linearGradient id="linearGradient3014" x1="12.479" xlink:href="#linearGradient4411" gradientUnits="userSpaceOnUse" y1="2" x2="12.479" y2="22.007"/>
  <linearGradient id="linearGradient3011" x1="12" xlink:href="#linearGradient4411" gradientUnits="userSpaceOnUse" y1="16" gradientTransform="matrix(1.0116 0 0 1.0116 -.13924 -.13924)" x2="12" y2="8"/>
  <radialGradient id="radialGradient3026-0" gradientUnits="userSpaceOnUse" cy="73.616" cx="6.7027" gradientTransform="matrix(1.6601 0 0 .36315 .87285 -5.3586)" r="7.2284">
   <stop id="stop8840" offset="0"/>
   <stop id="stop8842" stop-opacity="0" offset="1"/>
  </radialGradient>
 </defs>
 <metadata id="metadata4956">
  <rdf:RDF>
   <cc:Work rdf:about="">
    <dc:format>image/svg+xml</dc:format>
    <dc:type rdf:resource="http://purl.org/dc/dcmitype/StillImage"/>
    <dc:title/>
   </cc:Work>
  </rdf:RDF>
 </metadata>
 <g id="g4626">
  <path id="path3818-0-5" fill="url(#radialGradient3302)" d="m41 41.5a17 5.5 0 0 1 -34 0 17 5.5 0 1 1 34 0z"/>
  <circle id="path2985-6" cx="24" cy="24" r="20.526" fill="url(#radialGradient4448)"/>
  <circle id="path3755-9" opacity=".6" cx="24" stroke="#242424" cy="24" r="20.526" stroke-width=".94845" fill="none"/>
  <circle id="path3773-9" opacity=".6" stroke-opacity=".58824" cx="24" stroke="url(#linearGradient4450)" cy="24" r="19.54" stroke-width=".93261" fill="none"/>
  <path id="path3861-6-4" style="color:#000000" d="m24 8.5c-8.5603 0-15.5 6.9396-15.5 15.5s6.9395 15.5 15.5 15.5c8.5603 0 15.5-6.9396 15.5-15.5s-6.9395-15.5-15.5-15.5z" stroke="#2e3436" stroke-width=".99998" fill="url(#radialGradient32528)"/>
  <ellipse id="path3861-6-1-6" stroke="#202020" style="color:#000000" rx="6.2577" ry="6.2578" cy="24" cx="24" stroke-width="1.2515" fill="#292929"/>
 </g>
 <g id="layer2" display="none" transform="translate(-276.39 -23.057)">
  <rect id="rect3745" opacity=".9" rx="6" ry="6" height="85" filter="url(#filter3174)" width="86" y="7" x="5" fill="url(#ButtonShadow)"/>
 </g>
 <g id="g3086" transform="translate(24 24)">
  <path id="path10689" opacity=".2" d="m24 21.375c0 1.45-5.373 2.625-12 2.625-6.6273 0-12-1.175-12-2.625 0.00013481-1.45 5.3727-2.625 12-2.625s12 1.1753 12 2.625z" fill="url(#radialGradient3026-0)"/>
  <path id="rect3623" style="color:#000000" d="m10.5 1.5c-0.554 0-1 0.446-1 1v1.375c-0.5073 0.1558-1.0068 0.3505-1.4688 0.5938l-0.9687-0.9688c-0.3917-0.3917-1.0458-0.3917-1.4375 0l-2.125 2.125c-0.3917 0.3917-0.3917 1.0458 0 1.4375l0.9688 0.9687c-0.2433 0.462-0.438 0.9615-0.5938 1.4688h-1.375c-0.554 0-1 0.446-1 1v3c0 0.554 0.446 1 1 1h1.375c0.15578 0.50733 0.35047 1.0068 0.59375 1.4688l-0.9688 0.969c-0.39174 0.39174-0.39174 1.0458 0 1.4375l2.125 2.124c0.39174 0.39174 1.0458 0.39174 1.4375 0l0.9687-0.969c0.462 0.244 0.9615 0.438 1.4688 0.594v1.375c0 0.554 0.446 1 1 1h3c0.554 0 1-0.446 1-1v-1.375c0.50733-0.15578 1.0068-0.35047 1.4688-0.59375l0.969 0.969c0.39174 0.39174 1.0458 0.39174 1.4375 0l2.124-2.125c0.39174-0.39174 0.39174-1.0458 0-1.4375l-0.969-0.969c0.244-0.462 0.438-0.962 0.594-1.469h1.375c0.554 0 1-0.446 1-1v-3c0-0.554-0.446-1-1-1h-1.375c-0.156-0.5073-0.35-1.0068-0.594-1.4688l0.969-0.9687c0.39174-0.39174 0.39174-1.0458 0-1.4375l-2.125-2.125c-0.392-0.3917-1.046-0.3917-1.437 0l-0.969 0.9688c-0.462-0.2433-0.962-0.438-1.469-0.5938v-1.375c0-0.554-0.446-1-1-1h-3zm1.5 8c1.3807 0 2.5 1.1193 2.5 2.5s-1.1193 2.5-2.5 2.5-2.5-1.1193-2.5-2.5 1.1193-2.5 2.5-2.5z" display="block" fill="url(#linearGradient3021)"/>
  <path id="path3315" opacity=".05" d="m12 6c-3.3103 0-6 2.6897-6 6s2.6897 6 6 6 6-2.6897 6-6-2.6897-6-6-6zm0 3c1.6569 0 3 1.3431 3 3s-1.3431 3-3 3-3-1.3431-3-3 1.3431-3 3-3z"/>
  <path id="path28" d="m12 5.5c-3.5841 0-6.5 2.9159-6.5 6.5 0 3.584 2.9159 6.5 6.5 6.5s6.5-2.9159 6.5-6.5-2.9159-6.5-6.5-6.5z" stroke="url(#linearGradient3017)" fill="none"/>
  <path id="path3799" opacity=".8" stroke-linejoin="round" style="color:#000000" d="m10.5 2.4688c-0.074 0.3887-0.01 0.9011-0.031 1.3364 0.064 0.7781-0.7705 1.0528-1.3685 1.2166-0.5471 0.3112-1.349 0.6719-1.837 0.0542l-0.8885-0.8885c-0.4317 0.2867-0.7848 0.7633-1.186 1.1235-0.3195 0.3606-0.7556 0.6729-1.0015 1.064 0.407 0.4901 1.0485 0.8376 1.2258 1.477-0.0247 0.7984-0.5402 1.5292-0.8124 2.267-0.5018 0.564-1.315 0.281-1.9743 0.35-0.3446-0.013-0.0704 0.586-0.1578 0.825 0.00121 0.74498-0.0024 1.4901 0.00179 2.235 0.64556 0.06419 1.357-0.15058 1.9455 0.17967 0.55561 0.57921 0.67564 1.4741 1.0068 2.1888 0.04177 0.75274-0.73231 1.1264-1.1493 1.6411-0.21739 0.27241 0.38528 0.50415 0.51592 0.75037l1.5231 1.5231c0.52246-0.30487 0.83973-0.98896 1.4454-1.2049 0.81514-0.10665 1.5137 0.54645 2.2838 0.73398 0.65069 0.45208 0.36353 1.3104 0.42699 1.9752-0.08851 0.41848 0.52786 0.12987 0.76896 0.21456 0.7639-0.0012 1.5279 0.0024 2.2917-0.0018 0.06419-0.64556-0.15058-1.357 0.17967-1.9455 0.57921-0.55561 1.4741-0.67564 2.1888-1.0068 0.75274-0.04177 1.1264 0.73231 1.6411 1.1493 0.27241 0.21739 0.50415-0.38528 0.75037-0.51592l1.5231-1.5231c-0.30487-0.52246-0.98896-0.83973-1.2049-1.4454-0.10665-0.81514 0.54645-1.5137 0.73398-2.2838 0.45208-0.65069 1.3104-0.36353 1.9752-0.42699 0.41848 0.08851 0.12987-0.52786 0.21456-0.76896-0.0012-0.7639 0.0024-1.5279-0.0018-2.2917-0.64556-0.06419-1.357 0.15058-1.9455-0.17967-0.557-0.5783-0.677-1.4732-1.008-2.1879-0.042-0.7527 0.733-1.1264 1.15-1.6411 0.217-0.2724-0.386-0.5042-0.516-0.7504-0.508-0.5077-1.016-1.0154-1.523-1.5231-0.523 0.3049-0.84 0.989-1.446 1.2049-0.815 0.1067-1.514-0.5464-2.284-0.7339-0.65-0.4521-0.363-1.3105-0.427-1.9752 0.089-0.4185-0.528-0.1299-0.769-0.2145h-2.2623z" display="block" stroke="url(#linearGradient3014)" fill="none"/>
  <path id="path3822" opacity=".4" style="color:#000000" d="m15.5 12a3.5 3.5 0 1 1 -7 0 3.5 3.5 0 1 1 7 0z" display="block" stroke="url(#linearGradient3011)" fill="none"/>
  <path id="rect3623-2" opacity=".3" stroke-linejoin="round" style="color:#000000" d="m10.5 1.5c-0.554 0-1 0.446-1 1v1.375c-0.5073 0.1558-1.0068 0.3505-1.4688 0.5938l-0.9687-0.9688c-0.3917-0.3917-1.0458-0.3917-1.4375 0l-2.125 2.125c-0.3917 0.3917-0.3917 1.0458 0 1.4375l0.9688 0.9687c-0.2433 0.462-0.438 0.9615-0.5938 1.4688h-1.375c-0.554 0-1 0.446-1 1v3c0 0.554 0.446 1 1 1h1.375c0.15578 0.50733 0.35047 1.0068 0.59375 1.4688l-0.9688 0.969c-0.39174 0.39174-0.39174 1.0458 0 1.4375l2.125 2.124c0.39174 0.39174 1.0458 0.39174 1.4375 0l0.9687-0.969c0.462 0.244 0.9615 0.438 1.4688 0.594v1.375c0 0.554 0.446 1 1 1h3c0.554 0 1-0.446 1-1v-1.375c0.50733-0.15578 1.0068-0.35047 1.4688-0.59375l0.969 0.969c0.39174 0.39174 1.0458 0.39174 1.4375 0l2.124-2.125c0.39174-0.39174 0.39174-1.0458 0-1.4375l-0.969-0.969c0.244-0.462 0.438-0.962 0.594-1.469h1.375c0.554 0 1-0.446 1-1v-3c0-0.554-0.446-1-1-1h-1.375c-0.156-0.5073-0.35-1.0068-0.594-1.4688l0.969-0.9687c0.39174-0.39174 0.39174-1.0458 0-1.4375l-2.125-2.125c-0.392-0.3917-1.046-0.3917-1.437 0l-0.969 0.9688c-0.462-0.2433-0.962-0.438-1.469-0.5938v-1.375c0-0.554-0.446-1-1-1h-3zm1.5 8c1.3807 0 2.5 1.1193 2.5 2.5s-1.1193 2.5-2.5 2.5-2.5-1.1193-2.5-2.5 1.1193-2.5 2.5-2.5z" display="block" stroke="#000" fill="none"/>
 </g>
</svg>
