<?xml version="1.0" encoding="UTF-8" standalone="no"?>
<!-- Created with Inkscape (http://www.inkscape.org/) -->
<svg id="svg4031" xmlns:rdf="http://www.w3.org/1999/02/22-rdf-syntax-ns#" xmlns="http://www.w3.org/2000/svg" height="48" width="48" version="1.1" xmlns:cc="http://creativecommons.org/ns#" xmlns:xlink="http://www.w3.org/1999/xlink" xmlns:dc="http://purl.org/dc/elements/1.1/">
 <defs id="defs4033">
  <linearGradient id="linearGradient3012" y2="44.341" gradientUnits="userSpaceOnUse" x2="71.204" gradientTransform="matrix(1.0541 0 0 1.0541 -51.611 -2.7279)" y1="6.2376" x1="71.204">
   <stop id="stop4013" stop-color="#fff" offset="0"/>
   <stop id="stop4015" stop-color="#fff" stop-opacity=".23529" offset=".50776"/>
   <stop id="stop4017" stop-color="#fff" stop-opacity=".15686" offset=".83457"/>
   <stop id="stop4019" stop-color="#fff" stop-opacity=".39216" offset="1"/>
  </linearGradient>
  <radialGradient id="radialGradient3015" gradientUnits="userSpaceOnUse" cy="8.4498" cx="3.9722" gradientTransform="matrix(0 2.4988 -2.6435 -6.8014e-8 46.337 -12.18)" r="20">
   <stop id="stop3750-8-9" stop-color="#b082d2" offset="0"/>
   <stop id="stop3752-3-2" stop-color="#b082d2" offset=".26238"/>
   <stop id="stop3754-7-2" stop-color="#9754c8" offset=".70495"/>
   <stop id="stop3756-9-3" stop-color="#7c39b2" offset="1"/>
  </radialGradient>
  <radialGradient id="radialGradient3018" gradientUnits="userSpaceOnUse" cy="186.17" cx="99.157" gradientTransform="matrix(.27083 0 0 .087623 -2.8551 25.187)" r="62.769">
   <stop id="stop3822-2-6-3" stop-color="#3d3d3d" offset="0"/>
   <stop id="stop3864-8-7-7" stop-color="#686868" stop-opacity=".49804" offset=".5"/>
   <stop id="stop3824-1-2-5" stop-color="#686868" stop-opacity="0" offset="1"/>
  </radialGradient>
 </defs>
 <metadata id="metadata4036">
  <rdf:RDF>
   <cc:Work rdf:about="">
    <dc:format>image/svg+xml</dc:format>
    <dc:type rdf:resource="http://purl.org/dc/dcmitype/StillImage"/>
    <dc:title/>
   </cc:Work>
  </rdf:RDF>
 </metadata>
 <path id="path3818-0-5" fill="url(#radialGradient3018)" d="m41 41.5a17 5.5 0 1 1 -34 0 17 5.5 0 1 1 34 0z"/>
 <path id="path2555" style="color:#000000" d="m24 3.5c-11.311 0-20.5 9.189-20.5 20.5s9.189 20.5 20.5 20.5 20.5-9.189 20.5-20.5-9.189-20.5-20.5-20.5z" fill="url(#radialGradient3015)"/>
 <path id="path8655" opacity=".5" stroke-linejoin="round" style="color:#000000" d="m43.5 23.999c0 10.77-8.7311 19.501-19.5 19.501-10.77 0-19.5-8.7309-19.5-19.501 0-10.769 8.7306-19.499 19.5-19.499s19.5 8.73 19.5 19.499v0z" stroke="url(#linearGradient3012)" stroke-linecap="round" fill="none"/>
 <path id="path2555-6" opacity=".5" stroke-linejoin="round" style="color:#000000" d="m24 3.5c-11.311 0-20.5 9.1888-20.5 20.5s9.1888 20.5 20.5 20.5 20.5-9.1888 20.5-20.5-9.1888-20.5-20.5-20.5z" fill-opacity="0" stroke="#42007d" stroke-linecap="round"/>
 <g id="g4920" stroke-linejoin="round" opacity=".15" transform="matrix(.11866 0 0 .12586 -27.425 -18.837)" stroke="#000" stroke-linecap="round" fill="none">
  <path id="path4922" d="m532.65 316.29v47.093h13.422l-0.49711-32.965 11.433-0.52326c12.109 7.9879 6.627 21.026 4.9711 32.965h9.9422c4.6883-17.569 12.151-35.746-13.919-46.57h-25.353z" stroke-width="16.366"/>
  <path id="path4924" d="m517 316.29v47.093h-14.913v-47.093h14.913z" stroke-width="16.366"/>
  <path id="path4926" d="m390.88 294.69 9.802-9.9418c45.625 37.666 33.001 77.813 6.1908 79.011-29.844 0.17441-35.598-39.942-2.0636-46.57-2.2924-7.6456-8.2783-15.773-13.929-22.5z" stroke-width="16.366"/>
  <path id="path4928" d="m317.07 362.41c1.3144 7.2364 7.1675 16.304 13.924 22.891l-10.314 10.682c-59.796-56.233-14.988-81.189-6.1886-79.614 39.982 3.424 24.022 51.972 2.5786 46.04z" stroke-width="16.366"/>
  <path id="path4930" d="m367.89 316.74v47.093h-15.36v-47.093h15.36z" stroke-width="16.366"/>
  <ellipse id="ellipse4932" rx="5.3387" transform="matrix(1.3967 0 0 1.4702 129.28 271.44)" ry="4.9828" cy="21.665" cx="165.5" stroke-width="11.421"/>
  <path id="path4934" d="m460.39 392.69-10.841-9.9418c5.3825-6.7536 12.98-12.625 15.723-22.054-32.279-3.8788-34.517-40.05-1.2687-47.016 41.077 4.5114 27.253 56.566-3.6136 79.011z" stroke-width="16.366"/>
  <ellipse id="ellipse4936" rx="5.3387" transform="matrix(1.3967 0 0 1.4702 278.83 271.44)" ry="4.9828" cy="21.665" cx="165.5" stroke-width="11.421"/>
 </g>
 <g id="g4938" stroke-linejoin="round" opacity=".15" transform="matrix(.11866 0 0 .12586 -27.425 -18.837)" stroke="#000" stroke-linecap="round" fill="none">
  <path id="path4940" d="m532.65 316.29v47.093h13.422l-0.49711-32.965 11.433-0.52326c12.109 7.9879 6.627 21.026 4.9711 32.965h9.9422c4.6883-17.569 12.151-35.746-13.919-46.57h-25.353z" stroke-width="8.1828"/>
  <path id="path4942" d="m517 316.29v47.093h-14.913v-47.093h14.913z" stroke-width="8.1828"/>
  <path id="path4944" d="m390.88 294.69 9.802-9.9418c45.625 37.666 33.001 77.813 6.1908 79.011-29.844 0.17441-35.598-39.942-2.0636-46.57-2.2924-7.6456-8.2783-15.773-13.929-22.5z" stroke-width="8.1828"/>
  <path id="path4946" d="m317.07 362.41c1.3144 7.2364 7.1675 16.304 13.924 22.891l-10.314 10.682c-59.796-56.233-14.988-81.189-6.1886-79.614 39.982 3.424 24.022 51.972 2.5786 46.04z" stroke-width="8.1828"/>
  <path id="path4948" d="m367.89 316.74v47.093h-15.36v-47.093h15.36z" stroke-width="8.1828"/>
  <ellipse id="ellipse4950" rx="5.3387" ry="4.9828" transform="matrix(1.3967 0 0 1.4702 129.28 271.44)" cy="21.665" cx="165.5" stroke-width="5.7104"/>
  <path id="path4952" d="m460.39 392.69-10.841-9.9418c5.3825-6.7536 12.98-12.625 15.723-22.054-32.279-3.8788-34.517-40.05-1.2687-47.016 41.077 4.5114 27.253 56.566-3.6136 79.011z" stroke-width="8.1828"/>
  <ellipse id="ellipse4954" rx="5.3387" ry="4.9828" transform="matrix(1.3967 0 0 1.4702 278.83 271.44)" cy="21.665" cx="165.5" stroke-width="5.7104"/>
 </g>
 <g id="g3886" fill="#fff" transform="matrix(.11866 0 0 .12586 -27.425 -18.837)">
  <path id="path3888" d="m532.65 316.29v47.093h13.422l-0.49711-32.965 11.433-0.52326c12.109 7.9879 6.627 21.026 4.9711 32.965h9.9422c4.6883-17.569 12.151-35.746-13.919-46.57h-25.353z" fill-rule="evenodd"/>
  <path id="path3890" d="m517 316.29v47.093h-14.913v-47.093h14.913z" fill-rule="evenodd"/>
  <path id="path3892" d="m390.88 294.69 9.802-9.9418c45.625 37.666 33.001 77.813 6.1908 79.011-29.844 0.17441-35.598-39.942-2.0636-46.57-2.2924-7.6456-8.2783-15.773-13.929-22.5z" fill-rule="evenodd"/>
  <path id="path3894" d="m317.07 362.41c1.3144 7.2364 7.1675 16.304 13.924 22.891l-10.314 10.682c-59.796-56.233-14.988-81.189-6.1886-79.614 39.982 3.424 24.022 51.972 2.5786 46.04z" fill-rule="evenodd"/>
  <path id="path3896" d="m367.89 316.74v47.093h-15.36v-47.093h15.36z" fill-rule="evenodd"/>
  <ellipse id="path3898" rx="5.3387" ry="4.9828" transform="matrix(1.3967 0 0 1.4702 129.28 271.44)" cy="21.665" cx="165.5"/>
  <path id="path3900" d="m460.39 392.69-10.841-9.9418c5.3825-6.7536 12.98-12.625 15.723-22.054-32.279-3.8788-34.517-40.05-1.2687-47.016 41.077 4.5114 27.253 56.566-3.6136 79.011z" fill-rule="evenodd"/>
  <ellipse id="path3902" rx="5.3387" ry="4.9828" transform="matrix(1.3967 0 0 1.4702 278.83 271.44)" cy="21.665" cx="165.5"/>
 </g>
</svg>
