<?xml version="1.0" encoding="UTF-8" standalone="no"?>
<!-- Created with Inkscape (http://www.inkscape.org/) -->

<svg
   xmlns:dc="http://purl.org/dc/elements/1.1/"
   xmlns:cc="http://creativecommons.org/ns#"
   xmlns:rdf="http://www.w3.org/1999/02/22-rdf-syntax-ns#"
   xmlns:svg="http://www.w3.org/2000/svg"
   xmlns="http://www.w3.org/2000/svg"
   xmlns:xlink="http://www.w3.org/1999/xlink"
   xmlns:sodipodi="http://sodipodi.sourceforge.net/DTD/sodipodi-0.dtd"
   xmlns:inkscape="http://www.inkscape.org/namespaces/inkscape"
   version="1.1"
   width="48"
   height="48"
   id="svg4951"
   inkscape:version="0.91 r"
   sodipodi:docname="playonlinux.svg">
  <sodipodi:namedview
     pagecolor="#ffffff"
     bordercolor="#666666"
     borderopacity="1"
     objecttolerance="10"
     gridtolerance="10"
     guidetolerance="10"
     inkscape:pageopacity="0"
     inkscape:pageshadow="2"
     inkscape:window-width="1600"
     inkscape:window-height="842"
     id="namedview154"
     showgrid="false"
     inkscape:zoom="1"
     inkscape:cx="20.139195"
     inkscape:cy="24.787719"
     inkscape:window-x="-4"
     inkscape:window-y="32"
     inkscape:window-maximized="1"
     inkscape:current-layer="svg4951" />
  <defs
     id="defs4953">
    <linearGradient
       x1="38.851257"
       y1="41.608219"
       x2="34.130882"
       y2="37.809635"
       id="linearGradient4761"
       xlink:href="#linearGradient6455-7-3"
       gradientUnits="userSpaceOnUse" />
    <linearGradient
       id="linearGradient6455-7-3">
      <stop
         id="stop6457-5-1"
         style="stop-color:#fbac9b;stop-opacity:1"
         offset="0" />
      <stop
         id="stop6459-8-9"
         style="stop-color:#fcfafc;stop-opacity:1"
         offset="1" />
    </linearGradient>
    <linearGradient
       x1="38.851257"
       y1="41.608219"
       x2="34.130882"
       y2="37.809635"
       id="linearGradient4763"
       xlink:href="#linearGradient6413-0-0"
       gradientUnits="userSpaceOnUse" />
    <linearGradient
       id="linearGradient6413-0-0">
      <stop
         id="stop6415-1-7"
         style="stop-color:#feffff;stop-opacity:1"
         offset="0" />
      <stop
         id="stop6417-4-9"
         style="stop-color:#fe70ca;stop-opacity:1"
         offset="1" />
    </linearGradient>
    <radialGradient
       cx="36.49107"
       cy="39.708927"
       r="3.1589286"
       fx="36.49107"
       fy="39.708927"
       id="radialGradient4765"
       xlink:href="#linearGradient6303-33-0-2"
       gradientUnits="userSpaceOnUse" />
    <linearGradient
       id="linearGradient6303-33-0-2">
      <stop
         id="stop6305-1-0-2"
         style="stop-color:#ffffff;stop-opacity:1"
         offset="0" />
      <stop
         id="stop6307-5-0-6"
         style="stop-color:#ffffff;stop-opacity:0"
         offset="1" />
    </linearGradient>
    <radialGradient
       cx="36.49107"
       cy="39.708927"
       r="3.1589286"
       fx="36.49107"
       fy="39.708927"
       id="radialGradient4767"
       xlink:href="#linearGradient6303-3-2-1"
       gradientUnits="userSpaceOnUse" />
    <linearGradient
       id="linearGradient6303-3-2-1">
      <stop
         id="stop6305-3-0-9"
         style="stop-color:#ffffff;stop-opacity:1"
         offset="0" />
      <stop
         id="stop6307-1-0-1"
         style="stop-color:#ffffff;stop-opacity:0"
         offset="1" />
    </linearGradient>
    <radialGradient
       cx="36.49107"
       cy="39.708927"
       r="3.1589286"
       fx="36.49107"
       fy="39.708927"
       id="radialGradient4769"
       xlink:href="#linearGradient6303-4-8"
       gradientUnits="userSpaceOnUse" />
    <linearGradient
       id="linearGradient6303-4-8">
      <stop
         id="stop6305-33-3"
         style="stop-color:#ffffff;stop-opacity:1"
         offset="0" />
      <stop
         id="stop6307-9-3"
         style="stop-color:#ffffff;stop-opacity:0"
         offset="1" />
    </linearGradient>
    <radialGradient
       cx="32.372566"
       cy="31.405056"
       r="3.857446"
       fx="32.372566"
       fy="31.405056"
       id="radialGradient4771"
       xlink:href="#linearGradient6088-6-1-0"
       gradientUnits="userSpaceOnUse"
       gradientTransform="matrix(2.0664963,0,0,2.0664963,-34.525221,-33.493375)" />
    <linearGradient
       id="linearGradient6088-6-1-0">
      <stop
         id="stop6090-2-0-4"
         style="stop-color:#ff54d2;stop-opacity:0"
         offset="0" />
      <stop
         id="stop6257-4-6-1"
         style="stop-color:#ff54d2;stop-opacity:0"
         offset="0.32368398" />
      <stop
         id="stop6255-3-6-7"
         style="stop-color:#ff54d2;stop-opacity:0.2521739"
         offset="0.56140333" />
      <stop
         id="stop6092-9-6-8"
         style="stop-color:#ff54d2;stop-opacity:0.47826087"
         offset="1" />
    </linearGradient>
    <radialGradient
       cx="32.372566"
       cy="31.405056"
       r="3.857446"
       fx="32.372566"
       fy="31.405056"
       id="radialGradient4773"
       xlink:href="#linearGradient6191-8-3-4"
       gradientUnits="userSpaceOnUse"
       gradientTransform="matrix(2.0676498,0.55402509,-0.5348486,1.9960821,-17.765612,-49.217228)" />
    <linearGradient
       id="linearGradient6191-8-3-4">
      <stop
         id="stop6193-75-7-6"
         style="stop-color:#ffffff;stop-opacity:0"
         offset="0" />
      <stop
         id="stop6197-3-4-1"
         style="stop-color:#ffffff;stop-opacity:0"
         offset="0.40531859" />
      <stop
         id="stop6195-7-2-5"
         style="stop-color:#ffffff;stop-opacity:0.47826087"
         offset="1" />
    </linearGradient>
    <radialGradient
       cx="32.372566"
       cy="31.405056"
       r="3.857446"
       fx="32.372566"
       fy="31.405056"
       id="radialGradient4775"
       xlink:href="#linearGradient6191-7-9-4"
       gradientUnits="userSpaceOnUse"
       gradientTransform="matrix(2.0676498,0.55402509,-0.5348486,1.9960821,-17.765612,-49.217228)" />
    <linearGradient
       id="linearGradient6191-7-9-4">
      <stop
         id="stop6193-7-3-6"
         style="stop-color:#ffffff;stop-opacity:0"
         offset="0" />
      <stop
         id="stop6197-2-2-0"
         style="stop-color:#ffffff;stop-opacity:0"
         offset="0.40531859" />
      <stop
         id="stop6195-2-1-9"
         style="stop-color:#ffffff;stop-opacity:0.47826087"
         offset="1" />
    </linearGradient>
    <radialGradient
       cx="32.372566"
       cy="31.405056"
       r="3.857446"
       fx="32.372566"
       fy="31.405056"
       id="radialGradient4777"
       xlink:href="#linearGradient6191-9-9"
       gradientUnits="userSpaceOnUse"
       gradientTransform="matrix(2.0676498,0.55402509,-0.5348486,1.9960821,-17.765612,-49.217228)" />
    <linearGradient
       id="linearGradient6191-9-9">
      <stop
         id="stop6193-8-1"
         style="stop-color:#ffffff;stop-opacity:0"
         offset="0" />
      <stop
         id="stop6197-8-8"
         style="stop-color:#ffffff;stop-opacity:0"
         offset="0.40531859" />
      <stop
         id="stop6195-9-3"
         style="stop-color:#ffffff;stop-opacity:0.47826087"
         offset="1" />
    </linearGradient>
    <linearGradient
       x1="68.313301"
       y1="52.925316"
       x2="68.313301"
       y2="65.922028"
       id="linearGradient4730"
       xlink:href="#linearGradient3990-3-1-7"
       gradientUnits="userSpaceOnUse"
       gradientTransform="matrix(0.11534799,0,0,0.0865106,16.28139,17.444973)" />
    <linearGradient
       id="linearGradient3990-3-1-7">
      <stop
         id="stop3992-0-0-1"
         style="stop-color:#ffffff;stop-opacity:1"
         offset="0" />
      <stop
         id="stop3994-2-1-8"
         style="stop-color:#ffffff;stop-opacity:0"
         offset="1" />
    </linearGradient>
    <linearGradient
       x1="92.696327"
       y1="16.554602"
       x2="92.696327"
       y2="48.983677"
       id="linearGradient4779"
       xlink:href="#linearGradient4316-4-6-6-4"
       gradientUnits="userSpaceOnUse" />
    <linearGradient
       id="linearGradient4316-4-6-6-4">
      <stop
         id="stop4318-4-4-6-5"
         style="stop-color:#ffffff;stop-opacity:1"
         offset="0" />
      <stop
         id="stop4320-2-2-6-59"
         style="stop-color:#ffffff;stop-opacity:0.23529412"
         offset="0.33799788" />
      <stop
         id="stop4322-4-5-5-0"
         style="stop-color:#ffffff;stop-opacity:0.15686275"
         offset="0.61996669" />
      <stop
         id="stop4324-4-1-5-5"
         style="stop-color:#ffffff;stop-opacity:0.39215687"
         offset="1" />
    </linearGradient>
    <radialGradient
       cx="32.372566"
       cy="31.405056"
       r="3.857446"
       fx="32.372566"
       fy="31.405056"
       id="radialGradient4781"
       xlink:href="#linearGradient6088-74-4"
       gradientUnits="userSpaceOnUse"
       gradientTransform="matrix(2.0664963,0,0,2.0664963,-34.525221,-33.493375)" />
    <linearGradient
       id="linearGradient6088-74-4">
      <stop
         id="stop6090-5-66"
         style="stop-color:#ff54d2;stop-opacity:0"
         offset="0" />
      <stop
         id="stop6257-5-4"
         style="stop-color:#f62b68;stop-opacity:1"
         offset="0.32368398" />
      <stop
         id="stop6255-6-7"
         style="stop-color:#ff0105;stop-opacity:1"
         offset="0.56140333" />
      <stop
         id="stop6092-0-22"
         style="stop-color:#ff54d2;stop-opacity:0.47826087"
         offset="1" />
    </linearGradient>
    <linearGradient
       x1="92.696327"
       y1="16.554602"
       x2="92.696327"
       y2="48.983677"
       id="linearGradient4783"
       xlink:href="#linearGradient4316-4-0-7"
       gradientUnits="userSpaceOnUse" />
    <linearGradient
       id="linearGradient4316-4-0-7">
      <stop
         id="stop4318-4-5-3"
         style="stop-color:#ffffff;stop-opacity:1"
         offset="0" />
      <stop
         id="stop4320-2-9-4"
         style="stop-color:#ffffff;stop-opacity:0.23529412"
         offset="0.33799788" />
      <stop
         id="stop4322-4-1-3"
         style="stop-color:#ffffff;stop-opacity:0.15686275"
         offset="0.61996669" />
      <stop
         id="stop4324-4-8-66"
         style="stop-color:#ffffff;stop-opacity:0.39215687"
         offset="1" />
    </linearGradient>
    <radialGradient
       cx="95.838364"
       cy="95.388451"
       r="9.4981718"
       fx="95.838364"
       fy="95.388451"
       id="radialGradient4738"
       xlink:href="#linearGradient4278-3-5"
       gradientUnits="userSpaceOnUse"
       gradientTransform="matrix(0.40504519,-6.0397343e-8,5.6748136e-8,0.38056881,-14.881685,-12.451151)" />
    <linearGradient
       id="linearGradient4278-3-5">
      <stop
         id="stop4280-6-90"
         style="stop-color:#000000;stop-opacity:0"
         offset="0" />
      <stop
         id="stop4286-1-9"
         style="stop-color:#000000;stop-opacity:0"
         offset="0.5" />
      <stop
         id="stop4282-24-4"
         style="stop-color:#000000;stop-opacity:1"
         offset="1" />
    </linearGradient>
    <radialGradient
       cx="23.896"
       cy="3.99"
       r="20.396999"
       id="radialGradient4741"
       xlink:href="#linearGradient2867-449-88-871-390-598-476-591-434-148-57-177-691-4-22"
       gradientUnits="userSpaceOnUse"
       gradientTransform="matrix(0,0.41038782,-0.54170722,0,26.16143,10.43124)" />
    <linearGradient
       id="linearGradient2867-449-88-871-390-598-476-591-434-148-57-177-691-4-22">
      <stop
         id="stop7191-4-6"
         style="stop-color:#612f91;stop-opacity:1"
         offset="0" />
      <stop
         id="stop7197-2-8"
         style="stop-color:#1a4aa2;stop-opacity:1"
         offset="1" />
    </linearGradient>
    <linearGradient
       x1="7.0776"
       y1="3.0816"
       x2="7.0776"
       y2="45.368999"
       id="linearGradient4743"
       xlink:href="#linearGradient3087-408-5-3"
       gradientUnits="userSpaceOnUse"
       gradientTransform="matrix(0.17195169,0,0,0.17195091,19.87316,19.873055)" />
    <linearGradient
       x1="7.0776"
       y1="3.0816"
       x2="7.0776"
       y2="45.368999"
       id="linearGradient3087-408-5-3"
       gradientUnits="userSpaceOnUse"
       gradientTransform="matrix(0.22110724,0,0,0.22110728,6.6934256,6.693263)">
      <stop
         id="stop7201-5-71"
         style="stop-color:#170418;stop-opacity:1"
         offset="0" />
      <stop
         id="stop7203-2-8"
         style="stop-color:#50386b;stop-opacity:1"
         offset="1" />
    </linearGradient>
    <radialGradient
       cx="31.999998"
       cy="21.239277"
       r="10.498171"
       fx="31.999998"
       fy="21.239277"
       id="radialGradient4748"
       xlink:href="#linearGradient6042-1-7"
       gradientUnits="userSpaceOnUse"
       gradientTransform="matrix(0,1.4370509,-3.3103161,0,94.30873,-29.673199)" />
    <linearGradient
       id="linearGradient6042-1-7">
      <stop
         id="stop6044-9-6"
         style="stop-color:#07132d;stop-opacity:1"
         offset="0" />
      <stop
         id="stop6046-9-5"
         style="stop-color:#425479;stop-opacity:1"
         offset="1" />
    </linearGradient>
    <radialGradient
       cx="91.349998"
       cy="16.447752"
       r="15.639286"
       fx="91.349998"
       fy="16.447752"
       id="radialGradient4785"
       xlink:href="#linearGradient4507-6-5"
       gradientUnits="userSpaceOnUse"
       gradientTransform="matrix(0,1.9804002,-1.9804002,0,123.92313,-164.4618)" />
    <linearGradient
       id="linearGradient4507-6-5">
      <stop
         id="stop4509-3-8"
         style="stop-color:#2d3955;stop-opacity:1"
         offset="0" />
      <stop
         id="stop5959-4-45"
         style="stop-color:#2b3853;stop-opacity:1"
         offset="0.72468865" />
      <stop
         id="stop5961-1-7"
         style="stop-color:#192640;stop-opacity:1"
         offset="0.75" />
      <stop
         id="stop4511-1-0"
         style="stop-color:#08142e;stop-opacity:1"
         offset="1" />
    </linearGradient>
    <linearGradient
       x1="92.696327"
       y1="16.554602"
       x2="92.696327"
       y2="48.983677"
       id="linearGradient4787"
       xlink:href="#linearGradient4316-5-3"
       gradientUnits="userSpaceOnUse" />
    <linearGradient
       id="linearGradient4316-5-3">
      <stop
         id="stop4318-1-6"
         style="stop-color:#ffffff;stop-opacity:1"
         offset="0" />
      <stop
         id="stop4320-9-8"
         style="stop-color:#ffffff;stop-opacity:0.23529412"
         offset="0.33799788" />
      <stop
         id="stop4322-42-31"
         style="stop-color:#ffffff;stop-opacity:0.15686275"
         offset="0.61996669" />
      <stop
         id="stop4324-9-9"
         style="stop-color:#ffffff;stop-opacity:0.39215687"
         offset="1" />
    </linearGradient>
    <linearGradient
       x1="91.566116"
       y1="16.542858"
       x2="91.566116"
       y2="48.631081"
       id="linearGradient4789"
       xlink:href="#linearGradient4220-7-2"
       gradientUnits="userSpaceOnUse" />
    <linearGradient
       id="linearGradient4220-7-2">
      <stop
         id="stop4222-7-5"
         style="stop-color:#7a8498;stop-opacity:1"
         offset="0" />
      <stop
         id="stop4224-0-5"
         style="stop-color:#34405c;stop-opacity:1"
         offset="1" />
    </linearGradient>
    <linearGradient
       x1="51.199997"
       y1="8.1142893"
       x2="51.199997"
       y2="56.114563"
       id="linearGradient4756"
       xlink:href="#linearGradient4164-9"
       gradientUnits="userSpaceOnUse"
       gradientTransform="matrix(0.66665978,0,0,0.66665668,-10.209335,2.6672249)" />
    <linearGradient
       id="linearGradient4164-9">
      <stop
         id="stop4166-3"
         style="stop-color:#b6b6b6;stop-opacity:1"
         offset="0" />
      <stop
         id="stop4216-6"
         style="stop-color:#a4a4a4;stop-opacity:1"
         offset="0.33095336" />
      <stop
         id="stop4168-0"
         style="stop-color:#c5c5c5;stop-opacity:1"
         offset="1" />
    </linearGradient>
    <linearGradient
       x1="71.204407"
       y1="15.369057"
       x2="71.204407"
       y2="40.495617"
       id="linearGradient3177"
       xlink:href="#linearGradient4806-2"
       gradientUnits="userSpaceOnUse"
       gradientTransform="matrix(1.6169806,0,0,1.6169806,-92.707374,-21.060237)" />
    <linearGradient
       id="linearGradient4806-2">
      <stop
         id="stop4808-4"
         style="stop-color:#ffffff;stop-opacity:1"
         offset="0" />
      <stop
         id="stop4810-0"
         style="stop-color:#ffffff;stop-opacity:0.23529412"
         offset="0.42447853" />
      <stop
         id="stop4812-8"
         style="stop-color:#ffffff;stop-opacity:0.15686275"
         offset="0.82089913" />
      <stop
         id="stop4814-0"
         style="stop-color:#ffffff;stop-opacity:0.39215687"
         offset="1" />
    </linearGradient>
    <radialGradient
       cx="23.896"
       cy="3.99"
       r="20.396999"
       fx="23.896"
       fy="3.99"
       id="radialGradient4201"
       xlink:href="#radialGradient3093-0-3-6-6"
       gradientUnits="userSpaceOnUse"
       gradientTransform="matrix(0,2.8885219,-3.8127977,0,39.21344,-65.949504)" />
    <radialGradient
       cx="23.896"
       cy="3.99"
       r="20.396999"
       id="radialGradient3093-0-3-6-6"
       gradientUnits="userSpaceOnUse"
       gradientTransform="matrix(0,1.2316483,-1.625754,0,18.486966,-28.721977)">
      <stop
         id="stop3244-9-33-7-0-9"
         style="stop-color:#ffffff;stop-opacity:1"
         offset="0" />
      <stop
         id="stop3246-3-5-0-8-5"
         style="stop-color:#dddddd;stop-opacity:1"
         offset="0.26238" />
      <stop
         id="stop3248-1-7-8-8-1"
         style="stop-color:#abacae;stop-opacity:1"
         offset="0.66093999" />
      <stop
         id="stop3250-9-3-0-5-1"
         style="stop-color:#89898b;stop-opacity:1"
         offset="1" />
    </radialGradient>
    <linearGradient
       id="linearGradient3820-7-2-1">
      <stop
         id="stop3822-2-6-3"
         style="stop-color:#3d3d3d;stop-opacity:1"
         offset="0" />
      <stop
         id="stop3864-8-7-7"
         style="stop-color:#686868;stop-opacity:0.49803922"
         offset="0.5" />
      <stop
         id="stop3824-1-2-5"
         style="stop-color:#686868;stop-opacity:0"
         offset="1" />
    </linearGradient>
    <radialGradient
       cx="99.157013"
       cy="186.17059"
       r="62.769119"
       fx="99.157013"
       fy="186.17059"
       id="radialGradient4949"
       xlink:href="#linearGradient3820-7-2-1"
       gradientUnits="userSpaceOnUse"
       gradientTransform="matrix(0.27083381,0,0,0.08762273,-2.85507,25.187228)" />
    <linearGradient
       id="linearGradient8838">
      <stop
         offset="0"
         style="stop-color:#000000;stop-opacity:1"
         id="stop8840" />
      <stop
         offset="1"
         style="stop-color:#000000;stop-opacity:0"
         id="stop8842" />
    </linearGradient>
    <linearGradient
       id="linearGradient4422">
      <stop
         id="stop4424"
         style="stop-color:#e4e4e4;stop-opacity:1;"
         offset="0" />
      <stop
         id="stop4426"
         style="stop-color:#d2d2d3;stop-opacity:1;"
         offset="0.37188172" />
      <stop
         id="stop4428"
         style="stop-color:#ababac;stop-opacity:1;"
         offset="0.81009638" />
      <stop
         id="stop4430"
         style="stop-color:#888889;stop-opacity:1;"
         offset="1" />
    </linearGradient>
    <linearGradient
       id="linearGradient5873">
      <stop
         style="stop-color:#8b8b8b;stop-opacity:1;"
         offset="0"
         id="stop5875" />
      <stop
         style="stop-color:#c0c0c0;stop-opacity:1;"
         offset="1"
         id="stop5877" />
    </linearGradient>
    <linearGradient
       id="linearGradient3162">
      <stop
         style="stop-color:#f9f9f9;stop-opacity:1;"
         offset="0"
         id="stop3164" />
      <stop
         style="stop-color:#d4d4d4;stop-opacity:1"
         offset="1"
         id="stop3166" />
    </linearGradient>
    <linearGradient
       id="linearGradient4436">
      <stop
         style="stop-color:#efefef;stop-opacity:1;"
         offset="0"
         id="stop4438" />
      <stop
         style="stop-color:#ffffff;stop-opacity:1;"
         offset="1"
         id="stop4440" />
    </linearGradient>
    <linearGradient
       id="linearGradient4965"
       inkscape:collect="always">
      <stop
         id="stop4967"
         offset="0"
         style="stop-color:#000000;stop-opacity:1;" />
      <stop
         id="stop4969"
         offset="1"
         style="stop-color:#000000;stop-opacity:0" />
    </linearGradient>
    <linearGradient
       inkscape:collect="always"
       xlink:href="#linearGradient4644-104-3-3-6-2-3-4"
       id="linearGradient10060"
       gradientUnits="userSpaceOnUse"
       gradientTransform="matrix(1.3333333,0,0,1.1052632,-8.0000008,-2.526316)"
       x1="24.25"
       y1="29.5"
       x2="24.25"
       y2="18.454639" />
    <linearGradient
       id="linearGradient4644-104-3-3-6-2-3-4">
      <stop
         offset="0"
         style="stop-color:#ff4035;stop-opacity:1;"
         id="stop5237-6-5-1-7-5-2" />
      <stop
         offset="1"
         style="stop-color:#dc311a;stop-opacity:1;"
         id="stop5239-4-6-4-8-4-8" />
    </linearGradient>
    <radialGradient
       inkscape:collect="always"
       xlink:href="#linearGradient3820-7-2-1"
       id="radialGradient3302"
       gradientUnits="userSpaceOnUse"
       gradientTransform="matrix(0.27083381,0,0,0.08762273,-2.85507,25.187228)"
       cx="99.157013"
       cy="186.17059"
       fx="99.157013"
       fy="186.17059"
       r="62.769119" />
    <radialGradient
       inkscape:collect="always"
       xlink:href="#linearGradient4422"
       id="radialGradient3392"
       gradientUnits="userSpaceOnUse"
       gradientTransform="matrix(0,2.4988347,-2.6434689,-6.8014435e-8,104.09953,-11.248822)"
       cx="5.3215203"
       cy="8.4497671"
       fx="5.3215203"
       fy="8.4497671"
       r="19.99999" />
    <linearGradient
       inkscape:collect="always"
       xlink:href="#linearGradient5873"
       id="linearGradient3394"
       gradientUnits="userSpaceOnUse"
       gradientTransform="translate(57.762712,0.93164569)"
       x1="23.75"
       y1="44.25"
       x2="24.000118"
       y2="1.1171311" />
    <radialGradient
       inkscape:collect="always"
       xlink:href="#linearGradient3162"
       id="radialGradient3396"
       gradientUnits="userSpaceOnUse"
       gradientTransform="matrix(9.7678889e-8,2.0000001,-2.7333333,1.3349447e-7,67.82222,-34.333337)"
       cx="25"
       cy="15.666667"
       fx="25"
       fy="15.666667"
       r="10" />
    <linearGradient
       inkscape:collect="always"
       xlink:href="#linearGradient4436"
       id="linearGradient3398"
       gradientUnits="userSpaceOnUse"
       x1="24.777349"
       y1="24.616444"
       x2="24.777349"
       y2="31.493454" />
    <linearGradient
       inkscape:collect="always"
       xlink:href="#linearGradient4965"
       id="linearGradient3400"
       gradientUnits="userSpaceOnUse"
       x1="24.777349"
       y1="18.226145"
       x2="24.777349"
       y2="22.31111" />
    <linearGradient
       inkscape:collect="always"
       xlink:href="#linearGradient4644-104-3-3-6-2-3-4"
       id="linearGradient3402"
       gradientUnits="userSpaceOnUse"
       gradientTransform="matrix(1.3333333,0,0,1.1052632,49.762711,-1.5946703)"
       x1="24.25"
       y1="29.5"
       x2="24.25"
       y2="18.454639" />
    <radialGradient
       inkscape:collect="always"
       xlink:href="#linearGradient3765"
       id="radialGradient3037"
       gradientUnits="userSpaceOnUse"
       gradientTransform="matrix(-1.438655,3.8089076e-8,-2.8327727e-8,-1.069961,45.16851,-14.595749)"
       cx="14.891734"
       cy="-17.680855"
       fx="14.891734"
       fy="-17.680855"
       r="25.570608" />
    <linearGradient
       id="linearGradient3765">
      <stop
         style="stop-color:#ffffff;stop-opacity:1;"
         offset="0"
         id="stop3767" />
      <stop
         style="stop-color:#e4e4e4;stop-opacity:1;"
         offset="1"
         id="stop3769" />
    </linearGradient>
    <linearGradient
       inkscape:collect="always"
       xlink:href="#linearGradient3775"
       id="linearGradient3039"
       gradientUnits="userSpaceOnUse"
       x1="15.123692"
       y1="-18.801283"
       x2="15.123692"
       y2="32.56842"
       gradientTransform="matrix(0.76417715,0,0,0.76417715,12.376786,18.777865)" />
    <linearGradient
       id="linearGradient3775">
      <stop
         style="stop-color:#ffffff;stop-opacity:0.58823532;"
         offset="0"
         id="stop3777" />
      <stop
         style="stop-color:#ffffff;stop-opacity:1;"
         offset="1"
         id="stop3779" />
    </linearGradient>
    <linearGradient
       id="linearGradient3772-6">
      <stop
         id="stop3774-6"
         style="stop-color:#b4b4b4;stop-opacity:1"
         offset="0" />
      <stop
         id="stop3776-4"
         style="stop-color:#969696;stop-opacity:1"
         offset="1" />
    </linearGradient>
    <clipPath
       id="clipPath-654281350">
      <g
         transform="translate(0,-1004.3622)"
         id="g17">
        <path
           style="fill:#1890d0"
           inkscape:connector-curvature="0"
           d="m -24,13 c 0,1.105 -0.672,2 -1.5,2 -0.828,0 -1.5,-0.895 -1.5,-2 0,-1.105 0.672,-2 1.5,-2 0.828,0 1.5,0.895 1.5,2 z"
           transform="matrix(15.333333,0,0,11.5,414.99999,878.8622)"
           id="path19" />
      </g>
    </clipPath>
  </defs>
  <metadata
     id="metadata4956">
    <rdf:RDF>
      <cc:Work
         rdf:about="">
        <dc:format>image/svg+xml</dc:format>
        <dc:type
           rdf:resource="http://purl.org/dc/dcmitype/StillImage" />
        <dc:title />
      </cc:Work>
    </rdf:RDF>
  </metadata>
  <path
     style="fill:url(#radialGradient3302);fill-opacity:1;stroke:none"
     id="path3818-0-5"
     inkscape:connector-curvature="0"
     d="m 41,41.5 a 17,5.4999999 0 0 1 -34,0 17,5.4999999 0 1 1 34,0 z" />
  <circle
     r="20.525774"
     cy="24.000006"
     cx="24"
     style="fill:url(#radialGradient3037);fill-opacity:1;stroke:none"
     id="path2985" />
  <circle
     r="20.525774"
     cy="24.000006"
     cx="24"
     id="path3755"
     style="fill:none;stroke:#828282;stroke-width:0.94845384;stroke-miterlimit:4;stroke-dasharray:none;stroke-opacity:0.58823529" />
  <circle
     r="19.540474"
     cy="23.999889"
     cx="24"
     style="fill:none;stroke:url(#linearGradient3039);stroke-width:0.93261218;stroke-miterlimit:4;stroke-dasharray:none;stroke-opacity:0.58823529"
     id="path3773" />
  <g
     transform="matrix(0.999837,0,0,1,0.0039116,0)"
     id="g4342"
     style="fill:none;stroke:#ffffff;stroke-opacity:1;stroke-width:2.00016302;stroke-miterlimit:4;stroke-dasharray:none;stroke-linejoin:round;stroke-linecap:round">
    <path
       style="fill:none;fill-opacity:1;fill-rule:nonzero;stroke:#ffffff;stroke-opacity:1;stroke-width:2.00016302;stroke-miterlimit:4;stroke-dasharray:none;stroke-linejoin:round;stroke-linecap:round"
       inkscape:connector-curvature="0"
       id="path4344"
       d="m 27.719891,11.650891 c -4.477,-2.5860005 -4.504,3.367 -4.504,3.367 l 0.785,8.98 8.168,-3.813 c 0,0 5.145,-3 0.668,-5.586 -1.383,-0.797 -2.398,-0.816 -3.148,-0.457 -0.066,-0.824 -0.586,-1.695 -1.969,-2.496 m 0,0.004" />
    <path
       style="fill:none;fill-opacity:1;fill-rule:nonzero;stroke:#ffffff;stroke-opacity:1;stroke-width:2.00016302;stroke-miterlimit:4;stroke-dasharray:none;stroke-linejoin:round;stroke-linecap:round"
       inkscape:connector-curvature="0"
       id="path4346"
       d="m 24.000891,23.998891 3.813,8.168 c 0,0 3,5.145 5.582,0.668 0.797,-1.383 0.813,-2.398 0.457,-3.148 0.828,-0.066 1.699,-0.586 2.5,-1.969 2.582,-4.477 -3.371,-4.504 -3.371,-4.504 l -8.977,0.785 m -0.004,0" />
    <path
       style="fill:none;fill-opacity:1;fill-rule:nonzero;stroke:#ffffff;stroke-opacity:1;stroke-width:2.00016302;stroke-miterlimit:4;stroke-dasharray:none;stroke-linejoin:round;stroke-linecap:round"
       inkscape:connector-curvature="0"
       id="path4348"
       d="m 24.000891,23.998891 -8.172,3.813 c 0,0 -5.141,3 -0.668,5.582 1.383,0.797 2.402,0.813 3.148,0.457 0.066,0.828 0.586,1.699 1.969,2.5 4.477,2.582 4.504,-3.371 4.504,-3.371 l -0.781,-8.977 m 0,-0.004" />
    <path
       style="fill:none;fill-opacity:1;fill-rule:nonzero;stroke:#ffffff;stroke-opacity:1;stroke-width:2.00016302;stroke-miterlimit:4;stroke-dasharray:none;stroke-linejoin:round;stroke-linecap:round"
       inkscape:connector-curvature="0"
       id="path4350"
       d="m 24.000891,23.998891 -3.813,-8.172 c 0,0 -3,-5.141 -5.586,-0.668 -0.797,1.383 -0.813,2.402 -0.457,3.148 -0.824,0.066 -1.695,0.586 -2.496,1.969 -2.5860005,4.477 3.367,4.504 3.367,4.504 l 8.98,-0.781 m 0.004,0" />
  </g>
  <g
     id="g4310"
     transform="matrix(0.999837,0,0,1,0.0039116,0)">
    <path
       d="m 27.719891,11.650891 c -4.477,-2.5860005 -4.504,3.367 -4.504,3.367 l 0.785,8.98 8.168,-3.813 c 0,0 5.145,-3 0.668,-5.586 -1.383,-0.797 -2.398,-0.816 -3.148,-0.457 -0.066,-0.824 -0.586,-1.695 -1.969,-2.496 m 0,0.004"
       id="path59"
       inkscape:connector-curvature="0"
       style="fill:#f34437;fill-opacity:1;fill-rule:nonzero;stroke:none" />
    <path
       d="m 24.000891,23.998891 3.813,8.168 c 0,0 3,5.145 5.582,0.668 0.797,-1.383 0.813,-2.398 0.457,-3.148 0.828,-0.066 1.699,-0.586 2.5,-1.969 2.582,-4.477 -3.371,-4.504 -3.371,-4.504 l -8.977,0.785 m -0.004,0"
       id="path61"
       inkscape:connector-curvature="0"
       style="fill:#fba009;fill-opacity:1;fill-rule:nonzero;stroke:none" />
    <path
       d="m 24.000891,23.998891 -8.172,3.813 c 0,0 -5.141,3 -0.668,5.582 1.383,0.797 2.402,0.813 3.148,0.457 0.066,0.828 0.586,1.699 1.969,2.5 4.477,2.582 4.504,-3.371 4.504,-3.371 l -0.781,-8.977 m 0,-0.004"
       id="path63"
       inkscape:connector-curvature="0"
       style="fill:#008eec;fill-opacity:1;fill-rule:nonzero;stroke:none" />
    <path
       d="m 24.000891,23.998891 -3.813,-8.172 c 0,0 -3,-5.141 -5.586,-0.668 -0.797,1.383 -0.813,2.402 -0.457,3.148 -0.824,0.066 -1.695,0.586 -2.496,1.969 -2.5860005,4.477 3.367,4.504 3.367,4.504 l 8.98,-0.781 m 0.004,0"
       id="path65"
       inkscape:connector-curvature="0"
       style="fill:#87cc28;fill-opacity:1;fill-rule:nonzero;stroke:none" />
  </g>
  <g
     transform="matrix(0.999837,0,0,1,-19.996088,-5.2631579)"
     id="g4316">
    <path
       style="fill:#000000;fill-opacity:1;fill-rule:nonzero;stroke:none;opacity:0.15"
       d="m 45.644063,16.264443 c -2.408044,0.08665 -2.424223,4.015625 -2.424223,4.015625 l 0.78333,8.980469 8.169301,-3.8125 c 0,0 5.145076,-2.999937 0.668078,-5.585938 -1.383001,-0.797 -2.398951,-0.816031 -3.148952,-0.457031 -0.066,-0.824 -0.58607,-1.695094 -1.96907,-2.496094 l 0,0.0059 C 46.883089,16.429959 46.199765,16.244448 45.644063,16.264443 Z M 44.00317,29.260537 40.192002,21.090615 c 0,0 -3.000848,-5.140969 -5.586848,-0.667969 -0.797,1.383 -0.813105,2.400485 -0.457105,3.146485 -0.824,0.066 -1.695501,0.587703 -2.496501,1.970703 -2.586,4.477 3.367736,4.503906 3.367736,4.503906 l 8.97998,-0.78125 0.0039,0 0,-0.002 z m 0,0.002 3.813122,8.167969 c 0,0 3.000941,5.144969 5.582941,0.667969 0.797,-1.383 0.813105,-2.398438 0.457105,-3.148438 0.828001,-0.066 1.699409,-0.58575 2.500408,-1.96875 2.582001,-4.477 -3.371643,-4.503906 -3.371643,-4.503906 l -8.976072,0.785156 -0.0059,0 z m 0,0 -8.171253,3.8125 c 0,0 -5.141078,3.000031 -0.668078,5.582031 1.383,0.797 2.402951,0.813032 3.148951,0.457032 0.066,0.828 0.586071,1.699 1.969071,2.5 4.477,2.582 4.502687,-3.371094 4.502687,-3.371094 l -0.781378,-8.976563 0,-0.0039 z M 45.679225,17.26449 c 0.304059,-0.01094 0.811674,0.09307 1.54322,0.515625 a 1.000263,1.0001 0 0 0 0.01563,0.0078 c 1.181827,0.690556 1.42044,1.23747 1.457268,1.697265 a 1.000263,1.0001 0 0 0 1.427968,0.822266 c 0.420288,-0.201178 1.01179,-0.272758 2.217158,0.421875 0.973089,0.562533 1.2413,1.022662 1.308806,1.318359 0.06756,0.295918 -0.02264,0.616289 -0.293016,1.015625 -0.536464,0.792345 -1.656167,1.498468 -1.674101,1.509766 l -6.80775,3.175781 -0.65245,-7.480469 c 2.67e-4,-0.01577 0.0146,-0.858931 0.263715,-1.669921 0.125718,-0.409271 0.311512,-0.782025 0.509849,-1.003907 0.198338,-0.221881 0.35315,-0.318184 0.683705,-0.330078 z m -8.659615,2.328125 c 0.234259,0.0096 0.489599,0.111797 0.789192,0.314453 0.793552,0.536779 1.50042,1.660568 1.510011,1.675782 l 3.174346,6.80664 -7.483642,0.652344 c -0.01627,-6.29e-4 -1.34588,-0.05195 -2.207391,-0.470703 -0.433386,-0.210652 -0.670663,-0.442458 -0.759889,-0.732422 -0.08914,-0.289669 -0.08676,-0.82379 0.474686,-1.796875 l 0,-0.002 c 0.697504,-1.20358 1.249691,-1.437643 1.711217,-1.47461 a 1.000263,1.0001 0 0 0 0.822399,-1.425781 c -0.198744,-0.41647 -0.272025,-1.012582 0.421944,-2.216797 0.562444,-0.972066 1.022681,-1.241133 1.318575,-1.308593 0.07403,-0.01688 0.150466,-0.02468 0.228552,-0.02149 z m 15.97526,9.886719 c 0.01627,6.28e-4 1.345227,0.05181 2.207392,0.470703 0.433713,0.210726 0.672283,0.444152 0.761842,0.734375 0.08956,0.290223 0.08751,0.82207 -0.474687,1.796875 -0.696908,1.201977 -1.244835,1.435325 -1.71317,1.472656 a 1.000263,1.0001 0 0 0 -0.824352,1.425782 c 0.201064,0.423589 0.274192,1.014165 -0.419991,2.21875 -0.562209,0.974829 -1.021578,1.241183 -1.31662,1.308593 -0.295044,0.06741 -0.616559,-0.02066 -1.015792,-0.291015 -0.792137,-0.53643 -1.496753,-1.657846 -1.508058,-1.675782 l -3.176298,-6.804687 7.479734,-0.65625 z m -9.864889,1.294922 0.65245,7.478515 c -6.25e-4,0.01627 -0.05212,1.344994 -0.470779,2.207032 -0.210606,0.433651 -0.442631,0.672263 -0.732542,0.761718 -0.289912,0.08946 -0.822368,0.08758 -1.797168,-0.474609 -1.202119,-0.696991 -1.435574,-1.244665 -1.472896,-1.712891 a 1.000263,1.0001 0 0 0 -1.427967,-0.822265 c -0.415644,0.19835 -1.013455,0.271799 -2.217158,-0.421875 -0.971989,-0.561531 -1.239518,-1.021329 -1.306854,-1.316406 -0.06739,-0.295299 0.02087,-0.616463 0.291063,-1.015625 0.536098,-0.791997 1.656171,-1.496508 1.674101,-1.507813 l 6.80775,-3.175781 z"
       id="path4318"
       inkscape:connector-curvature="0" />
  </g>
  <g
     id="g4327"
     transform="matrix(0.999837,0,0,1,-19.996088,-5.2631579)"
     style="fill:none;stroke:#000000;stroke-opacity:1;stroke-width:2.00016302;stroke-miterlimit:4;stroke-dasharray:none;stroke-linejoin:round;stroke-linecap:round" />
</svg>
