<?xml version="1.0" encoding="UTF-8" standalone="no"?>
<!-- Created with Inkscape (http://www.inkscape.org/) -->
<svg id="svg4951" xmlns:rdf="http://www.w3.org/1999/02/22-rdf-syntax-ns#" xmlns="http://www.w3.org/2000/svg" height="48px" width="48px" version="1.1" xmlns:cc="http://creativecommons.org/ns#" xmlns:xlink="http://www.w3.org/1999/xlink" xmlns:dc="http://purl.org/dc/elements/1.1/">
 <defs id="defs4953">
  <linearGradient id="linearGradient3189" y2="40.496" gradientUnits="userSpaceOnUse" x2="71.204" gradientTransform="matrix(1.617 0 0 1.617 -92.707 -21.06)" y1="15.369" x1="71.204">
   <stop id="stop4808-4" stop-color="#fff" offset="0"/>
   <stop id="stop4810-0" stop-color="#fff" stop-opacity=".23529" offset=".42448"/>
   <stop id="stop4812-8" stop-color="#fff" stop-opacity=".15686" offset=".82090"/>
   <stop id="stop4814-0" stop-color="#fff" stop-opacity=".39216" offset="1"/>
  </linearGradient>
  <radialGradient id="radialGradient3192" gradientUnits="userSpaceOnUse" cy="3.99" cx="23.896" gradientTransform="matrix(0 2.8885 -3.8128 0 39.213 -65.95)" r="20.397">
   <stop id="stop4388" stop-color="#dc4545" offset="0"/>
   <stop id="stop4664" stop-color="#731717" offset=".5"/>
   <stop id="stop4390" stop-color="#751616" offset="1"/>
  </radialGradient>
  <radialGradient id="radialGradient3195" gradientUnits="userSpaceOnUse" cy="186.17" cx="99.157" gradientTransform="matrix(.27083 0 0 .087623 -2.8551 25.187)" r="62.769">
   <stop id="stop3822-2-6-3" stop-color="#3d3d3d" offset="0"/>
   <stop id="stop3864-8-7-7" stop-color="#686868" stop-opacity=".49804" offset=".5"/>
   <stop id="stop3824-1-2-5" stop-color="#686868" stop-opacity="0" offset="1"/>
  </radialGradient>
  <linearGradient id="linearGradient4566" y2="19.968" gradientUnits="userSpaceOnUse" x2="43.411" gradientTransform="translate(-.087166 1.7692)" y1="19.968" x1="4.4057">
   <stop id="stop4615" stop-color="#dc4545" stop-opacity="0" offset="0"/>
   <stop id="stop4617" stop-color="#fff" offset=".49571"/>
   <stop id="stop4619" stop-color="#dc4545" stop-opacity=".034682" offset="1"/>
  </linearGradient>
  <linearGradient id="linearGradient4656" y2="22.176" gradientUnits="userSpaceOnUse" x2="44.289" gradientTransform="translate(0 .50033)" y1="22.176" x1="3.7435">
   <stop id="stop4652" stop-color="#1b1b1b" stop-opacity="0" offset="0"/>
   <stop id="stop4658" stop-color="#1b1b1b" offset=".5"/>
   <stop id="stop4654" stop-color="#1b1b1b" stop-opacity="0" offset="1"/>
  </linearGradient>
 </defs>
 <metadata id="metadata4956">
  <rdf:RDF>
   <cc:Work rdf:about="">
    <dc:format>image/svg+xml</dc:format>
    <dc:type rdf:resource="http://purl.org/dc/dcmitype/StillImage"/>
    <dc:title/>
   </cc:Work>
  </rdf:RDF>
 </metadata>
 <g id="layer1">
  <path id="path3818-0-5" d="m41 41.5a17 5.5 0 0 1 -34 0 17 5.5 0 1 1 34 0z" fill="url(#radialGradient3195)"/>
  <path id="path2555-7-2" style="color:#000000" d="m24 3.5c-11.311 0-20.5 9.1888-20.5 20.5s9.1888 20.5 20.5 20.5 20.5-9.1888 20.5-20.5-9.189-20.5-20.5-20.5z" fill="url(#radialGradient3192)"/>
  <path id="path4176" opacity=".3" stroke-linejoin="round" style="color:#000000" d="m43.5 24c0 10.77-8.73 19.5-19.5 19.5s-19.5-8.73-19.5-19.5 8.73-19.5 19.5-19.5 19.5 8.73 19.5 19.5z" stroke="url(#linearGradient3189)" stroke-linecap="round" fill="none"/>
  <path id="path3871" opacity=".7" style="color:#000000" d="m24 3.5c-11.311 0-20.5 9.189-20.5 20.5s9.189 20.5 20.5 20.5 20.5-9.189 20.5-20.5-9.189-20.5-20.5-20.5z" stroke="#901b1b" fill="none"/>
  <g id="g4660" transform="translate(-.099849 1)" fill="none">
   <path id="path4558" stroke-linejoin="round" d="m42.824 21.737c-2.111 0.728-8.508 4.043-19.003 4.043s-16.853-3.4403-19.003-4.0431c-2.965-0.83134 8.5078 3.9892 19.003 3.9892s20.943-4.6588 19.003-3.9892z" stroke="url(#linearGradient4566)" stroke-linecap="round"/>
   <path id="path4609" stroke-linejoin="bevel" d="m42.554 21.139c-0.91905-0.0027-8.1884 3.7489-18.439 3.7489s-17.643-3.6373-18.597-3.6066c0 0 8.2929 3.6334 18.544 3.6334s18.493-3.7756 18.493-3.7756z" stroke="url(#linearGradient4656)" stroke-linecap="square" stroke-width=".484"/>
  </g>
  <g id="g4672" stroke="#fff" stroke-linecap="round" stroke-width=".87896px" fill="none">
   <path id="path4666" opacity=".6" d="m7.6724 21.631l0.2886-1.979"/>
   <path id="path4668" opacity=".6" d="m14.141 23.517l0.28856-1.9782"/>
  </g>
  <path id="path4670" opacity=".6" d="m23.379 24.559l0.0439-1.9986" stroke="#fff" stroke-linecap="round" stroke-width=".87896px" fill="none"/>
  <g id="g4676" transform="matrix(-1 0 0 1 47.062 .32345)" stroke="#fff" stroke-linecap="round" stroke-width=".87896px" fill="none">
   <path id="path4678" opacity=".6" d="m7.6724 21.631l0.2886-1.979"/>
   <path id="path4680" opacity=".6" d="m14.141 23.517l0.28856-1.9782"/>
  </g>
  <path id="rect4682" opacity=".6" d="m23.526 28.584 2.6694 2.6694-2.6491 0.04413-2.6898-0.04413z" fill="#fff"/>
  <text id="text4685" opacity=".6" style="word-spacing:0px;letter-spacing:0px" xml:space="preserve" font-size="4.2075px" y="20.020187" x="13.512981" font-family="Sans" line-height="125%" fill="#ffffff"><tspan id="tspan4687" x="13.512981" y="20.020187">5</tspan></text>
  <text id="text4689" opacity=".6" style="word-spacing:0px;letter-spacing:0px" xml:space="preserve" font-size="4.1343px" y="20.474976" x="29.891911" font-family="Sans" line-height="125%" fill="#ffffff"><tspan id="tspan4691" x="29.891911" y="20.474976">10</tspan></text>
 </g>
</svg>
