<?xml version="1.0" encoding="UTF-8" standalone="no"?>
<!-- Created with Inkscape (http://www.inkscape.org/) -->
<svg id="svg4951" xmlns:rdf="http://www.w3.org/1999/02/22-rdf-syntax-ns#" xmlns="http://www.w3.org/2000/svg" height="48px" width="48px" version="1.1" xmlns:cc="http://creativecommons.org/ns#" xmlns:xlink="http://www.w3.org/1999/xlink" xmlns:dc="http://purl.org/dc/elements/1.1/">
 <defs id="defs4953">
  <linearGradient id="linearGradient4806-2">
   <stop id="stop4808-4" stop-color="#fff" offset="0"/>
   <stop id="stop4810-0" stop-color="#fff" stop-opacity=".23529" offset=".42448"/>
   <stop id="stop4812-8" stop-color="#fff" stop-opacity=".15686" offset=".82090"/>
   <stop id="stop4814-0" stop-color="#fff" stop-opacity=".39216" offset="1"/>
  </linearGradient>
  <linearGradient id="linearGradient3214" y2="40.496" xlink:href="#linearGradient4806-2" gradientUnits="userSpaceOnUse" x2="71.204" gradientTransform="matrix(1.617 0 0 1.617 -92.707 -21.06)" y1="15.369" x1="71.204"/>
  <radialGradient id="radialGradient3220" gradientUnits="userSpaceOnUse" cy="186.17" cx="99.157" gradientTransform="matrix(.27083 0 0 .087623 -2.8551 25.187)" r="62.769">
   <stop id="stop3822-2-6-3" stop-color="#3d3d3d" offset="0"/>
   <stop id="stop3864-8-7-7" stop-color="#686868" stop-opacity=".49804" offset=".5"/>
   <stop id="stop3824-1-2-5" stop-color="#686868" stop-opacity="0" offset="1"/>
  </radialGradient>
  <linearGradient id="linearGradient4377" y2="24.083" gradientUnits="userSpaceOnUse" x2="23.744" y1="4.1525" x1="23.686">
   <stop id="stop4373" stop-color="#ffcf6b" offset="0"/>
   <stop id="stop4488" stop-color="#ffcf6b" offset=".5"/>
   <stop id="stop4375" stop-color="#b6934d" offset="1"/>
  </linearGradient>
  <linearGradient id="linearGradient4683" y2="12.986" xlink:href="#linearGradient4806-2" gradientUnits="userSpaceOnUse" x2="18.082" gradientTransform="matrix(.91998 0 0 .91998 1.313 1.1055)" y1="12.986" x1="12.239"/>
  <linearGradient id="linearGradient4691" y2="12.986" xlink:href="#linearGradient4806-2" gradientUnits="userSpaceOnUse" x2="18.082" gradientTransform="matrix(.91998 0 0 .91998 19.213 1.1055)" y1="12.986" x1="12.239"/>
  <linearGradient id="linearGradient4989" y2="20.196" gradientUnits="userSpaceOnUse" x2="23.847" gradientTransform="matrix(1.0477 0 0 1.0477 -1.1012 -.85833)" y1="15.678" x1="23.839">
   <stop id="stop4705" stop-color="#fff" offset="0"/>
   <stop id="stop4707" stop-color="#fff" stop-opacity="0" offset="1"/>
  </linearGradient>
  <filter id="filter5143" style="color-interpolation-filters:sRGB" height="2.0749" width="1.6894" y="-.53744" x="-.34468">
   <feGaussianBlur id="feGaussianBlur5145" stdDeviation="0.71035982"/>
  </filter>
 </defs>
 <metadata id="metadata4956">
  <rdf:RDF>
   <cc:Work rdf:about="">
    <dc:format>image/svg+xml</dc:format>
    <dc:type rdf:resource="http://purl.org/dc/dcmitype/StillImage"/>
    <dc:title/>
   </cc:Work>
  </rdf:RDF>
 </metadata>
 <g id="layer1">
  <path id="path3818-0-5" d="m41 41.5a17 5.5 0 0 1 -34 0 17 5.5 0 1 1 34 0z" fill="url(#radialGradient3220)"/>
  <path id="path4523" style="color:#000000" d="m24 3.5c-11.311 0-20.5 9.1888-20.5 20.5s9.1888 20.5 20.5 20.5 20.5-9.1888 20.5-20.5-9.189-20.5-20.5-20.5z" fill="#ff4545"/>
  <path id="path2555-7-2" style="color:#000000" d="m24 3.5c-11.311 0-20.5 9.189-20.5 20.5 0 3.586 0.9287 6.956 2.5508 9.891l-0.1074-16.231 6.3786 0.061-0.199 22.961c1.982 1.414 4.215 2.497 6.633 3.136l-0.057-25.972 6.873 0.06 0.17 26.514c2.378-0.201 4.635-0.819 6.713-1.764l0.053-24.75 6.625-0.06 0.334 19.572c3.126-3.599 5.033-8.284 5.033-13.418 0-11.311-9.189-20.5-20.5-20.5z" fill="#fff"/>
  <path id="path4368" d="m43.949 24.431c-6.928-0.126-10.168-0.196-20.216-0.196-10.049 0-7.935-0.207-19.79-0.074-0.2736-7.477 5.4658-20.047 20.084-20.168 12.884-0.107 20.652 11.648 19.922 20.438z" fill="url(#linearGradient4377)"/>
  <path id="path4176" opacity=".3" stroke-linejoin="round" style="color:#000000" d="m43.5 24c0 10.77-8.73 19.5-19.5 19.5s-19.5-8.73-19.5-19.5 8.73-19.5 19.5-19.5 19.5 8.73 19.5 19.5z" stroke="url(#linearGradient3214)" stroke-linecap="round" fill="none"/>
  <path id="path3871" opacity=".7" style="color:#000000" d="m24 3.5c-11.311 0-20.5 9.189-20.5 20.5s9.189 20.5 20.5 20.5 20.5-9.189 20.5-20.5-9.189-20.5-20.5-20.5z" stroke="#343434" fill="none"/>
  <g id="g5147" transform="translate(.19367 -.76342)">
   <path id="path4754" d="m27.952 17.995c-0.16034 1.956-2.0319 3.4159-4.2275 3.2977-2.1956-0.11822-3.9219-1.7719-3.8993-3.7353s1.6979-1.3818 3.8949-1.3867c2.197-0.005 4.1219-0.59474 4.2371 1.3684" fill="#f00"/>
   <path id="path4757" opacity="0.165" d="m26.468 18.485c-0.09752 1.1897-1.2359 2.0776-2.5713 2.0057s-2.3854-1.0777-2.3716-2.2719c0.01375-1.1942 1.0327-0.84041 2.369-0.84343 1.3363-0.003 2.507-0.36173 2.5771 0.83227" filter="url(#filter5143)"/>
   <path id="path4987" opacity="0.263" stroke-linejoin="bevel" d="m28.183 17.995c-0.16798 2.0492-2.1288 3.5788-4.429 3.4549-2.3003-0.12385-4.1088-1.8563-4.0851-3.9133 0.02368-2.057 1.7788-1.4476 4.0806-1.4528s4.3184-0.62309 4.4391 1.4336" stroke="url(#linearGradient4989)" stroke-linecap="round" stroke-width=".33070" fill="none"/>
  </g>
  <path id="path4500" d="m4.0187 24.392 39.93 0.211" stroke="#fff" stroke-width="1.0002px" fill="none"/>
  <g id="g4535">
   <circle id="path4531" cy="12.986" cx="15.161" r="2.9217" fill="#343434"/>
   <path id="path4533" d="m15.072 11.869a1 1 0 0 1 -0.96863 0.99951 1 1 0 0 1 -1.0294 -0.9368 1 1 0 0 1 0.90406 -1.0583 1 1 0 0 1 1.0861 0.87042" fill="#fff"/>
  </g>
  <g id="g4550" transform="translate(17.9)">
   <circle id="circle4552" cx="15.161" cy="12.986" r="2.9217" fill="#343434"/>
   <path id="path4554" fill="#fff" d="m15.072 11.869a1 1 0 0 1 -0.96863 0.99951 1 1 0 0 1 -1.0294 -0.9368 1 1 0 0 1 0.90406 -1.0583 1 1 0 0 1 1.0861 0.87042"/>
  </g>
  <circle id="circle4671" opacity=".3" stroke-linejoin="bevel" stroke-width=".72731" stroke-linecap="round" stroke="url(#linearGradient4683)" cy="13.053" cx="15.261" r="2.6879" fill="none"/>
  <circle id="circle4689" opacity=".3" stroke-linejoin="bevel" cx="33.161" stroke-linecap="round" stroke="url(#linearGradient4691)" cy="13.053" r="2.6879" stroke-width=".72731" fill="none"/>
 </g>
</svg>
