<?xml version="1.0" encoding="UTF-8" standalone="no"?>
<!-- Created with Inkscape (http://www.inkscape.org/) -->
<svg id="svg4117" xmlns:rdf="http://www.w3.org/1999/02/22-rdf-syntax-ns#" xmlns="http://www.w3.org/2000/svg" height="48" width="48" version="1.1" xmlns:cc="http://creativecommons.org/ns#" xmlns:xlink="http://www.w3.org/1999/xlink" xmlns:dc="http://purl.org/dc/elements/1.1/">
 <defs id="defs4119">
  <radialGradient id="radialGradient2873-966-168" gradientUnits="userSpaceOnUse" cy="43.5" cx="4.993" gradientTransform="matrix(2.0038 0 0 1.4 27.988 -17.4)" r="2.5">
   <stop id="stop2883" stop-color="#181818" offset="0"/>
   <stop id="stop2885" stop-color="#181818" stop-opacity="0" offset="1"/>
  </radialGradient>
  <radialGradient id="radialGradient2875-742-326" gradientUnits="userSpaceOnUse" cy="43.5" cx="4.993" gradientTransform="matrix(2.0038 0 0 1.4 -20.012 -104.4)" r="2.5">
   <stop id="stop2889" stop-color="#181818" offset="0"/>
   <stop id="stop2891" stop-color="#181818" stop-opacity="0" offset="1"/>
  </radialGradient>
  <linearGradient id="linearGradient2877-634-617" y2="39.999" gradientUnits="userSpaceOnUse" x2="25.058" y1="47.028" x1="25.058">
   <stop id="stop2895" stop-color="#181818" stop-opacity="0" offset="0"/>
   <stop id="stop2897" stop-color="#181818" offset=".5"/>
   <stop id="stop2899" stop-color="#181818" stop-opacity="0" offset="1"/>
  </linearGradient>
  <filter id="filter3831" color-interpolation-filters="sRGB">
   <feGaussianBlur id="feGaussianBlur3833" stdDeviation="0.6375"/>
  </filter>
  <clipPath id="clipPath3823">
   <path id="path3825" fill="#fff" d="m108.81 58c-1.56 0-2.81 1.254-2.81 2.812v24.375c0 1.559 1.25 2.813 2.81 2.813h24.375c1.57 0 2.82-1.254 2.82-2.812v-24.375c0-1.559-1.25-2.813-2.81-2.813h-24.375zm7.1875 4.5h10v8.75h5l-10 13.75-10-13.75h5v-8.75z"/>
  </clipPath>
  <linearGradient id="linearGradient3812" y2="50.069" gradientUnits="userSpaceOnUse" x2="65.263" gradientTransform="matrix(.625 0 0 .625 78.5 32.25)" y1="64.205" x1="65.263">
   <stop id="stop5012" offset="0"/>
   <stop id="stop5014" stop-opacity="0" offset="1"/>
  </linearGradient>
  <filter id="filter3806" color-interpolation-filters="sRGB">
   <feGaussianBlur id="feGaussianBlur3808" stdDeviation="1.2"/>
  </filter>
  <linearGradient id="linearGradient3788" y2="75.095" xlink:href="#linearGradient3737" gradientUnits="userSpaceOnUse" x2="70" gradientTransform="translate(0,4)" y1="54" x1="70"/>
  <linearGradient id="linearGradient3773" y2="72" gradientUnits="userSpaceOnUse" x2="88" gradientTransform="matrix(.9375 0 0 .9375 -140.5 3.5)" y1="72" x1="56">
   <stop id="stop3780" stop-color="#499119" offset="0"/>
   <stop id="stop3782" stop-color="#8fd625" offset="1"/>
  </linearGradient>
  <linearGradient id="linearGradient3832" y2="50.069" xlink:href="#linearGradient3737" gradientUnits="userSpaceOnUse" x2="65.263" gradientTransform="matrix(.625 0 0 .625 28.5 31.25)" y1="64.205" x1="65.263"/>
  <filter id="filter3174" color-interpolation-filters="sRGB">
   <feGaussianBlur id="feGaussianBlur3176" stdDeviation="1.71"/>
  </filter>
  <linearGradient id="linearGradient3737">
   <stop id="stop3739" stop-color="#fff" offset="0"/>
   <stop id="stop3741" stop-color="#fff" stop-opacity="0" offset="1"/>
  </linearGradient>
  <linearGradient id="ButtonShadow" y2="7.0165" gradientUnits="userSpaceOnUse" x2="45.448" gradientTransform="scale(1.0059 .99417)" y1="92.54" x1="45.448">
   <stop id="stop3750" offset="0"/>
   <stop id="stop3752" stop-opacity=".58824" offset="1"/>
  </linearGradient>
  <linearGradient id="linearGradient3084" y2="43" gradientUnits="userSpaceOnUse" x2="24" gradientTransform="translate(.0000024 .96745)" y1="5" x1="24">
   <stop id="stop3926" stop-color="#fff" offset="0"/>
   <stop id="stop3928" stop-color="#fff" stop-opacity=".23529" offset=".063165"/>
   <stop id="stop3930" stop-color="#fff" stop-opacity=".15686" offset=".95056"/>
   <stop id="stop3932" stop-color="#fff" stop-opacity=".39216" offset="1"/>
  </linearGradient>
  <radialGradient id="radialGradient3093" gradientUnits="userSpaceOnUse" cy="8.4498" cx="7.4957" gradientTransform="matrix(0 1.9393 -2.0515 -5.2784e-8 41.335 -8.4863)" r="20">
   <stop id="stop3602" stop-color="#f4f4f4" offset="0"/>
   <stop id="stop3604" stop-color="#dbdbdb" offset="1"/>
  </radialGradient>
  <linearGradient id="linearGradient3095" y2="3.899" gradientUnits="userSpaceOnUse" x2="24" gradientTransform="translate(-6e-7 .96744)" y1="44" x1="24">
   <stop id="stop3106" stop-color="#aaa" offset="0"/>
   <stop id="stop3108" stop-color="#c8c8c8" offset="1"/>
  </linearGradient>
  <linearGradient id="linearGradient3098" y2="3" gradientUnits="userSpaceOnUse" x2="20" y1="43" x1="20">
   <stop id="stop3106-9" stop-color="#aaa" offset="0"/>
   <stop id="stop3108-8" stop-color="#c8c8c8" offset="1"/>
  </linearGradient>
 </defs>
 <metadata id="metadata4122">
  <rdf:RDF>
   <cc:Work rdf:about="">
    <dc:format>image/svg+xml</dc:format>
    <dc:type rdf:resource="http://purl.org/dc/dcmitype/StillImage"/>
    <dc:title/>
   </cc:Work>
  </rdf:RDF>
 </metadata>
 <g id="g2036" transform="matrix(1.1 0 0 .44444 -2.4 25.111)">
  <g id="g3712" opacity=".4" transform="matrix(1.0526 0 0 1.2857 -1.2632 -13.429)">
   <rect id="rect2801" height="7" width="5" y="40" x="38" fill="url(#radialGradient2873-966-168)"/>
   <rect id="rect3696" transform="scale(-1)" height="7" width="5" y="-47" x="-10" fill="url(#radialGradient2875-742-326)"/>
   <rect id="rect3700" height="7" width="28" y="40" x="10" fill="url(#linearGradient2877-634-617)"/>
  </g>
 </g>
 <path id="path4564-0" opacity=".05" style="color:#000000" d="m22.969 8.1875a2.9359 2.9359 0 0 0 -1.407 0.4063l-11.031 6.375a2.9359 2.9359 0 0 0 -1.406 2.031 2.9359 2.9359 0 0 0 -0.0312 0 2.9359 2.9359 0 0 0 -0.9688 2.188l-0.0625 12.718a2.9359 2.9359 0 0 0 1 2.1875 2.9359 2.9359 0 0 0 0 0.03125 2.9359 2.9359 0 0 0 1.4375 2.0938l11 6.3125a2.9359 2.9359 0 0 0 2.4062 0.21875 2.9359 2.9359 0 0 0 0.03125 0 2.9359 2.9359 0 0 0 2.5 -0.1875l11-6.3438a2.9359 2.9359 0 0 0 1.4062 -2 2.9359 2.9359 0 0 0 1.0938 -2.25v-12.719a2.9359 2.9359 0 0 0 -1 -2.1875 2.9359 2.9359 0 0 0 -1.437 -2.093l-11.031-6.344a2.9359 2.9359 0 0 0 -2.407 -0.25 2.9359 2.9359 0 0 0 -1.093 -0.1875z" fill="url(#linearGradient3098)"/>
 <rect id="rect5505-21" stroke-linejoin="round" height="39" stroke="url(#linearGradient3095)" stroke-linecap="round" fill="url(#radialGradient3093)" style="color:#000000" rx="2" ry="2" width="39" y="5.4674" x="4.5"/>
 <rect id="rect6741-2" stroke-linejoin="round" rx="1" ry="1" height="37" width="37" stroke="url(#linearGradient3084)" stroke-linecap="round" y="6.4674" x="5.5" fill="none"/>
 <g id="layer2" display="none" transform="translate(-135.86 -31.05)">
  <path id="rect3745" opacity=".9" d="m11 7 37-2 37 2c3.324 0 6 2.676 6 6v73c0 3.324-2.676 6-6 6h-74c-3.324 0-6-2.676-6-6v-73c0-3.324 2.676-6 6-6z" filter="url(#filter3174)" fill="url(#ButtonShadow)"/>
 </g>
 <g id="layer4" display="none" transform="translate(-135.86 -31.05)">
  <rect id="rect3790" opacity=".6" transform="matrix(0,-1,1,0,0,4)" rx="2.8125" ry="2.8125" height="30" filter="url(#filter3806)" width="30" y="56" x="-86"/>
  <rect id="rect2993" transform="rotate(-90)" rx="2.8125" ry="2.8125" height="30" width="30" y="56" x="-88" fill="url(#linearGradient3773)"/>
  <path id="rect3775" opacity=".5" d="m58.812 58c-1.558 0-2.812 1.254-2.812 2.812v24.375c0 0.87307 0.41082 1.6412 1.0312 2.1562-0.003-0.053-0.031-0.101-0.031-0.155v-24.375c0-1.559 1.171-2.813 2.625-2.813h22.75c1.454 0 2.625 1.254 2.625 2.812v24.375c0 0.05463-0.02841 0.10241-0.03125 0.15625 0.62-0.514 1.031-1.282 1.031-2.155v-24.375c0-1.559-1.254-2.813-2.812-2.813h-24.375z" fill="url(#linearGradient3788)"/>
  <path id="path3810" opacity=".6" filter="url(#filter3831)" d="m116 63.5v8.75h-5l10 13.75 10-13.75h-5v-8.75h-10z" clip-path="url(#clipPath3823)" transform="translate(-50)" display="inline" fill="url(#linearGradient3812)"/>
  <path id="path4278" d="m66 62.5v8.75h-5l10 13.75 10-13.75h-5v-8.75h-10z" display="inline" fill="url(#linearGradient3832)"/>
 </g>
 <g id="g4627" transform="matrix(1.2852 0 0 1.3622 -7.8834 -9.0776)">
  <path id="path4425" d="m27.159 13.174c-1.5857-0.00011-2.8712 1.2854-2.8711 2.8711 0.0014 0.50134 0.13405 0.99358 0.38476 1.4277-1.2936-1.2298-2.7068-2.5731-3.125-3.002l-1.377 2.248c0.27238 0.30234 1.6369 1.7815 1.8848 2.043-1.7351 1.8576-3.47 3.7127-5.2051 5.5703-0.02724 0.02999-0.05163 0.05987-0.07617 0.08984-0.28627 0.36476-0.35507 0.84396-0.22852 1.2637l2.123 1.5352 3.8359 1.959-2.7617 4.4746c-0.37858 0.61561-0.18782 1.4214 0.42773 1.8027 0.21518 0.13346 0.4513 0.19726 0.68555 0.19726 0.43853 0 0.86929-0.22069 1.1172-0.62109l3.5078-5.6855c0.19339-0.31324 0.24531-0.6916 0.14453-1.043-0.10078-0.3541-0.34229-0.6483-0.67188-0.81445l-3.6035-1.832 3.7871-4.0527 2.8613 2.4238c0.23694 0.20154 0.52766 0.29883 0.81641 0.29883 0.31049 0 0.62089-0.11454 0.86328-0.33789l3.2832-3.0586c0.5121-0.47667 0.54112-1.277 0.06445-1.7891-0.25059-0.26693-0.58803-0.4043-0.92578-0.4043-0.30779 0-0.61891 0.11181-0.86133 0.33789l-2.457 2.2852c-0.0013 0.0012-1.4383-1.3492-2.9355-2.7656 0.40579 0.20966 0.85575 0.31947 1.3125 0.32031 1.5857 0.00011 2.8712-1.2854 2.8711-2.8711 0.00011-1.5857-1.2854-2.8712-2.8711-2.8711z" fill="#272727"/>
  <path id="path4302-2" d="m22.565 38.074c-0.80814-0.22822-1.5924-0.70555-2.319-1.4428-0.77709-0.78858-1.7859-2.4379-2.2831-3.7324-0.49565-1.2905-0.69322-1.2061-0.36841 0.15788 0.27141 1.1397 0.1315 1.3622-0.28854 0.45802-0.71879-1.5472-1.2292-6.0768-1.0041-8.9046 0.45807-5.753 2.3146-9.8464 5.3463-11.788 1.1979-0.76697 1.8506-1.0077 2.7622-1.0191 1.134-0.01423 2.3212 0.48788 3.4312 1.452 2.6408 2.2936 3.9918 6.9959 3.7266 12.967-0.10146 2.2841-1.0115 5.6984-1.9893 7.462-1.9491 3.5156-4.5894 5.0741-7.0139 4.3896zm0.28552-2.207c2.3241 0.65831 4.6271-2.1146 5.3287-6.4167 0.14932-0.91569 0.26769-1.8275 0.26297-2.0266-0.0048-0.20247 0.05612-0.34493 0.13813-0.32295 0.28189 0.07553 0.07417 3.4036-0.30238 4.845-0.02834 0.10752 0.01857 0.17444 0.10386 0.14873 0.32604-0.09823 1.055-2.5759 1.2893-4.3821 0.51426-3.9631 0.11347-7.3096-1.157-9.6646-1.7165-3.1818-4.3062-3.3899-6.7183-0.54027-0.41606 0.49153-0.78351 0.84666-0.81667 0.78909-0.09077-0.15758 1.0565-1.8768 1.721-2.5792 0.87167-0.9214 2.3543-1.6357 3.3434-1.6101 0.44626 0.01156 0.76911-0.04375 0.71753-0.1234-0.16854-0.26027-0.9348-0.53053-1.579-0.55693-1.6442-0.06737-3.1329 1.0346-4.5205 3.3456-0.5568 0.92734-0.73811 1.4212-1.2998 3.5412-0.92334 3.4842-1.0296 6.0652-0.38131 9.2515 0.74088 3.6414 2.0594 5.7889 3.8701 6.3017z" fill="#e97647"/>
  <path id="path4625" d="m27.159 13.174c-1.5857-0.00011-2.8712 1.2854-2.8711 2.8711 0.0014 0.50134 0.13405 0.99358 0.38476 1.4277-0.18582-0.17666-0.37411-0.35566-0.56157-0.53396l-2.0556 1.823c-0.81467 0.87222-1.6293 1.7439-2.4439 2.6155l-0.15215 6.2473 3.0453 1.5552-2.0318 3.2919 2.3103 1.2491 2.698-4.373c0.19339-0.31324 0.24531-0.6916 0.14453-1.043-0.10078-0.3541-0.34229-0.6483-0.67188-0.81445l-3.6035-1.832 3.7871-4.0527 2.8613 2.4238c0.23694 0.20154 0.52766 0.29883 0.81641 0.29883 0.31049 0 0.62089-0.11454 0.86328-0.33789l3.2832-3.0586c0.5121-0.47667 0.54112-1.277 0.06445-1.7891-0.25059-0.26693-0.58803-0.4043-0.92578-0.4043-0.30779 0-0.61891 0.11181-0.86133 0.33789l-2.457 2.2852c-0.0013 0.0012-1.4383-1.3492-2.9355-2.7656 0.40579 0.20966 0.85575 0.31947 1.3125 0.32031 1.5857 0.00011 2.8712-1.2854 2.8711-2.8711 0.00011-1.5857-1.2854-2.8712-2.8711-2.8711z" fill="#272727"/>
 </g>
</svg>
