<?xml version="1.0" encoding="UTF-8" standalone="no"?>
<!-- Created with Inkscape (http://www.inkscape.org/) -->
<svg id="svg4117" xmlns:rdf="http://www.w3.org/1999/02/22-rdf-syntax-ns#" xmlns="http://www.w3.org/2000/svg" height="48" width="48" version="1.1" xmlns:cc="http://creativecommons.org/ns#" xmlns:xlink="http://www.w3.org/1999/xlink" xmlns:dc="http://purl.org/dc/elements/1.1/">
 <defs id="defs4119">
  <radialGradient id="radialGradient2873-966-168" gradientUnits="userSpaceOnUse" cy="43.5" cx="4.993" gradientTransform="matrix(2.0038 0 0 1.4 27.988 -17.4)" r="2.5">
   <stop id="stop2883" stop-color="#181818" offset="0"/>
   <stop id="stop2885" stop-color="#181818" stop-opacity="0" offset="1"/>
  </radialGradient>
  <radialGradient id="radialGradient2875-742-326" gradientUnits="userSpaceOnUse" cy="43.5" cx="4.993" gradientTransform="matrix(2.0038 0 0 1.4 -20.012 -104.4)" r="2.5">
   <stop id="stop2889" stop-color="#181818" offset="0"/>
   <stop id="stop2891" stop-color="#181818" stop-opacity="0" offset="1"/>
  </radialGradient>
  <linearGradient id="linearGradient2877-634-617" y2="39.999" gradientUnits="userSpaceOnUse" x2="25.058" y1="47.028" x1="25.058">
   <stop id="stop2895" stop-color="#181818" stop-opacity="0" offset="0"/>
   <stop id="stop2897" stop-color="#181818" offset=".5"/>
   <stop id="stop2899" stop-color="#181818" stop-opacity="0" offset="1"/>
  </linearGradient>
  <filter id="filter3831" color-interpolation-filters="sRGB">
   <feGaussianBlur id="feGaussianBlur3833" stdDeviation="0.6375"/>
  </filter>
  <clipPath id="clipPath3823">
   <path id="path3825" fill="#fff" d="m108.81 58c-1.56 0-2.81 1.254-2.81 2.812v24.375c0 1.559 1.25 2.813 2.81 2.813h24.375c1.57 0 2.82-1.254 2.82-2.812v-24.375c0-1.559-1.25-2.813-2.81-2.813h-24.375zm7.1875 4.5h10v8.75h5l-10 13.75-10-13.75h5v-8.75z"/>
  </clipPath>
  <linearGradient id="linearGradient3812" y2="50.069" gradientUnits="userSpaceOnUse" x2="65.263" gradientTransform="matrix(.625 0 0 .625 78.5 32.25)" y1="64.205" x1="65.263">
   <stop id="stop5012" offset="0"/>
   <stop id="stop5014" stop-opacity="0" offset="1"/>
  </linearGradient>
  <filter id="filter3806" color-interpolation-filters="sRGB">
   <feGaussianBlur id="feGaussianBlur3808" stdDeviation="1.2"/>
  </filter>
  <linearGradient id="linearGradient3788" y2="75.095" xlink:href="#linearGradient3737" gradientUnits="userSpaceOnUse" x2="70" gradientTransform="translate(0,4)" y1="54" x1="70"/>
  <linearGradient id="linearGradient3773" y2="72" gradientUnits="userSpaceOnUse" x2="88" gradientTransform="matrix(.9375 0 0 .9375 -140.5 3.5)" y1="72" x1="56">
   <stop id="stop3780" stop-color="#499119" offset="0"/>
   <stop id="stop3782" stop-color="#8fd625" offset="1"/>
  </linearGradient>
  <linearGradient id="linearGradient3832" y2="50.069" xlink:href="#linearGradient3737" gradientUnits="userSpaceOnUse" x2="65.263" gradientTransform="matrix(.625 0 0 .625 28.5 31.25)" y1="64.205" x1="65.263"/>
  <filter id="filter3174" color-interpolation-filters="sRGB">
   <feGaussianBlur id="feGaussianBlur3176" stdDeviation="1.71"/>
  </filter>
  <linearGradient id="linearGradient3737">
   <stop id="stop3739" stop-color="#fff" offset="0"/>
   <stop id="stop3741" stop-color="#fff" stop-opacity="0" offset="1"/>
  </linearGradient>
  <linearGradient id="ButtonShadow" y2="7.0165" gradientUnits="userSpaceOnUse" x2="45.448" gradientTransform="scale(1.0059 .99417)" y1="92.54" x1="45.448">
   <stop id="stop3750" offset="0"/>
   <stop id="stop3752" stop-opacity=".58824" offset="1"/>
  </linearGradient>
  <linearGradient id="linearGradient3084" y2="43" gradientUnits="userSpaceOnUse" x2="24" gradientTransform="translate(.0000024 .96745)" y1="5" x1="24">
   <stop id="stop3926" stop-color="#fff" offset="0"/>
   <stop id="stop3928" stop-color="#fff" stop-opacity=".23529" offset=".063165"/>
   <stop id="stop3930" stop-color="#fff" stop-opacity=".15686" offset=".95056"/>
   <stop id="stop3932" stop-color="#fff" stop-opacity=".39216" offset="1"/>
  </linearGradient>
  <radialGradient id="radialGradient3093" gradientUnits="userSpaceOnUse" cy="8.4498" cx="7.4957" gradientTransform="matrix(0 1.9393 -2.0515 -5.2784e-8 41.335 -8.4863)" r="20">
   <stop id="stop3602" stop-color="#f4f4f4" offset="0"/>
   <stop id="stop3604" stop-color="#dbdbdb" offset="1"/>
  </radialGradient>
  <linearGradient id="linearGradient3095" y2="3.899" gradientUnits="userSpaceOnUse" x2="24" gradientTransform="translate(-6e-7 .96744)" y1="44" x1="24">
   <stop id="stop3106" stop-color="#aaa" offset="0"/>
   <stop id="stop3108" stop-color="#c8c8c8" offset="1"/>
  </linearGradient>
  <linearGradient id="linearGradient3098" y2="3" gradientUnits="userSpaceOnUse" x2="20" y1="43" x1="20">
   <stop id="stop3106-9" stop-color="#aaa" offset="0"/>
   <stop id="stop3108-8" stop-color="#c8c8c8" offset="1"/>
  </linearGradient>
 </defs>
 <metadata id="metadata4122">
  <rdf:RDF>
   <cc:Work rdf:about="">
    <dc:format>image/svg+xml</dc:format>
    <dc:type rdf:resource="http://purl.org/dc/dcmitype/StillImage"/>
    <dc:title/>
   </cc:Work>
  </rdf:RDF>
 </metadata>
 <g id="g2036" transform="matrix(1.1 0 0 .44444 -2.4 25.111)">
  <g id="g3712" opacity=".4" transform="matrix(1.0526 0 0 1.2857 -1.2632 -13.429)">
   <rect id="rect2801" height="7" width="5" y="40" x="38" fill="url(#radialGradient2873-966-168)"/>
   <rect id="rect3696" transform="scale(-1)" height="7" width="5" y="-47" x="-10" fill="url(#radialGradient2875-742-326)"/>
   <rect id="rect3700" height="7" width="28" y="40" x="10" fill="url(#linearGradient2877-634-617)"/>
  </g>
 </g>
 <path id="path4564-0" opacity=".05" style="color:#000000" d="m22.969 8.1875a2.9359 2.9359 0 0 0 -1.407 0.4063l-11.031 6.375a2.9359 2.9359 0 0 0 -1.406 2.031 2.9359 2.9359 0 0 0 -0.0312 0 2.9359 2.9359 0 0 0 -0.9688 2.188l-0.0625 12.718a2.9359 2.9359 0 0 0 1 2.1875 2.9359 2.9359 0 0 0 0 0.03125 2.9359 2.9359 0 0 0 1.4375 2.0938l11 6.3125a2.9359 2.9359 0 0 0 2.4062 0.21875 2.9359 2.9359 0 0 0 0.03125 0 2.9359 2.9359 0 0 0 2.5 -0.1875l11-6.3438a2.9359 2.9359 0 0 0 1.4062 -2 2.9359 2.9359 0 0 0 1.0938 -2.25v-12.719a2.9359 2.9359 0 0 0 -1 -2.1875 2.9359 2.9359 0 0 0 -1.437 -2.093l-11.031-6.344a2.9359 2.9359 0 0 0 -2.407 -0.25 2.9359 2.9359 0 0 0 -1.093 -0.1875z" fill="url(#linearGradient3098)"/>
 <rect id="rect5505-21" stroke-linejoin="round" height="39" stroke="url(#linearGradient3095)" stroke-linecap="round" fill="url(#radialGradient3093)" style="color:#000000" rx="2" ry="2" width="39" y="5.4674" x="4.5"/>
 <rect id="rect6741-2" stroke-linejoin="round" rx="1" ry="1" height="37" width="37" stroke="url(#linearGradient3084)" stroke-linecap="round" y="6.4674" x="5.5" fill="none"/>
 <g id="layer2" display="none" transform="translate(-135.86 -31.05)">
  <path id="rect3745" opacity=".9" d="m11 7 37-2 37 2c3.324 0 6 2.676 6 6v73c0 3.324-2.676 6-6 6h-74c-3.324 0-6-2.676-6-6v-73c0-3.324 2.676-6 6-6z" filter="url(#filter3174)" fill="url(#ButtonShadow)"/>
 </g>
 <g id="layer4" display="none" transform="translate(-135.86 -31.05)">
  <rect id="rect3790" opacity=".6" transform="matrix(0,-1,1,0,0,4)" rx="2.8125" ry="2.8125" height="30" filter="url(#filter3806)" width="30" y="56" x="-86"/>
  <rect id="rect2993" transform="rotate(-90)" rx="2.8125" ry="2.8125" height="30" width="30" y="56" x="-88" fill="url(#linearGradient3773)"/>
  <path id="rect3775" opacity=".5" d="m58.812 58c-1.558 0-2.812 1.254-2.812 2.812v24.375c0 0.87307 0.41082 1.6412 1.0312 2.1562-0.003-0.053-0.031-0.101-0.031-0.155v-24.375c0-1.559 1.171-2.813 2.625-2.813h22.75c1.454 0 2.625 1.254 2.625 2.812v24.375c0 0.05463-0.02841 0.10241-0.03125 0.15625 0.62-0.514 1.031-1.282 1.031-2.155v-24.375c0-1.559-1.254-2.813-2.812-2.813h-24.375z" fill="url(#linearGradient3788)"/>
  <path id="path3810" opacity=".6" filter="url(#filter3831)" d="m116 63.5v8.75h-5l10 13.75 10-13.75h-5v-8.75h-10z" clip-path="url(#clipPath3823)" transform="translate(-50)" display="inline" fill="url(#linearGradient3812)"/>
  <path id="path4278" d="m66 62.5v8.75h-5l10 13.75 10-13.75h-5v-8.75h-10z" display="inline" fill="url(#linearGradient3832)"/>
 </g>
 <g id="g4521" transform="matrix(1.3822 0 0 1.3846 -4.2307 -9.6154)">
  <path id="path4425" d="m27.159 13.174c-1.5857-0.00011-2.8712 1.2854-2.8711 2.8711 0.0014 0.50134 0.13405 0.99358 0.38476 1.4277-1.2936-1.2298-2.7068-2.5731-3.125-3.002-0.30234-0.31051-0.58284-0.43359-0.89062-0.43359-0.1117 0-0.22192 0.01768-0.3418 0.04492l-4.9277 1.168c-0.68095 0.1607-1.1002 0.84521-0.93945 1.5234 0.13891 0.5829 0.65575 0.97461 1.2305 0.97461 0.09809 0 0.19684-0.01064 0.29492-0.03516l4.1973-0.99414c0.27238 0.30234 1.6369 1.7815 1.8848 2.043-1.7351 1.8576-3.47 3.7127-5.2051 5.5703-0.02724 0.02999-0.05163 0.05987-0.07617 0.08984-0.28627 0.36476-0.35507 0.84396-0.22852 1.2637l-1.716 2.164-4.9157 0.944c-0.71091 0.13619-1.1772 0.82226-1.041 1.5332 0.11985 0.62648 0.66958 1.0625 1.2852 1.0625 0.08171 0 0.16633-0.0091 0.24805-0.02539l5.3945-1.0352c0.30779-0.05992 0.58123-0.22556 0.77734-0.4707l2.0918-2.6367 3.8359 1.959-2.3028 3.7311 0.10423-0.0073 1.6674 2.1297 3.5078-5.6855c0.19339-0.31324 0.24531-0.6916 0.14453-1.043-0.10078-0.3541-0.34229-0.6483-0.67188-0.81445l-3.6035-1.832 3.7871-4.0527 2.8613 2.4238c0.23694 0.20154 0.52766 0.29883 0.81641 0.29883 0.31049 0 0.62089-0.11454 0.86328-0.33789l1.5031-1.4003 0.05741-3.5138-2.457 2.2852c-0.0013 0.0012-1.4383-1.3492-2.9355-2.7656 0.40579 0.20966 0.85575 0.31947 1.3125 0.32031 1.5857 0.00011 2.8712-1.2854 2.8711-2.8711 0.00011-1.5857-1.2854-2.8712-2.8711-2.8711z" fill="#2a2a2a"/>
  <path id="path4302-2" d="m25.998 12c-0.83967 0.01128-1.7208 0.26935-2.6134 0.79347-0.95471 0.56058-2.3561 1.8926-3.1713 3.0143-0.81277 1.1183-0.98176 0.98557-0.315-0.24785 0.55715-1.0307 0.47957-1.2817-0.16017-0.51709-1.0947 1.3084-2.7602 5.5516-3.2746 8.3413-1.0465 5.6755-0.31273 10.11 2.1133 12.77 0.95858 1.0509 1.5267 1.4523 2.4043 1.6993 1.0917 0.30725 2.3684 0.12952 3.6901-0.51442 3.1444-1.532 5.6665-5.7243 6.9558-11.561 0.49318-2.2326 0.49781-5.766 0.0098-7.7226-0.97284-3.9003-3.1198-6.0891-5.6388-6.0554zm-0.29542 2.2057c2.4153-0.03436 3.9221 3.2402 3.4863 7.5772-0.09277 0.92314-0.21441 1.8345-0.27051 2.0256-0.05704 0.19433-0.03507 0.3477 0.04984 0.3477 0.29184 0 0.95256-3.2684 0.9619-4.7582 0.000456-0.11119 0.06309-0.16369 0.13882-0.11678 0.2895 0.17927 0.35231 2.7612 0.11122 4.5665-0.52898 3.9611-1.7823 7.0899-3.6189 9.0358-2.4815 2.6291-5.0368 2.1599-6.6292-1.217-0.27467-0.58246-0.53768-1.0206-0.58461-0.97357-0.12846 0.12872 0.53478 2.0863 0.99482 2.9368 0.60349 1.1156 1.8508 2.1893 2.8127 2.4205 0.43404 0.10434 0.73158 0.24132 0.66114 0.30491-0.23016 0.20778-1.0403 0.27051-1.6693 0.12928-1.6056-0.36049-2.7583-1.8102-3.5006-4.4016-0.29782-1.0399-0.34512-1.5638-0.33902-3.757 0.0099-3.6045 0.57531-6.125 2.0261-9.0349 1.6581-3.3256 3.4875-5.0586 5.3692-5.0854z" fill="#47bde9"/>
  <path id="path4519" d="m24.288 16.046c0.0014 0.50134 0.13405 0.99358 0.38476 1.4277-1.2936-1.2298-2.7068-2.5731-3.125-3.002-0.30234-0.31051-0.58284-0.43359-0.89062-0.43359-0.1117 0-0.22192 0.01768-0.3418 0.04492l-4.9277 1.168c-0.68095 0.1607-1.1002 0.84521-0.93945 1.5234 0.13891 0.5829 0.65575 0.97461 1.2305 0.97461 0.09809 0 0.19684-0.01064 0.29492-0.03516l4.1973-0.99414c0.27238 0.30234 1.6369 1.7815 1.8848 2.043-1.7351 1.8576-3.47 3.7127-5.2051 5.5703-0.02724 0.02999-0.05163 0.05987-0.07617 0.08984-0.28627 0.36476-0.35507 0.84396-0.22852 1.2637l-1.716 2.163-4.9157 0.944c-0.71091 0.13619-1.1772 0.82226-1.041 1.5332 0.11985 0.62648 0.66958 1.0625 1.2852 1.0625 0.08171 0 0.16633-0.0091 0.24805-0.02539l5.3945-1.0352c0.30779-0.05992 0.58123-0.22556 0.77734-0.4707l2.0918-2.6367 3.8359 1.959-1.3978 2.2648 2.2732 1.3088 2.1012-3.4057c0.19339-0.31324 0.24531-0.6916 0.14453-1.043-0.10078-0.3541-0.34229-0.6483-0.67188-0.81445l-3.603-1.832 3.787-4.053 2.861 2.424c0.23694 0.20154 0.52766 0.29883 0.81641 0.29883l-0.03321-2.9668c-0.0013 0.0012-1.4383-1.3492-2.9355-2.7656 0.40579 0.20966 0.85575 0.31947 1.3125 0.32031z" fill="#2a2a2a"/>
 </g>
</svg>
