<?xml version="1.0" encoding="UTF-8" standalone="no"?>
<!-- Created with Inkscape (http://www.inkscape.org/) -->

<svg
   xmlns:dc="http://purl.org/dc/elements/1.1/"
   xmlns:cc="http://creativecommons.org/ns#"
   xmlns:rdf="http://www.w3.org/1999/02/22-rdf-syntax-ns#"
   xmlns:svg="http://www.w3.org/2000/svg"
   xmlns="http://www.w3.org/2000/svg"
   xmlns:xlink="http://www.w3.org/1999/xlink"
   xmlns:sodipodi="http://sodipodi.sourceforge.net/DTD/sodipodi-0.dtd"
   xmlns:inkscape="http://www.inkscape.org/namespaces/inkscape"
   version="1.1"
   width="48"
   height="48"
   id="svg4117"
   inkscape:version="0.91 r"
   sodipodi:docname="portal.svg">
  <sodipodi:namedview
     pagecolor="#ffffff"
     bordercolor="#666666"
     borderopacity="1"
     objecttolerance="10"
     gridtolerance="10"
     guidetolerance="10"
     inkscape:pageopacity="0"
     inkscape:pageshadow="2"
     inkscape:window-width="1600"
     inkscape:window-height="845"
     id="namedview93"
     showgrid="false"
     inkscape:zoom="1"
     inkscape:cx="21.215116"
     inkscape:cy="26.06521"
     inkscape:window-x="0"
     inkscape:window-y="30"
     inkscape:window-maximized="1"
     inkscape:current-layer="svg4117" />
  <defs
     id="defs4119">
    <linearGradient
       id="linearGradient4019">
      <stop
         id="stop4021"
         style="stop-color:#000000;stop-opacity:1"
         offset="0" />
      <stop
         id="stop4023"
         style="stop-color:#000000;stop-opacity:0"
         offset="1" />
    </linearGradient>
    <linearGradient
       id="linearGradient3924">
      <stop
         id="stop3926"
         style="stop-color:#ffffff;stop-opacity:1"
         offset="0" />
      <stop
         id="stop3928"
         style="stop-color:#ffffff;stop-opacity:0.23529412"
         offset="0.06316455" />
      <stop
         id="stop3930"
         style="stop-color:#ffffff;stop-opacity:0.15686275"
         offset="0.95056331" />
      <stop
         id="stop3932"
         style="stop-color:#ffffff;stop-opacity:0.39215687"
         offset="1" />
    </linearGradient>
    <radialGradient
       cx="4.9929786"
       cy="43.5"
       r="2.5"
       fx="4.9929786"
       fy="43.5"
       id="radialGradient2873-966-168"
       xlink:href="#linearGradient3688-166-749"
       gradientUnits="userSpaceOnUse"
       gradientTransform="matrix(2.003784,0,0,1.4,27.98813,-17.4)" />
    <linearGradient
       id="linearGradient3688-166-749">
      <stop
         id="stop2883"
         style="stop-color:#181818;stop-opacity:1"
         offset="0" />
      <stop
         id="stop2885"
         style="stop-color:#181818;stop-opacity:0"
         offset="1" />
    </linearGradient>
    <radialGradient
       cx="4.9929786"
       cy="43.5"
       r="2.5"
       fx="4.9929786"
       fy="43.5"
       id="radialGradient2875-742-326"
       xlink:href="#linearGradient3688-464-309"
       gradientUnits="userSpaceOnUse"
       gradientTransform="matrix(2.003784,0,0,1.4,-20.01187,-104.4)" />
    <linearGradient
       id="linearGradient3688-464-309">
      <stop
         id="stop2889"
         style="stop-color:#181818;stop-opacity:1"
         offset="0" />
      <stop
         id="stop2891"
         style="stop-color:#181818;stop-opacity:0"
         offset="1" />
    </linearGradient>
    <linearGradient
       x1="25.058096"
       y1="47.027729"
       x2="25.058096"
       y2="39.999443"
       id="linearGradient2877-634-617"
       xlink:href="#linearGradient3702-501-757"
       gradientUnits="userSpaceOnUse" />
    <linearGradient
       id="linearGradient3702-501-757">
      <stop
         id="stop2895"
         style="stop-color:#181818;stop-opacity:0"
         offset="0" />
      <stop
         id="stop2897"
         style="stop-color:#181818;stop-opacity:1"
         offset="0.5" />
      <stop
         id="stop2899"
         style="stop-color:#181818;stop-opacity:0"
         offset="1" />
    </linearGradient>
    <filter
       color-interpolation-filters="sRGB"
       id="filter3831">
      <feGaussianBlur
         id="feGaussianBlur3833"
         stdDeviation="0.6375" />
    </filter>
    <clipPath
       id="clipPath3823">
      <path
         d="M 108.8125,58 C 107.25437,58 106,59.254375 106,60.8125 l 0,24.375 C 106,86.745625 107.25437,88 108.8125,88 l 24.375,0 C 134.74562,88 136,86.745625 136,85.1875 l 0,-24.375 C 136,59.254375 134.74562,58 133.1875,58 l -24.375,0 z m 7.1875,4.5 10,0 0,8.75 5,0 -10,13.75 -10,-13.75 5,0 0,-8.75 z"
         inkscape:connector-curvature="0"
         id="path3825"
         style="fill:#ffffff;fill-opacity:1;stroke:none" />
    </clipPath>
    <linearGradient
       x1="65.262688"
       y1="64.205269"
       x2="65.262688"
       y2="50.068527"
       id="linearGradient3812"
       xlink:href="#linearGradient5010"
       gradientUnits="userSpaceOnUse"
       gradientTransform="matrix(0.625,0,0,0.625,78.5,32.25)" />
    <filter
       color-interpolation-filters="sRGB"
       id="filter3806">
      <feGaussianBlur
         id="feGaussianBlur3808"
         stdDeviation="1.2" />
    </filter>
    <linearGradient
       x1="70"
       y1="54"
       x2="70"
       y2="75.095024"
       id="linearGradient3788"
       xlink:href="#linearGradient3737"
       gradientUnits="userSpaceOnUse"
       gradientTransform="translate(0,4)" />
    <linearGradient
       x1="56"
       y1="72"
       x2="88"
       y2="72"
       id="linearGradient3773"
       xlink:href="#linearGradient3778"
       gradientUnits="userSpaceOnUse"
       gradientTransform="matrix(0.9375,0,0,0.9375,-140.5,3.5)" />
    <linearGradient
       x1="65.262688"
       y1="64.205269"
       x2="65.262688"
       y2="50.068527"
       id="linearGradient3832"
       xlink:href="#linearGradient3737"
       gradientUnits="userSpaceOnUse"
       gradientTransform="matrix(0.625,0,0,0.625,28.5,31.25)" />
    <filter
       color-interpolation-filters="sRGB"
       id="filter3174">
      <feGaussianBlur
         id="feGaussianBlur3176"
         stdDeviation="1.71" />
    </filter>
    <linearGradient
       id="linearGradient3737">
      <stop
         id="stop3739"
         style="stop-color:#ffffff;stop-opacity:1"
         offset="0" />
      <stop
         id="stop3741"
         style="stop-color:#ffffff;stop-opacity:0"
         offset="1" />
    </linearGradient>
    <linearGradient
       x1="45.447727"
       y1="92.539597"
       x2="45.447727"
       y2="7.0165396"
       id="ButtonShadow"
       gradientUnits="userSpaceOnUse"
       gradientTransform="scale(1.0058652,0.994169)">
      <stop
         id="stop3750"
         style="stop-color:#000000;stop-opacity:1"
         offset="0" />
      <stop
         id="stop3752"
         style="stop-color:#000000;stop-opacity:0.58823532"
         offset="1" />
    </linearGradient>
    <linearGradient
       id="linearGradient5010">
      <stop
         id="stop5012"
         style="stop-color:#000000;stop-opacity:1"
         offset="0" />
      <stop
         id="stop5014"
         style="stop-color:#000000;stop-opacity:0"
         offset="1" />
    </linearGradient>
    <linearGradient
       id="linearGradient3778">
      <stop
         id="stop3780"
         style="stop-color:#499119;stop-opacity:1"
         offset="0" />
      <stop
         id="stop3782"
         style="stop-color:#8fd625;stop-opacity:1"
         offset="1" />
    </linearGradient>
    <linearGradient
       id="linearGradient3104">
      <stop
         id="stop3106"
         style="stop-color:#aaaaaa;stop-opacity:1"
         offset="0" />
      <stop
         id="stop3108"
         style="stop-color:#c8c8c8;stop-opacity:1"
         offset="1" />
    </linearGradient>
    <linearGradient
       id="linearGradient3600">
      <stop
         id="stop3602"
         style="stop-color:#f4f4f4;stop-opacity:1"
         offset="0" />
      <stop
         id="stop3604"
         style="stop-color:#dbdbdb;stop-opacity:1"
         offset="1" />
    </linearGradient>
    <linearGradient
       id="linearGradient3104-5">
      <stop
         id="stop3106-9"
         style="stop-color:#aaaaaa;stop-opacity:1"
         offset="0" />
      <stop
         id="stop3108-8"
         style="stop-color:#c8c8c8;stop-opacity:1"
         offset="1" />
    </linearGradient>
    <linearGradient
       x1="23.99999"
       y1="4.999989"
       x2="23.99999"
       y2="43"
       id="linearGradient3084"
       xlink:href="#linearGradient3924"
       gradientUnits="userSpaceOnUse"
       gradientTransform="translate(2.4e-6,0.9674489)" />
    <radialGradient
       cx="7.4956832"
       cy="8.4497671"
       r="19.99999"
       fx="7.4956832"
       fy="8.4497671"
       id="radialGradient3093"
       xlink:href="#linearGradient3600"
       gradientUnits="userSpaceOnUse"
       gradientTransform="matrix(0,1.9392804,-2.0515274,-5.2784231e-8,41.335037,-8.4862548)" />
    <linearGradient
       x1="24"
       y1="44"
       x2="24"
       y2="3.8990016"
       id="linearGradient3095"
       xlink:href="#linearGradient3104"
       gradientUnits="userSpaceOnUse"
       gradientTransform="translate(-6e-7,0.9674389)" />
    <linearGradient
       x1="20"
       y1="43"
       x2="20"
       y2="3"
       id="linearGradient3098"
       xlink:href="#linearGradient3104-5"
       gradientUnits="userSpaceOnUse" />
    <linearGradient
       x1="25.811359"
       y1="11.243645"
       x2="25.811359"
       y2="20.3125"
       id="linearGradient4037"
       xlink:href="#linearGradient4019"
       gradientUnits="userSpaceOnUse" />
    <linearGradient
       x1="15.666173"
       y1="19.527954"
       x2="15.666173"
       y2="31.61681"
       id="linearGradient4041"
       xlink:href="#linearGradient4019"
       gradientUnits="userSpaceOnUse" />
    <linearGradient
       x1="25.065281"
       y1="30.795345"
       x2="25.065281"
       y2="39.562374"
       id="linearGradient4044"
       xlink:href="#linearGradient4019"
       gradientUnits="userSpaceOnUse" />
    <clipPath
       id="clipPath-006527871">
      <g
         transform="translate(0,-1004.3622)"
         id="g17">
        <path
           style="fill:#1890d0"
           inkscape:connector-curvature="0"
           d="m -24,13 c 0,1.105 -0.672,2 -1.5,2 -0.828,0 -1.5,-0.895 -1.5,-2 0,-1.105 0.672,-2 1.5,-2 0.828,0 1.5,0.895 1.5,2 z"
           transform="matrix(15.333333,0,0,11.5,414.99999,878.8622)"
           id="path19" />
      </g>
    </clipPath>
    <inkscape:perspective
       id="perspective31"
       inkscape:persp3d-origin="75 : 50 : 1"
       inkscape:vp_z="150 : 75 : 1"
       inkscape:vp_y="0 : 1000 : 0"
       inkscape:vp_x="0 : 75 : 1"
       sodipodi:type="inkscape:persp3d" />
    <linearGradient
       id="gradient">
      <stop
         style="stop-color:#f86714;stop-opacity:1"
         id="orange"
         offset="0" />
      <stop
         style="stop-color:#ffffff;stop-opacity:1"
         id="white"
         offset="1" />
    </linearGradient>
    <linearGradient
       id="gradientinv">
      <stop
         style="stop-color:#ffffff;stop-opacity:1"
         offset="0"
         id="white_" />
      <stop
         style="stop-color:#f86714;stop-opacity:1"
         id="orange_"
         offset="1" />
    </linearGradient>
    <linearGradient
       gradientUnits="userSpaceOnUse"
       y2="131.69147"
       x2="161.89355"
       y1="131.69147"
       x1="140.64503"
       gradientTransform="matrix(0.9883037,0,0,1.0118347,-52,-52)"
       id="linearGradient2454"
       xlink:href="#gradientinv"
       inkscape:collect="always" />
  </defs>
  <metadata
     id="metadata4122">
    <rdf:RDF>
      <cc:Work
         rdf:about="">
        <dc:format>image/svg+xml</dc:format>
        <dc:type
           rdf:resource="http://purl.org/dc/dcmitype/StillImage" />
        <dc:title></dc:title>
      </cc:Work>
    </rdf:RDF>
  </metadata>
  <g
     transform="matrix(1.1,0,0,0.4444449,-2.4000022,25.11107)"
     id="g2036"
     style="display:inline">
    <g
       transform="matrix(1.052632,0,0,1.285713,-1.263158,-13.42854)"
       id="g3712"
       style="opacity:0.4">
      <rect
         width="5"
         height="7"
         x="38"
         y="40"
         id="rect2801"
         style="fill:url(#radialGradient2873-966-168);fill-opacity:1;stroke:none" />
      <rect
         width="5"
         height="7"
         x="-10"
         y="-47"
         transform="scale(-1,-1)"
         id="rect3696"
         style="fill:url(#radialGradient2875-742-326);fill-opacity:1;stroke:none" />
      <rect
         width="28"
         height="7.0000005"
         x="10"
         y="40"
         id="rect3700"
         style="fill:url(#linearGradient2877-634-617);fill-opacity:1;stroke:none" />
    </g>
  </g>
  <path
     d="M 22.96875,8.1875 A 2.9359229,2.9359229 0 0 0 21.5625,8.59375 l -11.03125,6.375 A 2.9359229,2.9359229 0 0 0 9.125,17 2.9359229,2.9359229 0 0 0 9.09375,17 2.9359229,2.9359229 0 0 0 8.125,19.1875 L 8.0625,31.90625 a 2.9359229,2.9359229 0 0 0 1,2.1875 2.9359229,2.9359229 0 0 0 0,0.03125 2.9359229,2.9359229 0 0 0 1.4375,2.09375 l 11,6.3125 a 2.9359229,2.9359229 0 0 0 2.40625,0.21875 2.9359229,2.9359229 0 0 0 0.03125,0 2.9359229,2.9359229 0 0 0 2.5,-0.1875 l 11,-6.34375 a 2.9359229,2.9359229 0 0 0 1.40625,-2 2.9359229,2.9359229 0 0 0 1.09375,-2.25 l 0,-12.71875 a 2.9359229,2.9359229 0 0 0 -1,-2.1875 A 2.9359229,2.9359229 0 0 0 37.5,14.96875 L 26.46875,8.625 A 2.9359229,2.9359229 0 0 0 24.0625,8.375 2.9359229,2.9359229 0 0 0 22.96875,8.1875 z"
     inkscape:connector-curvature="0"
     id="path4564-0"
     style="opacity:0.05;color:#000000;fill:url(#linearGradient3098);fill-opacity:1;fill-rule:nonzero;stroke:none;stroke-width:1;marker:none;visibility:visible;display:inline;overflow:visible;enable-background:accumulate" />
  <rect
     width="39"
     height="39"
     rx="2"
     ry="2"
     x="4.5"
     y="5.4674392"
     id="rect5505-21"
     style="color:#000000;fill:url(#radialGradient3093);fill-opacity:1;fill-rule:nonzero;stroke:url(#linearGradient3095);stroke-width:1;stroke-linecap:round;stroke-linejoin:round;stroke-miterlimit:4;stroke-opacity:1;stroke-dasharray:none;stroke-dashoffset:0;marker:none;visibility:visible;display:inline;overflow:visible;enable-background:accumulate" />
  <rect
     width="37"
     height="37"
     rx="1"
     ry="1"
     x="5.5"
     y="6.4674392"
     id="rect6741-2"
     style="fill:none;stroke:url(#linearGradient3084);stroke-width:1;stroke-linecap:round;stroke-linejoin:round;stroke-miterlimit:4;stroke-opacity:1;stroke-dasharray:none;stroke-dashoffset:0" />
  <g
     transform="translate(-135.85714,-31.05041)"
     id="layer2"
     style="display:none">
    <path
       d="M 11,7 48,5 85,7 c 3.324,0 6,2.676 6,6 l 0,73 c 0,3.324 -2.676,6 -6,6 L 11,92 C 7.676,92 5,89.324 5,86 L 5,13 C 5,9.676 7.676,7 11,7 z"
       inkscape:connector-curvature="0"
       id="rect3745"
       style="opacity:0.9;fill:url(#ButtonShadow);fill-opacity:1;fill-rule:nonzero;stroke:none;filter:url(#filter3174)" />
  </g>
  <g
     transform="translate(-135.85714,-31.05041)"
     id="layer4"
     style="display:none">
    <rect
       width="30"
       height="30"
       rx="2.8125"
       ry="2.8125"
       x="-86"
       y="56"
       transform="matrix(0,-1,1,0,0,4)"
       id="rect3790"
       style="opacity:0.6;fill:#000000;fill-opacity:1;stroke:none;filter:url(#filter3806)" />
    <rect
       width="30"
       height="30"
       rx="2.8125"
       ry="2.8125"
       x="-88"
       y="56"
       transform="matrix(0,-1,1,0,0,0)"
       id="rect2993"
       style="fill:url(#linearGradient3773);fill-opacity:1;stroke:none" />
    <path
       d="M 58.8125,58 C 57.254375,58 56,59.254375 56,60.8125 l 0,24.375 c 0,0.873066 0.410816,1.641163 1.03125,2.15625 C 57.02841,87.289908 57,87.242129 57,87.1875 l 0,-24.375 C 57,61.254375 58.17075,60 59.625,60 l 22.75,0 C 83.82925,60 85,61.254375 85,62.8125 l 0,24.375 c 0,0.05463 -0.02841,0.102408 -0.03125,0.15625 C 85.589184,86.828663 86,86.060566 86,85.1875 l 0,-24.375 C 86,59.254375 84.745625,58 83.1875,58 l -24.375,0 z"
       inkscape:connector-curvature="0"
       id="rect3775"
       style="opacity:0.5;fill:url(#linearGradient3788);fill-opacity:1;stroke:none" />
    <path
       d="m 116,63.5 0,8.75 -5,0 10,13.75 10,-13.75 -5,0 0,-8.75 -10,0 z"
       inkscape:connector-curvature="0"
       transform="translate(-50,0)"
       clip-path="url(#clipPath3823)"
       id="path3810"
       style="opacity:0.6;fill:url(#linearGradient3812);fill-opacity:1;fill-rule:nonzero;stroke:none;display:inline;filter:url(#filter3831)" />
    <path
       d="m 66,62.5 0,8.75 -5,0 10,13.75 10,-13.75 -5,0 0,-8.75 -10,0 z"
       inkscape:connector-curvature="0"
       id="path4278"
       style="fill:url(#linearGradient3832);fill-opacity:1;fill-rule:nonzero;stroke:none;display:inline" />
  </g>
  <g
     id="g4431"
     transform="matrix(0.02723809,0,0,0.02723809,8.4657453,11.359416)" />
  <g
     id="g4433"
     transform="matrix(0.02723809,0,0,0.02723809,8.4657453,11.359416)" />
  <g
     id="g4435"
     transform="matrix(0.02723809,0,0,0.02723809,8.4657453,11.359416)" />
  <g
     id="g4437"
     transform="matrix(0.02723809,0,0,0.02723809,8.4657453,11.359416)" />
  <g
     id="g4439"
     transform="matrix(0.02723809,0,0,0.02723809,8.4657453,11.359416)" />
  <g
     id="g4441"
     transform="matrix(0.02723809,0,0,0.02723809,8.4657453,11.359416)" />
  <g
     id="g4443"
     transform="matrix(0.02723809,0,0,0.02723809,8.4657453,11.359416)" />
  <g
     id="g4445"
     transform="matrix(0.02723809,0,0,0.02723809,8.4657453,11.359416)" />
  <g
     id="g4447"
     transform="matrix(0.02723809,0,0,0.02723809,8.4657453,11.359416)" />
  <g
     id="g4449"
     transform="matrix(0.02723809,0,0,0.02723809,8.4657453,11.359416)" />
  <g
     id="g4451"
     transform="matrix(0.02723809,0,0,0.02723809,8.4657453,11.359416)" />
  <g
     id="g4453"
     transform="matrix(0.02723809,0,0,0.02723809,8.4657453,11.359416)" />
  <g
     id="g4455"
     transform="matrix(0.02723809,0,0,0.02723809,8.4657453,11.359416)" />
  <g
     id="g4457"
     transform="matrix(0.02723809,0,0,0.02723809,8.4657453,11.359416)" />
  <g
     id="g4459"
     transform="matrix(0.02723809,0,0,0.02723809,8.4657453,11.359416)" />
  <g
     id="g4521"
     transform="matrix(1.382208,0,0,1.3846154,-4.2306531,-9.6153845)">
    <path
       style="fill:#2a2a2a;fill-opacity:1"
       sodipodi:nodetypes="ccccscccscccccccccsccccccccccccccscccccccc"
       inkscape:connector-curvature="0"
       id="path4425"
       d="m 27.159376,13.174489 c -1.585707,-1.1e-4 -2.871203,1.285387 -2.871093,2.871094 0.0014,0.501343 0.134047,0.993582 0.384765,1.427734 -1.293625,-1.229836 -2.70677,-2.573135 -3.125,-3.001953 -0.302342,-0.310514 -0.582835,-0.433593 -0.890625,-0.433593 -0.111703,0 -0.221922,0.01768 -0.341797,0.04492 l -4.927734,1.167968 c -0.680953,0.160704 -1.100158,0.845209 -0.939453,1.523438 0.138914,0.582895 0.655746,0.974609 1.230469,0.974609 0.09809,0 0.196837,-0.01064 0.294922,-0.03516 l 4.197265,-0.994141 c 0.272381,0.302342 1.6369,1.781484 1.884766,2.042969 -1.735066,1.857638 -3.469984,3.712674 -5.205078,5.570313 -0.02724,0.02999 -0.05163,0.05987 -0.07617,0.08984 -0.286266,0.364758 -0.355072,0.843958 -0.228516,1.263672 L 14.8293,27.850262 9.9132841,28.793621 c -0.710914,0.136191 -1.1772065,0.822261 -1.041016,1.533203 0.1198474,0.626476 0.669575,1.0625 1.2851559,1.0625 0.08171,0 0.166333,-0.0091 0.248047,-0.02539 l 5.394532,-1.035157 c 0.307791,-0.05992 0.581229,-0.22556 0.777344,-0.470703 l 2.091797,-2.636719 3.835938,1.958985 -2.302836,3.731114 0.104233,-0.0073 1.667353,2.129727 3.507812,-5.685547 c 0.19339,-0.313237 0.245312,-0.691596 0.144531,-1.042968 -0.100781,-0.354095 -0.342294,-0.6483 -0.671875,-0.814453 l -3.603515,-1.832032 3.787109,-4.052734 2.861328,2.423828 c 0.236944,0.201535 0.527655,0.298828 0.816406,0.298828 0.310487,0 0.620891,-0.114538 0.863282,-0.33789 l 1.503136,-1.400304 0.05741,-3.513759 -2.457031,2.285156 c -0.0013,0.0012 -1.438303,-1.349209 -2.935547,-2.765625 0.40579,0.209659 0.855749,0.31947 1.3125,0.320313 1.585707,1.1e-4 2.871204,-1.285387 2.871094,-2.871094 1.1e-4,-1.585707 -1.285387,-2.871204 -2.871093,-2.871085 z" />
    <path
       inkscape:connector-curvature="0"
       id="path4302-2"
       d="m 25.998104,12.000383 c -0.839674,0.01128 -1.720794,0.269353 -2.613409,0.793474 -0.954707,0.560582 -2.356056,1.892596 -3.171335,3.014314 -0.812771,1.118272 -0.981759,0.985572 -0.314997,-0.247849 0.557148,-1.030662 0.479571,-1.28172 -0.160167,-0.517094 -1.09474,1.308445 -2.760159,5.55162 -3.274551,8.341294 -1.046521,5.675533 -0.31273,10.109966 2.11333,12.769599 0.958585,1.050874 1.526747,1.452305 2.404304,1.699286 1.091706,0.307251 2.368398,0.129523 3.690101,-0.514422 3.144443,-1.532005 5.666452,-5.724349 6.955754,-11.560664 0.493175,-2.232556 0.497809,-5.766015 0.0098,-7.722562 -0.972835,-3.900259 -3.119789,-6.08906 -5.638815,-6.055376 z m -0.295419,2.205681 c 2.41527,-0.03436 3.92212,3.240172 3.486331,7.577242 -0.09277,0.923137 -0.214407,1.834466 -0.270508,2.025591 -0.05704,0.194328 -0.03507,0.347701 0.04984,0.347701 0.291836,0 0.95256,-3.268427 0.961898,-4.758175 4.56e-4,-0.11119 0.06309,-0.163692 0.138819,-0.116784 0.289503,0.17927 0.35231,2.7612 0.111224,4.566498 -0.528977,3.961124 -1.782269,7.089929 -3.618915,9.035808 -2.481517,2.629092 -5.036802,2.159855 -6.62919,-1.216958 -0.27467,-0.582463 -0.537678,-1.020595 -0.584612,-0.973568 -0.128461,0.128722 0.534785,2.086331 0.994822,2.93675 0.603493,1.115606 1.850752,2.189324 2.812735,2.420544 0.43404,0.104336 0.731581,0.241317 0.661137,0.304909 -0.230159,0.207783 -1.040261,0.270507 -1.669308,0.129285 -1.605646,-0.36049 -2.758338,-1.810166 -3.500572,-4.401558 -0.297818,-1.039857 -0.345125,-1.563796 -0.339022,-3.756972 0.0099,-3.604459 0.575311,-6.125049 2.026133,-9.034916 1.658111,-3.325606 3.48754,-5.058587 5.369198,-5.085375 z"
       style="fill:#47bde9" />
    <path
       sodipodi:nodetypes="cccscccscccccccccscccccccccccccccccc"
       style="opacity:1;fill:#2a2a2a;fill-opacity:1"
       d="m 24.288283,16.045634 c 0.0014,0.501343 0.134047,0.993582 0.384765,1.427734 -1.293625,-1.229836 -2.70677,-2.573135 -3.125,-3.001953 -0.302342,-0.310514 -0.582835,-0.433593 -0.890625,-0.433593 -0.111703,0 -0.221922,0.01768 -0.341797,0.04492 l -4.927734,1.167968 c -0.680953,0.160704 -1.100158,0.845209 -0.939453,1.523438 0.138914,0.582895 0.655746,0.974609 1.230469,0.974609 0.09809,0 0.196837,-0.01064 0.294922,-0.03516 l 4.197265,-0.994141 c 0.272381,0.302342 1.6369,1.781484 1.884766,2.042969 -1.735066,1.857638 -3.469984,3.712674 -5.205078,5.570313 -0.02724,0.02999 -0.05163,0.05987 -0.07617,0.08984 -0.286266,0.364758 -0.355072,0.843958 -0.228516,1.263672 L 14.8293,27.850313 9.9132841,28.793672 c -0.710914,0.136191 -1.1772065,0.822261 -1.041016,1.533203 0.1198474,0.626476 0.669575,1.0625 1.2851559,1.0625 0.08171,0 0.166333,-0.0091 0.248047,-0.02539 l 5.394532,-1.035157 c 0.307791,-0.05992 0.581229,-0.22556 0.777344,-0.470703 l 2.091797,-2.636719 3.835938,1.958985 -1.397836,2.264811 2.273211,1.308811 2.101187,-3.405654 c 0.19339,-0.313237 0.245312,-0.691596 0.144531,-1.042968 -0.100781,-0.354095 -0.342294,-0.6483 -0.671875,-0.814453 L 21.350785,25.658906 25.137894,21.606172 27.999222,24.03 c 0.236944,0.201535 0.527655,0.298828 0.816406,0.298828 l -0.03321,-2.966797 c -0.0013,0.0012 -1.438303,-1.349209 -2.935547,-2.765625 0.40579,0.209659 0.855749,0.31947 1.3125,0.320313 z"
       id="path4519"
       inkscape:connector-curvature="0" />
  </g>
</svg>
