<?xml version="1.0" encoding="UTF-8" standalone="no"?>
<!-- Created with Inkscape (http://www.inkscape.org/) -->
<svg id="svg4951" xmlns:rdf="http://www.w3.org/1999/02/22-rdf-syntax-ns#" xmlns="http://www.w3.org/2000/svg" height="48px" width="48px" version="1.1" xmlns:cc="http://creativecommons.org/ns#" xmlns:xlink="http://www.w3.org/1999/xlink" xmlns:dc="http://purl.org/dc/elements/1.1/">
 <defs id="defs4953">
  <linearGradient id="linearGradient3214" y2="40.496" gradientUnits="userSpaceOnUse" x2="71.204" gradientTransform="matrix(1.617 0 0 1.617 -92.707 -21.06)" y1="15.369" x1="71.204">
   <stop id="stop4808-4" stop-color="#fff" offset="0"/>
   <stop id="stop4810-0" stop-color="#fff" stop-opacity=".23529" offset=".42448"/>
   <stop id="stop4812-8" stop-color="#fff" stop-opacity=".15686" offset=".82090"/>
   <stop id="stop4814-0" stop-color="#fff" stop-opacity=".39216" offset="1"/>
  </linearGradient>
  <radialGradient id="radialGradient3217" gradientUnits="userSpaceOnUse" cy="3.99" cx="23.896" gradientTransform="matrix(0 2.8885 -3.8128 0 39.213 -65.95)" r="20.397">
   <stop id="stop3244-9-33-7-0-6" stop-color="#9cdd66" offset="0"/>
   <stop id="stop3248-1-7-8-8-6" stop-color="#386727" offset=".66094"/>
   <stop id="stop3250-9-3-0-5-2" stop-color="#2e5527" offset="1"/>
  </radialGradient>
  <radialGradient id="radialGradient3220" gradientUnits="userSpaceOnUse" cy="186.17" cx="99.157" gradientTransform="matrix(.27083 0 0 .087623 -2.8551 25.187)" r="62.769">
   <stop id="stop3822-2-6-3" stop-color="#3d3d3d" offset="0"/>
   <stop id="stop3864-8-7-7" stop-color="#686868" stop-opacity=".49804" offset=".5"/>
   <stop id="stop3824-1-2-5" stop-color="#686868" stop-opacity="0" offset="1"/>
  </radialGradient>
 </defs>
 <metadata id="metadata4956">
  <rdf:RDF>
   <cc:Work rdf:about="">
    <dc:format>image/svg+xml</dc:format>
    <dc:type rdf:resource="http://purl.org/dc/dcmitype/StillImage"/>
    <dc:title/>
   </cc:Work>
  </rdf:RDF>
 </metadata>
 <g id="layer1">
  <path id="path3818-0-5" d="m41 41.5a17 5.5 0 0 1 -34 0 17 5.5 0 1 1 34 0z" fill="url(#radialGradient3220)"/>
  <path id="path2555-7-2" style="color:#000000" d="m24 3.5c-11.311 0-20.5 9.1888-20.5 20.5s9.1888 20.5 20.5 20.5 20.5-9.1888 20.5-20.5-9.189-20.5-20.5-20.5z" fill="url(#radialGradient3217)"/>
  <path id="path4176" opacity=".3" stroke-linejoin="round" style="color:#000000" d="m43.5 24c0 10.77-8.73 19.5-19.5 19.5s-19.5-8.73-19.5-19.5 8.73-19.5 19.5-19.5 19.5 8.73 19.5 19.5z" stroke="url(#linearGradient3214)" stroke-linecap="round" fill="none"/>
  <path id="path3871" opacity=".7" style="color:#000000" d="m24 3.5c-11.311 0-20.5 9.189-20.5 20.5s9.189 20.5 20.5 20.5 20.5-9.189 20.5-20.5-9.189-20.5-20.5-20.5z" stroke="#386727" fill="none"/>
  <path id="path4386" opacity=".15" d="m12.871 15-0.43303 0.44556-0.4377 0.44084v9.0961c0 10.163-0.05634 9.6186 1.0477 9.883 0.75893 0.18171 3.5566 0.17848 4.2047-0.0044 1.0505-0.29698 1.0188 0.04235 0.97318-10.092l-0.042-9.04-0.419-0.365c-0.402-0.351-0.503-0.365-2.654-0.365h-2.2397zm7.5992 0-0.4377 0.44556-0.43771 0.45031 0.03727 9.0961 0.04189 9.0961 0.35389 0.38394c0.19448 0.21068 0.52972 0.41583 0.74502 0.45504 0.21528 0.03925 2.3021 0.04573 4.6377 0.01897 4.7633-0.0544 5.2128-0.12175 7.2267-1.1281 4.3908-2.1941 6.4647-7.507 4.7774-12.239-1.1143-3.125-3.6499-5.439-6.8821-6.2805-1.0152-0.26432-1.66-0.29862-5.6062-0.29862h-4.4561z"/>
  <path id="path3075" fill="#2e2e2e" d="m12.871 14-0.43303 0.44556-0.4377 0.44084v9.0961c0 10.163-0.05634 9.6186 1.0477 9.883 0.75893 0.18171 3.5566 0.17848 4.2047-0.0044 1.0505-0.29698 1.0188 0.04235 0.97318-10.092l-0.042-9.04-0.419-0.365c-0.402-0.351-0.503-0.365-2.654-0.365h-2.2397zm7.5992 0-0.4377 0.44556-0.43771 0.45031 0.03727 9.0961 0.04189 9.0961 0.35389 0.38394c0.19448 0.21068 0.52972 0.41583 0.74502 0.45504 0.21528 0.03925 2.3021 0.04573 4.6377 0.01897 4.7633-0.0544 5.2128-0.12175 7.2267-1.1281 4.3908-2.1941 6.4647-7.507 4.7774-12.239-1.1143-3.125-3.6499-5.439-6.8821-6.2805-1.0152-0.26432-1.66-0.29862-5.6062-0.29862h-4.4561z"/>
 </g>
</svg>
