<?xml version="1.0" encoding="UTF-8" standalone="no"?>
<!-- Created with Inkscape (http://www.inkscape.org/) -->
<svg id="svg4031" xmlns:rdf="http://www.w3.org/1999/02/22-rdf-syntax-ns#" xmlns="http://www.w3.org/2000/svg" height="48" width="48" version="1.1" xmlns:cc="http://creativecommons.org/ns#" xmlns:xlink="http://www.w3.org/1999/xlink" xmlns:dc="http://purl.org/dc/elements/1.1/">
 <defs id="defs4033">
  <linearGradient id="linearGradient3012" y2="44.341" gradientUnits="userSpaceOnUse" x2="71.204" gradientTransform="matrix(1.0541 0 0 1.0541 -51.611 -2.7279)" y1="6.2376" x1="71.204">
   <stop id="stop4013" stop-color="#fff" offset="0"/>
   <stop id="stop4015" stop-color="#fff" stop-opacity=".23529" offset=".50776"/>
   <stop id="stop4017" stop-color="#fff" stop-opacity=".15686" offset=".83457"/>
   <stop id="stop4019" stop-color="#fff" stop-opacity=".39216" offset="1"/>
  </linearGradient>
  <radialGradient id="radialGradient3015" gradientUnits="userSpaceOnUse" cy="8.4498" cx="3.9722" gradientTransform="matrix(0 2.4988 -2.6435 -6.8014e-8 46.337 -12.18)" r="20">
   <stop id="stop3750-8-9" stop-color="#90dbec" offset="0"/>
   <stop id="stop3752-3-2" stop-color="#42baea" offset=".26238"/>
   <stop id="stop3754-7-2" stop-color="#3689e6" offset=".70495"/>
   <stop id="stop3756-9-3" stop-color="#2b63a0" offset="1"/>
  </radialGradient>
  <radialGradient id="radialGradient3018" gradientUnits="userSpaceOnUse" cy="186.17" cx="99.157" gradientTransform="matrix(.27083 0 0 .087623 -2.8551 25.187)" r="62.769">
   <stop id="stop3822-2-6-3" stop-color="#3d3d3d" offset="0"/>
   <stop id="stop3864-8-7-7" stop-color="#686868" stop-opacity=".49804" offset=".5"/>
   <stop id="stop3824-1-2-5" stop-color="#686868" stop-opacity="0" offset="1"/>
  </radialGradient>
 </defs>
 <metadata id="metadata4036">
  <rdf:RDF>
   <cc:Work rdf:about="">
    <dc:format>image/svg+xml</dc:format>
    <dc:type rdf:resource="http://purl.org/dc/dcmitype/StillImage"/>
    <dc:title/>
   </cc:Work>
  </rdf:RDF>
 </metadata>
 <path id="path3818-0-5" fill="url(#radialGradient3018)" d="m41 41.5a17 5.5 0 1 1 -34 0 17 5.5 0 1 1 34 0z"/>
 <path id="path2555" style="color:#000000" d="m24 3.5c-11.311 0-20.5 9.189-20.5 20.5s9.189 20.5 20.5 20.5 20.5-9.189 20.5-20.5-9.189-20.5-20.5-20.5z" fill="url(#radialGradient3015)"/>
 <path id="path8655" opacity=".5" stroke-linejoin="round" style="color:#000000" d="m43.5 23.999c0 10.77-8.7311 19.501-19.5 19.501-10.77 0-19.5-8.7309-19.5-19.501 0-10.769 8.7306-19.499 19.5-19.499s19.5 8.73 19.5 19.499v0z" stroke="url(#linearGradient3012)" stroke-linecap="round" fill="none"/>
 <path id="path2555-6" opacity=".5" stroke-linejoin="round" style="color:#000000" d="m24 3.5c-11.311 0-20.5 9.1888-20.5 20.5s9.1888 20.5 20.5 20.5 20.5-9.1888 20.5-20.5-9.1888-20.5-20.5-20.5z" fill-opacity="0" stroke="#00537d" stroke-linecap="round"/>
 <g id="g4252" opacity=".15" transform="matrix(.91694 0 0 .90186 2.0903 3.4748)">
  <text id="text4254" style="word-spacing:0px;letter-spacing:0px" xml:space="preserve" font-size="22.741px" y="30.145994" x="7.6046486" font-family="Sans" line-height="125%" fill="#000000"><tspan id="tspan4256" font-weight="bold" y="30.145994" x="7.6046486" font-family="Sans" fill="#000000">qb</tspan></text>
  <path id="path4258" opacity="1" d="m27.852 8.3441 4.579 4.5789-4.397 0.033-4.761-0.033z"/>
  <path id="path4260" opacity="1" d="m19.945 39.391-4.579-4.579 4.397-0.033 4.761 0.033z"/>
 </g>
 <g id="g4373" transform="matrix(.91694 0 0 .90186 2.0903 2.4748)">
  <text id="text4348" style="word-spacing:0px;letter-spacing:0px" line-height="125%" font-size="22.741px" y="30.145994" x="7.6046486" font-family="Sans" xml:space="preserve" fill="#ffffff"><tspan id="tspan4350" font-weight="bold" y="30.145994" x="7.6046486" font-family="Sans" fill="#ffffff">qb</tspan></text>
  <path id="rect4368" d="m27.852 8.3441 4.579 4.5789-4.397 0.033-4.761-0.033z" fill="#fff"/>
  <path id="path4371" d="m19.945 39.391-4.579-4.579 4.397-0.033 4.761 0.033z" fill="#fff"/>
 </g>
</svg>
