<?xml version="1.0" encoding="UTF-8" standalone="no"?>
<!-- Created with Inkscape (http://www.inkscape.org/) -->

<svg
   xmlns:dc="http://purl.org/dc/elements/1.1/"
   xmlns:cc="http://creativecommons.org/ns#"
   xmlns:rdf="http://www.w3.org/1999/02/22-rdf-syntax-ns#"
   xmlns:svg="http://www.w3.org/2000/svg"
   xmlns="http://www.w3.org/2000/svg"
   xmlns:sodipodi="http://sodipodi.sourceforge.net/DTD/sodipodi-0.dtd"
   xmlns:inkscape="http://www.inkscape.org/namespaces/inkscape"
   id="svg4296"
   height="48"
   width="48"
   version="1.1"
   inkscape:version="0.91 r13725"
   sodipodi:docname="rust.svg">
  <sodipodi:namedview
     pagecolor="#ffffff"
     bordercolor="#666666"
     borderopacity="1"
     objecttolerance="10"
     gridtolerance="10"
     guidetolerance="10"
     inkscape:pageopacity="0"
     inkscape:pageshadow="2"
     inkscape:window-width="1535"
     inkscape:window-height="876"
     id="namedview48"
     showgrid="false"
     inkscape:zoom="13.01"
     inkscape:cx="7.3489014"
     inkscape:cy="26.774436"
     inkscape:window-x="65"
     inkscape:window-y="24"
     inkscape:window-maximized="1"
     inkscape:current-layer="svg4296" />
  <defs
     id="defs4298">
    <linearGradient
       id="linearGradient3074"
       y2="43"
       gradientUnits="userSpaceOnUse"
       x2="24"
       gradientTransform="translate(4e-6,0)"
       y1="5"
       x1="24">
      <stop
         id="stop3897"
         stop-color="#fff"
         offset="0" />
      <stop
         id="stop3899"
         stop-color="#fff"
         stop-opacity=".23529"
         offset=".052632" />
      <stop
         id="stop3901"
         stop-color="#fff"
         stop-opacity=".15686"
         offset=".95056" />
      <stop
         id="stop3903"
         stop-color="#fff"
         stop-opacity=".39216"
         offset="1" />
    </linearGradient>
    <radialGradient
       id="radialGradient3078"
       gradientUnits="userSpaceOnUse"
       cy="9.9571"
       cx="7.1184"
       gradientTransform="matrix(0,9.1402,-11.221,0,136.56,-78.888)"
       r="12.672">
      <stop
         id="stop3750-1-0-7-6-6-1-3-9-3"
         stop-color="#505050"
         offset="0" />
      <stop
         id="stop3752-3-7-4-0-32-8-923-0-7"
         stop-color="#2b2b2b"
         offset=".26238" />
      <stop
         id="stop3754-1-8-5-2-7-6-7-1-9"
         stop-color="#0a0a0a"
         offset=".70495" />
      <stop
         id="stop3756-1-6-2-6-6-1-96-6-0"
         offset="1" />
    </radialGradient>
  </defs>
  <metadata
     id="metadata4301">
    <rdf:RDF>
      <cc:Work
         rdf:about="">
        <dc:format>image/svg+xml</dc:format>
        <dc:type
           rdf:resource="http://purl.org/dc/dcmitype/StillImage" />
        <dc:title></dc:title>
      </cc:Work>
    </rdf:RDF>
  </metadata>
  <rect
     x="4.5"
     y="4.5"
     width="39"
     height="39"
     ry="2"
     rx="2"
     style="color:#000000;fill:url(#radialGradient3078)"
     id="rect5505-21" />
  <rect
     x="4.5"
     y="4.5"
     width="39"
     height="39"
     ry="2"
     rx="2"
     style="color:#000000;opacity:0.7;fill:none;stroke:#000000;stroke-linecap:round;stroke-linejoin:round"
     id="rect5505-21-3-2" />
  <rect
     style="opacity:0.3;fill:none;stroke:url(#linearGradient3074);stroke-linecap:round;stroke-linejoin:round"
     x="5.5"
     y="5.5"
     width="37"
     height="37"
     ry="1"
     rx="1"
     id="rect6741" />
  <g
     transform="translate(7.83905e-5,-0.99982441)"
     id="g4198">
    <g
       id="g4253"
       transform="translate(0,1)"
       style="opacity:0.15">
      <g
         id="g4255"
         transform="matrix(0.019263,0,0,0.017857,19.708,37.016)">
        <path
           id="path4257"
           d="m -309.12,14.654 0,279.17 c 0,153.54 0.38058,279.55 0.8457,280.02 0.46512,0.46513 26.762,0.69819 58.438,0.51953 l 57.592,-0.32422 0.625,-80.625 0.625,-80.625 24.062,-0.33984 24.062,-0.33985 0,79.777 c 0,60.382 0.36467,80.142 1.5,81.277 1.1445,1.1445 28.241,1.5 114.33,1.5 110.27,0 112.86,-0.055 114.12,-2.418 1.7749,-3.3164 1.7749,-110.6 0,-113.91 -1.2491,-2.3341 -3.1959,-2.418 -56.25,-2.418 l -54.957,0 0,-21.875 0,-21.875 55.473,0 c 45.17,0 55.733,-0.31488 56.879,-1.6953 1.0324,-1.244 1.3221,-54.066 1.0898,-198.44 l -0.309,-196.74 -199.07,-0.319 -199.06,-0.317 z m 134.19,104.91 147.17,0 c 0.78483,0 1.418,0.71081 1.418,1.5938 l 0,146.81 c 0,0.88293 -0.63314,1.5938 -1.418,1.5938 l -147.17,0 c -0.78483,0 -1.416,-0.71082 -1.416,-1.5938 l 0,-146.81 c 0,-0.88294 0.63119,-1.5938 1.416,-1.5938 z"
           transform="translate(-350.57,-295.57)"
           inkscape:connector-curvature="0" />
        <path
           id="path4259"
           d="m 201.25,-1.2196 0.31525,-279.69 -58.607,0 -58.607,0 -0.75375,2.8125 c -0.41462,1.5469 -0.76138,100.83 -0.77075,220.62 l -0.01713,217.81 -79.996,0 -79.996,0 -0.316,-220.31 -0.316,-220.31 -58.75,0 -58.75,0 -0.31525,277.99 c -0.23225,204.82 0.055,278.44 1.0938,279.69 1.1782,1.4197 33.681,1.646 198.44,1.3814 l 197.04,-0.3 0.32,-279.69 z"
           inkscape:connector-curvature="0" />
        <path
           id="path4261"
           d="m 652.66,277.4 c 1.0318,-1.2432 1.3228,-48.203 1.0905,-175.94 l -0.31687,-174.24 -137.5,-0.625 -137.5,-0.625 0,-44.375 0,-44.375 137.5,-0.625 137.5,-0.625 0,-58.125 0,-58.125 -196.88,0 -196.88,0 -0.322,161.25 c -0.30037,150.49 -0.18025,161.35 1.8015,162.81 1.668,1.2274 31.291,1.5625 138.13,1.5625 l 136.01,0 0,57.5 0,57.5 -136.21,0 c -133.38,0 -136.23,0.0501 -137.5,2.4178 -0.83525,1.5607 -1.294,21.752 -1.294,56.957 0,35.205 0.45875,55.396 1.294,56.957 1.2708,2.3745 4.7731,2.4178 195.47,2.4178 161.96,0 194.41,-0.28136 195.59,-1.6959 z"
           inkscape:connector-curvature="0" />
        <path
           id="path4263"
           d="m 966.4,277.41 c 1.0182,-1.227 1.4856,-61.407 1.7155,-220.94 l 0.316,-219.25 68.438,-0.32317 68.438,-0.32318 0,-58.739 0,-58.739 -196.88,0 -196.88,0 0,58.739 0,58.739 68.438,0.32318 68.438,0.32317 0.316,219.25 c 0.22987,159.53 0.69725,219.71 1.7155,220.94 1.1368,1.3697 12.022,1.6864 57.968,1.6864 45.946,0 56.832,-0.31667 57.968,-1.6864 z"
           inkscape:connector-curvature="0" />
      </g>
      <path
         id="path4265"
         d="m 13,8 0,22 22,0 0,-22 -22,0 z m 12.129,1 c 1.5184,-0.00289 3.043,0.01209 3.0645,0.04687 0.02701,0.04376 -1.0067,4.9923 -1.0859,5.1992 -0.03233,0.08434 -0.27132,0.0957 -1.9648,0.0957 l -1.9297,0 -0.07031,-0.32227 c -0.35912,-1.6598 -1.0449,-4.9151 -1.0449,-4.9609 0,-0.03484 1.5128,-0.05559 3.0312,-0.05859 z m 1.9395,6.1387 0,0.95312 0,0.95312 -1.9043,0 c -1.5041,0 -1.9113,-0.01709 -1.9355,-0.08008 -0.01726,-0.04384 -0.02162,-0.46632 -0.01172,-0.9375 l 0.01563,-0.85547 1.918,-0.01758 1.918,-0.01563 z m -12.986,1.9668 c 0.06399,0 4.5287,0.93906 5.1172,1.0762 l 0.13867,0.03125 0,1.9297 c 0,1.0612 -0.02134,1.9432 -0.04687,1.959 -0.02561,0.01585 -1.165,0.26561 -2.5312,0.55664 -1.3662,0.29103 -2.527,0.54226 -2.5801,0.55859 -0.05304,0.01634 -0.11572,0.01123 -0.13867,-0.01172 -0.023,-0.024 -0.041,-1.405 -0.041,-3.071 0,-2.4781 0.01527,-3.0293 0.08203,-3.0293 z m 6.084,1.1367 0.91992,0 0.91992,0 0.01563,1.918 0.01758,1.9199 -0.92383,0 c -0.68612,0 -0.93106,-0.02066 -0.95312,-0.07813 -0.01666,-0.04259 -0.02347,-0.90518 -0.01367,-1.918 l 0.01758,-1.8418 z m 4.5703,0.18555 0.67383,0.67383 0.67578,0.67383 -0.6582,0.66016 c -0.36217,0.36361 -0.67334,0.66211 -0.69141,0.66211 -0.01805,0 -0.3149,-0.28412 -0.66016,-0.63086 -0.34526,-0.34674 -0.62891,-0.65764 -0.62891,-0.69141 0,-0.0338 0.29023,-0.35167 0.64453,-0.70508 l 0.64453,-0.64258 z m 2.8203,1.4121 0.64453,0.64258 c 0.35455,0.35366 0.64453,0.67033 0.64453,0.70508 0,0.03467 -0.59966,0.66404 -1.334,1.3984 l -1.3359,1.3359 -0.67383,-0.67578 -0.67188,-0.67578 1.3633,-1.3652 1.3633,-1.3652 z m 1.9609,1.9785 c 0.02918,-5.9e-4 0.05422,0.01038 0.08203,0.02539 0.438,0.235 4.401,2.852 4.401,2.905 0,0.03401 -0.96045,1.0242 -2.1348,2.1992 -1.9983,1.9994 -2.1416,2.1287 -2.2305,2.0254 -0.15428,-0.1795 -2.8296,-4.3389 -2.8555,-4.4395 -0.01445,-0.05614 0.50218,-0.61639 1.3223,-1.4336 1.0661,-1.0623 1.2896,-1.2806 1.416,-1.2832 z"
         inkscape:connector-curvature="0"
         style="opacity:1" />
    </g>
    <g
       id="g4245">
      <g
         id="g4233"
         transform="matrix(0.019263,0,0,0.017857,19.708,37.016)"
         style="fill:#ffffff">
        <path
           id="path4249"
           d="m -309.12,14.654 0,279.17 c 0,153.54 0.38058,279.55 0.8457,280.02 0.46512,0.46513 26.762,0.69819 58.438,0.51953 l 57.592,-0.32422 0.625,-80.625 0.625,-80.625 24.062,-0.33984 24.062,-0.33985 0,79.777 c 0,60.382 0.36467,80.142 1.5,81.277 1.1445,1.1445 28.241,1.5 114.33,1.5 110.27,0 112.86,-0.055 114.12,-2.418 1.7749,-3.3164 1.7749,-110.6 0,-113.91 -1.2491,-2.3341 -3.1959,-2.418 -56.25,-2.418 l -54.957,0 0,-21.875 0,-21.875 55.473,0 c 45.17,0 55.733,-0.31488 56.879,-1.6953 1.0324,-1.244 1.3221,-54.066 1.0898,-198.44 l -0.309,-196.74 -199.07,-0.319 -199.06,-0.317 z m 134.19,104.91 147.17,0 c 0.78483,0 1.418,0.71081 1.418,1.5938 l 0,146.81 c 0,0.88293 -0.63314,1.5938 -1.418,1.5938 l -147.17,0 c -0.78483,0 -1.416,-0.71082 -1.416,-1.5938 l 0,-146.81 c 0,-0.88294 0.63119,-1.5938 1.416,-1.5938 z"
           transform="translate(-350.57,-295.57)"
           inkscape:connector-curvature="0" />
        <path
           id="path4245"
           d="m 201.25,-1.2196 0.31525,-279.69 -58.607,0 -58.607,0 -0.75375,2.8125 c -0.41462,1.5469 -0.76138,100.83 -0.77075,220.62 l -0.01713,217.81 -79.996,0 -79.996,0 -0.316,-220.31 -0.316,-220.31 -58.75,0 -58.75,0 -0.31525,277.99 c -0.23225,204.82 0.055,278.44 1.0938,279.69 1.1782,1.4197 33.681,1.646 198.44,1.3814 l 197.04,-0.3 0.32,-279.69 z"
           inkscape:connector-curvature="0" />
        <path
           id="path4243"
           d="m 652.66,277.4 c 1.0318,-1.2432 1.3228,-48.203 1.0905,-175.94 l -0.31687,-174.24 -137.5,-0.625 -137.5,-0.625 0,-44.375 0,-44.375 137.5,-0.625 137.5,-0.625 0,-58.125 0,-58.125 -196.88,0 -196.88,0 -0.322,161.25 c -0.30037,150.49 -0.18025,161.35 1.8015,162.81 1.668,1.2274 31.291,1.5625 138.13,1.5625 l 136.01,0 0,57.5 0,57.5 -136.21,0 c -133.38,0 -136.23,0.0501 -137.5,2.4178 -0.83525,1.5607 -1.294,21.752 -1.294,56.957 0,35.205 0.45875,55.396 1.294,56.957 1.2708,2.3745 4.7731,2.4178 195.47,2.4178 161.96,0 194.41,-0.28136 195.59,-1.6959 z"
           inkscape:connector-curvature="0" />
        <path
           id="path4235"
           d="m 966.4,277.41 c 1.0182,-1.227 1.4856,-61.407 1.7155,-220.94 l 0.316,-219.25 68.438,-0.32317 68.438,-0.32318 0,-58.739 0,-58.739 -196.88,0 -196.88,0 0,58.739 0,58.739 68.438,0.32318 68.438,0.32317 0.316,219.25 c 0.22987,159.53 0.69725,219.71 1.7155,220.94 1.1368,1.3697 12.022,1.6864 57.968,1.6864 45.946,0 56.832,-0.31667 57.968,-1.6864 z"
           inkscape:connector-curvature="0" />
      </g>
      <path
         id="rect4380"
         d="m 13,8 0,22 22,0 0,-22 -22,0 z m 12.129,1 c 1.5184,-0.00289 3.043,0.01209 3.0645,0.04687 0.02701,0.04376 -1.0067,4.9923 -1.0859,5.1992 -0.03233,0.08434 -0.27132,0.0957 -1.9648,0.0957 l -1.9297,0 -0.07031,-0.32227 c -0.35912,-1.6598 -1.0449,-4.9151 -1.0449,-4.9609 0,-0.03484 1.5128,-0.05559 3.0312,-0.05859 z m 1.9395,6.1387 0,0.95312 0,0.95312 -1.9043,0 c -1.5041,0 -1.9113,-0.01709 -1.9355,-0.08008 -0.01726,-0.04384 -0.02162,-0.46632 -0.01172,-0.9375 l 0.01563,-0.85547 1.918,-0.01758 1.918,-0.01563 z m -12.986,1.9668 c 0.06399,0 4.5287,0.93906 5.1172,1.0762 l 0.13867,0.03125 0,1.9297 c 0,1.0612 -0.02134,1.9432 -0.04687,1.959 -0.02561,0.01585 -1.165,0.26561 -2.5312,0.55664 -1.3662,0.29103 -2.527,0.54226 -2.5801,0.55859 -0.05304,0.01634 -0.11572,0.01123 -0.13867,-0.01172 -0.023,-0.024 -0.041,-1.405 -0.041,-3.071 0,-2.4781 0.01527,-3.0293 0.08203,-3.0293 z m 6.084,1.1367 0.91992,0 0.91992,0 0.01563,1.918 0.01758,1.9199 -0.92383,0 c -0.68612,0 -0.93106,-0.02066 -0.95312,-0.07813 -0.01666,-0.04259 -0.02347,-0.90518 -0.01367,-1.918 l 0.01758,-1.8418 z m 4.5703,0.18555 0.67383,0.67383 0.67578,0.67383 -0.6582,0.66016 c -0.36217,0.36361 -0.67334,0.66211 -0.69141,0.66211 -0.01805,0 -0.3149,-0.28412 -0.66016,-0.63086 -0.34526,-0.34674 -0.62891,-0.65764 -0.62891,-0.69141 0,-0.0338 0.29023,-0.35167 0.64453,-0.70508 l 0.64453,-0.64258 z m 2.8203,1.4121 0.64453,0.64258 c 0.35455,0.35366 0.64453,0.67033 0.64453,0.70508 0,0.03467 -0.59966,0.66404 -1.334,1.3984 l -1.3359,1.3359 -0.67383,-0.67578 -0.67188,-0.67578 1.3633,-1.3652 1.3633,-1.3652 z m 1.9609,1.9785 c 0.02918,-5.9e-4 0.05422,0.01038 0.08203,0.02539 0.438,0.235 4.401,2.852 4.401,2.905 0,0.03401 -0.96045,1.0242 -2.1348,2.1992 -1.9983,1.9994 -2.1416,2.1287 -2.2305,2.0254 -0.15428,-0.1795 -2.8296,-4.3389 -2.8555,-4.4395 -0.01445,-0.05614 0.50218,-0.61639 1.3223,-1.4336 1.0661,-1.0623 1.2896,-1.2806 1.416,-1.2832 z"
         inkscape:connector-curvature="0"
         style="fill:#ff4949" />
    </g>
  </g>
</svg>
