<?xml version="1.0" encoding="UTF-8" standalone="no"?>
<!-- Created with Inkscape (http://www.inkscape.org/) -->
<svg id="svg4117" xmlns:rdf="http://www.w3.org/1999/02/22-rdf-syntax-ns#" xmlns="http://www.w3.org/2000/svg" height="48" width="48" version="1.1" xmlns:cc="http://creativecommons.org/ns#" xmlns:xlink="http://www.w3.org/1999/xlink" xmlns:dc="http://purl.org/dc/elements/1.1/">
 <defs id="defs4119">
  <radialGradient id="radialGradient2873-966-168" gradientUnits="userSpaceOnUse" cy="43.5" cx="4.993" gradientTransform="matrix(2.0038 0 0 1.4 27.988 -17.4)" r="2.5">
   <stop id="stop2883" stop-color="#181818" offset="0"/>
   <stop id="stop2885" stop-color="#181818" stop-opacity="0" offset="1"/>
  </radialGradient>
  <radialGradient id="radialGradient2875-742-326" gradientUnits="userSpaceOnUse" cy="43.5" cx="4.993" gradientTransform="matrix(2.0038 0 0 1.4 -20.012 -104.4)" r="2.5">
   <stop id="stop2889" stop-color="#181818" offset="0"/>
   <stop id="stop2891" stop-color="#181818" stop-opacity="0" offset="1"/>
  </radialGradient>
  <linearGradient id="linearGradient2877-634-617" y2="39.999" gradientUnits="userSpaceOnUse" x2="25.058" y1="47.028" x1="25.058">
   <stop id="stop2895" stop-color="#181818" stop-opacity="0" offset="0"/>
   <stop id="stop2897" stop-color="#181818" offset=".5"/>
   <stop id="stop2899" stop-color="#181818" stop-opacity="0" offset="1"/>
  </linearGradient>
  <filter id="filter3831" color-interpolation-filters="sRGB">
   <feGaussianBlur id="feGaussianBlur3833" stdDeviation="0.6375"/>
  </filter>
  <clipPath id="clipPath3823">
   <path id="path3825" fill="#fff" d="m108.81 58c-1.56 0-2.81 1.254-2.81 2.812v24.375c0 1.559 1.25 2.813 2.81 2.813h24.375c1.57 0 2.82-1.254 2.82-2.812v-24.375c0-1.559-1.25-2.813-2.81-2.813h-24.375zm7.1875 4.5h10v8.75h5l-10 13.75-10-13.75h5v-8.75z"/>
  </clipPath>
  <linearGradient id="linearGradient3812" y2="50.069" gradientUnits="userSpaceOnUse" x2="65.263" gradientTransform="matrix(.625 0 0 .625 78.5 32.25)" y1="64.205" x1="65.263">
   <stop id="stop5012" offset="0"/>
   <stop id="stop5014" stop-opacity="0" offset="1"/>
  </linearGradient>
  <filter id="filter3806" color-interpolation-filters="sRGB">
   <feGaussianBlur id="feGaussianBlur3808" stdDeviation="1.2"/>
  </filter>
  <linearGradient id="linearGradient3788" y2="75.095" xlink:href="#linearGradient3737" gradientUnits="userSpaceOnUse" x2="70" gradientTransform="translate(0,4)" y1="54" x1="70"/>
  <linearGradient id="linearGradient3773" y2="72" gradientUnits="userSpaceOnUse" x2="88" gradientTransform="matrix(.9375 0 0 .9375 -140.5 3.5)" y1="72" x1="56">
   <stop id="stop3780" stop-color="#499119" offset="0"/>
   <stop id="stop3782" stop-color="#8fd625" offset="1"/>
  </linearGradient>
  <linearGradient id="linearGradient3832" y2="50.069" xlink:href="#linearGradient3737" gradientUnits="userSpaceOnUse" x2="65.263" gradientTransform="matrix(.625 0 0 .625 28.5 31.25)" y1="64.205" x1="65.263"/>
  <filter id="filter3174" color-interpolation-filters="sRGB">
   <feGaussianBlur id="feGaussianBlur3176" stdDeviation="1.71"/>
  </filter>
  <linearGradient id="linearGradient3737">
   <stop id="stop3739" stop-color="#fff" offset="0"/>
   <stop id="stop3741" stop-color="#fff" stop-opacity="0" offset="1"/>
  </linearGradient>
  <linearGradient id="ButtonShadow" y2="7.0165" gradientUnits="userSpaceOnUse" x2="45.448" gradientTransform="scale(1.0059 .99417)" y1="92.54" x1="45.448">
   <stop id="stop3750" offset="0"/>
   <stop id="stop3752" stop-opacity=".58824" offset="1"/>
  </linearGradient>
  <linearGradient id="linearGradient3084" y2="43" gradientUnits="userSpaceOnUse" x2="24" gradientTransform="translate(.0000024 .96745)" y1="5" x1="24">
   <stop id="stop3926" stop-color="#fff" offset="0"/>
   <stop id="stop3928" stop-color="#fff" stop-opacity=".23529" offset=".063165"/>
   <stop id="stop3930" stop-color="#fff" stop-opacity=".15686" offset=".95056"/>
   <stop id="stop3932" stop-color="#fff" stop-opacity=".39216" offset="1"/>
  </linearGradient>
  <radialGradient id="radialGradient3093" gradientUnits="userSpaceOnUse" cy="8.4498" cx="7.4957" gradientTransform="matrix(0 1.9393 -2.0515 -5.2784e-8 41.335 -8.4863)" r="20">
   <stop id="stop3602" stop-color="#f4f4f4" offset="0"/>
   <stop id="stop3604" stop-color="#dbdbdb" offset="1"/>
  </radialGradient>
  <linearGradient id="linearGradient3095" y2="3.899" gradientUnits="userSpaceOnUse" x2="24" gradientTransform="translate(-6e-7 .96744)" y1="44" x1="24">
   <stop id="stop3106" stop-color="#aaa" offset="0"/>
   <stop id="stop3108" stop-color="#c8c8c8" offset="1"/>
  </linearGradient>
  <linearGradient id="linearGradient3098" y2="3" gradientUnits="userSpaceOnUse" x2="20" y1="43" x1="20">
   <stop id="stop3106-9" stop-color="#aaa" offset="0"/>
   <stop id="stop3108-8" stop-color="#c8c8c8" offset="1"/>
  </linearGradient>
  <linearGradient id="gradient">
   <stop id="orange" stop-color="#f86714" offset="0"/>
   <stop id="white" stop-color="#fff" offset="1"/>
  </linearGradient>
  <linearGradient id="gradientinv">
   <stop id="white_" stop-color="#fff" offset="0"/>
   <stop id="orange_" stop-color="#f86714" offset="1"/>
  </linearGradient>
  <linearGradient id="linearGradient2448" y2="130.11" xlink:href="#gradient" gradientUnits="userSpaceOnUse" y1="130.11" gradientTransform="matrix(1.4142 0 0 .70711 -56 -56)" x2="141.42" x1="39.598"/>
  <linearGradient id="linearGradient2450" y2="209.3" xlink:href="#gradientinv" gradientUnits="userSpaceOnUse" y1="209.3" gradientTransform="matrix(1.4142 0 0 .70711 -56 -56)" x2="118.79" x1="62.225"/>
  <linearGradient id="linearGradient2452" y2="158.39" xlink:href="#gradient" gradientUnits="userSpaceOnUse" y1="158.39" gradientTransform="matrix(1.4142 0 0 .70711 -56 -56)" x2="113.14" x1="67.882"/>
 </defs>
 <metadata id="metadata4122">
  <rdf:RDF>
   <cc:Work rdf:about="">
    <dc:format>image/svg+xml</dc:format>
    <dc:type rdf:resource="http://purl.org/dc/dcmitype/StillImage"/>
    <dc:title/>
   </cc:Work>
  </rdf:RDF>
 </metadata>
 <g id="g2036" transform="matrix(1.1 0 0 .44444 -2.4 25.111)">
  <g id="g3712" opacity=".4" transform="matrix(1.0526 0 0 1.2857 -1.2632 -13.429)">
   <rect id="rect2801" height="7" width="5" y="40" x="38" fill="url(#radialGradient2873-966-168)"/>
   <rect id="rect3696" transform="scale(-1)" height="7" width="5" y="-47" x="-10" fill="url(#radialGradient2875-742-326)"/>
   <rect id="rect3700" height="7" width="28" y="40" x="10" fill="url(#linearGradient2877-634-617)"/>
  </g>
 </g>
 <path id="path4564-0" opacity=".05" style="color:#000000" d="m22.969 8.1875a2.9359 2.9359 0 0 0 -1.407 0.4063l-11.031 6.375a2.9359 2.9359 0 0 0 -1.406 2.031 2.9359 2.9359 0 0 0 -0.0312 0 2.9359 2.9359 0 0 0 -0.9688 2.188l-0.0625 12.718a2.9359 2.9359 0 0 0 1 2.1875 2.9359 2.9359 0 0 0 0 0.03125 2.9359 2.9359 0 0 0 1.4375 2.0938l11 6.3125a2.9359 2.9359 0 0 0 2.4062 0.21875 2.9359 2.9359 0 0 0 0.03125 0 2.9359 2.9359 0 0 0 2.5 -0.1875l11-6.3438a2.9359 2.9359 0 0 0 1.4062 -2 2.9359 2.9359 0 0 0 1.0938 -2.25v-12.719a2.9359 2.9359 0 0 0 -1 -2.1875 2.9359 2.9359 0 0 0 -1.437 -2.093l-11.031-6.344a2.9359 2.9359 0 0 0 -2.407 -0.25 2.9359 2.9359 0 0 0 -1.093 -0.1875z" fill="url(#linearGradient3098)"/>
 <rect id="rect5505-21" stroke-linejoin="round" height="39" stroke="url(#linearGradient3095)" stroke-linecap="round" fill="url(#radialGradient3093)" style="color:#000000" rx="2" ry="2" width="39" y="5.4674" x="4.5"/>
 <rect id="rect6741-2" stroke-linejoin="round" rx="1" ry="1" height="37" width="37" stroke="url(#linearGradient3084)" stroke-linecap="round" y="6.4674" x="5.5" fill="none"/>
 <g id="layer2" display="none" transform="translate(-135.86 -31.05)">
  <path id="rect3745" opacity=".9" d="m11 7 37-2 37 2c3.324 0 6 2.676 6 6v73c0 3.324-2.676 6-6 6h-74c-3.324 0-6-2.676-6-6v-73c0-3.324 2.676-6 6-6z" filter="url(#filter3174)" fill="url(#ButtonShadow)"/>
 </g>
 <g id="layer4" display="none" transform="translate(-135.86 -31.05)">
  <rect id="rect3790" opacity=".6" transform="matrix(0,-1,1,0,0,4)" rx="2.8125" ry="2.8125" height="30" filter="url(#filter3806)" width="30" y="56" x="-86"/>
  <rect id="rect2993" transform="rotate(-90)" rx="2.8125" ry="2.8125" height="30" width="30" y="56" x="-88" fill="url(#linearGradient3773)"/>
  <path id="rect3775" opacity=".5" d="m58.812 58c-1.558 0-2.812 1.254-2.812 2.812v24.375c0 0.87307 0.41082 1.6412 1.0312 2.1562-0.003-0.053-0.031-0.101-0.031-0.155v-24.375c0-1.559 1.171-2.813 2.625-2.813h22.75c1.454 0 2.625 1.254 2.625 2.812v24.375c0 0.05463-0.02841 0.10241-0.03125 0.15625 0.62-0.514 1.031-1.282 1.031-2.155v-24.375c0-1.559-1.254-2.813-2.812-2.813h-24.375z" fill="url(#linearGradient3788)"/>
  <path id="path3810" opacity=".6" filter="url(#filter3831)" d="m116 63.5v8.75h-5l10 13.75 10-13.75h-5v-8.75h-10z" clip-path="url(#clipPath3823)" transform="translate(-50)" display="inline" fill="url(#linearGradient3812)"/>
  <path id="path4278" d="m66 62.5v8.75h-5l10 13.75 10-13.75h-5v-8.75h-10z" display="inline" fill="url(#linearGradient3832)"/>
 </g>
 <g id="g4276" opacity=".15" fill-rule="evenodd" transform="matrix(.20833 0 0 .20833 9 11)">
  <path id="path4279" opacity="1" d="m144 36v72l-72 36v-72"/>
  <path id="path4281" opacity="1" d="m0 36 72 36v72l-72-36"/>
  <path id="path4283" opacity="1" d="m72 0 72 36-72 36-72-36"/>
  <path id="path4285" opacity="1" d="m72 32 40 20v40l-40-20"/>
  <path id="path4287" opacity="1" d="m72 32-40 20v40l40-20"/>
  <path id="path4289" opacity="1" d="m72 72-40 20 40 20 40-20"/>
  <path id="path4291" opacity="1" d="m40 56 32 16v32l-32-16"/>
  <path id="path4293" opacity="1" d="m72 40 32 16-32 16-32-16"/>
  <path id="path4295" opacity="1" d="m104 56v32l-32 16v-32"/>
  <path id="path4297" opacity="1" d="m83 45.5-19 10.5 19 10.5"/>
  <path id="path4299" opacity="1" d="m83 66.5 21 10.5-21 11"/>
  <path id="path4301" opacity="1" d="m83 45 21.5 10v22.5l-21.5-11"/>
 </g>
 <g id="g4260" fill-rule="evenodd" transform="matrix(.20833 0 0 .20833 9 10)">
  <path id="rightface" d="m144 36v72l-72 36v-72" fill="#f86714"/>
  <path id="leftface" d="m0 36 72 36v72l-72-36" fill="#e51d14"/>
  <path id="topface" d="m72 0 72 36-72 36-72-36" fill="url(#linearGradient2448)"/>
  <path id="insideright" d="m72 32 40 20v40l-40-20" fill="#e51d14"/>
  <path id="insideleft" d="m72 32-40 20v40l40-20" fill="#f86714"/>
  <path id="insidebottom" d="m72 72-40 20 40 20 40-20" fill="url(#linearGradient2450)"/>
  <path id="outsideleft" d="m40 56 32 16v32l-32-16" fill="#e51d14"/>
  <path id="outsidetop" d="m72 40 32 16-32 16-32-16" fill="url(#linearGradient2452)"/>
  <path id="outsideright" d="m104 56v32l-32 16v-32" fill="#f86714"/>
  <path id="tri1" d="m83 45.5-19 10.5 19 10.5" fill="#f86714"/>
  <path id="tri2" d="m83 66.5 21 10.5-21 11" fill="url(#linearGradient2450)"/>
  <path id="red" d="m83 45 21.5 10v22.5l-21.5-11" fill="#e51d14"/>
 </g>
</svg>
