<?xml version="1.0" encoding="UTF-8" standalone="no"?>
<!-- Created with Inkscape (http://www.inkscape.org/) -->
<svg id="svg4031" xmlns:rdf="http://www.w3.org/1999/02/22-rdf-syntax-ns#" xmlns="http://www.w3.org/2000/svg" height="48" width="48" version="1.1" xmlns:cc="http://creativecommons.org/ns#" xmlns:xlink="http://www.w3.org/1999/xlink" xmlns:dc="http://purl.org/dc/elements/1.1/">
 <defs id="defs4033">
  <linearGradient id="linearGradient3012" y2="44.341" gradientUnits="userSpaceOnUse" x2="71.204" gradientTransform="matrix(1.0541 0 0 1.0541 -51.611 -2.7279)" y1="6.2376" x1="71.204">
   <stop id="stop4013" stop-color="#fff" offset="0"/>
   <stop id="stop4015" stop-color="#fff" stop-opacity=".23529" offset=".50776"/>
   <stop id="stop4017" stop-color="#fff" stop-opacity=".15686" offset=".83457"/>
   <stop id="stop4019" stop-color="#fff" stop-opacity=".39216" offset="1"/>
  </linearGradient>
  <radialGradient id="radialGradient3015" gradientUnits="userSpaceOnUse" cy="8.4498" cx="3.9722" gradientTransform="matrix(0 2.4988 -2.6435 -6.8014e-8 46.337 -12.18)" r="20">
   <stop id="stop3750-8-9" stop-color="#90dbec" offset="0"/>
   <stop id="stop3752-3-2" stop-color="#42baea" offset=".26238"/>
   <stop id="stop3754-7-2" stop-color="#3689e6" offset=".70495"/>
   <stop id="stop3756-9-3" stop-color="#2b63a0" offset="1"/>
  </radialGradient>
  <radialGradient id="radialGradient3018" gradientUnits="userSpaceOnUse" cy="186.17" cx="99.157" gradientTransform="matrix(.27083 0 0 .087623 -2.8551 25.187)" r="62.769">
   <stop id="stop3822-2-6-3" stop-color="#3d3d3d" offset="0"/>
   <stop id="stop3864-8-7-7" stop-color="#686868" stop-opacity=".49804" offset=".5"/>
   <stop id="stop3824-1-2-5" stop-color="#686868" stop-opacity="0" offset="1"/>
  </radialGradient>
  <linearGradient id="linearGradient581" y2="279.76" gradientUnits="userSpaceOnUse" y1="231.01" gradientTransform="matrix(.045570 0 0 .070621 3.1834 1.0605)" x2="656.46" x1="596.06">
   <stop id="stop579" stop-color="#fff2bc" offset="0"/>
   <stop id="stop580" stop-color="#83560b" offset="1"/>
  </linearGradient>
  <linearGradient id="linearGradient623" y2="425.86" gradientUnits="userSpaceOnUse" y1="74.221" gradientTransform="matrix(.040647 0 0 .079175 2.8331 1.2356)" x2="411.61" x1="273.66">
   <stop id="stop625" stop-color="#b9e5ff" stop-opacity=".41964" offset="0"/>
   <stop id="stop626" stop-color="#fff" offset="1"/>
  </linearGradient>
 </defs>
 <metadata id="metadata4036">
  <rdf:RDF>
   <cc:Work rdf:about="">
    <dc:format>image/svg+xml</dc:format>
    <dc:type rdf:resource="http://purl.org/dc/dcmitype/StillImage"/>
    <dc:title/>
   </cc:Work>
  </rdf:RDF>
 </metadata>
 <path id="path3818-0-5" fill="url(#radialGradient3018)" d="m41 41.5a17 5.5 0 1 1 -34 0 17 5.5 0 1 1 34 0z"/>
 <path id="path2555" style="color:#000000" d="m24 3.5c-11.311 0-20.5 9.189-20.5 20.5s9.189 20.5 20.5 20.5 20.5-9.189 20.5-20.5-9.189-20.5-20.5-20.5z" fill="url(#radialGradient3015)"/>
 <path id="path8655" opacity=".5" stroke-linejoin="round" style="color:#000000" d="m43.5 23.999c0 10.77-8.7311 19.501-19.5 19.501-10.77 0-19.5-8.7309-19.5-19.501 0-10.769 8.7306-19.499 19.5-19.499s19.5 8.73 19.5 19.499v0z" stroke="url(#linearGradient3012)" stroke-linecap="round" fill="none"/>
 <path id="path2555-6" opacity=".5" stroke-linejoin="round" style="color:#000000" d="m24 3.5c-11.311 0-20.5 9.1888-20.5 20.5s9.1888 20.5 20.5 20.5 20.5-9.1888 20.5-20.5-9.1888-20.5-20.5-20.5z" fill-opacity="0" stroke="#00537d" stroke-linecap="round"/>
 <path id="path622" d="m20.648 37.152s-4.8924-7.7431-1.0951-15.567c3.0179-6.2889 3.8656-12.204 1.411-16.3-4.4483 0.61456-7.1223 2.3685-9.839 4.7094-2.7171 2.341-4.3359 5.668-4.9886 7.702 0.8228 10.03 14.58 19.666 14.512 19.456z" stroke-opacity=".39286" fill-rule="evenodd" fill-opacity=".75" stroke="#f6f7f7" stroke-width=".055480pt" fill="url(#linearGradient623)"/>
 <g id="g4314" fill-rule="evenodd" transform="matrix(.74478 0 0 .74478 5.3533 9.0861)">
  <ellipse id="path686" rx="5.4449" transform="matrix(.76520 .64379 -.73696 .67593 0 0)" stroke="#000" ry="3.1856" cy="-18.26" cx="32.692" stroke-width=".039845pt" fill="#060000"/>
  <path id="hrot" d="m22.25 37.36c-0.12993-0.12139 6.3946-9.7953 14.37-11.109 0.02451-10.428 4.8192-14.264 5.1227-14.917-0.641-3.4637-2.523-4.7722-4.221-5.0478-2.878-0.3668-2.338 0.9246-2.692 1.2684-1.947 4.3984-6.026 10.607-6.602 11.717-1.62 2.245-5.051 13.324-6.423 18.066l0.4445 0.02199z" stroke="#323232" stroke-width=".31967" fill="url(#linearGradient581)"/>
  <ellipse id="path583" rx=".49302" transform="matrix(.83114 .55607 -.51486 .85728 0 0)" ry="1.4145" cy="1.6219" cx="35.436" stroke-width="1.251" fill="#665123"/>
  <path id="path585" d="m28.026 22.234-0.12777-0.09597c-0.14696-0.11038-5.0747 12.824-5.8352 15.142 0.75572-2.4435 5.2024-14.026 5.9629-15.046z" stroke="#665123" stroke-width=".098659" fill="#665123"/>
 </g>
</svg>
