<?xml version="1.0" encoding="UTF-8" standalone="no"?>
<!-- Created with Inkscape (http://www.inkscape.org/) -->
<svg id="svg4951" xmlns:rdf="http://www.w3.org/1999/02/22-rdf-syntax-ns#" xmlns="http://www.w3.org/2000/svg" height="48px" width="48px" version="1.1" xmlns:cc="http://creativecommons.org/ns#" xmlns:xlink="http://www.w3.org/1999/xlink" xmlns:dc="http://purl.org/dc/elements/1.1/">
 <defs id="defs4953">
  <linearGradient id="linearGradient3820-7-2-1">
   <stop id="stop3822-2-6-3" stop-color="#3d3d3d" offset="0"/>
   <stop id="stop3864-8-7-7" stop-color="#686868" stop-opacity=".49804" offset=".5"/>
   <stop id="stop3824-1-2-5" stop-color="#686868" stop-opacity="0" offset="1"/>
  </linearGradient>
  <radialGradient id="radialGradient3195" xlink:href="#linearGradient3820-7-2-1" gradientUnits="userSpaceOnUse" cy="186.17" cx="99.157" gradientTransform="matrix(.27083 0 0 .087623 -2.8551 25.187)" r="62.769"/>
  <linearGradient id="linearGradient4054" y2="54.25" gradientUnits="userSpaceOnUse" x2="70.455" gradientTransform="translate(-50.249 -12.08)" y1="21.438" x1="70.455">
   <stop id="stop3244-9-33-7-0-6" stop-color="#4cf" offset="0"/>
   <stop id="stop3248-1-7-8-8-6" stop-color="#0c89ff" offset="1"/>
   <stop id="stop3250-9-3-0-5-2" stop-color="#0094cb" offset="1"/>
  </linearGradient>
  <linearGradient id="linearGradient4056" y2="41.892" gradientUnits="userSpaceOnUse" x2="22.727" gradientTransform="matrix(.98113 0 0 .97406 .37658 1.4227)" y1="5.6705" x1="23.153">
   <stop id="stop4040" stop-color="#fff" offset="0"/>
   <stop id="stop4042" stop-color="#fff" stop-opacity=".54592" offset="1"/>
  </linearGradient>
  <radialGradient id="radialGradient3127" xlink:href="#linearGradient3820-7-2-1" gradientUnits="userSpaceOnUse" cy="186.17" cx="99.157" gradientTransform="matrix(-.13110 0 0 .041714 26.221 37.616)" r="62.769"/>
  <radialGradient id="radialGradient3124" gradientUnits="userSpaceOnUse" cy="8.4498" cx="3.9722" gradientTransform="matrix(0 1.3408 1.4184 -3.6496e-8 1.0144 16.586)" r="14.099">
   <stop id="stop3752-3-2-0" stop-color="#d25a5a" offset="0"/>
   <stop id="stop3754-7-2-8" stop-color="#df3d3d" offset="1"/>
  </radialGradient>
  <linearGradient id="linearGradient3120" y2="44.341" gradientUnits="userSpaceOnUse" x2="71.204" gradientTransform="matrix(-.51352 0 0 .51352 49.836 22.978)" y1="6.2376" x1="71.204">
   <stop id="stop4013-8" stop-color="#fff" offset="0"/>
   <stop id="stop4015-5" stop-color="#fff" stop-opacity=".23529" offset=".50776"/>
   <stop id="stop4017-6" stop-color="#fff" stop-opacity=".15686" offset=".83457"/>
   <stop id="stop4019-1" stop-color="#fff" stop-opacity=".39216" offset="1"/>
  </linearGradient>
 </defs>
 <metadata id="metadata4956">
  <rdf:RDF>
   <cc:Work rdf:about="">
    <dc:format>image/svg+xml</dc:format>
    <dc:type rdf:resource="http://purl.org/dc/dcmitype/StillImage"/>
    <dc:title/>
   </cc:Work>
  </rdf:RDF>
 </metadata>
 <g id="layer1">
  <path id="path3818-0-5" opacity=".75" d="m41 41.5a17 5.5 0 0 1 -34 0 17 5.5 0 1 1 34 0z" fill="url(#radialGradient3195)"/>
  <path id="path3766" opacity=".4" stroke-linejoin="round" d="m13.464 4.67c-3.1706 0.01457-6.5141 1.681-7.789 4.6965-1.8939 3.5759-1.7333 8.2999 0.84697 11.503 0.09086 0.7866-0.21441 1.5595-0.13631 2.3559-0.21344 4.9991 0.94459 10.329 4.4029 14.106 4.0959 4.3132 10.425 5.8928 16.215 5.1596 0.52907-0.06697 1.1077-0.16596 1.454 0.33703 2.6375 2.1787 6.6412 2.8733 9.665 1.0888 3.219-1.65 5.766-5.092 5.452-8.828-0.143-2.186-1.062-4.256-2.308-6.031 1.07-6.174-0.609-13.038-5.244-17.418-3.898-3.7204-9.624-5.0716-14.877-4.2619-0.41754-0.0038-0.92366 0.27435-1.2787 0.11992-1.5946-1.8092-3.9852-2.8916-6.4033-2.829z" stroke="#005760" stroke-width="2" fill="none"/>
  <path id="path4358" opacity=".4" d="m13.464 4.67c-3.1706 0.01457-6.5141 1.681-7.789 4.6965-1.8939 3.5759-1.7333 8.2999 0.84697 11.503 0.09086 0.7866-0.21441 1.5595-0.13631 2.3559-0.21344 4.9991 0.94459 10.329 4.4029 14.106 4.0959 4.3132 10.425 5.8928 16.215 5.1596 0.52907-0.06697 1.1077-0.16596 1.454 0.33703 2.6375 2.1787 6.6412 2.8733 9.665 1.0888 3.219-1.65 5.766-5.092 5.452-8.828-0.143-2.186-1.062-4.256-2.308-6.031 1.07-6.174-0.609-13.038-5.244-17.418-3.898-3.7204-9.624-5.0716-14.877-4.2619-0.41754-0.0038-0.92366 0.27435-1.2787 0.11992-1.5946-1.8092-3.9852-2.8916-6.4033-2.829z" stroke-width="0" fill="none"/>
  <path id="path4362" opacity=".4" stroke-linejoin="round" d="m13.464 4.67c-3.1706 0.01457-6.5141 1.681-7.789 4.6965-1.8939 3.5759-1.7333 8.2999 0.84697 11.503 0.09086 0.7866-0.21441 1.5595-0.13631 2.3559-0.21344 4.9991 0.94459 10.329 4.4029 14.106 4.0959 4.3132 10.425 5.8928 16.215 5.1596 0.52907-0.06697 1.1077-0.16596 1.454 0.33703 2.6375 2.1787 6.6412 2.8733 9.665 1.0888 3.219-1.65 5.766-5.092 5.452-8.828-0.143-2.186-1.062-4.256-2.308-6.031 1.07-6.174-0.609-13.038-5.244-17.418-3.898-3.7204-9.624-5.0716-14.877-4.2619-0.41754-0.0038-0.92366 0.27435-1.2787 0.11992-1.5946-1.8092-3.9852-2.8916-6.4033-2.829z" stroke="#005760" fill="none"/>
  <path id="path4005" d="m13.464 4.67c-3.1706 0.01457-6.5141 1.681-7.789 4.6965-1.8939 3.5759-1.7333 8.2999 0.84697 11.503 0.09086 0.7866-0.21441 1.5595-0.13631 2.3559-0.21344 4.9991 0.94459 10.329 4.4029 14.106 4.0959 4.3132 10.425 5.8928 16.215 5.1596 0.52907-0.06697 1.1077-0.16596 1.454 0.33703 2.6375 2.1787 6.6412 2.8733 9.665 1.0888 3.219-1.65 5.766-5.092 5.452-8.828-0.143-2.186-1.062-4.256-2.308-6.031 1.07-6.174-0.609-13.038-5.244-17.418-3.898-3.7204-9.624-5.0716-14.877-4.2619-0.41754-0.0038-0.92366 0.27435-1.2787 0.11992-1.5946-1.8092-3.9852-2.8916-6.4033-2.829z" fill="url(#linearGradient4054)"/>
  <path id="path4015" opacity=".44619" d="m13.586 5.1923c-3.111 0.0142-6.3911 1.6373-7.642 4.5747-1.8581 3.483-1.5014 7.819 1.0301 10.939 0.089145 0.7662-0.21037 1.8508-0.13374 2.6266-0.20941 4.8694 0.7277 9.995 4.1208 13.673 4.0186 4.2013 10.229 5.74 15.909 5.0258 0.51908-0.06522 1.4849-0.22801 1.8247 0.26193 2.5878 2.1222 6.1178 2.8651 9.0845 1.127 3.159-1.6061 5.6577-4.959 5.3495-8.5984-0.141-2.13-1.109-3.88-2.331-5.609 1.05-6.014-0.532-12.965-5.079-17.232-3.824-3.6235-9.443-4.9396-14.597-4.1509-0.41-0.0037-1.172 0.2673-1.52 0.1168-1.564-1.7622-3.644-2.8166-6.017-2.7556z" stroke="url(#linearGradient4056)" stroke-width=".97759" fill="none"/>
  <path id="path4375" stroke-linejoin="round" opacity=".15" d="m19.95 15.632v0c-1.1476 0.42484-2.0389 1.0443-2.6492 1.8412-0.61492 0.80252-0.92677 1.7328-0.92677 2.765 0 1.0828 0.29705 2.0041 0.88311 2.7382 0.57704 0.72318 1.3659 1.3009 2.3446 1.7178 0.9571 0.40746 2.1605 0.76799 3.5768 1.0717 1.0416 0.21833 1.8837 0.42712 2.5041 0.62066 0.59493 0.18569 1.0848 0.4563 1.4561 0.80399 0.35471 0.33259 0.52716 0.75662 0.52716 1.296 0 0.6827-0.33031 1.2403-1.0101 1.7048-0.69579 0.47559-1.6207 0.71679-2.7491 0.71679-0.82048 0-1.4875-0.11887-1.9822-0.35341-0.49192-0.23284-0.87703-0.53089-1.1446-0.88562-0.27852-0.36888-0.54232-0.83707-0.78413-1.3916-0.21648-0.50933-0.48606-0.90366-0.80026-1.1702-0.32878-0.27824-0.73322-0.41912-1.2022-0.41912-0.57133 0-1.0504 0.17836-1.4243 0.53045-0.377 0.355-0.569 0.789-0.569 1.29 0 0.80106 0.29405 1.6317 0.87381 2.4688 0.57405 0.82886 1.3301 1.5004 2.2471 1.9962 1.283 0.681 2.926 1.026 4.886 1.026 1.6331 0 3.0681-0.25257 4.265-0.75061 1.2085-0.50309 2.1414-1.2117 2.7728-2.1062 0.634-0.898 0.955-1.924 0.955-3.049 0-0.941-0.187-1.75-0.555-2.406-0.367-0.653-0.885-1.201-1.539-1.627-0.64-0.417-1.426-0.776-2.334-1.067-0.898-0.287-1.913-0.553-3.018-0.791-0.872-0.202-1.509-0.358-1.888-0.463-0.37-0.103-0.74-0.246-1.098-0.426-0.346-0.174-0.62-0.382-0.814-0.619-0.18321-0.22383-0.27229-0.4841-0.27229-0.79534 0-0.50757 0.27676-0.936 0.84604-1.3097 0.59068-0.38781 1.3863-0.58435 2.3647-0.58435 1.0534 0 1.8199 0.17718 2.2785 0.52649 0.47251 0.3595 0.88451 0.86985 1.2249 1.5172 0.29405 0.50698 0.5591 0.85936 0.81447 1.0854 0.27456 0.24341 0.67008 0.36691 1.1756 0.36691 0.55638 0 1.0279-0.19728 1.4017-0.58642 0.37148-0.38662 0.5599-0.83017 0.5599-1.3184 0-0.50735-0.14374-1.0317-0.42694-1.5586-0.281-0.522-0.727-1.024-1.327-1.493-0.596-0.466-1.355-0.845-2.254-1.126-0.895-0.278-1.966-0.419-3.185-0.419-1.5245 0-2.8718 0.21261-4.0044 0.63195" stroke="#000" stroke-linecap="round" stroke-width="2" fill="none"/>
  <path id="path4377" stroke-linejoin="round" opacity=".15" d="m19.95 15.632v0c-1.1476 0.42484-2.0389 1.0443-2.6492 1.8412-0.61492 0.80252-0.92677 1.7328-0.92677 2.765 0 1.0828 0.29705 2.0041 0.88311 2.7382 0.57704 0.72318 1.3659 1.3009 2.3446 1.7178 0.9571 0.40746 2.1605 0.76799 3.5768 1.0717 1.0416 0.21833 1.8837 0.42712 2.5041 0.62066 0.59493 0.18569 1.0848 0.4563 1.4561 0.80399 0.35471 0.33259 0.52716 0.75662 0.52716 1.296 0 0.6827-0.33031 1.2403-1.0101 1.7048-0.69579 0.47559-1.6207 0.71679-2.7491 0.71679-0.82048 0-1.4875-0.11887-1.9822-0.35341-0.49192-0.23284-0.87703-0.53089-1.1446-0.88562-0.27852-0.36888-0.54232-0.83707-0.78413-1.3916-0.21648-0.50933-0.48606-0.90366-0.80026-1.1702-0.32878-0.27824-0.73322-0.41912-1.2022-0.41912-0.57133 0-1.0504 0.17836-1.4243 0.53045-0.377 0.355-0.569 0.789-0.569 1.29 0 0.80106 0.29405 1.6317 0.87381 2.4688 0.57405 0.82886 1.3301 1.5004 2.2471 1.9962 1.283 0.681 2.926 1.026 4.886 1.026 1.6331 0 3.0681-0.25257 4.265-0.75061 1.2085-0.50309 2.1414-1.2117 2.7728-2.1062 0.634-0.898 0.955-1.924 0.955-3.049 0-0.941-0.187-1.75-0.555-2.406-0.367-0.653-0.885-1.201-1.539-1.627-0.64-0.417-1.426-0.776-2.334-1.067-0.898-0.287-1.913-0.553-3.018-0.791-0.872-0.202-1.509-0.358-1.888-0.463-0.37-0.103-0.74-0.246-1.098-0.426-0.346-0.174-0.62-0.382-0.814-0.619-0.18321-0.22383-0.27229-0.4841-0.27229-0.79534 0-0.50757 0.27676-0.936 0.84604-1.3097 0.59068-0.38781 1.3863-0.58435 2.3647-0.58435 1.0534 0 1.8199 0.17718 2.2785 0.52649 0.47251 0.3595 0.88451 0.86985 1.2249 1.5172 0.29405 0.50698 0.5591 0.85936 0.81447 1.0854 0.27456 0.24341 0.67008 0.36691 1.1756 0.36691 0.55638 0 1.0279-0.19728 1.4017-0.58642 0.37148-0.38662 0.5599-0.83017 0.5599-1.3184 0-0.50735-0.14374-1.0317-0.42694-1.5586-0.281-0.522-0.727-1.024-1.327-1.493-0.596-0.466-1.355-0.845-2.254-1.126-0.895-0.278-1.966-0.419-3.185-0.419-1.5245 0-2.8718 0.21261-4.0044 0.63195" stroke="#000" stroke-linecap="round" fill="none"/>
  <path id="path78-1" d="m19.95 15.632c-1.1476 0.42484-2.0389 1.0443-2.6492 1.8412-0.61492 0.80252-0.92677 1.7328-0.92677 2.765 0 1.0828 0.29705 2.0041 0.88311 2.7382 0.57704 0.72318 1.3659 1.3009 2.3446 1.7178 0.9571 0.40746 2.1605 0.76799 3.5768 1.0717 1.0416 0.21833 1.8837 0.42712 2.5041 0.62066 0.59493 0.18569 1.0848 0.4563 1.4561 0.80399 0.35471 0.33259 0.52716 0.75662 0.52716 1.296 0 0.6827-0.33031 1.2403-1.0101 1.7048-0.69579 0.47559-1.6207 0.71679-2.7491 0.71679-0.82048 0-1.4875-0.11887-1.9822-0.35341-0.49192-0.23284-0.87703-0.53089-1.1446-0.88562-0.27852-0.36888-0.54232-0.83707-0.78413-1.3916-0.21648-0.50933-0.48606-0.90366-0.80026-1.1702-0.32878-0.27824-0.73322-0.41912-1.2022-0.41912-0.57133 0-1.0504 0.17836-1.4243 0.53045-0.377 0.355-0.569 0.789-0.569 1.29 0 0.80106 0.29405 1.6317 0.87381 2.4688 0.57405 0.82886 1.3301 1.5004 2.2471 1.9962 1.283 0.681 2.926 1.026 4.886 1.026 1.6331 0 3.0681-0.25257 4.265-0.75061 1.2085-0.50309 2.1414-1.2117 2.7728-2.1062 0.634-0.898 0.955-1.924 0.955-3.049 0-0.941-0.187-1.75-0.555-2.406-0.367-0.653-0.885-1.201-1.539-1.627-0.64-0.417-1.426-0.776-2.334-1.067-0.898-0.287-1.913-0.553-3.018-0.791-0.872-0.202-1.509-0.358-1.888-0.463-0.37-0.103-0.74-0.246-1.098-0.426-0.346-0.174-0.62-0.382-0.814-0.619-0.18321-0.22383-0.27229-0.4841-0.27229-0.79534 0-0.50757 0.27676-0.936 0.84604-1.3097 0.59068-0.38781 1.3863-0.58435 2.3647-0.58435 1.0534 0 1.8199 0.17718 2.2785 0.52649 0.47251 0.3595 0.88451 0.86985 1.2249 1.5172 0.29405 0.50698 0.5591 0.85936 0.81447 1.0854 0.27456 0.24341 0.67008 0.36691 1.1756 0.36691 0.55638 0 1.0279-0.19728 1.4017-0.58642 0.37148-0.38662 0.5599-0.83017 0.5599-1.3184 0-0.50735-0.14374-1.0317-0.42694-1.5586-0.281-0.522-0.727-1.024-1.327-1.493-0.596-0.466-1.355-0.845-2.254-1.126-0.895-0.278-1.966-0.419-3.185-0.419-1.5245 0-2.8718 0.21261-4.0044 0.63195" fill="#fff"/>
  <path id="path3818-0-2" d="m4.9924 45.381a8.229 2.6183 0 1 0 16.458 0 8.229 2.6183 0 1 0 -16.458 0z" fill="url(#radialGradient3127)"/>
  <path id="path2555-4" style="color:#000000" d="m13 25c6.069 0 11 4.93 11 11 0 6.069-4.931 11-11 11-6.0694 0-11-4.931-11-11 0-6.07 4.9306-11 11-11z" fill="url(#radialGradient3124)"/>
  <path id="path2555-6-1" opacity=".5" stroke-linejoin="round" style="color:#000000" d="m13 25.5c5.7935 0 10.5 4.7065 10.5 10.5s-4.7065 10.5-10.5 10.5-10.5-4.7065-10.5-10.5 4.7065-10.5 10.5-10.5z" fill-opacity="0" stroke="#7d0000" stroke-linecap="round" stroke-width=".99998"/>
  <path id="path8655" opacity=".5" stroke-linejoin="round" style="color:#000000" d="m3.4999 35.999c0 5.2469 4.2536 9.5004 9.5 9.5004 5.2468 0 9.5002-4.2535 9.5002-9.5004 0-5.2467-4.2534-9.4997-9.5002-9.4997-5.2463 0-9.5 4.2531-9.5 9.4997v0z" stroke="url(#linearGradient3120)" stroke-linecap="round" stroke-width=".99985" fill="none"/>
 </g>
</svg>
