<?xml version="1.0" encoding="UTF-8" standalone="no"?>
<svg
   xmlns:dc="http://purl.org/dc/elements/1.1/"
   xmlns:cc="http://creativecommons.org/ns#"
   xmlns:rdf="http://www.w3.org/1999/02/22-rdf-syntax-ns#"
   xmlns:svg="http://www.w3.org/2000/svg"
   xmlns="http://www.w3.org/2000/svg"
   xmlns:sodipodi="http://sodipodi.sourceforge.net/DTD/sodipodi-0.dtd"
   xmlns:inkscape="http://www.inkscape.org/namespaces/inkscape"
   height="48"
   width="48"
   version="1.1"
   id="svg2"
   inkscape:version="0.91 r13725"
   sodipodi:docname="slack.svg">
  <metadata
     id="metadata503">
    <rdf:RDF>
      <cc:Work
         rdf:about="">
        <dc:format>image/svg+xml</dc:format>
        <dc:type
           rdf:resource="http://purl.org/dc/dcmitype/StillImage" />
        <dc:title />
      </cc:Work>
    </rdf:RDF>
  </metadata>
  <sodipodi:namedview
     pagecolor="#b8b8b8"
     bordercolor="#666666"
     borderopacity="1"
     objecttolerance="10"
     gridtolerance="10"
     guidetolerance="10"
     inkscape:pageopacity="0"
     inkscape:pageshadow="2"
     inkscape:window-width="1535"
     inkscape:window-height="876"
     id="namedview501"
     showgrid="false"
     inkscape:zoom="8"
     inkscape:cx="-23.679739"
     inkscape:cy="25.61176"
     inkscape:window-x="65"
     inkscape:window-y="24"
     inkscape:window-maximized="1"
     inkscape:current-layer="svg2"
     showguides="false" />
  <defs
     id="defs4">
    <linearGradient
       id="g"
       y2="5.1758"
       gradientUnits="userSpaceOnUse"
       x2="-95.838"
       gradientTransform="matrix(0.8075,0,0,0.83374,106.88001,-1.0698501)"
       y1="54.2"
       x1="-95.838">
      <stop
         stop-opacity=".32174"
         offset="0"
         id="stop24" />
      <stop
         stop-opacity=".27826"
         offset="1"
         id="stop26" />
    </linearGradient>
    <linearGradient
       id="f"
       y2="43"
       gradientUnits="userSpaceOnUse"
       x2="24"
       gradientTransform="translate(2.0153809e-6,1.2365723e-7)"
       y1="5"
       x1="24">
      <stop
         stop-color="#fff"
         offset="0"
         id="stop29" />
      <stop
         stop-color="#fff"
         stop-opacity=".23529"
         offset=".063165"
         id="stop31" />
      <stop
         stop-color="#fff"
         stop-opacity=".15686"
         offset=".95056"
         id="stop33" />
      <stop
         stop-color="#fff"
         stop-opacity=".39216"
         offset="1"
         id="stop35" />
    </linearGradient>
    <radialGradient
       id="b"
       gradientUnits="userSpaceOnUse"
       cy="4.3419"
       cx="32"
       gradientTransform="matrix(0,1.6258,-1.6258,0,31.059,-47.135)"
       r="27.5">
      <stop
         stop-color="#fafafa"
         offset="0"
         id="stop38" />
      <stop
         stop-color="#e1e1e1"
         offset="1"
         id="stop40" />
    </radialGradient>
  </defs>
  <g
     font-size="12.666px"
     font-family="Bitstream Vera Sans"
     fill="#000000"
     id="g65">
    <text
       opacity=".8"
       xml:space="preserve"
       y="10.722242"
       x="930.43976"
       id="text67"><tspan
         y="10.722242"
         x="930.43976"
         id="tspan69" /></text>
    <text
       opacity=".8"
       xml:space="preserve"
       y="-30.019464"
       x="954.4007"
       id="text71"><tspan
         y="-30.019464"
         x="954.4007"
         id="tspan73" /></text>
    <text
       opacity=".8"
       xml:space="preserve"
       y="-60.097607"
       x="-516.15765"
       id="text75"><tspan
         y="-60.097607"
         x="-516.15765"
         id="tspan77" /></text>
    <text
       opacity=".8"
       xml:space="preserve"
       y="685.45587"
       x="-2339.8438"
       id="text79"><tspan
         y="685.45587"
         x="-2339.8438"
         id="tspan81" /></text>
    <text
       opacity=".8"
       xml:space="preserve"
       y="-445.41858"
       x="-401.66656"
       id="text83"><tspan
         y="-445.41858"
         x="-401.66656"
         id="tspan85" /></text>
    <text
       opacity=".8"
       xml:space="preserve"
       y="-858.88867"
       x="405.93558"
       id="text87"><tspan
         y="-858.88867"
         x="405.93558"
         id="tspan89" /></text>
    <text
       opacity=".8"
       xml:space="preserve"
       y="-899.63037"
       x="429.89651"
       id="text91"><tspan
         y="-899.63037"
         x="429.89651"
         id="tspan93" /></text>
    <text
       opacity=".8"
       xml:space="preserve"
       y="-906.84027"
       x="-1061.5667"
       id="text95"><tspan
         y="-906.84027"
         x="-1061.5667"
         id="tspan97" /></text>
    <text
       opacity=".8"
       xml:space="preserve"
       y="-1180.0745"
       x="398.9761"
       id="text99"><tspan
         y="-1180.0745"
         x="398.9761"
         id="tspan101" /></text>
    <text
       opacity=".8"
       xml:space="preserve"
       y="-553.38306"
       x="1885.0996"
       id="text103"><tspan
         y="-553.38306"
         x="1885.0996"
         id="tspan105" /></text>
    <text
       opacity=".8"
       xml:space="preserve"
       y="-594.12482"
       x="1909.0604"
       id="text107"><tspan
         y="-594.12482"
         x="1909.0604"
         id="tspan109" /></text>
    <text
       opacity=".8"
       xml:space="preserve"
       y="-601.33472"
       x="417.59726"
       id="text111"><tspan
         y="-601.33472"
         x="417.59726"
         id="tspan113" /></text>
    <text
       opacity=".8"
       xml:space="preserve"
       y="-874.56873"
       x="1878.1401"
       id="text115"><tspan
         y="-874.56873"
         x="1878.1401"
         id="tspan117" /></text>
    <text
       opacity=".8"
       xml:space="preserve"
       y="-649.42603"
       x="-520.21906"
       id="text119"><tspan
         y="-649.42603"
         x="-520.21906"
         id="tspan121" /></text>
    <text
       opacity=".8"
       xml:space="preserve"
       y="96.127502"
       x="-2343.9048"
       id="text123"><tspan
         y="96.127502"
         x="-2343.9048"
         id="tspan125" /></text>
    <text
       opacity=".8"
       xml:space="preserve"
       y="188.99963"
       x="-629.14929"
       id="text127"><tspan
         y="188.99963"
         x="-629.14929"
         id="tspan129" /></text>
    <text
       opacity=".8"
       xml:space="preserve"
       y="9.8174934"
       x="479.87503"
       id="text131"><tspan
         y="9.8174934"
         x="479.87503"
         id="tspan133" /></text>
    <text
       opacity=".8"
       xml:space="preserve"
       y="-30.924213"
       x="503.83597"
       id="text135"><tspan
         y="-30.924213"
         x="503.83597"
         id="tspan137" /></text>
    <text
       opacity=".8"
       xml:space="preserve"
       y="-38.134186"
       x="-987.62726"
       id="text139"><tspan
         y="-38.134186"
         x="-987.62726"
         id="tspan141" /></text>
    <text
       opacity=".8"
       xml:space="preserve"
       y="-311.36826"
       x="472.91556"
       id="text143"><tspan
         y="-311.36826"
         x="472.91556"
         id="tspan145" /></text>
    <text
       opacity=".8"
       xml:space="preserve"
       y="-40.848431"
       x="-554.81903"
       id="text147"><tspan
         y="-40.848431"
         x="-554.81903"
         id="tspan149" /></text>
    <text
       opacity=".8"
       xml:space="preserve"
       y="704.70508"
       x="-2378.5051"
       id="text151"><tspan
         y="704.70508"
         x="-2378.5051"
         id="tspan153" /></text>
    <text
       opacity=".8"
       xml:space="preserve"
       y="-902.37891"
       x="-403.72598"
       id="text155"><tspan
         y="-902.37891"
         x="-403.72598"
         id="tspan157" /></text>
    <text
       opacity=".8"
       xml:space="preserve"
       y="-1315.8491"
       x="403.87616"
       id="text159"><tspan
         y="-1315.8491"
         x="403.87616"
         id="tspan161" /></text>
    <text
       opacity=".8"
       xml:space="preserve"
       y="-1356.5908"
       x="427.83707"
       id="text163"><tspan
         y="-1356.5908"
         x="427.83707"
         id="tspan165" /></text>
    <text
       opacity=".8"
       xml:space="preserve"
       y="-1363.8008"
       x="-1063.6261"
       id="text167"><tspan
         y="-1363.8008"
         x="-1063.6261"
         id="tspan169" /></text>
    <text
       opacity=".8"
       xml:space="preserve"
       y="-1637.0349"
       x="396.91666"
       id="text171"><tspan
         y="-1637.0349"
         x="396.91666"
         id="tspan173" /></text>
    <text
       opacity=".8"
       xml:space="preserve"
       y="-1010.3436"
       x="1883.04"
       id="text175"><tspan
         y="-1010.3436"
         x="1883.04"
         id="tspan177" /></text>
    <text
       opacity=".8"
       xml:space="preserve"
       y="-1051.0852"
       x="1907.0009"
       id="text179"><tspan
         y="-1051.0852"
         x="1907.0009"
         id="tspan181" /></text>
    <text
       opacity=".8"
       xml:space="preserve"
       y="-1058.2952"
       x="415.53781"
       id="text183"><tspan
         y="-1058.2952"
         x="415.53781"
         id="tspan185" /></text>
    <text
       opacity=".8"
       xml:space="preserve"
       y="-1331.5293"
       x="1876.0806"
       id="text187"><tspan
         y="-1331.5293"
         x="1876.0806"
         id="tspan189" /></text>
    <text
       opacity=".8"
       xml:space="preserve"
       y="-1106.3865"
       x="-522.2785"
       id="text191"><tspan
         y="-1106.3865"
         x="-522.2785"
         id="tspan193" /></text>
    <text
       opacity=".8"
       xml:space="preserve"
       y="-360.83298"
       x="-2345.9644"
       id="text195"><tspan
         y="-360.83298"
         x="-2345.9644"
         id="tspan197" /></text>
    <text
       opacity=".8"
       xml:space="preserve"
       y="-267.96082"
       x="-631.20874"
       id="text199"><tspan
         y="-267.96082"
         x="-631.20874"
         id="tspan201" /></text>
    <text
       opacity=".8"
       xml:space="preserve"
       y="-27.046637"
       x="208.80579"
       id="text203"><tspan
         y="-27.046637"
         x="208.80579"
         id="tspan205" /></text>
    <text
       opacity=".8"
       xml:space="preserve"
       y="-67.788353"
       x="232.76672"
       id="text207"><tspan
         y="-67.788353"
         x="232.76672"
         id="tspan209" /></text>
    <text
       opacity=".8"
       xml:space="preserve"
       y="-261.81699"
       x="-1037.0499"
       id="text211"><tspan
         y="-261.81699"
         x="-1037.0499"
         id="tspan213" /></text>
    <text
       opacity=".8"
       xml:space="preserve"
       y="-675.28711"
       x="-229.44791"
       id="text215"><tspan
         y="-675.28711"
         x="-229.44791"
         id="tspan217" /></text>
    <text
       opacity=".8"
       xml:space="preserve"
       y="-716.02881"
       x="-205.48698"
       id="text219"><tspan
         y="-716.02881"
         x="-205.48698"
         id="tspan221" /></text>
    <text
       opacity=".8"
       xml:space="preserve"
       y="-723.23871"
       x="-1696.9501"
       id="text223"><tspan
         y="-723.23871"
         x="-1696.9501"
         id="tspan225" /></text>
    <text
       opacity=".8"
       xml:space="preserve"
       y="-996.47284"
       x="-236.40735"
       id="text227"><tspan
         y="-996.47284"
         x="-236.40735"
         id="tspan229" /></text>
    <text
       opacity=".8"
       xml:space="preserve"
       y="-369.78149"
       x="1249.7161"
       id="text231"><tspan
         y="-369.78149"
         x="1249.7161"
         id="tspan233" /></text>
    <text
       opacity=".8"
       xml:space="preserve"
       y="-410.52322"
       x="1273.6769"
       id="text235"><tspan
         y="-410.52322"
         x="1273.6769"
         id="tspan237" /></text>
    <text
       opacity=".8"
       xml:space="preserve"
       y="-417.73318"
       x="-217.78624"
       id="text239"><tspan
         y="-417.73318"
         x="-217.78624"
         id="tspan241" /></text>
    <text
       opacity=".8"
       xml:space="preserve"
       y="-690.96722"
       x="1242.7566"
       id="text243"><tspan
         y="-690.96722"
         x="1242.7566"
         id="tspan245" /></text>
    <text
       opacity=".8"
       xml:space="preserve"
       y="-465.82446"
       x="-1155.6025"
       id="text247"><tspan
         y="-465.82446"
         x="-1155.6025"
         id="tspan249" /></text>
    <text
       opacity=".8"
       xml:space="preserve"
       y="279.7291"
       x="-2979.2883"
       id="text251"><tspan
         y="279.7291"
         x="-2979.2883"
         id="tspan253" /></text>
  </g>
  <g
     transform="matrix(.90475 0 0 .90475 -663.53 -676.38)"
     id="g255">
    <text
       opacity=".8"
       xml:space="preserve"
       font-size="14px"
       y="1159.4154"
       x="-664.2738"
       font-family="Bitstream Vera Sans"
       fill="#000000"
       id="text257"><tspan
         y="1159.4154"
         x="-664.2738"
         id="tspan259" /></text>
  </g>
  <g
     font-size="12.666px"
     font-family="Bitstream Vera Sans"
     fill="#000000"
     id="g261">
    <text
       opacity=".8"
       xml:space="preserve"
       y="17.96023"
       x="930.43976"
       id="text263"><tspan
         y="17.96023"
         x="930.43976"
         id="tspan265" /></text>
    <text
       opacity=".8"
       xml:space="preserve"
       y="-22.781475"
       x="954.4007"
       id="text267"><tspan
         y="-22.781475"
         x="954.4007"
         id="tspan269" /></text>
    <text
       opacity=".8"
       xml:space="preserve"
       y="-52.859619"
       x="-516.15765"
       id="text271"><tspan
         y="-52.859619"
         x="-516.15765"
         id="tspan273" /></text>
    <text
       opacity=".8"
       xml:space="preserve"
       y="692.69385"
       x="-2339.8438"
       id="text275"><tspan
         y="692.69385"
         x="-2339.8438"
         id="tspan277" /></text>
    <text
       opacity=".8"
       xml:space="preserve"
       y="-438.18057"
       x="-401.66656"
       id="text279"><tspan
         y="-438.18057"
         x="-401.66656"
         id="tspan281" /></text>
    <text
       opacity=".8"
       xml:space="preserve"
       y="-851.65063"
       x="405.93558"
       id="text283"><tspan
         y="-851.65063"
         x="405.93558"
         id="tspan285" /></text>
    <text
       opacity=".8"
       xml:space="preserve"
       y="-892.3924"
       x="429.89651"
       id="text287"><tspan
         y="-892.3924"
         x="429.89651"
         id="tspan289" /></text>
    <text
       opacity=".8"
       xml:space="preserve"
       y="-899.60229"
       x="-1061.5667"
       id="text291"><tspan
         y="-899.60229"
         x="-1061.5667"
         id="tspan293" /></text>
    <text
       opacity=".8"
       xml:space="preserve"
       y="-1172.8364"
       x="398.9761"
       id="text295"><tspan
         y="-1172.8364"
         x="398.9761"
         id="tspan297" /></text>
    <text
       opacity=".8"
       xml:space="preserve"
       y="-546.14508"
       x="1885.0996"
       id="text299"><tspan
         y="-546.14508"
         x="1885.0996"
         id="tspan301" /></text>
    <text
       opacity=".8"
       xml:space="preserve"
       y="-586.88684"
       x="1909.0604"
       id="text303"><tspan
         y="-586.88684"
         x="1909.0604"
         id="tspan305" /></text>
    <text
       opacity=".8"
       xml:space="preserve"
       y="-594.09674"
       x="417.59726"
       id="text307"><tspan
         y="-594.09674"
         x="417.59726"
         id="tspan309" /></text>
    <text
       opacity=".8"
       xml:space="preserve"
       y="-867.33069"
       x="1878.1401"
       id="text311"><tspan
         y="-867.33069"
         x="1878.1401"
         id="tspan313" /></text>
    <text
       opacity=".8"
       xml:space="preserve"
       y="-642.18805"
       x="-520.21906"
       id="text315"><tspan
         y="-642.18805"
         x="-520.21906"
         id="tspan317" /></text>
    <text
       opacity=".8"
       xml:space="preserve"
       y="103.36549"
       x="-2343.9048"
       id="text319"><tspan
         y="103.36549"
         x="-2343.9048"
         id="tspan321" /></text>
    <text
       opacity=".8"
       xml:space="preserve"
       y="196.23763"
       x="-629.14929"
       id="text323"><tspan
         y="196.23763"
         x="-629.14929"
         id="tspan325" /></text>
    <text
       opacity=".8"
       xml:space="preserve"
       y="17.055481"
       x="479.87503"
       id="text327"><tspan
         y="17.055481"
         x="479.87503"
         id="tspan329" /></text>
    <text
       opacity=".8"
       xml:space="preserve"
       y="-23.686224"
       x="503.83597"
       id="text331"><tspan
         y="-23.686224"
         x="503.83597"
         id="tspan333" /></text>
    <text
       opacity=".8"
       xml:space="preserve"
       y="-30.896194"
       x="-987.62726"
       id="text335"><tspan
         y="-30.896194"
         x="-987.62726"
         id="tspan337" /></text>
    <text
       opacity=".8"
       xml:space="preserve"
       y="-304.13025"
       x="472.91556"
       id="text339"><tspan
         y="-304.13025"
         x="472.91556"
         id="tspan341" /></text>
    <text
       opacity=".8"
       xml:space="preserve"
       y="-33.610439"
       x="-554.81903"
       id="text343"><tspan
         y="-33.610439"
         x="-554.81903"
         id="tspan345" /></text>
    <text
       opacity=".8"
       xml:space="preserve"
       y="711.94312"
       x="-2378.5051"
       id="text347"><tspan
         y="711.94312"
         x="-2378.5051"
         id="tspan349" /></text>
    <text
       opacity=".8"
       xml:space="preserve"
       y="-895.14093"
       x="-403.72598"
       id="text351"><tspan
         y="-895.14093"
         x="-403.72598"
         id="tspan353" /></text>
    <text
       opacity=".8"
       xml:space="preserve"
       y="-1308.6111"
       x="403.87616"
       id="text355"><tspan
         y="-1308.6111"
         x="403.87616"
         id="tspan357" /></text>
    <text
       opacity=".8"
       xml:space="preserve"
       y="-1349.3529"
       x="427.83707"
       id="text359"><tspan
         y="-1349.3529"
         x="427.83707"
         id="tspan361" /></text>
    <text
       opacity=".8"
       xml:space="preserve"
       y="-1356.5627"
       x="-1063.6261"
       id="text363"><tspan
         y="-1356.5627"
         x="-1063.6261"
         id="tspan365" /></text>
    <text
       opacity=".8"
       xml:space="preserve"
       y="-1629.7969"
       x="396.91666"
       id="text367"><tspan
         y="-1629.7969"
         x="396.91666"
         id="tspan369" /></text>
    <text
       opacity=".8"
       xml:space="preserve"
       y="-1003.1056"
       x="1883.04"
       id="text371"><tspan
         y="-1003.1056"
         x="1883.04"
         id="tspan373" /></text>
    <text
       opacity=".8"
       xml:space="preserve"
       y="-1043.8473"
       x="1907.0009"
       id="text375"><tspan
         y="-1043.8473"
         x="1907.0009"
         id="tspan377" /></text>
    <text
       opacity=".8"
       xml:space="preserve"
       y="-1051.0571"
       x="415.53781"
       id="text379"><tspan
         y="-1051.0571"
         x="415.53781"
         id="tspan381" /></text>
    <text
       opacity=".8"
       xml:space="preserve"
       y="-1324.2913"
       x="1876.0806"
       id="text383"><tspan
         y="-1324.2913"
         x="1876.0806"
         id="tspan385" /></text>
    <text
       opacity=".8"
       xml:space="preserve"
       y="-1099.1484"
       x="-522.2785"
       id="text387"><tspan
         y="-1099.1484"
         x="-522.2785"
         id="tspan389" /></text>
    <text
       opacity=".8"
       xml:space="preserve"
       y="-353.59497"
       x="-2345.9644"
       id="text391"><tspan
         y="-353.59497"
         x="-2345.9644"
         id="tspan393" /></text>
    <text
       opacity=".8"
       xml:space="preserve"
       y="-260.72281"
       x="-631.20874"
       id="text395"><tspan
         y="-260.72281"
         x="-631.20874"
         id="tspan397" /></text>
    <text
       opacity=".8"
       xml:space="preserve"
       y="-19.808649"
       x="208.80579"
       id="text399"><tspan
         y="-19.808649"
         x="208.80579"
         id="tspan401" /></text>
    <text
       opacity=".8"
       xml:space="preserve"
       y="-60.550369"
       x="232.76672"
       id="text403"><tspan
         y="-60.550369"
         x="232.76672"
         id="tspan405" /></text>
    <text
       opacity=".8"
       xml:space="preserve"
       y="-254.57896"
       x="-1037.0499"
       id="text407"><tspan
         y="-254.57896"
         x="-1037.0499"
         id="tspan409" /></text>
    <text
       opacity=".8"
       xml:space="preserve"
       y="-668.04913"
       x="-229.44791"
       id="text411"><tspan
         y="-668.04913"
         x="-229.44791"
         id="tspan413" /></text>
    <text
       opacity=".8"
       xml:space="preserve"
       y="-708.79083"
       x="-205.48698"
       id="text415"><tspan
         y="-708.79083"
         x="-205.48698"
         id="tspan417" /></text>
    <text
       opacity=".8"
       xml:space="preserve"
       y="-716.00079"
       x="-1696.9501"
       id="text419"><tspan
         y="-716.00079"
         x="-1696.9501"
         id="tspan421" /></text>
    <text
       opacity=".8"
       xml:space="preserve"
       y="-989.2348"
       x="-236.40735"
       id="text423"><tspan
         y="-989.2348"
         x="-236.40735"
         id="tspan425" /></text>
    <text
       opacity=".8"
       xml:space="preserve"
       y="-362.54352"
       x="1249.7161"
       id="text427"><tspan
         y="-362.54352"
         x="1249.7161"
         id="tspan429" /></text>
    <text
       opacity=".8"
       xml:space="preserve"
       y="-403.28525"
       x="1273.6769"
       id="text431"><tspan
         y="-403.28525"
         x="1273.6769"
         id="tspan433" /></text>
    <text
       opacity=".8"
       xml:space="preserve"
       y="-410.49518"
       x="-217.78624"
       id="text435"><tspan
         y="-410.49518"
         x="-217.78624"
         id="tspan437" /></text>
    <text
       opacity=".8"
       xml:space="preserve"
       y="-683.72925"
       x="1242.7566"
       id="text439"><tspan
         y="-683.72925"
         x="1242.7566"
         id="tspan441" /></text>
    <text
       opacity=".8"
       xml:space="preserve"
       y="-458.58646"
       x="-1155.6025"
       id="text443"><tspan
         y="-458.58646"
         x="-1155.6025"
         id="tspan445" /></text>
    <text
       opacity=".8"
       xml:space="preserve"
       y="286.96707"
       x="-2979.2883"
       id="text447"><tspan
         y="286.96707"
         x="-2979.2883"
         id="tspan449" /></text>
  </g>
  <g
     transform="matrix(.90475 0 0 .90475 -663.53 -669.14)"
     id="g451">
    <text
       opacity=".8"
       xml:space="preserve"
       font-size="14px"
       y="1159.4154"
       x="-664.2738"
       font-family="Bitstream Vera Sans"
       fill="#000000"
       id="text453"><tspan
         y="1159.4154"
         x="-664.2738"
         id="tspan455" /></text>
  </g>
  <g
     font-size="12.666px"
     fill="#000000"
     id="g457">
    <text
       xml:space="preserve"
       y="-361.31583"
       x="489.11777"
       font-family="Droid Sans"
       id="text459"><tspan
         y="-361.31583"
         x="489.11777"
         id="tspan461" /><tspan
         y="-345.48276"
         x="489.11777"
         id="tspan463" /></text>
    <g
       font-family="Bitstream Vera Sans"
       id="g465">
      <text
         opacity=".8"
         xml:space="preserve"
         y="-843.36035"
         x="954.3017"
         id="text467"><tspan
           y="-843.36035"
           x="954.3017"
           id="tspan469" /></text>
      <text
         opacity=".8"
         xml:space="preserve"
         y="-97.806908"
         x="-869.38428"
         id="text471"><tspan
           y="-97.806908"
           x="-869.38428"
           id="tspan473" /></text>
      <text
         opacity=".8"
         xml:space="preserve"
         y="-1128.3562"
         x="1681.3812"
         id="text475"><tspan
           y="-1128.3562"
           x="1681.3812"
           id="tspan477" /></text>
      <text
         opacity=".8"
         xml:space="preserve"
         y="-1169.0979"
         x="1705.342"
         id="text479"><tspan
           y="-1169.0979"
           x="1705.342"
           id="tspan481" /></text>
      <text
         opacity=".8"
         xml:space="preserve"
         y="-1176.3079"
         x="213.87891"
         id="text483"><tspan
           y="-1176.3079"
           x="213.87891"
           id="tspan485" /></text>
      <text
         opacity=".8"
         xml:space="preserve"
         y="-1449.542"
         x="1674.4218"
         id="text487"><tspan
           y="-1449.542"
           x="1674.4218"
           id="tspan489" /></text>
    </g>
  </g>
  <rect
     style="color:#000000;fill:url(#b)"
     rx="1.5"
     ry="1.5"
     height="38"
     width="38"
     y="5"
     x="5"
     id="rect59" />
  <path
     style="color:#000000;display:inline;overflow:visible;visibility:visible;fill:#48c39e;fill-opacity:1;fill-rule:nonzero;stroke:none;stroke-width:4;marker:none;enable-background:accumulate"
     d="M 5.2128906 16.275391 C 5.1402892 16.275274 5.0721706 16.279016 5 16.279297 L 5 41.5 C 5 41.889916 5.1503768 42.241603 5.3925781 42.507812 C 9.3575769 42.027178 13.202773 40.885811 16.609375 37.333984 L 10.666016 16.609375 C 8.7314169 16.390624 6.9134633 16.278119 5.2128906 16.275391 z "
     id="rect3922-2" />
  <path
     style="color:#000000;display:inline;overflow:visible;visibility:visible;fill:#d81768;fill-opacity:1;fill-rule:nonzero;stroke:none;stroke-width:4;marker:none;enable-background:accumulate"
     d="M 37.333984 31.390625 L 16.609375 37.333984 C 16.128485 39.30109 15.983514 41.183605 16.105469 43 L 41.5 43 C 41.907999 43 42.276982 42.838699 42.546875 42.576172 C 42.282186 38.479336 41.407605 34.535234 37.333984 31.390625 z "
     id="rect3934-1" />
  <path
     style="color:#000000;display:inline;overflow:visible;visibility:visible;fill:#ecb524;fill-opacity:1;fill-rule:nonzero;stroke:none;stroke-width:4;marker:none;enable-background:accumulate"
     d="M 42.708984 5.6171875 C 38.073399 6.0678527 33.790663 7.0217071 31.390625 10.666016 L 37.333984 31.390625 C 39.32774 31.802223 41.206063 31.899623 43 31.761719 L 43 6.5 C 43 6.1683055 42.889915 5.86502 42.708984 5.6171875 z "
     id="rect3930-5" />
  <path
     style="color:#000000;display:inline;overflow:visible;visibility:visible;fill:#81d2e0;fill-opacity:1;fill-rule:nonzero;stroke:none;stroke-width:4;marker:none;enable-background:accumulate"
     d="M 6.5 5 C 6.0534023 5 5.6571354 5.1961581 5.3828125 5.5039062 C 6.3683455 9.3395214 8.1852497 13.03123 10.666016 16.609375 L 31.390625 10.666016 C 32.225636 8.5607638 32.46317 6.7051312 32.337891 5 L 6.5 5 z "
     id="rect3926-9" />
  <path
     style="color:#000000;display:inline;overflow:visible;visibility:visible;fill:#390f39;fill-opacity:1;fill-rule:nonzero;stroke:none;stroke-width:4;marker:none;enable-background:accumulate"
     d="M 16.609375 37.333984 L 5 40.662109 L 5 41.5 C 5 42.331 5.669 43 6.5 43 L 18.234375 43 L 16.609375 37.333984 z "
     id="rect3920-7" />
  <path
     style="color:#000000;display:inline;overflow:visible;visibility:visible;fill:#20a48e;fill-opacity:1;fill-rule:nonzero;stroke:none;stroke-width:4;marker:none;enable-background:accumulate"
     d="M 6.5 5 C 5.669 5 5 5.669 5 6.5 L 5 18.234375 L 10.666016 16.609375 L 7.3378906 5 L 6.5 5 z "
     id="rect3924-9" />
  <path
     style="color:#000000;display:inline;overflow:visible;visibility:visible;fill:#77971f;fill-opacity:1;fill-rule:nonzero;stroke:none;stroke-width:4;marker:none;enable-background:accumulate"
     d="M 29.765625 5 L 31.390625 10.666016 L 43 7.3378906 L 43 6.5 C 43 5.669 42.331 5 41.5 5 L 29.765625 5 z "
     id="rect3928-1" />
  <path
     style="color:#000000;display:inline;overflow:visible;visibility:visible;fill:#d5100d;fill-opacity:1;fill-rule:nonzero;stroke:none;stroke-width:4;marker:none;enable-background:accumulate"
     d="M 43 29.765625 L 37.333984 31.390625 L 40.662109 43 L 41.5 43 C 42.331 43 43 42.331 43 41.5 L 43 29.765625 z "
     id="rect3932-9" />
  <path
     inkscape:connector-curvature="0"
     d="m 30,27.22885 c -2e-5,1.5386 -0.507894,2.71845 -1.523632,3.53953 C 27.468017,31.58946 25.977742,32 24.005553,32 22.641329,32 21.455047,31.77439 20.446706,31.32316 19.445772,30.87194 18.630207,30.14332 18,29.13731 l 2.413339,-1.84189 c 0.355883,0.50301 0.693232,0.88026 1.012049,1.13176 0.318807,0.25151 0.696941,0.44753 1.134383,0.58807 0.437441,0.14055 0.941606,0.21083 1.512516,0.21082 0.852631,10e-6 1.516205,-0.14424 1.990732,-0.43273 0.481914,-0.29588 0.722881,-0.74341 0.722891,-1.34258 -10e-6,-0.34026 -0.0853,-0.62505 -0.255791,-0.85437 -0.163127,-0.2293 -0.411501,-0.42533 -0.745133,-0.58807 -0.333651,-0.17013 -0.911968,-0.36245 -1.73494,-0.57698 -0.800751,-0.21451 -1.55701,-0.42902 -2.268775,-0.64355 -0.704358,-0.2219 -1.316032,-0.50669 -1.835032,-0.85437 -0.511583,-0.34765 -0.915657,-0.78408 -1.212232,-1.30929 -0.296566,-0.52519 -0.444859,-1.18723 -0.444859,-1.98613 0,-1.45722 0.49305,-2.59268 1.47915,-3.40638 0.986099,-0.82107 2.398514,-1.23161 4.237255,-1.23162 2.661723,10e-6 4.544946,0.90986 5.64968,2.72954 l -2.391107,1.86408 c -0.422617,-0.65094 -0.897134,-1.11696 -1.423541,-1.39806 -0.526417,-0.28108 -1.152925,-0.42162 -1.879515,-0.42164 -0.7266,2e-5 -1.319741,0.13316 -1.779423,0.39945 -0.452276,0.25891 -0.678409,0.66945 -0.678409,1.23162 0,0.49562 0.237249,0.87657 0.711776,1.14286 0.474507,0.25891 1.301198,0.52151 2.480073,0.78779 0.652448,0.17015 1.297489,0.35507 1.935123,0.55479 0.637614,0.19233 1.204805,0.46233 1.701574,0.80998 0.504155,0.34768 0.908239,0.8026 1.212232,1.36477 0.303973,0.56219 0.455964,1.28341 0.455984,2.16367"
     style="font-style:normal;font-variant:normal;font-weight:bold;font-stretch:normal;font-size:22.72399521px;line-height:125%;font-family:'Clear Sans';-inkscape-font-specification:'Clear Sans Bold';text-align:center;letter-spacing:0px;word-spacing:0px;text-anchor:middle;display:inline;fill:#682a60;fill-opacity:1;stroke:none;enable-background:new;opacity:1"
     id="path4329" />
  <path
     style="color:#000000;font-style:normal;font-variant:normal;font-weight:bold;font-stretch:normal;font-size:22.72399521px;line-height:125%;font-family:'Clear Sans';-inkscape-font-specification:'Clear Sans Bold';text-indent:0;text-align:center;text-decoration:none;text-decoration-line:none;text-decoration-style:solid;text-decoration-color:#000000;letter-spacing:0px;word-spacing:0px;text-transform:none;direction:ltr;block-progression:tb;writing-mode:lr-tb;baseline-shift:baseline;text-anchor:middle;white-space:normal;clip-rule:nonzero;display:inline;overflow:visible;visibility:visible;opacity:0.2;isolation:auto;mix-blend-mode:normal;color-interpolation:sRGB;color-interpolation-filters:linearRGB;solid-color:#000000;solid-opacity:1;fill:#000000;fill-opacity:1;fill-rule:nonzero;stroke:none;stroke-width:2;stroke-linecap:round;stroke-linejoin:round;stroke-miterlimit:4;stroke-dasharray:none;stroke-dashoffset:0;stroke-opacity:1;color-rendering:auto;image-rendering:auto;shape-rendering:auto;text-rendering:auto;enable-background:new"
     d="m 24.005859,16 c -1.838741,10e-6 -3.252182,0.411352 -4.238281,1.232422 -0.9861,0.8137 -1.478516,1.94903 -1.478516,3.40625 0,0.7989 0.148747,1.461138 0.445313,1.986328 0.296575,0.52521 0.699354,0.960944 1.210937,1.308594 0.519001,0.34768 1.13158,0.631615 1.835938,0.853515 0.711765,0.21453 1.46878,0.430022 2.269531,0.644532 0.822972,0.21453 1.400724,0.406041 1.734375,0.576171 0.333632,0.16274 0.581014,0.358591 0.744141,0.587891 0.170491,0.22932 0.255849,0.515209 0.255859,0.855469 -10e-6,0.59917 -0.240742,1.045917 -0.722656,1.341797 -0.474527,0.28849 -1.137603,0.433603 -1.990234,0.433593 -0.57091,10e-6 -1.074278,-0.07039 -1.511719,-0.210937 -0.437442,-0.14054 -0.815959,-0.336381 -1.134766,-0.587891 -0.318817,-0.2515 -0.655836,-0.629802 -1.011719,-1.132812 L 18,29.136719 c 0.630207,1.00601 1.446332,1.734327 2.447266,2.185547 C 21.455607,31.773496 22.641635,32 24.005859,32 c 1.972189,0 3.462352,-0.411342 4.470703,-1.232422 1.015739,-0.82108 1.523418,-2.000462 1.523438,-3.539062 -2e-5,-0.88026 -0.151105,-1.601873 -0.455078,-2.164063 -0.303993,-0.56217 -0.708736,-1.015601 -1.212891,-1.363281 -0.496769,-0.34765 -1.063558,-0.618217 -1.701172,-0.810547 -0.637634,-0.19972 -1.283099,-0.384538 -1.935547,-0.554687 -1.178875,-0.26628 -2.005961,-0.530153 -2.480468,-0.789063 -0.474527,-0.26629 -0.710938,-0.646958 -0.710938,-1.142578 0,-0.56217 0.225459,-0.971559 0.677735,-1.230469 0.459682,-0.26629 1.052696,-0.400371 1.779297,-0.40039 0.726589,2e-5 1.352489,0.140795 1.878906,0.421874 0.526407,0.281101 1.001211,0.747498 1.423828,1.398438 l 2.390625,-1.863281 C 28.549563,16.910789 26.667582,16.00001 24.005859,16 Z m 0,1 c 1.996465,8e-6 3.215983,0.626971 4.136719,1.640625 l -0.826172,0.644531 C 26.99027,18.945275 26.711048,18.525324 26.3125,18.3125 c -0.695048,-0.37112 -1.496039,-0.539039 -2.351562,-0.539062 -0.848055,2.2e-5 -1.622208,0.154988 -2.279297,0.535156 -0.720323,0.414982 -1.177735,1.267211 -1.177735,2.095703 0,0.814747 0.517228,1.61976 1.222656,2.015625 a 1.0001,1.0001 0 0 0 0.0098,0.0059 c 0.653629,0.356646 1.519587,0.609492 2.738281,0.884766 0.626308,0.163858 1.245537,0.341548 1.857422,0.533203 a 1.0001,1.0001 0 0 0 0.0098,0.0039 c 0.546858,0.164955 1.012929,0.389786 1.416015,0.671875 a 1.0001,1.0001 0 0 0 0.0059,0.0039 c 0.374129,0.258009 0.665395,0.583003 0.90039,1.017578 0.20012,0.370113 0.335921,0.922338 0.335938,1.6875 -1.7e-5,1.318547 -0.374094,2.132614 -1.152344,2.761718 a 1.0001,1.0001 0 0 0 -0.002,0.002 c -0.760879,0.619444 -2.006431,1.007812 -3.839844,1.007812 -1.253973,0 -2.295527,-0.207295 -3.15039,-0.589844 -0.537797,-0.242815 -0.911105,-0.744088 -1.320313,-1.1875 l 0.757813,-0.578125 c 0.170659,0.182556 0.330592,0.423936 0.513672,0.56836 0.422321,0.333173 0.911795,0.581872 1.447265,0.753906 0.558055,0.179303 1.165372,0.259777 1.81836,0.259765 0.965425,1.3e-5 1.808073,-0.151529 2.509765,-0.578124 a 1.0001,1.0001 0 0 0 0.0039,-0.002 C 27.324358,29.193153 27.785156,28.318474 27.78517,27.4512 27.785155,26.946532 27.642294,26.426024 27.333998,26.00784 27.051119,25.615676 26.663513,25.32643 26.22853,25.113309 25.752595,24.871863 25.153633,24.685328 24.308608,24.464872 23.521,24.253883 22.779534,24.0441 22.082045,23.834012 l -0.0039,-0.002 c -0.624411,-0.197124 -1.14527,-0.442549 -1.570313,-0.726562 -0.392254,-0.26656 -0.680365,-0.57955 -0.902343,-0.972657 -0.189824,-0.336158 -0.316406,-0.818988 -0.316407,-1.49414 0,-1.231654 0.355166,-2.009533 1.115235,-2.636719 a 1.0001,1.0001 0 0 0 0.0039,-0.002 c 0.751226,-0.625504 1.907761,-0.999991 3.597656,-1 z"
     id="path4541"
     inkscape:connector-curvature="0" />
  <rect
     style="fill:none;stroke:url(#f);stroke-linecap:round;stroke-linejoin:round"
     rx="1"
     ry="1"
     height="37"
     width="37"
     y="5.5"
     x="5.5"
     id="rect61" />
  <rect
     style="color:#000000;opacity:0.6;fill:none;stroke:#4d4d4d;stroke-opacity:1"
     rx="2"
     ry="2"
     height="39"
     width="39"
     y="4.5"
     x="4.5"
     id="rect63" />
</svg>
