<?xml version="1.0" encoding="UTF-8" standalone="no"?>
<!-- Created with Inkscape (http://www.inkscape.org/) -->

<svg
   xmlns:dc="http://purl.org/dc/elements/1.1/"
   xmlns:cc="http://creativecommons.org/ns#"
   xmlns:rdf="http://www.w3.org/1999/02/22-rdf-syntax-ns#"
   xmlns:svg="http://www.w3.org/2000/svg"
   xmlns="http://www.w3.org/2000/svg"
   xmlns:xlink="http://www.w3.org/1999/xlink"
   xmlns:sodipodi="http://sodipodi.sourceforge.net/DTD/sodipodi-0.dtd"
   xmlns:inkscape="http://www.inkscape.org/namespaces/inkscape"
   version="1.1"
   width="48"
   height="48"
   id="svg5390"
   inkscape:version="0.91 r"
   sodipodi:docname="smartgit.svg">
  <sodipodi:namedview
     pagecolor="#6f6f6f"
     bordercolor="#666666"
     borderopacity="1"
     objecttolerance="10"
     gridtolerance="10"
     guidetolerance="10"
     inkscape:pageopacity="0.50980392"
     inkscape:pageshadow="2"
     inkscape:window-width="1600"
     inkscape:window-height="845"
     id="namedview46"
     showgrid="false"
     inkscape:zoom="1"
     inkscape:cx="22.824469"
     inkscape:cy="24"
     inkscape:window-x="0"
     inkscape:window-y="30"
     inkscape:window-maximized="1"
     inkscape:current-layer="svg5390" />
  <defs
     id="defs5392">
    <linearGradient
       x1="23.99999"
       y1="4.999989"
       x2="23.99999"
       y2="43"
       id="linearGradient5313"
       xlink:href="#linearGradient3924-9-5"
       gradientUnits="userSpaceOnUse"
       gradientTransform="translate(3.7e-6,1.00001)" />
    <linearGradient
       id="linearGradient3924-9-5">
      <stop
         id="stop3926-2-0"
         style="stop-color:#ffffff;stop-opacity:1"
         offset="0" />
      <stop
         id="stop3928-2-0"
         style="stop-color:#ffffff;stop-opacity:0.23529412"
         offset="0.06316455" />
      <stop
         id="stop3930-6-1"
         style="stop-color:#ffffff;stop-opacity:0.15686275"
         offset="0.95056331" />
      <stop
         id="stop3932-1-6"
         style="stop-color:#ffffff;stop-opacity:0.39215687"
         offset="1" />
    </linearGradient>
    <radialGradient
       cx="11.546201"
       cy="8.4497671"
       r="19.99999"
       fx="11.546201"
       fy="8.4497671"
       id="radialGradient5232"
       xlink:href="#linearGradient2867-449-88-871-390-598-476-591-434-148-57-177-7-4-9-9-2-2-0-8-0"
       gradientUnits="userSpaceOnUse"
       gradientTransform="matrix(1.942847e-8,2.3369903,-2.4722571,-4.3056281e-8,44.890112,-11.434803)" />
    <linearGradient
       id="linearGradient2867-449-88-871-390-598-476-591-434-148-57-177-7-4-9-9-2-2-0-8-0">
      <stop
         id="stop3750-6-3-7-0-5-3-5-7"
         style="stop-color:#54bfec;stop-opacity:1"
         offset="0" />
      <stop
         id="stop3752-3-7-7-6-4-4-3-4"
         style="stop-color:#55c1ec;stop-opacity:1"
         offset="0.26238" />
      <stop
         id="stop3754-1-7-4-6-36-7-7-2-4"
         style="stop-color:#3689e6;stop-opacity:1"
         offset="0.704952" />
      <stop
         id="stop3756-7-5-7-1-4-3-1-7"
         style="stop-color:#2b63a0;stop-opacity:1"
         offset="1" />
    </linearGradient>
    <linearGradient
       x1="24"
       y1="44"
       x2="24"
       y2="3.8990016"
       id="linearGradient5234"
       xlink:href="#linearGradient3707-319-631-407-324-3-2-9"
       gradientUnits="userSpaceOnUse"
       gradientTransform="translate(2e-6,0.9999993)" />
    <linearGradient
       id="linearGradient3707-319-631-407-324-3-2-9">
      <stop
         id="stop3760-3-9-5"
         style="stop-color:#1e74bc;stop-opacity:1"
         offset="0" />
      <stop
         id="stop3762-0-8-9"
         style="stop-color:#3fa8ea;stop-opacity:1"
         offset="1" />
    </linearGradient>
    <radialGradient
       cx="4.9929786"
       cy="43.5"
       r="2.5"
       fx="4.9929786"
       fy="43.5"
       id="radialGradient3013"
       xlink:href="#linearGradient3688-166-749"
       gradientUnits="userSpaceOnUse"
       gradientTransform="matrix(2.003784,0,0,1.4,27.98813,-17.4)" />
    <linearGradient
       id="linearGradient3688-166-749">
      <stop
         id="stop2883"
         style="stop-color:#181818;stop-opacity:1"
         offset="0" />
      <stop
         id="stop2885"
         style="stop-color:#181818;stop-opacity:0"
         offset="1" />
    </linearGradient>
    <radialGradient
       cx="4.9929786"
       cy="43.5"
       r="2.5"
       fx="4.9929786"
       fy="43.5"
       id="radialGradient3015"
       xlink:href="#linearGradient3688-464-309"
       gradientUnits="userSpaceOnUse"
       gradientTransform="matrix(2.003784,0,0,1.4,-20.01187,-104.4)" />
    <linearGradient
       id="linearGradient3688-464-309">
      <stop
         id="stop2889"
         style="stop-color:#181818;stop-opacity:1"
         offset="0" />
      <stop
         id="stop2891"
         style="stop-color:#181818;stop-opacity:0"
         offset="1" />
    </linearGradient>
    <linearGradient
       id="linearGradient3702-501-757">
      <stop
         id="stop2895"
         style="stop-color:#181818;stop-opacity:0"
         offset="0" />
      <stop
         id="stop2897"
         style="stop-color:#181818;stop-opacity:1"
         offset="0.5" />
      <stop
         id="stop2899"
         style="stop-color:#181818;stop-opacity:0"
         offset="1" />
    </linearGradient>
    <linearGradient
       x1="25.058096"
       y1="47.027729"
       x2="25.058096"
       y2="39.999443"
       id="linearGradient5388"
       xlink:href="#linearGradient3702-501-757"
       gradientUnits="userSpaceOnUse" />
    <linearGradient
       inkscape:collect="always"
       xlink:href="#linearGradient3924-9-5"
       id="linearGradient3031"
       gradientUnits="userSpaceOnUse"
       gradientTransform="translate(3.7e-6,1.00001)"
       x1="23.99999"
       y1="4.999989"
       x2="23.99999"
       y2="43" />
    <radialGradient
       inkscape:collect="always"
       xlink:href="#linearGradient2867-449-88-871-390-598-476-591-434-148-57-177-7-4-9-9-2-2-0-8-0"
       id="radialGradient3039"
       gradientUnits="userSpaceOnUse"
       gradientTransform="matrix(1.942847e-8,2.3369903,-2.4722571,-4.3056281e-8,44.890112,-11.434803)"
       cx="11.546201"
       cy="8.4497671"
       fx="11.546201"
       fy="8.4497671"
       r="19.99999" />
    <linearGradient
       inkscape:collect="always"
       xlink:href="#linearGradient3707-319-631-407-324-3-2-9"
       id="linearGradient3041"
       gradientUnits="userSpaceOnUse"
       gradientTransform="translate(2e-6,0.9999993)"
       x1="24"
       y1="44"
       x2="24"
       y2="3.8990016" />
  </defs>
  <metadata
     id="metadata5395">
    <rdf:RDF>
      <cc:Work
         rdf:about="">
        <dc:format>image/svg+xml</dc:format>
        <dc:type
           rdf:resource="http://purl.org/dc/dcmitype/StillImage" />
        <dc:title />
      </cc:Work>
    </rdf:RDF>
  </metadata>
  <g
     style="opacity:0.4"
     id="g3712"
     transform="matrix(1.1578952,0,0,0.57142859,-3.789484,19.142856)">
    <rect
       style="fill:url(#radialGradient3013);fill-opacity:1;stroke:none"
       id="rect2801"
       y="40"
       x="38"
       height="7"
       width="5" />
    <rect
       style="fill:url(#radialGradient3015);fill-opacity:1;stroke:none"
       id="rect3696"
       transform="scale(-1,-1)"
       y="-47"
       x="-10"
       height="7"
       width="5" />
    <rect
       style="fill:url(#linearGradient5388);fill-opacity:1;stroke:none"
       id="rect3700"
       y="40"
       x="10"
       height="7.0000005"
       width="28" />
  </g>
  <rect
     style="color:#000000;fill:url(#radialGradient3039);fill-opacity:1;fill-rule:nonzero;stroke:url(#linearGradient3041);stroke-width:1;stroke-linecap:round;stroke-linejoin:round;stroke-miterlimit:4;stroke-opacity:1;stroke-dasharray:none;stroke-dashoffset:0;marker:none;visibility:visible;display:inline;overflow:visible;enable-background:accumulate"
     id="rect5505-21-69-0"
     y="5.5"
     x="4.5"
     ry="2"
     rx="2"
     height="39"
     width="39" />
  <path
     style="opacity:0.1;color:#000000;fill:#ffffff;fill-opacity:1;fill-rule:nonzero;stroke:none;stroke-width:1;marker:none;visibility:visible;display:inline;overflow:visible;enable-background:accumulate"
     id="rect3132"
     inkscape:connector-curvature="0"
     d="m 9,8 0,2 -1.5,0 0,1 1.5,0 0,4 -1.5,0 0,1 1.5,0 0,4 -1.5,0 0,1 1.5,0 0,4 -1.5,0 0,1 1.5,0 0,4 -1.5,0 0,1 1.5,0 0,4 -1.5,0 0,1 1.5,0 0,4 -1.5,0 0,1 1.5,0 0,1 1,0 0,-1 4,0 0,1 1,0 0,-1 4,0 0,1 1,0 0,-1 4,0 0,1 1,0 0,-1 4,0 0,1 1,0 0,-1 4,0 0,1 1,0 0,-1 4,0 0,1 1,0 0,-1 1.5,0 0,-1 -1.5,0 0,-4 1.5,0 0,-1 -1.5,0 0,-4 1.5,0 0,-1 -1.5,0 0,-4 1.5,0 0,-1 -1.5,0 0,-4 1.5,0 0,-1 -1.5,0 0,-4 1.5,0 0,-1 -1.5,0 0,-4 1.5,0 0,-1 -1.5,0 0,-2 -1,0 0,2 -4,0 0,-2 -1,0 0,2 -4,0 0,-2 -1,0 0,2 -4,0 0,-2 -1,0 0,2 -4,0 0,-2 -1,0 0,2 -4,0 0,-2 -1,0 0,2 -4,0 0,-2 -1,0 z m 1,3 4,0 0,4 -4,0 0,-4 z m 5,0 4,0 0,4 -4,0 0,-4 z m 5,0 4,0 0,4 -4,0 0,-4 z m 5,0 4,0 0,4 -4,0 0,-4 z m 5,0 4,0 0,4 -4,0 0,-4 z m 5,0 4,0 0,4 -4,0 0,-4 z m -25,5 4,0 0,4 -4,0 0,-4 z m 5,0 4,0 0,4 -4,0 0,-4 z m 5,0 4,0 0,4 -4,0 0,-4 z m 5,0 4,0 0,4 -4,0 0,-4 z m 5,0 4,0 0,4 -4,0 0,-4 z m 5,0 4,0 0,4 -4,0 0,-4 z m -25,5 4,0 0,4 -4,0 0,-4 z m 5,0 4,0 0,4 -4,0 0,-4 z m 5,0 4,0 0,4 -4,0 0,-4 z m 5,0 4,0 0,4 -4,0 0,-4 z m 5,0 4,0 0,4 -4,0 0,-4 z m 5,0 4,0 0,4 -4,0 0,-4 z m -25,5 4,0 0,4 -4,0 0,-4 z m 5,0 4,0 0,4 -4,0 0,-4 z m 5,0 4,0 0,4 -4,0 0,-4 z m 5,0 4,0 0,4 -4,0 0,-4 z m 5,0 4,0 0,4 -4,0 0,-4 z m 5,0 4,0 0,4 -4,0 0,-4 z m -25,5 4,0 0,4 -4,0 0,-4 z m 5,0 4,0 0,4 -4,0 0,-4 z m 5,0 4,0 0,4 -4,0 0,-4 z m 5,0 4,0 0,4 -4,0 0,-4 z m 5,0 4,0 0,4 -4,0 0,-4 z m 5,0 4,0 0,4 -4,0 0,-4 z m -25,5 4,0 0,4 -4,0 0,-4 z m 5,0 4,0 0,4 -4,0 0,-4 z m 5,0 4,0 0,4 -4,0 0,-4 z m 5,0 4,0 0,4 -4,0 0,-4 z m 5,0 4,0 0,4 -4,0 0,-4 z m 5,0 4,0 0,4 -4,0 0,-4 z" />
  <path
     style="opacity:0.05;color:#000000;fill:#2e8ed3;fill-opacity:1;fill-rule:nonzero;stroke:none;stroke-width:0.99999988;marker:none;visibility:visible;display:inline;overflow:visible;enable-background:accumulate"
     id="path5258-8"
     inkscape:connector-curvature="0"
     d="m 24.899095,7 c -2.253636,0.1007825 -4.757578,0.7456547 -7.59375,2.03125 a 3.0056163,3.0056163 0 0 0 1.46875,5.75 c 0,0 2.266648,-0.04358 3.4375,0.34375 0.585426,0.193665 0.563427,0.345991 0.46875,0.125 -0.09468,-0.220991 0.181461,-0.06983 -0.5625,1.21875 l -2.125,3.6875 a 3.0056163,3.0056163 0 0 0 -2.5,1.5 L 9.3990948,35.6875 a 3.0056163,3.0056163 0 0 0 1.0937502,4.09375 l 4.84375,2.8125 A 3.0056163,3.0056163 0 0 0 19.430345,41.5 l 8.125,-14.03125 a 3.0056163,3.0056163 0 0 0 0.0625,-2.9375 l 1.75,-3.03125 a 3.0056163,3.0056163 0 0 0 1.09375,1.0625 l 2.21875,1.28125 A 3.0056163,3.0056163 0 0 0 36.774095,22.75 l 3.25,-5.65625 A 3.0056163,3.0056163 0 0 0 38.961595,13 l -2.1875,-1.28125 a 3.0056163,3.0056163 0 0 0 -2.28125,-0.3125 l -0.28125,0.0625 C 33.433608,10.327508 32.321968,9.0813533 30.586595,8.1875 29.082091,7.4125623 27.146307,6.8995051 24.899095,7 z" />
  <rect
     style="opacity:0.5;fill:none;stroke:url(#linearGradient3031);stroke-width:1;stroke-linecap:round;stroke-linejoin:round;stroke-miterlimit:4;stroke-opacity:1;stroke-dasharray:none;stroke-dashoffset:0"
     id="rect6741-1"
     y="6.5"
     x="5.5"
     ry="1"
     rx="1"
     height="37"
     width="37" />
  <path
     inkscape:connector-curvature="0"
     id="path4177"
     style="fill:none;fill-opacity:1;fill-rule:evenodd;stroke:#000000;stroke-opacity:1;stroke-linejoin:round;stroke-linecap:round;stroke-width:2;stroke-miterlimit:4;stroke-dasharray:none;opacity:0.15"
     d="m 23.998802,12 c -7.177751,0 -12.998799,5.967546 -12.998799,13.329401 0,5.888996 3.724545,10.884452 8.890388,12.646977 0.650419,0.122738 0.887444,-0.288843 0.887444,-0.642331 0,-0.316666 -0.01117,-1.154561 -0.01756,-2.266571 -3.616009,0.805164 -4.378955,-1.787073 -4.378955,-1.787073 -0.591363,-1.53996 -1.443691,-1.949906 -1.443691,-1.949906 -1.180331,-0.826439 0.08938,-0.810074 0.08938,-0.810074 1.304829,0.0941 1.99116,1.373852 1.99116,1.373852 1.159582,2.036642 3.043003,1.448315 3.783602,1.107102 0.118113,-0.860806 0.454097,-1.448314 0.825194,-1.781345 -2.886583,-0.336304 -5.921604,-1.480226 -5.921604,-6.587784 0,-1.454862 0.506767,-2.645424 1.338346,-3.576601 -0.134073,-0.337123 -0.580189,-1.692974 0.127691,-3.527505 0,0 1.090947,-0.358397 3.574511,1.366488 1.036679,-0.29621 2.149175,-0.443495 3.254488,-0.449223 1.104514,0.0056 2.216211,0.153013 3.254488,0.449223 2.481965,-1.724885 3.571319,-1.366488 3.571319,-1.366488 0.709473,1.834531 0.263359,3.190382 0.130083,3.527505 0.833174,0.931177 1.335952,2.121739 1.335952,3.576601 0,5.120649 -3.03981,6.24739 -5.935172,6.577147 0.466067,0.411584 0.881857,1.22493 0.881857,2.467864 0,1.782161 -0.01596,3.219839 -0.01596,3.656788 0,0.356759 0.23463,0.771617 0.893827,0.641514 5.161853,-1.766617 8.883206,-6.758801 8.883206,-12.64616 C 36.999997,17.967546 31.178948,12 23.998801,12" />
  <path
     d="m 23.998802,12 c -7.177751,0 -12.998799,5.967546 -12.998799,13.329401 0,5.888996 3.724545,10.884452 8.890388,12.646977 0.650419,0.122738 0.887444,-0.288843 0.887444,-0.642331 0,-0.316666 -0.01117,-1.154561 -0.01756,-2.266571 -3.616009,0.805164 -4.378955,-1.787073 -4.378955,-1.787073 -0.591363,-1.53996 -1.443691,-1.949906 -1.443691,-1.949906 -1.180331,-0.826439 0.08938,-0.810074 0.08938,-0.810074 1.304829,0.0941 1.99116,1.373852 1.99116,1.373852 1.159582,2.036642 3.043003,1.448315 3.783602,1.107102 0.118113,-0.860806 0.454097,-1.448314 0.825194,-1.781345 -2.886583,-0.336304 -5.921604,-1.480226 -5.921604,-6.587784 0,-1.454862 0.506767,-2.645424 1.338346,-3.576601 -0.134073,-0.337123 -0.580189,-1.692974 0.127691,-3.527505 0,0 1.090947,-0.358397 3.574511,1.366488 1.036679,-0.29621 2.149175,-0.443495 3.254488,-0.449223 1.104514,0.0056 2.216211,0.153013 3.254488,0.449223 2.481965,-1.724885 3.571319,-1.366488 3.571319,-1.366488 0.709473,1.834531 0.263359,3.190382 0.130083,3.527505 0.833174,0.931177 1.335952,2.121739 1.335952,3.576601 0,5.120649 -3.03981,6.24739 -5.935172,6.577147 0.466067,0.411584 0.881857,1.22493 0.881857,2.467864 0,1.782161 -0.01596,3.219839 -0.01596,3.656788 0,0.356759 0.23463,0.771617 0.893827,0.641514 5.161853,-1.766617 8.883206,-6.758801 8.883206,-12.64616 C 36.999997,17.967546 31.178948,12 23.998801,12"
     style="fill:none;fill-opacity:1;fill-rule:evenodd;stroke:#000000;stroke-opacity:1;stroke-linejoin:round;stroke-linecap:round;stroke-width:1;stroke-miterlimit:4;stroke-dasharray:none;opacity:0.15"
     id="path4179"
     inkscape:connector-curvature="0" />
  <path
     d="m 23.998802,12 c -7.177751,0 -12.998799,5.967546 -12.998799,13.329401 0,5.888996 3.724545,10.884452 8.890388,12.646977 0.650419,0.122738 0.887444,-0.288843 0.887444,-0.642331 0,-0.316666 -0.01117,-1.154561 -0.01756,-2.266571 -3.616009,0.805164 -4.378955,-1.787073 -4.378955,-1.787073 -0.591363,-1.53996 -1.443691,-1.949906 -1.443691,-1.949906 -1.180331,-0.826439 0.08938,-0.810074 0.08938,-0.810074 1.304829,0.0941 1.99116,1.373852 1.99116,1.373852 1.159582,2.036642 3.043003,1.448315 3.783602,1.107102 0.118113,-0.860806 0.454097,-1.448314 0.825194,-1.781345 -2.886583,-0.336304 -5.921604,-1.480226 -5.921604,-6.587784 0,-1.454862 0.506767,-2.645424 1.338346,-3.576601 -0.134073,-0.337123 -0.580189,-1.692974 0.127691,-3.527505 0,0 1.090947,-0.358397 3.574511,1.366488 1.036679,-0.29621 2.149175,-0.443495 3.254488,-0.449223 1.104514,0.0056 2.216211,0.153013 3.254488,0.449223 2.481965,-1.724885 3.571319,-1.366488 3.571319,-1.366488 0.709473,1.834531 0.263359,3.190382 0.130083,3.527505 0.833174,0.931177 1.335952,2.121739 1.335952,3.576601 0,5.120649 -3.03981,6.24739 -5.935172,6.577147 0.466067,0.411584 0.881857,1.22493 0.881857,2.467864 0,1.782161 -0.01596,3.219839 -0.01596,3.656788 0,0.356759 0.23463,0.771617 0.893827,0.641514 5.161853,-1.766617 8.883206,-6.758801 8.883206,-12.64616 C 36.999997,17.967546 31.178948,12 23.998801,12"
     style="fill:#ffffff;fill-opacity:1;fill-rule:evenodd;stroke:none"
     id="path3815"
     inkscape:connector-curvature="0" />
</svg>
