<?xml version="1.0" encoding="UTF-8" standalone="no"?>
<!-- Created with Inkscape (http://www.inkscape.org/) -->
<svg id="svg5390" xmlns:rdf="http://www.w3.org/1999/02/22-rdf-syntax-ns#" xmlns="http://www.w3.org/2000/svg" height="48" width="48" version="1.1" xmlns:cc="http://creativecommons.org/ns#" xmlns:xlink="http://www.w3.org/1999/xlink" xmlns:dc="http://purl.org/dc/elements/1.1/">
 <defs id="defs5392">
  <radialGradient id="radialGradient3013" gradientUnits="userSpaceOnUse" cy="43.5" cx="4.993" gradientTransform="matrix(2.0038 0 0 1.4 27.988 -17.4)" r="2.5">
   <stop id="stop2883" stop-color="#181818" offset="0"/>
   <stop id="stop2885" stop-color="#181818" stop-opacity="0" offset="1"/>
  </radialGradient>
  <radialGradient id="radialGradient3015" gradientUnits="userSpaceOnUse" cy="43.5" cx="4.993" gradientTransform="matrix(2.0038 0 0 1.4 -20.012 -104.4)" r="2.5">
   <stop id="stop2889" stop-color="#181818" offset="0"/>
   <stop id="stop2891" stop-color="#181818" stop-opacity="0" offset="1"/>
  </radialGradient>
  <linearGradient id="linearGradient5388" y2="39.999" gradientUnits="userSpaceOnUse" x2="25.058" y1="47.028" x1="25.058">
   <stop id="stop2895" stop-color="#181818" stop-opacity="0" offset="0"/>
   <stop id="stop2897" stop-color="#181818" offset=".5"/>
   <stop id="stop2899" stop-color="#181818" stop-opacity="0" offset="1"/>
  </linearGradient>
  <linearGradient id="linearGradient3031" y2="43" gradientUnits="userSpaceOnUse" x2="24" gradientTransform="translate(.0000037 1)" y1="5" x1="24">
   <stop id="stop3926-2-0" stop-color="#fff" offset="0"/>
   <stop id="stop3928-2-0" stop-color="#fff" stop-opacity=".23529" offset=".063165"/>
   <stop id="stop3930-6-1" stop-color="#fff" stop-opacity=".15686" offset=".95056"/>
   <stop id="stop3932-1-6" stop-color="#fff" stop-opacity=".39216" offset="1"/>
  </linearGradient>
  <radialGradient id="radialGradient3039" gradientUnits="userSpaceOnUse" cy="8.4498" cx="11.546" gradientTransform="matrix(1.9428e-8 2.337 -2.4723 -4.3056e-8 44.89 -11.435)" r="20">
   <stop id="stop3750-6-3-7-0-5-3-5-7" stop-color="#54bfec" offset="0"/>
   <stop id="stop3752-3-7-7-6-4-4-3-4" stop-color="#55c1ec" offset=".26238"/>
   <stop id="stop3754-1-7-4-6-36-7-7-2-4" stop-color="#3689e6" offset=".70495"/>
   <stop id="stop3756-7-5-7-1-4-3-1-7" stop-color="#2b63a0" offset="1"/>
  </radialGradient>
  <linearGradient id="linearGradient3041" y2="3.899" gradientUnits="userSpaceOnUse" x2="24" gradientTransform="translate(.000002 1)" y1="44" x1="24">
   <stop id="stop3760-3-9-5" stop-color="#1e74bc" offset="0"/>
   <stop id="stop3762-0-8-9" stop-color="#3fa8ea" offset="1"/>
  </linearGradient>
 </defs>
 <metadata id="metadata5395">
  <rdf:RDF>
   <cc:Work rdf:about="">
    <dc:format>image/svg+xml</dc:format>
    <dc:type rdf:resource="http://purl.org/dc/dcmitype/StillImage"/>
    <dc:title/>
   </cc:Work>
  </rdf:RDF>
 </metadata>
 <g id="g3712" opacity=".4" transform="matrix(1.1579 0 0 .57143 -3.7895 19.143)">
  <rect id="rect2801" height="7" width="5" y="40" x="38" fill="url(#radialGradient3013)"/>
  <rect id="rect3696" transform="scale(-1)" height="7" width="5" y="-47" x="-10" fill="url(#radialGradient3015)"/>
  <rect id="rect3700" height="7" width="28" y="40" x="10" fill="url(#linearGradient5388)"/>
 </g>
 <rect id="rect5505-21-69-0" stroke-linejoin="round" height="39" stroke="url(#linearGradient3041)" stroke-linecap="round" fill="url(#radialGradient3039)" style="color:#000000" rx="2" ry="2" width="39" y="5.5" x="4.5"/>
 <path id="rect3132" opacity=".1" style="color:#000000" d="m9 8v2h-1.5v1h1.5v4h-1.5v1h1.5v4h-1.5v1h1.5v4h-1.5v1h1.5v4h-1.5v1h1.5v4h-1.5v1h1.5v4h-1.5v1h1.5v1h1v-1h4v1h1v-1h4v1h1v-1h4v1h1v-1h4v1h1v-1h4v1h1v-1h4v1h1v-1h1.5v-1h-1.5v-4h1.5v-1h-1.5v-4h1.5v-1h-1.5v-4h1.5v-1h-1.5v-4h1.5v-1h-1.5v-4h1.5v-1h-1.5v-4h1.5v-1h-1.5v-2h-1v2h-4v-2h-1v2h-4v-2h-1v2h-4v-2h-1v2h-4v-2h-1v2h-4v-2h-1v2h-4v-2h-1zm1 3h4v4h-4v-4zm5 0h4v4h-4v-4zm5 0h4v4h-4v-4zm5 0h4v4h-4v-4zm5 0h4v4h-4v-4zm5 0h4v4h-4v-4zm-25 5h4v4h-4v-4zm5 0h4v4h-4v-4zm5 0h4v4h-4v-4zm5 0h4v4h-4v-4zm5 0h4v4h-4v-4zm5 0h4v4h-4v-4zm-25 5h4v4h-4v-4zm5 0h4v4h-4v-4zm5 0h4v4h-4v-4zm5 0h4v4h-4v-4zm5 0h4v4h-4v-4zm5 0h4v4h-4v-4zm-25 5h4v4h-4v-4zm5 0h4v4h-4v-4zm5 0h4v4h-4v-4zm5 0h4v4h-4v-4zm5 0h4v4h-4v-4zm5 0h4v4h-4v-4zm-25 5h4v4h-4v-4zm5 0h4v4h-4v-4zm5 0h4v4h-4v-4zm5 0h4v4h-4v-4zm5 0h4v4h-4v-4zm5 0h4v4h-4v-4zm-25 5h4v4h-4v-4zm5 0h4v4h-4v-4zm5 0h4v4h-4v-4zm5 0h4v4h-4v-4zm5 0h4v4h-4v-4zm5 0h4v4h-4v-4z" fill="#fff"/>
 <path id="path5258-8" opacity=".05" style="color:#000000" d="m24.899 7c-2.2536 0.10078-4.7576 0.74565-7.5938 2.0312a3.0056 3.0056 0 0 0 1.4688 5.75s2.2666-0.04358 3.4375 0.34375c0.58543 0.19366 0.56343 0.34599 0.46875 0.125s0.18146-0.06983-0.5625 1.2188l-2.125 3.6875a3.0056 3.0056 0 0 0 -2.5 1.5l-8.0939 14.032a3.0056 3.0056 0 0 0 1.0938 4.0938l4.8438 2.8125a3.0056 3.0056 0 0 0 4.093 -1.094l8.125-14.031a3.0056 3.0056 0 0 0 0.0625 -2.9375l1.75-3.0312a3.0056 3.0056 0 0 0 1.0938 1.0625l2.2188 1.2812a3.0056 3.0056 0 0 0 4.093 -1.095l3.25-5.6562a3.0056 3.0056 0 0 0 -1.062 -4.094l-2.1875-1.2812a3.0056 3.0056 0 0 0 -2.2812 -0.3125l-0.28125 0.0625c-0.778-1.14-1.89-2.3866-3.625-3.2805-1.505-0.7749-3.441-1.288-5.688-1.1875z" fill="#2e8ed3"/>
 <rect id="rect6741-1" opacity=".5" stroke-linejoin="round" rx="1" ry="1" height="37" width="37" stroke="url(#linearGradient3031)" stroke-linecap="round" y="6.5" x="5.5" fill="none"/>
 <path id="path4177" stroke-linejoin="round" opacity=".15" d="m23.999 12c-7.1778 0-12.999 5.9675-12.999 13.329 0 5.889 3.7245 10.884 8.8904 12.647 0.65042 0.12274 0.88744-0.28884 0.88744-0.64233 0-0.31667-0.01117-1.1546-0.01756-2.2666-3.616 0.80516-4.379-1.7871-4.379-1.7871-0.59136-1.54-1.4437-1.9499-1.4437-1.9499-1.1803-0.82644 0.08938-0.81007 0.08938-0.81007 1.3048 0.0941 1.9912 1.3739 1.9912 1.3739 1.1596 2.0366 3.043 1.4483 3.7836 1.1071 0.11811-0.86081 0.4541-1.4483 0.82519-1.7813-2.8866-0.3363-5.9216-1.4802-5.9216-6.5878 0-1.4549 0.50677-2.6454 1.3383-3.5766-0.13407-0.33712-0.58019-1.693 0.12769-3.5275 0 0 1.0909-0.3584 3.5745 1.3665 1.0367-0.29621 2.1492-0.4435 3.2545-0.44922 1.1045 0.0056 2.2162 0.15301 3.2545 0.44922 2.482-1.7249 3.5713-1.3665 3.5713-1.3665 0.70947 1.8345 0.26336 3.1904 0.13008 3.5275 0.83317 0.93118 1.336 2.1217 1.336 3.5766 0 5.1206-3.0398 6.2474-5.9352 6.5771 0.46607 0.41158 0.88186 1.2249 0.88186 2.4679 0 1.7822-0.01596 3.2198-0.01596 3.6568 0 0.35676 0.23463 0.77162 0.89383 0.64151 5.1619-1.7666 8.8832-6.7588 8.8832-12.646 0-7.362-5.821-13.33-13.001-13.33" stroke="#000" stroke-linecap="round" stroke-width="2" fill="none"/>
 <path id="path4179" stroke-linejoin="round" opacity=".15" d="m23.999 12c-7.1778 0-12.999 5.9675-12.999 13.329 0 5.889 3.7245 10.884 8.8904 12.647 0.65042 0.12274 0.88744-0.28884 0.88744-0.64233 0-0.31667-0.01117-1.1546-0.01756-2.2666-3.616 0.80516-4.379-1.7871-4.379-1.7871-0.59136-1.54-1.4437-1.9499-1.4437-1.9499-1.1803-0.82644 0.08938-0.81007 0.08938-0.81007 1.3048 0.0941 1.9912 1.3739 1.9912 1.3739 1.1596 2.0366 3.043 1.4483 3.7836 1.1071 0.11811-0.86081 0.4541-1.4483 0.82519-1.7813-2.8866-0.3363-5.9216-1.4802-5.9216-6.5878 0-1.4549 0.50677-2.6454 1.3383-3.5766-0.13407-0.33712-0.58019-1.693 0.12769-3.5275 0 0 1.0909-0.3584 3.5745 1.3665 1.0367-0.29621 2.1492-0.4435 3.2545-0.44922 1.1045 0.0056 2.2162 0.15301 3.2545 0.44922 2.482-1.7249 3.5713-1.3665 3.5713-1.3665 0.70947 1.8345 0.26336 3.1904 0.13008 3.5275 0.83317 0.93118 1.336 2.1217 1.336 3.5766 0 5.1206-3.0398 6.2474-5.9352 6.5771 0.46607 0.41158 0.88186 1.2249 0.88186 2.4679 0 1.7822-0.01596 3.2198-0.01596 3.6568 0 0.35676 0.23463 0.77162 0.89383 0.64151 5.1619-1.7666 8.8832-6.7588 8.8832-12.646 0-7.362-5.821-13.33-13.001-13.33" stroke="#000" stroke-linecap="round" fill="none"/>
 <path id="path3815" d="m23.999 12c-7.1778 0-12.999 5.9675-12.999 13.329 0 5.889 3.7245 10.884 8.8904 12.647 0.65042 0.12274 0.88744-0.28884 0.88744-0.64233 0-0.31667-0.01117-1.1546-0.01756-2.2666-3.616 0.80516-4.379-1.7871-4.379-1.7871-0.59136-1.54-1.4437-1.9499-1.4437-1.9499-1.1803-0.82644 0.08938-0.81007 0.08938-0.81007 1.3048 0.0941 1.9912 1.3739 1.9912 1.3739 1.1596 2.0366 3.043 1.4483 3.7836 1.1071 0.11811-0.86081 0.4541-1.4483 0.82519-1.7813-2.8866-0.3363-5.9216-1.4802-5.9216-6.5878 0-1.4549 0.50677-2.6454 1.3383-3.5766-0.13407-0.33712-0.58019-1.693 0.12769-3.5275 0 0 1.0909-0.3584 3.5745 1.3665 1.0367-0.29621 2.1492-0.4435 3.2545-0.44922 1.1045 0.0056 2.2162 0.15301 3.2545 0.44922 2.482-1.7249 3.5713-1.3665 3.5713-1.3665 0.70947 1.8345 0.26336 3.1904 0.13008 3.5275 0.83317 0.93118 1.336 2.1217 1.336 3.5766 0 5.1206-3.0398 6.2474-5.9352 6.5771 0.46607 0.41158 0.88186 1.2249 0.88186 2.4679 0 1.7822-0.01596 3.2198-0.01596 3.6568 0 0.35676 0.23463 0.77162 0.89383 0.64151 5.1619-1.7666 8.8832-6.7588 8.8832-12.646 0-7.362-5.821-13.33-13.001-13.33" fill-rule="evenodd" fill="#fff"/>
</svg>
