<?xml version="1.0" encoding="UTF-8" standalone="no"?>
<svg
   xmlns:dc="http://purl.org/dc/elements/1.1/"
   xmlns:cc="http://creativecommons.org/ns#"
   xmlns:rdf="http://www.w3.org/1999/02/22-rdf-syntax-ns#"
   xmlns:svg="http://www.w3.org/2000/svg"
   xmlns="http://www.w3.org/2000/svg"
   xmlns:xlink="http://www.w3.org/1999/xlink"
   xmlns:sodipodi="http://sodipodi.sourceforge.net/DTD/sodipodi-0.dtd"
   xmlns:inkscape="http://www.inkscape.org/namespaces/inkscape"
   version="1.1"
   width="48"
   height="48"
   id="svg6649"
   inkscape:version="0.91 r13725"
   sodipodi:docname="softwarecenter.svg">
  <sodipodi:namedview
     pagecolor="#ffffff"
     bordercolor="#666666"
     borderopacity="1"
     objecttolerance="10"
     gridtolerance="10"
     guidetolerance="10"
     inkscape:pageopacity="0"
     inkscape:pageshadow="2"
     inkscape:window-width="1535"
     inkscape:window-height="876"
     id="namedview87"
     showgrid="false"
     inkscape:zoom="1"
     inkscape:cx="34.677825"
     inkscape:cy="24"
     inkscape:window-x="65"
     inkscape:window-y="24"
     inkscape:window-maximized="1"
     inkscape:current-layer="svg6649" />
  <defs
     id="defs6651">
    <linearGradient
       id="linearGradient3924-1">
      <stop
         id="stop3926-3"
         style="stop-color:#ffffff;stop-opacity:1"
         offset="0" />
      <stop
         id="stop3928-91"
         style="stop-color:#ffffff;stop-opacity:0.23529412"
         offset="0.06316455" />
      <stop
         id="stop3930-6"
         style="stop-color:#ffffff;stop-opacity:0.15686275"
         offset="0.95056331" />
      <stop
         id="stop3932-6"
         style="stop-color:#ffffff;stop-opacity:0.39215687"
         offset="1" />
    </linearGradient>
    <linearGradient
       id="linearGradient4644-104-3-3-6-2-0">
      <stop
         id="stop5237-6-5-1-7-8"
         style="stop-color:#ff7a35;stop-opacity:1"
         offset="0" />
      <stop
         id="stop5239-4-6-4-8-5"
         style="stop-color:#f0431a;stop-opacity:1"
         offset="1" />
    </linearGradient>
    <linearGradient
       id="linearGradient4067-0-2">
      <stop
         id="stop4069-2-9"
         style="stop-color:#ffe452;stop-opacity:1"
         offset="0" />
      <stop
         id="stop4071-8-9"
         style="stop-color:#ffeb41;stop-opacity:0"
         offset="1" />
    </linearGradient>
    <linearGradient
       xlink:href="#linearGradient3924-1"
       id="linearGradient3901"
       gradientUnits="userSpaceOnUse"
       gradientTransform="translate(4e-6,1.125e-5)"
       x1="23.99999"
       y1="4.999989"
       x2="23.99999"
       y2="43" />
    <radialGradient
       xlink:href="#linearGradient4644-104-3-3-6-2-0"
       id="radialGradient3904"
       gradientUnits="userSpaceOnUse"
       gradientTransform="matrix(0,9.4975523,-11.65996,0,140.93055,-80.160973)"
       cx="6.7304144"
       cy="9.9571075"
       fx="6.2001843"
       fy="9.9571075"
       r="12.671875" />
    <radialGradient
       xlink:href="#linearGradient4067-0-2"
       id="radialGradient3926"
       cx="7"
       cy="-24"
       fx="7"
       fy="-24"
       r="19.5"
       gradientUnits="userSpaceOnUse"
       gradientTransform="matrix(1.2307692,0,-2.0512812e-8,1.4871795,-2.6153798,11.692308)" />
    <linearGradient
       inkscape:collect="always"
       xlink:href="#linearGradient8054"
       id="linearGradient4578"
       gradientUnits="userSpaceOnUse"
       gradientTransform="translate(-271.99999,-898.3243)"
       x1="288"
       y1="925.36218"
       x2="297"
       y2="925.36218" />
    <linearGradient
       id="linearGradient8054">
      <stop
         style="stop-color:#de4814;stop-opacity:1;"
         offset="0"
         id="stop8056" />
      <stop
         style="stop-color:#ff6000;stop-opacity:1;"
         offset="1"
         id="stop8058" />
    </linearGradient>
  </defs>
  <metadata
     id="metadata6654">
    <rdf:RDF>
      <cc:Work
         rdf:about="">
        <dc:format>image/svg+xml</dc:format>
        <dc:type
           rdf:resource="http://purl.org/dc/dcmitype/StillImage" />
        <dc:title></dc:title>
      </cc:Work>
    </rdf:RDF>
  </metadata>
  <rect
     style="color:#000000;display:inline;overflow:visible;visibility:visible;fill:url(#radialGradient3904);fill-opacity:1;fill-rule:nonzero;stroke:none;stroke-width:0.99999994;marker:none;enable-background:accumulate"
     id="rect5505-21"
     y="4.5"
     x="4.5000124"
     ry="2"
     rx="2"
     height="39"
     width="39" />
  <rect
     style="opacity:0.5;fill:none;stroke:url(#linearGradient3901);stroke-width:1;stroke-linecap:round;stroke-linejoin:round;stroke-miterlimit:4;stroke-dasharray:none;stroke-dashoffset:0;stroke-opacity:1"
     id="rect6741"
     y="5.5"
     x="5.5000124"
     ry="1"
     rx="1"
     height="37"
     width="37" />
  <rect
     width="39"
     height="39"
     rx="2"
     ry="2"
     x="4.5"
     y="-43.500011"
     id="rect3920"
     style="color:#000000;display:inline;overflow:visible;visibility:visible;opacity:0.4;fill:url(#radialGradient3926);fill-opacity:1;fill-rule:nonzero;stroke:none;stroke-width:0.99999994;marker:none;enable-background:accumulate"
     transform="matrix(0,1,-1,0,0,0)" />
  <rect
     style="color:#000000;display:inline;overflow:visible;visibility:visible;opacity:0.4;fill:none;stroke:#642000;stroke-width:1;stroke-linecap:round;stroke-linejoin:round;stroke-miterlimit:4;stroke-dasharray:none;stroke-dashoffset:0;stroke-opacity:1;marker:none;enable-background:accumulate"
     id="rect5505-21-3-2"
     y="4.5"
     x="4.5000124"
     ry="2"
     rx="2"
     height="39"
     width="39" />
  <path
     id="path4244"
     d="m 22.095703,16.076172 c -0.59662,1.2415 -1.177704,2.517625 -1.740234,3.828125 -0.54549,1.2932 -1.10794,2.662928 -1.6875,4.111328 -0.245597,0.632361 -0.507671,1.352953 -0.759766,2.021484 l -0.908203,0 c -1.108,0 -2,0.892 -2,2 0,0.921814 0.621258,1.686397 1.466797,1.919922 C 16.003616,31.248359 15.539189,32.541513 15.037109,34 l 4.142579,0 c 0.18751,-0.6208 0.391661,-1.258762 0.613281,-1.914062 0.23864,-0.6552 0.469796,-1.309644 0.691406,-1.964844 l 6.904297,0 c 0.22158,0.6552 0.442452,1.309643 0.664062,1.964844 0.23863,0.655199 0.451152,1.293262 0.638672,1.914062 l 4.271485,0 C 32.460803,32.541513 31.996378,31.248359 31.533203,29.957031 32.378742,29.723506 33,28.958923 33,28.037109 c 0,-1.108 -0.892,-2 -2,-2 l -0.923828,0 c -0.256278,-0.668507 -0.518461,-1.389144 -0.771484,-2.021484 -0.562541,-1.4484 -1.124991,-2.818128 -1.6875,-4.111328 -0.56253,-1.3105 -1.133311,-2.586625 -1.712891,-3.828125 l -3.808594,0 z m 1.814453,4.060547 c 0.10227,0.2587 0.239697,0.612147 0.410156,1.060547 0.170461,0.4483 0.366301,0.964481 0.587891,1.550781 0.23865,0.5862 0.484544,1.234406 0.740235,1.941406 0.154905,0.428306 0.319308,0.894056 0.480468,1.347656 l -4.412109,0 c 0.161158,-0.4536 0.32557,-0.91935 0.480469,-1.347656 0.27273,-0.707 0.520587,-1.355206 0.742187,-1.941406 0.22161,-0.5863 0.417421,-1.102481 0.587891,-1.550781 0.17046,-0.4483 0.297612,-0.801847 0.382812,-1.060547 z"
     style="font-style:normal;font-variant:normal;font-weight:bold;font-stretch:normal;font-size:18px;line-height:125%;font-family:Ubuntu;-inkscape-font-specification:'Ubuntu Bold';text-align:start;letter-spacing:0px;word-spacing:0px;writing-mode:lr-tb;text-anchor:start;opacity:0.3;fill:#000000;fill-opacity:1;stroke:none"
     inkscape:connector-curvature="0" />
  <path
     id="path4242"
     d="M 22.095703 15.076172 C 21.499083 16.317672 20.917999 17.593797 20.355469 18.904297 C 19.809979 20.197497 19.247529 21.567225 18.667969 23.015625 C 18.422372 23.647986 18.160298 24.368578 17.908203 25.037109 L 17 25.037109 C 15.892 25.037109 15 25.929109 15 27.037109 C 15 27.958923 15.621258 28.723506 16.466797 28.957031 C 16.003616 30.248359 15.539189 31.541513 15.037109 33 L 19.179688 33 C 19.367198 32.3792 19.571349 31.741238 19.792969 31.085938 C 20.031609 30.430738 20.262765 29.776294 20.484375 29.121094 L 27.388672 29.121094 C 27.610252 29.776294 27.831124 30.430737 28.052734 31.085938 C 28.291364 31.741137 28.503886 32.3792 28.691406 33 L 32.962891 33 C 32.460803 31.541513 31.996378 30.248359 31.533203 28.957031 C 32.378742 28.723506 33 27.958923 33 27.037109 C 33 25.929109 32.108 25.037109 31 25.037109 L 30.076172 25.037109 C 29.819894 24.368602 29.557711 23.647965 29.304688 23.015625 C 28.742147 21.567225 28.179697 20.197497 27.617188 18.904297 C 27.054658 17.593797 26.483877 16.317672 25.904297 15.076172 L 22.095703 15.076172 z M 23.910156 19.136719 C 24.012426 19.395419 24.149853 19.748866 24.320312 20.197266 C 24.490773 20.645566 24.686613 21.161747 24.908203 21.748047 C 25.146853 22.334247 25.392747 22.982453 25.648438 23.689453 C 25.803343 24.117759 25.967746 24.583509 26.128906 25.037109 L 21.716797 25.037109 C 21.877955 24.583509 22.042367 24.117759 22.197266 23.689453 C 22.469996 22.982453 22.717853 22.334247 22.939453 21.748047 C 23.161063 21.161747 23.356874 20.645566 23.527344 20.197266 C 23.697804 19.748966 23.824956 19.395419 23.910156 19.136719 z "
     style="font-style:normal;font-variant:normal;font-weight:bold;font-stretch:normal;font-size:18px;line-height:125%;font-family:Ubuntu;-inkscape-font-specification:'Ubuntu Bold';text-align:start;letter-spacing:0px;word-spacing:0px;writing-mode:lr-tb;text-anchor:start;fill:none;fill-opacity:1;stroke:#000000;stroke-opacity:1;stroke-linejoin:round;stroke-linecap:round;opacity:0.15" />
  <path
     style="font-style:normal;font-variant:normal;font-weight:bold;font-stretch:normal;font-size:18px;line-height:125%;font-family:Ubuntu;-inkscape-font-specification:'Ubuntu Bold';text-align:start;letter-spacing:0px;word-spacing:0px;writing-mode:lr-tb;text-anchor:start;fill:#ffffff;fill-opacity:1;stroke:none"
     d="M 22.095703 15.076172 C 21.499083 16.317672 20.917999 17.593797 20.355469 18.904297 C 19.809979 20.197497 19.247529 21.567225 18.667969 23.015625 C 18.422372 23.647986 18.160298 24.368578 17.908203 25.037109 L 17 25.037109 C 15.892 25.037109 15 25.929109 15 27.037109 C 15 27.958923 15.621258 28.723506 16.466797 28.957031 C 16.003616 30.248359 15.539189 31.541513 15.037109 33 L 19.179688 33 C 19.367198 32.3792 19.571349 31.741238 19.792969 31.085938 C 20.031609 30.430738 20.262765 29.776294 20.484375 29.121094 L 27.388672 29.121094 C 27.610252 29.776294 27.831124 30.430737 28.052734 31.085938 C 28.291364 31.741137 28.503886 32.3792 28.691406 33 L 32.962891 33 C 32.460803 31.541513 31.996378 30.248359 31.533203 28.957031 C 32.378742 28.723506 33 27.958923 33 27.037109 C 33 25.929109 32.108 25.037109 31 25.037109 L 30.076172 25.037109 C 29.819894 24.368602 29.557711 23.647965 29.304688 23.015625 C 28.742147 21.567225 28.179697 20.197497 27.617188 18.904297 C 27.054658 17.593797 26.483877 16.317672 25.904297 15.076172 L 22.095703 15.076172 z M 23.910156 19.136719 C 24.012426 19.395419 24.149853 19.748866 24.320312 20.197266 C 24.490773 20.645566 24.686613 21.161747 24.908203 21.748047 C 25.146853 22.334247 25.392747 22.982453 25.648438 23.689453 C 25.803343 24.117759 25.967746 24.583509 26.128906 25.037109 L 21.716797 25.037109 C 21.877955 24.583509 22.042367 24.117759 22.197266 23.689453 C 22.469996 22.982453 22.717853 22.334247 22.939453 21.748047 C 23.161063 21.161747 23.356874 20.645566 23.527344 20.197266 C 23.697804 19.748966 23.824956 19.395419 23.910156 19.136719 z "
     id="path4526" />
  <path
     style="fill:url(#linearGradient4578);fill-opacity:1;stroke:none"
     d="m 17.00001,26.0379 c -0.5651,0 -1,0.4349 -1,1 0,0.5651 0.4349,1 1,1 l 9,0 c 0.5651,0 1,-0.4349 1,-1 0,-0.5651 -0.4349,-1 -1,-1 z"
     id="path4532"
     inkscape:connector-curvature="0"
     sodipodi:nodetypes="sssssss" />
</svg>
