<?xml version="1.0" encoding="UTF-8" standalone="no"?>
<!-- Created with Inkscape (http://www.inkscape.org/) -->
<svg id="svg4951" xmlns:rdf="http://www.w3.org/1999/02/22-rdf-syntax-ns#" xmlns="http://www.w3.org/2000/svg" height="48px" width="48px" version="1.1" xmlns:cc="http://creativecommons.org/ns#" xmlns:xlink="http://www.w3.org/1999/xlink" xmlns:dc="http://purl.org/dc/elements/1.1/">
 <defs id="defs4953">
  <radialGradient id="radialGradient3195" gradientUnits="userSpaceOnUse" cy="186.17" cx="99.157" gradientTransform="matrix(.27083 0 0 .087623 -2.8551 25.187)" r="62.769">
   <stop id="stop3822-2-6-3" stop-color="#3d3d3d" offset="0"/>
   <stop id="stop3864-8-7-7" stop-color="#686868" stop-opacity=".49804" offset=".5"/>
   <stop id="stop3824-1-2-5" stop-color="#686868" stop-opacity="0" offset="1"/>
  </radialGradient>
  <radialGradient id="radialGradient3037" gradientUnits="userSpaceOnUse" cx="14.892" cy="-17.681" r="25.571" gradientTransform="matrix(-1.4387 3.8089e-8 -2.8328e-8 -1.07 45.169 -14.596)">
   <stop id="stop3767" stop-color="#a7e69c" offset="0"/>
   <stop id="stop3769" stop-color="#51c151" offset="1"/>
  </radialGradient>
  <linearGradient id="linearGradient3039" y2="32.568" gradientUnits="userSpaceOnUse" y1="-18.801" gradientTransform="matrix(.76418 0 0 .76418 12.377 18.778)" x2="15.124" x1="15.124">
   <stop id="stop3985" stop-color="#fff" offset="0"/>
   <stop id="stop3987" stop-color="#fff" stop-opacity="0" offset="1"/>
  </linearGradient>
 </defs>
 <metadata id="metadata4956">
  <rdf:RDF>
   <cc:Work rdf:about="">
    <dc:format>image/svg+xml</dc:format>
    <dc:type rdf:resource="http://purl.org/dc/dcmitype/StillImage"/>
    <dc:title/>
   </cc:Work>
  </rdf:RDF>
 </metadata>
 <g id="layer1">
  <path id="path3818-0-5" d="m41 41.5a17 5.5 0 0 1 -34 0 17 5.5 0 1 1 34 0z" fill="url(#radialGradient3195)"/>
  <circle id="path2985" cx="24" cy="24" r="20.526" fill="url(#radialGradient3037)"/>
  <g id="g4662" opacity=".15" transform="matrix(-.057907 -.65658 .65658 -.057907 8.0242 7.0707)" stroke="#155b00" stroke-width="1.5172" fill="#155b00">
   <g id="g4664" transform="matrix(.045744 0 0 .045744 -48.715 .88763)" stroke="#155b00" stroke-width="33.166" fill="#155b00">
    <g id="g4666">
     <path id="path4668" d="m862.38 228.53 39.4-37.6c13.899-13.3 8.2-36.7-10.2-42.1l-227.9-66.8c-18.5-5.4-35.899 11.2-31.3 29.9l56 230.7c4.5 18.7 27.601 25.5 41.601 12.2l32.699-31.2c12 31 19.801 63.6 23.301 97.5 6.5 62.2-2.301 125.4-25.601 183-19.6 48.5-49.399 92.898-86.8 129.7-9.4 9.301-10.1 24.301-1.4 34.301l52.5 60.5c9.4 10.799 25.9 11.5 36.301 1.6 51.8-49.9 93-110.7 120-177.2 31.3-77.199 43.1-162 34.399-245.4-6.7-63.3-24.5-123.3-53-179.1z" stroke="#155b00" stroke-width="33.166" fill="#155b00"/>
    </g>
    <path id="path4670" d="m55.779 689.63-39.4 37.6c-13.9 13.299-8.2 36.699 10.2 42.1l227.9 66.801c18.5 5.398 35.9-11.201 31.3-29.9l-56-230.7c-4.5-18.699-27.6-25.5-41.6-12.199l-32.7 31.199c-12-31-19.8-63.6-23.3-97.5-6.5-62.2 2.3-125.4 25.6-183 19.6-48.5 49.4-92.9 86.8-129.7 9.4-9.3 10.1-24.3 1.4-34.3l-52.5-60.5c-9.4-10.8-25.9-11.5-36.3-1.6-51.8 49.9-93 110.7-120 177.2-31.3 77.2-43.1 162-34.4 245.4 6.7 63.3 24.5 123.3 53 179.1z"/>
   </g>
  </g>
  <circle id="path3755" stroke-opacity=".58824" cx="24" stroke="#05a305" cy="24" r="20.526" stroke-width=".94845" fill="none"/>
  <circle id="path3773" stroke-opacity=".58824" cx="24" stroke="url(#linearGradient3039)" cy="24" r="19.54" stroke-width=".93261" fill="none"/>
  <g id="g4652" opacity=".3" transform="matrix(-.057907 -.65658 .65658 -.057907 8.0242 7.571)" fill="#155b00">
   <g id="g4654" fill="#155b00" transform="matrix(.045744 0 0 .045744 -48.715 .88763)">
    <g id="g4656">
     <path id="path4658" d="m862.38 228.53 39.4-37.6c13.899-13.3 8.2-36.7-10.2-42.1l-227.9-66.8c-18.5-5.4-35.899 11.2-31.3 29.9l56 230.7c4.5 18.7 27.601 25.5 41.601 12.2l32.699-31.2c12 31 19.801 63.6 23.301 97.5 6.5 62.2-2.301 125.4-25.601 183-19.6 48.5-49.399 92.898-86.8 129.7-9.4 9.301-10.1 24.301-1.4 34.301l52.5 60.5c9.4 10.799 25.9 11.5 36.301 1.6 51.8-49.9 93-110.7 120-177.2 31.3-77.199 43.1-162 34.399-245.4-6.7-63.3-24.5-123.3-53-179.1z" fill="#155b00"/>
    </g>
    <path id="path4660" d="m55.779 689.63-39.4 37.6c-13.9 13.299-8.2 36.699 10.2 42.1l227.9 66.801c18.5 5.398 35.9-11.201 31.3-29.9l-56-230.7c-4.5-18.699-27.6-25.5-41.6-12.199l-32.7 31.199c-12-31-19.8-63.6-23.3-97.5-6.5-62.2 2.3-125.4 25.6-183 19.6-48.5 49.4-92.9 86.8-129.7 9.4-9.3 10.1-24.3 1.4-34.3l-52.5-60.5c-9.4-10.8-25.9-11.5-36.3-1.6-51.8 49.9-93 110.7-120 177.2-31.3 77.2-43.1 162-34.4 245.4 6.7 63.3 24.5 123.3 53 179.1z"/>
   </g>
  </g>
  <g id="g4565" fill="#fff" transform="matrix(-.057907 -.65658 .65658 -.057907 8.0242 7.0707)">
   <g id="g4464" fill="#fff" transform="matrix(.045744 0 0 .045744 -48.715 .88763)">
    <g id="g4466">
     <path id="path4468" fill="#fff" d="m862.38 228.53 39.4-37.6c13.899-13.3 8.2-36.7-10.2-42.1l-227.9-66.8c-18.5-5.4-35.899 11.2-31.3 29.9l56 230.7c4.5 18.7 27.601 25.5 41.601 12.2l32.699-31.2c12 31 19.801 63.6 23.301 97.5 6.5 62.2-2.301 125.4-25.601 183-19.6 48.5-49.399 92.898-86.8 129.7-9.4 9.301-10.1 24.301-1.4 34.301l52.5 60.5c9.4 10.799 25.9 11.5 36.301 1.6 51.8-49.9 93-110.7 120-177.2 31.3-77.199 43.1-162 34.399-245.4-6.7-63.3-24.5-123.3-53-179.1z"/>
    </g>
    <path id="path4470" d="m55.779 689.63-39.4 37.6c-13.9 13.299-8.2 36.699 10.2 42.1l227.9 66.801c18.5 5.398 35.9-11.201 31.3-29.9l-56-230.7c-4.5-18.699-27.6-25.5-41.6-12.199l-32.7 31.199c-12-31-19.8-63.6-23.3-97.5-6.5-62.2 2.3-125.4 25.6-183 19.6-48.5 49.4-92.9 86.8-129.7 9.4-9.3 10.1-24.3 1.4-34.3l-52.5-60.5c-9.4-10.8-25.9-11.5-36.3-1.6-51.8 49.9-93 110.7-120 177.2-31.3 77.2-43.1 162-34.4 245.4 6.7 63.3 24.5 123.3 53 179.1z"/>
   </g>
  </g>
 </g>
</svg>
