<?xml version="1.0" encoding="UTF-8" standalone="no"?>
<!-- Created with Inkscape (http://www.inkscape.org/) -->
<svg id="svg4951" xmlns:rdf="http://www.w3.org/1999/02/22-rdf-syntax-ns#" xmlns="http://www.w3.org/2000/svg" height="48" width="48" version="1.1" xmlns:cc="http://creativecommons.org/ns#" xmlns:xlink="http://www.w3.org/1999/xlink" xmlns:dc="http://purl.org/dc/elements/1.1/">
 <defs id="defs4953">
  <linearGradient id="linearGradient3259">
   <stop id="stop3261" stop-color="#fff" offset="0"/>
   <stop id="stop3263" stop-color="#fff" stop-opacity="0" offset="1"/>
  </linearGradient>
  <radialGradient id="radialGradient3398" gradientUnits="userSpaceOnUse" cy="186.17" cx="99.157" gradientTransform="matrix(.27083 0 0 .087623 -2.8551 25.187)" r="62.769">
   <stop id="stop3822-2-6-3" stop-color="#3d3d3d" offset="0"/>
   <stop id="stop3864-8-7-7" stop-color="#686868" stop-opacity=".49804" offset=".5"/>
   <stop id="stop3824-1-2-5" stop-color="#686868" stop-opacity="0" offset="1"/>
  </radialGradient>
  <linearGradient id="linearGradient3435" y2="132.4" gradientUnits="userSpaceOnUse" x2="118" gradientTransform="matrix(.91304 0 0 .91304 -78.717 -76.309)" y1="37.916" x1="118">
   <stop id="stop2266" stop-color="#cbe866" offset="0"/>
   <stop id="stop2268" stop-color="#76ab2a" offset="1"/>
  </linearGradient>
  <linearGradient id="linearGradient3443" y2="132.8" xlink:href="#linearGradient3259" gradientUnits="userSpaceOnUse" x2="119.33" gradientTransform="matrix(.87246 0 0 .87246 -74.152 -71.851)" y1="86.843" x1="119.33"/>
  <linearGradient id="linearGradient4421" y2="44.447" xlink:href="#linearGradient3259" gradientUnits="userSpaceOnUse" x2="23.503" y1="2.9105" x1="24.232"/>
 </defs>
 <metadata id="metadata4956">
  <rdf:RDF>
   <cc:Work rdf:about="">
    <dc:format>image/svg+xml</dc:format>
    <dc:type rdf:resource="http://purl.org/dc/dcmitype/StillImage"/>
    <dc:title/>
   </cc:Work>
  </rdf:RDF>
 </metadata>
 <path id="path3818-0-5" d="m41 41.5a17 5.5 0 0 1 -34 0 17 5.5 0 1 1 34 0z" fill="url(#radialGradient3398)"/>
 <circle id="path5513" cy="24" cx="24" r="20.543" fill="url(#linearGradient3435)"/>
 <path id="path4413" opacity=".3" style="color-rendering:auto;text-decoration-color:#000000;color:#000000;isolation:auto;mix-blend-mode:normal;shape-rendering:auto;solid-color:#000000;block-progression:tb;text-decoration-line:none;text-decoration-style:solid;image-rendering:auto;white-space:normal;text-indent:0;text-transform:none" d="m18.291 14.5c-2.3709 0.0016-4.6951 0.19892-6.9238 0.59375h-0.002-0.002c-1.185 0.222-1.8878 1.28-1.863 2.302 0.012397 0.51108 0.21317 1.0317 0.62695 1.4102 0.41378 0.37841 1.0207 0.59292 1.7598 0.58203h0.04101l0.04297-0.0078c10.093-1.867 18.209 0.155 25.994 3.995h0.002l0.0039 0.002c1.7221 0.82212 3.6097-2.1637 1.748-3.5918l-0.03516-0.02734-0.03906-0.01953c-6.7-3.49-14.241-5.243-21.354-5.238zm0 1c6.9262-0.0047 14.297 1.7071 20.83 5.0977 1.0556 0.84319-0.37349 2.0427-0.7207 1.877-7.8844-3.8879-16.256-5.9667-26.529-4.0859-0.54552 0.008-0.86897-0.13796-1.0684-0.32031-0.2-0.182-0.296-0.422-0.303-0.697-0.013-0.551 0.358-1.164 1.047-1.293 2.166-0.383 4.429-0.576 6.744-0.578zm1.1914 5.002c-1.8951-0.01457-3.8583 0.05374-5.9531 0.1582l-0.01758 0.002-0.01758 0.002c-0.63638 0.07654-1.1516 0.43532-1.4844 0.89063-0.33274 0.4553-0.5039 1.0062-0.50977 1.5527-0.0059 0.54653 0.15994 1.1078 0.56836 1.5176 0.40842 0.40974 1.0455 0.61406 1.7871 0.51953h0.002 0.002c8.5054-1.1246 13.814-0.03713 20.955 3.1094l-0.05273-0.02539c0.5679 0.33403 1.2047 0.33831 1.6719 0.07422 0.4672-0.2641 0.76148-0.7211 0.92383-1.2207s0.19527-1.0567 0.05664-1.5859c-0.13863-0.52925-0.4714-1.0414-1.0195-1.332l-0.01367-0.0078-0.01172-0.0059c-6.117-2.803-11.201-3.604-16.887-3.648zm-0.0078 1c5.59 0.04297 10.472 0.81252 16.455 3.5508 0.27196 0.14664 0.43528 0.38112 0.51758 0.69531 0.08297 0.31674 0.06347 0.7019-0.04102 1.0234-0.10448 0.32153-0.2909 0.56378-0.46484 0.66211s-0.33844 0.12776-0.67188-0.06836l-0.02539-0.01367-0.02734-0.01172c-7.2317-3.1864-12.844-4.3296-21.486-3.1875-0.51251 0.06533-0.77611-0.05679-0.95312-0.23438-0.17702-0.17759-0.28095-0.46468-0.27734-0.80078 0.0036-0.3361 0.12049-0.7019 0.31836-0.97266 0.19638-0.26872 0.45327-0.44159 0.79102-0.48438 2.0739-0.10313 4.009-0.17247 5.8652-0.1582zm-0.271 4.998c-1.3328 0.000876-2.6648 0.08917-4.2148 0.25391l-0.06445 0.0078-0.06055 0.02344c-1.0394 0.39398-1.4504 1.4914-1.3477 2.4336 0.05135 0.47112 0.22556 0.92997 0.55273 1.2852 0.32717 0.35518 0.82699 0.5844 1.3867 0.55274l0.01563-0.002 0.01563-0.002c2.7717-0.32226 4.8337-0.33805 8.0273 0.04492 3.1977 0.38343 5.0923 1.2856 7.834 2.2969l-0.03125-0.01367c0.42685 0.19305 0.91248 0.12239 1.2598-0.10352 0.34728-0.2259 0.59182-0.57211 0.74609-0.9668 0.30854-0.78937 0.25632-1.8482-0.48242-2.6172l-0.07422-0.07617-0.0957-0.04102c-2.988-1.232-5.433-2.346-9.25-2.804-1.553-0.185-2.884-0.272-4.217-0.271zm0 1c1.2889-0.000848 2.5772 0.0822 4.0996 0.26367 3.6168 0.43369 5.9093 1.4697 8.8438 2.6836 0.38451 0.44661 0.42212 1.0427 0.24414 1.498-0.09273 0.23725-0.24 0.41649-0.35938 0.49414s-0.17646 0.08924-0.30469 0.03125l-0.01562-0.0078-0.01563-0.0059c-2.7001-0.99593-4.7282-1.9515-8.0645-2.3516-3.2485-0.38955-5.436-0.37346-8.2617-0.04492l0.03125-0.0039c-0.28206 0.01595-0.44826-0.06828-0.59766-0.23047s-0.26111-0.4245-0.29297-0.7168c-0.06224-0.57098 0.17137-1.1487 0.68164-1.3652 1.4809-0.15497 2.7536-0.24331 4.0117-0.24414z" fill="url(#linearGradient4421)"/>
 <path id="path7661" d="m18.291 15c-2.343 0.002-4.638 0.197-6.836 0.586-1.8741 0.352-2.1453 3.341 0.424 3.303 10.204-1.889 18.46 0.167 26.307 4.037 1.035 0.494 2.709-1.608 1.228-2.744-6.624-3.451-14.093-5.187-21.123-5.182zm1.188 6.002c-1.881-0.015-3.834 0.054-5.924 0.158-1.956 0.235-2.27 3.808 0.238 3.488 8.575-1.133 14.036-0.018 21.223 3.149 1.802 1.06 2.792-2.318 1.144-3.192-6.055-2.774-11.04-3.56-16.681-3.603zm-0.276 5.998c-1.311 0.001-2.623 0.088-4.162 0.252-1.576 0.597-1.297 3.4 0.387 3.305 2.798-0.326 4.923-0.342 8.144 0.045 3.267 0.391 5.229 1.32 7.949 2.324 1.111 0.502 2.13-1.667 0.958-2.887-2.998-1.237-5.37-2.322-9.118-2.771-1.537-0.184-2.847-0.269-4.158-0.268z" fill="#4d4d4d"/>
 <circle id="path3894" opacity=".2" stroke-width=".87246px" stroke="url(#linearGradient3443)" cy="24" cx="24" r="19.63" fill="none"/>
 <circle id="path3892" stroke-width=".91304px" stroke="#699536" cy="24" cx="24" r="20.543" fill="none"/>
 <path id="path4404" opacity=".15" style="color-rendering:auto;text-decoration-color:#000000;color:#000000;isolation:auto;mix-blend-mode:normal;shape-rendering:auto;solid-color:#000000;block-progression:tb;text-decoration-line:none;text-decoration-style:solid;image-rendering:auto;white-space:normal;text-indent:0;text-transform:none" d="m18.291 15c-2.3434 0.0016-4.6378 0.19653-6.8359 0.58594-1.8742 0.35172-2.1454 3.3406 0.42383 3.3027 10.204-1.8886 18.46 0.16688 26.307 4.0371 1.0359 0.49454 2.7094-1.6081 1.2285-2.7441-6.625-3.451-14.094-5.187-21.124-5.182zm0 1c6.8228-0.0046 14.094 1.6829 20.537 5.0137 0.60364 0.52667-0.53862 0.85333-0.21094 1.0098-7.9331-3.9111-16.426-6.0248-26.787-4.1387-0.41654-0.0011-0.60035-0.10406-0.68945-0.18555-0.0922-0.08432-0.1368-0.18233-0.14062-0.33984-0.0076-0.31457 0.19904-0.7055 0.63867-0.78906 2.134-0.377 4.367-0.568 6.652-0.57zm1.1875 5.002c-1.8803-0.01446-3.8336 0.05396-5.9238 0.1582-1.9559 0.23524-2.27 3.808 0.23828 3.4883 8.575-1.1338 14.036-0.01828 21.223 3.1484 1.8027 1.0603 2.7928-2.3174 1.1445-3.1914-6.0554-2.7749-11.041-3.5602-16.682-3.6035zm-0.0078 1c5.5368 0.04256 10.317 0.79313 16.225 3.4922 0.13599 0.07392 0.21327 0.1735 0.26758 0.38086 0.05513 0.21049 0.0443 0.50969-0.03125 0.74219s-0.20901 0.36542-0.23633 0.38086 0.04433 0.06466-0.17187-0.0625a1.0001 1.0001 0 0 0 -0.10547 -0.05469c-7.2776-3.2066-13.04-4.3759-21.752-3.2246-0.39794 0.05072-0.47384-0.03028-0.53516-0.0918-0.06131-0.06151-0.13334-0.21052-0.13086-0.44141 0.0025-0.23089 0.09027-0.50511 0.2207-0.68359 0.12873-0.17614 0.25734-0.25856 0.44727-0.2832 2.0558-0.1019 3.9717-0.16837 5.8027-0.1543zm-0.267 4.998c-1.3108 0.000862-2.6231 0.08839-4.1621 0.25195-1.5758 0.5973-1.2969 3.3999 0.38672 3.3047 2.7987-0.3254 4.9235-0.34134 8.1445 0.04492 3.2669 0.39173 5.2283 1.3206 7.9492 2.3242 1.1101 0.50209 2.1291-1.6666 0.95703-2.8867-2.9973-1.2367-5.3697-2.3221-9.1172-2.7715-1.5374-0.18326-2.8474-0.26844-4.1582-0.26758zm0 1c1.267-0.000833 2.5318 0.08009 4.0391 0.25977 3.4697 0.41605 5.6876 1.3961 8.5332 2.5762 0.20481 0.28432 0.25991 0.64255 0.14844 0.92773-0.04816 0.12321-0.0956 0.16625-0.12695 0.19922-2.6442-0.97902-4.7313-1.9489-8.1055-2.3535-3.2521-0.38998-5.497-0.37548-8.3203-0.05078-0.14322 0.0081-0.13871-0.0066-0.19922-0.07227-0.06051-0.06569-0.1439-0.22875-0.16602-0.43164-0.04195-0.38486 0.11239-0.6962 0.36914-0.82227 1.4063-0.14393 2.6328-0.23164 3.8281-0.23242z"/>
</svg>
