<?xml version="1.0" encoding="UTF-8" standalone="no"?>
<!-- Created with Inkscape (http://www.inkscape.org/) -->

<svg
   xmlns:dc="http://purl.org/dc/elements/1.1/"
   xmlns:cc="http://creativecommons.org/ns#"
   xmlns:rdf="http://www.w3.org/1999/02/22-rdf-syntax-ns#"
   xmlns:svg="http://www.w3.org/2000/svg"
   xmlns="http://www.w3.org/2000/svg"
   xmlns:xlink="http://www.w3.org/1999/xlink"
   xmlns:sodipodi="http://sodipodi.sourceforge.net/DTD/sodipodi-0.dtd"
   xmlns:inkscape="http://www.inkscape.org/namespaces/inkscape"
   version="1.1"
   width="48"
   height="48"
   id="svg5390"
   inkscape:version="0.91 r"
   sodipodi:docname="square-heroes.svg">
  <sodipodi:namedview
     pagecolor="#ffffff"
     bordercolor="#666666"
     borderopacity="1"
     objecttolerance="10"
     gridtolerance="10"
     guidetolerance="10"
     inkscape:pageopacity="0"
     inkscape:pageshadow="2"
     inkscape:window-width="1600"
     inkscape:window-height="845"
     id="namedview46"
     showgrid="false"
     inkscape:zoom="1"
     inkscape:cx="17.363838"
     inkscape:cy="31.731174"
     inkscape:window-x="0"
     inkscape:window-y="30"
     inkscape:window-maximized="1"
     inkscape:current-layer="svg5390" />
  <defs
     id="defs5392">
    <linearGradient
       id="linearGradient4209">
      <stop
         offset="0"
         style="stop-color:#86a8bb;stop-opacity:1"
         id="stop4211" />
      <stop
         offset="0.26238"
         style="stop-color:#7d9cc3;stop-opacity:1"
         id="stop4213" />
      <stop
         offset="0.704952"
         style="stop-color:#4e7d8e;stop-opacity:1"
         id="stop4215" />
      <stop
         offset="1"
         style="stop-color:#28394d;stop-opacity:1"
         id="stop4217" />
    </linearGradient>
    <linearGradient
       x1="23.99999"
       y1="4.999989"
       x2="23.99999"
       y2="43"
       id="linearGradient5313"
       xlink:href="#linearGradient3924-9-5"
       gradientUnits="userSpaceOnUse"
       gradientTransform="translate(3.7e-6,1.00001)" />
    <linearGradient
       id="linearGradient3924-9-5">
      <stop
         id="stop3926-2-0"
         style="stop-color:#ffffff;stop-opacity:1"
         offset="0" />
      <stop
         id="stop3928-2-0"
         style="stop-color:#ffffff;stop-opacity:0.23529412"
         offset="0.06316455" />
      <stop
         id="stop3930-6-1"
         style="stop-color:#ffffff;stop-opacity:0.15686275"
         offset="0.95056331" />
      <stop
         id="stop3932-1-6"
         style="stop-color:#ffffff;stop-opacity:0.39215687"
         offset="1" />
    </linearGradient>
    <radialGradient
       cx="11.546201"
       cy="8.4497671"
       r="19.99999"
       fx="11.546201"
       fy="8.4497671"
       id="radialGradient5232"
       xlink:href="#linearGradient2867-449-88-871-390-598-476-591-434-148-57-177-7-4-9-9-2-2-0-8-0"
       gradientUnits="userSpaceOnUse"
       gradientTransform="matrix(1.942847e-8,2.3369903,-2.4722571,-4.3056281e-8,44.890112,-11.434803)" />
    <linearGradient
       id="linearGradient2867-449-88-871-390-598-476-591-434-148-57-177-7-4-9-9-2-2-0-8-0">
      <stop
         id="stop3750-6-3-7-0-5-3-5-7"
         style="stop-color:#a0a0a0;stop-opacity:1;"
         offset="0" />
      <stop
         id="stop3752-3-7-7-6-4-4-3-4"
         style="stop-color:#a0a0a0;stop-opacity:1;"
         offset="0.26238" />
      <stop
         id="stop3754-1-7-4-6-36-7-7-2-4"
         style="stop-color:#8e8e8e;stop-opacity:1;"
         offset="0.704952" />
      <stop
         id="stop3756-7-5-7-1-4-3-1-7"
         style="stop-color:#666666;stop-opacity:1;"
         offset="1" />
    </linearGradient>
    <linearGradient
       x1="24"
       y1="44"
       x2="24"
       y2="3.8990016"
       id="linearGradient5234"
       xlink:href="#linearGradient3707-319-631-407-324-3-2-9"
       gradientUnits="userSpaceOnUse"
       gradientTransform="translate(2e-6,0.9999993)" />
    <linearGradient
       id="linearGradient3707-319-631-407-324-3-2-9">
      <stop
         id="stop3760-3-9-5"
         style="stop-color:#6d6d6d;stop-opacity:1;"
         offset="0" />
      <stop
         id="stop3762-0-8-9"
         style="stop-color:#949494;stop-opacity:1;"
         offset="1" />
    </linearGradient>
    <radialGradient
       cx="4.9929786"
       cy="43.5"
       r="2.5"
       fx="4.9929786"
       fy="43.5"
       id="radialGradient3013"
       xlink:href="#linearGradient3688-166-749"
       gradientUnits="userSpaceOnUse"
       gradientTransform="matrix(2.003784,0,0,1.4,27.98813,-17.4)" />
    <linearGradient
       id="linearGradient3688-166-749">
      <stop
         id="stop2883"
         style="stop-color:#181818;stop-opacity:1"
         offset="0" />
      <stop
         id="stop2885"
         style="stop-color:#181818;stop-opacity:0"
         offset="1" />
    </linearGradient>
    <radialGradient
       cx="4.9929786"
       cy="43.5"
       r="2.5"
       fx="4.9929786"
       fy="43.5"
       id="radialGradient3015"
       xlink:href="#linearGradient3688-464-309"
       gradientUnits="userSpaceOnUse"
       gradientTransform="matrix(2.003784,0,0,1.4,-20.01187,-104.4)" />
    <linearGradient
       id="linearGradient3688-464-309">
      <stop
         id="stop2889"
         style="stop-color:#181818;stop-opacity:1"
         offset="0" />
      <stop
         id="stop2891"
         style="stop-color:#181818;stop-opacity:0"
         offset="1" />
    </linearGradient>
    <linearGradient
       id="linearGradient3702-501-757">
      <stop
         id="stop2895"
         style="stop-color:#181818;stop-opacity:0"
         offset="0" />
      <stop
         id="stop2897"
         style="stop-color:#181818;stop-opacity:1"
         offset="0.5" />
      <stop
         id="stop2899"
         style="stop-color:#181818;stop-opacity:0"
         offset="1" />
    </linearGradient>
    <linearGradient
       x1="25.058096"
       y1="47.027729"
       x2="25.058096"
       y2="39.999443"
       id="linearGradient5388"
       xlink:href="#linearGradient3702-501-757"
       gradientUnits="userSpaceOnUse" />
    <linearGradient
       inkscape:collect="always"
       xlink:href="#linearGradient3924-9-5"
       id="linearGradient3037"
       gradientUnits="userSpaceOnUse"
       gradientTransform="translate(3.7e-6,1.00001)"
       x1="23.99999"
       y1="4.999989"
       x2="23.99999"
       y2="43" />
    <radialGradient
       inkscape:collect="always"
       xlink:href="#linearGradient4209"
       id="radialGradient3045"
       gradientUnits="userSpaceOnUse"
       gradientTransform="matrix(1.942847e-8,2.3369903,-2.4722571,-4.3056281e-8,44.890112,-11.434803)"
       cx="11.546201"
       cy="8.4497671"
       fx="11.546201"
       fy="8.4497671"
       r="19.99999" />
  </defs>
  <metadata
     id="metadata5395">
    <rdf:RDF>
      <cc:Work
         rdf:about="">
        <dc:format>image/svg+xml</dc:format>
        <dc:type
           rdf:resource="http://purl.org/dc/dcmitype/StillImage" />
        <dc:title></dc:title>
      </cc:Work>
    </rdf:RDF>
  </metadata>
  <g
     style="opacity:0.4"
     id="g3712"
     transform="matrix(1.1578952,0,0,0.57142859,-3.789484,19.142856)">
    <rect
       style="fill:url(#radialGradient3013);fill-opacity:1;stroke:none"
       id="rect2801"
       y="40"
       x="38"
       height="7"
       width="5" />
    <rect
       style="fill:url(#radialGradient3015);fill-opacity:1;stroke:none"
       id="rect3696"
       transform="scale(-1,-1)"
       y="-47"
       x="-10"
       height="7"
       width="5" />
    <rect
       style="fill:url(#linearGradient5388);fill-opacity:1;stroke:none"
       id="rect3700"
       y="40"
       x="10"
       height="7.0000005"
       width="28" />
  </g>
  <rect
     width="39"
     height="39"
     rx="2"
     ry="2"
     x="4.5"
     y="5.5"
     id="rect4179"
     style="color:#000000;fill:url(#radialGradient3045);fill-opacity:1;fill-rule:nonzero;stroke:none;stroke-width:1;stroke-linecap:round;stroke-linejoin:round;stroke-miterlimit:4;stroke-opacity:1;stroke-dasharray:none;stroke-dashoffset:0;marker:none;visibility:visible;display:inline;overflow:visible;enable-background:accumulate;opacity:1" />
  <rect
     style="color:#000000;fill:none;fill-opacity:1;fill-rule:nonzero;stroke:#000000;stroke-width:1;stroke-linecap:round;stroke-linejoin:round;stroke-miterlimit:4;stroke-opacity:1;stroke-dasharray:none;stroke-dashoffset:0;marker:none;visibility:visible;display:inline;overflow:visible;enable-background:accumulate;opacity:0.4"
     id="rect5505-21-69-0"
     y="5.5"
     x="4.5"
     ry="2"
     rx="2"
     height="39"
     width="39" />
  <rect
     style="opacity:0.5;fill:none;stroke:url(#linearGradient3037);stroke-width:1;stroke-linecap:round;stroke-linejoin:round;stroke-miterlimit:4;stroke-opacity:1;stroke-dasharray:none;stroke-dashoffset:0"
     id="rect6741-1"
     y="6.5"
     x="5.5"
     ry="1"
     rx="1"
     height="37"
     width="37" />
  <path
     style="opacity:1;fill:#ffffff;fill-opacity:1;stroke:none;stroke-width:1;stroke-linecap:round;stroke-linejoin:round;stroke-miterlimit:4;stroke-dasharray:none;stroke-opacity:1"
     d="m 28.400796,26.035833 c 0,3.884684 -3.936448,7.033842 -8.792302,7.033842 -2.952892,0 -5.066732,-1.949787 -6.738103,-4.35157 -1.077098,-1.547806 -2.319627,-3.283326 -2.319627,-4.805696 0,-3.884684 4.201876,-4.910418 9.05773,-4.910418 1.994717,0 4.763287,-0.198522 6.238578,0.696981 2.116094,1.284469 2.553724,4.047951 2.553724,6.336861 z"
     id="path4206"
     inkscape:connector-curvature="0"
     sodipodi:nodetypes="sssssss" />
  <g
     id="g4194"
     transform="matrix(0.1122507,0,0,0.10880671,66.643441,23.782886)">
    <path
       style="fill:#fdca00"
       d="m -517.125,136.7648 c -2.75,-1.688 -7.26905,-4.13789 -10.04232,-5.44421 -5.77535,-2.72041 -13.08268,-10.43985 -13.08268,-13.82051 0,-1.25837 1.15331,-3.75413 2.56291,-5.54614 2.00994,-2.55523 2.27963,-3.7875 1.25,-5.7114 -2.83871,-5.30415 -1.60417,-8.662452 4.90289,-13.337303 3.78053,-2.716037 7.9803,-7.370287 10.71951,-11.879525 5.39799,-8.886049 7.77402,-10.374962 14.72077,-9.224612 6.3734,1.0554 9.18442,2.414237 13.6901,6.61775 l 3.47116,3.2384 4.35996,-2.348 c 2.39799,-1.2914 4.91426,-3.015875 5.59173,-3.832175 2.05562,-2.476875 -8.22675,-35.279425 -12.63124,-40.295863 -9.0477,-10.30475 -13.04996,-25.112262 -10.85753,-40.1704645 1.24565,-8.5554835 1.12047,-10.3268265 -1.24637,-17.6357475 -1.44713,-4.46875 -3.26156,-14.263309 -4.0321,-21.765685 -1.29358,-12.595049 -1.22758,-13.808234 0.86112,-15.8264 2.25022,-2.174236 15.08195,-6.602849 30.45584,-10.511214 18.23176,-4.634893 17.43125,-4.290994 17.43125,-7.488506 0,-7.819146 6.57365,-16.311005 16.58848,-21.429032 6.61338,-3.379743 23.69918,-6.305443 29.02173,-4.969573 1.87663,0.47101 6.35828,3.64278 9.9592,7.048393 3.60093,3.40561 6.91468,6.192017 7.36386,6.192017 0.44921,0 0.81673,-1.152934 0.81673,-2.562075 0,-3.427516 3.28605,-9.755085 7.3302,-14.114905 6.03746,-6.50872 12.12605,-8.74864 25.35144,-9.32649 18.5769,-0.81167 26.27261,3.00131 31.94508,15.82777 4.32939,9.789521 22.9564,87.937875 26.0611,109.3376125 0.48173,3.3203125 1.50841,6.2703255 2.28152,6.5555995 2.85126,1.052088 17.7059,2.6897 19.20459,2.117163 0.85191,-0.32545 2.10856,-2.670062 2.79256,-5.210238 1.24797,-4.6345995 5.24125,-9.2013495 11.53481,-13.191287 4.01451,-2.5450812 6.71455,-1.936295 15.21716,3.4310625 3.76774,2.378425 8.70058,4.20035 12.92418,4.7735125 7.94319,1.0779125 11.60736,3.836225 11.60736,8.7378 0,2.559888 0.90264,3.921988 3.39209,5.118763 5.44275,2.616537 7.16091,6.850987 5.40967,13.332249 -0.81015,2.998338 -2.76255,6.654588 -4.33865,8.125 -1.57611,1.470401 -3.28272,4.001275 -3.79247,5.624138 -1.57304,5.008012 -9.29685,12.537813 -13.71013,13.36575 -5.58857,1.048425 -13.66466,-1.355512 -21.59355,-6.42755 -3.66602,-2.345138 -8.17122,-4.263875 -10.01155,-4.263875 -1.84031,0 -5.34502,-1.354475 -7.78822,-3.009938 -2.4432,-1.655462 -6.78484,-3.384299 -9.64806,-3.84185 l -5.20588,-0.831924 0.61359,4.77935 c 0.81532,6.350837 -1.4092,9.055487 -9.03351,10.983212 -4.71992,1.193388 -6.26169,2.185813 -6.56594,4.226425 -1.48313,9.947563 -51.23456,32.035425 -90.85239,40.335235 -17.4866,3.66339 -51.70107,4.16805 -60.05916,0.88587 -4.40778,-1.73092 -5.49209,-1.75988 -8.42161,-0.22496 -1.84935,0.96898 -3.72122,3.19117 -4.15969,4.93819 -0.4494,1.79056 -2.86724,4.48317 -5.54176,6.17151 -2.6095,1.6473 -5.15059,4.27444 -5.64688,5.83809 -2.91655,9.18924 -14.88754,19.76995 -22.3227,19.73023 -2.11651,-0.0113 -6.0982,-1.40165 -8.8482,-3.08964 z m 116.09456,-61.3911 c 9.22009,-2.231337 21.91773,-8.850887 30.52629,-15.914025 12.19844,-10.00855 20.00821,-23.3185 14.84498,-25.299825 -0.91254,-0.350175 -10.75041,2.450788 -21.8619,6.22435 -11.1115,3.773562 -24.84925,8.094737 -30.52833,9.602612 -15.11785,4.013988 -14.90787,3.848538 -12.53863,9.880063 1.08199,2.754463 2.67496,5.008125 3.53992,5.008125 4.37511,0 26.44396,-8.42745 37.80471,-14.436512 7.08488,-3.747413 13.413,-6.813488 14.0625,-6.813488 4.71249,0 -4.91241,10.081337 -15.29779,16.02325 -10.89665,6.234438 -28.88308,11.659563 -41.63537,12.5582 -8.8237,0.6218 -11.26094,1.199362 -11.26094,2.66855 0,3.774812 17.68089,4.047425 32.34456,0.4987 z m -58.78903,-40.597012 c 2.64305,-0.733913 6.83056,-3.190175 9.3056,-5.458375 4.12385,-3.779225 4.54351,-4.806475 5.01987,-12.28745 0.46806,-7.350863 0.11313,-8.926463 -3.56571,-15.828688 -7.51682,-14.102969 -15.20197,-18.170597 -32.81902,-17.370565 -7.79778,0.354116 -10.19526,0.927765 -11.53502,2.759999 -2.20655,3.017625 -3.57126,14.2133035 -2.50317,20.535216 1.35011,7.991263 7.35607,19.244075 12.97532,24.310675 4.61811,4.163913 5.93141,4.686725 11.7577,4.680525 3.6074,-0.0038 8.72139,-0.607437 11.36443,-1.341337 z m -6.40239,-25.597563 c -3.44136,-2.410425 -3.74986,-9.1287875 -0.59064,-12.8623437 5.67599,-6.7078653 14.68006,-3.2490288 14.43084,5.5434812 -0.22499,7.9370625 -7.4801,11.7736505 -13.8402,7.3188625 z m 89.37371,8.373488 c 8.79024,-4.48445 14.62004,-14.1683755 16.09756,-26.739793 0.87881,-7.47725 -0.95166,-12.552269 -6.77007,-18.770256 -7.3004,-7.801729 -21.13869,-7.063911 -39.60434,2.111587 -6.1875,3.074542 -12.24281,5.886335 -13.45626,6.24843 -7.87458,2.349798 -3.86,22.7162815 6.39726,32.454169 8.61942,8.182988 26.17295,10.39075 37.33585,4.695863 z M -390.25,-6.375 c -1.375,-1.375 -2.5,-3.931819 -2.5,-5.681819 0,-4.024406 5.198,-9.318181 9.14961,-9.318181 4.52914,0 9.60039,4.554874 9.60039,8.622833 0,7.5437383 -10.83236,11.7948045 -16.25,6.377167 z"
       id="path4204"
       inkscape:connector-curvature="0" />
    <path
       style="fill:#5c6f87"
       d="m -517.125,136.7648 c -2.75,-1.688 -7.26905,-4.13789 -10.04232,-5.44421 -5.77535,-2.72041 -13.08268,-10.43985 -13.08268,-13.82051 0,-1.25837 1.15331,-3.75413 2.56291,-5.54614 2.00994,-2.55523 2.27963,-3.7875 1.25,-5.7114 -2.83871,-5.30415 -1.60417,-8.662452 4.90289,-13.337303 3.78053,-2.716037 7.9803,-7.370287 10.71951,-11.879525 5.39799,-8.886049 7.77402,-10.374962 14.72077,-9.224612 6.3734,1.0554 9.18442,2.414237 13.6901,6.61775 l 3.47116,3.2384 4.35996,-2.348 c 2.39799,-1.2914 4.91426,-3.015875 5.59173,-3.832175 2.05562,-2.476875 -8.22675,-35.279425 -12.63124,-40.295863 -9.0477,-10.30475 -13.04996,-25.112262 -10.85753,-40.1704645 1.24565,-8.5554835 1.12047,-10.3268265 -1.24637,-17.6357475 -1.44713,-4.46875 -3.26156,-14.263309 -4.0321,-21.765685 -1.29358,-12.595049 -1.22758,-13.808234 0.86112,-15.8264 2.25022,-2.174236 15.08195,-6.602849 30.45584,-10.511214 18.23176,-4.634893 17.43125,-4.290994 17.43125,-7.488506 0,-7.819146 6.57365,-16.311005 16.58848,-21.429032 6.61338,-3.379743 23.69918,-6.305443 29.02173,-4.969573 1.87663,0.47101 6.35828,3.64278 9.9592,7.048393 3.60093,3.40561 6.91468,6.192017 7.36386,6.192017 0.44921,0 0.81673,-1.152934 0.81673,-2.562075 0,-3.427516 3.28605,-9.755085 7.3302,-14.114905 6.03746,-6.50872 12.12605,-8.74864 25.35144,-9.32649 18.5769,-0.81167 26.27261,3.00131 31.94508,15.82777 4.32939,9.789521 22.9564,87.937875 26.0611,109.3376125 0.48173,3.3203125 1.50841,6.2703255 2.28152,6.5555995 2.85126,1.052088 17.7059,2.6897 19.20459,2.117163 0.85191,-0.32545 2.10856,-2.670062 2.79256,-5.210238 1.24797,-4.6345995 5.24125,-9.2013495 11.53481,-13.191287 4.01451,-2.5450812 6.71455,-1.936295 15.21716,3.4310625 3.76774,2.378425 8.70058,4.20035 12.92418,4.7735125 7.94319,1.0779125 11.60736,3.836225 11.60736,8.7378 0,2.559888 0.90264,3.921988 3.39209,5.118763 5.44275,2.616537 7.16091,6.850987 5.40967,13.332249 -0.81015,2.998338 -2.76255,6.654588 -4.33865,8.125 -1.57611,1.470401 -3.28272,4.001275 -3.79247,5.624138 -1.57304,5.008012 -9.29685,12.537813 -13.71013,13.36575 -5.58857,1.048425 -13.66466,-1.355512 -21.59355,-6.42755 -3.66602,-2.345138 -8.17122,-4.263875 -10.01155,-4.263875 -1.84031,0 -5.34502,-1.354475 -7.78822,-3.009938 -2.4432,-1.655462 -6.78484,-3.384299 -9.64806,-3.84185 l -5.20588,-0.831924 0.61359,4.77935 c 0.81532,6.350837 -1.4092,9.055487 -9.03351,10.983212 -4.71992,1.193388 -6.26169,2.185813 -6.56594,4.226425 -1.48313,9.947563 -51.23456,32.035425 -90.85239,40.335235 -17.4866,3.66339 -51.70107,4.16805 -60.05916,0.88587 -4.40778,-1.73092 -5.49209,-1.75988 -8.42161,-0.22496 -1.84935,0.96898 -3.72122,3.19117 -4.15969,4.93819 -0.4494,1.79056 -2.86724,4.48317 -5.54176,6.17151 -2.6095,1.6473 -5.15059,4.27444 -5.64688,5.83809 -2.91655,9.18924 -14.88754,19.76995 -22.3227,19.73023 -2.11651,-0.0113 -6.0982,-1.40165 -8.8482,-3.08964 z m 117.5,-51.32755 c 18.84018,-3.231737 48.6459,-11.471663 63.465,-17.545187 7.71925,-3.163675 14.49903,-6.1914 15.06616,-6.728263 1.78784,-1.692412 -1.75589,-16.729425 -4.45257,-18.8935 -3.55034,-2.849112 -2.30174,-6.417075 3.18321,-9.09625 5.79028,-2.8283 29.9506,-4.53695 31.3829,-2.219425 0.48281,0.7812 2.7349,1.420375 5.00464,1.420375 2.36532,0 6.13754,1.364525 8.83757,3.196825 4.77557,3.240775 8.13809,3.302738 8.13809,0.149938 0,-3.601276 5.96489,-8.346763 10.49154,-8.346763 6.04187,0 6.55187,-1.784937 1.3816,-4.835475 -3.16798,-1.86915 -4.37314,-3.453025 -4.37314,-5.747362 0,-3.747713 1.90378,-4.007113 8.01621,-1.092301 3.28353,1.565801 5.34,1.791225 8.38198,0.9188 6.60961,-1.895612 5.44635,-3.668812 -3.55969,-5.426187 -4.65493,-0.908325 -10.08835,-2.4748625 -12.07426,-3.4811875 -5.29924,-2.6852875 -9.50788,-0.5003 -9.53338,4.9494125 -0.0228,4.870225 -0.627,5.851775 -5.84443,9.4945 -2.19372,1.531613 -4.341,3.895138 -4.77174,5.252275 -1.02238,3.221238 -4.85083,3.1586 -7.02473,-0.114875 -1.34608,-2.026975 -3.83845,-2.84605 -11.58735,-3.807975 -5.4298,-0.674038 -14.71105,-3.027562 -20.625,-5.23005 L -330.875,14.25 -331.00569,8 c -0.17352,-8.298725 -3.31227,-27.747345 -8.67451,-53.75 -5.19089,-25.171689 -7.48659,-33.599331 -9.61968,-35.314329 -1.8282,-1.469865 -51.5333,3.243085 -69.31753,6.572567 -19.66754,3.682065 -48.40638,11.697629 -50.07009,13.965077 -1.94334,2.64855 -2.05153,18.013719 -0.20163,28.636615 l 1.36088,7.814712 7.07662,2.85709 c 9.34164,3.771557 19.03988,13.3734117 21.85627,21.6390555 3.92006,11.5047625 2.17855,25.6207745 -4.23032,34.2892375 -1.49572,2.023063 -5.49535,5.189112 -8.88806,7.035663 -3.39272,1.84655 -5.95335,4.009175 -5.6903,4.805837 0.76068,2.3037 16.27016,2.399675 31.31205,0.193763 14.72758,-2.1598 33.4964,-7.979675 51.46699,-15.958963 16.86877,-7.490062 21.04926,-8.600075 24.16646,-6.4167 3.76684,2.6384 4.80834,11.757875 2.26446,19.827963 -4.84386,15.366475 -23.49322,28.676712 -52.68092,37.598862 -18.1343,5.543338 -17.67306,6.886763 1.25,3.6408 z m 0.86903,-55.621175 c -12.18955,-2.4558 -23.98748,-11.69465 -30.42565,-23.826025 -2.41624,-4.5529 -2.88273,-7.1970375 -2.7328,-15.49005 l 0.18078,-10 -3.94567,-1.875 c -2.39089,-1.136154 -4.10309,-2.983269 -4.34513,-4.6875 -0.45072,-3.173607 -0.31983,-3.207619 10.90175,-2.832689 7.51045,0.250935 8.87997,-0.177575 22.28099,-6.971528 l 14.27868,-7.238897 12.46909,-0.0722 12.46911,-0.07219 5.61558,6.25 c 7.68088,8.548622 10.50924,15.269342 10.50924,24.971964 0,17.563537 -9.0631,33.556924 -22.15071,39.088687 -7.24118,3.06065 -17.82465,4.222238 -25.10526,2.755425 z m 21.90782,-12.263462 c 8.79024,-4.48445 14.62004,-14.1683755 16.09756,-26.739793 0.87882,-7.47725 -0.95166,-12.552269 -6.77007,-18.770256 -7.3004,-7.801729 -21.13869,-7.063911 -39.60434,2.111587 -6.1875,3.074541 -12.24281,5.886335 -13.45626,6.24843 -7.87458,2.349798 -3.86,22.7162815 6.39726,32.454169 8.61943,8.182987 26.17295,10.39075 37.33585,4.695863 z M -390.25,-6.375 c -1.375,-1.375 -2.5,-3.931819 -2.5,-5.681819 0,-4.024406 5.198,-9.318181 9.14961,-9.318181 4.52914,0 9.60039,4.554874 9.60039,8.622833 0,7.5437383 -10.83236,11.7948045 -16.25,6.377167 z m -10.78044,81.7487 c 9.22009,-2.231338 21.91773,-8.850888 30.52629,-15.914025 12.19844,-10.00855 20.00821,-23.3185 14.84498,-25.299825 -0.91254,-0.350175 -10.75041,2.450787 -21.8619,6.22435 -11.1115,3.773562 -24.84925,8.094737 -30.52833,9.602612 -15.11785,4.013988 -14.90787,3.848538 -12.53863,9.880063 1.08199,2.754462 2.67496,5.008125 3.53992,5.008125 4.37511,0 26.44396,-8.42745 37.80471,-14.436513 7.08488,-3.747412 13.413,-6.813487 14.0625,-6.813487 4.71249,0 -4.91241,10.081337 -15.29779,16.02325 -10.89665,6.234437 -28.88308,11.659562 -41.63537,12.5582 -8.8237,0.6218 -11.26094,1.199362 -11.26094,2.66855 0,3.774812 17.68089,4.047425 32.34456,0.4987 z m -41.95798,-0.4987 c 1.68841,0 2.65098,-1.125313 3.16622,-3.701512 0.67226,-3.361326 1.31847,-3.778213 7.03125,-4.536038 3.46003,-0.458987 6.29095,-1.144 6.29095,-1.522237 0,-0.37825 -0.6755,-2.555775 -1.50111,-4.838963 l -1.50111,-4.15125 -12.87389,0 c -14.72336,0 -14.18882,-0.5736 -10.9726,11.774262 2.41,9.25265 2.74869,9.751025 5.5924,8.229113 1.28807,-0.68935 3.43362,-1.253375 4.76789,-1.253375 z m 201.09536,-26.467887 c 1.59119,-1.494851 2.89306,-3.2133 2.89306,-3.818788 0,-0.6055 -3.04204,-2.446225 -6.76007,-4.090525 -3.71804,-1.644288 -7.12624,-3.582088 -7.57378,-4.306213 -1.49652,-2.421437 -4.33312,-1.353 -6.2502,2.354225 -2.50226,4.838838 -1.52711,6.891613 4.74975,9.998638 6.62223,3.277975 9.33646,3.249162 12.94124,-0.137338 z M -459.81947,34.776687 c 2.64305,-0.733912 6.83056,-3.190175 9.3056,-5.458375 4.12385,-3.779225 4.54351,-4.806475 5.01987,-12.28745 0.46806,-7.350862 0.11313,-8.926462 -3.56571,-15.828687 -7.51682,-14.102969 -15.20197,-18.170598 -32.81902,-17.370565 -7.79778,0.354116 -10.19526,0.927765 -11.53502,2.759999 -2.20655,3.017625 -3.57126,14.2133035 -2.50317,20.535216 1.35011,7.991263 7.35607,19.244075 12.97532,24.310675 4.61811,4.163913 5.93141,4.686725 11.7577,4.680525 3.6074,-0.0038 8.72139,-0.607438 11.36443,-1.341338 z m -6.40239,-25.597562 c -3.44136,-2.410425 -3.74986,-9.1287875 -0.59064,-12.8623438 5.67599,-6.7078652 14.68006,-3.2490287 14.43084,5.5434813 -0.22499,7.9370625 -7.4801,11.7736505 -13.8402,7.3188625 z M -229,31.75 c 1.21573,-1.464863 1.22685,-2.271738 0.0509,-3.688738 -2.12139,-2.556112 -12.07784,-3.884937 -14.4372,-1.926837 -2.80773,2.3302 -2.28018,3.680225 2.19885,5.626988 5.33863,2.3204 10.25608,2.315787 12.1875,-0.01125 z"
       id="path4202"
       inkscape:connector-curvature="0" />
    <path
       style="fill:#ad8700"
       d="m -514.625,136.29565 c -2.75,-1.25095 -5.772,-3.20735 -6.71555,-4.34755 -0.94356,-1.1402 -2.77006,-2.0731 -4.0589,-2.0731 -1.28884,0 -4.59496,-2.0342 -7.34695,-4.52045 -5.67191,-5.12424 -6.37889,-8.96182 -2.54814,-13.83184 2.25824,-2.8709 2.30012,-3.3587 0.52134,-6.07346 -2.70326,-4.12571 -1.26072,-7.4148 5.20226,-11.86145 3.03177,-2.0859 7.02692,-6.446487 8.87811,-9.690175 1.8512,-3.2437 4.20158,-6.882 5.22307,-8.085125 3.654,-4.303775 16.73904,-1.987587 21.976,3.889975 1.30967,1.469888 3.56972,2.672525 5.02232,2.672525 3.66859,0 11.97148,-5.883237 11.97128,-8.482562 -1e-4,-1.178338 -2.27946,-9.695375 -5.06528,-18.92675 -3.65697,-12.1182 -6.08733,-17.948588 -8.74215,-20.972263 -8.99308,-10.24255 -12.4972,-23.65875 -10.23433,-39.1842337 1.31645,-9.0321023 1.22558,-10.6441903 -0.90447,-16.0481703 -4.33872,-11.007431 -6.59958,-36.046866 -3.48792,-38.629318 1.76422,-1.464175 21.75462,-7.514442 35.93431,-10.875827 5.15625,-1.222322 10.07813,-2.776936 10.9375,-3.454696 0.85938,-0.67776 1.5625,-3.425985 1.5625,-6.107165 0,-3.954594 0.94931,-5.90476 5.02869,-10.330355 6.04122,-6.553957 14.17762,-10.28056 26.1545,-11.97918 11.21597,-1.59072 14.91482,-0.20146 22.79287,8.560838 3.17947,3.536325 6.32398,6.429682 6.9878,6.429682 0.66384,0 1.50873,-2.249832 1.87755,-4.999627 1.80503,-13.457413 12.44518,-21.936283 29.30127,-23.349443 17.6547,-1.4801 28.00972,3.8263 32.90482,16.861976 4.30824,11.472847 17.68591,67.880035 24.46413,103.1534065 2.41533,12.5692505 2.30301,12.4695505 15.63036,13.8746005 C -282.29874,18.870987 -279,17.310925 -279,12.071438 -279,8.3204375 -268.52974,-1.375 -264.47896,-1.375 c 1.77492,0 6.40567,1.9339125 10.29055,4.2975875 4.19676,2.5534375 9.59995,4.644725 13.31341,5.1529125 7.43986,1.01815 10.625,3.452275 10.625,8.119763 0,2.598187 1.06369,4.060387 4.375,6.014112 3.48735,2.057588 4.375,3.35885 4.375,6.413612 0,4.582663 -3.10364,12.502013 -4.8996,12.502013 -0.70244,0 -2.71474,3.038787 -4.47178,6.75285 -4.28192,9.05125 -7.79855,11.238212 -16.76025,10.423037 -6.62357,-0.602487 -12.98512,-3.361937 -19.97445,-8.664325 -1.63958,-1.243862 -4.83378,-2.261562 -7.09821,-2.261562 -2.26442,0 -4.98975,-0.872613 -6.05627,-1.939138 -2.16676,-2.166762 -14.46825,-5.7215 -16.16686,-4.6717 -0.60054,0.37115 -0.74432,2.848451 -0.3195,5.5051 0.99252,6.206913 -1.91157,9.351426 -9.7175,10.522 -4.9149,0.737025 -5.74644,1.309913 -6.432,4.431313 -1.13984,5.1896 -6.78679,9.372737 -23.72858,17.577612 -18.30911,8.867063 -43.91341,17.434075 -65.27377,21.840123 -20.91473,4.31413 -47.03663,4.86175 -58.21093,1.22037 -6.35521,-2.070992 -7.63236,-2.145042 -10.5058,-0.60914 -1.7991,0.96165 -4.02979,3.56314 -4.95709,5.78107 -0.92728,2.21795 -3.39595,4.91688 -5.4859,5.99763 -2.08993,1.08076 -4.46075,3.48482 -5.26845,5.34239 -3.08231,7.08866 -7.69255,12.86087 -13.16932,16.48853 -6.598,4.37034 -7.89513,4.49754 -14.62874,1.43449 z m 115,-50.8584 c 18.84018,-3.231738 48.6459,-11.471663 63.465,-17.545188 7.71925,-3.163675 14.49903,-6.1914 15.06616,-6.728262 1.78784,-1.692413 -1.75589,-16.729425 -4.45257,-18.8935 -3.55034,-2.849113 -2.30174,-6.417075 3.18321,-9.09625 5.79028,-2.8283 29.9506,-4.53695 31.3829,-2.219425 0.48281,0.7812 2.7349,1.420375 5.00464,1.420375 2.36532,0 6.13754,1.364525 8.83757,3.196825 4.77557,3.240775 8.13809,3.302737 8.13809,0.149937 0,-3.601275 5.96489,-8.346762 10.49154,-8.346762 6.04187,0 6.55187,-1.784938 1.3816,-4.835475 -3.16798,-1.86915 -4.37314,-3.453025 -4.37314,-5.747362 0,-3.747713 1.90378,-4.007113 8.01621,-1.092301 3.28353,1.565801 5.34,1.791225 8.38198,0.9188 6.60961,-1.895612 5.44635,-3.668812 -3.55969,-5.426187 -4.65493,-0.908325 -10.08835,-2.4748625 -12.07426,-3.4811875 -5.29924,-2.6852875 -9.50788,-0.5003 -9.53338,4.9494125 -0.0228,4.870225 -0.627,5.851775 -5.84443,9.4945 -2.19372,1.531613 -4.341,3.895138 -4.77174,5.252275 -1.02238,3.221238 -4.85083,3.1586 -7.02473,-0.114875 -1.34608,-2.026975 -3.83845,-2.84605 -11.58735,-3.807975 -5.4298,-0.674038 -14.71105,-3.027562 -20.625,-5.23005 L -330.875,14.25 -331.00569,8 c -0.17352,-8.298725 -3.31227,-27.747345 -8.67451,-53.75 -5.19089,-25.171689 -7.48659,-33.599331 -9.61968,-35.314329 -1.8282,-1.469865 -51.5333,3.243085 -69.31753,6.572567 -19.66754,3.682065 -48.40638,11.697629 -50.07009,13.965077 -1.94334,2.64855 -2.05153,18.013719 -0.20163,28.636615 l 1.36088,7.814712 7.07662,2.85709 c 9.34164,3.771557 19.03988,13.3734117 21.85627,21.6390555 3.92006,11.5047625 2.17855,25.6207745 -4.23032,34.2892375 -1.49572,2.023063 -5.49535,5.189112 -8.88806,7.035663 -3.39272,1.84655 -5.95335,4.009175 -5.6903,4.805837 0.76068,2.3037 16.27016,2.399675 31.31205,0.193763 14.72758,-2.1598 33.4964,-7.979675 51.46699,-15.958963 16.86877,-7.490062 21.04926,-8.600075 24.16646,-6.4167 3.76684,2.6384 4.80834,11.757875 2.26446,19.827963 -4.84386,15.366475 -23.49322,28.676712 -52.68092,37.598862 -18.1343,5.543338 -17.67306,6.886763 1.25,3.6408 z m 0.86903,-55.621175 c -12.18955,-2.4558 -23.98748,-11.69465 -30.42565,-23.826025 -2.41624,-4.5529 -2.88273,-7.1970375 -2.7328,-15.49005 l 0.18078,-10 -3.94567,-1.875 c -2.39089,-1.136154 -4.10309,-2.983269 -4.34513,-4.6875 -0.45072,-3.173608 -0.31983,-3.207619 10.90175,-2.832689 7.51045,0.250935 8.87997,-0.177575 22.28099,-6.971529 l 14.27868,-7.238896 12.46909,-0.0722 12.46911,-0.07219 5.61558,6.25 c 7.68088,8.548622 10.50924,15.269342 10.50924,24.971964 0,17.563537 -9.0631,33.556924 -22.15071,39.088687 -7.24118,3.06065 -17.82465,4.222238 -25.10526,2.755425 z M -376.97871,19.3723 C -366.44574,14.467875 -359,1.5910875 -359,-11.72041 c 0,-8.223265 -2.95659,-13.99259 -9.91216,-19.34209 -4.41378,-3.394615 -6.35918,-4.0625 -11.83314,-4.0625 -8.49316,0 -17.98435,2.874413 -28.8797,8.746237 -4.8125,2.593599 -10.22966,5.05556 -12.03814,5.471025 -8.31765,1.910834 -5.23903,22.961738 4.92949,33.706838 9.14444,9.662937 26.83675,12.588237 39.75494,6.5732 z M -389,-7.625 c -3.02129,-3.021285 -3.12666,-4.799048 -0.50622,-8.540243 2.94408,-4.203276 10.34093,-3.389983 12.96695,1.425732 1.83574,3.36648 1.7704,3.635689 -1.59293,6.5624998 -4.25831,3.7056274 -7.54714,3.8726774 -10.8678,0.5520112 z m -9.65021,84.5032 c 15.40255,-4.913688 36.41465,-20.075313 43.33098,-31.2662 3.39723,-5.496813 3.30311,-14.487 -0.15166,-14.487 -0.66189,0 -8.18521,2.530813 -16.71852,5.624025 -8.53332,3.0932 -23.50044,7.880788 -33.26027,10.639075 -9.75983,2.758288 -18.01111,5.281025 -18.33618,5.606088 -0.32506,0.325075 0.2609,3.271862 1.30214,6.548425 1.54048,4.8476 2.48972,6.0294 5.09551,6.34395 4.59351,0.554487 24.40576,-6.378213 37.38515,-13.0818 6.11101,-3.156213 11.39685,-5.45265 11.74631,-5.103188 1.18796,1.187975 -8.73142,8.366838 -17.56567,12.712625 -11.18538,5.502375 -24.6478,9.164363 -38.16249,10.380813 -8.77281,0.789637 -10.68451,1.34415 -11.04073,3.202537 -0.23693,1.23615 0.3074,3.137025 1.20965,4.224175 1.3838,1.667375 3.79572,1.866013 15.41573,1.269588 7.5764,-0.388875 16.46391,-1.564775 19.75005,-2.613113 z m -44.33821,-2.0032 c 1.68841,0 2.65098,-1.125313 3.16622,-3.701512 0.67226,-3.361326 1.31847,-3.778213 7.03125,-4.536038 3.46003,-0.458987 6.29095,-1.144 6.29095,-1.522237 0,-0.37825 -0.6755,-2.555775 -1.50111,-4.838963 l -1.50111,-4.15125 -12.87389,0 c -14.72336,0 -14.18882,-0.5736 -10.9726,11.774262 2.41,9.25265 2.74869,9.751025 5.5924,8.229113 1.28807,-0.68935 3.43362,-1.253375 4.76789,-1.253375 z m 139.2562,-28.732225 c -0.45198,-5.512912 -1.75278,-6.793538 -5.85478,-5.764 -4.03178,1.0119 -4.90387,3.042375 -3.21482,7.484925 1.10242,2.8996 1.91831,3.360225 5.36352,3.028062 3.81336,-0.367662 4.04133,-0.659787 3.70607,-4.748987 z m 61.83916,2.264338 c 1.59119,-1.494851 2.89306,-3.2133 2.89306,-3.818788 0,-0.6055 -3.04204,-2.446225 -6.76007,-4.090525 -3.71804,-1.644288 -7.12624,-3.582088 -7.57378,-4.306213 -1.49652,-2.421437 -4.33312,-1.353 -6.2502,2.354225 -2.50226,4.838838 -1.52711,6.891613 4.74975,9.998638 6.62223,3.277975 9.33646,3.249162 12.94124,-0.137338 z M -456.83719,35.4603 c 9.13533,-3.816975 14.08719,-10.979875 14.08719,-20.3772 0,-6.12215 -7.06684,-20.586935 -12.74769,-26.092658 -5.62654,-5.453089 -17.19793,-8.430234 -28.19064,-7.253017 -9.68061,1.036706 -12.29686,3.22607 -13.50825,11.3041275 -2.00251,13.353785 1.70558,26.6630725 10.26157,36.8312725 6.02812,7.164025 10.10208,9.001363 18.23988,8.2261 3.94893,-0.3762 9.28501,-1.563575 11.85794,-2.638625 z M -466.25,7.125 c -3.84254,-3.8425375 0.15247,-12.25 5.82088,-12.25 4.2109,0 6.42912,2.05539 6.42912,5.957175 0,5.183725 -2.23282,7.792825 -6.66898,7.792825 -2.24456,0 -4.75602,-0.675 -5.58102,-1.5 z M -229,31.75 c 1.21573,-1.464863 1.22685,-2.271738 0.0509,-3.688738 -2.12139,-2.556112 -12.07784,-3.884937 -14.4372,-1.926837 -2.80773,2.3302 -2.28018,3.680225 2.19885,5.626988 5.33863,2.3204 10.25608,2.315787 12.1875,-0.01125 z m -82.53421,-19.6875 c -0.0188,-0.859375 -1.33604,-8.03125 -2.92716,-15.9375 -2.76427,-13.735519 -3.02569,-14.3595 -5.87672,-14.026576 -5.08988,0.594364 -5.51853,2.112722 -3.33742,11.8217223 1.12189,4.9939162 2.40456,10.9457037 2.85038,13.2261912 0.50727,2.5947625 1.81898,4.5530625 3.50537,5.2332625 3.8975,1.572062 5.8246,1.466438 5.78555,-0.3171 z m -9.30344,-37.685236 c 2.23245,-1.632413 2.28848,-2.340758 0.84902,-10.734984 -1.98761,-11.590865 -3.33313,-14.137985 -6.89999,-13.061859 -5.38929,1.625953 -5.38574,1.567349 -1.33985,22.107079 0.75644,3.840266 3.57008,4.48355 7.39082,1.689764 z m -7.63959,-31.511 c 2.69698,-1.034925 2.50115,-4.302324 -1.1955,-19.947169 -6.68604,-28.296495 -12.38652,-34.314465 -32.45226,-34.259675 -12.5013,0.0341 -21.52199,5.72944 -25.00092,15.784566 -1.57458,4.550964 -1.51918,4.848219 1.04404,5.601295 1.48879,0.437404 11.14438,0.518692 21.45688,0.180639 14.66471,-0.480721 19.18483,-0.24547 20.74566,1.07972 1.09762,0.931898 3.2941,6.75686 4.88108,12.94436 4.75791,18.550774 5.04845,19.375 6.82979,19.375 0.9427,0 2.60376,-0.341431 3.69123,-0.758736 z m -84.90632,-26.318193 c 9.07627,-1.269795 10.24921,-3.693737 4.4216,-9.137543 -6.44075,-6.016552 -20.92374,-6.645523 -29.72845,-1.291055 -3.71316,2.258108 -11.55959,11.663386 -11.55959,13.856137 0,1.870076 5.70615,1.773625 17.5,-0.295801 6.53125,-1.146018 15.24615,-2.555299 19.36644,-3.131738 z"
       id="path4200"
       inkscape:connector-curvature="0" />
    <path
       style="fill:#937300"
       d="m -514.625,136.29565 c -2.75,-1.25095 -5.772,-3.20735 -6.71555,-4.34755 -0.94356,-1.1402 -2.77006,-2.0731 -4.0589,-2.0731 -1.28884,0 -4.59496,-2.0342 -7.34695,-4.52045 -5.67191,-5.12424 -6.37889,-8.96182 -2.54814,-13.83184 2.25824,-2.8709 2.30012,-3.3587 0.52134,-6.07346 -2.70326,-4.12571 -1.26072,-7.4148 5.20226,-11.86145 3.03177,-2.0859 7.02692,-6.446487 8.87811,-9.690175 1.8512,-3.2437 4.20158,-6.882 5.22307,-8.085125 3.654,-4.303775 16.73904,-1.987587 21.976,3.889975 1.30967,1.469888 3.56972,2.672525 5.02232,2.672525 3.66859,0 11.97148,-5.883237 11.97128,-8.482562 -1e-4,-1.178338 -2.27946,-9.695375 -5.06528,-18.92675 -3.65697,-12.1182 -6.08733,-17.948588 -8.74215,-20.972263 -8.99308,-10.24255 -12.4972,-23.65875 -10.23433,-39.1842337 1.31645,-9.0321023 1.22558,-10.6441903 -0.90447,-16.0481703 -4.33872,-11.007431 -6.59958,-36.046866 -3.48792,-38.629318 1.76422,-1.464175 21.75462,-7.514442 35.93431,-10.875827 5.15625,-1.222322 10.07813,-2.776936 10.9375,-3.454696 0.85938,-0.67776 1.5625,-3.425985 1.5625,-6.107165 0,-3.954594 0.94931,-5.90476 5.02869,-10.330355 6.04122,-6.553957 14.17762,-10.28056 26.1545,-11.97918 11.21597,-1.59072 14.91482,-0.20146 22.79287,8.560838 3.17947,3.536325 6.32398,6.429682 6.9878,6.429682 0.66384,0 1.50873,-2.249832 1.87755,-4.999627 1.80503,-13.457413 12.44518,-21.936283 29.30127,-23.349443 17.6547,-1.4801 28.00972,3.8263 32.90482,16.861976 4.30824,11.472847 17.68591,67.880035 24.46413,103.1534065 2.41533,12.5692505 2.30301,12.4695505 15.63036,13.8746005 C -282.29874,18.870987 -279,17.310925 -279,12.071438 -279,8.3204375 -268.52974,-1.375 -264.47896,-1.375 c 1.77492,0 6.40567,1.9339125 10.29055,4.2975875 4.19676,2.5534375 9.59995,4.644725 13.31341,5.1529125 7.43986,1.01815 10.625,3.452275 10.625,8.119763 0,2.598187 1.06369,4.060387 4.375,6.014112 3.48735,2.057588 4.375,3.35885 4.375,6.413612 0,4.582663 -3.10364,12.502013 -4.8996,12.502013 -0.70244,0 -2.71474,3.038787 -4.47178,6.75285 -4.28192,9.05125 -7.79855,11.238212 -16.76025,10.423037 -6.62357,-0.602487 -12.98512,-3.361937 -19.97445,-8.664325 -1.63958,-1.243862 -4.83378,-2.261562 -7.09821,-2.261562 -2.26442,0 -4.98975,-0.872613 -6.05627,-1.939138 -2.16676,-2.166762 -14.46825,-5.7215 -16.16686,-4.6717 -0.60054,0.37115 -0.74432,2.848451 -0.3195,5.5051 0.99252,6.206913 -1.91157,9.351426 -9.7175,10.522 -4.9149,0.737025 -5.74644,1.309913 -6.432,4.431313 -1.13984,5.1896 -6.78679,9.372737 -23.72858,17.577612 -18.30911,8.867063 -43.91341,17.434075 -65.27377,21.840123 -20.91473,4.31413 -47.03663,4.86175 -58.21093,1.22037 -6.35521,-2.070992 -7.63236,-2.145042 -10.5058,-0.60914 -1.7991,0.96165 -4.02979,3.56314 -4.95709,5.78107 -0.92728,2.21795 -3.39595,4.91688 -5.4859,5.99763 -2.08993,1.08076 -4.46075,3.48482 -5.26845,5.34239 -3.08231,7.08866 -7.69255,12.86087 -13.16932,16.48853 -6.598,4.37034 -7.89513,4.49754 -14.62874,1.43449 z m 14.30586,-11.73315 c 4.28328,-4.57005 4.78927,-7.79366 1.7504,-11.15157 C -501.07022,110.64681 -504,110.4232 -504,112.9964 c 0,1.02926 -1.96875,4.05058 -4.375,6.714 -4.65881,5.15675 -5.32521,7.07285 -2.8125,8.08675 3.90542,1.57587 7.30916,0.56285 10.86836,-3.23465 z m -22.52097,-6.70811 c 6.96442,-4.11399 7.967,-10.75768 1.23116,-8.15847 -3.99866,1.543 -9.1179,7.14626 -8.07324,8.83654 1.14494,1.85255 2.84297,1.68426 6.84208,-0.67807 z M -482.75,100.26411 c 0,-2.073185 1.32457,-3.754947 4.375,-5.554735 4.88581,-2.8827 5.08776,-3.381788 2.69341,-6.656262 -1.55966,-2.132963 -1.73867,-2.014325 -2.46875,1.636087 -0.62751,3.137575 -1.41232,3.9358 -3.86963,3.9358 -1.69537,0 -3.42005,-0.546187 -3.83263,-1.213762 -0.41259,-0.667563 -3.56425,-1.587063 -7.00372,-2.043325 -5.13319,-0.680938 -6.57137,-1.444113 -8.02739,-4.259763 -1.62009,-3.132913 -4.16964,-4.98315 -6.86658,-4.98315 -0.5752,0 -2.19321,1.856538 -3.5956,4.125638 -1.40237,2.2691 -5.20501,6.032474 -8.45028,8.363062 -3.24527,2.330575 -5.20892,4.467937 -4.36364,4.7497 2.78557,0.928525 8.24789,-2.226163 10.41417,-6.014563 2.3064,-4.033437 6.49639,-4.979325 7.7369,-1.7466 1.32696,3.457988 0.82047,7.665425 -1.11626,9.272763 -2.95454,2.45205 -2.18541,4.10919 0.90314,1.94587 4.21231,-2.950408 8.87042,-2.34932 14.11932,1.82198 4.46564,3.54885 4.87525,3.64657 7.04689,1.68127 1.2681,-1.14762 2.30565,-3.42463 2.30565,-5.06001 z m 62.31224,-5.416247 c 26.34527,-2.331901 43.38117,-7.17645 74.56276,-21.203638 10.3125,-4.639137 19.96483,-8.813075 21.44961,-9.275412 4.85943,-1.513163 5.47225,-3.39475 3.9347,-12.080975 -0.78252,-4.420813 -2.45475,-9.199088 -3.71603,-10.6184 -1.2613,-1.419313 -2.29328,-3.22575 -2.29328,-4.014326 0,-2.882462 10.46195,-4.553762 26.76319,-4.275412 15.61161,0.266575 16.32217,0.397437 21.7768,4.010437 3.10125,2.054175 6.05451,3.734863 6.56281,3.734863 0.5083,0 2.13698,-2.505275 3.61926,-5.567288 2.70394,-5.5856 5.48588,-7.444587 11.25078,-7.518175 4.65707,-0.0595 4.72091,-3.8623 0.10487,-6.249337 -2.3094,-1.19425 -3.82771,-2.958325 -3.82771,-4.4473 0,-2.892175 1.91076,-3.073437 6.25,-0.5929 4.0415,2.310325 6.55261,2.3044 12.13646,-0.02863 5.93644,-2.4804 4.40949,-3.961688 -6.66036,-6.46115 C -253.2545,9.1921 -258.64394,7.543475 -260.50042,6.5966125 -262.35691,5.6497 -264.46629,4.875 -265.18792,4.875 c -2.50247,0 -6.31208,5.0167 -6.31208,8.312075 0,2.3473 -1.84198,5.07815 -6.32351,9.375 -3.47793,3.334612 -6.62214,6.062925 -6.98714,6.062925 -0.36499,0 -1.59754,-1.12325 -2.73899,-2.496112 -1.5235,-1.832363 -4.73447,-2.856488 -12.07536,-3.851376 -15.54102,-2.106249 -31.82509,-8.19945 -29.96338,-11.211762 1.53936,-2.490725 -12.80773,-79.580242 -16.56433,-89.00325 -1.76469,-4.426502 -2.17596,-4.6875 -7.38654,-4.6875 -8.639,0 -52.52549,4.735379 -64.25554,6.933211 -13.17376,2.468338 -48.46217,11.619055 -51.83021,13.440208 -1.375,0.743485 -8.87262,2.883122 -16.6614,4.754749 -7.78876,1.871626 -14.35141,3.592981 -14.58366,3.825233 -0.90436,0.904355 2.01629,21.632038 3.46317,24.577969 1.4753,3.003789 1.9328,3.10882 12.38577,2.843531 10.29211,-0.261206 11.39197,-0.02218 21.25098,4.618404 18.39907,8.660331 24.7514,16.5486612 25.72988,31.951332 1.03131,16.2344 -3.45476,24.707388 -16.98696,32.083776 -6.1643,3.360162 -8.12559,3.818212 -14.9129,3.482799 -4.29832,-0.212424 -7.81394,-0.133274 -7.8125,0.175863 10e-4,0.30915 1.63616,5.0904 3.63271,10.625 1.99654,5.534613 5.76346,16.091925 8.37092,23.460712 l 4.74085,13.397788 5.06658,0.654975 c 16.35081,2.11375 18.4947,2.152838 35.5038,0.647313 z m -21.53125,-10.559238 c -2.6642,-0.94965 -5.42474,-2.307375 -6.13451,-3.01715 -1.86312,-1.863112 1.03599,-4.911063 5.12181,-5.384775 2.18526,-0.253362 3.48313,-1.248737 3.76397,-2.8867 0.60535,-3.53065 3.77308,-5.625 8.50788,-5.625 5.2069,0 5.80571,-1.122625 3.75676,-7.043138 L -428.6253,55.5 -443.22512,55.30685 c -16.29662,-0.215588 -18.27537,-0.630325 -18.27377,-3.830125 0.001,-2.008875 1.49913,-2.236625 15.3125,-2.32795 9.00531,-0.0595 19.92794,-0.998025 26.52053,-2.2787 11.9981,-2.33075 35.13346,-10.282362 51.06209,-17.550012 12.5038,-5.705025 17.01511,-6.162075 19.19874,-1.945063 4.52773,8.743913 -0.27461,23.4846 -10.61685,32.5882 -20.03388,17.634538 -64.05678,30.702425 -81.94713,24.325425 z m 43.3188,-7.410425 c 15.40255,-4.913687 36.41465,-20.075312 43.33098,-31.2662 3.39723,-5.496813 3.30311,-14.487 -0.15166,-14.487 -0.66189,0 -8.18521,2.530813 -16.71852,5.624025 -8.53332,3.0932 -23.50044,7.880788 -33.26027,10.639075 -9.75983,2.758288 -18.01111,5.281025 -18.33618,5.606088 -0.32506,0.325075 0.2609,3.271862 1.30214,6.548425 1.54048,4.8476 2.48972,6.0294 5.09551,6.34395 4.59351,0.554487 24.40576,-6.378213 37.38515,-13.0818 6.11101,-3.156213 11.39685,-5.45265 11.74631,-5.103188 1.18796,1.187975 -8.73142,8.366838 -17.56567,12.712625 -11.18538,5.502375 -24.6478,9.164363 -38.16249,10.380813 -8.77281,0.789637 -10.68451,1.34415 -11.04073,3.202537 -0.23693,1.23615 0.3074,3.137025 1.20965,4.224175 1.3838,1.667375 3.79572,1.866013 15.41573,1.269588 7.5764,-0.388875 16.46391,-1.564775 19.75005,-2.613113 z m -2.91159,-48.628225 c -7.73891,-2.1926 -13.926,-6.216425 -19.7742,-12.860338 -7.84132,-8.908212 -9.539,-13.4119245 -9.539,-25.3057258 l 0,-10.4160872 -4.15804,-1.751241 c -2.76768,-1.165668 -4.0216,-2.458057 -3.75,-3.865073 0.34075,-1.765225 2.0572,-2.129307 10.40804,-2.207671 9.21861,-0.0865 10.68371,-0.475821 18.75,-4.982331 4.8125,-2.68867 10.32367,-5.696363 12.24705,-6.68376 1.96776,-1.01018 8.91832,-2.093997 15.89395,-2.478374 l 12.39689,-0.683108 6.27956,6.741868 c 8.57554,9.206875 10.51721,14.67869 9.81141,27.6492773 -0.65196,11.9808137 -3.48696,19.4244757 -10.24847,26.9086637 -8.23689,9.11725 -25.4493,13.579638 -38.31719,9.9339 z M -376.97871,19.3723 C -366.44574,14.467875 -359,1.5910875 -359,-11.72041 c 0,-8.223265 -2.95659,-13.99259 -9.91216,-19.34209 -4.41378,-3.394615 -6.35918,-4.0625 -11.83314,-4.0625 -8.49316,0 -17.98435,2.874413 -28.8797,8.746237 -4.8125,2.593599 -10.22966,5.05556 -12.03814,5.471025 -8.31765,1.910834 -5.23903,22.961738 4.92949,33.706838 9.14444,9.662937 26.83675,12.588237 39.75494,6.5732 z M -389,-7.625 c -3.02129,-3.021285 -3.12666,-4.799048 -0.50622,-8.540243 2.94408,-4.203276 10.34093,-3.389983 12.96695,1.425732 1.83574,3.36648 1.7704,3.635689 -1.59293,6.5624998 -4.25831,3.7056274 -7.54714,3.8726774 -10.8678,0.5520112 z m 148.02224,56.144162 c 1.78446,-2.120712 2.90775,-4.400675 2.4962,-5.066587 -0.41157,-0.665912 -3.6497,-2.5734 -7.19587,-4.23885 -3.54616,-1.665463 -7.46718,-3.744875 -8.71338,-4.620913 -1.94153,-1.36485 -2.62144,-1.159312 -4.75057,1.436051 -1.55373,1.893974 -2.34402,4.4356 -2.10918,6.783275 0.30039,3.002925 1.4783,4.33575 5.88466,6.65865 7.37706,3.888937 10.48823,3.683162 14.38814,-0.951625 z m -62.75447,-2.376387 c -0.45197,-5.512912 -1.75277,-6.793538 -5.85477,-5.764 -4.03178,1.0119 -4.90388,3.042375 -3.21483,7.484925 1.10243,2.8996 1.91832,3.360225 5.36353,3.028062 3.81336,-0.367662 4.04132,-0.659787 3.70607,-4.748987 z M -456.83719,35.4603 c 9.13533,-3.816975 14.08719,-10.979875 14.08719,-20.3772 0,-6.12215 -7.06684,-20.586935 -12.74769,-26.092658 -5.62654,-5.453089 -17.19793,-8.430234 -28.19064,-7.253017 -9.68061,1.036706 -12.29686,3.22607 -13.50825,11.3041275 -2.00251,13.353785 1.70558,26.6630725 10.26157,36.8312725 6.02812,7.164025 10.10208,9.001363 18.23988,8.2261 3.94893,-0.3762 9.28501,-1.563575 11.85794,-2.638625 z M -466.25,7.125 c -3.84254,-3.8425375 0.15247,-12.25 5.82088,-12.25 4.21089,0 6.42912,2.05539 6.42912,5.957175 0,5.183725 -2.23282,7.792825 -6.66898,7.792825 -2.24456,0 -4.75602,-0.675 -5.58102,-1.5 z m 237,26.25 c 2.82272,-2.822725 1.66761,-6.057537 -2.83485,-7.938787 -5.93539,-2.47995 -9.8613,-2.271313 -12.51893,0.665337 -1.83698,2.02985 -1.95631,2.819888 -0.66153,4.38 2.9869,3.599 13.4241,5.484663 16.01531,2.89345 z m -82.28421,-21.3125 c -0.0188,-0.859375 -1.33604,-8.03125 -2.92716,-15.9375 -2.76427,-13.735519 -3.02569,-14.3595 -5.87672,-14.026576 -5.08988,0.594364 -5.51853,2.112722 -3.33742,11.8217223 1.12189,4.9939162 2.40456,10.9457037 2.85038,13.2261912 0.50727,2.5947625 1.81898,4.5530625 3.50537,5.2332625 3.8975,1.572063 5.8246,1.466438 5.78555,-0.3171 z m -9.30344,-37.685236 c 2.23245,-1.632413 2.28848,-2.340758 0.84902,-10.734984 -1.98761,-11.590865 -3.33313,-14.137985 -6.89999,-13.061859 -5.38929,1.625953 -5.38574,1.567349 -1.33985,22.107079 0.75644,3.840266 3.57008,4.48355 7.39082,1.689764 z m -7.63959,-31.511 c 2.69698,-1.034925 2.50115,-4.302324 -1.1955,-19.947169 -6.68604,-28.296495 -12.38652,-34.314465 -32.45226,-34.259675 -12.5013,0.0341 -21.52199,5.72944 -25.00092,15.784566 -1.57458,4.550964 -1.51918,4.848219 1.04404,5.601295 1.48879,0.437404 11.14438,0.518692 21.45688,0.180639 14.66471,-0.480721 19.18483,-0.24547 20.74566,1.07972 1.09762,0.931898 3.2941,6.75686 4.88108,12.94436 4.75791,18.550774 5.04845,19.375 6.82979,19.375 0.9427,0 2.60376,-0.341431 3.69123,-0.758736 z m -84.90632,-26.318193 c 9.07627,-1.269795 10.24921,-3.693737 4.4216,-9.137543 -6.44075,-6.016552 -20.92374,-6.645523 -29.72845,-1.291055 -3.71316,2.258108 -11.55959,11.663386 -11.55959,13.856137 0,1.870076 5.70615,1.773625 17.5,-0.295801 6.53125,-1.146018 15.24615,-2.555299 19.36644,-3.131738 z"
       id="path4198"
       inkscape:connector-curvature="0" />
    <path
       style="fill:#2e2b1b"
       d="m -514.625,136.29565 c -2.75,-1.25095 -5.772,-3.20735 -6.71555,-4.34755 -0.94356,-1.1402 -2.77006,-2.0731 -4.0589,-2.0731 -1.28884,0 -4.59496,-2.0342 -7.34695,-4.52045 -5.67191,-5.12424 -6.37889,-8.96182 -2.54814,-13.83184 2.25824,-2.8709 2.30012,-3.3587 0.52134,-6.07346 -2.70326,-4.12571 -1.26072,-7.4148 5.20226,-11.86145 3.03177,-2.0859 7.02692,-6.446487 8.87811,-9.690175 1.8512,-3.2437 4.20158,-6.882 5.22307,-8.085125 3.654,-4.303775 16.73904,-1.987587 21.976,3.889975 1.30967,1.469888 3.56972,2.672525 5.02232,2.672525 3.66859,0 11.97148,-5.883237 11.97128,-8.482562 -1e-4,-1.178338 -2.27946,-9.695375 -5.06528,-18.92675 -3.65697,-12.1182 -6.08733,-17.948588 -8.74215,-20.972263 -8.99308,-10.24255 -12.4972,-23.65875 -10.23433,-39.1842337 1.31645,-9.0321023 1.22558,-10.6441903 -0.90447,-16.0481703 -4.33872,-11.007431 -6.59958,-36.046866 -3.48792,-38.629318 1.76422,-1.464175 21.75462,-7.514442 35.93431,-10.875827 5.15625,-1.222322 10.07813,-2.776936 10.9375,-3.454696 0.85938,-0.67776 1.5625,-3.425985 1.5625,-6.107165 0,-3.954594 0.94931,-5.90476 5.02869,-10.330355 6.04122,-6.553957 14.17762,-10.28056 26.1545,-11.97918 11.21597,-1.59072 14.91482,-0.20146 22.79287,8.560838 3.17947,3.536325 6.32398,6.429682 6.9878,6.429682 0.66384,0 1.50873,-2.249832 1.87755,-4.999627 1.80503,-13.457413 12.44518,-21.936283 29.30127,-23.349443 17.6547,-1.4801 28.00972,3.8263 32.90482,16.861976 4.30824,11.472847 17.68591,67.880035 24.46413,103.1534065 2.41533,12.5692505 2.30301,12.4695505 15.63036,13.8746005 C -282.29874,18.870987 -279,17.310925 -279,12.071438 -279,8.3204375 -268.52974,-1.375 -264.47896,-1.375 c 1.77492,0 6.40567,1.9339125 10.29055,4.2975875 4.19676,2.5534375 9.59995,4.644725 13.31341,5.1529125 7.43986,1.01815 10.625,3.452275 10.625,8.119763 0,2.598187 1.06369,4.060387 4.375,6.014112 3.48735,2.057588 4.375,3.35885 4.375,6.413612 0,4.582663 -3.10364,12.502013 -4.8996,12.502013 -0.70244,0 -2.71474,3.038787 -4.47178,6.75285 -4.28192,9.05125 -7.79855,11.238212 -16.76025,10.423037 -6.62357,-0.602487 -12.98512,-3.361937 -19.97445,-8.664325 -1.63958,-1.243862 -4.83378,-2.261562 -7.09821,-2.261562 -2.26442,0 -4.98975,-0.872613 -6.05627,-1.939138 -2.16676,-2.166762 -14.46825,-5.7215 -16.16686,-4.6717 -0.60054,0.37115 -0.74432,2.848451 -0.3195,5.5051 0.99252,6.206913 -1.91157,9.351426 -9.7175,10.522 -4.9149,0.737025 -5.74644,1.309913 -6.432,4.431313 -1.13984,5.1896 -6.78679,9.372737 -23.72858,17.577612 -18.30911,8.867063 -43.91341,17.434075 -65.27377,21.840123 -20.91473,4.31413 -47.03663,4.86175 -58.21093,1.22037 -6.35521,-2.070992 -7.63236,-2.145042 -10.5058,-0.60914 -1.7991,0.96165 -4.02979,3.56314 -4.95709,5.78107 -0.92728,2.21795 -3.39595,4.91688 -5.4859,5.99763 -2.08993,1.08076 -4.46075,3.48482 -5.26845,5.34239 -3.08231,7.08866 -7.69255,12.86087 -13.16932,16.48853 -6.598,4.37034 -7.89513,4.49754 -14.62874,1.43449 z m 15.16289,-9.63253 c 5.24882,-5.56536 6.36522,-9.59862 3.75821,-13.57742 -3.5984,-5.49185 -10.7961,-5.19374 -10.7961,0.44715 0,1.15595 -1.96875,4.00993 -4.375,6.34215 -5.2746,5.11235 -5.4488,6.83761 -0.9375,9.28504 5.27413,2.86125 7.77358,2.35594 12.35039,-2.49692 z m -21.73428,-7.43697 c 5.2871,-3.59268 7.52712,-7.03482 6.43318,-9.8856 -1.79789,-4.68519 -14.72293,0.4649 -16.2832,6.48819 -0.76405,2.94954 1.31516,6.54626 3.7843,6.54626 0.78747,0 3.51705,-1.41699 6.06572,-3.14885 z M -481.5,103.20951 c 1.71875,-3.319935 4.25,-6.64591 5.625,-7.391047 1.375,-0.745151 2.86442,-1.905613 3.30984,-2.578838 0.94407,-1.426937 -1.13349,-8.030838 -2.86268,-9.099538 -1.72568,-1.066524 -4.82216,1.911675 -4.82216,4.637963 0,2.512663 -4.23912,3.339338 -5.625,1.09695 -0.4249,-0.6875 -2.77285,-1.25 -5.21769,-1.25 -3.48352,0 -5.31205,-0.946438 -8.45247,-4.375 -5.43113,-5.9294 -9.15095,-5.78795 -14.23733,0.541362 -2.17298,2.704 -6.48588,6.736863 -9.5842,8.961901 -6.02991,4.33035 -6.78265,5.759162 -3.66447,6.955717 3.67566,1.41048 11.86622,-2.027668 14.07365,-5.907705 2.34205,-4.116662 4.54252,-4.712187 5.75327,-1.557025 0.48684,1.268688 -0.26635,3.579438 -1.87663,5.757475 -2.44949,3.313115 -2.51369,3.814425 -0.71842,5.609715 1.79529,1.79527 2.17923,1.78344 4.2963,-0.13249 3.52963,-3.19426 8.44169,-2.58109 13.04577,1.62851 2.24522,2.05285 4.92597,3.59878 5.95722,3.43538 1.03125,-0.16339 3.28125,-3.01339 5,-6.33333 z m 84.26634,-9.45376 c 17.25882,-3.702112 32.60841,-9.190512 49.85837,-17.827375 8.11234,-4.061762 17.787,-8.521412 21.49927,-9.91035 7.48985,-2.802313 8.70283,-4.7733 6.87017,-11.163437 -0.68429,-2.385938 -1.24415,-5.866763 -1.24415,-7.735138 0,-1.90715 -1.22619,-4.539425 -2.79575,-6.0017 -2.29867,-2.141537 -2.47984,-2.799888 -1.01892,-3.702775 2.58519,-1.597737 13.89016,-2.5312 28.18967,-2.327638 11.01532,0.156813 12.90749,0.515676 15.93075,3.021425 1.88693,1.563925 4.58579,3.210075 5.99749,3.658138 2.78759,0.88475 6.19676,-1.219062 6.19676,-3.82405 0,-0.894325 1.4899,-3.396675 3.31089,-5.5608 2.60944,-3.10115 3.95888,-3.772125 6.36956,-3.167087 6.59847,1.656112 9.09,-5.492663 2.81955,-8.089963 -2.0625,-0.854312 -3.75,-2.328812 -3.75,-3.27665 0,-2.1752 0.53445,-2.157575 5.02729,0.165763 4.17019,2.156487 12.69461,0.9247 15.91972,-2.300413 2.79252,-2.792512 1.1515,-4.073387 -7.47292,-5.83285 -4.317,-0.8807125 -10.51675,-2.7160125 -13.77723,-4.0784625 -5.51437,-2.3043 -6.14281,-2.336525 -9.00407,-0.46175 -1.94063,1.27155 -3.40044,3.7451125 -3.95509,6.7016125 -0.60655,3.233213 -2.62835,6.386212 -6.52082,10.169275 -5.13569,4.9913 -5.78289,5.290025 -7.21577,3.33045 -1.07982,-1.476763 -5.62476,-2.851138 -14.47508,-4.377225 -7.09557,-1.223525 -16.20223,-3.566137 -20.23704,-5.205825 -6.80951,-2.767275 -7.36183,-3.294425 -7.69581,-7.3450875 -1.36519,-16.5576525 -13.69472,-79.2754795 -17.2638,-87.8175045 -2.33132,-5.579604 -1.76529,-5.526593 -29.71675,-2.783167 -36.75173,3.607172 -66.43634,9.30109 -94.23763,18.076082 -4.125,1.301985 -13.125,3.606566 -20,5.121291 -6.875,1.514726 -12.8816,3.099515 -13.34799,3.521754 -1.05685,0.956797 1.25253,19.027333 3.29305,25.767707 l 1.51367,5 12.39563,0.08676 c 11.01214,0.07707 13.44457,0.530065 21.79364,4.058626 5.16889,2.184527 11.46126,5.672591 13.98304,7.751253 13.70292,11.295113 15.37977,35.815938 3.30262,48.294913 -5.73933,5.9303 -13.17556,8.289162 -24.35205,7.724775 -8.89707,-0.449275 -9.3593,-0.341487 -8.81127,2.054762 1.03261,4.515213 14.83487,43.679938 16.61305,47.140526 2.18971,4.261475 4.79745,4.595637 32.36661,4.147537 15.90261,-0.258488 24.36818,-1.014262 33.64134,-3.0034 z m -43.40875,-10.072075 c -7.22347,-2.331312 -8.88284,-6.308675 -2.63201,-6.308675 2.15838,0 3.52924,-1.027038 4.58827,-3.4375 1.88679,-4.294512 3.22356,-5.2692 7.25974,-5.293363 1.75922,-0.01 4.21926,-0.765475 5.46675,-1.677662 2.183,-1.596238 2.17297,-1.873725 -0.26713,-7.38995 l -2.53527,-5.731437 -9.80648,0.6173 c -9.70441,0.610874 -19.80646,-0.680688 -19.80646,-2.5323 0,-0.5269 6.37855,-1.204475 14.17456,-1.505713 24.28078,-0.938225 43.45373,-5.985912 75.20044,-19.79815 7.21875,-3.1407 14.08959,-5.719562 15.26853,-5.7308 5.15883,-0.04913 6.39953,13.050038 2.12916,22.479575 -5.64398,12.46265 -26.34885,25.738363 -51.77269,33.196038 -12.08607,3.54525 -31.02566,5.127112 -37.26741,3.112637 z m 41.9922,-6.805475 c 15.40255,-4.913687 36.41465,-20.075312 43.33098,-31.2662 3.39723,-5.496813 3.30311,-14.487 -0.15166,-14.487 -0.66189,0 -8.18521,2.530813 -16.71852,5.624025 -8.53332,3.0932 -23.50044,7.880788 -33.26027,10.639075 -9.75983,2.758288 -18.01111,5.281025 -18.33618,5.606088 -0.32506,0.325075 0.2609,3.271862 1.30214,6.548425 1.54048,4.8476 2.48972,6.0294 5.09551,6.34395 4.59351,0.554487 24.40576,-6.378213 37.38515,-13.0818 6.11101,-3.156213 11.39685,-5.45265 11.74631,-5.103188 1.18796,1.187975 -8.73142,8.366838 -17.56567,12.712625 -11.18538,5.502375 -24.6478,9.164363 -38.16249,10.380813 -8.77281,0.789637 -10.68451,1.34415 -11.04073,3.202537 -0.23693,1.23615 0.3074,3.137025 1.20965,4.224175 1.3838,1.667375 3.79572,1.866013 15.41573,1.269588 7.5764,-0.388875 16.46391,-1.564775 19.75005,-2.613113 z m -4.75093,-50.422687 c -8.25967,-2.964338 -13.47321,-6.796275 -19.33345,-14.210038 -6.55038,-8.2868625 -8.00347,-13.28985 -7.01812,-24.163505 l 0.80959,-8.934181 -4.40344,-1.592305 c -7.51858,-2.718753 -5.50678,-4.719129 4.65906,-4.632611 9.37554,0.07979 12.25821,-0.915659 28.4375,-9.820057 6.42885,-3.53817 20.36214,-5.783066 27.63689,-4.452785 6.22143,1.13767 13.76096,9.221805 17.46351,18.724969 2.43996,6.262559 2.55426,7.695314 1.283,16.0834888 -3.39211,22.3823742 -14.36419,33.4413362 -34.42405,34.6966482 -6.48337,0.405725 -10.50454,-0.04662 -15.11049,-1.699625 z M -376.97871,19.3723 C -366.44574,14.467875 -359,1.5910875 -359,-11.72041 c 0,-8.223265 -2.95659,-13.99259 -9.91216,-19.34209 -4.41378,-3.394615 -6.35918,-4.0625 -11.83314,-4.0625 -8.49316,0 -17.98435,2.874413 -28.8797,8.746237 -4.8125,2.593599 -10.22966,5.05556 -12.03814,5.471025 -8.31765,1.910834 -5.23903,22.961738 4.92949,33.706838 9.14444,9.662937 26.83675,12.588237 39.75494,6.5732 z M -389,-7.625 c -3.02129,-3.021285 -3.12666,-4.799048 -0.50622,-8.540243 2.94408,-4.203276 10.34093,-3.389983 12.96695,1.425732 1.83574,3.36648 1.7704,3.635689 -1.59293,6.5624998 -4.25831,3.7056274 -7.54714,3.8726774 -10.8678,0.5520112 z m 146.34393,59.64775 c 3.20086,-2.475525 6.11842,-7.686312 5.1655,-9.225675 -0.48643,-0.7858 -3.97818,-2.876088 -7.75943,-4.645088 -3.78125,-1.768999 -7.89346,-3.933137 -9.13824,-4.809175 -1.95235,-1.374012 -2.68211,-1.111037 -5.3125,1.914388 -5.91516,6.803512 -3.10308,13.05475 7.57574,16.840887 4.98694,1.7681 7.10715,1.751225 9.46893,-0.07538 z m -61.07615,-5.879975 c -0.45198,-5.512912 -1.75278,-6.793538 -5.85478,-5.764 -4.03178,1.0119 -4.90387,3.042375 -3.21482,7.484925 1.10242,2.8996 1.91831,3.360225 5.36352,3.028062 3.81336,-0.367662 4.04133,-0.659787 3.70607,-4.748987 z M -456.83719,35.4603 c 9.13533,-3.816975 14.08719,-10.979875 14.08719,-20.3772 0,-6.12215 -7.06684,-20.586935 -12.74769,-26.092658 -5.62654,-5.453089 -17.19793,-8.430234 -28.19064,-7.253017 -9.68061,1.036706 -12.29686,3.22607 -13.50825,11.3041275 -2.00251,13.353785 1.70558,26.6630725 10.26157,36.8312725 6.02812,7.164025 10.10208,9.001363 18.23988,8.2261 3.94893,-0.3762 9.28501,-1.563575 11.85794,-2.638625 z M -466.25,7.125 c -3.84254,-3.8425375 0.15247,-12.25 5.82088,-12.25 4.21089,0 6.42912,2.05539 6.42912,5.957175 0,5.183725 -2.23282,7.792825 -6.66898,7.792825 -2.24456,0 -4.75602,-0.675 -5.58102,-1.5 z m 236.97186,27.054125 c 6.27601,-4.395888 0.86508,-10.849188 -9.27445,-11.0611 -4.23868,-0.08863 -6.09061,0.487363 -7.42261,2.308387 -2.98988,4.0876 -1.61705,6.413201 5.22516,8.85155 6.35243,2.2638 8.12052,2.248563 11.4719,-0.09887 z M -311.53421,12.0625 c -0.0188,-0.859375 -1.33604,-8.03125 -2.92716,-15.9375 -2.76427,-13.735519 -3.02569,-14.3595 -5.87672,-14.026576 -5.08988,0.594364 -5.51853,2.112722 -3.33742,11.8217223 1.12189,4.9939162 2.40456,10.9457037 2.85038,13.2261912 0.50727,2.5947625 1.81898,4.5530625 3.50537,5.2332625 3.8975,1.572062 5.8246,1.466438 5.78555,-0.3171 z m -9.30344,-37.685236 c 2.23245,-1.632413 2.28848,-2.340758 0.84902,-10.734984 -1.98761,-11.590865 -3.33313,-14.137985 -6.89999,-13.061859 -5.38929,1.625953 -5.38574,1.567349 -1.33985,22.107079 0.75644,3.840266 3.57008,4.48355 7.39082,1.689764 z m -7.63959,-31.511 c 2.69698,-1.034925 2.50115,-4.302324 -1.1955,-19.947169 -6.68604,-28.296495 -12.38652,-34.314465 -32.45226,-34.259675 -12.5013,0.0341 -21.52199,5.72944 -25.00092,15.784566 -1.57458,4.550964 -1.51918,4.848219 1.04404,5.601295 1.48879,0.437404 11.14438,0.518692 21.45688,0.180639 14.66471,-0.480721 19.18483,-0.24547 20.74566,1.07972 1.09762,0.931898 3.2941,6.75686 4.88108,12.94436 4.75791,18.550774 5.04845,19.375 6.82979,19.375 0.9427,0 2.60376,-0.341431 3.69123,-0.758736 z m -84.90632,-26.318193 c 9.07627,-1.269795 10.24921,-3.693737 4.4216,-9.137543 -6.44075,-6.016552 -20.92374,-6.645523 -29.72845,-1.291055 -3.71316,2.258108 -11.55959,11.663386 -11.55959,13.856137 0,1.870076 5.70615,1.773625 17.5,-0.295801 6.53125,-1.146018 15.24615,-2.555299 19.36644,-3.131738 z"
       id="path4196"
       inkscape:connector-curvature="0" />
  </g>
</svg>
