<?xml version="1.0" encoding="UTF-8" standalone="no"?>
<!-- Created with Inkscape (http://www.inkscape.org/) -->
<svg id="svg4951" xmlns:rdf="http://www.w3.org/1999/02/22-rdf-syntax-ns#" xmlns="http://www.w3.org/2000/svg" height="48" width="48" version="1.1" xmlns:cc="http://creativecommons.org/ns#" xmlns:xlink="http://www.w3.org/1999/xlink" xmlns:dc="http://purl.org/dc/elements/1.1/">
 <defs id="defs4953">
  <radialGradient id="radialGradient3302" gradientUnits="userSpaceOnUse" cy="186.17" cx="99.157" gradientTransform="matrix(.27083 0 0 .087623 -2.8551 25.187)" r="62.769">
   <stop id="stop3822-2-6-3" stop-color="#3d3d3d" offset="0"/>
   <stop id="stop3864-8-7-7" stop-color="#686868" stop-opacity=".49804" offset=".5"/>
   <stop id="stop3824-1-2-5" stop-color="#686868" stop-opacity="0" offset="1"/>
  </radialGradient>
  <radialGradient id="radialGradient3037" gradientUnits="userSpaceOnUse" cy="-17.681" cx="14.892" gradientTransform="matrix(-1.7922 4.7451e-8 -3.529e-8 -1.3329 41.581 -41.248)" r="25.571">
   <stop id="stop3767" stop-color="#fff" offset="0"/>
   <stop id="stop3769" stop-color="#e4e4e4" offset="1"/>
  </radialGradient>
  <linearGradient id="linearGradient3039" y2="32.568" gradientUnits="userSpaceOnUse" x2="15.124" y1="-18.801" x1="15.124">
   <stop id="stop3777" stop-color="#fff" stop-opacity=".58824" offset="0"/>
   <stop id="stop3779" stop-color="#fff" offset="1"/>
  </linearGradient>
 </defs>
 <metadata id="metadata4956">
  <rdf:RDF>
   <cc:Work rdf:about="">
    <dc:format>image/svg+xml</dc:format>
    <dc:type rdf:resource="http://purl.org/dc/dcmitype/StillImage"/>
    <dc:title/>
   </cc:Work>
  </rdf:RDF>
 </metadata>
 <path id="path19-8" d="m-55.203 32.032c-0.68948-0.08373-1.3228-0.4894-1.628-1.0428-0.31109-0.56416-0.33948-0.85964-0.32117-3.3436 0.01418-1.924 0.01914-2.0446 0.0954-2.3202 0.18178-0.65677 0.53377-1.1047 1.0802-1.3747 0.74994-0.37055 1.5582-0.32219 2.2658 0.13558 0.45047 0.29141 0.72423 0.7128 0.87032 1.3397 0.0647 0.27765 0.07089 0.48997 0.07089 2.4335 0 2.3626-0.01149 2.4991-0.25337 3.0111-0.23305 0.49324-0.75998 0.92783-1.3099 1.0803-0.24198 0.0671-0.6627 0.1063-0.87027 0.0811zm0.6042-1.5431c0.2641-0.20144 0.26596-0.218 0.2806-2.4943 0.01137-1.7679 0.005-2.0683-0.04862-2.3095-0.07231-0.32503-0.19916-0.48028-0.44693-0.54699-0.32083-0.08639-0.61474 0.09723-0.7165 0.44766-0.07839 0.26993-0.07758 4.2802 0.00092 4.5507 0.05877 0.20248 0.24976 0.42436 0.39129 0.45456 0.18392 0.03925 0.40998-0.0036 0.53924-0.10218zm3.8826 1.5448c-0.38226-0.0509-0.60536-0.1984-0.75847-0.50146-0.19222-0.38049-0.19212-0.37827-0.19212-4.167v-3.5362h0.77102 0.77102l0.01629 3.2592c0.0177 3.5408 0.01242 3.4581 0.22436 3.5113 0.19461 0.04884 0.40977-0.05546 0.67829-0.32882l0.25725-0.26188 0.0097-3.0899 0.0097-3.0899 0.76998-0.01029 0.76998-0.01029v4.0473 4.0473l-0.10456 0.02148c-0.12615 0.02591-1.2938 0.02422-1.3879-0.002-0.05749-0.01603-0.06654-0.06845-0.06654-0.38553v-0.36698l-0.21864 0.21287c-0.50309 0.48983-1.046 0.71789-1.5495 0.65086zm-10.005-0.13226c-0.03234-0.05233-0.02749-3.1806 0.0056-3.6236 0.04246-0.56815 0.01233-1.0148-0.39553-2.1572-0.1324-0.37085-0.3876-1.1221-0.54715-1.6296-1.1526-3.6662-1.0751-3.4183-0.96497-3.4192 0.75923-0.0065 1.6317-0.002 1.6419 0.0082 0.0073 0.0073 0.25415 0.90261 0.54853 1.9896 0.29438 1.0869 0.54009 1.9917 0.54601 2.0107 0.0059 0.01891 0.17872-0.61418 0.38401-1.4069 0.43034-1.6617 0.6718-2.5792 0.68104-2.5876 0.01925-0.01761 0.23329-0.02168 0.93269-0.01772l0.77414 0.0044-0.01705 0.12358c-0.01394 0.10103-0.54215 1.8751-1.0953 3.6788-0.06093 0.19867-0.21498 0.71199-0.34233 1.1407-0.12735 0.42872-0.28178 0.93796-0.34318 1.1317l-0.11163 0.35217v2.2023c0 2.0652-0.0041 2.2035-0.06654 2.2206-0.13878 0.03797-1.6055 0.01935-1.6302-0.02069z" fill="#fff"/>
 <g id="g4405">
  <path id="path3818-0-5" fill="url(#radialGradient3302)" d="m41 41.5a17 5.5 0 0 1 -34 0 17 5.5 0 1 1 34 0z"/>
  <path id="path2985" d="m40.781 6.8335a25.571 25.571 0 1 1 -51.141 0 25.571 25.571 0 1 1 51.141 0z" transform="matrix(.80271 0 0 .80271 11.791 18.515)" fill="url(#radialGradient3037)"/>
  <path id="path3755" d="m40.781 6.8335a25.571 25.571 0 1 1 -51.141 0 25.571 25.571 0 1 1 51.141 0z" stroke-opacity=".58824" transform="matrix(.80271 0 0 .80271 11.791 18.515)" stroke="#828282" stroke-width="1.1816" fill="none"/>
  <path id="path3773" d="m40.781 6.8335a25.571 25.571 0 1 1 -51.141 0 25.571 25.571 0 1 1 51.141 0z" stroke-opacity=".58824" transform="matrix(.76418 0 0 .76418 12.377 18.778)" stroke="url(#linearGradient3039)" stroke-width="1.2204" fill="none"/>
  <g id="g4384" transform="matrix(.13623 0 0 .13267 61.66 16.836)">
   <path id="path4392" d="m-285.65 166.28c-8.9654-10.669-12.18-13.664-17.199-16.023-6.6463-3.1241-14.875-3.2536-28.731-0.45211-6.5637 1.3271-13.246 2.2862-14.85 2.1315-3.618-0.34909-4.5548-2.7767-6.0311-15.628-2.431-21.163-6.6298-26.649-28.61-37.38-10.792-5.2689-12.825-6.5796-12.824-8.2674 0.00036-1.1032 3.0274-7.4733 6.7266-14.156 11.867-21.438 11.655-27.377-1.7522-48.958-2.7363-4.4047-4.9751-8.901-4.9751-9.9918 0-2.1266 5.0852-4.8185 18.619-9.8563 15.189-5.6541 19.515-12.219 22.347-33.914 1.876-14.376 2.8905-17.349 6.0421-17.712 1.3518-0.15572 8.2073 1.1605 15.234 2.925 24.715 6.2059 32.128 3.9825 43.797-13.137 5.5521-8.1453 9.5025-12.455 11.417-12.455 0.80154 0 6.2024 4.5562 12.002 10.125 13.093 12.572 18.028 15.308 28.492 15.798 4.8536 0.22692 10.368-0.27591 16.921-1.543 12.033-2.3267 15.538-2.3985 16.329-0.33489 0.32601 0.84957 1.1954 7.8346 1.932 15.522 2.2114 23.08 6.5968 29.437 24.509 35.529 11.769 4.0029 17.259 6.8506 17.257 8.9519-0.00075 1.0461-1.8341 5.3446-4.0742 9.5521-9.087 17.068-8.9362 16.613-8.9563 27.063l-0.0182 9.5129 6.578 12.836c3.6623 7.1463 6.4548 13.692 6.3 14.768-0.21557 1.4984-1.7932 2.4967-7.028 4.4471-16.964 6.3203-19.411 7.4399-22.642 10.359-4.9517 4.4736-8.5696 12.543-10.184 22.714-2.6821 16.9-3.4175 21.168-3.8386 22.275-0.63931 1.6811-5.0689 1.3783-17.436-1.1919-21.35-4.437-27.758-2.3708-43.855 14.141-7.269 7.4564-11.025 10.676-12.455 10.676-1.4784 0-3.9924-2.3144-9.0432-8.325z" fill="#fefd60"/>
   <path id="path4388" d="m-283.81 167.67c-11.547-13.041-15.016-16.122-20.433-18.149-6.8835-2.5754-14.709-2.4746-29.026 0.3742-15.218 3.028-15.789 2.9367-17.161-2.7412-0.59772-2.475-1.6538-8.7895-2.3469-14.032-2.4042-18.186-6.208-22.963-26.814-33.668-16.599-8.6235-16.217-7.5204-7.7201-22.32 7.0339-12.251 8.8237-17.275 8.8237-24.769 0-6.3786-2.614-12.683-10.388-25.053-2.2267-3.5431-4.3038-7.4591-4.6158-8.7023-0.73424-2.9255 0.61988-3.7895 14.441-9.2144 5.94-2.3315 12.274-5.289 14.075-6.5723 6.9165-4.9284 9.7813-11.759 12.324-29.383 0.99852-6.9221 2.2582-13.744 2.7994-15.16 0.92504-2.4209 1.2117-2.5406 4.7932-2.0024 2.0951 0.31484 8.6447 1.7773 14.555 3.2498 13.776 3.4327 22.384 3.5915 28.855 0.53244 5.0967-2.4095 7.1602-4.494 13.913-14.055 5.5837-7.9054 9.8364-12.6 11.414-12.6 0.6184 0 6.0014 4.6481 11.962 10.329 17.287 16.475 24.632 18.85 44.61 14.425 2.97-0.65784 7.692-1.4763 10.493-1.8188 6.5567-0.80168 6.7751-0.4031 7.9905 14.578 0.51474 6.3449 1.7611 14.333 2.7696 17.752 2.4976 8.4658 9.1508 15.236 18.216 18.538 13.574 4.9432 19.82 7.7215 20.752 9.2308 0.79256 1.2836-0.26509 4.0148-5.5765 14.4-10.699 20.919-10.711 25.986-0.11316 46.382 3.4198 6.5814 6.2177 12.72 6.2177 13.641 0 1.7346-7.2528 5.1954-18 8.5889-10.597 3.346-17.321 9.9537-20.365 20.012-0.7144 2.3605-2.1152 9.9258-3.1129 16.812-0.99768 6.8859-2.2126 13.265-2.6997 14.175-1.1544 2.1571-2.5096 2.0993-16.012-0.6823-22.445-4.624-28.96-2.5961-45.266 14.088-5.7777 5.912-11.115 10.749-11.861 10.749-0.7457 0-4.1184-3.1202-7.495-6.9337zm16.833-13.294c14.053-13.807 24.401-17.434 41.067-14.394 4.8733 0.88891 10.459 1.6512 12.414 1.6939l3.5532 0.0777 1.4883-9.9c2.047-13.616 3.8234-19.146 8.2829-25.784 4.7479-7.0669 10.62-11.248 20.559-14.639 4.1597-1.419 8.0791-3.0538 8.7099-3.6328 0.91627-0.84112 0.25324-2.7611-3.2975-9.5488-5.47-10.487-7.29-16.526-7.29-24.255 0-7.7287 1.818-13.768 7.2994-24.246 3.5507-6.7876 4.2137-8.7077 3.2975-9.5488-0.63079-0.57905-4.5894-2.2195-8.7969-3.6455-19.501-6.6091-27.654-17.782-29.636-40.613-0.44887-5.1694-1.0599-9.6427-1.3579-9.9407-0.29798-0.29799-4.9706 0.19699-10.384 1.0999-20.8 3.4698-31.604-0.02532-47.198-15.269-3.7903-3.7052-7.2663-6.7367-7.7245-6.7367-0.45814 0-2.5471 2.5312-4.6422 5.625-6.0902 8.9932-11.876 14.561-18.108 17.425-7.928 3.6437-19.591 3.6327-32.776-0.03088-5.0469-1.4022-9.7385-2.3337-10.426-2.0699-0.8467 0.32491-1.7097 3.9178-2.6757 11.14-2.2176 16.578-6.6388 26.199-14.8 32.206-2.3771 1.7494-8.372 4.7577-13.322 6.6849-5.1545 2.0069-9.1148 4.0774-9.2686 4.8458-0.14774 0.73793 1.7844 4.5327 4.2936 8.4329 10.802 16.79 10.675 29.279-0.49795 49-2.6824 4.7345-4.8771 8.8883-4.8771 9.2305 0 0.34222 4.739 2.9485 10.531 5.7917 19.427 9.5361 26.547 19.671 28.608 40.72 0.36351 3.7125 1.0262 7.2028 1.4726 7.7562 0.59051 0.73204 3.0766 0.51365 9.1251-0.80156 5.1328-1.1161 11.757-1.818 17.313-1.8345 14.522-0.0431 21.731 3.6232 32.845 16.706 3.2202 3.7903 6.2358 6.9101 6.7013 6.9329 0.46556 0.0228 4.7523-3.796 9.5262-8.4862zm2.1158-36.014c-11.562-2.5149-25.761-10.998-32.986-19.709-7.8577-9.4731-12.482-20.082-14.229-32.644-1.5015-10.795 0.30063-20.858 6.4405-35.959 1.1196-2.7538 1.024-2.9384-5.3116-10.258-3.5485-4.0996-6.4518-8.1638-6.4518-9.0315 0-0.86771 2.6325-3.7135 5.85-6.324s5.85-5.2993 5.85-5.9751c0-1.5645-3.3777-8.3156-5.1944-10.382-0.82308-0.93624-2.6621-1.575-4.5345-1.575-2.4922 0-3.8491 0.73503-6.4988 3.5205-7.1409 7.5067-8.1142 19.602-3.5668 44.322 3.6243 19.702 4.1291 27.397 2.3521 35.857-3.7574 17.888-15.234 28.848-23.445 22.389-2.4-1.889-11.32-18.617-11.32-21.218 0-3.1398 2.5312-0.09968 6.3 7.5668 4.8588 9.8836 6.6118 11.953 10.126 11.953 7.1641 0 14.013-10.468 15.995-24.448 1.0286-7.2529 0.24276-15.519-3.152-33.152-4.2942-22.305-3.896-32.315 1.6539-41.573 3.7453-6.248 7.9929-9.13 12.572-8.5303 4.2306 0.5541 6.4538 2.4802 9.2676 8.0287 1.1923 2.3512 2.6673 4.2745 3.2777 4.2739 0.6104-0.0006057 4.0822-2.4306 7.7152-5.4 3.6329-2.9694 6.9746-5.3989 7.4259-5.3989 0.45133 0 2.7439 2.5093 5.0947 5.5762 2.3507 3.0669 5.3306 6.7863 6.6218 8.2653l2.3478 2.689 8.7375-1.6447c21.224-3.995 39.782 1.7305 55.054 16.985 11.95 11.93 17.47 25.323 17.47 42.379 0 10.937-1.4813 17.255-6.4352 27.45-5.257 10.818-16.162 21.674-26.946 26.823-12.927 6.1724-27.013 7.9771-40.081 5.1348zm41.771-36.248c0.21303-6.8609 0.0118-8.435-1.1344-8.8749-0.76635-0.29408-5.9454 0.72296-11.509 2.2601-12.495 3.4521-25.704 5.4884-35.766 5.5135-7.3711 0.01836-12.072 1.1279-8.9748 2.1183 0.72862 0.23297 5.897 0.66793 11.485 0.96655 9.1931 0.49125 30.921 3.7493 38.889 5.8313 6.5224 1.7042 6.7202 1.4836 7.009-7.8148zm-42.428-21.363c1.2047-0.78935 2.8502-2.8188 3.6566-4.5099 1.2303-2.5799 1.2933-3.6518 0.39184-6.6607-2.4265-8.099-13.156-10.378-19.096-4.0553-2.8732 3.0584-3.0773 9.9877-0.38317 13.007 3.9736 4.4537 10.572 5.4023 15.431 2.2186zm35.878 0.95708c3.3835-1.4137 6.7321-6.0478 6.7374-9.3239 0.009-5.5877-5.2419-10.38-11.373-10.38-11.863 0-15.179 14.968-4.3737 19.738 3.5103 1.5495 5.2358 1.543 9.0092-0.03357zm-29.71-23.774c0-1.6816-1.8715-3.2291-9.7053-8.0253-9.0996-5.5712-9.7999-5.8474-11.221-4.4258-1.4215 1.4215-1.4056 1.6244 0.25529 3.2501 2.9224 2.8605 17.869 11.771 19.321 11.519 0.7437-0.1291 1.35-1.17 1.35-2.3176zm23.844-2.8822c10.329-6.3475 11.514-7.4729 9.9064-9.4099-0.61622-0.7425-1.4874-1.35-1.9359-1.35-1.2733 0-18.181 10.769-19.424 12.371-1.1531 1.4871-0.0887 3.8288 1.7405 3.8288 0.47317 0 4.844-2.448 9.7129-5.4401zm-43.19-32.731c0-1.8227-9.0219-12.371-10.235-11.967-1.9804 0.66012-0.96269 3.4444 3.0349 8.3034 3.8624 4.6946 7.2 6.3929 7.2 3.6636z" fill="#fa5b53"/>
   <path id="path4386" d="m-264.86 118.36c-11.562-2.5149-25.761-10.998-32.986-19.709-7.8577-9.4731-12.482-20.082-14.229-32.644-1.5015-10.795 0.30063-20.858 6.4405-35.959 1.1196-2.7538 1.024-2.9384-5.3116-10.258-3.5485-4.0996-6.4518-8.1638-6.4518-9.0315 0-0.86771 2.6325-3.7135 5.85-6.324s5.85-5.2993 5.85-5.9751c0-1.5645-3.3777-8.3156-5.1944-10.382-0.82308-0.93624-2.6621-1.575-4.5345-1.575-2.4922 0-3.8491 0.73503-6.4988 3.5205-7.1409 7.5067-8.1142 19.602-3.5668 44.322 3.6243 19.702 4.1291 27.397 2.3521 35.857-3.7574 17.888-15.234 28.848-23.445 22.389-2.4-1.879-11.32-18.607-11.32-21.208 0-3.1398 2.5312-0.09968 6.3 7.5668 4.8588 9.8836 6.6118 11.953 10.126 11.953 7.1641 0 14.013-10.468 15.995-24.448 1.0286-7.2529 0.24276-15.519-3.152-33.152-4.2942-22.305-3.896-32.315 1.6539-41.573 3.7453-6.248 7.9929-9.13 12.572-8.5303 4.2306 0.5541 6.4538 2.4802 9.2676 8.0287 1.1923 2.3512 2.6673 4.2745 3.2777 4.2739 0.6104-0.0006057 4.0822-2.4306 7.7152-5.4 3.6329-2.9694 6.9746-5.3989 7.4259-5.3989 0.45133 0 2.7439 2.5093 5.0947 5.5762 2.3507 3.0669 5.3306 6.7863 6.6218 8.2653l2.3478 2.689 8.7375-1.6447c21.224-3.995 39.782 1.7305 55.054 16.985 11.95 11.93 17.47 25.323 17.47 42.379 0 10.937-1.4813 17.255-6.4352 27.45-5.257 10.818-16.162 21.674-26.946 26.823-12.927 6.1724-27.013 7.9771-40.081 5.1348zm41.771-36.248c0.21303-6.8609 0.0118-8.435-1.1344-8.8749-0.76635-0.29408-5.9454 0.72296-11.509 2.2601-12.495 3.4521-25.704 5.4884-35.766 5.5135-7.3711 0.01836-12.072 1.1279-8.9748 2.1183 0.72862 0.23297 5.897 0.66793 11.485 0.96655 9.1931 0.49125 30.921 3.7493 38.889 5.8313 6.5224 1.7042 6.7202 1.4836 7.009-7.8148zm-42.428-21.363c1.2047-0.78935 2.8502-2.8188 3.6566-4.5099 1.2303-2.5799 1.2933-3.6518 0.39184-6.6607-2.4265-8.099-13.156-10.378-19.096-4.0553-2.8732 3.0584-3.0773 9.9877-0.38317 13.007 3.9736 4.4537 10.572 5.4023 15.431 2.2186zm35.878 0.95708c3.3835-1.4137 6.7321-6.0478 6.7374-9.3239 0.009-5.5877-5.2419-10.38-11.373-10.38-11.863 0-15.179 14.968-4.3737 19.738 3.5103 1.5495 5.2358 1.543 9.0092-0.03357zm-29.71-23.764c0-1.6816-1.8715-3.2291-9.7053-8.0253-9.0996-5.5712-9.7999-5.8474-11.221-4.4258-1.4215 1.4215-1.4056 1.6244 0.25529 3.2501 2.9224 2.8605 17.869 11.771 19.321 11.519 0.7437-0.1291 1.35-1.17 1.35-2.3176zm23.844-2.8822c10.329-6.3475 11.514-7.4729 9.9064-9.4099-0.61622-0.7425-1.4874-1.35-1.9359-1.35-1.2733 0-18.181 10.769-19.424 12.371-1.1531 1.4871-0.0887 3.8288 1.7405 3.8288 0.47317 0 4.844-2.448 9.7129-5.4401zm-43.19-32.731c0-1.8227-9.0219-12.371-10.235-11.967-1.9804 0.66012-0.96269 3.4444 3.0349 8.3034 3.8624 4.6946 7.2 6.3929 7.2 3.6636z" fill="#2d2d2d"/>
  </g>
 </g>
</svg>
