<?xml version="1.0" encoding="UTF-8" standalone="no"?>
<!-- Created with Inkscape (http://www.inkscape.org/) -->

<svg
   xmlns:dc="http://purl.org/dc/elements/1.1/"
   xmlns:cc="http://creativecommons.org/ns#"
   xmlns:rdf="http://www.w3.org/1999/02/22-rdf-syntax-ns#"
   xmlns:svg="http://www.w3.org/2000/svg"
   xmlns="http://www.w3.org/2000/svg"
   xmlns:xlink="http://www.w3.org/1999/xlink"
   xmlns:sodipodi="http://sodipodi.sourceforge.net/DTD/sodipodi-0.dtd"
   xmlns:inkscape="http://www.inkscape.org/namespaces/inkscape"
   version="1.1"
   width="48"
   height="48"
   id="svg4061"
   inkscape:version="0.91 r"
   sodipodi:docname="15_2.svg">
  <sodipodi:namedview
     pagecolor="#ffffff"
     bordercolor="#666666"
     borderopacity="1"
     objecttolerance="10"
     gridtolerance="10"
     guidetolerance="10"
     inkscape:pageopacity="0"
     inkscape:pageshadow="2"
     inkscape:window-width="1600"
     inkscape:window-height="845"
     id="namedview35"
     showgrid="false"
     inkscape:zoom="1"
     inkscape:cx="21.894763"
     inkscape:cy="24"
     inkscape:window-x="0"
     inkscape:window-y="30"
     inkscape:window-maximized="1"
     inkscape:current-layer="svg4061" />
  <defs
     id="defs4063">
    <linearGradient
       id="linearGradient4168">
      <stop
         offset="0"
         style="stop-color:#ffcbcb;stop-opacity:1"
         id="stop4170" />
      <stop
         offset="0.26238"
         style="stop-color:#fd7676;stop-opacity:1"
         id="stop4172" />
      <stop
         offset="0.66093999"
         style="stop-color:#f94040;stop-opacity:1"
         id="stop4174" />
      <stop
         offset="1"
         style="stop-color:#e42020;stop-opacity:1"
         id="stop4176" />
    </linearGradient>
    <linearGradient
       x1="71.204407"
       y1="15.369057"
       x2="71.204407"
       y2="40.495617"
       id="linearGradient3177"
       xlink:href="#linearGradient4806-2"
       gradientUnits="userSpaceOnUse"
       gradientTransform="matrix(1.6169806,0,0,1.6169806,-92.707374,-21.060237)" />
    <linearGradient
       id="linearGradient4806-2">
      <stop
         id="stop4808-4"
         style="stop-color:#ffffff;stop-opacity:1"
         offset="0" />
      <stop
         id="stop4810-0"
         style="stop-color:#ffffff;stop-opacity:0.23529412"
         offset="0.42447853" />
      <stop
         id="stop4812-8"
         style="stop-color:#ffffff;stop-opacity:0.15686275"
         offset="0.82089913" />
      <stop
         id="stop4814-0"
         style="stop-color:#ffffff;stop-opacity:0.39215687"
         offset="1" />
    </linearGradient>
    <radialGradient
       cx="15.026252"
       cy="8.6257601"
       r="19.99999"
       fx="4.4589653"
       fy="8.5088921"
       id="radialGradient4013"
       xlink:href="#linearGradient3846"
       gradientUnits="userSpaceOnUse"
       gradientTransform="matrix(-3.4973212e-8,1.8854921,-1.7764068,-5.4722636e-8,39.140041,-7.993163)" />
    <linearGradient
       id="linearGradient3846">
      <stop
         id="stop3848"
         style="stop-color:#d1ffcb;stop-opacity:1;"
         offset="0" />
      <stop
         id="stop3850"
         style="stop-color:#ccfd76;stop-opacity:1;"
         offset="0.26238" />
      <stop
         id="stop3852"
         style="stop-color:#a5f940;stop-opacity:1;"
         offset="0.66093999" />
      <stop
         id="stop3854"
         style="stop-color:#6de420;stop-opacity:1;"
         offset="1" />
    </linearGradient>
    <radialGradient
       cx="23.896"
       cy="3.99"
       r="20.396999"
       fx="23.896"
       fy="3.99"
       id="radialGradient4201"
       xlink:href="#radialGradient3093-0-3-6-6"
       gradientUnits="userSpaceOnUse"
       gradientTransform="matrix(0,2.8885219,-3.8127977,0,39.21344,-65.949504)" />
    <radialGradient
       cx="23.896"
       cy="3.99"
       r="20.396999"
       id="radialGradient3093-0-3-6-6"
       gradientUnits="userSpaceOnUse"
       gradientTransform="matrix(0,1.2316483,-1.625754,0,18.486966,-28.721977)">
      <stop
         id="stop3244-9-33-7-0-9"
         style="stop-color:#ffffff;stop-opacity:1"
         offset="0" />
      <stop
         id="stop3246-3-5-0-8-5"
         style="stop-color:#dddddd;stop-opacity:1"
         offset="0.26238" />
      <stop
         id="stop3248-1-7-8-8-1"
         style="stop-color:#abacae;stop-opacity:1"
         offset="0.66093999" />
      <stop
         id="stop3250-9-3-0-5-1"
         style="stop-color:#89898b;stop-opacity:1"
         offset="1" />
    </radialGradient>
    <linearGradient
       id="linearGradient3820-7-2-1">
      <stop
         id="stop3822-2-6-3"
         style="stop-color:#3d3d3d;stop-opacity:1"
         offset="0" />
      <stop
         id="stop3864-8-7-7"
         style="stop-color:#686868;stop-opacity:0.49803922"
         offset="0.5" />
      <stop
         id="stop3824-1-2-5"
         style="stop-color:#686868;stop-opacity:0"
         offset="1" />
    </linearGradient>
    <radialGradient
       cx="99.157013"
       cy="186.17059"
       r="62.769119"
       fx="99.157013"
       fy="186.17059"
       id="radialGradient4059"
       xlink:href="#linearGradient3820-7-2-1"
       gradientUnits="userSpaceOnUse"
       gradientTransform="matrix(0.27083381,0,0,0.08762273,-2.85507,25.187228)" />
    <linearGradient
       inkscape:collect="always"
       xlink:href="#linearGradient4806-2"
       id="linearGradient3026"
       gradientUnits="userSpaceOnUse"
       gradientTransform="matrix(1.6169806,0,0,1.6169806,-92.707374,-21.060237)"
       x1="71.204407"
       y1="15.369057"
       x2="71.204407"
       y2="40.495617" />
    <radialGradient
       inkscape:collect="always"
       xlink:href="#linearGradient4168"
       id="radialGradient3029"
       gradientUnits="userSpaceOnUse"
       gradientTransform="matrix(-3.4973212e-8,1.8854921,-1.7764068,-5.4722636e-8,39.140041,-7.993163)"
       cx="15.026252"
       cy="8.6257601"
       fx="4.4589653"
       fy="8.5088921"
       r="19.99999" />
    <radialGradient
       inkscape:collect="always"
       xlink:href="#radialGradient3093-0-3-6-6"
       id="radialGradient3032"
       gradientUnits="userSpaceOnUse"
       gradientTransform="matrix(0,2.8885219,-3.8127977,0,39.21344,-65.949504)"
       cx="23.896"
       cy="3.99"
       fx="23.896"
       fy="3.99"
       r="20.396999" />
    <radialGradient
       inkscape:collect="always"
       xlink:href="#linearGradient3820-7-2-1"
       id="radialGradient3035"
       gradientUnits="userSpaceOnUse"
       gradientTransform="matrix(0.27083381,0,0,0.08762273,-2.85507,25.187228)"
       cx="99.157013"
       cy="186.17059"
       fx="99.157013"
       fy="186.17059"
       r="62.769119" />
  </defs>
  <metadata
     id="metadata4066">
    <rdf:RDF>
      <cc:Work
         rdf:about="">
        <dc:format>image/svg+xml</dc:format>
        <dc:type
           rdf:resource="http://purl.org/dc/dcmitype/StillImage" />
        <dc:title></dc:title>
      </cc:Work>
    </rdf:RDF>
  </metadata>
  <path
     style="fill:url(#radialGradient3035);fill-opacity:1;stroke:none"
     id="path3818-0-5"
     inkscape:connector-curvature="0"
     d="m 41,41.5 a 17,5.4999999 0 0 1 -34,0 17,5.4999999 0 1 1 34,0 z" />
  <path
     style="color:#000000;fill:url(#radialGradient3032);fill-opacity:1;fill-rule:nonzero;stroke:none;stroke-width:0.99999994;marker:none;visibility:visible;display:inline;overflow:visible;enable-background:accumulate"
     id="path2555-7-2"
     inkscape:connector-curvature="0"
     d="M 24,3.5000009 C 12.68881,3.5000009 3.5,12.688807 3.5,24 3.5,35.311193 12.68881,44.500003 24,44.5 35.31119,44.5 44.50001,35.311193 44.5,24 44.5,12.688807 35.31119,3.5000009 24,3.5000009 z" />
  <path
     style="color:#000000;fill:url(#radialGradient3029);fill-opacity:1;fill-rule:nonzero;stroke:none;stroke-width:1;marker:none;visibility:visible;display:inline;overflow:visible;enable-background:accumulate"
     id="path2555-7-65"
     inkscape:connector-curvature="0"
     d="M 24,3.5000003 C 12.688809,3.5000003 3.5000005,12.688809 3.5000005,24 3.5000005,35.311193 12.688809,44.500004 24,44.500001 35.311191,44.500001 44.500008,35.311193 44.500001,24 44.500001,12.688809 35.311191,3.5000004 24,3.5000004 z" />
  <path
     style="opacity:0.8;color:#000000;fill:none;stroke:url(#linearGradient3026);stroke-width:1;stroke-linecap:round;stroke-linejoin:round;stroke-miterlimit:4;stroke-opacity:1;stroke-dasharray:none;stroke-dashoffset:0;marker:none;visibility:visible;display:inline;overflow:visible;enable-background:accumulate"
     id="path4176"
     inkscape:connector-curvature="0"
     d="M 43.5,24.000001 C 43.5,34.76955 34.76954,43.5 23.99999,43.5 13.23045,43.5 4.5,34.76955 4.5,24.000001 4.5,13.23045 13.23045,4.5000019 23.99999,4.5000019 34.76954,4.5000019 43.5,13.23045 43.5,24.000001 z" />
  <path
     style="opacity:0.5;color:#000000;fill:none;stroke:#980000;stroke-width:0.99999988;stroke-linecap:round;stroke-linejoin:round;stroke-miterlimit:4;stroke-opacity:1;stroke-dasharray:none;stroke-dashoffset:0;marker:none;visibility:visible;display:inline;overflow:visible;enable-background:accumulate"
     id="path2555-7-1-7"
     inkscape:connector-curvature="0"
     d="m 24,3.500115 c -11.31113,0 -20.499885,9.188754 -20.499885,20.499884 0,11.311131 9.188755,20.499891 20.499885,20.499887 11.31113,0 20.4999,-9.188756 20.499886,-20.499887 C 44.499886,12.688869 35.31113,3.5001149 24,3.5001149 z" />
  <g
     style="fill:none;fill-opacity:1;stroke:#000000;stroke-opacity:1;stroke-width:3.52904268;stroke-miterlimit:4;stroke-dasharray:none;opacity:0.15"
     transform="matrix(0.27961204,0,0,0.28716421,24.071403,-53.99335)"
     id="g4206">
    <path
       style="fill:none;fill-opacity:1;fill-rule:nonzero;stroke:#000000;stroke-opacity:1;stroke-width:3.52904268;stroke-miterlimit:4;stroke-dasharray:none"
       id="path4208"
       d="m 24.38026,258.59606 c 0.0775,-1.275 -0.115,-2.17 -0.82,-2.74 -0.62125,-0.57625 -1.75125,-0.8325 -3.5425,-0.8325 l -3.08125,0 -1.8675,7.141 c 3.6025,-1.01975 7.44875,-1.33975 11.0375,-1.33975 5.55625,0 12.12875,1.02 15.02375,4.33737 3.2375,3.63138 2.215,9.18013 1.01375,13.769 -1.3875,5.29013 -3.0575,11.34863 -9.34125,15.42875 -6.17875,4.01363 -14.67,5.09713 -21.8525,5.09713 -10.43,0 -18.89,-1.65625 -26.13375,-6.3085 l 4.03625,-15.42875 22.14625,0 -1.60375,6.12012 c -0.06625,0.25338 -1.155,3.76125 2.94875,3.76125 5.04375,0 5.65375,-3.63387 6.77,-7.90387 0.9525,-3.63525 2.41,-7.90863 -2.375,-7.90863 -4.1075,0 -4.72,2.36375 -4.8075,2.36375 l -22.14375,0 7.95625,-30.41262 52.07,0 -3.88625,14.85625 -21.5475,0"
       inkscape:connector-curvature="0" />
    <path
       style="fill:none;fill-opacity:1;fill-rule:nonzero;stroke:#000000;stroke-opacity:1;stroke-width:3.52904268;stroke-miterlimit:4;stroke-dasharray:none"
       id="path4210"
       d="m -21.08099,283.32968 c -0.5325,2.0415 -1.32375,4.08 1.07875,5.35638 l -2.53625,9.6875 -27.78625,0 2.53375,-9.6875 c 3.07125,-1.27638 3.3475,-3.31488 3.88,-5.35638 l 6.42625,-24.54362 c 0.53375,-2.04125 1.325,-4.08 -1.0775,-5.35625 l 2.5375,-9.69 25.305,0 -10.36125,39.58988"
       inkscape:connector-curvature="0" />
  </g>
  <g
     id="g4212"
     transform="matrix(0.27961204,0,0,0.28716421,24.071403,-53.99335)"
     style="fill:none;fill-opacity:1;stroke:#000000;stroke-opacity:1;stroke-width:1.76452134;stroke-miterlimit:4;stroke-dasharray:none;opacity:0.15">
    <path
       inkscape:connector-curvature="0"
       d="m 24.38026,258.59606 c 0.0775,-1.275 -0.115,-2.17 -0.82,-2.74 -0.62125,-0.57625 -1.75125,-0.8325 -3.5425,-0.8325 l -3.08125,0 -1.8675,7.141 c 3.6025,-1.01975 7.44875,-1.33975 11.0375,-1.33975 5.55625,0 12.12875,1.02 15.02375,4.33737 3.2375,3.63138 2.215,9.18013 1.01375,13.769 -1.3875,5.29013 -3.0575,11.34863 -9.34125,15.42875 -6.17875,4.01363 -14.67,5.09713 -21.8525,5.09713 -10.43,0 -18.89,-1.65625 -26.13375,-6.3085 l 4.03625,-15.42875 22.14625,0 -1.60375,6.12012 c -0.06625,0.25338 -1.155,3.76125 2.94875,3.76125 5.04375,0 5.65375,-3.63387 6.77,-7.90387 0.9525,-3.63525 2.41,-7.90863 -2.375,-7.90863 -4.1075,0 -4.72,2.36375 -4.8075,2.36375 l -22.14375,0 7.95625,-30.41262 52.07,0 -3.88625,14.85625 -21.5475,0"
       id="path4214"
       style="fill:none;fill-opacity:1;fill-rule:nonzero;stroke:#000000;stroke-opacity:1;stroke-width:1.76452134;stroke-miterlimit:4;stroke-dasharray:none" />
    <path
       inkscape:connector-curvature="0"
       d="m -21.08099,283.32968 c -0.5325,2.0415 -1.32375,4.08 1.07875,5.35638 l -2.53625,9.6875 -27.78625,0 2.53375,-9.6875 c 3.07125,-1.27638 3.3475,-3.31488 3.88,-5.35638 l 6.42625,-24.54362 c 0.53375,-2.04125 1.325,-4.08 -1.0775,-5.35625 l 2.5375,-9.69 25.305,0 -10.36125,39.58988"
       id="path4216"
       style="fill:none;fill-opacity:1;fill-rule:nonzero;stroke:#000000;stroke-opacity:1;stroke-width:1.76452134;stroke-miterlimit:4;stroke-dasharray:none" />
  </g>
  <g
     id="g4415"
     transform="matrix(0.27961204,0,0,0.28716421,24.071403,-53.99335)"
     style="fill:#ffffff;fill-opacity:1">
    <path
       inkscape:connector-curvature="0"
       d="m 24.38026,258.59606 c 0.0775,-1.275 -0.115,-2.17 -0.82,-2.74 -0.62125,-0.57625 -1.75125,-0.8325 -3.5425,-0.8325 l -3.08125,0 -1.8675,7.141 c 3.6025,-1.01975 7.44875,-1.33975 11.0375,-1.33975 5.55625,0 12.12875,1.02 15.02375,4.33737 3.2375,3.63138 2.215,9.18013 1.01375,13.769 -1.3875,5.29013 -3.0575,11.34863 -9.34125,15.42875 -6.17875,4.01363 -14.67,5.09713 -21.8525,5.09713 -10.43,0 -18.89,-1.65625 -26.13375,-6.3085 l 4.03625,-15.42875 22.14625,0 -1.60375,6.12012 c -0.06625,0.25338 -1.155,3.76125 2.94875,3.76125 5.04375,0 5.65375,-3.63387 6.77,-7.90387 0.9525,-3.63525 2.41,-7.90863 -2.375,-7.90863 -4.1075,0 -4.72,2.36375 -4.8075,2.36375 l -22.14375,0 7.95625,-30.41262 52.07,0 -3.88625,14.85625 -21.5475,0"
       id="path82"
       style="fill:#ffffff;fill-opacity:1;fill-rule:nonzero;stroke:none" />
    <path
       inkscape:connector-curvature="0"
       d="m -21.08099,283.32968 c -0.5325,2.0415 -1.32375,4.08 1.07875,5.35638 l -2.53625,9.6875 -27.78625,0 2.53375,-9.6875 c 3.07125,-1.27638 3.3475,-3.31488 3.88,-5.35638 l 6.42625,-24.54362 c 0.53375,-2.04125 1.325,-4.08 -1.0775,-5.35625 l 2.5375,-9.69 25.305,0 -10.36125,39.58988"
       id="path78"
       style="fill:#ffffff;fill-opacity:1;fill-rule:nonzero;stroke:none" />
  </g>
</svg>
