<?xml version="1.0" encoding="UTF-8" standalone="no"?>
<!-- Created with Inkscape (http://www.inkscape.org/) -->
<svg id="svg4951" xmlns:rdf="http://www.w3.org/1999/02/22-rdf-syntax-ns#" xmlns="http://www.w3.org/2000/svg" height="48" width="48" version="1.1" xmlns:cc="http://creativecommons.org/ns#" xmlns:xlink="http://www.w3.org/1999/xlink" xmlns:dc="http://purl.org/dc/elements/1.1/">
 <defs id="defs4953">
  <radialGradient id="radialGradient3302" gradientUnits="userSpaceOnUse" cy="186.17" cx="99.157" gradientTransform="matrix(.27083 0 0 .087623 -2.8551 25.187)" r="62.769">
   <stop id="stop3822-2-6-3" stop-color="#3d3d3d" offset="0"/>
   <stop id="stop3864-8-7-7" stop-color="#686868" stop-opacity=".49804" offset=".5"/>
   <stop id="stop3824-1-2-5" stop-color="#686868" stop-opacity="0" offset="1"/>
  </radialGradient>
  <radialGradient id="radialGradient4147" gradientUnits="userSpaceOnUse" cy="3.99" cx="23.896" gradientTransform="matrix(0 2.8885 -3.8128 0 39.213 -65.95)" r="20.397">
   <stop id="stop3750-1-0-7-6-6-1-3-9-3" stop-color="#5f5f5f" offset="0"/>
   <stop id="stop3752-3-7-4-0-32-8-923-0-7" stop-color="#515151" offset=".26238"/>
   <stop id="stop3754-1-8-5-2-7-6-7-1-9" stop-color="#404040" offset=".70495"/>
   <stop id="stop3756-1-6-2-6-6-1-96-6-0" stop-color="#343434" offset="1"/>
  </radialGradient>
  <linearGradient id="linearGradient4149" y2="40.496" gradientUnits="userSpaceOnUse" x2="71.204" gradientTransform="matrix(1.617 0 0 1.617 -92.707 -21.06)" y1="15.369" x1="71.204">
   <stop id="stop4808-4-8" stop-color="#fff" offset="0"/>
   <stop id="stop4810-0-9" stop-color="#fff" stop-opacity=".23529" offset=".42448"/>
   <stop id="stop4812-8-9" stop-color="#fff" stop-opacity=".15686" offset=".82090"/>
   <stop id="stop4814-0-6" stop-color="#fff" stop-opacity=".39216" offset="1"/>
  </linearGradient>
 </defs>
 <metadata id="metadata4956">
  <rdf:RDF>
   <cc:Work rdf:about="">
    <dc:format>image/svg+xml</dc:format>
    <dc:type rdf:resource="http://purl.org/dc/dcmitype/StillImage"/>
    <dc:title/>
   </cc:Work>
  </rdf:RDF>
 </metadata>
 <path id="path3818-0-5" d="m41 41.5a17 5.5 0 0 1 -34 0 17 5.5 0 1 1 34 0z" fill="url(#radialGradient3302)"/>
 <path id="path2555-7-2" style="color:#000000" d="m24 3.5c-11.311 0-20.5 9.189-20.5 20.5s9.189 20.5 20.5 20.5 20.5-9.189 20.5-20.5-9.189-20.5-20.5-20.5z" fill="url(#radialGradient4147)"/>
 <path id="path4582" style="color:#000000" d="m27.594 13.467c-3.484 0-6.321 2.836-6.321 6.32 0 0.027 0.002 0.055 0.002 0.082l-4.074 5.904c-0.658-0.027-1.319 0.086-1.947 0.346-0.275 0.113-0.534 0.251-0.777 0.41l-10.881-4.498c-0.0623 0.649-0.096 1.305-0.096 1.969 0 1.303 0.1263 2.577 0.3594 3.812l8.6486 3.577c0.317 1.413 1.292 2.656 2.728 3.256 2.349 0.978 5.056-0.135 6.034-2.485 0.255-0.609 0.371-1.254 0.353-1.894l5.83-4.161c0.048 0.003 0.093 0.004 0.141 0.004 3.486 0 6.32-2.837 6.32-6.322s-2.834-6.32-6.32-6.32zm0 2.109c2.323 0 4.211 1.889 4.211 4.211 0 2.323-1.888 4.211-4.211 4.211-2.321 0-4.211-1.888-4.211-4.211 0-2.322 1.89-4.211 4.211-4.211zm0.008 1.041c-1.747 0-3.163 1.416-3.163 3.162 0 1.748 1.416 3.164 3.163 3.164 1.748 0 3.164-1.416 3.164-3.164 0-1.746-1.416-3.162-3.164-3.162zm-10.553 10.211c0.444 0.003 0.896 0.09 1.332 0.272 0.878 0.366 1.561 1.049 1.924 1.929 0.36 0.879 0.359 1.849-0.008 2.725-0.754 1.813-2.843 2.673-4.654 1.918-0.837-0.349-1.468-0.985-1.834-1.746l2.058 0.851c0.329 0.138 0.672 0.203 1.008 0.203 1.026 0 2-0.605 2.42-1.613 0.557-1.335-0.076-2.87-1.412-3.426l-2.127-0.882c0.41-0.154 0.848-0.234 1.293-0.231z" fill="#ccc"/>
 <path id="path3871" opacity=".6" style="color:#000000" d="m24 3.5c-11.311 0-20.5 9.189-20.5 20.5s9.189 20.5 20.5 20.5 20.5-9.189 20.5-20.5-9.189-20.5-20.5-20.5z" stroke="#242424" fill="none"/>
 <path id="path4176" opacity=".3" stroke-linejoin="round" style="color:#000000" d="m43.5 24c0 10.77-8.7305 19.5-19.5 19.5s-19.5-8.7304-19.5-19.5 8.7305-19.5 19.5-19.5 19.5 8.7304 19.5 19.5z" stroke="url(#linearGradient4149)" stroke-linecap="round" fill="none"/>
</svg>
