<?xml version="1.0" encoding="UTF-8" standalone="no"?>
<!-- Created with Inkscape (http://www.inkscape.org/) -->
<svg id="svg3578" xmlns:rdf="http://www.w3.org/1999/02/22-rdf-syntax-ns#" xmlns="http://www.w3.org/2000/svg" height="48" width="48" version="1.0" xmlns:cc="http://creativecommons.org/ns#" xmlns:xlink="http://www.w3.org/1999/xlink" xmlns:dc="http://purl.org/dc/elements/1.1/">
 <metadata id="metadata43">
  <rdf:RDF>
   <cc:Work rdf:about="">
    <dc:format>image/svg+xml</dc:format>
    <dc:type rdf:resource="http://purl.org/dc/dcmitype/StillImage"/>
    <dc:title/>
   </cc:Work>
  </rdf:RDF>
 </metadata>
 <defs id="defs3580">
  <linearGradient id="linearGradient2877-634-617" y2="39.999" gradientUnits="userSpaceOnUse" x2="25.058" y1="47.028" x1="25.058">
   <stop id="stop2895" stop-color="#181818" stop-opacity="0" offset="0"/>
   <stop id="stop2897" stop-color="#181818" offset=".5"/>
   <stop id="stop2899" stop-color="#181818" stop-opacity="0" offset="1"/>
  </linearGradient>
  <radialGradient id="radialGradient2875-742-326" gradientUnits="userSpaceOnUse" cy="43.5" cx="4.993" gradientTransform="matrix(2.0038,0,0,1.4,-20.012,-104.4)" r="2.5">
   <stop id="stop2889" stop-color="#181818" offset="0"/>
   <stop id="stop2891" stop-color="#181818" stop-opacity="0" offset="1"/>
  </radialGradient>
  <radialGradient id="radialGradient2873-966-168" gradientUnits="userSpaceOnUse" cy="43.5" cx="4.993" gradientTransform="matrix(2.0038,0,0,1.4,27.988,-17.4)" r="2.5">
   <stop id="stop2883" stop-color="#181818" offset="0"/>
   <stop id="stop2885" stop-color="#181818" stop-opacity="0" offset="1"/>
  </radialGradient>
  <linearGradient id="linearGradient3003" y2="43" gradientUnits="userSpaceOnUse" x2="24" gradientTransform="translate(0,1)" y1="5" x1="24">
   <stop id="stop2919" stop-color="#fff" offset="0"/>
   <stop id="stop2921" stop-color="#fff" stop-opacity="0" offset="1"/>
  </linearGradient>
  <radialGradient id="radialGradient4629" gradientUnits="userSpaceOnUse" cy="8.4498" cx="7.4957" gradientTransform="matrix(-5.554e-6,1.8475,-3.0782,-9.3318e-6,50.01,-7.7655999)" r="20">
   <stop id="stop3892" stop-color="#dac197" offset="0"/>
   <stop id="stop3894" stop-color="#c1a581" offset=".82028"/>
   <stop id="stop3898" stop-color="#a68b60" offset="1"/>
  </radialGradient>
  <linearGradient id="linearGradient4631" y2="43.033" gradientUnits="userSpaceOnUse" x2="6" gradientTransform="translate(0 1)" y1="4.0326" x1="7">
   <stop id="stop3882" stop-color="#c3a67d" offset="0"/>
   <stop id="stop3884" stop-color="#a17d4f" offset="0.775"/>
   <stop id="stop3888" stop-color="#836845" offset="1"/>
  </linearGradient>
 </defs>
 <g id="g2036" transform="matrix(1.1 0 0 .44444 -2.4 25.111)">
  <g id="g3712" opacity=".4" transform="matrix(1.0526,0,0,1.2857,-1.2632,-13.429)">
   <rect id="rect2801" height="7" width="5" y="40" x="38" fill="url(#radialGradient2873-966-168)"/>
   <rect id="rect3696" transform="scale(-1)" height="7" width="5" y="-47" x="-10" fill="url(#radialGradient2875-742-326)"/>
   <rect id="rect3700" height="7" width="28" y="40" x="10" fill="url(#linearGradient2877-634-617)"/>
  </g>
 </g>
 <rect id="rect4627" stroke-linejoin="round" rx="2.2322" ry="2.2322" height="39" width="39" stroke="url(#linearGradient4631)" stroke-linecap="round" y="5.5" x="4.5" fill="url(#radialGradient4629)"/>
 <rect id="rect6741" opacity=".4" stroke-linejoin="round" rx="1.3652" ry="1.3652" height="37" width="37" stroke="url(#linearGradient3003)" stroke-linecap="round" y="6.5" x="5.5" fill="none"/>
 <path id="rect4691" opacity=".2" d="m20.126 33h-7.0103l0.000006 5h7.0103zm7.9815-24.94h-8.0186l-0.006 5h8.0186zm13.953-0.11954h-7l-0.006 5h7zm-7.006 5.0131h-6.9532l-0.000539 5.0467h6.9532zm-22.068-5.0138h-6.9812l-0.0058 4.9988h6.9812zm29.067 5.0131-0.000538 5.0467zm0 5.047h-7v5h7zm-7 5h-6.9532v5h6.9532zm-6.9532-5h-8.0186v5h8.0186zm-8.0181-5.0467h-7.0103l-0.001 5.047h7.01zm-7.011 5.047h-6.9813v5h6.9813zm7.0103 5h-7.0103v5h7.0103zm-7.0103 5h-6.9813v5h6.9813zm28.982-5v5zm0.000002 5h-7v5h7zm-0.000002 5 0.000006 5zm0.000008 5h-7l-0.018 5h7zm-7-5h-6.9532l0.000007 5h6.9532zm-6.953-5h-8.0186v5h8.0186zm-0.09354 10h-8.0186l-0.017 5h8.0186zm-14.935 0h-6.9813l-0.0182 5h6.9813z" fill-rule="evenodd" fill="#1f1911"/>
 <path id="rect5505" d="m6.7324 5.4668c-1.2366 0-2.2324 0.9958-2.2324 2.2324v20.537l5.0391 2.9102c0.64973 0.37512 1.4944 0.12127 1.8926-0.56836l12.99-22.5c0.398-0.6895 0.196-1.5466-0.453-1.9218l-1.1934-0.68945h-16.043z" fill="#fff"/>
 <g id="g4242" transform="matrix(0.0098 .0056580 -0.00615 .010652 8.2495 10.119)" fill="#ff3939">
  <g id="g4201" fill="#ff3939">
   <g id="favorite" fill="#ff3939">
    <path id="path4204" fill="#ff3939" d="m255 489.6-35.7-35.7c-132.6-117.3-219.3-196.35-219.3-293.25 0-79.05 61.2-140.25 140.25-140.25 43.35 0 86.7 20.4 114.75 53.55 28.05-33.15 71.4-53.55 114.75-53.55 79.05 0 140.25 61.2 140.25 140.25 0 96.9-86.7 175.95-219.3 293.25l-35.7 35.7z"/>
   </g>
  </g>
 </g>
 <g id="text4329" fill="#ff3939" transform="matrix(-.90473 -.52234 .47861 -.82898 0 0)">
  <path id="path4291" style="" d="m-21.349-21.286-0.55324 1.5002h1.1085l-0.55526-1.5002zm-0.23018-0.4018h0.46238l1.1489 3.0145h-0.42402l-0.2746-0.77332h-1.3589l-0.2746 0.77332h-0.43007l1.1509-3.0145z"/>
 </g>
 <g id="g4333" transform="matrix(-0.0049 -.002829 .0030750 -.0053261 11.565 27.462)" fill="#ff3939">
  <g id="g4335" fill="#ff3939">
   <g id="g4337" fill="#ff3939">
    <path id="path4339" fill="#ff3939" d="m255 489.6-35.7-35.7c-132.6-117.3-219.3-196.35-219.3-293.25 0-79.05 61.2-140.25 140.25-140.25 43.35 0 86.7 20.4 114.75 53.55 28.05-33.15 71.4-53.55 114.75-53.55 79.05 0 140.25 61.2 140.25 140.25 0 96.9-86.7 175.95-219.3 293.25l-35.7 35.7z"/>
   </g>
  </g>
 </g>
 <g id="g4332" transform="translate(5,-3)">
  <circle id="circle4334" cy="24" cx="21" r="8" fill="#ffb91c"/>
  <path id="path4336" d="m21 16a8 8 0 0 0 -2 0.25977v1.0391a7 7 0 0 1 2 -0.299 7 7 0 0 1 2 0.29492v-1.0293a8 8 0 0 0 -2 -0.266zm4.4902 1.3809-0.72656 0.72656a7 7 0 0 1 2.6172 3.0391l0.75586-0.75586a8 8 0 0 0 -2.6465 -3.0098zm-8.9766 0.0039a8 8 0 0 0 -2.6465 3.0098l0.74805 0.74805a7 7 0 0 1 2.6152 -3.041l-0.7168-0.7168zm-3.3984 5.3145a8 8 0 0 0 -0.115 1.3 8 8 0 0 0 0.47656 2.6992h1.0723a7 7 0 0 1 -0.549 -2.699 7 7 0 0 1 0.125 -1.301h-1.0098zm14.758 0a7 7 0 0 1 0.127 1.3 7 7 0 0 1 -0.543 2.699h1.0625a8 8 0 0 0 0.48 -2.699 8 8 0 0 0 -0.109 -1.301h-1.0176zm-0.98047 5.0645a7 7 0 0 1 -3.0391 2.6172l0.75586 0.75586a8 8 0 0 0 3.0098 -2.6465l-0.72656-0.72656zm-11.791 0.0059-0.7168 0.7168a8 8 0 0 0 3.0098 2.6465l0.748-0.749a7 7 0 0 1 -3.041 -2.615zm7.898 2.931a7 7 0 0 1 -2 0.299 7 7 0 0 1 -2 -0.295v1.0293a8 8 0 0 0 2 0.266 8 8 0 0 0 2 -0.26v-1.0391z" fill="#fff"/>
  <g id="g4338" fill="#fff" transform="matrix(1.1136 0 0 .99774 -5.6667 0)">
   <path id="path4340" d="m19.7 21.152h3.0786v0.65998h-2.3604v1.4209q0.17082-0.05823 0.34164-0.08541 0.17082-0.03106 0.34164-0.03106 0.97056 0 1.5374 0.53187 0.56681 0.53187 0.56681 1.4403 0 0.93562-0.58234 1.4558-0.58234 0.51634-1.6422 0.51634-0.36493 0-0.74539-0.06212-0.37658-0.06212-0.78033-0.18635v-0.7881q0.3494 0.19023 0.7221 0.2834t0.7881 0.09317q0.67163 0 1.0637-0.35328 0.39211-0.35328 0.39211-0.95892 0-0.60563-0.39211-0.95892-0.39211-0.35328-1.0637-0.35328-0.31446 0-0.62892 0.06988-0.31058 0.06988-0.63669 0.21741v-2.9117z"/>
   <path id="path4342" d="m26.432 21.669q-0.60563 0-0.91233 0.59787-0.30282 0.59398-0.30282 1.7897 0 1.1918 0.30282 1.7897 0.3067 0.59398 0.91233 0.59398 0.60951 0 0.91233-0.59398 0.3067-0.59787 0.3067-1.7897 0-1.1957-0.3067-1.7897-0.30282-0.59787-0.91233-0.59787zm0-0.62116q0.97444 0 1.4869 0.77257 0.51634 0.76868 0.51634 2.2362 0 1.4636-0.51634 2.2362-0.51246 0.76869-1.4869 0.76869t-1.4908-0.76869q-0.51246-0.77257-0.51246-2.2362 0-1.4675 0.51246-2.2362 0.51634-0.77257 1.4908-0.77257z"/>
  </g>
 </g>
 <circle id="circle4540" cy="24" cx="21" r="8" fill="#008b19"/>
 <path id="path4528" d="m21 16a8 8 0 0 0 -2 0.25977v1.0391a7 7 0 0 1 2 -0.299 7 7 0 0 1 2 0.29492v-1.0293a8 8 0 0 0 -2 -0.266zm4.4902 1.3809-0.72656 0.72656a7 7 0 0 1 2.6172 3.0391l0.75586-0.75586a8 8 0 0 0 -2.6465 -3.0098zm-8.9766 0.0039a8 8 0 0 0 -2.6465 3.0098l0.74805 0.74805a7 7 0 0 1 2.6152 -3.041l-0.7168-0.7168zm-3.3984 5.3145a8 8 0 0 0 -0.115 1.3 8 8 0 0 0 0.47656 2.6992h1.0723a7 7 0 0 1 -0.549 -2.699 7 7 0 0 1 0.125 -1.301h-1.0098zm14.758 0a7 7 0 0 1 0.127 1.3 7 7 0 0 1 -0.543 2.699h1.0625a8 8 0 0 0 0.48 -2.699 8 8 0 0 0 -0.109 -1.301h-1.0176zm-0.98047 5.0645a7 7 0 0 1 -3.0391 2.6172l0.75586 0.75586a8 8 0 0 0 3.0098 -2.6465l-0.72656-0.72656zm-11.791 0.0059-0.7168 0.7168a8 8 0 0 0 3.0098 2.6465l0.748-0.749a7 7 0 0 1 -3.041 -2.615zm7.898 2.931a7 7 0 0 1 -2 0.299 7 7 0 0 1 -2 -0.295v1.0293a8 8 0 0 0 2 0.266 8 8 0 0 0 2 -0.26v-1.0391z" fill="#fff"/>
 <g id="text4552" fill="#fff" transform="matrix(1.1136 0 0 .99774 -5.6667 0)">
  <path id="path4639" d="m23.77 21c-0.724 0-1.277 0.258-1.661 0.771-0.38 0.512-0.57 1.255-0.57 2.231 0 0.973 0.19 1.717 0.57 2.23 0.384 0.512 0.937 0.768 1.661 0.768 0.723 0 1.275-0.256 1.656-0.768 0.383-0.513 0.574-1.257 0.574-2.23 0-0.976-0.191-1.719-0.574-2.231-0.381-0.513-0.933-0.771-1.656-0.771zm-7.499 0.105v2.905c0.243-0.098 0.479-0.171 0.709-0.217 0.234-0.047 0.468-0.07 0.702-0.07 0.498 0 0.894 0.118 1.185 0.353s0.436 0.554 0.436 0.957-0.145 0.72-0.436 0.955-0.687 0.354-1.185 0.354c-0.309 0-0.601-0.032-0.877-0.094-0.277-0.062-0.546-0.157-0.805-0.283v0.787c0.3 0.083 0.59 0.144 0.869 0.186 0.283 0.041 0.559 0.062 0.83 0.062 0.787 0 1.396-0.172 1.828-0.516 0.433-0.346 0.649-0.828 0.649-1.451 0-0.604-0.21-1.084-0.631-1.437-0.421-0.354-0.99-0.532-1.711-0.532-0.127 0-0.254 0.011-0.381 0.032-0.127 0.018-0.254 0.047-0.381 0.086v-1.418h2.629v-0.659h-3.43zm7.499 0.514c0.452 0 0.79 0.2 1.015 0.598 0.228 0.395 0.342 0.99 0.342 1.785 0 0.793-0.114 1.387-0.342 1.785-0.225 0.395-0.563 0.594-1.015 0.594-0.45 0-0.788-0.199-1.016-0.594-0.225-0.398-0.338-0.992-0.338-1.785 0-0.795 0.113-1.39 0.338-1.785 0.228-0.398 0.566-0.598 1.016-0.598z" transform="matrix(.89796 0 0 1.0023 5.0885 0)"/>
 </g>
 <g id="g4319" transform="matrix(.86603 -0.5 0.5 .86603 -2.2743 27.691)">
  <path id="rect4306" d="m19.806 19h8.3882c0.447 0 0.806 0.407 0.806 0.913v8.1733c0 0.507-0.359 0.914-0.806 0.914h-8.3882c-0.447 0-0.806-0.407-0.806-0.913v-8.1733c0-0.507 0.359-0.914 0.806-0.914z" fill="#2f2f2f"/>
  <path id="path4309" d="m21.5 20a1.5 1.5 0 0 0 -1.5 1.5 1.5 1.5 0 0 0 1.5 1.5 1.5 1.5 0 0 0 1.5 -1.5 1.5 1.5 0 0 0 -1.5 -1.5zm5 0a1.5 1.5 0 0 0 -1.5 1.5 1.5 1.5 0 0 0 1.5 1.5 1.5 1.5 0 0 0 1.5 -1.5 1.5 1.5 0 0 0 -1.5 -1.5zm-5 5a1.5 1.5 0 0 0 -1.5 1.5 1.5 1.5 0 0 0 1.5 1.5 1.5 1.5 0 0 0 1.5 -1.5 1.5 1.5 0 0 0 -1.5 -1.5zm5 0a1.5 1.5 0 0 0 -1.5 1.5 1.5 1.5 0 0 0 1.5 1.5 1.5 1.5 0 0 0 1.5 -1.5 1.5 1.5 0 0 0 -1.5 -1.5z" fill="#fff"/>
 </g>
</svg>
