<?xml version="1.0" encoding="UTF-8" standalone="no"?>
<!-- Created with Inkscape (http://www.inkscape.org/) -->

<svg
   xmlns:dc="http://purl.org/dc/elements/1.1/"
   xmlns:cc="http://creativecommons.org/ns#"
   xmlns:rdf="http://www.w3.org/1999/02/22-rdf-syntax-ns#"
   xmlns:svg="http://www.w3.org/2000/svg"
   xmlns="http://www.w3.org/2000/svg"
   xmlns:xlink="http://www.w3.org/1999/xlink"
   xmlns:sodipodi="http://sodipodi.sourceforge.net/DTD/sodipodi-0.dtd"
   xmlns:inkscape="http://www.inkscape.org/namespaces/inkscape"
   version="1.1"
   width="48"
   height="48"
   id="svg4031"
   inkscape:version="0.91 r"
   sodipodi:docname="teeworlds.svg">
  <sodipodi:namedview
     pagecolor="#ffffff"
     bordercolor="#666666"
     borderopacity="1"
     objecttolerance="10"
     gridtolerance="10"
     guidetolerance="10"
     inkscape:pageopacity="0"
     inkscape:pageshadow="2"
     inkscape:window-width="1600"
     inkscape:window-height="845"
     id="namedview48"
     showgrid="false"
     showguides="false"
     inkscape:zoom="1"
     inkscape:cx="25.614012"
     inkscape:cy="20.467814"
     inkscape:window-x="0"
     inkscape:window-y="30"
     inkscape:window-maximized="1"
     inkscape:current-layer="svg4031" />
  <defs
     id="defs4033">
    <linearGradient
       id="linearGradient4168">
      <stop
         id="stop4170"
         style="stop-color:#f8b17e;stop-opacity:1"
         offset="0" />
      <stop
         id="stop4172"
         style="stop-color:#e35d4f;stop-opacity:1"
         offset="0.23208089" />
      <stop
         id="stop4174"
         style="stop-color:#c6262e;stop-opacity:1"
         offset="0.5908742" />
      <stop
         id="stop4176"
         style="stop-color:#690b54;stop-opacity:1"
         offset="1" />
    </linearGradient>
    <linearGradient
       id="linearGradient3957">
      <stop
         id="stop3959"
         style="stop-color:#ffffff;stop-opacity:1"
         offset="0" />
      <stop
         id="stop3961"
         style="stop-color:#c1c1c1;stop-opacity:1"
         offset="1" />
    </linearGradient>
    <linearGradient
       id="linearGradient4011">
      <stop
         id="stop4013"
         style="stop-color:#ffffff;stop-opacity:1"
         offset="0" />
      <stop
         id="stop4015"
         style="stop-color:#ffffff;stop-opacity:0.23529412"
         offset="0.507761" />
      <stop
         id="stop4017"
         style="stop-color:#ffffff;stop-opacity:0.15686275"
         offset="0.83456558" />
      <stop
         id="stop4019"
         style="stop-color:#ffffff;stop-opacity:0.39215687"
         offset="1" />
    </linearGradient>
    <linearGradient
       id="linearGradient2867-449-88-871-390-598-476-591-434-148-57-177-3-8">
      <stop
         id="stop3750-8-9"
         style="stop-color:#90dbec;stop-opacity:1"
         offset="0" />
      <stop
         id="stop3752-3-2"
         style="stop-color:#42baea;stop-opacity:1"
         offset="0.26238" />
      <stop
         id="stop3754-7-2"
         style="stop-color:#3689e6;stop-opacity:1"
         offset="0.704952" />
      <stop
         id="stop3756-9-3"
         style="stop-color:#2b63a0;stop-opacity:1"
         offset="1" />
    </linearGradient>
    <linearGradient
       id="linearGradient3820-7-2-1">
      <stop
         id="stop3822-2-6-3"
         style="stop-color:#3d3d3d;stop-opacity:1"
         offset="0" />
      <stop
         id="stop3864-8-7-7"
         style="stop-color:#686868;stop-opacity:0.49803922"
         offset="0.5" />
      <stop
         id="stop3824-1-2-5"
         style="stop-color:#686868;stop-opacity:0"
         offset="1" />
    </linearGradient>
    <linearGradient
       x1="71.204407"
       y1="6.2375584"
       x2="71.204407"
       y2="44.340794"
       id="linearGradient3012"
       xlink:href="#linearGradient4011"
       gradientUnits="userSpaceOnUse"
       gradientTransform="matrix(1.054054,0,0,1.054054,-51.611001,-2.7279009)" />
    <radialGradient
       cx="3.9722471"
       cy="8.4497671"
       r="19.99999"
       fx="3.9722471"
       fy="8.4497671"
       id="radialGradient3015"
       xlink:href="#linearGradient2867-449-88-871-390-598-476-591-434-148-57-177-3-8"
       gradientUnits="userSpaceOnUse"
       gradientTransform="matrix(0,2.4988347,-2.6434689,-6.8014435e-8,46.336814,-12.180468)" />
    <radialGradient
       cx="99.157013"
       cy="186.17059"
       r="62.769119"
       fx="99.157013"
       fy="186.17059"
       id="radialGradient3018"
       xlink:href="#linearGradient3820-7-2-1"
       gradientUnits="userSpaceOnUse"
       gradientTransform="matrix(0.27083381,0,0,0.08762273,-2.855072,25.187228)" />
    <linearGradient
       x1="27.92535"
       y1="15.149301"
       x2="33.447899"
       y2="22.986004"
       id="linearGradient3951"
       xlink:href="#linearGradient4168"
       gradientUnits="userSpaceOnUse"
       gradientTransform="translate(-37.016949,19.932203)" />
    <linearGradient
       x1="24"
       y1="22"
       x2="24"
       y2="26"
       id="linearGradient3963"
       xlink:href="#linearGradient3957"
       gradientUnits="userSpaceOnUse" />
    <linearGradient
       x1="21.013996"
       y1="25.433903"
       x2="22.805599"
       y2="27.343702"
       id="linearGradient3963-7"
       xlink:href="#linearGradient3957-2"
       gradientUnits="userSpaceOnUse"
       gradientTransform="translate(-19.118644,3.6610169)" />
    <linearGradient
       id="linearGradient3957-2">
      <stop
         id="stop3959-62"
         style="stop-color:#ffffff;stop-opacity:1"
         offset="0" />
      <stop
         id="stop3961-5"
         style="stop-color:#c1c1c1;stop-opacity:1"
         offset="1" />
    </linearGradient>
    <linearGradient
       id="linearGradient3851">
      <stop
         offset="0"
         style="stop-color:#000000;stop-opacity:0.43200001"
         id="stop3853" />
      <stop
         offset="1"
         style="stop-color:#000000;stop-opacity:0.627451"
         id="stop3855" />
    </linearGradient>
    <linearGradient
       gradientTransform="matrix(1,0,0,-1,0,48.519105)"
       gradientUnits="userSpaceOnUse"
       xlink:href="#linearGradient3851"
       id="linearGradient4326"
       y2="36.949589"
       x2="23.06352"
       y1="12.978221"
       x1="23.06352" />
    <linearGradient
       gradientUnits="userSpaceOnUse"
       xlink:href="#linearGradient3851"
       id="linearGradient4320"
       y2="36.949589"
       x2="23.06352"
       y1="12.978221"
       x1="23.06352"
       gradientTransform="translate(0,-1.4930417)" />
    <linearGradient
       gradientUnits="userSpaceOnUse"
       xlink:href="#linearGradient3707-319-631-407-324-616"
       id="linearGradient4273"
       y2="4.9969058"
       x2="19.927404"
       y1="44.949184"
       x1="19.927404"
       gradientTransform="matrix(0.83333322,0,0,0.83333322,3.9999996,3.1666681)" />
    <linearGradient
       id="linearGradient3707-319-631-407-324-616">
      <stop
         offset="0"
         style="stop-color:#505050;stop-opacity:1"
         id="stop3246" />
      <stop
         offset="1"
         style="stop-color:#8e8e8e;stop-opacity:1"
         id="stop3248" />
    </linearGradient>
    <linearGradient
       gradientTransform="translate(-57.362519,-8.0236327)"
       gradientUnits="userSpaceOnUse"
       xlink:href="#linearGradient3924-803"
       id="linearGradient3473"
       y2="43"
       x2="23.99999"
       y1="4.999989"
       x1="23.99999" />
    <linearGradient
       id="linearGradient3924-803">
      <stop
         offset="0"
         style="stop-color:#ffffff;stop-opacity:1"
         id="stop3252" />
      <stop
         offset="0.06316455"
         style="stop-color:#ffffff;stop-opacity:0.23529412"
         id="stop3254" />
      <stop
         offset="0.95056331"
         style="stop-color:#ffffff;stop-opacity:0.15686275"
         id="stop3256" />
      <stop
         offset="1"
         style="stop-color:#ffffff;stop-opacity:0.39215687"
         id="stop3258" />
    </linearGradient>
    <radialGradient
       gradientTransform="matrix(1.8930301e-8,2.2770672,-2.4088655,-4.1952268e-8,-13.008071,-19.524216)"
       gradientUnits="userSpaceOnUse"
       xlink:href="#linearGradient2867-449-88-871-390-598-476-591-434-148-57-177-641"
       id="radialGradient3476"
       fy="8.4497671"
       fx="7.4956832"
       r="19.99999"
       cy="8.4497671"
       cx="7.4956832" />
    <linearGradient
       id="linearGradient2867-449-88-871-390-598-476-591-434-148-57-177-641">
      <stop
         offset="0"
         style="stop-color:#c7c7c7;stop-opacity:1"
         id="stop3236" />
      <stop
         offset="0.26238"
         style="stop-color:#a6a6a6;stop-opacity:1"
         id="stop3238" />
      <stop
         offset="0.704952"
         style="stop-color:#7b7b7b;stop-opacity:1"
         id="stop3240" />
      <stop
         offset="1"
         style="stop-color:#595959;stop-opacity:1"
         id="stop3242" />
    </linearGradient>
    <radialGradient
       gradientTransform="matrix(2.003784,0,0,1.4,27.98813,-17.4)"
       gradientUnits="userSpaceOnUse"
       xlink:href="#linearGradient3688-166-749-2-324"
       id="radialGradient3013-896"
       fy="43.5"
       fx="4.9929786"
       r="2.5"
       cy="43.5"
       cx="4.9929786" />
    <linearGradient
       id="linearGradient3688-166-749-2-324">
      <stop
         offset="0"
         style="stop-color:#181818;stop-opacity:1"
         id="stop3216" />
      <stop
         offset="1"
         style="stop-color:#181818;stop-opacity:0"
         id="stop3218" />
    </linearGradient>
    <radialGradient
       gradientTransform="matrix(2.003784,0,0,1.4,-20.01187,-104.4)"
       gradientUnits="userSpaceOnUse"
       xlink:href="#linearGradient3688-166-749-2-324"
       id="radialGradient3015-826"
       fy="43.5"
       fx="4.9929786"
       r="2.5"
       cy="43.5"
       cx="4.9929786" />
    <linearGradient
       id="linearGradient3702-501-757-6-946">
      <stop
         offset="0"
         style="stop-color:#181818;stop-opacity:0"
         id="stop3228" />
      <stop
         offset="0.5"
         style="stop-color:#181818;stop-opacity:1"
         id="stop3230" />
      <stop
         offset="1"
         style="stop-color:#181818;stop-opacity:0"
         id="stop3232" />
    </linearGradient>
    <linearGradient
       gradientUnits="userSpaceOnUse"
       xlink:href="#linearGradient3702-501-757-6-946"
       id="linearGradient4395"
       y2="39.999443"
       x2="25.058096"
       y1="47.027729"
       x1="25.058096" />
    <linearGradient
       gradientTransform="translate(-16.076816,-9.0236427)"
       gradientUnits="userSpaceOnUse"
       xlink:href="#linearGradient3851"
       id="linearGradient3857"
       y2="44.858185"
       x2="0.85715157"
       y1="5.7142859"
       x1="0.85715157" />
    <linearGradient
       id="linearGradient665">
      <stop
         id="stop666"
         offset="0.00000000"
         style="stop-color:#ffffff;stop-opacity:0.285714;" />
      <stop
         id="stop667"
         offset="1.00000000"
         style="stop-color:#daecf8;stop-opacity:1;" />
    </linearGradient>
    <linearGradient
       id="linearGradient624">
      <stop
         id="stop625"
         offset="0.00000000"
         style="stop-color:#b9e5ff;stop-opacity:0.419643;" />
      <stop
         id="stop626"
         offset="1.00000000"
         style="stop-color:#ffffff;stop-opacity:1;" />
    </linearGradient>
    <linearGradient
       id="linearGradient619">
      <stop
         id="stop620"
         offset="0.00000000"
         style="stop-color:#66b8ff;stop-opacity:1;" />
      <stop
         id="stop621"
         offset="1.00000000"
         style="stop-color:#00507a;stop-opacity:1;" />
    </linearGradient>
    <linearGradient
       id="linearGradient604">
      <stop
         id="stop605"
         offset="0.00000000"
         style="stop-color:#838383;stop-opacity:1;" />
      <stop
         id="stop606"
         offset="1.00000000"
         style="stop-color:#2c2c2c;stop-opacity:1;" />
    </linearGradient>
    <linearGradient
       id="linearGradient598">
      <stop
         id="stop599"
         offset="0.00000000"
         style="stop-color:#e1dedd;stop-opacity:0.866071;" />
      <stop
         id="stop600"
         offset="1.00000000"
         style="stop-color:#2c2c2c;stop-opacity:1;" />
    </linearGradient>
    <linearGradient
       id="linearGradient593">
      <stop
         id="stop594"
         offset="0.00000000"
         style="stop-color:#fff9db;stop-opacity:0.732143;" />
      <stop
         id="stop595"
         offset="1.00000000"
         style="stop-color:#2c2c2c;stop-opacity:1;" />
    </linearGradient>
    <linearGradient
       id="linearGradient586">
      <stop
         id="stop587"
         offset="0.00000000"
         style="stop-color:#6e6969;stop-opacity:1;" />
      <stop
         id="stop588"
         offset="1.00000000"
         style="stop-color:#2c2c2c;stop-opacity:1;" />
    </linearGradient>
    <linearGradient
       id="linearGradient578">
      <stop
         id="stop579"
         offset="0.00000000"
         style="stop-color:#fff2bc;stop-opacity:1;" />
      <stop
         id="stop580"
         offset="1.00000000"
         style="stop-color:#83560b;stop-opacity:1;" />
    </linearGradient>
    <linearGradient
       y2="279.76099"
       x2="656.45555"
       y1="231.00583"
       x1="596.05675"
       id="linearGradient581"
       xlink:href="#linearGradient578"
       gradientTransform="matrix(0.04557033,0,0,0.07062133,3.1833797,1.0604886)"
       gradientUnits="userSpaceOnUse" />
    <radialGradient
       fy="0.50000000"
       fx="0.50000000"
       r="0.50000000"
       cy="0.50000000"
       cx="0.50000000"
       id="radialGradient582"
       xlink:href="#linearGradient578" />
    <linearGradient
       y2="264.66051"
       x2="908.4478"
       y1="160.6253"
       x1="779.71681"
       id="linearGradient590"
       xlink:href="#linearGradient593"
       gradientTransform="matrix(0.74212107,0,0,1.347489,-928.13501,-522.70223)"
       gradientUnits="userSpaceOnUse" />
    <linearGradient
       y2="0.53906250"
       x2="0.31958762"
       y1="0.49218750"
       x1="0.19587629"
       id="linearGradient592"
       xlink:href="#linearGradient586" />
    <linearGradient
       y2="0.38281250"
       x2="0.66666669"
       y1="0.25781250"
       x1="0.49333334"
       id="linearGradient597"
       xlink:href="#linearGradient598" />
    <linearGradient
       y2="0.10937500"
       x2="0.43835616"
       y1="0.37500000"
       x1="0.83076924"
       id="linearGradient603"
       xlink:href="#linearGradient604" />
    <linearGradient
       y2="0.92968750"
       x2="0.97674412"
       y1="0.37500000"
       x1="0.41085270"
       id="linearGradient618"
       xlink:href="#linearGradient665" />
    <linearGradient
       y2="425.86215"
       x2="411.61445"
       y1="74.221018"
       x1="273.65717"
       id="linearGradient623"
       xlink:href="#linearGradient624"
       gradientTransform="matrix(0.04064714,0,0,0.07917501,2.833117,1.2356199)"
       gradientUnits="userSpaceOnUse" />
    <linearGradient
       y2="598.45589"
       x2="332.64537"
       y1="-72.169076"
       x1="34.350778"
       id="linearGradient664"
       xlink:href="#linearGradient619"
       gradientUnits="userSpaceOnUse"
       gradientTransform="matrix(0.832278,0,0,0.846654,-1182.4079,-22.878397)" />
    <clipPath
       id="clipPath-728235023">
      <g
         transform="translate(0,-1004.3622)"
         id="g17">
        <path
           style="fill:#1890d0"
           inkscape:connector-curvature="0"
           d="m -24,13 c 0,1.105 -0.672,2 -1.5,2 -0.828,0 -1.5,-0.895 -1.5,-2 0,-1.105 0.672,-2 1.5,-2 0.828,0 1.5,0.895 1.5,2 z"
           transform="matrix(15.333333,0,0,11.5,414.99999,878.8622)"
           id="path19" />
      </g>
    </clipPath>
  </defs>
  <metadata
     id="metadata4036">
    <rdf:RDF>
      <cc:Work
         rdf:about="">
        <dc:format>image/svg+xml</dc:format>
        <dc:type
           rdf:resource="http://purl.org/dc/dcmitype/StillImage" />
        <dc:title></dc:title>
      </cc:Work>
    </rdf:RDF>
  </metadata>
  <path
     d="m 40.999999,41.499999 a 17,5.4999999 0 1 1 -33.999999,0 17,5.4999999 0 1 1 33.999999,0 z"
     id="path3818-0-5"
     style="fill:url(#radialGradient3018);fill-opacity:1;stroke:none" />
  <path
     d="M 24.000003,3.4999982 C 12.68881,3.4999982 3.4999996,12.688804 3.4999996,23.999998 3.4999996,35.311192 12.68881,44.500003 24.000003,44.5 35.311191,44.5 44.500011,35.311192 44.5,23.999998 44.5,12.688804 35.311191,3.4999982 24.000003,3.4999982 z"
     id="path2555"
     style="color:#000000;fill:url(#radialGradient3015);fill-opacity:1;fill-rule:nonzero;stroke:none;stroke-width:1;marker:none;visibility:visible;display:inline;overflow:visible;enable-background:accumulate" />
  <path
     d="m 43.5,23.999308 c 0,10.7699 -8.73109,19.50069 -19.499753,19.50069 -10.769649,0 -19.5002474,-8.730889 -19.5002474,-19.50069 0,-10.769402 8.7305984,-19.4993078 19.5002474,-19.4993078 C 34.76891,4.5000002 43.5,13.229906 43.5,23.999308 l 0,0 z"
     id="path8655"
     style="opacity:0.5;color:#000000;fill:none;stroke:url(#linearGradient3012);stroke-width:1;stroke-linecap:round;stroke-linejoin:round;stroke-miterlimit:4;stroke-opacity:1;stroke-dasharray:none;stroke-dashoffset:0;marker:none;visibility:visible;display:inline;overflow:visible;enable-background:accumulate" />
  <g
     id="g4326"
     style="fill:#000000;fill-opacity:1;opacity:0.15"
     transform="translate(0,1.0000006)">
    <path
       style="opacity:1;fill:#000000;fill-opacity:1;stroke:none;stroke-width:1;stroke-linecap:round;stroke-linejoin:round;stroke-miterlimit:4;stroke-dasharray:none;stroke-opacity:1"
       d="m 35.41779,22.663074 c -1.078167,8.016122 -2.301373,6.517845 -4.216057,8.822538 -1.030585,1.240508 -3.647503,2.213947 -4.947787,2.218886 -0.739753,0.0028 -2.024733,-2.119299 -2.749903,-2.523905 -2.608717,-1.455525 -7.532255,-0.642187 -8.611271,-1.462848 -1.895151,-1.620818 -2.332124,-5.304892 -2.332124,-7.75548 0,-5.240006 6.265022,-10.512128 11.266845,-10.512129 2.438541,0 5.851494,1.107346 8.186178,3.175612 2.454115,2.174069 3.762074,5.375946 3.404119,8.037326 z"
       id="path4328"
       inkscape:connector-curvature="0"
       sodipodi:nodetypes="sssccssss" />
    <path
       style="opacity:1;fill:#000000;fill-opacity:1;stroke:none;stroke-width:1;stroke-linecap:round;stroke-linejoin:round;stroke-miterlimit:4;stroke-dasharray:none;stroke-opacity:1"
       d="m 25.498653,33.95687 c 0.08026,1.888867 -4.538534,2.614556 -7.277629,2.614556 -2.739094,0 -5.22911,-0.993527 -5.013476,-3.099731 0.192551,-1.880739 2.220474,-3.423181 4.959568,-3.423181 2.739094,0 7.22372,1.370885 7.331537,3.908356 z"
       id="path4330"
       inkscape:connector-curvature="0"
       sodipodi:nodetypes="sssss" />
    <path
       style="opacity:1;fill:#000000;fill-opacity:1;stroke:none;stroke-width:1;stroke-linecap:round;stroke-linejoin:round;stroke-miterlimit:4;stroke-dasharray:none;stroke-opacity:1"
       d="m 34.986524,33.714285 c 0,1.637502 -2.466674,2.587601 -5.309973,2.587602 -2.843299,-10e-7 -4.716982,0.721059 -4.716982,-0.916443 1e-6,-0.993227 0.740182,-1.548937 2.203684,-1.763544 0.904039,-0.132568 4.615724,-2.656941 4.615724,-2.656941 1.358124,-0.104516 3.207546,1.111824 3.207547,2.749326 z"
       id="path4332"
       inkscape:connector-curvature="0"
       sodipodi:nodetypes="sssscs" />
    <g
       transform="matrix(0.99997103,0,0,1.0001025,-0.00121813,-0.00183213)"
       id="g4334"
       style="fill:#000000;fill-opacity:1">
      <g
         clip-path="url(#clipPath-728235023)"
         id="g4336"
         style="fill:#000000;fill-opacity:1">
        <!-- color: #ffd000 -->
        <g
           id="g4338"
           style="fill:#000000;fill-opacity:1">
          <path
             style="fill:#000000;fill-opacity:1;fill-rule:nonzero;stroke:none"
             inkscape:connector-curvature="0"
             d="m 15.641,36.953 c -2.434,-0.297 -3.324,-1.313 -3.129,-3.578 0.094,-1.063 0.418,-1.773 1.199,-2.582 0.344,-0.355 0.625,-0.695 0.625,-0.75 0,-0.051 -0.227,-0.449 -0.504,-0.883 -1.41,-2.191 -2.086,-5.223 -1.742,-7.773 0.867,-6.406 6.605,-10.938 13.08,-10.332 5.02,0.469 9.188,3.957 10.508,8.785 0.27,1 0.313,1.43 0.324,2.996 0.004,1.613 -0.035,1.973 -0.324,3 -0.418,1.504 -0.797,2.328 -1.652,3.621 l -0.699,1.051 0.727,0.637 c 1.227,1.074 1.699,2.262 1.398,3.508 -0.191,0.82 -0.496,1.23 -1.184,1.629 -1.094,0.629 -1.691,0.711 -5.273,0.715 -1.813,0.004 -3.852,-0.016 -4.531,-0.039 -0.688,-0.023 -2.781,-0.016 -4.66,0.02 -1.879,0.035 -3.754,0.023 -4.164,-0.027 m 7.383,-1.227 c 1.379,-0.23 2.07,-0.824 2.051,-1.758 -0.016,-0.621 -0.477,-1.477 -1.063,-1.953 -1.832,-1.523 -6.184,-2.129 -8.367,-1.188 -1.254,0.543 -2.047,1.699 -2.047,2.98 -0.004,1.602 0.574,1.926 3.664,2.039 2.367,0.09 4.758,0.031 5.762,-0.133 m 7.965,0.137 c 1.77,-0.125 2.543,-0.344 3.055,-0.871 0.313,-0.324 0.359,-0.461 0.359,-1.086 0,-0.598 -0.059,-0.801 -0.379,-1.242 -0.363,-0.504 -1.566,-1.445 -1.852,-1.445 -0.074,0 -0.578,0.328 -1.125,0.734 -1.125,0.828 -2.621,1.586 -3.73,1.887 -1.348,0.367 -1.555,0.445 -1.555,0.602 0,0.082 -0.113,0.359 -0.246,0.629 -0.414,0.797 -0.441,0.773 1.582,0.816 1.012,0.023 1.945,0.055 2.082,0.066 0.137,0.012 0.945,-0.027 1.801,-0.086 m -3.613,-2.707 c 1.75,-0.531 3.305,-1.508 4.695,-2.953 2.742,-2.836 3.66,-6.988 2.383,-10.785 -0.504,-1.492 -1.242,-2.707 -2.352,-3.875 -2.047,-2.16 -4.539,-3.316 -7.406,-3.465 -3.199,-0.16 -5.957,0.84 -8.184,2.957 -1.727,1.648 -2.824,3.625 -3.25,5.859 -0.234,1.211 -0.16,3.543 0.148,4.703 0.301,1.133 1.32,3.133 1.945,3.828 l 0.539,0.594 0.734,-0.137 c 1.113,-0.199 2.977,-0.156 4.242,0.098 2.109,0.43 3.922,1.523 4.551,2.758 0.465,0.895 0.395,0.887 1.949,0.41 m -5.23,-10.73 c -0.629,-0.352 -1.02,-2.102 -0.723,-3.25 0.582,-2.289 2.379,-1.539 2.379,0.992 0,1.656 -0.801,2.746 -1.656,2.258 m 4.402,-0.145 c -0.441,-0.465 -0.664,-1.148 -0.664,-2.105 0,-2.16 1.332,-3.184 2.137,-1.641 0.957,1.844 -0.277,4.992 -1.473,3.742 m 0,0"
             id="path4340" />
        </g>
      </g>
    </g>
  </g>
  <path
     d="m 24.000003,3.499998 c -11.311193,0 -20.5000034,9.188806 -20.5000034,20.5 0,11.311194 9.1888104,20.500005 20.5000034,20.500002 11.311188,0 20.500008,-9.188808 20.499997,-20.500002 0,-11.311194 -9.188809,-20.5 -20.499997,-20.5 z"
     id="path2555-6"
     style="opacity:0.5;color:#000000;fill:#000000;fill-opacity:0;fill-rule:nonzero;stroke:#00537d;stroke-width:1;stroke-linecap:round;stroke-linejoin:round;stroke-miterlimit:4;stroke-opacity:1;stroke-dasharray:none;stroke-dashoffset:0;marker:none;visibility:visible;display:inline;overflow:visible;enable-background:accumulate" />
  <g
     id="g4317">
    <path
       sodipodi:nodetypes="sssccssss"
       inkscape:connector-curvature="0"
       id="path4308"
       d="m 35.41779,22.663074 c -1.078167,8.016122 -2.301373,6.517845 -4.216057,8.822538 -1.030585,1.240508 -3.647503,2.213947 -4.947787,2.218886 -0.739753,0.0028 -2.024733,-2.119299 -2.749903,-2.523905 -2.608717,-1.455525 -7.532255,-0.642187 -8.611271,-1.462848 -1.895151,-1.620818 -2.332124,-5.304892 -2.332124,-7.75548 0,-5.240006 6.265022,-10.512128 11.266845,-10.512129 2.438541,0 5.851494,1.107346 8.186178,3.175612 2.454115,2.174069 3.762074,5.375946 3.404119,8.037326 z"
       style="opacity:1;fill:#ffe66d;fill-opacity:1;stroke:none;stroke-width:1;stroke-linecap:round;stroke-linejoin:round;stroke-miterlimit:4;stroke-dasharray:none;stroke-opacity:1" />
    <path
       sodipodi:nodetypes="sssss"
       inkscape:connector-curvature="0"
       id="path4311"
       d="m 25.498653,33.95687 c 0.08026,1.888867 -4.538534,2.614556 -7.277629,2.614556 -2.739094,0 -5.22911,-0.993527 -5.013476,-3.099731 0.192551,-1.880739 2.220474,-3.423181 4.959568,-3.423181 2.739094,0 7.22372,1.370885 7.331537,3.908356 z"
       style="opacity:1;fill:#cb7d34;fill-opacity:1;stroke:none;stroke-width:1;stroke-linecap:round;stroke-linejoin:round;stroke-miterlimit:4;stroke-dasharray:none;stroke-opacity:1" />
    <path
       sodipodi:nodetypes="sssscs"
       inkscape:connector-curvature="0"
       id="path4314"
       d="m 34.986524,33.714285 c 0,1.637502 -2.466674,2.587601 -5.309973,2.587602 -2.843299,-10e-7 -4.716982,0.721059 -4.716982,-0.916443 1e-6,-0.993227 0.740182,-1.548937 2.203684,-1.763544 0.904039,-0.132568 4.615724,-2.656941 4.615724,-2.656941 1.358124,-0.104516 3.207546,1.111824 3.207547,2.749326 z"
       style="opacity:1;fill:#cb7d34;fill-opacity:1;stroke:none;stroke-width:1;stroke-linecap:round;stroke-linejoin:round;stroke-miterlimit:4;stroke-dasharray:none;stroke-opacity:1" />
    <g
       id="g47"
       transform="matrix(0.99997103,0,0,1.0001025,-0.00121813,-0.00183213)">
      <g
         id="g49"
         clip-path="url(#clipPath-728235023)">
        <!-- color: #ffd000 -->
        <g
           id="g51">
          <path
             id="path53"
             d="m 15.641,36.953 c -2.434,-0.297 -3.324,-1.313 -3.129,-3.578 0.094,-1.063 0.418,-1.773 1.199,-2.582 0.344,-0.355 0.625,-0.695 0.625,-0.75 0,-0.051 -0.227,-0.449 -0.504,-0.883 -1.41,-2.191 -2.086,-5.223 -1.742,-7.773 0.867,-6.406 6.605,-10.938 13.08,-10.332 5.02,0.469 9.188,3.957 10.508,8.785 0.27,1 0.313,1.43 0.324,2.996 0.004,1.613 -0.035,1.973 -0.324,3 -0.418,1.504 -0.797,2.328 -1.652,3.621 l -0.699,1.051 0.727,0.637 c 1.227,1.074 1.699,2.262 1.398,3.508 -0.191,0.82 -0.496,1.23 -1.184,1.629 -1.094,0.629 -1.691,0.711 -5.273,0.715 -1.813,0.004 -3.852,-0.016 -4.531,-0.039 -0.688,-0.023 -2.781,-0.016 -4.66,0.02 -1.879,0.035 -3.754,0.023 -4.164,-0.027 m 7.383,-1.227 c 1.379,-0.23 2.07,-0.824 2.051,-1.758 -0.016,-0.621 -0.477,-1.477 -1.063,-1.953 -1.832,-1.523 -6.184,-2.129 -8.367,-1.188 -1.254,0.543 -2.047,1.699 -2.047,2.98 -0.004,1.602 0.574,1.926 3.664,2.039 2.367,0.09 4.758,0.031 5.762,-0.133 m 7.965,0.137 c 1.77,-0.125 2.543,-0.344 3.055,-0.871 0.313,-0.324 0.359,-0.461 0.359,-1.086 0,-0.598 -0.059,-0.801 -0.379,-1.242 -0.363,-0.504 -1.566,-1.445 -1.852,-1.445 -0.074,0 -0.578,0.328 -1.125,0.734 -1.125,0.828 -2.621,1.586 -3.73,1.887 -1.348,0.367 -1.555,0.445 -1.555,0.602 0,0.082 -0.113,0.359 -0.246,0.629 -0.414,0.797 -0.441,0.773 1.582,0.816 1.012,0.023 1.945,0.055 2.082,0.066 0.137,0.012 0.945,-0.027 1.801,-0.086 m -3.613,-2.707 c 1.75,-0.531 3.305,-1.508 4.695,-2.953 2.742,-2.836 3.66,-6.988 2.383,-10.785 -0.504,-1.492 -1.242,-2.707 -2.352,-3.875 -2.047,-2.16 -4.539,-3.316 -7.406,-3.465 -3.199,-0.16 -5.957,0.84 -8.184,2.957 -1.727,1.648 -2.824,3.625 -3.25,5.859 -0.234,1.211 -0.16,3.543 0.148,4.703 0.301,1.133 1.32,3.133 1.945,3.828 l 0.539,0.594 0.734,-0.137 c 1.113,-0.199 2.977,-0.156 4.242,0.098 2.109,0.43 3.922,1.523 4.551,2.758 0.465,0.895 0.395,0.887 1.949,0.41 m -5.23,-10.73 c -0.629,-0.352 -1.02,-2.102 -0.723,-3.25 0.582,-2.289 2.379,-1.539 2.379,0.992 0,1.656 -0.801,2.746 -1.656,2.258 m 4.402,-0.145 c -0.441,-0.465 -0.664,-1.148 -0.664,-2.105 0,-2.16 1.332,-3.184 2.137,-1.641 0.957,1.844 -0.277,4.992 -1.473,3.742 m 0,0"
             inkscape:connector-curvature="0"
             style="fill:#333333;fill-opacity:1;fill-rule:nonzero;stroke:none" />
        </g>
      </g>
    </g>
  </g>
</svg>
