<?xml version="1.0" encoding="UTF-8" standalone="no"?>
<!-- Created with Inkscape (http://www.inkscape.org/) -->
<svg id="svg4031" xmlns:rdf="http://www.w3.org/1999/02/22-rdf-syntax-ns#" xmlns="http://www.w3.org/2000/svg" height="48" width="48" version="1.1" xmlns:cc="http://creativecommons.org/ns#" xmlns:xlink="http://www.w3.org/1999/xlink" xmlns:dc="http://purl.org/dc/elements/1.1/">
 <defs id="defs4033">
  <linearGradient id="linearGradient3012" y2="44.341" gradientUnits="userSpaceOnUse" x2="71.204" gradientTransform="matrix(1.0541 0 0 1.0541 -51.611 -2.7279)" y1="6.2376" x1="71.204">
   <stop id="stop4013" stop-color="#fff" offset="0"/>
   <stop id="stop4015" stop-color="#fff" stop-opacity=".23529" offset=".50776"/>
   <stop id="stop4017" stop-color="#fff" stop-opacity=".15686" offset=".83457"/>
   <stop id="stop4019" stop-color="#fff" stop-opacity=".39216" offset="1"/>
  </linearGradient>
  <radialGradient id="radialGradient3015" gradientUnits="userSpaceOnUse" cy="8.4498" cx="3.9722" gradientTransform="matrix(0 2.4988 -2.6435 -6.8014e-8 46.337 -12.18)" r="20">
   <stop id="stop3750-8-9" stop-color="#90dbec" offset="0"/>
   <stop id="stop3752-3-2" stop-color="#42baea" offset=".26238"/>
   <stop id="stop3754-7-2" stop-color="#3689e6" offset=".70495"/>
   <stop id="stop3756-9-3" stop-color="#2b63a0" offset="1"/>
  </radialGradient>
  <radialGradient id="radialGradient3018" gradientUnits="userSpaceOnUse" cy="186.17" cx="99.157" gradientTransform="matrix(.27083 0 0 .087623 -2.8551 25.187)" r="62.769">
   <stop id="stop3822-2-6-3" stop-color="#3d3d3d" offset="0"/>
   <stop id="stop3864-8-7-7" stop-color="#686868" stop-opacity=".49804" offset=".5"/>
   <stop id="stop3824-1-2-5" stop-color="#686868" stop-opacity="0" offset="1"/>
  </radialGradient>
  <linearGradient id="linearGradient4322" y2="160" gradientUnits="userSpaceOnUse" x2="160" gradientTransform="matrix(.43333 0 0 .43333 -83.755 -6.7415)" y1="120" x1="135">
   <stop id="stop3879-8-6" stop-color="#effffc" offset="0"/>
   <stop id="stop3881-8-6" stop-color="#fff" offset="1"/>
  </linearGradient>
 </defs>
 <metadata id="metadata4036">
  <rdf:RDF>
   <cc:Work rdf:about="">
    <dc:format>image/svg+xml</dc:format>
    <dc:type rdf:resource="http://purl.org/dc/dcmitype/StillImage"/>
    <dc:title/>
   </cc:Work>
  </rdf:RDF>
 </metadata>
 <path id="path3818-0-5" fill="url(#radialGradient3018)" d="m41 41.5a17 5.5 0 1 1 -34 0 17 5.5 0 1 1 34 0z"/>
 <path id="path2555" style="color:#000000" d="m24 3.5c-11.311 0-20.5 9.189-20.5 20.5s9.189 20.5 20.5 20.5 20.5-9.189 20.5-20.5-9.189-20.5-20.5-20.5z" fill="url(#radialGradient3015)"/>
 <path id="path8655" opacity=".5" stroke-linejoin="round" style="color:#000000" d="m43.5 23.999c0 10.77-8.7311 19.501-19.5 19.501-10.77 0-19.5-8.7309-19.5-19.501 0-10.769 8.7306-19.499 19.5-19.499s19.5 8.73 19.5 19.499v0z" stroke="url(#linearGradient3012)" stroke-linecap="round" fill="none"/>
 <path id="path2555-6" opacity=".5" stroke-linejoin="round" style="color:#000000" d="m24 3.5c-11.311 0-20.5 9.1888-20.5 20.5s9.1888 20.5 20.5 20.5 20.5-9.1888 20.5-20.5-9.1888-20.5-20.5-20.5z" fill-opacity="0" stroke="#00537d" stroke-linecap="round"/>
 <path id="path3953" opacity=".05" style="color:#000000" d="m23.319 24.732a1 1 0 0 1 0.67891 -1.7319l0.002 1z" fill="#fff"/>
 <g id="g4235" stroke-linejoin="round" transform="matrix(.99914 0 0 1.0018 -.97824 -.048169)" stroke="#000" stroke-linecap="round" fill="none">
  <g id="g4227" opacity=".15" transform="matrix(.38905 0 0 .37952 .084584 -1.4244)" stroke-width="2.6024">
   <path id="path4229" d="m54.467 87.833c-1.6846 0-1.3984-0.6361-1.9794-2.2401l-4.9576-16.305 30.682-19.169 3.5805 0.93644-2.9746 8.1525z"/>
   <path id="path4231" d="m54.467 87.833c1.3 0 1.8763-0.59257 2.6-1.3 1.1173-1.0921 15.6-15.167 15.6-15.167l-8.8712-2.1472-8.2333 5.2-1.096 12.981z"/>
   <path id="path4233" d="m55.352 74.576 20.956 15.482c2.3914 1.3194 4.1173 0.63629 4.713-2.2202l8.53-40.197c0.873-3.501-1.335-5.089-3.622-4.051l-50.091 19.32c-3.419 1.3714-3.3991 3.2789-0.62321 4.1288l12.854 4.0119 29.758-18.774c1.4048-0.85188 2.6942-0.3939 1.6359 0.54531z"/>
  </g>
  <g id="g4219" opacity=".15" transform="matrix(.38905 0 0 .37952 .084584 -1.4244)" stroke-width="5.2049">
   <path id="path4221" d="m54.467 87.833c-1.6846 0-1.3984-0.6361-1.9794-2.2401l-4.9576-16.305 30.682-19.169 3.5805 0.93644-2.9746 8.1525z"/>
   <path id="path4223" d="m54.467 87.833c1.3 0 1.8763-0.59257 2.6-1.3 1.1173-1.0921 15.6-15.167 15.6-15.167l-8.8712-2.1472-8.2333 5.2-1.096 12.981z"/>
   <path id="path4225" d="m55.352 74.576 20.956 15.482c2.3914 1.3194 4.1173 0.63629 4.713-2.2202l8.53-40.197c0.873-3.501-1.335-5.089-3.622-4.051l-50.091 19.32c-3.419 1.3714-3.3991 3.2789-0.62321 4.1288l12.854 4.0119 29.758-18.774c1.4048-0.85188 2.6942-0.3939 1.6359 0.54531z"/>
  </g>
 </g>
 <g id="g3886-2-8-0" transform="matrix(.38905 0 0 .37952 -.91542 -1.4244)">
  <path id="path2993-7-0-2" d="m54.467 87.833c-1.6846 0-1.3984-0.6361-1.9794-2.2401l-4.9576-16.305 30.682-19.169 3.5805 0.93644-2.9746 8.1525z" fill="#c8daea"/>
  <path id="path2989-7-2-8" d="m54.467 87.833c1.3 0 1.8763-0.59257 2.6-1.3 1.1173-1.0921 15.6-15.167 15.6-15.167l-8.8712-2.1472-8.2333 5.2-1.096 12.981z" fill="#a9c9dd"/>
  <path id="path2991-1-0-8" d="m55.352 74.576 20.956 15.482c2.3914 1.3194 4.1173 0.63629 4.713-2.2202l8.53-40.197c0.873-3.501-1.335-5.089-3.622-4.051l-50.091 19.32c-3.419 1.3714-3.3991 3.2789-0.62321 4.1288l12.854 4.0119 29.758-18.774c1.4048-0.85188 2.6942-0.3939 1.6359 0.54531z" fill="url(#linearGradient4322)"/>
 </g>
</svg>
