<?xml version="1.0" encoding="UTF-8" standalone="no"?>
<!-- Created with Inkscape (http://www.inkscape.org/) -->
<svg id="svg4951" xmlns:rdf="http://www.w3.org/1999/02/22-rdf-syntax-ns#" xmlns="http://www.w3.org/2000/svg" height="48" width="48" version="1.1" xmlns:cc="http://creativecommons.org/ns#" xmlns:xlink="http://www.w3.org/1999/xlink" xmlns:dc="http://purl.org/dc/elements/1.1/">
 <defs id="defs4953">
  <radialGradient id="radialGradient3302" gradientUnits="userSpaceOnUse" cy="186.17" cx="99.157" gradientTransform="matrix(.27083 0 0 .087623 -2.8551 25.187)" r="62.769">
   <stop id="stop3822-2-6-3" stop-color="#3d3d3d" offset="0"/>
   <stop id="stop3864-8-7-7" stop-color="#686868" stop-opacity=".49804" offset=".5"/>
   <stop id="stop3824-1-2-5" stop-color="#686868" stop-opacity="0" offset="1"/>
  </radialGradient>
  <radialGradient id="radialGradient4448" gradientUnits="userSpaceOnUse" cy="-17.681" cx="14.892" gradientTransform="matrix(-1.4387 3.8089e-8 -2.8328e-8 -1.07 45.169 -14.596)" r="25.571">
   <stop id="stop3750-1-0-7-6-6-1-3-9-3" stop-color="#5f5f5f" offset="0"/>
   <stop id="stop3752-3-7-4-0-32-8-923-0-7" stop-color="#515151" offset=".26238"/>
   <stop id="stop3754-1-8-5-2-7-6-7-1-9" stop-color="#404040" offset=".70495"/>
   <stop id="stop3756-1-6-2-6-6-1-96-6-0" stop-color="#343434" offset="1"/>
  </radialGradient>
  <linearGradient id="linearGradient4450" y2="32.568" gradientUnits="userSpaceOnUse" x2="15.124" gradientTransform="matrix(.76418 0 0 .76418 12.377 18.778)" y1="-18.801" x1="15.124">
   <stop id="stop4413" stop-color="#fff" offset="0"/>
   <stop id="stop4415" stop-color="#fff" stop-opacity="0" offset="1"/>
  </linearGradient>
  <linearGradient id="linearGradient4414" y2="52.984" gradientUnits="userSpaceOnUse" x2="23.188" y1=".094718" x1="22.71">
   <stop id="stop4370" stop-color="#fff" offset="0"/>
   <stop id="stop4372" stop-color="#fff" stop-opacity="0" offset="1"/>
  </linearGradient>
 </defs>
 <metadata id="metadata4956">
  <rdf:RDF>
   <cc:Work rdf:about="">
    <dc:format>image/svg+xml</dc:format>
    <dc:type rdf:resource="http://purl.org/dc/dcmitype/StillImage"/>
    <dc:title/>
   </cc:Work>
  </rdf:RDF>
 </metadata>
 <path id="path3818-0-5" d="m41 41.5a17 5.5 0 0 1 -34 0 17 5.5 0 1 1 34 0z" fill="url(#radialGradient3302)"/>
 <circle id="path2985-6" cy="24" cx="24" r="20.526" fill="url(#radialGradient4448)"/>
 <path id="path4420" opacity=".15" style="color-rendering:auto;text-decoration-color:#000000;color:#000000;isolation:auto;mix-blend-mode:normal;shape-rendering:auto;solid-color:#000000;block-progression:tb;text-decoration-line:none;text-decoration-style:solid;image-rendering:auto;white-space:normal;text-indent:0;text-transform:none" d="m26.242 7.6523c-7.462-1.0187-14.675 3.1427-17.527 10.114a0.50005 0.50005 0 0 0 0.3338 0.672l8.8555 2.373a0.50005 0.50005 0 0 0 0.55469 -0.2207c1.152-1.868 3.164-3.028 5.357-3.09a0.50005 0.50005 0 0 0 0.46875 -0.37109l2.373-8.8516a0.50005 0.50005 0 0 0 -0.41602 -0.625zm-0.72266 1.0078-2.1328 7.9531c-2.2204 0.18971-4.2075 1.3361-5.4824 3.1641l-7.9528-2.132c2.7448-6.036 8.9688-9.6282 15.569-8.9848zm4.5195 0.017578a0.50005 0.50005 0 0 0 -0.476 0.3711l-2.373 8.8555a0.50005 0.50005 0 0 0 0.2207 0.55469c1.8675 1.1516 3.0282 3.1642 3.0898 5.3574a0.50005 0.50005 0 0 0 0.37109 0.46875l8.8516 2.373a0.50005 0.50005 0 0 0 0.625 -0.41602c1.018-7.462-3.143-14.675-10.114-17.527a0.50005 0.50005 0 0 0 -0.19531 -0.037109zm0.31641 1.2734c6.0355 2.7452 9.6277 8.9692 8.9844 15.568l-7.951-2.132c-0.19-2.221-1.336-4.208-3.164-5.483l2.132-7.9528zm-22.225 11.375a0.50005 0.50005 0 0 0 -0.47656 0.43164c-1.0187 7.462 3.1427 14.675 10.114 17.527a0.50005 0.50005 0 0 0 0.672 -0.334l2.373-8.8555a0.50005 0.50005 0 0 0 -0.221 -0.555c-1.868-1.152-3.028-3.164-3.09-5.357a0.50005 0.50005 0 0 0 -0.37109 -0.46875l-8.8517-2.373a0.50005 0.50005 0 0 0 -0.14844 -0.01563zm0.53125 1.1543 7.9531 2.1328c0.18971 2.2204 1.3361 4.2075 3.1641 5.4824l-2.1328 7.9531c-6.035-2.744-9.6272-8.968-8.9838-15.568zm21.287 4.6914a0.50005 0.50005 0 0 0 -0.40625 0.23828c-1.152 1.869-3.164 3.029-5.357 3.091a0.50005 0.50005 0 0 0 -0.46875 0.37109l-2.373 8.8516a0.50005 0.50005 0 0 0 0.41602 0.625c7.462 1.018 14.675-3.143 17.527-10.114a0.50005 0.50005 0 0 0 -0.334 -0.672l-8.8555-2.373a0.50005 0.50005 0 0 0 -0.14844 -0.01758zm0.14844 1.0508 7.9531 2.1328c-2.7452 6.0355-8.9692 9.6277-15.568 8.9844l2.1328-7.9531c2.2204-0.18971 4.2075-1.3361 5.4824-3.1641z"/>
 <path id="path4416" opacity=".15" style="color-rendering:auto;text-decoration-color:#000000;color:#000000;isolation:auto;mix-blend-mode:normal;shape-rendering:auto;solid-color:#000000;block-progression:tb;text-decoration-line:none;text-decoration-style:solid;image-rendering:auto;white-space:normal;text-indent:0;text-transform:none" d="m26.311 7.1562c-7.686-1.0491-15.122 3.2408-18.059 10.42a1.0001 1.0001 0 0 0 0.66797 1.3457l8.8535 2.3711a1.0001 1.0001 0 0 0 1.1113 -0.43945c1.063-1.725 2.92-2.797 4.945-2.854a1.0001 1.0001 0 0 0 0.9375 -0.74219l2.373-8.8518a1.0001 1.0001 0 0 0 -0.83008 -1.25zm3.7227 1.0215a1.0001 1.0001 0 0 0 -0.95508 0.74219l-2.3711 8.8535a1.0001 1.0001 0 0 0 0.43945 1.1113c1.7247 1.0635 2.7965 2.9199 2.8535 4.9453a1.0001 1.0001 0 0 0 0.74219 0.9375l8.8516 2.373a1.0001 1.0001 0 0 0 1.25 -0.83008c1.049-7.684-3.241-15.12-10.42-18.057a1.0001 1.0001 0 0 0 -0.39062 -0.074219zm-5.1699 0.99609-1.8887 7.0527c-2.0825 0.28152-3.9109 1.3362-5.1973 2.998l-7.0527-1.8906c2.6894-5.3235 8.1838-8.4956 14.139-8.1602zm5.8027 1.5508c5.3235 2.6894 8.4956 8.1838 8.1602 14.139l-7.0527-1.8887c-0.28152-2.0825-1.3362-3.9109-2.998-5.1973l1.8906-7.0527zm-22.558 10.101a1.0001 1.0001 0 0 0 -0.9532 0.863c-1.0492 7.6858 3.2405 15.121 10.42 18.059a1.0001 1.0001 0 0 0 1.3457 -0.66797l2.3711-8.8535a1.0001 1.0001 0 0 0 -0.439 -1.111c-1.725-1.063-2.797-2.92-2.854-4.945a1.0001 1.0001 0 0 0 -0.74219 -0.9375l-8.8518-2.373a1.0001 1.0001 0 0 0 -0.29688 -0.0332zm1.0645 2.3105 7.0527 1.8887c0.28152 2.0825 1.3362 3.9109 2.998 5.1973l-1.8906 7.0527c-5.324-2.689-8.4956-8.183-8.1602-14.138zm20.756 3.5371a1.0001 1.0001 0 0 0 -0.81445 0.47266c-1.064 1.725-2.921 2.797-4.946 2.854a1.0001 1.0001 0 0 0 -0.9375 0.74219l-2.373 8.8516a1.0001 1.0001 0 0 0 0.83008 1.25c7.6858 1.0492 15.121-3.2405 18.059-10.42a1.0001 1.0001 0 0 0 -0.66797 -1.3457l-8.8535-2.3711a1.0001 1.0001 0 0 0 -0.29687 -0.0332zm0.29297 2.1016 7.0527 1.8906c-2.6894 5.3235-8.1838 8.4956-14.139 8.1602l1.8887-7.0527c2.0825-0.28152 3.9109-1.3362 5.1973-2.998z"/>
 <circle id="path3755-9" opacity=".6" stroke-width=".94845" stroke="#242424" cy="24" cx="24" r="20.526" fill="none"/>
 <circle id="path3773-9" opacity=".6" stroke-width=".93261" stroke-opacity=".58824" stroke="url(#linearGradient4450)" cy="24" cx="24" r="19.54" fill="none"/>
 <path id="path4401" d="m30.045 9.1783-2.3726 8.8546a7.0096 7.0096 0 0 1 3.3278 5.7694l8.8527 2.3721a16.022 16.022 0 0 0 -9.808 -16.996zm-3.871-1.0311a16.022 16.022 0 0 0 -16.996 9.8078l8.8546 2.3726a7.0096 7.0096 0 0 1 5.7694 -3.3278l2.372-8.8528zm-18.027 13.679a16.022 16.022 0 0 0 9.8079 16.996l2.3726-8.8546a7.0096 7.0096 0 0 1 -3.328 -5.769l-8.8528-2.372zm21.82 5.8466a7.0096 7.0096 0 0 1 -5.7694 3.3278l-2.3721 8.8527a16.022 16.022 0 0 0 16.996 -9.8079l-8.8546-2.3726z" fill="#e09a5c"/>
 <path id="path4399" opacity=".5" d="m24.578 8.0098a16.022 16.022 0 0 0 -15.4 9.9452l8.855 2.373a7.0096 7.0096 0 0 1 5.77 -3.328l2.371-8.8535a16.022 16.022 0 0 0 -1.596 -0.1367zm-0.826 1.1425c0.368-0.0061 0.739 0.0006 1.111 0.0215l-1.888 7.0532c-2.083 0.281-3.911 1.336-5.198 2.998l-7.052-1.891c2.521-4.991 7.507-8.0901 13.027-8.1817zm6.293 0.0254l-2.373 8.8553a7.0096 7.0096 0 0 1 3.328 5.77l8.854 2.371a16.022 16.022 0 0 0 -9.809 -16.996zm0.621 1.5473c5.324 2.689 8.496 8.183 8.16 14.138l-7.053-1.888c-0.281-2.083-1.336-3.911-2.998-5.198l1.891-7.052zm-22.52 11.101a16.022 16.022 0 0 0 9.8085 16.996l2.373-8.855a7.0096 7.0096 0 0 1 -3.328 -5.77l-8.8535-2.371zm1.0273 1.311l7.0532 1.888c0.281 2.083 1.336 3.911 2.998 5.198l-1.891 7.052c-5.324-2.689-8.4956-8.183-8.1602-14.138zm20.793 4.535a7.0096 7.0096 0 0 1 -5.77 3.328l-2.371 8.854a16.022 16.022 0 0 0 16.996 -9.809l-8.855-2.373zm0.256 1.103l7.052 1.891c-2.689 5.324-8.183 8.496-14.138 8.16l1.888-7.053c2.083-0.281 3.911-1.336 5.198-2.998z" fill="url(#linearGradient4414)"/>
</svg>
