<?xml version="1.0" encoding="UTF-8" standalone="no"?>
<!-- Created with Inkscape (http://www.inkscape.org/) -->

<svg
   xmlns:dc="http://purl.org/dc/elements/1.1/"
   xmlns:cc="http://creativecommons.org/ns#"
   xmlns:rdf="http://www.w3.org/1999/02/22-rdf-syntax-ns#"
   xmlns:svg="http://www.w3.org/2000/svg"
   xmlns="http://www.w3.org/2000/svg"
   xmlns:xlink="http://www.w3.org/1999/xlink"
   xmlns:sodipodi="http://sodipodi.sourceforge.net/DTD/sodipodi-0.dtd"
   xmlns:inkscape="http://www.inkscape.org/namespaces/inkscape"
   version="1.1"
   width="48"
   height="48"
   id="svg4951"
   inkscape:version="0.91 r"
   sodipodi:docname="thunderbird.svg">
  <sodipodi:namedview
     pagecolor="#b3b3b3"
     bordercolor="#666666"
     borderopacity="1"
     objecttolerance="10"
     gridtolerance="10"
     guidetolerance="10"
     inkscape:pageopacity="0"
     inkscape:pageshadow="2"
     inkscape:window-width="1600"
     inkscape:window-height="845"
     id="namedview154"
     showgrid="false"
     inkscape:zoom="1"
     inkscape:cx="28.228117"
     inkscape:cy="20.813142"
     inkscape:window-x="0"
     inkscape:window-y="30"
     inkscape:window-maximized="1"
     inkscape:current-layer="svg4951" />
  <defs
     id="defs4953">
    <linearGradient
       x1="38.851257"
       y1="41.608219"
       x2="34.130882"
       y2="37.809635"
       id="linearGradient4761"
       xlink:href="#linearGradient6455-7-3"
       gradientUnits="userSpaceOnUse" />
    <linearGradient
       id="linearGradient6455-7-3">
      <stop
         id="stop6457-5-1"
         style="stop-color:#fbac9b;stop-opacity:1"
         offset="0" />
      <stop
         id="stop6459-8-9"
         style="stop-color:#fcfafc;stop-opacity:1"
         offset="1" />
    </linearGradient>
    <linearGradient
       x1="38.851257"
       y1="41.608219"
       x2="34.130882"
       y2="37.809635"
       id="linearGradient4763"
       xlink:href="#linearGradient6413-0-0"
       gradientUnits="userSpaceOnUse" />
    <linearGradient
       id="linearGradient6413-0-0">
      <stop
         id="stop6415-1-7"
         style="stop-color:#feffff;stop-opacity:1"
         offset="0" />
      <stop
         id="stop6417-4-9"
         style="stop-color:#fe70ca;stop-opacity:1"
         offset="1" />
    </linearGradient>
    <radialGradient
       cx="36.49107"
       cy="39.708927"
       r="3.1589286"
       fx="36.49107"
       fy="39.708927"
       id="radialGradient4765"
       xlink:href="#linearGradient6303-33-0-2"
       gradientUnits="userSpaceOnUse" />
    <linearGradient
       id="linearGradient6303-33-0-2">
      <stop
         id="stop6305-1-0-2"
         style="stop-color:#ffffff;stop-opacity:1"
         offset="0" />
      <stop
         id="stop6307-5-0-6"
         style="stop-color:#ffffff;stop-opacity:0"
         offset="1" />
    </linearGradient>
    <radialGradient
       cx="36.49107"
       cy="39.708927"
       r="3.1589286"
       fx="36.49107"
       fy="39.708927"
       id="radialGradient4767"
       xlink:href="#linearGradient6303-3-2-1"
       gradientUnits="userSpaceOnUse" />
    <linearGradient
       id="linearGradient6303-3-2-1">
      <stop
         id="stop6305-3-0-9"
         style="stop-color:#ffffff;stop-opacity:1"
         offset="0" />
      <stop
         id="stop6307-1-0-1"
         style="stop-color:#ffffff;stop-opacity:0"
         offset="1" />
    </linearGradient>
    <radialGradient
       cx="36.49107"
       cy="39.708927"
       r="3.1589286"
       fx="36.49107"
       fy="39.708927"
       id="radialGradient4769"
       xlink:href="#linearGradient6303-4-8"
       gradientUnits="userSpaceOnUse" />
    <linearGradient
       id="linearGradient6303-4-8">
      <stop
         id="stop6305-33-3"
         style="stop-color:#ffffff;stop-opacity:1"
         offset="0" />
      <stop
         id="stop6307-9-3"
         style="stop-color:#ffffff;stop-opacity:0"
         offset="1" />
    </linearGradient>
    <radialGradient
       cx="32.372566"
       cy="31.405056"
       r="3.857446"
       fx="32.372566"
       fy="31.405056"
       id="radialGradient4771"
       xlink:href="#linearGradient6088-6-1-0"
       gradientUnits="userSpaceOnUse"
       gradientTransform="matrix(2.0664963,0,0,2.0664963,-34.525221,-33.493375)" />
    <linearGradient
       id="linearGradient6088-6-1-0">
      <stop
         id="stop6090-2-0-4"
         style="stop-color:#ff54d2;stop-opacity:0"
         offset="0" />
      <stop
         id="stop6257-4-6-1"
         style="stop-color:#ff54d2;stop-opacity:0"
         offset="0.32368398" />
      <stop
         id="stop6255-3-6-7"
         style="stop-color:#ff54d2;stop-opacity:0.2521739"
         offset="0.56140333" />
      <stop
         id="stop6092-9-6-8"
         style="stop-color:#ff54d2;stop-opacity:0.47826087"
         offset="1" />
    </linearGradient>
    <radialGradient
       cx="32.372566"
       cy="31.405056"
       r="3.857446"
       fx="32.372566"
       fy="31.405056"
       id="radialGradient4773"
       xlink:href="#linearGradient6191-8-3-4"
       gradientUnits="userSpaceOnUse"
       gradientTransform="matrix(2.0676498,0.55402509,-0.5348486,1.9960821,-17.765612,-49.217228)" />
    <linearGradient
       id="linearGradient6191-8-3-4">
      <stop
         id="stop6193-75-7-6"
         style="stop-color:#ffffff;stop-opacity:0"
         offset="0" />
      <stop
         id="stop6197-3-4-1"
         style="stop-color:#ffffff;stop-opacity:0"
         offset="0.40531859" />
      <stop
         id="stop6195-7-2-5"
         style="stop-color:#ffffff;stop-opacity:0.47826087"
         offset="1" />
    </linearGradient>
    <radialGradient
       cx="32.372566"
       cy="31.405056"
       r="3.857446"
       fx="32.372566"
       fy="31.405056"
       id="radialGradient4775"
       xlink:href="#linearGradient6191-7-9-4"
       gradientUnits="userSpaceOnUse"
       gradientTransform="matrix(2.0676498,0.55402509,-0.5348486,1.9960821,-17.765612,-49.217228)" />
    <linearGradient
       id="linearGradient6191-7-9-4">
      <stop
         id="stop6193-7-3-6"
         style="stop-color:#ffffff;stop-opacity:0"
         offset="0" />
      <stop
         id="stop6197-2-2-0"
         style="stop-color:#ffffff;stop-opacity:0"
         offset="0.40531859" />
      <stop
         id="stop6195-2-1-9"
         style="stop-color:#ffffff;stop-opacity:0.47826087"
         offset="1" />
    </linearGradient>
    <radialGradient
       cx="32.372566"
       cy="31.405056"
       r="3.857446"
       fx="32.372566"
       fy="31.405056"
       id="radialGradient4777"
       xlink:href="#linearGradient6191-9-9"
       gradientUnits="userSpaceOnUse"
       gradientTransform="matrix(2.0676498,0.55402509,-0.5348486,1.9960821,-17.765612,-49.217228)" />
    <linearGradient
       id="linearGradient6191-9-9">
      <stop
         id="stop6193-8-1"
         style="stop-color:#ffffff;stop-opacity:0"
         offset="0" />
      <stop
         id="stop6197-8-8"
         style="stop-color:#ffffff;stop-opacity:0"
         offset="0.40531859" />
      <stop
         id="stop6195-9-3"
         style="stop-color:#ffffff;stop-opacity:0.47826087"
         offset="1" />
    </linearGradient>
    <linearGradient
       x1="68.313301"
       y1="52.925316"
       x2="68.313301"
       y2="65.922028"
       id="linearGradient4730"
       xlink:href="#linearGradient3990-3-1-7"
       gradientUnits="userSpaceOnUse"
       gradientTransform="matrix(0.11534799,0,0,0.0865106,16.28139,17.444973)" />
    <linearGradient
       id="linearGradient3990-3-1-7">
      <stop
         id="stop3992-0-0-1"
         style="stop-color:#ffffff;stop-opacity:1"
         offset="0" />
      <stop
         id="stop3994-2-1-8"
         style="stop-color:#ffffff;stop-opacity:0"
         offset="1" />
    </linearGradient>
    <linearGradient
       x1="92.696327"
       y1="16.554602"
       x2="92.696327"
       y2="48.983677"
       id="linearGradient4779"
       xlink:href="#linearGradient4316-4-6-6-4"
       gradientUnits="userSpaceOnUse" />
    <linearGradient
       id="linearGradient4316-4-6-6-4">
      <stop
         id="stop4318-4-4-6-5"
         style="stop-color:#ffffff;stop-opacity:1"
         offset="0" />
      <stop
         id="stop4320-2-2-6-59"
         style="stop-color:#ffffff;stop-opacity:0.23529412"
         offset="0.33799788" />
      <stop
         id="stop4322-4-5-5-0"
         style="stop-color:#ffffff;stop-opacity:0.15686275"
         offset="0.61996669" />
      <stop
         id="stop4324-4-1-5-5"
         style="stop-color:#ffffff;stop-opacity:0.39215687"
         offset="1" />
    </linearGradient>
    <radialGradient
       cx="32.372566"
       cy="31.405056"
       r="3.857446"
       fx="32.372566"
       fy="31.405056"
       id="radialGradient4781"
       xlink:href="#linearGradient6088-74-4"
       gradientUnits="userSpaceOnUse"
       gradientTransform="matrix(2.0664963,0,0,2.0664963,-34.525221,-33.493375)" />
    <linearGradient
       id="linearGradient6088-74-4">
      <stop
         id="stop6090-5-66"
         style="stop-color:#ff54d2;stop-opacity:0"
         offset="0" />
      <stop
         id="stop6257-5-4"
         style="stop-color:#f62b68;stop-opacity:1"
         offset="0.32368398" />
      <stop
         id="stop6255-6-7"
         style="stop-color:#ff0105;stop-opacity:1"
         offset="0.56140333" />
      <stop
         id="stop6092-0-22"
         style="stop-color:#ff54d2;stop-opacity:0.47826087"
         offset="1" />
    </linearGradient>
    <linearGradient
       x1="92.696327"
       y1="16.554602"
       x2="92.696327"
       y2="48.983677"
       id="linearGradient4783"
       xlink:href="#linearGradient4316-4-0-7"
       gradientUnits="userSpaceOnUse" />
    <linearGradient
       id="linearGradient4316-4-0-7">
      <stop
         id="stop4318-4-5-3"
         style="stop-color:#ffffff;stop-opacity:1"
         offset="0" />
      <stop
         id="stop4320-2-9-4"
         style="stop-color:#ffffff;stop-opacity:0.23529412"
         offset="0.33799788" />
      <stop
         id="stop4322-4-1-3"
         style="stop-color:#ffffff;stop-opacity:0.15686275"
         offset="0.61996669" />
      <stop
         id="stop4324-4-8-66"
         style="stop-color:#ffffff;stop-opacity:0.39215687"
         offset="1" />
    </linearGradient>
    <radialGradient
       cx="95.838364"
       cy="95.388451"
       r="9.4981718"
       fx="95.838364"
       fy="95.388451"
       id="radialGradient4738"
       xlink:href="#linearGradient4278-3-5"
       gradientUnits="userSpaceOnUse"
       gradientTransform="matrix(0.40504519,-6.0397343e-8,5.6748136e-8,0.38056881,-14.881685,-12.451151)" />
    <linearGradient
       id="linearGradient4278-3-5">
      <stop
         id="stop4280-6-90"
         style="stop-color:#000000;stop-opacity:0"
         offset="0" />
      <stop
         id="stop4286-1-9"
         style="stop-color:#000000;stop-opacity:0"
         offset="0.5" />
      <stop
         id="stop4282-24-4"
         style="stop-color:#000000;stop-opacity:1"
         offset="1" />
    </linearGradient>
    <radialGradient
       cx="23.896"
       cy="3.99"
       r="20.396999"
       id="radialGradient4741"
       xlink:href="#linearGradient2867-449-88-871-390-598-476-591-434-148-57-177-691-4-22"
       gradientUnits="userSpaceOnUse"
       gradientTransform="matrix(0,0.41038782,-0.54170722,0,26.16143,10.43124)" />
    <linearGradient
       id="linearGradient2867-449-88-871-390-598-476-591-434-148-57-177-691-4-22">
      <stop
         id="stop7191-4-6"
         style="stop-color:#612f91;stop-opacity:1"
         offset="0" />
      <stop
         id="stop7197-2-8"
         style="stop-color:#1a4aa2;stop-opacity:1"
         offset="1" />
    </linearGradient>
    <linearGradient
       x1="7.0776"
       y1="3.0816"
       x2="7.0776"
       y2="45.368999"
       id="linearGradient4743"
       xlink:href="#linearGradient3087-408-5-3"
       gradientUnits="userSpaceOnUse"
       gradientTransform="matrix(0.17195169,0,0,0.17195091,19.87316,19.873055)" />
    <linearGradient
       x1="7.0776"
       y1="3.0816"
       x2="7.0776"
       y2="45.368999"
       id="linearGradient3087-408-5-3"
       gradientUnits="userSpaceOnUse"
       gradientTransform="matrix(0.22110724,0,0,0.22110728,6.6934256,6.693263)">
      <stop
         id="stop7201-5-71"
         style="stop-color:#170418;stop-opacity:1"
         offset="0" />
      <stop
         id="stop7203-2-8"
         style="stop-color:#50386b;stop-opacity:1"
         offset="1" />
    </linearGradient>
    <radialGradient
       cx="31.999998"
       cy="21.239277"
       r="10.498171"
       fx="31.999998"
       fy="21.239277"
       id="radialGradient4748"
       xlink:href="#linearGradient6042-1-7"
       gradientUnits="userSpaceOnUse"
       gradientTransform="matrix(0,1.4370509,-3.3103161,0,94.30873,-29.673199)" />
    <linearGradient
       id="linearGradient6042-1-7">
      <stop
         id="stop6044-9-6"
         style="stop-color:#07132d;stop-opacity:1"
         offset="0" />
      <stop
         id="stop6046-9-5"
         style="stop-color:#425479;stop-opacity:1"
         offset="1" />
    </linearGradient>
    <radialGradient
       cx="91.349998"
       cy="16.447752"
       r="15.639286"
       fx="91.349998"
       fy="16.447752"
       id="radialGradient4785"
       xlink:href="#linearGradient4507-6-5"
       gradientUnits="userSpaceOnUse"
       gradientTransform="matrix(0,1.9804002,-1.9804002,0,123.92313,-164.4618)" />
    <linearGradient
       id="linearGradient4507-6-5">
      <stop
         id="stop4509-3-8"
         style="stop-color:#2d3955;stop-opacity:1"
         offset="0" />
      <stop
         id="stop5959-4-45"
         style="stop-color:#2b3853;stop-opacity:1"
         offset="0.72468865" />
      <stop
         id="stop5961-1-7"
         style="stop-color:#192640;stop-opacity:1"
         offset="0.75" />
      <stop
         id="stop4511-1-0"
         style="stop-color:#08142e;stop-opacity:1"
         offset="1" />
    </linearGradient>
    <linearGradient
       x1="92.696327"
       y1="16.554602"
       x2="92.696327"
       y2="48.983677"
       id="linearGradient4787"
       xlink:href="#linearGradient4316-5-3"
       gradientUnits="userSpaceOnUse" />
    <linearGradient
       id="linearGradient4316-5-3">
      <stop
         id="stop4318-1-6"
         style="stop-color:#ffffff;stop-opacity:1"
         offset="0" />
      <stop
         id="stop4320-9-8"
         style="stop-color:#ffffff;stop-opacity:0.23529412"
         offset="0.33799788" />
      <stop
         id="stop4322-42-31"
         style="stop-color:#ffffff;stop-opacity:0.15686275"
         offset="0.61996669" />
      <stop
         id="stop4324-9-9"
         style="stop-color:#ffffff;stop-opacity:0.39215687"
         offset="1" />
    </linearGradient>
    <linearGradient
       x1="91.566116"
       y1="16.542858"
       x2="91.566116"
       y2="48.631081"
       id="linearGradient4789"
       xlink:href="#linearGradient4220-7-2"
       gradientUnits="userSpaceOnUse" />
    <linearGradient
       id="linearGradient4220-7-2">
      <stop
         id="stop4222-7-5"
         style="stop-color:#7a8498;stop-opacity:1"
         offset="0" />
      <stop
         id="stop4224-0-5"
         style="stop-color:#34405c;stop-opacity:1"
         offset="1" />
    </linearGradient>
    <linearGradient
       x1="51.199997"
       y1="8.1142893"
       x2="51.199997"
       y2="56.114563"
       id="linearGradient4756"
       xlink:href="#linearGradient4164-9"
       gradientUnits="userSpaceOnUse"
       gradientTransform="matrix(0.66665978,0,0,0.66665668,-10.209335,2.6672249)" />
    <linearGradient
       id="linearGradient4164-9">
      <stop
         id="stop4166-3"
         style="stop-color:#b6b6b6;stop-opacity:1"
         offset="0" />
      <stop
         id="stop4216-6"
         style="stop-color:#a4a4a4;stop-opacity:1"
         offset="0.33095336" />
      <stop
         id="stop4168-0"
         style="stop-color:#c5c5c5;stop-opacity:1"
         offset="1" />
    </linearGradient>
    <linearGradient
       x1="71.204407"
       y1="15.369057"
       x2="71.204407"
       y2="40.495617"
       id="linearGradient3177"
       xlink:href="#linearGradient4806-2"
       gradientUnits="userSpaceOnUse"
       gradientTransform="matrix(1.6169806,0,0,1.6169806,-92.707374,-21.060237)" />
    <linearGradient
       id="linearGradient4806-2">
      <stop
         id="stop4808-4"
         style="stop-color:#ffffff;stop-opacity:1"
         offset="0" />
      <stop
         id="stop4810-0"
         style="stop-color:#ffffff;stop-opacity:0.23529412"
         offset="0.42447853" />
      <stop
         id="stop4812-8"
         style="stop-color:#ffffff;stop-opacity:0.15686275"
         offset="0.82089913" />
      <stop
         id="stop4814-0"
         style="stop-color:#ffffff;stop-opacity:0.39215687"
         offset="1" />
    </linearGradient>
    <radialGradient
       cx="23.896"
       cy="3.99"
       r="20.396999"
       fx="23.896"
       fy="3.99"
       id="radialGradient4201"
       xlink:href="#radialGradient3093-0-3-6-6"
       gradientUnits="userSpaceOnUse"
       gradientTransform="matrix(0,2.8885219,-3.8127977,0,39.21344,-65.949504)" />
    <radialGradient
       cx="23.896"
       cy="3.99"
       r="20.396999"
       id="radialGradient3093-0-3-6-6"
       gradientUnits="userSpaceOnUse"
       gradientTransform="matrix(0,1.2316483,-1.625754,0,18.486966,-28.721977)">
      <stop
         id="stop3244-9-33-7-0-9"
         style="stop-color:#ffffff;stop-opacity:1"
         offset="0" />
      <stop
         id="stop3246-3-5-0-8-5"
         style="stop-color:#dddddd;stop-opacity:1"
         offset="0.26238" />
      <stop
         id="stop3248-1-7-8-8-1"
         style="stop-color:#abacae;stop-opacity:1"
         offset="0.66093999" />
      <stop
         id="stop3250-9-3-0-5-1"
         style="stop-color:#89898b;stop-opacity:1"
         offset="1" />
    </radialGradient>
    <linearGradient
       id="linearGradient3820-7-2-1">
      <stop
         id="stop3822-2-6-3"
         style="stop-color:#3d3d3d;stop-opacity:1"
         offset="0" />
      <stop
         id="stop3864-8-7-7"
         style="stop-color:#686868;stop-opacity:0.49803922"
         offset="0.5" />
      <stop
         id="stop3824-1-2-5"
         style="stop-color:#686868;stop-opacity:0"
         offset="1" />
    </linearGradient>
    <radialGradient
       cx="99.157013"
       cy="186.17059"
       r="62.769119"
       fx="99.157013"
       fy="186.17059"
       id="radialGradient4949"
       xlink:href="#linearGradient3820-7-2-1"
       gradientUnits="userSpaceOnUse"
       gradientTransform="matrix(0.27083381,0,0,0.08762273,-2.85507,25.187228)" />
    <linearGradient
       id="linearGradient8838">
      <stop
         offset="0"
         style="stop-color:#000000;stop-opacity:1"
         id="stop8840" />
      <stop
         offset="1"
         style="stop-color:#000000;stop-opacity:0"
         id="stop8842" />
    </linearGradient>
    <linearGradient
       id="linearGradient4422">
      <stop
         id="stop4424"
         style="stop-color:#e4e4e4;stop-opacity:1;"
         offset="0" />
      <stop
         id="stop4426"
         style="stop-color:#d2d2d3;stop-opacity:1;"
         offset="0.37188172" />
      <stop
         id="stop4428"
         style="stop-color:#ababac;stop-opacity:1;"
         offset="0.81009638" />
      <stop
         id="stop4430"
         style="stop-color:#888889;stop-opacity:1;"
         offset="1" />
    </linearGradient>
    <linearGradient
       id="linearGradient5873">
      <stop
         style="stop-color:#8b8b8b;stop-opacity:1;"
         offset="0"
         id="stop5875" />
      <stop
         style="stop-color:#c0c0c0;stop-opacity:1;"
         offset="1"
         id="stop5877" />
    </linearGradient>
    <linearGradient
       id="linearGradient3162">
      <stop
         style="stop-color:#f9f9f9;stop-opacity:1;"
         offset="0"
         id="stop3164" />
      <stop
         style="stop-color:#d4d4d4;stop-opacity:1"
         offset="1"
         id="stop3166" />
    </linearGradient>
    <linearGradient
       id="linearGradient4436">
      <stop
         style="stop-color:#efefef;stop-opacity:1;"
         offset="0"
         id="stop4438" />
      <stop
         style="stop-color:#ffffff;stop-opacity:1;"
         offset="1"
         id="stop4440" />
    </linearGradient>
    <linearGradient
       id="linearGradient4965"
       inkscape:collect="always">
      <stop
         id="stop4967"
         offset="0"
         style="stop-color:#000000;stop-opacity:1;" />
      <stop
         id="stop4969"
         offset="1"
         style="stop-color:#000000;stop-opacity:0" />
    </linearGradient>
    <linearGradient
       inkscape:collect="always"
       xlink:href="#linearGradient4644-104-3-3-6-2-3-4"
       id="linearGradient10060"
       gradientUnits="userSpaceOnUse"
       gradientTransform="matrix(1.3333333,0,0,1.1052632,-8.0000008,-2.526316)"
       x1="24.25"
       y1="29.5"
       x2="24.25"
       y2="18.454639" />
    <linearGradient
       id="linearGradient4644-104-3-3-6-2-3-4">
      <stop
         offset="0"
         style="stop-color:#ff4035;stop-opacity:1;"
         id="stop5237-6-5-1-7-5-2" />
      <stop
         offset="1"
         style="stop-color:#dc311a;stop-opacity:1;"
         id="stop5239-4-6-4-8-4-8" />
    </linearGradient>
    <radialGradient
       inkscape:collect="always"
       xlink:href="#linearGradient3820-7-2-1"
       id="radialGradient3302"
       gradientUnits="userSpaceOnUse"
       gradientTransform="matrix(0.27083381,0,0,0.08762273,-2.85507,25.187228)"
       cx="99.157013"
       cy="186.17059"
       fx="99.157013"
       fy="186.17059"
       r="62.769119" />
    <radialGradient
       inkscape:collect="always"
       xlink:href="#linearGradient4422"
       id="radialGradient3392"
       gradientUnits="userSpaceOnUse"
       gradientTransform="matrix(0,2.4988347,-2.6434689,-6.8014435e-8,104.09953,-11.248822)"
       cx="5.3215203"
       cy="8.4497671"
       fx="5.3215203"
       fy="8.4497671"
       r="19.99999" />
    <linearGradient
       inkscape:collect="always"
       xlink:href="#linearGradient5873"
       id="linearGradient3394"
       gradientUnits="userSpaceOnUse"
       gradientTransform="translate(57.762712,0.93164569)"
       x1="23.75"
       y1="44.25"
       x2="24.000118"
       y2="1.1171311" />
    <radialGradient
       inkscape:collect="always"
       xlink:href="#linearGradient3162"
       id="radialGradient3396"
       gradientUnits="userSpaceOnUse"
       gradientTransform="matrix(9.7678889e-8,2.0000001,-2.7333333,1.3349447e-7,67.82222,-34.333337)"
       cx="25"
       cy="15.666667"
       fx="25"
       fy="15.666667"
       r="10" />
    <linearGradient
       inkscape:collect="always"
       xlink:href="#linearGradient4436"
       id="linearGradient3398"
       gradientUnits="userSpaceOnUse"
       x1="24.777349"
       y1="24.616444"
       x2="24.777349"
       y2="31.493454" />
    <linearGradient
       inkscape:collect="always"
       xlink:href="#linearGradient4965"
       id="linearGradient3400"
       gradientUnits="userSpaceOnUse"
       x1="24.777349"
       y1="18.226145"
       x2="24.777349"
       y2="22.31111" />
    <linearGradient
       inkscape:collect="always"
       xlink:href="#linearGradient4644-104-3-3-6-2-3-4"
       id="linearGradient3402"
       gradientUnits="userSpaceOnUse"
       gradientTransform="matrix(1.3333333,0,0,1.1052632,49.762711,-1.5946703)"
       x1="24.25"
       y1="29.5"
       x2="24.25"
       y2="18.454639" />
    <linearGradient
       id="linearGradient3765">
      <stop
         style="stop-color:#ffffff;stop-opacity:1;"
         offset="0"
         id="stop3767" />
      <stop
         style="stop-color:#e4e4e4;stop-opacity:1;"
         offset="1"
         id="stop3769" />
    </linearGradient>
    <linearGradient
       inkscape:collect="always"
       xlink:href="#linearGradient3775"
       id="linearGradient3039"
       gradientUnits="userSpaceOnUse"
       x1="15.123692"
       y1="-18.801283"
       x2="15.123692"
       y2="32.56842"
       gradientTransform="matrix(0.76259476,0,0,0.76259472,12.400853,18.788789)" />
    <linearGradient
       id="linearGradient3775">
      <stop
         style="stop-color:#ffffff;stop-opacity:0.58823532;"
         offset="0"
         id="stop3777" />
      <stop
         style="stop-color:#ffffff;stop-opacity:1;"
         offset="1"
         id="stop3779" />
    </linearGradient>
    <linearGradient
       id="linearGradient3772-6">
      <stop
         id="stop3774-6"
         style="stop-color:#b4b4b4;stop-opacity:1"
         offset="0" />
      <stop
         id="stop3776-4"
         style="stop-color:#969696;stop-opacity:1"
         offset="1" />
    </linearGradient>
    <linearGradient
       id="linearGradient5159">
      <stop
         id="stop5161"
         offset="0"
         style="stop-color:#52769e;stop-opacity:1;" />
      <stop
         id="stop5163"
         offset="1"
         style="stop-color:#d1dbe7;stop-opacity:1;" />
    </linearGradient>
    <linearGradient
       id="linearGradient4196-7">
      <stop
         style="stop-color:#1d446f;stop-opacity:1;"
         offset="0"
         id="stop4198-6" />
      <stop
         style="stop-color:#5892d4;stop-opacity:1;"
         offset="1"
         id="stop4200-8" />
    </linearGradient>
    <linearGradient
       id="linearGradient5171">
      <stop
         id="stop5173"
         offset="0"
         style="stop-color:#5892d4;stop-opacity:1;" />
      <stop
         id="stop5175"
         offset="1"
         style="stop-color:#1d446f;stop-opacity:1;" />
    </linearGradient>
    <linearGradient
       id="linearGradient5177">
      <stop
         id="stop5179"
         offset="0"
         style="stop-color:#102640;stop-opacity:1;" />
      <stop
         id="stop5181"
         offset="1"
         style="stop-color:#77a6dd;stop-opacity:1;" />
    </linearGradient>
    <linearGradient
       id="linearGradient3091">
      <stop
         id="stop3093"
         offset="0"
         style="stop-color:#52769e;stop-opacity:1;" />
      <stop
         id="stop3095"
         offset="1"
         style="stop-color:#d1dbe7;stop-opacity:1;" />
    </linearGradient>
    <linearGradient
       id="linearGradient3098">
      <stop
         style="stop-color:#1d446f;stop-opacity:1;"
         offset="0"
         id="stop3100" />
      <stop
         style="stop-color:#5892d4;stop-opacity:1;"
         offset="1"
         id="stop3102" />
    </linearGradient>
    <linearGradient
       id="linearGradient3105">
      <stop
         id="stop3107"
         offset="0"
         style="stop-color:#102640;stop-opacity:1;" />
      <stop
         id="stop3109"
         offset="1"
         style="stop-color:#77a6dd;stop-opacity:1;" />
    </linearGradient>
    <linearGradient
       inkscape:collect="always"
       xlink:href="#linearGradient5189"
       id="linearGradient4856"
       gradientUnits="userSpaceOnUse"
       x1="36.164028"
       y1="133.54155"
       x2="36.164028"
       y2="155.99516" />
    <linearGradient
       id="linearGradient5189"
       inkscape:collect="always">
      <stop
         id="stop5191"
         offset="0"
         style="stop-color:#ffffff;stop-opacity:1;" />
      <stop
         id="stop5193"
         offset="1"
         style="stop-color:#ffffff;stop-opacity:0;" />
    </linearGradient>
    <linearGradient
       inkscape:collect="always"
       xlink:href="#linearGradient3772-6"
       id="linearGradient3253"
       gradientUnits="userSpaceOnUse"
       gradientTransform="matrix(1.4102564,0,0,1.4102564,1.4050412,-4.5399056)"
       x1="27.096104"
       y1="10.880992"
       x2="27.096104"
       y2="39.150768" />
    <linearGradient
       inkscape:collect="always"
       xlink:href="#linearGradient5183"
       id="linearGradient3041"
       gradientUnits="userSpaceOnUse"
       gradientTransform="matrix(0.73041891,0,0,0.73052503,328.8163,82.599033)"
       x1="35.600998"
       y1="158.72585"
       x2="35.600998"
       y2="190.47586" />
    <linearGradient
       id="linearGradient5183">
      <stop
         id="stop5185"
         offset="0"
         style="stop-color:#bd1717;stop-opacity:1;" />
      <stop
         id="stop5187"
         offset="1"
         style="stop-color:#bdb317;stop-opacity:1;" />
    </linearGradient>
    <linearGradient
       id="SVGID_22_"
       gradientUnits="userSpaceOnUse"
       x1="1303.6699"
       y1="-1882.04"
       x2="1347.9393"
       y2="-1837.7706"
       gradientTransform="matrix(0.205,0,0,-0.205,-254.45295,-370.45833)">
      <stop
         offset="0"
         stop-color="#A5B4D3"
         id="stop206" />
      <stop
         offset="1"
         stop-color="#A5B4D3"
         stop-opacity="0.33"
         id="stop208" />
    </linearGradient>
    <radialGradient
       id="SVGID_24_"
       cx="1311.9355"
       cy="-1874.3018"
       r="8.5094995"
       gradientTransform="matrix(0.205,0,0,-0.205,-254.45295,-370.45833)"
       gradientUnits="userSpaceOnUse">
      <stop
         offset="0"
         stop-color="#600000"
         id="stop222" />
      <stop
         offset="0.5"
         stop-color="#C00000"
         id="stop224" />
      <stop
         offset="1"
         stop-color="#F6AA00"
         id="stop226" />
    </radialGradient>
    <radialGradient
       id="SVGID_25_"
       cx="1312.9648"
       cy="-1872.2422"
       r="3.7997"
       gradientTransform="matrix(0.205,0,0,-0.205,-254.45295,-370.45833)"
       gradientUnits="userSpaceOnUse">
      <stop
         offset="0.01"
         stop-color="#FFF"
         id="stop231" />
      <stop
         offset="1"
         stop-color="#000"
         id="stop233" />
    </radialGradient>
    <radialGradient
       id="SVGID_26_"
       cx="1304.8555"
       cy="-1894.6313"
       r="12.9691"
       gradientTransform="matrix(0.205,0,0,-0.205,-254.45295,-370.45833)"
       gradientUnits="userSpaceOnUse">
      <stop
         offset="0"
         stop-color="#769EB8"
         id="stop238" />
      <stop
         offset="1"
         stop-color="#FFF"
         id="stop240" />
    </radialGradient>
    <radialGradient
       id="SVGID_27_"
       cx="1300.6055"
       cy="-1889.6313"
       r="3.7781999"
       gradientTransform="matrix(0.205,0,0,-0.205,-254.45295,-370.45833)"
       gradientUnits="userSpaceOnUse">
      <stop
         offset="0.01"
         stop-color="#FFF"
         id="stop247" />
      <stop
         offset="1"
         stop-color="#000"
         id="stop249" />
    </radialGradient>
    <linearGradient
       x1="20.052792"
       y1="10.636821"
       x2="20.052792"
       y2="45.243549"
       id="linearGradient3086"
       xlink:href="#linearGradient3600"
       gradientUnits="userSpaceOnUse"
       gradientTransform="matrix(0.71111115,0,0,0.60365893,7.028952,1.8273961)" />
    <linearGradient
       id="linearGradient3600">
      <stop
         id="stop3602"
         style="stop-color:#f4f4f4;stop-opacity:1"
         offset="0" />
      <stop
         id="stop3604"
         style="stop-color:#dbdbdb;stop-opacity:1"
         offset="1" />
    </linearGradient>
    <linearGradient
       x1="25.525208"
       y1="30.188753"
       x2="25.525208"
       y2="15.737678"
       id="linearGradient3083"
       xlink:href="#linearGradient3866"
       gradientUnits="userSpaceOnUse"
       gradientTransform="matrix(0.73482181,0,0,0.63395351,6.4600526,-0.0575971)"
       spreadMethod="reflect" />
    <linearGradient
       id="linearGradient3866">
      <stop
         id="stop3868"
         style="stop-color:#a0a0a0;stop-opacity:1"
         offset="0" />
      <stop
         id="stop3872"
         style="stop-color:#8f8f8f;stop-opacity:0.63478261"
         offset="0.5" />
      <stop
         id="stop3870"
         style="stop-color:#9d9d9d;stop-opacity:0"
         offset="1" />
    </linearGradient>
    <linearGradient
       x1="25.525208"
       y1="30.188753"
       x2="25.525208"
       y2="15.737678"
       id="linearGradient3080"
       xlink:href="#linearGradient6303-33-0-2"
       gradientUnits="userSpaceOnUse"
       gradientTransform="matrix(0.73482181,0,0,0.63395351,6.4600526,1.1214465)"
       spreadMethod="reflect" />
    <linearGradient
       x1="23.903786"
       y1="35.75"
       x2="23.903786"
       y2="20.443331"
       id="linearGradient3077"
       xlink:href="#linearGradient4278-3-5"
       gradientUnits="userSpaceOnUse"
       gradientTransform="matrix(0.73336033,0,0,0.67656012,6.5656876,0.1034949)" />
    <linearGradient
       x1="25.525208"
       y1="30.188753"
       x2="25.525208"
       y2="15.737678"
       id="linearGradient3074"
       xlink:href="#linearGradient6303-33-0-2"
       gradientUnits="userSpaceOnUse"
       gradientTransform="matrix(0.73482181,0,0,0.63395351,6.4600526,-1.4523956)"
       spreadMethod="reflect" />
    <linearGradient
       x1="16.626165"
       y1="15.298182"
       x2="20.054544"
       y2="24.627615"
       id="linearGradient3071"
       xlink:href="#linearGradient6303-33-0-2"
       gradientUnits="userSpaceOnUse"
       gradientTransform="matrix(0.69472025,0,0,0.70483487,7.3898324,4.7308058)" />
    <linearGradient
       x1="23.99999"
       y1="4.999989"
       x2="23.99999"
       y2="43"
       id="linearGradient3068"
       xlink:href="#linearGradient3924-803-0"
       gradientUnits="userSpaceOnUse"
       gradientTransform="matrix(0.8378378,0,0,0.51351349,3.9875121,6.4326526)" />
    <linearGradient
       id="linearGradient3924-803-0">
      <stop
         id="stop3252-06"
         style="stop-color:#ffffff;stop-opacity:1"
         offset="0" />
      <stop
         id="stop3254-1"
         style="stop-color:#ffffff;stop-opacity:0.23529412"
         offset="0.06316455" />
      <stop
         id="stop3256-0"
         style="stop-color:#ffffff;stop-opacity:0.15686275"
         offset="0.95056331" />
      <stop
         id="stop3258-2"
         style="stop-color:#ffffff;stop-opacity:0.39215687"
         offset="1" />
    </linearGradient>
    <linearGradient
       x1="25.525208"
       y1="35.429005"
       x2="25.525208"
       y2="15.737678"
       id="linearGradient4330"
       xlink:href="#linearGradient3866-6"
       gradientUnits="userSpaceOnUse"
       gradientTransform="matrix(0.73482181,0,0,0.63395351,6.4600526,-0.0575971)"
       spreadMethod="reflect" />
    <linearGradient
       id="linearGradient3866-6">
      <stop
         id="stop3868-7"
         style="stop-color:#969696;stop-opacity:1"
         offset="0" />
      <stop
         id="stop3872-0"
         style="stop-color:#858585;stop-opacity:0.63478261"
         offset="0.5" />
      <stop
         id="stop3870-0"
         style="stop-color:#939393;stop-opacity:0"
         offset="1" />
    </linearGradient>
  </defs>
  <metadata
     id="metadata4956">
    <rdf:RDF>
      <cc:Work
         rdf:about="">
        <dc:format>image/svg+xml</dc:format>
        <dc:type
           rdf:resource="http://purl.org/dc/dcmitype/StillImage" />
        <dc:title />
      </cc:Work>
    </rdf:RDF>
  </metadata>
  <circle
     style="opacity:1;fill:#429ad1;fill-opacity:1;fill-rule:nonzero;stroke:none;stroke-width:1.69200003;stroke-linecap:round;stroke-linejoin:bevel;stroke-miterlimit:4;stroke-dasharray:none;stroke-opacity:1"
     id="path5845"
     cx="24"
     cy="24"
     r="20.5" />
  <path
     style="fill:url(#radialGradient3302);fill-opacity:1;stroke:none"
     id="path3818-0-5"
     inkscape:connector-curvature="0"
     d="m 41,41.5 a 17,5.4999999 0 0 1 -34,0 17,5.4999999 0 1 1 34,0 z" />
  <path
     style="fill:#e9ead3;fill-opacity:1;stroke:none"
     d="m 7.6230469,13.5625 c -3.441,6.254 0.4549844,10.869141 0.4589843,10.869141 C 7.6852562,24.825622 6.2593838,23.861976 5.09375,22.107422 l 0.00781,0.06836 c 0,0 0.00875,0.574819 0.033203,1.330078 l 0.00195,0.002 c -0.00516,0 0.6208522,5.829288 2.6875,10.039063 1.4734917,2.045254 3.232367,4.207953 5.023437,5.339844 l -0.0059,0 c 0,0 -4.089891,-0.298575 -7.7285156,-6.992188 -0.015157,-0.02719 -0.033845,-0.05078 -0.048828,-0.07813 C 8.2257128,39.491962 15.698951,44.507781 24,44.525391 c 7.653731,-0.0048 14.669061,-4.2676 18.199219,-11.058594 -0.717852,0.89221 -1.529051,1.59076 -2.417969,1.833984 0.79,-1.553 1.797297,-3.922359 1.654297,-5.693359 -0.414,2.246 -2.008235,4.490078 -2.990235,5.705078 -0.125,-0.031 -0.244328,-0.06819 -0.361328,-0.117188 -0.31,-0.161 -0.583453,-0.377625 -0.814453,-0.640624 0.699,-1.503001 1.414016,-3.439266 1.291016,-4.947266 -0.276,1.484 -1.06461,2.966297 -1.849609,4.154297 -1.154001,-2.098 -1.138438,-5.560782 -1.023438,-7.425781 0.037,-0.419 0.07352,-0.843391 0.103516,-1.275391 -1.31e-4,-0.0032 1.24e-4,-0.0065 0,-0.0098 -0.007,0 -0.0069,0.0028 -0.0039,0.0078 -0.008,-0.09604 -0.02414,-0.179094 -0.0332,-0.273438 -1.605369,3.310766 -4.342537,3.695313 -4.339844,3.695313 2.906,-3.903 1.916204,-10.342219 -0.716796,-14.199219 -0.08859,-0.129081 -0.183212,-0.248772 -0.275391,-0.371094 -1.350506,0.598278 -3.126773,0.786761 -4.482422,0.933594 -1.937,0.209 -3.774797,-0.653984 -5.716797,-0.458984 -1.472,0.146 -2.514765,0.93625 -3.759765,1.65625 -0.209,0.209 -0.86161,0.607531 -1.09961,0.769531 l -1.5625,0.785156 c -0.007,0 -2.124718,1.024422 -2.261719,2.357422 -1.272997,-1.273 -0.126812,-4.099609 -0.132812,-4.099609 -0.006,0 0.01178,0.03856 0.05078,0.101562 L 11.421875,15.0625 c -0.03,-1.27 -0.616844,-3.333 0.03516,-4.625 0.823,-2.327 3.607,-3.7764219 5.5,-5.1074219 C 12.526474,6.5649443 8.6940134,11.804211 7.6230469,13.5625 Z"
     id="path2985"
     inkscape:connector-curvature="0"
     sodipodi:nodetypes="ccccccccccccccccccccccccccccccccccsccccc" />
  <path
     transform="matrix(0.80270962,0,0,0.80270962,11.790704,18.514669)"
     d="m 40.780711,6.8335247 a 25.570608,25.570608 0 1 1 -51.141216,0 25.570608,25.570608 0 1 1 51.141216,0 z"
     sodipodi:ry="25.570608"
     sodipodi:rx="25.570608"
     sodipodi:cy="6.8335247"
     sodipodi:cx="15.210103"
     id="path3755"
     style="fill:none;stroke:#00426b;stroke-width:1.18156528;stroke-miterlimit:4;stroke-opacity:1;stroke-dasharray:none;opacity:0.6"
     sodipodi:type="arc" />
  <path
     d="m 13.576447,16.16097 c 4.767,-0.154 2.239,-3.402 8.602,-9.553 -5.184,3.008 -10.583,2.94 -8.595,9.553 l -0.007,0 z"
     id="path210"
     inkscape:connector-curvature="0"
     style="fill:#e9ead3;fill-opacity:1" />
  <path
     d="m 13.576447,16.16097 c 0.838,-1.214 3.674,-5.93 8.602,-9.553 -5.184,3.008 -10.583,2.94 -8.595,9.553 l -0.007,0 z"
     id="path217"
     style="fill:#e9ead3;fill-opacity:1"
     inkscape:connector-curvature="0" />
  <path
     d="m 16.032447,14.26497 c -0.896,0.896 -1.969,0.687 -2.053,-0.494 -0.131,-1.669 1.659,-1.846 2.438,-1.591 0.263,0.756 -0.07,1.495 -0.379,2.085"
     id="path219"
     inkscape:connector-curvature="0"
     style="fill:#ffffff;fill-opacity:1;stroke:none;stroke-opacity:1;stroke-width:0.5;stroke-miterlimit:4;stroke-dasharray:none" />
  <path
     d="m 16.118447,14.04097 c -0.289,0.539 -0.964,0.756 -1.337,0.554 -0.381,-0.203 -0.379,-0.882 -0.084,-1.421 0.285,-0.54 1.544,-0.297 1.55,-0.297 0.006,-10e-4 0.16,0.627 -0.129,1.164 z"
     id="path228"
     inkscape:connector-curvature="0"
     style="fill:#4a4a4a;fill-opacity:1" />
  <path
     d="m 13.851447,17.52697 c 0,0 0,-0.513 -0.148,-1.025 -1.765,0.599 -2.311,-0.648 -2.305,-0.648 0.006,0 -1.142,2.828 0.131,4.101 0.137,-1.333 2.255,-2.358 2.262,-2.358"
     id="path242"
     inkscape:connector-curvature="0"
     style="fill:#636363;fill-opacity:1" />
  <path
     d="m 13.781447,17.59597 0.07,-0.069 c 0,0 0,-0.513 -0.148,-1.025 -2.807,1.503 -2.175,3.453 -2.169,3.453 0.129,-1.333 2.247,-2.358 2.253,-2.358 l -0.006,0 z"
     id="path244"
     inkscape:connector-curvature="0"
     style="fill:#4a4a4a;fill-opacity:1" />
  <g
     id="g4374"
     style="font-style:normal;font-weight:normal;font-size:20.66431427px;line-height:125%;font-family:Sans;letter-spacing:0px;word-spacing:0px;fill:none;fill-opacity:1;stroke:#ffffff;stroke-width:2.00000001;stroke-linecap:round;stroke-linejoin:round;stroke-opacity:1;stroke-miterlimit:4;stroke-dasharray:none;opacity:0.15"
     transform="scale(1.0078785,0.99218308)">
    <path
       id="path4376"
       style="fill:none;fill-opacity:1;stroke:#ffffff;stroke-opacity:1;stroke-width:2.00000001;stroke-miterlimit:4;stroke-dasharray:none;stroke-linejoin:round;stroke-linecap:round"
       d="m 17.240442,30.296893 q 0,1.44287 0.71639,2.270249 0.71639,0.81729 1.96755,0.81729 1.241069,0 1.947369,-0.82738 0.71639,-0.827379 0.71639,-2.260159 0,-1.4126 -0.72648,-2.239979 -0.72648,-0.83747 -1.957459,-0.83747 -1.22089,0 -1.94737,0.82738 -0.71639,0.827379 -0.71639,2.250069 z m 5.499049,3.016909 q -0.6054,0.77693 -1.39242,1.15026 -0.776929,0.36324 -1.816199,0.36324 -1.73548,0 -2.825199,-1.25116 -1.07963,-1.26125 -1.07963,-3.279249 0,-2.018 1.08972,-3.279249 1.089719,-1.26125 2.815109,-1.26125 1.03927,0 1.826289,0.38342 0.78702,0.37333 1.38233,1.14017 l 0,-1.32179 1.44287,0 0,7.426238 q 1.473139,-0.22198 2.300519,-1.34197 0.83747,-1.130079 0.83747,-2.916009 0,-1.079629 -0.32288,-2.028089 -0.31279,-0.94846 -0.95855,-1.75566 -1.04936,-1.321789 -2.562859,-2.017999 -1.50341,-0.7063 -3.279249,-0.7063 -1.24107,0 -2.38124,0.33297 -1.140169,0.32288 -2.108809,0.96864 -1.58413,1.029179 -2.482139,2.704119 -0.88792,1.664849 -0.88792,3.612219 0,1.604309 0.57513,3.006819 0.58522,1.40251 1.685029,2.472049 1.05945,1.04936 2.45187,1.59422 1.392419,0.55495 2.976549,0.55495 1.301609,0 2.552769,-0.44396 1.26125,-0.43387 2.310609,-1.25116 l 0.9081,1.11999 q -1.26125,0.97873 -2.754569,1.49332 -1.48323,0.524679 -3.016909,0.524679 -1.86665,0 -3.521409,-0.665939 -1.65476,-0.65585 -2.946279,-1.9171 -1.29152,-1.26125 -1.96755,-2.916009 -0.67603,-1.66485 -0.67603,-3.571859 0,-1.83638 0.68612,-3.501229 0.68612,-1.66485 1.95746,-2.926099 1.301609,-1.28143 3.006819,-1.95746 1.705209,-0.68612 3.612219,-0.68612 2.139079,0 3.965369,0.87783 1.836379,0.87783 3.077449,2.49223 0.75675,0.988819 1.150259,2.149169 0.4036,1.16035 0.4036,2.401419 0,2.65367 -1.604309,4.187349 -1.60431,1.53368 -4.429509,1.59422 l 0,-1.55386 z" />
  </g>
  <g
     transform="scale(1.0078785,0.99218308)"
     style="font-style:normal;font-weight:normal;font-size:20.66431427px;line-height:125%;font-family:Sans;letter-spacing:0px;word-spacing:0px;fill:none;fill-opacity:1;stroke:#ffffff;stroke-width:1;stroke-linecap:round;stroke-linejoin:round;stroke-opacity:1;stroke-miterlimit:4;stroke-dasharray:none;opacity:0.15"
     id="g4378">
    <path
       d="m 17.240442,30.296893 q 0,1.44287 0.71639,2.270249 0.71639,0.81729 1.96755,0.81729 1.241069,0 1.947369,-0.82738 0.71639,-0.827379 0.71639,-2.260159 0,-1.4126 -0.72648,-2.239979 -0.72648,-0.83747 -1.957459,-0.83747 -1.22089,0 -1.94737,0.82738 -0.71639,0.827379 -0.71639,2.250069 z m 5.499049,3.016909 q -0.6054,0.77693 -1.39242,1.15026 -0.776929,0.36324 -1.816199,0.36324 -1.73548,0 -2.825199,-1.25116 -1.07963,-1.26125 -1.07963,-3.279249 0,-2.018 1.08972,-3.279249 1.089719,-1.26125 2.815109,-1.26125 1.03927,0 1.826289,0.38342 0.78702,0.37333 1.38233,1.14017 l 0,-1.32179 1.44287,0 0,7.426238 q 1.473139,-0.22198 2.300519,-1.34197 0.83747,-1.130079 0.83747,-2.916009 0,-1.079629 -0.32288,-2.028089 -0.31279,-0.94846 -0.95855,-1.75566 -1.04936,-1.321789 -2.562859,-2.017999 -1.50341,-0.7063 -3.279249,-0.7063 -1.24107,0 -2.38124,0.33297 -1.140169,0.32288 -2.108809,0.96864 -1.58413,1.029179 -2.482139,2.704119 -0.88792,1.664849 -0.88792,3.612219 0,1.604309 0.57513,3.006819 0.58522,1.40251 1.685029,2.472049 1.05945,1.04936 2.45187,1.59422 1.392419,0.55495 2.976549,0.55495 1.301609,0 2.552769,-0.44396 1.26125,-0.43387 2.310609,-1.25116 l 0.9081,1.11999 q -1.26125,0.97873 -2.754569,1.49332 -1.48323,0.524679 -3.016909,0.524679 -1.86665,0 -3.521409,-0.665939 -1.65476,-0.65585 -2.946279,-1.9171 -1.29152,-1.26125 -1.96755,-2.916009 -0.67603,-1.66485 -0.67603,-3.571859 0,-1.83638 0.68612,-3.501229 0.68612,-1.66485 1.95746,-2.926099 1.301609,-1.28143 3.006819,-1.95746 1.705209,-0.68612 3.612219,-0.68612 2.139079,0 3.965369,0.87783 1.836379,0.87783 3.077449,2.49223 0.75675,0.988819 1.150259,2.149169 0.4036,1.16035 0.4036,2.401419 0,2.65367 -1.604309,4.187349 -1.60431,1.53368 -4.429509,1.59422 l 0,-1.55386 z"
       style="fill:none;fill-opacity:1;stroke:#ffffff;stroke-opacity:1;stroke-width:1;stroke-miterlimit:4;stroke-dasharray:none;stroke-linejoin:round;stroke-linecap:round"
       id="path4380" />
  </g>
  <g
     transform="scale(1.0078785,0.99218308)"
     style="font-style:normal;font-weight:normal;font-size:20.66431427px;line-height:125%;font-family:Sans;letter-spacing:0px;word-spacing:0px;fill:#4a4a4a;fill-opacity:1;stroke:none;stroke-width:1px;stroke-linecap:butt;stroke-linejoin:miter;stroke-opacity:1"
     id="text6066">
    <path
       d="m 17.240442,30.296893 q 0,1.44287 0.71639,2.270249 0.71639,0.81729 1.96755,0.81729 1.241069,0 1.947369,-0.82738 0.71639,-0.827379 0.71639,-2.260159 0,-1.4126 -0.72648,-2.239979 -0.72648,-0.83747 -1.957459,-0.83747 -1.22089,0 -1.94737,0.82738 -0.71639,0.827379 -0.71639,2.250069 z m 5.499049,3.016909 q -0.6054,0.77693 -1.39242,1.15026 -0.776929,0.36324 -1.816199,0.36324 -1.73548,0 -2.825199,-1.25116 -1.07963,-1.26125 -1.07963,-3.279249 0,-2.018 1.08972,-3.279249 1.089719,-1.26125 2.815109,-1.26125 1.03927,0 1.826289,0.38342 0.78702,0.37333 1.38233,1.14017 l 0,-1.32179 1.44287,0 0,7.426238 q 1.473139,-0.22198 2.300519,-1.34197 0.83747,-1.130079 0.83747,-2.916009 0,-1.079629 -0.32288,-2.028089 -0.31279,-0.94846 -0.95855,-1.75566 -1.04936,-1.321789 -2.562859,-2.017999 -1.50341,-0.7063 -3.279249,-0.7063 -1.24107,0 -2.38124,0.33297 -1.140169,0.32288 -2.108809,0.96864 -1.58413,1.029179 -2.482139,2.704119 -0.88792,1.664849 -0.88792,3.612219 0,1.604309 0.57513,3.006819 0.58522,1.40251 1.685029,2.472049 1.05945,1.04936 2.45187,1.59422 1.392419,0.55495 2.976549,0.55495 1.301609,0 2.552769,-0.44396 1.26125,-0.43387 2.310609,-1.25116 l 0.9081,1.11999 q -1.26125,0.97873 -2.754569,1.49332 -1.48323,0.524679 -3.016909,0.524679 -1.86665,0 -3.521409,-0.665939 -1.65476,-0.65585 -2.946279,-1.9171 -1.29152,-1.26125 -1.96755,-2.916009 -0.67603,-1.66485 -0.67603,-3.571859 0,-1.83638 0.68612,-3.501229 0.68612,-1.66485 1.95746,-2.926099 1.301609,-1.28143 3.006819,-1.95746 1.705209,-0.68612 3.612219,-0.68612 2.139079,0 3.965369,0.87783 1.836379,0.87783 3.077449,2.49223 0.75675,0.988819 1.150259,2.149169 0.4036,1.16035 0.4036,2.401419 0,2.65367 -1.604309,4.187349 -1.60431,1.53368 -4.429509,1.59422 l 0,-1.55386 z"
       style="fill:#4a4a4a;fill-opacity:1"
       id="path4382" />
  </g>
  <ellipse
     style="fill:none;stroke:url(#linearGradient3039);stroke-width:0.99997413;stroke-miterlimit:4;stroke-dasharray:none;stroke-opacity:0.58823529"
     id="path3773"
     cx="24"
     cy="24"
     rx="19.500011"
     ry="19.500013" />
</svg>
