<?xml version="1.0" encoding="UTF-8" standalone="no"?>
<!-- Created with Inkscape (http://www.inkscape.org/) -->
<svg id="svg4061" xmlns:rdf="http://www.w3.org/1999/02/22-rdf-syntax-ns#" xmlns="http://www.w3.org/2000/svg" height="48" width="48" version="1.1" xmlns:cc="http://creativecommons.org/ns#" xmlns:xlink="http://www.w3.org/1999/xlink" xmlns:dc="http://purl.org/dc/elements/1.1/">
 <defs id="defs4063">
  <linearGradient id="linearGradient3026" y2="40.496" gradientUnits="userSpaceOnUse" x2="71.204" gradientTransform="matrix(1.617 0 0 1.617 -92.707 -21.06)" y1="15.369" x1="71.204">
   <stop id="stop4808-4" stop-color="#fff" offset="0"/>
   <stop id="stop4810-0" stop-color="#fff" stop-opacity=".23529" offset=".42448"/>
   <stop id="stop4812-8" stop-color="#fff" stop-opacity=".15686" offset=".82090"/>
   <stop id="stop4814-0" stop-color="#fff" stop-opacity=".39216" offset="1"/>
  </linearGradient>
  <radialGradient id="radialGradient3029" fx="4.459" fy="8.5089" gradientUnits="userSpaceOnUse" cy="8.6258" cx="15.026" gradientTransform="matrix(-3.4973e-8 1.8855 -1.7764 -5.4723e-8 39.14 -7.9932)" r="20">
   <stop id="stop4170" stop-color="#ff9696" offset="0"/>
   <stop id="stop4172" stop-color="#fd7676" offset=".26238"/>
   <stop id="stop4174" stop-color="#f94040" offset=".66094"/>
   <stop id="stop4176" stop-color="#e42020" offset="1"/>
  </radialGradient>
  <radialGradient id="radialGradient3032" gradientUnits="userSpaceOnUse" cy="3.99" cx="23.896" gradientTransform="matrix(0 2.8885 -3.8128 0 39.213 -65.95)" r="20.397">
   <stop id="stop3244-9-33-7-0-9" stop-color="#fff" offset="0"/>
   <stop id="stop3246-3-5-0-8-5" stop-color="#ddd" offset=".26238"/>
   <stop id="stop3248-1-7-8-8-1" stop-color="#abacae" offset=".66094"/>
   <stop id="stop3250-9-3-0-5-1" stop-color="#89898b" offset="1"/>
  </radialGradient>
  <radialGradient id="radialGradient3035" gradientUnits="userSpaceOnUse" cy="186.17" cx="99.157" gradientTransform="matrix(.27083 0 0 .087623 -2.8551 25.187)" r="62.769">
   <stop id="stop3822-2-6-3" stop-color="#3d3d3d" offset="0"/>
   <stop id="stop3864-8-7-7" stop-color="#686868" stop-opacity=".49804" offset=".5"/>
   <stop id="stop3824-1-2-5" stop-color="#686868" stop-opacity="0" offset="1"/>
  </radialGradient>
  <linearGradient id="ButtonShadow" y2="7.0165" gradientUnits="userSpaceOnUse" x2="45.448" gradientTransform="scale(1.0059 .99417)" y1="92.54" x1="45.448">
   <stop id="stop3750" offset="0"/>
   <stop id="stop3752" stop-opacity=".58824" offset="1"/>
  </linearGradient>
  <filter id="filter3174" style="color-interpolation-filters:sRGB">
   <feGaussianBlur id="feGaussianBlur3176" stdDeviation="1.71"/>
  </filter>
  <linearGradient id="linearGradient3185" y2="-167.53" xlink:href="#SVGID_14_" gradientUnits="userSpaceOnUse" x2="206.69" gradientTransform="matrix(.72832 0 0 -.72832 -295.83 -108.58)" y1="-167.53" x1="206.69"/>
  <linearGradient id="SVGID_14_" y2="-167.53" gradientUnits="userSpaceOnUse" x2="206.69" gradientTransform="matrix(1 0 0 -1 -270.96 -122.07)" y1="-167.53" x1="206.69">
   <stop id="stop3506" stop-color="#7e9ec4" offset="0"/>
   <stop id="stop3508" stop-color="#151d89" offset="1"/>
  </linearGradient>
  <linearGradient id="linearGradient3182" y2="-167.53" xlink:href="#SVGID_14_" gradientUnits="userSpaceOnUse" x2="206.69" gradientTransform="matrix(.72832 0 0 -.72832 -375.83 -107.58)" y1="-167.53" x1="206.69"/>
 </defs>
 <metadata id="metadata4066">
  <rdf:RDF>
   <cc:Work rdf:about="">
    <dc:format>image/svg+xml</dc:format>
    <dc:type rdf:resource="http://purl.org/dc/dcmitype/StillImage"/>
    <dc:title/>
   </cc:Work>
  </rdf:RDF>
 </metadata>
 <path id="path3818-0-5" d="m41 41.5a17 5.5 0 0 1 -34 0 17 5.5 0 1 1 34 0z" fill="url(#radialGradient3035)"/>
 <path id="path2555-7-2" style="color:#000000" d="m24 3.5c-11.311 0-20.5 9.189-20.5 20.5s9.189 20.5 20.5 20.5 20.5-9.189 20.5-20.5-9.189-20.5-20.5-20.5z" fill="url(#radialGradient3032)"/>
 <path id="path2555-7-65" style="color:#000000" d="m24 3.5c-11.311 0-20.5 9.189-20.5 20.5s9.189 20.5 20.5 20.5 20.5-9.189 20.5-20.5-9.189-20.5-20.5-20.5z" fill="url(#radialGradient3029)"/>
 <path id="path4176" opacity=".5" stroke-linejoin="round" style="color:#000000" d="m43.5 24c0 10.77-8.73 19.5-19.5 19.5s-19.5-8.73-19.5-19.5 8.73-19.5 19.5-19.5 19.5 8.73 19.5 19.5z" stroke="url(#linearGradient3026)" stroke-linecap="round" fill="none"/>
 <path id="path2555-7-1-7" opacity=".5" stroke-linejoin="round" style="color:#000000" d="m24 3.5001c-11.311 0-20.5 9.1888-20.5 20.5s9.1888 20.5 20.5 20.5 20.5-9.1888 20.5-20.5-9.189-20.5-20.5-20.5z" stroke="#980000" stroke-linecap="round" fill="none"/>
 <g id="layer2" display="none" transform="translate(-226.12 -28.077)">
  <rect id="rect3745" opacity=".9" rx="6" ry="6" height="85" filter="url(#filter3174)" width="86" y="7" x="5" fill="url(#ButtonShadow)"/>
 </g>
 <path id="rect3005-5" style="color:#000000" d="m-94.691 12.552v12h-8l10 10 10-10h-8v-12z" fill="#fff"/>
 <g id="g5014" stroke-linejoin="round" transform="translate(0 .50001)" stroke="#000" stroke-linecap="round" fill="none">
  <g id="g4994" opacity=".15" transform="matrix(-.057907 -.65658 .65658 -.057907 8.0242 7.0707)" stroke-width="3.0343">
   <g id="g4996" stroke-linejoin="round" transform="matrix(.045744 0 0 .045744 -48.715 .88763)" stroke="#000" stroke-linecap="round" stroke-width="66.333" fill="none">
    <g id="g4998">
     <path id="path5000" stroke-linejoin="round" d="m862.38 228.53 39.4-37.6c13.899-13.3 8.2-36.7-10.2-42.1l-227.9-66.8c-18.5-5.4-35.899 11.2-31.3 29.9l56 230.7c4.5 18.7 27.601 25.5 41.601 12.2l32.699-31.2c12 31 19.801 63.6 23.301 97.5 6.5 62.2-2.301 125.4-25.601 183-19.6 48.5-49.399 92.898-86.8 129.7-9.4 9.301-10.1 24.301-1.4 34.301l52.5 60.5c9.4 10.799 25.9 11.5 36.301 1.6 51.8-49.9 93-110.7 120-177.2 31.3-77.199 43.1-162 34.399-245.4-6.7-63.3-24.5-123.3-53-179.1z" stroke="#000" stroke-linecap="round" stroke-width="66.333" fill="none"/>
    </g>
    <path id="path5002" d="m55.779 689.63-39.4 37.6c-13.9 13.299-8.2 36.699 10.2 42.1l227.9 66.801c18.5 5.398 35.9-11.201 31.3-29.9l-56-230.7c-4.5-18.699-27.6-25.5-41.6-12.199l-32.7 31.199c-12-31-19.8-63.6-23.3-97.5-6.5-62.2 2.3-125.4 25.6-183 19.6-48.5 49.4-92.9 86.8-129.7 9.4-9.3 10.1-24.3 1.4-34.3l-52.5-60.5c-9.4-10.8-25.9-11.5-36.3-1.6-51.8 49.9-93 110.7-120 177.2-31.3 77.2-43.1 162-34.4 245.4 6.7 63.3 24.5 123.3 53 179.1z"/>
   </g>
  </g>
  <g id="g5004" opacity=".15" transform="matrix(-.057907 -.65658 .65658 -.057907 8.0242 7.0707)" stroke-width="1.5172">
   <g id="g5006" stroke-linejoin="round" transform="matrix(.045744 0 0 .045744 -48.715 .88763)" stroke="#000" stroke-linecap="round" stroke-width="33.166" fill="none">
    <g id="g5008">
     <path id="path5010" stroke-linejoin="round" d="m862.38 228.53 39.4-37.6c13.899-13.3 8.2-36.7-10.2-42.1l-227.9-66.8c-18.5-5.4-35.899 11.2-31.3 29.9l56 230.7c4.5 18.7 27.601 25.5 41.601 12.2l32.699-31.2c12 31 19.801 63.6 23.301 97.5 6.5 62.2-2.301 125.4-25.601 183-19.6 48.5-49.399 92.898-86.8 129.7-9.4 9.301-10.1 24.301-1.4 34.301l52.5 60.5c9.4 10.799 25.9 11.5 36.301 1.6 51.8-49.9 93-110.7 120-177.2 31.3-77.199 43.1-162 34.399-245.4-6.7-63.3-24.5-123.3-53-179.1z" stroke="#000" stroke-linecap="round" stroke-width="33.166" fill="none"/>
    </g>
    <path id="path5012" d="m55.779 689.63-39.4 37.6c-13.9 13.299-8.2 36.699 10.2 42.1l227.9 66.801c18.5 5.398 35.9-11.201 31.3-29.9l-56-230.7c-4.5-18.699-27.6-25.5-41.6-12.199l-32.7 31.199c-12-31-19.8-63.6-23.3-97.5-6.5-62.2 2.3-125.4 25.6-183 19.6-48.5 49.4-92.9 86.8-129.7 9.4-9.3 10.1-24.3 1.4-34.3l-52.5-60.5c-9.4-10.8-25.9-11.5-36.3-1.6-51.8 49.9-93 110.7-120 177.2-31.3 77.2-43.1 162-34.4 245.4 6.7 63.3 24.5 123.3 53 179.1z"/>
   </g>
  </g>
 </g>
 <g id="g4565" fill="#fff" transform="matrix(-.057907 -.65658 .65658 -.057907 8.0242 7.0707)">
  <g id="g4464" fill="#fff" transform="matrix(.045744 0 0 .045744 -48.715 .88763)">
   <g id="g4466">
    <path id="path4468" fill="#fff" d="m862.38 228.53 39.4-37.6c13.899-13.3 8.2-36.7-10.2-42.1l-227.9-66.8c-18.5-5.4-35.899 11.2-31.3 29.9l56 230.7c4.5 18.7 27.601 25.5 41.601 12.2l32.699-31.2c12 31 19.801 63.6 23.301 97.5 6.5 62.2-2.301 125.4-25.601 183-19.6 48.5-49.399 92.898-86.8 129.7-9.4 9.301-10.1 24.301-1.4 34.301l52.5 60.5c9.4 10.799 25.9 11.5 36.301 1.6 51.8-49.9 93-110.7 120-177.2 31.3-77.199 43.1-162 34.399-245.4-6.7-63.3-24.5-123.3-53-179.1z"/>
   </g>
   <path id="path4470" d="m55.779 689.63-39.4 37.6c-13.9 13.299-8.2 36.699 10.2 42.1l227.9 66.801c18.5 5.398 35.9-11.201 31.3-29.9l-56-230.7c-4.5-18.699-27.6-25.5-41.6-12.199l-32.7 31.199c-12-31-19.8-63.6-23.3-97.5-6.5-62.2 2.3-125.4 25.6-183 19.6-48.5 49.4-92.9 86.8-129.7 9.4-9.3 10.1-24.3 1.4-34.3l-52.5-60.5c-9.4-10.8-25.9-11.5-36.3-1.6-51.8 49.9-93 110.7-120 177.2-31.3 77.2-43.1 162-34.4 245.4 6.7 63.3 24.5 123.3 53 179.1z"/>
  </g>
 </g>
</svg>
