<?xml version="1.0" encoding="UTF-8" standalone="no"?>
<!-- Created with Inkscape (http://www.inkscape.org/) -->
<svg id="svg4951" xmlns:rdf="http://www.w3.org/1999/02/22-rdf-syntax-ns#" xmlns="http://www.w3.org/2000/svg" height="48px" width="48px" version="1.1" xmlns:cc="http://creativecommons.org/ns#" xmlns:xlink="http://www.w3.org/1999/xlink" xmlns:dc="http://purl.org/dc/elements/1.1/">
 <defs id="defs4953">
  <linearGradient id="linearGradient3189" y2="40.496" gradientUnits="userSpaceOnUse" x2="71.204" gradientTransform="matrix(1.617 0 0 1.617 -92.707 -21.06)" y1="15.369" x1="71.204">
   <stop id="stop4808-4" stop-color="#fff" offset="0"/>
   <stop id="stop4810-0" stop-color="#fff" stop-opacity=".23529" offset=".42448"/>
   <stop id="stop4812-8" stop-color="#fff" stop-opacity=".15686" offset=".82090"/>
   <stop id="stop4814-0" stop-color="#fff" stop-opacity=".39216" offset="1"/>
  </linearGradient>
  <radialGradient id="radialGradient3192" gradientUnits="userSpaceOnUse" cy="3.99" cx="23.896" gradientTransform="matrix(0 2.8885 -3.8128 0 39.213 -65.95)" r="20.397">
   <stop id="stop5352" stop-color="#edf355" offset="0"/>
   <stop id="stop5354" stop-color="#ba8f1b" offset="1"/>
  </radialGradient>
  <radialGradient id="radialGradient3195" gradientUnits="userSpaceOnUse" cy="186.17" cx="99.157" gradientTransform="matrix(.27083 0 0 .087623 -2.8551 25.187)" r="62.769">
   <stop id="stop3822-2-6-3" stop-color="#3d3d3d" offset="0"/>
   <stop id="stop3864-8-7-7" stop-color="#686868" stop-opacity=".49804" offset=".5"/>
   <stop id="stop3824-1-2-5" stop-color="#686868" stop-opacity="0" offset="1"/>
  </radialGradient>
 </defs>
 <metadata id="metadata4956">
  <rdf:RDF>
   <cc:Work rdf:about="">
    <dc:format>image/svg+xml</dc:format>
    <dc:type rdf:resource="http://purl.org/dc/dcmitype/StillImage"/>
    <dc:title/>
   </cc:Work>
  </rdf:RDF>
 </metadata>
 <g id="layer1">
  <path id="path3818-0-5" d="m41 41.5a17 5.5 0 0 1 -34 0 17 5.5 0 1 1 34 0z" fill="url(#radialGradient3195)"/>
  <path id="path2555-7-2" style="color:#000000" d="m24 3.5c-11.311 0-20.5 9.1888-20.5 20.5s9.1888 20.5 20.5 20.5 20.5-9.1888 20.5-20.5-9.189-20.5-20.5-20.5z" fill="url(#radialGradient3192)"/>
  <path id="path4514" opacity=".15" d="m33 35.39c0.000001 0.74172-2.0611 1.0993-5.0216 1.9192-1.34 0.372-2.416 1.691-4.355 1.691-2.141 0-2.793-1.419-4.087-1.918-2.466-0.949-4.536-1.375-4.536-2.082 0-0.498 0.881-0.804 3.554-1.619 3.113-0.95 5.258-2.381 5.258-2.381s1.8549 1.5532 4.4669 2.3741c2.8223 0.88703 4.7216 1.4565 4.7216 2.0162z"/>
  <path id="path4176" opacity=".3" stroke-linejoin="round" style="color:#000000" d="m43.5 24c0 10.77-8.73 19.5-19.5 19.5s-19.5-8.73-19.5-19.5 8.73-19.5 19.5-19.5 19.5 8.73 19.5 19.5z" stroke="url(#linearGradient3189)" stroke-linecap="round" fill="none"/>
  <path id="path3871" opacity=".7" style="color:#000000" d="m24 3.5c-11.311 0-20.5 9.189-20.5 20.5s9.189 20.5 20.5 20.5 20.5-9.189 20.5-20.5-9.189-20.5-20.5-20.5z" stroke="#c7991c" fill="none"/>
  <g id="g4481" transform="translate(2.1)">
   <path id="path4477" d="m20.906 15.006a7.8329 9.5863 36.676 0 0 -8.199 5.221 7.8329 9.5863 36.676 0 0 1.918 11.943 7.8329 9.5863 36.676 0 0 9.375 -1.502 9.5863 7.8329 53.324 0 0 9.375 1.502 9.5863 7.8329 53.324 0 0 1.918 -11.943 9.5863 7.8329 53.324 0 0 -11.293 -4.672 7.8329 9.5863 36.676 0 0 -3.094 -0.549z" transform="translate(-2.1)" fill="#fff"/>
  </g>
  <path id="path4485" d="m22.807 28.589a2.7461 3.234 45 0 1 -3.8655 2.3522 2.7461 3.234 45 0 1 -1.7487 -3.5309 2.7461 3.234 45 0 1 3.8655 -2.3522 2.7461 3.234 45 0 1 1.7487 3.5309z" fill="#1d1d1d"/>
  <path id="path4488" d="m30.807 27.411a3.234 2.7461 45 0 0 -3.8655 -2.3522 3.234 2.7461 45 0 0 -1.7487 3.5309 3.234 2.7461 45 0 0 3.8655 2.3522 3.234 2.7461 45 0 0 1.7487 -3.5309z" fill="#1d1d1d"/>
  <g id="g4495" opacity=".8" transform="translate(2.1)" fill="#ba8f1b">
   <path id="path4497" opacity="1" d="m20.906 15.006a7.8329 9.5863 36.676 0 0 -8.199 5.221 7.8329 9.5863 36.676 0 0 1.918 11.943 7.8329 9.5863 36.676 0 0 9.375 -1.502 9.5863 7.8329 53.324 0 0 9.375 1.502 9.5863 7.8329 53.324 0 0 1.918 -11.943 9.5863 7.8329 53.324 0 0 -11.293 -4.672 7.8329 9.5863 36.676 0 0 -3.094 -0.549zm0.039 1h0.002c0.956-0.038 1.855 0.125 2.658 0.469a1.0001 1.0001 0 0 0 0.788 0c3.222-1.375 7.673 0.374 10.046 4.271 2.516 4.133 1.685 8.778-1.544 10.547-2.341 1.282-5.595 0.817-8.256-1.395a1.0001 1.0001 0 0 0 -1.278 0c-2.661 2.212-5.915 2.677-8.256 1.395-3.229-1.769-4.06-6.414-1.544-10.547 1.711-2.811 4.622-4.626 7.384-4.74z" transform="translate(-2.1)" fill="#ba8f1b"/>
  </g>
  <path id="path4490" d="m33 34.39c0.000001 0.74172-2.0611 1.0993-5.0216 1.9192-1.34 0.372-2.416 1.691-4.355 1.691-2.141 0-2.793-1.419-4.087-1.918-2.466-0.949-4.536-1.375-4.536-2.082 0-0.498 0.881-0.804 3.554-1.619 3.113-0.95 5.258-2.381 5.258-2.381s1.8549 1.5532 4.4669 2.3741c2.8223 0.88703 4.7216 1.4565 4.7216 2.0162z" fill="#ab7d1b"/>
  <path id="path4493" d="m22.586 12.535s-0.51033-0.0333-3.0638-0.79554c-3.301-0.98539-6.7461 0.30947-6.4738-0.35877 0.27228-0.66824 3.4916-2.6084 6.5076-0.73143z" fill="#1d1d1d"/>
  <path id="path4496" d="m24.997 11.884s0.51033-0.0333 3.0638-0.79554c3.301-0.98539 6.7461 0.30947 6.4738-0.35877-0.27228-0.66824-3.4916-2.6084-6.5076-0.73143z" fill="#1d1d1d"/>
  <path id="path4498" style="color-rendering:auto;text-decoration-color:#000000;color:#000000;isolation:auto;mix-blend-mode:normal;shape-rendering:auto;solid-color:#000000;block-progression:tb;text-decoration-line:none;text-decoration-style:solid;image-rendering:auto;white-space:normal;text-indent:0;text-transform:none" d="m23.945 34.898-9.1012-0.7092 8.9697 0.43499 8.7064-0.37764s-6.4887 0.6793-8.5749 0.65185z" fill-rule="evenodd" fill="#1d1d1d"/>
  <path id="path4506" opacity=".15" style="color-rendering:auto;text-decoration-color:#000000;color:#000000;isolation:auto;mix-blend-mode:normal;shape-rendering:auto;solid-color:#000000;block-progression:tb;text-decoration-line:none;text-decoration-style:solid;image-rendering:auto;white-space:normal;text-indent:0;text-transform:none" d="m23.811 30s-2.143 1.431-5.256 2.381c-2.673 0.815-3.555 1.121-3.555 1.619 0 0.707 2.07 1.133 4.535 2.082 1.294 0.498 1.947 1.918 4.088 1.918 1.939 0 3.015-1.32 4.356-1.691 2.96-0.82 5.021-1.177 5.021-1.918 0-0.56-1.898-1.129-4.721-2.016-2.612-0.821-4.468-2.375-4.468-2.375zm-0.055 1.182c0.634 0.479 2.012 1.452 4.223 2.146 1.359 0.427 2.461 0.773 3.226 1.065-0.816 0.257-2.029 0.547-3.494 0.953-0.898 0.248-1.549 0.73-2.17 1.074s-1.175 0.58-1.918 0.58c-0.849 0-1.277-0.232-1.785-0.59s-1.052-0.918-1.943-1.262c-1.253-0.482-2.375-0.826-3.143-1.115 0.503-0.186 1.051-0.377 2.094-0.695 2.611-0.797 4.23-1.739 4.91-2.156z"/>
 </g>
</svg>
