<?xml version="1.0" encoding="UTF-8" standalone="no"?>
<!-- Created with Inkscape (http://www.inkscape.org/) -->
<svg id="svg4951" xmlns:rdf="http://www.w3.org/1999/02/22-rdf-syntax-ns#" xmlns="http://www.w3.org/2000/svg" height="48px" width="48px" version="1.1" xmlns:cc="http://creativecommons.org/ns#" xmlns:xlink="http://www.w3.org/1999/xlink" xmlns:dc="http://purl.org/dc/elements/1.1/">
 <defs id="defs4953">
  <linearGradient id="linearGradient6303-33-0-2">
   <stop id="stop6305-1-0-2" stop-color="#fff" offset="0"/>
   <stop id="stop6307-5-0-6" stop-color="#fff" stop-opacity="0" offset="1"/>
  </linearGradient>
  <radialGradient id="radialGradient3220" gradientUnits="userSpaceOnUse" cy="186.17" cx="99.157" gradientTransform="matrix(.27083 0 0 .087623 -2.8551 25.187)" r="62.769">
   <stop id="stop3822-2-6-3" stop-color="#3d3d3d" offset="0"/>
   <stop id="stop3864-8-7-7" stop-color="#686868" stop-opacity=".49804" offset=".5"/>
   <stop id="stop3824-1-2-5" stop-color="#686868" stop-opacity="0" offset="1"/>
  </radialGradient>
  <linearGradient id="linearGradient4059-7">
   <stop id="stop4061-2" stop-color="#333" offset="0"/>
   <stop id="stop4063-0" stop-color="#1a1a1a" offset="1"/>
  </linearGradient>
  <radialGradient id="radialGradient4247-7" gradientUnits="userSpaceOnUse" xlink:href="#linearGradient4059-7" cx="33.252" cy="-9.3184" r="25.457" gradientTransform="matrix(-.038904 3.6116 -1.8484 -.019911 15.183 -138.83)"/>
  <radialGradient id="radialGradient4054-0" gradientUnits="userSpaceOnUse" cy="2.0433" cx="14.957" gradientTransform="matrix(-5.9421 -.10893 .16060 -8.7611 120.15 16.77)" r="12.43">
   <stop id="stop3016" stop-color="#ff5e5e" offset="0"/>
   <stop id="stop3014" stop-color="#a92b2b" offset="1"/>
  </radialGradient>
  <radialGradient id="radialGradient4057-8-6" xlink:href="#linearGradient4059-7" gradientUnits="userSpaceOnUse" cy="-76.994" cx="40.572" gradientTransform="matrix(.058702 -1.7283 2.2961 .077986 177.24 30.32)" r="14.664"/>
  <linearGradient id="linearGradient3999-2-9" y2="67.96" xlink:href="#linearGradient6303-33-0-2" gradientUnits="userSpaceOnUse" x2="8.6228" gradientTransform="matrix(-.67123 -.74125 .74125 -.67123 -4.1891e-7 2.575e-7)" y1="9.737" x1="-1.8462"/>
  <radialGradient id="radialGradient4051-1-4" xlink:href="#linearGradient4059-7" gradientUnits="userSpaceOnUse" cy="-162.3" cx="40.572" gradientTransform="matrix(.058702 -1.7283 2.2961 .077986 373.12 36.973)" r="14.664"/>
  <radialGradient id="radialGradient4437-8" xlink:href="#linearGradient4059-7" gradientUnits="userSpaceOnUse" cy="-209.2" cx="46.848" gradientTransform="matrix(.039170 -1.1532 1.5321 .052037 321.52 19.108)" r="21.977"/>
  <linearGradient id="linearGradient4439-0" y2="68.556" xlink:href="#linearGradient6303-33-0-2" gradientUnits="userSpaceOnUse" x2="8.5956" gradientTransform="matrix(-.67123 -.74125 .74125 -.67123 -.46020 .38001)" y1="10.333" x1="-1.8734"/>
  <radialGradient id="radialGradient4432-4" xlink:href="#linearGradient4059-7" gradientUnits="userSpaceOnUse" cy="-209.2" cx="46.848" gradientTransform="matrix(.039170 -1.1532 1.5321 .052037 321.52 19.108)" r="21.977"/>
  <radialGradient id="radialGradient4447-6" xlink:href="#linearGradient4059-7" gradientUnits="userSpaceOnUse" cy="-159.32" cx="46.848" gradientTransform="matrix(.039170 -1.1532 1.5321 .052037 245.1 16.513)" r="21.977"/>
  <linearGradient id="linearGradient4449-9" y2="73.402" xlink:href="#linearGradient6303-33-0-2" gradientUnits="userSpaceOnUse" x2="8.5956" gradientTransform="matrix(-.67123 -.74125 .74125 -.67123 -4.0524 3.6329)" y1="15.179" x1="-1.8734"/>
  <radialGradient id="radialGradient4442-1" xlink:href="#linearGradient4059-7" gradientUnits="userSpaceOnUse" cy="-159.32" cx="46.848" gradientTransform="matrix(.039170 -1.1532 1.5321 .052037 245.1 16.513)" r="21.977"/>
  <linearGradient id="linearGradient4539" y2="62.125" xlink:href="#linearGradient6303-33-0-2" gradientUnits="userSpaceOnUse" x2="2.875" gradientTransform="matrix(-.73183 -.80816 .80816 -.73183 29.759 74.94)" y1="1.5" x1="2.5"/>
 </defs>
 <metadata id="metadata4956">
  <rdf:RDF>
   <cc:Work rdf:about="">
    <dc:format>image/svg+xml</dc:format>
    <dc:type rdf:resource="http://purl.org/dc/dcmitype/StillImage"/>
    <dc:title/>
   </cc:Work>
  </rdf:RDF>
 </metadata>
 <g id="layer1">
  <path id="path3818-0-5" d="m41 41.5a17 5.5 0 0 1 -34 0 17 5.5 0 1 1 34 0z" fill="url(#radialGradient3220)"/>
  <g id="g4211" transform="matrix(.73706 0 0 .73706 1.1174 .22833)">
   <path id="path3607-8-2" d="m49.602 48.308c-11.697 12.918-21.892 12.554-28.892 6.627-10.506-8.895-20.225-41.205-14.684-47.324 5.541-6.1189 40.418 3.191 47.897 9.963 7.4786 6.7722 7.9923 17.136-4.3207 30.734z" fill="url(#radialGradient4247-7)"/>
   <rect id="rect4042-4" fill-opacity=".17901" transform="matrix(-.70315 .71105 -.76978 -.63832 0 0)" ry="1.8388" width="30.218" y="-64.709" x="-9.6986" height="3.6775"/>
   <rect id="rect4044-0" ry="1.8388" fill-opacity=".17901" transform="matrix(-.70315 .71105 -.76978 -.63832 0 0)" height="3.6775" width="30.218" y="-49.157" x="-9.6986"/>
   <rect id="rect4046-6" ry="1.922" fill-opacity=".17901" transform="matrix(-.70315 .71105 -.76978 -.63832 0 0)" height="3.8439" width="19.116" y="-54.424" x="-17.536"/>
   <rect id="rect4048-7" ry="1.922" fill-opacity=".17901" transform="matrix(-.70315 .71105 -.76978 -.63832 0 0)" height="3.8439" width="19.116" y="-54.424" x="9.2407"/>
   <rect id="rect4050-1" ry="1.922" fill-opacity=".17901" transform="matrix(-.70315 .71105 -.76978 -.63832 0 0)" height="3.8439" width="19.116" y="-59.608" x="-17.536"/>
   <rect id="rect4052-5" ry="1.922" fill-opacity=".17901" transform="matrix(-.70315 .71105 -.76978 -.63832 0 0)" height="3.8439" width="19.116" y="-59.608" x="9.2407"/>
   <path id="path4418-9-2" d="m27.926 7.2771-20.746 22.39c-0.215-0.195-5.2973-17.62-1.2083-21.998 4.0893-4.3772 21.246-0.4974 21.954-0.3919z" fill="url(#radialGradient4054-0)"/>
   <rect id="rect4030-9" transform="rotate(132.16)" fill-opacity=".26543" ry="1.719" height="3.4379" width="28.496" y="-63.582" x="-11.473"/>
   <rect id="rect4032-3" transform="rotate(132.16)" fill-opacity=".26543" ry="1.719" height="3.4379" width="28.496" y="-49.044" x="-11.473"/>
   <rect id="rect3197-8-2" stroke-width=".83244" stroke-opacity=".55023" transform="rotate(132.16)" ry="1.719" width="28.496" stroke="url(#linearGradient3999-2-9)" y="-62.39" x="-12.418" height="3.4379" fill="url(#radialGradient4057-8-6)"/>
   <rect id="rect4034-8" transform="rotate(132.16)" fill-opacity=".26543" ry="1.7967" height="3.5935" width="18.027" y="-53.968" x="-18.864"/>
   <rect id="rect3199-6-4" ry="1.719" stroke-opacity=".55023" transform="rotate(132.16)" height="3.4379" width="28.496" stroke="url(#linearGradient3999-2-9)" y="-47.852" x="-12.418" stroke-width=".83244" fill="url(#radialGradient4051-1-4)"/>
   <rect id="rect4036-9" transform="rotate(132.16)" fill-opacity=".26543" ry="1.7967" height="3.5935" width="18.027" y="-53.968" x="6.3863"/>
   <rect id="rect3205-1-3" ry="1.7967" stroke-opacity=".55023" transform="rotate(132.16)" height="3.5935" width="18.027" stroke="url(#linearGradient4439-0)" y="-52.776" x="-19.808" stroke-width=".67690" fill="url(#radialGradient4437-8)"/>
   <rect id="rect4038-0" transform="rotate(132.16)" fill-opacity=".26543" ry="1.7967" height="3.5935" width="18.027" y="-58.814" x="-18.864"/>
   <rect id="rect3207-3-9" ry="1.7967" stroke-opacity=".55023" transform="rotate(132.16)" height="3.5935" width="18.027" stroke="url(#linearGradient4439-0)" y="-52.776" x="5.4422" stroke-width=".67690" fill="url(#radialGradient4432-4)"/>
   <rect id="rect4040-7" transform="rotate(132.16)" fill-opacity=".26543" ry="1.7967" height="3.5935" width="18.027" y="-58.814" x="6.3863"/>
   <rect id="rect3215-2-3" ry="1.7967" stroke-opacity=".55023" transform="rotate(132.16)" height="3.5935" width="18.027" stroke="url(#linearGradient4449-9)" y="-57.622" x="-19.808" stroke-width=".67690" fill="url(#radialGradient4447-6)"/>
   <rect id="rect3217-4-7" ry="1.7967" stroke-opacity=".55023" transform="rotate(132.16)" height="3.5935" width="18.027" stroke="url(#linearGradient4449-9)" y="-57.622" x="5.4422" stroke-width=".67690" fill="url(#radialGradient4442-1)"/>
   <path id="path4398-7-9" opacity="0.98" d="m32.5 0.54688c-9.8605 0-16.631 1.9844-20.873 5.166-4.2421 3.1816-6.0801 7.5411-6.0801 12.787 0 2.4647 1.0783 6.6861 2.8848 11.457s4.3191 10.141 7.1074 15.16c2.7884 5.019 5.8585 9.6929 8.7402 13.062 2.8817 3.3696 5.6488 5.2734 7.2207 5.2734 1.6397 0 4.4461-1.7273 7.4062-4.832s6.1327-7.4585 9.0078-12.281c5.75-9.645 10.276-21.269 10.041-28.304-0.159-4.757-1.896-9.0379-5.859-12.217-3.963-3.1784-10.252-5.2711-19.596-5.2711z" stroke-opacity=".47403" transform="matrix(-.61565 .67987 -.67987 -.61565 69.271 25.905)" stroke="url(#linearGradient4539)" stroke-width="1px" fill="none"/>
   <path id="path4058-6" d="m49.602 48.308c-11.697 12.918-21.892 12.554-28.892 6.627-10.506-8.895-20.225-41.205-14.684-47.324 5.541-6.1189 40.418 3.191 47.897 9.963 7.4786 6.7722 7.9923 17.136-4.3207 30.734z" stroke-opacity=".43210" stroke="#000" fill="none"/>
  </g>
 </g>
</svg>
