<?xml version="1.0" encoding="UTF-8" standalone="no"?>
<!-- Created with Inkscape (http://www.inkscape.org/) -->

<svg
   xmlns:dc="http://purl.org/dc/elements/1.1/"
   xmlns:cc="http://creativecommons.org/ns#"
   xmlns:rdf="http://www.w3.org/1999/02/22-rdf-syntax-ns#"
   xmlns:svg="http://www.w3.org/2000/svg"
   xmlns="http://www.w3.org/2000/svg"
   xmlns:xlink="http://www.w3.org/1999/xlink"
   xmlns:sodipodi="http://sodipodi.sourceforge.net/DTD/sodipodi-0.dtd"
   xmlns:inkscape="http://www.inkscape.org/namespaces/inkscape"
   version="1.1"
   width="48"
   height="48"
   id="svg3996"
   inkscape:version="0.91 r"
   sodipodi:docname="tweetdeck.svg">
  <sodipodi:namedview
     pagecolor="#ffffff"
     bordercolor="#666666"
     borderopacity="1"
     objecttolerance="10"
     gridtolerance="10"
     guidetolerance="10"
     inkscape:pageopacity="0"
     inkscape:pageshadow="2"
     inkscape:window-width="1600"
     inkscape:window-height="845"
     id="namedview37"
     showgrid="true"
     inkscape:zoom="3.52"
     inkscape:cx="26.773978"
     inkscape:cy="12.369551"
     inkscape:window-x="0"
     inkscape:window-y="30"
     inkscape:window-maximized="1"
     inkscape:current-layer="svg3996" />
  <defs
     id="defs3998">
    <linearGradient
       id="linearGradient3828">
      <stop
         id="stop3830"
         offset="0"
         style="stop-color:#1c3d7b;stop-opacity:1;" />
      <stop
         style="stop-color:#1f4286;stop-opacity:1;"
         offset="0.21795046"
         id="stop3840" />
      <stop
         style="stop-color:#163162;stop-opacity:1;"
         offset="0.38381505"
         id="stop3832" />
      <stop
         style="stop-color:#122850;stop-opacity:1;"
         offset="0.76098669"
         id="stop3834" />
      <stop
         id="stop3836"
         offset="1"
         style="stop-color:#0b182f;stop-opacity:1;" />
    </linearGradient>
    <linearGradient
       id="linearGradient3837">
      <stop
         style="stop-color:#0b182f;stop-opacity:0.07843138;"
         offset="0"
         id="stop3839" />
      <stop
         style="stop-color:#0b182f;stop-opacity:0.56470591;"
         offset="1"
         id="stop3841" />
    </linearGradient>
    <linearGradient
       id="linearGradient3829">
      <stop
         style="stop-color:#161616;stop-opacity:1;"
         offset="0"
         id="stop3831" />
      <stop
         id="stop3824"
         offset="0.25"
         style="stop-color:#3c3c3c;stop-opacity:1;" />
      <stop
         id="stop3822"
         offset="0.5"
         style="stop-color:#393939;stop-opacity:1;" />
      <stop
         style="stop-color:#333333;stop-opacity:1;"
         offset="1"
         id="stop3833" />
    </linearGradient>
    <linearGradient
       id="linearGradient3793">
      <stop
         style="stop-color:#7dccff;stop-opacity:1;"
         offset="0"
         id="stop3795" />
      <stop
         style="stop-color:#00a3f7;stop-opacity:1;"
         offset="1"
         id="stop3797" />
    </linearGradient>
    <linearGradient
       x1="132.3414"
       y1="2.2922528"
       x2="132.3414"
       y2="33.33271"
       id="linearGradient6784-9"
       xlink:href="#linearGradient6786-4"
       gradientUnits="userSpaceOnUse"
       gradientTransform="matrix(1.1891887,0,0,1.4107063,-126.14094,-11.842585)" />
    <linearGradient
       id="linearGradient6786-4">
      <stop
         id="stop6788-2"
         style="stop-color:#ffffff;stop-opacity:0.6484375;"
         offset="0" />
      <stop
         id="stop6790-0"
         style="stop-color:#ffffff;stop-opacity:0.23529412"
         offset="0.46352294" />
      <stop
         id="stop6792-0"
         style="stop-color:#ffffff;stop-opacity:0.15686275"
         offset="0.76175833" />
      <stop
         id="stop6794-4"
         style="stop-color:#ffffff;stop-opacity:0.39215687"
         offset="1" />
    </linearGradient>
    <linearGradient
       x1="22.642942"
       y1="26.966721"
       x2="22.642942"
       y2="30.98424"
       id="linearGradient6883"
       xlink:href="#linearGradient3922"
       gradientUnits="userSpaceOnUse"
       gradientTransform="matrix(1.23944,0,0,1.2401758,2.5038689,6.6210943)" />
    <linearGradient
       id="linearGradient3922">
      <stop
         id="stop3924"
         style="stop-color:#000000;stop-opacity:1"
         offset="0" />
      <stop
         id="stop3926-9"
         style="stop-color:#000000;stop-opacity:0"
         offset="1" />
    </linearGradient>
    <linearGradient
       x1="22.642942"
       y1="26.966721"
       x2="22.642942"
       y2="30.98424"
       id="linearGradient6886"
       xlink:href="#linearGradient3922"
       gradientUnits="userSpaceOnUse"
       gradientTransform="matrix(1.3333351,0,0,1.3333351,0.0846107,3.459921)" />
    <linearGradient
       x1="-51.786404"
       y1="53.514328"
       x2="-51.786404"
       y2="3.6336823"
       id="linearGradient3394-3"
       xlink:href="#linearGradient3104-8-8-97-9"
       gradientUnits="userSpaceOnUse"
       gradientTransform="matrix(1.0700435,0,0,1.1244505,78.923391,-1.102116)" />
    <linearGradient
       id="linearGradient3104-8-8-97-9">
      <stop
         id="stop3106-5-4-3-6"
         style="stop-color:#0072ad;stop-opacity:1;"
         offset="0" />
      <stop
         id="stop3108-4-3-7-0"
         style="stop-color:#0098d5;stop-opacity:1;"
         offset="1" />
    </linearGradient>
    <linearGradient
       x1="-60.960796"
       y1="28.233982"
       x2="-60.914154"
       y2="104.84189"
       id="linearGradient6654-1"
       xlink:href="#linearGradient3600-8-3"
       gradientUnits="userSpaceOnUse"
       gradientTransform="matrix(0.58378914,3.5977471e-4,-3.5543764e-4,0.59091266,61.565019,-10.157046)" />
    <linearGradient
       id="linearGradient3600-8-3">
      <stop
         id="stop3828-7-6"
         style="stop-color:#9fd89a;stop-opacity:1;"
         offset="0" />
      <stop
         id="stop3604-2-5"
         style="stop-color:#40b742;stop-opacity:1;"
         offset="1" />
    </linearGradient>
    <linearGradient
       id="linearGradient8838-561-565">
      <stop
         id="stop4621"
         style="stop-color:#0a0a0a;stop-opacity:1"
         offset="0" />
      <stop
         id="stop4623"
         style="stop-color:#0a0a0a;stop-opacity:0"
         offset="1" />
    </linearGradient>
    <radialGradient
       cx="62.625"
       cy="4.625"
       r="10.625"
       fx="62.625"
       fy="4.625"
       id="radialGradient3994"
       xlink:href="#linearGradient8838-561-565"
       gradientUnits="userSpaceOnUse"
       gradientTransform="matrix(2.8862785,0,0,1.0039217,-148.75315,46.023509)" />
    <linearGradient
       inkscape:collect="always"
       xlink:href="#linearGradient6786-4"
       id="linearGradient3015"
       gradientUnits="userSpaceOnUse"
       gradientTransform="matrix(1.1891887,0,0,1.4107063,-126.14094,4.157415)"
       x1="132.3414"
       y1="2.2922528"
       x2="132.3414"
       y2="33.33271" />
    <linearGradient
       inkscape:collect="always"
       xlink:href="#linearGradient3104-8-8-97-9"
       id="linearGradient3026"
       gradientUnits="userSpaceOnUse"
       gradientTransform="matrix(1.0700435,0,0,1.1244505,78.923391,-1.102116)"
       x1="-51.786404"
       y1="53.514328"
       x2="-51.786404"
       y2="3.6336823" />
    <linearGradient
       inkscape:collect="always"
       xlink:href="#linearGradient3600-8-3"
       id="linearGradient3029"
       gradientUnits="userSpaceOnUse"
       gradientTransform="matrix(0.58378914,3.5977471e-4,-3.5543764e-4,0.59091266,61.683663,-10.445182)"
       x1="-60.960796"
       y1="28.233982"
       x2="-60.914154"
       y2="104.84189" />
    <radialGradient
       inkscape:collect="always"
       xlink:href="#linearGradient8838-561-565"
       id="radialGradient3032"
       gradientUnits="userSpaceOnUse"
       gradientTransform="matrix(2.8862785,0,0,1.0039217,-148.75315,46.023509)"
       cx="62.625"
       cy="4.625"
       fx="62.625"
       fy="4.625"
       r="10.625" />
    <radialGradient
       inkscape:collect="always"
       xlink:href="#linearGradient8838-561-565"
       id="radialGradient3846"
       gradientUnits="userSpaceOnUse"
       gradientTransform="matrix(2.8862785,0,0,1.0039217,-148.75315,46.023509)"
       cx="62.625"
       cy="4.625"
       fx="62.625"
       fy="4.625"
       r="10.625" />
    <linearGradient
       inkscape:collect="always"
       xlink:href="#linearGradient3600-8-3"
       id="linearGradient3848"
       gradientUnits="userSpaceOnUse"
       gradientTransform="matrix(0.58378914,3.5977471e-4,-3.5543764e-4,0.59091266,61.683663,-10.445182)"
       x1="-60.960796"
       y1="28.233982"
       x2="-60.914154"
       y2="104.84189" />
    <linearGradient
       inkscape:collect="always"
       xlink:href="#linearGradient3104-8-8-97-9"
       id="linearGradient3850"
       gradientUnits="userSpaceOnUse"
       gradientTransform="matrix(1.0700435,0,0,1.1244505,78.923391,-1.102116)"
       x1="-51.786404"
       y1="53.514328"
       x2="-51.786404"
       y2="3.6336823" />
    <linearGradient
       inkscape:collect="always"
       xlink:href="#linearGradient6786-4"
       id="linearGradient3852"
       gradientUnits="userSpaceOnUse"
       gradientTransform="matrix(1.1891887,0,0,1.4107063,-126.14094,4.157415)"
       x1="132.3414"
       y1="2.2922528"
       x2="132.3414"
       y2="33.33271" />
    <linearGradient
       inkscape:collect="always"
       xlink:href="#linearGradient6786-4"
       id="linearGradient3857"
       gradientUnits="userSpaceOnUse"
       gradientTransform="matrix(1.1891887,0,0,1.4107063,-126.14094,4.157415)"
       x1="132.3414"
       y1="2.2922528"
       x2="132.3414"
       y2="33.33271" />
    <linearGradient
       inkscape:collect="always"
       xlink:href="#linearGradient3104-8-8-97-9"
       id="linearGradient3860"
       gradientUnits="userSpaceOnUse"
       gradientTransform="matrix(1.0700435,0,0,1.1244505,78.923391,-1.102116)"
       x1="-51.786404"
       y1="53.514328"
       x2="-51.786404"
       y2="3.6336823" />
    <linearGradient
       inkscape:collect="always"
       xlink:href="#linearGradient3600-8-3"
       id="linearGradient3863"
       gradientUnits="userSpaceOnUse"
       gradientTransform="matrix(0.58378914,3.5977471e-4,-3.5543764e-4,0.59091266,61.683663,-10.445182)"
       x1="-60.960796"
       y1="28.233982"
       x2="-60.914154"
       y2="104.84189" />
    <radialGradient
       inkscape:collect="always"
       xlink:href="#linearGradient8838-561-565"
       id="radialGradient3866"
       gradientUnits="userSpaceOnUse"
       gradientTransform="matrix(2.8862785,0,0,1.0039217,-148.75315,46.023509)"
       cx="62.625"
       cy="4.625"
       fx="62.625"
       fy="4.625"
       r="10.625" />
    <linearGradient
       inkscape:collect="always"
       xlink:href="#linearGradient3600-8-3"
       id="linearGradient3791"
       gradientUnits="userSpaceOnUse"
       gradientTransform="matrix(0.58378914,3.5977471e-4,-3.5543764e-4,0.59091266,-21.401383,-7.9703083)"
       x1="-60.960796"
       y1="28.233982"
       x2="-60.914154"
       y2="104.84189" />
    <radialGradient
       inkscape:collect="always"
       xlink:href="#linearGradient3793"
       id="radialGradient3801"
       cx="32.530331"
       cy="4.2225037"
       fx="32.530331"
       fy="4.2225037"
       r="29"
       gradientTransform="matrix(-1.2635884,2.7508939e-8,-2.7917323e-8,-1.282347,73.635278,12.467861)"
       gradientUnits="userSpaceOnUse" />
    <linearGradient
       inkscape:collect="always"
       xlink:href="#linearGradient3837"
       id="linearGradient3041"
       gradientUnits="userSpaceOnUse"
       x1="32.336823"
       y1="12.908117"
       x2="32.105118"
       y2="46.584076"
       gradientTransform="matrix(0.91539148,0,0,0.91539148,2.7074727,2.3933796)" />
    <linearGradient
       inkscape:collect="always"
       xlink:href="#linearGradient6786-4"
       id="linearGradient3044"
       gradientUnits="userSpaceOnUse"
       gradientTransform="matrix(1.1891887,0,0,1.4107063,-126.14094,4.157415)"
       x1="132.3414"
       y1="2.2922528"
       x2="132.3414"
       y2="33.33271" />
    <radialGradient
       inkscape:collect="always"
       xlink:href="#linearGradient3793"
       id="radialGradient3047"
       gradientUnits="userSpaceOnUse"
       gradientTransform="matrix(-1.2635884,2.7508939e-8,-2.7917323e-8,-1.282347,73.635278,12.467861)"
       cx="32.530331"
       cy="4.2225037"
       fx="32.530331"
       fy="4.2225037"
       r="29" />
    <linearGradient
       inkscape:collect="always"
       xlink:href="#linearGradient3104-8-8-97-9"
       id="linearGradient3049"
       gradientUnits="userSpaceOnUse"
       gradientTransform="matrix(1.0700435,0,0,1.1244505,78.923391,-1.102116)"
       x1="-51.786404"
       y1="53.514328"
       x2="-51.786404"
       y2="3.6336823" />
    <radialGradient
       inkscape:collect="always"
       xlink:href="#linearGradient8838-561-565"
       id="radialGradient3052"
       gradientUnits="userSpaceOnUse"
       gradientTransform="matrix(2.8862785,0,0,1.0039217,-148.75315,46.023509)"
       cx="62.625"
       cy="4.625"
       fx="62.625"
       fy="4.625"
       r="10.625" />
    <linearGradient
       inkscape:collect="always"
       xlink:href="#linearGradient3828"
       id="linearGradient3838"
       x1="37.766056"
       y1="42.744667"
       x2="29.637123"
       y2="16.44607"
       gradientUnits="userSpaceOnUse" />
    <radialGradient
       inkscape:collect="always"
       xlink:href="#linearGradient8838-561-565"
       id="radialGradient3848"
       gradientUnits="userSpaceOnUse"
       gradientTransform="matrix(2.8862785,0,0,1.0039217,-148.75315,46.023509)"
       cx="62.625"
       cy="4.625"
       fx="62.625"
       fy="4.625"
       r="10.625" />
    <radialGradient
       inkscape:collect="always"
       xlink:href="#linearGradient3793"
       id="radialGradient3850"
       gradientUnits="userSpaceOnUse"
       gradientTransform="matrix(-1.2635884,2.7508939e-8,-2.7917323e-8,-1.282347,73.635278,12.467861)"
       cx="32.530331"
       cy="4.2225037"
       fx="32.530331"
       fy="4.2225037"
       r="29" />
    <linearGradient
       inkscape:collect="always"
       xlink:href="#linearGradient3104-8-8-97-9"
       id="linearGradient3853"
       gradientUnits="userSpaceOnUse"
       gradientTransform="matrix(1.0700435,0,0,1.1244505,78.923391,-1.102116)"
       x1="-51.786404"
       y1="53.514328"
       x2="-51.786404"
       y2="3.6336823" />
    <linearGradient
       inkscape:collect="always"
       xlink:href="#linearGradient6786-4"
       id="linearGradient3855"
       gradientUnits="userSpaceOnUse"
       gradientTransform="matrix(1.1891887,0,0,1.4107063,-126.14094,4.157415)"
       x1="132.3414"
       y1="2.2922528"
       x2="132.3414"
       y2="33.33271" />
    <linearGradient
       inkscape:collect="always"
       xlink:href="#linearGradient3828"
       id="linearGradient3858"
       gradientUnits="userSpaceOnUse"
       x1="37.766056"
       y1="42.744667"
       x2="29.637123"
       y2="16.44607" />
    <linearGradient
       inkscape:collect="always"
       xlink:href="#linearGradient3837"
       id="linearGradient3861"
       gradientUnits="userSpaceOnUse"
       gradientTransform="matrix(0.91539148,0,0,0.91539148,2.7074727,2.3933796)"
       x1="32.336823"
       y1="12.908117"
       x2="32.105118"
       y2="46.584076" />
    <linearGradient
       inkscape:collect="always"
       xlink:href="#linearGradient3828"
       id="linearGradient3864"
       gradientUnits="userSpaceOnUse"
       x1="37.766056"
       y1="42.744667"
       x2="29.637123"
       y2="16.44607" />
    <linearGradient
       inkscape:collect="always"
       xlink:href="#linearGradient3837"
       id="linearGradient3866"
       gradientUnits="userSpaceOnUse"
       gradientTransform="matrix(0.91539148,0,0,0.91539148,2.7074727,2.3933796)"
       x1="32.336823"
       y1="12.908117"
       x2="32.105118"
       y2="46.584076" />
    <linearGradient
       inkscape:collect="always"
       xlink:href="#linearGradient6786-4"
       id="linearGradient3869"
       gradientUnits="userSpaceOnUse"
       gradientTransform="matrix(1.1891887,0,0,1.4107063,-126.14094,4.157415)"
       x1="132.3414"
       y1="2.2922528"
       x2="132.3414"
       y2="33.33271" />
    <radialGradient
       inkscape:collect="always"
       xlink:href="#linearGradient3793"
       id="radialGradient3872"
       gradientUnits="userSpaceOnUse"
       gradientTransform="matrix(-1.2635884,2.7508939e-8,-2.7917323e-8,-1.282347,73.635278,12.467861)"
       cx="32.530331"
       cy="4.2225037"
       fx="32.530331"
       fy="4.2225037"
       r="29" />
    <linearGradient
       inkscape:collect="always"
       xlink:href="#linearGradient3104-8-8-97-9"
       id="linearGradient3874"
       gradientUnits="userSpaceOnUse"
       gradientTransform="matrix(1.0700435,0,0,1.1244505,78.923391,-1.102116)"
       x1="-51.786404"
       y1="53.514328"
       x2="-51.786404"
       y2="3.6336823" />
    <radialGradient
       inkscape:collect="always"
       xlink:href="#linearGradient8838-561-565"
       id="radialGradient3877"
       gradientUnits="userSpaceOnUse"
       gradientTransform="matrix(2.8862785,0,0,1.0039217,-148.75315,46.023509)"
       cx="62.625"
       cy="4.625"
       fx="62.625"
       fy="4.625"
       r="10.625" />
    <radialGradient
       inkscape:collect="always"
       xlink:href="#linearGradient8838-561-565"
       id="radialGradient3842"
       gradientUnits="userSpaceOnUse"
       gradientTransform="matrix(2.8862785,0,0,1.0039217,-148.75315,46.023509)"
       cx="62.625"
       cy="4.625"
       fx="62.625"
       fy="4.625"
       r="10.625" />
    <radialGradient
       inkscape:collect="always"
       xlink:href="#linearGradient3793"
       id="radialGradient3844"
       gradientUnits="userSpaceOnUse"
       gradientTransform="matrix(-1.2635884,2.7508939e-8,-2.7917323e-8,-1.282347,73.635278,12.467861)"
       cx="32.530331"
       cy="4.2225037"
       fx="32.530331"
       fy="4.2225037"
       r="29" />
    <linearGradient
       inkscape:collect="always"
       xlink:href="#linearGradient3104-8-8-97-9"
       id="linearGradient3846"
       gradientUnits="userSpaceOnUse"
       gradientTransform="matrix(1.0700435,0,0,1.1244505,78.923391,-1.102116)"
       x1="-51.786404"
       y1="53.514328"
       x2="-51.786404"
       y2="3.6336823" />
    <linearGradient
       inkscape:collect="always"
       xlink:href="#linearGradient6786-4"
       id="linearGradient3849"
       gradientUnits="userSpaceOnUse"
       gradientTransform="matrix(1.1891887,0,0,1.4107063,-126.14094,4.157415)"
       x1="132.3414"
       y1="2.2922528"
       x2="132.3414"
       y2="33.33271" />
    <linearGradient
       inkscape:collect="always"
       xlink:href="#linearGradient3828"
       id="linearGradient3851"
       gradientUnits="userSpaceOnUse"
       x1="37.766056"
       y1="42.744667"
       x2="29.637123"
       y2="16.44607" />
    <linearGradient
       inkscape:collect="always"
       xlink:href="#linearGradient3837"
       id="linearGradient3854"
       gradientUnits="userSpaceOnUse"
       gradientTransform="matrix(0.91539148,0,0,0.91539148,2.7074727,2.3933796)"
       x1="32.336823"
       y1="12.908117"
       x2="32.105118"
       y2="46.584076" />
    <linearGradient
       inkscape:collect="always"
       xlink:href="#linearGradient6786-4"
       id="linearGradient3865"
       gradientUnits="userSpaceOnUse"
       gradientTransform="matrix(0.87895787,0,0,1.0426868,-92.885961,2.9638671)"
       x1="132.3414"
       y1="2.2922528"
       x2="132.3414"
       y2="33.33271" />
    <radialGradient
       inkscape:collect="always"
       xlink:href="#linearGradient3793"
       id="radialGradient3868"
       gradientUnits="userSpaceOnUse"
       gradientTransform="matrix(-0.93394847,2.0332516e-8,-2.0634363e-8,-0.94781341,54.773431,9.1063169)"
       cx="32.530331"
       cy="4.2225037"
       fx="32.530331"
       fy="4.2225037"
       r="29" />
    <linearGradient
       inkscape:collect="always"
       xlink:href="#linearGradient3104-8-8-97-9"
       id="linearGradient3870"
       gradientUnits="userSpaceOnUse"
       gradientTransform="matrix(0.7908948,0,0,0.83110832,58.682002,-0.92357835)"
       x1="-51.786404"
       y1="53.514328"
       x2="-51.786404"
       y2="3.6336823" />
    <radialGradient
       inkscape:collect="always"
       xlink:href="#linearGradient8838-561-565"
       id="radialGradient3873"
       gradientUnits="userSpaceOnUse"
       gradientTransform="matrix(2.1333176,0,0,0.74202259,-109.59919,33.908101)"
       cx="62.625"
       cy="4.625"
       fx="62.625"
       fy="4.625"
       r="10.625" />
  </defs>
  <metadata
     id="metadata4001">
    <rdf:RDF>
      <cc:Work
         rdf:about="">
        <dc:format>image/svg+xml</dc:format>
        <dc:type
           rdf:resource="http://purl.org/dc/dcmitype/StillImage" />
        <dc:title />
      </cc:Work>
    </rdf:RDF>
  </metadata>
  <g
     id="g4241">
    <path
       d="m 46.666322,37.339959 c 0,4.354213 -10.148138,7.884001 -22.6665,7.884001 -12.518363,0 -22.6665002,-3.529788 -22.6665002,-7.884001 0,-4.354212 10.1481372,-7.884 22.6665002,-7.884 12.518362,0 22.6665,3.529788 22.6665,7.884 l 0,0 z"
       inkscape:connector-curvature="0"
       id="path8836"
       style="display:inline;overflow:visible;visibility:visible;opacity:0.2;fill:url(#radialGradient3873);fill-opacity:1;fill-rule:evenodd;stroke:none;stroke-width:0.99999988;marker:none" />
    <path
       d="M 23.944252,3.9642462 C 23.406759,3.9850082 22.877158,4.0256453 22.333357,4.0775769 10.731951,5.1854193 2.0768027,13.678209 3.0025982,23.002685 3.4647775,27.657666 6.2407624,31.64292 10.334955,34.335086 l 0,0.113334 c 0,0 1.274,2.193675 -3.0551486,7.082751 0,0 4.6883716,0.297074 11.0540826,-4.023002 2.327102,0.452669 4.782972,0.583413 7.332355,0.339973 C 37.267668,36.740305 45.922782,28.304174 44.997001,18.979692 44.158003,10.529386 35.761184,4.2396956 25.555149,3.9642632 c -0.527894,-0.014317 -1.073422,-0.020755 -1.610897,0 z"
       inkscape:connector-curvature="0"
       id="path4111-6"
       style="color:#000000;display:inline;overflow:visible;visibility:visible;fill:url(#radialGradient3868);fill-opacity:1;stroke:url(#linearGradient3870);stroke-width:1;stroke-linecap:butt;stroke-linejoin:round;stroke-miterlimit:4;stroke-dasharray:none;stroke-dashoffset:0;stroke-opacity:1;marker:none;enable-background:accumulate" />
    <path
       sodipodi:nodetypes="cssccscsccsscc"
       d="M 23.976701,4.9609528 C 23.459326,4.980938 22.942441,5.025221 22.406063,5.0764409 11.242125,6.1425087 3.1341789,14.290694 3.9931824,22.942451 c 0.4377453,4.408906 3.0965919,8.086688 7.1674246,10.763493 0.108883,0.454724 0.15175,0.51728 0.307272,1.039733 0.06902,0.372669 0.07417,0.881414 -0.05255,1.547201 -0.199105,1.046157 -0.64474,2.439729 -2.0697826,4.063356 0.8102996,-0.171696 1.1884166,-0.258464 1.5557056,-0.36899 1.858913,-0.559391 3.917129,-1.299329 7.023868,-3.407712 0.159845,-0.109496 0.36407,-0.09128 0.554343,-0.05472 2.255066,0.438657 4.63063,0.56363 7.114068,0.326483 C 36.598969,35.800369 44.867745,27.871554 43.99079,19.038952 43.219676,11.27237 35.388839,5.2271707 25.524242,4.9609528 c -0.520574,-0.014118 -1.034492,-0.019812 -1.547541,0 z"
       id="path3089"
       style="color:#000000;display:inline;overflow:visible;visibility:visible;fill:none;stroke:url(#linearGradient3865);stroke-width:1;stroke-linecap:round;stroke-linejoin:miter;stroke-miterlimit:4;stroke-dasharray:none;stroke-dashoffset:0;stroke-opacity:1;marker:none;enable-background:accumulate"
       inkscape:connector-curvature="0" />
    <g
       transform="translate(0,0.5)"
       id="g4237">
      <path
         d="m 36.999992,13.367463 c -0.956541,0.401632 -1.98471,0.673077 -3.06358,0.795141 1.1011,-0.624965 1.94701,-1.6144 2.345329,-2.793456 -1.030769,0.578699 -2.172299,0.998913 -3.387409,1.225199 -0.972919,-0.981193 -2.359239,-1.594346 -3.893499,-1.594346 -2.945799,0 -5.334288,2.260656 -5.334288,5.048942 0,0.395605 0.04719,0.780993 0.13819,1.150631 -4.43326,-0.210659 -8.363821,-2.220662 -10.994643,-5.275353 -0.45916,0.745678 -0.722202,1.612925 -0.722202,2.538253 0,1.751725 0.941628,3.297097 2.373006,4.202489 -0.874407,-0.02621 -1.696955,-0.253356 -2.416075,-0.631485 -5.08e-4,0.02104 -5.08e-4,0.04221 -5.08e-4,0.06349 0,2.446336 1.838733,4.486856 4.278884,4.950874 -0.447538,0.115297 -0.918787,0.177067 -1.405274,0.177067 -0.343732,0 -0.677884,-0.03174 -1.003638,-0.09056 0.678796,2.005698 2.648749,3.465675 4.982951,3.50628 -1.825577,1.354278 -4.125563,2.161355 -6.624759,2.161355 -0.430573,0 -0.855154,-0.02389 -1.272479,-0.07065 C 13.360615,30.164041 16.164506,31 19.176866,31 c 9.811488,0 15.176976,-7.693624 15.176976,-14.365707 0,-0.21878 -0.0054,-0.436576 -0.01559,-0.653143 1.04234,-0.711839 1.946619,-1.601112 2.66175,-2.613683"
         inkscape:connector-curvature="0"
         id="path4233"
         style="color:#000000;display:inline;overflow:visible;visibility:visible;opacity:0.15;fill:none;fill-opacity:1;fill-rule:nonzero;stroke:#000000;stroke-width:2;stroke-linecap:round;stroke-linejoin:round;stroke-miterlimit:4;stroke-dasharray:none;stroke-opacity:1;marker:none;enable-background:accumulate" />
      <path
         style="color:#000000;display:inline;overflow:visible;visibility:visible;opacity:0.15;fill:none;fill-opacity:1;fill-rule:nonzero;stroke:#000000;stroke-width:1;stroke-linecap:round;stroke-linejoin:round;stroke-miterlimit:4;stroke-dasharray:none;stroke-opacity:1;marker:none;enable-background:accumulate"
         id="path4235"
         inkscape:connector-curvature="0"
         d="m 36.999992,13.367463 c -0.956541,0.401632 -1.98471,0.673077 -3.06358,0.795141 1.1011,-0.624965 1.94701,-1.6144 2.345329,-2.793456 -1.030769,0.578699 -2.172299,0.998913 -3.387409,1.225199 -0.972919,-0.981193 -2.359239,-1.594346 -3.893499,-1.594346 -2.945799,0 -5.334288,2.260656 -5.334288,5.048942 0,0.395605 0.04719,0.780993 0.13819,1.150631 -4.43326,-0.210659 -8.363821,-2.220662 -10.994643,-5.275353 -0.45916,0.745678 -0.722202,1.612925 -0.722202,2.538253 0,1.751725 0.941628,3.297097 2.373006,4.202489 -0.874407,-0.02621 -1.696955,-0.253356 -2.416075,-0.631485 -5.08e-4,0.02104 -5.08e-4,0.04221 -5.08e-4,0.06349 0,2.446336 1.838733,4.486856 4.278884,4.950874 -0.447538,0.115297 -0.918787,0.177067 -1.405274,0.177067 -0.343732,0 -0.677884,-0.03174 -1.003638,-0.09056 0.678796,2.005698 2.648749,3.465675 4.982951,3.50628 -1.825577,1.354278 -4.125563,2.161355 -6.624759,2.161355 -0.430573,0 -0.855154,-0.02389 -1.272479,-0.07065 C 13.360615,30.164041 16.164506,31 19.176866,31 c 9.811488,0 15.176976,-7.693624 15.176976,-14.365707 0,-0.21878 -0.0054,-0.436576 -0.01559,-0.653143 1.04234,-0.711839 1.946619,-1.601112 2.66175,-2.613683" />
    </g>
    <path
       d="m 36.999992,13.367463 c -0.956541,0.401632 -1.98471,0.673077 -3.06358,0.795141 1.1011,-0.624965 1.94701,-1.6144 2.345329,-2.793456 -1.030769,0.578699 -2.172299,0.998913 -3.387409,1.225199 -0.972919,-0.981193 -2.359239,-1.594346 -3.893499,-1.594346 -2.945799,0 -5.334288,2.260656 -5.334288,5.048942 0,0.395605 0.04719,0.780993 0.13819,1.150631 -4.43326,-0.210659 -8.363821,-2.220662 -10.994643,-5.275353 -0.45916,0.745678 -0.722202,1.612925 -0.722202,2.538253 0,1.751725 0.941628,3.297097 2.373006,4.202489 -0.874407,-0.02621 -1.696955,-0.253356 -2.416075,-0.631485 -5.08e-4,0.02104 -5.08e-4,0.04221 -5.08e-4,0.06349 0,2.446336 1.838733,4.486856 4.278884,4.950874 -0.447538,0.115297 -0.918787,0.177067 -1.405274,0.177067 -0.343732,0 -0.677884,-0.03174 -1.003638,-0.09056 0.678796,2.005698 2.648749,3.465675 4.982951,3.50628 -1.825577,1.354278 -4.125563,2.161355 -6.624759,2.161355 -0.430573,0 -0.855154,-0.02389 -1.272479,-0.07065 C 13.360615,30.164041 16.164506,31 19.176866,31 c 9.811488,0 15.176976,-7.693624 15.176976,-14.365707 0,-0.21878 -0.0054,-0.436576 -0.01559,-0.653143 1.04234,-0.711839 1.946619,-1.601112 2.66175,-2.613683"
       inkscape:connector-curvature="0"
       id="path16-1"
       style="color:#000000;display:inline;overflow:visible;visibility:visible;fill:#ffffff;fill-opacity:1;fill-rule:nonzero;stroke:none;stroke-width:1;stroke-linecap:round;stroke-linejoin:round;stroke-miterlimit:4;stroke-dasharray:none;stroke-opacity:1;marker:none;enable-background:accumulate" />
  </g>
</svg>
