<?xml version="1.0" encoding="UTF-8" standalone="no"?>
<!-- Created with Inkscape (http://www.inkscape.org/) -->
<svg id="svg4951" xmlns:rdf="http://www.w3.org/1999/02/22-rdf-syntax-ns#" xmlns="http://www.w3.org/2000/svg" height="48px" width="48px" version="1.1" xmlns:cc="http://creativecommons.org/ns#" xmlns:xlink="http://www.w3.org/1999/xlink" xmlns:dc="http://purl.org/dc/elements/1.1/">
 <defs id="defs4953">
  <linearGradient id="linearGradient3214" y2="40.496" gradientUnits="userSpaceOnUse" x2="71.204" gradientTransform="matrix(1.617 0 0 1.617 -92.707 -21.06)" y1="15.369" x1="71.204">
   <stop id="stop4808-4" stop-color="#fff" offset="0"/>
   <stop id="stop4810-0" stop-color="#fff" stop-opacity=".23529" offset=".42448"/>
   <stop id="stop4812-8" stop-color="#fff" stop-opacity=".15686" offset=".82090"/>
   <stop id="stop4814-0" stop-color="#fff" stop-opacity=".39216" offset="1"/>
  </linearGradient>
  <radialGradient id="radialGradient3217" gradientUnits="userSpaceOnUse" cy="3.99" cx="23.896" gradientTransform="matrix(0 2.8885 -3.8128 0 39.213 -65.95)" r="20.397">
   <stop id="stop3244-9-33-7-0-6" stop-color="#9cdd66" offset="0"/>
   <stop id="stop3248-1-7-8-8-6" stop-color="#386727" offset=".66094"/>
   <stop id="stop3250-9-3-0-5-2" stop-color="#2e5527" offset="1"/>
  </radialGradient>
  <radialGradient id="radialGradient3220" gradientUnits="userSpaceOnUse" cy="186.17" cx="99.157" gradientTransform="matrix(.27083 0 0 .087623 -2.8551 25.187)" r="62.769">
   <stop id="stop3822-2-6-3" stop-color="#3d3d3d" offset="0"/>
   <stop id="stop3864-8-7-7" stop-color="#686868" stop-opacity=".49804" offset=".5"/>
   <stop id="stop3824-1-2-5" stop-color="#686868" stop-opacity="0" offset="1"/>
  </radialGradient>
  <clipPath id="clipPath-862430042">
   <g id="g17" transform="translate(0 -1004.4)">
    <path id="path19" d="m-24 13c0 1.105-0.672 2-1.5 2s-1.5-0.895-1.5-2 0.672-2 1.5-2 1.5 0.895 1.5 2z" transform="matrix(15.333 0 0 11.5 415 878.86)" fill="#1890d0"/>
   </g>
  </clipPath>
 </defs>
 <metadata id="metadata4956">
  <rdf:RDF>
   <cc:Work rdf:about="">
    <dc:format>image/svg+xml</dc:format>
    <dc:type rdf:resource="http://purl.org/dc/dcmitype/StillImage"/>
    <dc:title/>
   </cc:Work>
  </rdf:RDF>
 </metadata>
 <g id="layer1">
  <path id="path3818-0-5" d="m41 41.5a17 5.5 0 0 1 -34 0 17 5.5 0 1 1 34 0z" fill="url(#radialGradient3220)"/>
  <path id="path2555-7-2" style="color:#000000" d="m24 3.5c-11.311 0-20.5 9.1888-20.5 20.5s9.1888 20.5 20.5 20.5 20.5-9.1888 20.5-20.5-9.189-20.5-20.5-20.5z" fill="url(#radialGradient3217)"/>
  <path id="path4176" opacity=".3" stroke-linejoin="round" style="color:#000000" d="m43.5 24c0 10.77-8.73 19.5-19.5 19.5s-19.5-8.73-19.5-19.5 8.73-19.5 19.5-19.5 19.5 8.73 19.5 19.5z" stroke="url(#linearGradient3214)" stroke-linecap="round" fill="none"/>
  <path id="path3871" opacity=".7" style="color:#000000" d="m24 3.5c-11.311 0-20.5 9.189-20.5 20.5s9.189 20.5 20.5 20.5 20.5-9.189 20.5-20.5-9.189-20.5-20.5-20.5z" stroke="#386727" fill="none"/>
  <g id="g4393" opacity=".15" stroke-linejoin="round" transform="matrix(.83351 0 0 .84425 3.9975 3.1024)" stroke="#fff" stroke-linecap="round" stroke-width="1.1921" fill="none">
   <g id="g4395" stroke-linejoin="round" clip-path="url(#clipPath-862430042)" stroke="#fff" stroke-linecap="round" stroke-width="1.1921" fill="none"><!-- color: #6bc260 -->
    <g id="g4397" stroke-linejoin="round" stroke="#fff" stroke-linecap="round" stroke-width="1.1921" fill="none">
     <path id="path4399" stroke-linejoin="round" d="m24.002 12c-2.962 0-5.457 2.4547-5.457 5.5723 0 1.4251 0.52606 2.7087 1.375 3.6855h-5.2832c-0.902 0-1.637 0.633-1.637 1.439v11.863c0 0.803 0.735 1.44 1.637 1.44h18.73c0.898 0 1.633-0.636 1.633-1.439v-11.863c0-0.80616-0.73463-1.4395-1.6328-1.4395h-5.2832c0.84896-0.9769 1.375-2.2604 1.375-3.6855 0-3.118-2.496-5.572-5.457-5.572zm0 1.9316c2.1014 0 3.709 1.6698 3.709 3.6406 0 1.9712-1.6062 3.6406-3.709 3.6406-2.1014 0-3.709-1.6698-3.709-3.6406 0-1.9712 1.6062-3.6406 3.709-3.6406zm-0.91992 9.166h0.0039 0.24219c0.22182 0.02835 0.44554 0.04687 0.67383 0.04687 0.22821 0 0.4521-0.01855 0.67383-0.04687h0.23828c2.7495 0 2.75 2.3066 2.75 2.3066v2.3027c0 0.92133-1.832 2.3027-1.832 2.3027v1.3828l2.748 0.92188v1.8379h-9.1641v-1.8379l2.75-0.92188v-1.3828s-1.834-1.3777-1.834-2.3027v-2.3027s0.000459-2.3066 2.75-2.3066z" transform="matrix(1.0911 0 0 1.0854 -2.1882 -3.0729)" stroke="#fff" stroke-linecap="round" stroke-width="1.0954" fill="none"/>
    </g>
   </g>
  </g>
  <g id="g4429" transform="translate(0,-1.6)">
   <rect id="rect4411" rx="2" ry="2" height="11.48" width="10.949" y="22.718" x="18.646" fill="#fff"/>
   <g id="g49" fill="#1a1a1a" transform="matrix(.83319 0 0 .84455 4.005 4.5952)">
    <g id="g51" fill="#1a1a1a" clip-path="url(#clipPath-862430042)"><!-- color: #6bc260 -->
     <g id="g53" fill="#1a1a1a">
      <path id="path55" d="m24.002 12c-2.962 0-5.457 2.4547-5.457 5.5723 0 1.4251 0.52606 2.7087 1.375 3.6855h-5.2832c-0.902 0-1.637 0.633-1.637 1.439v11.863c0 0.803 0.735 1.44 1.637 1.44h18.73c0.898 0 1.633-0.636 1.633-1.439v-11.863c0-0.80616-0.73463-1.4395-1.6328-1.4395h-5.2832c0.84896-0.9769 1.375-2.2604 1.375-3.6855 0-3.118-2.496-5.572-5.457-5.572zm0 1.9316c2.1014 0 3.709 1.6698 3.709 3.6406 0 1.9712-1.6062 3.6406-3.709 3.6406-2.1014 0-3.709-1.6698-3.709-3.6406 0-1.9712 1.6062-3.6406 3.709-3.6406zm-0.91992 9.166h0.0039 0.24219c0.22182 0.02835 0.44554 0.04687 0.67383 0.04687 0.22821 0 0.4521-0.01855 0.67383-0.04687h0.23828c2.7495 0 2.75 2.3066 2.75 2.3066v2.3027c0 0.92133-1.832 2.3027-1.832 2.3027v1.3828l2.748 0.92188v1.8379h-9.1641v-1.8379l2.75-0.92188v-1.3828s-1.834-1.3777-1.834-2.3027v-2.3027s0.000459-2.3066 2.75-2.3066z" transform="matrix(1.0911 0 0 1.0854 -2.1882 -3.0729)" fill="#1a1a1a"/>
     </g>
    </g>
   </g>
  </g>
 </g>
</svg>
