<?xml version="1.0" encoding="UTF-8" standalone="no"?>
<!-- Created with Inkscape (http://www.inkscape.org/) -->
<svg id="svg3143" xmlns:rdf="http://www.w3.org/1999/02/22-rdf-syntax-ns#" xmlns="http://www.w3.org/2000/svg" height="48" width="48" version="1.1" xmlns:cc="http://creativecommons.org/ns#" xmlns:xlink="http://www.w3.org/1999/xlink" xmlns:dc="http://purl.org/dc/elements/1.1/">
 <defs id="defs3145">
  <radialGradient id="radialGradient3053" gradientUnits="userSpaceOnUse" cy="10.16" cx="9.2656" gradientTransform="matrix(.084080 3.797 -8.1839 .18122 105.07 -37.193)" r="12.672">
   <stop id="stop3750-8-9-4" stop-color="#b082d2" offset="0"/>
   <stop id="stop3752-3-2-3" stop-color="#b082d2" offset=".26238"/>
   <stop id="stop3754-7-2-5" stop-color="#9754c8" offset=".70495"/>
   <stop id="stop3756-9-3-8" stop-color="#7c39b2" offset="1"/>
  </radialGradient>
  <linearGradient id="linearGradient4265" y2="48.204" gradientUnits="userSpaceOnUse" x2="23.36" y1=".13205" x1="23.676">
   <stop id="stop3926-7" stop-color="#fff" offset="0"/>
   <stop id="stop3928-3" stop-color="#fff" stop-opacity=".23529" offset=".063165"/>
   <stop id="stop3930-7" stop-color="#fff" stop-opacity=".15686" offset=".95056"/>
   <stop id="stop3932-1" stop-color="#fff" stop-opacity=".39216" offset="1"/>
  </linearGradient>
 </defs>
 <metadata id="metadata3148">
  <rdf:RDF>
   <cc:Work rdf:about="">
    <dc:format>image/svg+xml</dc:format>
    <dc:type rdf:resource="http://purl.org/dc/dcmitype/StillImage"/>
    <dc:title/>
   </cc:Work>
  </rdf:RDF>
 </metadata>
 <path id="rect5505-21" style="color:#000000" d="m6.5 5.5h35c1.108 0 2 0.892 2 2v29c0 1.108-0.89878 1.8776-2 2h-27l-3.5 6-3.5-6h-1c-1.108 0-2-0.892-2-2v-29c0-1.108 0.892-2 2-2z" fill="url(#radialGradient3053)"/>
 <path id="path4252" style="color:#000000" d="m6.5 5.5c-1.108 0-2 0.892-2 2v29c0 1.108 0.892 2 2 2h1l3.5 6 3.5-6h27c1.101-0.122 2-0.892 2-2v-29c0-1.108-0.892-2-2-2h-35zm0 1.25h35c0.437 0 0.75 0.3129 0.75 0.75v29c0 0.425-0.283 0.678-0.867 0.75h-26.883a1.2501 1.2501 0 0 0 -1.08 0.621l-2.42 4.149-2.4199-4.149a1.2501 1.2501 0 0 0 -1.0801 -0.621h-1c-0.4371 0-0.75-0.313-0.75-0.75v-29c0-0.4371 0.3129-0.75 0.75-0.75z" fill="url(#linearGradient4265)"/>
 <path id="path4219" opacity=".4" style="color:#000000" d="m6.5 5.5h35c1.108 0 2 0.892 2 2v29c0 1.108-0.89878 1.8776-2 2h-27l-3.5 6-3.5-6h-1c-1.108 0-2-0.892-2-2v-29c0-1.108 0.892-2 2-2z" stroke="#42007d" fill="none"/>
 <path id="path3953" opacity=".05" style="color:#000000" d="m23.819 22.866a1 1 0 0 1 0.67891 -1.7319l0.0026 1z" fill="#fff"/>
 <g id="g4527" transform="translate(-.041582 -2.0421)">
  <g id="g4515" stroke-linejoin="round" transform="matrix(1.0056 0 0 .99506 -.083437 .16781)" stroke="#000" stroke-linecap="round" fill="none">
   <g id="g4495" opacity=".15" transform="matrix(.99931 0 0 -1.0886 3.9205 53.416)" stroke-width="1.9176">
    <path id="path4497" d="m25.474 17.837c-0.1969 0.0539-0.5859 0.1145-0.9355 0.2649-6.1387 2.6433-10.598 6.9738-13.132 13.195-0.8497 2.0847 0.0375 3.8461 2.1789 4.566 0.3843 0.1293 0.7605 0.1383 1.139-0.0008 0.9129-0.3359 3.2254-3.5187 3.2774-4.4711 0.0394-0.7305-0.4567-1.1258-0.9493-1.4605-0.9308-0.6317-0.9355-1.4336-0.5382-2.327 0.8992-2.0207 2.4336-3.4082 4.4211-4.3097 0.7211-0.327 1.4105-0.295 1.9027 0.4511 0.8769 1.3281 1.9519 1.2641 3.1277 0.4387 0.5895-0.4141 1.1875-0.8184 1.7485-1.2695 0.7609-0.6125 1.723-1.1231 1.2679-2.4082-0.473-1.3371-2.1105-2.6836-3.5078-2.6692"/>
    <path id="path4499" d="m20.961 36.197c4.3106-0.1457 8.0227-4.0922 7.97-8.3496-0.0055-0.418 0.1449-1.0372-0.4778-1.0247-0.5957 0.0118-0.4402 0.6399-0.4929 1.0571-0.5719 4.5203-2.6414 6.6543-7.1289 7.3445-0.3723 0.057-0.9387-0.0238-0.911 0.468 0.0422 0.7289 0.7149 0.4578 1.0406 0.5047"/>
    <path id="path4501" d="m26.718 28.61c-0.0426-0.3125 0.1394-0.8473-0.3649-0.9239-0.6816-0.1035-0.5488 0.5207-0.616 0.9211-0.4558 2.7496-1.4211 3.7582-4.1926 4.3778-0.4082 0.0914-1.0433 0.0277-0.9382 0.6562 0.1007 0.5992 0.671 0.3957 1.1023 0.3438 2.7695-0.3329 5.0316-2.7352 5.0094-5.375"/>
    <path id="path4503" d="m24.611 29.111c0.0125-0.3484-0.0246-0.716-0.4367-0.7644-0.2973-0.0356-0.4926 0.2136-0.523 0.5222-0.1133 1.1336-0.7121 1.8036-1.8493 1.9864-0.3406 0.055-0.675 0.1644-0.5164 0.625 0.1067 0.3078 0.3887 0.3386 0.677 0.3461 1.2289 0.0304 2.6684-1.4418 2.6484-2.7153"/>
   </g>
   <g id="g4505" opacity=".15" transform="matrix(.99931 0 0 -1.0886 3.9205 53.416)" stroke-width=".95879">
    <path id="path4507" d="m25.474 17.837c-0.1969 0.0539-0.5859 0.1145-0.9355 0.2649-6.1387 2.6433-10.598 6.9738-13.132 13.195-0.8497 2.0847 0.0375 3.8461 2.1789 4.566 0.3843 0.1293 0.7605 0.1383 1.139-0.0008 0.9129-0.3359 3.2254-3.5187 3.2774-4.4711 0.0394-0.7305-0.4567-1.1258-0.9493-1.4605-0.9308-0.6317-0.9355-1.4336-0.5382-2.327 0.8992-2.0207 2.4336-3.4082 4.4211-4.3097 0.7211-0.327 1.4105-0.295 1.9027 0.4511 0.8769 1.3281 1.9519 1.2641 3.1277 0.4387 0.5895-0.4141 1.1875-0.8184 1.7485-1.2695 0.7609-0.6125 1.723-1.1231 1.2679-2.4082-0.473-1.3371-2.1105-2.6836-3.5078-2.6692"/>
    <path id="path4509" d="m20.961 36.197c4.3106-0.1457 8.0227-4.0922 7.97-8.3496-0.0055-0.418 0.1449-1.0372-0.4778-1.0247-0.5957 0.0118-0.4402 0.6399-0.4929 1.0571-0.5719 4.5203-2.6414 6.6543-7.1289 7.3445-0.3723 0.057-0.9387-0.0238-0.911 0.468 0.0422 0.7289 0.7149 0.4578 1.0406 0.5047"/>
    <path id="path4511" d="m26.718 28.61c-0.0426-0.3125 0.1394-0.8473-0.3649-0.9239-0.6816-0.1035-0.5488 0.5207-0.616 0.9211-0.4558 2.7496-1.4211 3.7582-4.1926 4.3778-0.4082 0.0914-1.0433 0.0277-0.9382 0.6562 0.1007 0.5992 0.671 0.3957 1.1023 0.3438 2.7695-0.3329 5.0316-2.7352 5.0094-5.375"/>
    <path id="path4513" d="m24.611 29.111c0.0125-0.3484-0.0246-0.716-0.4367-0.7644-0.2973-0.0356-0.4926 0.2136-0.523 0.5222-0.1133 1.1336-0.7121 1.8036-1.8493 1.9864-0.3406 0.055-0.675 0.1644-0.5164 0.625 0.1067 0.3078 0.3887 0.3386 0.677 0.3461 1.2289 0.0304 2.6684-1.4418 2.6484-2.7153"/>
   </g>
  </g>
  <g id="g3031" fill-rule="evenodd" fill="#fff" transform="matrix(.99931 0 0 -1.0886 3.9205 53.416)">
   <path id="path24" d="m25.474 17.837c-0.1969 0.0539-0.5859 0.1145-0.9355 0.2649-6.1387 2.6433-10.598 6.9738-13.132 13.195-0.8497 2.0847 0.0375 3.8461 2.1789 4.566 0.3843 0.1293 0.7605 0.1383 1.139-0.0008 0.9129-0.3359 3.2254-3.5187 3.2774-4.4711 0.0394-0.7305-0.4567-1.1258-0.9493-1.4605-0.9308-0.6317-0.9355-1.4336-0.5382-2.327 0.8992-2.0207 2.4336-3.4082 4.4211-4.3097 0.7211-0.327 1.4105-0.295 1.9027 0.4511 0.8769 1.3281 1.9519 1.2641 3.1277 0.4387 0.5895-0.4141 1.1875-0.8184 1.7485-1.2695 0.7609-0.6125 1.723-1.1231 1.2679-2.4082-0.473-1.3371-2.1105-2.6836-3.5078-2.6692"/>
   <path id="path30" d="m20.961 36.197c4.3106-0.1457 8.0227-4.0922 7.97-8.3496-0.0055-0.418 0.1449-1.0372-0.4778-1.0247-0.5957 0.0118-0.4402 0.6399-0.4929 1.0571-0.5719 4.5203-2.6414 6.6543-7.1289 7.3445-0.3723 0.057-0.9387-0.0238-0.911 0.468 0.0422 0.7289 0.7149 0.4578 1.0406 0.5047"/>
   <path id="path34" d="m26.718 28.61c-0.0426-0.3125 0.1394-0.8473-0.3649-0.9239-0.6816-0.1035-0.5488 0.5207-0.616 0.9211-0.4558 2.7496-1.4211 3.7582-4.1926 4.3778-0.4082 0.0914-1.0433 0.0277-0.9382 0.6562 0.1007 0.5992 0.671 0.3957 1.1023 0.3438 2.7695-0.3329 5.0316-2.7352 5.0094-5.375"/>
   <path id="path36" d="m24.611 29.111c0.0125-0.3484-0.0246-0.716-0.4367-0.7644-0.2973-0.0356-0.4926 0.2136-0.523 0.5222-0.1133 1.1336-0.7121 1.8036-1.8493 1.9864-0.3406 0.055-0.675 0.1644-0.5164 0.625 0.1067 0.3078 0.3887 0.3386 0.677 0.3461 1.2289 0.0304 2.6684-1.4418 2.6484-2.7153"/>
  </g>
 </g>
</svg>
