<?xml version="1.0" encoding="UTF-8" standalone="no"?>
<!-- Created with Inkscape (http://www.inkscape.org/) -->

<svg
   xmlns:dc="http://purl.org/dc/elements/1.1/"
   xmlns:cc="http://creativecommons.org/ns#"
   xmlns:rdf="http://www.w3.org/1999/02/22-rdf-syntax-ns#"
   xmlns:svg="http://www.w3.org/2000/svg"
   xmlns="http://www.w3.org/2000/svg"
   xmlns:xlink="http://www.w3.org/1999/xlink"
   xmlns:sodipodi="http://sodipodi.sourceforge.net/DTD/sodipodi-0.dtd"
   xmlns:inkscape="http://www.inkscape.org/namespaces/inkscape"
   version="1.1"
   width="48"
   height="48"
   id="svg3996"
   inkscape:version="0.48.4 r9939"
   sodipodi:docname="viber.svg">
  <sodipodi:namedview
     pagecolor="#ffffff"
     bordercolor="#666666"
     borderopacity="1"
     objecttolerance="10"
     gridtolerance="10"
     guidetolerance="10"
     inkscape:pageopacity="0"
     inkscape:pageshadow="2"
     inkscape:window-width="1600"
     inkscape:window-height="845"
     id="namedview37"
     showgrid="true"
     inkscape:zoom="1"
     inkscape:cx="-30.88172"
     inkscape:cy="5.9207085"
     inkscape:window-x="0"
     inkscape:window-y="30"
     inkscape:window-maximized="1"
     inkscape:current-layer="svg3996" />
  <defs
     id="defs3998">
    <linearGradient
       id="linearGradient3828">
      <stop
         id="stop3830"
         offset="0"
         style="stop-color:#1c3d7b;stop-opacity:1;" />
      <stop
         style="stop-color:#1f4286;stop-opacity:1;"
         offset="0.21795046"
         id="stop3840" />
      <stop
         style="stop-color:#163162;stop-opacity:1;"
         offset="0.38381505"
         id="stop3832" />
      <stop
         style="stop-color:#122850;stop-opacity:1;"
         offset="0.76098669"
         id="stop3834" />
      <stop
         id="stop3836"
         offset="1"
         style="stop-color:#0b182f;stop-opacity:1;" />
    </linearGradient>
    <linearGradient
       id="linearGradient3837">
      <stop
         style="stop-color:#0b182f;stop-opacity:0.07843138;"
         offset="0"
         id="stop3839" />
      <stop
         style="stop-color:#0b182f;stop-opacity:0.56470591;"
         offset="1"
         id="stop3841" />
    </linearGradient>
    <linearGradient
       id="linearGradient3829">
      <stop
         style="stop-color:#161616;stop-opacity:1;"
         offset="0"
         id="stop3831" />
      <stop
         id="stop3824"
         offset="0.25"
         style="stop-color:#3c3c3c;stop-opacity:1;" />
      <stop
         id="stop3822"
         offset="0.5"
         style="stop-color:#393939;stop-opacity:1;" />
      <stop
         style="stop-color:#333333;stop-opacity:1;"
         offset="1"
         id="stop3833" />
    </linearGradient>
    <linearGradient
       id="linearGradient3793">
      <stop
         style="stop-color:#a87dff;stop-opacity:1;"
         offset="0"
         id="stop3795" />
      <stop
         style="stop-color:#8049ae;stop-opacity:1;"
         offset="1"
         id="stop3797" />
    </linearGradient>
    <linearGradient
       x1="132.3414"
       y1="2.2922528"
       x2="132.3414"
       y2="33.33271"
       id="linearGradient6784-9"
       xlink:href="#linearGradient6786-4"
       gradientUnits="userSpaceOnUse"
       gradientTransform="matrix(1.1891887,0,0,1.4107063,-126.14094,-11.842585)" />
    <linearGradient
       id="linearGradient6786-4">
      <stop
         id="stop6788-2"
         style="stop-color:#ffffff;stop-opacity:0.6484375;"
         offset="0" />
      <stop
         id="stop6790-0"
         style="stop-color:#ffffff;stop-opacity:0.23529412"
         offset="0.46352294" />
      <stop
         id="stop6792-0"
         style="stop-color:#ffffff;stop-opacity:0.15686275"
         offset="0.76175833" />
      <stop
         id="stop6794-4"
         style="stop-color:#ffffff;stop-opacity:0.39215687"
         offset="1" />
    </linearGradient>
    <linearGradient
       x1="22.642942"
       y1="26.966721"
       x2="22.642942"
       y2="30.98424"
       id="linearGradient6883"
       xlink:href="#linearGradient3922"
       gradientUnits="userSpaceOnUse"
       gradientTransform="matrix(1.23944,0,0,1.2401758,2.5038689,6.6210943)" />
    <linearGradient
       id="linearGradient3922">
      <stop
         id="stop3924"
         style="stop-color:#000000;stop-opacity:1"
         offset="0" />
      <stop
         id="stop3926-9"
         style="stop-color:#000000;stop-opacity:0"
         offset="1" />
    </linearGradient>
    <linearGradient
       x1="22.642942"
       y1="26.966721"
       x2="22.642942"
       y2="30.98424"
       id="linearGradient6886"
       xlink:href="#linearGradient3922"
       gradientUnits="userSpaceOnUse"
       gradientTransform="matrix(1.3333351,0,0,1.3333351,0.0846107,3.459921)" />
    <linearGradient
       x1="-51.786404"
       y1="53.514328"
       x2="-51.786404"
       y2="3.6336823"
       id="linearGradient3394-3"
       xlink:href="#linearGradient3104-8-8-97-9"
       gradientUnits="userSpaceOnUse"
       gradientTransform="matrix(1.0700435,0,0,1.1244505,78.923391,-1.102116)" />
    <linearGradient
       id="linearGradient3104-8-8-97-9">
      <stop
         id="stop3106-5-4-3-6"
         style="stop-color:#693c71;stop-opacity:1;"
         offset="0" />
      <stop
         id="stop3108-4-3-7-0"
         style="stop-color:#734491;stop-opacity:1;"
         offset="1" />
    </linearGradient>
    <linearGradient
       x1="-60.960796"
       y1="28.233982"
       x2="-60.914154"
       y2="104.84189"
       id="linearGradient6654-1"
       xlink:href="#linearGradient3600-8-3"
       gradientUnits="userSpaceOnUse"
       gradientTransform="matrix(0.58378914,3.5977471e-4,-3.5543764e-4,0.59091266,61.565019,-10.157046)" />
    <linearGradient
       id="linearGradient3600-8-3">
      <stop
         id="stop3828-7-6"
         style="stop-color:#9fd89a;stop-opacity:1;"
         offset="0" />
      <stop
         id="stop3604-2-5"
         style="stop-color:#40b742;stop-opacity:1;"
         offset="1" />
    </linearGradient>
    <linearGradient
       id="linearGradient8838-561-565">
      <stop
         id="stop4621"
         style="stop-color:#0a0a0a;stop-opacity:1"
         offset="0" />
      <stop
         id="stop4623"
         style="stop-color:#0a0a0a;stop-opacity:0"
         offset="1" />
    </linearGradient>
    <radialGradient
       cx="62.625"
       cy="4.625"
       r="10.625"
       fx="62.625"
       fy="4.625"
       id="radialGradient3994"
       xlink:href="#linearGradient8838-561-565"
       gradientUnits="userSpaceOnUse"
       gradientTransform="matrix(2.8862785,0,0,1.0039217,-148.75315,46.023509)" />
    <linearGradient
       inkscape:collect="always"
       xlink:href="#linearGradient6786-4"
       id="linearGradient3015"
       gradientUnits="userSpaceOnUse"
       gradientTransform="matrix(1.1891887,0,0,1.4107063,-126.14094,4.157415)"
       x1="132.3414"
       y1="2.2922528"
       x2="132.3414"
       y2="33.33271" />
    <linearGradient
       inkscape:collect="always"
       xlink:href="#linearGradient3104-8-8-97-9"
       id="linearGradient3026"
       gradientUnits="userSpaceOnUse"
       gradientTransform="matrix(1.0700435,0,0,1.1244505,78.923391,-1.102116)"
       x1="-51.786404"
       y1="53.514328"
       x2="-51.786404"
       y2="3.6336823" />
    <linearGradient
       inkscape:collect="always"
       xlink:href="#linearGradient3600-8-3"
       id="linearGradient3029"
       gradientUnits="userSpaceOnUse"
       gradientTransform="matrix(0.58378914,3.5977471e-4,-3.5543764e-4,0.59091266,61.683663,-10.445182)"
       x1="-60.960796"
       y1="28.233982"
       x2="-60.914154"
       y2="104.84189" />
    <radialGradient
       inkscape:collect="always"
       xlink:href="#linearGradient8838-561-565"
       id="radialGradient3032"
       gradientUnits="userSpaceOnUse"
       gradientTransform="matrix(2.8862785,0,0,1.0039217,-148.75315,46.023509)"
       cx="62.625"
       cy="4.625"
       fx="62.625"
       fy="4.625"
       r="10.625" />
    <radialGradient
       inkscape:collect="always"
       xlink:href="#linearGradient8838-561-565"
       id="radialGradient3846"
       gradientUnits="userSpaceOnUse"
       gradientTransform="matrix(2.8862785,0,0,1.0039217,-148.75315,46.023509)"
       cx="62.625"
       cy="4.625"
       fx="62.625"
       fy="4.625"
       r="10.625" />
    <linearGradient
       inkscape:collect="always"
       xlink:href="#linearGradient3600-8-3"
       id="linearGradient3848"
       gradientUnits="userSpaceOnUse"
       gradientTransform="matrix(0.58378914,3.5977471e-4,-3.5543764e-4,0.59091266,61.683663,-10.445182)"
       x1="-60.960796"
       y1="28.233982"
       x2="-60.914154"
       y2="104.84189" />
    <linearGradient
       inkscape:collect="always"
       xlink:href="#linearGradient3104-8-8-97-9"
       id="linearGradient3850"
       gradientUnits="userSpaceOnUse"
       gradientTransform="matrix(1.0700435,0,0,1.1244505,78.923391,-1.102116)"
       x1="-51.786404"
       y1="53.514328"
       x2="-51.786404"
       y2="3.6336823" />
    <linearGradient
       inkscape:collect="always"
       xlink:href="#linearGradient6786-4"
       id="linearGradient3852"
       gradientUnits="userSpaceOnUse"
       gradientTransform="matrix(1.1891887,0,0,1.4107063,-126.14094,4.157415)"
       x1="132.3414"
       y1="2.2922528"
       x2="132.3414"
       y2="33.33271" />
    <linearGradient
       inkscape:collect="always"
       xlink:href="#linearGradient6786-4"
       id="linearGradient3857"
       gradientUnits="userSpaceOnUse"
       gradientTransform="matrix(1.1891887,0,0,1.4107063,-126.14094,4.157415)"
       x1="132.3414"
       y1="2.2922528"
       x2="132.3414"
       y2="33.33271" />
    <linearGradient
       inkscape:collect="always"
       xlink:href="#linearGradient3104-8-8-97-9"
       id="linearGradient3860"
       gradientUnits="userSpaceOnUse"
       gradientTransform="matrix(1.0700435,0,0,1.1244505,78.923391,-1.102116)"
       x1="-51.786404"
       y1="53.514328"
       x2="-51.786404"
       y2="3.6336823" />
    <linearGradient
       inkscape:collect="always"
       xlink:href="#linearGradient3600-8-3"
       id="linearGradient3863"
       gradientUnits="userSpaceOnUse"
       gradientTransform="matrix(0.58378914,3.5977471e-4,-3.5543764e-4,0.59091266,61.683663,-10.445182)"
       x1="-60.960796"
       y1="28.233982"
       x2="-60.914154"
       y2="104.84189" />
    <radialGradient
       inkscape:collect="always"
       xlink:href="#linearGradient8838-561-565"
       id="radialGradient3866"
       gradientUnits="userSpaceOnUse"
       gradientTransform="matrix(2.8862785,0,0,1.0039217,-148.75315,46.023509)"
       cx="62.625"
       cy="4.625"
       fx="62.625"
       fy="4.625"
       r="10.625" />
    <linearGradient
       inkscape:collect="always"
       xlink:href="#linearGradient3600-8-3"
       id="linearGradient3791"
       gradientUnits="userSpaceOnUse"
       gradientTransform="matrix(0.58378914,3.5977471e-4,-3.5543764e-4,0.59091266,-21.401383,-7.9703083)"
       x1="-60.960796"
       y1="28.233982"
       x2="-60.914154"
       y2="104.84189" />
    <radialGradient
       inkscape:collect="always"
       xlink:href="#linearGradient3793"
       id="radialGradient3801"
       cx="32.530331"
       cy="4.2225037"
       fx="32.530331"
       fy="4.2225037"
       r="29"
       gradientTransform="matrix(-1.2635884,2.7508939e-8,-2.7917323e-8,-1.282347,73.635278,12.467861)"
       gradientUnits="userSpaceOnUse" />
    <linearGradient
       inkscape:collect="always"
       xlink:href="#linearGradient3837"
       id="linearGradient3041"
       gradientUnits="userSpaceOnUse"
       x1="32.336823"
       y1="12.908117"
       x2="32.105118"
       y2="46.584076"
       gradientTransform="matrix(0.91539148,0,0,0.91539148,2.7074727,2.3933796)" />
    <linearGradient
       inkscape:collect="always"
       xlink:href="#linearGradient6786-4"
       id="linearGradient3044"
       gradientUnits="userSpaceOnUse"
       gradientTransform="matrix(1.1891887,0,0,1.4107063,-126.14094,4.157415)"
       x1="132.3414"
       y1="2.2922528"
       x2="132.3414"
       y2="33.33271" />
    <radialGradient
       inkscape:collect="always"
       xlink:href="#linearGradient3793"
       id="radialGradient3047"
       gradientUnits="userSpaceOnUse"
       gradientTransform="matrix(-1.2635884,2.7508939e-8,-2.7917323e-8,-1.282347,73.635278,12.467861)"
       cx="32.530331"
       cy="4.2225037"
       fx="32.530331"
       fy="4.2225037"
       r="29" />
    <linearGradient
       inkscape:collect="always"
       xlink:href="#linearGradient3104-8-8-97-9"
       id="linearGradient3049"
       gradientUnits="userSpaceOnUse"
       gradientTransform="matrix(1.0700435,0,0,1.1244505,78.923391,-1.102116)"
       x1="-51.786404"
       y1="53.514328"
       x2="-51.786404"
       y2="3.6336823" />
    <radialGradient
       inkscape:collect="always"
       xlink:href="#linearGradient8838-561-565"
       id="radialGradient3052"
       gradientUnits="userSpaceOnUse"
       gradientTransform="matrix(2.8862785,0,0,1.0039217,-148.75315,46.023509)"
       cx="62.625"
       cy="4.625"
       fx="62.625"
       fy="4.625"
       r="10.625" />
    <linearGradient
       inkscape:collect="always"
       xlink:href="#linearGradient3828"
       id="linearGradient3838"
       x1="37.766056"
       y1="42.744667"
       x2="29.637123"
       y2="16.44607"
       gradientUnits="userSpaceOnUse" />
    <radialGradient
       inkscape:collect="always"
       xlink:href="#linearGradient8838-561-565"
       id="radialGradient3848"
       gradientUnits="userSpaceOnUse"
       gradientTransform="matrix(2.8862785,0,0,1.0039217,-148.75315,46.023509)"
       cx="62.625"
       cy="4.625"
       fx="62.625"
       fy="4.625"
       r="10.625" />
    <radialGradient
       inkscape:collect="always"
       xlink:href="#linearGradient3793"
       id="radialGradient3850"
       gradientUnits="userSpaceOnUse"
       gradientTransform="matrix(-1.2635884,2.7508939e-8,-2.7917323e-8,-1.282347,73.635278,12.467861)"
       cx="32.530331"
       cy="4.2225037"
       fx="32.530331"
       fy="4.2225037"
       r="29" />
    <linearGradient
       inkscape:collect="always"
       xlink:href="#linearGradient3104-8-8-97-9"
       id="linearGradient3853"
       gradientUnits="userSpaceOnUse"
       gradientTransform="matrix(1.0700435,0,0,1.1244505,78.923391,-1.102116)"
       x1="-51.786404"
       y1="53.514328"
       x2="-51.786404"
       y2="3.6336823" />
    <linearGradient
       inkscape:collect="always"
       xlink:href="#linearGradient6786-4"
       id="linearGradient3855"
       gradientUnits="userSpaceOnUse"
       gradientTransform="matrix(1.1891887,0,0,1.4107063,-126.14094,4.157415)"
       x1="132.3414"
       y1="2.2922528"
       x2="132.3414"
       y2="33.33271" />
    <linearGradient
       inkscape:collect="always"
       xlink:href="#linearGradient3828"
       id="linearGradient3858"
       gradientUnits="userSpaceOnUse"
       x1="37.766056"
       y1="42.744667"
       x2="29.637123"
       y2="16.44607" />
    <linearGradient
       inkscape:collect="always"
       xlink:href="#linearGradient3837"
       id="linearGradient3861"
       gradientUnits="userSpaceOnUse"
       gradientTransform="matrix(0.91539148,0,0,0.91539148,2.7074727,2.3933796)"
       x1="32.336823"
       y1="12.908117"
       x2="32.105118"
       y2="46.584076" />
    <linearGradient
       inkscape:collect="always"
       xlink:href="#linearGradient3828"
       id="linearGradient3864"
       gradientUnits="userSpaceOnUse"
       x1="37.766056"
       y1="42.744667"
       x2="29.637123"
       y2="16.44607" />
    <linearGradient
       inkscape:collect="always"
       xlink:href="#linearGradient3837"
       id="linearGradient3866"
       gradientUnits="userSpaceOnUse"
       gradientTransform="matrix(0.91539148,0,0,0.91539148,2.7074727,2.3933796)"
       x1="32.336823"
       y1="12.908117"
       x2="32.105118"
       y2="46.584076" />
    <linearGradient
       inkscape:collect="always"
       xlink:href="#linearGradient6786-4"
       id="linearGradient3869"
       gradientUnits="userSpaceOnUse"
       gradientTransform="matrix(1.1891887,0,0,1.4107063,-126.14094,4.157415)"
       x1="132.3414"
       y1="2.2922528"
       x2="132.3414"
       y2="33.33271" />
    <radialGradient
       inkscape:collect="always"
       xlink:href="#linearGradient3793"
       id="radialGradient3872"
       gradientUnits="userSpaceOnUse"
       gradientTransform="matrix(-1.2635884,2.7508939e-8,-2.7917323e-8,-1.282347,73.635278,12.467861)"
       cx="32.530331"
       cy="4.2225037"
       fx="32.530331"
       fy="4.2225037"
       r="29" />
    <linearGradient
       inkscape:collect="always"
       xlink:href="#linearGradient3104-8-8-97-9"
       id="linearGradient3874"
       gradientUnits="userSpaceOnUse"
       gradientTransform="matrix(1.0700435,0,0,1.1244505,78.923391,-1.102116)"
       x1="-51.786404"
       y1="53.514328"
       x2="-51.786404"
       y2="3.6336823" />
    <radialGradient
       inkscape:collect="always"
       xlink:href="#linearGradient8838-561-565"
       id="radialGradient3877"
       gradientUnits="userSpaceOnUse"
       gradientTransform="matrix(2.8862785,0,0,1.0039217,-148.75315,46.023509)"
       cx="62.625"
       cy="4.625"
       fx="62.625"
       fy="4.625"
       r="10.625" />
    <radialGradient
       inkscape:collect="always"
       xlink:href="#linearGradient8838-561-565"
       id="radialGradient3842"
       gradientUnits="userSpaceOnUse"
       gradientTransform="matrix(2.8862785,0,0,1.0039217,-148.75315,46.023509)"
       cx="62.625"
       cy="4.625"
       fx="62.625"
       fy="4.625"
       r="10.625" />
    <radialGradient
       inkscape:collect="always"
       xlink:href="#linearGradient3793"
       id="radialGradient3844"
       gradientUnits="userSpaceOnUse"
       gradientTransform="matrix(-1.2635884,2.7508939e-8,-2.7917323e-8,-1.282347,73.635278,12.467861)"
       cx="32.530331"
       cy="4.2225037"
       fx="32.530331"
       fy="4.2225037"
       r="29" />
    <linearGradient
       inkscape:collect="always"
       xlink:href="#linearGradient3104-8-8-97-9"
       id="linearGradient3846"
       gradientUnits="userSpaceOnUse"
       gradientTransform="matrix(1.0700435,0,0,1.1244505,78.923391,-1.102116)"
       x1="-51.786404"
       y1="53.514328"
       x2="-51.786404"
       y2="3.6336823" />
    <linearGradient
       inkscape:collect="always"
       xlink:href="#linearGradient6786-4"
       id="linearGradient3849"
       gradientUnits="userSpaceOnUse"
       gradientTransform="matrix(1.1891887,0,0,1.4107063,-126.14094,4.157415)"
       x1="132.3414"
       y1="2.2922528"
       x2="132.3414"
       y2="33.33271" />
    <linearGradient
       inkscape:collect="always"
       xlink:href="#linearGradient3828"
       id="linearGradient3851"
       gradientUnits="userSpaceOnUse"
       x1="37.766056"
       y1="42.744667"
       x2="29.637123"
       y2="16.44607" />
    <linearGradient
       inkscape:collect="always"
       xlink:href="#linearGradient3837"
       id="linearGradient3854"
       gradientUnits="userSpaceOnUse"
       gradientTransform="matrix(0.91539148,0,0,0.91539148,2.7074727,2.3933796)"
       x1="32.336823"
       y1="12.908117"
       x2="32.105118"
       y2="46.584076" />
    <linearGradient
       inkscape:collect="always"
       xlink:href="#linearGradient3828"
       id="linearGradient3859"
       gradientUnits="userSpaceOnUse"
       x1="37.766056"
       y1="42.744667"
       x2="29.637123"
       y2="16.44607"
       gradientTransform="matrix(0.73912397,0,0,0.73912397,0.3478317,3.97e-4)" />
    <linearGradient
       inkscape:collect="always"
       xlink:href="#linearGradient3837"
       id="linearGradient3862"
       gradientUnits="userSpaceOnUse"
       gradientTransform="matrix(0.67658778,0,0,0.67658778,2.3489897,1.7694012)"
       x1="32.336823"
       y1="12.908117"
       x2="32.105118"
       y2="46.584076" />
    <linearGradient
       inkscape:collect="always"
       xlink:href="#linearGradient6786-4"
       id="linearGradient3865"
       gradientUnits="userSpaceOnUse"
       gradientTransform="matrix(0.87895787,0,0,1.0426868,-92.885961,3.0732421)"
       x1="132.3414"
       y1="2.2922528"
       x2="132.3414"
       y2="33.33271" />
    <radialGradient
       inkscape:collect="always"
       xlink:href="#linearGradient3793"
       id="radialGradient3868"
       gradientUnits="userSpaceOnUse"
       gradientTransform="matrix(-0.93394847,2.0332516e-8,-2.0634363e-8,-0.94781341,54.773431,9.2156919)"
       cx="32.530331"
       cy="4.2225037"
       fx="32.530331"
       fy="4.2225037"
       r="29" />
    <linearGradient
       inkscape:collect="always"
       xlink:href="#linearGradient3104-8-8-97-9"
       id="linearGradient3870"
       gradientUnits="userSpaceOnUse"
       gradientTransform="matrix(0.7908948,0,0,0.83110832,58.682002,-0.81420335)"
       x1="-51.786404"
       y1="53.514328"
       x2="-51.786404"
       y2="3.6336823" />
    <radialGradient
       inkscape:collect="always"
       xlink:href="#linearGradient8838-561-565"
       id="radialGradient3873"
       gradientUnits="userSpaceOnUse"
       gradientTransform="matrix(2.1333176,0,0,0.74202259,-109.59919,34.017476)"
       cx="62.625"
       cy="4.625"
       fx="62.625"
       fy="4.625"
       r="10.625" />
    <linearGradient
       inkscape:collect="always"
       xlink:href="#linearGradient3828"
       id="linearGradient3071"
       gradientUnits="userSpaceOnUse"
       gradientTransform="matrix(0.73912397,0,0,0.73912397,0.3478317,-0.108978)"
       x1="37.766056"
       y1="42.744667"
       x2="29.637123"
       y2="16.44607" />
    <linearGradient
       inkscape:collect="always"
       xlink:href="#linearGradient3837"
       id="linearGradient3073"
       gradientUnits="userSpaceOnUse"
       gradientTransform="matrix(0.67658778,0,0,0.67658778,2.3489897,1.6600262)"
       x1="32.336823"
       y1="12.908117"
       x2="32.105118"
       y2="46.584076" />
    <linearGradient
       inkscape:collect="always"
       xlink:href="#linearGradient6786-4"
       id="linearGradient3076"
       gradientUnits="userSpaceOnUse"
       gradientTransform="matrix(0.87895787,0,0,1.0426868,-92.885961,2.9638671)"
       x1="132.3414"
       y1="2.2922528"
       x2="132.3414"
       y2="33.33271" />
    <radialGradient
       inkscape:collect="always"
       xlink:href="#linearGradient3793"
       id="radialGradient3079"
       gradientUnits="userSpaceOnUse"
       gradientTransform="matrix(-0.93394847,2.0332516e-8,-2.0634363e-8,-0.94781341,54.773431,9.1063169)"
       cx="32.530331"
       cy="4.2225037"
       fx="32.530331"
       fy="4.2225037"
       r="29" />
    <linearGradient
       inkscape:collect="always"
       xlink:href="#linearGradient3104-8-8-97-9"
       id="linearGradient3081"
       gradientUnits="userSpaceOnUse"
       gradientTransform="matrix(0.7908948,0,0,0.83110832,58.682002,-0.92357835)"
       x1="-51.786404"
       y1="53.514328"
       x2="-51.786404"
       y2="3.6336823" />
    <radialGradient
       inkscape:collect="always"
       xlink:href="#linearGradient8838-561-565"
       id="radialGradient3084"
       gradientUnits="userSpaceOnUse"
       gradientTransform="matrix(2.1333176,0,0,0.74202259,-109.59919,33.908101)"
       cx="62.625"
       cy="4.625"
       fx="62.625"
       fy="4.625"
       r="10.625" />
  </defs>
  <metadata
     id="metadata4001">
    <rdf:RDF>
      <cc:Work
         rdf:about="">
        <dc:format>image/svg+xml</dc:format>
        <dc:type
           rdf:resource="http://purl.org/dc/dcmitype/StillImage" />
        <dc:title />
      </cc:Work>
    </rdf:RDF>
  </metadata>
  <path
     style="opacity:0.2;fill:url(#radialGradient3084);fill-opacity:1;fill-rule:evenodd;stroke:none;stroke-width:0.99999988;marker:none;visibility:visible;display:inline;overflow:visible"
     id="path8836"
     inkscape:connector-curvature="0"
     d="m 46.666322,37.339959 c 0,4.354213 -10.148138,7.884001 -22.6665,7.884001 -12.518363,0 -22.6665002,-3.529788 -22.6665002,-7.884001 0,-4.354212 10.1481372,-7.884 22.6665002,-7.884 12.518362,0 22.6665,3.529788 22.6665,7.884 l 0,0 z" />
  <path
     style="color:#000000;fill:url(#radialGradient3079);fill-opacity:1.0;stroke:url(#linearGradient3081);stroke-width:1;stroke-linecap:butt;stroke-linejoin:round;stroke-miterlimit:4;stroke-opacity:1;stroke-dasharray:none;stroke-dashoffset:0;marker:none;visibility:visible;display:inline;overflow:visible;enable-background:accumulate"
     id="path4111-6"
     inkscape:connector-curvature="0"
     d="M 23.944252,3.9642462 C 23.406759,3.9850082 22.877158,4.0256453 22.333357,4.0775769 10.731951,5.1854193 2.0768027,13.678209 3.0025982,23.002685 3.4647775,27.657666 6.2407624,31.64292 10.334955,34.335086 l 0,0.113334 c 0,0 1.274,2.193675 -3.0551486,7.082751 0,0 4.6883716,0.297074 11.0540826,-4.023002 2.327102,0.452669 4.782972,0.583413 7.332355,0.339973 C 37.267668,36.740305 45.922782,28.304174 44.997001,18.979692 44.158003,10.529386 35.761184,4.2396956 25.555149,3.9642632 c -0.527894,-0.014317 -1.073422,-0.020755 -1.610897,0 z" />
  <path
     inkscape:connector-curvature="0"
     style="color:#000000;fill:none;stroke:url(#linearGradient3076);stroke-width:1;stroke-linecap:round;stroke-linejoin:miter;stroke-miterlimit:4;stroke-opacity:1;stroke-dasharray:none;stroke-dashoffset:0;marker:none;visibility:visible;display:inline;overflow:visible;enable-background:accumulate;opacity:0.6"
     id="path3089"
     d="M 23.976701,4.9609528 C 23.459326,4.980938 22.942441,5.025221 22.406063,5.0764409 11.242125,6.1425087 3.1341789,14.290694 3.9931824,22.942451 c 0.4377453,4.408906 3.0965919,8.086688 7.1674246,10.763493 0.108883,0.454724 0.15175,0.51728 0.307272,1.039733 0.06902,0.372669 0.07417,0.881414 -0.05255,1.547201 -0.199105,1.046157 -0.64474,2.439729 -2.0697826,4.063356 0.8102996,-0.171696 1.1884166,-0.258464 1.5557056,-0.36899 1.858913,-0.559391 3.917129,-1.299329 7.023868,-3.407712 0.159845,-0.109496 0.36407,-0.09128 0.554343,-0.05472 2.255066,0.438657 4.63063,0.56363 7.114068,0.326483 C 36.598969,35.800369 44.867745,27.871554 43.99079,19.038952 43.219676,11.27237 35.388839,5.2271707 25.524242,4.9609528 c -0.520574,-0.014118 -1.034492,-0.019812 -1.547541,0 z"
     sodipodi:nodetypes="cssccscsccsscc" />
  <g
     id="g3830"
     transform="matrix(0.69980877,0,0,0.69980877,1.6061194,-692.25836)">
    <g
       style="stroke:#7b5692;stroke-opacity:1"
       id="g3820"
       transform="matrix(1.5038394,0,0,-1.5038394,1.7829516,1061.0004)">
      <path
         d="m 25.4742,17.8367 c -0.1969,0.0539 -0.5859,0.1145 -0.9355,0.2649 -6.1387,2.6433 -10.5985,6.9738 -13.1324,13.1953 -0.8497,2.0847 0.0375,3.8461 2.1789,4.566 0.3843,0.1293 0.7605,0.1383 1.139,-8e-4 0.9129,-0.3359 3.2254,-3.5187 3.2774,-4.4711 0.0394,-0.7305 -0.4567,-1.1258 -0.9493,-1.4605 -0.9308,-0.6317 -0.9355,-1.4336 -0.5382,-2.327 0.8992,-2.0207 2.4336,-3.4082 4.4211,-4.3097 0.7211,-0.327 1.4105,-0.295 1.9027,0.4511 0.8769,1.3281 1.9519,1.2641 3.1277,0.4387 0.5895,-0.4141 1.1875,-0.8184 1.7485,-1.2695 0.7609,-0.6125 1.723,-1.1231 1.2679,-2.4082 -0.473,-1.3371 -2.1105,-2.6836 -3.5078,-2.6692"
         style="fill:#ffffff;fill-opacity:1;fill-rule:evenodd;stroke:#7b5692;stroke-opacity:1"
         id="path3822"
         inkscape:connector-curvature="0" />
      <path
         d="m 20.9609,36.1973 c 4.3106,-0.1457 8.0227,-4.0922 7.97,-8.3496 -0.0055,-0.418 0.1449,-1.0372 -0.4778,-1.0247 -0.5957,0.0118 -0.4402,0.6399 -0.4929,1.0571 -0.5719,4.5203 -2.6414,6.6543 -7.1289,7.3445 -0.3723,0.057 -0.9387,-0.0238 -0.911,0.468 0.0422,0.7289 0.7149,0.4578 1.0406,0.5047"
         style="fill:#ffffff;fill-opacity:1;fill-rule:evenodd;stroke:#7b5692;stroke-opacity:1"
         id="path3824"
         inkscape:connector-curvature="0" />
      <path
         d="m 26.718,28.6102 c -0.0426,-0.3125 0.1394,-0.8473 -0.3649,-0.9239 -0.6816,-0.1035 -0.5488,0.5207 -0.616,0.9211 -0.4558,2.7496 -1.4211,3.7582 -4.1926,4.3778 -0.4082,0.0914 -1.0433,0.0277 -0.9382,0.6562 0.1007,0.5992 0.671,0.3957 1.1023,0.3438 2.7695,-0.3329 5.0316,-2.7352 5.0094,-5.375"
         style="fill:#ffffff;fill-opacity:1;fill-rule:evenodd;stroke:#7b5692;stroke-opacity:1"
         id="path3826"
         inkscape:connector-curvature="0" />
      <path
         d="m 24.6113,29.1113 c 0.0125,-0.3484 -0.0246,-0.716 -0.4367,-0.7644 -0.2973,-0.0356 -0.4926,0.2136 -0.523,0.5222 -0.1133,1.1336 -0.7121,1.8036 -1.8493,1.9864 -0.3406,0.055 -0.675,0.1644 -0.5164,0.625 0.1067,0.3078 0.3887,0.3386 0.677,0.3461 1.2289,0.0304 2.6684,-1.4418 2.6484,-2.7153"
         style="fill:#ffffff;fill-opacity:1;fill-rule:evenodd;stroke:#7b5692;stroke-opacity:1"
         id="path3828"
         inkscape:connector-curvature="0" />
    </g>
    <g
       transform="matrix(1.5038394,0,0,-1.5038394,1.7829516,1061.0004)"
       id="g3031">
      <path
         inkscape:connector-curvature="0"
         id="path24"
         style="fill:#ffffff;fill-opacity:1;fill-rule:evenodd;stroke:none"
         d="m 25.4742,17.8367 c -0.1969,0.0539 -0.5859,0.1145 -0.9355,0.2649 -6.1387,2.6433 -10.5985,6.9738 -13.1324,13.1953 -0.8497,2.0847 0.0375,3.8461 2.1789,4.566 0.3843,0.1293 0.7605,0.1383 1.139,-8e-4 0.9129,-0.3359 3.2254,-3.5187 3.2774,-4.4711 0.0394,-0.7305 -0.4567,-1.1258 -0.9493,-1.4605 -0.9308,-0.6317 -0.9355,-1.4336 -0.5382,-2.327 0.8992,-2.0207 2.4336,-3.4082 4.4211,-4.3097 0.7211,-0.327 1.4105,-0.295 1.9027,0.4511 0.8769,1.3281 1.9519,1.2641 3.1277,0.4387 0.5895,-0.4141 1.1875,-0.8184 1.7485,-1.2695 0.7609,-0.6125 1.723,-1.1231 1.2679,-2.4082 -0.473,-1.3371 -2.1105,-2.6836 -3.5078,-2.6692" />
      <path
         inkscape:connector-curvature="0"
         id="path30"
         style="fill:#ffffff;fill-opacity:1;fill-rule:evenodd;stroke:none"
         d="m 20.9609,36.1973 c 4.3106,-0.1457 8.0227,-4.0922 7.97,-8.3496 -0.0055,-0.418 0.1449,-1.0372 -0.4778,-1.0247 -0.5957,0.0118 -0.4402,0.6399 -0.4929,1.0571 -0.5719,4.5203 -2.6414,6.6543 -7.1289,7.3445 -0.3723,0.057 -0.9387,-0.0238 -0.911,0.468 0.0422,0.7289 0.7149,0.4578 1.0406,0.5047" />
      <path
         inkscape:connector-curvature="0"
         id="path34"
         style="fill:#ffffff;fill-opacity:1;fill-rule:evenodd;stroke:none"
         d="m 26.718,28.6102 c -0.0426,-0.3125 0.1394,-0.8473 -0.3649,-0.9239 -0.6816,-0.1035 -0.5488,0.5207 -0.616,0.9211 -0.4558,2.7496 -1.4211,3.7582 -4.1926,4.3778 -0.4082,0.0914 -1.0433,0.0277 -0.9382,0.6562 0.1007,0.5992 0.671,0.3957 1.1023,0.3438 2.7695,-0.3329 5.0316,-2.7352 5.0094,-5.375" />
      <path
         inkscape:connector-curvature="0"
         id="path36"
         style="fill:#ffffff;fill-opacity:1;fill-rule:evenodd;stroke:none"
         d="m 24.6113,29.1113 c 0.0125,-0.3484 -0.0246,-0.716 -0.4367,-0.7644 -0.2973,-0.0356 -0.4926,0.2136 -0.523,0.5222 -0.1133,1.1336 -0.7121,1.8036 -1.8493,1.9864 -0.3406,0.055 -0.675,0.1644 -0.5164,0.625 0.1067,0.3078 0.3887,0.3386 0.677,0.3461 1.2289,0.0304 2.6684,-1.4418 2.6484,-2.7153" />
    </g>
  </g>
</svg>
