<?xml version="1.0" encoding="UTF-8" standalone="no"?>
<!-- Created with Inkscape (http://www.inkscape.org/) -->
<svg id="svg2453" xmlns:rdf="http://www.w3.org/1999/02/22-rdf-syntax-ns#" xmlns="http://www.w3.org/2000/svg" height="48" width="48" version="1.0" xmlns:cc="http://creativecommons.org/ns#" xmlns:xlink="http://www.w3.org/1999/xlink" xmlns:dc="http://purl.org/dc/elements/1.1/">
 <metadata id="metadata35">
  <rdf:RDF>
   <cc:Work rdf:about="">
    <dc:format>image/svg+xml</dc:format>
    <dc:type rdf:resource="http://purl.org/dc/dcmitype/StillImage"/>
    <dc:title/>
   </cc:Work>
  </rdf:RDF>
 </metadata>
 <defs id="defs2455">
  <radialGradient id="radialGradient19613" xlink:href="#linearGradient5060" gradientUnits="userSpaceOnUse" cy="486.65" cx="605.71" gradientTransform="matrix(.028917 0 0 .012353 26.973 38.471)" r="117.14"/>
  <linearGradient id="linearGradient5060">
   <stop id="stop5062" offset="0"/>
   <stop id="stop5064" stop-opacity="0" offset="1"/>
  </linearGradient>
  <radialGradient id="radialGradient19616" xlink:href="#linearGradient5060" gradientUnits="userSpaceOnUse" cy="486.65" cx="605.71" gradientTransform="matrix(-.028917 0 0 .012353 21.027 38.471)" r="117.14"/>
  <linearGradient id="linearGradient19619" y2="609.51" gradientUnits="userSpaceOnUse" x2="302.86" gradientTransform="matrix(.084497 0 0 .012353 -6.5396 38.471)" y1="366.65" x1="302.86">
   <stop id="stop5050" stop-opacity="0" offset="0"/>
   <stop id="stop5056" offset=".5"/>
   <stop id="stop5052" stop-opacity="0" offset="1"/>
  </linearGradient>
  <linearGradient id="linearGradient3138" y2="43" gradientUnits="userSpaceOnUse" x2="24" gradientTransform="matrix(1.1622 0 0 .91892 -3.8919 4.446)" y1="5.5641" x1="24">
   <stop id="stop3979" stop-color="#fff" offset="0"/>
   <stop id="stop3981" stop-color="#fff" stop-opacity=".23529" offset=".036262"/>
   <stop id="stop3983" stop-color="#fff" stop-opacity=".15686" offset=".95056"/>
   <stop id="stop3985" stop-color="#fff" stop-opacity=".39216" offset="1"/>
  </linearGradient>
  <linearGradient id="linearGradient3141" y2="47.013" gradientUnits="userSpaceOnUse" x2="25.132" gradientTransform="matrix(1.2571 0 0 .76049 -6.1714 7.0815)" y1=".98521" x1="25.132">
   <stop id="stop3602" stop-color="#f4f4f4" offset="0"/>
   <stop id="stop3604" stop-color="#dbdbdb" offset="1"/>
  </linearGradient>
  <linearGradient id="linearGradient3144" y2="2.9062" gradientUnits="userSpaceOnUse" x2="-51.786" gradientTransform="matrix(1.0382 0 0 .73204 69.527 5.6549)" y1="50.786" x1="-51.786">
   <stop id="stop3106-3" stop-opacity=".31783" offset="0"/>
   <stop id="stop3108-9" stop-opacity=".24031" offset="1"/>
  </linearGradient>
  <linearGradient id="linearGradient4002" y2="96.253" gradientUnits="userSpaceOnUse" x2="45.567" gradientTransform="matrix(-.48996 .00069868 .0018136 -.38149 57.129 48.267)" y1="15.27" x1="45.414">
   <stop id="stop4240" stop-color="#2e4e6d" offset="0"/>
   <stop id="stop4242" stop-color="#6ebdde" offset="1"/>
  </linearGradient>
  <linearGradient id="linearGradient4004" y2="-40.164" gradientUnits="userSpaceOnUse" x2="-24.098" gradientTransform="matrix(-1.1123 .0015861 .0052983 -1.1145 -2.6249 -3.6541)" y1="-13.091" x1="-24.032">
   <stop id="stop4246" stop-color="#1d1d1d" stop-opacity=".3" offset="0"/>
   <stop id="stop4248" stop-opacity=".3" offset="1"/>
  </linearGradient>
 </defs>
 <g id="g3257" opacity=".4">
  <rect id="rect2879" height="3" width="40.8" y="43" x="3.6" fill="url(#linearGradient19619)"/>
  <path id="path2881" d="m3.6 43v2.9998c-1.4891 0.006-3.6-0.672-3.6-1.5s1.6618-1.5 3.6-1.5z" fill="url(#radialGradient19616)"/>
  <path id="path2883" d="m44.4 43v2.9998c1.4891 0.0056 3.6-0.67211 3.6-1.5001 0-0.828-1.6618-1.4997-3.6-1.4997z" fill="url(#radialGradient19613)"/>
 </g>
 <path id="path4160" d="m2 9c10.083 0 44 0.00223 44 0.00223v34.998h-44v-35z" fill="url(#linearGradient3141)"/>
 <path id="rect6741-1" stroke-linejoin="round" d="m45.5 43.5h-43v-34h43z" stroke="url(#linearGradient3138)" stroke-linecap="round" fill="none"/>
 <path id="rect3582-50-4" d="m43.5 41.5h-39l0.0000023-30 39 0.000003z" stroke="url(#linearGradient4004)" stroke-linecap="round" fill="url(#linearGradient4002)"/>
 <path id="path3970" opacity=".15" style="color:#000000" d="m21.688 18.781c-1.1068 0-1.8885 0.83943-2.3438 1.75-0.33791 0.67583-0.40971 1.5624-0.5 2.4375-0.75101-0.46136-1.5059-0.92087-2.25-1.0625-1.0033-0.19096-2.1363-0.09759-2.8125 0.78125-0.67841 0.88175-0.47991 1.9902-0.03125 2.9062 0.3453 0.70503 1.014 1.3456 1.6875 1.9688-0.87151 0.34048-1.7297 0.73585-2.3125 1.2812-0.74608 0.69821-1.3418 1.654-1.0312 2.7188 0.31084 1.0659 1.3415 1.574 2.3438 1.75 0.47786 0.0839 1.0594-0.08817 1.5938-0.125-3.0828 3.4727-5.346 7.6932-5.9375 8.8438h3.7188c0.73539-1.4583 1.8502-3.4269 3.1875-5.375 0.23544 0.64379 0.60641 1.2454 1.3125 1.5 1.0449 0.37682 2.0418-0.13995 2.7812-0.84375 0.46644-0.44393 0.77549-1.1681 1.125-1.8125 0.44488 0.58444 0.84532 1.2566 1.375 1.625 0.83838 0.58311 1.9304 0.94052 2.9062 0.40625 0.97345-0.53297 1.2319-1.6401 1.1875-2.6562-0.02588-0.59178-0.34405-1.2436-0.5625-1.875 0.66157 0.05705 1.3606 0.21229 1.9375 0.09375 0.99555-0.20457 2.0015-0.74023 2.2812-1.8125 0.28-1.073-0.326-2.02-1.094-2.687-0.397-0.345-1.036-0.525-1.562-0.782 0.439-0.39 1.022-0.715 1.312-1.156 0.56131-0.85357 0.8679-1.913 0.3125-2.875-0.55504-0.96136-1.6399-1.2213-2.6562-1.1562-0.9476 0.06069-1.9634 0.45382-2.9688 1-0.02546-1.1607-0.22676-2.2348-0.65625-3.0938-0.45528-0.91057-1.237-1.75-2.3438-1.75zm0.0625 8.75c0.82622 0 1.4688 0.64253 1.4688 1.4688 0 0.82622-0.64253 1.4688-1.4688 1.4688-0.82622 0-1.4688-0.64253-1.4688-1.4688 0-0.82622 0.64253-1.4688 1.4688-1.4688z"/>
 <path id="path4019-3" opacity=".3" style="color:#000000" d="m21.688 19.812c-1.1046 0-2 1.7909-2 4 0 0.36757 0.01608 0.72441 0.0625 1.0625-0.237-0.239-0.462-0.497-0.75-0.718-1.7509-1.3471-3.7327-1.7192-4.4062-0.84375-0.67356 0.87544 0.21787 2.6841 1.9688 4.0312 0.33222 0.25561 0.66263 0.44086 1 0.625-0.38218 0.04885-0.784 0.13233-1.1875 0.25-2.1208 0.61848-3.5905 2.0021-3.2812 3.0625 0.30924 1.0604 2.2855 1.3997 4.4062 0.78125 0.39765-0.11596 0.78063-0.24495 1.125-0.40625-0.08406 0.15303-0.17393 0.30305-0.25 0.46875-3.3273 2.9696-6.1092 7.9545-7.125 9.9062h1.4062c0.94275-2.0991 2.6775-5.4883 5.25-8.4688-0.42128 1.7526-0.14881 3.3009 0.75 3.625 1.0391 0.37472 2.5006-1.0156 3.25-3.0938 0.06741-0.18692 0.10463-0.37814 0.15625-0.5625 0.08094 0.17837 0.15227 0.35276 0.25 0.53125 1.0609 1.9377 2.7186 3.093 3.6875 2.5625 0.96886-0.53045 0.8734-2.531-0.1875-4.4688-0.06052-0.11054-0.12341-0.20731-0.1875-0.3125 0.11753 0.03655 0.22191 0.06196 0.34375 0.09375 2.1376 0.55772 4.0961 0.16254 4.375-0.90625 0.27886-1.0688-1.2374-2.3798-3.375-2.9375-0.03274-0.0085-0.0611-0.02316-0.09375-0.03125 0.02882-0.01617 0.06497-0.01463 0.09375-0.03125 1.9132-1.1046 3.021-2.7934 2.4688-3.75-0.55228-0.95658-2.5556-0.82332-4.4688 0.28125-0.61281 0.35381-1.1124 0.75957-1.5312 1.1875 0.15883-0.5735 0.25-1.2355 0.25-1.9375 0-2.2091-0.89543-4-2-4zm0.0625 6.6875c1.3807 0 2.5 1.1193 2.5 2.5s-1.1193 2.5-2.5 2.5-2.5-1.1193-2.5-2.5 1.1193-2.5 2.5-2.5z"/>
 <path id="path4224" d="m21.688 18.781c-1.1046 0-2 1.7909-2 4 0 0.36757 0.01608 0.72441 0.0625 1.0625-0.237-0.24-0.462-0.498-0.75-0.719-1.751-1.347-3.733-1.719-4.406-0.844-0.67356 0.87544 0.21787 2.6841 1.9688 4.0312 0.33222 0.25561 0.66263 0.44086 1 0.625-0.38218 0.04885-0.784 0.13233-1.1875 0.25-2.1208 0.61848-3.5905 2.0021-3.2812 3.0625 0.30924 1.0604 2.2855 1.3997 4.4062 0.78125 0.39765-0.11596 0.78063-0.24495 1.125-0.40625-0.08406 0.15303-0.17393 0.30305-0.25 0.46875-4.1674 3.7194-7.5938 10.844-7.5938 10.844l1.4375 0.03125c0.78058-1.874 2.711-5.989 5.6875-9.4375-0.42128 1.7526-0.14881 3.3009 0.75 3.625 1.0391 0.37472 2.5006-1.0156 3.25-3.0938 0.06741-0.18692 0.10463-0.37814 0.15625-0.5625 0.08094 0.17837 0.15227 0.35276 0.25 0.53125 1.0609 1.9377 2.7186 3.093 3.6875 2.5625 0.96886-0.53045 0.8734-2.531-0.1875-4.4688-0.06052-0.11054-0.12341-0.20731-0.1875-0.3125 0.11753 0.03655 0.22191 0.06196 0.34375 0.09375 2.1376 0.55772 4.0961 0.16254 4.375-0.90625 0.27886-1.0688-1.2374-2.3798-3.375-2.9375-0.03274-0.0085-0.0611-0.02316-0.09375-0.03125 0.02882-0.01617 0.06497-0.01463 0.09375-0.03125 1.9132-1.1046 3.021-2.7934 2.4688-3.75-0.55228-0.95658-2.5556-0.82332-4.4688 0.28125-0.61281 0.35381-1.1124 0.75957-1.5312 1.1875 0.15883-0.5735 0.25-1.2355 0.25-1.9375 0-2.2091-0.89543-4-2-4zm0.0625 6.6875c1.3807 0 2.5 1.1193 2.5 2.5s-1.1193 2.5-2.5 2.5-2.5-1.1193-2.5-2.5 1.1193-2.5 2.5-2.5z" fill="#f4845b"/>
 <path id="path4019" d="m18.34 31.094c-4.167 3.719-7.559 10.843-7.559 10.843l1.4375 0.03125c0.78058-1.874 2.711-5.989 5.6875-9.4375z" fill="#9bd46d"/>
 <path id="path4160-6-1" stroke-linejoin="round" d="m1.5 8.4999c10.312 0 45 0.0025 45 0.0025l0.000047 35.998h-45v-36z" stroke="url(#linearGradient3144)" stroke-width=".99992" fill="none"/>
</svg>
