<?xml version="1.0" encoding="UTF-8" standalone="no"?>
<!-- Created with Inkscape (http://www.inkscape.org/) -->
<svg id="svg2" xmlns:rdf="http://www.w3.org/1999/02/22-rdf-syntax-ns#" xmlns="http://www.w3.org/2000/svg" height="48" width="48" version="1.1" xmlns:cc="http://creativecommons.org/ns#" xmlns:xlink="http://www.w3.org/1999/xlink" xmlns:dc="http://purl.org/dc/elements/1.1/">
 <defs id="defs4">
  <linearGradient id="linearGradient7251">
   <stop id="stop7253" stop-color="#fc93dc" offset="0"/>
   <stop id="stop7255" stop-color="#da72d3" offset="1"/>
  </linearGradient>
  <radialGradient id="radialGradient20986" gradientUnits="userSpaceOnUse" cy="10.031" cx="7.1449" gradientTransform="matrix(0 9.1402 -11.221 0 136.56 926.47)" r="12.672">
   <stop id="stop4088-6" stop-color="#fc93dc" offset="0"/>
   <stop id="stop4090-4" stop-color="#da72d3" offset=".26238"/>
   <stop id="stop4092-6" stop-color="#a33fab" offset=".70495"/>
   <stop id="stop4094-2" stop-color="#502b58" offset="1"/>
  </radialGradient>
  <linearGradient id="linearGradient20983" y2="43" gradientUnits="userSpaceOnUse" x2="24" gradientTransform="translate(-.0000020945 1005.4)" y1="5" x1="24">
   <stop id="stop3926-9-4-9-6" stop-color="#fff" offset="0"/>
   <stop id="stop3928-9-8-6-5" stop-color="#fff" stop-opacity=".23529" offset=".063165"/>
   <stop id="stop3930-3-5-1-7" stop-color="#fff" stop-opacity=".15686" offset=".95056"/>
   <stop id="stop3932-8-0-4-8" stop-color="#fff" stop-opacity=".39216" offset="1"/>
  </linearGradient>
  <linearGradient id="linearGradient6326" y2="39.999" gradientUnits="userSpaceOnUse" x2="25.058" gradientTransform="matrix(1.2857 0 0 .57143 -6.8571 1023.5)" y1="47.028" x1="25.058">
   <stop id="stop2895-8-9-9-1" stop-color="#181818" stop-opacity="0" offset="0"/>
   <stop id="stop2897-7-8-7-7" stop-color="#181818" offset=".5"/>
   <stop id="stop2899-4-5-1-5" stop-color="#181818" stop-opacity="0" offset="1"/>
  </linearGradient>
  <radialGradient id="radialGradient6329" gradientUnits="userSpaceOnUse" cy="43.5" cx="4.993" gradientTransform="matrix(1.603 0 0 .8 -14.009 -1083.2)" r="2.5">
   <stop id="stop2889-7-9-6-9" stop-color="#181818" offset="0"/>
   <stop id="stop2891-6-6-1-7" stop-color="#181818" stop-opacity="0" offset="1"/>
  </radialGradient>
  <radialGradient id="radialGradient6332" gradientUnits="userSpaceOnUse" cy="43.5" cx="4.993" gradientTransform="matrix(1.603 0 0 .8 33.991 1013.6)" r="2.5">
   <stop id="stop2883-4-0-1-8" stop-color="#181818" offset="0"/>
   <stop id="stop2885-9-2-9-6" stop-color="#181818" stop-opacity="0" offset="1"/>
  </radialGradient>
  <linearGradient id="linearGradient7257" y2="37.387" xlink:href="#linearGradient7251" gradientUnits="userSpaceOnUse" x2="11.7" y1="9.213" x1="11.7"/>
  <linearGradient id="linearGradient7320" y2="37" xlink:href="#linearGradient7251" gradientUnits="userSpaceOnUse" x2="24" y1="19" x1="24"/>
  <linearGradient id="linearGradient7326" y2="37.235" xlink:href="#linearGradient7251" gradientUnits="userSpaceOnUse" x2="11.7" y1="9.3645" x1="11.7"/>
  <linearGradient id="linearGradient7628" y2="43" gradientUnits="userSpaceOnUse" x2="24" y1="7" x1="24">
   <stop id="stop7624" offset="0"/>
   <stop id="stop7630" stop-opacity=".251" offset=".5"/>
   <stop id="stop7626" offset="1"/>
  </linearGradient>
 </defs>
 <metadata id="metadata7">
  <rdf:RDF>
   <cc:Work rdf:about="">
    <dc:format>image/svg+xml</dc:format>
    <dc:type rdf:resource="http://purl.org/dc/dcmitype/StillImage"/>
   </cc:Work>
  </rdf:RDF>
 </metadata>
 <g id="layer1" transform="translate(0 -1004.4)">
  <g id="g6336" opacity=".6">
   <rect id="rect2801-5-5-7-9" opacity="1" height="4" width="4" y="1046.4" x="42" fill="url(#radialGradient6332)"/>
   <rect id="rect3696-3-0-3-7" opacity="1" transform="scale(-1)" height="4" width="4" y="-1050.4" x="-6" fill="url(#radialGradient6329)"/>
   <rect id="rect3700-5-6-8-4" opacity="1" height="4" width="36" y="1046.4" x="6" fill="url(#linearGradient6326)"/>
  </g>
  <rect id="rect5505-21-3-8-5-2" style="color:#000000" rx="2" ry="2" height="39" width="39" y="1009.9" x="4.5" fill="url(#radialGradient20986)"/>
  <rect id="rect6741-5-0-2-3" opacity=".3" stroke-linejoin="round" rx="1" ry="1" height="37" width="37" stroke="url(#linearGradient20983)" stroke-linecap="round" y="1010.9" x="5.5" fill="none"/>
  <rect id="rect5505-21-3-8-9-1-1" stroke-linejoin="round" ry="2" stroke="#542f57" stroke-linecap="round" fill="none" style="color:#000000" rx="2" transform="rotate(-90)" width="39" opacity=".6" height="39" y="4.5" x="-1048.9"/>
  <path id="path7632" opacity=".07" d="m18.156 8.5c-0.089 0.1499-0.156 0.3121-0.156 0.5 0 0.554 0.446 1 1 1h1c0.554 0 1-0.446 1-1 0-0.1879-0.067-0.3501-0.156-0.5-0.174 0.292-0.478 0.5-0.844 0.5h-1c-0.366 0-0.67-0.208-0.844-0.5zm0 3c-0.089 0.15-0.156 0.312-0.156 0.5 0 0.554 0.446 1 1 1h1c0.554 0 1-0.446 1-1 0-0.188-0.067-0.35-0.156-0.5-0.174 0.292-0.478 0.5-0.844 0.5h-1c-0.366 0-0.67-0.208-0.844-0.5zm4 0c-0.089 0.15-0.156 0.312-0.156 0.5 0 0.554 0.446 1 1 1h2c0.554 0 1-0.446 1-1 0-0.188-0.067-0.35-0.156-0.5-0.174 0.292-0.478 0.5-0.844 0.5h-2c-0.366 0-0.67-0.208-0.844-0.5zm5 0c-0.089 0.15-0.156 0.312-0.156 0.5 0 0.554 0.446 1 1 1h1c0.554 0 1-0.446 1-1 0-0.188-0.067-0.35-0.156-0.5-0.174 0.292-0.478 0.5-0.844 0.5h-1c-0.366 0-0.67-0.208-0.844-0.5zm8 0c-0.089 0.15-0.156 0.312-0.156 0.5 0 0.554 0.446 1 1 1h1c0.554 0 1-0.446 1-1 0-0.188-0.067-0.35-0.156-0.5-0.174 0.292-0.478 0.5-0.844 0.5h-1c-0.366 0-0.67-0.208-0.844-0.5zm-25 3c-0.089 0.15-0.156 0.312-0.156 0.5 0 0.554 0.446 1 1 1h1c0.554 0 1-0.446 1-1 0-0.188-0.067-0.35-0.156-0.5-0.174 0.292-0.478 0.5-0.844 0.5h-1c-0.366 0-0.67-0.208-0.844-0.5zm8 0c-0.089 0.15-0.156 0.312-0.156 0.5 0 0.554 0.446 1 1 1h1c0.554 0 1-0.446 1-1 0-0.188-0.067-0.35-0.156-0.5-0.174 0.292-0.478 0.5-0.844 0.5h-1c-0.366 0-0.67-0.208-0.844-0.5zm4 0c-0.089 0.15-0.156 0.312-0.156 0.5 0 0.554 0.446 1 1 1h2c0.554 0 1-0.446 1-1 0-0.188-0.067-0.35-0.156-0.5-0.174 0.292-0.478 0.5-0.844 0.5h-2c-0.366 0-0.67-0.208-0.844-0.5zm5 0c-0.089 0.15-0.156 0.312-0.156 0.5 0 0.554 0.446 1 1 1h1c0.554 0 1-0.446 1-1 0-0.188-0.067-0.35-0.156-0.5-0.174 0.292-0.478 0.5-0.844 0.5h-1c-0.366 0-0.67-0.208-0.844-0.5zm8 0c-0.089 0.15-0.156 0.312-0.156 0.5 0 0.554 0.446 1 1 1h1c0.554 0 1-0.446 1-1 0-0.188-0.067-0.35-0.156-0.5-0.174 0.292-0.478 0.5-0.844 0.5h-1c-0.366 0-0.67-0.208-0.844-0.5zm-25 3c-0.089 0.15-0.156 0.312-0.156 0.5 0 0.554 0.446 1 1 1h1c0.554 0 1-0.446 1-1 0-0.188-0.067-0.35-0.156-0.5-0.174 0.292-0.478 0.5-0.844 0.5h-1c-0.366 0-0.67-0.208-0.844-0.5zm4 0c-0.089 0.15-0.156 0.312-0.156 0.5 0 0.554 0.446 1 1 1h1c0.554 0 1-0.446 1-1 0-0.188-0.067-0.35-0.156-0.5-0.174 0.292-0.478 0.5-0.844 0.5h-1c-0.366 0-0.67-0.208-0.844-0.5zm4 0c-0.089 0.15-0.156 0.312-0.156 0.5 0 0.554 0.446 1 1 1h1c0.554 0 1-0.446 1-1 0-0.188-0.067-0.35-0.156-0.5-0.174 0.292-0.478 0.5-0.844 0.5h-1c-0.366 0-0.67-0.208-0.844-0.5zm4 0c-0.089 0.15-0.156 0.312-0.156 0.5 0 0.554 0.446 1 1 1h2c0.554 0 1-0.446 1-1 0-0.188-0.067-0.35-0.156-0.5-0.174 0.292-0.478 0.5-0.844 0.5h-2c-0.366 0-0.67-0.208-0.844-0.5zm5 0c-0.089 0.15-0.156 0.312-0.156 0.5 0 0.554 0.446 1 1 1h1c0.554 0 1-0.446 1-1 0-0.188-0.067-0.35-0.156-0.5-0.174 0.292-0.478 0.5-0.844 0.5h-1c-0.366 0-0.67-0.208-0.844-0.5zm8 0c-0.089 0.15-0.156 0.312-0.156 0.5 0 0.554 0.446 1 1 1h1c0.554 0 1-0.446 1-1 0-0.188-0.067-0.35-0.156-0.5-0.174 0.292-0.478 0.5-0.844 0.5h-1c-0.366 0-0.67-0.208-0.844-0.5zm-29 3c-0.0894 0.15-0.1562 0.312-0.1562 0.5 0 0.554 0.446 1 1 1h1c0.554 0 1-0.446 1-1 0-0.188-0.0668-0.35-0.1562-0.5-0.1743 0.292-0.4777 0.5-0.8438 0.5h-1c-0.3661 0-0.6695-0.208-0.8438-0.5zm3.9998 0c-0.089 0.15-0.156 0.312-0.156 0.5 0 0.554 0.446 1 1 1h1c0.554 0 1-0.446 1-1 0-0.188-0.067-0.35-0.156-0.5-0.174 0.292-0.478 0.5-0.844 0.5h-1c-0.366 0-0.67-0.208-0.844-0.5zm4 0c-0.089 0.15-0.156 0.312-0.156 0.5 0 0.554 0.446 1 1 1h1c0.554 0 1-0.446 1-1 0-0.188-0.067-0.35-0.156-0.5-0.174 0.292-0.478 0.5-0.844 0.5h-1c-0.366 0-0.67-0.208-0.844-0.5zm4 0c-0.089 0.15-0.156 0.312-0.156 0.5 0 0.554 0.446 1 1 1h1c0.554 0 1-0.446 1-1 0-0.188-0.067-0.35-0.156-0.5-0.174 0.292-0.478 0.5-0.844 0.5h-1c-0.366 0-0.67-0.208-0.844-0.5zm4 0c-0.089 0.15-0.156 0.312-0.156 0.5 0 0.554 0.446 1 1 1h2c0.554 0 1-0.446 1-1 0-0.188-0.067-0.35-0.156-0.5-0.174 0.292-0.478 0.5-0.844 0.5h-2c-0.366 0-0.67-0.208-0.844-0.5zm5 0c-0.089 0.15-0.156 0.312-0.156 0.5 0 0.554 0.446 1 1 1h1c0.554 0 1-0.446 1-1 0-0.188-0.067-0.35-0.156-0.5-0.174 0.292-0.478 0.5-0.844 0.5h-1c-0.366 0-0.67-0.208-0.844-0.5zm4 0c-0.089 0.15-0.156 0.312-0.156 0.5 0 0.554 0.446 1 1 1h1c0.554 0 1-0.446 1-1 0-0.188-0.067-0.35-0.156-0.5-0.174 0.292-0.478 0.5-0.844 0.5h-1c-0.366 0-0.67-0.208-0.844-0.5zm4 0c-0.089 0.15-0.156 0.312-0.156 0.5 0 0.554 0.446 1 1 1h1c0.554 0 1-0.446 1-1 0-0.188-0.067-0.35-0.156-0.5-0.174 0.292-0.478 0.5-0.844 0.5h-1c-0.366 0-0.67-0.208-0.844-0.5zm4 0c-0.089 0.15-0.156 0.312-0.156 0.5 0 0.554 0.446 1 1 1h1c0.554 0 1-0.446 1-1 0-0.188-0.067-0.35-0.156-0.5-0.174 0.292-0.478 0.5-0.844 0.5h-1c-0.366 0-0.67-0.208-0.844-0.5zm-33 3c-0.0894 0.15-0.1562 0.312-0.1562 0.5 0 0.554 0.446 1 1 1h1c0.554 0 1-0.446 1-1 0-0.188-0.0668-0.35-0.1562-0.5-0.1743 0.292-0.4777 0.5-0.8438 0.5h-1c-0.3661 0-0.6695-0.208-0.8438-0.5zm3.9998 0c-0.089 0.15-0.156 0.312-0.156 0.5 0 0.554 0.446 1 1 1h1c0.554 0 1-0.446 1-1 0-0.188-0.067-0.35-0.156-0.5-0.174 0.292-0.478 0.5-0.844 0.5h-1c-0.366 0-0.67-0.208-0.844-0.5zm4 0c-0.089 0.15-0.156 0.312-0.156 0.5 0 0.554 0.446 1 1 1h1c0.554 0 1-0.446 1-1 0-0.188-0.067-0.35-0.156-0.5-0.174 0.292-0.478 0.5-0.844 0.5h-1c-0.366 0-0.67-0.208-0.844-0.5zm4 0c-0.089 0.15-0.156 0.312-0.156 0.5 0 0.554 0.446 1 1 1h1c0.554 0 1-0.446 1-1 0-0.188-0.067-0.35-0.156-0.5-0.174 0.292-0.478 0.5-0.844 0.5h-1c-0.366 0-0.67-0.208-0.844-0.5zm4 0c-0.089 0.15-0.156 0.312-0.156 0.5 0 0.554 0.446 1 1 1h2c0.554 0 1-0.446 1-1 0-0.188-0.067-0.35-0.156-0.5-0.174 0.292-0.478 0.5-0.844 0.5h-2c-0.366 0-0.67-0.208-0.844-0.5zm5 0c-0.089 0.15-0.156 0.312-0.156 0.5 0 0.554 0.446 1 1 1h1c0.554 0 1-0.446 1-1 0-0.188-0.067-0.35-0.156-0.5-0.174 0.292-0.478 0.5-0.844 0.5h-1c-0.366 0-0.67-0.208-0.844-0.5zm4 0c-0.089 0.15-0.156 0.312-0.156 0.5 0 0.554 0.446 1 1 1h1c0.554 0 1-0.446 1-1 0-0.188-0.067-0.35-0.156-0.5-0.174 0.292-0.478 0.5-0.844 0.5h-1c-0.366 0-0.67-0.208-0.844-0.5zm4 0c-0.089 0.15-0.156 0.312-0.156 0.5 0 0.554 0.446 1 1 1h1c0.554 0 1-0.446 1-1 0-0.188-0.067-0.35-0.156-0.5-0.174 0.292-0.478 0.5-0.844 0.5h-1c-0.366 0-0.67-0.208-0.844-0.5zm4 0c-0.089 0.15-0.156 0.312-0.156 0.5 0 0.554 0.446 1 1 1h1c0.554 0 1-0.446 1-1 0-0.188-0.067-0.35-0.156-0.5-0.174 0.292-0.478 0.5-0.844 0.5h-1c-0.366 0-0.67-0.208-0.844-0.5zm-33 4c-0.0894 0.15-0.1562 0.312-0.1562 0.5 0 0.554 0.446 1 1 1h1c0.554 0 1-0.446 1-1 0-0.188-0.0668-0.35-0.1562-0.5-0.1743 0.292-0.4777 0.5-0.8438 0.5h-1c-0.3661 0-0.6695-0.208-0.8438-0.5zm3.9998 0c-0.089 0.15-0.156 0.312-0.156 0.5 0 0.554 0.446 1 1 1h1c0.554 0 1-0.446 1-1 0-0.188-0.067-0.35-0.156-0.5-0.174 0.292-0.478 0.5-0.844 0.5h-1c-0.366 0-0.67-0.208-0.844-0.5zm4 0c-0.089 0.15-0.156 0.312-0.156 0.5 0 0.554 0.446 1 1 1h1c0.554 0 1-0.446 1-1 0-0.188-0.067-0.35-0.156-0.5-0.174 0.292-0.478 0.5-0.844 0.5h-1c-0.366 0-0.67-0.208-0.844-0.5zm4 0c-0.089 0.15-0.156 0.312-0.156 0.5 0 0.554 0.446 1 1 1h1c0.554 0 1-0.446 1-1 0-0.188-0.067-0.35-0.156-0.5-0.174 0.292-0.478 0.5-0.844 0.5h-1c-0.366 0-0.67-0.208-0.844-0.5zm4 0c-0.089 0.15-0.156 0.312-0.156 0.5 0 0.554 0.446 1 1 1h2c0.554 0 1-0.446 1-1 0-0.188-0.067-0.35-0.156-0.5-0.174 0.292-0.478 0.5-0.844 0.5h-2c-0.366 0-0.67-0.208-0.844-0.5zm5 0c-0.089 0.15-0.156 0.312-0.156 0.5 0 0.554 0.446 1 1 1h1c0.554 0 1-0.446 1-1 0-0.188-0.067-0.35-0.156-0.5-0.174 0.292-0.478 0.5-0.844 0.5h-1c-0.366 0-0.67-0.208-0.844-0.5zm4 0c-0.089 0.15-0.156 0.312-0.156 0.5 0 0.554 0.446 1 1 1h1c0.554 0 1-0.446 1-1 0-0.188-0.067-0.35-0.156-0.5-0.174 0.292-0.478 0.5-0.844 0.5h-1c-0.366 0-0.67-0.208-0.844-0.5zm4 0c-0.089 0.15-0.156 0.312-0.156 0.5 0 0.554 0.446 1 1 1h1c0.554 0 1-0.446 1-1 0-0.188-0.067-0.35-0.156-0.5-0.174 0.292-0.478 0.5-0.844 0.5h-1c-0.366 0-0.67-0.208-0.844-0.5zm4 0c-0.089 0.15-0.156 0.312-0.156 0.5 0 0.554 0.446 1 1 1h1c0.554 0 1-0.446 1-1 0-0.188-0.067-0.35-0.156-0.5-0.174 0.292-0.478 0.5-0.844 0.5h-1c-0.366 0-0.67-0.208-0.844-0.5zm-33 3c-0.0894 0.15-0.1562 0.312-0.1562 0.5 0 0.554 0.446 1 1 1h1c0.554 0 1-0.446 1-1 0-0.188-0.0668-0.35-0.1562-0.5-0.1743 0.292-0.4777 0.5-0.8438 0.5h-1c-0.3661 0-0.6695-0.208-0.8438-0.5zm7.9998 0c-0.089 0.15-0.156 0.312-0.156 0.5 0 0.554 0.446 1 1 1h1c0.554 0 1-0.446 1-1 0-0.188-0.067-0.35-0.156-0.5-0.174 0.292-0.478 0.5-0.844 0.5h-1c-0.366 0-0.67-0.208-0.844-0.5zm4 0c-0.089 0.15-0.156 0.312-0.156 0.5 0 0.554 0.446 1 1 1h1c0.554 0 1-0.446 1-1 0-0.188-0.067-0.35-0.156-0.5-0.174 0.292-0.478 0.5-0.844 0.5h-1c-0.366 0-0.67-0.208-0.844-0.5zm4 0c-0.089 0.15-0.156 0.312-0.156 0.5 0 0.554 0.446 1 1 1h2c0.554 0 1-0.446 1-1 0-0.188-0.067-0.35-0.156-0.5-0.174 0.292-0.478 0.5-0.844 0.5h-2c-0.366 0-0.67-0.208-0.844-0.5zm5 0c-0.089 0.15-0.156 0.312-0.156 0.5 0 0.554 0.446 1 1 1h1c0.554 0 1-0.446 1-1 0-0.188-0.067-0.35-0.156-0.5-0.174 0.292-0.478 0.5-0.844 0.5h-1c-0.366 0-0.67-0.208-0.844-0.5zm4 0c-0.089 0.15-0.156 0.312-0.156 0.5 0 0.554 0.446 1 1 1h1c0.554 0 1-0.446 1-1 0-0.188-0.067-0.35-0.156-0.5-0.174 0.292-0.478 0.5-0.844 0.5h-1c-0.366 0-0.67-0.208-0.844-0.5zm4 0c-0.089 0.15-0.156 0.312-0.156 0.5 0 0.554 0.446 1 1 1h1c0.554 0 1-0.446 1-1 0-0.188-0.067-0.35-0.156-0.5-0.174 0.292-0.478 0.5-0.844 0.5h-1c-0.366 0-0.67-0.208-0.844-0.5zm4 0c-0.089 0.15-0.156 0.312-0.156 0.5 0 0.554 0.446 1 1 1h1c0.554 0 1-0.446 1-1 0-0.188-0.067-0.35-0.156-0.5-0.174 0.292-0.478 0.5-0.844 0.5h-1c-0.366 0-0.67-0.208-0.844-0.5zm-33 3c-0.0894 0.15-0.1562 0.312-0.1562 0.5 0 0.554 0.446 1 1 1h1c0.554 0 1-0.446 1-1 0-0.188-0.0668-0.35-0.1562-0.5-0.1743 0.292-0.4777 0.5-0.8438 0.5h-1c-0.3661 0-0.6695-0.208-0.8438-0.5zm7.9998 0c-0.089 0.15-0.156 0.312-0.156 0.5 0 0.554 0.446 1 1 1h1c0.554 0 1-0.446 1-1 0-0.188-0.067-0.35-0.156-0.5-0.174 0.292-0.478 0.5-0.844 0.5h-1c-0.366 0-0.67-0.208-0.844-0.5zm4 0c-0.089 0.15-0.156 0.312-0.156 0.5 0 0.554 0.446 1 1 1h1c0.554 0 1-0.446 1-1 0-0.188-0.067-0.35-0.156-0.5-0.174 0.292-0.478 0.5-0.844 0.5h-1c-0.366 0-0.67-0.208-0.844-0.5zm4 0c-0.089 0.15-0.156 0.312-0.156 0.5 0 0.554 0.446 1 1 1h2c0.554 0 1-0.446 1-1 0-0.188-0.067-0.35-0.156-0.5-0.174 0.292-0.478 0.5-0.844 0.5h-2c-0.366 0-0.67-0.208-0.844-0.5zm9 0c-0.089 0.15-0.156 0.312-0.156 0.5 0 0.554 0.446 1 1 1h1c0.554 0 1-0.446 1-1 0-0.188-0.067-0.35-0.156-0.5-0.174 0.292-0.478 0.5-0.844 0.5h-1c-0.366 0-0.67-0.208-0.844-0.5zm4 0c-0.089 0.15-0.156 0.312-0.156 0.5 0 0.554 0.446 1 1 1h1c0.554 0 1-0.446 1-1 0-0.188-0.067-0.35-0.156-0.5-0.174 0.292-0.478 0.5-0.844 0.5h-1c-0.366 0-0.67-0.208-0.844-0.5zm4 0c-0.089 0.15-0.156 0.312-0.156 0.5 0 0.554 0.446 1 1 1h1c0.554 0 1-0.446 1-1 0-0.188-0.067-0.35-0.156-0.5-0.174 0.292-0.478 0.5-0.844 0.5h-1c-0.366 0-0.67-0.208-0.844-0.5zm-25 3c-0.089 0.15-0.156 0.312-0.156 0.5 0 0.554 0.446 1 1 1h1c0.554 0 1-0.446 1-1 0-0.188-0.067-0.35-0.156-0.5-0.174 0.292-0.478 0.5-0.844 0.5h-1c-0.366 0-0.67-0.208-0.844-0.5zm4 0c-0.089 0.15-0.156 0.312-0.156 0.5 0 0.554 0.446 1 1 1h1c0.554 0 1-0.446 1-1 0-0.188-0.067-0.35-0.156-0.5-0.174 0.292-0.478 0.5-0.844 0.5h-1c-0.366 0-0.67-0.208-0.844-0.5zm13 0c-0.089 0.15-0.156 0.312-0.156 0.5 0 0.554 0.446 1 1 1h1c0.554 0 1-0.446 1-1 0-0.188-0.067-0.35-0.156-0.5-0.174 0.292-0.478 0.5-0.844 0.5h-1c-0.366 0-0.67-0.208-0.844-0.5zm4 0c-0.089 0.15-0.156 0.312-0.156 0.5 0 0.554 0.446 1 1 1h1c0.554 0 1-0.446 1-1 0-0.188-0.067-0.35-0.156-0.5-0.174 0.292-0.478 0.5-0.844 0.5h-1c-0.366 0-0.67-0.208-0.844-0.5zm4 0c-0.089 0.15-0.156 0.312-0.156 0.5 0 0.554 0.446 1 1 1h1c0.554 0 1-0.446 1-1 0-0.188-0.067-0.35-0.156-0.5-0.174 0.292-0.478 0.5-0.844 0.5h-1c-0.366 0-0.67-0.208-0.844-0.5zm-25 3c-0.089 0.15-0.156 0.312-0.156 0.5 0 0.554 0.446 1 1 1h1c0.554 0 1-0.446 1-1 0-0.188-0.067-0.35-0.156-0.5-0.174 0.292-0.478 0.5-0.844 0.5h-1c-0.366 0-0.67-0.208-0.844-0.5zm4 0c-0.089 0.15-0.156 0.312-0.156 0.5 0 0.554 0.446 1 1 1h1c0.554 0 1-0.446 1-1 0-0.188-0.067-0.35-0.156-0.5-0.174 0.292-0.478 0.5-0.844 0.5h-1c-0.366 0-0.67-0.208-0.844-0.5zm13 0c-0.089 0.15-0.156 0.312-0.156 0.5 0 0.554 0.446 1 1 1h1c0.554 0 1-0.446 1-1 0-0.188-0.067-0.35-0.156-0.5-0.174 0.292-0.478 0.5-0.844 0.5h-1c-0.366 0-0.67-0.208-0.844-0.5zm4 0c-0.089 0.15-0.156 0.312-0.156 0.5 0 0.554 0.446 1 1 1h1c0.554 0 1-0.446 1-1 0-0.188-0.067-0.35-0.156-0.5-0.174 0.292-0.478 0.5-0.844 0.5h-1c-0.366 0-0.67-0.208-0.844-0.5zm-21 3c-0.089 0.15-0.156 0.312-0.156 0.5 0 0.554 0.446 1 1 1h1c0.554 0 1-0.446 1-1 0-0.188-0.067-0.35-0.156-0.5-0.174 0.292-0.478 0.5-0.844 0.5h-1c-0.366 0-0.67-0.208-0.844-0.5z" transform="translate(0 1004.4)" fill="#fff"/>
  <path id="rect7328" opacity=".14" d="m19 7c-0.554 0-1 0.446-1 1s0.446 1 1 1h1c0.554 0 1-0.446 1-1s-0.446-1-1-1h-1zm0 3c-0.554 0-1 0.446-1 1s0.446 1 1 1h1c0.554 0 1-0.446 1-1s-0.446-1-1-1h-1zm4 0c-0.554 0-1 0.446-1 1s0.446 1 1 1h2c0.554 0 1-0.446 1-1s-0.446-1-1-1h-2zm5 0c-0.554 0-1 0.446-1 1s0.446 1 1 1h1c0.554 0 1-0.446 1-1s-0.446-1-1-1h-1zm8 0c-0.554 0-1 0.446-1 1s0.446 1 1 1h1c0.554 0 1-0.446 1-1s-0.446-1-1-1h-1zm-25 3c-0.554 0-1 0.446-1 1s0.446 1 1 1h1c0.554 0 1-0.446 1-1s-0.446-1-1-1h-1zm8 0c-0.554 0-1 0.446-1 1s0.446 1 1 1h1c0.554 0 1-0.446 1-1s-0.446-1-1-1h-1zm4 0c-0.554 0-1 0.446-1 1s0.446 1 1 1h2c0.554 0 1-0.446 1-1s-0.446-1-1-1h-2zm5 0c-0.554 0-1 0.446-1 1s0.446 1 1 1h1c0.554 0 1-0.446 1-1s-0.446-1-1-1h-1zm8 0c-0.554 0-1 0.446-1 1s0.446 1 1 1h1c0.554 0 1-0.446 1-1s-0.446-1-1-1h-1zm-25 3c-0.554 0-1 0.446-1 1s0.446 1 1 1h1c0.554 0 1-0.446 1-1s-0.446-1-1-1h-1zm4 0c-0.554 0-1 0.446-1 1s0.446 1 1 1h1c0.554 0 1-0.446 1-1s-0.446-1-1-1h-1zm4 0c-0.554 0-1 0.446-1 1s0.446 1 1 1h1c0.554 0 1-0.446 1-1s-0.446-1-1-1h-1zm4 0c-0.554 0-1 0.446-1 1s0.446 1 1 1h2c0.554 0 1-0.446 1-1s-0.446-1-1-1h-2zm5 0c-0.554 0-1 0.446-1 1s0.446 1 1 1h1c0.554 0 1-0.446 1-1s-0.446-1-1-1h-1zm8 0c-0.554 0-1 0.446-1 1s0.446 1 1 1h1c0.554 0 1-0.446 1-1s-0.446-1-1-1h-1zm-29 3c-0.554 0-1 0.446-1 1s0.446 1 1 1h1c0.554 0 1-0.446 1-1s-0.446-1-1-1h-1zm4 0c-0.554 0-1 0.446-1 1s0.446 1 1 1h1c0.554 0 1-0.446 1-1s-0.446-1-1-1h-1zm4 0c-0.554 0-1 0.446-1 1s0.446 1 1 1h1c0.554 0 1-0.446 1-1s-0.446-1-1-1h-1zm4 0c-0.554 0-1 0.446-1 1s0.446 1 1 1h1c0.554 0 1-0.446 1-1s-0.446-1-1-1h-1zm4 0c-0.554 0-1 0.446-1 1s0.446 1 1 1h2c0.554 0 1-0.446 1-1s-0.446-1-1-1h-2zm5 0c-0.554 0-1 0.446-1 1s0.446 1 1 1h1c0.554 0 1-0.446 1-1s-0.446-1-1-1h-1zm4 0c-0.554 0-1 0.446-1 1s0.446 1 1 1h1c0.554 0 1-0.446 1-1s-0.446-1-1-1h-1zm4 0c-0.554 0-1 0.446-1 1s0.446 1 1 1h1c0.554 0 1-0.446 1-1s-0.446-1-1-1h-1zm4 0c-0.554 0-1 0.446-1 1s0.446 1 1 1h1c0.554 0 1-0.446 1-1s-0.446-1-1-1h-1zm-33 3c-0.554 0-1 0.446-1 1s0.446 1 1 1h1c0.554 0 1-0.446 1-1s-0.446-1-1-1h-1zm4 0c-0.554 0-1 0.446-1 1s0.446 1 1 1h1c0.554 0 1-0.446 1-1s-0.446-1-1-1h-1zm4 0c-0.554 0-1 0.446-1 1s0.446 1 1 1h1c0.554 0 1-0.446 1-1s-0.446-1-1-1h-1zm4 0c-0.554 0-1 0.446-1 1s0.446 1 1 1h1c0.554 0 1-0.446 1-1s-0.446-1-1-1h-1zm4 0c-0.554 0-1 0.446-1 1s0.446 1 1 1h2c0.554 0 1-0.446 1-1s-0.446-1-1-1h-2zm5 0c-0.554 0-1 0.446-1 1s0.446 1 1 1h1c0.554 0 1-0.446 1-1s-0.446-1-1-1h-1zm4 0c-0.554 0-1 0.446-1 1s0.446 1 1 1h1c0.554 0 1-0.446 1-1s-0.446-1-1-1h-1zm4 0c-0.554 0-1 0.446-1 1s0.446 1 1 1h1c0.554 0 1-0.446 1-1s-0.446-1-1-1h-1zm4 0c-0.554 0-1 0.446-1 1s0.446 1 1 1h1c0.554 0 1-0.446 1-1s-0.446-1-1-1h-1zm-33 4c-0.554 0-1 0.446-1 1s0.446 1 1 1h1c0.554 0 1-0.446 1-1s-0.446-1-1-1h-1zm4 0c-0.554 0-1 0.446-1 1s0.446 1 1 1h1c0.554 0 1-0.446 1-1s-0.446-1-1-1h-1zm4 0c-0.554 0-1 0.446-1 1s0.446 1 1 1h1c0.554 0 1-0.446 1-1s-0.446-1-1-1h-1zm4 0c-0.554 0-1 0.446-1 1s0.446 1 1 1h1c0.554 0 1-0.446 1-1s-0.446-1-1-1h-1zm4 0c-0.554 0-1 0.446-1 1s0.446 1 1 1h2c0.554 0 1-0.446 1-1s-0.446-1-1-1h-2zm5 0c-0.554 0-1 0.446-1 1s0.446 1 1 1h1c0.554 0 1-0.446 1-1s-0.446-1-1-1h-1zm4 0c-0.554 0-1 0.446-1 1s0.446 1 1 1h1c0.554 0 1-0.446 1-1s-0.446-1-1-1h-1zm4 0c-0.554 0-1 0.446-1 1s0.446 1 1 1h1c0.554 0 1-0.446 1-1s-0.446-1-1-1h-1zm4 0c-0.554 0-1 0.446-1 1s0.446 1 1 1h1c0.554 0 1-0.446 1-1s-0.446-1-1-1h-1zm-33 3c-0.554 0-1 0.446-1 1s0.446 1 1 1h1c0.554 0 1-0.446 1-1s-0.446-1-1-1h-1zm8 0c-0.554 0-1 0.446-1 1s0.446 1 1 1h1c0.554 0 1-0.446 1-1s-0.446-1-1-1h-1zm4 0c-0.554 0-1 0.446-1 1s0.446 1 1 1h1c0.554 0 1-0.446 1-1s-0.446-1-1-1h-1zm4 0c-0.554 0-1 0.446-1 1s0.446 1 1 1h2c0.554 0 1-0.446 1-1s-0.446-1-1-1h-2zm5 0c-0.554 0-1 0.446-1 1s0.446 1 1 1h1c0.554 0 1-0.446 1-1s-0.446-1-1-1h-1zm4 0c-0.554 0-1 0.446-1 1s0.446 1 1 1h1c0.554 0 1-0.446 1-1s-0.446-1-1-1h-1zm4 0c-0.554 0-1 0.446-1 1s0.446 1 1 1h1c0.554 0 1-0.446 1-1s-0.446-1-1-1h-1zm4 0c-0.554 0-1 0.446-1 1s0.446 1 1 1h1c0.554 0 1-0.446 1-1s-0.446-1-1-1h-1zm-33 3c-0.554 0-1 0.446-1 1s0.446 1 1 1h1c0.554 0 1-0.446 1-1s-0.446-1-1-1h-1zm8 0c-0.554 0-1 0.446-1 1s0.446 1 1 1h1c0.554 0 1-0.446 1-1s-0.446-1-1-1h-1zm4 0c-0.554 0-1 0.446-1 1s0.446 1 1 1h1c0.554 0 1-0.446 1-1s-0.446-1-1-1h-1zm4 0c-0.554 0-1 0.446-1 1s0.446 1 1 1h2c0.554 0 1-0.446 1-1s-0.446-1-1-1h-2zm9 0c-0.554 0-1 0.446-1 1s0.446 1 1 1h1c0.554 0 1-0.446 1-1s-0.446-1-1-1h-1zm4 0c-0.554 0-1 0.446-1 1s0.446 1 1 1h1c0.554 0 1-0.446 1-1s-0.446-1-1-1h-1zm4 0c-0.554 0-1 0.446-1 1s0.446 1 1 1h1c0.554 0 1-0.446 1-1s-0.446-1-1-1h-1zm-25 3c-0.554 0-1 0.446-1 1s0.446 1 1 1h1c0.554 0 1-0.446 1-1s-0.446-1-1-1h-1zm4 0c-0.554 0-1 0.446-1 1s0.446 1 1 1h1c0.554 0 1-0.446 1-1s-0.446-1-1-1h-1zm13 0c-0.554 0-1 0.446-1 1s0.446 1 1 1h1c0.554 0 1-0.446 1-1s-0.446-1-1-1h-1zm4 0c-0.554 0-1 0.446-1 1s0.446 1 1 1h1c0.554 0 1-0.446 1-1s-0.446-1-1-1h-1zm4 0c-0.554 0-1 0.446-1 1s0.446 1 1 1h1c0.554 0 1-0.446 1-1s-0.446-1-1-1h-1zm-25 3c-0.554 0-1 0.446-1 1s0.446 1 1 1h1c0.554 0 1-0.446 1-1s-0.446-1-1-1h-1zm4 0c-0.554 0-1 0.446-1 1s0.446 1 1 1h1c0.554 0 1-0.446 1-1s-0.446-1-1-1h-1zm13 0c-0.554 0-1 0.446-1 1s0.446 1 1 1h1c0.554 0 1-0.446 1-1s-0.446-1-1-1h-1zm4 0c-0.554 0-1 0.446-1 1s0.446 1 1 1h1c0.554 0 1-0.446 1-1s-0.446-1-1-1h-1zm-21 3c-0.554 0-1 0.446-1 1s0.446 1 1 1h1c0.554 0 1-0.446 1-1s-0.446-1-1-1h-1z" transform="translate(0 1004.4)" fill="url(#linearGradient7628)"/>
  <g id="g7184" stroke-linejoin="round" stroke-linecap="round" fill="none">
   <path id="path7109" opacity=".03" d="m25.2 23.3c0 7.4558-6.0442 13.5-13.5 13.5s-13.5-6.0442-13.5-13.5 6.0442-13.5 13.5-13.5 13.5 6.0442 13.5 13.5z" transform="matrix(1.3704 0 0 1.3704 7.9667 997.43)" stroke="#000" stroke-width=".72973"/>
   <path id="path7111" opacity=".06" d="m25.2 23.3c0 7.4558-6.0442 13.5-13.5 13.5s-13.5-6.0442-13.5-13.5 6.0442-13.5 13.5-13.5 13.5 6.0442 13.5 13.5z" transform="matrix(1.2963 0 0 1.2963 8.8333 999.16)" stroke="#000" stroke-width=".77143"/>
   <path id="path7113" opacity=".12" d="m25.2 23.3c0 7.4558-6.0442 13.5-13.5 13.5s-13.5-6.0442-13.5-13.5 6.0442-13.5 13.5-13.5 13.5 6.0442 13.5 13.5z" transform="matrix(1.2222 0 0 1.2222 9.7 1000.9)" stroke="#000" stroke-width=".81818"/>
   <path id="path7115" d="m25.2 23.3c0 7.4558-6.0442 13.5-13.5 13.5s-13.5-6.0442-13.5-13.5 6.0442-13.5 13.5-13.5 13.5 6.0442 13.5 13.5z" transform="matrix(1.1481 0 0 1.1481 10.567 1002.6)" stroke="#fff" stroke-width=".87097"/>
   <path id="path7117" opacity="0.03" d="m7.0827 35.986c-7.0062-2.55-10.619-10.297-8.0686-17.303 2.5501-7.006 10.297-10.619 17.303-8.069 7.0062 2.55 10.619 10.297 8.0686 17.303-1.3648 3.7498-4.3187 6.7037-8.0686 8.0686" transform="matrix(1.0741 0 0 1.0741 11.433 1004.3)" stroke="#000" stroke-width=".93103"/>
   <path id="path7119" opacity="0.06" transform="translate(12.3 1006.1)" stroke="#000" d="m7.0827 35.986c-7.0062-2.55-10.619-10.297-8.0686-17.303 2.5501-7.006 10.297-10.619 17.303-8.069 7.0062 2.55 10.619 10.297 8.0686 17.303-1.3648 3.7498-4.3187 6.7037-8.0686 8.0686"/>
   <path id="path7121" opacity="0.12" d="m7.0827 35.986c-7.0062-2.55-10.619-10.297-8.0686-17.303 2.5501-7.006 10.297-10.619 17.303-8.069 7.0062 2.55 10.619 10.297 8.0686 17.303-1.3648 3.7498-4.3187 6.7037-8.0686 8.0686" transform="matrix(.92593 0 0 .92593 13.167 1007.8)" stroke="#000" stroke-width="1.08"/>
   <path id="path7123" transform="matrix(.85185 0 0 .85185 14.033 1009.5)" stroke="#fff" stroke-width="1.1739" d="m7.0827 35.986c-7.0062-2.55-10.619-10.297-8.0686-17.303 2.5501-7.006 10.297-10.619 17.303-8.069 7.0062 2.55 10.619 10.297 8.0686 17.303-1.3648 3.7498-4.3187 6.7037-8.0686 8.0686"/>
   <path id="path7125" opacity="0.12" d="m7.0827 35.986c-7.0062-2.55-10.619-10.297-8.0686-17.303 2.5501-7.006 10.297-10.619 17.303-8.069 7.0062 2.55 10.619 10.297 8.0686 17.303-1.3648 3.7498-4.3187 6.7037-8.0686 8.0686" transform="matrix(.77778 0 0 .77778 14.9 1011.2)" stroke="#000" stroke-width="1.2857"/>
   <path id="path7127" opacity="0.06" transform="matrix(.70370 0 0 .70370 15.767 1013)" stroke="#000" stroke-width="1.4211" d="m7.0827 35.986c-7.0062-2.55-10.619-10.297-8.0686-17.303 2.5501-7.006 10.297-10.619 17.303-8.069 7.0062 2.55 10.619 10.297 8.0686 17.303-1.3648 3.7498-4.3187 6.7037-8.0686 8.0686"/>
   <path id="path7129" opacity="0.03" d="m7.0827 35.986c-7.0062-2.55-10.619-10.297-8.0686-17.303 2.5501-7.006 10.297-10.619 17.303-8.069 7.0062 2.55 10.619 10.297 8.0686 17.303-1.3648 3.7498-4.3187 6.7037-8.0686 8.0686" transform="matrix(.62963 0 0 .62963 16.633 1014.7)" stroke="#000" stroke-width="1.5882"/>
   <path id="path7249" opacity=".25" d="m7.0827 35.986c-7.0062-2.55-10.619-10.297-8.0686-17.303 2.5501-7.006 10.297-10.619 17.303-8.069 7.0062 2.55 10.619 10.297 8.0686 17.303-1.3648 3.7498-4.3187 6.7037-8.0686 8.0686" transform="matrix(.85185 0 0 .85185 14.033 1009.5)" stroke="url(#linearGradient7257)" stroke-width="1.1739"/>
   <path id="path7324" opacity=".25" d="m25.2 23.3c0 7.4558-6.0442 13.5-13.5 13.5s-13.5-6.0442-13.5-13.5 6.0442-13.5 13.5-13.5 13.5 6.0442 13.5 13.5z" transform="matrix(1.1481 0 0 1.1481 10.567 1002.6)" stroke="url(#linearGradient7326)" stroke-width=".87097"/>
  </g>
  <g id="g7346">
   <path id="path7294" opacity="0.03" d="m24 1020.4c-3.3137 0-6 2.6863-6 6v2.1563c-1.7243 0.4446-3 1.9805-3 3.8437 0 3.5275 2.045 6.5556 5 8.0313 0.01688 2.1946 1.8013 3.9687 4 3.9687s3.9831-1.7741 4-3.9687c2.955-1.4757 5-4.5038 5-8.0313 0-1.8632-1.2757-3.3991-3-3.8437v-2.1563c0-3.3137-2.6863-6-6-6zm0 1c2.7614 0 5 2.2386 5 5v2c-2.2091 0-4 1.7909-4 4 0 0.5523-0.44772 1-1 1s-1-0.4477-1-1c0-2.2091-1.7909-4-4-4v-2c0-2.7614 2.2386-5 5-5zm-5 8c1.6569 0 3 1.3431 3 3 0 1.1046 0.89543 2 2 2s2-0.8954 2-2c0-1.6569 1.3431-3 3-3v3c0 2.7614-2.2386 5-5 5s-5-2.2386-5-5v-3zm-1 0.1875v2.8125c0 3.3137 2.6863 6 6 6s6-2.6863 6-6v-2.8125c1.1583 0.4155 2 1.5112 2 2.8125 0 3.3586-2.0665 6.2203-5 7.4063v0.5937c0 1.6569-1.3431 3-3 3s-3-1.3431-3-3v-0.5937c-2.9335-1.186-5-4.0477-5-7.4063 0-1.3013 0.84165-2.397 2-2.8125z"/>
   <path id="path7263" opacity="0.06" d="m24 1021.4c-2.7614 0-5 2.2386-5 5v3c-1.6569 0-3 1.3431-3 3 0 3.3586 2.0665 6.2203 5 7.4063v0.5937c0 1.6569 1.3431 3 3 3s3-1.3431 3-3v-0.5937c2.9335-1.186 5-4.0477 5-7.4063 0-1.6569-1.3431-3-3-3v-3c0-2.7614-2.2386-5-5-5zm0 1c2.2091 0 4 1.7909 4 4v3.1875c-1.1583 0.4155-2 1.5112-2 2.8125 0 1.1046-0.89543 2-2 2s-2-0.8954-2-2c0-1.3013-0.84165-2.397-2-2.8125v-3.1875c0-2.2091 1.7909-4 4-4zm-5 8v2c0 2.7614 2.2386 5 5 5s5-2.2386 5-5v-2c1.1046 0 2 0.8954 2 2 0 0.1381-0.0046 0.2761-0.03125 0.4063-0.17189 2.9949-2.1967 5.4922-4.9688 6.3125v1.2812c0 1.1046-0.89543 2-2 2s-2-0.8954-2-2v-1.2812c-2.772-0.8203-4.7969-3.3176-4.9688-6.3125-0.026-0.2-0.031-0.3-0.031-0.4 0-1.1046 0.89543-2 2-2zm1 0.2813c0.5969 0.346 1 0.9791 1 1.7187 0 1.6569 1.3431 3 3 3s3-1.3431 3-3c0-0.7396 0.4031-1.3727 1-1.7187v1.7187c0 2.2091-1.7909 4-4 4s-4-1.7909-4-4v-1.7187z"/>
   <path id="path7231" opacity="0.12" d="m24 1022.4c-2.2091 0-4 1.7909-4 4v4.2813c-0.29454-0.1708-0.63504-0.2813-1-0.2813-1.1046 0-2 0.8954-2 2 0 0.1381 0.0046 0.2761 0.03125 0.4063 0.17189 2.9949 2.1967 5.4922 4.9688 6.3125v1.2812c0 1.1046 0.89543 2 2 2s2-0.8954 2-2v-1.2812c2.772-0.8203 4.7969-3.3176 4.9688-6.3125 0.02664-0.1302 0.03125-0.2682 0.03125-0.4063 0-1.1046-0.89543-2-2-2-0.36496 0-0.70546 0.1105-1 0.2813v-4.2813c0-2.2091-1.7909-4-4-4z"/>
   <path id="path7139" d="m24 19c-1.657 0-3 1.343-3 3h1.5c0.276 0 0.5 0.224 0.5 0.5s-0.224 0.5-0.5 0.5h-1.5v1h1.5c0.276 0 0.5 0.224 0.5 0.5s-0.224 0.5-0.5 0.5h-1.5v1h1.5c0.276 0 0.5 0.224 0.5 0.5s-0.224 0.5-0.5 0.5h-1.5v1c0 1.657 1.343 3 3 3s3-1.343 3-3v-1h-1.5c-0.276 0-0.5-0.224-0.5-0.5s0.224-0.5 0.5-0.5h1.5v-1h-1.5c-0.276 0-0.5-0.224-0.5-0.5s0.224-0.5 0.5-0.5h1.5v-1h-1.5c-0.276 0-0.5-0.224-0.5-0.5s0.224-0.5 0.5-0.5h1.5c0-1.657-1.343-3-3-3zm-5 8c-0.552 0-1 0.448-1 1 0 2.976 2.159 5.433 5 5.906v2.094c0 0.552 0.448 1 1 1s1-0.448 1-1v-2.094c2.841-0.473 5-2.93 5-5.906 0-0.552-0.448-1-1-1s-1 0.448-1 1c0 2.209-1.791 4-4 4s-4-1.791-4-4c0-0.552-0.448-1-1-1z" transform="translate(0 1004.4)" fill="#fff"/>
   <path id="path7261" opacity=".25" d="m24 19c-1.657 0-3 1.343-3 3h1.5c0.276 0 0.5 0.224 0.5 0.5s-0.224 0.5-0.5 0.5h-1.5v1h1.5c0.276 0 0.5 0.224 0.5 0.5s-0.224 0.5-0.5 0.5h-1.5v1h1.5c0.276 0 0.5 0.224 0.5 0.5s-0.224 0.5-0.5 0.5h-1.5v1c0 1.657 1.343 3 3 3s3-1.343 3-3v-1h-1.5c-0.276 0-0.5-0.224-0.5-0.5s0.224-0.5 0.5-0.5h1.5v-1h-1.5c-0.276 0-0.5-0.224-0.5-0.5s0.224-0.5 0.5-0.5h1.5v-1h-1.5c-0.276 0-0.5-0.224-0.5-0.5s0.224-0.5 0.5-0.5h1.5c0-1.657-1.343-3-3-3zm-5 8c-0.552 0-1 0.448-1 1 0 2.976 2.159 5.433 5 5.906v2.094c0 0.552 0.448 1 1 1s1-0.448 1-1v-2.094c2.841-0.473 5-2.93 5-5.906 0-0.552-0.448-1-1-1s-1 0.448-1 1c0 2.209-1.791 4-4 4s-4-1.791-4-4c0-0.552-0.448-1-1-1z" transform="translate(0 1004.4)" fill="url(#linearGradient7320)"/>
  </g>
 </g>
</svg>
