<?xml version="1.0" encoding="UTF-8" standalone="no"?>
<!-- Created with Inkscape (http://www.inkscape.org/) -->
<svg id="svg4951" xmlns:rdf="http://www.w3.org/1999/02/22-rdf-syntax-ns#" xmlns="http://www.w3.org/2000/svg" height="48px" width="48px" version="1.1" xmlns:cc="http://creativecommons.org/ns#" xmlns:xlink="http://www.w3.org/1999/xlink" xmlns:dc="http://purl.org/dc/elements/1.1/">
 <defs id="defs4953">
  <linearGradient id="linearGradient3189" y2="40.496" gradientUnits="userSpaceOnUse" x2="71.204" gradientTransform="matrix(1.617 0 0 1.617 -92.707 -21.06)" y1="15.369" x1="71.204">
   <stop id="stop4808-4" stop-color="#fff" offset="0"/>
   <stop id="stop4810-0" stop-color="#fff" stop-opacity=".23529" offset=".42448"/>
   <stop id="stop4812-8" stop-color="#fff" stop-opacity=".15686" offset=".82090"/>
   <stop id="stop4814-0" stop-color="#fff" stop-opacity=".39216" offset="1"/>
  </linearGradient>
  <radialGradient id="radialGradient3192" gradientUnits="userSpaceOnUse" cy="3.99" cx="23.896" gradientTransform="matrix(0 2.8885 -3.8128 0 39.213 -65.95)" r="20.397">
   <stop id="stop4369" stop-color="#fe4" offset="0"/>
   <stop id="stop4371" stop-color="#ffa20c" offset=".66094"/>
   <stop id="stop4373" stop-color="#cba200" offset="1"/>
  </radialGradient>
  <radialGradient id="radialGradient3195" gradientUnits="userSpaceOnUse" cy="186.17" cx="99.157" gradientTransform="matrix(.27083 0 0 .087623 -2.8551 25.187)" r="62.769">
   <stop id="stop3822-2-6-3" stop-color="#3d3d3d" offset="0"/>
   <stop id="stop3864-8-7-7" stop-color="#686868" stop-opacity=".49804" offset=".5"/>
   <stop id="stop3824-1-2-5" stop-color="#686868" stop-opacity="0" offset="1"/>
  </radialGradient>
  <filter id="filter4461" style="color-interpolation-filters:sRGB" height="1.096" width="1.096" y="-.048" x="-.048">
   <feGaussianBlur id="feGaussianBlur4463" stdDeviation="0.75627869"/>
  </filter>
 </defs>
 <metadata id="metadata4956">
  <rdf:RDF>
   <cc:Work rdf:about="">
    <dc:format>image/svg+xml</dc:format>
    <dc:type rdf:resource="http://purl.org/dc/dcmitype/StillImage"/>
    <dc:title/>
   </cc:Work>
  </rdf:RDF>
 </metadata>
 <g id="layer1">
  <path id="path3818-0-5" d="m41 41.5a17 5.5 0 0 1 -34 0 17 5.5 0 1 1 34 0z" fill="url(#radialGradient3195)"/>
  <path id="path2555-7-2" style="color:#000000" d="m24 3.5c-11.311 0-20.5 9.1888-20.5 20.5s9.1888 20.5 20.5 20.5 20.5-9.1888 20.5-20.5-9.189-20.5-20.5-20.5z" fill="url(#radialGradient3192)"/>
  <path id="path4447" opacity=".3" style="color-rendering:auto;text-decoration-color:#000000;color:#000000;isolation:auto;mix-blend-mode:normal;shape-rendering:auto;solid-color:#000000;block-progression:tb;text-decoration-line:none;text-decoration-style:solid;image-rendering:auto;white-space:normal;text-indent:0;text-transform:none" d="m24 4.7578c-10.763-1e-7 -19.5 8.7375-19.5 19.5 0 10.763 8.7375 19.5 19.5 19.5 10.763 0 19.5-8.7375 19.5-19.5 0-10.763-8.737-19.5-19.5-19.5zm0 1.1875c10.122 0 18.314 8.191 18.314 18.312 0 10.122-8.1929 18.314-18.314 18.314-10.122 0-18.314-8.1929-18.314-18.314-0.0005-10.121 8.192-18.312 18.314-18.312z" filter="url(#filter4461)" fill="#f00"/>
  <path id="path4176" opacity=".3" stroke-linejoin="round" style="color:#000000" d="m43.5 24c0 10.77-8.73 19.5-19.5 19.5s-19.5-8.73-19.5-19.5 8.73-19.5 19.5-19.5 19.5 8.73 19.5 19.5z" stroke="url(#linearGradient3189)" stroke-linecap="round" fill="none"/>
  <path id="path3871" opacity=".7" style="color:#000000" d="m24 3.5c-11.311 0-20.5 9.189-20.5 20.5s9.189 20.5 20.5 20.5 20.5-9.189 20.5-20.5-9.189-20.5-20.5-20.5z" stroke="#5c3f24" fill="none"/>
  <g id="g3628" fill="#454545" transform="matrix(.075417 0 0 .074989 7 6.0963)">
   <g id="g3588" fill="#454545">
    <path id="path3590" fill="#454545" d="m186.98 323.4-75.443 115.38s-57.62-12.844-91.065-70.775c-33.449-57.92-15.846-114.39-15.846-114.39l137.65-7.649c0.48 15.102 4.552 30.319 12.645 44.33 8.081 14.003 19.217 25.142 32.061 33.109zm259.18-71.55-137.65-7.64c-0.477 15.101-4.566 30.313-12.648 44.321-8.093 13.997-19.223 25.144-32.071 33.111l75.453 115.38s57.705-12.99 91.149-70.926c33.445-57.927 15.763-114.24 15.763-114.24zm-222.3-84.5c16.176 0 31.393 4.068 44.714 11.201l62.21-123.03s-40.104-43.472-106.99-43.472c-66.895 0-106.82 43.472-106.82 43.472l62.206 123.03c13.319-7.133 28.531-11.201 44.701-11.201zm0 29.808c-26.949 0-48.799 21.848-48.799 48.795 0 26.956 21.851 48.799 48.799 48.799 26.961 0 48.799-21.843 48.799-48.799 0-26.954-21.844-48.795-48.799-48.795z"/>
   </g>
  </g>
  <g id="g4401" opacity=".15" transform="matrix(.075417 0 0 .074989 7 6.0963)">
   <g id="g4403">
    <path id="path4405" d="m23.877 7c-5.045 0-8.057 3.26-8.057 3.26l4.692 9.226c1.004-0.535 2.151-0.84 3.371-0.84s2.368 0.305 3.373 0.84l4.689-9.226s-3.024-3.26-8.068-3.26zm0 0.998c3.458 0 5.853 1.6522 6.834 2.479l-3.918 7.709c-0.905-0.345-1.886-0.538-2.91-0.538s-2.004 0.194-2.908 0.538l-3.92-7.709c0.977-0.8265 3.364-2.479 6.822-2.479zm0.006 12.883c-2.033 0-3.68 1.639-3.68 3.66s1.647 3.658 3.68 3.658 3.679-1.637 3.679-3.658-1.646-3.66-3.679-3.66zm0 0.998c1.491 0 2.678 1.18 2.678 2.662 0 1.483-1.187 2.662-2.678 2.662s-2.678-1.179-2.678-2.662c0-1.482 1.187-2.662 2.678-2.662zm6.385 2.529c-0.036 1.133-0.346 2.274-0.956 3.324s-1.449 1.885-2.417 2.483l5.689 8.652s4.353-0.974 6.875-5.318 1.189-8.567 1.189-8.567l-10.38-0.574zm-12.538 0.133l-10.38 0.572c-0.0004 0-1.3278 4.236 1.1949 8.58 2.5221 4.345 6.8671 5.307 6.8671 5.307l5.69-8.652c-0.969-0.598-1.809-1.433-2.418-2.483-0.611-1.05-0.917-2.191-0.954-3.324zm13.44 0.916l8.674 0.479c0.23 1.254 0.475 4.137-1.254 7.115s-4.366 4.215-5.576 4.646l-4.754-7.228c0.752-0.607 1.41-1.356 1.922-2.237a1.0029 0.99726 0 0 0 0 -0.002c0.511-0.881 0.835-1.822 0.988-2.773zm-14.342 0.133c0.152 0.951 0.474 1.891 0.986 2.773s1.17 1.63 1.922 2.237l-4.754 7.23c-1.208-0.428-3.841-1.659-5.5699-4.637-1.7294-2.978-1.4871-5.866-1.2578-7.125l8.6737-0.478z" transform="matrix(13.26 0 0 13.335 -92.818 -81.296)"/>
   </g>
  </g>
  <g id="g4437" stroke-linejoin="round" transform="matrix(.075417 0 0 .074989 7 6.0963)" stroke="#000" stroke-linecap="round" stroke-width="26.595" fill="none"></g>
 </g>
</svg>
