<?xml version="1.0" encoding="UTF-8" standalone="no"?>
<!-- Created with Inkscape (http://www.inkscape.org/) -->
<svg id="svg4951" xmlns:rdf="http://www.w3.org/1999/02/22-rdf-syntax-ns#" xmlns="http://www.w3.org/2000/svg" height="48px" width="48px" version="1.1" xmlns:cc="http://creativecommons.org/ns#" xmlns:xlink="http://www.w3.org/1999/xlink" xmlns:dc="http://purl.org/dc/elements/1.1/">
 <defs id="defs4953">
  <linearGradient id="linearGradient3214" y2="40.496" gradientUnits="userSpaceOnUse" x2="71.204" gradientTransform="matrix(1.617 0 0 1.617 -92.707 -21.06)" y1="15.369" x1="71.204">
   <stop id="stop4808-4" stop-color="#fff" offset="0"/>
   <stop id="stop4810-0" stop-color="#fff" stop-opacity=".23529" offset=".42448"/>
   <stop id="stop4812-8" stop-color="#fff" stop-opacity=".15686" offset=".82090"/>
   <stop id="stop4814-0" stop-color="#fff" stop-opacity=".39216" offset="1"/>
  </linearGradient>
  <radialGradient id="radialGradient3217" gradientUnits="userSpaceOnUse" cy="3.99" cx="23.896" gradientTransform="matrix(0 2.8885 -3.8128 0 39.213 -65.95)" r="20.397">
   <stop id="stop4366" stop-color="#ff9fb3" offset="0"/>
   <stop id="stop4368" stop-color="#ff557a" offset=".66094"/>
   <stop id="stop4370" stop-color="#c4454e" offset="1"/>
  </radialGradient>
  <radialGradient id="radialGradient3220" gradientUnits="userSpaceOnUse" cy="186.17" cx="99.157" gradientTransform="matrix(.27083 0 0 .087623 -2.8551 25.187)" r="62.769">
   <stop id="stop3822-2-6-3" stop-color="#3d3d3d" offset="0"/>
   <stop id="stop3864-8-7-7" stop-color="#686868" stop-opacity=".49804" offset=".5"/>
   <stop id="stop3824-1-2-5" stop-color="#686868" stop-opacity="0" offset="1"/>
  </radialGradient>
  <clipPath id="clipPath-993779242">
   <g id="g17" transform="translate(0 -1004.4)">
    <path id="path19" d="m-24 13c0 1.105-0.672 2-1.5 2s-1.5-0.895-1.5-2 0.672-2 1.5-2 1.5 0.895 1.5 2z" transform="matrix(15.333 0 0 11.5 415 878.86)" fill="#1890d0"/>
   </g>
  </clipPath>
 </defs>
 <metadata id="metadata4956">
  <rdf:RDF>
   <cc:Work rdf:about="">
    <dc:format>image/svg+xml</dc:format>
    <dc:type rdf:resource="http://purl.org/dc/dcmitype/StillImage"/>
    <dc:title/>
   </cc:Work>
  </rdf:RDF>
 </metadata>
 <g id="layer1">
  <path id="path3818-0-5" d="m41 41.5a17 5.5 0 0 1 -34 0 17 5.5 0 1 1 34 0z" fill="url(#radialGradient3220)"/>
  <path id="path2555-7-2" style="color:#000000" d="m24 3.5c-11.311 0-20.5 9.1888-20.5 20.5s9.1888 20.5 20.5 20.5 20.5-9.1888 20.5-20.5-9.189-20.5-20.5-20.5z" fill="url(#radialGradient3217)"/>
  <path id="path4176" opacity=".3" stroke-linejoin="round" style="color:#000000" d="m43.5 24c0 10.77-8.73 19.5-19.5 19.5s-19.5-8.73-19.5-19.5 8.73-19.5 19.5-19.5 19.5 8.73 19.5 19.5z" stroke="url(#linearGradient3214)" stroke-linecap="round" fill="none"/>
  <path id="path3871" opacity=".7" style="color:#000000" d="m24 3.5c-11.311 0-20.5 9.189-20.5 20.5s9.189 20.5 20.5 20.5 20.5-9.189 20.5-20.5-9.189-20.5-20.5-20.5z" stroke="#a13e45" fill="none"/>
  <g id="g4416" stroke-linejoin="round" transform="translate(0 .40022)" stroke="#000" stroke-linecap="round" fill="none">
   <g id="g4400" opacity=".15" transform="matrix(1.0002 0 0 .99972 -.0030006 .0041655)" stroke-width="2.0001">
    <g id="g4402" stroke-linejoin="round" clip-path="url(#clipPath-993779242)" stroke="#000" stroke-linecap="round" stroke-width="2.0001" fill="none"><!-- color: #de487e -->
     <g id="g4404" stroke-linejoin="round" stroke="#000" stroke-linecap="round" stroke-width="2.0001" fill="none">
      <path id="path4406" stroke-linejoin="round" d="m13.875 15c-1.102 0.16-1.977 1.305-1.863 2.445 0.113 1.141 1.195 2.082 2.309 2.01h1.223c0.523 0 0.707 0.125 1.094 0.492 0.387 0.363 0.895 1.051 1.43 1.898 0.426 0.672 0.898 1.438 1.535 2.176-0.633 0.734-1.113 1.512-1.535 2.176-0.535 0.844-1.043 1.496-1.43 1.859-0.387 0.367-0.57 0.492-1.094 0.492h-1.223c-1.352-0.043-2.32 1.352-2.32 2.457 0 1.102 1.254 1.895 2.32 2h1.223c1.625 0 3.141-0.824 4.094-1.723 0.953-0.895 1.547-1.895 2.082-2.734 0.535-0.848 0.941-1.492 1.328-1.859 0.34-0.445 0.555-0.566 0.953-0.684 0.52 0 0.809 0.316 1.191 0.684 0.387 0.367 0.934 1.016 1.469 1.859 0.535 0.844 1.094 1.84 2.043 2.734 0.953 0.898 2.367 1.723 3.992 1.723h1.328c1.066-0.105 1.973-1.133 1.973-2.23 0-1.102-0.906-2.125-1.973-2.227h-1.328c-0.523 0-0.707-0.125-1.094-0.492-0.387-0.363-0.793-1.02-1.328-1.859-0.434-0.688-0.895-1.492-1.57-2.246 0.223-0.246 0.438-0.523 0.613-0.773 1.012-1.398 1.707-2.68 2.285-3.227 0.387-0.363 0.57-0.492 1.094-0.492h1.328c1.066-0.102 1.969-1.129 1.969-2.23 0-1.102-0.902-2.125-1.969-2.227h-1.328c-1.621 0-3.039 0.824-3.992 1.719-1.43 1.344-2.063 2.887-2.762 3.855-0.703 0.973-1.164 1.418-1.945 1.418-1.09-0.426-1.727-1.668-2.281-2.539-0.535-0.844-1.129-1.84-2.082-2.734-0.953-0.898-2.469-1.719-4.094-1.719h-1.223-0.238-0.207m0.004 0" stroke="#000" stroke-linecap="round" stroke-width="2.0001" fill="none"/>
     </g>
    </g>
   </g>
   <g id="g4408" opacity=".15" transform="matrix(1.0002 0 0 .99972 -.0030006 .0041655)" stroke-width="1.0001">
    <g id="g4410" stroke-linejoin="round" clip-path="url(#clipPath-993779242)" stroke="#000" stroke-linecap="round" stroke-width="1.0001" fill="none"><!-- color: #de487e -->
     <g id="g4412" stroke-linejoin="round" stroke="#000" stroke-linecap="round" stroke-width="1.0001" fill="none">
      <path id="path4414" stroke-linejoin="round" d="m13.875 15c-1.102 0.16-1.977 1.305-1.863 2.445 0.113 1.141 1.195 2.082 2.309 2.01h1.223c0.523 0 0.707 0.125 1.094 0.492 0.387 0.363 0.895 1.051 1.43 1.898 0.426 0.672 0.898 1.438 1.535 2.176-0.633 0.734-1.113 1.512-1.535 2.176-0.535 0.844-1.043 1.496-1.43 1.859-0.387 0.367-0.57 0.492-1.094 0.492h-1.223c-1.352-0.043-2.32 1.352-2.32 2.457 0 1.102 1.254 1.895 2.32 2h1.223c1.625 0 3.141-0.824 4.094-1.723 0.953-0.895 1.547-1.895 2.082-2.734 0.535-0.848 0.941-1.492 1.328-1.859 0.34-0.445 0.555-0.566 0.953-0.684 0.52 0 0.809 0.316 1.191 0.684 0.387 0.367 0.934 1.016 1.469 1.859 0.535 0.844 1.094 1.84 2.043 2.734 0.953 0.898 2.367 1.723 3.992 1.723h1.328c1.066-0.105 1.973-1.133 1.973-2.23 0-1.102-0.906-2.125-1.973-2.227h-1.328c-0.523 0-0.707-0.125-1.094-0.492-0.387-0.363-0.793-1.02-1.328-1.859-0.434-0.688-0.895-1.492-1.57-2.246 0.223-0.246 0.438-0.523 0.613-0.773 1.012-1.398 1.707-2.68 2.285-3.227 0.387-0.363 0.57-0.492 1.094-0.492h1.328c1.066-0.102 1.969-1.129 1.969-2.23 0-1.102-0.902-2.125-1.969-2.227h-1.328c-1.621 0-3.039 0.824-3.992 1.719-1.43 1.344-2.063 2.887-2.762 3.855-0.703 0.973-1.164 1.418-1.945 1.418-1.09-0.426-1.727-1.668-2.281-2.539-0.535-0.844-1.129-1.84-2.082-2.734-0.953-0.898-2.469-1.719-4.094-1.719h-1.223-0.238-0.207m0.004 0" stroke="#000" stroke-linecap="round" stroke-width="1.0001" fill="none"/>
     </g>
    </g>
   </g>
  </g>
  <g id="g47" transform="matrix(1.0002 0 0 .99972 -.0030006 .0041655)">
   <g id="g49" clip-path="url(#clipPath-993779242)"><!-- color: #de487e -->
    <g id="g51">
     <path id="path53" d="m13.875 15c-1.102 0.16-1.977 1.305-1.863 2.445 0.113 1.141 1.195 2.082 2.309 2.01h1.223c0.523 0 0.707 0.125 1.094 0.492 0.387 0.363 0.895 1.051 1.43 1.898 0.426 0.672 0.898 1.438 1.535 2.176-0.633 0.734-1.113 1.512-1.535 2.176-0.535 0.844-1.043 1.496-1.43 1.859-0.387 0.367-0.57 0.492-1.094 0.492h-1.223c-1.352-0.043-2.32 1.352-2.32 2.457 0 1.102 1.254 1.895 2.32 2h1.223c1.625 0 3.141-0.824 4.094-1.723 0.953-0.895 1.547-1.895 2.082-2.734 0.535-0.848 0.941-1.492 1.328-1.859 0.34-0.445 0.555-0.566 0.953-0.684 0.52 0 0.809 0.316 1.191 0.684 0.387 0.367 0.934 1.016 1.469 1.859 0.535 0.844 1.094 1.84 2.043 2.734 0.953 0.898 2.367 1.723 3.992 1.723h1.328c1.066-0.105 1.973-1.133 1.973-2.23 0-1.102-0.906-2.125-1.973-2.227h-1.328c-0.523 0-0.707-0.125-1.094-0.492-0.387-0.363-0.793-1.02-1.328-1.859-0.434-0.688-0.895-1.492-1.57-2.246 0.223-0.246 0.438-0.523 0.613-0.773 1.012-1.398 1.707-2.68 2.285-3.227 0.387-0.363 0.57-0.492 1.094-0.492h1.328c1.066-0.102 1.969-1.129 1.969-2.23 0-1.102-0.902-2.125-1.969-2.227h-1.328c-1.621 0-3.039 0.824-3.992 1.719-1.43 1.344-2.063 2.887-2.762 3.855-0.703 0.973-1.164 1.418-1.945 1.418-1.09-0.426-1.727-1.668-2.281-2.539-0.535-0.844-1.129-1.84-2.082-2.734-0.953-0.898-2.469-1.719-4.094-1.719h-1.223-0.238-0.207m0.004 0" fill="#f9f9f9"/>
    </g>
   </g>
  </g>
 </g>
</svg>
