<?xml version="1.0" encoding="UTF-8" standalone="no"?>
<svg
   xmlns:dc="http://purl.org/dc/elements/1.1/"
   xmlns:cc="http://creativecommons.org/ns#"
   xmlns:rdf="http://www.w3.org/1999/02/22-rdf-syntax-ns#"
   xmlns:svg="http://www.w3.org/2000/svg"
   xmlns="http://www.w3.org/2000/svg"
   xmlns:sodipodi="http://sodipodi.sourceforge.net/DTD/sodipodi-0.dtd"
   xmlns:inkscape="http://www.inkscape.org/namespaces/inkscape"
   height="24"
   width="24"
   version="1.1"
   enable-background="new"
   viewBox="0 0 24 24"
   id="svg2"
   inkscape:version="0.91 r13725"
   sodipodi:docname="alarm-clock.svg">
  <metadata
     id="metadata24">
    <rdf:RDF>
      <cc:Work
         rdf:about="">
        <dc:format>image/svg+xml</dc:format>
        <dc:type
           rdf:resource="http://purl.org/dc/dcmitype/StillImage" />
        <dc:title></dc:title>
      </cc:Work>
    </rdf:RDF>
  </metadata>
  <defs
     id="defs22" />
  <sodipodi:namedview
     pagecolor="#8e8e8e"
     bordercolor="#666666"
     borderopacity="1"
     objecttolerance="10"
     gridtolerance="10"
     guidetolerance="10"
     inkscape:pageopacity="0"
     inkscape:pageshadow="2"
     inkscape:window-width="1600"
     inkscape:window-height="814"
     id="namedview20"
     showgrid="false"
     inkscape:zoom="9.8333333"
     inkscape:cx="-5.3898305"
     inkscape:cy="12"
     inkscape:window-x="0"
     inkscape:window-y="24"
     inkscape:window-maximized="1"
     inkscape:current-layer="svg2" />
  <circle
     style="fill:none;stroke:#4c4c4c;stroke-width:2;stroke-linecap:round;stroke-linejoin:round;stroke-opacity:1"
     id="circle6"
     r="6"
     cy="12.000025"
     cx="12" />
  <path
     style="fill:#4c4c4c;fill-opacity:1"
     inkscape:connector-curvature="0"
     id="path8"
     d="M 6,3 A 3,3 0 0 0 3,6 3,3 0 0 0 3.88867,8.1289 C 4.7771,6.2768 6.27687,4.7773 8.12887,3.8887 a 3,3 0 0 0 -2.1289,-0.9 z" />
  <path
     style="fill:#4c4c4c;fill-opacity:1"
     inkscape:connector-curvature="0"
     id="path10"
     d="m 18,3 a 3,3 0 0 0 -2.1289,0.8887 c 1.852,0.8886 3.3518,2.3881 4.2402,4.2402 a 3,3 0 0 0 0.889,-2.1 3,3 0 0 0 -3,-3 z" />
  <path
     style="fill:none;stroke:#4c4c4c;stroke-width:1.5;stroke-linecap:round;stroke-opacity:1"
     inkscape:connector-curvature="0"
     id="path12"
     d="M 12.003,12 9.75,9.7" />
  <path
     style="fill:none;stroke:#4c4c4c;stroke-width:1.5;stroke-linecap:round;stroke-opacity:1"
     inkscape:connector-curvature="0"
     id="path14"
     d="m 13.25,10.7 -1.2462,1.2476" />
  <path
     style="fill:#4c4c4c;fill-opacity:1"
     inkscape:connector-curvature="0"
     id="path16"
     d="M 6.2969,17.607 A 1.5,1.5 0 0 0 6,18.5 1.5,1.5 0 0 0 7.5,20 1.5,1.5 0 0 0 8.7617,19.311 8,8 0 0 1 6.2969,17.607 Z" />
  <path
     style="fill:#4c4c4c;fill-opacity:1"
     inkscape:connector-curvature="0"
     id="path18"
     d="M 17.701,17.604 A 8,8 0 0 1 15.236,19.305 1.5,1.5 0 0 0 16.5,20 1.5,1.5 0 0 0 18,18.5 1.5,1.5 0 0 0 17.701,17.604 Z" />
</svg>
