<?xml version="1.0" encoding="UTF-8" standalone="no"?>
<svg
   xmlns:dc="http://purl.org/dc/elements/1.1/"
   xmlns:cc="http://creativecommons.org/ns#"
   xmlns:rdf="http://www.w3.org/1999/02/22-rdf-syntax-ns#"
   xmlns:svg="http://www.w3.org/2000/svg"
   xmlns="http://www.w3.org/2000/svg"
   xmlns:sodipodi="http://sodipodi.sourceforge.net/DTD/sodipodi-0.dtd"
   xmlns:inkscape="http://www.inkscape.org/namespaces/inkscape"
   height="24"
   width="24"
   version="1.1"
   viewBox="0 0 24 24"
   id="svg2"
   inkscape:version="0.91 r13725"
   sodipodi:docname="audio-recorder-off.svg">
  <metadata
     id="metadata12">
    <rdf:RDF>
      <cc:Work
         rdf:about="">
        <dc:format>image/svg+xml</dc:format>
        <dc:type
           rdf:resource="http://purl.org/dc/dcmitype/StillImage" />
      </cc:Work>
    </rdf:RDF>
  </metadata>
  <defs
     id="defs10" />
  <sodipodi:namedview
     pagecolor="#ffffff"
     bordercolor="#666666"
     borderopacity="1"
     objecttolerance="10"
     gridtolerance="10"
     guidetolerance="10"
     inkscape:pageopacity="0"
     inkscape:pageshadow="2"
     inkscape:window-width="1535"
     inkscape:window-height="876"
     id="namedview8"
     showgrid="false"
     inkscape:zoom="9.8333333"
     inkscape:cx="-4.5254237"
     inkscape:cy="12"
     inkscape:window-x="65"
     inkscape:window-y="24"
     inkscape:window-maximized="1"
     inkscape:current-layer="svg2" />
  <path
     style="opacity:0.4;fill:#000000;fill-opacity:1"
     inkscape:connector-curvature="0"
     id="path6"
     d="M 12,4 C 10.338,4 9,5.338 9,7 l 0,1 0,1 0,1 0,1 0,1 c 0,1.662 1.338,3 3,3 1.662,0 3,-1.338 3,-3 l 0,-1 0,-1 0,-1 0,-1 0,-1 C 15,5.338 13.662,4 12,4 Z M 7.4922,9.9941 A 0.50005,0.50005 0 0 0 7,10.4941 l 0,1.4668 0,0.033 c 0,6e-4 -3e-7,0 0,0 a 0.50005,0.50005 0 0 0 0.00391,0.068 c 0.0249,1.7582 0.97029,3.3788 2.4961,4.2597 0.4725,0.2728 0.98068,0.4506 1.5,0.5567 l 0,1.1113 -3,0 c -0.554,0 -1,0.446 -1,1 0,0.554 0.446,1 1,1 l 8,0 c 0.554,0 1,-0.446 1,-1 0,-0.554 -0.446,-1 -1,-1 l -3,0 0,-1.1113 c 0.51932,-0.1061 1.0275,-0.2839 1.5,-0.5567 1.5224,-0.8789 2.4651,-2.4944 2.4941,-4.248 a 0.50005,0.50005 0 0 0 0.0059,-0.08 l 0,-1.5 a 0.50005,0.50005 0 0 0 -0.508,-0.5 0.50005,0.50005 0 0 0 -0.492,0.5 l 0,1.5 c 0,1.4298 -0.7617,2.7478 -2,3.4628 -1.2383,0.7149 -2.7617,0.7149 -4,0 -1.2383,-0.715 -2,-2.033 -2,-3.4628 l 0,-1.5 A 0.50005,0.50005 0 0 0 7.4922,9.9877 Z" />
</svg>
