<?xml version="1.0" encoding="UTF-8" standalone="no"?>
<svg
   xmlns:dc="http://purl.org/dc/elements/1.1/"
   xmlns:cc="http://creativecommons.org/ns#"
   xmlns:rdf="http://www.w3.org/1999/02/22-rdf-syntax-ns#"
   xmlns:svg="http://www.w3.org/2000/svg"
   xmlns="http://www.w3.org/2000/svg"
   xmlns:sodipodi="http://sodipodi.sourceforge.net/DTD/sodipodi-0.dtd"
   xmlns:inkscape="http://www.inkscape.org/namespaces/inkscape"
   height="24"
   width="24"
   version="1.1"
   viewBox="0 0 24 24"
   id="svg2"
   inkscape:version="0.91 r13725"
   sodipodi:docname="classicmenu-indicator.svg">
  <metadata
     id="metadata12">
    <rdf:RDF>
      <cc:Work
         rdf:about="">
        <dc:format>image/svg+xml</dc:format>
        <dc:type
           rdf:resource="http://purl.org/dc/dcmitype/StillImage" />
      </cc:Work>
    </rdf:RDF>
  </metadata>
  <defs
     id="defs10" />
  <sodipodi:namedview
     pagecolor="#ffffff"
     bordercolor="#666666"
     borderopacity="1"
     objecttolerance="10"
     gridtolerance="10"
     guidetolerance="10"
     inkscape:pageopacity="0"
     inkscape:pageshadow="2"
     inkscape:window-width="1535"
     inkscape:window-height="876"
     id="namedview8"
     showgrid="false"
     inkscape:zoom="9.8333333"
     inkscape:cx="-4.5254237"
     inkscape:cy="12"
     inkscape:window-x="65"
     inkscape:window-y="24"
     inkscape:window-maximized="1"
     inkscape:current-layer="svg2" />
  <path
     style="fill:#4c4c4c;fill-opacity:1"
     inkscape:connector-curvature="0"
     id="path6"
     d="M 11.992,4.5 A 0.50005,0.50005 0 0 0 11.6463,4.6465 L 8.2928,8 l -0.5,0 -0.20703,0 -0.08594,0 -0.5,0 -1,0 c -1.108,0 -2,0.892 -2,2 l 0,2 0,6 c 0,1.108 0.892,2 2,2 l 4,0 8,0 c 1.108,0 2,-0.892 2,-2 l 0,-8 c 0,-1.108 -0.892,-2 -2,-2 l -0.5,0 -1.293,0 -0.5,0 -3.3535,-3.3535 A 0.50005,0.50005 0 0 0 11.992,4.5 Z M 7,10 a 1,1 0 0 1 1,1 1,1 0 0 1 -1,1 1,1 0 0 1 -1,-1 1,1 0 0 1 1,-1 z m 4,0 5,0 1,0 c 0.554,0 1,0.446 1,1 0,0.554 -0.446,1 -1,1 l -4,0 -1,0 -1,0 c -0.554,0 -1,-0.446 -1,-1 0,-0.554 0.446,-1 1,-1 z m -4,3 a 1,1 0 0 1 1,1 1,1 0 0 1 -1,1 1,1 0 0 1 -1,-1 1,1 0 0 1 1,-1 z m 4,0 1,0 1,0 4,0 c 0.554,0 1,0.446 1,1 0,0.554 -0.446,1 -1,1 l -4,0 -1,0 -1,0 c -0.554,0 -1,-0.446 -1,-1 0,-0.554 0.446,-1 1,-1 z m -4,3 a 1,1 0 0 1 1,1 1,1 0 0 1 -1,1 1,1 0 0 1 -1,-1 1,1 0 0 1 1,-1 z m 4,0 1,0 1,0 4,0 c 0.554,0 1,0.446 1,1 0,0.554 -0.446,1 -1,1 l -4,0 -1,0 -1,0 c -0.554,0 -1,-0.446 -1,-1 0,-0.554 0.446,-1 1,-1 z" />
</svg>
