<?xml version="1.0" encoding="UTF-8" standalone="no"?>
<svg
   xmlns:dc="http://purl.org/dc/elements/1.1/"
   xmlns:cc="http://creativecommons.org/ns#"
   xmlns:rdf="http://www.w3.org/1999/02/22-rdf-syntax-ns#"
   xmlns:svg="http://www.w3.org/2000/svg"
   xmlns="http://www.w3.org/2000/svg"
   xmlns:sodipodi="http://sodipodi.sourceforge.net/DTD/sodipodi-0.dtd"
   xmlns:inkscape="http://www.inkscape.org/namespaces/inkscape"
   enable-background="new 0 0 24 24"
   xml:space="preserve"
   height="24px"
   viewBox="0 0 24 24"
   width="24px"
   version="1.1"
   y="0px"
   x="0px"
   id="svg2"
   inkscape:version="0.91 r13725"
   sodipodi:docname="copy-sync3.svg"><metadata
     id="metadata14"><rdf:RDF><cc:Work
         rdf:about=""><dc:format>image/svg+xml</dc:format><dc:type
           rdf:resource="http://purl.org/dc/dcmitype/StillImage" /></cc:Work></rdf:RDF></metadata><defs
     id="defs12" /><sodipodi:namedview
     pagecolor="#ffffff"
     bordercolor="#666666"
     borderopacity="1"
     objecttolerance="10"
     gridtolerance="10"
     guidetolerance="10"
     inkscape:pageopacity="0"
     inkscape:pageshadow="2"
     inkscape:window-width="1535"
     inkscape:window-height="876"
     id="namedview10"
     showgrid="false"
     inkscape:zoom="9.8333333"
     inkscape:cx="-4.5254237"
     inkscape:cy="12"
     inkscape:window-x="65"
     inkscape:window-y="24"
     inkscape:window-maximized="1"
     inkscape:current-layer="svg2" /><path
     style="fill:#4c4c4c;fill-opacity:1"
     inkscape:connector-curvature="0"
     id="path6"
     d="m 20.635686,3.0254965 -5.6172,6.8186434 1.982071,1.1562411 4.000142,-7.6486729 -0.365013,-0.3262116 z M 6.0001639,7.5002562 2.0000211,11.000381 l 4.3751562,-0.625022 1.625058,9.625343 3.3931207,-2.301082 0.877032,0.256009 C 11.906375,16.905592 11.935376,15.73555 12.410393,14.670512 L 10.748333,16.092563 7.5002175,8.0002741 6.0001639,7.5002562 Z m 7.0002501,2.5290908 -3.000107,0.971034 1.000035,3.000107 3.229116,-2.422086 a 1.0001357,1.0001357 0 0 1 0.480017,-0.719026 l -1.709061,-0.830029 z m 7.334262,8.809314 c -0.294011,0.474017 -0.677025,0.84403 -1.10704,1.144041 l 1.773063,0.518018 -0.666023,-1.662059 z" /><path
     inkscape:connector-curvature="0"
     id="path8"
     d="m 19.531176,18.249804 c 0.876578,-1.518204 0.465072,-3.429782 -0.873484,-4.487113 l -0.759763,1.315956 c 0.639861,0.623709 0.80391,1.607618 0.334196,2.42113 -0.278699,0.482712 -0.722693,0.796909 -1.215919,0.926346 l -0.333141,-1.243269 -1.49997,2.598035 2.598035,1.49997 -0.381755,-1.424691 c 0.867629,-0.22756 1.649858,-0.771682 2.131725,-1.606364 z m -1.714096,-5.031043 -2.598036,-1.49997 0.381756,1.424691 c -0.867629,0.227559 -1.649859,0.771682 -2.131726,1.606364 -0.876579,1.518204 -0.465072,3.429781 0.873484,4.487112 l 0.759763,-1.315955 c -0.640137,-0.623684 -0.803994,-1.607451 -0.334196,-2.42113 0.27874,-0.482796 0.722726,-0.796917 1.215918,-0.926346 l 0.333142,1.243269 0.714847,-1.238167 0.759762,-1.315956 0.02539,-0.04398 z"
     style="color:#000000;text-indent:0;text-decoration:none;text-decoration-line:none;text-decoration-style:solid;text-decoration-color:#000000;text-transform:none;block-progression:tb;white-space:normal;isolation:auto;mix-blend-mode:normal;solid-color:#000000;fill:#4c4c4c;color-rendering:auto;image-rendering:auto;shape-rendering:auto;enable-background:accumulate;fill-opacity:1" /></svg>