<?xml version="1.0" encoding="UTF-8" standalone="no"?>
<svg
   xmlns:dc="http://purl.org/dc/elements/1.1/"
   xmlns:cc="http://creativecommons.org/ns#"
   xmlns:rdf="http://www.w3.org/1999/02/22-rdf-syntax-ns#"
   xmlns:svg="http://www.w3.org/2000/svg"
   xmlns="http://www.w3.org/2000/svg"
   xmlns:sodipodi="http://sodipodi.sourceforge.net/DTD/sodipodi-0.dtd"
   xmlns:inkscape="http://www.inkscape.org/namespaces/inkscape"
   enable-background="new 0 0 24 24"
   xml:space="preserve"
   height="24px"
   viewBox="0 0 24 24"
   width="24px"
   version="1.1"
   y="0px"
   x="0px"
   id="svg2"
   inkscape:version="0.91 r13725"
   sodipodi:docname="copy-paused.svg"><metadata
     id="metadata18"><rdf:RDF><cc:Work
         rdf:about=""><dc:format>image/svg+xml</dc:format><dc:type
           rdf:resource="http://purl.org/dc/dcmitype/StillImage" /></cc:Work></rdf:RDF></metadata><defs
     id="defs16" /><sodipodi:namedview
     pagecolor="#ffffff"
     bordercolor="#666666"
     borderopacity="1"
     objecttolerance="10"
     gridtolerance="10"
     guidetolerance="10"
     inkscape:pageopacity="0"
     inkscape:pageshadow="2"
     inkscape:window-width="1535"
     inkscape:window-height="876"
     id="namedview14"
     showgrid="false"
     inkscape:zoom="9.8333333"
     inkscape:cx="-4.5254237"
     inkscape:cy="12"
     inkscape:window-x="65"
     inkscape:window-y="24"
     inkscape:window-maximized="1"
     inkscape:current-layer="svg2" /><path
     style="opacity:0.4;fill:#4c4c4c;fill-opacity:1"
     inkscape:connector-curvature="0"
     id="path6"
     d="m 20.999947,3.352149 -3.999808,7.647479 -1.983176,-1.1566986 5.6183,-6.8166535 z" /><path
     style="opacity:0.4;fill:#4c4c4c;fill-opacity:1"
     inkscape:connector-curvature="0"
     id="path8"
     d="m 6.0001639,7.5002562 -4.0001428,3.5001248 4.3751562,-0.625022 1.625058,9.625343 3.3931207,-2.301082 0.607022,0.178007 0,-2.856102 -1.252045,1.071038 L 7.5002175,8.0002741 6.0001639,7.5002562 Z m 10.0003571,4.1001468 -1.637059,1.40005 3.63713,0 -2.000071,-1.40005 z" /><path
     style="opacity:0.4;fill:#4c4c4c;fill-opacity:1"
     inkscape:connector-curvature="0"
     id="path10"
     d="m 13.000414,10.029347 -3.000107,0.971034 1.000035,3.000107 1.000036,-0.750027 0,-0.250008 0.334012,0 2.666095,-2.000072 -2.000071,-0.971034 z" /><path
     style="image-rendering:optimizeQuality;shape-rendering:geometricPrecision;fill:#4c4c4c;fill-opacity:1"
     d="m13 14v6h3v-6h-3zm4 0v6h3v-6h-3z"
     fill-rule="evenodd"
     clip-rule="evenodd"
     fill="#fff"
     id="path12" /></svg>