<?xml version="1.0" encoding="UTF-8" standalone="no"?>
<svg
   xmlns:dc="http://purl.org/dc/elements/1.1/"
   xmlns:cc="http://creativecommons.org/ns#"
   xmlns:rdf="http://www.w3.org/1999/02/22-rdf-syntax-ns#"
   xmlns:svg="http://www.w3.org/2000/svg"
   xmlns="http://www.w3.org/2000/svg"
   xmlns:sodipodi="http://sodipodi.sourceforge.net/DTD/sodipodi-0.dtd"
   xmlns:inkscape="http://www.inkscape.org/namespaces/inkscape"
   height="24"
   width="24"
   version="1.1"
   viewBox="0 0 24 24"
   id="svg2"
   inkscape:version="0.91 r13725"
   sodipodi:docname="cryptkeeper-panel.svg">
  <metadata
     id="metadata14">
    <rdf:RDF>
      <cc:Work
         rdf:about="">
        <dc:format>image/svg+xml</dc:format>
        <dc:type
           rdf:resource="http://purl.org/dc/dcmitype/StillImage" />
      </cc:Work>
    </rdf:RDF>
  </metadata>
  <defs
     id="defs12" />
  <sodipodi:namedview
     pagecolor="#ffffff"
     bordercolor="#666666"
     borderopacity="1"
     objecttolerance="10"
     gridtolerance="10"
     guidetolerance="10"
     inkscape:pageopacity="0"
     inkscape:pageshadow="2"
     inkscape:window-width="1535"
     inkscape:window-height="876"
     id="namedview10"
     showgrid="false"
     inkscape:zoom="9.8333333"
     inkscape:cx="-4.5254237"
     inkscape:cy="12"
     inkscape:window-x="65"
     inkscape:window-y="24"
     inkscape:window-maximized="1"
     inkscape:current-layer="svg2" />
  <g
     transform="translate(0 -1028.4)"
     fill="#fff"
     id="g4"
     style="fill:#4c4c4c;fill-opacity:1">
    <path
       d="m14.5 1032.4a5.5 5.5 0 0 0 -5.5 5.5 5.5 5.5 0 0 0 5.5 5.5 5.5 5.5 0 0 0 5.5 -5.5 5.5 5.5 0 0 0 -5.5 -5.5zm0.32227 2.4727a2.5 2 45 0 1 1.8555 0.8496 2.5 2 45 0 1 0.35352 3.1816 2.5 2 45 0 1 -3.1816 -0.3535 2.5 2 45 0 1 -0.35352 -3.1816 2.5 2 45 0 1 1.3262 -0.4961z"
       id="path6"
       style="fill:#4c4c4c;fill-opacity:1" />
    <path
       d="m8.2656 11.32l-3.9726 3.973a1.0001 1.0001 0 0 0 -0.293 0.707v3a1.0001 1.0001 0 0 0 1 1h3a1.0001 1.0001 0 0 0 1 -1v-2h2a1.0001 1.0001 0 0 0 1 -1v-0.504c-0.773-0.324-1.47-0.794-2.0586-1.375l-3.4102 3.41a0.75063 0.75063 0 0 1 -1.0624 -1.06l3.5292-3.53c-0.3141-0.499-0.5627-1.043-0.7324-1.621z"
       fill-rule="evenodd"
       transform="translate(0 1028.4)"
       id="path8"
       style="fill:#4c4c4c;fill-opacity:1" />
  </g>
</svg>
