<?xml version="1.0" encoding="UTF-8" standalone="no"?>
<svg
   xmlns:dc="http://purl.org/dc/elements/1.1/"
   xmlns:cc="http://creativecommons.org/ns#"
   xmlns:rdf="http://www.w3.org/1999/02/22-rdf-syntax-ns#"
   xmlns:svg="http://www.w3.org/2000/svg"
   xmlns="http://www.w3.org/2000/svg"
   xmlns:sodipodi="http://sodipodi.sourceforge.net/DTD/sodipodi-0.dtd"
   xmlns:inkscape="http://www.inkscape.org/namespaces/inkscape"
   height="24"
   width="24"
   version="1.1"
   viewBox="0 0 24 24"
   id="svg2"
   inkscape:version="0.91 r13725"
   sodipodi:docname="everpad-mono.svg">
  <metadata
     id="metadata14">
    <rdf:RDF>
      <cc:Work
         rdf:about="">
        <dc:format>image/svg+xml</dc:format>
        <dc:type
           rdf:resource="http://purl.org/dc/dcmitype/StillImage" />
      </cc:Work>
    </rdf:RDF>
  </metadata>
  <defs
     id="defs12" />
  <sodipodi:namedview
     pagecolor="#ffffff"
     bordercolor="#666666"
     borderopacity="1"
     objecttolerance="10"
     gridtolerance="10"
     guidetolerance="10"
     inkscape:pageopacity="0"
     inkscape:pageshadow="2"
     inkscape:window-width="1535"
     inkscape:window-height="876"
     id="namedview10"
     showgrid="false"
     inkscape:zoom="9.8333333"
     inkscape:cx="-4.5254237"
     inkscape:cy="12"
     inkscape:window-x="65"
     inkscape:window-y="24"
     inkscape:window-maximized="1"
     inkscape:current-layer="svg2" />
  <path
     inkscape:connector-curvature="0"
     id="path6"
     d="m 18.457,4 a 1.498,1.4982 0 0 0 -1.0297,0.4527 l -0.64554,0.6455 2.118,2.1183 0.64554,-0.6436 A 1.498,1.4982 0 0 0 18.4571,4 Z m -2.3813,1.8044 -7.076,7 0,2.1183 2.1199,0 7.0736,-7.0766 -2.118,-2.1183 z"
     style="color:#000000;text-indent:0;text-decoration:none;text-decoration-line:none;text-decoration-style:solid;text-decoration-color:#000000;text-transform:none;block-progression:tb;white-space:normal;isolation:auto;mix-blend-mode:normal;solid-color:#000000;fill:#4c4c4c;fill-rule:evenodd;color-rendering:auto;image-rendering:auto;shape-rendering:auto;fill-opacity:1" />
  <path
     inkscape:connector-curvature="0"
     id="path8"
     d="M 7,5 C 5.3553,5 4,6.3553 4,8 l 0,9 c 0,1.6447 1.3553,3 3,3 l 9,0 c 1.6447,0 3,-1.3553 3,-3 L 19,8.5313 17,10.5332 17,17 c 0,0.5713 -0.4287,1 -1,1 L 7,18 C 6.4287,18 6,17.5713 6,17 L 6,8 C 6,7.4287 6.4287,7 7,7 l 6.4668,0 1.9004,-1.9004 0.002,0 0.09961,-0.1 -8.4688,0 z"
     style="color:#000000;text-indent:0;text-decoration:none;text-decoration-line:none;text-decoration-style:solid;text-decoration-color:#000000;text-transform:none;block-progression:tb;white-space:normal;isolation:auto;mix-blend-mode:normal;solid-color:#000000;fill:#4c4c4c;color-rendering:auto;image-rendering:auto;shape-rendering:auto;fill-opacity:1" />
</svg>
