<?xml version="1.0" encoding="UTF-8" standalone="no"?>
<svg
   xmlns:dc="http://purl.org/dc/elements/1.1/"
   xmlns:cc="http://creativecommons.org/ns#"
   xmlns:rdf="http://www.w3.org/1999/02/22-rdf-syntax-ns#"
   xmlns:svg="http://www.w3.org/2000/svg"
   xmlns="http://www.w3.org/2000/svg"
   xmlns:sodipodi="http://sodipodi.sourceforge.net/DTD/sodipodi-0.dtd"
   xmlns:inkscape="http://www.inkscape.org/namespaces/inkscape"
   height="24"
   width="24"
   version="1.1"
   viewBox="0 0 24 24"
   id="svg2"
   inkscape:version="0.91 r13725"
   sodipodi:docname="guake-indicator-panel.svg">
  <metadata
     id="metadata12">
    <rdf:RDF>
      <cc:Work
         rdf:about="">
        <dc:format>image/svg+xml</dc:format>
        <dc:type
           rdf:resource="http://purl.org/dc/dcmitype/StillImage" />
      </cc:Work>
    </rdf:RDF>
  </metadata>
  <defs
     id="defs10" />
  <sodipodi:namedview
     pagecolor="#ffffff"
     bordercolor="#666666"
     borderopacity="1"
     objecttolerance="10"
     gridtolerance="10"
     guidetolerance="10"
     inkscape:pageopacity="0"
     inkscape:pageshadow="2"
     inkscape:window-width="1535"
     inkscape:window-height="876"
     id="namedview8"
     showgrid="false"
     inkscape:zoom="9.8333333"
     inkscape:cx="-4.5254237"
     inkscape:cy="12"
     inkscape:window-x="65"
     inkscape:window-y="24"
     inkscape:window-maximized="1"
     inkscape:current-layer="svg2" />
  <path
     style="fill:#4c4c4c;fill-opacity:1"
     inkscape:connector-curvature="0"
     id="path6"
     d="M 6,4 C 4.892,4 4,4.892 4,6 l 0,12 c 0,1.108 0.892,2 2,2 l 12,0 c 1.108,0 2,-0.892 2,-2 L 20,6 C 20,4.892 19.108,4 18,4 L 6,4 Z m 3,2 1,0 0,1 3,0 0,2 -3,0 0,1 1,0 c 0.75,0 1.44,0.317 1.873,0.805 0.433,0.487 0.627,1.098 0.627,1.695 0,0.597 -0.194,1.21 -0.627,1.697 C 12.44,14.685 11.75,15 11,15 l -1,0 0,1 -1,0 0,-1 -3,0 0,-2 3,0 0,-1 -1,0 C 7.25,12 6.5602,11.685 6.127,11.197 5.6937,10.71 5.5,10.097 5.5,9.5 5.5,8.9028 5.6937,8.2921 6.127,7.8047 6.5602,7.3173 7.25,7 8,7 L 9,7 9,6 Z M 8,9 C 7.75,9 7.6898,9.0597 7.623,9.1348 7.5563,9.2099 7.5,9.3473 7.5,9.5 7.5,9.6528 7.5563,9.7921 7.623,9.8672 7.6898,9.942 7.75,10 8,10 L 9,10 9,9 8,9 Z m 2,3 0,1 1,0 c 0.25,0 0.31,-0.058 0.377,-0.133 C 11.444,12.792 11.5,12.653 11.5,12.5 11.5,12.347 11.444,12.21 11.377,12.135 11.31,12.06 11.25,12 11,12 l -1,0 z m 3,4 2,0 3,0 0,1 0,1 -5,0 0,-2 z" />
</svg>
