<?xml version="1.0" encoding="UTF-8" standalone="no"?>
<svg
   xmlns:dc="http://purl.org/dc/elements/1.1/"
   xmlns:cc="http://creativecommons.org/ns#"
   xmlns:rdf="http://www.w3.org/1999/02/22-rdf-syntax-ns#"
   xmlns:svg="http://www.w3.org/2000/svg"
   xmlns="http://www.w3.org/2000/svg"
   xmlns:sodipodi="http://sodipodi.sourceforge.net/DTD/sodipodi-0.dtd"
   xmlns:inkscape="http://www.inkscape.org/namespaces/inkscape"
   height="24"
   width="24"
   version="1.1"
   viewBox="0 0 24 24"
   id="svg2"
   inkscape:version="0.91 r13725"
   sodipodi:docname="hexchat-panel.svg">
  <metadata
     id="metadata12">
    <rdf:RDF>
      <cc:Work
         rdf:about="">
        <dc:format>image/svg+xml</dc:format>
        <dc:type
           rdf:resource="http://purl.org/dc/dcmitype/StillImage" />
      </cc:Work>
    </rdf:RDF>
  </metadata>
  <defs
     id="defs10" />
  <sodipodi:namedview
     pagecolor="#ffffff"
     bordercolor="#666666"
     borderopacity="1"
     objecttolerance="10"
     gridtolerance="10"
     guidetolerance="10"
     inkscape:pageopacity="0"
     inkscape:pageshadow="2"
     inkscape:window-width="1535"
     inkscape:window-height="876"
     id="namedview8"
     showgrid="false"
     inkscape:zoom="9.8333333"
     inkscape:cx="-4.5254237"
     inkscape:cy="12"
     inkscape:window-x="65"
     inkscape:window-y="24"
     inkscape:window-maximized="1"
     inkscape:current-layer="svg2" />
  <path
     inkscape:connector-curvature="0"
     id="path6"
     d="m 15.973,3.9 a 1.0001,1.0001 0 0 0 -0.01367,0 1.0001,1.0001 0 0 0 -0.11914,0.012 l -7.6914,0 A 1.0001,1.0001 0 0 0 8.01207,3.9 1.0001,1.0001 0 0 0 7.51988,4.0269 1.0001,1.0001 0 0 0 7.445661,4.0719 1.0001,1.0001 0 0 0 7.053081,4.5504 l -3.8457,6.7324 a 1.0001,1.0001 0 0 0 -0.13672,1 1.0001,1.0001 0 0 0 0.042969,0.092 1.0001,1.0001 0 0 0 0.017578,0.033 l 3.9258,6.8711 a 1.0001,1.0001 0 0 0 0.79297,0.6211 1.0001,1.0001 0 0 0 0.097656,0.01 1.0001,1.0001 0 0 0 0.052734,0 l 8,0 a 1.0008,1.0008 0 0 0 0.01172,0 1.0001,1.0001 0 0 0 0.02344,0 1.0001,1.0001 0 0 0 0.07617,0 1.0001,1.0001 0 0 0 0.83398,-0.6328 l 3.9023,-6.8261 a 1.0008,1.0008 0 0 0 0.06445,-0.1192 1.0008,1.0008 0 0 0 0.0039,-0.01 1.0001,1.0001 0 0 0 0.0332,-0.086 1.0001,1.0001 0 0 0 -0.15625,-0.9531 1.0001,1.0001 0 0 0 -0.002,0 l -3.8477,-6.7324 a 1.0001,1.0001 0 0 0 -0.40234,-0.4844 1.0001,1.0001 0 0 0 -0.01172,-0.01 1.0001,1.0001 0 0 0 -0.07422,-0.041 1.0001,1.0001 0 0 0 -0.48242,-0.1152 z m -7.3906,2.0156 6.8379,0 0.42383,0.7422 -3.8438,3.8437 -3.8438,-3.8437 0.42578,-0.7422 z m -1.4531,2.543 3.457,3.457 -3.457,3.457 -1.9766,-3.457 1.9766,-3.457 z m 9.7422,0 1.9766,3.457 -1.9766,3.457 -3.457,-3.457 3.457,-3.457 z m -4.872,5 3.8438,3.8437 -0.42383,0.7422 -6.8398,0 -0.424,-0.8 3.8438,-3.8 z"
     style="color:#000000;text-indent:0;text-decoration:none;text-decoration-line:none;text-decoration-style:solid;text-decoration-color:#000000;text-transform:none;block-progression:tb;white-space:normal;isolation:auto;mix-blend-mode:normal;solid-color:#000000;fill:#4c4c4c;fill-rule:evenodd;color-rendering:auto;image-rendering:auto;shape-rendering:auto;fill-opacity:1" />
</svg>
