<?xml version="1.0" encoding="UTF-8" standalone="no"?>
<svg
   xmlns:dc="http://purl.org/dc/elements/1.1/"
   xmlns:cc="http://creativecommons.org/ns#"
   xmlns:rdf="http://www.w3.org/1999/02/22-rdf-syntax-ns#"
   xmlns:svg="http://www.w3.org/2000/svg"
   xmlns="http://www.w3.org/2000/svg"
   xmlns:sodipodi="http://sodipodi.sourceforge.net/DTD/sodipodi-0.dtd"
   xmlns:inkscape="http://www.inkscape.org/namespaces/inkscape"
   height="24"
   width="24"
   version="1.1"
   viewBox="0 0 24 24"
   id="svg2"
   inkscape:version="0.91 r13725"
   sodipodi:docname="hipchat-attention.svg">
  <metadata
     id="metadata16">
    <rdf:RDF>
      <cc:Work
         rdf:about="">
        <dc:format>image/svg+xml</dc:format>
        <dc:type
           rdf:resource="http://purl.org/dc/dcmitype/StillImage" />
      </cc:Work>
    </rdf:RDF>
  </metadata>
  <defs
     id="defs14" />
  <sodipodi:namedview
     pagecolor="#ffffff"
     bordercolor="#666666"
     borderopacity="1"
     objecttolerance="10"
     gridtolerance="10"
     guidetolerance="10"
     inkscape:pageopacity="0"
     inkscape:pageshadow="2"
     inkscape:window-width="1535"
     inkscape:window-height="876"
     id="namedview12"
     showgrid="false"
     inkscape:zoom="9.8333333"
     inkscape:cx="12"
     inkscape:cy="12"
     inkscape:window-x="65"
     inkscape:window-y="24"
     inkscape:window-maximized="1"
     inkscape:current-layer="svg2" />
  <path
     style="fill:none;stroke:#4c4c4c;stroke-width:1.5;stroke-linecap:round;stroke-opacity:1"
     inkscape:connector-curvature="0"
     id="path6"
     d="m 9,13.6 c 2,1.523 4,1.5074 6,0" />
  <path
     inkscape:connector-curvature="0"
     id="path8"
     d="M 12,4 C 7.6322,4 4,7.3281 4,11.5 4,15.672 7.6322,19 12,19 a 1.0001,1.0001 0 0 0 0.002,0 c 0.612,0 1.213,-0.118 1.809,-0.25 1.228,0.809 2.663,1.541 4.367,1.234 a 1.0001,1.0001 0 0 0 0.549,-1.672 C 18.144,17.696 17.838,17.313 17.82,16.492 19.151,15.125 19.998,13.383 20,11.5 20,10.489 19.784,9.529 19.398,8.6523 A 3,3 0 0 1 18,9 3,3 0 0 1 17.297,8.9121 C 17.746,9.686 18,10.569 18,11.5 17.999,13 17.333,14.438 16.127,15.486 a 1.0001,1.0001 0 0 0 -0.342,0.703 c -0.032,0.628 0.162,1.106 0.344,1.584 -0.5,-0.203 -1.006,-0.494 -1.553,-0.873 a 1.0001,1.0001 0 0 0 -0.84,-0.14 C 13.174,16.917 12.589,16.998 12,17 8.6358,17 6,14.508 6,11.5 6,8.4922 8.6358,6 12,6 c 1.147,0 2.205,0.2958 3.107,0.7969 A 3,3 0 0 1 15,6 3,3 0 0 1 15.309,4.6836 C 14.295,4.2491 13.177,4 12,4 Z"
     style="color:#000000;text-indent:0;text-decoration:none;text-decoration-line:none;text-decoration-style:solid;text-decoration-color:#000000;text-transform:none;block-progression:tb;white-space:normal;isolation:auto;mix-blend-mode:normal;solid-color:#000000;fill:#4c4c4c;color-rendering:auto;image-rendering:auto;shape-rendering:auto;fill-opacity:1" />
  <path
     inkscape:connector-curvature="0"
     id="path10"
     d="m 20,6 a 2,2 0 0 1 -4,0 2,2 0 1 1 4,0 z"
     style="color:#000000;opacity:0.98999999;fill:#009dff" />
</svg>
