<?xml version="1.0" encoding="UTF-8" standalone="no"?>
<svg
   xmlns:dc="http://purl.org/dc/elements/1.1/"
   xmlns:cc="http://creativecommons.org/ns#"
   xmlns:rdf="http://www.w3.org/1999/02/22-rdf-syntax-ns#"
   xmlns:svg="http://www.w3.org/2000/svg"
   xmlns="http://www.w3.org/2000/svg"
   xmlns:sodipodi="http://sodipodi.sourceforge.net/DTD/sodipodi-0.dtd"
   xmlns:inkscape="http://www.inkscape.org/namespaces/inkscape"
   height="24"
   width="24"
   version="1.1"
   viewBox="0 0 24 24"
   id="svg2"
   inkscape:version="0.91 r13725"
   sodipodi:docname="indicator-lunar.svg">
  <metadata
     id="metadata14">
    <rdf:RDF>
      <cc:Work
         rdf:about="">
        <dc:format>image/svg+xml</dc:format>
        <dc:type
           rdf:resource="http://purl.org/dc/dcmitype/StillImage" />
      </cc:Work>
    </rdf:RDF>
  </metadata>
  <defs
     id="defs12" />
  <sodipodi:namedview
     pagecolor="#ffffff"
     bordercolor="#666666"
     borderopacity="1"
     objecttolerance="10"
     gridtolerance="10"
     guidetolerance="10"
     inkscape:pageopacity="0"
     inkscape:pageshadow="2"
     inkscape:window-width="1535"
     inkscape:window-height="876"
     id="namedview10"
     showgrid="false"
     inkscape:zoom="9.8333333"
     inkscape:cx="-1.8960814"
     inkscape:cy="-4.8187478"
     inkscape:window-x="65"
     inkscape:window-y="24"
     inkscape:window-maximized="1"
     inkscape:current-layer="svg2" />
  <g
     transform="translate(0 -1028.4)"
     fill="#fff"
     id="g4"
     style="fill:#4c4c4c;fill-opacity:1">
    <path
       d="m12 1032.4a8 8 0 0 0 -8 8 8 8 0 0 0 8 8 8 8 0 0 0 0.9375 -0.064c-2.389-1.8-3.938-4.7-3.938-7.9 0-3.2377 1.5505-6.1111 3.9414-7.9395a8 8 0 0 0 -0.941 -0.1z"
       id="path6"
       style="fill:#4c4c4c;fill-opacity:1" />
    <path
       opacity=".4"
       d="m14.289 1032.7c-2.572 1.6-4.289 4.4-4.289 7.7 0 3.2462 1.7173 6.0772 4.2891 7.6602a8 8 0 0 0 5.711 -7.7 8 8 0 0 0 -5.7109 -7.6621z"
       id="path8"
       style="fill:#4c4c4c;fill-opacity:1" />
  </g>
</svg>
