<?xml version="1.0" encoding="UTF-8" standalone="no"?>
<svg
   xmlns:dc="http://purl.org/dc/elements/1.1/"
   xmlns:cc="http://creativecommons.org/ns#"
   xmlns:rdf="http://www.w3.org/1999/02/22-rdf-syntax-ns#"
   xmlns:svg="http://www.w3.org/2000/svg"
   xmlns="http://www.w3.org/2000/svg"
   xmlns:sodipodi="http://sodipodi.sourceforge.net/DTD/sodipodi-0.dtd"
   xmlns:inkscape="http://www.inkscape.org/namespaces/inkscape"
   height="24"
   width="24"
   version="1.1"
   viewBox="0 0 24 24"
   id="svg2"
   inkscape:version="0.91 r13725"
   sodipodi:docname="indicator-remindor-attention.svg">
  <metadata
     id="metadata16">
    <rdf:RDF>
      <cc:Work
         rdf:about="">
        <dc:format>image/svg+xml</dc:format>
        <dc:type
           rdf:resource="http://purl.org/dc/dcmitype/StillImage" />
      </cc:Work>
    </rdf:RDF>
  </metadata>
  <defs
     id="defs14" />
  <sodipodi:namedview
     pagecolor="#ffffff"
     bordercolor="#666666"
     borderopacity="1"
     objecttolerance="10"
     gridtolerance="10"
     guidetolerance="10"
     inkscape:pageopacity="0"
     inkscape:pageshadow="2"
     inkscape:window-width="1535"
     inkscape:window-height="876"
     id="namedview12"
     showgrid="false"
     inkscape:zoom="9.8333333"
     inkscape:cx="-5.5423729"
     inkscape:cy="13.016949"
     inkscape:window-x="65"
     inkscape:window-y="24"
     inkscape:window-maximized="1"
     inkscape:current-layer="svg2" />
  <path
     inkscape:connector-curvature="0"
     id="path6"
     d="m 12,4 c -4.4064,0 -8,3.5936 -8,8 0,4.406 3.5936,8 8,8 4.406,0 8,-3.594 8,-8 0,-0.821 -0.126,-1.613 -0.357,-2.3594 A 4,4 0 0 1 18,10 4,4 0 0 1 17.646,9.9824 C 17.87,10.613 18,11.29 18,12 c 0,3.326 -2.674,6 -6,6 -3.3256,0 -6,-2.674 -6,-6 0,-3.3255 2.6744,-6 6,-6 0.71,0 1.387,0.1275 2.018,0.3516 A 4,4 0 0 1 14,6 4,4 0 0 1 14.357,4.3555 C 13.612,4.1245 12.82,4 12,4 Z"
     style="color:#000000;text-indent:0;text-decoration:none;text-decoration-line:none;text-decoration-style:solid;text-decoration-color:#000000;text-transform:none;block-progression:tb;white-space:normal;isolation:auto;mix-blend-mode:normal;solid-color:#000000;fill:#4c4c4c;color-rendering:auto;image-rendering:auto;shape-rendering:auto;fill-opacity:1" />
  <path
     style="fill:none;stroke:#4c4c4c;stroke-width:2;stroke-linecap:round;stroke-linejoin:round;stroke-opacity:1"
     inkscape:connector-curvature="0"
     id="path8"
     d="m 12,9 0,3 3,0" />
  <path
     inkscape:connector-curvature="0"
     id="path10"
     d="m 20,6 a 2,2 0 0 1 -4,0 2,2 0 1 1 4,0 z"
     style="color:#000000;opacity:0.98999999;fill:#009dff" />
</svg>
