<?xml version="1.0" encoding="UTF-8" standalone="no"?>
<svg
   xmlns:dc="http://purl.org/dc/elements/1.1/"
   xmlns:cc="http://creativecommons.org/ns#"
   xmlns:rdf="http://www.w3.org/1999/02/22-rdf-syntax-ns#"
   xmlns:svg="http://www.w3.org/2000/svg"
   xmlns="http://www.w3.org/2000/svg"
   xmlns:sodipodi="http://sodipodi.sourceforge.net/DTD/sodipodi-0.dtd"
   xmlns:inkscape="http://www.inkscape.org/namespaces/inkscape"
   height="24"
   width="24"
   version="1.1"
   viewBox="0 0 24 24"
   id="svg2"
   inkscape:version="0.91 r13725"
   sodipodi:docname="qbittorrent-panel.svg">
  <metadata
     id="metadata12">
    <rdf:RDF>
      <cc:Work
         rdf:about="">
        <dc:format>image/svg+xml</dc:format>
        <dc:type
           rdf:resource="http://purl.org/dc/dcmitype/StillImage" />
      </cc:Work>
    </rdf:RDF>
  </metadata>
  <defs
     id="defs10" />
  <sodipodi:namedview
     pagecolor="#ffffff"
     bordercolor="#666666"
     borderopacity="1"
     objecttolerance="10"
     gridtolerance="10"
     guidetolerance="10"
     inkscape:pageopacity="0"
     inkscape:pageshadow="2"
     inkscape:window-width="1535"
     inkscape:window-height="876"
     id="namedview8"
     showgrid="false"
     inkscape:zoom="9.8333333"
     inkscape:cx="-4.5254237"
     inkscape:cy="12"
     inkscape:window-x="65"
     inkscape:window-y="24"
     inkscape:window-maximized="1"
     inkscape:current-layer="svg2" />
  <path
     style="fill:#4c4c4c;fill-opacity:1"
     inkscape:connector-curvature="0"
     id="path6"
     d="m 12,4 a 8,8 0 0 0 -8,8 8,8 0 0 0 5,7.41 L 9,14.812 C 8.6852,14.926 8.3518,15 8,15 6.355,15 5,13.645 5,12 5,10.355 6.355,9 8,9 8.3518,9 8.6852,9.072 9,9.1855 L 9,9 l 2,0 0,3 0,7.93 A 8,8 0 0 0 12,20 8,8 0 0 0 20,12 8,8 0 0 0 15,4.5879 l 0,4.5976 C 15.315,9.072 15.648,9 16,9 c 1.645,0 3,1.355 3,3 0,1.645 -1.355,3 -3,3 -0.352,0 -0.685,-0.074 -1,-0.188 L 15,15 13,15 13,12 13,4.0723 A 8,8 0 0 0 12,4 Z m -4,7 c -0.5641,0 -1,0.436 -1,1 0,0.564 0.4359,1 1,1 0.5641,0 1,-0.436 1,-1 0,-0.564 -0.4359,-1 -1,-1 z m 8,0 c -0.564,0 -1,0.436 -1,1 0,0.564 0.436,1 1,1 0.564,0 1,-0.436 1,-1 0,-0.564 -0.436,-1 -1,-1 z" />
</svg>
