<?xml version="1.0" encoding="UTF-8" standalone="no"?>
<svg
   xmlns:dc="http://purl.org/dc/elements/1.1/"
   xmlns:cc="http://creativecommons.org/ns#"
   xmlns:rdf="http://www.w3.org/1999/02/22-rdf-syntax-ns#"
   xmlns:svg="http://www.w3.org/2000/svg"
   xmlns="http://www.w3.org/2000/svg"
   xmlns:sodipodi="http://sodipodi.sourceforge.net/DTD/sodipodi-0.dtd"
   xmlns:inkscape="http://www.inkscape.org/namespaces/inkscape"
   height="24"
   width="24"
   version="1.1"
   viewBox="0 0 24 24"
   id="svg2"
   inkscape:version="0.91 r13725"
   sodipodi:docname="roger-notify.svg">
  <metadata
     id="metadata14">
    <rdf:RDF>
      <cc:Work
         rdf:about="">
        <dc:format>image/svg+xml</dc:format>
        <dc:type
           rdf:resource="http://purl.org/dc/dcmitype/StillImage" />
      </cc:Work>
    </rdf:RDF>
  </metadata>
  <defs
     id="defs12" />
  <sodipodi:namedview
     pagecolor="#ffffff"
     bordercolor="#666666"
     borderopacity="1"
     objecttolerance="10"
     gridtolerance="10"
     guidetolerance="10"
     inkscape:pageopacity="0"
     inkscape:pageshadow="2"
     inkscape:window-width="1535"
     inkscape:window-height="876"
     id="namedview10"
     showgrid="false"
     inkscape:zoom="9.8333333"
     inkscape:cx="-4.5254237"
     inkscape:cy="12"
     inkscape:window-x="65"
     inkscape:window-y="24"
     inkscape:window-maximized="1"
     inkscape:current-layer="svg2" />
  <path
     style="fill:#4c4c4c;fill-opacity:1"
     inkscape:connector-curvature="0"
     id="path6"
     d="M 6,4 C 4.8954,4 4,4.8954 4,6 4,10 5,13 8.0215,15.975 10.952,18.86 14,20 18,20 c 1.105,0 2,-0.895 2,-2 l 0,-2.746 c 0.13,-0.519 -0.171,-1.048 -0.684,-1.201 l -3,-1 c -0.094,-0.034 -0.193,-0.054 -0.293,-0.059 l 0,0.002 c -0.303,-0.011 -0.596,0.116 -0.794,0.346 -0.75,0.897 -1.499,1.794 -2.249,2.691 C 11.001,15 9.1428,12.872 7.9668,11.012 c 0,0 1.0716,-0.9 1.9277,-1.6175 A 4,4 0 0 1 8,6 4,4 0 0 1 8.541,4 L 6,4 Z" />
  <path
     inkscape:connector-curvature="0"
     id="path8"
     d="m 14.015,6 a 2,2 0 0 1 -4,0 2,2 0 1 1 4,0 z"
     style="color:#000000;opacity:0.98999999;fill:#009dff" />
</svg>
