<?xml version="1.0" encoding="UTF-8" standalone="no"?>
<svg
   xmlns:dc="http://purl.org/dc/elements/1.1/"
   xmlns:cc="http://creativecommons.org/ns#"
   xmlns:rdf="http://www.w3.org/1999/02/22-rdf-syntax-ns#"
   xmlns:svg="http://www.w3.org/2000/svg"
   xmlns="http://www.w3.org/2000/svg"
   xmlns:sodipodi="http://sodipodi.sourceforge.net/DTD/sodipodi-0.dtd"
   xmlns:inkscape="http://www.inkscape.org/namespaces/inkscape"
   height="24"
   width="24"
   version="1.1"
   viewBox="0 0 24 24"
   id="svg2"
   inkscape:version="0.91 r13725"
   sodipodi:docname="roger-default.svg">
  <metadata
     id="metadata12">
    <rdf:RDF>
      <cc:Work
         rdf:about="">
        <dc:format>image/svg+xml</dc:format>
        <dc:type
           rdf:resource="http://purl.org/dc/dcmitype/StillImage" />
      </cc:Work>
    </rdf:RDF>
  </metadata>
  <defs
     id="defs10" />
  <sodipodi:namedview
     pagecolor="#ffffff"
     bordercolor="#666666"
     borderopacity="1"
     objecttolerance="10"
     gridtolerance="10"
     guidetolerance="10"
     inkscape:pageopacity="0"
     inkscape:pageshadow="2"
     inkscape:window-width="1535"
     inkscape:window-height="876"
     id="namedview8"
     showgrid="false"
     inkscape:zoom="9.8333333"
     inkscape:cx="-4.5254237"
     inkscape:cy="12"
     inkscape:window-x="65"
     inkscape:window-y="24"
     inkscape:window-maximized="1"
     inkscape:current-layer="svg2" />
  <path
     style="fill:#4c4c4c;fill-opacity:1"
     inkscape:connector-curvature="0"
     id="path6"
     d="M 8.959,3.9883 C 8.9184,3.9897 8.878,3.9936 8.8379,4 L 6,4 C 4.8954,4 4,4.8954 4,6 4,10 5,13 8.0215,15.975 10.952,18.86 14,20 18,20 c 1.1046,0 2,-0.89543 2,-2 l 0,-2.7461 c 0.12994,-0.51876 -0.17123,-1.048 -0.68359,-1.2012 l -3,-1 c -0.09417,-0.03409 -0.19293,-0.05384 -0.29297,-0.05859 l 0,0.002 c -0.30374,-0.01155 -0.59625,0.11566 -0.79492,0.3457 -0.74965,0.89685 -1.4988,1.7942 -2.248,2.6914 -1.9798,-1.0332 -3.8377,-3.1616 -5.0137,-5.0215 0,0 1.7359,-1.4698 2.6895,-2.2578 0.30395,-0.26459 0.41944,-0.68574 0.29297,-1.0684 l -1,-3 c -0.1356,-0.4284 -0.5407,-0.7137 -0.99,-0.6971 z" />
</svg>
