<?xml version="1.0" encoding="UTF-8" standalone="no"?>
<svg
   xmlns:dc="http://purl.org/dc/elements/1.1/"
   xmlns:cc="http://creativecommons.org/ns#"
   xmlns:rdf="http://www.w3.org/1999/02/22-rdf-syntax-ns#"
   xmlns:svg="http://www.w3.org/2000/svg"
   xmlns="http://www.w3.org/2000/svg"
   xmlns:sodipodi="http://sodipodi.sourceforge.net/DTD/sodipodi-0.dtd"
   xmlns:inkscape="http://www.inkscape.org/namespaces/inkscape"
   height="24"
   width="24"
   version="1.1"
   viewBox="0 0 24 24"
   id="svg2"
   inkscape:version="0.91 r13725"
   sodipodi:docname="si-syncing-2.svg">
  <metadata
     id="metadata12">
    <rdf:RDF>
      <cc:Work
         rdf:about="">
        <dc:format>image/svg+xml</dc:format>
        <dc:type
           rdf:resource="http://purl.org/dc/dcmitype/StillImage" />
      </cc:Work>
    </rdf:RDF>
  </metadata>
  <defs
     id="defs10" />
  <sodipodi:namedview
     pagecolor="#ffffff"
     bordercolor="#666666"
     borderopacity="1"
     objecttolerance="10"
     gridtolerance="10"
     guidetolerance="10"
     inkscape:pageopacity="0"
     inkscape:pageshadow="2"
     inkscape:window-width="1535"
     inkscape:window-height="876"
     id="namedview8"
     showgrid="false"
     inkscape:zoom="9.8333333"
     inkscape:cx="-4.5254237"
     inkscape:cy="12"
     inkscape:window-x="65"
     inkscape:window-y="24"
     inkscape:window-maximized="1"
     inkscape:current-layer="svg2" />
  <path
     style="fill:#4c4c4c;fill-opacity:1"
     inkscape:connector-curvature="0"
     id="path6"
     d="M 18.928,8 A 8,8 0 0 0 8,5.0718 a 8,8 0 0 0 -2.9282,10.928 8,8 0 0 0 10.928,2.928 8,8 0 0 0 2.928,-10.928 z m -1.7321,1 a 6,6 0 0 1 0.49082,4.897 1.5,1.5 0 0 1 0.15213,0.21663 1.5,1.5 0 0 1 -0.54904,2.049 1.5,1.5 0 0 1 -1.1285,0.15086 6,6 0 0 1 -1.161,0.882 6,6 0 0 1 -3.664,0.76 1.5,1.5 0 0 1 -0.517,0.499 1.5,1.5 0 0 1 -2.0486,-0.549 1.5,1.5 0 0 1 -0.1822,-0.98 6,6 0 0 1 -1.7844,-1.926 6,6 0 0 1 0.0041,-5.9969 1.5,1.5 0 0 1 -0.031,-0.0497 1.5,1.5 0 0 1 0.5491,-2.0491 1.5,1.5 0 0 1 1.5064,0.0076 6,6 0 0 1 0.16762,-0.10809 6,6 0 0 1 8.1962,2.1961 z m -0.866,0.5 A 5,5 0 0 0 9.4999,7.6699 5,5 0 0 0 9.4813,7.6806 1.5,1.5 0 0 1 9.3539,8.9833 l 2.2091,2.7209 a 1.5,1.5 0 0 1 1.8029,0.66182 1.5,1.5 0 0 1 0.1993,0.79832 l 1.8405,0.71906 a 1.5,1.5 0 0 1 0.384,-0.318 1.5,1.5 0 0 1 1.011,-0.178 5,5 0 0 0 -0.471,-3.887 z m -1.288,5.315 -1.841,-0.719 a 1.5,1.5 0 0 1 -0.38425,0.31883 1.5,1.5 0 0 1 -0.92846,0.18873 l -0.74429,1.5077 a 1.5,1.5 0 0 1 0.22419,0.29455 1.5,1.5 0 0 1 0.19005,0.57136 5,5 0 0 0 2.942,-0.648 5,5 0 0 0 0.819,-0.597 1.5,1.5 0 0 1 -0.078,-0.119 1.5,1.5 0 0 1 -0.199,-0.799 z M 10.7889,12.336 8.5781,9.6162 a 1.5,1.5 0 0 1 -0.97335,0.00942 5,5 0 0 0 0.06507,4.8744 5,5 0 0 0 1.3972,1.5411 1.5,1.5 0 0 1 0.25234,-0.18403 1.5,1.5 0 0 1 0.92846,-0.18873 l 0.744,-1.507 a 1.5,1.5 0 0 1 -0.22418,-0.29456 1.5,1.5 0 0 1 0.02105,-1.53 z" />
</svg>
