<?xml version="1.0" encoding="UTF-8" standalone="no"?>
<svg
   xmlns:dc="http://purl.org/dc/elements/1.1/"
   xmlns:cc="http://creativecommons.org/ns#"
   xmlns:rdf="http://www.w3.org/1999/02/22-rdf-syntax-ns#"
   xmlns:svg="http://www.w3.org/2000/svg"
   xmlns="http://www.w3.org/2000/svg"
   xmlns:sodipodi="http://sodipodi.sourceforge.net/DTD/sodipodi-0.dtd"
   xmlns:inkscape="http://www.inkscape.org/namespaces/inkscape"
   height="24"
   width="24"
   version="1.1"
   viewBox="0 0 24 24"
   id="svg2"
   inkscape:version="0.91 r13725"
   sodipodi:docname="si-syncing-9.svg">
  <metadata
     id="metadata12">
    <rdf:RDF>
      <cc:Work
         rdf:about="">
        <dc:format>image/svg+xml</dc:format>
        <dc:type
           rdf:resource="http://purl.org/dc/dcmitype/StillImage" />
      </cc:Work>
    </rdf:RDF>
  </metadata>
  <defs
     id="defs10" />
  <sodipodi:namedview
     pagecolor="#ffffff"
     bordercolor="#666666"
     borderopacity="1"
     objecttolerance="10"
     gridtolerance="10"
     guidetolerance="10"
     inkscape:pageopacity="0"
     inkscape:pageshadow="2"
     inkscape:window-width="1535"
     inkscape:window-height="876"
     id="namedview8"
     showgrid="false"
     inkscape:zoom="9.8333333"
     inkscape:cx="-4.5254237"
     inkscape:cy="12"
     inkscape:window-x="65"
     inkscape:window-y="24"
     inkscape:window-maximized="1"
     inkscape:current-layer="svg2" />
  <path
     style="fill:#4c4c4c;fill-opacity:1"
     inkscape:connector-curvature="0"
     id="path6"
     d="m 4,12 a 8,8 0 0 0 8,8 8,8 0 0 0 8,-8 8,8 0 0 0 -8,-8 8,8 0 0 0 -8,8 z m 2,0 A 6,6 0 0 1 8.0234,7.5137 1.5,1.5 0 0 1 8,7.25 1.5,1.5 0 0 1 9.5,5.75 1.5,1.5 0 0 1 10.553,6.1836 6,6 0 0 1 12,6 6,6 0 0 1 15.553,7.1738 1.5,1.5 0 0 1 16.25,7 1.5,1.5 0 0 1 17.75,8.5 1.5,1.5 0 0 1 17.418,9.4395 6,6 0 0 1 18,12 6,6 0 0 1 14.998,17.1914 1.5,1.5 0 0 1 15,17.25 a 1.5,1.5 0 0 1 -1.5,1.5 1.5,1.5 0 0 1 -1.3008,-0.75978 6,6 0 0 1 -0.19921,0.0098 6,6 0 0 1 -6,-6 z m 1,0 a 5,5 0 0 0 5,5 5,5 0 0 0 0.02148,-1e-6 1.5,1.5 0 0 1 0.76172,-1.0645 l -0.553,-3.461 a 1.5,1.5 0 0 1 -1.2305,-1.4746 1.5,1.5 0 0 1 0.22656,-0.79102 l -1.2338,-1.543 a 1.5,1.5 0 0 1 -0.4922,0.084 1.5,1.5 0 0 1 -0.9648,-0.3516 5,5 0 0 0 -1.5352,3.6016 z m 3.773,-3.959 1.235,1.543 A 1.5,1.5 0 0 1 12.5,9.5 1.5,1.5 0 0 1 13.398,9.8008 l 1.3984,-0.93359 a 1.5,1.5 0 0 1 -0.046,-0.3672 1.5,1.5 0 0 1 0.121,-0.5898 5,5 0 0 0 -2.871,-0.9102 5,5 0 0 0 -1.0078,0.10742 1.5,1.5 0 0 1 0.0078,0.14257 1.5,1.5 0 0 1 -0.22656,0.79102 z m 2.4434,4.2734 0.55469,3.4609 a 1.5,1.5 0 0 1 0.84765,0.47854 5,5 0 0 0 2.3809,-4.2539 5,5 0 0 0 -0.43945,-2.0332 1.5,1.5 0 0 1 -0.31055,0.0332 1.5,1.5 0 0 1 -0.89844,-0.30078 l -1.3984,0.93359 a 1.5,1.5 0 0 1 0.04687,0.36719 1.5,1.5 0 0 1 -0.7832,1.3145 z" />
</svg>
