<?xml version="1.0" encoding="UTF-8" standalone="no"?>
<svg
   xmlns:dc="http://purl.org/dc/elements/1.1/"
   xmlns:cc="http://creativecommons.org/ns#"
   xmlns:rdf="http://www.w3.org/1999/02/22-rdf-syntax-ns#"
   xmlns:svg="http://www.w3.org/2000/svg"
   xmlns="http://www.w3.org/2000/svg"
   xmlns:sodipodi="http://sodipodi.sourceforge.net/DTD/sodipodi-0.dtd"
   xmlns:inkscape="http://www.inkscape.org/namespaces/inkscape"
   height="24"
   width="24"
   version="1.1"
   viewBox="0 0 24 24"
   id="svg2"
   inkscape:version="0.91 r13725"
   sodipodi:docname="si-syncing-7.svg">
  <metadata
     id="metadata12">
    <rdf:RDF>
      <cc:Work
         rdf:about="">
        <dc:format>image/svg+xml</dc:format>
        <dc:type
           rdf:resource="http://purl.org/dc/dcmitype/StillImage" />
      </cc:Work>
    </rdf:RDF>
  </metadata>
  <defs
     id="defs10" />
  <sodipodi:namedview
     pagecolor="#ffffff"
     bordercolor="#666666"
     borderopacity="1"
     objecttolerance="10"
     gridtolerance="10"
     guidetolerance="10"
     inkscape:pageopacity="0"
     inkscape:pageshadow="2"
     inkscape:window-width="1535"
     inkscape:window-height="876"
     id="namedview8"
     showgrid="false"
     inkscape:zoom="9.8333333"
     inkscape:cx="-4.5254237"
     inkscape:cy="12"
     inkscape:window-x="65"
     inkscape:window-y="24"
     inkscape:window-maximized="1"
     inkscape:current-layer="svg2" />
  <path
     style="fill:#4c4c4c;fill-opacity:1"
     inkscape:connector-curvature="0"
     id="path6"
     d="M 8,18.928 A 8,8 0 0 0 18.928,16 8,8 0 0 0 16,5.072 8,8 0 0 0 5.072,8 8,8 0 0 0 8,18.928 Z M 9,17.196 A 6,6 0 0 1 6.1264,13.201 1.5,1.5 0 0 1 5.8864,13.089 1.5,1.5 0 0 1 5.3373,11.04 1.5,1.5 0 0 1 6.2392,10.345 6,6 0 0 1 6.8038,9 6,6 0 0 1 9.5968,6.5102 1.5,1.5 0 0 1 9.7949,5.8194 1.5,1.5 0 0 1 11.844,5.2704 1.5,1.5 0 0 1 12.491,6.0276 6,6 0 0 1 15,6.8038 a 6,6 0 0 1 2.9949,5.1955 1.5,1.5 0 0 1 0.05175,0.02757 1.5,1.5 0 0 1 0.54904,2.049 1.5,1.5 0 0 1 -1.3084,0.74661 6,6 0 0 1 -0.09112,0.17742 6,6 0 0 1 -8.1962,2.1962 z M 9.5,16.33 A 5,5 0 0 0 16.33,14.5 5,5 0 0 0 16.341,14.481 1.5,1.5 0 0 1 15.8,13.29 l -3.274,-1.252 a 1.5,1.5 0 0 1 -1.892,0.328 1.5,1.5 0 0 1 -0.572,-0.592 L 8.1088,12.072 A 1.5,1.5 0 0 1 7.9354,12.54 1.5,1.5 0 0 1 7.1485,13.2 5,5 0 0 0 9.5,16.33 Z M 7.9581,11.083 9.9116,10.785 a 1.5,1.5 0 0 1 0.1734,-0.468 1.5,1.5 0 0 1 0.71,-0.6277 L 10.685,8.0114 A 1.5,1.5 0 0 1 10.344,7.8684 1.5,1.5 0 0 1 9.8936,7.4686 5,5 0 0 0 7.6699,9.5 a 5,5 0 0 0 -0.41088,0.9265 1.5,1.5 0 0 1 0.12737,0.06453 1.5,1.5 0 0 1 0.57176,0.59172 z m 4.9226,0.02071 3.2746,1.2501 a 1.5,1.5 0 0 1 0.838,-0.495 5,5 0 0 0 -2.494,-4.1891 5,5 0 0 0 -1.981,-0.636 1.5,1.5 0 0 1 -0.126,0.2855 1.5,1.5 0 0 1 -0.71,0.6277 l 0.1093,1.6779 a 1.5,1.5 0 0 1 0.34143,0.143 1.5,1.5 0 0 1 0.74675,1.3355 z" />
</svg>
