<?xml version="1.0" encoding="UTF-8" standalone="no"?>
<svg
   xmlns:dc="http://purl.org/dc/elements/1.1/"
   xmlns:cc="http://creativecommons.org/ns#"
   xmlns:rdf="http://www.w3.org/1999/02/22-rdf-syntax-ns#"
   xmlns:svg="http://www.w3.org/2000/svg"
   xmlns="http://www.w3.org/2000/svg"
   xmlns:sodipodi="http://sodipodi.sourceforge.net/DTD/sodipodi-0.dtd"
   xmlns:inkscape="http://www.inkscape.org/namespaces/inkscape"
   height="24"
   width="24"
   version="1.1"
   viewBox="0 0 24 24"
   id="svg2"
   inkscape:version="0.91 r13725"
   sodipodi:docname="si-syncing-3.svg">
  <metadata
     id="metadata12">
    <rdf:RDF>
      <cc:Work
         rdf:about="">
        <dc:format>image/svg+xml</dc:format>
        <dc:type
           rdf:resource="http://purl.org/dc/dcmitype/StillImage" />
      </cc:Work>
    </rdf:RDF>
  </metadata>
  <defs
     id="defs10" />
  <sodipodi:namedview
     pagecolor="#ffffff"
     bordercolor="#666666"
     borderopacity="1"
     objecttolerance="10"
     gridtolerance="10"
     guidetolerance="10"
     inkscape:pageopacity="0"
     inkscape:pageshadow="2"
     inkscape:window-width="1535"
     inkscape:window-height="876"
     id="namedview8"
     showgrid="false"
     inkscape:zoom="9.8333333"
     inkscape:cx="12"
     inkscape:cy="-4.2711864"
     inkscape:window-x="65"
     inkscape:window-y="24"
     inkscape:window-maximized="1"
     inkscape:current-layer="svg2" />
  <path
     style="fill:#4c4c4c;fill-opacity:1"
     inkscape:connector-curvature="0"
     id="path6"
     d="m 20,12 a 8,8 0 0 0 -8,-8 8,8 0 0 0 -8,8 8,8 0 0 0 8,8 8,8 0 0 0 8,-8 z m -2,0 A 6,6 0 0 1 15.977,16.486 1.5,1.5 0 0 1 16,16.75 1.5,1.5 0 0 1 14.5,18.25 1.5,1.5 0 0 1 13.447,17.816 6,6 0 0 1 12,18 6,6 0 0 1 8.4473,16.826 1.5,1.5 0 0 1 7.75,17 1.5,1.5 0 0 1 6.25,15.5 1.5,1.5 0 0 1 6.582,14.561 6,6 0 0 1 6,12 6,6 0 0 1 9.002,6.8086 1.5,1.5 0 0 1 9,6.75 a 1.5,1.5 0 0 1 1.5,-1.5 1.5,1.5 0 0 1 1.3008,0.75978 6,6 0 0 1 0.19921,-0.0098 6,6 0 0 1 6,6 z m -1,0 a 5,5 0 0 0 -5,-5 5,5 0 0 0 -0.02148,2.9e-6 1.5,1.5 0 0 1 -0.76172,1.0645 l 0.55273,3.4609001 a 1.5,1.5 0 0 1 1.2305,1.4746 1.5,1.5 0 0 1 -0.22656,0.79102 l 1.2344,1.543 a 1.5,1.5 0 0 1 0.492,-0.084 1.5,1.5 0 0 1 0.965,0.352 5,5 0 0 0 1.535,-3.602 z m -3.773,3.959 -1.235,-1.543 A 1.5,1.5 0 0 1 11.5,14.5 1.5,1.5 0 0 1 10.602,14.199 L 9.2031,15.133 A 1.5,1.5 0 0 1 9.25,15.5 1.5,1.5 0 0 1 9.1289,16.09 5,5 0 0 0 12,17 5,5 0 0 0 13.0078,16.89258 1.5,1.5 0 0 1 13,16.75001 1.5,1.5 0 0 1 13.22656,15.95899 Z M 10.783,11.686 10.229,8.2246 A 1.5,1.5 0 0 1 9.3809,7.7461 5,5 0 0 0 7,12 a 5,5 0 0 0 0.4395,2.033 1.5,1.5 0 0 1 0.31055,-0.0332 1.5,1.5 0 0 1 0.89844,0.30078 l 1.3984,-0.93359 a 1.5,1.5 0 0 1 -0.04687,-0.36719 1.5,1.5 0 0 1 0.7832,-1.3145 z" />
</svg>
