<?xml version="1.0" encoding="UTF-8" standalone="no"?>
<svg
   xmlns:dc="http://purl.org/dc/elements/1.1/"
   xmlns:cc="http://creativecommons.org/ns#"
   xmlns:rdf="http://www.w3.org/1999/02/22-rdf-syntax-ns#"
   xmlns:svg="http://www.w3.org/2000/svg"
   xmlns="http://www.w3.org/2000/svg"
   xmlns:sodipodi="http://sodipodi.sourceforge.net/DTD/sodipodi-0.dtd"
   xmlns:inkscape="http://www.inkscape.org/namespaces/inkscape"
   height="24"
   width="24"
   version="1.1"
   viewBox="0 0 24 24"
   id="svg2"
   inkscape:version="0.91 r13725"
   sodipodi:docname="si-syncing-8.svg">
  <metadata
     id="metadata12">
    <rdf:RDF>
      <cc:Work
         rdf:about="">
        <dc:format>image/svg+xml</dc:format>
        <dc:type
           rdf:resource="http://purl.org/dc/dcmitype/StillImage" />
      </cc:Work>
    </rdf:RDF>
  </metadata>
  <defs
     id="defs10" />
  <sodipodi:namedview
     pagecolor="#ffffff"
     bordercolor="#666666"
     borderopacity="1"
     objecttolerance="10"
     gridtolerance="10"
     guidetolerance="10"
     inkscape:pageopacity="0"
     inkscape:pageshadow="2"
     inkscape:window-width="1535"
     inkscape:window-height="876"
     id="namedview8"
     showgrid="false"
     inkscape:zoom="9.8333333"
     inkscape:cx="-4.5254237"
     inkscape:cy="12"
     inkscape:window-x="65"
     inkscape:window-y="24"
     inkscape:window-maximized="1"
     inkscape:current-layer="svg2" />
  <path
     style="fill:#4c4c4c;fill-opacity:1"
     inkscape:connector-curvature="0"
     id="path6"
     d="M 5.0718,16 A 8,8 0 0 0 15.9998,18.928 8,8 0 0 0 18.9278,8 8,8 0 0 0 7.9998,5.0718 8,8 0 0 0 5.0716,15.9998 Z m 1.732,-1 A 6,6 0 0 1 6.313,10.103 1.5,1.5 0 0 1 6.1609,9.8864 1.5,1.5 0 0 1 6.7099,7.8373 1.5,1.5 0 0 1 7.8384,7.6865 6,6 0 0 1 9,6.8038 6,6 0 0 1 12.6637,6.044 a 1.5,1.5 0 0 1 0.51694,-0.49917 1.5,1.5 0 0 1 2.049,0.54904 1.5,1.5 0 0 1 0.18218,0.97961 6,6 0 0 1 1.7843,1.9265 6,6 0 0 1 -0.0041,5.9969 1.5,1.5 0 0 1 0.03103,0.04975 1.5,1.5 0 0 1 -0.54904,2.049 1.5,1.5 0 0 1 -1.5064,-0.0076 6,6 0 0 1 -0.16762,0.10809 6,6 0 0 1 -8.1962,-2.1962 z m 0.8661,-0.5 a 5,5 0 0 0 6.8301,1.83 5,5 0 0 0 0.0186,-0.01074 1.5,1.5 0 0 1 0.12744,-1.3027 l -2.2092,-2.7209 a 1.5,1.5 0 0 1 -1.8029,-0.66182 1.5,1.5 0 0 1 -0.1993,-0.79832 l -1.8408,-0.719 a 1.5,1.5 0 0 1 -0.3843,0.318 1.5,1.5 0 0 1 -1.0113,0.178 5,5 0 0 0 0.4713,3.887 z M 8.9583,9.1847 10.799,9.9038 A 1.5,1.5 0 0 1 11.183,9.5849 1.5,1.5 0 0 1 12.111,9.3962 L 12.856,7.8885 A 1.5,1.5 0 0 1 12.632,7.5939 1.5,1.5 0 0 1 12.442,7.0225 5,5 0 0 0 9.5,7.6699 5,5 0 0 0 8.6809,8.2668 a 1.5,1.5 0 0 1 0.078041,0.11957 1.5,1.5 0 0 1 0.1993,0.79832 z m 4.2527,2.4792 2.2108,2.7199 A 1.5,1.5 0 0 1 16.39515,14.3744 5,5 0 0 0 16.33008,9.5 5,5 0 0 0 14.93288,7.9589 1.5,1.5 0 0 1 14.68054,8.14293 1.5,1.5 0 0 1 13.75208,8.33166 l -0.74428,1.5077 a 1.5,1.5 0 0 1 0.22418,0.29456 1.5,1.5 0 0 1 -0.02105,1.53 z" />
</svg>
