<?xml version="1.0" encoding="UTF-8" standalone="no"?>
<svg
   xmlns:dc="http://purl.org/dc/elements/1.1/"
   xmlns:cc="http://creativecommons.org/ns#"
   xmlns:rdf="http://www.w3.org/1999/02/22-rdf-syntax-ns#"
   xmlns:svg="http://www.w3.org/2000/svg"
   xmlns="http://www.w3.org/2000/svg"
   xmlns:sodipodi="http://sodipodi.sourceforge.net/DTD/sodipodi-0.dtd"
   xmlns:inkscape="http://www.inkscape.org/namespaces/inkscape"
   height="24"
   width="24"
   version="1.1"
   viewBox="0 0 24 24"
   id="svg2"
   inkscape:version="0.91 r13725"
   sodipodi:docname="si-syncing-10.svg">
  <metadata
     id="metadata12">
    <rdf:RDF>
      <cc:Work
         rdf:about="">
        <dc:format>image/svg+xml</dc:format>
        <dc:type
           rdf:resource="http://purl.org/dc/dcmitype/StillImage" />
      </cc:Work>
    </rdf:RDF>
  </metadata>
  <defs
     id="defs10" />
  <sodipodi:namedview
     pagecolor="#ffffff"
     bordercolor="#666666"
     borderopacity="1"
     objecttolerance="10"
     gridtolerance="10"
     guidetolerance="10"
     inkscape:pageopacity="0"
     inkscape:pageshadow="2"
     inkscape:window-width="1535"
     inkscape:window-height="876"
     id="namedview8"
     showgrid="false"
     inkscape:zoom="9.8333333"
     inkscape:cx="-4.5254237"
     inkscape:cy="12"
     inkscape:window-x="65"
     inkscape:window-y="24"
     inkscape:window-maximized="1"
     inkscape:current-layer="svg2" />
  <path
     style="fill:#4c4c4c;fill-opacity:1"
     inkscape:connector-curvature="0"
     id="path6"
     d="M 5.0718,8 A 8,8 0 0 0 8,18.928 8,8 0 0 0 18.928,16 8,8 0 0 0 16,5.072 8,8 0 0 0 5.072,8 Z m 1.732,1 A 6,6 0 0 1 10.799,6.1264 1.5,1.5 0 0 1 10.911,5.8864 1.5,1.5 0 0 1 12.96,5.3373 1.5,1.5 0 0 1 13.655,6.2392 6,6 0 0 1 15,6.8038 6,6 0 0 1 17.49,9.5968 1.5,1.5 0 0 1 18.181,9.7949 1.5,1.5 0 0 1 18.73,11.844 1.5,1.5 0 0 1 17.972,12.491 6,6 0 0 1 17.196,15 6,6 0 0 1 12.001,17.995 1.5,1.5 0 0 1 11.973,18.047 1.5,1.5 0 0 1 9.9241,18.596 1.5,1.5 0 0 1 9.1774,17.287 6,6 0 0 1 9,17.196 6,6 0 0 1 6.8039,9 Z m 0.8661,0.5 a 5,5 0 0 0 1.8301,6.83 5,5 0 0 0 0.018603,0.01074 1.5,1.5 0 0 1 1.1919,-0.54098 l 1.2518,-3.2736 a 1.5,1.5 0 0 1 -0.32831,-1.8923 1.5,1.5 0 0 1 0.59171,-0.57176 l -0.297,-1.9532 a 1.5,1.5 0 0 1 -0.468,-0.1734 1.5,1.5 0 0 1 -0.66,-0.7869 5,5 0 0 0 -3.1301,2.3515 z m 5.2474,-1.5419 0.29751,1.9534 a 1.5,1.5 0 0 1 0.46824,0.17336 1.5,1.5 0 0 1 0.62768,0.7097 l 1.6779,-0.1093 a 1.5,1.5 0 0 1 0.143,-0.342 1.5,1.5 0 0 1 0.399,-0.4504 5,5 0 0 0 -2.031,-2.2237 5,5 0 0 0 -0.927,-0.4109 1.5,1.5 0 0 1 -0.06453,0.12737 1.5,1.5 0 0 1 -0.59172,0.57176 z m -0.02071,4.9226 -1.2501,3.2746 a 1.5,1.5 0 0 1 0.49482,0.83825 5,5 0 0 0 4.1888,-2.4936 5,5 0 0 0 0.63602,-1.9805 1.5,1.5 0 0 1 -0.28554,-0.12652 1.5,1.5 0 0 1 -0.62768,-0.7097 l -1.6779,0.1093 a 1.5,1.5 0 0 1 -0.143,0.34143 1.5,1.5 0 0 1 -1.3355,0.74674 z" />
</svg>
