<?xml version="1.0" encoding="UTF-8" standalone="no"?>
<svg
   xmlns:dc="http://purl.org/dc/elements/1.1/"
   xmlns:cc="http://creativecommons.org/ns#"
   xmlns:rdf="http://www.w3.org/1999/02/22-rdf-syntax-ns#"
   xmlns:svg="http://www.w3.org/2000/svg"
   xmlns="http://www.w3.org/2000/svg"
   xmlns:sodipodi="http://sodipodi.sourceforge.net/DTD/sodipodi-0.dtd"
   xmlns:inkscape="http://www.inkscape.org/namespaces/inkscape"
   height="24"
   width="24"
   version="1.1"
   viewBox="0 0 24 24"
   id="svg2"
   inkscape:version="0.91 r13725"
   sodipodi:docname="si-syncing-1.svg">
  <metadata
     id="metadata12">
    <rdf:RDF>
      <cc:Work
         rdf:about="">
        <dc:format>image/svg+xml</dc:format>
        <dc:type
           rdf:resource="http://purl.org/dc/dcmitype/StillImage" />
      </cc:Work>
    </rdf:RDF>
  </metadata>
  <defs
     id="defs10" />
  <sodipodi:namedview
     pagecolor="#ffffff"
     bordercolor="#666666"
     borderopacity="1"
     objecttolerance="10"
     gridtolerance="10"
     guidetolerance="10"
     inkscape:pageopacity="0"
     inkscape:pageshadow="2"
     inkscape:window-width="1535"
     inkscape:window-height="876"
     id="namedview8"
     showgrid="false"
     inkscape:zoom="9.8333333"
     inkscape:cx="-4.5254237"
     inkscape:cy="-4.2711864"
     inkscape:window-x="65"
     inkscape:window-y="24"
     inkscape:window-maximized="1"
     inkscape:current-layer="svg2" />
  <path
     style="fill:#4c4c4c;fill-opacity:1"
     inkscape:connector-curvature="0"
     id="path6"
     d="M 16,5.0718 A 8,8 0 0 0 5.072,8 8,8 0 0 0 8,18.928 8,8 0 0 0 18.928,16 8,8 0 0 0 16,5.072 Z m -1,1.7321 a 6,6 0 0 1 2.8736,3.9955 1.5,1.5 0 0 1 0.24007,0.11154 1.5,1.5 0 0 1 0.54904,2.049 1.5,1.5 0 0 1 -0.90187,0.6949 6,6 0 0 1 -0.565,1.345 6,6 0 0 1 -2.793,2.49 1.5,1.5 0 0 1 -0.198,0.691 1.5,1.5 0 0 1 -2.049,0.549 1.5,1.5 0 0 1 -0.647,-0.758 6,6 0 0 1 -2.509,-0.776 6,6 0 0 1 -2.9949,-5.195 1.5,1.5 0 0 1 -0.0517,-0.028 1.5,1.5 0 0 1 -0.5491,-2.0489 1.5,1.5 0 0 1 1.3084,-0.7467 6,6 0 0 1 0.0911,-0.1774 6,6 0 0 1 8.1962,-2.1961 z m -0.5,0.866 A 5,5 0 0 0 7.6699,9.5 5,5 0 0 0 7.6591,9.5186 1.5,1.5 0 0 1 8.2001,10.71 l 3.2736,1.2518 a 1.5,1.5 0 0 1 1.8923,-0.32831 1.5,1.5 0 0 1 0.57176,0.59172 l 1.9534,-0.29752 a 1.5,1.5 0 0 1 0.174,-0.467 1.5,1.5 0 0 1 0.786,-0.66 5,5 0 0 0 -2.351,-3.1301 z m 1.5419,5.2474 -1.9534,0.29751 a 1.5,1.5 0 0 1 -0.17336,0.46824 1.5,1.5 0 0 1 -0.7097,0.62768 l 0.1093,1.6779 a 1.5,1.5 0 0 1 0.34143,0.143 1.5,1.5 0 0 1 0.45027,0.39979 5,5 0 0 0 2.2238,-2.0314 5,5 0 0 0 0.41088,-0.9265 1.5,1.5 0 0 1 -0.12737,-0.06453 1.5,1.5 0 0 1 -0.57176,-0.59172 z m -4.9226,-0.02071 -3.2746,-1.2501 a 1.5,1.5 0 0 1 -0.83824,0.49483 5,5 0 0 0 2.4936,4.1888 5,5 0 0 0 1.9805,0.63602 1.5,1.5 0 0 1 0.12652,-0.28554 1.5,1.5 0 0 1 0.7097,-0.62768 l -0.1093,-1.6779 a 1.5,1.5 0 0 1 -0.34143,-0.143 1.5,1.5 0 0 1 -0.74675,-1.3355 z" />
</svg>
