<?xml version="1.0" encoding="UTF-8" standalone="no"?>
<svg
   xmlns:dc="http://purl.org/dc/elements/1.1/"
   xmlns:cc="http://creativecommons.org/ns#"
   xmlns:rdf="http://www.w3.org/1999/02/22-rdf-syntax-ns#"
   xmlns:svg="http://www.w3.org/2000/svg"
   xmlns="http://www.w3.org/2000/svg"
   xmlns:sodipodi="http://sodipodi.sourceforge.net/DTD/sodipodi-0.dtd"
   xmlns:inkscape="http://www.inkscape.org/namespaces/inkscape"
   height="24"
   width="24"
   version="1.1"
   viewBox="0 0 24 24"
   id="svg2"
   inkscape:version="0.91 r13725"
   sodipodi:docname="si-syncing-5.svg">
  <metadata
     id="metadata12">
    <rdf:RDF>
      <cc:Work
         rdf:about="">
        <dc:format>image/svg+xml</dc:format>
        <dc:type
           rdf:resource="http://purl.org/dc/dcmitype/StillImage" />
      </cc:Work>
    </rdf:RDF>
  </metadata>
  <defs
     id="defs10" />
  <sodipodi:namedview
     pagecolor="#ffffff"
     bordercolor="#666666"
     borderopacity="1"
     objecttolerance="10"
     gridtolerance="10"
     guidetolerance="10"
     inkscape:pageopacity="0"
     inkscape:pageshadow="2"
     inkscape:window-width="1535"
     inkscape:window-height="876"
     id="namedview8"
     showgrid="false"
     inkscape:zoom="9.8333333"
     inkscape:cx="12"
     inkscape:cy="12"
     inkscape:window-x="65"
     inkscape:window-y="24"
     inkscape:window-maximized="1"
     inkscape:current-layer="svg2" />
  <path
     style="fill:#4c4c4c;fill-opacity:1"
     inkscape:connector-curvature="0"
     id="path6"
     d="M 16,18.928 A 8,8 0 0 0 18.928,8 8,8 0 0 0 8,5.0718 a 8,8 0 0 0 -2.9282,10.928 8,8 0 0 0 10.928,2.928 z M 15,17.196 A 6,6 0 0 1 10.103,17.687 1.5,1.5 0 0 1 9.8864,17.839 1.5,1.5 0 0 1 7.8373,17.29 1.5,1.5 0 0 1 7.6865,16.162 6,6 0 0 1 6.8038,15 6,6 0 0 1 6.044,11.336 1.5,1.5 0 0 1 5.5449,10.819 1.5,1.5 0 0 1 6.0939,8.7704 1.5,1.5 0 0 1 7.0735,8.5882 6,6 0 0 1 9,6.8038 a 6,6 0 0 1 5.9969,0.0041 1.5,1.5 0 0 1 0.04975,-0.031031 1.5,1.5 0 0 1 2.049,0.54904 1.5,1.5 0 0 1 -0.0076,1.5064 6,6 0 0 1 0.10809,0.16762 6,6 0 0 1 -2.1962,8.1962 z M 14.5,16.33 A 5,5 0 0 0 16.33,9.5 5,5 0 0 0 16.319,9.4814 1.5,1.5 0 0 1 15.017,9.354 l -2.7209,2.2091 a 1.5,1.5 0 0 1 -0.66182,1.8029 1.5,1.5 0 0 1 -0.79832,0.1993 l -0.71906,1.8405 a 1.5,1.5 0 0 1 0.31883,0.38425 1.5,1.5 0 0 1 0.17796,1.0114 5,5 0 0 0 3.886,-0.472 z M 9.1847,15.042 9.9038,13.201 A 1.5,1.5 0 0 1 9.5849,12.817 1.5,1.5 0 0 1 9.3962,11.889 L 7.8885,11.144 a 1.5,1.5 0 0 1 -0.2946,0.224 1.5,1.5 0 0 1 -0.5714,0.19 5,5 0 0 0 0.6474,2.942 5,5 0 0 0 0.59694,0.81908 1.5,1.5 0 0 1 0.11957,-0.07804 1.5,1.5 0 0 1 0.79832,-0.1993 z m 2.4792,-4.2527 2.7199,-2.2108 A 1.5,1.5 0 0 1 14.3744,7.60515 5,5 0 0 0 9.5,7.67022 5,5 0 0 0 7.9589,9.06742 1.5,1.5 0 0 1 8.14293,9.31976 1.5,1.5 0 0 1 8.33166,10.24822 l 1.5077,0.74428 a 1.5,1.5 0 0 1 0.29456,-0.22418 1.5,1.5 0 0 1 1.53,0.02105 z" />
</svg>
