<?xml version="1.0" encoding="UTF-8" standalone="no"?>
<svg
   xmlns:dc="http://purl.org/dc/elements/1.1/"
   xmlns:cc="http://creativecommons.org/ns#"
   xmlns:rdf="http://www.w3.org/1999/02/22-rdf-syntax-ns#"
   xmlns:svg="http://www.w3.org/2000/svg"
   xmlns="http://www.w3.org/2000/svg"
   xmlns:sodipodi="http://sodipodi.sourceforge.net/DTD/sodipodi-0.dtd"
   xmlns:inkscape="http://www.inkscape.org/namespaces/inkscape"
   height="24"
   width="24"
   version="1.1"
   viewBox="0 0 24 24"
   id="svg2"
   inkscape:version="0.91 r13725"
   sodipodi:docname="si-syncing-6.svg">
  <metadata
     id="metadata12">
    <rdf:RDF>
      <cc:Work
         rdf:about="">
        <dc:format>image/svg+xml</dc:format>
        <dc:type
           rdf:resource="http://purl.org/dc/dcmitype/StillImage" />
      </cc:Work>
    </rdf:RDF>
  </metadata>
  <defs
     id="defs10" />
  <sodipodi:namedview
     pagecolor="#ffffff"
     bordercolor="#666666"
     borderopacity="1"
     objecttolerance="10"
     gridtolerance="10"
     guidetolerance="10"
     inkscape:pageopacity="0"
     inkscape:pageshadow="2"
     inkscape:window-width="1535"
     inkscape:window-height="876"
     id="namedview8"
     showgrid="false"
     inkscape:zoom="9.8333333"
     inkscape:cx="-4.5254237"
     inkscape:cy="12"
     inkscape:window-x="65"
     inkscape:window-y="24"
     inkscape:window-maximized="1"
     inkscape:current-layer="svg2" />
  <path
     style="fill:#4c4c4c;fill-opacity:1"
     inkscape:connector-curvature="0"
     id="path6"
     d="m 12,20 a 8,8 0 0 0 8,-8 8,8 0 0 0 -8,-8 8,8 0 0 0 -8,8 8,8 0 0 0 8,8 z m 0,-2 A 6,6 0 0 1 7.5137,15.977 1.5,1.5 0 0 1 7.25,16 1.5,1.5 0 0 1 5.75,14.5 1.5,1.5 0 0 1 6.1836,13.447 6,6 0 0 1 6,12 6,6 0 0 1 7.1738,8.4473 1.5,1.5 0 0 1 7,7.75 1.5,1.5 0 0 1 8.5,6.25 1.5,1.5 0 0 1 9.4395,6.582 6,6 0 0 1 12,6 6,6 0 0 1 17.1914,9.002 1.5,1.5 0 0 1 17.25,9 a 1.5,1.5 0 0 1 1.5,1.5 1.5,1.5 0 0 1 -0.75978,1.3008 6,6 0 0 1 0.0098,0.19921 6,6 0 0 1 -6,6 z m 0,-1 a 5,5 0 0 0 5,-5 5,5 0 0 0 -3e-6,-0.02148 1.5,1.5 0 0 1 -1.0645,-0.76172 l -3.4609,0.55273 a 1.5,1.5 0 0 1 -1.4746,1.2305 1.5,1.5 0 0 1 -0.79102,-0.22656 l -1.543,1.234 a 1.5,1.5 0 0 1 0.084,0.492 1.5,1.5 0 0 1 -0.3516,0.965 5,5 0 0 0 3.6016,1.535 z M 8.041,13.227 9.584,11.992 A 1.5,1.5 0 0 1 9.5,11.5 1.5,1.5 0 0 1 9.8008,10.602 L 8.8672,9.2031 A 1.5,1.5 0 0 1 8.5,9.25 1.5,1.5 0 0 1 7.9102,9.1289 5,5 0 0 0 7,12 5,5 0 0 0 7.10742,13.0078 1.5,1.5 0 0 1 7.24999,13 1.5,1.5 0 0 1 8.04101,13.22656 Z m 4.2734,-2.4434 3.4609,-0.55469 a 1.5,1.5 0 0 1 0.479,-0.8481 5,5 0 0 0 -4.254,-2.3809 5,5 0 0 0 -2.0332,0.4395 1.5,1.5 0 0 1 0.0332,0.3105 1.5,1.5 0 0 1 -0.3008,0.8985 l 0.93359,1.3984 a 1.5,1.5 0 0 1 0.36719,-0.04687 1.5,1.5 0 0 1 1.3145,0.7832 z" />
</svg>
