<?xml version="1.0" encoding="UTF-8" standalone="no"?>
<svg
   xmlns:dc="http://purl.org/dc/elements/1.1/"
   xmlns:cc="http://creativecommons.org/ns#"
   xmlns:rdf="http://www.w3.org/1999/02/22-rdf-syntax-ns#"
   xmlns:svg="http://www.w3.org/2000/svg"
   xmlns="http://www.w3.org/2000/svg"
   xmlns:sodipodi="http://sodipodi.sourceforge.net/DTD/sodipodi-0.dtd"
   xmlns:inkscape="http://www.inkscape.org/namespaces/inkscape"
   height="24"
   width="24"
   version="1.1"
   viewBox="0 0 6.3499999 6.3500002"
   id="svg2"
   inkscape:version="0.91 r13725"
   sodipodi:docname="state-sync.svg">
  <metadata
     id="metadata12">
    <rdf:RDF>
      <cc:Work
         rdf:about="">
        <dc:format>image/svg+xml</dc:format>
        <dc:type
           rdf:resource="http://purl.org/dc/dcmitype/StillImage" />
      </cc:Work>
    </rdf:RDF>
  </metadata>
  <defs
     id="defs10" />
  <sodipodi:namedview
     pagecolor="#ffffff"
     bordercolor="#666666"
     borderopacity="1"
     objecttolerance="10"
     gridtolerance="10"
     guidetolerance="10"
     inkscape:pageopacity="0"
     inkscape:pageshadow="2"
     inkscape:window-width="1535"
     inkscape:window-height="876"
     id="namedview8"
     showgrid="false"
     inkscape:zoom="9.8333333"
     inkscape:cx="-4.5254237"
     inkscape:cy="12"
     inkscape:window-x="65"
     inkscape:window-y="24"
     inkscape:window-maximized="1"
     inkscape:current-layer="svg2" />
  <path
     style="fill:#4c4c4c;fill-opacity:1"
     inkscape:connector-curvature="0"
     id="path6"
     d="M 3.04267,1.3229 A 1.45519,1.45519 0 0 0 1.58748,2.77809 1.45519,1.45519 0 0 0 1.6443118,3.178135 0.79374,0.79374 0 0 0 1.58748,3.17496 0.79374,0.79374 0 0 0 0.79374,3.9687 0.79374,0.79374 0 0 0 1.58748,4.76244 l 1.3229,0 0,-1.05832 -0.52916,0 0.79374,-1.05832 0.79374,1.05832 -0.52916,0 0,1.05832 1.05832,0 A 1.05832,1.05832 0 0 0 5.55618,3.70412 1.05832,1.05832 0 0 0 4.49786,2.6458 a 1.05832,1.05832 0 0 0 -0.00714,0 A 1.45519,1.45519 0 0 0 3.04267,1.3229 Z" />
</svg>
