<?xml version="1.0" encoding="UTF-8" standalone="no"?>
<svg
   xmlns:dc="http://purl.org/dc/elements/1.1/"
   xmlns:cc="http://creativecommons.org/ns#"
   xmlns:rdf="http://www.w3.org/1999/02/22-rdf-syntax-ns#"
   xmlns:svg="http://www.w3.org/2000/svg"
   xmlns="http://www.w3.org/2000/svg"
   xmlns:sodipodi="http://sodipodi.sourceforge.net/DTD/sodipodi-0.dtd"
   xmlns:inkscape="http://www.inkscape.org/namespaces/inkscape"
   height="24"
   width="24"
   version="1.1"
   viewBox="0 0 24 24"
   id="svg2"
   inkscape:version="0.91 r13725"
   sodipodi:docname="steadyflow-panel.svg">
  <metadata
     id="metadata12">
    <rdf:RDF>
      <cc:Work
         rdf:about="">
        <dc:format>image/svg+xml</dc:format>
        <dc:type
           rdf:resource="http://purl.org/dc/dcmitype/StillImage" />
      </cc:Work>
    </rdf:RDF>
  </metadata>
  <defs
     id="defs10" />
  <sodipodi:namedview
     pagecolor="#ffffff"
     bordercolor="#666666"
     borderopacity="1"
     objecttolerance="10"
     gridtolerance="10"
     guidetolerance="10"
     inkscape:pageopacity="0"
     inkscape:pageshadow="2"
     inkscape:window-width="1535"
     inkscape:window-height="876"
     id="namedview8"
     showgrid="false"
     inkscape:zoom="9.8333333"
     inkscape:cx="-4.5254237"
     inkscape:cy="12"
     inkscape:window-x="65"
     inkscape:window-y="24"
     inkscape:window-maximized="1"
     inkscape:current-layer="svg2" />
  <path
     style="fill:#4c4c4c;fill-opacity:1"
     inkscape:connector-curvature="0"
     id="path6"
     d="M 13.5,5 C 11.9613,5 10.5299,5.7889 9.7051,7.0879 9.47438,7.0309 9.2377,7.0009 9.00002,6.9999 c -1.6569,0 -3,1.3431 -3,3 0.0011,0.4065 0.08486,0.8085 0.24609,1.1816 -1.9218,0.5576 -3.2446,2.3173 -3.2461,4.3184 0,2.4853 2.0147,4.5 4.5,4.5 l 6.4453,0 -3.8145,-4.1621 a 0.50005,0.50005 0 0 1 0.369,-0.8 l 2.5,0 0,-4.5 a 0.50005,0.50005 0 0 1 0.5,-0.5 l 5,0 a 0.50005,0.50005 0 0 1 0.21094,0.047 C 18.48459,9.922 18.24706,9.7722 17.99395,9.6434 c 0.0024,-0.035 0.0043,-0.07 0.0059,-0.1055 0,-2.4853 -2.0147,-4.5 -4.5,-4.5 z m 5.4023,5.2012 A 0.50005,0.50005 0 0 1 18.99996,10.5 l 0,4.5 1.957,0 c 0.01516,-0.1663 0.04297,-0.3297 0.04297,-0.5 -0.0023,-1.6986 -0.79549,-3.2697 -2.0977,-4.2988 z m -4.902,0.8 0,4.5 a 0.50005,0.50005 0 0 1 -0.5,0.5 l -1.8633,0 4.3633,4.7598 4.3633,-4.7598 -1.8633,0 a 0.50005,0.50005 0 0 1 -0.5,-0.5 l 0,-4.5 -4,0 z" />
</svg>
