<?xml version="1.0" encoding="UTF-8" standalone="no"?>
<svg
   xmlns:dc="http://purl.org/dc/elements/1.1/"
   xmlns:cc="http://creativecommons.org/ns#"
   xmlns:rdf="http://www.w3.org/1999/02/22-rdf-syntax-ns#"
   xmlns:svg="http://www.w3.org/2000/svg"
   xmlns="http://www.w3.org/2000/svg"
   xmlns:sodipodi="http://sodipodi.sourceforge.net/DTD/sodipodi-0.dtd"
   xmlns:inkscape="http://www.inkscape.org/namespaces/inkscape"
   height="24"
   width="24"
   version="1.1"
   viewBox="0 0 24 24"
   id="svg2"
   inkscape:version="0.91 r13725"
   sodipodi:docname="stop2.svg">
  <metadata
     id="metadata18">
    <rdf:RDF>
      <cc:Work
         rdf:about="">
        <dc:format>image/svg+xml</dc:format>
        <dc:type
           rdf:resource="http://purl.org/dc/dcmitype/StillImage" />
      </cc:Work>
    </rdf:RDF>
  </metadata>
  <defs
     id="defs16" />
  <sodipodi:namedview
     pagecolor="#ffffff"
     bordercolor="#666666"
     borderopacity="1"
     objecttolerance="10"
     gridtolerance="10"
     guidetolerance="10"
     inkscape:pageopacity="0"
     inkscape:pageshadow="2"
     inkscape:window-width="1535"
     inkscape:window-height="876"
     id="namedview14"
     showgrid="false"
     inkscape:zoom="9.8333333"
     inkscape:cx="-4.5254237"
     inkscape:cy="12"
     inkscape:window-x="65"
     inkscape:window-y="24"
     inkscape:window-maximized="1"
     inkscape:current-layer="svg2" />
  <path
     inkscape:connector-curvature="0"
     id="path6"
     d="m 12,4 c -4.4124,0 -8,3.5877 -8,8 0,4.412 3.5876,8 8,8 4.412,0 8,-3.588 8,-8 0,-1.173 -0.26,-2.2864 -0.715,-3.291 A 3,3 0 0 1 18.311,8.9805 C 18.748,9.895 19,10.917 19,12 c 0,3.872 -3.128,7 -7,7 -3.8719,0 -7,-3.128 -7,-7 0,-3.8719 3.1281,-7 7,-7 1.083,0 2.103,0.2504 3.018,0.6875 A 3,3 0 0 1 15.293,4.7168 C 14.287,4.2603 13.175,4 12,4 Z"
     style="color:#000000;text-indent:0;text-decoration:none;text-decoration-line:none;text-decoration-style:solid;text-decoration-color:#000000;text-transform:none;block-progression:tb;white-space:normal;isolation:auto;mix-blend-mode:normal;solid-color:#000000;fill:#4c4c4c;color-rendering:auto;image-rendering:auto;shape-rendering:auto;fill-opacity:1" />
  <path
     style="fill:#4c4c4c;fill-opacity:1"
     inkscape:connector-curvature="0"
     id="path8"
     d="m 12,6 2.887,5 1.447,-2.5059 A 3,3 0 0 1 15.141,6.8965 6,6 0 0 0 12,6 Z M 10.906,6.1055 A 6,6 0 0 0 6.8047,9.0078 L 12.578,9.002 10.906,6.1055 Z m 6.285,2.9023 -2.888,5.0042 3.338,0.009 A 6,6 0 0 0 18,12 6,6 0 0 0 17.191,9.0078 Z M 9.6875,10.004 6.3477,10.008 A 6,6 0 0 0 6,12 6,6 0 0 0 6.8086,14.992 l 2.8789,-4.988 z m 0.0059,1.994 -0.002,0.002 1.1546,2 2.304,0.008 0,-0.002 -2.304,-0.01 -1.1526,-1.998 z M 9.1133,13.002 7.4434,15.893 A 6,6 0 0 0 12,18 L 9.1133,13.002 Z m 2.3107,2 1.67,2.894 a 6,6 0 0 0 4.084,-2.876 l -5.754,-0.018 z" />
  <path
     style="opacity:0.4;fill:#4c4c4c;fill-opacity:1"
     inkscape:connector-curvature="0"
     id="path10"
     d="m 13.154,10 -2.3105,0 -1.1523,1.9961 1.1543,2 2.3047,0.01 1.1582,-2.0078 -1.1543,-2 z" />
  <path
     inkscape:connector-curvature="0"
     id="path12"
     d="m 20,6 a 2,2 0 0 1 -4,0 2,2 0 1 1 4,0 z"
     style="color:#000000;clip-rule:evenodd;fill:#d33636;image-rendering:optimizeQuality;shape-rendering:geometricPrecision" />
</svg>
