<?xml version="1.0" encoding="UTF-8" standalone="no"?>
<svg
   xmlns:dc="http://purl.org/dc/elements/1.1/"
   xmlns:cc="http://creativecommons.org/ns#"
   xmlns:rdf="http://www.w3.org/1999/02/22-rdf-syntax-ns#"
   xmlns:svg="http://www.w3.org/2000/svg"
   xmlns="http://www.w3.org/2000/svg"
   xmlns:sodipodi="http://sodipodi.sourceforge.net/DTD/sodipodi-0.dtd"
   xmlns:inkscape="http://www.inkscape.org/namespaces/inkscape"
   height="24"
   width="24"
   version="1.1"
   viewBox="0 0 24 24"
   id="svg2"
   inkscape:version="0.91 r13725"
   sodipodi:docname="synapse-panel.svg">
  <metadata
     id="metadata12">
    <rdf:RDF>
      <cc:Work
         rdf:about="">
        <dc:format>image/svg+xml</dc:format>
        <dc:type
           rdf:resource="http://purl.org/dc/dcmitype/StillImage" />
      </cc:Work>
    </rdf:RDF>
  </metadata>
  <defs
     id="defs10" />
  <sodipodi:namedview
     pagecolor="#ffffff"
     bordercolor="#666666"
     borderopacity="1"
     objecttolerance="10"
     gridtolerance="10"
     guidetolerance="10"
     inkscape:pageopacity="0"
     inkscape:pageshadow="2"
     inkscape:window-width="1535"
     inkscape:window-height="876"
     id="namedview8"
     showgrid="false"
     inkscape:zoom="9.8333333"
     inkscape:cx="-4.5254237"
     inkscape:cy="12"
     inkscape:window-x="65"
     inkscape:window-y="24"
     inkscape:window-maximized="1"
     inkscape:current-layer="svg2" />
  <path
     inkscape:connector-curvature="0"
     id="path6"
     d="m 11,3 0,1.0703 C 7.7341,4.4819 5.079,6.8738 4.2676,10 l 2.082,0 C 7.16874,7.6658 9.3776,6 12,6 c 2.6224,0 4.8312,1.6658 5.6504,4 l 2.082,0 c -0.812,-3.2 -3.467,-5.6 -6.733,-6 l 0,-1.0703 -2,0 z m 1,4 c -2.7496,0 -5,2.2504 -5,5 0,0.3424 0.03516,0.6765 0.10156,1 l 2.0801,0 0.81836,0 4.8184,0 c -0.40954,1.1671 -1.5033,2 -2.8184,2 -0.89227,0 -1.6768,-0.3889 -2.2207,-1 l -2.3535,0 c 0.77607,1.7604 2.5356,3 4.5742,3 2.7496,0 5,-2.2504 5,-5 0,-0.3424 -0.03516,-0.6765 -0.10156,-1 L 14.81836,11 14,11 9.1816,11 C 9.59065,9.8319 10.6843,9 12,9 c 0.89272,0 1.6769,0.3889 2.2207,1 l 2.3535,0 C 15.79813,8.2396 14.0386,7 12,7 Z M 4.2695,14 C 5.08123,17.1257 7.7348,19.5179 11,19.9297 L 11,21 l 2,0 0,-1.0703 C 16.2652,19.5179 18.9187,17.1257 19.7305,14 l -2.0801,0 C 16.83076,16.3337 14.6218,18 12,18 9.3782,18 7.1693,16.3337 6.3496,14 l -2.0801,0 z"
     style="color:#000000;text-indent:0;text-decoration:none;text-decoration-line:none;text-decoration-style:solid;text-decoration-color:#000000;text-transform:none;block-progression:tb;white-space:normal;isolation:auto;mix-blend-mode:normal;solid-color:#000000;fill:#4c4c4c;color-rendering:auto;image-rendering:auto;shape-rendering:auto;fill-opacity:1" />
</svg>
