<?xml version="1.0" encoding="UTF-8" standalone="no"?>
<svg
   xmlns:dc="http://purl.org/dc/elements/1.1/"
   xmlns:cc="http://creativecommons.org/ns#"
   xmlns:rdf="http://www.w3.org/1999/02/22-rdf-syntax-ns#"
   xmlns:svg="http://www.w3.org/2000/svg"
   xmlns="http://www.w3.org/2000/svg"
   xmlns:sodipodi="http://sodipodi.sourceforge.net/DTD/sodipodi-0.dtd"
   xmlns:inkscape="http://www.inkscape.org/namespaces/inkscape"
   height="24"
   width="24"
   version="1.1"
   viewBox="0 0 24 24"
   id="svg2"
   inkscape:version="0.91 r13725"
   sodipodi:docname="system-file-manager-panel.svg">
  <metadata
     id="metadata12">
    <rdf:RDF>
      <cc:Work
         rdf:about="">
        <dc:format>image/svg+xml</dc:format>
        <dc:type
           rdf:resource="http://purl.org/dc/dcmitype/StillImage" />
      </cc:Work>
    </rdf:RDF>
  </metadata>
  <defs
     id="defs10" />
  <sodipodi:namedview
     pagecolor="#ffffff"
     bordercolor="#666666"
     borderopacity="1"
     objecttolerance="10"
     gridtolerance="10"
     guidetolerance="10"
     inkscape:pageopacity="0"
     inkscape:pageshadow="2"
     inkscape:window-width="1535"
     inkscape:window-height="876"
     id="namedview8"
     showgrid="false"
     inkscape:zoom="9.8333333"
     inkscape:cx="-4.5254237"
     inkscape:cy="12"
     inkscape:window-x="65"
     inkscape:window-y="24"
     inkscape:window-maximized="1"
     inkscape:current-layer="svg2" />
  <path
     style="opacity:0.98999999;fill:#4c4c4c;fill-opacity:1"
     inkscape:connector-curvature="0"
     id="path6"
     d="M 6,4 C 5.446,4 5,4.446 5,5 4.446,5 4,5.446 4,6 L 4,7 C 3.446,7 3,7.446 3,8 l 0,1 0,1 0,8 c 0,1.108 0.892,2 2,2 l 14,0 c 1.108,0 2,-0.892 2,-2 l 0,-8 0,-1 0,-1 C 21,7.446 20.554,7 20,7 L 20,6 C 20,5.446 19.554,5 19,5 L 15,5 14,5 13,5 C 13,4.446 12.554,4 12,4 L 6,4 Z m 0,1 6,0 0,1 1,0 2,0 4,0 0,1 L 5,7 5,6 6,6 6,5 Z m 6,3.9395 2,1.9995 0,-0.939 1,0 0,1.939 1.531,1.532 -1.062,1.06 L 15,14.062 15,17 l -2,0 0,-3 -2,0 0,3 L 9,17 9,14.062 8.5312,14.531 7.4688,13.471 12,8.9395 Z" />
</svg>
