<?xml version="1.0" encoding="UTF-8" standalone="no"?>
<svg
   xmlns:dc="http://purl.org/dc/elements/1.1/"
   xmlns:cc="http://creativecommons.org/ns#"
   xmlns:rdf="http://www.w3.org/1999/02/22-rdf-syntax-ns#"
   xmlns:svg="http://www.w3.org/2000/svg"
   xmlns="http://www.w3.org/2000/svg"
   xmlns:sodipodi="http://sodipodi.sourceforge.net/DTD/sodipodi-0.dtd"
   xmlns:inkscape="http://www.inkscape.org/namespaces/inkscape"
   height="24"
   width="24"
   version="1.1"
   viewBox="0 0 24 24"
   id="svg2"
   inkscape:version="0.91 r13725"
   sodipodi:docname="todo-indicator.svg">
  <metadata
     id="metadata12">
    <rdf:RDF>
      <cc:Work
         rdf:about="">
        <dc:format>image/svg+xml</dc:format>
        <dc:type
           rdf:resource="http://purl.org/dc/dcmitype/StillImage" />
      </cc:Work>
    </rdf:RDF>
  </metadata>
  <defs
     id="defs10" />
  <sodipodi:namedview
     pagecolor="#ffffff"
     bordercolor="#666666"
     borderopacity="1"
     objecttolerance="10"
     gridtolerance="10"
     guidetolerance="10"
     inkscape:pageopacity="0"
     inkscape:pageshadow="2"
     inkscape:window-width="1535"
     inkscape:window-height="876"
     id="namedview8"
     showgrid="false"
     inkscape:zoom="9.8333333"
     inkscape:cx="-4.5254237"
     inkscape:cy="12"
     inkscape:window-x="65"
     inkscape:window-y="24"
     inkscape:window-maximized="1"
     inkscape:current-layer="svg2" />
  <path
     style="fill:#4c4c4c;fill-opacity:1"
     inkscape:connector-curvature="0"
     id="path6"
     d="M 18.121,4.0078 C 17.988,3.996 17.854,3.997 17.719,4.0137 l -11.709,0 C 4.8482,3.9757 3.8764,5.0956 4.0117,6.2363 c 0.0068,3.9857 -0.0122,7.9717 0.0117,11.957 0.0799,1.104 1.1788,1.927 2.2578,1.793 3.9708,-0.01 7.9418,0.015 11.912,-0.009 1.104,-0.08 1.927,-1.179 1.793,-2.258 -0.006,-3.971 0.013,-7.9422 -0.011,-11.912 -0.07,-0.9664 -0.92,-1.7162 -1.854,-1.7992 z m -1.547,2.9981 c 1.13,0.0246 1.823,1.3845 1.18,2.3105 -1.803,2.3176 -3.624,4.6226 -5.434,6.9356 -0.428,0.72 -1.458,0.992 -2.154,0.492 C 9.2587,16.004 8.3747,15.234 7.4766,14.482 6.888,13.928 5.9934,13.488 6.002,12.561 c -0.0653,-1.108 1.2952,-1.91 2.2343,-1.317 0.8779,0.669 1.6942,1.419 2.5467,2.121 1.37,-1.746 2.738,-3.492 4.108,-5.238 0.406,-0.5584 0.907,-1.1961 1.683,-1.1211 z" />
</svg>
