<?xml version="1.0" encoding="UTF-8" standalone="no"?>
<svg
   xmlns:dc="http://purl.org/dc/elements/1.1/"
   xmlns:cc="http://creativecommons.org/ns#"
   xmlns:rdf="http://www.w3.org/1999/02/22-rdf-syntax-ns#"
   xmlns:svg="http://www.w3.org/2000/svg"
   xmlns="http://www.w3.org/2000/svg"
   xmlns:sodipodi="http://sodipodi.sourceforge.net/DTD/sodipodi-0.dtd"
   xmlns:inkscape="http://www.inkscape.org/namespaces/inkscape"
   height="24"
   width="24"
   version="1.1"
   id="svg2"
   inkscape:version="0.91 r13725"
   sodipodi:docname="transmission-tray-icon.svg">
  <metadata
     id="metadata10">
    <rdf:RDF>
      <cc:Work
         rdf:about="">
        <dc:format>image/svg+xml</dc:format>
        <dc:type
           rdf:resource="http://purl.org/dc/dcmitype/StillImage" />
      </cc:Work>
    </rdf:RDF>
  </metadata>
  <defs
     id="defs8" />
  <sodipodi:namedview
     pagecolor="#ffffff"
     bordercolor="#666666"
     borderopacity="1"
     objecttolerance="10"
     gridtolerance="10"
     guidetolerance="10"
     inkscape:pageopacity="0"
     inkscape:pageshadow="2"
     inkscape:window-width="1535"
     inkscape:window-height="876"
     id="namedview6"
     showgrid="false"
     inkscape:zoom="9.8333333"
     inkscape:cx="-4.5254237"
     inkscape:cy="12"
     inkscape:window-x="65"
     inkscape:window-y="24"
     inkscape:window-maximized="1"
     inkscape:current-layer="svg2" />
  <path
     d="m6 4c-0.554 0-1 0.446-1 1s0.446 1 1 1h5v2h2v-2h5c0.554 0 1-0.446 1-1s-0.446-1-1-1h-12zm7 4v1h3c0.56716 2.394 1.1939 4.9052 1.7188 7h-11.438c0.637-2.309 1.117-4.704 1.719-7h3v-1h-4c-0.4592-0.0002-0.8595 0.3123-0.9707 0.7578l-2 8c-0.0196 0.079-0.0295 0.16-0.0293 0.242v1 1c0 0.554 0.446 1 1 1h1 12 1c0.554 0 1-0.446 1-1v-1-1c0.000154-0.08162-0.0097-0.16296-0.0293-0.24219l-2-8c-0.112-0.4457-0.512-0.7582-0.971-0.758h-4zm-2 1v1 1h-2l3 4 3-4h-2v-1-1h-2z"
     fill="#fff"
     id="path4"
     style="fill:#4c4c4c;fill-opacity:1" />
</svg>
