<?xml version="1.0" encoding="UTF-8" standalone="no"?>
<svg
   xmlns:dc="http://purl.org/dc/elements/1.1/"
   xmlns:cc="http://creativecommons.org/ns#"
   xmlns:rdf="http://www.w3.org/1999/02/22-rdf-syntax-ns#"
   xmlns:svg="http://www.w3.org/2000/svg"
   xmlns="http://www.w3.org/2000/svg"
   xmlns:sodipodi="http://sodipodi.sourceforge.net/DTD/sodipodi-0.dtd"
   xmlns:inkscape="http://www.inkscape.org/namespaces/inkscape"
   height="24"
   width="24"
   version="1.1"
   viewBox="0 0 24 24"
   id="svg2"
   inkscape:version="0.91 r13725"
   sodipodi:docname="viber-notification.svg">
  <metadata
     id="metadata14">
    <rdf:RDF>
      <cc:Work
         rdf:about="">
        <dc:format>image/svg+xml</dc:format>
        <dc:type
           rdf:resource="http://purl.org/dc/dcmitype/StillImage" />
      </cc:Work>
    </rdf:RDF>
  </metadata>
  <defs
     id="defs12" />
  <sodipodi:namedview
     pagecolor="#ffffff"
     bordercolor="#666666"
     borderopacity="1"
     objecttolerance="10"
     gridtolerance="10"
     guidetolerance="10"
     inkscape:pageopacity="0"
     inkscape:pageshadow="2"
     inkscape:window-width="1535"
     inkscape:window-height="876"
     id="namedview10"
     showgrid="false"
     inkscape:zoom="9.8333333"
     inkscape:cx="-4.5254237"
     inkscape:cy="12"
     inkscape:window-x="65"
     inkscape:window-y="24"
     inkscape:window-maximized="1"
     inkscape:current-layer="svg2" />
  <path
     style="fill:#4c4c4c;fill-opacity:1"
     inkscape:connector-curvature="0"
     id="path6"
     d="M 10,4 C 6.676,4 4,6.676 4,10 l 0,2 c 0,2.229 1.2055,4.16 3,5.195 l 0,2.303 a 0.50005,0.50005 0 0 0 0.8535,0.356 L 9.7207,17.986 C 9.8139,17.991 9.9057,18 10,18 l 4,0 c 3.324,0 6,-2.676 6,-6 l 0,-2 C 20,9.8219 19.988,9.6467 19.973,9.4727 A 4,4 0 0 1 18,10 4,4 0 0 1 16.992,9.8652 C 16.994,9.9104 17,9.9546 17,10 a 0.50005,0.50005 0 1 1 -1,0 C 16,9.801 15.966,9.6073 15.928,9.416 A 4,4 0 0 1 14.213,7.2734 C 13.51,6.9607 12.712,6.9132 11.975,7.1816 A 0.50021,0.50021 0 1 1 11.631,6.2422 C 12.091,6.075 12.57,5.9943 13.047,6 c 0.159,0 0.317,0.0142 0.474,0.0352 0.163,0.0214 0.324,0.0543 0.483,0.0957 A 4,4 0 0 1 14,6 4,4 0 0 1 14.523,4.0273 C 14.351,4.0125 14.177,4 14,4 L 10,4 Z M 9.0352,7.8457 c 0.2949,0.018 0.5663,0.1654 0.7402,0.4004 0.0772,0.1044 0.1353,0.2267 0.168,0.3613 L 10.18,9.5781 C 10.31,10.117 9.9818,10.657 9.4434,10.787 l -0.752,0.182 c 0.8691,1.411 2.0106,2.486 3.3476,3.312 l 0.174,-0.724 c 0.13,-0.539 0.67,-0.867 1.209,-0.737 l 0.971,0.237 c 0.538,0.13 0.866,0.67 0.736,1.209 l -0.236,0.97 c -0.131,0.539 -0.669,0.865 -1.207,0.735 -0.432,-0.105 -0.828,-0.207 -1.254,-0.364 -2.39,-0.851 -4.2934,-2.8 -5.059,-5.08 C 7.2564,10.155 7.1301,9.8137 7.0293,9.3145 6.8987,8.7761 7.2253,8.238 7.7637,8.1074 L 8.7363,7.873 C 8.8373,7.849 8.9368,7.8397 9.0352,7.8457 Z m 4.1078,0.1563 0,0.0039 c 0.355,0.026 0.703,0.147 1.003,0.3574 C 14.681,8.7373 15,9.348 15,10 a 0.50005,0.50005 0 1 1 -1,0 C 14,9.6732 13.842,9.369 13.574,9.1816 13.307,8.9945 12.965,8.9487 12.658,9.0605 A 0.50005,0.50005 0 1 1 12.316,8.1211 C 12.47,8.0651 12.627,8.029 12.785,8.0117 12.904,7.9987 13.024,7.997 13.143,8.002 Z" />
  <path
     inkscape:connector-curvature="0"
     id="path8"
     d="m 20,6 a 2,2 0 0 1 -4,0 2,2 0 1 1 4,0 z"
     style="color:#000000;clip-rule:evenodd;fill:#009dff;image-rendering:optimizeQuality;shape-rendering:geometricPrecision" />
</svg>
