<?xml version="1.0" encoding="UTF-8" standalone="no"?>
<svg
   xmlns:dc="http://purl.org/dc/elements/1.1/"
   xmlns:cc="http://creativecommons.org/ns#"
   xmlns:rdf="http://www.w3.org/1999/02/22-rdf-syntax-ns#"
   xmlns:svg="http://www.w3.org/2000/svg"
   xmlns="http://www.w3.org/2000/svg"
   xmlns:sodipodi="http://sodipodi.sourceforge.net/DTD/sodipodi-0.dtd"
   xmlns:inkscape="http://www.inkscape.org/namespaces/inkscape"
   height="24"
   width="24"
   version="1.1"
   viewBox="0 0 24 24"
   id="svg2"
   inkscape:version="0.91 r13725"
   sodipodi:docname="window-list.svg">
  <metadata
     id="metadata14">
    <rdf:RDF>
      <cc:Work
         rdf:about="">
        <dc:format>image/svg+xml</dc:format>
        <dc:type
           rdf:resource="http://purl.org/dc/dcmitype/StillImage" />
      </cc:Work>
    </rdf:RDF>
  </metadata>
  <defs
     id="defs12" />
  <sodipodi:namedview
     pagecolor="#ffffff"
     bordercolor="#666666"
     borderopacity="1"
     objecttolerance="10"
     gridtolerance="10"
     guidetolerance="10"
     inkscape:pageopacity="0"
     inkscape:pageshadow="2"
     inkscape:window-width="1535"
     inkscape:window-height="876"
     id="namedview10"
     showgrid="false"
     inkscape:zoom="9.8333333"
     inkscape:cx="12"
     inkscape:cy="12"
     inkscape:window-x="65"
     inkscape:window-y="24"
     inkscape:window-maximized="1"
     inkscape:current-layer="svg2" />
  <path
     style="fill:#4c4c4c;fill-opacity:1"
     inkscape:connector-curvature="0"
     id="path6"
     d="M 8.5,4 C 7.669,4 7,4.669 7,5.5 L 7,9 15.5,9 c 1.3677,0 2.5,1.1323 2.5,2.5 l 0,2.5 0.5,0 c 0.831,0 1.5,-0.669 1.5,-1.5 l 0,-7 C 20,4.669 19.331,4 18.5,4 L 8.5,4 Z M 9,5 18,5 c 0.554,0 1,0.446 1,1 l 0,1 c 0,0.554 -0.446,1 -1,1 L 9,8 C 8.446,8 8,7.554 8,7 L 8,6 C 8,5.446 8.446,5 9,5 Z m 4.5,1 A 0.5,0.5 0 0 0 13,6.5 0.5,0.5 0 0 0 13.5,7 0.5,0.5 0 0 0 14,6.5 0.5,0.5 0 0 0 13.5,6 Z m 2,0 A 0.5,0.5 0 0 0 15,6.5 0.5,0.5 0 0 0 15.5,7 0.5,0.5 0 0 0 16,6.5 0.5,0.5 0 0 0 15.5,6 Z m 2,0 A 0.5,0.5 0 0 0 17,6.5 0.5,0.5 0 0 0 17.5,7 0.5,0.5 0 0 0 18,6.5 0.5,0.5 0 0 0 17.5,6 Z" />
  <path
     style="fill:#4c4c4c;fill-opacity:1"
     inkscape:connector-curvature="0"
     id="path8"
     d="M 5.5,10 C 4.669,10 4,10.669 4,11.5 l 0,7 C 4,19.331 4.669,20 5.5,20 l 10,0 c 0.831,0 1.5,-0.669 1.5,-1.5 l 0,-7 C 17,10.669 16.331,10 15.5,10 l -10,0 z m 0.5,1 9,0 c 0.554,0 1,0.446 1,1 l 0,1 c 0,0.554 -0.446,1 -1,1 L 6,14 C 5.446,14 5,13.554 5,13 l 0,-1 c 0,-0.554 0.446,-1 1,-1 z m 4.5,1 A 0.5,0.5 0 0 0 10,12.5 0.5,0.5 0 0 0 10.5,13 0.5,0.5 0 0 0 11,12.5 0.5,0.5 0 0 0 10.5,12 Z m 2,0 A 0.5,0.5 0 0 0 12,12.5 0.5,0.5 0 0 0 12.5,13 0.5,0.5 0 0 0 13,12.5 0.5,0.5 0 0 0 12.5,12 Z m 2,0 A 0.5,0.5 0 0 0 14,12.5 0.5,0.5 0 0 0 14.5,13 0.5,0.5 0 0 0 15,12.5 0.5,0.5 0 0 0 14.5,12 Z" />
</svg>
