<?xml version="1.0" encoding="UTF-8" standalone="no"?>
<svg
   xmlns:dc="http://purl.org/dc/elements/1.1/"
   xmlns:cc="http://creativecommons.org/ns#"
   xmlns:rdf="http://www.w3.org/1999/02/22-rdf-syntax-ns#"
   xmlns:svg="http://www.w3.org/2000/svg"
   xmlns="http://www.w3.org/2000/svg"
   xmlns:sodipodi="http://sodipodi.sourceforge.net/DTD/sodipodi-0.dtd"
   xmlns:inkscape="http://www.inkscape.org/namespaces/inkscape"
   height="24"
   width="24"
   version="1.1"
   viewBox="0 0 24 24"
   id="svg2"
   inkscape:version="0.91 r13725"
   sodipodi:docname="y-ppa-indicator-panel.svg">
  <metadata
     id="metadata16">
    <rdf:RDF>
      <cc:Work
         rdf:about="">
        <dc:format>image/svg+xml</dc:format>
        <dc:type
           rdf:resource="http://purl.org/dc/dcmitype/StillImage" />
      </cc:Work>
    </rdf:RDF>
  </metadata>
  <defs
     id="defs14" />
  <sodipodi:namedview
     pagecolor="#ffffff"
     bordercolor="#666666"
     borderopacity="1"
     objecttolerance="10"
     gridtolerance="10"
     guidetolerance="10"
     inkscape:pageopacity="0"
     inkscape:pageshadow="2"
     inkscape:window-width="1535"
     inkscape:window-height="876"
     id="namedview12"
     showgrid="false"
     inkscape:zoom="9.8333333"
     inkscape:cx="-4.5254237"
     inkscape:cy="12"
     inkscape:window-x="65"
     inkscape:window-y="24"
     inkscape:window-maximized="1"
     inkscape:current-layer="svg2" />
  <path
     style="fill:#4c4c4c;fill-opacity:1"
     inkscape:connector-curvature="0"
     id="path6"
     d="m 4,10 0,8 0,1 c 0,0.554 0.446,1 1,1 l 1,0 12,0 1,0 c 0.554,0 1,-0.446 1,-1 l 0,-1 0,-8 -4,0 -2,0 -4,0 -2,0 -4,0 z" />
  <path
     style="fill:#4c4c4c;fill-rule:evenodd;fill-opacity:1"
     inkscape:connector-curvature="0"
     id="path8"
     d="M 7,6 4,9 7,9 9.4375,9 11.605,9 C 10.92,8.718 10.237,8.38 9.5586,7.9258 A 1.0001,1.0001 0 0 1 9.4688,7.8691 1.0001,1.0001 0 0 1 9.4082,7.8242 1.0001,1.0001 0 0 1 9.207,7.6074 1.0001,1.0001 0 0 1 9.1543,7.5215 1.0001,1.0001 0 0 1 9.1113,7.4316 1.0001,1.0001 0 0 1 9.082,7.3535 1.0001,1.0001 0 0 1 9.0742,7.3281 1.0001,1.0001 0 0 1 9.0605,7.2793 1.0001,1.0001 0 0 1 9.0488,7.2324 1.0001,1.0001 0 0 1 9.041,7.168 1.0001,1.0001 0 0 1 9.0371,7.1328 1.0001,1.0001 0 0 1 9.0312,7.043 L 9.0312,6 8,6 7,6 Z" />
  <path
     style="fill:#4c4c4c;fill-rule:evenodd;fill-opacity:1"
     inkscape:connector-curvature="0"
     id="path10"
     d="M 20,9 C 16.6626,9.062 13.2913,9.2673 10.0316,7.0428 l 0,-3 C 12.44,5.7378 14.7596,6.2352 17,6 Z" />
</svg>
