<?xml version="1.0" encoding="UTF-8" standalone="no"?>
<!-- Created with Inkscape (http://www.inkscape.org/) -->

<svg
   xmlns:dc="http://purl.org/dc/elements/1.1/"
   xmlns:cc="http://creativecommons.org/ns#"
   xmlns:rdf="http://www.w3.org/1999/02/22-rdf-syntax-ns#"
   xmlns:svg="http://www.w3.org/2000/svg"
   xmlns="http://www.w3.org/2000/svg"
   xmlns:sodipodi="http://sodipodi.sourceforge.net/DTD/sodipodi-0.dtd"
   xmlns:inkscape="http://www.inkscape.org/namespaces/inkscape"
   width="22"
   height="22"
   id="svg2"
   version="1.1"
   inkscape:version="0.91 r"
   sodipodi:docname="pomodoro-indicator-light-31.svg">
  <defs
     id="defs4" />
  <sodipodi:namedview
     id="base"
     pagecolor="#ffffff"
     bordercolor="#666666"
     borderopacity="1.0"
     inkscape:pageopacity="0.0"
     inkscape:pageshadow="2"
     inkscape:zoom="23.681818"
     inkscape:cx="3.3992322"
     inkscape:cy="14.378119"
     inkscape:document-units="px"
     inkscape:current-layer="layer1"
     showgrid="false"
     inkscape:window-width="960"
     inkscape:window-height="844"
     inkscape:window-x="638"
     inkscape:window-y="30"
     inkscape:window-maximized="0" />
  <metadata
     id="metadata7">
    <rdf:RDF>
      <cc:Work
         rdf:about="">
        <dc:format>image/svg+xml</dc:format>
        <dc:type
           rdf:resource="http://purl.org/dc/dcmitype/StillImage" />
        <dc:title />
      </cc:Work>
    </rdf:RDF>
  </metadata>
  <g
     inkscape:label="Capa 1"
     inkscape:groupmode="layer"
     id="layer1"
     transform="translate(0,-1030.3622)">
    <path
       style="fill:#ffffff;fill-opacity:1;stroke:none"
       d="m 11.000002,1034.3622 c -1.6548007,0 -3.1768127,0.5712 -4.3750025,1.5313 l -1.4097219,-1.4097 -1.0937497,1.0937 1.4097219,1.4097 c -0.960042,1.1982 -1.5312497,2.7202 -1.5312497,4.375 0,3.866 3.1340004,7 7.0000019,7 3.86599,0 6.999998,-3.134 6.999998,-7 0,-1.6548 -0.571215,-3.1768 -1.531249,-4.375 l 1.409721,-1.4097 -1.093749,-1.0937 -1.409722,1.4097 c -1.198198,-0.9601 -2.7202,-1.5313 -4.374999,-1.5313 z m 0,1.5556 c 3.006888,0 5.444443,2.4375 5.444443,5.4444 0,3.0069 -2.437555,5.4444 -5.444443,5.4444 -3.0068838,0 -5.4444466,-2.4375 -5.4444466,-5.4444 0,-0.1634 0.010189,-0.3263 0.024267,-0.4861 0.00233,-0.024 -0.00233,-0.049 0,-0.073 0.0119,-0.1172 0.053744,-0.2255 0.072878,-0.3403 0.00817,-0.049 0.014856,-0.098 0.024267,-0.1458 0.00793,-0.041 0.015478,-0.082 0.024267,-0.1216 0.023644,-0.1073 0.043011,-0.2112 0.072878,-0.3159 0.037411,-0.1326 0.074589,-0.2607 0.1215278,-0.3889 0.030255,-0.082 0.063155,-0.1634 0.097222,-0.2431 0.026756,-0.063 0.043867,-0.1324 0.072878,-0.1944 0.030878,-0.065 0.063856,-0.1308 0.097222,-0.1945 0.035545,-0.068 0.083183,-0.1275 0.1215278,-0.1944 0.021778,-0.037 0.025978,-0.084 0.048611,-0.1216 0.052422,-0.087 0.1130889,-0.1597 0.1701388,-0.243 0.058567,-0.085 0.1312345,-0.1614 0.1944444,-0.2431 0.0427,-0.055 0.076767,-0.1165 0.1215278,-0.1701 0.9987131,-1.1951 2.5012962,-1.9688 4.180558,-1.9688 z m 0,0.7777 c -1.4374274,0 -2.7168716,0.6552 -3.5729193,1.6772 l 3.5729193,2.9895 0,-4.6667 z"
       id="path5664"
       inkscape:connector-curvature="0" />
  </g>
</svg>
