<?xml version="1.0" encoding="UTF-8" standalone="no"?>
<!-- Created with Inkscape (http://www.inkscape.org/) -->

<svg
   xmlns:dc="http://purl.org/dc/elements/1.1/"
   xmlns:cc="http://creativecommons.org/ns#"
   xmlns:rdf="http://www.w3.org/1999/02/22-rdf-syntax-ns#"
   xmlns:svg="http://www.w3.org/2000/svg"
   xmlns="http://www.w3.org/2000/svg"
   xmlns:sodipodi="http://sodipodi.sourceforge.net/DTD/sodipodi-0.dtd"
   xmlns:inkscape="http://www.inkscape.org/namespaces/inkscape"
   width="22"
   height="22"
   id="svg2"
   version="1.1"
   inkscape:version="0.91 r"
   sodipodi:docname="pomodoro-indicator-light-15.svg">
  <defs
     id="defs4" />
  <sodipodi:namedview
     id="base"
     pagecolor="#ffffff"
     bordercolor="#666666"
     borderopacity="1.0"
     inkscape:pageopacity="0.0"
     inkscape:pageshadow="2"
     inkscape:zoom="23.681818"
     inkscape:cx="3.3992322"
     inkscape:cy="14.378119"
     inkscape:document-units="px"
     inkscape:current-layer="layer1"
     showgrid="false"
     inkscape:window-width="960"
     inkscape:window-height="844"
     inkscape:window-x="638"
     inkscape:window-y="30"
     inkscape:window-maximized="0" />
  <metadata
     id="metadata7">
    <rdf:RDF>
      <cc:Work
         rdf:about="">
        <dc:format>image/svg+xml</dc:format>
        <dc:type
           rdf:resource="http://purl.org/dc/dcmitype/StillImage" />
        <dc:title />
      </cc:Work>
    </rdf:RDF>
  </metadata>
  <g
     inkscape:label="Capa 1"
     inkscape:groupmode="layer"
     id="layer1"
     transform="translate(0,-1030.3622)">
    <path
       style="fill:#ffffff;fill-opacity:1;stroke:none"
       d="m 11,1034.3622 c -1.6548,0 -3.1768046,0.5711 -4.375,1.5312 l -1.4097222,-1.4097 -1.09375,1.0938 1.4097222,1.4097 C 4.5712132,1038.1854 4,1039.7074 4,1041.3622 c 0,3.866 3.1340073,7 7,7 3.865993,0 7,-3.134 7,-7 0,-1.6548 -0.571213,-3.1768 -1.53125,-4.375 l 1.409722,-1.4097 -1.09375,-1.0938 -1.409722,1.4097 c -1.198195,-0.9601 -2.7202,-1.5312 -4.375,-1.5312 z m 0,1.5556 c 3.006883,0 5.444444,2.4375 5.444444,5.4444 0,0.1879 -0.0058,0.376 -0.02431,0.559 -0.0064,0.064 -0.01573,0.1315 -0.02431,0.1944 -0.01604,0.1159 -0.04971,0.2269 -0.07292,0.3403 -0.02497,0.1227 -0.03985,0.245 -0.07292,0.3646 -0.01538,0.056 -0.03152,0.1152 -0.04861,0.1701 -0.03111,0.1 -0.08492,0.1946 -0.121528,0.2917 -0.02487,0.066 -0.0456,0.1299 -0.07292,0.1944 -0.0029,0.01 0.003,0.017 0,0.024 -0.03122,0.073 -0.06295,0.1474 -0.09722,0.2187 -0.06746,0.1408 -0.13984,0.2793 -0.21875,0.4132 -0.05518,0.093 -0.109675,0.1779 -0.170139,0.2673 -0.07001,0.104 -0.141912,0.193 -0.21875,0.2917 -0.03204,0.041 -0.06403,0.081 -0.09722,0.1216 -0.02886,0.035 -0.06752,0.063 -0.09722,0.097 -0.08475,0.098 -0.175954,0.2002 -0.267361,0.2916 -0.109091,0.1089 -0.222305,0.2166 -0.340278,0.316 -0.01715,0.015 -0.03128,0.034 -0.04861,0.048 -0.0485,0.04 -0.09595,0.083 -0.145833,0.1216 -0.08789,0.068 -0.175345,0.1322 -0.267362,0.1944 -0.09342,0.063 -0.194249,0.1129 -0.291666,0.1701 -0.0098,0.01 -0.01441,0.019 -0.02431,0.024 -0.800764,0.4632 -1.730626,0.7292 -2.722222,0.7292 -3.0068834,0 -5.4444444,-2.4376 -5.4444444,-5.4445 0,-3.0068 2.437561,-5.4444 5.4444444,-5.4444 z m 0,0.7777 c -2.5773292,0 -4.6666667,2.0894 -4.6666667,4.6667 0,2.5773 2.0893375,4.6667 4.6666667,4.6667 0.850023,0 1.646918,-0.2349 2.333333,-0.632 L 11,1041.3622 l 0,-4.6667 z"
       id="path5584"
       inkscape:connector-curvature="0" />
  </g>
</svg>
