<?xml version="1.0" encoding="UTF-8" standalone="no"?>
<!-- Created with Inkscape (http://www.inkscape.org/) -->

<svg
   xmlns:dc="http://purl.org/dc/elements/1.1/"
   xmlns:cc="http://creativecommons.org/ns#"
   xmlns:rdf="http://www.w3.org/1999/02/22-rdf-syntax-ns#"
   xmlns:svg="http://www.w3.org/2000/svg"
   xmlns="http://www.w3.org/2000/svg"
   xmlns:sodipodi="http://sodipodi.sourceforge.net/DTD/sodipodi-0.dtd"
   xmlns:inkscape="http://www.inkscape.org/namespaces/inkscape"
   width="22"
   height="22"
   id="svg2"
   version="1.1"
   inkscape:version="0.91 r"
   sodipodi:docname="pomodoro-indicator-light-19.svg">
  <defs
     id="defs4" />
  <sodipodi:namedview
     id="base"
     pagecolor="#ffffff"
     bordercolor="#666666"
     borderopacity="1.0"
     inkscape:pageopacity="0.0"
     inkscape:pageshadow="2"
     inkscape:zoom="23.681818"
     inkscape:cx="3.3570057"
     inkscape:cy="14.378119"
     inkscape:document-units="px"
     inkscape:current-layer="layer1"
     showgrid="false"
     inkscape:window-width="960"
     inkscape:window-height="844"
     inkscape:window-x="638"
     inkscape:window-y="30"
     inkscape:window-maximized="0" />
  <metadata
     id="metadata7">
    <rdf:RDF>
      <cc:Work
         rdf:about="">
        <dc:format>image/svg+xml</dc:format>
        <dc:type
           rdf:resource="http://purl.org/dc/dcmitype/StillImage" />
        <dc:title />
      </cc:Work>
    </rdf:RDF>
  </metadata>
  <g
     inkscape:label="Capa 1"
     inkscape:groupmode="layer"
     id="layer1"
     transform="translate(0,-1030.3622)">
    <path
       style="fill:#ffffff;fill-opacity:1;stroke:none"
       d="m 11.000002,1034.3622 c -1.6547991,0 -3.1768047,0.5711 -4.3750021,1.5312 l -1.4097217,-1.4097 -1.0937505,1.0938 1.4097226,1.4097 C 4.5712161,1038.1854 4,1039.7074 4,1041.3622 c 0,3.866 3.1340086,7 7.000002,7 3.86599,0 6.999998,-3.134 6.999998,-7 0,-1.6548 -0.571215,-3.1768 -1.531249,-4.375 l 1.409721,-1.4097 -1.093749,-1.0938 -1.409722,1.4097 c -1.198198,-0.9601 -2.720199,-1.5312 -4.374999,-1.5312 z m 0,1.5556 c 3.00688,0 5.444443,2.4375 5.444443,5.4444 0,3.0069 -2.437563,5.4444 -5.444443,5.4444 -0.187327,0 -0.377268,-0.01 -0.559027,-0.024 -0.07537,-0.01 -0.144286,-0.038 -0.21875,-0.048 -0.07327,-0.011 -0.146292,-0.011 -0.21875,-0.024 -2.529702,-0.4692 -4.4479192,-2.6816 -4.4479192,-5.3472 0,-3.0069 2.4375664,-5.4445 5.4444462,-5.4445 z m 0,0.7777 c -2.5773288,0 -4.6666687,2.0894 -4.6666687,4.6667 0,2.2895 1.6409589,4.197 3.8159747,4.5937 l 0.850694,-4.5937 0,-4.6667 z"
       id="path5604"
       inkscape:connector-curvature="0" />
  </g>
</svg>
