<?xml version="1.0" encoding="UTF-8" standalone="no"?>
<!-- Created with Inkscape (http://www.inkscape.org/) -->

<svg
   xmlns:dc="http://purl.org/dc/elements/1.1/"
   xmlns:cc="http://creativecommons.org/ns#"
   xmlns:rdf="http://www.w3.org/1999/02/22-rdf-syntax-ns#"
   xmlns:svg="http://www.w3.org/2000/svg"
   xmlns="http://www.w3.org/2000/svg"
   xmlns:sodipodi="http://sodipodi.sourceforge.net/DTD/sodipodi-0.dtd"
   xmlns:inkscape="http://www.inkscape.org/namespaces/inkscape"
   width="22"
   height="22"
   id="svg2"
   version="1.1"
   inkscape:version="0.91 r"
   sodipodi:docname="pomodoro-indicator-light-22.svg">
  <defs
     id="defs4" />
  <sodipodi:namedview
     id="base"
     pagecolor="#ffffff"
     bordercolor="#666666"
     borderopacity="1.0"
     inkscape:pageopacity="0.0"
     inkscape:pageshadow="2"
     inkscape:zoom="23.681818"
     inkscape:cx="3.3992322"
     inkscape:cy="14.378119"
     inkscape:document-units="px"
     inkscape:current-layer="layer1"
     showgrid="false"
     inkscape:window-width="960"
     inkscape:window-height="844"
     inkscape:window-x="638"
     inkscape:window-y="30"
     inkscape:window-maximized="0" />
  <metadata
     id="metadata7">
    <rdf:RDF>
      <cc:Work
         rdf:about="">
        <dc:format>image/svg+xml</dc:format>
        <dc:type
           rdf:resource="http://purl.org/dc/dcmitype/StillImage" />
        <dc:title />
      </cc:Work>
    </rdf:RDF>
  </metadata>
  <g
     inkscape:label="Capa 1"
     inkscape:groupmode="layer"
     id="layer1"
     transform="translate(0,-1030.3622)">
    <path
       style="fill:#ffffff;fill-opacity:1;stroke:none"
       d="m 11.000002,1034.3622 c -1.6547997,0 -3.1768014,0.5712 -4.3749988,1.5313 l -1.4097257,-1.4097 -1.0937497,1.0937 1.4097218,1.4097 c -0.9600341,1.1982 -1.5312495,2.7202 -1.5312495,4.375 0,3.866 3.1340118,7 7.0000019,7 3.865998,0 6.999998,-3.134 6.999998,-7 0,-1.6548 -0.571207,-3.1768 -1.531249,-4.375 l 1.409722,-1.4097 -1.09375,-1.0937 -1.409722,1.4097 c -1.198189,-0.9601 -2.720199,-1.5313 -4.374999,-1.5313 z m 0,1.5556 c 3.006881,0 5.444443,2.4375 5.444443,5.4444 0,3.0069 -2.437562,5.4444 -5.444443,5.4444 -0.190298,0 -0.374235,-0.01 -0.559027,-0.024 -0.141299,-0.014 -0.275303,-0.048 -0.413195,-0.073 -0.041222,-0.01 -0.080609,-0.016 -0.1215279,-0.024 -0.024733,-0.01 -0.0483,-0.019 -0.072878,-0.024 -0.1072944,-0.023 -0.2112366,-0.043 -0.3159722,-0.073 -0.1325877,-0.037 -0.2606177,-0.075 -0.3888887,-0.1216 -0.081534,-0.03 -0.1634266,-0.063 -0.2430555,-0.097 -0.063311,-0.026 -0.1323856,-0.044 -0.1944444,-0.073 -0.0651,-0.031 -0.1308067,-0.064 -0.1944444,-0.097 -0.074978,-0.039 -0.14588,-0.079 -0.21875,-0.1216 -0.031422,-0.019 -0.066189,-0.03 -0.097222,-0.048 -0.086559,-0.052 -0.1597477,-0.1131 -0.2430554,-0.1701 -0.1324867,-0.091 -0.26488,-0.1893 -0.3888888,-0.2917 -0.00863,-0.01 -0.015711,-0.017 -0.024267,-0.024 -1.195094,-0.9987 -1.9687532,-2.5013 -1.9687532,-4.1806 0,-3.0068 2.4375664,-5.4444 5.4444475,-5.4444 z m 0,0.7777 c -2.5773294,0 -4.6666654,2.0894 -4.6666654,4.6667 0,1.4374 0.6550987,2.7169 1.6770828,3.573 l 2.9895826,-3.573 0,-4.6667 z"
       id="path5619"
       inkscape:connector-curvature="0" />
  </g>
</svg>
