<?xml version="1.0" encoding="UTF-8" standalone="no"?>
<!-- Created with Inkscape (http://www.inkscape.org/) -->

<svg
   xmlns:dc="http://purl.org/dc/elements/1.1/"
   xmlns:cc="http://creativecommons.org/ns#"
   xmlns:rdf="http://www.w3.org/1999/02/22-rdf-syntax-ns#"
   xmlns:svg="http://www.w3.org/2000/svg"
   xmlns="http://www.w3.org/2000/svg"
   xmlns:sodipodi="http://sodipodi.sourceforge.net/DTD/sodipodi-0.dtd"
   xmlns:inkscape="http://www.inkscape.org/namespaces/inkscape"
   width="22"
   height="22"
   id="svg2"
   version="1.1"
   inkscape:version="0.91 r"
   sodipodi:docname="pomodoro-indicator-light-21.svg">
  <defs
     id="defs4" />
  <sodipodi:namedview
     id="base"
     pagecolor="#ffffff"
     bordercolor="#666666"
     borderopacity="1.0"
     inkscape:pageopacity="0.0"
     inkscape:pageshadow="2"
     inkscape:zoom="23.681818"
     inkscape:cx="3.3992322"
     inkscape:cy="14.378119"
     inkscape:document-units="px"
     inkscape:current-layer="layer1"
     showgrid="false"
     inkscape:window-width="960"
     inkscape:window-height="844"
     inkscape:window-x="638"
     inkscape:window-y="30"
     inkscape:window-maximized="0" />
  <metadata
     id="metadata7">
    <rdf:RDF>
      <cc:Work
         rdf:about="">
        <dc:format>image/svg+xml</dc:format>
        <dc:type
           rdf:resource="http://purl.org/dc/dcmitype/StillImage" />
        <dc:title />
      </cc:Work>
    </rdf:RDF>
  </metadata>
  <g
     inkscape:label="Capa 1"
     inkscape:groupmode="layer"
     id="layer1"
     transform="translate(0,-1030.3622)">
    <path
       style="fill:#ffffff;fill-opacity:1;stroke:none"
       d="m 11.000002,1034.3622 c -1.6547993,0 -3.1768013,0.5711 -4.3750026,1.5312 l -1.4097219,-1.4097 -1.0937498,1.0938 1.409722,1.4097 C 4.5712153,1038.1854 4,1039.7074 4,1041.3622 c 0,3.866 3.1340081,7 7.000002,7 3.865998,0 6.999998,-3.134 6.999998,-7 0,-1.6548 -0.571208,-3.1768 -1.53125,-4.375 l 1.409722,-1.4097 -1.09375,-1.0938 -1.409722,1.4097 c -1.198189,-0.9601 -2.720199,-1.5312 -4.374998,-1.5312 z m 0,1.5556 c 3.006888,0 5.444443,2.4375 5.444443,5.4444 0,3.0069 -2.437555,5.4444 -5.444443,5.4444 -0.189763,0 -0.374259,-0.01 -0.559028,-0.024 -0.05787,-0.01 -0.112848,-0.016 -0.170139,-0.024 -0.09025,-0.012 -0.178561,-0.032 -0.26736,-0.048 -0.073111,-0.013 -0.1466969,-0.032 -0.2187502,-0.048 -0.090207,-0.021 -0.17892,-0.048 -0.2673611,-0.073 -0.1325877,-0.037 -0.2606099,-0.075 -0.3888888,-0.1215 -0.083424,-0.031 -0.1616066,-0.063 -0.2430555,-0.097 -0.2078455,-0.088 -0.4139254,-0.1797 -0.6076387,-0.2917 -1.6274491,-0.9414 -2.7222255,-2.7 -2.7222255,-4.7153 0,-3.0069 2.4375667,-5.4444 5.4444468,-5.4444 z m 0,0.7777 c -2.5773291,0 -4.6666693,2.0894 -4.6666693,4.6667 0,1.7273 0.9384938,3.2278 2.3333368,4.0347 l 2.3333325,-4.0347 0,-4.6667 z"
       id="path5614"
       inkscape:connector-curvature="0" />
  </g>
</svg>
