<?xml version="1.0" encoding="UTF-8" standalone="no"?>
<!-- Created with Inkscape (http://www.inkscape.org/) -->

<svg
   xmlns:dc="http://purl.org/dc/elements/1.1/"
   xmlns:cc="http://creativecommons.org/ns#"
   xmlns:rdf="http://www.w3.org/1999/02/22-rdf-syntax-ns#"
   xmlns:svg="http://www.w3.org/2000/svg"
   xmlns="http://www.w3.org/2000/svg"
   xmlns:sodipodi="http://sodipodi.sourceforge.net/DTD/sodipodi-0.dtd"
   xmlns:inkscape="http://www.inkscape.org/namespaces/inkscape"
   width="22"
   height="22"
   id="svg2"
   version="1.1"
   inkscape:version="0.91 r"
   sodipodi:docname="pomodoro-indicator-light-32.svg">
  <defs
     id="defs4" />
  <sodipodi:namedview
     id="base"
     pagecolor="#ffffff"
     bordercolor="#666666"
     borderopacity="1.0"
     inkscape:pageopacity="0.0"
     inkscape:pageshadow="2"
     inkscape:zoom="23.681818"
     inkscape:cx="3.3992322"
     inkscape:cy="14.378119"
     inkscape:document-units="px"
     inkscape:current-layer="layer1"
     showgrid="false"
     inkscape:window-width="960"
     inkscape:window-height="844"
     inkscape:window-x="638"
     inkscape:window-y="30"
     inkscape:window-maximized="0" />
  <metadata
     id="metadata7">
    <rdf:RDF>
      <cc:Work
         rdf:about="">
        <dc:format>image/svg+xml</dc:format>
        <dc:type
           rdf:resource="http://purl.org/dc/dcmitype/StillImage" />
        <dc:title />
      </cc:Work>
    </rdf:RDF>
  </metadata>
  <g
     inkscape:label="Capa 1"
     inkscape:groupmode="layer"
     id="layer1"
     transform="translate(0,-1030.3622)">
    <path
       style="fill:#ffffff;fill-opacity:1;stroke:none"
       d="m 11.000002,1034.3622 c -1.6548072,0 -3.1768052,0.5711 -4.3750027,1.5312 l -1.4097219,-1.4097 -1.0937498,1.0938 1.4097219,1.4097 c -0.9600342,1.1982 -1.5312496,2.7202 -1.5312496,4.375 0,3.866 3.1340066,7 7.0000021,7 3.865997,0 6.999998,-3.134 6.999998,-7 0,-1.6548 -0.571208,-3.1768 -1.53125,-4.375 l 1.409722,-1.4097 -1.09375,-1.0938 -1.409722,1.4097 c -1.198189,-0.9601 -2.720199,-1.5312 -4.374998,-1.5312 z m 0,1.5556 c 3.00688,0 5.444443,2.4375 5.444443,5.4444 0,3.0069 -2.437563,5.4444 -5.444443,5.4444 -3.0068865,0 -5.4444469,-2.4375 -5.4444469,-5.4444 0,-0.191 0.00506,-0.3729 0.024305,-0.5591 0.00163,-0.016 -0.00179,-0.033 0,-0.048 0.018185,-0.1615 0.065217,-0.3291 0.097222,-0.4861 0.00819,-0.04 0.015237,-0.082 0.024306,-0.1215 0.0077,-0.033 0.016014,-0.064 0.024306,-0.097 0.031897,-0.1288 0.056335,-0.2639 0.097222,-0.3889 0.046301,-0.1405 0.1130212,-0.278 0.1701389,-0.4132 0.061701,-0.1461 0.1207624,-0.2982 0.1944444,-0.4375 0.039838,-0.075 0.078325,-0.1458 0.1215277,-0.2187 0.02954,-0.05 0.06615,-0.097 0.097222,-0.1459 0.035646,-0.056 0.059609,-0.1156 0.097222,-0.1702 0.087889,-0.1285 0.1934613,-0.2443 0.2916666,-0.3645 0.1122691,-0.1375 0.23975,-0.2632 0.3645833,-0.3889 0.1031854,-0.1032 0.2048106,-0.2213 0.3159721,-0.316 0.9502537,-0.8093 2.1783179,-1.2882 3.5243079,-1.2882 z m 0,0.7777 c -1.1522229,0 -2.1998193,0.426 -3.0138919,1.1181 l 3.0138919,3.5486 0,-4.6667 z"
       id="path5669"
       inkscape:connector-curvature="0" />
  </g>
</svg>
