<?xml version="1.0" encoding="UTF-8" standalone="no"?>
<!-- Created with Inkscape (http://www.inkscape.org/) -->

<svg
   xmlns:dc="http://purl.org/dc/elements/1.1/"
   xmlns:cc="http://creativecommons.org/ns#"
   xmlns:rdf="http://www.w3.org/1999/02/22-rdf-syntax-ns#"
   xmlns:svg="http://www.w3.org/2000/svg"
   xmlns="http://www.w3.org/2000/svg"
   xmlns:sodipodi="http://sodipodi.sourceforge.net/DTD/sodipodi-0.dtd"
   xmlns:inkscape="http://www.inkscape.org/namespaces/inkscape"
   width="22"
   height="22"
   id="svg2"
   version="1.1"
   inkscape:version="0.91 r"
   sodipodi:docname="pomodoro-indicator-light-33.svg">
  <defs
     id="defs4" />
  <sodipodi:namedview
     id="base"
     pagecolor="#ffffff"
     bordercolor="#666666"
     borderopacity="1.0"
     inkscape:pageopacity="0.0"
     inkscape:pageshadow="2"
     inkscape:zoom="23.681818"
     inkscape:cx="3.3992322"
     inkscape:cy="14.378119"
     inkscape:document-units="px"
     inkscape:current-layer="layer1"
     showgrid="false"
     inkscape:window-width="960"
     inkscape:window-height="844"
     inkscape:window-x="638"
     inkscape:window-y="30"
     inkscape:window-maximized="0" />
  <metadata
     id="metadata7">
    <rdf:RDF>
      <cc:Work
         rdf:about="">
        <dc:format>image/svg+xml</dc:format>
        <dc:type
           rdf:resource="http://purl.org/dc/dcmitype/StillImage" />
        <dc:title />
      </cc:Work>
    </rdf:RDF>
  </metadata>
  <g
     inkscape:label="Capa 1"
     inkscape:groupmode="layer"
     id="layer1"
     transform="translate(0,-1030.3622)">
    <path
       style="fill:#ffffff;fill-opacity:1;stroke:none"
       d="m 11.000002,1034.3622 c -1.6548084,0 -3.1768049,0.5712 -4.3750025,1.5313 l -1.4097219,-1.4097 -1.0937497,1.0937 1.4097219,1.4097 c -0.9600343,1.1982 -1.5312497,2.7202 -1.5312497,4.375 0,3.866 3.1340067,7 7.0000019,7 3.865998,0 6.999998,-3.134 6.999998,-7 0,-1.6548 -0.571207,-3.1768 -1.531249,-4.375 l 1.409721,-1.4097 -1.093749,-1.0937 -1.409722,1.4097 c -1.19819,-0.9601 -2.7202,-1.5313 -4.374999,-1.5313 z m 0,1.5556 c 3.00688,0 5.444443,2.4375 5.444443,5.4444 0,3.0069 -2.437563,5.4444 -5.444443,5.4444 -3.0068861,0 -5.4444466,-2.4375 -5.4444466,-5.4444 0,-0.2308 0.020736,-0.4573 0.048611,-0.6806 0.013479,-0.107 0.029019,-0.2109 0.048611,-0.3159 0.013557,-0.073 0.032161,-0.1467 0.048611,-0.2188 0.020704,-0.09 0.047802,-0.1789 0.072917,-0.2673 0.030263,-0.1073 0.060659,-0.2115 0.097222,-0.316 0.096332,-0.2744 0.2032675,-0.5497 0.3402777,-0.8021 0.026553,-0.049 0.044924,-0.098 0.072917,-0.1458 0.039371,-0.068 0.079368,-0.1287 0.1215278,-0.1944 0.050625,-0.079 0.1156361,-0.1429 0.1701388,-0.2188 0.06097,-0.085 0.1287984,-0.1617 0.1944444,-0.2431 0.025387,-0.031 0.046853,-0.066 0.072917,-0.097 0.098581,-0.1167 0.2080516,-0.2322 0.3159721,-0.3403 0.1265165,-0.1267 0.2504506,-0.2508 0.3888888,-0.3645 0.1078716,-0.089 0.225701,-0.1628 0.3402777,-0.2431 0.076868,-0.054 0.1390293,-0.12 0.21875,-0.1702 0.039729,-0.025 0.081118,-0.049 0.1215278,-0.073 0.8115012,-0.4805 1.7593897,-0.7535 2.7708355,-0.7535 z m 0,0.7777 c -0.869852,0 -1.6848307,0.2419 -2.3819473,0.6563 l 2.3819473,4.0104 0,-4.6667 z"
       id="path5674"
       inkscape:connector-curvature="0" />
  </g>
</svg>
