<?xml version="1.0" encoding="UTF-8" standalone="no"?>
<!-- Created with Inkscape (http://www.inkscape.org/) -->

<svg
   xmlns:dc="http://purl.org/dc/elements/1.1/"
   xmlns:cc="http://creativecommons.org/ns#"
   xmlns:rdf="http://www.w3.org/1999/02/22-rdf-syntax-ns#"
   xmlns:svg="http://www.w3.org/2000/svg"
   xmlns="http://www.w3.org/2000/svg"
   xmlns:sodipodi="http://sodipodi.sourceforge.net/DTD/sodipodi-0.dtd"
   xmlns:inkscape="http://www.inkscape.org/namespaces/inkscape"
   width="22"
   height="22"
   id="svg2"
   version="1.1"
   inkscape:version="0.91 r"
   sodipodi:docname="pomodoro-indicator-light-36.svg">
  <defs
     id="defs4" />
  <sodipodi:namedview
     id="base"
     pagecolor="#ffffff"
     bordercolor="#666666"
     borderopacity="1.0"
     inkscape:pageopacity="0.0"
     inkscape:pageshadow="2"
     inkscape:zoom="23.681818"
     inkscape:cx="3.3992322"
     inkscape:cy="14.378119"
     inkscape:document-units="px"
     inkscape:current-layer="layer1"
     showgrid="false"
     inkscape:window-width="960"
     inkscape:window-height="844"
     inkscape:window-x="638"
     inkscape:window-y="30"
     inkscape:window-maximized="0" />
  <metadata
     id="metadata7">
    <rdf:RDF>
      <cc:Work
         rdf:about="">
        <dc:format>image/svg+xml</dc:format>
        <dc:type
           rdf:resource="http://purl.org/dc/dcmitype/StillImage" />
        <dc:title />
      </cc:Work>
    </rdf:RDF>
  </metadata>
  <g
     inkscape:label="Capa 1"
     inkscape:groupmode="layer"
     id="layer1"
     transform="translate(0,-1030.3622)">
    <path
       style="fill:#ffffff;fill-opacity:1;stroke:none"
       d="m 11.000001,1034.3622 c -1.6548008,0 -3.1768036,0.5711 -4.3750013,1.5312 l -1.4097221,-1.4097 -1.0937498,1.0938 1.409722,1.4097 C 4.5712155,1038.1854 4,1039.7074 4,1041.3622 c 0,3.866 3.1340062,7 7.000001,7 3.865998,0 6.999999,-3.134 6.999999,-7 0,-1.6548 -0.571208,-3.1768 -1.53125,-4.375 l 1.409722,-1.4097 -1.09375,-1.0938 -1.409722,1.4097 c -1.19819,-0.9601 -2.720199,-1.5312 -4.374999,-1.5312 z m 0,1.5556 c 3.006881,0 5.444444,2.4375 5.444444,5.4444 0,3.0069 -2.437563,5.4444 -5.444444,5.4444 -3.0068849,0 -5.4444456,-2.4375 -5.4444456,-5.4444 0,-3.0069 2.4375607,-5.4444 5.4444456,-5.4444 z"
       id="path5689"
       inkscape:connector-curvature="0" />
  </g>
</svg>
