<?xml version="1.0" encoding="UTF-8" standalone="no"?>
<!-- Created with Inkscape (http://www.inkscape.org/) -->

<svg
   xmlns:dc="http://purl.org/dc/elements/1.1/"
   xmlns:cc="http://creativecommons.org/ns#"
   xmlns:rdf="http://www.w3.org/1999/02/22-rdf-syntax-ns#"
   xmlns:svg="http://www.w3.org/2000/svg"
   xmlns="http://www.w3.org/2000/svg"
   xmlns:sodipodi="http://sodipodi.sourceforge.net/DTD/sodipodi-0.dtd"
   xmlns:inkscape="http://www.inkscape.org/namespaces/inkscape"
   width="22"
   height="22"
   id="svg2"
   version="1.1"
   inkscape:version="0.91 r"
   sodipodi:docname="pomodoro-indicator-light-16.svg">
  <defs
     id="defs4" />
  <sodipodi:namedview
     id="base"
     pagecolor="#ffffff"
     bordercolor="#666666"
     borderopacity="1.0"
     inkscape:pageopacity="0.0"
     inkscape:pageshadow="2"
     inkscape:zoom="23.681818"
     inkscape:cx="3.3992322"
     inkscape:cy="14.378119"
     inkscape:document-units="px"
     inkscape:current-layer="layer1"
     showgrid="false"
     inkscape:window-width="960"
     inkscape:window-height="844"
     inkscape:window-x="638"
     inkscape:window-y="30"
     inkscape:window-maximized="0" />
  <metadata
     id="metadata7">
    <rdf:RDF>
      <cc:Work
         rdf:about="">
        <dc:format>image/svg+xml</dc:format>
        <dc:type
           rdf:resource="http://purl.org/dc/dcmitype/StillImage" />
        <dc:title />
      </cc:Work>
    </rdf:RDF>
  </metadata>
  <g
     inkscape:label="Capa 1"
     inkscape:groupmode="layer"
     id="layer1"
     transform="translate(0,-1030.3622)">
    <path
       style="fill:#ffffff;fill-opacity:1;stroke:none"
       d="m 11,1034.3622 c -1.6548,0 -3.1768046,0.5711 -4.375,1.5312 l -1.4097222,-1.4097 -1.09375,1.0938 1.4097222,1.4097 C 4.5712132,1038.1854 4,1039.7074 4,1041.3622 c 0,3.866 3.1340073,7 7,7 3.865993,0 7,-3.134 7,-7 0,-1.6548 -0.571216,-3.1768 -1.53125,-4.375 l 1.409722,-1.4097 -1.09375,-1.0938 -1.409722,1.4097 c -1.198195,-0.9601 -2.7202,-1.5312 -4.375,-1.5312 z m 0,1.5556 c 3.006883,0 5.444444,2.4375 5.444444,5.4444 0,0.2736 -0.03395,0.5392 -0.07292,0.802 -0.0024,0.016 0.0026,0.033 0,0.048 -0.04123,0.262 -0.09293,0.5296 -0.170139,0.7777 -0.0052,0.016 -0.01895,0.032 -0.02431,0.048 -0.04905,0.1522 -0.108388,0.2915 -0.170139,0.4375 -0.04744,0.112 -0.09123,0.2323 -0.145833,0.3402 -0.0081,0.016 -0.01607,0.033 -0.02431,0.048 -0.01718,0.033 -0.03077,0.065 -0.04861,0.097 -0.08381,0.1543 -0.16952,0.2927 -0.267361,0.4375 -0.02327,0.034 -0.04889,0.064 -0.07292,0.097 -0.0066,0.01 -0.01763,0.015 -0.02431,0.024 -0.140425,0.1955 -0.297302,0.3841 -0.461805,0.559 -0.01544,0.016 -0.03297,0.033 -0.04861,0.048 -0.144238,0.1497 -0.301364,0.3052 -0.461805,0.4375 -0.04831,0.04 -0.09615,0.084 -0.145833,0.1216 -0.02326,0.018 -0.04937,0.031 -0.07292,0.048 -0.196415,0.1459 -0.39214,0.2701 -0.607639,0.3889 -0.163715,0.09 -0.336964,0.1696 -0.510417,0.2431 -0.08051,0.034 -0.160622,0.067 -0.243055,0.097 -0.583714,0.2137 -1.213772,0.3403 -1.871528,0.3403 -3.0068834,0 -5.4444444,-2.4376 -5.4444444,-5.4445 0,-3.0069 2.437561,-5.4444 5.4444444,-5.4444 z m 0,0.7777 c -2.5773292,0 -4.6666667,2.0894 -4.6666667,4.6667 0,2.5773 2.0893375,4.6667 4.6666667,4.6667 0.563791,0 1.10384,-0.1085 1.604167,-0.2917 L 11,1041.3622 l 0,-4.6667 z"
       id="path5589"
       inkscape:connector-curvature="0" />
  </g>
</svg>
