<?xml version="1.0" encoding="UTF-8" standalone="no"?>
<!-- Created with Inkscape (http://www.inkscape.org/) -->

<svg
   xmlns:dc="http://purl.org/dc/elements/1.1/"
   xmlns:cc="http://creativecommons.org/ns#"
   xmlns:rdf="http://www.w3.org/1999/02/22-rdf-syntax-ns#"
   xmlns:svg="http://www.w3.org/2000/svg"
   xmlns="http://www.w3.org/2000/svg"
   xmlns:sodipodi="http://sodipodi.sourceforge.net/DTD/sodipodi-0.dtd"
   xmlns:inkscape="http://www.inkscape.org/namespaces/inkscape"
   width="22"
   height="22"
   id="svg2"
   version="1.1"
   inkscape:version="0.91 r"
   sodipodi:docname="pomodoro-indicator-light-08.svg">
  <defs
     id="defs4" />
  <sodipodi:namedview
     id="base"
     pagecolor="#ffffff"
     bordercolor="#666666"
     borderopacity="1.0"
     inkscape:pageopacity="0.0"
     inkscape:pageshadow="2"
     inkscape:zoom="23.681818"
     inkscape:cx="3.3992322"
     inkscape:cy="14.378119"
     inkscape:document-units="px"
     inkscape:current-layer="layer1"
     showgrid="false"
     inkscape:window-width="960"
     inkscape:window-height="844"
     inkscape:window-x="638"
     inkscape:window-y="30"
     inkscape:window-maximized="0" />
  <metadata
     id="metadata7">
    <rdf:RDF>
      <cc:Work
         rdf:about="">
        <dc:format>image/svg+xml</dc:format>
        <dc:type
           rdf:resource="http://purl.org/dc/dcmitype/StillImage" />
        <dc:title />
      </cc:Work>
    </rdf:RDF>
  </metadata>
  <g
     inkscape:label="Capa 1"
     inkscape:groupmode="layer"
     id="layer1"
     transform="translate(0,-1030.3622)">
    <path
       style="fill:#ffffff;fill-opacity:1;stroke:none"
       d="m 11,1034.3622 c -1.6548,0 -3.1768046,0.5712 -4.375,1.5313 l -1.4097222,-1.4097 -1.09375,1.0937 1.4097222,1.4097 C 4.5712132,1038.1854 4,1039.7074 4,1041.3622 c 0,3.866 3.1340073,7 7,7 3.865993,0 7,-3.134 7,-7 0,-1.6548 -0.571213,-3.1768 -1.53125,-4.375 l 1.409722,-1.4097 -1.09375,-1.0937 -1.409722,1.4097 c -1.198195,-0.9601 -2.7202,-1.5313 -4.375,-1.5313 z m 0,1.5556 c 0.167634,0 0.322445,0.01 0.486111,0.024 0.02392,0 0.04909,0 0.07292,0 0.139115,0.015 0.277464,0.048 0.413195,0.073 0.04073,0.01 0.08112,0.016 0.121527,0.024 0.118362,0.024 0.24921,0.041 0.364583,0.073 0.05566,0.016 0.11521,0.032 0.170139,0.048 0.09352,0.03 0.176117,0.063 0.267361,0.097 0.07605,0.028 0.144349,0.066 0.21875,0.097 0.0724,0.031 0.148019,0.064 0.21875,0.097 0.0066,0 0.0177,0 0.02431,0 0.135092,0.064 0.260265,0.1433 0.388889,0.2188 0.09953,0.058 0.196311,0.1057 0.291666,0.1701 0.03397,0.023 0.06381,0.049 0.09722,0.073 0.109193,0.078 0.212936,0.158 0.315972,0.243 0.01748,0.015 0.03132,0.034 0.04861,0.048 0.115893,0.098 0.232996,0.2086 0.340278,0.3159 0.109122,0.1103 0.216518,0.221 0.315972,0.3403 0.01451,0.017 0.03431,0.031 0.04861,0.048 0.08432,0.1036 0.166385,0.2305 0.243056,0.3403 0.179778,0.2556 0.327498,0.5168 0.461805,0.8021 0.03059,0.065 0.06916,0.1281 0.09722,0.1944 0.03344,0.08 0.06747,0.1618 0.09722,0.2431 0.05549,0.1515 0.103776,0.3043 0.145833,0.4618 0.02737,0.1025 0.05147,0.2111 0.07292,0.316 0.01015,0.05 0.0155,0.096 0.02431,0.1458 0.05451,0.3091 0.09722,0.6232 0.09722,0.9479 0,3.0069 -2.437561,5.4444 -5.444444,5.4444 -3.0068831,0 -5.4444441,-2.4375 -5.4444441,-5.4444 0,-3.0069 2.437561,-5.4445 5.4444441,-5.4445 z m 0,0.7777 c -2.5773292,0 -4.6666667,2.0894 -4.6666667,4.6667 0,2.5773 2.0893375,4.6667 4.6666667,4.6667 2.577329,0 4.666667,-2.0894 4.666667,-4.6667 0,-0.2712 -0.02851,-0.5435 -0.07292,-0.802 L 11,1041.3622 l 0,-4.6667 z"
       id="path5548"
       inkscape:connector-curvature="0" />
  </g>
</svg>
