<?xml version="1.0" encoding="UTF-8" standalone="no"?>
<!-- Created with Inkscape (http://www.inkscape.org/) -->

<svg
   xmlns:dc="http://purl.org/dc/elements/1.1/"
   xmlns:cc="http://creativecommons.org/ns#"
   xmlns:rdf="http://www.w3.org/1999/02/22-rdf-syntax-ns#"
   xmlns:svg="http://www.w3.org/2000/svg"
   xmlns="http://www.w3.org/2000/svg"
   xmlns:sodipodi="http://sodipodi.sourceforge.net/DTD/sodipodi-0.dtd"
   xmlns:inkscape="http://www.inkscape.org/namespaces/inkscape"
   width="22"
   height="22"
   id="svg2"
   version="1.1"
   inkscape:version="0.91 r"
   sodipodi:docname="pomodoro-indicator-light-03.svg">
  <defs
     id="defs4" />
  <sodipodi:namedview
     id="base"
     pagecolor="#ffffff"
     bordercolor="#666666"
     borderopacity="1.0"
     inkscape:pageopacity="0.0"
     inkscape:pageshadow="2"
     inkscape:zoom="23.681818"
     inkscape:cx="3.3992322"
     inkscape:cy="11"
     inkscape:document-units="px"
     inkscape:current-layer="layer1"
     showgrid="false"
     inkscape:window-width="960"
     inkscape:window-height="844"
     inkscape:window-x="638"
     inkscape:window-y="30"
     inkscape:window-maximized="0" />
  <metadata
     id="metadata7">
    <rdf:RDF>
      <cc:Work
         rdf:about="">
        <dc:format>image/svg+xml</dc:format>
        <dc:type
           rdf:resource="http://purl.org/dc/dcmitype/StillImage" />
        <dc:title />
      </cc:Work>
    </rdf:RDF>
  </metadata>
  <g
     inkscape:label="Capa 1"
     inkscape:groupmode="layer"
     id="layer1"
     transform="translate(0,-1030.3622)">
    <path
       style="fill:#ffffff;fill-opacity:1;stroke:none"
       d="m 11,1034.3622 c -1.6548008,0 -3.1768046,0.5711 -4.375,1.5312 l -1.4097222,-1.4097 -1.09375,1.0938 1.4097222,1.4097 C 4.5712124,1038.1854 4,1039.7074 4,1041.3622 c 0,3.866 3.1340066,7 7,7 3.865993,0 7,-3.134 7,-7 0,-1.6548 -0.571213,-3.1768 -1.53125,-4.375 l 1.409722,-1.4097 -1.09375,-1.0938 -1.409722,1.4097 c -1.198195,-0.9601 -2.7202,-1.5312 -4.375,-1.5312 z m 0,1.5556 c 0.187931,0 0.376002,0.01 0.559028,0.024 0.05661,0.01 0.114059,0.017 0.170139,0.024 0.124,0.016 0.243371,0.048 0.364583,0.073 0.113023,0.023 0.229924,0.043 0.340278,0.073 0.06323,0.017 0.132147,0.03 0.194444,0.048 0.159802,0.05 0.30872,0.1061 0.461806,0.1701 0.173184,0.072 0.346818,0.1543 0.510416,0.2431 0.04068,0.023 0.08149,0.05 0.121528,0.073 1.627448,0.9413 2.722222,2.7 2.722222,4.7153 0,3.0069 -2.437561,5.4444 -5.444444,5.4444 -3.0068827,0 -5.4444444,-2.4375 -5.4444444,-5.4444 0,-3.0069 2.4375617,-5.4445 5.4444444,-5.4445 z m 0,0.7777 c -2.5773284,0 -4.6666667,2.0894 -4.6666667,4.6667 0,2.5773 2.0893383,4.6667 4.6666667,4.6667 2.577329,0 4.666667,-2.0894 4.666667,-4.6667 0,-1.7273 -0.93849,-3.2279 -2.333334,-4.0347 L 11,1041.3622 l 0,-4.6667 z"
       id="path5504"
       inkscape:connector-curvature="0" />
  </g>
</svg>
