<?xml version="1.0" encoding="UTF-8" standalone="no"?>
<!-- Created with Inkscape (http://www.inkscape.org/) -->

<svg
   xmlns:dc="http://purl.org/dc/elements/1.1/"
   xmlns:cc="http://creativecommons.org/ns#"
   xmlns:rdf="http://www.w3.org/1999/02/22-rdf-syntax-ns#"
   xmlns:svg="http://www.w3.org/2000/svg"
   xmlns="http://www.w3.org/2000/svg"
   xmlns:sodipodi="http://sodipodi.sourceforge.net/DTD/sodipodi-0.dtd"
   xmlns:inkscape="http://www.inkscape.org/namespaces/inkscape"
   width="22"
   height="22"
   id="svg2"
   version="1.1"
   inkscape:version="0.91 r"
   sodipodi:docname="pomodoro-indicator-light-23.svg">
  <defs
     id="defs4" />
  <sodipodi:namedview
     id="base"
     pagecolor="#ffffff"
     bordercolor="#666666"
     borderopacity="1.0"
     inkscape:pageopacity="0.0"
     inkscape:pageshadow="2"
     inkscape:zoom="23.681818"
     inkscape:cx="3.3992322"
     inkscape:cy="14.378119"
     inkscape:document-units="px"
     inkscape:current-layer="layer1"
     showgrid="false"
     inkscape:window-width="960"
     inkscape:window-height="844"
     inkscape:window-x="638"
     inkscape:window-y="30"
     inkscape:window-maximized="0" />
  <metadata
     id="metadata7">
    <rdf:RDF>
      <cc:Work
         rdf:about="">
        <dc:format>image/svg+xml</dc:format>
        <dc:type
           rdf:resource="http://purl.org/dc/dcmitype/StillImage" />
        <dc:title />
      </cc:Work>
    </rdf:RDF>
  </metadata>
  <g
     inkscape:label="Capa 1"
     inkscape:groupmode="layer"
     id="layer1"
     transform="translate(0,-1030.3622)">
    <path
       style="fill:#ffffff;fill-opacity:1;stroke:none"
       d="m 11,1034.3622 c -1.6547992,0 -3.17681,0.5711 -4.375,1.5312 l -1.4097222,-1.4097 -1.09375,1.0938 1.4097222,1.4097 C 4.5712078,1038.1854 4,1039.7074 4,1041.3622 c 0,3.866 3.1340019,7 7,7 3.865992,0 7,-3.134 7,-7 0,-1.6548 -0.571216,-3.1768 -1.53125,-4.375 l 1.409722,-1.4097 -1.09375,-1.0938 -1.409722,1.4097 c -1.198197,-0.9601 -2.7202,-1.5312 -4.375,-1.5312 z m 0,1.5556 c 3.006883,0 5.444444,2.4375 5.444444,5.4444 0,3.0069 -2.437561,5.4444 -5.444444,5.4444 -0.212737,0 -0.425569,-5e-4 -0.631944,-0.024 -0.161371,-0.019 -0.305018,-0.064 -0.461806,-0.097 -0.04004,-0.01 -0.081815,-0.016 -0.1215278,-0.024 -0.017274,-0.01 -0.031399,-0.02 -0.048611,-0.024 -0.1806148,-0.043 -0.3615904,-0.085 -0.5347222,-0.1458 -0.1098992,-0.039 -0.209412,-0.076 -0.3159722,-0.1215 -0.079897,-0.034 -0.1651611,-0.06 -0.2430556,-0.097 -0.1789737,-0.086 -0.3429549,-0.1872 -0.5104167,-0.2916 -0.1705907,-0.1063 -0.3288358,-0.2163 -0.4861111,-0.3403 -0.032775,-0.026 -0.065053,-0.047 -0.097222,-0.073 -0.025993,-0.021 -0.047328,-0.051 -0.072917,-0.073 -0.1120824,-0.096 -0.2119662,-0.1878 -0.3159722,-0.2917 -0.1152184,-0.1153 -0.2357125,-0.2395 -0.3402778,-0.3646 -0.7895828,-0.9449 -1.2638888,-2.1481 -1.2638888,-3.4757 0,-3.0069 2.437561,-5.4444 5.4444444,-5.4444 z m 0,0.7777 c -2.5773292,0 -4.6666667,2.0894 -4.6666667,4.6667 0,1.1399 0.4148955,2.1791 1.09375,2.9895 L 11,1041.3622 l 0,-4.6667 z"
       id="path5624"
       inkscape:connector-curvature="0" />
  </g>
</svg>
