<?xml version="1.0" encoding="UTF-8" standalone="no"?>
<!-- Created with Inkscape (http://www.inkscape.org/) -->

<svg
   xmlns:dc="http://purl.org/dc/elements/1.1/"
   xmlns:cc="http://creativecommons.org/ns#"
   xmlns:rdf="http://www.w3.org/1999/02/22-rdf-syntax-ns#"
   xmlns:svg="http://www.w3.org/2000/svg"
   xmlns="http://www.w3.org/2000/svg"
   xmlns:sodipodi="http://sodipodi.sourceforge.net/DTD/sodipodi-0.dtd"
   xmlns:inkscape="http://www.inkscape.org/namespaces/inkscape"
   width="22"
   height="22"
   id="svg2"
   version="1.1"
   inkscape:version="0.91 r"
   sodipodi:docname="pomodoro-indicator-light-34.svg">
  <defs
     id="defs4" />
  <sodipodi:namedview
     id="base"
     pagecolor="#ffffff"
     bordercolor="#666666"
     borderopacity="1.0"
     inkscape:pageopacity="0.0"
     inkscape:pageshadow="2"
     inkscape:zoom="23.681818"
     inkscape:cx="3.3992322"
     inkscape:cy="14.378119"
     inkscape:document-units="px"
     inkscape:current-layer="layer1"
     showgrid="false"
     inkscape:window-width="960"
     inkscape:window-height="844"
     inkscape:window-x="638"
     inkscape:window-y="30"
     inkscape:window-maximized="0" />
  <metadata
     id="metadata7">
    <rdf:RDF>
      <cc:Work
         rdf:about="">
        <dc:format>image/svg+xml</dc:format>
        <dc:type
           rdf:resource="http://purl.org/dc/dcmitype/StillImage" />
        <dc:title />
      </cc:Work>
    </rdf:RDF>
  </metadata>
  <g
     inkscape:label="Capa 1"
     inkscape:groupmode="layer"
     id="layer1"
     transform="translate(0,-1030.3622)">
    <path
       style="fill:#ffffff;fill-opacity:1;stroke:none"
       d="m 11,1034.3622 c -1.6548005,0 -3.176802,0.5712 -4.3749998,1.5313 l -1.4097222,-1.4097 -1.09375,1.0937 1.4097222,1.4097 c -0.9600344,1.1982 -1.53125,2.7202 -1.53125,4.375 0,3.866 3.1340065,7 6.9999998,7 3.865991,0 7,-3.134 7,-7 0,-1.6548 -0.571216,-3.1768 -1.53125,-4.375 l 1.409723,-1.4097 -1.09375,-1.0937 -1.409723,1.4097 c -1.198198,-0.9601 -2.7202,-1.5313 -4.375,-1.5313 z m 0,1.5556 c 3.006881,0 5.444445,2.4375 5.444445,5.4444 0,3.0069 -2.437564,5.4444 -5.444445,5.4444 -3.0068832,0 -5.4444443,-2.4375 -5.4444443,-5.4444 0,-0.2736 0.033958,-0.5392 0.072917,-0.802 0.00614,-0.041 0.017267,-0.081 0.024306,-0.1216 0.043688,-0.2543 0.092485,-0.5126 0.1701389,-0.7534 0.04872,-0.1508 0.1088812,-0.293 0.1701389,-0.4375 0.044963,-0.1064 0.094437,-0.2133 0.1458333,-0.3161 0.1215372,-0.2429 0.2580691,-0.4599 0.4131945,-0.6805 0.1423738,-0.2024 0.2938491,-0.4025 0.4618056,-0.5833 0.023279,-0.025 0.049179,-0.048 0.072917,-0.073 0.023372,-0.024 0.049109,-0.049 0.072917,-0.073 0.1564999,-0.1565 0.3358857,-0.3008 0.5104167,-0.4375 0.2140491,-0.1675 0.418215,-0.3273 0.65625,-0.4617 0.024788,-0.014 0.047888,-0.035 0.072917,-0.048 0.2154716,-0.117 0.448756,-0.204 0.6805555,-0.2916 0.598101,-0.226 1.2429419,-0.3646 1.9201389,-0.3646 z m 0,0.7777 c -0.582587,0 -1.1385583,0.121 -1.6527775,0.316 L 11,1041.3622 l 0,-4.6667 z"
       id="path5679"
       inkscape:connector-curvature="0" />
  </g>
</svg>
