<?xml version="1.0" encoding="UTF-8" standalone="no"?>
<!-- Created with Inkscape (http://www.inkscape.org/) -->

<svg
   xmlns:dc="http://purl.org/dc/elements/1.1/"
   xmlns:cc="http://creativecommons.org/ns#"
   xmlns:rdf="http://www.w3.org/1999/02/22-rdf-syntax-ns#"
   xmlns:svg="http://www.w3.org/2000/svg"
   xmlns="http://www.w3.org/2000/svg"
   xmlns:sodipodi="http://sodipodi.sourceforge.net/DTD/sodipodi-0.dtd"
   xmlns:inkscape="http://www.inkscape.org/namespaces/inkscape"
   width="22"
   height="22"
   id="svg2"
   version="1.1"
   inkscape:version="0.91 r"
   sodipodi:docname="pomodoro-indicator-light-30.svg">
  <defs
     id="defs4" />
  <sodipodi:namedview
     id="base"
     pagecolor="#ffffff"
     bordercolor="#666666"
     borderopacity="1.0"
     inkscape:pageopacity="0.0"
     inkscape:pageshadow="2"
     inkscape:zoom="23.681818"
     inkscape:cx="3.3992322"
     inkscape:cy="14.378119"
     inkscape:document-units="px"
     inkscape:current-layer="layer1"
     showgrid="false"
     inkscape:window-width="960"
     inkscape:window-height="844"
     inkscape:window-x="638"
     inkscape:window-y="30"
     inkscape:window-maximized="0" />
  <metadata
     id="metadata7">
    <rdf:RDF>
      <cc:Work
         rdf:about="">
        <dc:format>image/svg+xml</dc:format>
        <dc:type
           rdf:resource="http://purl.org/dc/dcmitype/StillImage" />
        <dc:title />
      </cc:Work>
    </rdf:RDF>
  </metadata>
  <g
     inkscape:label="Capa 1"
     inkscape:groupmode="layer"
     id="layer1"
     transform="translate(0,-1030.3622)">
    <path
       style="fill:#ffffff;fill-opacity:1;stroke:none"
       d="m 11.000002,1034.3622 c -1.6548007,0 -3.1768049,0.5712 -4.3750025,1.5313 l -1.4097219,-1.4097 -1.0937497,1.0937 1.4097219,1.4097 c -0.9600343,1.1982 -1.5312497,2.7202 -1.5312497,4.375 0,3.866 3.1340082,7 7.0000019,7 3.865998,0 6.999998,-3.134 6.999998,-7 0,-1.6548 -0.571207,-3.1768 -1.531249,-4.375 l 1.409721,-1.4097 -1.093749,-1.0937 -1.409722,1.4097 c -1.19819,-0.9601 -2.7202,-1.5313 -4.374999,-1.5313 z m 0,1.5556 c 3.00688,0 5.444443,2.4375 5.444443,5.4444 0,3.0069 -2.437563,5.4444 -5.444443,5.4444 -3.0068814,0 -5.4444466,-2.4375 -5.4444466,-5.4444 0,-0.2308 0.020767,-0.4573 0.048611,-0.6806 0.010811,-0.084 0.033911,-0.1602 0.048611,-0.243 0.027922,-0.1625 0.055222,-0.3288 0.097222,-0.4861 0.044878,-0.1679 0.11004,-0.325 0.1701389,-0.4861 0.026989,-0.071 0.043089,-0.1491 0.072878,-0.2187 0.023878,-0.057 0.047133,-0.1146 0.072878,-0.1702 0.065878,-0.1422 0.1412444,-0.278 0.2187499,-0.4132 0.9386921,-1.6376 2.6923885,-2.7465 4.7152798,-2.7465 z m 0,0.7777 c -1.739695,0 -3.2565038,0.9463 -4.0590303,2.3577 l 4.0590303,2.309 0,-4.6667 z"
       id="path5659"
       inkscape:connector-curvature="0" />
  </g>
</svg>
