<?xml version="1.0" encoding="UTF-8" standalone="no"?>
<!-- Created with Inkscape (http://www.inkscape.org/) -->

<svg
   xmlns:dc="http://purl.org/dc/elements/1.1/"
   xmlns:cc="http://creativecommons.org/ns#"
   xmlns:rdf="http://www.w3.org/1999/02/22-rdf-syntax-ns#"
   xmlns:svg="http://www.w3.org/2000/svg"
   xmlns="http://www.w3.org/2000/svg"
   xmlns:sodipodi="http://sodipodi.sourceforge.net/DTD/sodipodi-0.dtd"
   xmlns:inkscape="http://www.inkscape.org/namespaces/inkscape"
   width="22"
   height="22"
   id="svg2"
   version="1.1"
   inkscape:version="0.91 r"
   sodipodi:docname="pomodoro-indicator-light.svg">
  <defs
     id="defs4" />
  <sodipodi:namedview
     id="base"
     pagecolor="#ffffff"
     bordercolor="#666666"
     borderopacity="1.0"
     inkscape:pageopacity="0.0"
     inkscape:pageshadow="2"
     inkscape:zoom="3.959798"
     inkscape:cx="1.6082378"
     inkscape:cy="45.211691"
     inkscape:document-units="px"
     inkscape:current-layer="layer1"
     showgrid="false"
     inkscape:window-width="960"
     inkscape:window-height="844"
     inkscape:window-x="10"
     inkscape:window-y="30"
     inkscape:window-maximized="0" />
  <metadata
     id="metadata7">
    <rdf:RDF>
      <cc:Work
         rdf:about="">
        <dc:format>image/svg+xml</dc:format>
        <dc:type
           rdf:resource="http://purl.org/dc/dcmitype/StillImage" />
        <dc:title />
      </cc:Work>
    </rdf:RDF>
  </metadata>
  <g
     inkscape:label="Capa 1"
     inkscape:groupmode="layer"
     id="layer1"
     transform="translate(0,-1030.3622)">
    <path
       style="fill:#ffffff;fill-opacity:1;stroke:none"
       d="m 11.000001,1034.3622 c -1.654807,0 -3.1768113,0.5712 -4.3750013,1.5313 l -1.409722,-1.4097 -1.0937498,1.0937 1.4097221,1.4097 c -0.9600422,1.1982 -1.5312499,2.7202 -1.5312499,4.375 0,3.866 3.1340007,7 7.0000009,7 3.865992,0 6.999999,-3.134 6.999999,-7 0,-1.6548 -0.571215,-3.1768 -1.531249,-4.375 l 1.409722,-1.4097 -1.09375,-1.0937 -1.409722,1.4097 c -1.198197,-0.9601 -2.7202,-1.5313 -4.375,-1.5313 z m 0,1.5556 c 3.006889,0 5.444444,2.4375 5.444444,5.4444 0,3.0069 -2.437555,5.4444 -5.444444,5.4444 -3.0068826,0 -5.4444456,-2.4375 -5.4444456,-5.4444 0,-0.1635 0.010189,-0.3263 0.024267,-0.4861 0.00233,-0.023 -0.00233,-0.049 0,-0.073 0.0119,-0.1172 0.053744,-0.2255 0.072878,-0.3403 0.0084,-0.048 0.014622,-0.098 0.024267,-0.1458 0.00793,-0.041 0.015478,-0.082 0.024267,-0.1216 0.024033,-0.1068 0.042933,-0.2116 0.072878,-0.3159 0.037411,-0.1326 0.074589,-0.2607 0.1215277,-0.3889 0.763311,-2.0848 2.7550464,-3.573 5.1041679,-3.573 z m 0,0.7777 c -2.0135336,0 -3.7207346,1.2757 -4.3750013,3.0625 l 4.3750013,1.6042 0,-4.6667 z"
       id="path5654"
       inkscape:connector-curvature="0" />
    <flowRoot
       xml:space="preserve"
       id="flowRoot4462"
       style="font-size:40px;font-style:normal;font-weight:normal;line-height:125%;letter-spacing:0px;word-spacing:0px;fill:#000000;fill-opacity:1;stroke:none;font-family:Sans"
       transform="translate(0,1030.3622)"><flowRegion
         id="flowRegion4464"><rect
           id="rect4466"
           width="49.750011"
           height="47.982246"
           x="0"
           y="-123.71451" /></flowRegion><flowPara
         id="flowPara4468">00000000</flowPara></flowRoot>  </g>
</svg>
