<?xml version="1.0" encoding="UTF-8" standalone="no"?>
<svg
   xmlns:dc="http://purl.org/dc/elements/1.1/"
   xmlns:cc="http://creativecommons.org/ns#"
   xmlns:rdf="http://www.w3.org/1999/02/22-rdf-syntax-ns#"
   xmlns:svg="http://www.w3.org/2000/svg"
   xmlns="http://www.w3.org/2000/svg"
   xmlns:xlink="http://www.w3.org/1999/xlink"
   xmlns:sodipodi="http://sodipodi.sourceforge.net/DTD/sodipodi-0.dtd"
   xmlns:inkscape="http://www.inkscape.org/namespaces/inkscape"
   version="1.1"
   width="24"
   height="24"
   id="svg2"
   inkscape:version="0.91 r"
   sodipodi:docname="vlc.svg">
  <metadata
     id="metadata15">
    <rdf:RDF>
      <cc:Work
         rdf:about="">
        <dc:format>image/svg+xml</dc:format>
        <dc:type
           rdf:resource="http://purl.org/dc/dcmitype/StillImage" />
        <dc:title></dc:title>
      </cc:Work>
    </rdf:RDF>
  </metadata>
  <sodipodi:namedview
     pagecolor="#444444"
     bordercolor="#666666"
     borderopacity="1"
     objecttolerance="10"
     gridtolerance="10"
     guidetolerance="10"
     inkscape:pageopacity="0"
     inkscape:pageshadow="2"
     inkscape:window-width="1600"
     inkscape:window-height="845"
     id="namedview13"
     showgrid="false"
     inkscape:zoom="1"
     inkscape:cx="13.432895"
     inkscape:cy="12"
     inkscape:window-x="0"
     inkscape:window-y="30"
     inkscape:window-maximized="1"
     inkscape:current-layer="svg2" />
  <defs
     id="defs4">
    <linearGradient
       gradientTransform="translate(-1,-2)"
       gradientUnits="userSpaceOnUse"
       xlink:href="#linearGradient3678"
       id="linearGradient2868"
       y2="19"
       x2="8.9254236"
       y1="5.9997859"
       x1="8.9254236" />
    <linearGradient
       id="linearGradient3678">
      <stop
         offset="0"
         style="stop-color:#ffffff;stop-opacity:1"
         id="stop3680" />
      <stop
         offset="1"
         style="stop-color:#e6e6e6;stop-opacity:1"
         id="stop3682" />
    </linearGradient>
    <linearGradient
       gradientTransform="translate(-2,-1)"
       gradientUnits="userSpaceOnUse"
       xlink:href="#linearGradient3678"
       id="linearGradient2393"
       y2="21"
       x2="9"
       y1="3"
       x1="9" />
    <clipPath
       id="clipPath4145">
      <g
         id="g4147"
         transform="translate(0,-1004.3622)">
        <path
           id="path4149"
           fill="#1890d0"
           transform="matrix(15.333333,0,0,11.5,414.99999,878.8622)"
           d="m -24 13 c 0 1.105 -0.672 2 -1.5 2 -0.828 0 -1.5 -0.895 -1.5 -2 0 -1.105 0.672 -2 1.5 -2 0.828 0 1.5 0.895 1.5 2 z" />
      </g>
    </clipPath>
    <clipPath
       id="clipPath4151">
      <g
         id="g4153"
         transform="translate(0,-1004.3622)">
        <path
           id="path4155"
           fill="#1890d0"
           transform="matrix(15.333333,0,0,11.5,414.99999,878.8622)"
           d="m -24 13 c 0 1.105 -0.672 2 -1.5 2 -0.828 0 -1.5 -0.895 -1.5 -2 0 -1.105 0.672 -2 1.5 -2 0.828 0 1.5 0.895 1.5 2 z" />
      </g>
    </clipPath>
    <linearGradient
       x2="43.44"
       x1="7.781"
       gradientTransform="matrix(1.115973,0,0,1.115973,-3.038375,-2.730839)"
       gradientUnits="userSpaceOnUse"
       id="linearGradient3094">
      <stop
         id="stop4158"
         stop-opacity="1"
         stop-color="#e5e5e5" />
      <stop
         id="stop4160"
         stop-opacity="1"
         stop-color="#f9f9f9"
         offset="0.5" />
      <stop
         id="stop4162"
         stop-opacity="1"
         stop-color="#e5e5e5"
         offset="1" />
    </linearGradient>
    <linearGradient
       x2="47"
       x1="1"
       gradientTransform="matrix(0,-1,1,0,-1.5e-6,47.999998)"
       gradientUnits="userSpaceOnUse"
       id="linearGradient3108">
      <stop
         id="stop4165"
         stop-opacity="1"
         stop-color="#ffab09" />
      <stop
         id="stop4167"
         stop-opacity="1"
         stop-color="#ffb31d"
         offset="1" />
    </linearGradient>
  </defs>
  <g
     id="g4201"
     transform="translate(0.249975,0)" />
  <g
     id="g4207"
     transform="matrix(0,1,-1,0,24,0.249975)" />
  <path
     style="opacity:1;fill:#ffffff;fill-opacity:1;stroke:none;stroke-width:1;stroke-linecap:round;stroke-linejoin:round;stroke-miterlimit:4;stroke-dasharray:none;stroke-opacity:1"
     d="M 12,4 C 11.833157,4 11.666913,4.1563983 11.539062,4.46875 L 6,18 5,18 c -0.554,0 -1,0.446 -1,1 0,0.554 0.446,1 1,1 l 14,0 c 0.554,0 1,-0.446 1,-1 0,-0.554 -0.446,-1 -1,-1 L 18,18 12.460938,4.46875 C 12.333088,4.1563982 12.166843,4 12,4 Z m 0,2 c 0.139115,0 0.278231,0.1346137 0.384766,0.4023438 L 17,18 7,18 11.615234,6.4023438 C 11.721772,6.1346137 11.860885,6 12,6 Z M 11.300781,10 11,11 l 2,0 -0.300781,-1 -1.398438,0 z m -1,3 L 10,14 l 4,0 -0.300781,-1 -3.398438,0 z M 9.3007812,16 9,17 l 6,0 -0.300781,-1 -5.3984378,0 z"
     id="rect4220"
     inkscape:connector-curvature="0" />
  <g
     id="g4259" />
</svg>
