<?xml version="1.0" encoding="UTF-8" standalone="no"?>
<!-- Created with Inkscape (http://www.inkscape.org/) -->

<svg
   xmlns:dc="http://purl.org/dc/elements/1.1/"
   xmlns:cc="http://creativecommons.org/ns#"
   xmlns:rdf="http://www.w3.org/1999/02/22-rdf-syntax-ns#"
   xmlns:svg="http://www.w3.org/2000/svg"
   xmlns="http://www.w3.org/2000/svg"
   xmlns:xlink="http://www.w3.org/1999/xlink"
   xmlns:sodipodi="http://sodipodi.sourceforge.net/DTD/sodipodi-0.dtd"
   xmlns:inkscape="http://www.inkscape.org/namespaces/inkscape"
   version="1.0"
   width="22"
   height="22"
   id="svg2403"
   inkscape:version="0.91 r13725"
   sodipodi:docname="deluge.svg">
  <sodipodi:namedview
     pagecolor="#3e3e3e"
     bordercolor="#666666"
     borderopacity="1"
     objecttolerance="10"
     gridtolerance="10"
     guidetolerance="10"
     inkscape:pageopacity="0.80784314"
     inkscape:pageshadow="2"
     inkscape:window-width="1535"
     inkscape:window-height="876"
     id="namedview12"
     showgrid="false"
     inkscape:zoom="9.8333333"
     inkscape:cx="-31.779661"
     inkscape:cy="12"
     inkscape:window-x="65"
     inkscape:window-y="24"
     inkscape:window-maximized="1"
     inkscape:current-layer="svg2403" />
  <metadata
     id="metadata15">
    <rdf:RDF>
      <cc:Work
         rdf:about="">
        <dc:format>image/svg+xml</dc:format>
        <dc:type
           rdf:resource="http://purl.org/dc/dcmitype/StillImage" />
        <dc:title />
      </cc:Work>
    </rdf:RDF>
  </metadata>
  <defs
     id="defs2405">
    <linearGradient
       x1="11.644068"
       y1="2.4988678"
       x2="11.644068"
       y2="15.00281"
       id="linearGradient2392"
       xlink:href="#linearGradient3678"
       gradientUnits="userSpaceOnUse"
       gradientTransform="translate(-17.090416,3)" />
    <linearGradient
       x1="8.4964771"
       y1="-0.061573759"
       x2="8.4964771"
       y2="8.083209"
       id="linearGradient2395"
       xlink:href="#linearGradient3678"
       gradientUnits="userSpaceOnUse"
       gradientTransform="matrix(1.0526316,0,0,0.9843625,2.5789474,3.0602428)" />
    <linearGradient
       id="linearGradient3678">
      <stop
         id="stop3680"
         style="stop-color:#ffffff;stop-opacity:1"
         offset="0" />
      <stop
         id="stop3682"
         style="stop-color:#e6e6e6;stop-opacity:1"
         offset="1" />
    </linearGradient>
    <linearGradient
       x1="159.68553"
       y1="14.403693"
       x2="159.68553"
       y2="38.279892"
       id="linearGradient2388"
       xlink:href="#linearGradient3678"
       gradientUnits="userSpaceOnUse"
       gradientTransform="matrix(-0.4100229,0,0,0.5447147,78.029995,-3.8459034)" />
  </defs>
  <path
     inkscape:connector-curvature="0"
     d="M 10.902552,3 C 9.0608699,5.841762 7.2270192,8.823323 5.6960559,11.219178 5.2677144,11.955295 5.0000001,12.770946 5.0000001,13.657534 5.0000001,16.610235 7.7025681,19 11.013923,19 14.325275,19 17,16.610235 17,13.657534 16.92263,12.704473 16.695268,11.824323 16.276103,11.109589 14.442518,8.3306181 12.493373,5.404599 10.902552,3 Z m -0.13921,6.246575 c 0.420144,-0.02993 0.773107,0.01557 1.280742,0.136986 -0.911639,0.0994 -4.6439551,1.086213 -4.7888632,4.821918 -0.00327,1.250678 0.3298376,2.767686 3.4245932,3.863014 C 9.1224499,17.862915 8.7368108,17.68655 8.1740147,17.383561 7.1118061,16.811708 6.2459039,15.715801 5.9744787,14.69863 5.356981,12.384548 7.2959187,9.749969 10.317866,9.30137 c 0.16381,-0.02432 0.305427,-0.04482 0.445476,-0.0548 z"
     id="path3768"
     style="fill:#ffffff;fill-opacity:1;fill-rule:nonzero;stroke:none" />
</svg>
