<?xml version="1.0" encoding="UTF-8" standalone="no"?>
<!-- Created with Inkscape (http://www.inkscape.org/) -->

<svg
   xmlns:dc="http://purl.org/dc/elements/1.1/"
   xmlns:cc="http://creativecommons.org/ns#"
   xmlns:rdf="http://www.w3.org/1999/02/22-rdf-syntax-ns#"
   xmlns:svg="http://www.w3.org/2000/svg"
   xmlns="http://www.w3.org/2000/svg"
   xmlns:xlink="http://www.w3.org/1999/xlink"
   xmlns:sodipodi="http://sodipodi.sourceforge.net/DTD/sodipodi-0.dtd"
   xmlns:inkscape="http://www.inkscape.org/namespaces/inkscape"
   version="1.0"
   width="22"
   height="22"
   id="svg4431"
   inkscape:version="0.91 r13725"
   sodipodi:docname="diodon-panel.svg">
  <sodipodi:namedview
     pagecolor="#353535"
     bordercolor="#666666"
     borderopacity="1"
     objecttolerance="10"
     gridtolerance="10"
     guidetolerance="10"
     inkscape:pageopacity="0.63529412"
     inkscape:pageshadow="2"
     inkscape:window-width="1535"
     inkscape:window-height="876"
     id="namedview16"
     showgrid="false"
     inkscape:zoom="9.95"
     inkscape:cx="-9.7688381"
     inkscape:cy="10.409162"
     inkscape:window-x="65"
     inkscape:window-y="24"
     inkscape:window-maximized="1"
     inkscape:current-layer="svg4431" />
  <metadata
     id="metadata16">
    <rdf:RDF>
      <cc:Work
         rdf:about="">
        <dc:format>image/svg+xml</dc:format>
        <dc:type
           rdf:resource="http://purl.org/dc/dcmitype/StillImage" />
        <dc:title />
      </cc:Work>
    </rdf:RDF>
  </metadata>
  <defs
     id="defs4433">
    <linearGradient
       x1="50.925655"
       y1="11.648451"
       x2="73.986542"
       y2="11.648451"
       id="linearGradient2390"
       xlink:href="#linearGradient3678"
       gradientUnits="userSpaceOnUse"
       gradientTransform="matrix(0,0.7805424,-0.7617909,0,28.873684,-37.749634)" />
    <linearGradient
       x1="9"
       y1="3"
       x2="9"
       y2="21"
       id="linearGradient2393"
       xlink:href="#linearGradient3678"
       gradientUnits="userSpaceOnUse"
       gradientTransform="translate(-2,-1)" />
    <linearGradient
       x1="15"
       y1="8"
       x2="15"
       y2="20"
       id="linearGradient3692"
       xlink:href="#linearGradient3678"
       gradientUnits="userSpaceOnUse" />
    <linearGradient
       x1="9.1701241"
       y1="3"
       x2="9.311203"
       y2="15"
       id="linearGradient3684"
       xlink:href="#linearGradient3678"
       gradientUnits="userSpaceOnUse" />
    <linearGradient
       id="linearGradient3678">
      <stop
         id="stop3680"
         style="stop-color:#ffffff;stop-opacity:1"
         offset="0" />
      <stop
         id="stop3682"
         style="stop-color:#e6e6e6;stop-opacity:1"
         offset="1" />
    </linearGradient>
    <linearGradient
       x1="9.1701241"
       y1="3"
       x2="9.311203"
       y2="15"
       id="linearGradient3640"
       xlink:href="#linearGradient3678"
       gradientUnits="userSpaceOnUse"
       gradientTransform="translate(-22.566265,-7.7349402)" />
    <linearGradient
       x1="15"
       y1="8"
       x2="15"
       y2="20"
       id="linearGradient3643"
       xlink:href="#linearGradient3678"
       gradientUnits="userSpaceOnUse"
       gradientTransform="translate(-22.566265,-7.7349402)" />
  </defs>
  <path
     inkscape:connector-curvature="0"
     d="m 18.141181,14.253392 c 1.182405,1.097609 1.121525,2.827542 -0.0448,3.910642 -1.169045,1.078834 -3.038734,1.135582 -4.224579,0.04117 L 4.1166385,9.1745311 C 2.5795116,7.7471072 2.657112,5.5009062 4.1782385,4.0894822 5.7037653,2.6827512 8.1303363,2.6110702 9.672184,4.0333822 L 17.8019,11.558984 c 0.17992,0.166186 0.17992,0.435626 0,0.601175 -0.179681,0.166401 -0.470243,0.167041 -0.650003,6.49e-4 L 9.021461,4.6358452 c -1.1722457,-1.083741 -3.0000943,-1.040008 -4.1932196,0.055682 -1.1831253,1.103154 -1.2298455,2.795541 -0.0584,3.881201 l 9.7547636,9.0306748 c 0.817604,0.753713 2.087609,0.725553 2.924173,-0.04117 0.829844,-0.775686 0.858804,-1.950094 0.0456,-2.707646 L 9.365223,7.3296212 c -0.4222427,-0.391256 -1.1043257,-0.376963 -1.5872077,0.06122 -0.4723225,0.446296 -0.4880026,1.077554 -0.064,1.468809 l 7.3159527,6.7725268 c 0.180561,0.166188 0.179921,0.435629 0,0.601817 -0.179521,0.166189 -0.470882,0.166829 -0.650563,6.47e-4 L 7.0636927,9.4608371 C 6.2569691,8.7120322 6.3354494,7.5258892 7.1284927,6.7890302 7.9257763,6.0532392 9.207623,5.9815582 10.016346,6.7271702 l 8.128436,7.5262408 z"
     style="fill:#ffffff;fill-opacity:1;fill-rule:nonzero;stroke:none"
     id="path108" />
</svg>
