<?xml version="1.0" encoding="UTF-8" standalone="no"?>
<svg
   xmlns:dc="http://purl.org/dc/elements/1.1/"
   xmlns:cc="http://creativecommons.org/ns#"
   xmlns:rdf="http://www.w3.org/1999/02/22-rdf-syntax-ns#"
   xmlns:svg="http://www.w3.org/2000/svg"
   xmlns="http://www.w3.org/2000/svg"
   xmlns:sodipodi="http://sodipodi.sourceforge.net/DTD/sodipodi-0.dtd"
   xmlns:inkscape="http://www.inkscape.org/namespaces/inkscape"
   id="svg3167"
   height="22"
   width="22"
   version="1.0"
   inkscape:version="0.91 r13725"
   sodipodi:docname="nm-signal-00.svg">
  <sodipodi:namedview
     pagecolor="#ffffff"
     bordercolor="#666666"
     borderopacity="1"
     objecttolerance="10"
     gridtolerance="10"
     guidetolerance="10"
     inkscape:pageopacity="0"
     inkscape:pageshadow="2"
     inkscape:window-width="1600"
     inkscape:window-height="814"
     id="namedview6"
     showgrid="false"
     inkscape:zoom="9.8333333"
     inkscape:cx="-4.5254237"
     inkscape:cy="12"
     inkscape:window-x="0"
     inkscape:window-y="24"
     inkscape:window-maximized="1"
     inkscape:current-layer="svg3167" />
  <metadata
     id="metadata20">
    <rdf:RDF>
      <cc:Work
         rdf:about="">
        <dc:format>image/svg+xml</dc:format>
        <dc:type
           rdf:resource="http://purl.org/dc/dcmitype/StillImage" />
        <dc:title></dc:title>
      </cc:Work>
    </rdf:RDF>
  </metadata>
  <defs
     id="defs3169" />
  <path
     style="color:#000000;display:inline;overflow:visible;visibility:visible;opacity:0.4;fill:#4d4d4d;fill-opacity:1;fill-rule:nonzero;stroke:none;stroke-width:1;marker:none;enable-background:accumulate"
     id="path4112-19-69-3-0-8-8"
     d="m 11,5.0355074 c -2.853422,0 -5.468321,1.09634 -7.5,2.9227766 L 4.7959168,9.417647 C 6.6076327,7.829199 8.5135773,7.035506 11,7.035506 c 2.486423,0 4.334381,0.747499 6.23286,2.414286 L 18.5,7.958284 C 16.468321,6.1318474 13.853421,5.0355074 11,5.0355074 Z m 0,3.9999986 c -1.847888,0 -3.5041267,0.736481 -4.8649357,1.861156 l 1.3245282,1.41372 c 0.90637,-0.649172 2.3168195,-1.274876 3.4869315,-1.274876 1.198417,0 2.676027,0.639835 3.595257,1.318069 l 1.364636,-1.477654 C 14.545608,9.751246 12.847888,9.035506 11,9.035506 Z m 0,4 c -0.883784,0 -1.758278,0.463138 -2.1184755,0.860829 L 11,16.2 13.139037,13.916897 C 12.77884,13.498644 11.883784,13.035506 11,13.035506 Z"
     inkscape:connector-curvature="0" />
</svg>
