<?xml version="1.0" encoding="UTF-8" standalone="no"?>
<!-- Created with Inkscape (http://www.inkscape.org/) -->

<svg
   xmlns:dc="http://purl.org/dc/elements/1.1/"
   xmlns:cc="http://creativecommons.org/ns#"
   xmlns:rdf="http://www.w3.org/1999/02/22-rdf-syntax-ns#"
   xmlns:svg="http://www.w3.org/2000/svg"
   xmlns="http://www.w3.org/2000/svg"
   xmlns:sodipodi="http://sodipodi.sourceforge.net/DTD/sodipodi-0.dtd"
   xmlns:inkscape="http://www.inkscape.org/namespaces/inkscape"
   width="22"
   height="22"
   id="svg2"
   version="1.1"
   inkscape:version="0.91 r"
   sodipodi:docname="pomodoro-stop-light.svg">
  <defs
     id="defs4" />
  <sodipodi:namedview
     id="base"
     pagecolor="#ffffff"
     bordercolor="#666666"
     borderopacity="1.0"
     inkscape:pageopacity="0.0"
     inkscape:pageshadow="2"
     inkscape:zoom="31.678384"
     inkscape:cx="2.1088384"
     inkscape:cy="12.373191"
     inkscape:document-units="px"
     inkscape:current-layer="layer1"
     showgrid="false"
     inkscape:window-width="1600"
     inkscape:window-height="845"
     inkscape:window-x="0"
     inkscape:window-y="30"
     inkscape:window-maximized="1" />
  <metadata
     id="metadata7">
    <rdf:RDF>
      <cc:Work
         rdf:about="">
        <dc:format>image/svg+xml</dc:format>
        <dc:type
           rdf:resource="http://purl.org/dc/dcmitype/StillImage" />
        <dc:title />
      </cc:Work>
    </rdf:RDF>
  </metadata>
  <g
     inkscape:label="Capa 1"
     inkscape:groupmode="layer"
     id="layer1"
     transform="translate(0,-1030.3622)">
    <path
       style="fill:#ffffff;fill-opacity:1;stroke:none"
       d="m 11,1034.3622 c -1.6547999,0 -3.1768022,0.5712 -4.375,1.5313 l -1.4097222,-1.4098 -1.09375,1.0938 1.4097222,1.4097 C 4.5712156,1038.1854 4,1039.7074 4,1041.3622 c 0,3.866 3.134009,7 7,7 3.865999,0 7,-3.134 7,-7 0,-1.6548 -0.571208,-3.1768 -1.53125,-4.375 l 1.409722,-1.4097 -1.09375,-1.0938 -1.409722,1.4098 c -1.19819,-0.9601 -2.7202,-1.5313 -4.375,-1.5313 z m 0,1.5556 c 3.006883,0 5.444444,2.4375 5.444444,5.4444 0,3.0069 -2.437561,5.4444 -5.444444,5.4444 -3.0068836,0 -5.4444444,-2.4375 -5.4444444,-5.4444 0,-3.0069 2.4375608,-5.4444 5.4444444,-5.4444 z m -2.7222222,2.7222 0,5.4444 5.4444442,0 0,-2.7222 0,-2.7222 -5.4444442,0 z"
       id="path5689"
       inkscape:connector-curvature="0" />
  </g>
</svg>
