<?xml version="1.0" encoding="UTF-8" standalone="no"?>
<!-- Created with Inkscape (http://www.inkscape.org/) -->

<svg
   xmlns:dc="http://purl.org/dc/elements/1.1/"
   xmlns:cc="http://creativecommons.org/ns#"
   xmlns:rdf="http://www.w3.org/1999/02/22-rdf-syntax-ns#"
   xmlns:svg="http://www.w3.org/2000/svg"
   xmlns="http://www.w3.org/2000/svg"
   xmlns:sodipodi="http://sodipodi.sourceforge.net/DTD/sodipodi-0.dtd"
   xmlns:inkscape="http://www.inkscape.org/namespaces/inkscape"
   width="22"
   height="22"
   id="svg2"
   version="1.1"
   inkscape:version="0.91 r"
   sodipodi:docname="pomodoro-indicator-light-25.svg">
  <defs
     id="defs4" />
  <sodipodi:namedview
     id="base"
     pagecolor="#ffffff"
     bordercolor="#666666"
     borderopacity="1.0"
     inkscape:pageopacity="0.0"
     inkscape:pageshadow="2"
     inkscape:zoom="23.681818"
     inkscape:cx="3.3992322"
     inkscape:cy="14.378119"
     inkscape:document-units="px"
     inkscape:current-layer="layer1"
     showgrid="false"
     inkscape:window-width="960"
     inkscape:window-height="844"
     inkscape:window-x="638"
     inkscape:window-y="30"
     inkscape:window-maximized="0" />
  <metadata
     id="metadata7">
    <rdf:RDF>
      <cc:Work
         rdf:about="">
        <dc:format>image/svg+xml</dc:format>
        <dc:type
           rdf:resource="http://purl.org/dc/dcmitype/StillImage" />
        <dc:title />
      </cc:Work>
    </rdf:RDF>
  </metadata>
  <g
     inkscape:label="Capa 1"
     inkscape:groupmode="layer"
     id="layer1"
     transform="translate(0,-1030.3622)">
    <path
       style="fill:#ffffff;fill-opacity:1;stroke:none"
       d="m 11,1034.3622 c -1.6547997,0 -3.176802,0.5712 -4.3749998,1.5313 l -1.4097222,-1.4097 -1.09375,1.0937 1.4097222,1.4097 c -0.9600344,1.1982 -1.53125,2.7202 -1.53125,4.375 0,3.866 3.1340089,7 6.9999998,7 3.865992,0 7,-3.134 7,-7 0,-1.6548 -0.571216,-3.1768 -1.53125,-4.375 l 1.409723,-1.4097 -1.09375,-1.0937 -1.409723,1.4097 c -1.198197,-0.9601 -2.7202,-1.5313 -4.375,-1.5313 z m 0,1.5556 c 3.006883,0 5.444445,2.4375 5.444445,5.4444 0,3.0069 -2.437562,5.4444 -5.444445,5.4444 -0.265358,0 -0.522573,-0.036 -0.777778,-0.073 -0.03181,-0.01 -0.06559,0.01 -0.09722,0 -0.05029,-0.01 -0.09603,-0.015 -0.1458336,-0.024 -0.2214318,-0.042 -0.4451946,-0.1021 -0.6562493,-0.1701 -0.1481161,-0.048 -0.2953821,-0.1095 -0.4375,-0.1702 -0.056537,-0.024 -0.114597,-0.047 -0.1701389,-0.073 -0.07133,-0.033 -0.1491646,-0.061 -0.21875,-0.097 -0.031803,-0.016 -0.065785,-0.032 -0.097222,-0.048 -0.2004404,-0.1089 -0.3747933,-0.2323 -0.5590278,-0.3646 -0.19551,-0.1404 -0.3840885,-0.2973 -0.5590278,-0.4618 -0.025254,-0.024 -0.048129,-0.048 -0.072917,-0.073 -0.1652288,-0.1612 -0.3423716,-0.3294 -0.4861112,-0.5104 -0.035405,-0.045 -0.063226,-0.1 -0.097222,-0.1458 -0.3133224,-0.4217 -0.5474,-0.8824 -0.7291667,-1.3855 -0.2087299,-0.5776 -0.3402777,-1.1975 -0.3402777,-1.8472 0,-3.0069 2.4375609,-5.4444 5.444444,-5.4444 z m 0,0.7777 c -2.577329,0 -4.6666665,2.0894 -4.6666665,4.6667 0,0.5557 0.1134366,1.0855 0.2916667,1.5799 L 11,1041.3622 l 0,-4.6667 z"
       id="path5634"
       inkscape:connector-curvature="0" />
  </g>
</svg>
