<?xml version="1.0" encoding="UTF-8" standalone="no"?>
<!-- Created with Inkscape (http://www.inkscape.org/) -->

<svg
   xmlns:dc="http://purl.org/dc/elements/1.1/"
   xmlns:cc="http://creativecommons.org/ns#"
   xmlns:rdf="http://www.w3.org/1999/02/22-rdf-syntax-ns#"
   xmlns:svg="http://www.w3.org/2000/svg"
   xmlns="http://www.w3.org/2000/svg"
   xmlns:sodipodi="http://sodipodi.sourceforge.net/DTD/sodipodi-0.dtd"
   xmlns:inkscape="http://www.inkscape.org/namespaces/inkscape"
   width="22"
   height="22"
   id="svg2"
   version="1.1"
   inkscape:version="0.91 r"
   sodipodi:docname="pomodoro-indicator-light-14.svg">
  <defs
     id="defs4" />
  <sodipodi:namedview
     id="base"
     pagecolor="#ffffff"
     bordercolor="#666666"
     borderopacity="1.0"
     inkscape:pageopacity="0.0"
     inkscape:pageshadow="2"
     inkscape:zoom="23.681818"
     inkscape:cx="3.3992322"
     inkscape:cy="14.378119"
     inkscape:document-units="px"
     inkscape:current-layer="layer1"
     showgrid="false"
     inkscape:window-width="960"
     inkscape:window-height="844"
     inkscape:window-x="638"
     inkscape:window-y="30"
     inkscape:window-maximized="0" />
  <metadata
     id="metadata7">
    <rdf:RDF>
      <cc:Work
         rdf:about="">
        <dc:format>image/svg+xml</dc:format>
        <dc:type
           rdf:resource="http://purl.org/dc/dcmitype/StillImage" />
        <dc:title />
      </cc:Work>
    </rdf:RDF>
  </metadata>
  <g
     inkscape:label="Capa 1"
     inkscape:groupmode="layer"
     id="layer1"
     transform="translate(0,-1030.3622)">
    <path
       style="fill:#ffffff;fill-opacity:1;stroke:none"
       d="m 11,1034.3622 c -1.6548,0 -3.1768046,0.5711 -4.375,1.5312 l -1.4097222,-1.4097 -1.09375,1.0938 1.4097222,1.4097 C 4.5712132,1038.1854 4,1039.7074 4,1041.3622 c 0,3.866 3.1340073,7 7,7 3.865993,0 7,-3.134 7,-7 0,-1.6548 -0.571213,-3.1768 -1.53125,-4.375 l 1.409722,-1.4097 -1.09375,-1.0938 -1.409722,1.4097 c -1.198195,-0.9601 -2.7202,-1.5312 -4.375,-1.5312 z m 0,1.5556 c 3.006883,0 5.444444,2.4375 5.444444,5.4444 0,0.1879 -0.0058,0.376 -0.02431,0.559 -0.0017,0.016 0.0019,0.033 0,0.048 -0.0184,0.1665 -0.06415,0.3245 -0.09722,0.4861 -0.0081,0.04 -0.01535,0.082 -0.02431,0.1216 -0.03106,0.136 -0.05618,0.2812 -0.09722,0.4131 -0.0052,0.017 -0.01892,0.032 -0.02431,0.048 -0.0488,0.1512 -0.108862,0.2922 -0.170139,0.4375 -0.03128,0.074 -0.06282,0.1463 -0.09722,0.2188 -0.0031,0.01 0.0032,0.018 0,0.024 -0.082,0.1709 -0.168746,0.3499 -0.267361,0.5104 -0.03752,0.061 -0.08173,0.1112 -0.121528,0.1701 -0.06899,0.1031 -0.143135,0.1938 -0.21875,0.2917 -0.03204,0.041 -0.06403,0.081 -0.09722,0.1216 -0.01396,0.017 -0.03445,0.032 -0.04861,0.048 -0.09751,0.1163 -0.209294,0.2325 -0.315972,0.3403 -0.111123,0.111 -0.219929,0.239 -0.340278,0.3402 -0.946714,0.7962 -2.166125,1.2639 -3.5,1.2639 -3.0068834,0 -5.4444444,-2.4375 -5.4444444,-5.4444 0,-3.0069 2.437561,-5.4445 5.4444444,-5.4445 z m 0,0.7777 c -2.5773292,0 -4.6666667,2.0894 -4.6666667,4.6667 0,2.5773 2.0893375,4.6667 4.6666667,4.6667 1.139899,0 2.179137,-0.415 2.989583,-1.0938 L 11,1041.3622 l 0,-4.6667 z"
       id="path5579"
       inkscape:connector-curvature="0" />
  </g>
</svg>
