<?xml version="1.0" encoding="UTF-8" standalone="no"?>
<!-- Created with Inkscape (http://www.inkscape.org/) -->

<svg
   xmlns:dc="http://purl.org/dc/elements/1.1/"
   xmlns:cc="http://creativecommons.org/ns#"
   xmlns:rdf="http://www.w3.org/1999/02/22-rdf-syntax-ns#"
   xmlns:svg="http://www.w3.org/2000/svg"
   xmlns="http://www.w3.org/2000/svg"
   xmlns:sodipodi="http://sodipodi.sourceforge.net/DTD/sodipodi-0.dtd"
   xmlns:inkscape="http://www.inkscape.org/namespaces/inkscape"
   width="22"
   height="22"
   id="svg2"
   version="1.1"
   inkscape:version="0.91 r"
   sodipodi:docname="pomodoro-indicator-light-13.svg">
  <defs
     id="defs4" />
  <sodipodi:namedview
     id="base"
     pagecolor="#ffffff"
     bordercolor="#666666"
     borderopacity="1.0"
     inkscape:pageopacity="0.0"
     inkscape:pageshadow="2"
     inkscape:zoom="23.681818"
     inkscape:cx="3.3992322"
     inkscape:cy="14.378119"
     inkscape:document-units="px"
     inkscape:current-layer="layer1"
     showgrid="false"
     inkscape:window-width="960"
     inkscape:window-height="844"
     inkscape:window-x="638"
     inkscape:window-y="30"
     inkscape:window-maximized="0" />
  <metadata
     id="metadata7">
    <rdf:RDF>
      <cc:Work
         rdf:about="">
        <dc:format>image/svg+xml</dc:format>
        <dc:type
           rdf:resource="http://purl.org/dc/dcmitype/StillImage" />
        <dc:title />
      </cc:Work>
    </rdf:RDF>
  </metadata>
  <g
     inkscape:label="Capa 1"
     inkscape:groupmode="layer"
     id="layer1"
     transform="translate(0,-1030.3622)">
    <path
       style="fill:#ffffff;fill-opacity:1;stroke:none"
       d="m 11,1034.3622 c -1.6548,0 -3.1768046,0.5711 -4.375,1.5312 l -1.4097222,-1.4097 -1.09375,1.0938 1.4097222,1.4097 C 4.5712132,1038.1854 4,1039.7074 4,1041.3622 c 0,3.866 3.1340066,7 7,7 3.865993,0 7,-3.134 7,-7 0,-1.6548 -0.571213,-3.1768 -1.53125,-4.375 l 1.409722,-1.4097 -1.09375,-1.0938 -1.409722,1.4097 c -1.198195,-0.9601 -2.7202,-1.5312 -4.375,-1.5312 z m 0,1.5556 c 3.006883,0 5.444444,2.4375 5.444444,5.4444 0,0.1659 -0.0098,0.3243 -0.02431,0.4861 -0.0021,0.024 0.0024,0.049 0,0.073 -0.01416,0.1375 -0.04868,0.2792 -0.07292,0.4133 -0.0074,0.04 -0.01604,0.081 -0.02431,0.1214 -0.02356,0.1149 -0.04219,0.2283 -0.07292,0.3403 -0.01718,0.063 -0.02924,0.1322 -0.04861,0.1945 -0.02676,0.085 -0.06645,0.1602 -0.09722,0.243 -0.03054,0.083 -0.06278,0.1616 -0.09722,0.2431 -0.02703,0.063 -0.04357,0.1325 -0.07292,0.1944 -0.03047,0.065 -0.06428,0.1308 -0.09722,0.1945 -0.03838,0.073 -0.07992,0.1474 -0.121528,0.2188 -0.06352,0.1097 -0.123647,0.2111 -0.194445,0.3159 -0.01653,0.024 -0.0317,0.049 -0.04861,0.073 -0.08328,0.1191 -0.17506,0.2284 -0.267361,0.3403 -0.0072,0.01 -0.01708,0.015 -0.02431,0.024 -0.998713,1.195 -2.501296,1.9688 -4.180556,1.9688 -3.0068834,0 -5.4444444,-2.4376 -5.4444444,-5.4445 0,-3.0069 2.437561,-5.4444 5.4444444,-5.4444 z m 0,0.7777 c -2.5773292,0 -4.6666667,2.0894 -4.6666667,4.6667 0,2.5773 2.0893375,4.6667 4.6666667,4.6667 1.43743,0 2.716871,-0.6552 3.572917,-1.6772 L 11,1041.3622 l 0,-4.6667 z"
       id="path5574"
       inkscape:connector-curvature="0" />
  </g>
</svg>
