<?xml version="1.0" encoding="UTF-8" standalone="no"?>
<!-- Created with Inkscape (http://www.inkscape.org/) -->

<svg
   xmlns:dc="http://purl.org/dc/elements/1.1/"
   xmlns:cc="http://creativecommons.org/ns#"
   xmlns:rdf="http://www.w3.org/1999/02/22-rdf-syntax-ns#"
   xmlns:svg="http://www.w3.org/2000/svg"
   xmlns="http://www.w3.org/2000/svg"
   xmlns:sodipodi="http://sodipodi.sourceforge.net/DTD/sodipodi-0.dtd"
   xmlns:inkscape="http://www.inkscape.org/namespaces/inkscape"
   width="22"
   height="22"
   id="svg2"
   version="1.1"
   inkscape:version="0.91 r"
   sodipodi:docname="pomodoro-indicator-light-05.svg">
  <defs
     id="defs4" />
  <sodipodi:namedview
     id="base"
     pagecolor="#ffffff"
     bordercolor="#666666"
     borderopacity="1.0"
     inkscape:pageopacity="0.0"
     inkscape:pageshadow="2"
     inkscape:zoom="23.681818"
     inkscape:cx="3.3992322"
     inkscape:cy="11"
     inkscape:document-units="px"
     inkscape:current-layer="layer1"
     showgrid="false"
     inkscape:window-width="960"
     inkscape:window-height="844"
     inkscape:window-x="638"
     inkscape:window-y="30"
     inkscape:window-maximized="0" />
  <metadata
     id="metadata7">
    <rdf:RDF>
      <cc:Work
         rdf:about="">
        <dc:format>image/svg+xml</dc:format>
        <dc:type
           rdf:resource="http://purl.org/dc/dcmitype/StillImage" />
        <dc:title />
      </cc:Work>
    </rdf:RDF>
  </metadata>
  <g
     inkscape:label="Capa 1"
     inkscape:groupmode="layer"
     id="layer1"
     transform="translate(0,-1030.3622)">
    <path
       style="fill:#ffffff;fill-opacity:1;stroke:none"
       d="m 11,1034.3622 c -1.6548008,0 -3.1768046,0.5712 -4.375,1.5313 l -1.4097222,-1.4097 -1.09375,1.0937 1.4097222,1.4097 C 4.5712124,1038.1854 4,1039.7074 4,1041.3622 c 0,3.866 3.1340066,7 7,7 3.865993,0 7,-3.134 7,-7 0,-1.6548 -0.571213,-3.1768 -1.53125,-4.375 l 1.409722,-1.4097 -1.09375,-1.0937 -1.409722,1.4097 c -1.198195,-0.9601 -2.7202,-1.5313 -4.375,-1.5313 z m 0,1.5556 c 0.187931,0 0.376002,0.01 0.559028,0.024 0.01628,0 0.03237,0 0.04861,0 0.166486,0.019 0.324495,0.064 0.486111,0.097 0.03954,0.01 0.0823,0.015 0.121528,0.024 0.136057,0.031 0.28123,0.056 0.413194,0.097 0.01679,0.01 0.03189,0.019 0.04861,0.024 0.1513,0.049 0.292222,0.1088 0.4375,0.1701 0.07416,0.031 0.146293,0.063 0.21875,0.097 0.08766,0.042 0.182359,0.075 0.267361,0.1215 0.04076,0.022 0.0814,0.05 0.121528,0.073 0.109815,0.064 0.211179,0.1237 0.315972,0.1945 0.04949,0.033 0.09751,0.062 0.145834,0.097 0.09388,0.068 0.178122,0.1451 0.267361,0.2188 0.01708,0.014 0.0317,0.034 0.04861,0.048 0.1164,0.097 0.232584,0.2093 0.340278,0.3159 0.116871,0.1159 0.23445,0.2145 0.340278,0.3403 0.796271,0.9467 1.263888,2.1661 1.263888,3.5 0,3.0069 -2.437561,5.4445 -5.444444,5.4445 -3.0068835,0 -5.4444445,-2.4376 -5.4444445,-5.4445 0,-3.0069 2.437561,-5.4444 5.4444445,-5.4444 z m 0,0.7777 c -2.5773292,0 -4.6666667,2.0894 -4.6666667,4.6667 0,2.5773 2.0893375,4.6667 4.6666667,4.6667 2.577329,0 4.666667,-2.0894 4.666667,-4.6667 0,-1.1399 -0.414895,-2.1791 -1.09375,-2.9895 L 11,1041.3622 l 0,-4.6667 z"
       id="path5533"
       inkscape:connector-curvature="0" />
  </g>
</svg>
