<?xml version="1.0" encoding="UTF-8" standalone="no"?>
<!-- Created with Inkscape (http://www.inkscape.org/) -->

<svg
   xmlns:dc="http://purl.org/dc/elements/1.1/"
   xmlns:cc="http://creativecommons.org/ns#"
   xmlns:rdf="http://www.w3.org/1999/02/22-rdf-syntax-ns#"
   xmlns:svg="http://www.w3.org/2000/svg"
   xmlns="http://www.w3.org/2000/svg"
   xmlns:sodipodi="http://sodipodi.sourceforge.net/DTD/sodipodi-0.dtd"
   xmlns:inkscape="http://www.inkscape.org/namespaces/inkscape"
   width="22"
   height="22"
   id="svg2"
   version="1.1"
   inkscape:version="0.91 r"
   sodipodi:docname="pomodoro-indicator-light-20.svg">
  <defs
     id="defs4" />
  <sodipodi:namedview
     id="base"
     pagecolor="#ffffff"
     bordercolor="#666666"
     borderopacity="1.0"
     inkscape:pageopacity="0.0"
     inkscape:pageshadow="2"
     inkscape:zoom="23.681818"
     inkscape:cx="3.3992322"
     inkscape:cy="14.378119"
     inkscape:document-units="px"
     inkscape:current-layer="layer1"
     showgrid="false"
     inkscape:window-width="960"
     inkscape:window-height="844"
     inkscape:window-x="638"
     inkscape:window-y="30"
     inkscape:window-maximized="0" />
  <metadata
     id="metadata7">
    <rdf:RDF>
      <cc:Work
         rdf:about="">
        <dc:format>image/svg+xml</dc:format>
        <dc:type
           rdf:resource="http://purl.org/dc/dcmitype/StillImage" />
        <dc:title />
      </cc:Work>
    </rdf:RDF>
  </metadata>
  <g
     inkscape:label="Capa 1"
     inkscape:groupmode="layer"
     id="layer1"
     transform="translate(0,-1030.3622)">
    <path
       style="fill:#ffffff;fill-opacity:1;stroke:none"
       d="m 11.000002,1034.3622 c -1.6547997,0 -3.1768014,0.5712 -4.3750027,1.5313 l -1.4097218,-1.4097 -1.0937497,1.0937 1.4097219,1.4097 c -0.9600342,1.1982 -1.5312496,2.7202 -1.5312496,4.375 0,3.866 3.1340079,7 7.0000019,7 3.86599,0 6.999998,-3.134 6.999998,-7 0,-1.6548 -0.571215,-3.1768 -1.531249,-4.375 l 1.409721,-1.4097 -1.093749,-1.0937 -1.409722,1.4097 c -1.198197,-0.9601 -2.720199,-1.5313 -4.374999,-1.5313 z m 0,1.5556 c 3.006888,0 5.444443,2.4375 5.444443,5.4444 0,3.0069 -2.437555,5.4444 -5.444443,5.4444 -0.188556,0 -0.375456,-0.01 -0.559027,-0.024 -0.141291,-0.015 -0.275303,-0.048 -0.413195,-0.073 -0.041067,-0.01 -0.080796,-0.015 -0.1215278,-0.024 -0.024733,-0.01 -0.0483,-0.019 -0.072878,-0.024 -0.1068355,-0.024 -0.2115633,-0.043 -0.3159721,-0.073 -0.1325877,-0.037 -0.2606099,-0.075 -0.3888888,-0.1216 -2.0846966,-0.7633 -3.5729195,-2.755 -3.5729195,-5.1041 0,-3.0069 2.4375665,-5.4445 5.4444472,-5.4445 z m 0,0.7777 c -2.5773216,0 -4.6666693,2.0894 -4.6666693,4.6667 0,2.0136 1.2756291,3.7207 3.062503,4.375 l 1.6041663,-4.375 0,-4.6667 z"
       id="path5609"
       inkscape:connector-curvature="0" />
  </g>
</svg>
