<?xml version="1.0" encoding="UTF-8" standalone="no"?>
<!-- Created with Inkscape (http://www.inkscape.org/) -->

<svg
   xmlns:dc="http://purl.org/dc/elements/1.1/"
   xmlns:cc="http://creativecommons.org/ns#"
   xmlns:rdf="http://www.w3.org/1999/02/22-rdf-syntax-ns#"
   xmlns:svg="http://www.w3.org/2000/svg"
   xmlns="http://www.w3.org/2000/svg"
   xmlns:sodipodi="http://sodipodi.sourceforge.net/DTD/sodipodi-0.dtd"
   xmlns:inkscape="http://www.inkscape.org/namespaces/inkscape"
   width="22"
   height="22"
   id="svg2"
   version="1.1"
   inkscape:version="0.91 r"
   sodipodi:docname="pomodoro-indicator-light-18.svg">
  <defs
     id="defs4" />
  <sodipodi:namedview
     id="base"
     pagecolor="#ffffff"
     bordercolor="#666666"
     borderopacity="1.0"
     inkscape:pageopacity="0.0"
     inkscape:pageshadow="2"
     inkscape:zoom="23.681818"
     inkscape:cx="3.3570057"
     inkscape:cy="14.378119"
     inkscape:document-units="px"
     inkscape:current-layer="layer1"
     showgrid="false"
     inkscape:window-width="960"
     inkscape:window-height="844"
     inkscape:window-x="638"
     inkscape:window-y="30"
     inkscape:window-maximized="0" />
  <metadata
     id="metadata7">
    <rdf:RDF>
      <cc:Work
         rdf:about="">
        <dc:format>image/svg+xml</dc:format>
        <dc:type
           rdf:resource="http://purl.org/dc/dcmitype/StillImage" />
        <dc:title />
      </cc:Work>
    </rdf:RDF>
  </metadata>
  <g
     inkscape:label="Capa 1"
     inkscape:groupmode="layer"
     id="layer1"
     transform="translate(0,-1030.3622)">
    <path
       style="fill:#ffffff;fill-opacity:1;stroke:none"
       d="m 11.000002,1034.3622 c -1.6547998,0 -3.1768094,0.5712 -4.375003,1.5313 l -1.4097219,-1.4097 -1.0937496,1.0937 1.4097218,1.4097 c -0.9600419,1.1982 -1.5312495,2.7202 -1.5312495,4.375 0,3.866 3.1340002,7 7.0000022,7 3.865989,0 6.999998,-3.134 6.999998,-7 0,-1.6548 -0.571216,-3.1768 -1.53125,-4.375 l 1.409722,-1.4097 -1.09375,-1.0937 -1.409722,1.4097 c -1.198197,-0.9601 -2.720199,-1.5313 -4.374998,-1.5313 z m 0,1.5556 c 3.00688,0 5.444442,2.4375 5.444442,5.4444 0,3.0069 -2.437562,5.4444 -5.444442,5.4444 -3.0068806,0 -5.4444472,-2.4375 -5.4444472,-5.4444 0,-3.0069 2.4375666,-5.4444 5.4444472,-5.4444 z m 0,0.7777 c -2.5773295,0 -4.6666696,2.0894 -4.6666696,4.6667 0,2.5773 2.0893401,4.6667 4.6666696,4.6667 l 0,-4.6667 0,-4.6667 z"
       id="path5599"
       inkscape:connector-curvature="0" />
  </g>
</svg>
