<?xml version="1.0" encoding="UTF-8" standalone="no"?>
<!-- Created with Inkscape (http://www.inkscape.org/) -->

<svg
   xmlns:dc="http://purl.org/dc/elements/1.1/"
   xmlns:cc="http://creativecommons.org/ns#"
   xmlns:rdf="http://www.w3.org/1999/02/22-rdf-syntax-ns#"
   xmlns:svg="http://www.w3.org/2000/svg"
   xmlns="http://www.w3.org/2000/svg"
   xmlns:sodipodi="http://sodipodi.sourceforge.net/DTD/sodipodi-0.dtd"
   xmlns:inkscape="http://www.inkscape.org/namespaces/inkscape"
   width="22"
   height="22"
   id="svg2"
   version="1.1"
   inkscape:version="0.91 r"
   sodipodi:docname="pomodoro-indicator-light-35.svg">
  <defs
     id="defs4" />
  <sodipodi:namedview
     id="base"
     pagecolor="#ffffff"
     bordercolor="#666666"
     borderopacity="1.0"
     inkscape:pageopacity="0.0"
     inkscape:pageshadow="2"
     inkscape:zoom="23.681818"
     inkscape:cx="3.3992322"
     inkscape:cy="14.378119"
     inkscape:document-units="px"
     inkscape:current-layer="layer1"
     showgrid="false"
     inkscape:window-width="960"
     inkscape:window-height="844"
     inkscape:window-x="638"
     inkscape:window-y="30"
     inkscape:window-maximized="0" />
  <metadata
     id="metadata7">
    <rdf:RDF>
      <cc:Work
         rdf:about="">
        <dc:format>image/svg+xml</dc:format>
        <dc:type
           rdf:resource="http://purl.org/dc/dcmitype/StillImage" />
        <dc:title />
      </cc:Work>
    </rdf:RDF>
  </metadata>
  <g
     inkscape:label="Capa 1"
     inkscape:groupmode="layer"
     id="layer1"
     transform="translate(0,-1030.3622)">
    <path
       style="fill:#ffffff;fill-opacity:1;stroke:none"
       d="m 11.000002,1034.3622 c -1.6548032,0 -3.1768051,0.5711 -4.3750026,1.5312 l -1.4097219,-1.4097 -1.0937497,1.0938 1.4097219,1.4097 C 4.5712154,1038.1854 4,1039.7074 4,1041.3622 c 0,3.866 3.1340059,7 7.000002,7 3.86599,0 6.999998,-3.134 6.999998,-7 0,-1.6548 -0.571215,-3.1768 -1.53125,-4.375 l 1.409722,-1.4097 -1.09375,-1.0938 -1.409721,1.4097 c -1.198198,-0.9601 -2.7202,-1.5312 -4.374999,-1.5312 z m 0,1.5556 c 3.00688,0 5.444443,2.4375 5.444443,5.4444 0,3.0069 -2.437563,5.4444 -5.444443,5.4444 -3.0068863,0 -5.4444468,-2.4375 -5.4444468,-5.4444 0,-0.1635 0.010197,-0.3264 0.024306,-0.4861 0.00218,-0.024 -0.00249,-0.049 0,-0.073 0.011892,-0.1172 0.053713,-0.2255 0.072917,-0.3403 0.010718,-0.064 0.01141,-0.1318 0.024306,-0.1944 0.024578,-0.1201 0.040569,-0.2475 0.072917,-0.3646 0.00923,-0.033 0.014451,-0.064 0.024306,-0.097 0.019763,-0.067 0.050688,-0.1288 0.072917,-0.1945 0.042747,-0.1249 0.09439,-0.2439 0.1458333,-0.3646 0.030932,-0.073 0.063226,-0.1473 0.097222,-0.2187 0.00311,-0.01 -0.00311,-0.018 0,-0.024 0.064944,-0.1351 0.1432659,-0.2602 0.21875,-0.3889 0.058419,-0.099 0.1057427,-0.1969 0.1701388,-0.2917 0.022859,-0.033 0.049327,-0.064 0.072917,-0.097 0.010282,-0.015 0.013883,-0.034 0.024306,-0.048 0.081129,-0.1121 0.1781251,-0.2105 0.2673611,-0.3159 0.1006257,-0.1183 0.2056988,-0.2312 0.3159721,-0.3403 0.1072812,-0.1073 0.2243842,-0.2179 0.3402777,-0.316 0.016699,-0.014 0.031741,-0.035 0.048611,-0.048 0.1080263,-0.089 0.2254933,-0.1624 0.3402777,-0.2431 0.2555723,-0.1797 0.5167944,-0.3275 0.8020832,-0.4618 0.064571,-0.03 0.1285231,-0.069 0.1944444,-0.097 0.08142,-0.034 0.1596676,-0.067 0.2430555,-0.097 0.1515391,-0.055 0.3042992,-0.1038 0.4618054,-0.1458 0.1061247,-0.029 0.2073975,-0.051 0.3159722,-0.073 0.048199,-0.01 0.097177,-0.015 0.1458334,-0.024 0.309107,-0.054 0.623174,-0.097 0.947919,-0.097 z m 0,0.7777 c -0.271235,0 -0.543535,0.029 -0.802087,0.073 l 0.802087,4.5938 0,-4.6666 z"
       id="path5684"
       inkscape:connector-curvature="0" />
  </g>
</svg>
