<?xml version="1.0" encoding="UTF-8" standalone="no"?>
<!-- Created with Inkscape (http://www.inkscape.org/) -->

<svg
   xmlns:dc="http://purl.org/dc/elements/1.1/"
   xmlns:cc="http://creativecommons.org/ns#"
   xmlns:rdf="http://www.w3.org/1999/02/22-rdf-syntax-ns#"
   xmlns:svg="http://www.w3.org/2000/svg"
   xmlns="http://www.w3.org/2000/svg"
   xmlns:sodipodi="http://sodipodi.sourceforge.net/DTD/sodipodi-0.dtd"
   xmlns:inkscape="http://www.inkscape.org/namespaces/inkscape"
   width="22"
   height="22"
   id="svg2"
   version="1.1"
   inkscape:version="0.91 r"
   sodipodi:docname="pomodoro-indicator-light-17.svg">
  <defs
     id="defs4" />
  <sodipodi:namedview
     id="base"
     pagecolor="#ffffff"
     bordercolor="#666666"
     borderopacity="1.0"
     inkscape:pageopacity="0.0"
     inkscape:pageshadow="2"
     inkscape:zoom="23.681818"
     inkscape:cx="3.3992322"
     inkscape:cy="14.378119"
     inkscape:document-units="px"
     inkscape:current-layer="layer1"
     showgrid="false"
     inkscape:window-width="960"
     inkscape:window-height="844"
     inkscape:window-x="638"
     inkscape:window-y="30"
     inkscape:window-maximized="0" />
  <metadata
     id="metadata7">
    <rdf:RDF>
      <cc:Work
         rdf:about="">
        <dc:format>image/svg+xml</dc:format>
        <dc:type
           rdf:resource="http://purl.org/dc/dcmitype/StillImage" />
        <dc:title />
      </cc:Work>
    </rdf:RDF>
  </metadata>
  <g
     inkscape:label="Capa 1"
     inkscape:groupmode="layer"
     id="layer1"
     transform="translate(0,-1030.3622)">
    <path
       style="fill:#ffffff;fill-opacity:1;stroke:none"
       d="m 11,1034.3622 c -1.6548008,0 -3.1768046,0.5711 -4.375,1.5312 l -1.4097222,-1.4097 -1.09375,1.0938 1.4097222,1.4097 C 4.5712124,1038.1854 4,1039.7074 4,1041.3622 c 0,3.866 3.1340066,7 7,7 3.865993,0 7,-3.134 7,-7 0,-1.6548 -0.571216,-3.1768 -1.53125,-4.375 l 1.409722,-1.4097 -1.09375,-1.0938 -1.409722,1.4097 c -1.198195,-0.9601 -2.7202,-1.5312 -4.375,-1.5312 z m 0,1.5556 c 3.006883,0 5.444444,2.4375 5.444444,5.4444 0,0.1676 -0.0095,0.3225 -0.02431,0.4861 -0.0021,0.024 0.0024,0.049 0,0.073 -0.01449,0.1392 -0.04811,0.2775 -0.07292,0.4133 -0.0074,0.04 -0.01604,0.081 -0.02431,0.1214 -0.02438,0.1184 -0.04095,0.2493 -0.07292,0.3647 -0.01538,0.056 -0.03152,0.1152 -0.04861,0.1701 -0.02938,0.093 -0.06299,0.1761 -0.09722,0.2674 -0.02821,0.076 -0.06575,0.1443 -0.09722,0.2187 -0.03086,0.072 -0.06333,0.1481 -0.09722,0.2188 -0.0031,0.01 0.0032,0.018 0,0.024 -0.06494,0.1351 -0.143266,0.2603 -0.21875,0.3889 -0.05841,0.1 -0.105718,0.1963 -0.170139,0.2916 -0.0231,0.034 -0.04906,0.064 -0.07292,0.097 -0.0774,0.1092 -0.158023,0.2129 -0.243056,0.316 -0.01451,0.018 -0.03389,0.031 -0.04861,0.048 -0.09807,0.1159 -0.20869,0.233 -0.315972,0.3403 -0.110273,0.1091 -0.22101,0.2165 -0.340278,0.3159 -0.01715,0.015 -0.03128,0.034 -0.04861,0.048 -0.103609,0.084 -0.230531,0.1665 -0.340278,0.2431 -0.255572,0.1798 -0.516795,0.3275 -0.802083,0.4618 -0.06498,0.03 -0.128089,0.069 -0.194445,0.097 -0.0794,0.034 -0.161787,0.068 -0.243055,0.097 -0.15154,0.055 -0.3043,0.1037 -0.461806,0.1458 -0.102506,0.027 -0.211178,0.051 -0.315972,0.073 -0.04947,0.01 -0.09589,0.016 -0.145833,0.024 -0.309109,0.055 -0.623174,0.097 -0.947917,0.097 -3.0068834,0 -5.4444444,-2.4375 -5.4444444,-5.4444 0,-3.0069 2.437561,-5.4444 5.4444444,-5.4444 z m 0,0.7777 c -2.5773292,0 -4.6666667,2.0894 -4.6666667,4.6667 0,2.5773 2.0893375,4.6667 4.6666667,4.6667 0.271229,0 0.543529,-0.029 0.802083,-0.073 L 11,1041.362 l 0,-4.6666 z"
       id="path5594"
       inkscape:connector-curvature="0" />
  </g>
</svg>
