<?xml version="1.0" encoding="UTF-8" standalone="no"?>
<!-- Created with Inkscape (http://www.inkscape.org/) -->

<svg
   xmlns:dc="http://purl.org/dc/elements/1.1/"
   xmlns:cc="http://creativecommons.org/ns#"
   xmlns:rdf="http://www.w3.org/1999/02/22-rdf-syntax-ns#"
   xmlns:svg="http://www.w3.org/2000/svg"
   xmlns="http://www.w3.org/2000/svg"
   xmlns:sodipodi="http://sodipodi.sourceforge.net/DTD/sodipodi-0.dtd"
   xmlns:inkscape="http://www.inkscape.org/namespaces/inkscape"
   width="22"
   height="22"
   id="svg2"
   version="1.1"
   inkscape:version="0.91 r"
   sodipodi:docname="pomodoro-indicator-light-11.svg">
  <defs
     id="defs4" />
  <sodipodi:namedview
     id="base"
     pagecolor="#ffffff"
     bordercolor="#666666"
     borderopacity="1.0"
     inkscape:pageopacity="0.0"
     inkscape:pageshadow="2"
     inkscape:zoom="23.681818"
     inkscape:cx="3.3992322"
     inkscape:cy="14.378119"
     inkscape:document-units="px"
     inkscape:current-layer="layer1"
     showgrid="false"
     inkscape:window-width="960"
     inkscape:window-height="844"
     inkscape:window-x="638"
     inkscape:window-y="30"
     inkscape:window-maximized="0" />
  <metadata
     id="metadata7">
    <rdf:RDF>
      <cc:Work
         rdf:about="">
        <dc:format>image/svg+xml</dc:format>
        <dc:type
           rdf:resource="http://purl.org/dc/dcmitype/StillImage" />
        <dc:title />
      </cc:Work>
    </rdf:RDF>
  </metadata>
  <g
     inkscape:label="Capa 1"
     inkscape:groupmode="layer"
     id="layer1"
     transform="translate(0,-1030.3622)">
    <path
       style="fill:#ffffff;fill-opacity:1;stroke:none"
       d="m 11,1034.3622 c -1.6548,0 -3.1768046,0.5711 -4.375,1.5312 l -1.4097222,-1.4097 -1.09375,1.0938 1.4097222,1.4097 C 4.5712124,1038.1854 4,1039.7074 4,1041.3622 c 0,3.866 3.1340066,7 7,7 3.865993,0 7,-3.134 7,-7 0,-1.6548 -0.571213,-3.1768 -1.53125,-4.375 l 1.409722,-1.4097 -1.09375,-1.0938 -1.409722,1.4097 c -1.198195,-0.9601 -2.7202,-1.5312 -4.375,-1.5312 z m 0,1.5556 c 3.006883,0 5.444444,2.4375 5.444444,5.4444 0,0.1616 -0.01083,0.3276 -0.02431,0.4861 -0.0021,0.024 0.0024,0.049 0,0.073 -0.0033,0.034 -0.02039,0.064 -0.02431,0.097 -0.03911,0.3349 -0.09743,0.6595 -0.194444,0.9723 -0.02423,0.078 -0.06963,0.1424 -0.09722,0.2188 -0.757361,2.0959 -2.746939,3.5972 -5.104167,3.5972 -3.0068834,0 -5.4444444,-2.4376 -5.4444444,-5.4445 0,-3.0069 2.437561,-5.4444 5.4444444,-5.4444 z m 0,0.7777 c -2.5773292,0 -4.6666667,2.0894 -4.6666667,4.6667 0,2.5773 2.0893375,4.6667 4.6666667,4.6667 2.021592,0 3.726656,-1.2887 4.375,-3.0869 l -4.375,-1.5798 0,-4.6667 z"
       id="path5564"
       inkscape:connector-curvature="0" />
  </g>
</svg>
