<?xml version="1.0" encoding="UTF-8" standalone="no"?>
<!-- Created with Inkscape (http://www.inkscape.org/) -->

<svg
   xmlns:dc="http://purl.org/dc/elements/1.1/"
   xmlns:cc="http://creativecommons.org/ns#"
   xmlns:rdf="http://www.w3.org/1999/02/22-rdf-syntax-ns#"
   xmlns:svg="http://www.w3.org/2000/svg"
   xmlns="http://www.w3.org/2000/svg"
   xmlns:sodipodi="http://sodipodi.sourceforge.net/DTD/sodipodi-0.dtd"
   xmlns:inkscape="http://www.inkscape.org/namespaces/inkscape"
   width="22"
   height="22"
   id="svg2"
   version="1.1"
   inkscape:version="0.91 r"
   sodipodi:docname="pomodoro-indicator-light-24.svg">
  <defs
     id="defs4" />
  <sodipodi:namedview
     id="base"
     pagecolor="#ffffff"
     bordercolor="#666666"
     borderopacity="1.0"
     inkscape:pageopacity="0.0"
     inkscape:pageshadow="2"
     inkscape:zoom="23.681818"
     inkscape:cx="3.3992322"
     inkscape:cy="14.378119"
     inkscape:document-units="px"
     inkscape:current-layer="layer1"
     showgrid="false"
     inkscape:window-width="960"
     inkscape:window-height="844"
     inkscape:window-x="638"
     inkscape:window-y="30"
     inkscape:window-maximized="0" />
  <metadata
     id="metadata7">
    <rdf:RDF>
      <cc:Work
         rdf:about="">
        <dc:format>image/svg+xml</dc:format>
        <dc:type
           rdf:resource="http://purl.org/dc/dcmitype/StillImage" />
        <dc:title />
      </cc:Work>
    </rdf:RDF>
  </metadata>
  <g
     inkscape:label="Capa 1"
     inkscape:groupmode="layer"
     id="layer1"
     transform="translate(0,-1030.3622)">
    <path
       style="fill:#ffffff;fill-opacity:1;stroke:none"
       d="m 11,1034.3622 c -1.6548,0 -3.1768022,0.5711 -4.375,1.5312 l -1.4097222,-1.4097 -1.09375,1.0938 1.4097222,1.4097 C 4.5712078,1038.1854 4,1039.7074 4,1041.3622 c 0,3.866 3.1340089,7 7,7 3.865992,0 7,-3.134 7,-7 0,-1.6548 -0.571216,-3.1768 -1.53125,-4.375 l 1.409722,-1.4097 -1.09375,-1.0938 -1.409722,1.4097 c -1.198197,-0.9601 -2.7202,-1.5312 -4.375,-1.5312 z m 0,1.5556 c 3.006883,0 5.444444,2.4375 5.444444,5.4444 0,3.0069 -2.437561,5.4444 -5.444444,5.4444 -0.188487,0 -0.37554,-0.01 -0.559028,-0.024 -0.06589,-0.01 -0.12927,-0.015 -0.194444,-0.024 -0.118448,-0.016 -0.224413,-0.049 -0.340278,-0.073 -0.120113,-0.025 -0.2474943,-0.04 -0.3645833,-0.073 -0.024819,-0.01 -0.048246,-0.017 -0.072917,-0.024 -0.1350456,-0.04 -0.2584019,-0.096 -0.3888889,-0.1458 -0.064415,-0.025 -0.1312352,-0.046 -0.1944444,-0.073 -0.00677,0 -0.017547,0 -0.024306,0 -0.074293,-0.032 -0.1462105,-0.062 -0.21875,-0.097 -0.1247462,-0.06 -0.2453337,-0.1254 -0.3645833,-0.1944 -0.040841,-0.024 -0.081374,-0.048 -0.1215278,-0.073 -0.1810262,-0.1113 -0.3442164,-0.2335 -0.5104167,-0.3646 -0.031764,-0.025 -0.066033,-0.047 -0.097222,-0.073 -0.051987,-0.043 -0.09549,-0.101 -0.1458333,-0.1458 -0.081385,-0.072 -0.1661621,-0.1414 -0.2430556,-0.2187 -0.083715,-0.084 -0.1649386,-0.1779 -0.2430555,-0.2674 -0.090781,-0.1033 -0.1845115,-0.2059 -0.2673611,-0.316 -0.1429253,-0.1898 -0.2713862,-0.3753 -0.3888889,-0.5833 -0.4461069,-0.7898 -0.7048611,-1.7019 -0.7048611,-2.6736 0,-3.0069 2.437561,-5.4445 5.4444449,-5.4445 z m 0,0.7777 c -2.5773292,0 -4.6666667,2.0894 -4.6666667,4.6667 0,0.8302 0.2275871,1.6093 0.6076389,2.2847 L 11,1041.3622 l 0,-4.6667 z"
       id="path5629"
       inkscape:connector-curvature="0" />
  </g>
</svg>
