<?xml version="1.0" encoding="UTF-8" standalone="no"?>
<!-- Created with Inkscape (http://www.inkscape.org/) -->

<svg
   xmlns:dc="http://purl.org/dc/elements/1.1/"
   xmlns:cc="http://creativecommons.org/ns#"
   xmlns:rdf="http://www.w3.org/1999/02/22-rdf-syntax-ns#"
   xmlns:svg="http://www.w3.org/2000/svg"
   xmlns="http://www.w3.org/2000/svg"
   xmlns:sodipodi="http://sodipodi.sourceforge.net/DTD/sodipodi-0.dtd"
   xmlns:inkscape="http://www.inkscape.org/namespaces/inkscape"
   width="22"
   height="22"
   id="svg2"
   version="1.1"
   inkscape:version="0.91 r"
   sodipodi:docname="pomodoro-indicator-light-26.svg">
  <defs
     id="defs4" />
  <sodipodi:namedview
     id="base"
     pagecolor="#ffffff"
     bordercolor="#666666"
     borderopacity="1.0"
     inkscape:pageopacity="0.0"
     inkscape:pageshadow="2"
     inkscape:zoom="23.681818"
     inkscape:cx="3.3992322"
     inkscape:cy="14.378119"
     inkscape:document-units="px"
     inkscape:current-layer="layer1"
     showgrid="false"
     inkscape:window-width="960"
     inkscape:window-height="844"
     inkscape:window-x="638"
     inkscape:window-y="30"
     inkscape:window-maximized="0" />
  <metadata
     id="metadata7">
    <rdf:RDF>
      <cc:Work
         rdf:about="">
        <dc:format>image/svg+xml</dc:format>
        <dc:type
           rdf:resource="http://purl.org/dc/dcmitype/StillImage" />
        <dc:title />
      </cc:Work>
    </rdf:RDF>
  </metadata>
  <g
     inkscape:label="Capa 1"
     inkscape:groupmode="layer"
     id="layer1"
     transform="translate(0,-1030.3622)">
    <path
       style="fill:#ffffff;fill-opacity:1;stroke:none"
       d="m 11,1034.3622 c -1.6548008,0 -3.17681,0.5712 -4.375,1.5313 l -1.4097222,-1.4097 -1.09375,1.0937 1.4097222,1.4097 C 4.5712039,1038.1854 4,1039.7074 4,1041.3622 c 0,3.866 3.1340003,7 7,7 3.865991,0 7,-3.134 7,-7 0,-1.6548 -0.571216,-3.1768 -1.53125,-4.375 l 1.409722,-1.4097 -1.09375,-1.0937 -1.409722,1.4097 c -1.198198,-0.9601 -2.7202,-1.5313 -4.375,-1.5313 z m 0,1.5556 c 3.006883,0 5.444444,2.4375 5.444444,5.4444 0,3.0069 -2.437561,5.4444 -5.444444,5.4444 -0.18542,0 -0.378538,-0.01 -0.559028,-0.024 -0.107619,-0.011 -0.210298,-0.032 -0.315972,-0.048 -0.0744,-0.012 -0.1454196,-0.033 -0.21875,-0.048 -0.120113,-0.025 -0.2474943,-0.04 -0.3645833,-0.073 -0.039223,-0.011 -0.082672,-0.013 -0.1215278,-0.024 -0.041565,-0.013 -0.08039,-0.035 -0.1215278,-0.048 -0.1438943,-0.047 -0.2749623,-0.1113 -0.4131944,-0.1701 -0.079897,-0.034 -0.1651619,-0.06 -0.2430556,-0.097 -0.1350922,-0.065 -0.2602647,-0.1432 -0.3888889,-0.2187 -0.092171,-0.054 -0.2031291,-0.1102 -0.2916666,-0.1701 -0.043322,-0.03 -0.079108,-0.067 -0.1215278,-0.097 -0.1021254,-0.073 -0.1950099,-0.1386 -0.2916667,-0.2187 -0.021801,-0.018 -0.051403,-0.03 -0.072917,-0.048 -0.1097382,-0.094 -0.214067,-0.2137 -0.3159722,-0.316 -0.00793,-0.01 -0.016419,-0.016 -0.024305,-0.024 -0.056482,-0.058 -0.1162311,-0.1103 -0.1701389,-0.1702 -0.049124,-0.054 -0.098895,-0.1139 -0.1458334,-0.1701 -0.00747,-0.01 -0.016901,-0.016 -0.024305,-0.024 -0.089151,-0.108 -0.1623129,-0.2255 -0.2430556,-0.3403 -0.088396,-0.1256 -0.1896377,-0.2314 -0.2673611,-0.3645 -0.00334,-0.01 0.00334,-0.019 0,-0.024 -0.1597213,-0.2762 -0.2790262,-0.571 -0.3888889,-0.875 -0.054872,-0.1519 -0.1044267,-0.304 -0.1458333,-0.4618 -0.026157,-0.099 -0.052204,-0.1908 -0.072917,-0.2917 -0.011457,-0.056 -0.014583,-0.1135 -0.024306,-0.1702 -0.051823,-0.3017 -0.097222,-0.6071 -0.097222,-0.9236 0,-3.0069 2.437561,-5.4444 5.4444443,-5.4444 z m 0,0.7777 c -2.5773292,0 -4.6666667,2.0894 -4.6666667,4.6667 0,0.2712 0.028506,0.5435 0.072917,0.8021 L 11,1041.3622 l 0,-4.6667 z"
       id="path5639"
       inkscape:connector-curvature="0" />
  </g>
</svg>
